solid 
 facet normal  0.000000e+00  7.748838e-02 -9.969933e-01
   outer loop
     vertex  4.593931e-02 -1.394025e-01  3.449733e-01
     vertex  4.623931e-02 -1.380239e-01  3.450805e-01
     vertex  4.623931e-02 -1.394025e-01  3.449733e-01
   endloop
 endfacet
 facet normal  0.000000e+00  7.748838e-02 -9.969933e-01
   outer loop
     vertex  4.593931e-02 -1.394025e-01  3.449733e-01
     vertex  4.593931e-02 -1.380239e-01  3.450805e-01
     vertex  4.623931e-02 -1.380239e-01  3.450805e-01
   endloop
 endfacet
 facet normal  0.000000e+00 -7.710427e-01 -6.367834e-01
   outer loop
     vertex  4.593931e-02 -1.402830e-01  3.460395e-01
     vertex  4.623931e-02 -1.394025e-01  3.449733e-01
     vertex  4.623931e-02 -1.402830e-01  3.460395e-01
   endloop
 endfacet
 facet normal  0.000000e+00 -7.710427e-01 -6.367834e-01
   outer loop
     vertex  4.593931e-02 -1.402830e-01  3.460395e-01
     vertex  4.593931e-02 -1.394025e-01  3.449733e-01
     vertex  4.623931e-02 -1.394025e-01  3.449733e-01
   endloop
 endfacet
 facet normal  0.000000e+00 -9.643755e-01  2.645371e-01
   outer loop
     vertex  4.593931e-02 -1.399172e-01  3.473729e-01
     vertex  4.623931e-02 -1.402830e-01  3.460395e-01
     vertex  4.623931e-02 -1.399172e-01  3.473729e-01
   endloop
 endfacet
 facet normal  0.000000e+00 -9.643755e-01  2.645371e-01
   outer loop
     vertex  4.593931e-02 -1.399172e-01  3.473729e-01
     vertex  4.593931e-02 -1.402830e-01  3.460395e-01
     vertex  4.623931e-02 -1.402830e-01  3.460395e-01
   endloop
 endfacet
 facet normal  7.070059e-01  4.371832e-01 -5.558899e-01
   outer loop
     vertex  4.633931e-02 -1.379774e-01  3.452333e-01
     vertex  4.633931e-02 -1.379248e-01  3.452746e-01
     vertex  4.682216e-02 -1.382323e-01  3.456469e-01
   endloop
 endfacet
 facet normal  7.085341e-01  4.092446e-01 -5.748898e-01
   outer loop
     vertex  4.633931e-02 -1.380319e-01  3.451945e-01
     vertex  4.633931e-02 -1.379774e-01  3.452333e-01
     vertex  4.682216e-02 -1.382323e-01  3.456469e-01
   endloop
 endfacet
 facet normal  7.115576e-01  3.796708e-01 -5.912156e-01
   outer loop
     vertex  4.633931e-02 -1.380882e-01  3.451583e-01
     vertex  4.633931e-02 -1.380319e-01  3.451945e-01
     vertex  4.682216e-02 -1.382323e-01  3.456469e-01
   endloop
 endfacet
 facet normal  6.368288e-01  5.974394e-02 -7.686870e-01
   outer loop
     vertex  4.623931e-02 -1.394025e-01  3.449733e-01
     vertex  4.623931e-02 -1.380239e-01  3.450805e-01
     vertex  4.633931e-02 -1.380882e-01  3.451583e-01
   endloop
 endfacet
 facet normal  8.016574e-01 -5.675100e-02 -5.950837e-01
   outer loop
     vertex  4.623931e-02 -1.394025e-01  3.449733e-01
     vertex  4.682216e-02 -1.382323e-01  3.456469e-01
     vertex  4.682216e-02 -1.395235e-01  3.457700e-01
   endloop
 endfacet
 facet normal  7.169671e-01  4.338084e-02 -6.957559e-01
   outer loop
     vertex  4.623931e-02 -1.394025e-01  3.449733e-01
     vertex  4.633931e-02 -1.380882e-01  3.451583e-01
     vertex  4.682216e-02 -1.382323e-01  3.456469e-01
   endloop
 endfacet
 facet normal  5.791022e-01 -6.285964e-01 -5.191408e-01
   outer loop
     vertex  4.623931e-02 -1.402830e-01  3.460395e-01
     vertex  4.623931e-02 -1.394025e-01  3.449733e-01
     vertex  4.682216e-02 -1.395235e-01  3.457700e-01
   endloop
 endfacet
 facet normal  8.016574e-01 -5.950837e-01  5.675100e-02
   outer loop
     vertex  4.682216e-02 -1.394004e-01  3.470612e-01
     vertex  4.623931e-02 -1.402830e-01  3.460395e-01
     vertex  4.682216e-02 -1.395235e-01  3.457700e-01
   endloop
 endfacet
 facet normal  7.169671e-01 -6.750149e-01  1.741063e-01
   outer loop
     vertex  4.633931e-02 -1.398529e-01  3.472951e-01
     vertex  4.623931e-02 -1.402830e-01  3.460395e-01
     vertex  4.682216e-02 -1.394004e-01  3.470612e-01
   endloop
 endfacet
 facet normal  7.089934e-01 -4.989047e-01  4.984199e-01
   outer loop
     vertex  4.633931e-02 -1.397584e-01  3.473897e-01
     vertex  4.633931e-02 -1.398529e-01  3.472951e-01
     vertex  4.682216e-02 -1.394004e-01  3.470612e-01
   endloop
 endfacet
 facet normal  6.368288e-01 -7.435386e-01  2.039595e-01
   outer loop
     vertex  4.623931e-02 -1.399172e-01  3.473729e-01
     vertex  4.623931e-02 -1.402830e-01  3.460395e-01
     vertex  4.633931e-02 -1.398529e-01  3.472951e-01
   endloop
 endfacet
 facet normal  7.059338e-01 -4.510195e-01  5.461124e-01
   outer loop
     vertex  4.633931e-02 -1.396552e-01  3.474749e-01
     vertex  4.633931e-02 -1.397584e-01  3.473897e-01
     vertex  4.682216e-02 -1.394004e-01  3.470612e-01
   endloop
 endfacet
 facet normal  7.089934e-01 -3.951357e-01  5.841199e-01
   outer loop
     vertex  4.633931e-02 -1.395445e-01  3.475498e-01
     vertex  4.633931e-02 -1.396552e-01  3.474749e-01
     vertex  4.682216e-02 -1.394004e-01  3.470612e-01
   endloop
 endfacet
 facet normal  8.016574e-01  5.675100e-02  5.950837e-01
   outer loop
     vertex  4.623931e-02 -1.382302e-01  3.477348e-01
     vertex  4.682216e-02 -1.394004e-01  3.470612e-01
     vertex  4.682216e-02 -1.381092e-01  3.469381e-01
   endloop
 endfacet
 facet normal  6.368288e-01 -5.974394e-02  7.686870e-01
   outer loop
     vertex  4.623931e-02 -1.382302e-01  3.477348e-01
     vertex  4.623931e-02 -1.396088e-01  3.476277e-01
     vertex  4.633931e-02 -1.395445e-01  3.475498e-01
   endloop
 endfacet
 facet normal  7.169671e-01 -4.338084e-02  6.957559e-01
   outer loop
     vertex  4.623931e-02 -1.382302e-01  3.477348e-01
     vertex  4.633931e-02 -1.395445e-01  3.475498e-01
     vertex  4.682216e-02 -1.394004e-01  3.470612e-01
   endloop
 endfacet
 facet normal  5.791022e-01  6.285964e-01  5.191408e-01
   outer loop
     vertex  4.623931e-02 -1.373497e-01  3.466687e-01
     vertex  4.623931e-02 -1.382302e-01  3.477348e-01
     vertex  4.682216e-02 -1.381092e-01  3.469381e-01
   endloop
 endfacet
 facet normal  8.016574e-01  5.950837e-01 -5.675100e-02
   outer loop
     vertex  4.682216e-02 -1.382323e-01  3.456469e-01
     vertex  4.623931e-02 -1.373497e-01  3.466687e-01
     vertex  4.682216e-02 -1.381092e-01  3.469381e-01
   endloop
 endfacet
 facet normal  7.169671e-01  6.750149e-01 -1.741063e-01
   outer loop
     vertex  4.633931e-02 -1.377798e-01  3.454130e-01
     vertex  4.623931e-02 -1.373497e-01  3.466687e-01
     vertex  4.682216e-02 -1.382323e-01  3.456469e-01
   endloop
 endfacet
 facet normal  7.115576e-01  5.087956e-01 -4.845749e-01
   outer loop
     vertex  4.633931e-02 -1.378259e-01  3.453646e-01
     vertex  4.633931e-02 -1.377798e-01  3.454130e-01
     vertex  4.682216e-02 -1.382323e-01  3.456469e-01
   endloop
 endfacet
 facet normal  7.085341e-01  4.871742e-01 -5.105298e-01
   outer loop
     vertex  4.633931e-02 -1.378743e-01  3.453184e-01
     vertex  4.633931e-02 -1.378259e-01  3.453646e-01
     vertex  4.682216e-02 -1.382323e-01  3.456469e-01
   endloop
 endfacet
 facet normal  6.368288e-01  7.435386e-01 -2.039595e-01
   outer loop
     vertex  4.623931e-02 -1.377155e-01  3.453352e-01
     vertex  4.623931e-02 -1.373497e-01  3.466687e-01
     vertex  4.633931e-02 -1.377798e-01  3.454130e-01
   endloop
 endfacet
 facet normal  7.070059e-01  4.632360e-01 -5.343736e-01
   outer loop
     vertex  4.633931e-02 -1.379248e-01  3.452746e-01
     vertex  4.633931e-02 -1.378743e-01  3.453184e-01
     vertex  4.682216e-02 -1.382323e-01  3.456469e-01
   endloop
 endfacet
 facet normal  4.769051e-01 -8.344417e-02 -8.749849e-01
   outer loop
     vertex  4.690500e-02 -1.394745e-01  3.458105e-01
     vertex  4.682216e-02 -1.382323e-01  3.456469e-01
     vertex  4.690500e-02 -1.382728e-01  3.456959e-01
   endloop
 endfacet
 facet normal  4.769051e-01 -8.344417e-02 -8.749849e-01
   outer loop
     vertex  4.690500e-02 -1.394745e-01  3.458105e-01
     vertex  4.682216e-02 -1.395235e-01  3.457700e-01
     vertex  4.682216e-02 -1.382323e-01  3.456469e-01
   endloop
 endfacet
 facet normal  9.269160e-02 -9.452697e-02 -9.911977e-01
   outer loop
     vertex  4.700147e-02 -1.394437e-01  3.458360e-01
     vertex  4.710500e-02 -1.383069e-01  3.457372e-01
     vertex  4.710500e-02 -1.394332e-01  3.458446e-01
   endloop
 endfacet
 facet normal  2.810846e-01 -9.110815e-02 -9.553485e-01
   outer loop
     vertex  4.700147e-02 -1.394437e-01  3.458360e-01
     vertex  4.690500e-02 -1.382728e-01  3.456959e-01
     vertex  4.700147e-02 -1.382982e-01  3.457267e-01
   endloop
 endfacet
 facet normal  9.269160e-02 -9.452697e-02 -9.911977e-01
   outer loop
     vertex  4.700147e-02 -1.394437e-01  3.458360e-01
     vertex  4.700147e-02 -1.382982e-01  3.457267e-01
     vertex  4.710500e-02 -1.383069e-01  3.457372e-01
   endloop
 endfacet
 facet normal  2.810846e-01 -9.110815e-02 -9.553485e-01
   outer loop
     vertex  4.700147e-02 -1.394437e-01  3.458360e-01
     vertex  4.690500e-02 -1.394745e-01  3.458105e-01
     vertex  4.690500e-02 -1.382728e-01  3.456959e-01
   endloop
 endfacet
 facet normal  4.769051e-01 -8.749849e-01  8.344417e-02
   outer loop
     vertex  4.690500e-02 -1.393599e-01  3.470122e-01
     vertex  4.682216e-02 -1.394004e-01  3.470612e-01
     vertex  4.682216e-02 -1.395235e-01  3.457700e-01
   endloop
 endfacet
 facet normal  4.769051e-01 -8.749849e-01  8.344417e-02
   outer loop
     vertex  4.690500e-02 -1.393599e-01  3.470122e-01
     vertex  4.682216e-02 -1.395235e-01  3.457700e-01
     vertex  4.690500e-02 -1.394745e-01  3.458105e-01
   endloop
 endfacet
 facet normal  9.269160e-02 -9.911977e-01  9.452697e-02
   outer loop
     vertex  4.700147e-02 -1.393344e-01  3.469814e-01
     vertex  4.710500e-02 -1.394332e-01  3.458446e-01
     vertex  4.710500e-02 -1.393258e-01  3.469709e-01
   endloop
 endfacet
 facet normal  2.810846e-01 -9.553485e-01  9.110815e-02
   outer loop
     vertex  4.700147e-02 -1.393344e-01  3.469814e-01
     vertex  4.690500e-02 -1.394745e-01  3.458105e-01
     vertex  4.700147e-02 -1.394437e-01  3.458360e-01
   endloop
 endfacet
 facet normal  2.810846e-01 -9.553485e-01  9.110815e-02
   outer loop
     vertex  4.700147e-02 -1.393344e-01  3.469814e-01
     vertex  4.690500e-02 -1.393599e-01  3.470122e-01
     vertex  4.690500e-02 -1.394745e-01  3.458105e-01
   endloop
 endfacet
 facet normal  9.269160e-02 -9.911977e-01  9.452697e-02
   outer loop
     vertex  4.700147e-02 -1.393344e-01  3.469814e-01
     vertex  4.700147e-02 -1.394437e-01  3.458360e-01
     vertex  4.710500e-02 -1.394332e-01  3.458446e-01
   endloop
 endfacet
 facet normal  4.769051e-01  8.749849e-01 -8.344417e-02
   outer loop
     vertex  4.690500e-02 -1.381582e-01  3.468976e-01
     vertex  4.690500e-02 -1.382728e-01  3.456959e-01
     vertex  4.682216e-02 -1.382323e-01  3.456469e-01
   endloop
 endfacet
 facet normal  4.769051e-01  8.749849e-01 -8.344417e-02
   outer loop
     vertex  4.690500e-02 -1.381582e-01  3.468976e-01
     vertex  4.682216e-02 -1.382323e-01  3.456469e-01
     vertex  4.682216e-02 -1.381092e-01  3.469381e-01
   endloop
 endfacet
 facet normal  4.769051e-01  8.344417e-02  8.749849e-01
   outer loop
     vertex  4.690500e-02 -1.381582e-01  3.468976e-01
     vertex  4.682216e-02 -1.381092e-01  3.469381e-01
     vertex  4.682216e-02 -1.394004e-01  3.470612e-01
   endloop
 endfacet
 facet normal  4.769051e-01  8.344417e-02  8.749849e-01
   outer loop
     vertex  4.690500e-02 -1.381582e-01  3.468976e-01
     vertex  4.682216e-02 -1.394004e-01  3.470612e-01
     vertex  4.690500e-02 -1.393599e-01  3.470122e-01
   endloop
 endfacet
 facet normal  2.810846e-01  9.553485e-01 -9.110815e-02
   outer loop
     vertex  4.700147e-02 -1.381890e-01  3.468722e-01
     vertex  4.700147e-02 -1.382982e-01  3.457267e-01
     vertex  4.690500e-02 -1.382728e-01  3.456959e-01
   endloop
 endfacet
 facet normal  9.269160e-02  9.911977e-01 -9.452697e-02
   outer loop
     vertex  4.700147e-02 -1.381890e-01  3.468722e-01
     vertex  4.710500e-02 -1.383069e-01  3.457372e-01
     vertex  4.700147e-02 -1.382982e-01  3.457267e-01
   endloop
 endfacet
 facet normal  9.269160e-02  9.452697e-02  9.911977e-01
   outer loop
     vertex  4.700147e-02 -1.381890e-01  3.468722e-01
     vertex  4.710500e-02 -1.393258e-01  3.469709e-01
     vertex  4.710500e-02 -1.381995e-01  3.468635e-01
   endloop
 endfacet
 facet normal  9.269160e-02  9.911977e-01 -9.452697e-02
   outer loop
     vertex  4.700147e-02 -1.381890e-01  3.468722e-01
     vertex  4.710500e-02 -1.381995e-01  3.468635e-01
     vertex  4.710500e-02 -1.383069e-01  3.457372e-01
   endloop
 endfacet
 facet normal  2.810846e-01  9.110815e-02  9.553485e-01
   outer loop
     vertex  4.700147e-02 -1.381890e-01  3.468722e-01
     vertex  4.690500e-02 -1.381582e-01  3.468976e-01
     vertex  4.690500e-02 -1.393599e-01  3.470122e-01
   endloop
 endfacet
 facet normal  2.810846e-01  9.553485e-01 -9.110815e-02
   outer loop
     vertex  4.700147e-02 -1.381890e-01  3.468722e-01
     vertex  4.690500e-02 -1.382728e-01  3.456959e-01
     vertex  4.690500e-02 -1.381582e-01  3.468976e-01
   endloop
 endfacet
 facet normal  9.269160e-02  9.452697e-02  9.911977e-01
   outer loop
     vertex  4.700147e-02 -1.381890e-01  3.468722e-01
     vertex  4.700147e-02 -1.393344e-01  3.469814e-01
     vertex  4.710500e-02 -1.393258e-01  3.469709e-01
   endloop
 endfacet
 facet normal  2.810846e-01  9.110815e-02  9.553485e-01
   outer loop
     vertex  4.700147e-02 -1.381890e-01  3.468722e-01
     vertex  4.690500e-02 -1.393599e-01  3.470122e-01
     vertex  4.700147e-02 -1.393344e-01  3.469814e-01
   endloop
 endfacet
 facet normal  0.000000e+00 -9.493568e-02 -9.954834e-01
   outer loop
     vertex  4.710500e-02 -1.394332e-01  3.458446e-01
     vertex  4.710500e-02 -1.383069e-01  3.457372e-01
     vertex  5.393931e-02 -1.383069e-01  3.457372e-01
   endloop
 endfacet
 facet normal  0.000000e+00 -9.493568e-02 -9.954834e-01
   outer loop
     vertex  4.710500e-02 -1.394332e-01  3.458446e-01
     vertex  5.393931e-02 -1.383069e-01  3.457372e-01
     vertex  5.393931e-02 -1.394332e-01  3.458446e-01
   endloop
 endfacet
 facet normal  0.000000e+00 -9.954834e-01  9.493568e-02
   outer loop
     vertex  4.710500e-02 -1.393258e-01  3.469709e-01
     vertex  5.393931e-02 -1.394332e-01  3.458446e-01
     vertex  5.393931e-02 -1.393258e-01  3.469709e-01
   endloop
 endfacet
 facet normal  0.000000e+00 -9.954834e-01  9.493568e-02
   outer loop
     vertex  4.710500e-02 -1.393258e-01  3.469709e-01
     vertex  4.710500e-02 -1.394332e-01  3.458446e-01
     vertex  5.393931e-02 -1.394332e-01  3.458446e-01
   endloop
 endfacet
 facet normal -0.000000e+00  9.493568e-02  9.954834e-01
   outer loop
     vertex  4.710500e-02 -1.381995e-01  3.468635e-01
     vertex  5.393931e-02 -1.393258e-01  3.469709e-01
     vertex  5.393931e-02 -1.381995e-01  3.468635e-01
   endloop
 endfacet
 facet normal  0.000000e+00  9.493568e-02  9.954834e-01
   outer loop
     vertex  4.710500e-02 -1.381995e-01  3.468635e-01
     vertex  4.710500e-02 -1.393258e-01  3.469709e-01
     vertex  5.393931e-02 -1.393258e-01  3.469709e-01
   endloop
 endfacet
 facet normal  0.000000e+00  9.954834e-01 -9.493568e-02
   outer loop
     vertex  4.710500e-02 -1.383069e-01  3.457372e-01
     vertex  5.393931e-02 -1.381995e-01  3.468635e-01
     vertex  5.393931e-02 -1.383069e-01  3.457372e-01
   endloop
 endfacet
 facet normal  0.000000e+00  9.954834e-01 -9.493568e-02
   outer loop
     vertex  4.710500e-02 -1.383069e-01  3.457372e-01
     vertex  4.710500e-02 -1.381995e-01  3.468635e-01
     vertex  5.393931e-02 -1.381995e-01  3.468635e-01
   endloop
 endfacet
 facet normal  1.000000e+00 -5.962312e-13 -6.252004e-12
   outer loop
     vertex  5.393931e-02 -1.393258e-01  3.469709e-01
     vertex  5.393931e-02 -1.383069e-01  3.457372e-01
     vertex  5.393931e-02 -1.381995e-01  3.468635e-01
   endloop
 endfacet
 facet normal  1.000000e+00  6.252004e-12 -5.962312e-13
   outer loop
     vertex  5.393931e-02 -1.393258e-01  3.469709e-01
     vertex  5.393931e-02 -1.394332e-01  3.458446e-01
     vertex  5.393931e-02 -1.383069e-01  3.457372e-01
   endloop
 endfacet
 facet normal -1.000000e+00  0.000000e+00 -0.000000e+00
   outer loop
     vertex  4.633931e-02 -1.396552e-01  3.474749e-01
     vertex  4.633931e-02 -1.380882e-01  3.451583e-01
     vertex  4.633931e-02 -1.398529e-01  3.472951e-01
   endloop
 endfacet
 facet normal -1.000000e+00  0.000000e+00  0.000000e+00
   outer loop
     vertex  4.633931e-02 -1.396552e-01  3.474749e-01
     vertex  4.633931e-02 -1.398529e-01  3.472951e-01
     vertex  4.633931e-02 -1.397584e-01  3.473897e-01
   endloop
 endfacet
 facet normal -1.000000e+00  0.000000e+00  0.000000e+00
   outer loop
     vertex  4.633931e-02 -1.396552e-01  3.474749e-01
     vertex  4.633931e-02 -1.377798e-01  3.454130e-01
     vertex  4.633931e-02 -1.378259e-01  3.453646e-01
   endloop
 endfacet
 facet normal -1.000000e+00  0.000000e+00  0.000000e+00
   outer loop
     vertex  4.633931e-02 -1.396552e-01  3.474749e-01
     vertex  4.633931e-02 -1.378259e-01  3.453646e-01
     vertex  4.633931e-02 -1.378743e-01  3.453184e-01
   endloop
 endfacet
 facet normal -1.000000e+00  0.000000e+00  0.000000e+00
   outer loop
     vertex  4.633931e-02 -1.396552e-01  3.474749e-01
     vertex  4.633931e-02 -1.378743e-01  3.453184e-01
     vertex  4.633931e-02 -1.379248e-01  3.452746e-01
   endloop
 endfacet
 facet normal -1.000000e+00  0.000000e+00  0.000000e+00
   outer loop
     vertex  4.633931e-02 -1.396552e-01  3.474749e-01
     vertex  4.633931e-02 -1.379248e-01  3.452746e-01
     vertex  4.633931e-02 -1.379774e-01  3.452333e-01
   endloop
 endfacet
 facet normal -1.000000e+00  0.000000e+00  0.000000e+00
   outer loop
     vertex  4.633931e-02 -1.396552e-01  3.474749e-01
     vertex  4.633931e-02 -1.379774e-01  3.452333e-01
     vertex  4.633931e-02 -1.380319e-01  3.451945e-01
   endloop
 endfacet
 facet normal -1.000000e+00  0.000000e+00  0.000000e+00
   outer loop
     vertex  4.633931e-02 -1.396552e-01  3.474749e-01
     vertex  4.633931e-02 -1.380319e-01  3.451945e-01
     vertex  4.633931e-02 -1.380882e-01  3.451583e-01
   endloop
 endfacet
 facet normal -1.000000e+00  0.000000e+00 -0.000000e+00
   outer loop
     vertex  4.633931e-02 -1.395445e-01  3.475498e-01
     vertex  4.633931e-02 -1.377798e-01  3.454130e-01
     vertex  4.633931e-02 -1.396552e-01  3.474749e-01
   endloop
 endfacet
 facet normal  0.000000e+00  7.710427e-01  6.367834e-01
   outer loop
     vertex  4.633931e-02 -1.398529e-01  3.472951e-01
     vertex  4.593931e-02 -1.399172e-01  3.473729e-01
     vertex  4.623931e-02 -1.399172e-01  3.473729e-01
   endloop
 endfacet
 facet normal -6.843324e-12  7.710427e-01  6.367834e-01
   outer loop
     vertex  4.559054e-02 -1.392990e-01  3.466244e-01
     vertex  4.593931e-02 -1.399172e-01  3.473729e-01
     vertex  4.633931e-02 -1.398529e-01  3.472951e-01
   endloop
 endfacet
 facet normal -1.287469e-10  7.710427e-01  6.367834e-01
   outer loop
     vertex  4.559054e-02 -1.386421e-01  3.458290e-01
     vertex  4.559054e-02 -1.392990e-01  3.466244e-01
     vertex  4.633931e-02 -1.398529e-01  3.472951e-01
   endloop
 endfacet
 facet normal  1.551400e-11  7.710427e-01  6.367834e-01
   outer loop
     vertex  4.633931e-02 -1.380882e-01  3.451583e-01
     vertex  4.593931e-02 -1.380239e-01  3.450805e-01
     vertex  4.559054e-02 -1.386421e-01  3.458290e-01
   endloop
 endfacet
 facet normal -3.149973e-11  7.710427e-01  6.367834e-01
   outer loop
     vertex  4.633931e-02 -1.380882e-01  3.451583e-01
     vertex  4.559054e-02 -1.386421e-01  3.458290e-01
     vertex  4.633931e-02 -1.398529e-01  3.472951e-01
   endloop
 endfacet
 facet normal  0.000000e+00  7.710427e-01  6.367834e-01
   outer loop
     vertex  4.623931e-02 -1.380239e-01  3.450805e-01
     vertex  4.593931e-02 -1.380239e-01  3.450805e-01
     vertex  4.633931e-02 -1.380882e-01  3.451583e-01
   endloop
 endfacet
 facet normal -9.156024e-01  3.115690e-02 -4.008758e-01
   outer loop
     vertex  4.593931e-02 -1.394025e-01  3.449733e-01
     vertex  4.559054e-02 -1.386421e-01  3.458290e-01
     vertex  4.593931e-02 -1.380239e-01  3.450805e-01
   endloop
 endfacet
 facet normal -9.156024e-01 -3.877607e-01  1.063663e-01
   outer loop
     vertex  4.593931e-02 -1.402830e-01  3.460395e-01
     vertex  4.593931e-02 -1.399172e-01  3.473729e-01
     vertex  4.559054e-02 -1.392990e-01  3.466244e-01
   endloop
 endfacet
 facet normal -9.556083e-01 -2.271801e-01 -1.876219e-01
   outer loop
     vertex  4.593931e-02 -1.402830e-01  3.460395e-01
     vertex  4.559054e-02 -1.392990e-01  3.466244e-01
     vertex  4.559054e-02 -1.386421e-01  3.458290e-01
   endloop
 endfacet
 facet normal -9.556083e-01 -2.271801e-01 -1.876219e-01
   outer loop
     vertex  4.593931e-02 -1.402830e-01  3.460395e-01
     vertex  4.559054e-02 -1.386421e-01  3.458290e-01
     vertex  4.593931e-02 -1.394025e-01  3.449733e-01
   endloop
 endfacet
 facet normal  0.000000e+00 -7.710427e-01 -6.367834e-01
   outer loop
     vertex  4.633931e-02 -1.377798e-01  3.454130e-01
     vertex  4.593931e-02 -1.377155e-01  3.453352e-01
     vertex  4.623931e-02 -1.377155e-01  3.453352e-01
   endloop
 endfacet
 facet normal  3.812163e-11 -7.710427e-01 -6.367834e-01
   outer loop
     vertex  4.559054e-02 -1.383337e-01  3.460837e-01
     vertex  4.593931e-02 -1.377155e-01  3.453352e-01
     vertex  4.633931e-02 -1.377798e-01  3.454130e-01
   endloop
 endfacet
 facet normal  7.611695e-11 -7.710427e-01 -6.367834e-01
   outer loop
     vertex  4.559054e-02 -1.389906e-01  3.468791e-01
     vertex  4.559054e-02 -1.383337e-01  3.460837e-01
     vertex  4.633931e-02 -1.377798e-01  3.454130e-01
   endloop
 endfacet
 facet normal  6.843340e-12 -7.710427e-01 -6.367834e-01
   outer loop
     vertex  4.633931e-02 -1.395445e-01  3.475498e-01
     vertex  4.593931e-02 -1.396088e-01  3.476277e-01
     vertex  4.559054e-02 -1.389906e-01  3.468791e-01
   endloop
 endfacet
 facet normal  8.425873e-11 -7.710427e-01 -6.367834e-01
   outer loop
     vertex  4.633931e-02 -1.395445e-01  3.475498e-01
     vertex  4.559054e-02 -1.389906e-01  3.468791e-01
     vertex  4.633931e-02 -1.377798e-01  3.454130e-01
   endloop
 endfacet
 facet normal -0.000000e+00 -7.710427e-01 -6.367834e-01
   outer loop
     vertex  4.623931e-02 -1.396088e-01  3.476277e-01
     vertex  4.593931e-02 -1.396088e-01  3.476277e-01
     vertex  4.633931e-02 -1.395445e-01  3.475498e-01
   endloop
 endfacet
 facet normal  0.000000e+00 -7.748837e-02  9.969933e-01
   outer loop
     vertex  4.593931e-02 -1.382302e-01  3.477348e-01
     vertex  4.623931e-02 -1.396088e-01  3.476277e-01
     vertex  4.623931e-02 -1.382302e-01  3.477348e-01
   endloop
 endfacet
 facet normal  0.000000e+00 -7.748837e-02  9.969933e-01
   outer loop
     vertex  4.593931e-02 -1.382302e-01  3.477348e-01
     vertex  4.593931e-02 -1.396088e-01  3.476277e-01
     vertex  4.623931e-02 -1.396088e-01  3.476277e-01
   endloop
 endfacet
 facet normal -0.000000e+00  7.710427e-01  6.367834e-01
   outer loop
     vertex  4.593931e-02 -1.373497e-01  3.466687e-01
     vertex  4.623931e-02 -1.382302e-01  3.477348e-01
     vertex  4.623931e-02 -1.373497e-01  3.466687e-01
   endloop
 endfacet
 facet normal  0.000000e+00  7.710427e-01  6.367834e-01
   outer loop
     vertex  4.593931e-02 -1.373497e-01  3.466687e-01
     vertex  4.593931e-02 -1.382302e-01  3.477348e-01
     vertex  4.623931e-02 -1.382302e-01  3.477348e-01
   endloop
 endfacet
 facet normal  0.000000e+00  9.643755e-01 -2.645371e-01
   outer loop
     vertex  4.593931e-02 -1.377155e-01  3.453352e-01
     vertex  4.623931e-02 -1.373497e-01  3.466687e-01
     vertex  4.623931e-02 -1.377155e-01  3.453352e-01
   endloop
 endfacet
 facet normal  0.000000e+00  9.643755e-01 -2.645371e-01
   outer loop
     vertex  4.593931e-02 -1.377155e-01  3.453352e-01
     vertex  4.593931e-02 -1.373497e-01  3.466687e-01
     vertex  4.623931e-02 -1.373497e-01  3.466687e-01
   endloop
 endfacet
 facet normal -9.156024e-01  3.877607e-01 -1.063663e-01
   outer loop
     vertex  4.559054e-02 -1.383337e-01  3.460837e-01
     vertex  4.593931e-02 -1.373497e-01  3.466687e-01
     vertex  4.593931e-02 -1.377155e-01  3.453352e-01
   endloop
 endfacet
 facet normal -9.556083e-01  2.271801e-01  1.876219e-01
   outer loop
     vertex  4.559054e-02 -1.389906e-01  3.468791e-01
     vertex  4.593931e-02 -1.382302e-01  3.477348e-01
     vertex  4.593931e-02 -1.373497e-01  3.466687e-01
   endloop
 endfacet
 facet normal -9.556083e-01  2.271801e-01  1.876219e-01
   outer loop
     vertex  4.559054e-02 -1.389906e-01  3.468791e-01
     vertex  4.593931e-02 -1.373497e-01  3.466687e-01
     vertex  4.559054e-02 -1.383337e-01  3.460837e-01
   endloop
 endfacet
 facet normal -9.156024e-01 -3.115690e-02  4.008758e-01
   outer loop
     vertex  4.593931e-02 -1.396088e-01  3.476277e-01
     vertex  4.593931e-02 -1.382302e-01  3.477348e-01
     vertex  4.559054e-02 -1.389906e-01  3.468791e-01
   endloop
 endfacet
endsolid
