solid 
 facet normal  3.272535e-01 -1.358991e-01 -9.351131e-01
   outer loop
     vertex  7.674587e-02  1.441356e-01  2.626273e-01
     vertex  7.683829e-02  1.441737e-01  2.626541e-01
     vertex  7.564507e-02  1.413004e-01  2.626541e-01
   endloop
 endfacet
 facet normal  9.073904e-01 -3.768134e-01 -1.861568e-01
   outer loop
     vertex  7.665345e-02  1.440974e-01  2.624541e-01
     vertex  7.667821e-02  1.441076e-01  2.625541e-01
     vertex  7.556870e-02  1.414852e-01  2.624541e-01
   endloop
 endfacet
 facet normal  1.358991e-01  3.272535e-01 -9.351131e-01
   outer loop
     vertex  7.400312e-02  1.452745e-01  2.626273e-01
     vertex  7.683829e-02  1.441737e-01  2.626541e-01
     vertex  7.674587e-02  1.441356e-01  2.626273e-01
   endloop
 endfacet
 facet normal  1.358991e-01  3.272535e-01 -9.351131e-01
   outer loop
     vertex  7.400312e-02  1.452745e-01  2.626273e-01
     vertex  7.396493e-02  1.453670e-01  2.626541e-01
     vertex  7.683829e-02  1.441737e-01  2.626541e-01
   endloop
 endfacet
 facet normal  3.768134e-01  9.073904e-01 -1.861568e-01
   outer loop
     vertex  7.403107e-02  1.452069e-01  2.625541e-01
     vertex  7.665345e-02  1.440974e-01  2.624541e-01
     vertex  7.404130e-02  1.451821e-01  2.624541e-01
   endloop
 endfacet
 facet normal  3.131405e-01  7.540621e-01 -5.773503e-01
   outer loop
     vertex  7.403107e-02  1.452069e-01  2.625541e-01
     vertex  7.674587e-02  1.441356e-01  2.626273e-01
     vertex  7.667821e-02  1.441076e-01  2.625541e-01
   endloop
 endfacet
 facet normal  3.768134e-01  9.073904e-01 -1.861568e-01
   outer loop
     vertex  7.403107e-02  1.452069e-01  2.625541e-01
     vertex  7.667821e-02  1.441076e-01  2.625541e-01
     vertex  7.665345e-02  1.440974e-01  2.624541e-01
   endloop
 endfacet
 facet normal  3.131405e-01  7.540621e-01 -5.773503e-01
   outer loop
     vertex  7.403107e-02  1.452069e-01  2.625541e-01
     vertex  7.400312e-02  1.452745e-01  2.626273e-01
     vertex  7.674587e-02  1.441356e-01  2.626273e-01
   endloop
 endfacet
 facet normal -3.272535e-01  1.358991e-01 -9.351131e-01
   outer loop
     vertex  7.286413e-02  1.425318e-01  2.626273e-01
     vertex  7.277171e-02  1.424936e-01  2.626541e-01
     vertex  7.396493e-02  1.453670e-01  2.626541e-01
   endloop
 endfacet
 facet normal -3.272535e-01  1.358991e-01 -9.351131e-01
   outer loop
     vertex  7.286413e-02  1.425318e-01  2.626273e-01
     vertex  7.396493e-02  1.453670e-01  2.626541e-01
     vertex  7.400312e-02  1.452745e-01  2.626273e-01
   endloop
 endfacet
 facet normal -9.073904e-01  3.768134e-01 -1.861568e-01
   outer loop
     vertex  7.293179e-02  1.425597e-01  2.625541e-01
     vertex  7.404130e-02  1.451821e-01  2.624541e-01
     vertex  7.295655e-02  1.425700e-01  2.624541e-01
   endloop
 endfacet
 facet normal -7.540621e-01  3.131405e-01 -5.773503e-01
   outer loop
     vertex  7.293179e-02  1.425597e-01  2.625541e-01
     vertex  7.400312e-02  1.452745e-01  2.626273e-01
     vertex  7.403107e-02  1.452069e-01  2.625541e-01
   endloop
 endfacet
 facet normal -7.540621e-01  3.131405e-01 -5.773503e-01
   outer loop
     vertex  7.293179e-02  1.425597e-01  2.625541e-01
     vertex  7.286413e-02  1.425318e-01  2.626273e-01
     vertex  7.400312e-02  1.452745e-01  2.626273e-01
   endloop
 endfacet
 facet normal -9.073904e-01  3.768134e-01 -1.861568e-01
   outer loop
     vertex  7.293179e-02  1.425597e-01  2.625541e-01
     vertex  7.403107e-02  1.452069e-01  2.625541e-01
     vertex  7.404130e-02  1.451821e-01  2.624541e-01
   endloop
 endfacet
 facet normal -1.358991e-01 -3.272535e-01 -9.351131e-01
   outer loop
     vertex  7.560688e-02  1.413928e-01  2.626273e-01
     vertex  7.564507e-02  1.413004e-01  2.626541e-01
     vertex  7.277171e-02  1.424936e-01  2.626541e-01
   endloop
 endfacet
 facet normal -1.358991e-01 -3.272535e-01 -9.351131e-01
   outer loop
     vertex  7.560688e-02  1.413928e-01  2.626273e-01
     vertex  7.277171e-02  1.424936e-01  2.626541e-01
     vertex  7.286413e-02  1.425318e-01  2.626273e-01
   endloop
 endfacet
 facet normal  3.272535e-01 -1.358991e-01 -9.351131e-01
   outer loop
     vertex  7.560688e-02  1.413928e-01  2.626273e-01
     vertex  7.674587e-02  1.441356e-01  2.626273e-01
     vertex  7.564507e-02  1.413004e-01  2.626541e-01
   endloop
 endfacet
 facet normal  7.540621e-01 -3.131405e-01 -5.773503e-01
   outer loop
     vertex  7.557893e-02  1.414605e-01  2.625541e-01
     vertex  7.667821e-02  1.441076e-01  2.625541e-01
     vertex  7.674587e-02  1.441356e-01  2.626273e-01
   endloop
 endfacet
 facet normal -3.768134e-01 -9.073904e-01 -1.861568e-01
   outer loop
     vertex  7.557893e-02  1.414605e-01  2.625541e-01
     vertex  7.295655e-02  1.425700e-01  2.624541e-01
     vertex  7.556870e-02  1.414852e-01  2.624541e-01
   endloop
 endfacet
 facet normal  7.540621e-01 -3.131405e-01 -5.773503e-01
   outer loop
     vertex  7.557893e-02  1.414605e-01  2.625541e-01
     vertex  7.674587e-02  1.441356e-01  2.626273e-01
     vertex  7.560688e-02  1.413928e-01  2.626273e-01
   endloop
 endfacet
 facet normal -3.131405e-01 -7.540621e-01 -5.773503e-01
   outer loop
     vertex  7.557893e-02  1.414605e-01  2.625541e-01
     vertex  7.560688e-02  1.413928e-01  2.626273e-01
     vertex  7.286413e-02  1.425318e-01  2.626273e-01
   endloop
 endfacet
 facet normal -3.768134e-01 -9.073904e-01 -1.861568e-01
   outer loop
     vertex  7.557893e-02  1.414605e-01  2.625541e-01
     vertex  7.293179e-02  1.425597e-01  2.625541e-01
     vertex  7.295655e-02  1.425700e-01  2.624541e-01
   endloop
 endfacet
 facet normal -3.131405e-01 -7.540621e-01 -5.773503e-01
   outer loop
     vertex  7.557893e-02  1.414605e-01  2.625541e-01
     vertex  7.286413e-02  1.425318e-01  2.626273e-01
     vertex  7.293179e-02  1.425597e-01  2.625541e-01
   endloop
 endfacet
 facet normal  9.073904e-01 -3.768134e-01 -1.861568e-01
   outer loop
     vertex  7.557893e-02  1.414605e-01  2.625541e-01
     vertex  7.556870e-02  1.414852e-01  2.624541e-01
     vertex  7.667821e-02  1.441076e-01  2.625541e-01
   endloop
 endfacet
 facet normal  3.835172e-01  9.235337e-01  0.000000e+00
   outer loop
     vertex  7.404130e-02  1.451821e-01  2.624541e-01
     vertex  7.665345e-02  1.440974e-01  2.624541e-01
     vertex  7.665345e-02  1.440974e-01  2.566541e-01
   endloop
 endfacet
 facet normal  3.835172e-01  9.235337e-01  0.000000e+00
   outer loop
     vertex  7.404130e-02  1.451821e-01  2.624541e-01
     vertex  7.665345e-02  1.440974e-01  2.566541e-01
     vertex  7.404130e-02  1.451821e-01  2.566541e-01
   endloop
 endfacet
 facet normal -9.235337e-01  3.835172e-01  0.000000e+00
   outer loop
     vertex  7.295655e-02  1.425700e-01  2.624541e-01
     vertex  7.404130e-02  1.451821e-01  2.566541e-01
     vertex  7.295655e-02  1.425700e-01  2.566541e-01
   endloop
 endfacet
 facet normal -9.235337e-01  3.835172e-01  0.000000e+00
   outer loop
     vertex  7.295655e-02  1.425700e-01  2.624541e-01
     vertex  7.404130e-02  1.451821e-01  2.624541e-01
     vertex  7.404130e-02  1.451821e-01  2.566541e-01
   endloop
 endfacet
 facet normal -3.835172e-01 -9.235337e-01 -0.000000e+00
   outer loop
     vertex  7.556870e-02  1.414852e-01  2.624541e-01
     vertex  7.295655e-02  1.425700e-01  2.566541e-01
     vertex  7.556870e-02  1.414852e-01  2.566541e-01
   endloop
 endfacet
 facet normal -3.835172e-01 -9.235337e-01  0.000000e+00
   outer loop
     vertex  7.556870e-02  1.414852e-01  2.624541e-01
     vertex  7.295655e-02  1.425700e-01  2.624541e-01
     vertex  7.295655e-02  1.425700e-01  2.566541e-01
   endloop
 endfacet
 facet normal  9.235337e-01 -3.835172e-01  0.000000e+00
   outer loop
     vertex  7.665345e-02  1.440974e-01  2.624541e-01
     vertex  7.556870e-02  1.414852e-01  2.566541e-01
     vertex  7.665345e-02  1.440974e-01  2.566541e-01
   endloop
 endfacet
 facet normal  9.235337e-01 -3.835172e-01  0.000000e+00
   outer loop
     vertex  7.665345e-02  1.440974e-01  2.624541e-01
     vertex  7.556870e-02  1.414852e-01  2.624541e-01
     vertex  7.556870e-02  1.414852e-01  2.566541e-01
   endloop
 endfacet
 facet normal  0.000000e+00  0.000000e+00 -1.000000e+00
   outer loop
     vertex  7.556870e-02  1.414852e-01  2.566541e-01
     vertex  7.295655e-02  1.425700e-01  2.566541e-01
     vertex  7.404130e-02  1.451821e-01  2.566541e-01
   endloop
 endfacet
 facet normal  0.000000e+00  0.000000e+00 -1.000000e+00
   outer loop
     vertex  7.556870e-02  1.414852e-01  2.566541e-01
     vertex  7.404130e-02  1.451821e-01  2.566541e-01
     vertex  7.665345e-02  1.440974e-01  2.566541e-01
   endloop
 endfacet
 facet normal  5.426405e-12 -1.313402e-11 -1.000000e+00
   outer loop
     vertex  7.683829e-02  1.441737e-01  2.626541e-01
     vertex  7.327760e-02  1.470306e-01  2.626541e-01
     vertex  7.850190e-02  1.448611e-01  2.626541e-01
   endloop
 endfacet
 facet normal  2.388004e-11  9.866191e-12 -1.000000e+00
   outer loop
     vertex  7.396493e-02  1.453670e-01  2.626541e-01
     vertex  7.327760e-02  1.470306e-01  2.626541e-01
     vertex  7.683829e-02  1.441737e-01  2.626541e-01
   endloop
 endfacet
 facet normal  0.000000e+00  0.000000e+00 -1.000000e+00
   outer loop
     vertex  7.277171e-02  1.424936e-01  2.626541e-01
     vertex  7.327760e-02  1.470306e-01  2.626541e-01
     vertex  7.396493e-02  1.453670e-01  2.626541e-01
   endloop
 endfacet
 facet normal  2.388004e-11  9.866191e-12 -1.000000e+00
   outer loop
     vertex  7.633240e-02  1.396368e-01  2.626541e-01
     vertex  7.564507e-02  1.413004e-01  2.626541e-01
     vertex  7.683829e-02  1.441737e-01  2.626541e-01
   endloop
 endfacet
 facet normal  0.000000e+00  0.000000e+00 -1.000000e+00
   outer loop
     vertex  7.633240e-02  1.396368e-01  2.626541e-01
     vertex  7.277171e-02  1.424936e-01  2.626541e-01
     vertex  7.564507e-02  1.413004e-01  2.626541e-01
   endloop
 endfacet
 facet normal -5.426405e-12  1.313402e-11 -1.000000e+00
   outer loop
     vertex  7.633240e-02  1.396368e-01  2.626541e-01
     vertex  7.683829e-02  1.441737e-01  2.626541e-01
     vertex  7.850190e-02  1.448611e-01  2.626541e-01
   endloop
 endfacet
 facet normal  0.000000e+00  0.000000e+00 -1.000000e+00
   outer loop
     vertex  7.110810e-02  1.418063e-01  2.626541e-01
     vertex  7.327760e-02  1.470306e-01  2.626541e-01
     vertex  7.277171e-02  1.424936e-01  2.626541e-01
   endloop
 endfacet
 facet normal  0.000000e+00  0.000000e+00 -1.000000e+00
   outer loop
     vertex  7.110810e-02  1.418063e-01  2.626541e-01
     vertex  7.277171e-02  1.424936e-01  2.626541e-01
     vertex  7.633240e-02  1.396368e-01  2.626541e-01
   endloop
 endfacet
 facet normal  3.835172e-01  9.235337e-01  0.000000e+00
   outer loop
     vertex  7.327760e-02  1.470306e-01  2.641988e-01
     vertex  7.850190e-02  1.448611e-01  2.641988e-01
     vertex  7.850190e-02  1.448611e-01  2.626541e-01
   endloop
 endfacet
 facet normal  3.835172e-01  9.235337e-01  0.000000e+00
   outer loop
     vertex  7.327760e-02  1.470306e-01  2.641988e-01
     vertex  7.850190e-02  1.448611e-01  2.626541e-01
     vertex  7.327760e-02  1.470306e-01  2.626541e-01
   endloop
 endfacet
 facet normal -9.235337e-01  3.835172e-01  0.000000e+00
   outer loop
     vertex  7.110810e-02  1.418063e-01  2.641988e-01
     vertex  7.327760e-02  1.470306e-01  2.626541e-01
     vertex  7.110810e-02  1.418063e-01  2.626541e-01
   endloop
 endfacet
 facet normal -9.235337e-01  3.835172e-01  0.000000e+00
   outer loop
     vertex  7.110810e-02  1.418063e-01  2.641988e-01
     vertex  7.327760e-02  1.470306e-01  2.641988e-01
     vertex  7.327760e-02  1.470306e-01  2.626541e-01
   endloop
 endfacet
 facet normal -3.835172e-01 -9.235337e-01 -0.000000e+00
   outer loop
     vertex  7.633240e-02  1.396368e-01  2.641988e-01
     vertex  7.110810e-02  1.418063e-01  2.626541e-01
     vertex  7.633240e-02  1.396368e-01  2.626541e-01
   endloop
 endfacet
 facet normal -3.835172e-01 -9.235337e-01  0.000000e+00
   outer loop
     vertex  7.633240e-02  1.396368e-01  2.641988e-01
     vertex  7.110810e-02  1.418063e-01  2.641988e-01
     vertex  7.110810e-02  1.418063e-01  2.626541e-01
   endloop
 endfacet
 facet normal  9.235337e-01 -3.835172e-01  0.000000e+00
   outer loop
     vertex  7.850190e-02  1.448611e-01  2.641988e-01
     vertex  7.633240e-02  1.396368e-01  2.626541e-01
     vertex  7.850190e-02  1.448611e-01  2.626541e-01
   endloop
 endfacet
 facet normal  9.235337e-01 -3.835172e-01  0.000000e+00
   outer loop
     vertex  7.850190e-02  1.448611e-01  2.641988e-01
     vertex  7.633240e-02  1.396368e-01  2.641988e-01
     vertex  7.633240e-02  1.396368e-01  2.626541e-01
   endloop
 endfacet
 facet normal  9.178722e-01 -3.811662e-01  1.105573e-01
   outer loop
     vertex  7.848583e-02  1.448544e-01  2.643093e-01
     vertex  7.633240e-02  1.396368e-01  2.641988e-01
     vertex  7.850190e-02  1.448611e-01  2.641988e-01
   endloop
 endfacet
 facet normal  3.811662e-01  9.178722e-01  1.105573e-01
   outer loop
     vertex  7.328424e-02  1.470145e-01  2.643093e-01
     vertex  7.848583e-02  1.448544e-01  2.643093e-01
     vertex  7.850190e-02  1.448611e-01  2.641988e-01
   endloop
 endfacet
 facet normal  3.811662e-01  9.178722e-01  1.105573e-01
   outer loop
     vertex  7.328424e-02  1.470145e-01  2.643093e-01
     vertex  7.850190e-02  1.448611e-01  2.641988e-01
     vertex  7.327760e-02  1.470306e-01  2.641988e-01
   endloop
 endfacet
 facet normal  3.142230e-01  7.566687e-01  5.733379e-01
   outer loop
     vertex  7.330352e-02  1.469678e-01  2.644091e-01
     vertex  7.333357e-02  1.468951e-01  2.644887e-01
     vertex  7.836643e-02  1.448051e-01  2.644887e-01
   endloop
 endfacet
 facet normal  3.142230e-01  7.566687e-01  5.733379e-01
   outer loop
     vertex  7.330352e-02  1.469678e-01  2.644091e-01
     vertex  7.836643e-02  1.448051e-01  2.644887e-01
     vertex  7.843917e-02  1.448352e-01  2.644091e-01
   endloop
 endfacet
 facet normal  3.611325e-01  8.696298e-01  3.366412e-01
   outer loop
     vertex  7.330352e-02  1.469678e-01  2.644091e-01
     vertex  7.843917e-02  1.448352e-01  2.644091e-01
     vertex  7.848583e-02  1.448544e-01  2.643093e-01
   endloop
 endfacet
 facet normal  3.611325e-01  8.696298e-01  3.366412e-01
   outer loop
     vertex  7.330352e-02  1.469678e-01  2.644091e-01
     vertex  7.848583e-02  1.448544e-01  2.643093e-01
     vertex  7.328424e-02  1.470145e-01  2.643093e-01
   endloop
 endfacet
 facet normal -9.178722e-01  3.811662e-01  1.105573e-01
   outer loop
     vertex  7.112417e-02  1.418129e-01  2.643093e-01
     vertex  7.327760e-02  1.470306e-01  2.641988e-01
     vertex  7.110810e-02  1.418063e-01  2.641988e-01
   endloop
 endfacet
 facet normal -9.178722e-01  3.811662e-01  1.105573e-01
   outer loop
     vertex  7.112417e-02  1.418129e-01  2.643093e-01
     vertex  7.328424e-02  1.470145e-01  2.643093e-01
     vertex  7.327760e-02  1.470306e-01  2.641988e-01
   endloop
 endfacet
 facet normal -7.566687e-01  3.142230e-01  5.733379e-01
   outer loop
     vertex  7.117083e-02  1.418322e-01  2.644091e-01
     vertex  7.124357e-02  1.418622e-01  2.644887e-01
     vertex  7.333357e-02  1.468951e-01  2.644887e-01
   endloop
 endfacet
 facet normal -8.696298e-01  3.611325e-01  3.366412e-01
   outer loop
     vertex  7.117083e-02  1.418322e-01  2.644091e-01
     vertex  7.330352e-02  1.469678e-01  2.644091e-01
     vertex  7.328424e-02  1.470145e-01  2.643093e-01
   endloop
 endfacet
 facet normal -8.696298e-01  3.611325e-01  3.366412e-01
   outer loop
     vertex  7.117083e-02  1.418322e-01  2.644091e-01
     vertex  7.328424e-02  1.470145e-01  2.643093e-01
     vertex  7.112417e-02  1.418129e-01  2.643093e-01
   endloop
 endfacet
 facet normal -7.566687e-01  3.142230e-01  5.733379e-01
   outer loop
     vertex  7.117083e-02  1.418322e-01  2.644091e-01
     vertex  7.333357e-02  1.468951e-01  2.644887e-01
     vertex  7.330352e-02  1.469678e-01  2.644091e-01
   endloop
 endfacet
 facet normal -3.811662e-01 -9.178722e-01  1.105573e-01
   outer loop
     vertex  7.632576e-02  1.396528e-01  2.643093e-01
     vertex  7.110810e-02  1.418063e-01  2.641988e-01
     vertex  7.633240e-02  1.396368e-01  2.641988e-01
   endloop
 endfacet
 facet normal -3.811662e-01 -9.178722e-01  1.105573e-01
   outer loop
     vertex  7.632576e-02  1.396528e-01  2.643093e-01
     vertex  7.112417e-02  1.418129e-01  2.643093e-01
     vertex  7.110810e-02  1.418063e-01  2.641988e-01
   endloop
 endfacet
 facet normal  9.178722e-01 -3.811662e-01  1.105573e-01
   outer loop
     vertex  7.632576e-02  1.396528e-01  2.643093e-01
     vertex  7.633240e-02  1.396368e-01  2.641988e-01
     vertex  7.848583e-02  1.448544e-01  2.643093e-01
   endloop
 endfacet
 facet normal -3.142230e-01 -7.566687e-01  5.733379e-01
   outer loop
     vertex  7.630648e-02  1.396995e-01  2.644091e-01
     vertex  7.627643e-02  1.397722e-01  2.644887e-01
     vertex  7.124357e-02  1.418622e-01  2.644887e-01
   endloop
 endfacet
 facet normal  7.566687e-01 -3.142230e-01  5.733379e-01
   outer loop
     vertex  7.630648e-02  1.396995e-01  2.644091e-01
     vertex  7.836643e-02  1.448051e-01  2.644887e-01
     vertex  7.627643e-02  1.397722e-01  2.644887e-01
   endloop
 endfacet
 facet normal  7.566687e-01 -3.142230e-01  5.733379e-01
   outer loop
     vertex  7.630648e-02  1.396995e-01  2.644091e-01
     vertex  7.843917e-02  1.448352e-01  2.644091e-01
     vertex  7.836643e-02  1.448051e-01  2.644887e-01
   endloop
 endfacet
 facet normal  8.696298e-01 -3.611325e-01  3.366412e-01
   outer loop
     vertex  7.630648e-02  1.396995e-01  2.644091e-01
     vertex  7.848583e-02  1.448544e-01  2.643093e-01
     vertex  7.843917e-02  1.448352e-01  2.644091e-01
   endloop
 endfacet
 facet normal -3.611325e-01 -8.696298e-01  3.366412e-01
   outer loop
     vertex  7.630648e-02  1.396995e-01  2.644091e-01
     vertex  7.112417e-02  1.418129e-01  2.643093e-01
     vertex  7.632576e-02  1.396528e-01  2.643093e-01
   endloop
 endfacet
 facet normal -3.611325e-01 -8.696298e-01  3.366412e-01
   outer loop
     vertex  7.630648e-02  1.396995e-01  2.644091e-01
     vertex  7.117083e-02  1.418322e-01  2.644091e-01
     vertex  7.112417e-02  1.418129e-01  2.643093e-01
   endloop
 endfacet
 facet normal  8.696298e-01 -3.611325e-01  3.366412e-01
   outer loop
     vertex  7.630648e-02  1.396995e-01  2.644091e-01
     vertex  7.632576e-02  1.396528e-01  2.643093e-01
     vertex  7.848583e-02  1.448544e-01  2.643093e-01
   endloop
 endfacet
 facet normal -3.142230e-01 -7.566687e-01  5.733379e-01
   outer loop
     vertex  7.630648e-02  1.396995e-01  2.644091e-01
     vertex  7.124357e-02  1.418622e-01  2.644887e-01
     vertex  7.117083e-02  1.418322e-01  2.644091e-01
   endloop
 endfacet
 facet normal  2.677576e-01  6.447773e-01  7.159386e-01
   outer loop
     vertex  7.452317e-02  1.453645e-01  2.654222e-01
     vertex  7.836643e-02  1.448051e-01  2.644887e-01
     vertex  7.333357e-02  1.468951e-01  2.644887e-01
   endloop
 endfacet
 facet normal  2.677576e-01  6.447773e-01  7.159386e-01
   outer loop
     vertex  7.644252e-02  1.445675e-01  2.654222e-01
     vertex  7.836643e-02  1.448051e-01  2.644887e-01
     vertex  7.452317e-02  1.453645e-01  2.654222e-01
   endloop
 endfacet
 facet normal -1.254803e-01  4.436962e-01  8.873490e-01
   outer loop
     vertex  7.420288e-02  1.452410e-01  2.654387e-01
     vertex  7.452317e-02  1.453645e-01  2.654222e-01
     vertex  7.333357e-02  1.468951e-01  2.644887e-01
   endloop
 endfacet
 facet normal  1.453081e-01  3.499110e-01  9.254447e-01
   outer loop
     vertex  7.466333e-02  1.450253e-01  2.655285e-01
     vertex  7.644252e-02  1.445675e-01  2.654222e-01
     vertex  7.452317e-02  1.453645e-01  2.654222e-01
   endloop
 endfacet
 facet normal  1.453081e-01  3.499110e-01  9.254447e-01
   outer loop
     vertex  7.610328e-02  1.444273e-01  2.655285e-01
     vertex  7.644252e-02  1.445675e-01  2.654222e-01
     vertex  7.466333e-02  1.450253e-01  2.655285e-01
   endloop
 endfacet
 facet normal  4.028742e-01  2.242857e-01  8.873490e-01
   outer loop
     vertex  7.658114e-02  1.442534e-01  2.654387e-01
     vertex  7.836643e-02  1.448051e-01  2.644887e-01
     vertex  7.644252e-02  1.445675e-01  2.654222e-01
   endloop
 endfacet
 facet normal -1.736377e-01  4.202712e-01  8.906301e-01
   outer loop
     vertex  7.388526e-02  1.451098e-01  2.654387e-01
     vertex  7.420288e-02  1.452410e-01  2.654387e-01
     vertex  7.333357e-02  1.468951e-01  2.644887e-01
   endloop
 endfacet
 facet normal  1.170251e-01  2.818039e-01  9.523086e-01
   outer loop
     vertex  7.480564e-02  1.446808e-01  2.656129e-01
     vertex  7.610328e-02  1.444273e-01  2.655285e-01
     vertex  7.466333e-02  1.450253e-01  2.655285e-01
   endloop
 endfacet
 facet normal  1.170251e-01  2.818039e-01  9.523086e-01
   outer loop
     vertex  7.575884e-02  1.442850e-01  2.656129e-01
     vertex  7.610328e-02  1.444273e-01  2.655285e-01
     vertex  7.480564e-02  1.446808e-01  2.656129e-01
   endloop
 endfacet
 facet normal  4.202712e-01  1.736377e-01  8.906301e-01
   outer loop
     vertex  7.671236e-02  1.439358e-01  2.654387e-01
     vertex  7.836643e-02  1.448051e-01  2.644887e-01
     vertex  7.658114e-02  1.442534e-01  2.654387e-01
   endloop
 endfacet
 facet normal -2.242857e-01  4.028742e-01  8.873490e-01
   outer loop
     vertex  7.357122e-02  1.449712e-01  2.654222e-01
     vertex  7.388526e-02  1.451098e-01  2.654387e-01
     vertex  7.333357e-02  1.468951e-01  2.644887e-01
   endloop
 endfacet
 facet normal  9.686239e-02  2.332508e-01  9.675804e-01
   outer loop
     vertex  7.511316e-02  1.442946e-01  2.656753e-01
     vertex  7.575884e-02  1.442850e-01  2.656129e-01
     vertex  7.480564e-02  1.446808e-01  2.656129e-01
   endloop
 endfacet
 facet normal  9.686239e-02  2.332508e-01  9.675804e-01
   outer loop
     vertex  7.526819e-02  1.442302e-01  2.656753e-01
     vertex  7.575884e-02  1.442850e-01  2.656129e-01
     vertex  7.511316e-02  1.442946e-01  2.656753e-01
   endloop
 endfacet
 facet normal  4.477324e-02  1.937850e-01  9.800218e-01
   outer loop
     vertex  7.494960e-02  1.443324e-01  2.656753e-01
     vertex  7.511316e-02  1.442946e-01  2.656753e-01
     vertex  7.480564e-02  1.446808e-01  2.656129e-01
   endloop
 endfacet
 facet normal  1.056716e-01  1.684956e-01  9.800218e-01
   outer loop
     vertex  7.541040e-02  1.441410e-01  2.656753e-01
     vertex  7.575884e-02  1.442850e-01  2.656129e-01
     vertex  7.526819e-02  1.442302e-01  2.656753e-01
   endloop
 endfacet
 facet normal  4.436962e-01  1.254803e-01  8.873490e-01
   outer loop
     vertex  7.683583e-02  1.436155e-01  2.654222e-01
     vertex  7.836643e-02  1.448051e-01  2.644887e-01
     vertex  7.671236e-02  1.439358e-01  2.654387e-01
   endloop
 endfacet
 facet normal -1.684956e-01  1.056716e-01  9.800218e-01
   outer loop
     vertex  7.390846e-02  1.437969e-01  2.656753e-01
     vertex  7.399765e-02  1.439391e-01  2.656753e-01
     vertex  7.385369e-02  1.442875e-01  2.656129e-01
   endloop
 endfacet
 facet normal  1.937850e-01 -4.477324e-02  9.800218e-01
   outer loop
     vertex  7.576591e-02  1.430255e-01  2.656753e-01
     vertex  7.615215e-02  1.433330e-01  2.656129e-01
     vertex  7.580370e-02  1.431891e-01  2.656753e-01
   endloop
 endfacet
 facet normal  2.332508e-01 -9.686239e-02  9.675804e-01
   outer loop
     vertex  7.570154e-02  1.428705e-01  2.656753e-01
     vertex  7.615215e-02  1.433330e-01  2.656129e-01
     vertex  7.576591e-02  1.430255e-01  2.656753e-01
   endloop
 endfacet
 facet normal -2.332508e-01  9.686239e-02  9.675804e-01
   outer loop
     vertex  7.345785e-02  1.433343e-01  2.656129e-01
     vertex  7.390846e-02  1.437969e-01  2.656753e-01
     vertex  7.385369e-02  1.442875e-01  2.656129e-01
   endloop
 endfacet
 facet normal -2.332508e-01  9.686239e-02  9.675804e-01
   outer loop
     vertex  7.345785e-02  1.433343e-01  2.656129e-01
     vertex  7.384409e-02  1.436418e-01  2.656753e-01
     vertex  7.390846e-02  1.437969e-01  2.656753e-01
   endloop
 endfacet
 facet normal -1.937850e-01  4.477324e-02  9.800218e-01
   outer loop
     vertex  7.345785e-02  1.433343e-01  2.656129e-01
     vertex  7.380630e-02  1.434783e-01  2.656753e-01
     vertex  7.384409e-02  1.436418e-01  2.656753e-01
   endloop
 endfacet
 facet normal  2.332508e-01 -9.686239e-02  9.675804e-01
   outer loop
     vertex  7.575631e-02  1.423798e-01  2.656129e-01
     vertex  7.615215e-02  1.433330e-01  2.656129e-01
     vertex  7.570154e-02  1.428705e-01  2.656753e-01
   endloop
 endfacet
 facet normal  2.818039e-01 -1.170251e-01  9.523086e-01
   outer loop
     vertex  7.575631e-02  1.423798e-01  2.656129e-01
     vertex  7.649659e-02  1.434753e-01  2.655285e-01
     vertex  7.615215e-02  1.433330e-01  2.656129e-01
   endloop
 endfacet
 facet normal  1.684956e-01 -1.056716e-01  9.800218e-01
   outer loop
     vertex  7.575631e-02  1.423798e-01  2.656129e-01
     vertex  7.570154e-02  1.428705e-01  2.656753e-01
     vertex  7.561235e-02  1.427283e-01  2.656753e-01
   endloop
 endfacet
 facet normal -2.818039e-01  1.170251e-01  9.523086e-01
   outer loop
     vertex  7.311341e-02  1.431920e-01  2.655285e-01
     vertex  7.385369e-02  1.442875e-01  2.656129e-01
     vertex  7.371138e-02  1.446320e-01  2.655285e-01
   endloop
 endfacet
 facet normal -2.818039e-01  1.170251e-01  9.523086e-01
   outer loop
     vertex  7.311341e-02  1.431920e-01  2.655285e-01
     vertex  7.345785e-02  1.433343e-01  2.656129e-01
     vertex  7.385369e-02  1.442875e-01  2.656129e-01
   endloop
 endfacet
 facet normal  2.818039e-01 -1.170251e-01  9.523086e-01
   outer loop
     vertex  7.589862e-02  1.420354e-01  2.655285e-01
     vertex  7.649659e-02  1.434753e-01  2.655285e-01
     vertex  7.575631e-02  1.423798e-01  2.656129e-01
   endloop
 endfacet
 facet normal  3.499110e-01 -1.453081e-01  9.254447e-01
   outer loop
     vertex  7.589862e-02  1.420354e-01  2.655285e-01
     vertex  7.683583e-02  1.436155e-01  2.654222e-01
     vertex  7.649659e-02  1.434753e-01  2.655285e-01
   endloop
 endfacet
 facet normal -3.499110e-01  1.453081e-01  9.254447e-01
   outer loop
     vertex  7.277417e-02  1.430518e-01  2.654222e-01
     vertex  7.371138e-02  1.446320e-01  2.655285e-01
     vertex  7.357122e-02  1.449712e-01  2.654222e-01
   endloop
 endfacet
 facet normal -3.499110e-01  1.453081e-01  9.254447e-01
   outer loop
     vertex  7.277417e-02  1.430518e-01  2.654222e-01
     vertex  7.311341e-02  1.431920e-01  2.655285e-01
     vertex  7.371138e-02  1.446320e-01  2.655285e-01
   endloop
 endfacet
 facet normal  3.499110e-01 -1.453081e-01  9.254447e-01
   outer loop
     vertex  7.603878e-02  1.416962e-01  2.654222e-01
     vertex  7.683583e-02  1.436155e-01  2.654222e-01
     vertex  7.589862e-02  1.420354e-01  2.655285e-01
   endloop
 endfacet
 facet normal  6.447773e-01 -2.677576e-01  7.159386e-01
   outer loop
     vertex  7.603878e-02  1.416962e-01  2.654222e-01
     vertex  7.836643e-02  1.448051e-01  2.644887e-01
     vertex  7.683583e-02  1.436155e-01  2.654222e-01
   endloop
 endfacet
 facet normal -1.056716e-01 -1.684956e-01  9.800218e-01
   outer loop
     vertex  7.385116e-02  1.423824e-01  2.656129e-01
     vertex  7.434181e-02  1.424371e-01  2.656753e-01
     vertex  7.419960e-02  1.425263e-01  2.656753e-01
   endloop
 endfacet
 facet normal -9.686239e-02 -2.332508e-01  9.675804e-01
   outer loop
     vertex  7.385116e-02  1.423824e-01  2.656129e-01
     vertex  7.449684e-02  1.423728e-01  2.656753e-01
     vertex  7.434181e-02  1.424371e-01  2.656753e-01
   endloop
 endfacet
 facet normal -9.686239e-02 -2.332508e-01  9.675804e-01
   outer loop
     vertex  7.480436e-02  1.419865e-01  2.656129e-01
     vertex  7.449684e-02  1.423728e-01  2.656753e-01
     vertex  7.385116e-02  1.423824e-01  2.656129e-01
   endloop
 endfacet
 facet normal -4.477324e-02 -1.937850e-01  9.800218e-01
   outer loop
     vertex  7.480436e-02  1.419865e-01  2.656129e-01
     vertex  7.466040e-02  1.423350e-01  2.656753e-01
     vertex  7.449684e-02  1.423728e-01  2.656753e-01
   endloop
 endfacet
 facet normal -1.170251e-01 -2.818039e-01  9.523086e-01
   outer loop
     vertex  7.350672e-02  1.422401e-01  2.655285e-01
     vertex  7.480436e-02  1.419865e-01  2.656129e-01
     vertex  7.385116e-02  1.423824e-01  2.656129e-01
   endloop
 endfacet
 facet normal -1.170251e-01 -2.818039e-01  9.523086e-01
   outer loop
     vertex  7.494667e-02  1.416421e-01  2.655285e-01
     vertex  7.480436e-02  1.419865e-01  2.656129e-01
     vertex  7.350672e-02  1.422401e-01  2.655285e-01
   endloop
 endfacet
 facet normal -1.453081e-01 -3.499110e-01  9.254447e-01
   outer loop
     vertex  7.316748e-02  1.420999e-01  2.654222e-01
     vertex  7.494667e-02  1.416421e-01  2.655285e-01
     vertex  7.350672e-02  1.422401e-01  2.655285e-01
   endloop
 endfacet
 facet normal -1.453081e-01 -3.499110e-01  9.254447e-01
   outer loop
     vertex  7.508683e-02  1.413028e-01  2.654222e-01
     vertex  7.494667e-02  1.416421e-01  2.655285e-01
     vertex  7.316748e-02  1.420999e-01  2.654222e-01
   endloop
 endfacet
 facet normal -6.447773e-01  2.677576e-01  7.159386e-01
   outer loop
     vertex  7.124357e-02  1.418622e-01  2.644887e-01
     vertex  7.277417e-02  1.430518e-01  2.654222e-01
     vertex  7.357122e-02  1.449712e-01  2.654222e-01
   endloop
 endfacet
 facet normal -4.436962e-01 -1.254803e-01  8.873490e-01
   outer loop
     vertex  7.124357e-02  1.418622e-01  2.644887e-01
     vertex  7.289764e-02  1.427316e-01  2.654387e-01
     vertex  7.277417e-02  1.430518e-01  2.654222e-01
   endloop
 endfacet
 facet normal -4.202712e-01 -1.736377e-01  8.906301e-01
   outer loop
     vertex  7.124357e-02  1.418622e-01  2.644887e-01
     vertex  7.302886e-02  1.424139e-01  2.654387e-01
     vertex  7.289764e-02  1.427316e-01  2.654387e-01
   endloop
 endfacet
 facet normal -4.028742e-01 -2.242857e-01  8.873490e-01
   outer loop
     vertex  7.124357e-02  1.418622e-01  2.644887e-01
     vertex  7.316748e-02  1.420999e-01  2.654222e-01
     vertex  7.302886e-02  1.424139e-01  2.654387e-01
   endloop
 endfacet
 facet normal -2.677576e-01 -6.447773e-01  7.159386e-01
   outer loop
     vertex  7.124357e-02  1.418622e-01  2.644887e-01
     vertex  7.508683e-02  1.413028e-01  2.654222e-01
     vertex  7.316748e-02  1.420999e-01  2.654222e-01
   endloop
 endfacet
 facet normal -6.447773e-01  2.677576e-01  7.159386e-01
   outer loop
     vertex  7.124357e-02  1.418622e-01  2.644887e-01
     vertex  7.357122e-02  1.449712e-01  2.654222e-01
     vertex  7.333357e-02  1.468951e-01  2.644887e-01
   endloop
 endfacet
 facet normal -2.677576e-01 -6.447773e-01  7.159386e-01
   outer loop
     vertex  7.627643e-02  1.397722e-01  2.644887e-01
     vertex  7.508683e-02  1.413028e-01  2.654222e-01
     vertex  7.124357e-02  1.418622e-01  2.644887e-01
   endloop
 endfacet
 facet normal  1.254803e-01 -4.436962e-01  8.873490e-01
   outer loop
     vertex  7.627643e-02  1.397722e-01  2.644887e-01
     vertex  7.540712e-02  1.414263e-01  2.654387e-01
     vertex  7.508683e-02  1.413028e-01  2.654222e-01
   endloop
 endfacet
 facet normal  1.736377e-01 -4.202712e-01  8.906301e-01
   outer loop
     vertex  7.627643e-02  1.397722e-01  2.644887e-01
     vertex  7.572474e-02  1.415575e-01  2.654387e-01
     vertex  7.540712e-02  1.414263e-01  2.654387e-01
   endloop
 endfacet
 facet normal  2.242857e-01 -4.028742e-01  8.873490e-01
   outer loop
     vertex  7.627643e-02  1.397722e-01  2.644887e-01
     vertex  7.603878e-02  1.416962e-01  2.654222e-01
     vertex  7.572474e-02  1.415575e-01  2.654387e-01
   endloop
 endfacet
 facet normal  6.447773e-01 -2.677576e-01  7.159386e-01
   outer loop
     vertex  7.627643e-02  1.397722e-01  2.644887e-01
     vertex  7.836643e-02  1.448051e-01  2.644887e-01
     vertex  7.603878e-02  1.416962e-01  2.654222e-01
   endloop
 endfacet
 facet normal  9.242246e-01  3.818493e-01  1.449776e-12
   outer loop
     vertex  7.395354e-02  1.440458e-01  2.634141e-01
     vertex  7.385369e-02  1.442875e-01  2.656129e-01
     vertex  7.399765e-02  1.439391e-01  2.656753e-01
   endloop
 endfacet
 facet normal  9.242246e-01  3.818493e-01 -4.663931e-12
   outer loop
     vertex  7.395354e-02  1.440458e-01  2.634141e-01
     vertex  7.371138e-02  1.446320e-01  2.655285e-01
     vertex  7.385369e-02  1.442875e-01  2.656129e-01
   endloop
 endfacet
 facet normal  9.242246e-01  3.818493e-01  1.736640e-11
   outer loop
     vertex  7.395354e-02  1.440458e-01  2.634141e-01
     vertex  7.357122e-02  1.449712e-01  2.654222e-01
     vertex  7.371138e-02  1.446320e-01  2.655285e-01
   endloop
 endfacet
 facet normal  9.242246e-01  3.818493e-01 -3.494520e-13
   outer loop
     vertex  7.407033e-02  1.437632e-01  2.634141e-01
     vertex  7.395354e-02  1.440458e-01  2.634141e-01
     vertex  7.399765e-02  1.439391e-01  2.656753e-01
   endloop
 endfacet
 facet normal -0.000000e+00  0.000000e+00  1.000000e+00
   outer loop
     vertex  7.465672e-02  1.441717e-01  2.634141e-01
     vertex  7.502228e-02  1.441565e-01  2.634141e-01
     vertex  7.490550e-02  1.444391e-01  2.634141e-01
   endloop
 endfacet
 facet normal -0.000000e+00  0.000000e+00  1.000000e+00
   outer loop
     vertex  7.395354e-02  1.440458e-01  2.634141e-01
     vertex  7.431857e-02  1.440319e-01  2.634141e-01
     vertex  7.465672e-02  1.441717e-01  2.634141e-01
   endloop
 endfacet
 facet normal  0.000000e+00  0.000000e+00  1.000000e+00
   outer loop
     vertex  7.395354e-02  1.440458e-01  2.634141e-01
     vertex  7.465672e-02  1.441717e-01  2.634141e-01
     vertex  7.490550e-02  1.444391e-01  2.634141e-01
   endloop
 endfacet
 facet normal  0.000000e+00 -0.000000e+00  1.000000e+00
   outer loop
     vertex  7.407033e-02  1.437632e-01  2.634141e-01
     vertex  7.431857e-02  1.440319e-01  2.634141e-01
     vertex  7.395354e-02  1.440458e-01  2.634141e-01
   endloop
 endfacet
 facet normal -9.242246e-01 -3.818493e-01 -1.264373e-11
   outer loop
     vertex  7.490550e-02  1.444391e-01  2.634141e-01
     vertex  7.466333e-02  1.450253e-01  2.655285e-01
     vertex  7.452317e-02  1.453645e-01  2.654222e-01
   endloop
 endfacet
 facet normal -9.242246e-01 -3.818493e-01 -1.850354e-11
   outer loop
     vertex  7.490550e-02  1.444391e-01  2.634141e-01
     vertex  7.480564e-02  1.446808e-01  2.656129e-01
     vertex  7.466333e-02  1.450253e-01  2.655285e-01
   endloop
 endfacet
 facet normal -9.242246e-01 -3.818493e-01 -1.681876e-12
   outer loop
     vertex  7.490550e-02  1.444391e-01  2.634141e-01
     vertex  7.494960e-02  1.443324e-01  2.656753e-01
     vertex  7.480564e-02  1.446808e-01  2.656129e-01
   endloop
 endfacet
 facet normal -9.242246e-01 -3.818493e-01  3.336348e-12
   outer loop
     vertex  7.502228e-02  1.441565e-01  2.634141e-01
     vertex  7.494960e-02  1.443324e-01  2.656753e-01
     vertex  7.490550e-02  1.444391e-01  2.634141e-01
   endloop
 endfacet
 facet normal -4.640725e-01 -8.830170e-01  7.012614e-02
   outer loop
     vertex  7.526819e-02  1.442302e-01  2.656753e-01
     vertex  7.516650e-02  1.441041e-01  2.634141e-01
     vertex  7.523449e-02  1.440683e-01  2.634141e-01
   endloop
 endfacet
 facet normal -5.300620e-01 -8.451955e-01  6.840214e-02
   outer loop
     vertex  7.526819e-02  1.442302e-01  2.656753e-01
     vertex  7.523449e-02  1.440683e-01  2.634141e-01
     vertex  7.541040e-02  1.441410e-01  2.656753e-01
   endloop
 endfacet
 facet normal -2.979577e-01 -9.519998e-01  7.012614e-02
   outer loop
     vertex  7.511316e-02  1.442946e-01  2.656753e-01
     vertex  7.502228e-02  1.441565e-01  2.634141e-01
     vertex  7.509558e-02  1.441335e-01  2.634141e-01
   endloop
 endfacet
 facet normal -3.826137e-01 -9.213580e-01  6.860184e-02
   outer loop
     vertex  7.511316e-02  1.442946e-01  2.656753e-01
     vertex  7.509558e-02  1.441335e-01  2.634141e-01
     vertex  7.516650e-02  1.441041e-01  2.634141e-01
   endloop
 endfacet
 facet normal -3.826137e-01 -9.213580e-01  6.860184e-02
   outer loop
     vertex  7.511316e-02  1.442946e-01  2.656753e-01
     vertex  7.516650e-02  1.441041e-01  2.634141e-01
     vertex  7.526819e-02  1.442302e-01  2.656753e-01
   endloop
 endfacet
 facet normal -2.245883e-01 -9.720500e-01  6.840214e-02
   outer loop
     vertex  7.494960e-02  1.443324e-01  2.656753e-01
     vertex  7.502228e-02  1.441565e-01  2.634141e-01
     vertex  7.511316e-02  1.442946e-01  2.656753e-01
   endloop
 endfacet
 facet normal  3.818493e-01 -9.242246e-01  3.950261e-12
   outer loop
     vertex  7.551716e-02  1.441851e-01  2.634141e-01
     vertex  7.575884e-02  1.442850e-01  2.656129e-01
     vertex  7.541040e-02  1.441410e-01  2.656753e-01
   endloop
 endfacet
 facet normal  3.818493e-01 -9.242246e-01  1.100100e-11
   outer loop
     vertex  7.551716e-02  1.441851e-01  2.634141e-01
     vertex  7.610328e-02  1.444273e-01  2.655285e-01
     vertex  7.575884e-02  1.442850e-01  2.656129e-01
   endloop
 endfacet
 facet normal  3.818493e-01 -9.242246e-01 -1.453961e-11
   outer loop
     vertex  7.551716e-02  1.441851e-01  2.634141e-01
     vertex  7.644252e-02  1.445675e-01  2.654222e-01
     vertex  7.610328e-02  1.444273e-01  2.655285e-01
   endloop
 endfacet
 facet normal  3.818493e-01 -9.242246e-01  2.853125e-12
   outer loop
     vertex  7.523449e-02  1.440683e-01  2.634141e-01
     vertex  7.551716e-02  1.441851e-01  2.634141e-01
     vertex  7.541040e-02  1.441410e-01  2.656753e-01
   endloop
 endfacet
 facet normal  0.000000e+00 -0.000000e+00  1.000000e+00
   outer loop
     vertex  7.538238e-02  1.439588e-01  2.634141e-01
     vertex  7.551716e-02  1.441851e-01  2.634141e-01
     vertex  7.523449e-02  1.440683e-01  2.634141e-01
   endloop
 endfacet
 facet normal  0.000000e+00 -0.000000e+00  1.000000e+00
   outer loop
     vertex  7.550327e-02  1.438201e-01  2.634141e-01
     vertex  7.551716e-02  1.441851e-01  2.634141e-01
     vertex  7.538238e-02  1.439588e-01  2.634141e-01
   endloop
 endfacet
 facet normal  0.000000e+00  0.000000e+00  1.000000e+00
   outer loop
     vertex  7.559152e-02  1.436586e-01  2.634141e-01
     vertex  7.551716e-02  1.441851e-01  2.634141e-01
     vertex  7.550327e-02  1.438201e-01  2.634141e-01
   endloop
 endfacet
 facet normal  0.000000e+00  0.000000e+00  1.000000e+00
   outer loop
     vertex  7.591046e-02  1.432332e-01  2.634141e-01
     vertex  7.559152e-02  1.436586e-01  2.634141e-01
     vertex  7.564298e-02  1.434820e-01  2.634141e-01
   endloop
 endfacet
 facet normal -0.000000e+00 -0.000000e+00  1.000000e+00
   outer loop
     vertex  7.565527e-02  1.432983e-01  2.634141e-01
     vertex  7.591046e-02  1.432332e-01  2.634141e-01
     vertex  7.564298e-02  1.434820e-01  2.634141e-01
   endloop
 endfacet
 facet normal  0.000000e+00  0.000000e+00  1.000000e+00
   outer loop
     vertex  7.562779e-02  1.431164e-01  2.634141e-01
     vertex  7.591046e-02  1.432332e-01  2.634141e-01
     vertex  7.565527e-02  1.432983e-01  2.634141e-01
   endloop
 endfacet
 facet normal  0.000000e+00  0.000000e+00  1.000000e+00
   outer loop
     vertex  7.591046e-02  1.432332e-01  2.634141e-01
     vertex  7.551716e-02  1.441851e-01  2.634141e-01
     vertex  7.559152e-02  1.436586e-01  2.634141e-01
   endloop
 endfacet
 facet normal -3.818493e-01  9.242246e-01  1.952917e-11
   outer loop
     vertex  7.591046e-02  1.432332e-01  2.634141e-01
     vertex  7.649659e-02  1.434753e-01  2.655285e-01
     vertex  7.683583e-02  1.436155e-01  2.654222e-01
   endloop
 endfacet
 facet normal -3.818493e-01  9.242246e-01  2.317902e-12
   outer loop
     vertex  7.591046e-02  1.432332e-01  2.634141e-01
     vertex  7.615215e-02  1.433330e-01  2.656129e-01
     vertex  7.649659e-02  1.434753e-01  2.655285e-01
   endloop
 endfacet
 facet normal -3.818493e-01  9.242246e-01  7.765583e-12
   outer loop
     vertex  7.591046e-02  1.432332e-01  2.634141e-01
     vertex  7.580370e-02  1.431891e-01  2.656753e-01
     vertex  7.615215e-02  1.433330e-01  2.656129e-01
   endloop
 endfacet
 facet normal -3.818493e-01  9.242246e-01  8.763784e-12
   outer loop
     vertex  7.591046e-02  1.432332e-01  2.634141e-01
     vertex  7.562779e-02  1.431164e-01  2.634141e-01
     vertex  7.580370e-02  1.431891e-01  2.656753e-01
   endloop
 endfacet
 facet normal -8.451955e-01  5.300620e-01  6.840214e-02
   outer loop
     vertex  7.570154e-02  1.428705e-01  2.656753e-01
     vertex  7.553967e-02  1.429042e-01  2.634141e-01
     vertex  7.561235e-02  1.427283e-01  2.656753e-01
   endloop
 endfacet
 facet normal -9.213580e-01  3.826137e-01  6.860184e-02
   outer loop
     vertex  7.570154e-02  1.428705e-01  2.656753e-01
     vertex  7.560485e-02  1.430431e-01  2.634141e-01
     vertex  7.557540e-02  1.429722e-01  2.634141e-01
   endloop
 endfacet
 facet normal -8.830170e-01  4.640725e-01  7.012614e-02
   outer loop
     vertex  7.570154e-02  1.428705e-01  2.656753e-01
     vertex  7.557540e-02  1.429722e-01  2.634141e-01
     vertex  7.553967e-02  1.429042e-01  2.634141e-01
   endloop
 endfacet
 facet normal -9.519998e-01  2.979577e-01  7.012614e-02
   outer loop
     vertex  7.576591e-02  1.430255e-01  2.656753e-01
     vertex  7.562779e-02  1.431164e-01  2.634141e-01
     vertex  7.560485e-02  1.430431e-01  2.634141e-01
   endloop
 endfacet
 facet normal -9.213580e-01  3.826137e-01  6.860184e-02
   outer loop
     vertex  7.576591e-02  1.430255e-01  2.656753e-01
     vertex  7.560485e-02  1.430431e-01  2.634141e-01
     vertex  7.570154e-02  1.428705e-01  2.656753e-01
   endloop
 endfacet
 facet normal -9.720500e-01  2.245883e-01  6.840214e-02
   outer loop
     vertex  7.580370e-02  1.431891e-01  2.656753e-01
     vertex  7.562779e-02  1.431164e-01  2.634141e-01
     vertex  7.576591e-02  1.430255e-01  2.656753e-01
   endloop
 endfacet
 facet normal -9.242246e-01 -3.818493e-01  4.029890e-12
   outer loop
     vertex  7.565646e-02  1.426215e-01  2.634141e-01
     vertex  7.575631e-02  1.423798e-01  2.656129e-01
     vertex  7.561235e-02  1.427283e-01  2.656753e-01
   endloop
 endfacet
 facet normal -9.242246e-01 -3.818493e-01 -2.016531e-12
   outer loop
     vertex  7.565646e-02  1.426215e-01  2.634141e-01
     vertex  7.589862e-02  1.420354e-01  2.655285e-01
     vertex  7.575631e-02  1.423798e-01  2.656129e-01
   endloop
 endfacet
 facet normal -9.242246e-01 -3.818493e-01 -3.386307e-11
   outer loop
     vertex  7.565646e-02  1.426215e-01  2.634141e-01
     vertex  7.603878e-02  1.416962e-01  2.654222e-01
     vertex  7.589862e-02  1.420354e-01  2.655285e-01
   endloop
 endfacet
 facet normal -9.242246e-01 -3.818493e-01  7.652726e-12
   outer loop
     vertex  7.565646e-02  1.426215e-01  2.634141e-01
     vertex  7.561235e-02  1.427283e-01  2.656753e-01
     vertex  7.553967e-02  1.429042e-01  2.634141e-01
   endloop
 endfacet
 facet normal -0.000000e+00  0.000000e+00  1.000000e+00
   outer loop
     vertex  7.529143e-02  1.426354e-01  2.634141e-01
     vertex  7.565646e-02  1.426215e-01  2.634141e-01
     vertex  7.553967e-02  1.429042e-01  2.634141e-01
   endloop
 endfacet
 facet normal  0.000000e+00 -0.000000e+00  1.000000e+00
   outer loop
     vertex  7.470450e-02  1.422282e-01  2.634141e-01
     vertex  7.495328e-02  1.424957e-01  2.634141e-01
     vertex  7.458772e-02  1.425109e-01  2.634141e-01
   endloop
 endfacet
 facet normal  0.000000e+00  0.000000e+00  1.000000e+00
   outer loop
     vertex  7.470450e-02  1.422282e-01  2.634141e-01
     vertex  7.565646e-02  1.426215e-01  2.634141e-01
     vertex  7.495328e-02  1.424957e-01  2.634141e-01
   endloop
 endfacet
 facet normal  0.000000e+00  0.000000e+00  1.000000e+00
   outer loop
     vertex  7.495328e-02  1.424957e-01  2.634141e-01
     vertex  7.565646e-02  1.426215e-01  2.634141e-01
     vertex  7.529143e-02  1.426354e-01  2.634141e-01
   endloop
 endfacet
 facet normal  9.242246e-01  3.818493e-01  8.098463e-12
   outer loop
     vertex  7.470450e-02  1.422282e-01  2.634141e-01
     vertex  7.494667e-02  1.416421e-01  2.655285e-01
     vertex  7.508683e-02  1.413028e-01  2.654222e-01
   endloop
 endfacet
 facet normal  9.242246e-01  3.818493e-01  5.827368e-13
   outer loop
     vertex  7.470450e-02  1.422282e-01  2.634141e-01
     vertex  7.480436e-02  1.419865e-01  2.656129e-01
     vertex  7.494667e-02  1.416421e-01  2.655285e-01
   endloop
 endfacet
 facet normal  9.242246e-01  3.818493e-01 -5.512929e-12
   outer loop
     vertex  7.470450e-02  1.422282e-01  2.634141e-01
     vertex  7.466040e-02  1.423350e-01  2.656753e-01
     vertex  7.480436e-02  1.419865e-01  2.656129e-01
   endloop
 endfacet
 facet normal  9.242246e-01  3.818493e-01 -7.652726e-12
   outer loop
     vertex  7.470450e-02  1.422282e-01  2.634141e-01
     vertex  7.458772e-02  1.425109e-01  2.634141e-01
     vertex  7.466040e-02  1.423350e-01  2.656753e-01
   endloop
 endfacet
 facet normal  4.640725e-01  8.830170e-01  7.012614e-02
   outer loop
     vertex  7.434181e-02  1.424371e-01  2.656753e-01
     vertex  7.444350e-02  1.425633e-01  2.634141e-01
     vertex  7.437551e-02  1.425990e-01  2.634141e-01
   endloop
 endfacet
 facet normal  5.300620e-01  8.451955e-01  6.840214e-02
   outer loop
     vertex  7.434181e-02  1.424371e-01  2.656753e-01
     vertex  7.437551e-02  1.425990e-01  2.634141e-01
     vertex  7.419960e-02  1.425263e-01  2.656753e-01
   endloop
 endfacet
 facet normal  3.826137e-01  9.213580e-01  6.860184e-02
   outer loop
     vertex  7.449684e-02  1.423728e-01  2.656753e-01
     vertex  7.451442e-02  1.425338e-01  2.634141e-01
     vertex  7.444350e-02  1.425633e-01  2.634141e-01
   endloop
 endfacet
 facet normal  2.979577e-01  9.519998e-01  7.012614e-02
   outer loop
     vertex  7.449684e-02  1.423728e-01  2.656753e-01
     vertex  7.458772e-02  1.425109e-01  2.634141e-01
     vertex  7.451442e-02  1.425338e-01  2.634141e-01
   endloop
 endfacet
 facet normal  3.826137e-01  9.213580e-01  6.860184e-02
   outer loop
     vertex  7.449684e-02  1.423728e-01  2.656753e-01
     vertex  7.444350e-02  1.425633e-01  2.634141e-01
     vertex  7.434181e-02  1.424371e-01  2.656753e-01
   endloop
 endfacet
 facet normal  2.245883e-01  9.720500e-01  6.840214e-02
   outer loop
     vertex  7.466040e-02  1.423350e-01  2.656753e-01
     vertex  7.458772e-02  1.425109e-01  2.634141e-01
     vertex  7.449684e-02  1.423728e-01  2.656753e-01
   endloop
 endfacet
 facet normal -3.818493e-01  9.242246e-01  9.841824e-13
   outer loop
     vertex  7.409284e-02  1.424822e-01  2.634141e-01
     vertex  7.385116e-02  1.423824e-01  2.656129e-01
     vertex  7.419960e-02  1.425263e-01  2.656753e-01
   endloop
 endfacet
 facet normal -3.818493e-01  9.242246e-01 -1.830840e-11
   outer loop
     vertex  7.409284e-02  1.424822e-01  2.634141e-01
     vertex  7.350672e-02  1.422401e-01  2.655285e-01
     vertex  7.385116e-02  1.423824e-01  2.656129e-01
   endloop
 endfacet
 facet normal -3.818493e-01  9.242246e-01  3.493853e-11
   outer loop
     vertex  7.409284e-02  1.424822e-01  2.634141e-01
     vertex  7.316748e-02  1.420999e-01  2.654222e-01
     vertex  7.350672e-02  1.422401e-01  2.655285e-01
   endloop
 endfacet
 facet normal -3.818493e-01  9.242246e-01  2.853125e-12
   outer loop
     vertex  7.437551e-02  1.425990e-01  2.634141e-01
     vertex  7.409284e-02  1.424822e-01  2.634141e-01
     vertex  7.419960e-02  1.425263e-01  2.656753e-01
   endloop
 endfacet
 facet normal  0.000000e+00 -0.000000e+00  1.000000e+00
   outer loop
     vertex  7.396702e-02  1.431854e-01  2.634141e-01
     vertex  7.398221e-02  1.435510e-01  2.634141e-01
     vertex  7.369954e-02  1.434342e-01  2.634141e-01
   endloop
 endfacet
 facet normal  0.000000e+00 -0.000000e+00  1.000000e+00
   outer loop
     vertex  7.409284e-02  1.424822e-01  2.634141e-01
     vertex  7.410673e-02  1.428472e-01  2.634141e-01
     vertex  7.396702e-02  1.431854e-01  2.634141e-01
   endloop
 endfacet
 facet normal  0.000000e+00  0.000000e+00  1.000000e+00
   outer loop
     vertex  7.409284e-02  1.424822e-01  2.634141e-01
     vertex  7.437551e-02  1.425990e-01  2.634141e-01
     vertex  7.410673e-02  1.428472e-01  2.634141e-01
   endloop
 endfacet
 facet normal  0.000000e+00  0.000000e+00  1.000000e+00
   outer loop
     vertex  7.409284e-02  1.424822e-01  2.634141e-01
     vertex  7.396702e-02  1.431854e-01  2.634141e-01
     vertex  7.369954e-02  1.434342e-01  2.634141e-01
   endloop
 endfacet
 facet normal  3.818493e-01 -9.242246e-01 -2.350779e-11
   outer loop
     vertex  7.369954e-02  1.434342e-01  2.634141e-01
     vertex  7.311341e-02  1.431920e-01  2.655285e-01
     vertex  7.277417e-02  1.430518e-01  2.654222e-01
   endloop
 endfacet
 facet normal  3.818493e-01 -9.242246e-01  2.994112e-11
   outer loop
     vertex  7.369954e-02  1.434342e-01  2.634141e-01
     vertex  7.345785e-02  1.433343e-01  2.656129e-01
     vertex  7.311341e-02  1.431920e-01  2.655285e-01
   endloop
 endfacet
 facet normal  3.818493e-01 -9.242246e-01  2.605353e-12
   outer loop
     vertex  7.369954e-02  1.434342e-01  2.634141e-01
     vertex  7.380630e-02  1.434783e-01  2.656753e-01
     vertex  7.345785e-02  1.433343e-01  2.656129e-01
   endloop
 endfacet
 facet normal  3.818493e-01 -9.242246e-01 -7.240573e-12
   outer loop
     vertex  7.369954e-02  1.434342e-01  2.634141e-01
     vertex  7.398221e-02  1.435510e-01  2.634141e-01
     vertex  7.380630e-02  1.434783e-01  2.656753e-01
   endloop
 endfacet
 facet normal  8.451955e-01 -5.300620e-01  6.840214e-02
   outer loop
     vertex  7.390846e-02  1.437969e-01  2.656753e-01
     vertex  7.407033e-02  1.437632e-01  2.634141e-01
     vertex  7.399765e-02  1.439391e-01  2.656753e-01
   endloop
 endfacet
 facet normal  9.213580e-01 -3.826137e-01  6.860184e-02
   outer loop
     vertex  7.390846e-02  1.437969e-01  2.656753e-01
     vertex  7.400515e-02  1.436243e-01  2.634141e-01
     vertex  7.403460e-02  1.436952e-01  2.634141e-01
   endloop
 endfacet
 facet normal  8.830170e-01 -4.640725e-01  7.012614e-02
   outer loop
     vertex  7.390846e-02  1.437969e-01  2.656753e-01
     vertex  7.403460e-02  1.436952e-01  2.634141e-01
     vertex  7.407033e-02  1.437632e-01  2.634141e-01
   endloop
 endfacet
 facet normal  9.519998e-01 -2.979577e-01  7.012614e-02
   outer loop
     vertex  7.384409e-02  1.436418e-01  2.656753e-01
     vertex  7.398221e-02  1.435510e-01  2.634141e-01
     vertex  7.400515e-02  1.436243e-01  2.634141e-01
   endloop
 endfacet
 facet normal  9.213580e-01 -3.826137e-01  6.860184e-02
   outer loop
     vertex  7.384409e-02  1.436418e-01  2.656753e-01
     vertex  7.400515e-02  1.436243e-01  2.634141e-01
     vertex  7.390846e-02  1.437969e-01  2.656753e-01
   endloop
 endfacet
 facet normal  9.720500e-01 -2.245883e-01  6.840214e-02
   outer loop
     vertex  7.380630e-02  1.434783e-01  2.656753e-01
     vertex  7.398221e-02  1.435510e-01  2.634141e-01
     vertex  7.384409e-02  1.436418e-01  2.656753e-01
   endloop
 endfacet
 facet normal -2.726142e-01 -1.489746e-01  9.505199e-01
   outer loop
     vertex  7.550327e-02  1.438201e-01  2.634141e-01
     vertex  7.480500e-02  1.433337e-01  2.631376e-01
     vertex  7.559152e-02  1.436586e-01  2.634141e-01
   endloop
 endfacet
 facet normal -2.342159e-01 -2.040953e-01  9.505199e-01
   outer loop
     vertex  7.538238e-02  1.439588e-01  2.634141e-01
     vertex  7.480500e-02  1.433337e-01  2.631376e-01
     vertex  7.550327e-02  1.438201e-01  2.634141e-01
   endloop
 endfacet
 facet normal -1.848660e-01 -2.496728e-01  9.505199e-01
   outer loop
     vertex  7.523449e-02  1.440683e-01  2.634141e-01
     vertex  7.480500e-02  1.433337e-01  2.631376e-01
     vertex  7.538238e-02  1.439588e-01  2.634141e-01
   endloop
 endfacet
 facet normal -1.438928e-01 -2.737929e-01  9.509639e-01
   outer loop
     vertex  7.516650e-02  1.441041e-01  2.634141e-01
     vertex  7.480500e-02  1.433337e-01  2.631376e-01
     vertex  7.523449e-02  1.440683e-01  2.634141e-01
   endloop
 endfacet
 facet normal -1.186226e-01 -2.856508e-01  9.509639e-01
   outer loop
     vertex  7.509558e-02  1.441335e-01  2.634141e-01
     vertex  7.480500e-02  1.433337e-01  2.631376e-01
     vertex  7.516650e-02  1.441041e-01  2.634141e-01
   endloop
 endfacet
 facet normal -9.238634e-02 -2.951821e-01  9.509639e-01
   outer loop
     vertex  7.502228e-02  1.441565e-01  2.634141e-01
     vertex  7.480500e-02  1.433337e-01  2.631376e-01
     vertex  7.509558e-02  1.441335e-01  2.634141e-01
   endloop
 endfacet
 facet normal -1.310458e-02 -3.154129e-01  9.488640e-01
   outer loop
     vertex  7.465672e-02  1.441717e-01  2.634141e-01
     vertex  7.480500e-02  1.433337e-01  2.631376e-01
     vertex  7.502228e-02  1.441565e-01  2.634141e-01
   endloop
 endfacet
 facet normal  1.205441e-01 -2.917639e-01  9.488640e-01
   outer loop
     vertex  7.431857e-02  1.440319e-01  2.634141e-01
     vertex  7.480500e-02  1.433337e-01  2.631376e-01
     vertex  7.465672e-02  1.441717e-01  2.634141e-01
   endloop
 endfacet
 facet normal  2.319107e-01 -2.141833e-01  9.488640e-01
   outer loop
     vertex  7.407033e-02  1.437632e-01  2.634141e-01
     vertex  7.480500e-02  1.433337e-01  2.631376e-01
     vertex  7.431857e-02  1.440319e-01  2.634141e-01
   endloop
 endfacet
 facet normal  2.737929e-01 -1.438928e-01  9.509639e-01
   outer loop
     vertex  7.403460e-02  1.436952e-01  2.634141e-01
     vertex  7.480500e-02  1.433337e-01  2.631376e-01
     vertex  7.407033e-02  1.437632e-01  2.634141e-01
   endloop
 endfacet
 facet normal  2.856508e-01 -1.186226e-01  9.509639e-01
   outer loop
     vertex  7.400515e-02  1.436243e-01  2.634141e-01
     vertex  7.480500e-02  1.433337e-01  2.631376e-01
     vertex  7.403460e-02  1.436952e-01  2.634141e-01
   endloop
 endfacet
 facet normal  2.951821e-01 -9.238634e-02  9.509639e-01
   outer loop
     vertex  7.398221e-02  1.435510e-01  2.634141e-01
     vertex  7.480500e-02  1.433337e-01  2.631376e-01
     vertex  7.400515e-02  1.436243e-01  2.634141e-01
   endloop
 endfacet
 facet normal  3.154129e-01 -1.310458e-02  9.488640e-01
   outer loop
     vertex  7.396702e-02  1.431854e-01  2.634141e-01
     vertex  7.480500e-02  1.433337e-01  2.631376e-01
     vertex  7.398221e-02  1.435510e-01  2.634141e-01
   endloop
 endfacet
 facet normal  1.438928e-01  2.737929e-01  9.509639e-01
   outer loop
     vertex  7.480500e-02  1.433337e-01  2.631376e-01
     vertex  7.437551e-02  1.425990e-01  2.634141e-01
     vertex  7.444350e-02  1.425633e-01  2.634141e-01
   endloop
 endfacet
 facet normal  1.186226e-01  2.856508e-01  9.509639e-01
   outer loop
     vertex  7.480500e-02  1.433337e-01  2.631376e-01
     vertex  7.444350e-02  1.425633e-01  2.634141e-01
     vertex  7.451442e-02  1.425338e-01  2.634141e-01
   endloop
 endfacet
 facet normal  9.238634e-02  2.951821e-01  9.509639e-01
   outer loop
     vertex  7.480500e-02  1.433337e-01  2.631376e-01
     vertex  7.451442e-02  1.425338e-01  2.634141e-01
     vertex  7.458772e-02  1.425109e-01  2.634141e-01
   endloop
 endfacet
 facet normal  2.917639e-01  1.205441e-01  9.488640e-01
   outer loop
     vertex  7.480500e-02  1.433337e-01  2.631376e-01
     vertex  7.396702e-02  1.431854e-01  2.634141e-01
     vertex  7.410673e-02  1.428472e-01  2.634141e-01
   endloop
 endfacet
 facet normal  2.141833e-01  2.319107e-01  9.488640e-01
   outer loop
     vertex  7.480500e-02  1.433337e-01  2.631376e-01
     vertex  7.410673e-02  1.428472e-01  2.634141e-01
     vertex  7.437551e-02  1.425990e-01  2.634141e-01
   endloop
 endfacet
 facet normal  0.000000e+00  0.000000e+00  0.000000e+00
   outer loop
     vertex  7.480500e-02  1.433337e-01  2.631376e-01
     vertex  7.480500e-02  1.433337e-01  2.631376e-01
     vertex  7.396702e-02  1.431854e-01  2.634141e-01
   endloop
 endfacet
 facet normal  1.310458e-02  3.154129e-01  9.488640e-01
   outer loop
     vertex  7.495328e-02  1.424957e-01  2.634141e-01
     vertex  7.480500e-02  1.433337e-01  2.631376e-01
     vertex  7.458772e-02  1.425109e-01  2.634141e-01
   endloop
 endfacet
 facet normal -1.205441e-01  2.917639e-01  9.488640e-01
   outer loop
     vertex  7.529143e-02  1.426354e-01  2.634141e-01
     vertex  7.480500e-02  1.433337e-01  2.631376e-01
     vertex  7.495328e-02  1.424957e-01  2.634141e-01
   endloop
 endfacet
 facet normal -2.319107e-01  2.141833e-01  9.488640e-01
   outer loop
     vertex  7.553967e-02  1.429042e-01  2.634141e-01
     vertex  7.480500e-02  1.433337e-01  2.631376e-01
     vertex  7.529143e-02  1.426354e-01  2.634141e-01
   endloop
 endfacet
 facet normal -2.737929e-01  1.438928e-01  9.509639e-01
   outer loop
     vertex  7.557540e-02  1.429722e-01  2.634141e-01
     vertex  7.480500e-02  1.433337e-01  2.631376e-01
     vertex  7.553967e-02  1.429042e-01  2.634141e-01
   endloop
 endfacet
 facet normal -2.856508e-01  1.186226e-01  9.509639e-01
   outer loop
     vertex  7.560485e-02  1.430431e-01  2.634141e-01
     vertex  7.480500e-02  1.433337e-01  2.631376e-01
     vertex  7.557540e-02  1.429722e-01  2.634141e-01
   endloop
 endfacet
 facet normal -2.951821e-01  9.238634e-02  9.509639e-01
   outer loop
     vertex  7.562779e-02  1.431164e-01  2.634141e-01
     vertex  7.480500e-02  1.433337e-01  2.631376e-01
     vertex  7.560485e-02  1.430431e-01  2.634141e-01
   endloop
 endfacet
 facet normal -3.071821e-01  4.638000e-02  9.505199e-01
   outer loop
     vertex  7.565527e-02  1.432983e-01  2.634141e-01
     vertex  7.480500e-02  1.433337e-01  2.631376e-01
     vertex  7.562779e-02  1.431164e-01  2.634141e-01
   endloop
 endfacet
 facet normal -3.099707e-01 -2.073891e-02  9.505199e-01
   outer loop
     vertex  7.564298e-02  1.434820e-01  2.634141e-01
     vertex  7.480500e-02  1.433337e-01  2.631376e-01
     vertex  7.565527e-02  1.432983e-01  2.634141e-01
   endloop
 endfacet
 facet normal -2.982657e-01 -8.688811e-02  9.505199e-01
   outer loop
     vertex  7.559152e-02  1.436586e-01  2.634141e-01
     vertex  7.480500e-02  1.433337e-01  2.631376e-01
     vertex  7.564298e-02  1.434820e-01  2.634141e-01
   endloop
 endfacet
 facet normal  8.271204e-01  3.417301e-01  4.461978e-01
   outer loop
     vertex  7.369954e-02  1.434342e-01  2.634141e-01
     vertex  7.277417e-02  1.430518e-01  2.654222e-01
     vertex  7.289764e-02  1.427316e-01  2.654387e-01
   endloop
 endfacet
 facet normal  8.271204e-01  3.417301e-01  4.461978e-01
   outer loop
     vertex  7.409284e-02  1.424822e-01  2.634141e-01
     vertex  7.289764e-02  1.427316e-01  2.654387e-01
     vertex  7.302886e-02  1.424139e-01  2.654387e-01
   endloop
 endfacet
 facet normal  8.271204e-01  3.417301e-01  4.461978e-01
   outer loop
     vertex  7.409284e-02  1.424822e-01  2.634141e-01
     vertex  7.302886e-02  1.424139e-01  2.654387e-01
     vertex  7.316748e-02  1.420999e-01  2.654222e-01
   endloop
 endfacet
 facet normal  8.271204e-01  3.417301e-01  4.461978e-01
   outer loop
     vertex  7.409284e-02  1.424822e-01  2.634141e-01
     vertex  7.369954e-02  1.434342e-01  2.634141e-01
     vertex  7.289764e-02  1.427316e-01  2.654387e-01
   endloop
 endfacet
 facet normal -3.417301e-01  8.271204e-01  4.461978e-01
   outer loop
     vertex  7.572474e-02  1.415575e-01  2.654387e-01
     vertex  7.603878e-02  1.416962e-01  2.654222e-01
     vertex  7.565646e-02  1.426215e-01  2.634141e-01
   endloop
 endfacet
 facet normal -3.417301e-01  8.271204e-01  4.461978e-01
   outer loop
     vertex  7.540712e-02  1.414263e-01  2.654387e-01
     vertex  7.565646e-02  1.426215e-01  2.634141e-01
     vertex  7.470450e-02  1.422282e-01  2.634141e-01
   endloop
 endfacet
 facet normal -3.417301e-01  8.271204e-01  4.461978e-01
   outer loop
     vertex  7.540712e-02  1.414263e-01  2.654387e-01
     vertex  7.572474e-02  1.415575e-01  2.654387e-01
     vertex  7.565646e-02  1.426215e-01  2.634141e-01
   endloop
 endfacet
 facet normal -3.417301e-01  8.271204e-01  4.461978e-01
   outer loop
     vertex  7.508683e-02  1.413028e-01  2.654222e-01
     vertex  7.540712e-02  1.414263e-01  2.654387e-01
     vertex  7.470450e-02  1.422282e-01  2.634141e-01
   endloop
 endfacet
 facet normal -8.271204e-01 -3.417301e-01  4.461978e-01
   outer loop
     vertex  7.658114e-02  1.442534e-01  2.654387e-01
     vertex  7.644252e-02  1.445675e-01  2.654222e-01
     vertex  7.551716e-02  1.441851e-01  2.634141e-01
   endloop
 endfacet
 facet normal -8.271204e-01 -3.417301e-01  4.461978e-01
   outer loop
     vertex  7.671236e-02  1.439358e-01  2.654387e-01
     vertex  7.551716e-02  1.441851e-01  2.634141e-01
     vertex  7.591046e-02  1.432332e-01  2.634141e-01
   endloop
 endfacet
 facet normal -8.271204e-01 -3.417301e-01  4.461978e-01
   outer loop
     vertex  7.671236e-02  1.439358e-01  2.654387e-01
     vertex  7.658114e-02  1.442534e-01  2.654387e-01
     vertex  7.551716e-02  1.441851e-01  2.634141e-01
   endloop
 endfacet
 facet normal -8.271204e-01 -3.417301e-01  4.461978e-01
   outer loop
     vertex  7.683583e-02  1.436155e-01  2.654222e-01
     vertex  7.671236e-02  1.439358e-01  2.654387e-01
     vertex  7.591046e-02  1.432332e-01  2.634141e-01
   endloop
 endfacet
 facet normal  3.417301e-01 -8.271204e-01  4.461978e-01
   outer loop
     vertex  7.490550e-02  1.444391e-01  2.634141e-01
     vertex  7.452317e-02  1.453645e-01  2.654222e-01
     vertex  7.420288e-02  1.452410e-01  2.654387e-01
   endloop
 endfacet
 facet normal  3.417301e-01 -8.271204e-01  4.461978e-01
   outer loop
     vertex  7.395354e-02  1.440458e-01  2.634141e-01
     vertex  7.420288e-02  1.452410e-01  2.654387e-01
     vertex  7.388526e-02  1.451098e-01  2.654387e-01
   endloop
 endfacet
 facet normal  3.417301e-01 -8.271204e-01  4.461978e-01
   outer loop
     vertex  7.395354e-02  1.440458e-01  2.634141e-01
     vertex  7.388526e-02  1.451098e-01  2.654387e-01
     vertex  7.357122e-02  1.449712e-01  2.654222e-01
   endloop
 endfacet
 facet normal  3.417301e-01 -8.271204e-01  4.461978e-01
   outer loop
     vertex  7.395354e-02  1.440458e-01  2.634141e-01
     vertex  7.490550e-02  1.444391e-01  2.634141e-01
     vertex  7.420288e-02  1.452410e-01  2.654387e-01
   endloop
 endfacet
endsolid
