solid 
 facet normal -3.296262e-01 -1.300386e-01  9.351131e-01
   outer loop
     vertex  2.028787e-01  8.017006e-02  7.028809e-01
     vertex  2.027870e-01  8.020989e-02  7.028541e-01
     vertex  2.039288e-01  7.731569e-02  7.028541e-01
   endloop
 endfacet
 facet normal -1.300386e-01  3.296262e-01  9.351131e-01
   outer loop
     vertex  2.056414e-01  8.125993e-02  7.028809e-01
     vertex  2.027870e-01  8.020989e-02  7.028541e-01
     vertex  2.028787e-01  8.017006e-02  7.028809e-01
   endloop
 endfacet
 facet normal -1.300386e-01  3.296262e-01  9.351131e-01
   outer loop
     vertex  2.056414e-01  8.125993e-02  7.028809e-01
     vertex  2.056812e-01  8.135166e-02  7.028541e-01
     vertex  2.027870e-01  8.020989e-02  7.028541e-01
   endloop
 endfacet
 facet normal -3.605638e-01  9.139690e-01  1.861568e-01
   outer loop
     vertex  2.056122e-01  8.119278e-02  7.029541e-01
     vertex  2.029705e-01  8.013023e-02  7.030541e-01
     vertex  2.056016e-01  8.116820e-02  7.030541e-01
   endloop
 endfacet
 facet normal -2.996367e-01  7.595291e-01  5.773503e-01
   outer loop
     vertex  2.056122e-01  8.119278e-02  7.029541e-01
     vertex  2.028787e-01  8.017006e-02  7.028809e-01
     vertex  2.029459e-01  8.014090e-02  7.029541e-01
   endloop
 endfacet
 facet normal -3.605638e-01  9.139690e-01  1.861568e-01
   outer loop
     vertex  2.056122e-01  8.119278e-02  7.029541e-01
     vertex  2.029459e-01  8.014090e-02  7.029541e-01
     vertex  2.029705e-01  8.013023e-02  7.030541e-01
   endloop
 endfacet
 facet normal -2.996367e-01  7.595291e-01  5.773503e-01
   outer loop
     vertex  2.056122e-01  8.119278e-02  7.029541e-01
     vertex  2.056414e-01  8.125993e-02  7.028809e-01
     vertex  2.028787e-01  8.017006e-02  7.028809e-01
   endloop
 endfacet
 facet normal  3.296262e-01  1.300386e-01  9.351131e-01
   outer loop
     vertex  2.067313e-01  7.849729e-02  7.028809e-01
     vertex  2.068230e-01  7.845746e-02  7.028541e-01
     vertex  2.056812e-01  8.135166e-02  7.028541e-01
   endloop
 endfacet
 facet normal  3.296262e-01  1.300386e-01  9.351131e-01
   outer loop
     vertex  2.067313e-01  7.849729e-02  7.028809e-01
     vertex  2.056812e-01  8.135166e-02  7.028541e-01
     vertex  2.056414e-01  8.125993e-02  7.028809e-01
   endloop
 endfacet
 facet normal  9.139690e-01  3.605638e-01  1.861568e-01
   outer loop
     vertex  2.066641e-01  7.852645e-02  7.029541e-01
     vertex  2.056016e-01  8.116820e-02  7.030541e-01
     vertex  2.066395e-01  7.853712e-02  7.030541e-01
   endloop
 endfacet
 facet normal  7.595291e-01  2.996367e-01  5.773503e-01
   outer loop
     vertex  2.066641e-01  7.852645e-02  7.029541e-01
     vertex  2.056414e-01  8.125993e-02  7.028809e-01
     vertex  2.056122e-01  8.119278e-02  7.029541e-01
   endloop
 endfacet
 facet normal  7.595291e-01  2.996367e-01  5.773503e-01
   outer loop
     vertex  2.066641e-01  7.852645e-02  7.029541e-01
     vertex  2.067313e-01  7.849729e-02  7.028809e-01
     vertex  2.056414e-01  8.125993e-02  7.028809e-01
   endloop
 endfacet
 facet normal  9.139690e-01  3.605638e-01  1.861568e-01
   outer loop
     vertex  2.066641e-01  7.852645e-02  7.029541e-01
     vertex  2.056122e-01  8.119278e-02  7.029541e-01
     vertex  2.056016e-01  8.116820e-02  7.030541e-01
   endloop
 endfacet
 facet normal  1.300386e-01 -3.296262e-01  9.351131e-01
   outer loop
     vertex  2.039686e-01  7.740742e-02  7.028809e-01
     vertex  2.039288e-01  7.731569e-02  7.028541e-01
     vertex  2.068230e-01  7.845746e-02  7.028541e-01
   endloop
 endfacet
 facet normal  1.300386e-01 -3.296262e-01  9.351131e-01
   outer loop
     vertex  2.039686e-01  7.740742e-02  7.028809e-01
     vertex  2.068230e-01  7.845746e-02  7.028541e-01
     vertex  2.067313e-01  7.849729e-02  7.028809e-01
   endloop
 endfacet
 facet normal -3.296262e-01 -1.300386e-01  9.351131e-01
   outer loop
     vertex  2.039686e-01  7.740742e-02  7.028809e-01
     vertex  2.028787e-01  8.017006e-02  7.028809e-01
     vertex  2.039288e-01  7.731569e-02  7.028541e-01
   endloop
 endfacet
 facet normal -7.595291e-01 -2.996367e-01  5.773503e-01
   outer loop
     vertex  2.039978e-01  7.747457e-02  7.029541e-01
     vertex  2.029459e-01  8.014090e-02  7.029541e-01
     vertex  2.028787e-01  8.017006e-02  7.028809e-01
   endloop
 endfacet
 facet normal -9.139690e-01 -3.605638e-01  1.861568e-01
   outer loop
     vertex  2.039978e-01  7.747457e-02  7.029541e-01
     vertex  2.029705e-01  8.013023e-02  7.030541e-01
     vertex  2.029459e-01  8.014090e-02  7.029541e-01
   endloop
 endfacet
 facet normal  3.605638e-01 -9.139690e-01  1.861568e-01
   outer loop
     vertex  2.039978e-01  7.747457e-02  7.029541e-01
     vertex  2.066395e-01  7.853712e-02  7.030541e-01
     vertex  2.040084e-01  7.749915e-02  7.030541e-01
   endloop
 endfacet
 facet normal -9.139690e-01 -3.605638e-01  1.861568e-01
   outer loop
     vertex  2.039978e-01  7.747457e-02  7.029541e-01
     vertex  2.040084e-01  7.749915e-02  7.030541e-01
     vertex  2.029705e-01  8.013023e-02  7.030541e-01
   endloop
 endfacet
 facet normal -7.595291e-01 -2.996367e-01  5.773503e-01
   outer loop
     vertex  2.039978e-01  7.747457e-02  7.029541e-01
     vertex  2.028787e-01  8.017006e-02  7.028809e-01
     vertex  2.039686e-01  7.740742e-02  7.028809e-01
   endloop
 endfacet
 facet normal  2.996367e-01 -7.595291e-01  5.773503e-01
   outer loop
     vertex  2.039978e-01  7.747457e-02  7.029541e-01
     vertex  2.039686e-01  7.740742e-02  7.028809e-01
     vertex  2.067313e-01  7.849729e-02  7.028809e-01
   endloop
 endfacet
 facet normal  3.605638e-01 -9.139690e-01  1.861568e-01
   outer loop
     vertex  2.039978e-01  7.747457e-02  7.029541e-01
     vertex  2.066641e-01  7.852645e-02  7.029541e-01
     vertex  2.066395e-01  7.853712e-02  7.030541e-01
   endloop
 endfacet
 facet normal  2.996367e-01 -7.595291e-01  5.773503e-01
   outer loop
     vertex  2.039978e-01  7.747457e-02  7.029541e-01
     vertex  2.067313e-01  7.849729e-02  7.028809e-01
     vertex  2.066641e-01  7.852645e-02  7.029541e-01
   endloop
 endfacet
 facet normal -3.669785e-01  9.302294e-01  0.000000e+00
   outer loop
     vertex  2.056016e-01  8.116820e-02  7.030541e-01
     vertex  2.029705e-01  8.013023e-02  7.030541e-01
     vertex  2.029705e-01  8.013023e-02  7.088541e-01
   endloop
 endfacet
 facet normal -3.669785e-01  9.302294e-01  0.000000e+00
   outer loop
     vertex  2.056016e-01  8.116820e-02  7.030541e-01
     vertex  2.029705e-01  8.013023e-02  7.088541e-01
     vertex  2.056016e-01  8.116820e-02  7.088541e-01
   endloop
 endfacet
 facet normal  9.302294e-01  3.669785e-01 -0.000000e+00
   outer loop
     vertex  2.066395e-01  7.853712e-02  7.030541e-01
     vertex  2.056016e-01  8.116820e-02  7.088541e-01
     vertex  2.066395e-01  7.853712e-02  7.088541e-01
   endloop
 endfacet
 facet normal  9.302294e-01  3.669785e-01  0.000000e+00
   outer loop
     vertex  2.066395e-01  7.853712e-02  7.030541e-01
     vertex  2.056016e-01  8.116820e-02  7.030541e-01
     vertex  2.056016e-01  8.116820e-02  7.088541e-01
   endloop
 endfacet
 facet normal  3.669785e-01 -9.302294e-01  0.000000e+00
   outer loop
     vertex  2.040084e-01  7.749915e-02  7.030541e-01
     vertex  2.066395e-01  7.853712e-02  7.088541e-01
     vertex  2.040084e-01  7.749915e-02  7.088541e-01
   endloop
 endfacet
 facet normal  3.669785e-01 -9.302294e-01  0.000000e+00
   outer loop
     vertex  2.040084e-01  7.749915e-02  7.030541e-01
     vertex  2.066395e-01  7.853712e-02  7.030541e-01
     vertex  2.066395e-01  7.853712e-02  7.088541e-01
   endloop
 endfacet
 facet normal -9.302294e-01 -3.669785e-01  0.000000e+00
   outer loop
     vertex  2.029705e-01  8.013023e-02  7.030541e-01
     vertex  2.040084e-01  7.749915e-02  7.088541e-01
     vertex  2.029705e-01  8.013023e-02  7.088541e-01
   endloop
 endfacet
 facet normal -9.302294e-01 -3.669785e-01  0.000000e+00
   outer loop
     vertex  2.029705e-01  8.013023e-02  7.030541e-01
     vertex  2.040084e-01  7.749915e-02  7.030541e-01
     vertex  2.040084e-01  7.749915e-02  7.088541e-01
   endloop
 endfacet
 facet normal  0.000000e+00  0.000000e+00  1.000000e+00
   outer loop
     vertex  2.040084e-01  7.749915e-02  7.088541e-01
     vertex  2.066395e-01  7.853712e-02  7.088541e-01
     vertex  2.056016e-01  8.116820e-02  7.088541e-01
   endloop
 endfacet
 facet normal -0.000000e+00  0.000000e+00  1.000000e+00
   outer loop
     vertex  2.029705e-01  8.013023e-02  7.088541e-01
     vertex  2.040084e-01  7.749915e-02  7.088541e-01
     vertex  2.056016e-01  8.116820e-02  7.088541e-01
   endloop
 endfacet
 facet normal -2.607023e-11  1.131976e-11  1.000000e+00
   outer loop
     vertex  2.056812e-01  8.135166e-02  7.028541e-01
     vertex  2.063981e-01  8.300273e-02  7.028541e-01
     vertex  2.011359e-01  8.092679e-02  7.028541e-01
   endloop
 endfacet
 facet normal -2.058137e-11 -4.740041e-11  1.000000e+00
   outer loop
     vertex  2.056812e-01  8.135166e-02  7.028541e-01
     vertex  2.011359e-01  8.092679e-02  7.028541e-01
     vertex  2.027870e-01  8.020989e-02  7.028541e-01
   endloop
 endfacet
 facet normal  2.058137e-11  4.740041e-11  1.000000e+00
   outer loop
     vertex  2.039288e-01  7.731569e-02  7.028541e-01
     vertex  2.027870e-01  8.020989e-02  7.028541e-01
     vertex  2.011359e-01  8.092679e-02  7.028541e-01
   endloop
 endfacet
 facet normal  0.000000e+00  0.000000e+00  1.000000e+00
   outer loop
     vertex  2.084741e-01  7.774056e-02  7.028541e-01
     vertex  2.056812e-01  8.135166e-02  7.028541e-01
     vertex  2.068230e-01  7.845746e-02  7.028541e-01
   endloop
 endfacet
 facet normal  0.000000e+00  0.000000e+00  1.000000e+00
   outer loop
     vertex  2.084741e-01  7.774056e-02  7.028541e-01
     vertex  2.063981e-01  8.300273e-02  7.028541e-01
     vertex  2.056812e-01  8.135166e-02  7.028541e-01
   endloop
 endfacet
 facet normal  0.000000e+00  0.000000e+00  1.000000e+00
   outer loop
     vertex  2.032119e-01  7.566462e-02  7.028541e-01
     vertex  2.068230e-01  7.845746e-02  7.028541e-01
     vertex  2.039288e-01  7.731569e-02  7.028541e-01
   endloop
 endfacet
 facet normal  0.000000e+00  0.000000e+00  1.000000e+00
   outer loop
     vertex  2.032119e-01  7.566462e-02  7.028541e-01
     vertex  2.084741e-01  7.774056e-02  7.028541e-01
     vertex  2.068230e-01  7.845746e-02  7.028541e-01
   endloop
 endfacet
 facet normal -2.607023e-11  1.131976e-11  1.000000e+00
   outer loop
     vertex  2.032119e-01  7.566462e-02  7.028541e-01
     vertex  2.039288e-01  7.731569e-02  7.028541e-01
     vertex  2.011359e-01  8.092679e-02  7.028541e-01
   endloop
 endfacet
 facet normal -3.669785e-01  9.302294e-01  0.000000e+00
   outer loop
     vertex  2.063981e-01  8.300273e-02  7.013094e-01
     vertex  2.011359e-01  8.092679e-02  7.013094e-01
     vertex  2.011359e-01  8.092679e-02  7.028541e-01
   endloop
 endfacet
 facet normal -3.669785e-01  9.302294e-01  0.000000e+00
   outer loop
     vertex  2.063981e-01  8.300273e-02  7.013094e-01
     vertex  2.011359e-01  8.092679e-02  7.028541e-01
     vertex  2.063981e-01  8.300273e-02  7.028541e-01
   endloop
 endfacet
 facet normal  9.302294e-01  3.669785e-01 -0.000000e+00
   outer loop
     vertex  2.084741e-01  7.774056e-02  7.013094e-01
     vertex  2.063981e-01  8.300273e-02  7.028541e-01
     vertex  2.084741e-01  7.774056e-02  7.028541e-01
   endloop
 endfacet
 facet normal  9.302294e-01  3.669785e-01  0.000000e+00
   outer loop
     vertex  2.084741e-01  7.774056e-02  7.013094e-01
     vertex  2.063981e-01  8.300273e-02  7.013094e-01
     vertex  2.063981e-01  8.300273e-02  7.028541e-01
   endloop
 endfacet
 facet normal  3.669785e-01 -9.302294e-01  0.000000e+00
   outer loop
     vertex  2.032119e-01  7.566462e-02  7.013094e-01
     vertex  2.084741e-01  7.774056e-02  7.028541e-01
     vertex  2.032119e-01  7.566462e-02  7.028541e-01
   endloop
 endfacet
 facet normal  3.669785e-01 -9.302294e-01  0.000000e+00
   outer loop
     vertex  2.032119e-01  7.566462e-02  7.013094e-01
     vertex  2.084741e-01  7.774056e-02  7.013094e-01
     vertex  2.084741e-01  7.774056e-02  7.028541e-01
   endloop
 endfacet
 facet normal -9.302294e-01 -3.669785e-01  0.000000e+00
   outer loop
     vertex  2.011359e-01  8.092679e-02  7.013094e-01
     vertex  2.032119e-01  7.566462e-02  7.028541e-01
     vertex  2.011359e-01  8.092679e-02  7.028541e-01
   endloop
 endfacet
 facet normal -9.302294e-01 -3.669785e-01  0.000000e+00
   outer loop
     vertex  2.011359e-01  8.092679e-02  7.013094e-01
     vertex  2.032119e-01  7.566462e-02  7.013094e-01
     vertex  2.032119e-01  7.566462e-02  7.028541e-01
   endloop
 endfacet
 facet normal -9.245269e-01 -3.647289e-01 -1.105573e-01
   outer loop
     vertex  2.011519e-01  8.091986e-02  7.011988e-01
     vertex  2.032119e-01  7.566462e-02  7.013094e-01
     vertex  2.011359e-01  8.092679e-02  7.013094e-01
   endloop
 endfacet
 facet normal -3.647289e-01  9.245269e-01 -1.105573e-01
   outer loop
     vertex  2.063912e-01  8.298678e-02  7.011988e-01
     vertex  2.011519e-01  8.091986e-02  7.011988e-01
     vertex  2.011359e-01  8.092679e-02  7.013094e-01
   endloop
 endfacet
 facet normal -3.647289e-01  9.245269e-01 -1.105573e-01
   outer loop
     vertex  2.063912e-01  8.298678e-02  7.011988e-01
     vertex  2.011359e-01  8.092679e-02  7.013094e-01
     vertex  2.063981e-01  8.300273e-02  7.013094e-01
   endloop
 endfacet
 facet normal -3.006725e-01  7.621546e-01 -5.733379e-01
   outer loop
     vertex  2.063711e-01  8.294047e-02  7.010990e-01
     vertex  2.063397e-01  8.286828e-02  7.010195e-01
     vertex  2.012704e-01  8.086841e-02  7.010195e-01
   endloop
 endfacet
 facet normal -3.006725e-01  7.621546e-01 -5.733379e-01
   outer loop
     vertex  2.063711e-01  8.294047e-02  7.010990e-01
     vertex  2.012704e-01  8.086841e-02  7.010195e-01
     vertex  2.011982e-01  8.089976e-02  7.010990e-01
   endloop
 endfacet
 facet normal -3.455591e-01  8.759347e-01 -3.366412e-01
   outer loop
     vertex  2.063711e-01  8.294047e-02  7.010990e-01
     vertex  2.011982e-01  8.089976e-02  7.010990e-01
     vertex  2.011519e-01  8.091986e-02  7.011988e-01
   endloop
 endfacet
 facet normal -3.455591e-01  8.759347e-01 -3.366412e-01
   outer loop
     vertex  2.063711e-01  8.294047e-02  7.010990e-01
     vertex  2.011519e-01  8.091986e-02  7.011988e-01
     vertex  2.063912e-01  8.298678e-02  7.011988e-01
   endloop
 endfacet
 facet normal  9.245269e-01  3.647289e-01 -1.105573e-01
   outer loop
     vertex  2.084581e-01  7.774749e-02  7.011988e-01
     vertex  2.063981e-01  8.300273e-02  7.013094e-01
     vertex  2.084741e-01  7.774056e-02  7.013094e-01
   endloop
 endfacet
 facet normal  9.245269e-01  3.647289e-01 -1.105573e-01
   outer loop
     vertex  2.084581e-01  7.774749e-02  7.011988e-01
     vertex  2.063912e-01  8.298678e-02  7.011988e-01
     vertex  2.063981e-01  8.300273e-02  7.013094e-01
   endloop
 endfacet
 facet normal  7.621546e-01  3.006725e-01 -5.733379e-01
   outer loop
     vertex  2.084118e-01  7.776759e-02  7.010990e-01
     vertex  2.083396e-01  7.779894e-02  7.010195e-01
     vertex  2.063397e-01  8.286828e-02  7.010195e-01
   endloop
 endfacet
 facet normal  8.759347e-01  3.455591e-01 -3.366412e-01
   outer loop
     vertex  2.084118e-01  7.776759e-02  7.010990e-01
     vertex  2.063711e-01  8.294047e-02  7.010990e-01
     vertex  2.063912e-01  8.298678e-02  7.011988e-01
   endloop
 endfacet
 facet normal  8.759347e-01  3.455591e-01 -3.366412e-01
   outer loop
     vertex  2.084118e-01  7.776759e-02  7.010990e-01
     vertex  2.063912e-01  8.298678e-02  7.011988e-01
     vertex  2.084581e-01  7.774749e-02  7.011988e-01
   endloop
 endfacet
 facet normal  7.621546e-01  3.006725e-01 -5.733379e-01
   outer loop
     vertex  2.084118e-01  7.776759e-02  7.010990e-01
     vertex  2.063397e-01  8.286828e-02  7.010195e-01
     vertex  2.063711e-01  8.294047e-02  7.010990e-01
   endloop
 endfacet
 facet normal  3.647289e-01 -9.245269e-01 -1.105573e-01
   outer loop
     vertex  2.032188e-01  7.568057e-02  7.011988e-01
     vertex  2.084741e-01  7.774056e-02  7.013094e-01
     vertex  2.032119e-01  7.566462e-02  7.013094e-01
   endloop
 endfacet
 facet normal  3.647289e-01 -9.245269e-01 -1.105573e-01
   outer loop
     vertex  2.032188e-01  7.568057e-02  7.011988e-01
     vertex  2.084581e-01  7.774749e-02  7.011988e-01
     vertex  2.084741e-01  7.774056e-02  7.013094e-01
   endloop
 endfacet
 facet normal -9.245269e-01 -3.647289e-01 -1.105573e-01
   outer loop
     vertex  2.032188e-01  7.568057e-02  7.011988e-01
     vertex  2.032119e-01  7.566462e-02  7.013094e-01
     vertex  2.011519e-01  8.091986e-02  7.011988e-01
   endloop
 endfacet
 facet normal  3.006725e-01 -7.621546e-01 -5.733379e-01
   outer loop
     vertex  2.032389e-01  7.572688e-02  7.010990e-01
     vertex  2.032703e-01  7.579907e-02  7.010195e-01
     vertex  2.083396e-01  7.779894e-02  7.010195e-01
   endloop
 endfacet
 facet normal -7.621546e-01 -3.006725e-01 -5.733379e-01
   outer loop
     vertex  2.032389e-01  7.572688e-02  7.010990e-01
     vertex  2.012704e-01  8.086841e-02  7.010195e-01
     vertex  2.032703e-01  7.579907e-02  7.010195e-01
   endloop
 endfacet
 facet normal -7.621546e-01 -3.006725e-01 -5.733379e-01
   outer loop
     vertex  2.032389e-01  7.572688e-02  7.010990e-01
     vertex  2.011982e-01  8.089976e-02  7.010990e-01
     vertex  2.012704e-01  8.086841e-02  7.010195e-01
   endloop
 endfacet
 facet normal -8.759347e-01 -3.455591e-01 -3.366412e-01
   outer loop
     vertex  2.032389e-01  7.572688e-02  7.010990e-01
     vertex  2.011519e-01  8.091986e-02  7.011988e-01
     vertex  2.011982e-01  8.089976e-02  7.010990e-01
   endloop
 endfacet
 facet normal  3.455591e-01 -8.759347e-01 -3.366412e-01
   outer loop
     vertex  2.032389e-01  7.572688e-02  7.010990e-01
     vertex  2.084581e-01  7.774749e-02  7.011988e-01
     vertex  2.032188e-01  7.568057e-02  7.011988e-01
   endloop
 endfacet
 facet normal  3.455591e-01 -8.759347e-01 -3.366412e-01
   outer loop
     vertex  2.032389e-01  7.572688e-02  7.010990e-01
     vertex  2.084118e-01  7.776759e-02  7.010990e-01
     vertex  2.084581e-01  7.774749e-02  7.011988e-01
   endloop
 endfacet
 facet normal -8.759347e-01 -3.455591e-01 -3.366412e-01
   outer loop
     vertex  2.032389e-01  7.572688e-02  7.010990e-01
     vertex  2.032188e-01  7.568057e-02  7.011988e-01
     vertex  2.011519e-01  8.091986e-02  7.011988e-01
   endloop
 endfacet
 facet normal  3.006725e-01 -7.621546e-01 -5.733379e-01
   outer loop
     vertex  2.032389e-01  7.572688e-02  7.010990e-01
     vertex  2.083396e-01  7.779894e-02  7.010195e-01
     vertex  2.084118e-01  7.776759e-02  7.010990e-01
   endloop
 endfacet
 facet normal -2.562109e-01  6.494520e-01 -7.159386e-01
   outer loop
     vertex  2.051230e-01  8.135915e-02  7.000859e-01
     vertex  2.012704e-01  8.086841e-02  7.010195e-01
     vertex  2.063397e-01  8.286828e-02  7.010195e-01
   endloop
 endfacet
 facet normal -2.562109e-01  6.494520e-01 -7.159386e-01
   outer loop
     vertex  2.031898e-01  8.059647e-02  7.000859e-01
     vertex  2.012704e-01  8.086841e-02  7.010195e-01
     vertex  2.051230e-01  8.135915e-02  7.000859e-01
   endloop
 endfacet
 facet normal  1.333768e-01  4.413868e-01 -8.873490e-01
   outer loop
     vertex  2.054411e-01  8.122999e-02  7.000695e-01
     vertex  2.051230e-01  8.135915e-02  7.000859e-01
     vertex  2.063397e-01  8.286828e-02  7.010195e-01
   endloop
 endfacet
 facet normal -1.390418e-01  3.524478e-01 -9.254447e-01
   outer loop
     vertex  2.049768e-01  8.102246e-02  6.999796e-01
     vertex  2.031898e-01  8.059647e-02  7.000859e-01
     vertex  2.051230e-01  8.135915e-02  7.000859e-01
   endloop
 endfacet
 facet normal -1.390418e-01  3.524478e-01 -9.254447e-01
   outer loop
     vertex  2.035264e-01  8.045028e-02  6.999796e-01
     vertex  2.031898e-01  8.059647e-02  7.000859e-01
     vertex  2.049768e-01  8.102246e-02  6.999796e-01
   endloop
 endfacet
 facet normal -3.988083e-01  2.314380e-01 -8.873490e-01
   outer loop
     vertex  2.030456e-01  8.028496e-02  7.000695e-01
     vertex  2.012704e-01  8.086841e-02  7.010195e-01
     vertex  2.031898e-01  8.059647e-02  7.000859e-01
   endloop
 endfacet
 facet normal  1.811086e-01  4.171063e-01 -8.906301e-01
   outer loop
     vertex  2.057563e-01  8.109312e-02  7.000695e-01
     vertex  2.054411e-01  8.122999e-02  7.000695e-01
     vertex  2.063397e-01  8.286828e-02  7.010195e-01
   endloop
 endfacet
 facet normal -1.119786e-01  2.838470e-01 -9.523086e-01
   outer loop
     vertex  2.048284e-01  8.068062e-02  6.998952e-01
     vertex  2.035264e-01  8.045028e-02  6.999796e-01
     vertex  2.049768e-01  8.102246e-02  6.999796e-01
   endloop
 endfacet
 facet normal -1.119786e-01  2.838470e-01 -9.523086e-01
   outer loop
     vertex  2.038683e-01  8.030185e-02  6.998952e-01
     vertex  2.035264e-01  8.045028e-02  6.999796e-01
     vertex  2.048284e-01  8.068062e-02  6.998952e-01
   endloop
 endfacet
 facet normal -4.171063e-01  1.811086e-01 -8.906301e-01
   outer loop
     vertex  2.029087e-01  7.996973e-02  7.000695e-01
     vertex  2.012704e-01  8.086841e-02  7.010195e-01
     vertex  2.030456e-01  8.028496e-02  7.000695e-01
   endloop
 endfacet
 facet normal  2.314380e-01  3.988083e-01 -8.873490e-01
   outer loop
     vertex  2.060678e-01  8.094892e-02  7.000859e-01
     vertex  2.057563e-01  8.109312e-02  7.000695e-01
     vertex  2.063397e-01  8.286828e-02  7.010195e-01
   endloop
 endfacet
 facet normal -9.268532e-02  2.349418e-01 -9.675804e-01
   outer loop
     vertex  2.045140e-01  8.029993e-02  6.998329e-01
     vertex  2.038683e-01  8.030185e-02  6.998952e-01
     vertex  2.048284e-01  8.068062e-02  6.998952e-01
   endloop
 endfacet
 facet normal -9.268532e-02  2.349418e-01 -9.675804e-01
   outer loop
     vertex  2.043579e-01  8.023833e-02  6.998329e-01
     vertex  2.038683e-01  8.030185e-02  6.998952e-01
     vertex  2.045140e-01  8.029993e-02  6.998329e-01
   endloop
 endfacet
 facet normal -4.130861e-02  1.945530e-01 -9.800218e-01
   outer loop
     vertex  2.046782e-01  8.033480e-02  6.998329e-01
     vertex  2.045140e-01  8.029993e-02  6.998329e-01
     vertex  2.048284e-01  8.068062e-02  6.998952e-01
   endloop
 endfacet
 facet normal -1.026484e-01  1.703542e-01 -9.800218e-01
   outer loop
     vertex  2.042141e-01  8.015170e-02  6.998329e-01
     vertex  2.038683e-01  8.030185e-02  6.998952e-01
     vertex  2.043579e-01  8.023833e-02  6.998329e-01
   endloop
 endfacet
 facet normal -4.413868e-01  1.333768e-01 -8.873490e-01
   outer loop
     vertex  2.027795e-01  7.965169e-02  7.000859e-01
     vertex  2.012704e-01  8.086841e-02  7.010195e-01
     vertex  2.029087e-01  7.996973e-02  7.000695e-01
   endloop
 endfacet
 facet normal  1.703542e-01  1.026484e-01 -9.800218e-01
   outer loop
     vertex  2.057097e-01  7.978079e-02  6.998329e-01
     vertex  2.056230e-01  7.992457e-02  6.998329e-01
     vertex  2.057732e-01  8.027039e-02  6.998952e-01
   endloop
 endfacet
 facet normal -1.945530e-01 -4.130861e-02 -9.800218e-01
   outer loop
     vertex  2.038387e-01  7.904271e-02  6.998329e-01
     vertex  2.034581e-01  7.935707e-02  6.998952e-01
     vertex  2.038039e-01  7.920691e-02  6.998329e-01
   endloop
 endfacet
 facet normal -2.349418e-01 -9.268532e-02 -9.675804e-01
   outer loop
     vertex  2.039003e-01  7.888656e-02  6.998329e-01
     vertex  2.034581e-01  7.935707e-02  6.998952e-01
     vertex  2.038387e-01  7.904271e-02  6.998329e-01
   endloop
 endfacet
 facet normal  2.349418e-01  9.268532e-02 -9.675804e-01
   outer loop
     vertex  2.061519e-01  7.931028e-02  6.998952e-01
     vertex  2.057097e-01  7.978079e-02  6.998329e-01
     vertex  2.057732e-01  8.027039e-02  6.998952e-01
   endloop
 endfacet
 facet normal  2.349418e-01  9.268532e-02 -9.675804e-01
   outer loop
     vertex  2.061519e-01  7.931028e-02  6.998952e-01
     vertex  2.057713e-01  7.962464e-02  6.998329e-01
     vertex  2.057097e-01  7.978079e-02  6.998329e-01
   endloop
 endfacet
 facet normal  1.945530e-01  4.130861e-02 -9.800218e-01
   outer loop
     vertex  2.061519e-01  7.931028e-02  6.998952e-01
     vertex  2.058061e-01  7.946044e-02  6.998329e-01
     vertex  2.057713e-01  7.962464e-02  6.998329e-01
   endloop
 endfacet
 facet normal -2.349418e-01 -9.268532e-02 -9.675804e-01
   outer loop
     vertex  2.038368e-01  7.839696e-02  6.998952e-01
     vertex  2.034581e-01  7.935707e-02  6.998952e-01
     vertex  2.039003e-01  7.888656e-02  6.998329e-01
   endloop
 endfacet
 facet normal -2.838470e-01 -1.119786e-01 -9.523086e-01
   outer loop
     vertex  2.038368e-01  7.839696e-02  6.998952e-01
     vertex  2.031162e-01  7.950550e-02  6.999796e-01
     vertex  2.034581e-01  7.935707e-02  6.998952e-01
   endloop
 endfacet
 facet normal -1.703542e-01 -1.026484e-01 -9.800218e-01
   outer loop
     vertex  2.038368e-01  7.839696e-02  6.998952e-01
     vertex  2.039003e-01  7.888656e-02  6.998329e-01
     vertex  2.039870e-01  7.874278e-02  6.998329e-01
   endloop
 endfacet
 facet normal  2.838470e-01  1.119786e-01 -9.523086e-01
   outer loop
     vertex  2.064938e-01  7.916185e-02  6.999796e-01
     vertex  2.057732e-01  8.027039e-02  6.998952e-01
     vertex  2.059216e-01  8.061224e-02  6.999796e-01
   endloop
 endfacet
 facet normal  2.838470e-01  1.119786e-01 -9.523086e-01
   outer loop
     vertex  2.064938e-01  7.916185e-02  6.999796e-01
     vertex  2.061519e-01  7.931028e-02  6.998952e-01
     vertex  2.057732e-01  8.027039e-02  6.998952e-01
   endloop
 endfacet
 facet normal -2.838470e-01 -1.119786e-01 -9.523086e-01
   outer loop
     vertex  2.036884e-01  7.805511e-02  6.999796e-01
     vertex  2.031162e-01  7.950550e-02  6.999796e-01
     vertex  2.038368e-01  7.839696e-02  6.998952e-01
   endloop
 endfacet
 facet normal -3.524478e-01 -1.390418e-01 -9.254447e-01
   outer loop
     vertex  2.036884e-01  7.805511e-02  6.999796e-01
     vertex  2.027795e-01  7.965169e-02  7.000859e-01
     vertex  2.031162e-01  7.950550e-02  6.999796e-01
   endloop
 endfacet
 facet normal  3.524478e-01  1.390418e-01 -9.254447e-01
   outer loop
     vertex  2.068305e-01  7.901566e-02  7.000859e-01
     vertex  2.059216e-01  8.061224e-02  6.999796e-01
     vertex  2.060678e-01  8.094892e-02  7.000859e-01
   endloop
 endfacet
 facet normal  3.524478e-01  1.390418e-01 -9.254447e-01
   outer loop
     vertex  2.068305e-01  7.901566e-02  7.000859e-01
     vertex  2.064938e-01  7.916185e-02  6.999796e-01
     vertex  2.059216e-01  8.061224e-02  6.999796e-01
   endloop
 endfacet
 facet normal -3.524478e-01 -1.390418e-01 -9.254447e-01
   outer loop
     vertex  2.035422e-01  7.771843e-02  7.000859e-01
     vertex  2.027795e-01  7.965169e-02  7.000859e-01
     vertex  2.036884e-01  7.805511e-02  6.999796e-01
   endloop
 endfacet
 facet normal -6.494520e-01 -2.562109e-01 -7.159386e-01
   outer loop
     vertex  2.035422e-01  7.771843e-02  7.000859e-01
     vertex  2.012704e-01  8.086841e-02  7.010195e-01
     vertex  2.027795e-01  7.965169e-02  7.000859e-01
   endloop
 endfacet
 facet normal  1.026484e-01 -1.703542e-01 -9.800218e-01
   outer loop
     vertex  2.057417e-01  7.836550e-02  6.998952e-01
     vertex  2.052521e-01  7.842902e-02  6.998329e-01
     vertex  2.053959e-01  7.851565e-02  6.998329e-01
   endloop
 endfacet
 facet normal  9.268532e-02 -2.349418e-01 -9.675804e-01
   outer loop
     vertex  2.057417e-01  7.836550e-02  6.998952e-01
     vertex  2.050960e-01  7.836742e-02  6.998329e-01
     vertex  2.052521e-01  7.842902e-02  6.998329e-01
   endloop
 endfacet
 facet normal  9.268532e-02 -2.349418e-01 -9.675804e-01
   outer loop
     vertex  2.047816e-01  7.798673e-02  6.998952e-01
     vertex  2.050960e-01  7.836742e-02  6.998329e-01
     vertex  2.057417e-01  7.836550e-02  6.998952e-01
   endloop
 endfacet
 facet normal  4.130861e-02 -1.945530e-01 -9.800218e-01
   outer loop
     vertex  2.047816e-01  7.798673e-02  6.998952e-01
     vertex  2.049318e-01  7.833255e-02  6.998329e-01
     vertex  2.050960e-01  7.836742e-02  6.998329e-01
   endloop
 endfacet
 facet normal  1.119786e-01 -2.838470e-01 -9.523086e-01
   outer loop
     vertex  2.060836e-01  7.821707e-02  6.999796e-01
     vertex  2.047816e-01  7.798673e-02  6.998952e-01
     vertex  2.057417e-01  7.836550e-02  6.998952e-01
   endloop
 endfacet
 facet normal  1.119786e-01 -2.838470e-01 -9.523086e-01
   outer loop
     vertex  2.046332e-01  7.764489e-02  6.999796e-01
     vertex  2.047816e-01  7.798673e-02  6.998952e-01
     vertex  2.060836e-01  7.821707e-02  6.999796e-01
   endloop
 endfacet
 facet normal  1.390418e-01 -3.524478e-01 -9.254447e-01
   outer loop
     vertex  2.064202e-01  7.807088e-02  7.000859e-01
     vertex  2.046332e-01  7.764489e-02  6.999796e-01
     vertex  2.060836e-01  7.821707e-02  6.999796e-01
   endloop
 endfacet
 facet normal  1.390418e-01 -3.524478e-01 -9.254447e-01
   outer loop
     vertex  2.044870e-01  7.730820e-02  7.000859e-01
     vertex  2.046332e-01  7.764489e-02  6.999796e-01
     vertex  2.064202e-01  7.807088e-02  7.000859e-01
   endloop
 endfacet
 facet normal  6.494520e-01  2.562109e-01 -7.159386e-01
   outer loop
     vertex  2.083396e-01  7.779894e-02  7.010195e-01
     vertex  2.068305e-01  7.901566e-02  7.000859e-01
     vertex  2.060678e-01  8.094892e-02  7.000859e-01
   endloop
 endfacet
 facet normal  4.413868e-01 -1.333768e-01 -8.873490e-01
   outer loop
     vertex  2.083396e-01  7.779894e-02  7.010195e-01
     vertex  2.067013e-01  7.869762e-02  7.000695e-01
     vertex  2.068305e-01  7.901566e-02  7.000859e-01
   endloop
 endfacet
 facet normal  4.171063e-01 -1.811086e-01 -8.906301e-01
   outer loop
     vertex  2.083396e-01  7.779894e-02  7.010195e-01
     vertex  2.065644e-01  7.838239e-02  7.000695e-01
     vertex  2.067013e-01  7.869762e-02  7.000695e-01
   endloop
 endfacet
 facet normal  3.988083e-01 -2.314380e-01 -8.873490e-01
   outer loop
     vertex  2.083396e-01  7.779894e-02  7.010195e-01
     vertex  2.064202e-01  7.807088e-02  7.000859e-01
     vertex  2.065644e-01  7.838239e-02  7.000695e-01
   endloop
 endfacet
 facet normal  2.562109e-01 -6.494520e-01 -7.159386e-01
   outer loop
     vertex  2.083396e-01  7.779894e-02  7.010195e-01
     vertex  2.044870e-01  7.730820e-02  7.000859e-01
     vertex  2.064202e-01  7.807088e-02  7.000859e-01
   endloop
 endfacet
 facet normal  6.494520e-01  2.562109e-01 -7.159386e-01
   outer loop
     vertex  2.083396e-01  7.779894e-02  7.010195e-01
     vertex  2.060678e-01  8.094892e-02  7.000859e-01
     vertex  2.063397e-01  8.286828e-02  7.010195e-01
   endloop
 endfacet
 facet normal  2.562109e-01 -6.494520e-01 -7.159386e-01
   outer loop
     vertex  2.032703e-01  7.579907e-02  7.010195e-01
     vertex  2.044870e-01  7.730820e-02  7.000859e-01
     vertex  2.083396e-01  7.779894e-02  7.010195e-01
   endloop
 endfacet
 facet normal -1.333768e-01 -4.413868e-01 -8.873490e-01
   outer loop
     vertex  2.032703e-01  7.579907e-02  7.010195e-01
     vertex  2.041689e-01  7.743736e-02  7.000695e-01
     vertex  2.044870e-01  7.730820e-02  7.000859e-01
   endloop
 endfacet
 facet normal -1.811086e-01 -4.171063e-01 -8.906301e-01
   outer loop
     vertex  2.032703e-01  7.579907e-02  7.010195e-01
     vertex  2.038537e-01  7.757423e-02  7.000695e-01
     vertex  2.041689e-01  7.743736e-02  7.000695e-01
   endloop
 endfacet
 facet normal -2.314380e-01 -3.988083e-01 -8.873490e-01
   outer loop
     vertex  2.032703e-01  7.579907e-02  7.010195e-01
     vertex  2.035422e-01  7.771843e-02  7.000859e-01
     vertex  2.038537e-01  7.757423e-02  7.000695e-01
   endloop
 endfacet
 facet normal -6.494520e-01 -2.562109e-01 -7.159386e-01
   outer loop
     vertex  2.032703e-01  7.579907e-02  7.010195e-01
     vertex  2.012704e-01  8.086841e-02  7.010195e-01
     vertex  2.035422e-01  7.771843e-02  7.000859e-01
   endloop
 endfacet
 facet normal -9.172645e-01  3.982785e-01  6.057186e-12
   outer loop
     vertex  2.056690e-01  8.003053e-02  7.020941e-01
     vertex  2.057732e-01  8.027039e-02  6.998952e-01
     vertex  2.056230e-01  7.992457e-02  6.998329e-01
   endloop
 endfacet
 facet normal -9.172645e-01  3.982785e-01  1.183669e-11
   outer loop
     vertex  2.056690e-01  8.003053e-02  7.020941e-01
     vertex  2.059216e-01  8.061224e-02  6.999796e-01
     vertex  2.057732e-01  8.027039e-02  6.998952e-01
   endloop
 endfacet
 facet normal -9.172645e-01  3.982785e-01  4.786042e-11
   outer loop
     vertex  2.056690e-01  8.003053e-02  7.020941e-01
     vertex  2.060678e-01  8.094892e-02  7.000859e-01
     vertex  2.059216e-01  8.061224e-02  6.999796e-01
   endloop
 endfacet
 facet normal -9.172645e-01  3.982785e-01  2.703942e-12
   outer loop
     vertex  2.055472e-01  7.974999e-02  7.020941e-01
     vertex  2.056690e-01  8.003053e-02  7.020941e-01
     vertex  2.056230e-01  7.992457e-02  6.998329e-01
   endloop
 endfacet
 facet normal  3.140409e-10 -1.363574e-10 -1.000000e+00
   outer loop
     vertex  2.049682e-01  8.016888e-02  7.020941e-01
     vertex  2.046024e-01  8.016021e-02  7.020941e-01
     vertex  2.047242e-01  8.044075e-02  7.020941e-01
   endloop
 endfacet
 facet normal -2.974679e-10 -6.850902e-10 -1.000000e+00
   outer loop
     vertex  2.053038e-01  8.002316e-02  7.020941e-01
     vertex  2.049682e-01  8.016888e-02  7.020941e-01
     vertex  2.047242e-01  8.044075e-02  7.020941e-01
   endloop
 endfacet
 facet normal -2.974679e-10 -6.850902e-10 -1.000000e+00
   outer loop
     vertex  2.056690e-01  8.003053e-02  7.020941e-01
     vertex  2.053038e-01  8.002316e-02  7.020941e-01
     vertex  2.047242e-01  8.044075e-02  7.020941e-01
   endloop
 endfacet
 facet normal -3.140409e-10  1.363574e-10 -1.000000e+00
   outer loop
     vertex  2.055472e-01  7.974999e-02  7.020941e-01
     vertex  2.053038e-01  8.002316e-02  7.020941e-01
     vertex  2.056690e-01  8.003053e-02  7.020941e-01
   endloop
 endfacet
 facet normal  9.172645e-01 -3.982785e-01 -6.129699e-11
   outer loop
     vertex  2.047242e-01  8.044075e-02  7.020941e-01
     vertex  2.049768e-01  8.102246e-02  6.999796e-01
     vertex  2.051230e-01  8.135915e-02  7.000859e-01
   endloop
 endfacet
 facet normal  9.172645e-01 -3.982785e-01 -8.319262e-12
   outer loop
     vertex  2.047242e-01  8.044075e-02  7.020941e-01
     vertex  2.048284e-01  8.068062e-02  6.998952e-01
     vertex  2.049768e-01  8.102246e-02  6.999796e-01
   endloop
 endfacet
 facet normal  9.172645e-01 -3.982785e-01 -6.057186e-12
   outer loop
     vertex  2.047242e-01  8.044075e-02  7.020941e-01
     vertex  2.046782e-01  8.033480e-02  6.998329e-01
     vertex  2.048284e-01  8.068062e-02  6.998952e-01
   endloop
 endfacet
 facet normal  9.172645e-01 -3.982785e-01 -2.703942e-12
   outer loop
     vertex  2.046024e-01  8.016021e-02  7.020941e-01
     vertex  2.046782e-01  8.033480e-02  6.998329e-01
     vertex  2.047242e-01  8.044075e-02  7.020941e-01
   endloop
 endfacet
 facet normal  4.482438e-01 -8.911564e-01 -7.012614e-02
   outer loop
     vertex  2.043579e-01  8.023833e-02  6.998329e-01
     vertex  2.044573e-01  8.011040e-02  7.020941e-01
     vertex  2.043887e-01  8.007589e-02  7.020941e-01
   endloop
 endfacet
 facet normal  5.148977e-01 -8.545183e-01 -6.840214e-02
   outer loop
     vertex  2.043579e-01  8.023833e-02  6.998329e-01
     vertex  2.043887e-01  8.007589e-02  7.020941e-01
     vertex  2.042141e-01  8.015170e-02  6.998329e-01
   endloop
 endfacet
 facet normal  2.809247e-01 -9.571644e-01 -7.012614e-02
   outer loop
     vertex  2.045140e-01  8.029993e-02  6.998329e-01
     vertex  2.046024e-01  8.016021e-02  7.020941e-01
     vertex  2.045287e-01  8.013859e-02  7.020941e-01
   endloop
 endfacet
 facet normal  3.661140e-01 -9.280379e-01 -6.860184e-02
   outer loop
     vertex  2.045140e-01  8.029993e-02  6.998329e-01
     vertex  2.045287e-01  8.013859e-02  7.020941e-01
     vertex  2.044573e-01  8.011040e-02  7.020941e-01
   endloop
 endfacet
 facet normal  3.661140e-01 -9.280379e-01 -6.860184e-02
   outer loop
     vertex  2.045140e-01  8.029993e-02  6.998329e-01
     vertex  2.044573e-01  8.011040e-02  7.020941e-01
     vertex  2.043579e-01  8.023833e-02  6.998329e-01
   endloop
 endfacet
 facet normal  2.072093e-01 -9.759024e-01 -6.840214e-02
   outer loop
     vertex  2.046782e-01  8.033480e-02  6.998329e-01
     vertex  2.046024e-01  8.016021e-02  7.020941e-01
     vertex  2.045140e-01  8.029993e-02  6.998329e-01
   endloop
 endfacet
 facet normal -3.982785e-01 -9.172645e-01  1.080255e-11
   outer loop
     vertex  2.041081e-01  8.019770e-02  7.020941e-01
     vertex  2.038683e-01  8.030185e-02  6.998952e-01
     vertex  2.042141e-01  8.015170e-02  6.998329e-01
   endloop
 endfacet
 facet normal -3.982785e-01 -9.172645e-01  3.331054e-12
   outer loop
     vertex  2.041081e-01  8.019770e-02  7.020941e-01
     vertex  2.035264e-01  8.045028e-02  6.999796e-01
     vertex  2.038683e-01  8.030185e-02  6.998952e-01
   endloop
 endfacet
 facet normal -3.982785e-01 -9.172645e-01  1.179679e-11
   outer loop
     vertex  2.041081e-01  8.019770e-02  7.020941e-01
     vertex  2.031898e-01  8.059647e-02  7.000859e-01
     vertex  2.035264e-01  8.045028e-02  6.999796e-01
   endloop
 endfacet
 facet normal -3.982785e-01 -9.172645e-01  1.347476e-11
   outer loop
     vertex  2.043887e-01  8.007589e-02  7.020941e-01
     vertex  2.041081e-01  8.019770e-02  7.020941e-01
     vertex  2.042141e-01  8.015170e-02  6.998329e-01
   endloop
 endfacet
 facet normal -2.871634e-10 -6.613584e-10 -1.000000e+00
   outer loop
     vertex  2.042389e-01  7.996904e-02  7.020941e-01
     vertex  2.041081e-01  8.019770e-02  7.020941e-01
     vertex  2.043887e-01  8.007589e-02  7.020941e-01
   endloop
 endfacet
 facet normal  3.370892e-10 -3.044889e-10 -1.000000e+00
   outer loop
     vertex  2.041155e-01  7.983249e-02  7.020941e-01
     vertex  2.041081e-01  8.019770e-02  7.020941e-01
     vertex  2.042389e-01  7.996904e-02  7.020941e-01
   endloop
 endfacet
 facet normal  1.732702e-09 -2.763318e-10 -1.000000e+00
   outer loop
     vertex  2.040244e-01  7.967261e-02  7.020941e-01
     vertex  2.041081e-01  8.019770e-02  7.020941e-01
     vertex  2.041155e-01  7.983249e-02  7.020941e-01
   endloop
 endfacet
 facet normal  1.384902e-09 -1.077340e-09 -1.000000e+00
   outer loop
     vertex  2.036979e-01  7.925292e-02  7.020941e-01
     vertex  2.040244e-01  7.967261e-02  7.020941e-01
     vertex  2.039698e-01  7.949688e-02  7.020941e-01
   endloop
 endfacet
 facet normal  4.526230e-10 -3.840604e-11 -1.000000e+00
   outer loop
     vertex  2.039542e-01  7.931352e-02  7.020941e-01
     vertex  2.036979e-01  7.925292e-02  7.020941e-01
     vertex  2.039698e-01  7.949688e-02  7.020941e-01
   endloop
 endfacet
 facet normal  2.871634e-10  6.613584e-10 -1.000000e+00
   outer loop
     vertex  2.039785e-01  7.913111e-02  7.020941e-01
     vertex  2.036979e-01  7.925292e-02  7.020941e-01
     vertex  2.039542e-01  7.931352e-02  7.020941e-01
   endloop
 endfacet
 facet normal  0.000000e+00  0.000000e+00 -1.000000e+00
   outer loop
     vertex  2.036979e-01  7.925292e-02  7.020941e-01
     vertex  2.041081e-01  8.019770e-02  7.020941e-01
     vertex  2.040244e-01  7.967261e-02  7.020941e-01
   endloop
 endfacet
 facet normal  3.982785e-01  9.172645e-01 -4.274220e-11
   outer loop
     vertex  2.036979e-01  7.925292e-02  7.020941e-01
     vertex  2.031162e-01  7.950550e-02  6.999796e-01
     vertex  2.027795e-01  7.965169e-02  7.000859e-01
   endloop
 endfacet
 facet normal  3.982785e-01  9.172645e-01 -1.487619e-11
   outer loop
     vertex  2.036979e-01  7.925292e-02  7.020941e-01
     vertex  2.034581e-01  7.935707e-02  6.998952e-01
     vertex  2.031162e-01  7.950550e-02  6.999796e-01
   endloop
 endfacet
 facet normal  3.982785e-01  9.172645e-01 -6.299947e-12
   outer loop
     vertex  2.036979e-01  7.925292e-02  7.020941e-01
     vertex  2.038039e-01  7.920691e-02  6.998329e-01
     vertex  2.034581e-01  7.935707e-02  6.998952e-01
   endloop
 endfacet
 facet normal  3.982785e-01  9.172645e-01 -1.945334e-12
   outer loop
     vertex  2.036979e-01  7.925292e-02  7.020941e-01
     vertex  2.039785e-01  7.913111e-02  7.020941e-01
     vertex  2.038039e-01  7.920691e-02  6.998329e-01
   endloop
 endfacet
 facet normal  8.545183e-01  5.148977e-01 -6.840214e-02
   outer loop
     vertex  2.039003e-01  7.888656e-02  6.998329e-01
     vertex  2.040628e-01  7.891736e-02  7.020941e-01
     vertex  2.039870e-01  7.874278e-02  6.998329e-01
   endloop
 endfacet
 facet normal  9.280379e-01  3.661140e-01 -6.860184e-02
   outer loop
     vertex  2.039003e-01  7.888656e-02  6.998329e-01
     vertex  2.040001e-01  7.905742e-02  7.020941e-01
     vertex  2.040283e-01  7.898597e-02  7.020941e-01
   endloop
 endfacet
 facet normal  8.911564e-01  4.482438e-01 -7.012614e-02
   outer loop
     vertex  2.039003e-01  7.888656e-02  6.998329e-01
     vertex  2.040283e-01  7.898597e-02  7.020941e-01
     vertex  2.040628e-01  7.891736e-02  7.020941e-01
   endloop
 endfacet
 facet normal  9.571644e-01  2.809247e-01 -7.012614e-02
   outer loop
     vertex  2.038387e-01  7.904271e-02  6.998329e-01
     vertex  2.039785e-01  7.913111e-02  7.020941e-01
     vertex  2.040001e-01  7.905742e-02  7.020941e-01
   endloop
 endfacet
 facet normal  9.280379e-01  3.661140e-01 -6.860184e-02
   outer loop
     vertex  2.038387e-01  7.904271e-02  6.998329e-01
     vertex  2.040001e-01  7.905742e-02  7.020941e-01
     vertex  2.039003e-01  7.888656e-02  6.998329e-01
   endloop
 endfacet
 facet normal  9.759024e-01  2.072093e-01 -6.840214e-02
   outer loop
     vertex  2.038039e-01  7.920691e-02  6.998329e-01
     vertex  2.039785e-01  7.913111e-02  7.020941e-01
     vertex  2.038387e-01  7.904271e-02  6.998329e-01
   endloop
 endfacet
 facet normal  9.172645e-01 -3.982785e-01  2.902877e-12
   outer loop
     vertex  2.039410e-01  7.863682e-02  7.020941e-01
     vertex  2.038368e-01  7.839696e-02  6.998952e-01
     vertex  2.039870e-01  7.874278e-02  6.998329e-01
   endloop
 endfacet
 facet normal  9.172645e-01 -3.982785e-01 -2.311135e-11
   outer loop
     vertex  2.039410e-01  7.863682e-02  7.020941e-01
     vertex  2.036884e-01  7.805511e-02  6.999796e-01
     vertex  2.038368e-01  7.839696e-02  6.998952e-01
   endloop
 endfacet
 facet normal  9.172645e-01 -3.982785e-01  1.303069e-11
   outer loop
     vertex  2.039410e-01  7.863682e-02  7.020941e-01
     vertex  2.035422e-01  7.771843e-02  7.000859e-01
     vertex  2.036884e-01  7.805511e-02  6.999796e-01
   endloop
 endfacet
 facet normal  9.172645e-01 -3.982785e-01  5.819354e-12
   outer loop
     vertex  2.039410e-01  7.863682e-02  7.020941e-01
     vertex  2.039870e-01  7.874278e-02  6.998329e-01
     vertex  2.040628e-01  7.891736e-02  7.020941e-01
   endloop
 endfacet
 facet normal  3.140409e-10 -1.363574e-10 -1.000000e+00
   outer loop
     vertex  2.043062e-01  7.864419e-02  7.020941e-01
     vertex  2.039410e-01  7.863682e-02  7.020941e-01
     vertex  2.040628e-01  7.891736e-02  7.020941e-01
   endloop
 endfacet
 facet normal -3.140409e-10  1.363574e-10 -1.000000e+00
   outer loop
     vertex  2.048858e-01  7.822660e-02  7.020941e-01
     vertex  2.046418e-01  7.849847e-02  7.020941e-01
     vertex  2.050076e-01  7.850714e-02  7.020941e-01
   endloop
 endfacet
 facet normal  2.974679e-10  6.850902e-10 -1.000000e+00
   outer loop
     vertex  2.048858e-01  7.822660e-02  7.020941e-01
     vertex  2.039410e-01  7.863682e-02  7.020941e-01
     vertex  2.046418e-01  7.849847e-02  7.020941e-01
   endloop
 endfacet
 facet normal  2.974679e-10  6.850902e-10 -1.000000e+00
   outer loop
     vertex  2.046418e-01  7.849847e-02  7.020941e-01
     vertex  2.039410e-01  7.863682e-02  7.020941e-01
     vertex  2.043062e-01  7.864419e-02  7.020941e-01
   endloop
 endfacet
 facet normal -9.172645e-01  3.982785e-01  3.597764e-11
   outer loop
     vertex  2.048858e-01  7.822660e-02  7.020941e-01
     vertex  2.046332e-01  7.764489e-02  6.999796e-01
     vertex  2.044870e-01  7.730820e-02  7.000859e-01
   endloop
 endfacet
 facet normal -9.172645e-01  3.982785e-01  2.479684e-11
   outer loop
     vertex  2.048858e-01  7.822660e-02  7.020941e-01
     vertex  2.047816e-01  7.798673e-02  6.998952e-01
     vertex  2.046332e-01  7.764489e-02  6.999796e-01
   endloop
 endfacet
 facet normal -9.172645e-01  3.982785e-01  8.724740e-12
   outer loop
     vertex  2.048858e-01  7.822660e-02  7.020941e-01
     vertex  2.049318e-01  7.833255e-02  6.998329e-01
     vertex  2.047816e-01  7.798673e-02  6.998952e-01
   endloop
 endfacet
 facet normal -9.172645e-01  3.982785e-01  1.355670e-12
   outer loop
     vertex  2.048858e-01  7.822660e-02  7.020941e-01
     vertex  2.050076e-01  7.850714e-02  7.020941e-01
     vertex  2.049318e-01  7.833255e-02  6.998329e-01
   endloop
 endfacet
 facet normal -4.482438e-01  8.911564e-01 -7.012614e-02
   outer loop
     vertex  2.052521e-01  7.842902e-02  6.998329e-01
     vertex  2.051527e-01  7.855695e-02  7.020941e-01
     vertex  2.052213e-01  7.859146e-02  7.020941e-01
   endloop
 endfacet
 facet normal -5.148977e-01  8.545183e-01 -6.840214e-02
   outer loop
     vertex  2.052521e-01  7.842902e-02  6.998329e-01
     vertex  2.052213e-01  7.859146e-02  7.020941e-01
     vertex  2.053959e-01  7.851565e-02  6.998329e-01
   endloop
 endfacet
 facet normal -3.661140e-01  9.280379e-01 -6.860184e-02
   outer loop
     vertex  2.050960e-01  7.836742e-02  6.998329e-01
     vertex  2.050813e-01  7.852876e-02  7.020941e-01
     vertex  2.051527e-01  7.855695e-02  7.020941e-01
   endloop
 endfacet
 facet normal -2.809247e-01  9.571644e-01 -7.012614e-02
   outer loop
     vertex  2.050960e-01  7.836742e-02  6.998329e-01
     vertex  2.050076e-01  7.850714e-02  7.020941e-01
     vertex  2.050813e-01  7.852876e-02  7.020941e-01
   endloop
 endfacet
 facet normal -3.661140e-01  9.280379e-01 -6.860184e-02
   outer loop
     vertex  2.050960e-01  7.836742e-02  6.998329e-01
     vertex  2.051527e-01  7.855695e-02  7.020941e-01
     vertex  2.052521e-01  7.842902e-02  6.998329e-01
   endloop
 endfacet
 facet normal -2.072093e-01  9.759024e-01 -6.840214e-02
   outer loop
     vertex  2.049318e-01  7.833255e-02  6.998329e-01
     vertex  2.050076e-01  7.850714e-02  7.020941e-01
     vertex  2.050960e-01  7.836742e-02  6.998329e-01
   endloop
 endfacet
 facet normal  3.982785e-01  9.172645e-01 -3.562535e-13
   outer loop
     vertex  2.055019e-01  7.846965e-02  7.020941e-01
     vertex  2.057417e-01  7.836550e-02  6.998952e-01
     vertex  2.053959e-01  7.851565e-02  6.998329e-01
   endloop
 endfacet
 facet normal  3.982785e-01  9.172645e-01 -6.694789e-12
   outer loop
     vertex  2.055019e-01  7.846965e-02  7.020941e-01
     vertex  2.060836e-01  7.821707e-02  6.999796e-01
     vertex  2.057417e-01  7.836550e-02  6.998952e-01
   endloop
 endfacet
 facet normal  3.982785e-01  9.172645e-01 -3.338743e-11
   outer loop
     vertex  2.055019e-01  7.846965e-02  7.020941e-01
     vertex  2.064202e-01  7.807088e-02  7.000859e-01
     vertex  2.060836e-01  7.821707e-02  6.999796e-01
   endloop
 endfacet
 facet normal  3.982785e-01  9.172645e-01  5.463776e-14
   outer loop
     vertex  2.052213e-01  7.859146e-02  7.020941e-01
     vertex  2.055019e-01  7.846965e-02  7.020941e-01
     vertex  2.053959e-01  7.851565e-02  6.998329e-01
   endloop
 endfacet
 facet normal -1.363574e-10 -3.140409e-10 -1.000000e+00
   outer loop
     vertex  2.056402e-01  7.917047e-02  7.020941e-01
     vertex  2.056315e-01  7.953624e-02  7.020941e-01
     vertex  2.059121e-01  7.941443e-02  7.020941e-01
   endloop
 endfacet
 facet normal -6.850902e-10  2.974679e-10 -1.000000e+00
   outer loop
     vertex  2.054945e-01  7.883486e-02  7.020941e-01
     vertex  2.056402e-01  7.917047e-02  7.020941e-01
     vertex  2.059121e-01  7.941443e-02  7.020941e-01
   endloop
 endfacet
 facet normal  1.363574e-10  3.140409e-10 -1.000000e+00
   outer loop
     vertex  2.055019e-01  7.846965e-02  7.020941e-01
     vertex  2.052213e-01  7.859146e-02  7.020941e-01
     vertex  2.054945e-01  7.883486e-02  7.020941e-01
   endloop
 endfacet
 facet normal -6.850902e-10  2.974679e-10 -1.000000e+00
   outer loop
     vertex  2.055019e-01  7.846965e-02  7.020941e-01
     vertex  2.054945e-01  7.883486e-02  7.020941e-01
     vertex  2.059121e-01  7.941443e-02  7.020941e-01
   endloop
 endfacet
 facet normal -3.982785e-01 -9.172645e-01  2.442029e-12
   outer loop
     vertex  2.059121e-01  7.941443e-02  7.020941e-01
     vertex  2.064938e-01  7.916185e-02  6.999796e-01
     vertex  2.068305e-01  7.901566e-02  7.000859e-01
   endloop
 endfacet
 facet normal -3.982785e-01 -9.172645e-01 -4.850347e-12
   outer loop
     vertex  2.059121e-01  7.941443e-02  7.020941e-01
     vertex  2.061519e-01  7.931028e-02  6.998952e-01
     vertex  2.064938e-01  7.916185e-02  6.999796e-01
   endloop
 endfacet
 facet normal -3.982785e-01 -9.172645e-01  4.858861e-12
   outer loop
     vertex  2.059121e-01  7.941443e-02  7.020941e-01
     vertex  2.058061e-01  7.946044e-02  6.998329e-01
     vertex  2.061519e-01  7.931028e-02  6.998952e-01
   endloop
 endfacet
 facet normal -3.982785e-01 -9.172645e-01  1.147479e-11
   outer loop
     vertex  2.059121e-01  7.941443e-02  7.020941e-01
     vertex  2.056315e-01  7.953624e-02  7.020941e-01
     vertex  2.058061e-01  7.946044e-02  6.998329e-01
   endloop
 endfacet
 facet normal -8.545183e-01 -5.148977e-01 -6.840214e-02
   outer loop
     vertex  2.057097e-01  7.978079e-02  6.998329e-01
     vertex  2.055472e-01  7.974999e-02  7.020941e-01
     vertex  2.056230e-01  7.992457e-02  6.998329e-01
   endloop
 endfacet
 facet normal -9.280379e-01 -3.661140e-01 -6.860184e-02
   outer loop
     vertex  2.057097e-01  7.978079e-02  6.998329e-01
     vertex  2.056099e-01  7.960993e-02  7.020941e-01
     vertex  2.055817e-01  7.968138e-02  7.020941e-01
   endloop
 endfacet
 facet normal -8.911564e-01 -4.482438e-01 -7.012614e-02
   outer loop
     vertex  2.057097e-01  7.978079e-02  6.998329e-01
     vertex  2.055817e-01  7.968138e-02  7.020941e-01
     vertex  2.055472e-01  7.974999e-02  7.020941e-01
   endloop
 endfacet
 facet normal -9.571644e-01 -2.809247e-01 -7.012614e-02
   outer loop
     vertex  2.057713e-01  7.962464e-02  6.998329e-01
     vertex  2.056315e-01  7.953624e-02  7.020941e-01
     vertex  2.056099e-01  7.960993e-02  7.020941e-01
   endloop
 endfacet
 facet normal -9.280379e-01 -3.661140e-01 -6.860184e-02
   outer loop
     vertex  2.057713e-01  7.962464e-02  6.998329e-01
     vertex  2.056099e-01  7.960993e-02  7.020941e-01
     vertex  2.057097e-01  7.978079e-02  6.998329e-01
   endloop
 endfacet
 facet normal -9.759024e-01 -2.072093e-01 -6.840214e-02
   outer loop
     vertex  2.058061e-01  7.946044e-02  6.998329e-01
     vertex  2.056315e-01  7.953624e-02  7.020941e-01
     vertex  2.057713e-01  7.962464e-02  6.998329e-01
   endloop
 endfacet
 facet normal  2.699129e-01 -1.538148e-01 -9.505199e-01
   outer loop
     vertex  2.041155e-01  7.983249e-02  7.020941e-01
     vertex  2.048050e-01  7.933368e-02  7.023706e-01
     vertex  2.040244e-01  7.967261e-02  7.020941e-01
   endloop
 endfacet
 facet normal  2.305371e-01 -2.082417e-01 -9.505199e-01
   outer loop
     vertex  2.042389e-01  7.996904e-02  7.020941e-01
     vertex  2.048050e-01  7.933368e-02  7.023706e-01
     vertex  2.041155e-01  7.983249e-02  7.020941e-01
   endloop
 endfacet
 facet normal  1.803819e-01 -2.529315e-01 -9.505199e-01
   outer loop
     vertex  2.043887e-01  8.007589e-02  7.020941e-01
     vertex  2.048050e-01  7.933368e-02  7.023706e-01
     vertex  2.042389e-01  7.996904e-02  7.020941e-01
   endloop
 endfacet
 facet normal  1.389849e-01 -2.763167e-01 -9.509639e-01
   outer loop
     vertex  2.044573e-01  8.011040e-02  7.020941e-01
     vertex  2.048050e-01  7.933368e-02  7.023706e-01
     vertex  2.043887e-01  8.007589e-02  7.020941e-01
   endloop
 endfacet
 facet normal  1.135072e-01 -2.877218e-01 -9.509639e-01
   outer loop
     vertex  2.045287e-01  8.013859e-02  7.020941e-01
     vertex  2.048050e-01  7.933368e-02  7.023706e-01
     vertex  2.044573e-01  8.011040e-02  7.020941e-01
   endloop
 endfacet
 facet normal  8.710501e-02 -2.967834e-01 -9.509639e-01
   outer loop
     vertex  2.046024e-01  8.016021e-02  7.020941e-01
     vertex  2.048050e-01  7.933368e-02  7.023706e-01
     vertex  2.045287e-01  8.013859e-02  7.020941e-01
   endloop
 endfacet
 facet normal  7.474913e-03 -3.155965e-01 -9.488640e-01
   outer loop
     vertex  2.049682e-01  8.016888e-02  7.020941e-01
     vertex  2.048050e-01  7.933368e-02  7.023706e-01
     vertex  2.046024e-01  8.016021e-02  7.020941e-01
   endloop
 endfacet
 facet normal -1.257306e-01 -2.895667e-01 -9.488640e-01
   outer loop
     vertex  2.053038e-01  8.002316e-02  7.020941e-01
     vertex  2.048050e-01  7.933368e-02  7.023706e-01
     vertex  2.049682e-01  8.016888e-02  7.020941e-01
   endloop
 endfacet
 facet normal -2.356952e-01 -2.100115e-01 -9.488640e-01
   outer loop
     vertex  2.055472e-01  7.974999e-02  7.020941e-01
     vertex  2.048050e-01  7.933368e-02  7.023706e-01
     vertex  2.053038e-01  8.002316e-02  7.020941e-01
   endloop
 endfacet
 facet normal -2.763167e-01 -1.389849e-01 -9.509639e-01
   outer loop
     vertex  2.055817e-01  7.968138e-02  7.020941e-01
     vertex  2.048050e-01  7.933368e-02  7.023706e-01
     vertex  2.055472e-01  7.974999e-02  7.020941e-01
   endloop
 endfacet
 facet normal -2.877218e-01 -1.135072e-01 -9.509639e-01
   outer loop
     vertex  2.056099e-01  7.960993e-02  7.020941e-01
     vertex  2.048050e-01  7.933368e-02  7.023706e-01
     vertex  2.055817e-01  7.968138e-02  7.020941e-01
   endloop
 endfacet
 facet normal -2.967834e-01 -8.710501e-02 -9.509639e-01
   outer loop
     vertex  2.056315e-01  7.953624e-02  7.020941e-01
     vertex  2.048050e-01  7.933368e-02  7.023706e-01
     vertex  2.056099e-01  7.960993e-02  7.020941e-01
   endloop
 endfacet
 facet normal -3.155965e-01 -7.474913e-03 -9.488640e-01
   outer loop
     vertex  2.056402e-01  7.917047e-02  7.020941e-01
     vertex  2.048050e-01  7.933368e-02  7.023706e-01
     vertex  2.056315e-01  7.953624e-02  7.020941e-01
   endloop
 endfacet
 facet normal -1.389849e-01  2.763167e-01 -9.509639e-01
   outer loop
     vertex  2.048050e-01  7.933368e-02  7.023706e-01
     vertex  2.052213e-01  7.859146e-02  7.020941e-01
     vertex  2.051527e-01  7.855695e-02  7.020941e-01
   endloop
 endfacet
 facet normal -1.135072e-01  2.877218e-01 -9.509639e-01
   outer loop
     vertex  2.048050e-01  7.933368e-02  7.023706e-01
     vertex  2.051527e-01  7.855695e-02  7.020941e-01
     vertex  2.050813e-01  7.852876e-02  7.020941e-01
   endloop
 endfacet
 facet normal -8.710501e-02  2.967834e-01 -9.509639e-01
   outer loop
     vertex  2.048050e-01  7.933368e-02  7.023706e-01
     vertex  2.050813e-01  7.852876e-02  7.020941e-01
     vertex  2.050076e-01  7.850714e-02  7.020941e-01
   endloop
 endfacet
 facet normal -2.895667e-01  1.257306e-01 -9.488640e-01
   outer loop
     vertex  2.048050e-01  7.933368e-02  7.023706e-01
     vertex  2.056402e-01  7.917047e-02  7.020941e-01
     vertex  2.054945e-01  7.883486e-02  7.020941e-01
   endloop
 endfacet
 facet normal -2.100115e-01  2.356952e-01 -9.488640e-01
   outer loop
     vertex  2.048050e-01  7.933368e-02  7.023706e-01
     vertex  2.054945e-01  7.883486e-02  7.020941e-01
     vertex  2.052213e-01  7.859146e-02  7.020941e-01
   endloop
 endfacet
 facet normal  0.000000e+00  0.000000e+00  0.000000e+00
   outer loop
     vertex  2.048050e-01  7.933368e-02  7.023706e-01
     vertex  2.048050e-01  7.933368e-02  7.023706e-01
     vertex  2.056402e-01  7.917047e-02  7.020941e-01
   endloop
 endfacet
 facet normal -7.474913e-03  3.155965e-01 -9.488640e-01
   outer loop
     vertex  2.046418e-01  7.849847e-02  7.020941e-01
     vertex  2.048050e-01  7.933368e-02  7.023706e-01
     vertex  2.050076e-01  7.850714e-02  7.020941e-01
   endloop
 endfacet
 facet normal  1.257306e-01  2.895667e-01 -9.488640e-01
   outer loop
     vertex  2.043062e-01  7.864419e-02  7.020941e-01
     vertex  2.048050e-01  7.933368e-02  7.023706e-01
     vertex  2.046418e-01  7.849847e-02  7.020941e-01
   endloop
 endfacet
 facet normal  2.356952e-01  2.100115e-01 -9.488640e-01
   outer loop
     vertex  2.040628e-01  7.891736e-02  7.020941e-01
     vertex  2.048050e-01  7.933368e-02  7.023706e-01
     vertex  2.043062e-01  7.864419e-02  7.020941e-01
   endloop
 endfacet
 facet normal  2.763167e-01  1.389849e-01 -9.509639e-01
   outer loop
     vertex  2.040283e-01  7.898597e-02  7.020941e-01
     vertex  2.048050e-01  7.933368e-02  7.023706e-01
     vertex  2.040628e-01  7.891736e-02  7.020941e-01
   endloop
 endfacet
 facet normal  2.877218e-01  1.135072e-01 -9.509639e-01
   outer loop
     vertex  2.040001e-01  7.905742e-02  7.020941e-01
     vertex  2.048050e-01  7.933368e-02  7.023706e-01
     vertex  2.040283e-01  7.898597e-02  7.020941e-01
   endloop
 endfacet
 facet normal  2.967834e-01  8.710501e-02 -9.509639e-01
   outer loop
     vertex  2.039785e-01  7.913111e-02  7.020941e-01
     vertex  2.048050e-01  7.933368e-02  7.023706e-01
     vertex  2.040001e-01  7.905742e-02  7.020941e-01
   endloop
 endfacet
 facet normal  3.079607e-01  4.089189e-02 -9.505199e-01
   outer loop
     vertex  2.039542e-01  7.931352e-02  7.020941e-01
     vertex  2.048050e-01  7.933368e-02  7.023706e-01
     vertex  2.039785e-01  7.913111e-02  7.020941e-01
   endloop
 endfacet
 facet normal  3.095514e-01 -2.626610e-02 -9.505199e-01
   outer loop
     vertex  2.039698e-01  7.949688e-02  7.020941e-01
     vertex  2.048050e-01  7.933368e-02  7.023706e-01
     vertex  2.039542e-01  7.931352e-02  7.020941e-01
   endloop
 endfacet
 facet normal  2.966679e-01 -9.219593e-02 -9.505199e-01
   outer loop
     vertex  2.040244e-01  7.967261e-02  7.020941e-01
     vertex  2.048050e-01  7.933368e-02  7.023706e-01
     vertex  2.039698e-01  7.949688e-02  7.020941e-01
   endloop
 endfacet
 facet normal -8.208916e-01  3.564331e-01 -4.461978e-01
   outer loop
     vertex  2.059121e-01  7.941443e-02  7.020941e-01
     vertex  2.068305e-01  7.901566e-02  7.000859e-01
     vertex  2.067013e-01  7.869762e-02  7.000695e-01
   endloop
 endfacet
 facet normal -8.208916e-01  3.564331e-01 -4.461978e-01
   outer loop
     vertex  2.059121e-01  7.941443e-02  7.020941e-01
     vertex  2.067013e-01  7.869762e-02  7.000695e-01
     vertex  2.065644e-01  7.838239e-02  7.000695e-01
   endloop
 endfacet
 facet normal -8.208916e-01  3.564331e-01 -4.461978e-01
   outer loop
     vertex  2.055019e-01  7.846965e-02  7.020941e-01
     vertex  2.065644e-01  7.838239e-02  7.000695e-01
     vertex  2.064202e-01  7.807088e-02  7.000859e-01
   endloop
 endfacet
 facet normal -8.208916e-01  3.564331e-01 -4.461978e-01
   outer loop
     vertex  2.055019e-01  7.846965e-02  7.020941e-01
     vertex  2.059121e-01  7.941443e-02  7.020941e-01
     vertex  2.065644e-01  7.838239e-02  7.000695e-01
   endloop
 endfacet
 facet normal  3.564331e-01  8.208916e-01 -4.461978e-01
   outer loop
     vertex  2.038537e-01  7.757423e-02  7.000695e-01
     vertex  2.035422e-01  7.771843e-02  7.000859e-01
     vertex  2.039410e-01  7.863682e-02  7.020941e-01
   endloop
 endfacet
 facet normal  3.564331e-01  8.208916e-01 -4.461978e-01
   outer loop
     vertex  2.038537e-01  7.757423e-02  7.000695e-01
     vertex  2.039410e-01  7.863682e-02  7.020941e-01
     vertex  2.048858e-01  7.822660e-02  7.020941e-01
   endloop
 endfacet
 facet normal  3.564331e-01  8.208916e-01 -4.461978e-01
   outer loop
     vertex  2.041689e-01  7.743736e-02  7.000695e-01
     vertex  2.038537e-01  7.757423e-02  7.000695e-01
     vertex  2.048858e-01  7.822660e-02  7.020941e-01
   endloop
 endfacet
 facet normal  3.564331e-01  8.208916e-01 -4.461978e-01
   outer loop
     vertex  2.044870e-01  7.730820e-02  7.000859e-01
     vertex  2.041689e-01  7.743736e-02  7.000695e-01
     vertex  2.048858e-01  7.822660e-02  7.020941e-01
   endloop
 endfacet
 facet normal  8.208916e-01 -3.564331e-01 -4.461978e-01
   outer loop
     vertex  2.030456e-01  8.028496e-02  7.000695e-01
     vertex  2.031898e-01  8.059647e-02  7.000859e-01
     vertex  2.041081e-01  8.019770e-02  7.020941e-01
   endloop
 endfacet
 facet normal  8.208916e-01 -3.564331e-01 -4.461978e-01
   outer loop
     vertex  2.030456e-01  8.028496e-02  7.000695e-01
     vertex  2.041081e-01  8.019770e-02  7.020941e-01
     vertex  2.036979e-01  7.925292e-02  7.020941e-01
   endloop
 endfacet
 facet normal  8.208916e-01 -3.564331e-01 -4.461978e-01
   outer loop
     vertex  2.029087e-01  7.996973e-02  7.000695e-01
     vertex  2.030456e-01  8.028496e-02  7.000695e-01
     vertex  2.036979e-01  7.925292e-02  7.020941e-01
   endloop
 endfacet
 facet normal  8.208916e-01 -3.564331e-01 -4.461978e-01
   outer loop
     vertex  2.027795e-01  7.965169e-02  7.000859e-01
     vertex  2.029087e-01  7.996973e-02  7.000695e-01
     vertex  2.036979e-01  7.925292e-02  7.020941e-01
   endloop
 endfacet
 facet normal -3.564331e-01 -8.208916e-01 -4.461978e-01
   outer loop
     vertex  2.047242e-01  8.044075e-02  7.020941e-01
     vertex  2.051230e-01  8.135915e-02  7.000859e-01
     vertex  2.054411e-01  8.122999e-02  7.000695e-01
   endloop
 endfacet
 facet normal -3.564331e-01 -8.208916e-01 -4.461978e-01
   outer loop
     vertex  2.047242e-01  8.044075e-02  7.020941e-01
     vertex  2.054411e-01  8.122999e-02  7.000695e-01
     vertex  2.057563e-01  8.109312e-02  7.000695e-01
   endloop
 endfacet
 facet normal -3.564331e-01 -8.208916e-01 -4.461978e-01
   outer loop
     vertex  2.056690e-01  8.003053e-02  7.020941e-01
     vertex  2.057563e-01  8.109312e-02  7.000695e-01
     vertex  2.060678e-01  8.094892e-02  7.000859e-01
   endloop
 endfacet
 facet normal -3.564331e-01 -8.208916e-01 -4.461978e-01
   outer loop
     vertex  2.056690e-01  8.003053e-02  7.020941e-01
     vertex  2.047242e-01  8.044075e-02  7.020941e-01
     vertex  2.057563e-01  8.109312e-02  7.000695e-01
   endloop
 endfacet
endsolid
