solid 
 facet normal  5.430074e-01  8.110821e-01 -2.174600e-01
   outer loop
     vertex  2.048086e-01 -1.412797e-01  2.752041e-01
     vertex  2.048086e-01 -1.412663e-01  2.752541e-01
     vertex  2.085019e-01 -1.437389e-01  2.752541e-01
   endloop
 endfacet
 facet normal  5.430074e-01  8.110821e-01 -2.174600e-01
   outer loop
     vertex  2.048086e-01 -1.412797e-01  2.752041e-01
     vertex  2.085019e-01 -1.437389e-01  2.752541e-01
     vertex  2.084895e-01 -1.437440e-01  2.752041e-01
   endloop
 endfacet
 facet normal  4.277691e-01  6.389524e-01 -6.393383e-01
   outer loop
     vertex  2.048086e-01 -1.412797e-01  2.752041e-01
     vertex  2.084895e-01 -1.437440e-01  2.752041e-01
     vertex  2.084557e-01 -1.437580e-01  2.751675e-01
   endloop
 endfacet
 facet normal  1.677921e-01  2.609652e-01 -9.506540e-01
   outer loop
     vertex  2.048086e-01 -1.412797e-01  2.752041e-01
     vertex  2.084557e-01 -1.437580e-01  2.751675e-01
     vertex  2.084095e-01 -1.437771e-01  2.751541e-01
   endloop
 endfacet
 facet normal  2.069098e-02  4.982520e-02 -9.985436e-01
   outer loop
     vertex  2.048086e-01 -1.412797e-01  2.752041e-01
     vertex  2.084095e-01 -1.437771e-01  2.751541e-01
     vertex  2.033158e-01 -1.416618e-01  2.751541e-01
   endloop
 endfacet
 facet normal -3.548617e-02  2.647241e-01 -9.636710e-01
   outer loop
     vertex  2.032967e-01 -1.416156e-01  2.751675e-01
     vertex  2.048086e-01 -1.412797e-01  2.752041e-01
     vertex  2.033158e-01 -1.416618e-01  2.751541e-01
   endloop
 endfacet
 facet normal -4.731866e-02  7.095594e-02  9.963565e-01
   outer loop
     vertex  2.032827e-01 -1.415818e-01  2.752041e-01
     vertex  2.011109e-01 -1.437323e-01  2.752541e-01
     vertex  2.048086e-01 -1.412663e-01  2.752541e-01
   endloop
 endfacet
 facet normal -1.878271e-01  9.487458e-01 -2.541701e-01
   outer loop
     vertex  2.032827e-01 -1.415818e-01  2.752041e-01
     vertex  2.048086e-01 -1.412663e-01  2.752541e-01
     vertex  2.048086e-01 -1.412797e-01  2.752041e-01
   endloop
 endfacet
 facet normal -1.386492e-01  7.003399e-01 -7.002145e-01
   outer loop
     vertex  2.032827e-01 -1.415818e-01  2.752041e-01
     vertex  2.048086e-01 -1.412797e-01  2.752041e-01
     vertex  2.032967e-01 -1.416156e-01  2.751675e-01
   endloop
 endfacet
 facet normal -1.967850e-01  1.971406e-01 -9.604224e-01
   outer loop
     vertex  2.011570e-01 -1.437514e-01  2.751675e-01
     vertex  2.032967e-01 -1.416156e-01  2.751675e-01
     vertex  2.033158e-01 -1.416618e-01  2.751541e-01
   endloop
 endfacet
 facet normal -5.189077e-01  5.198453e-01 -6.785983e-01
   outer loop
     vertex  2.011232e-01 -1.437374e-01  2.752041e-01
     vertex  2.032967e-01 -1.416156e-01  2.751675e-01
     vertex  2.011570e-01 -1.437514e-01  2.751675e-01
   endloop
 endfacet
 facet normal -5.189077e-01  5.198453e-01 -6.785983e-01
   outer loop
     vertex  2.011232e-01 -1.437374e-01  2.752041e-01
     vertex  2.032827e-01 -1.415818e-01  2.752041e-01
     vertex  2.032967e-01 -1.416156e-01  2.751675e-01
   endloop
 endfacet
 facet normal -6.857679e-01  6.870071e-01 -2.402992e-01
   outer loop
     vertex  2.011232e-01 -1.437374e-01  2.752041e-01
     vertex  2.011109e-01 -1.437323e-01  2.752541e-01
     vertex  2.032827e-01 -1.415818e-01  2.752041e-01
   endloop
 endfacet
 facet normal -3.393006e-03 -1.401842e-03 -9.999933e-01
   outer loop
     vertex  2.020094e-01 -1.480569e-01  2.751675e-01
     vertex  2.033158e-01 -1.416618e-01  2.751541e-01
     vertex  2.062942e-01 -1.488708e-01  2.751541e-01
   endloop
 endfacet
 facet normal -5.208023e-03 -1.031054e-03 -9.999859e-01
   outer loop
     vertex  2.020094e-01 -1.480569e-01  2.751675e-01
     vertex  2.011570e-01 -1.437514e-01  2.751675e-01
     vertex  2.033158e-01 -1.416618e-01  2.751541e-01
   endloop
 endfacet
 facet normal -9.574858e-01 -1.895574e-01 -2.174600e-01
   outer loop
     vertex  2.019835e-01 -1.480827e-01  2.752041e-01
     vertex  2.019740e-01 -1.480922e-01  2.752541e-01
     vertex  2.011109e-01 -1.437323e-01  2.752541e-01
   endloop
 endfacet
 facet normal -7.542860e-01 -1.493291e-01 -6.393383e-01
   outer loop
     vertex  2.019835e-01 -1.480827e-01  2.752041e-01
     vertex  2.011570e-01 -1.437514e-01  2.751675e-01
     vertex  2.020094e-01 -1.480569e-01  2.751675e-01
   endloop
 endfacet
 facet normal -9.574858e-01 -1.895574e-01 -2.174600e-01
   outer loop
     vertex  2.019835e-01 -1.480827e-01  2.752041e-01
     vertex  2.011109e-01 -1.437323e-01  2.752541e-01
     vertex  2.011232e-01 -1.437374e-01  2.752041e-01
   endloop
 endfacet
 facet normal -7.542860e-01 -1.493291e-01 -6.393383e-01
   outer loop
     vertex  2.019835e-01 -1.480827e-01  2.752041e-01
     vertex  2.011232e-01 -1.437374e-01  2.752041e-01
     vertex  2.011570e-01 -1.437514e-01  2.751675e-01
   endloop
 endfacet
 facet normal -6.011083e-02 -3.007783e-01 -9.517978e-01
   outer loop
     vertex  2.063133e-01 -1.489170e-01  2.751675e-01
     vertex  2.020094e-01 -1.480569e-01  2.751675e-01
     vertex  2.062942e-01 -1.488708e-01  2.751541e-01
   endloop
 endfacet
 facet normal -1.912857e-01 -9.571421e-01 -2.174600e-01
   outer loop
     vertex  2.063273e-01 -1.489508e-01  2.752041e-01
     vertex  2.063324e-01 -1.489632e-01  2.752541e-01
     vertex  2.019740e-01 -1.480922e-01  2.752541e-01
   endloop
 endfacet
 facet normal -1.912857e-01 -9.571421e-01 -2.174600e-01
   outer loop
     vertex  2.063273e-01 -1.489508e-01  2.752041e-01
     vertex  2.019740e-01 -1.480922e-01  2.752541e-01
     vertex  2.019835e-01 -1.480827e-01  2.752041e-01
   endloop
 endfacet
 facet normal -1.506906e-01 -7.540152e-01 -6.393383e-01
   outer loop
     vertex  2.063273e-01 -1.489508e-01  2.752041e-01
     vertex  2.019835e-01 -1.480827e-01  2.752041e-01
     vertex  2.020094e-01 -1.480569e-01  2.751675e-01
   endloop
 endfacet
 facet normal -1.506906e-01 -7.540152e-01 -6.393383e-01
   outer loop
     vertex  2.063273e-01 -1.489508e-01  2.752041e-01
     vertex  2.020094e-01 -1.480569e-01  2.751675e-01
     vertex  2.063133e-01 -1.489170e-01  2.751675e-01
   endloop
 endfacet
 facet normal  5.886486e-01 -7.685773e-01 -2.505628e-01
   outer loop
     vertex  2.079656e-01 -1.476961e-01  2.752041e-01
     vertex  2.079762e-01 -1.477042e-01  2.752541e-01
     vertex  2.063324e-01 -1.489632e-01  2.752541e-01
   endloop
 endfacet
 facet normal  5.886486e-01 -7.685773e-01 -2.505628e-01
   outer loop
     vertex  2.079656e-01 -1.476961e-01  2.752041e-01
     vertex  2.063324e-01 -1.489632e-01  2.752541e-01
     vertex  2.063273e-01 -1.489508e-01  2.752041e-01
   endloop
 endfacet
 facet normal  1.743358e-01 -2.070668e-01 -9.626684e-01
   outer loop
     vertex  2.079656e-01 -1.476961e-01  2.752041e-01
     vertex  2.063133e-01 -1.489170e-01  2.751675e-01
     vertex  2.062942e-01 -1.488708e-01  2.751541e-01
   endloop
 endfacet
 facet normal  4.373392e-01 -5.710180e-01 -6.947466e-01
   outer loop
     vertex  2.079656e-01 -1.476961e-01  2.752041e-01
     vertex  2.063273e-01 -1.489508e-01  2.752041e-01
     vertex  2.063133e-01 -1.489170e-01  2.751675e-01
   endloop
 endfacet
 facet normal  1.169720e-02 -4.857512e-03 -9.999198e-01
   outer loop
     vertex  2.087207e-01 -1.457854e-01  2.751675e-01
     vertex  2.062942e-01 -1.488708e-01  2.751541e-01
     vertex  2.084095e-01 -1.437771e-01  2.751541e-01
   endloop
 endfacet
 facet normal  2.650517e-01  3.465135e-02 -9.636114e-01
   outer loop
     vertex  2.087207e-01 -1.457854e-01  2.751675e-01
     vertex  2.084095e-01 -1.437771e-01  2.751541e-01
     vertex  2.084557e-01 -1.437580e-01  2.751675e-01
   endloop
 endfacet
 facet normal  5.990299e-02 -4.278108e-02 -9.972870e-01
   outer loop
     vertex  2.087207e-01 -1.457854e-01  2.751675e-01
     vertex  2.079656e-01 -1.476961e-01  2.752041e-01
     vertex  2.062942e-01 -1.488708e-01  2.751541e-01
   endloop
 endfacet
 facet normal  9.599318e-01  1.254960e-01 -2.505628e-01
   outer loop
     vertex  2.087570e-01 -1.457902e-01  2.752041e-01
     vertex  2.084895e-01 -1.437440e-01  2.752041e-01
     vertex  2.085019e-01 -1.437389e-01  2.752541e-01
   endloop
 endfacet
 facet normal  7.131857e-01  9.323783e-02 -6.947466e-01
   outer loop
     vertex  2.087570e-01 -1.457902e-01  2.752041e-01
     vertex  2.084557e-01 -1.437580e-01  2.751675e-01
     vertex  2.084895e-01 -1.437440e-01  2.752041e-01
   endloop
 endfacet
 facet normal  8.940733e-01 -3.712832e-01 -2.505628e-01
   outer loop
     vertex  2.087570e-01 -1.457902e-01  2.752041e-01
     vertex  2.087703e-01 -1.457920e-01  2.752541e-01
     vertex  2.079762e-01 -1.477042e-01  2.752541e-01
   endloop
 endfacet
 facet normal  9.599318e-01  1.254960e-01 -2.505628e-01
   outer loop
     vertex  2.087570e-01 -1.457902e-01  2.752041e-01
     vertex  2.085019e-01 -1.437389e-01  2.752541e-01
     vertex  2.087703e-01 -1.457920e-01  2.752541e-01
   endloop
 endfacet
 facet normal  8.940733e-01 -3.712832e-01 -2.505628e-01
   outer loop
     vertex  2.087570e-01 -1.457902e-01  2.752041e-01
     vertex  2.079762e-01 -1.477042e-01  2.752541e-01
     vertex  2.079656e-01 -1.476961e-01  2.752041e-01
   endloop
 endfacet
 facet normal  7.131857e-01  9.323783e-02 -6.947466e-01
   outer loop
     vertex  2.087570e-01 -1.457902e-01  2.752041e-01
     vertex  2.087207e-01 -1.457854e-01  2.751675e-01
     vertex  2.084557e-01 -1.437580e-01  2.751675e-01
   endloop
 endfacet
 facet normal  6.642559e-01 -2.758465e-01 -6.947466e-01
   outer loop
     vertex  2.087570e-01 -1.457902e-01  2.752041e-01
     vertex  2.079656e-01 -1.476961e-01  2.752041e-01
     vertex  2.087207e-01 -1.457854e-01  2.751675e-01
   endloop
 endfacet
 facet normal  6.080450e-01 -7.939025e-01  0.000000e+00
   outer loop
     vertex  2.079762e-01 -1.477042e-01  2.752836e-01
     vertex  2.063324e-01 -1.489632e-01  2.752836e-01
     vertex  2.063324e-01 -1.489632e-01  2.752541e-01
   endloop
 endfacet
 facet normal  6.080450e-01 -7.939025e-01  0.000000e+00
   outer loop
     vertex  2.079762e-01 -1.477042e-01  2.752836e-01
     vertex  2.063324e-01 -1.489632e-01  2.752541e-01
     vertex  2.079762e-01 -1.477042e-01  2.752541e-01
   endloop
 endfacet
 facet normal  9.235337e-01 -3.835172e-01  0.000000e+00
   outer loop
     vertex  2.087703e-01 -1.457920e-01  2.752836e-01
     vertex  2.079762e-01 -1.477042e-01  2.752541e-01
     vertex  2.087703e-01 -1.457920e-01  2.752541e-01
   endloop
 endfacet
 facet normal  9.235337e-01 -3.835172e-01  0.000000e+00
   outer loop
     vertex  2.087703e-01 -1.457920e-01  2.752836e-01
     vertex  2.079762e-01 -1.477042e-01  2.752836e-01
     vertex  2.079762e-01 -1.477042e-01  2.752541e-01
   endloop
 endfacet
 facet normal  9.915623e-01  1.296312e-01  0.000000e+00
   outer loop
     vertex  2.085019e-01 -1.437389e-01  2.752836e-01
     vertex  2.087703e-01 -1.457920e-01  2.752541e-01
     vertex  2.085019e-01 -1.437389e-01  2.752541e-01
   endloop
 endfacet
 facet normal  5.563205e-01  8.309678e-01  0.000000e+00
   outer loop
     vertex  2.085019e-01 -1.437389e-01  2.752836e-01
     vertex  2.085019e-01 -1.437389e-01  2.752541e-01
     vertex  2.048086e-01 -1.412663e-01  2.752541e-01
   endloop
 endfacet
 facet normal  9.915623e-01  1.296312e-01  0.000000e+00
   outer loop
     vertex  2.085019e-01 -1.437389e-01  2.752836e-01
     vertex  2.087703e-01 -1.457920e-01  2.752836e-01
     vertex  2.087703e-01 -1.457920e-01  2.752541e-01
   endloop
 endfacet
 facet normal -2.742888e-02  4.113055e-02 -9.987772e-01
   outer loop
     vertex  2.032776e-01 -1.415694e-01  2.752836e-01
     vertex  2.048086e-01 -1.412663e-01  2.752541e-01
     vertex  2.011109e-01 -1.437323e-01  2.752541e-01
   endloop
 endfacet
 facet normal  1.306836e-02  3.146944e-02  9.994193e-01
   outer loop
     vertex  2.032776e-01 -1.415694e-01  2.752836e-01
     vertex  2.085019e-01 -1.437389e-01  2.752836e-01
     vertex  2.048086e-01 -1.412663e-01  2.752541e-01
   endloop
 endfacet
 facet normal -4.849625e-02 -9.601004e-03 -9.987772e-01
   outer loop
     vertex  2.011081e-01 -1.467937e-01  2.752836e-01
     vertex  2.011109e-01 -1.437323e-01  2.752541e-01
     vertex  2.019740e-01 -1.480922e-01  2.752541e-01
   endloop
 endfacet
 facet normal -2.329691e-02  9.674545e-03  9.996818e-01
   outer loop
     vertex  2.011081e-01 -1.467937e-01  2.752836e-01
     vertex  2.032776e-01 -1.415694e-01  2.752836e-01
     vertex  2.011109e-01 -1.437323e-01  2.752541e-01
   endloop
 endfacet
 facet normal -1.959756e-01 -9.806088e-01 -0.000000e+00
   outer loop
     vertex  2.063324e-01 -1.489632e-01  2.752836e-01
     vertex  2.019740e-01 -1.480922e-01  2.752541e-01
     vertex  2.063324e-01 -1.489632e-01  2.752541e-01
   endloop
 endfacet
 facet normal -1.306836e-02 -3.146944e-02  9.994193e-01
   outer loop
     vertex  2.063324e-01 -1.489632e-01  2.752836e-01
     vertex  2.011081e-01 -1.467937e-01  2.752836e-01
     vertex  2.019740e-01 -1.480922e-01  2.752541e-01
   endloop
 endfacet
 facet normal  0.000000e+00  0.000000e+00 -1.000000e+00
   outer loop
     vertex  2.033158e-01 -1.416618e-01  2.751541e-01
     vertex  2.084095e-01 -1.437771e-01  2.751541e-01
     vertex  2.055687e-01 -1.471148e-01  2.751541e-01
   endloop
 endfacet
 facet normal  0.000000e+00  0.000000e+00 -1.000000e+00
   outer loop
     vertex  2.062942e-01 -1.488708e-01  2.751541e-01
     vertex  2.055687e-01 -1.471148e-01  2.751541e-01
     vertex  2.084095e-01 -1.437771e-01  2.751541e-01
   endloop
 endfacet
 facet normal  0.000000e+00  0.000000e+00  1.000000e+00
   outer loop
     vertex  2.062942e-01 -1.488708e-01  2.751541e-01
     vertex  2.033158e-01 -1.416618e-01  2.751541e-01
     vertex  2.055687e-01 -1.471148e-01  2.751541e-01
   endloop
 endfacet
 facet normal  9.235337e-01 -3.835172e-01  0.000000e+00
   outer loop
     vertex  2.066534e-01 -1.445026e-01  2.751541e-01
     vertex  2.055687e-01 -1.471148e-01  2.751541e-01
     vertex  2.055687e-01 -1.471148e-01  2.727541e-01
   endloop
 endfacet
 facet normal  9.235337e-01 -3.835172e-01  0.000000e+00
   outer loop
     vertex  2.066534e-01 -1.445026e-01  2.751541e-01
     vertex  2.055687e-01 -1.471148e-01  2.727541e-01
     vertex  2.066534e-01 -1.445026e-01  2.727541e-01
   endloop
 endfacet
 facet normal  3.835172e-01  9.235337e-01  0.000000e+00
   outer loop
     vertex  2.040413e-01 -1.434179e-01  2.751541e-01
     vertex  2.066534e-01 -1.445026e-01  2.727541e-01
     vertex  2.040413e-01 -1.434179e-01  2.727541e-01
   endloop
 endfacet
 facet normal  3.835172e-01  9.235337e-01  0.000000e+00
   outer loop
     vertex  2.040413e-01 -1.434179e-01  2.751541e-01
     vertex  2.066534e-01 -1.445026e-01  2.751541e-01
     vertex  2.066534e-01 -1.445026e-01  2.727541e-01
   endloop
 endfacet
 facet normal -9.235337e-01  3.835172e-01  0.000000e+00
   outer loop
     vertex  2.029566e-01 -1.460300e-01  2.751541e-01
     vertex  2.040413e-01 -1.434179e-01  2.727541e-01
     vertex  2.029566e-01 -1.460300e-01  2.727541e-01
   endloop
 endfacet
 facet normal -9.235337e-01  3.835172e-01  0.000000e+00
   outer loop
     vertex  2.029566e-01 -1.460300e-01  2.751541e-01
     vertex  2.040413e-01 -1.434179e-01  2.751541e-01
     vertex  2.040413e-01 -1.434179e-01  2.727541e-01
   endloop
 endfacet
 facet normal -3.835172e-01 -9.235337e-01 -0.000000e+00
   outer loop
     vertex  2.055687e-01 -1.471148e-01  2.751541e-01
     vertex  2.029566e-01 -1.460300e-01  2.727541e-01
     vertex  2.055687e-01 -1.471148e-01  2.727541e-01
   endloop
 endfacet
 facet normal -3.835172e-01 -9.235337e-01  0.000000e+00
   outer loop
     vertex  2.055687e-01 -1.471148e-01  2.751541e-01
     vertex  2.029566e-01 -1.460300e-01  2.751541e-01
     vertex  2.029566e-01 -1.460300e-01  2.727541e-01
   endloop
 endfacet
 facet normal -0.000000e+00 -0.000000e+00  1.000000e+00
   outer loop
     vertex  2.040413e-01 -1.434179e-01  2.727541e-01
     vertex  2.071156e-01 -1.443117e-01  2.727541e-01
     vertex  2.038504e-01 -1.429558e-01  2.727541e-01
   endloop
 endfacet
 facet normal  0.000000e+00 -0.000000e+00  1.000000e+00
   outer loop
     vertex  2.066534e-01 -1.445026e-01  2.727541e-01
     vertex  2.071156e-01 -1.443117e-01  2.727541e-01
     vertex  2.040413e-01 -1.434179e-01  2.727541e-01
   endloop
 endfacet
 facet normal  0.000000e+00  0.000000e+00  1.000000e+00
   outer loop
     vertex  2.055687e-01 -1.471148e-01  2.727541e-01
     vertex  2.071156e-01 -1.443117e-01  2.727541e-01
     vertex  2.066534e-01 -1.445026e-01  2.727541e-01
   endloop
 endfacet
 facet normal -0.000000e+00  0.000000e+00  1.000000e+00
   outer loop
     vertex  2.024944e-01 -1.462209e-01  2.727541e-01
     vertex  2.055687e-01 -1.471148e-01  2.727541e-01
     vertex  2.029566e-01 -1.460300e-01  2.727541e-01
   endloop
 endfacet
 facet normal  0.000000e+00  0.000000e+00  1.000000e+00
   outer loop
     vertex  2.024944e-01 -1.462209e-01  2.727541e-01
     vertex  2.029566e-01 -1.460300e-01  2.727541e-01
     vertex  2.040413e-01 -1.434179e-01  2.727541e-01
   endloop
 endfacet
 facet normal  0.000000e+00  0.000000e+00  1.000000e+00
   outer loop
     vertex  2.024944e-01 -1.462209e-01  2.727541e-01
     vertex  2.040413e-01 -1.434179e-01  2.727541e-01
     vertex  2.038504e-01 -1.429558e-01  2.727541e-01
   endloop
 endfacet
 facet normal  0.000000e+00  0.000000e+00  1.000000e+00
   outer loop
     vertex  2.057596e-01 -1.475769e-01  2.727541e-01
     vertex  2.055687e-01 -1.471148e-01  2.727541e-01
     vertex  2.024944e-01 -1.462209e-01  2.727541e-01
   endloop
 endfacet
 facet normal  0.000000e+00 -0.000000e+00  1.000000e+00
   outer loop
     vertex  2.057596e-01 -1.475769e-01  2.727541e-01
     vertex  2.071156e-01 -1.443117e-01  2.727541e-01
     vertex  2.055687e-01 -1.471148e-01  2.727541e-01
   endloop
 endfacet
 facet normal  2.425576e-01  5.840940e-01 -7.745967e-01
   outer loop
     vertex  2.036850e-01 -1.425556e-01  2.720041e-01
     vertex  2.075158e-01 -1.441464e-01  2.720041e-01
     vertex  2.071156e-01 -1.443117e-01  2.717541e-01
   endloop
 endfacet
 facet normal  2.425576e-01  5.840940e-01 -7.745967e-01
   outer loop
     vertex  2.036850e-01 -1.425556e-01  2.720041e-01
     vertex  2.071156e-01 -1.443117e-01  2.717541e-01
     vertex  2.038504e-01 -1.429558e-01  2.717541e-01
   endloop
 endfacet
 facet normal  2.425576e-01  5.840940e-01  7.745967e-01
   outer loop
     vertex  2.036850e-01 -1.425556e-01  2.725041e-01
     vertex  2.038504e-01 -1.429558e-01  2.727541e-01
     vertex  2.071156e-01 -1.443117e-01  2.727541e-01
   endloop
 endfacet
 facet normal  2.425576e-01  5.840940e-01  7.745967e-01
   outer loop
     vertex  2.036850e-01 -1.425556e-01  2.725041e-01
     vertex  2.071156e-01 -1.443117e-01  2.727541e-01
     vertex  2.075158e-01 -1.441464e-01  2.725041e-01
   endloop
 endfacet
 facet normal  3.835172e-01  9.235337e-01  0.000000e+00
   outer loop
     vertex  2.036850e-01 -1.425556e-01  2.725041e-01
     vertex  2.075158e-01 -1.441464e-01  2.725041e-01
     vertex  2.075158e-01 -1.441464e-01  2.720041e-01
   endloop
 endfacet
 facet normal  3.835172e-01  9.235337e-01  0.000000e+00
   outer loop
     vertex  2.036850e-01 -1.425556e-01  2.725041e-01
     vertex  2.075158e-01 -1.441464e-01  2.720041e-01
     vertex  2.036850e-01 -1.425556e-01  2.720041e-01
   endloop
 endfacet
 facet normal -5.840940e-01  2.425576e-01 -7.745967e-01
   outer loop
     vertex  2.020942e-01 -1.463863e-01  2.720041e-01
     vertex  2.038504e-01 -1.429558e-01  2.717541e-01
     vertex  2.024944e-01 -1.462209e-01  2.717541e-01
   endloop
 endfacet
 facet normal -5.840940e-01  2.425576e-01 -7.745967e-01
   outer loop
     vertex  2.020942e-01 -1.463863e-01  2.720041e-01
     vertex  2.036850e-01 -1.425556e-01  2.720041e-01
     vertex  2.038504e-01 -1.429558e-01  2.717541e-01
   endloop
 endfacet
 facet normal -5.840940e-01  2.425576e-01  7.745967e-01
   outer loop
     vertex  2.020942e-01 -1.463863e-01  2.725041e-01
     vertex  2.024944e-01 -1.462209e-01  2.727541e-01
     vertex  2.038504e-01 -1.429558e-01  2.727541e-01
   endloop
 endfacet
 facet normal -9.235337e-01  3.835172e-01  0.000000e+00
   outer loop
     vertex  2.020942e-01 -1.463863e-01  2.725041e-01
     vertex  2.036850e-01 -1.425556e-01  2.725041e-01
     vertex  2.036850e-01 -1.425556e-01  2.720041e-01
   endloop
 endfacet
 facet normal -5.840940e-01  2.425576e-01  7.745967e-01
   outer loop
     vertex  2.020942e-01 -1.463863e-01  2.725041e-01
     vertex  2.038504e-01 -1.429558e-01  2.727541e-01
     vertex  2.036850e-01 -1.425556e-01  2.725041e-01
   endloop
 endfacet
 facet normal -9.235337e-01  3.835172e-01  0.000000e+00
   outer loop
     vertex  2.020942e-01 -1.463863e-01  2.725041e-01
     vertex  2.036850e-01 -1.425556e-01  2.720041e-01
     vertex  2.020942e-01 -1.463863e-01  2.720041e-01
   endloop
 endfacet
 facet normal  5.840940e-01 -2.425576e-01 -7.745967e-01
   outer loop
     vertex  2.059250e-01 -1.479771e-01  2.720041e-01
     vertex  2.057596e-01 -1.475769e-01  2.717541e-01
     vertex  2.071156e-01 -1.443117e-01  2.717541e-01
   endloop
 endfacet
 facet normal -2.425576e-01 -5.840940e-01 -7.745967e-01
   outer loop
     vertex  2.059250e-01 -1.479771e-01  2.720041e-01
     vertex  2.024944e-01 -1.462209e-01  2.717541e-01
     vertex  2.057596e-01 -1.475769e-01  2.717541e-01
   endloop
 endfacet
 facet normal  5.840940e-01 -2.425576e-01 -7.745967e-01
   outer loop
     vertex  2.059250e-01 -1.479771e-01  2.720041e-01
     vertex  2.071156e-01 -1.443117e-01  2.717541e-01
     vertex  2.075158e-01 -1.441464e-01  2.720041e-01
   endloop
 endfacet
 facet normal -2.425576e-01 -5.840940e-01 -7.745967e-01
   outer loop
     vertex  2.059250e-01 -1.479771e-01  2.720041e-01
     vertex  2.020942e-01 -1.463863e-01  2.720041e-01
     vertex  2.024944e-01 -1.462209e-01  2.717541e-01
   endloop
 endfacet
 facet normal -2.425576e-01 -5.840940e-01  7.745967e-01
   outer loop
     vertex  2.059250e-01 -1.479771e-01  2.725041e-01
     vertex  2.057596e-01 -1.475769e-01  2.727541e-01
     vertex  2.024944e-01 -1.462209e-01  2.727541e-01
   endloop
 endfacet
 facet normal  5.840940e-01 -2.425576e-01  7.745967e-01
   outer loop
     vertex  2.059250e-01 -1.479771e-01  2.725041e-01
     vertex  2.071156e-01 -1.443117e-01  2.727541e-01
     vertex  2.057596e-01 -1.475769e-01  2.727541e-01
   endloop
 endfacet
 facet normal  5.840940e-01 -2.425576e-01  7.745967e-01
   outer loop
     vertex  2.059250e-01 -1.479771e-01  2.725041e-01
     vertex  2.075158e-01 -1.441464e-01  2.725041e-01
     vertex  2.071156e-01 -1.443117e-01  2.727541e-01
   endloop
 endfacet
 facet normal  9.235337e-01 -3.835172e-01  0.000000e+00
   outer loop
     vertex  2.059250e-01 -1.479771e-01  2.725041e-01
     vertex  2.075158e-01 -1.441464e-01  2.720041e-01
     vertex  2.075158e-01 -1.441464e-01  2.725041e-01
   endloop
 endfacet
 facet normal -3.835172e-01 -9.235337e-01 -0.000000e+00
   outer loop
     vertex  2.059250e-01 -1.479771e-01  2.725041e-01
     vertex  2.020942e-01 -1.463863e-01  2.720041e-01
     vertex  2.059250e-01 -1.479771e-01  2.720041e-01
   endloop
 endfacet
 facet normal -3.835172e-01 -9.235337e-01  0.000000e+00
   outer loop
     vertex  2.059250e-01 -1.479771e-01  2.725041e-01
     vertex  2.020942e-01 -1.463863e-01  2.725041e-01
     vertex  2.020942e-01 -1.463863e-01  2.720041e-01
   endloop
 endfacet
 facet normal -2.425576e-01 -5.840940e-01  7.745967e-01
   outer loop
     vertex  2.059250e-01 -1.479771e-01  2.725041e-01
     vertex  2.024944e-01 -1.462209e-01  2.727541e-01
     vertex  2.020942e-01 -1.463863e-01  2.725041e-01
   endloop
 endfacet
 facet normal  9.235337e-01 -3.835172e-01  0.000000e+00
   outer loop
     vertex  2.059250e-01 -1.479771e-01  2.725041e-01
     vertex  2.059250e-01 -1.479771e-01  2.720041e-01
     vertex  2.075158e-01 -1.441464e-01  2.720041e-01
   endloop
 endfacet
 facet normal  0.000000e+00  0.000000e+00 -1.000000e+00
   outer loop
     vertex  2.055305e-01 -1.470224e-01  2.717541e-01
     vertex  2.071156e-01 -1.443117e-01  2.717541e-01
     vertex  2.057596e-01 -1.475769e-01  2.717541e-01
   endloop
 endfacet
 facet normal  0.000000e+00 -0.000000e+00 -1.000000e+00
   outer loop
     vertex  2.065610e-01 -1.445408e-01  2.717541e-01
     vertex  2.071156e-01 -1.443117e-01  2.717541e-01
     vertex  2.055305e-01 -1.470224e-01  2.717541e-01
   endloop
 endfacet
 facet normal  0.000000e+00  0.000000e+00 -1.000000e+00
   outer loop
     vertex  2.040795e-01 -1.435103e-01  2.717541e-01
     vertex  2.071156e-01 -1.443117e-01  2.717541e-01
     vertex  2.065610e-01 -1.445408e-01  2.717541e-01
   endloop
 endfacet
 facet normal  0.000000e+00  0.000000e+00 -1.000000e+00
   outer loop
     vertex  2.024944e-01 -1.462209e-01  2.717541e-01
     vertex  2.040795e-01 -1.435103e-01  2.717541e-01
     vertex  2.030490e-01 -1.459918e-01  2.717541e-01
   endloop
 endfacet
 facet normal  0.000000e+00  0.000000e+00 -1.000000e+00
   outer loop
     vertex  2.024944e-01 -1.462209e-01  2.717541e-01
     vertex  2.030490e-01 -1.459918e-01  2.717541e-01
     vertex  2.055305e-01 -1.470224e-01  2.717541e-01
   endloop
 endfacet
 facet normal  0.000000e+00  0.000000e+00 -1.000000e+00
   outer loop
     vertex  2.024944e-01 -1.462209e-01  2.717541e-01
     vertex  2.055305e-01 -1.470224e-01  2.717541e-01
     vertex  2.057596e-01 -1.475769e-01  2.717541e-01
   endloop
 endfacet
 facet normal  0.000000e+00 -0.000000e+00 -1.000000e+00
   outer loop
     vertex  2.038504e-01 -1.429558e-01  2.717541e-01
     vertex  2.040795e-01 -1.435103e-01  2.717541e-01
     vertex  2.024944e-01 -1.462209e-01  2.717541e-01
   endloop
 endfacet
 facet normal  0.000000e+00  0.000000e+00 -1.000000e+00
   outer loop
     vertex  2.038504e-01 -1.429558e-01  2.717541e-01
     vertex  2.071156e-01 -1.443117e-01  2.717541e-01
     vertex  2.040795e-01 -1.435103e-01  2.717541e-01
   endloop
 endfacet
 facet normal -3.768134e-01 -9.073904e-01 -1.861568e-01
   outer loop
     vertex  2.042448e-01 -1.439105e-01  2.720041e-01
     vertex  2.061608e-01 -1.447062e-01  2.720041e-01
     vertex  2.060989e-01 -1.447317e-01  2.722541e-01
   endloop
 endfacet
 facet normal -3.768134e-01 -9.073904e-01 -1.861568e-01
   outer loop
     vertex  2.042448e-01 -1.439105e-01  2.720041e-01
     vertex  2.060989e-01 -1.447317e-01  2.722541e-01
     vertex  2.042704e-01 -1.439724e-01  2.722541e-01
   endloop
 endfacet
 facet normal -1.358991e-01 -3.272535e-01 -9.351131e-01
   outer loop
     vertex  2.041749e-01 -1.437414e-01  2.718211e-01
     vertex  2.040795e-01 -1.435103e-01  2.717541e-01
     vertex  2.065610e-01 -1.445408e-01  2.717541e-01
   endloop
 endfacet
 facet normal -1.358991e-01 -3.272535e-01 -9.351131e-01
   outer loop
     vertex  2.041749e-01 -1.437414e-01  2.718211e-01
     vertex  2.065610e-01 -1.445408e-01  2.717541e-01
     vertex  2.063300e-01 -1.446363e-01  2.718211e-01
   endloop
 endfacet
 facet normal -3.131405e-01 -7.540621e-01 -5.773503e-01
   outer loop
     vertex  2.041749e-01 -1.437414e-01  2.718211e-01
     vertex  2.063300e-01 -1.446363e-01  2.718211e-01
     vertex  2.061608e-01 -1.447062e-01  2.720041e-01
   endloop
 endfacet
 facet normal -3.131405e-01 -7.540621e-01 -5.773503e-01
   outer loop
     vertex  2.041749e-01 -1.437414e-01  2.718211e-01
     vertex  2.061608e-01 -1.447062e-01  2.720041e-01
     vertex  2.042448e-01 -1.439105e-01  2.720041e-01
   endloop
 endfacet
 facet normal  9.073904e-01 -3.768134e-01 -1.861568e-01
   outer loop
     vertex  2.034492e-01 -1.458265e-01  2.720041e-01
     vertex  2.042704e-01 -1.439724e-01  2.722541e-01
     vertex  2.035111e-01 -1.458009e-01  2.722541e-01
   endloop
 endfacet
 facet normal  9.073904e-01 -3.768134e-01 -1.861568e-01
   outer loop
     vertex  2.034492e-01 -1.458265e-01  2.720041e-01
     vertex  2.042448e-01 -1.439105e-01  2.720041e-01
     vertex  2.042704e-01 -1.439724e-01  2.722541e-01
   endloop
 endfacet
 facet normal  3.272535e-01 -1.358991e-01 -9.351131e-01
   outer loop
     vertex  2.032800e-01 -1.458964e-01  2.718211e-01
     vertex  2.030490e-01 -1.459918e-01  2.717541e-01
     vertex  2.040795e-01 -1.435103e-01  2.717541e-01
   endloop
 endfacet
 facet normal  7.540621e-01 -3.131405e-01 -5.773503e-01
   outer loop
     vertex  2.032800e-01 -1.458964e-01  2.718211e-01
     vertex  2.041749e-01 -1.437414e-01  2.718211e-01
     vertex  2.042448e-01 -1.439105e-01  2.720041e-01
   endloop
 endfacet
 facet normal  3.272535e-01 -1.358991e-01 -9.351131e-01
   outer loop
     vertex  2.032800e-01 -1.458964e-01  2.718211e-01
     vertex  2.040795e-01 -1.435103e-01  2.717541e-01
     vertex  2.041749e-01 -1.437414e-01  2.718211e-01
   endloop
 endfacet
 facet normal  7.540621e-01 -3.131405e-01 -5.773503e-01
   outer loop
     vertex  2.032800e-01 -1.458964e-01  2.718211e-01
     vertex  2.042448e-01 -1.439105e-01  2.720041e-01
     vertex  2.034492e-01 -1.458265e-01  2.720041e-01
   endloop
 endfacet
 facet normal -9.073904e-01  3.768134e-01 -1.861568e-01
   outer loop
     vertex  2.053652e-01 -1.466222e-01  2.720041e-01
     vertex  2.053396e-01 -1.465602e-01  2.722541e-01
     vertex  2.060989e-01 -1.447317e-01  2.722541e-01
   endloop
 endfacet
 facet normal  3.768134e-01  9.073904e-01 -1.861568e-01
   outer loop
     vertex  2.053652e-01 -1.466222e-01  2.720041e-01
     vertex  2.035111e-01 -1.458009e-01  2.722541e-01
     vertex  2.053396e-01 -1.465602e-01  2.722541e-01
   endloop
 endfacet
 facet normal -9.073904e-01  3.768134e-01 -1.861568e-01
   outer loop
     vertex  2.053652e-01 -1.466222e-01  2.720041e-01
     vertex  2.060989e-01 -1.447317e-01  2.722541e-01
     vertex  2.061608e-01 -1.447062e-01  2.720041e-01
   endloop
 endfacet
 facet normal  3.768134e-01  9.073904e-01 -1.861568e-01
   outer loop
     vertex  2.053652e-01 -1.466222e-01  2.720041e-01
     vertex  2.034492e-01 -1.458265e-01  2.720041e-01
     vertex  2.035111e-01 -1.458009e-01  2.722541e-01
   endloop
 endfacet
 facet normal  1.358991e-01  3.272535e-01 -9.351131e-01
   outer loop
     vertex  2.054351e-01 -1.467913e-01  2.718211e-01
     vertex  2.055305e-01 -1.470224e-01  2.717541e-01
     vertex  2.030490e-01 -1.459918e-01  2.717541e-01
   endloop
 endfacet
 facet normal -3.272535e-01  1.358991e-01 -9.351131e-01
   outer loop
     vertex  2.054351e-01 -1.467913e-01  2.718211e-01
     vertex  2.065610e-01 -1.445408e-01  2.717541e-01
     vertex  2.055305e-01 -1.470224e-01  2.717541e-01
   endloop
 endfacet
 facet normal -3.272535e-01  1.358991e-01 -9.351131e-01
   outer loop
     vertex  2.054351e-01 -1.467913e-01  2.718211e-01
     vertex  2.063300e-01 -1.446363e-01  2.718211e-01
     vertex  2.065610e-01 -1.445408e-01  2.717541e-01
   endloop
 endfacet
 facet normal -7.540621e-01  3.131405e-01 -5.773503e-01
   outer loop
     vertex  2.054351e-01 -1.467913e-01  2.718211e-01
     vertex  2.061608e-01 -1.447062e-01  2.720041e-01
     vertex  2.063300e-01 -1.446363e-01  2.718211e-01
   endloop
 endfacet
 facet normal  3.131405e-01  7.540621e-01 -5.773503e-01
   outer loop
     vertex  2.054351e-01 -1.467913e-01  2.718211e-01
     vertex  2.034492e-01 -1.458265e-01  2.720041e-01
     vertex  2.053652e-01 -1.466222e-01  2.720041e-01
   endloop
 endfacet
 facet normal  3.131405e-01  7.540621e-01 -5.773503e-01
   outer loop
     vertex  2.054351e-01 -1.467913e-01  2.718211e-01
     vertex  2.032800e-01 -1.458964e-01  2.718211e-01
     vertex  2.034492e-01 -1.458265e-01  2.720041e-01
   endloop
 endfacet
 facet normal  1.358991e-01  3.272535e-01 -9.351131e-01
   outer loop
     vertex  2.054351e-01 -1.467913e-01  2.718211e-01
     vertex  2.030490e-01 -1.459918e-01  2.717541e-01
     vertex  2.032800e-01 -1.458964e-01  2.718211e-01
   endloop
 endfacet
 facet normal -7.540621e-01  3.131405e-01 -5.773503e-01
   outer loop
     vertex  2.054351e-01 -1.467913e-01  2.718211e-01
     vertex  2.053652e-01 -1.466222e-01  2.720041e-01
     vertex  2.061608e-01 -1.447062e-01  2.720041e-01
   endloop
 endfacet
 facet normal  0.000000e+00  0.000000e+00 -1.000000e+00
   outer loop
     vertex  2.035111e-01 -1.458009e-01  2.722541e-01
     vertex  2.060989e-01 -1.447317e-01  2.722541e-01
     vertex  2.053396e-01 -1.465602e-01  2.722541e-01
   endloop
 endfacet
 facet normal  0.000000e+00  0.000000e+00 -1.000000e+00
   outer loop
     vertex  2.035111e-01 -1.458009e-01  2.722541e-01
     vertex  2.042704e-01 -1.439724e-01  2.722541e-01
     vertex  2.060989e-01 -1.447317e-01  2.722541e-01
   endloop
 endfacet
 facet normal  3.794362e-01  9.137063e-01  1.454955e-01
   outer loop
     vertex  2.032808e-01 -1.415771e-01  2.753235e-01
     vertex  2.084942e-01 -1.437421e-01  2.753235e-01
     vertex  2.085019e-01 -1.437389e-01  2.752836e-01
   endloop
 endfacet
 facet normal  3.794362e-01  9.137063e-01  1.454955e-01
   outer loop
     vertex  2.032808e-01 -1.415771e-01  2.753235e-01
     vertex  2.085019e-01 -1.437389e-01  2.752836e-01
     vertex  2.032776e-01 -1.415694e-01  2.752836e-01
   endloop
 endfacet
 facet normal  2.498009e-01  6.015363e-01  7.587843e-01
   outer loop
     vertex  2.032897e-01 -1.415988e-01  2.753568e-01
     vertex  2.033030e-01 -1.416310e-01  2.753779e-01
     vertex  2.084403e-01 -1.437644e-01  2.753779e-01
   endloop
 endfacet
 facet normal  2.498009e-01  6.015363e-01  7.587843e-01
   outer loop
     vertex  2.032897e-01 -1.415988e-01  2.753568e-01
     vertex  2.084403e-01 -1.437644e-01  2.753779e-01
     vertex  2.084725e-01 -1.437511e-01  2.753568e-01
   endloop
 endfacet
 facet normal  3.430754e-01  8.261473e-01  4.469674e-01
   outer loop
     vertex  2.032897e-01 -1.415988e-01  2.753568e-01
     vertex  2.084725e-01 -1.437511e-01  2.753568e-01
     vertex  2.084942e-01 -1.437421e-01  2.753235e-01
   endloop
 endfacet
 facet normal  3.430754e-01  8.261473e-01  4.469674e-01
   outer loop
     vertex  2.032897e-01 -1.415988e-01  2.753568e-01
     vertex  2.084942e-01 -1.437421e-01  2.753235e-01
     vertex  2.032808e-01 -1.415771e-01  2.753235e-01
   endloop
 endfacet
 facet normal -9.137063e-01  3.794362e-01  1.454955e-01
   outer loop
     vertex  2.011158e-01 -1.467906e-01  2.753235e-01
     vertex  2.032776e-01 -1.415694e-01  2.752836e-01
     vertex  2.011081e-01 -1.467937e-01  2.752836e-01
   endloop
 endfacet
 facet normal -9.137063e-01  3.794362e-01  1.454955e-01
   outer loop
     vertex  2.011158e-01 -1.467906e-01  2.753235e-01
     vertex  2.032808e-01 -1.415771e-01  2.753235e-01
     vertex  2.032776e-01 -1.415694e-01  2.752836e-01
   endloop
 endfacet
 facet normal -4.921390e-03 -2.033304e-03  9.999858e-01
   outer loop
     vertex  2.011375e-01 -1.467816e-01  2.753568e-01
     vertex  2.063070e-01 -1.489017e-01  2.753779e-01
     vertex  2.033030e-01 -1.416310e-01  2.753779e-01
   endloop
 endfacet
 facet normal -8.261473e-01  3.430754e-01  4.469674e-01
   outer loop
     vertex  2.011375e-01 -1.467816e-01  2.753568e-01
     vertex  2.032808e-01 -1.415771e-01  2.753235e-01
     vertex  2.011158e-01 -1.467906e-01  2.753235e-01
   endloop
 endfacet
 facet normal -8.261473e-01  3.430754e-01  4.469674e-01
   outer loop
     vertex  2.011375e-01 -1.467816e-01  2.753568e-01
     vertex  2.032897e-01 -1.415988e-01  2.753568e-01
     vertex  2.032808e-01 -1.415771e-01  2.753235e-01
   endloop
 endfacet
 facet normal -6.015363e-01  2.498009e-01  7.587843e-01
   outer loop
     vertex  2.011375e-01 -1.467816e-01  2.753568e-01
     vertex  2.033030e-01 -1.416310e-01  2.753779e-01
     vertex  2.032897e-01 -1.415988e-01  2.753568e-01
   endloop
 endfacet
 facet normal -3.794362e-01 -9.137063e-01  1.454955e-01
   outer loop
     vertex  2.063292e-01 -1.489556e-01  2.753235e-01
     vertex  2.011081e-01 -1.467937e-01  2.752836e-01
     vertex  2.063324e-01 -1.489632e-01  2.752836e-01
   endloop
 endfacet
 facet normal -3.794362e-01 -9.137063e-01  1.454955e-01
   outer loop
     vertex  2.063292e-01 -1.489556e-01  2.753235e-01
     vertex  2.011158e-01 -1.467906e-01  2.753235e-01
     vertex  2.011081e-01 -1.467937e-01  2.752836e-01
   endloop
 endfacet
 facet normal -2.498009e-01 -6.015363e-01  7.587843e-01
   outer loop
     vertex  2.063203e-01 -1.489338e-01  2.753568e-01
     vertex  2.063070e-01 -1.489017e-01  2.753779e-01
     vertex  2.011375e-01 -1.467816e-01  2.753568e-01
   endloop
 endfacet
 facet normal -3.430754e-01 -8.261473e-01  4.469674e-01
   outer loop
     vertex  2.063203e-01 -1.489338e-01  2.753568e-01
     vertex  2.011158e-01 -1.467906e-01  2.753235e-01
     vertex  2.063292e-01 -1.489556e-01  2.753235e-01
   endloop
 endfacet
 facet normal -3.430754e-01 -8.261473e-01  4.469674e-01
   outer loop
     vertex  2.063203e-01 -1.489338e-01  2.753568e-01
     vertex  2.011375e-01 -1.467816e-01  2.753568e-01
     vertex  2.011158e-01 -1.467906e-01  2.753235e-01
   endloop
 endfacet
 facet normal  5.961352e-01 -7.783522e-01  1.969534e-01
   outer loop
     vertex  2.079696e-01 -1.476992e-01  2.753235e-01
     vertex  2.063324e-01 -1.489632e-01  2.752836e-01
     vertex  2.079762e-01 -1.477042e-01  2.752836e-01
   endloop
 endfacet
 facet normal  5.961352e-01 -7.783522e-01  1.969534e-01
   outer loop
     vertex  2.079696e-01 -1.476992e-01  2.753235e-01
     vertex  2.063292e-01 -1.489556e-01  2.753235e-01
     vertex  2.063324e-01 -1.489632e-01  2.752836e-01
   endloop
 endfacet
 facet normal  5.022140e-01 -6.557227e-01  5.637453e-01
   outer loop
     vertex  2.079510e-01 -1.476849e-01  2.753568e-01
     vertex  2.063292e-01 -1.489556e-01  2.753235e-01
     vertex  2.079696e-01 -1.476992e-01  2.753235e-01
   endloop
 endfacet
 facet normal  5.022140e-01 -6.557227e-01  5.637453e-01
   outer loop
     vertex  2.079510e-01 -1.476849e-01  2.753568e-01
     vertex  2.063203e-01 -1.489338e-01  2.753568e-01
     vertex  2.063292e-01 -1.489556e-01  2.753235e-01
   endloop
 endfacet
 facet normal  3.235188e-01 -4.224068e-01  8.467042e-01
   outer loop
     vertex  2.079510e-01 -1.476849e-01  2.753568e-01
     vertex  2.063070e-01 -1.489017e-01  2.753779e-01
     vertex  2.063203e-01 -1.489338e-01  2.753568e-01
   endloop
 endfacet
 facet normal  9.054443e-01 -3.760052e-01  1.969534e-01
   outer loop
     vertex  2.087621e-01 -1.457909e-01  2.753235e-01
     vertex  2.079762e-01 -1.477042e-01  2.752836e-01
     vertex  2.087703e-01 -1.457920e-01  2.752836e-01
   endloop
 endfacet
 facet normal  9.721404e-01  1.270921e-01  1.969534e-01
   outer loop
     vertex  2.087621e-01 -1.457909e-01  2.753235e-01
     vertex  2.087703e-01 -1.457920e-01  2.752836e-01
     vertex  2.085019e-01 -1.437389e-01  2.752836e-01
   endloop
 endfacet
 facet normal  9.721404e-01  1.270921e-01  1.969534e-01
   outer loop
     vertex  2.087621e-01 -1.457909e-01  2.753235e-01
     vertex  2.085019e-01 -1.437389e-01  2.752836e-01
     vertex  2.084942e-01 -1.437421e-01  2.753235e-01
   endloop
 endfacet
 facet normal  9.054443e-01 -3.760052e-01  1.969534e-01
   outer loop
     vertex  2.087621e-01 -1.457909e-01  2.753235e-01
     vertex  2.079696e-01 -1.476992e-01  2.753235e-01
     vertex  2.079762e-01 -1.477042e-01  2.752836e-01
   endloop
 endfacet
 facet normal  1.855235e-02 -7.704264e-03  9.997982e-01
   outer loop
     vertex  2.087388e-01 -1.457878e-01  2.753568e-01
     vertex  2.084403e-01 -1.437644e-01  2.753779e-01
     vertex  2.063070e-01 -1.489017e-01  2.753779e-01
   endloop
 endfacet
 facet normal  5.275744e-01  6.897207e-02  8.467042e-01
   outer loop
     vertex  2.087388e-01 -1.457878e-01  2.753568e-01
     vertex  2.084725e-01 -1.437511e-01  2.753568e-01
     vertex  2.084403e-01 -1.437644e-01  2.753779e-01
   endloop
 endfacet
 facet normal  8.189796e-01  1.070687e-01  5.637453e-01
   outer loop
     vertex  2.087388e-01 -1.457878e-01  2.753568e-01
     vertex  2.084942e-01 -1.437421e-01  2.753235e-01
     vertex  2.084725e-01 -1.437511e-01  2.753568e-01
   endloop
 endfacet
 facet normal  1.855235e-02 -7.704264e-03  9.997982e-01
   outer loop
     vertex  2.087388e-01 -1.457878e-01  2.753568e-01
     vertex  2.063070e-01 -1.489017e-01  2.753779e-01
     vertex  2.079510e-01 -1.476849e-01  2.753568e-01
   endloop
 endfacet
 facet normal  7.627915e-01 -3.167656e-01  5.637453e-01
   outer loop
     vertex  2.087388e-01 -1.457878e-01  2.753568e-01
     vertex  2.079510e-01 -1.476849e-01  2.753568e-01
     vertex  2.079696e-01 -1.476992e-01  2.753235e-01
   endloop
 endfacet
 facet normal  8.189796e-01  1.070687e-01  5.637453e-01
   outer loop
     vertex  2.087388e-01 -1.457878e-01  2.753568e-01
     vertex  2.087621e-01 -1.457909e-01  2.753235e-01
     vertex  2.084942e-01 -1.437421e-01  2.753235e-01
   endloop
 endfacet
 facet normal  7.627915e-01 -3.167656e-01  5.637453e-01
   outer loop
     vertex  2.087388e-01 -1.457878e-01  2.753568e-01
     vertex  2.079696e-01 -1.476992e-01  2.753235e-01
     vertex  2.087621e-01 -1.457909e-01  2.753235e-01
   endloop
 endfacet
 facet normal  0.000000e+00 -0.000000e+00  1.000000e+00
   outer loop
     vertex  2.063070e-01 -1.489017e-01  2.753779e-01
     vertex  2.084403e-01 -1.437644e-01  2.753779e-01
     vertex  2.033030e-01 -1.416310e-01  2.753779e-01
   endloop
 endfacet
endsolid
