solid 
 facet normal  0.000000e+00 -0.000000e+00 -1.000000e+00
   outer loop
     vertex -8.765953e-02 -8.629553e-02  9.075333e-01
     vertex -8.690953e-02 -8.704553e-02  9.075333e-01
     vertex -1.019095e-01 -8.879553e-02  9.075333e-01
   endloop
 endfacet
 facet normal  0.000000e+00  0.000000e+00 -1.000000e+00
   outer loop
     vertex -8.690953e-02 -8.554553e-02  9.075333e-01
     vertex -8.765953e-02 -8.629553e-02  9.075333e-01
     vertex -1.019095e-01 -8.879553e-02  9.075333e-01
   endloop
 endfacet
 facet normal -0.000000e+00  0.000000e+00 -1.000000e+00
   outer loop
     vertex -1.909526e-03 -8.704553e-02  9.075333e-01
     vertex -1.019095e-01 -8.879553e-02  9.075333e-01
     vertex -8.690953e-02 -8.704553e-02  9.075333e-01
   endloop
 endfacet
 facet normal -0.000000e+00  0.000000e+00 -1.000000e+00
   outer loop
     vertex -2.659526e-03 -8.629553e-02  9.075333e-01
     vertex -8.690953e-02 -8.704553e-02  9.075333e-01
     vertex -8.615953e-02 -8.629553e-02  9.075333e-01
   endloop
 endfacet
 facet normal  0.000000e+00 -0.000000e+00 -1.000000e+00
   outer loop
     vertex -2.659526e-03 -8.629553e-02  9.075333e-01
     vertex -1.909526e-03 -8.704553e-02  9.075333e-01
     vertex -8.690953e-02 -8.704553e-02  9.075333e-01
   endloop
 endfacet
 facet normal  0.000000e+00  0.000000e+00 -1.000000e+00
   outer loop
     vertex -1.265953e-02 -6.754553e-02  9.075333e-01
     vertex -8.615953e-02 -8.629553e-02  9.075333e-01
     vertex -8.690953e-02 -8.554553e-02  9.075333e-01
   endloop
 endfacet
 facet normal  0.000000e+00 -0.000000e+00 -1.000000e+00
   outer loop
     vertex -1.265953e-02 -6.754553e-02  9.075333e-01
     vertex -2.659526e-03 -8.629553e-02  9.075333e-01
     vertex -8.615953e-02 -8.629553e-02  9.075333e-01
   endloop
 endfacet
 facet normal  0.000000e+00  0.000000e+00 -1.000000e+00
   outer loop
     vertex -9.409526e-03 -7.079553e-02  9.075333e-01
     vertex -1.909526e-03 -8.554553e-02  9.075333e-01
     vertex -2.659526e-03 -8.629553e-02  9.075333e-01
   endloop
 endfacet
 facet normal -0.000000e+00 -0.000000e+00 -1.000000e+00
   outer loop
     vertex -9.409526e-03 -7.079553e-02  9.075333e-01
     vertex -2.659526e-03 -8.629553e-02  9.075333e-01
     vertex -1.265953e-02 -6.754553e-02  9.075333e-01
   endloop
 endfacet
 facet normal  0.000000e+00  0.000000e+00 -1.000000e+00
   outer loop
     vertex -9.409526e-03 -6.429553e-02  9.075333e-01
     vertex -1.265953e-02 -6.754553e-02  9.075333e-01
     vertex -8.690953e-02 -8.554553e-02  9.075333e-01
   endloop
 endfacet
 facet normal  0.000000e+00  0.000000e+00 -1.000000e+00
   outer loop
     vertex  5.590474e-03 -7.079553e-02  9.075333e-01
     vertex -1.159526e-03 -8.629553e-02  9.075333e-01
     vertex -1.909526e-03 -8.554553e-02  9.075333e-01
   endloop
 endfacet
 facet normal -0.000000e+00  0.000000e+00 -1.000000e+00
   outer loop
     vertex  5.590474e-03 -7.079553e-02  9.075333e-01
     vertex -1.909526e-03 -8.554553e-02  9.075333e-01
     vertex -9.409526e-03 -7.079553e-02  9.075333e-01
   endloop
 endfacet
 facet normal -0.000000e+00  0.000000e+00 -1.000000e+00
   outer loop
     vertex  2.340474e-03 -6.754553e-02  9.075333e-01
     vertex -9.409526e-03 -7.079553e-02  9.075333e-01
     vertex -6.159526e-03 -6.754553e-02  9.075333e-01
   endloop
 endfacet
 facet normal  0.000000e+00 -0.000000e+00 -1.000000e+00
   outer loop
     vertex  2.340474e-03 -6.754553e-02  9.075333e-01
     vertex  5.590474e-03 -7.079553e-02  9.075333e-01
     vertex -9.409526e-03 -7.079553e-02  9.075333e-01
   endloop
 endfacet
 facet normal -0.000000e+00  0.000000e+00 -1.000000e+00
   outer loop
     vertex  5.590474e-03 -6.429553e-02  9.075333e-01
     vertex -6.159526e-03 -6.754553e-02  9.075333e-01
     vertex -9.409526e-03 -6.429553e-02  9.075333e-01
   endloop
 endfacet
 facet normal  0.000000e+00  0.000000e+00 -1.000000e+00
   outer loop
     vertex  5.590474e-03 -6.429553e-02  9.075333e-01
     vertex  2.340474e-03 -6.754553e-02  9.075333e-01
     vertex -6.159526e-03 -6.754553e-02  9.075333e-01
   endloop
 endfacet
 facet normal  0.000000e+00  0.000000e+00 -1.000000e+00
   outer loop
     vertex  8.840474e-03 -6.754553e-02  9.075333e-01
     vertex -1.159526e-03 -8.629553e-02  9.075333e-01
     vertex  5.590474e-03 -7.079553e-02  9.075333e-01
   endloop
 endfacet
 facet normal  0.000000e+00  0.000000e+00 -1.000000e+00
   outer loop
     vertex  8.234047e-02 -8.629553e-02  9.075333e-01
     vertex -1.159526e-03 -8.629553e-02  9.075333e-01
     vertex  8.840474e-03 -6.754553e-02  9.075333e-01
   endloop
 endfacet
 facet normal  0.000000e+00  0.000000e+00 -1.000000e+00
   outer loop
     vertex  8.309047e-02 -8.704553e-02  9.075333e-01
     vertex -1.909526e-03 -8.704553e-02  9.075333e-01
     vertex -1.159526e-03 -8.629553e-02  9.075333e-01
   endloop
 endfacet
 facet normal  0.000000e+00  0.000000e+00 -1.000000e+00
   outer loop
     vertex  8.309047e-02 -8.704553e-02  9.075333e-01
     vertex -1.159526e-03 -8.629553e-02  9.075333e-01
     vertex  8.234047e-02 -8.629553e-02  9.075333e-01
   endloop
 endfacet
 facet normal  0.000000e+00  0.000000e+00 -1.000000e+00
   outer loop
     vertex  8.309047e-02 -8.554553e-02  9.075333e-01
     vertex  8.840474e-03 -6.754553e-02  9.075333e-01
     vertex  5.590474e-03 -6.429553e-02  9.075333e-01
   endloop
 endfacet
 facet normal -0.000000e+00  0.000000e+00 -1.000000e+00
   outer loop
     vertex  8.309047e-02 -8.554553e-02  9.075333e-01
     vertex  8.234047e-02 -8.629553e-02  9.075333e-01
     vertex  8.840474e-03 -6.754553e-02  9.075333e-01
   endloop
 endfacet
 facet normal -0.000000e+00  0.000000e+00 -1.000000e+00
   outer loop
     vertex -8.690953e-02  8.795447e-02  9.075333e-01
     vertex -1.019095e-01 -8.879553e-02  9.075333e-01
     vertex -1.019095e-01  9.120447e-02  9.075333e-01
   endloop
 endfacet
 facet normal  0.000000e+00 -0.000000e+00 -1.000000e+00
   outer loop
     vertex -8.690953e-02  8.795447e-02  9.075333e-01
     vertex -8.690953e-02 -8.554553e-02  9.075333e-01
     vertex -1.019095e-01 -8.879553e-02  9.075333e-01
   endloop
 endfacet
 facet normal -0.000000e+00 -0.000000e+00 -1.000000e+00
   outer loop
     vertex -8.765953e-02  8.870447e-02  9.075333e-01
     vertex -8.690953e-02  8.795447e-02  9.075333e-01
     vertex -1.019095e-01  9.120447e-02  9.075333e-01
   endloop
 endfacet
 facet normal -0.000000e+00  0.000000e+00 -1.000000e+00
   outer loop
     vertex -8.690953e-02  8.945447e-02  9.075333e-01
     vertex -8.765953e-02  8.870447e-02  9.075333e-01
     vertex -1.019095e-01  9.120447e-02  9.075333e-01
   endloop
 endfacet
 facet normal  0.000000e+00  0.000000e+00 -1.000000e+00
   outer loop
     vertex  9.809047e-02 -8.879553e-02  9.075333e-01
     vertex  8.309047e-02 -8.704553e-02  9.075333e-01
     vertex  8.384047e-02 -8.629553e-02  9.075333e-01
   endloop
 endfacet
 facet normal  0.000000e+00  0.000000e+00 -1.000000e+00
   outer loop
     vertex  9.809047e-02 -8.879553e-02  9.075333e-01
     vertex  8.384047e-02 -8.629553e-02  9.075333e-01
     vertex  8.309047e-02 -8.554553e-02  9.075333e-01
   endloop
 endfacet
 facet normal  0.000000e+00  0.000000e+00 -1.000000e+00
   outer loop
     vertex  9.809047e-02 -8.879553e-02  9.075333e-01
     vertex -1.909526e-03 -8.704553e-02  9.075333e-01
     vertex  8.309047e-02 -8.704553e-02  9.075333e-01
   endloop
 endfacet
 facet normal -0.000000e+00  0.000000e+00 -1.000000e+00
   outer loop
     vertex -9.409526e-03  6.670447e-02  9.075333e-01
     vertex -8.690953e-02 -8.554553e-02  9.075333e-01
     vertex -8.690953e-02  8.795447e-02  9.075333e-01
   endloop
 endfacet
 facet normal  0.000000e+00 -0.000000e+00 -1.000000e+00
   outer loop
     vertex -9.409526e-03  6.670447e-02  9.075333e-01
     vertex -9.409526e-03 -6.429553e-02  9.075333e-01
     vertex -8.690953e-02 -8.554553e-02  9.075333e-01
   endloop
 endfacet
 facet normal  0.000000e+00  0.000000e+00 -1.000000e+00
   outer loop
     vertex -1.265953e-02  6.995447e-02  9.075333e-01
     vertex -8.690953e-02  8.795447e-02  9.075333e-01
     vertex -8.615953e-02  8.870447e-02  9.075333e-01
   endloop
 endfacet
 facet normal -0.000000e+00 -0.000000e+00 -1.000000e+00
   outer loop
     vertex -1.265953e-02  6.995447e-02  9.075333e-01
     vertex -9.409526e-03  6.670447e-02  9.075333e-01
     vertex -8.690953e-02  8.795447e-02  9.075333e-01
   endloop
 endfacet
 facet normal -0.000000e+00  0.000000e+00 -1.000000e+00
   outer loop
     vertex  5.590474e-03  6.670447e-02  9.075333e-01
     vertex -9.409526e-03 -6.429553e-02  9.075333e-01
     vertex -9.409526e-03  6.670447e-02  9.075333e-01
   endloop
 endfacet
 facet normal  0.000000e+00  0.000000e+00 -1.000000e+00
   outer loop
     vertex  5.590474e-03  6.670447e-02  9.075333e-01
     vertex -6.159526e-03  6.995447e-02  9.075333e-01
     vertex  2.340474e-03  6.995447e-02  9.075333e-01
   endloop
 endfacet
 facet normal  0.000000e+00  0.000000e+00 -1.000000e+00
   outer loop
     vertex  5.590474e-03  6.670447e-02  9.075333e-01
     vertex -9.409526e-03  6.670447e-02  9.075333e-01
     vertex -6.159526e-03  6.995447e-02  9.075333e-01
   endloop
 endfacet
 facet normal  0.000000e+00 -0.000000e+00 -1.000000e+00
   outer loop
     vertex  5.590474e-03  6.670447e-02  9.075333e-01
     vertex  5.590474e-03 -6.429553e-02  9.075333e-01
     vertex -9.409526e-03 -6.429553e-02  9.075333e-01
   endloop
 endfacet
 facet normal  0.000000e+00  0.000000e+00 -1.000000e+00
   outer loop
     vertex  5.590474e-03  7.320447e-02  9.075333e-01
     vertex  2.340474e-03  6.995447e-02  9.075333e-01
     vertex -6.159526e-03  6.995447e-02  9.075333e-01
   endloop
 endfacet
 facet normal -0.000000e+00  0.000000e+00 -1.000000e+00
   outer loop
     vertex  5.590474e-03  7.320447e-02  9.075333e-01
     vertex -6.159526e-03  6.995447e-02  9.075333e-01
     vertex -9.409526e-03  7.320447e-02  9.075333e-01
   endloop
 endfacet
 facet normal  0.000000e+00  0.000000e+00 -1.000000e+00
   outer loop
     vertex -2.659526e-03  8.870447e-02  9.075333e-01
     vertex -9.409526e-03  7.320447e-02  9.075333e-01
     vertex -1.265953e-02  6.995447e-02  9.075333e-01
   endloop
 endfacet
 facet normal -0.000000e+00  0.000000e+00 -1.000000e+00
   outer loop
     vertex -2.659526e-03  8.870447e-02  9.075333e-01
     vertex -1.265953e-02  6.995447e-02  9.075333e-01
     vertex -8.615953e-02  8.870447e-02  9.075333e-01
   endloop
 endfacet
 facet normal -0.000000e+00  0.000000e+00 -1.000000e+00
   outer loop
     vertex -1.909526e-03  8.795447e-02  9.075333e-01
     vertex -9.409526e-03  7.320447e-02  9.075333e-01
     vertex -2.659526e-03  8.870447e-02  9.075333e-01
   endloop
 endfacet
 facet normal  0.000000e+00 -0.000000e+00 -1.000000e+00
   outer loop
     vertex -1.909526e-03  8.795447e-02  9.075333e-01
     vertex  5.590474e-03  7.320447e-02  9.075333e-01
     vertex -9.409526e-03  7.320447e-02  9.075333e-01
   endloop
 endfacet
 facet normal -0.000000e+00  0.000000e+00 -1.000000e+00
   outer loop
     vertex -1.909526e-03  8.945447e-02  9.075333e-01
     vertex -8.615953e-02  8.870447e-02  9.075333e-01
     vertex -8.690953e-02  8.945447e-02  9.075333e-01
   endloop
 endfacet
 facet normal  0.000000e+00  0.000000e+00 -1.000000e+00
   outer loop
     vertex -1.909526e-03  8.945447e-02  9.075333e-01
     vertex -2.659526e-03  8.870447e-02  9.075333e-01
     vertex -8.615953e-02  8.870447e-02  9.075333e-01
   endloop
 endfacet
 facet normal  0.000000e+00 -0.000000e+00 -1.000000e+00
   outer loop
     vertex -1.159526e-03  8.870447e-02  9.075333e-01
     vertex  5.590474e-03  7.320447e-02  9.075333e-01
     vertex -1.909526e-03  8.795447e-02  9.075333e-01
   endloop
 endfacet
 facet normal  0.000000e+00  0.000000e+00 -1.000000e+00
   outer loop
     vertex -1.159526e-03  8.870447e-02  9.075333e-01
     vertex  8.840474e-03  6.995447e-02  9.075333e-01
     vertex  5.590474e-03  7.320447e-02  9.075333e-01
   endloop
 endfacet
 facet normal  0.000000e+00  0.000000e+00 -1.000000e+00
   outer loop
     vertex  8.309047e-02  8.795447e-02  9.075333e-01
     vertex  5.590474e-03 -6.429553e-02  9.075333e-01
     vertex  5.590474e-03  6.670447e-02  9.075333e-01
   endloop
 endfacet
 facet normal  0.000000e+00  0.000000e+00 -1.000000e+00
   outer loop
     vertex  8.309047e-02  8.795447e-02  9.075333e-01
     vertex  5.590474e-03  6.670447e-02  9.075333e-01
     vertex  8.840474e-03  6.995447e-02  9.075333e-01
   endloop
 endfacet
 facet normal  0.000000e+00 -0.000000e+00 -1.000000e+00
   outer loop
     vertex  8.309047e-02  8.795447e-02  9.075333e-01
     vertex  8.309047e-02 -8.554553e-02  9.075333e-01
     vertex  5.590474e-03 -6.429553e-02  9.075333e-01
   endloop
 endfacet
 facet normal -0.000000e+00  0.000000e+00 -1.000000e+00
   outer loop
     vertex  8.234047e-02  8.870447e-02  9.075333e-01
     vertex  8.840474e-03  6.995447e-02  9.075333e-01
     vertex -1.159526e-03  8.870447e-02  9.075333e-01
   endloop
 endfacet
 facet normal  0.000000e+00 -0.000000e+00 -1.000000e+00
   outer loop
     vertex  8.234047e-02  8.870447e-02  9.075333e-01
     vertex  8.309047e-02  8.795447e-02  9.075333e-01
     vertex  8.840474e-03  6.995447e-02  9.075333e-01
   endloop
 endfacet
 facet normal -0.000000e+00  0.000000e+00 -1.000000e+00
   outer loop
     vertex  8.309047e-02  8.945447e-02  9.075333e-01
     vertex -1.159526e-03  8.870447e-02  9.075333e-01
     vertex -1.909526e-03  8.945447e-02  9.075333e-01
   endloop
 endfacet
 facet normal  0.000000e+00  0.000000e+00 -1.000000e+00
   outer loop
     vertex  8.309047e-02  8.945447e-02  9.075333e-01
     vertex  8.234047e-02  8.870447e-02  9.075333e-01
     vertex -1.159526e-03  8.870447e-02  9.075333e-01
   endloop
 endfacet
 facet normal  0.000000e+00  0.000000e+00 -1.000000e+00
   outer loop
     vertex  9.809047e-02  9.120447e-02  9.075333e-01
     vertex  8.384047e-02  8.870447e-02  9.075333e-01
     vertex  8.309047e-02  8.945447e-02  9.075333e-01
   endloop
 endfacet
 facet normal  0.000000e+00  0.000000e+00 -1.000000e+00
   outer loop
     vertex  9.809047e-02  9.120447e-02  9.075333e-01
     vertex  8.309047e-02  8.795447e-02  9.075333e-01
     vertex  8.384047e-02  8.870447e-02  9.075333e-01
   endloop
 endfacet
 facet normal  0.000000e+00  0.000000e+00 -1.000000e+00
   outer loop
     vertex  9.809047e-02  9.120447e-02  9.075333e-01
     vertex  8.309047e-02 -8.554553e-02  9.075333e-01
     vertex  8.309047e-02  8.795447e-02  9.075333e-01
   endloop
 endfacet
 facet normal  0.000000e+00 -0.000000e+00 -1.000000e+00
   outer loop
     vertex  9.809047e-02  9.120447e-02  9.075333e-01
     vertex  9.809047e-02 -8.879553e-02  9.075333e-01
     vertex  8.309047e-02 -8.554553e-02  9.075333e-01
   endloop
 endfacet
 facet normal  0.000000e+00  0.000000e+00 -1.000000e+00
   outer loop
     vertex -1.019095e-01 -8.879553e-02  9.075333e-01
     vertex -1.909526e-03 -8.704553e-02  9.075333e-01
     vertex  9.809047e-02 -8.879553e-02  9.075333e-01
   endloop
 endfacet
 facet normal -0.000000e+00  0.000000e+00 -1.000000e+00
   outer loop
     vertex  9.809047e-02  9.120447e-02  9.075333e-01
     vertex -8.690953e-02  8.945447e-02  9.075333e-01
     vertex -1.019095e-01  9.120447e-02  9.075333e-01
   endloop
 endfacet
 facet normal  0.000000e+00  0.000000e+00 -1.000000e+00
   outer loop
     vertex  9.809047e-02  9.120447e-02  9.075333e-01
     vertex -1.909526e-03  8.945447e-02  9.075333e-01
     vertex -8.690953e-02  8.945447e-02  9.075333e-01
   endloop
 endfacet
 facet normal  0.000000e+00  0.000000e+00 -1.000000e+00
   outer loop
     vertex  9.809047e-02  9.120447e-02  9.075333e-01
     vertex  8.309047e-02  8.945447e-02  9.075333e-01
     vertex -1.909526e-03  8.945447e-02  9.075333e-01
   endloop
 endfacet
 facet normal -1.000000e+00  0.000000e+00 -0.000000e+00
   outer loop
     vertex -1.019095e-01 -8.879553e-02  9.175333e-01
     vertex -1.019095e-01  9.120447e-02  9.075333e-01
     vertex -1.019095e-01 -8.879553e-02  9.075333e-01
   endloop
 endfacet
 facet normal -1.000000e+00  0.000000e+00  0.000000e+00
   outer loop
     vertex -1.019095e-01 -8.879553e-02  9.175333e-01
     vertex -1.019095e-01  9.120447e-02  9.175333e-01
     vertex -1.019095e-01  9.120447e-02  9.075333e-01
   endloop
 endfacet
 facet normal  0.000000e+00  1.000000e+00 -2.220446e-14
   outer loop
     vertex -1.019095e-01  9.120447e-02  9.175333e-01
     vertex  9.809047e-02  9.120447e-02  9.075333e-01
     vertex -1.019095e-01  9.120447e-02  9.075333e-01
   endloop
 endfacet
 facet normal  0.000000e+00  1.000000e+00 -2.220446e-14
   outer loop
     vertex -1.019095e-01  9.120447e-02  9.175333e-01
     vertex  9.809047e-02  9.120447e-02  9.175333e-01
     vertex  9.809047e-02  9.120447e-02  9.075333e-01
   endloop
 endfacet
 facet normal  1.000000e+00  0.000000e+00  0.000000e+00
   outer loop
     vertex  9.809047e-02  9.120447e-02  9.175333e-01
     vertex  9.809047e-02 -8.879553e-02  9.075333e-01
     vertex  9.809047e-02  9.120447e-02  9.075333e-01
   endloop
 endfacet
 facet normal  1.000000e+00  0.000000e+00  0.000000e+00
   outer loop
     vertex  9.809047e-02  9.120447e-02  9.175333e-01
     vertex  9.809047e-02 -8.879553e-02  9.175333e-01
     vertex  9.809047e-02 -8.879553e-02  9.075333e-01
   endloop
 endfacet
 facet normal  0.000000e+00 -1.000000e+00  2.220446e-14
   outer loop
     vertex  9.809047e-02 -8.879553e-02  9.175333e-01
     vertex -1.019095e-01 -8.879553e-02  9.075333e-01
     vertex  9.809047e-02 -8.879553e-02  9.075333e-01
   endloop
 endfacet
 facet normal  0.000000e+00 -1.000000e+00  2.220446e-14
   outer loop
     vertex  9.809047e-02 -8.879553e-02  9.175333e-01
     vertex -1.019095e-01 -8.879553e-02  9.175333e-01
     vertex -1.019095e-01 -8.879553e-02  9.075333e-01
   endloop
 endfacet
 facet normal  0.000000e+00  0.000000e+00  1.000000e+00
   outer loop
     vertex -8.690953e-02 -8.704553e-02  9.175333e-01
     vertex -8.765953e-02 -8.629553e-02  9.175333e-01
     vertex -1.019095e-01 -8.879553e-02  9.175333e-01
   endloop
 endfacet
 facet normal  0.000000e+00  0.000000e+00  1.000000e+00
   outer loop
     vertex -8.690953e-02 -8.554553e-02  9.175333e-01
     vertex -1.019095e-01 -8.879553e-02  9.175333e-01
     vertex -8.765953e-02 -8.629553e-02  9.175333e-01
   endloop
 endfacet
 facet normal  0.000000e+00  0.000000e+00  1.000000e+00
   outer loop
     vertex -9.440953e-02 -1.379553e-02  9.175333e-01
     vertex -1.019095e-01 -8.879553e-02  9.175333e-01
     vertex -8.690953e-02 -8.554553e-02  9.175333e-01
   endloop
 endfacet
 facet normal  0.000000e+00  0.000000e+00  1.000000e+00
   outer loop
     vertex -1.909526e-03 -8.704553e-02  9.175333e-01
     vertex -8.690953e-02 -8.704553e-02  9.175333e-01
     vertex -1.019095e-01 -8.879553e-02  9.175333e-01
   endloop
 endfacet
 facet normal  0.000000e+00  0.000000e+00  1.000000e+00
   outer loop
     vertex -2.659526e-03 -8.629553e-02  9.175333e-01
     vertex -8.615953e-02 -8.629553e-02  9.175333e-01
     vertex -8.690953e-02 -8.704553e-02  9.175333e-01
   endloop
 endfacet
 facet normal  0.000000e+00  0.000000e+00  1.000000e+00
   outer loop
     vertex -2.659526e-03 -8.629553e-02  9.175333e-01
     vertex -8.690953e-02 -8.704553e-02  9.175333e-01
     vertex -1.909526e-03 -8.704553e-02  9.175333e-01
   endloop
 endfacet
 facet normal  0.000000e+00  0.000000e+00  1.000000e+00
   outer loop
     vertex -9.409526e-03 -6.914553e-02  9.175333e-01
     vertex -2.659526e-03 -8.629553e-02  9.175333e-01
     vertex -1.909526e-03 -8.554553e-02  9.175333e-01
   endloop
 endfacet
 facet normal  0.000000e+00  0.000000e+00  1.000000e+00
   outer loop
     vertex -1.100953e-02 -6.754553e-02  9.175333e-01
     vertex -8.690953e-02 -8.554553e-02  9.175333e-01
     vertex -8.615953e-02 -8.629553e-02  9.175333e-01
   endloop
 endfacet
 facet normal  0.000000e+00  0.000000e+00  1.000000e+00
   outer loop
     vertex -1.100953e-02 -6.754553e-02  9.175333e-01
     vertex -9.440953e-02 -1.379553e-02  9.175333e-01
     vertex -8.690953e-02 -8.554553e-02  9.175333e-01
   endloop
 endfacet
 facet normal  0.000000e+00  0.000000e+00  1.000000e+00
   outer loop
     vertex -1.100953e-02 -6.754553e-02  9.175333e-01
     vertex -2.659526e-03 -8.629553e-02  9.175333e-01
     vertex -9.409526e-03 -6.914553e-02  9.175333e-01
   endloop
 endfacet
 facet normal  0.000000e+00  0.000000e+00  1.000000e+00
   outer loop
     vertex -1.100953e-02 -6.754553e-02  9.175333e-01
     vertex -8.615953e-02 -8.629553e-02  9.175333e-01
     vertex -2.659526e-03 -8.629553e-02  9.175333e-01
   endloop
 endfacet
 facet normal  0.000000e+00  0.000000e+00  1.000000e+00
   outer loop
     vertex -9.409526e-03 -6.594553e-02  9.175333e-01
     vertex -9.440953e-02 -1.379553e-02  9.175333e-01
     vertex -1.100953e-02 -6.754553e-02  9.175333e-01
   endloop
 endfacet
 facet normal  0.000000e+00  0.000000e+00  1.000000e+00
   outer loop
     vertex  5.590474e-03 -6.914553e-02  9.175333e-01
     vertex -1.909526e-03 -8.554553e-02  9.175333e-01
     vertex -1.159526e-03 -8.629553e-02  9.175333e-01
   endloop
 endfacet
 facet normal  0.000000e+00  0.000000e+00  1.000000e+00
   outer loop
     vertex  5.590474e-03 -6.914553e-02  9.175333e-01
     vertex -7.809526e-03 -6.754553e-02  9.175333e-01
     vertex -9.409526e-03 -6.914553e-02  9.175333e-01
   endloop
 endfacet
 facet normal  0.000000e+00  0.000000e+00  1.000000e+00
   outer loop
     vertex  5.590474e-03 -6.914553e-02  9.175333e-01
     vertex  3.990474e-03 -6.754553e-02  9.175333e-01
     vertex -7.809526e-03 -6.754553e-02  9.175333e-01
   endloop
 endfacet
 facet normal  0.000000e+00  0.000000e+00  1.000000e+00
   outer loop
     vertex  5.590474e-03 -6.914553e-02  9.175333e-01
     vertex -9.409526e-03 -6.914553e-02  9.175333e-01
     vertex -1.909526e-03 -8.554553e-02  9.175333e-01
   endloop
 endfacet
 facet normal  0.000000e+00  0.000000e+00  1.000000e+00
   outer loop
     vertex  7.190474e-03 -6.754553e-02  9.175333e-01
     vertex  5.590474e-03 -6.914553e-02  9.175333e-01
     vertex -1.159526e-03 -8.629553e-02  9.175333e-01
   endloop
 endfacet
 facet normal  0.000000e+00  0.000000e+00  1.000000e+00
   outer loop
     vertex  5.590474e-03 -6.594553e-02  9.175333e-01
     vertex -9.409526e-03 -6.594553e-02  9.175333e-01
     vertex -7.809526e-03 -6.754553e-02  9.175333e-01
   endloop
 endfacet
 facet normal  0.000000e+00  0.000000e+00  1.000000e+00
   outer loop
     vertex  5.590474e-03 -6.594553e-02  9.175333e-01
     vertex -7.809526e-03 -6.754553e-02  9.175333e-01
     vertex  3.990474e-03 -6.754553e-02  9.175333e-01
   endloop
 endfacet
 facet normal  0.000000e+00  0.000000e+00  1.000000e+00
   outer loop
     vertex  8.234047e-02 -8.629553e-02  9.175333e-01
     vertex  7.190474e-03 -6.754553e-02  9.175333e-01
     vertex -1.159526e-03 -8.629553e-02  9.175333e-01
   endloop
 endfacet
 facet normal  0.000000e+00  0.000000e+00  1.000000e+00
   outer loop
     vertex  8.309047e-02 -8.704553e-02  9.175333e-01
     vertex -1.159526e-03 -8.629553e-02  9.175333e-01
     vertex -1.909526e-03 -8.704553e-02  9.175333e-01
   endloop
 endfacet
 facet normal  0.000000e+00  0.000000e+00  1.000000e+00
   outer loop
     vertex  8.309047e-02 -8.704553e-02  9.175333e-01
     vertex  8.234047e-02 -8.629553e-02  9.175333e-01
     vertex -1.159526e-03 -8.629553e-02  9.175333e-01
   endloop
 endfacet
 facet normal  0.000000e+00  0.000000e+00  1.000000e+00
   outer loop
     vertex  8.309047e-02 -8.554553e-02  9.175333e-01
     vertex  7.190474e-03 -6.754553e-02  9.175333e-01
     vertex  8.234047e-02 -8.629553e-02  9.175333e-01
   endloop
 endfacet
 facet normal  0.000000e+00  0.000000e+00  1.000000e+00
   outer loop
     vertex -8.690953e-02  8.795447e-02  9.175333e-01
     vertex -8.765953e-02  8.870447e-02  9.175333e-01
     vertex -1.019095e-01  9.120447e-02  9.175333e-01
   endloop
 endfacet
 facet normal  0.000000e+00  0.000000e+00  1.000000e+00
   outer loop
     vertex -8.690953e-02  8.795447e-02  9.175333e-01
     vertex -1.019095e-01  9.120447e-02  9.175333e-01
     vertex -9.440953e-02  1.620447e-02  9.175333e-01
   endloop
 endfacet
 facet normal  0.000000e+00  0.000000e+00  1.000000e+00
   outer loop
     vertex -8.690953e-02  8.945447e-02  9.175333e-01
     vertex -1.019095e-01  9.120447e-02  9.175333e-01
     vertex -8.765953e-02  8.870447e-02  9.175333e-01
   endloop
 endfacet
 facet normal  0.000000e+00  0.000000e+00  1.000000e+00
   outer loop
     vertex  9.809047e-02 -8.879553e-02  9.175333e-01
     vertex  8.384047e-02 -8.629553e-02  9.175333e-01
     vertex  8.309047e-02 -8.704553e-02  9.175333e-01
   endloop
 endfacet
 facet normal  0.000000e+00  0.000000e+00  1.000000e+00
   outer loop
     vertex  9.809047e-02 -8.879553e-02  9.175333e-01
     vertex  8.309047e-02 -8.554553e-02  9.175333e-01
     vertex  8.384047e-02 -8.629553e-02  9.175333e-01
   endloop
 endfacet
 facet normal  0.000000e+00  0.000000e+00  1.000000e+00
   outer loop
     vertex  9.809047e-02 -8.879553e-02  9.175333e-01
     vertex  8.309047e-02 -8.704553e-02  9.175333e-01
     vertex -1.909526e-03 -8.704553e-02  9.175333e-01
   endloop
 endfacet
 facet normal  0.000000e+00  0.000000e+00  1.000000e+00
   outer loop
     vertex -1.100953e-02  6.995447e-02  9.175333e-01
     vertex -8.690953e-02  8.795447e-02  9.175333e-01
     vertex -9.440953e-02  1.620447e-02  9.175333e-01
   endloop
 endfacet
 facet normal  0.000000e+00  0.000000e+00  1.000000e+00
   outer loop
     vertex -1.100953e-02  6.995447e-02  9.175333e-01
     vertex -8.615953e-02  8.870447e-02  9.175333e-01
     vertex -8.690953e-02  8.795447e-02  9.175333e-01
   endloop
 endfacet
 facet normal  0.000000e+00  0.000000e+00  1.000000e+00
   outer loop
     vertex -9.409526e-03  6.835447e-02  9.175333e-01
     vertex -1.100953e-02  6.995447e-02  9.175333e-01
     vertex -9.440953e-02  1.620447e-02  9.175333e-01
   endloop
 endfacet
 facet normal  0.000000e+00  0.000000e+00  1.000000e+00
   outer loop
     vertex  5.590474e-03  6.835447e-02  9.175333e-01
     vertex  3.990474e-03  6.995447e-02  9.175333e-01
     vertex -7.809526e-03  6.995447e-02  9.175333e-01
   endloop
 endfacet
 facet normal  0.000000e+00  0.000000e+00  1.000000e+00
   outer loop
     vertex  5.590474e-03  6.835447e-02  9.175333e-01
     vertex -7.809526e-03  6.995447e-02  9.175333e-01
     vertex -9.409526e-03  6.835447e-02  9.175333e-01
   endloop
 endfacet
 facet normal  0.000000e+00  0.000000e+00  1.000000e+00
   outer loop
     vertex  9.059047e-02 -1.379553e-02  9.175333e-01
     vertex  5.590474e-03 -6.594553e-02  9.175333e-01
     vertex  7.190474e-03 -6.754553e-02  9.175333e-01
   endloop
 endfacet
 facet normal  0.000000e+00  0.000000e+00  1.000000e+00
   outer loop
     vertex  9.059047e-02 -1.379553e-02  9.175333e-01
     vertex  7.190474e-03 -6.754553e-02  9.175333e-01
     vertex  8.309047e-02 -8.554553e-02  9.175333e-01
   endloop
 endfacet
 facet normal  0.000000e+00  0.000000e+00  1.000000e+00
   outer loop
     vertex  9.059047e-02 -1.379553e-02  9.175333e-01
     vertex  8.309047e-02 -8.554553e-02  9.175333e-01
     vertex  9.809047e-02 -8.879553e-02  9.175333e-01
   endloop
 endfacet
 facet normal  0.000000e+00  0.000000e+00  1.000000e+00
   outer loop
     vertex  5.590474e-03  7.155447e-02  9.175333e-01
     vertex -7.809526e-03  6.995447e-02  9.175333e-01
     vertex  3.990474e-03  6.995447e-02  9.175333e-01
   endloop
 endfacet
 facet normal  0.000000e+00  0.000000e+00  1.000000e+00
   outer loop
     vertex  5.590474e-03  7.155447e-02  9.175333e-01
     vertex -9.409526e-03  7.155447e-02  9.175333e-01
     vertex -7.809526e-03  6.995447e-02  9.175333e-01
   endloop
 endfacet
 facet normal  0.000000e+00  0.000000e+00  1.000000e+00
   outer loop
     vertex -1.909526e-03  8.795447e-02  9.175333e-01
     vertex -9.409526e-03  7.155447e-02  9.175333e-01
     vertex  5.590474e-03  7.155447e-02  9.175333e-01
   endloop
 endfacet
 facet normal  0.000000e+00  0.000000e+00  1.000000e+00
   outer loop
     vertex -2.659526e-03  8.870447e-02  9.175333e-01
     vertex -8.615953e-02  8.870447e-02  9.175333e-01
     vertex -1.100953e-02  6.995447e-02  9.175333e-01
   endloop
 endfacet
 facet normal  0.000000e+00  0.000000e+00  1.000000e+00
   outer loop
     vertex -2.659526e-03  8.870447e-02  9.175333e-01
     vertex -9.409526e-03  7.155447e-02  9.175333e-01
     vertex -1.909526e-03  8.795447e-02  9.175333e-01
   endloop
 endfacet
 facet normal  0.000000e+00  0.000000e+00  1.000000e+00
   outer loop
     vertex -2.659526e-03  8.870447e-02  9.175333e-01
     vertex -1.100953e-02  6.995447e-02  9.175333e-01
     vertex -9.409526e-03  7.155447e-02  9.175333e-01
   endloop
 endfacet
 facet normal  0.000000e+00  0.000000e+00  1.000000e+00
   outer loop
     vertex -1.909526e-03  8.945447e-02  9.175333e-01
     vertex -8.690953e-02  8.945447e-02  9.175333e-01
     vertex -8.615953e-02  8.870447e-02  9.175333e-01
   endloop
 endfacet
 facet normal  0.000000e+00  0.000000e+00  1.000000e+00
   outer loop
     vertex -1.909526e-03  8.945447e-02  9.175333e-01
     vertex -8.615953e-02  8.870447e-02  9.175333e-01
     vertex -2.659526e-03  8.870447e-02  9.175333e-01
   endloop
 endfacet
 facet normal  0.000000e+00  0.000000e+00  1.000000e+00
   outer loop
     vertex -1.159526e-03  8.870447e-02  9.175333e-01
     vertex -1.909526e-03  8.795447e-02  9.175333e-01
     vertex  5.590474e-03  7.155447e-02  9.175333e-01
   endloop
 endfacet
 facet normal  0.000000e+00  0.000000e+00  1.000000e+00
   outer loop
     vertex -1.159526e-03  8.870447e-02  9.175333e-01
     vertex  5.590474e-03  7.155447e-02  9.175333e-01
     vertex  7.190474e-03  6.995447e-02  9.175333e-01
   endloop
 endfacet
 facet normal  0.000000e+00  0.000000e+00  1.000000e+00
   outer loop
     vertex  9.059047e-02  1.620447e-02  9.175333e-01
     vertex  7.190474e-03  6.995447e-02  9.175333e-01
     vertex  5.590474e-03  6.835447e-02  9.175333e-01
   endloop
 endfacet
 facet normal  0.000000e+00  0.000000e+00  1.000000e+00
   outer loop
     vertex  8.234047e-02  8.870447e-02  9.175333e-01
     vertex -1.159526e-03  8.870447e-02  9.175333e-01
     vertex  7.190474e-03  6.995447e-02  9.175333e-01
   endloop
 endfacet
 facet normal  0.000000e+00  0.000000e+00  1.000000e+00
   outer loop
     vertex  8.309047e-02  8.795447e-02  9.175333e-01
     vertex  7.190474e-03  6.995447e-02  9.175333e-01
     vertex  9.059047e-02  1.620447e-02  9.175333e-01
   endloop
 endfacet
 facet normal  0.000000e+00  0.000000e+00  1.000000e+00
   outer loop
     vertex  8.309047e-02  8.795447e-02  9.175333e-01
     vertex  8.234047e-02  8.870447e-02  9.175333e-01
     vertex  7.190474e-03  6.995447e-02  9.175333e-01
   endloop
 endfacet
 facet normal  0.000000e+00  0.000000e+00  1.000000e+00
   outer loop
     vertex  8.309047e-02  8.945447e-02  9.175333e-01
     vertex -1.909526e-03  8.945447e-02  9.175333e-01
     vertex -1.159526e-03  8.870447e-02  9.175333e-01
   endloop
 endfacet
 facet normal  0.000000e+00  0.000000e+00  1.000000e+00
   outer loop
     vertex  8.309047e-02  8.945447e-02  9.175333e-01
     vertex -1.159526e-03  8.870447e-02  9.175333e-01
     vertex  8.234047e-02  8.870447e-02  9.175333e-01
   endloop
 endfacet
 facet normal  0.000000e+00  0.000000e+00  1.000000e+00
   outer loop
     vertex  9.809047e-02  9.120447e-02  9.175333e-01
     vertex  8.309047e-02  8.945447e-02  9.175333e-01
     vertex  8.384047e-02  8.870447e-02  9.175333e-01
   endloop
 endfacet
 facet normal  0.000000e+00  0.000000e+00  1.000000e+00
   outer loop
     vertex  9.809047e-02  9.120447e-02  9.175333e-01
     vertex  8.384047e-02  8.870447e-02  9.175333e-01
     vertex  8.309047e-02  8.795447e-02  9.175333e-01
   endloop
 endfacet
 facet normal  0.000000e+00  0.000000e+00  1.000000e+00
   outer loop
     vertex  9.809047e-02  9.120447e-02  9.175333e-01
     vertex  8.309047e-02  8.795447e-02  9.175333e-01
     vertex  9.059047e-02  1.620447e-02  9.175333e-01
   endloop
 endfacet
 facet normal  0.000000e+00  0.000000e+00  1.000000e+00
   outer loop
     vertex -1.019095e-01  9.120447e-02  9.175333e-01
     vertex -1.019095e-01 -8.879553e-02  9.175333e-01
     vertex -9.440953e-02 -1.379553e-02  9.175333e-01
   endloop
 endfacet
 facet normal  0.000000e+00  0.000000e+00  1.000000e+00
   outer loop
     vertex -1.019095e-01  9.120447e-02  9.175333e-01
     vertex -9.440953e-02 -1.379553e-02  9.175333e-01
     vertex -9.440953e-02  1.620447e-02  9.175333e-01
   endloop
 endfacet
 facet normal  0.000000e+00  0.000000e+00  1.000000e+00
   outer loop
     vertex -1.019095e-01 -8.879553e-02  9.175333e-01
     vertex  9.809047e-02 -8.879553e-02  9.175333e-01
     vertex -1.909526e-03 -8.704553e-02  9.175333e-01
   endloop
 endfacet
 facet normal  0.000000e+00 -0.000000e+00  1.000000e+00
   outer loop
     vertex  9.809047e-02 -8.879553e-02  9.175333e-01
     vertex  9.809047e-02  9.120447e-02  9.175333e-01
     vertex  9.059047e-02  1.620447e-02  9.175333e-01
   endloop
 endfacet
 facet normal  0.000000e+00  0.000000e+00  1.000000e+00
   outer loop
     vertex  9.809047e-02 -8.879553e-02  9.175333e-01
     vertex  9.059047e-02  1.620447e-02  9.175333e-01
     vertex  9.059047e-02 -1.379553e-02  9.175333e-01
   endloop
 endfacet
 facet normal  0.000000e+00  0.000000e+00  1.000000e+00
   outer loop
     vertex  9.809047e-02  9.120447e-02  9.175333e-01
     vertex -1.019095e-01  9.120447e-02  9.175333e-01
     vertex -8.690953e-02  8.945447e-02  9.175333e-01
   endloop
 endfacet
 facet normal  0.000000e+00  0.000000e+00  1.000000e+00
   outer loop
     vertex  9.809047e-02  9.120447e-02  9.175333e-01
     vertex -8.690953e-02  8.945447e-02  9.175333e-01
     vertex -1.909526e-03  8.945447e-02  9.175333e-01
   endloop
 endfacet
 facet normal  0.000000e+00  0.000000e+00  1.000000e+00
   outer loop
     vertex  9.809047e-02  9.120447e-02  9.175333e-01
     vertex -1.909526e-03  8.945447e-02  9.175333e-01
     vertex  8.309047e-02  8.945447e-02  9.175333e-01
   endloop
 endfacet
 facet normal  0.000000e+00  0.000000e+00  1.000000e+00
   outer loop
     vertex  9.059047e-02 -1.379553e-02  9.175333e-01
     vertex -9.440953e-02 -1.379553e-02  9.175333e-01
     vertex -9.409526e-03 -6.594553e-02  9.175333e-01
   endloop
 endfacet
 facet normal  0.000000e+00  0.000000e+00  1.000000e+00
   outer loop
     vertex  9.059047e-02 -1.379553e-02  9.175333e-01
     vertex -9.409526e-03 -6.594553e-02  9.175333e-01
     vertex  5.590474e-03 -6.594553e-02  9.175333e-01
   endloop
 endfacet
 facet normal  0.000000e+00  0.000000e+00  1.000000e+00
   outer loop
     vertex -9.440953e-02  1.620447e-02  9.175333e-01
     vertex  9.059047e-02  1.620447e-02  9.175333e-01
     vertex  5.590474e-03  6.835447e-02  9.175333e-01
   endloop
 endfacet
 facet normal  0.000000e+00  0.000000e+00  1.000000e+00
   outer loop
     vertex -9.440953e-02  1.620447e-02  9.175333e-01
     vertex  5.590474e-03  6.835447e-02  9.175333e-01
     vertex -9.409526e-03  6.835447e-02  9.175333e-01
   endloop
 endfacet
 facet normal  0.000000e+00 -1.000000e+00 -0.000000e+00
   outer loop
     vertex  9.059047e-02 -1.379553e-02  9.185333e-01
     vertex -9.440953e-02 -1.379553e-02  9.175333e-01
     vertex  9.059047e-02 -1.379553e-02  9.175333e-01
   endloop
 endfacet
 facet normal -0.000000e+00 -1.000000e+00  0.000000e+00
   outer loop
     vertex  9.059047e-02 -1.379553e-02  9.185333e-01
     vertex -9.440953e-02 -1.379553e-02  9.185333e-01
     vertex -9.440953e-02 -1.379553e-02  9.175333e-01
   endloop
 endfacet
 facet normal -1.000000e+00  0.000000e+00  0.000000e+00
   outer loop
     vertex -9.440953e-02 -1.379553e-02  9.185333e-01
     vertex -9.440953e-02  1.620447e-02  9.185333e-01
     vertex -9.440953e-02  1.620447e-02  9.175333e-01
   endloop
 endfacet
 facet normal -1.000000e+00  0.000000e+00  0.000000e+00
   outer loop
     vertex -9.440953e-02 -1.379553e-02  9.185333e-01
     vertex -9.440953e-02  1.620447e-02  9.175333e-01
     vertex -9.440953e-02 -1.379553e-02  9.175333e-01
   endloop
 endfacet
 facet normal  0.000000e+00  1.000000e+00  0.000000e+00
   outer loop
     vertex -9.440953e-02  1.620447e-02  9.185333e-01
     vertex  9.059047e-02  1.620447e-02  9.175333e-01
     vertex -9.440953e-02  1.620447e-02  9.175333e-01
   endloop
 endfacet
 facet normal -0.000000e+00  1.000000e+00  0.000000e+00
   outer loop
     vertex -9.440953e-02  1.620447e-02  9.185333e-01
     vertex  9.059047e-02  1.620447e-02  9.185333e-01
     vertex  9.059047e-02  1.620447e-02  9.175333e-01
   endloop
 endfacet
 facet normal  1.000000e+00  0.000000e+00  0.000000e+00
   outer loop
     vertex  9.059047e-02  1.620447e-02  9.185333e-01
     vertex  9.059047e-02 -1.379553e-02  9.175333e-01
     vertex  9.059047e-02  1.620447e-02  9.175333e-01
   endloop
 endfacet
 facet normal  1.000000e+00  0.000000e+00  0.000000e+00
   outer loop
     vertex  9.059047e-02  1.620447e-02  9.185333e-01
     vertex  9.059047e-02 -1.379553e-02  9.185333e-01
     vertex  9.059047e-02 -1.379553e-02  9.175333e-01
   endloop
 endfacet
 facet normal  0.000000e+00  0.000000e+00  1.000000e+00
   outer loop
     vertex  9.059047e-02  1.620447e-02  9.185333e-01
     vertex -9.440953e-02  1.620447e-02  9.185333e-01
     vertex -9.440953e-02 -1.379553e-02  9.185333e-01
   endloop
 endfacet
 facet normal  0.000000e+00  0.000000e+00  1.000000e+00
   outer loop
     vertex  9.059047e-02  1.620447e-02  9.185333e-01
     vertex -9.440953e-02 -1.379553e-02  9.185333e-01
     vertex  9.059047e-02 -1.379553e-02  9.185333e-01
   endloop
 endfacet
 facet normal  7.071068e-01 -7.071068e-01  1.569230e-14
   outer loop
     vertex -8.690953e-02  8.945447e-02  9.075333e-01
     vertex -8.765953e-02  8.870447e-02  9.175333e-01
     vertex -8.765953e-02  8.870447e-02  9.075333e-01
   endloop
 endfacet
 facet normal  7.071068e-01 -7.071068e-01  1.570092e-14
   outer loop
     vertex -8.690953e-02  8.945447e-02  9.075333e-01
     vertex -8.690953e-02  8.945447e-02  9.175333e-01
     vertex -8.765953e-02  8.870447e-02  9.175333e-01
   endloop
 endfacet
 facet normal -7.071068e-01 -7.071068e-01  1.570092e-14
   outer loop
     vertex -8.615953e-02  8.870447e-02  9.075333e-01
     vertex -8.615953e-02  8.870447e-02  9.175333e-01
     vertex -8.690953e-02  8.945447e-02  9.175333e-01
   endloop
 endfacet
 facet normal -7.071068e-01 -7.071068e-01  1.569230e-14
   outer loop
     vertex -8.615953e-02  8.870447e-02  9.075333e-01
     vertex -8.690953e-02  8.945447e-02  9.175333e-01
     vertex -8.690953e-02  8.945447e-02  9.075333e-01
   endloop
 endfacet
 facet normal -7.071068e-01  7.071068e-01 -1.570092e-14
   outer loop
     vertex -8.690953e-02  8.795447e-02  9.075333e-01
     vertex -8.690953e-02  8.795447e-02  9.175333e-01
     vertex -8.615953e-02  8.870447e-02  9.175333e-01
   endloop
 endfacet
 facet normal -7.071068e-01  7.071068e-01 -1.569230e-14
   outer loop
     vertex -8.690953e-02  8.795447e-02  9.075333e-01
     vertex -8.615953e-02  8.870447e-02  9.175333e-01
     vertex -8.615953e-02  8.870447e-02  9.075333e-01
   endloop
 endfacet
 facet normal  7.071068e-01  7.071068e-01 -1.570092e-14
   outer loop
     vertex -8.765953e-02  8.870447e-02  9.075333e-01
     vertex -8.765953e-02  8.870447e-02  9.175333e-01
     vertex -8.690953e-02  8.795447e-02  9.175333e-01
   endloop
 endfacet
 facet normal  7.071068e-01  7.071068e-01 -1.569230e-14
   outer loop
     vertex -8.765953e-02  8.870447e-02  9.075333e-01
     vertex -8.690953e-02  8.795447e-02  9.175333e-01
     vertex -8.690953e-02  8.795447e-02  9.075333e-01
   endloop
 endfacet
 facet normal  7.071068e-01 -7.071068e-01  1.570228e-14
   outer loop
     vertex -1.909526e-03  8.945447e-02  9.075333e-01
     vertex -2.659526e-03  8.870447e-02  9.175333e-01
     vertex -2.659526e-03  8.870447e-02  9.075333e-01
   endloop
 endfacet
 facet normal  7.071068e-01 -7.071068e-01  1.570092e-14
   outer loop
     vertex -1.909526e-03  8.945447e-02  9.075333e-01
     vertex -1.909526e-03  8.945447e-02  9.175333e-01
     vertex -2.659526e-03  8.870447e-02  9.175333e-01
   endloop
 endfacet
 facet normal -7.071068e-01 -7.071068e-01  1.570092e-14
   outer loop
     vertex -1.159526e-03  8.870447e-02  9.075333e-01
     vertex -1.159526e-03  8.870447e-02  9.175333e-01
     vertex -1.909526e-03  8.945447e-02  9.175333e-01
   endloop
 endfacet
 facet normal -7.071068e-01 -7.071068e-01  1.569230e-14
   outer loop
     vertex -1.159526e-03  8.870447e-02  9.075333e-01
     vertex -1.909526e-03  8.945447e-02  9.175333e-01
     vertex -1.909526e-03  8.945447e-02  9.075333e-01
   endloop
 endfacet
 facet normal -7.071068e-01  7.071068e-01 -1.570092e-14
   outer loop
     vertex -1.909526e-03  8.795447e-02  9.075333e-01
     vertex -1.909526e-03  8.795447e-02  9.175333e-01
     vertex -1.159526e-03  8.870447e-02  9.175333e-01
   endloop
 endfacet
 facet normal -7.071068e-01  7.071068e-01 -1.569230e-14
   outer loop
     vertex -1.909526e-03  8.795447e-02  9.075333e-01
     vertex -1.159526e-03  8.870447e-02  9.175333e-01
     vertex -1.159526e-03  8.870447e-02  9.075333e-01
   endloop
 endfacet
 facet normal  7.071068e-01  7.071068e-01 -1.570092e-14
   outer loop
     vertex -2.659526e-03  8.870447e-02  9.075333e-01
     vertex -2.659526e-03  8.870447e-02  9.175333e-01
     vertex -1.909526e-03  8.795447e-02  9.175333e-01
   endloop
 endfacet
 facet normal  7.071068e-01  7.071068e-01 -1.570228e-14
   outer loop
     vertex -2.659526e-03  8.870447e-02  9.075333e-01
     vertex -1.909526e-03  8.795447e-02  9.175333e-01
     vertex -1.909526e-03  8.795447e-02  9.075333e-01
   endloop
 endfacet
 facet normal  7.071068e-01 -7.071068e-01  1.570228e-14
   outer loop
     vertex  8.309047e-02  8.945447e-02  9.075333e-01
     vertex  8.234047e-02  8.870447e-02  9.175333e-01
     vertex  8.234047e-02  8.870447e-02  9.075333e-01
   endloop
 endfacet
 facet normal  7.071068e-01 -7.071068e-01  1.570092e-14
   outer loop
     vertex  8.309047e-02  8.945447e-02  9.075333e-01
     vertex  8.309047e-02  8.945447e-02  9.175333e-01
     vertex  8.234047e-02  8.870447e-02  9.175333e-01
   endloop
 endfacet
 facet normal -7.071068e-01 -7.071068e-01  1.570092e-14
   outer loop
     vertex  8.384047e-02  8.870447e-02  9.075333e-01
     vertex  8.384047e-02  8.870447e-02  9.175333e-01
     vertex  8.309047e-02  8.945447e-02  9.175333e-01
   endloop
 endfacet
 facet normal -7.071068e-01 -7.071068e-01  1.569230e-14
   outer loop
     vertex  8.384047e-02  8.870447e-02  9.075333e-01
     vertex  8.309047e-02  8.945447e-02  9.175333e-01
     vertex  8.309047e-02  8.945447e-02  9.075333e-01
   endloop
 endfacet
 facet normal -7.071068e-01  7.071068e-01 -1.570092e-14
   outer loop
     vertex  8.309047e-02  8.795447e-02  9.075333e-01
     vertex  8.309047e-02  8.795447e-02  9.175333e-01
     vertex  8.384047e-02  8.870447e-02  9.175333e-01
   endloop
 endfacet
 facet normal -7.071068e-01  7.071068e-01 -1.569230e-14
   outer loop
     vertex  8.309047e-02  8.795447e-02  9.075333e-01
     vertex  8.384047e-02  8.870447e-02  9.175333e-01
     vertex  8.384047e-02  8.870447e-02  9.075333e-01
   endloop
 endfacet
 facet normal  7.071068e-01  7.071068e-01 -1.570092e-14
   outer loop
     vertex  8.234047e-02  8.870447e-02  9.075333e-01
     vertex  8.234047e-02  8.870447e-02  9.175333e-01
     vertex  8.309047e-02  8.795447e-02  9.175333e-01
   endloop
 endfacet
 facet normal  7.071068e-01  7.071068e-01 -1.570228e-14
   outer loop
     vertex  8.234047e-02  8.870447e-02  9.075333e-01
     vertex  8.309047e-02  8.795447e-02  9.175333e-01
     vertex  8.309047e-02  8.795447e-02  9.075333e-01
   endloop
 endfacet
 facet normal  7.071068e-01  7.071068e-01 -1.570228e-14
   outer loop
     vertex -8.690953e-02 -8.704553e-02  9.175333e-01
     vertex -8.765953e-02 -8.629553e-02  9.075333e-01
     vertex -8.765953e-02 -8.629553e-02  9.175333e-01
   endloop
 endfacet
 facet normal  7.071068e-01  7.071068e-01 -1.570092e-14
   outer loop
     vertex -8.690953e-02 -8.704553e-02  9.175333e-01
     vertex -8.690953e-02 -8.704553e-02  9.075333e-01
     vertex -8.765953e-02 -8.629553e-02  9.075333e-01
   endloop
 endfacet
 facet normal -7.071068e-01  7.071068e-01 -1.570092e-14
   outer loop
     vertex -8.615953e-02 -8.629553e-02  9.175333e-01
     vertex -8.615953e-02 -8.629553e-02  9.075333e-01
     vertex -8.690953e-02 -8.704553e-02  9.075333e-01
   endloop
 endfacet
 facet normal -7.071068e-01  7.071068e-01 -1.569230e-14
   outer loop
     vertex -8.615953e-02 -8.629553e-02  9.175333e-01
     vertex -8.690953e-02 -8.704553e-02  9.075333e-01
     vertex -8.690953e-02 -8.704553e-02  9.175333e-01
   endloop
 endfacet
 facet normal -7.071068e-01 -7.071068e-01  1.570092e-14
   outer loop
     vertex -8.690953e-02 -8.554553e-02  9.175333e-01
     vertex -8.690953e-02 -8.554553e-02  9.075333e-01
     vertex -8.615953e-02 -8.629553e-02  9.075333e-01
   endloop
 endfacet
 facet normal -7.071068e-01 -7.071068e-01  1.569230e-14
   outer loop
     vertex -8.690953e-02 -8.554553e-02  9.175333e-01
     vertex -8.615953e-02 -8.629553e-02  9.075333e-01
     vertex -8.615953e-02 -8.629553e-02  9.175333e-01
   endloop
 endfacet
 facet normal  7.071068e-01 -7.071068e-01  1.570092e-14
   outer loop
     vertex -8.765953e-02 -8.629553e-02  9.175333e-01
     vertex -8.765953e-02 -8.629553e-02  9.075333e-01
     vertex -8.690953e-02 -8.554553e-02  9.075333e-01
   endloop
 endfacet
 facet normal  7.071068e-01 -7.071068e-01  1.570228e-14
   outer loop
     vertex -8.765953e-02 -8.629553e-02  9.175333e-01
     vertex -8.690953e-02 -8.554553e-02  9.075333e-01
     vertex -8.690953e-02 -8.554553e-02  9.175333e-01
   endloop
 endfacet
 facet normal  7.071068e-01  7.071068e-01 -1.570228e-14
   outer loop
     vertex -1.909526e-03 -8.704553e-02  9.175333e-01
     vertex -2.659526e-03 -8.629553e-02  9.075333e-01
     vertex -2.659526e-03 -8.629553e-02  9.175333e-01
   endloop
 endfacet
 facet normal  7.071068e-01  7.071068e-01 -1.570092e-14
   outer loop
     vertex -1.909526e-03 -8.704553e-02  9.175333e-01
     vertex -1.909526e-03 -8.704553e-02  9.075333e-01
     vertex -2.659526e-03 -8.629553e-02  9.075333e-01
   endloop
 endfacet
 facet normal -7.071068e-01  7.071068e-01 -1.570092e-14
   outer loop
     vertex -1.159526e-03 -8.629553e-02  9.175333e-01
     vertex -1.159526e-03 -8.629553e-02  9.075333e-01
     vertex -1.909526e-03 -8.704553e-02  9.075333e-01
   endloop
 endfacet
 facet normal -7.071068e-01  7.071068e-01 -1.569230e-14
   outer loop
     vertex -1.159526e-03 -8.629553e-02  9.175333e-01
     vertex -1.909526e-03 -8.704553e-02  9.075333e-01
     vertex -1.909526e-03 -8.704553e-02  9.175333e-01
   endloop
 endfacet
 facet normal -7.071068e-01 -7.071068e-01  1.570092e-14
   outer loop
     vertex -1.909526e-03 -8.554553e-02  9.175333e-01
     vertex -1.909526e-03 -8.554553e-02  9.075333e-01
     vertex -1.159526e-03 -8.629553e-02  9.075333e-01
   endloop
 endfacet
 facet normal -7.071068e-01 -7.071068e-01  1.569230e-14
   outer loop
     vertex -1.909526e-03 -8.554553e-02  9.175333e-01
     vertex -1.159526e-03 -8.629553e-02  9.075333e-01
     vertex -1.159526e-03 -8.629553e-02  9.175333e-01
   endloop
 endfacet
 facet normal  7.071068e-01 -7.071068e-01  1.570092e-14
   outer loop
     vertex -2.659526e-03 -8.629553e-02  9.175333e-01
     vertex -2.659526e-03 -8.629553e-02  9.075333e-01
     vertex -1.909526e-03 -8.554553e-02  9.075333e-01
   endloop
 endfacet
 facet normal  7.071068e-01 -7.071068e-01  1.569230e-14
   outer loop
     vertex -2.659526e-03 -8.629553e-02  9.175333e-01
     vertex -1.909526e-03 -8.554553e-02  9.075333e-01
     vertex -1.909526e-03 -8.554553e-02  9.175333e-01
   endloop
 endfacet
 facet normal  7.071068e-01  7.071068e-01 -1.570228e-14
   outer loop
     vertex  8.309047e-02 -8.704553e-02  9.175333e-01
     vertex  8.234047e-02 -8.629553e-02  9.075333e-01
     vertex  8.234047e-02 -8.629553e-02  9.175333e-01
   endloop
 endfacet
 facet normal  7.071068e-01  7.071068e-01 -1.570092e-14
   outer loop
     vertex  8.309047e-02 -8.704553e-02  9.175333e-01
     vertex  8.309047e-02 -8.704553e-02  9.075333e-01
     vertex  8.234047e-02 -8.629553e-02  9.075333e-01
   endloop
 endfacet
 facet normal -7.071068e-01  7.071068e-01 -1.570092e-14
   outer loop
     vertex  8.384047e-02 -8.629553e-02  9.175333e-01
     vertex  8.384047e-02 -8.629553e-02  9.075333e-01
     vertex  8.309047e-02 -8.704553e-02  9.075333e-01
   endloop
 endfacet
 facet normal -7.071068e-01  7.071068e-01 -1.569230e-14
   outer loop
     vertex  8.384047e-02 -8.629553e-02  9.175333e-01
     vertex  8.309047e-02 -8.704553e-02  9.075333e-01
     vertex  8.309047e-02 -8.704553e-02  9.175333e-01
   endloop
 endfacet
 facet normal -7.071068e-01 -7.071068e-01  1.570092e-14
   outer loop
     vertex  8.309047e-02 -8.554553e-02  9.175333e-01
     vertex  8.309047e-02 -8.554553e-02  9.075333e-01
     vertex  8.384047e-02 -8.629553e-02  9.075333e-01
   endloop
 endfacet
 facet normal -7.071068e-01 -7.071068e-01  1.569230e-14
   outer loop
     vertex  8.309047e-02 -8.554553e-02  9.175333e-01
     vertex  8.384047e-02 -8.629553e-02  9.075333e-01
     vertex  8.384047e-02 -8.629553e-02  9.175333e-01
   endloop
 endfacet
 facet normal  7.071068e-01 -7.071068e-01  1.570092e-14
   outer loop
     vertex  8.234047e-02 -8.629553e-02  9.175333e-01
     vertex  8.234047e-02 -8.629553e-02  9.075333e-01
     vertex  8.309047e-02 -8.554553e-02  9.075333e-01
   endloop
 endfacet
 facet normal  7.071068e-01 -7.071068e-01  1.569230e-14
   outer loop
     vertex  8.234047e-02 -8.629553e-02  9.175333e-01
     vertex  8.309047e-02 -8.554553e-02  9.075333e-01
     vertex  8.309047e-02 -8.554553e-02  9.175333e-01
   endloop
 endfacet
 facet normal -7.071068e-01  7.071068e-01 -2.617255e-14
   outer loop
     vertex  5.590474e-03 -6.914553e-02  9.115333e-01
     vertex  7.190474e-03 -6.754553e-02  9.175333e-01
     vertex  7.190474e-03 -6.754553e-02  9.115333e-01
   endloop
 endfacet
 facet normal -7.071068e-01  7.071068e-01 -2.616821e-14
   outer loop
     vertex  5.590474e-03 -6.914553e-02  9.115333e-01
     vertex  5.590474e-03 -6.914553e-02  9.175333e-01
     vertex  7.190474e-03 -6.754553e-02  9.175333e-01
   endloop
 endfacet
 facet normal  7.071068e-01  7.071068e-01 -2.616821e-14
   outer loop
     vertex  3.990474e-03 -6.754553e-02  9.115333e-01
     vertex  3.990474e-03 -6.754553e-02  9.175333e-01
     vertex  5.590474e-03 -6.914553e-02  9.175333e-01
   endloop
 endfacet
 facet normal  7.071068e-01  7.071068e-01 -2.617255e-14
   outer loop
     vertex  3.990474e-03 -6.754553e-02  9.115333e-01
     vertex  5.590474e-03 -6.914553e-02  9.175333e-01
     vertex  5.590474e-03 -6.914553e-02  9.115333e-01
   endloop
 endfacet
 facet normal  7.071068e-01 -7.071068e-01  2.616821e-14
   outer loop
     vertex  5.590474e-03 -6.594553e-02  9.115333e-01
     vertex  5.590474e-03 -6.594553e-02  9.175333e-01
     vertex  3.990474e-03 -6.754553e-02  9.175333e-01
   endloop
 endfacet
 facet normal  7.071068e-01 -7.071068e-01  2.617255e-14
   outer loop
     vertex  5.590474e-03 -6.594553e-02  9.115333e-01
     vertex  3.990474e-03 -6.754553e-02  9.175333e-01
     vertex  3.990474e-03 -6.754553e-02  9.115333e-01
   endloop
 endfacet
 facet normal -7.071068e-01 -7.071068e-01  2.616821e-14
   outer loop
     vertex  7.190474e-03 -6.754553e-02  9.115333e-01
     vertex  7.190474e-03 -6.754553e-02  9.175333e-01
     vertex  5.590474e-03 -6.594553e-02  9.175333e-01
   endloop
 endfacet
 facet normal -7.071068e-01 -7.071068e-01  2.617255e-14
   outer loop
     vertex  7.190474e-03 -6.754553e-02  9.115333e-01
     vertex  5.590474e-03 -6.594553e-02  9.175333e-01
     vertex  5.590474e-03 -6.594553e-02  9.115333e-01
   endloop
 endfacet
 facet normal  0.000000e+00  0.000000e+00 -1.000000e+00
   outer loop
     vertex  5.590474e-03 -6.914553e-02  9.115333e-01
     vertex  8.840474e-03 -6.754553e-02  9.115333e-01
     vertex  5.590474e-03 -7.079553e-02  9.115333e-01
   endloop
 endfacet
 facet normal  0.000000e+00  0.000000e+00 -1.000000e+00
   outer loop
     vertex  5.590474e-03 -6.914553e-02  9.115333e-01
     vertex  7.190474e-03 -6.754553e-02  9.115333e-01
     vertex  8.840474e-03 -6.754553e-02  9.115333e-01
   endloop
 endfacet
 facet normal  0.000000e+00  0.000000e+00 -1.000000e+00
   outer loop
     vertex  5.590474e-03 -6.429553e-02  9.115333e-01
     vertex  7.190474e-03 -6.754553e-02  9.115333e-01
     vertex  5.590474e-03 -6.594553e-02  9.115333e-01
   endloop
 endfacet
 facet normal  0.000000e+00  0.000000e+00 -1.000000e+00
   outer loop
     vertex  5.590474e-03 -6.429553e-02  9.115333e-01
     vertex  8.840474e-03 -6.754553e-02  9.115333e-01
     vertex  7.190474e-03 -6.754553e-02  9.115333e-01
   endloop
 endfacet
 facet normal  0.000000e+00  0.000000e+00 -1.000000e+00
   outer loop
     vertex  2.340474e-03 -6.754553e-02  9.115333e-01
     vertex  3.990474e-03 -6.754553e-02  9.115333e-01
     vertex  5.590474e-03 -6.914553e-02  9.115333e-01
   endloop
 endfacet
 facet normal  0.000000e+00  0.000000e+00 -1.000000e+00
   outer loop
     vertex  2.340474e-03 -6.754553e-02  9.115333e-01
     vertex  5.590474e-03 -6.594553e-02  9.115333e-01
     vertex  3.990474e-03 -6.754553e-02  9.115333e-01
   endloop
 endfacet
 facet normal  0.000000e+00  0.000000e+00 -1.000000e+00
   outer loop
     vertex  2.340474e-03 -6.754553e-02  9.115333e-01
     vertex  5.590474e-03 -6.914553e-02  9.115333e-01
     vertex  5.590474e-03 -7.079553e-02  9.115333e-01
   endloop
 endfacet
 facet normal  0.000000e+00  0.000000e+00 -1.000000e+00
   outer loop
     vertex  2.340474e-03 -6.754553e-02  9.115333e-01
     vertex  5.590474e-03 -6.429553e-02  9.115333e-01
     vertex  5.590474e-03 -6.594553e-02  9.115333e-01
   endloop
 endfacet
 facet normal -7.071068e-01  7.071068e-01  0.000000e+00
   outer loop
     vertex  5.590474e-03 -7.079553e-02  9.075333e-01
     vertex  8.840474e-03 -6.754553e-02  9.115333e-01
     vertex  8.840474e-03 -6.754553e-02  9.075333e-01
   endloop
 endfacet
 facet normal -7.071068e-01  7.071068e-01  0.000000e+00
   outer loop
     vertex  5.590474e-03 -7.079553e-02  9.075333e-01
     vertex  5.590474e-03 -7.079553e-02  9.115333e-01
     vertex  8.840474e-03 -6.754553e-02  9.115333e-01
   endloop
 endfacet
 facet normal  7.071068e-01  7.071068e-01 -0.000000e+00
   outer loop
     vertex  2.340474e-03 -6.754553e-02  9.075333e-01
     vertex  2.340474e-03 -6.754553e-02  9.115333e-01
     vertex  5.590474e-03 -7.079553e-02  9.115333e-01
   endloop
 endfacet
 facet normal  7.071068e-01  7.071068e-01  0.000000e+00
   outer loop
     vertex  2.340474e-03 -6.754553e-02  9.075333e-01
     vertex  5.590474e-03 -7.079553e-02  9.115333e-01
     vertex  5.590474e-03 -7.079553e-02  9.075333e-01
   endloop
 endfacet
 facet normal  7.071068e-01 -7.071068e-01  0.000000e+00
   outer loop
     vertex  5.590474e-03 -6.429553e-02  9.075333e-01
     vertex  5.590474e-03 -6.429553e-02  9.115333e-01
     vertex  2.340474e-03 -6.754553e-02  9.115333e-01
   endloop
 endfacet
 facet normal  7.071068e-01 -7.071068e-01  0.000000e+00
   outer loop
     vertex  5.590474e-03 -6.429553e-02  9.075333e-01
     vertex  2.340474e-03 -6.754553e-02  9.115333e-01
     vertex  2.340474e-03 -6.754553e-02  9.075333e-01
   endloop
 endfacet
 facet normal -7.071068e-01 -7.071068e-01  0.000000e+00
   outer loop
     vertex  8.840474e-03 -6.754553e-02  9.075333e-01
     vertex  8.840474e-03 -6.754553e-02  9.115333e-01
     vertex  5.590474e-03 -6.429553e-02  9.115333e-01
   endloop
 endfacet
 facet normal -7.071068e-01 -7.071068e-01  0.000000e+00
   outer loop
     vertex  8.840474e-03 -6.754553e-02  9.075333e-01
     vertex  5.590474e-03 -6.429553e-02  9.115333e-01
     vertex  5.590474e-03 -6.429553e-02  9.075333e-01
   endloop
 endfacet
 facet normal -7.071068e-01  7.071068e-01 -2.617255e-14
   outer loop
     vertex -9.409526e-03 -6.914553e-02  9.115333e-01
     vertex -7.809526e-03 -6.754553e-02  9.175333e-01
     vertex -7.809526e-03 -6.754553e-02  9.115333e-01
   endloop
 endfacet
 facet normal -7.071068e-01  7.071068e-01 -2.616821e-14
   outer loop
     vertex -9.409526e-03 -6.914553e-02  9.115333e-01
     vertex -9.409526e-03 -6.914553e-02  9.175333e-01
     vertex -7.809526e-03 -6.754553e-02  9.175333e-01
   endloop
 endfacet
 facet normal  7.071068e-01  7.071068e-01 -2.616821e-14
   outer loop
     vertex -1.100953e-02 -6.754553e-02  9.115333e-01
     vertex -1.100953e-02 -6.754553e-02  9.175333e-01
     vertex -9.409526e-03 -6.914553e-02  9.175333e-01
   endloop
 endfacet
 facet normal  7.071068e-01  7.071068e-01 -2.617255e-14
   outer loop
     vertex -1.100953e-02 -6.754553e-02  9.115333e-01
     vertex -9.409526e-03 -6.914553e-02  9.175333e-01
     vertex -9.409526e-03 -6.914553e-02  9.115333e-01
   endloop
 endfacet
 facet normal  7.071068e-01 -7.071068e-01  2.616821e-14
   outer loop
     vertex -9.409526e-03 -6.594553e-02  9.115333e-01
     vertex -9.409526e-03 -6.594553e-02  9.175333e-01
     vertex -1.100953e-02 -6.754553e-02  9.175333e-01
   endloop
 endfacet
 facet normal  7.071068e-01 -7.071068e-01  2.617255e-14
   outer loop
     vertex -9.409526e-03 -6.594553e-02  9.115333e-01
     vertex -1.100953e-02 -6.754553e-02  9.175333e-01
     vertex -1.100953e-02 -6.754553e-02  9.115333e-01
   endloop
 endfacet
 facet normal -7.071068e-01 -7.071068e-01  2.616821e-14
   outer loop
     vertex -7.809526e-03 -6.754553e-02  9.115333e-01
     vertex -7.809526e-03 -6.754553e-02  9.175333e-01
     vertex -9.409526e-03 -6.594553e-02  9.175333e-01
   endloop
 endfacet
 facet normal -7.071068e-01 -7.071068e-01  2.617255e-14
   outer loop
     vertex -7.809526e-03 -6.754553e-02  9.115333e-01
     vertex -9.409526e-03 -6.594553e-02  9.175333e-01
     vertex -9.409526e-03 -6.594553e-02  9.115333e-01
   endloop
 endfacet
 facet normal  0.000000e+00  0.000000e+00 -1.000000e+00
   outer loop
     vertex -9.409526e-03 -6.914553e-02  9.115333e-01
     vertex -6.159526e-03 -6.754553e-02  9.115333e-01
     vertex -9.409526e-03 -7.079553e-02  9.115333e-01
   endloop
 endfacet
 facet normal  0.000000e+00  0.000000e+00 -1.000000e+00
   outer loop
     vertex -9.409526e-03 -6.914553e-02  9.115333e-01
     vertex -7.809526e-03 -6.754553e-02  9.115333e-01
     vertex -6.159526e-03 -6.754553e-02  9.115333e-01
   endloop
 endfacet
 facet normal  0.000000e+00  0.000000e+00 -1.000000e+00
   outer loop
     vertex -9.409526e-03 -6.429553e-02  9.115333e-01
     vertex -7.809526e-03 -6.754553e-02  9.115333e-01
     vertex -9.409526e-03 -6.594553e-02  9.115333e-01
   endloop
 endfacet
 facet normal  0.000000e+00  0.000000e+00 -1.000000e+00
   outer loop
     vertex -9.409526e-03 -6.429553e-02  9.115333e-01
     vertex -6.159526e-03 -6.754553e-02  9.115333e-01
     vertex -7.809526e-03 -6.754553e-02  9.115333e-01
   endloop
 endfacet
 facet normal  0.000000e+00  0.000000e+00 -1.000000e+00
   outer loop
     vertex -1.265953e-02 -6.754553e-02  9.115333e-01
     vertex -1.100953e-02 -6.754553e-02  9.115333e-01
     vertex -9.409526e-03 -6.914553e-02  9.115333e-01
   endloop
 endfacet
 facet normal  0.000000e+00  0.000000e+00 -1.000000e+00
   outer loop
     vertex -1.265953e-02 -6.754553e-02  9.115333e-01
     vertex -9.409526e-03 -6.594553e-02  9.115333e-01
     vertex -1.100953e-02 -6.754553e-02  9.115333e-01
   endloop
 endfacet
 facet normal  0.000000e+00  0.000000e+00 -1.000000e+00
   outer loop
     vertex -1.265953e-02 -6.754553e-02  9.115333e-01
     vertex -9.409526e-03 -6.914553e-02  9.115333e-01
     vertex -9.409526e-03 -7.079553e-02  9.115333e-01
   endloop
 endfacet
 facet normal  0.000000e+00  0.000000e+00 -1.000000e+00
   outer loop
     vertex -1.265953e-02 -6.754553e-02  9.115333e-01
     vertex -9.409526e-03 -6.429553e-02  9.115333e-01
     vertex -9.409526e-03 -6.594553e-02  9.115333e-01
   endloop
 endfacet
 facet normal -7.071068e-01  7.071068e-01  0.000000e+00
   outer loop
     vertex -9.409526e-03 -7.079553e-02  9.075333e-01
     vertex -6.159526e-03 -6.754553e-02  9.115333e-01
     vertex -6.159526e-03 -6.754553e-02  9.075333e-01
   endloop
 endfacet
 facet normal -7.071068e-01  7.071068e-01  0.000000e+00
   outer loop
     vertex -9.409526e-03 -7.079553e-02  9.075333e-01
     vertex -9.409526e-03 -7.079553e-02  9.115333e-01
     vertex -6.159526e-03 -6.754553e-02  9.115333e-01
   endloop
 endfacet
 facet normal  7.071068e-01  7.071068e-01 -0.000000e+00
   outer loop
     vertex -1.265953e-02 -6.754553e-02  9.075333e-01
     vertex -1.265953e-02 -6.754553e-02  9.115333e-01
     vertex -9.409526e-03 -7.079553e-02  9.115333e-01
   endloop
 endfacet
 facet normal  7.071068e-01  7.071068e-01  0.000000e+00
   outer loop
     vertex -1.265953e-02 -6.754553e-02  9.075333e-01
     vertex -9.409526e-03 -7.079553e-02  9.115333e-01
     vertex -9.409526e-03 -7.079553e-02  9.075333e-01
   endloop
 endfacet
 facet normal  7.071068e-01 -7.071068e-01  0.000000e+00
   outer loop
     vertex -9.409526e-03 -6.429553e-02  9.075333e-01
     vertex -9.409526e-03 -6.429553e-02  9.115333e-01
     vertex -1.265953e-02 -6.754553e-02  9.115333e-01
   endloop
 endfacet
 facet normal  7.071068e-01 -7.071068e-01  0.000000e+00
   outer loop
     vertex -9.409526e-03 -6.429553e-02  9.075333e-01
     vertex -1.265953e-02 -6.754553e-02  9.115333e-01
     vertex -1.265953e-02 -6.754553e-02  9.075333e-01
   endloop
 endfacet
 facet normal -7.071068e-01 -7.071068e-01  0.000000e+00
   outer loop
     vertex -6.159526e-03 -6.754553e-02  9.075333e-01
     vertex -6.159526e-03 -6.754553e-02  9.115333e-01
     vertex -9.409526e-03 -6.429553e-02  9.115333e-01
   endloop
 endfacet
 facet normal -7.071068e-01 -7.071068e-01  0.000000e+00
   outer loop
     vertex -6.159526e-03 -6.754553e-02  9.075333e-01
     vertex -9.409526e-03 -6.429553e-02  9.115333e-01
     vertex -9.409526e-03 -6.429553e-02  9.075333e-01
   endloop
 endfacet
 facet normal -7.071068e-01 -7.071068e-01  2.617255e-14
   outer loop
     vertex  5.590474e-03  7.155447e-02  9.175333e-01
     vertex  7.190474e-03  6.995447e-02  9.115333e-01
     vertex  7.190474e-03  6.995447e-02  9.175333e-01
   endloop
 endfacet
 facet normal -7.071068e-01 -7.071068e-01  2.616821e-14
   outer loop
     vertex  5.590474e-03  7.155447e-02  9.175333e-01
     vertex  5.590474e-03  7.155447e-02  9.115333e-01
     vertex  7.190474e-03  6.995447e-02  9.115333e-01
   endloop
 endfacet
 facet normal  7.071068e-01 -7.071068e-01  2.616821e-14
   outer loop
     vertex  3.990474e-03  6.995447e-02  9.175333e-01
     vertex  3.990474e-03  6.995447e-02  9.115333e-01
     vertex  5.590474e-03  7.155447e-02  9.115333e-01
   endloop
 endfacet
 facet normal  7.071068e-01 -7.071068e-01  2.617255e-14
   outer loop
     vertex  3.990474e-03  6.995447e-02  9.175333e-01
     vertex  5.590474e-03  7.155447e-02  9.115333e-01
     vertex  5.590474e-03  7.155447e-02  9.175333e-01
   endloop
 endfacet
 facet normal  7.071068e-01  7.071068e-01 -2.616821e-14
   outer loop
     vertex  5.590474e-03  6.835447e-02  9.175333e-01
     vertex  5.590474e-03  6.835447e-02  9.115333e-01
     vertex  3.990474e-03  6.995447e-02  9.115333e-01
   endloop
 endfacet
 facet normal  7.071068e-01  7.071068e-01 -2.617255e-14
   outer loop
     vertex  5.590474e-03  6.835447e-02  9.175333e-01
     vertex  3.990474e-03  6.995447e-02  9.115333e-01
     vertex  3.990474e-03  6.995447e-02  9.175333e-01
   endloop
 endfacet
 facet normal -7.071068e-01  7.071068e-01 -2.616821e-14
   outer loop
     vertex  7.190474e-03  6.995447e-02  9.175333e-01
     vertex  7.190474e-03  6.995447e-02  9.115333e-01
     vertex  5.590474e-03  6.835447e-02  9.115333e-01
   endloop
 endfacet
 facet normal -7.071068e-01  7.071068e-01 -2.617255e-14
   outer loop
     vertex  7.190474e-03  6.995447e-02  9.175333e-01
     vertex  5.590474e-03  6.835447e-02  9.115333e-01
     vertex  5.590474e-03  6.835447e-02  9.175333e-01
   endloop
 endfacet
 facet normal  0.000000e+00  0.000000e+00 -1.000000e+00
   outer loop
     vertex  7.190474e-03  6.995447e-02  9.115333e-01
     vertex  5.590474e-03  7.320447e-02  9.115333e-01
     vertex  8.840474e-03  6.995447e-02  9.115333e-01
   endloop
 endfacet
 facet normal  0.000000e+00  0.000000e+00 -1.000000e+00
   outer loop
     vertex  7.190474e-03  6.995447e-02  9.115333e-01
     vertex  5.590474e-03  7.155447e-02  9.115333e-01
     vertex  5.590474e-03  7.320447e-02  9.115333e-01
   endloop
 endfacet
 facet normal  0.000000e+00  0.000000e+00 -1.000000e+00
   outer loop
     vertex  5.590474e-03  6.670447e-02  9.115333e-01
     vertex  5.590474e-03  6.835447e-02  9.115333e-01
     vertex  7.190474e-03  6.995447e-02  9.115333e-01
   endloop
 endfacet
 facet normal  0.000000e+00  0.000000e+00 -1.000000e+00
   outer loop
     vertex  5.590474e-03  6.670447e-02  9.115333e-01
     vertex  7.190474e-03  6.995447e-02  9.115333e-01
     vertex  8.840474e-03  6.995447e-02  9.115333e-01
   endloop
 endfacet
 facet normal  0.000000e+00  0.000000e+00 -1.000000e+00
   outer loop
     vertex  2.340474e-03  6.995447e-02  9.115333e-01
     vertex  3.990474e-03  6.995447e-02  9.115333e-01
     vertex  5.590474e-03  6.835447e-02  9.115333e-01
   endloop
 endfacet
 facet normal  0.000000e+00  0.000000e+00 -1.000000e+00
   outer loop
     vertex  2.340474e-03  6.995447e-02  9.115333e-01
     vertex  5.590474e-03  7.155447e-02  9.115333e-01
     vertex  3.990474e-03  6.995447e-02  9.115333e-01
   endloop
 endfacet
 facet normal  0.000000e+00  0.000000e+00 -1.000000e+00
   outer loop
     vertex  2.340474e-03  6.995447e-02  9.115333e-01
     vertex  5.590474e-03  7.320447e-02  9.115333e-01
     vertex  5.590474e-03  7.155447e-02  9.115333e-01
   endloop
 endfacet
 facet normal  0.000000e+00  0.000000e+00 -1.000000e+00
   outer loop
     vertex  2.340474e-03  6.995447e-02  9.115333e-01
     vertex  5.590474e-03  6.835447e-02  9.115333e-01
     vertex  5.590474e-03  6.670447e-02  9.115333e-01
   endloop
 endfacet
 facet normal -7.071068e-01 -7.071068e-01  0.000000e+00
   outer loop
     vertex  5.590474e-03  7.320447e-02  9.115333e-01
     vertex  8.840474e-03  6.995447e-02  9.075333e-01
     vertex  8.840474e-03  6.995447e-02  9.115333e-01
   endloop
 endfacet
 facet normal -7.071068e-01 -7.071068e-01 -0.000000e+00
   outer loop
     vertex  5.590474e-03  7.320447e-02  9.115333e-01
     vertex  5.590474e-03  7.320447e-02  9.075333e-01
     vertex  8.840474e-03  6.995447e-02  9.075333e-01
   endloop
 endfacet
 facet normal  7.071068e-01 -7.071068e-01  0.000000e+00
   outer loop
     vertex  2.340474e-03  6.995447e-02  9.115333e-01
     vertex  2.340474e-03  6.995447e-02  9.075333e-01
     vertex  5.590474e-03  7.320447e-02  9.075333e-01
   endloop
 endfacet
 facet normal  7.071068e-01 -7.071068e-01  0.000000e+00
   outer loop
     vertex  2.340474e-03  6.995447e-02  9.115333e-01
     vertex  5.590474e-03  7.320447e-02  9.075333e-01
     vertex  5.590474e-03  7.320447e-02  9.115333e-01
   endloop
 endfacet
 facet normal  7.071068e-01  7.071068e-01  0.000000e+00
   outer loop
     vertex  5.590474e-03  6.670447e-02  9.115333e-01
     vertex  5.590474e-03  6.670447e-02  9.075333e-01
     vertex  2.340474e-03  6.995447e-02  9.075333e-01
   endloop
 endfacet
 facet normal  7.071068e-01  7.071068e-01  0.000000e+00
   outer loop
     vertex  5.590474e-03  6.670447e-02  9.115333e-01
     vertex  2.340474e-03  6.995447e-02  9.075333e-01
     vertex  2.340474e-03  6.995447e-02  9.115333e-01
   endloop
 endfacet
 facet normal -7.071068e-01  7.071068e-01  0.000000e+00
   outer loop
     vertex  8.840474e-03  6.995447e-02  9.115333e-01
     vertex  8.840474e-03  6.995447e-02  9.075333e-01
     vertex  5.590474e-03  6.670447e-02  9.075333e-01
   endloop
 endfacet
 facet normal -7.071068e-01  7.071068e-01  0.000000e+00
   outer loop
     vertex  8.840474e-03  6.995447e-02  9.115333e-01
     vertex  5.590474e-03  6.670447e-02  9.075333e-01
     vertex  5.590474e-03  6.670447e-02  9.115333e-01
   endloop
 endfacet
 facet normal -7.071068e-01 -7.071068e-01  2.617255e-14
   outer loop
     vertex -9.409526e-03  7.155447e-02  9.175333e-01
     vertex -7.809526e-03  6.995447e-02  9.115333e-01
     vertex -7.809526e-03  6.995447e-02  9.175333e-01
   endloop
 endfacet
 facet normal -7.071068e-01 -7.071068e-01  2.616821e-14
   outer loop
     vertex -9.409526e-03  7.155447e-02  9.175333e-01
     vertex -9.409526e-03  7.155447e-02  9.115333e-01
     vertex -7.809526e-03  6.995447e-02  9.115333e-01
   endloop
 endfacet
 facet normal  7.071068e-01 -7.071068e-01  2.616821e-14
   outer loop
     vertex -1.100953e-02  6.995447e-02  9.175333e-01
     vertex -1.100953e-02  6.995447e-02  9.115333e-01
     vertex -9.409526e-03  7.155447e-02  9.115333e-01
   endloop
 endfacet
 facet normal  7.071068e-01 -7.071068e-01  2.617255e-14
   outer loop
     vertex -1.100953e-02  6.995447e-02  9.175333e-01
     vertex -9.409526e-03  7.155447e-02  9.115333e-01
     vertex -9.409526e-03  7.155447e-02  9.175333e-01
   endloop
 endfacet
 facet normal  7.071068e-01  7.071068e-01 -2.616821e-14
   outer loop
     vertex -9.409526e-03  6.835447e-02  9.175333e-01
     vertex -9.409526e-03  6.835447e-02  9.115333e-01
     vertex -1.100953e-02  6.995447e-02  9.115333e-01
   endloop
 endfacet
 facet normal  7.071068e-01  7.071068e-01 -2.617255e-14
   outer loop
     vertex -9.409526e-03  6.835447e-02  9.175333e-01
     vertex -1.100953e-02  6.995447e-02  9.115333e-01
     vertex -1.100953e-02  6.995447e-02  9.175333e-01
   endloop
 endfacet
 facet normal -7.071068e-01  7.071068e-01 -2.616821e-14
   outer loop
     vertex -7.809526e-03  6.995447e-02  9.175333e-01
     vertex -7.809526e-03  6.995447e-02  9.115333e-01
     vertex -9.409526e-03  6.835447e-02  9.115333e-01
   endloop
 endfacet
 facet normal -7.071068e-01  7.071068e-01 -2.617255e-14
   outer loop
     vertex -7.809526e-03  6.995447e-02  9.175333e-01
     vertex -9.409526e-03  6.835447e-02  9.115333e-01
     vertex -9.409526e-03  6.835447e-02  9.175333e-01
   endloop
 endfacet
 facet normal  0.000000e+00  0.000000e+00 -1.000000e+00
   outer loop
     vertex -7.809526e-03  6.995447e-02  9.115333e-01
     vertex -9.409526e-03  7.320447e-02  9.115333e-01
     vertex -6.159526e-03  6.995447e-02  9.115333e-01
   endloop
 endfacet
 facet normal  0.000000e+00  0.000000e+00 -1.000000e+00
   outer loop
     vertex -7.809526e-03  6.995447e-02  9.115333e-01
     vertex -9.409526e-03  7.155447e-02  9.115333e-01
     vertex -9.409526e-03  7.320447e-02  9.115333e-01
   endloop
 endfacet
 facet normal  0.000000e+00  0.000000e+00 -1.000000e+00
   outer loop
     vertex -9.409526e-03  6.670447e-02  9.115333e-01
     vertex -9.409526e-03  6.835447e-02  9.115333e-01
     vertex -7.809526e-03  6.995447e-02  9.115333e-01
   endloop
 endfacet
 facet normal  0.000000e+00  0.000000e+00 -1.000000e+00
   outer loop
     vertex -9.409526e-03  6.670447e-02  9.115333e-01
     vertex -7.809526e-03  6.995447e-02  9.115333e-01
     vertex -6.159526e-03  6.995447e-02  9.115333e-01
   endloop
 endfacet
 facet normal  0.000000e+00  0.000000e+00 -1.000000e+00
   outer loop
     vertex -1.265953e-02  6.995447e-02  9.115333e-01
     vertex -1.100953e-02  6.995447e-02  9.115333e-01
     vertex -9.409526e-03  6.835447e-02  9.115333e-01
   endloop
 endfacet
 facet normal  0.000000e+00  0.000000e+00 -1.000000e+00
   outer loop
     vertex -1.265953e-02  6.995447e-02  9.115333e-01
     vertex -9.409526e-03  7.155447e-02  9.115333e-01
     vertex -1.100953e-02  6.995447e-02  9.115333e-01
   endloop
 endfacet
 facet normal  0.000000e+00  0.000000e+00 -1.000000e+00
   outer loop
     vertex -1.265953e-02  6.995447e-02  9.115333e-01
     vertex -9.409526e-03  7.320447e-02  9.115333e-01
     vertex -9.409526e-03  7.155447e-02  9.115333e-01
   endloop
 endfacet
 facet normal  0.000000e+00  0.000000e+00 -1.000000e+00
   outer loop
     vertex -1.265953e-02  6.995447e-02  9.115333e-01
     vertex -9.409526e-03  6.835447e-02  9.115333e-01
     vertex -9.409526e-03  6.670447e-02  9.115333e-01
   endloop
 endfacet
 facet normal -7.071068e-01 -7.071068e-01  0.000000e+00
   outer loop
     vertex -9.409526e-03  7.320447e-02  9.115333e-01
     vertex -6.159526e-03  6.995447e-02  9.075333e-01
     vertex -6.159526e-03  6.995447e-02  9.115333e-01
   endloop
 endfacet
 facet normal -7.071068e-01 -7.071068e-01 -0.000000e+00
   outer loop
     vertex -9.409526e-03  7.320447e-02  9.115333e-01
     vertex -9.409526e-03  7.320447e-02  9.075333e-01
     vertex -6.159526e-03  6.995447e-02  9.075333e-01
   endloop
 endfacet
 facet normal  7.071068e-01 -7.071068e-01  0.000000e+00
   outer loop
     vertex -1.265953e-02  6.995447e-02  9.115333e-01
     vertex -1.265953e-02  6.995447e-02  9.075333e-01
     vertex -9.409526e-03  7.320447e-02  9.075333e-01
   endloop
 endfacet
 facet normal  7.071068e-01 -7.071068e-01  0.000000e+00
   outer loop
     vertex -1.265953e-02  6.995447e-02  9.115333e-01
     vertex -9.409526e-03  7.320447e-02  9.075333e-01
     vertex -9.409526e-03  7.320447e-02  9.115333e-01
   endloop
 endfacet
 facet normal  7.071068e-01  7.071068e-01  0.000000e+00
   outer loop
     vertex -9.409526e-03  6.670447e-02  9.115333e-01
     vertex -9.409526e-03  6.670447e-02  9.075333e-01
     vertex -1.265953e-02  6.995447e-02  9.075333e-01
   endloop
 endfacet
 facet normal  7.071068e-01  7.071068e-01  0.000000e+00
   outer loop
     vertex -9.409526e-03  6.670447e-02  9.115333e-01
     vertex -1.265953e-02  6.995447e-02  9.075333e-01
     vertex -1.265953e-02  6.995447e-02  9.115333e-01
   endloop
 endfacet
 facet normal -7.071068e-01  7.071068e-01  0.000000e+00
   outer loop
     vertex -6.159526e-03  6.995447e-02  9.115333e-01
     vertex -6.159526e-03  6.995447e-02  9.075333e-01
     vertex -9.409526e-03  6.670447e-02  9.075333e-01
   endloop
 endfacet
 facet normal -7.071068e-01  7.071068e-01  0.000000e+00
   outer loop
     vertex -6.159526e-03  6.995447e-02  9.115333e-01
     vertex -9.409526e-03  6.670447e-02  9.075333e-01
     vertex -9.409526e-03  6.670447e-02  9.115333e-01
   endloop
 endfacet
endsolid
