solid 
 facet normal -0.000000e+00  0.000000e+00  1.000000e+00
   outer loop
     vertex -2.550000e-01 -2.084000e-01  8.865741e-01
     vertex -2.450000e-01 -2.140000e-01  8.865741e-01
     vertex -2.506000e-01 -2.040000e-01  8.865741e-01
   endloop
 endfacet
 facet normal  0.000000e+00  0.000000e+00  1.000000e+00
   outer loop
     vertex -2.450000e-01 -1.920000e-01  8.865741e-01
     vertex -2.506000e-01 -2.040000e-01  8.865741e-01
     vertex -2.450000e-01 -2.140000e-01  8.865741e-01
   endloop
 endfacet
 facet normal -0.000000e+00  0.000000e+00  1.000000e+00
   outer loop
     vertex -2.550000e-01 -1.996000e-01  8.865741e-01
     vertex -2.506000e-01 -2.040000e-01  8.865741e-01
     vertex -2.450000e-01 -1.920000e-01  8.865741e-01
   endloop
 endfacet
 facet normal  0.000000e+00  0.000000e+00  1.000000e+00
   outer loop
     vertex -2.850000e-01 -2.084000e-01  8.865741e-01
     vertex -2.550000e-01 -2.084000e-01  8.865741e-01
     vertex -2.594000e-01 -2.040000e-01  8.865741e-01
   endloop
 endfacet
 facet normal -0.000000e+00  0.000000e+00  1.000000e+00
   outer loop
     vertex -2.850000e-01 -2.084000e-01  8.865741e-01
     vertex -2.450000e-01 -2.140000e-01  8.865741e-01
     vertex -2.550000e-01 -2.084000e-01  8.865741e-01
   endloop
 endfacet
 facet normal  0.000000e+00  0.000000e+00  1.000000e+00
   outer loop
     vertex -2.850000e-01 -2.084000e-01  8.865741e-01
     vertex -2.594000e-01 -2.040000e-01  8.865741e-01
     vertex -2.806000e-01 -2.040000e-01  8.865741e-01
   endloop
 endfacet
 facet normal  0.000000e+00  0.000000e+00  1.000000e+00
   outer loop
     vertex -2.950000e-01 -2.140000e-01  8.865741e-01
     vertex -2.450000e-01 -2.140000e-01  8.865741e-01
     vertex -2.850000e-01 -2.084000e-01  8.865741e-01
   endloop
 endfacet
 facet normal -0.000000e+00  0.000000e+00  1.000000e+00
   outer loop
     vertex -2.850000e-01 -1.996000e-01  8.865741e-01
     vertex -2.594000e-01 -2.040000e-01  8.865741e-01
     vertex -2.550000e-01 -1.996000e-01  8.865741e-01
   endloop
 endfacet
 facet normal  0.000000e+00  0.000000e+00  1.000000e+00
   outer loop
     vertex -2.850000e-01 -1.996000e-01  8.865741e-01
     vertex -2.806000e-01 -2.040000e-01  8.865741e-01
     vertex -2.594000e-01 -2.040000e-01  8.865741e-01
   endloop
 endfacet
 facet normal  0.000000e+00  0.000000e+00  1.000000e+00
   outer loop
     vertex -2.894000e-01 -2.040000e-01  8.865741e-01
     vertex -2.950000e-01 -2.140000e-01  8.865741e-01
     vertex -2.850000e-01 -2.084000e-01  8.865741e-01
   endloop
 endfacet
 facet normal  0.000000e+00  0.000000e+00  1.000000e+00
   outer loop
     vertex -2.950000e-01 -1.920000e-01  8.865741e-01
     vertex -2.894000e-01 -2.040000e-01  8.865741e-01
     vertex -2.850000e-01 -1.996000e-01  8.865741e-01
   endloop
 endfacet
 facet normal  0.000000e+00  0.000000e+00  1.000000e+00
   outer loop
     vertex -2.950000e-01 -1.920000e-01  8.865741e-01
     vertex -2.950000e-01 -2.140000e-01  8.865741e-01
     vertex -2.894000e-01 -2.040000e-01  8.865741e-01
   endloop
 endfacet
 facet normal -0.000000e+00  0.000000e+00  1.000000e+00
   outer loop
     vertex -2.950000e-01 -1.920000e-01  8.865741e-01
     vertex -2.850000e-01 -1.996000e-01  8.865741e-01
     vertex -2.450000e-01 -1.920000e-01  8.865741e-01
   endloop
 endfacet
 facet normal  0.000000e+00  0.000000e+00  1.000000e+00
   outer loop
     vertex -2.850000e-01 -1.996000e-01  8.865741e-01
     vertex -2.550000e-01 -1.996000e-01  8.865741e-01
     vertex -2.450000e-01 -1.920000e-01  8.865741e-01
   endloop
 endfacet
 facet normal  0.000000e+00 -1.000000e+00  0.000000e+00
   outer loop
     vertex -2.575000e-01 -2.140000e-01  8.765741e-01
     vertex -2.450000e-01 -2.140000e-01  8.765741e-01
     vertex -2.450000e-01 -2.140000e-01  8.865741e-01
   endloop
 endfacet
 facet normal  0.000000e+00 -1.000000e+00  0.000000e+00
   outer loop
     vertex -2.612500e-01 -2.140000e-01  8.755693e-01
     vertex -2.575000e-01 -2.140000e-01  8.765741e-01
     vertex -2.450000e-01 -2.140000e-01  8.865741e-01
   endloop
 endfacet
 facet normal  0.000000e+00 -1.000000e+00  0.000000e+00
   outer loop
     vertex -2.787500e-01 -2.140000e-01  8.755693e-01
     vertex -2.612500e-01 -2.140000e-01  8.755693e-01
     vertex -2.450000e-01 -2.140000e-01  8.865741e-01
   endloop
 endfacet
 facet normal  0.000000e+00 -1.000000e+00  0.000000e+00
   outer loop
     vertex -2.760048e-01 -2.140000e-01  8.728241e-01
     vertex -2.650000e-01 -2.140000e-01  8.690741e-01
     vertex -2.639952e-01 -2.140000e-01  8.728241e-01
   endloop
 endfacet
 facet normal  0.000000e+00 -1.000000e+00  0.000000e+00
   outer loop
     vertex -2.760048e-01 -2.140000e-01  8.728241e-01
     vertex -2.639952e-01 -2.140000e-01  8.728241e-01
     vertex -2.612500e-01 -2.140000e-01  8.755693e-01
   endloop
 endfacet
 facet normal  0.000000e+00 -1.000000e+00  0.000000e+00
   outer loop
     vertex -2.760048e-01 -2.140000e-01  8.728241e-01
     vertex -2.612500e-01 -2.140000e-01  8.755693e-01
     vertex -2.787500e-01 -2.140000e-01  8.755693e-01
   endloop
 endfacet
 facet normal  0.000000e+00 -1.000000e+00  0.000000e+00
   outer loop
     vertex -2.750000e-01 -2.140000e-01  8.690741e-01
     vertex -2.650000e-01 -2.140000e-01  8.690741e-01
     vertex -2.760048e-01 -2.140000e-01  8.728241e-01
   endloop
 endfacet
 facet normal  0.000000e+00 -1.000000e+00  0.000000e+00
   outer loop
     vertex -2.950000e-01 -2.140000e-01  8.865741e-01
     vertex -2.825000e-01 -2.140000e-01  8.765741e-01
     vertex -2.787500e-01 -2.140000e-01  8.755693e-01
   endloop
 endfacet
 facet normal  0.000000e+00 -1.000000e+00  0.000000e+00
   outer loop
     vertex -2.950000e-01 -2.140000e-01  8.865741e-01
     vertex -2.787500e-01 -2.140000e-01  8.755693e-01
     vertex -2.450000e-01 -2.140000e-01  8.865741e-01
   endloop
 endfacet
 facet normal  0.000000e+00 -1.000000e+00  0.000000e+00
   outer loop
     vertex -2.950000e-01 -2.140000e-01  8.765741e-01
     vertex -2.825000e-01 -2.140000e-01  8.765741e-01
     vertex -2.950000e-01 -2.140000e-01  8.865741e-01
   endloop
 endfacet
 facet normal  0.000000e+00 -1.000000e+00  0.000000e+00
   outer loop
     vertex -2.750000e-01 -2.140000e-01  8.305741e-01
     vertex -2.650000e-01 -2.140000e-01  8.305741e-01
     vertex -2.650000e-01 -2.140000e-01  8.690741e-01
   endloop
 endfacet
 facet normal  0.000000e+00 -1.000000e+00  0.000000e+00
   outer loop
     vertex -2.750000e-01 -2.140000e-01  8.305741e-01
     vertex -2.650000e-01 -2.140000e-01  8.690741e-01
     vertex -2.750000e-01 -2.140000e-01  8.690741e-01
   endloop
 endfacet
 facet normal  0.000000e+00 -1.000000e+00  0.000000e+00
   outer loop
     vertex -2.746500e-01 -2.140000e-01  8.265741e-01
     vertex -2.653500e-01 -2.140000e-01  8.265741e-01
     vertex -2.650000e-01 -2.140000e-01  8.305741e-01
   endloop
 endfacet
 facet normal  0.000000e+00 -1.000000e+00  0.000000e+00
   outer loop
     vertex -2.746500e-01 -2.140000e-01  8.265741e-01
     vertex -2.650000e-01 -2.140000e-01  8.305741e-01
     vertex -2.750000e-01 -2.140000e-01  8.305741e-01
   endloop
 endfacet
 facet normal -9.961947e-01 -0.000000e+00 -8.715574e-02
   outer loop
     vertex -2.746500e-01 -1.980000e-01  8.265741e-01
     vertex -2.746500e-01 -2.140000e-01  8.265741e-01
     vertex -2.750000e-01 -2.140000e-01  8.305741e-01
   endloop
 endfacet
 facet normal -9.961947e-01 -0.000000e+00 -8.715574e-02
   outer loop
     vertex -2.750000e-01 -1.980000e-01  8.305741e-01
     vertex -2.746500e-01 -1.980000e-01  8.265741e-01
     vertex -2.750000e-01 -2.140000e-01  8.305741e-01
   endloop
 endfacet
 facet normal -1.000000e+00  0.000000e+00  0.000000e+00
   outer loop
     vertex -2.750000e-01 -2.140000e-01  8.305741e-01
     vertex -2.750000e-01 -2.140000e-01  8.690741e-01
     vertex -2.750000e-01 -1.980000e-01  8.690741e-01
   endloop
 endfacet
 facet normal -1.000000e+00  0.000000e+00  0.000000e+00
   outer loop
     vertex -2.750000e-01 -1.980000e-01  8.305741e-01
     vertex -2.750000e-01 -2.140000e-01  8.305741e-01
     vertex -2.750000e-01 -1.980000e-01  8.690741e-01
   endloop
 endfacet
 facet normal  0.000000e+00 -1.000000e+00  0.000000e+00
   outer loop
     vertex -2.750000e-01 -1.980000e-01  8.690741e-01
     vertex -2.756226e-01 -1.980000e-01  8.720658e-01
     vertex -2.773868e-01 -1.980000e-01  8.745609e-01
   endloop
 endfacet
 facet normal  0.000000e+00 -1.000000e+00  0.000000e+00
   outer loop
     vertex -2.750000e-01 -1.980000e-01  8.690741e-01
     vertex -2.773868e-01 -1.980000e-01  8.745609e-01
     vertex -2.800000e-01 -1.980000e-01  8.761451e-01
   endloop
 endfacet
 facet normal  0.000000e+00 -1.000000e+00  0.000000e+00
   outer loop
     vertex -2.800000e-01 -1.980000e-01  8.265741e-01
     vertex -2.750000e-01 -1.980000e-01  8.305741e-01
     vertex -2.750000e-01 -1.980000e-01  8.690741e-01
   endloop
 endfacet
 facet normal  0.000000e+00 -1.000000e+00  0.000000e+00
   outer loop
     vertex -2.800000e-01 -1.980000e-01  8.265741e-01
     vertex -2.746500e-01 -1.980000e-01  8.265741e-01
     vertex -2.750000e-01 -1.980000e-01  8.305741e-01
   endloop
 endfacet
 facet normal  0.000000e+00 -1.000000e+00  0.000000e+00
   outer loop
     vertex -2.800000e-01 -1.980000e-01  8.265741e-01
     vertex -2.750000e-01 -1.980000e-01  8.690741e-01
     vertex -2.800000e-01 -1.980000e-01  8.761451e-01
   endloop
 endfacet
 facet normal  0.000000e+00 -0.000000e+00 -1.000000e+00
   outer loop
     vertex -2.700000e-01 -2.091000e-01  8.265741e-01
     vertex -2.653500e-01 -2.140000e-01  8.265741e-01
     vertex -2.746500e-01 -2.140000e-01  8.265741e-01
   endloop
 endfacet
 facet normal  0.000000e+00 -0.000000e+00 -1.000000e+00
   outer loop
     vertex -2.679000e-01 -2.070000e-01  8.265741e-01
     vertex -2.653500e-01 -2.140000e-01  8.265741e-01
     vertex -2.700000e-01 -2.091000e-01  8.265741e-01
   endloop
 endfacet
 facet normal  0.000000e+00 -0.000000e+00 -1.000000e+00
   outer loop
     vertex -2.721000e-01 -2.070000e-01  8.265741e-01
     vertex -2.700000e-01 -2.091000e-01  8.265741e-01
     vertex -2.746500e-01 -2.140000e-01  8.265741e-01
   endloop
 endfacet
 facet normal  0.000000e+00  0.000000e+00 -1.000000e+00
   outer loop
     vertex -2.653500e-01 -1.980000e-01  8.265741e-01
     vertex -2.679000e-01 -2.070000e-01  8.265741e-01
     vertex -2.700000e-01 -2.049000e-01  8.265741e-01
   endloop
 endfacet
 facet normal  0.000000e+00 -0.000000e+00 -1.000000e+00
   outer loop
     vertex -2.600000e-01 -1.920000e-01  8.265741e-01
     vertex -2.600000e-01 -1.980000e-01  8.265741e-01
     vertex -2.653500e-01 -1.980000e-01  8.265741e-01
   endloop
 endfacet
 facet normal  0.000000e+00  0.000000e+00 -1.000000e+00
   outer loop
     vertex -2.679000e-01 -1.970000e-01  8.265741e-01
     vertex -2.600000e-01 -1.920000e-01  8.265741e-01
     vertex -2.653500e-01 -1.980000e-01  8.265741e-01
   endloop
 endfacet
 facet normal  0.000000e+00  0.000000e+00 -1.000000e+00
   outer loop
     vertex -2.700000e-01 -1.991000e-01  8.265741e-01
     vertex -2.653500e-01 -1.980000e-01  8.265741e-01
     vertex -2.700000e-01 -2.049000e-01  8.265741e-01
   endloop
 endfacet
 facet normal  0.000000e+00  0.000000e+00 -1.000000e+00
   outer loop
     vertex -2.700000e-01 -1.991000e-01  8.265741e-01
     vertex -2.679000e-01 -1.970000e-01  8.265741e-01
     vertex -2.653500e-01 -1.980000e-01  8.265741e-01
   endloop
 endfacet
 facet normal  0.000000e+00  0.000000e+00 -1.000000e+00
   outer loop
     vertex -2.700000e-01 -1.949000e-01  8.265741e-01
     vertex -2.600000e-01 -1.920000e-01  8.265741e-01
     vertex -2.679000e-01 -1.970000e-01  8.265741e-01
   endloop
 endfacet
 facet normal  0.000000e+00  0.000000e+00 -1.000000e+00
   outer loop
     vertex -2.746500e-01 -1.980000e-01  8.265741e-01
     vertex -2.721000e-01 -1.970000e-01  8.265741e-01
     vertex -2.700000e-01 -1.991000e-01  8.265741e-01
   endloop
 endfacet
 facet normal  0.000000e+00  0.000000e+00 -1.000000e+00
   outer loop
     vertex -2.746500e-01 -1.980000e-01  8.265741e-01
     vertex -2.700000e-01 -2.049000e-01  8.265741e-01
     vertex -2.721000e-01 -2.070000e-01  8.265741e-01
   endloop
 endfacet
 facet normal  0.000000e+00  0.000000e+00 -1.000000e+00
   outer loop
     vertex -2.746500e-01 -1.980000e-01  8.265741e-01
     vertex -2.700000e-01 -1.991000e-01  8.265741e-01
     vertex -2.700000e-01 -2.049000e-01  8.265741e-01
   endloop
 endfacet
 facet normal  0.000000e+00  0.000000e+00 -1.000000e+00
   outer loop
     vertex -2.800000e-01 -1.920000e-01  8.265741e-01
     vertex -2.746500e-01 -1.980000e-01  8.265741e-01
     vertex -2.800000e-01 -1.980000e-01  8.265741e-01
   endloop
 endfacet
 facet normal  0.000000e+00  0.000000e+00 -1.000000e+00
   outer loop
     vertex -2.800000e-01 -1.920000e-01  8.265741e-01
     vertex -2.700000e-01 -1.949000e-01  8.265741e-01
     vertex -2.721000e-01 -1.970000e-01  8.265741e-01
   endloop
 endfacet
 facet normal  0.000000e+00  0.000000e+00 -1.000000e+00
   outer loop
     vertex -2.800000e-01 -1.920000e-01  8.265741e-01
     vertex -2.721000e-01 -1.970000e-01  8.265741e-01
     vertex -2.746500e-01 -1.980000e-01  8.265741e-01
   endloop
 endfacet
 facet normal  0.000000e+00  0.000000e+00 -1.000000e+00
   outer loop
     vertex -2.746500e-01 -2.140000e-01  8.265741e-01
     vertex -2.746500e-01 -1.980000e-01  8.265741e-01
     vertex -2.721000e-01 -2.070000e-01  8.265741e-01
   endloop
 endfacet
 facet normal  0.000000e+00  0.000000e+00 -1.000000e+00
   outer loop
     vertex -2.800000e-01 -1.920000e-01  8.265741e-01
     vertex -2.600000e-01 -1.920000e-01  8.265741e-01
     vertex -2.700000e-01 -1.949000e-01  8.265741e-01
   endloop
 endfacet
 facet normal  0.000000e+00 -0.000000e+00 -1.000000e+00
   outer loop
     vertex -2.653500e-01 -1.980000e-01  8.265741e-01
     vertex -2.653500e-01 -2.140000e-01  8.265741e-01
     vertex -2.679000e-01 -2.070000e-01  8.265741e-01
   endloop
 endfacet
 facet normal  9.961947e-01  0.000000e+00 -8.715574e-02
   outer loop
     vertex -2.653500e-01 -2.140000e-01  8.265741e-01
     vertex -2.653500e-01 -1.980000e-01  8.265741e-01
     vertex -2.650000e-01 -1.980000e-01  8.305741e-01
   endloop
 endfacet
 facet normal  9.961947e-01  0.000000e+00 -8.715574e-02
   outer loop
     vertex -2.650000e-01 -2.140000e-01  8.305741e-01
     vertex -2.653500e-01 -2.140000e-01  8.265741e-01
     vertex -2.650000e-01 -1.980000e-01  8.305741e-01
   endloop
 endfacet
 facet normal  1.000000e+00  0.000000e+00  0.000000e+00
   outer loop
     vertex -2.650000e-01 -2.140000e-01  8.305741e-01
     vertex -2.650000e-01 -1.980000e-01  8.305741e-01
     vertex -2.650000e-01 -1.980000e-01  8.690741e-01
   endloop
 endfacet
 facet normal  1.000000e+00  0.000000e+00  0.000000e+00
   outer loop
     vertex -2.650000e-01 -2.140000e-01  8.305741e-01
     vertex -2.650000e-01 -1.980000e-01  8.690741e-01
     vertex -2.650000e-01 -2.140000e-01  8.690741e-01
   endloop
 endfacet
 facet normal  5.660921e-02  0.000000e+00 -9.983964e-01
   outer loop
     vertex -2.575000e-01 -2.003792e-01  8.765741e-01
     vertex -2.583478e-01 -1.920000e-01  8.765260e-01
     vertex -2.575000e-01 -1.920000e-01  8.765741e-01
   endloop
 endfacet
 facet normal  2.794271e-01  0.000000e+00 -9.601669e-01
   outer loop
     vertex -2.600000e-01 -1.980000e-01  8.761451e-01
     vertex -2.600000e-01 -1.920000e-01  8.761451e-01
     vertex -2.591847e-01 -1.920000e-01  8.763824e-01
   endloop
 endfacet
 facet normal  1.690803e-01  1.599527e-02 -9.854725e-01
   outer loop
     vertex -2.600000e-01 -1.980000e-01  8.761451e-01
     vertex -2.591847e-01 -1.920000e-01  8.763824e-01
     vertex -2.583478e-01 -1.920000e-01  8.765260e-01
   endloop
 endfacet
 facet normal  1.807691e-01  1.264778e-02 -9.834442e-01
   outer loop
     vertex -2.600000e-01 -1.980000e-01  8.761451e-01
     vertex -2.583478e-01 -1.920000e-01  8.765260e-01
     vertex -2.575000e-01 -2.003792e-01  8.765741e-01
   endloop
 endfacet
 facet normal  1.553874e-01 -1.479732e-02 -9.877428e-01
   outer loop
     vertex -2.594000e-01 -2.040000e-01  8.763294e-01
     vertex -2.600000e-01 -1.980000e-01  8.761451e-01
     vertex -2.575000e-01 -2.003792e-01  8.765741e-01
   endloop
 endfacet
 facet normal  5.182459e-01  2.557002e-02 -8.548493e-01
   outer loop
     vertex -2.626132e-01 -1.980000e-01  8.745609e-01
     vertex -2.600000e-01 -1.980000e-01  8.761451e-01
     vertex -2.594000e-01 -2.040000e-01  8.763294e-01
   endloop
 endfacet
 facet normal  2.588190e-01  0.000000e+00 -9.659258e-01
   outer loop
     vertex -2.612500e-01 -2.140000e-01  8.755693e-01
     vertex -2.575000e-01 -2.076208e-01  8.765741e-01
     vertex -2.575000e-01 -2.140000e-01  8.765741e-01
   endloop
 endfacet
 facet normal  1.981459e-01  3.779563e-02 -9.794436e-01
   outer loop
     vertex -2.612500e-01 -2.140000e-01  8.755693e-01
     vertex -2.594000e-01 -2.040000e-01  8.763294e-01
     vertex -2.575000e-01 -2.076208e-01  8.765741e-01
   endloop
 endfacet
 facet normal  8.164714e-01 -7.852959e-03 -5.773325e-01
   outer loop
     vertex -2.639952e-01 -2.140000e-01  8.728241e-01
     vertex -2.643774e-01 -1.980000e-01  8.720658e-01
     vertex -2.626132e-01 -1.980000e-01  8.745609e-01
   endloop
 endfacet
 facet normal  5.435721e-01  4.403832e-02 -8.382064e-01
   outer loop
     vertex -2.639952e-01 -2.140000e-01  8.728241e-01
     vertex -2.626132e-01 -1.980000e-01  8.745609e-01
     vertex -2.594000e-01 -2.040000e-01  8.763294e-01
   endloop
 endfacet
 facet normal  7.050164e-01 -7.683605e-02 -7.050164e-01
   outer loop
     vertex -2.639952e-01 -2.140000e-01  8.728241e-01
     vertex -2.594000e-01 -2.040000e-01  8.763294e-01
     vertex -2.612500e-01 -2.140000e-01  8.755693e-01
   endloop
 endfacet
 facet normal  9.790284e-01  0.000000e+00 -2.037237e-01
   outer loop
     vertex -2.650000e-01 -2.140000e-01  8.690741e-01
     vertex -2.650000e-01 -1.980000e-01  8.690741e-01
     vertex -2.643774e-01 -1.980000e-01  8.720658e-01
   endloop
 endfacet
 facet normal  9.658694e-01  1.081122e-02 -2.588039e-01
   outer loop
     vertex -2.650000e-01 -2.140000e-01  8.690741e-01
     vertex -2.643774e-01 -1.980000e-01  8.720658e-01
     vertex -2.639952e-01 -2.140000e-01  8.728241e-01
   endloop
 endfacet
 facet normal  8.854891e-01  4.646602e-01  0.000000e+00
   outer loop
     vertex -2.594000e-01 -2.040000e-01  8.865741e-01
     vertex -2.575000e-01 -2.076208e-01  8.765741e-01
     vertex -2.594000e-01 -2.040000e-01  8.763294e-01
   endloop
 endfacet
 facet normal -1.197530e-01  9.870370e-01  1.068508e-01
   outer loop
     vertex -2.550000e-01 -2.084000e-01  8.865741e-01
     vertex -2.517067e-01 -2.069179e-01  8.765741e-01
     vertex -2.575000e-01 -2.076208e-01  8.765741e-01
   endloop
 endfacet
 facet normal  7.019297e-01  7.019297e-01 -1.207862e-01
   outer loop
     vertex -2.550000e-01 -2.084000e-01  8.865741e-01
     vertex -2.575000e-01 -2.076208e-01  8.765741e-01
     vertex -2.594000e-01 -2.040000e-01  8.865741e-01
   endloop
 endfacet
 facet normal -9.939319e-01  0.000000e+00  1.099976e-01
   outer loop
     vertex -2.506000e-01 -2.040000e-01  8.865741e-01
     vertex -2.517067e-01 -2.010821e-01  8.765741e-01
     vertex -2.517067e-01 -2.069179e-01  8.765741e-01
   endloop
 endfacet
 facet normal -7.013781e-01  7.013781e-01 -1.270339e-01
   outer loop
     vertex -2.506000e-01 -2.040000e-01  8.865741e-01
     vertex -2.517067e-01 -2.069179e-01  8.765741e-01
     vertex -2.550000e-01 -2.084000e-01  8.865741e-01
   endloop
 endfacet
 facet normal -1.197530e-01 -9.870370e-01  1.068508e-01
   outer loop
     vertex -2.550000e-01 -1.996000e-01  8.865741e-01
     vertex -2.575000e-01 -2.003792e-01  8.765741e-01
     vertex -2.517067e-01 -2.010821e-01  8.765741e-01
   endloop
 endfacet
 facet normal -7.013781e-01 -7.013781e-01 -1.270339e-01
   outer loop
     vertex -2.550000e-01 -1.996000e-01  8.865741e-01
     vertex -2.517067e-01 -2.010821e-01  8.765741e-01
     vertex -2.506000e-01 -2.040000e-01  8.865741e-01
   endloop
 endfacet
 facet normal  8.854891e-01 -4.646602e-01  0.000000e+00
   outer loop
     vertex -2.594000e-01 -2.040000e-01  8.865741e-01
     vertex -2.594000e-01 -2.040000e-01  8.763294e-01
     vertex -2.575000e-01 -2.003792e-01  8.765741e-01
   endloop
 endfacet
 facet normal  7.019297e-01 -7.019297e-01 -1.207862e-01
   outer loop
     vertex -2.594000e-01 -2.040000e-01  8.865741e-01
     vertex -2.575000e-01 -2.003792e-01  8.765741e-01
     vertex -2.550000e-01 -1.996000e-01  8.865741e-01
   endloop
 endfacet
 facet normal  0.000000e+00  0.000000e+00 -1.000000e+00
   outer loop
     vertex -2.517067e-01 -2.010821e-01  8.765741e-01
     vertex -2.575000e-01 -2.003792e-01  8.765741e-01
     vertex -2.575000e-01 -1.920000e-01  8.765741e-01
   endloop
 endfacet
 facet normal  0.000000e+00  0.000000e+00 -1.000000e+00
   outer loop
     vertex -2.517067e-01 -2.010821e-01  8.765741e-01
     vertex -2.575000e-01 -1.920000e-01  8.765741e-01
     vertex -2.450000e-01 -1.920000e-01  8.765741e-01
   endloop
 endfacet
 facet normal  0.000000e+00  0.000000e+00 -1.000000e+00
   outer loop
     vertex -2.575000e-01 -2.140000e-01  8.765741e-01
     vertex -2.575000e-01 -2.076208e-01  8.765741e-01
     vertex -2.517067e-01 -2.069179e-01  8.765741e-01
   endloop
 endfacet
 facet normal  0.000000e+00  0.000000e+00 -1.000000e+00
   outer loop
     vertex -2.450000e-01 -2.140000e-01  8.765741e-01
     vertex -2.517067e-01 -2.069179e-01  8.765741e-01
     vertex -2.517067e-01 -2.010821e-01  8.765741e-01
   endloop
 endfacet
 facet normal  0.000000e+00  0.000000e+00 -1.000000e+00
   outer loop
     vertex -2.450000e-01 -2.140000e-01  8.765741e-01
     vertex -2.517067e-01 -2.010821e-01  8.765741e-01
     vertex -2.450000e-01 -1.920000e-01  8.765741e-01
   endloop
 endfacet
 facet normal  0.000000e+00  0.000000e+00 -1.000000e+00
   outer loop
     vertex -2.450000e-01 -2.140000e-01  8.765741e-01
     vertex -2.575000e-01 -2.140000e-01  8.765741e-01
     vertex -2.517067e-01 -2.069179e-01  8.765741e-01
   endloop
 endfacet
 facet normal  1.000000e+00  0.000000e+00  0.000000e+00
   outer loop
     vertex -2.450000e-01 -2.140000e-01  8.865741e-01
     vertex -2.450000e-01 -2.140000e-01  8.765741e-01
     vertex -2.450000e-01 -1.920000e-01  8.765741e-01
   endloop
 endfacet
 facet normal  1.000000e+00 -0.000000e+00  0.000000e+00
   outer loop
     vertex -2.450000e-01 -2.140000e-01  8.865741e-01
     vertex -2.450000e-01 -1.920000e-01  8.765741e-01
     vertex -2.450000e-01 -1.920000e-01  8.865741e-01
   endloop
 endfacet
 facet normal  0.000000e+00  1.000000e+00  0.000000e+00
   outer loop
     vertex -2.825000e-01 -1.920000e-01  8.765741e-01
     vertex -2.950000e-01 -1.920000e-01  8.765741e-01
     vertex -2.950000e-01 -1.920000e-01  8.865741e-01
   endloop
 endfacet
 facet normal  0.000000e+00  1.000000e+00  0.000000e+00
   outer loop
     vertex -2.816522e-01 -1.920000e-01  8.765260e-01
     vertex -2.825000e-01 -1.920000e-01  8.765741e-01
     vertex -2.950000e-01 -1.920000e-01  8.865741e-01
   endloop
 endfacet
 facet normal  0.000000e+00  1.000000e+00  0.000000e+00
   outer loop
     vertex -2.808153e-01 -1.920000e-01  8.763824e-01
     vertex -2.816522e-01 -1.920000e-01  8.765260e-01
     vertex -2.950000e-01 -1.920000e-01  8.865741e-01
   endloop
 endfacet
 facet normal  0.000000e+00  1.000000e+00  0.000000e+00
   outer loop
     vertex -2.800000e-01 -1.920000e-01  8.761451e-01
     vertex -2.808153e-01 -1.920000e-01  8.763824e-01
     vertex -2.950000e-01 -1.920000e-01  8.865741e-01
   endloop
 endfacet
 facet normal  0.000000e+00  1.000000e+00  0.000000e+00
   outer loop
     vertex -2.450000e-01 -1.920000e-01  8.865741e-01
     vertex -2.591847e-01 -1.920000e-01  8.763824e-01
     vertex -2.600000e-01 -1.920000e-01  8.761451e-01
   endloop
 endfacet
 facet normal  0.000000e+00  1.000000e+00  0.000000e+00
   outer loop
     vertex -2.450000e-01 -1.920000e-01  8.865741e-01
     vertex -2.583478e-01 -1.920000e-01  8.765260e-01
     vertex -2.591847e-01 -1.920000e-01  8.763824e-01
   endloop
 endfacet
 facet normal  0.000000e+00  1.000000e+00  0.000000e+00
   outer loop
     vertex -2.450000e-01 -1.920000e-01  8.865741e-01
     vertex -2.575000e-01 -1.920000e-01  8.765741e-01
     vertex -2.583478e-01 -1.920000e-01  8.765260e-01
   endloop
 endfacet
 facet normal  0.000000e+00  1.000000e+00  0.000000e+00
   outer loop
     vertex -2.450000e-01 -1.920000e-01  8.865741e-01
     vertex -2.800000e-01 -1.920000e-01  8.761451e-01
     vertex -2.950000e-01 -1.920000e-01  8.865741e-01
   endloop
 endfacet
 facet normal  0.000000e+00  1.000000e+00  0.000000e+00
   outer loop
     vertex -2.450000e-01 -1.920000e-01  8.865741e-01
     vertex -2.600000e-01 -1.920000e-01  8.761451e-01
     vertex -2.800000e-01 -1.920000e-01  8.761451e-01
   endloop
 endfacet
 facet normal  0.000000e+00  1.000000e+00 -0.000000e+00
   outer loop
     vertex -2.450000e-01 -1.920000e-01  8.765741e-01
     vertex -2.575000e-01 -1.920000e-01  8.765741e-01
     vertex -2.450000e-01 -1.920000e-01  8.865741e-01
   endloop
 endfacet
 facet normal  0.000000e+00  1.000000e+00  0.000000e+00
   outer loop
     vertex -2.600000e-01 -1.920000e-01  8.265741e-01
     vertex -2.800000e-01 -1.920000e-01  8.265741e-01
     vertex -2.800000e-01 -1.920000e-01  8.761451e-01
   endloop
 endfacet
 facet normal  0.000000e+00  1.000000e+00 -0.000000e+00
   outer loop
     vertex -2.600000e-01 -1.920000e-01  8.265741e-01
     vertex -2.800000e-01 -1.920000e-01  8.761451e-01
     vertex -2.600000e-01 -1.920000e-01  8.761451e-01
   endloop
 endfacet
 facet normal  1.000000e+00  0.000000e+00  0.000000e+00
   outer loop
     vertex -2.600000e-01 -1.980000e-01  8.265741e-01
     vertex -2.600000e-01 -1.920000e-01  8.265741e-01
     vertex -2.600000e-01 -1.920000e-01  8.761451e-01
   endloop
 endfacet
 facet normal  1.000000e+00  0.000000e+00  0.000000e+00
   outer loop
     vertex -2.600000e-01 -1.980000e-01  8.265741e-01
     vertex -2.600000e-01 -1.920000e-01  8.761451e-01
     vertex -2.600000e-01 -1.980000e-01  8.761451e-01
   endloop
 endfacet
 facet normal  0.000000e+00 -1.000000e+00  0.000000e+00
   outer loop
     vertex -2.650000e-01 -1.980000e-01  8.690741e-01
     vertex -2.600000e-01 -1.980000e-01  8.761451e-01
     vertex -2.626132e-01 -1.980000e-01  8.745609e-01
   endloop
 endfacet
 facet normal  0.000000e+00 -1.000000e+00  0.000000e+00
   outer loop
     vertex -2.650000e-01 -1.980000e-01  8.690741e-01
     vertex -2.626132e-01 -1.980000e-01  8.745609e-01
     vertex -2.643774e-01 -1.980000e-01  8.720658e-01
   endloop
 endfacet
 facet normal  0.000000e+00 -1.000000e+00  0.000000e+00
   outer loop
     vertex -2.600000e-01 -1.980000e-01  8.265741e-01
     vertex -2.600000e-01 -1.980000e-01  8.761451e-01
     vertex -2.650000e-01 -1.980000e-01  8.690741e-01
   endloop
 endfacet
 facet normal  0.000000e+00 -1.000000e+00  0.000000e+00
   outer loop
     vertex -2.650000e-01 -1.980000e-01  8.305741e-01
     vertex -2.600000e-01 -1.980000e-01  8.265741e-01
     vertex -2.650000e-01 -1.980000e-01  8.690741e-01
   endloop
 endfacet
 facet normal  0.000000e+00 -1.000000e+00  0.000000e+00
   outer loop
     vertex -2.653500e-01 -1.980000e-01  8.265741e-01
     vertex -2.600000e-01 -1.980000e-01  8.265741e-01
     vertex -2.650000e-01 -1.980000e-01  8.305741e-01
   endloop
 endfacet
 facet normal -1.000000e+00  0.000000e+00  0.000000e+00
   outer loop
     vertex -2.950000e-01 -2.140000e-01  8.765741e-01
     vertex -2.950000e-01 -2.140000e-01  8.865741e-01
     vertex -2.950000e-01 -1.920000e-01  8.865741e-01
   endloop
 endfacet
 facet normal -1.000000e+00  0.000000e+00  0.000000e+00
   outer loop
     vertex -2.950000e-01 -2.140000e-01  8.765741e-01
     vertex -2.950000e-01 -1.920000e-01  8.865741e-01
     vertex -2.950000e-01 -1.920000e-01  8.765741e-01
   endloop
 endfacet
 facet normal  0.000000e+00  0.000000e+00 -1.000000e+00
   outer loop
     vertex -2.882933e-01 -2.010821e-01  8.765741e-01
     vertex -2.950000e-01 -1.920000e-01  8.765741e-01
     vertex -2.825000e-01 -1.920000e-01  8.765741e-01
   endloop
 endfacet
 facet normal -0.000000e+00  0.000000e+00 -1.000000e+00
   outer loop
     vertex -2.825000e-01 -2.003792e-01  8.765741e-01
     vertex -2.882933e-01 -2.010821e-01  8.765741e-01
     vertex -2.825000e-01 -1.920000e-01  8.765741e-01
   endloop
 endfacet
 facet normal  0.000000e+00  0.000000e+00 -1.000000e+00
   outer loop
     vertex -2.950000e-01 -2.140000e-01  8.765741e-01
     vertex -2.882933e-01 -2.010821e-01  8.765741e-01
     vertex -2.882933e-01 -2.069179e-01  8.765741e-01
   endloop
 endfacet
 facet normal  0.000000e+00  0.000000e+00 -1.000000e+00
   outer loop
     vertex -2.950000e-01 -2.140000e-01  8.765741e-01
     vertex -2.950000e-01 -1.920000e-01  8.765741e-01
     vertex -2.882933e-01 -2.010821e-01  8.765741e-01
   endloop
 endfacet
 facet normal  0.000000e+00  0.000000e+00 -1.000000e+00
   outer loop
     vertex -2.825000e-01 -2.140000e-01  8.765741e-01
     vertex -2.882933e-01 -2.069179e-01  8.765741e-01
     vertex -2.825000e-01 -2.076208e-01  8.765741e-01
   endloop
 endfacet
 facet normal  0.000000e+00  0.000000e+00 -1.000000e+00
   outer loop
     vertex -2.825000e-01 -2.140000e-01  8.765741e-01
     vertex -2.950000e-01 -2.140000e-01  8.765741e-01
     vertex -2.882933e-01 -2.069179e-01  8.765741e-01
   endloop
 endfacet
 facet normal -8.854891e-01  4.646602e-01  0.000000e+00
   outer loop
     vertex -2.825000e-01 -2.076208e-01  8.765741e-01
     vertex -2.806000e-01 -2.040000e-01  8.865741e-01
     vertex -2.806000e-01 -2.040000e-01  8.763294e-01
   endloop
 endfacet
 facet normal -7.019297e-01  7.019297e-01 -1.207862e-01
   outer loop
     vertex -2.825000e-01 -2.076208e-01  8.765741e-01
     vertex -2.850000e-01 -2.084000e-01  8.865741e-01
     vertex -2.806000e-01 -2.040000e-01  8.865741e-01
   endloop
 endfacet
 facet normal  7.013781e-01  7.013781e-01 -1.270339e-01
   outer loop
     vertex -2.882933e-01 -2.069179e-01  8.765741e-01
     vertex -2.894000e-01 -2.040000e-01  8.865741e-01
     vertex -2.850000e-01 -2.084000e-01  8.865741e-01
   endloop
 endfacet
 facet normal  1.197530e-01  9.870370e-01  1.068508e-01
   outer loop
     vertex -2.882933e-01 -2.069179e-01  8.765741e-01
     vertex -2.850000e-01 -2.084000e-01  8.865741e-01
     vertex -2.825000e-01 -2.076208e-01  8.765741e-01
   endloop
 endfacet
 facet normal  7.013781e-01 -7.013781e-01 -1.270339e-01
   outer loop
     vertex -2.882933e-01 -2.010821e-01  8.765741e-01
     vertex -2.850000e-01 -1.996000e-01  8.865741e-01
     vertex -2.894000e-01 -2.040000e-01  8.865741e-01
   endloop
 endfacet
 facet normal  9.939319e-01  0.000000e+00  1.099976e-01
   outer loop
     vertex -2.882933e-01 -2.010821e-01  8.765741e-01
     vertex -2.894000e-01 -2.040000e-01  8.865741e-01
     vertex -2.882933e-01 -2.069179e-01  8.765741e-01
   endloop
 endfacet
 facet normal -7.019297e-01 -7.019297e-01 -1.207862e-01
   outer loop
     vertex -2.825000e-01 -2.003792e-01  8.765741e-01
     vertex -2.806000e-01 -2.040000e-01  8.865741e-01
     vertex -2.850000e-01 -1.996000e-01  8.865741e-01
   endloop
 endfacet
 facet normal  1.197530e-01 -9.870370e-01  1.068508e-01
   outer loop
     vertex -2.825000e-01 -2.003792e-01  8.765741e-01
     vertex -2.850000e-01 -1.996000e-01  8.865741e-01
     vertex -2.882933e-01 -2.010821e-01  8.765741e-01
   endloop
 endfacet
 facet normal -8.854891e-01 -4.646602e-01  0.000000e+00
   outer loop
     vertex -2.806000e-01 -2.040000e-01  8.763294e-01
     vertex -2.806000e-01 -2.040000e-01  8.865741e-01
     vertex -2.825000e-01 -2.003792e-01  8.765741e-01
   endloop
 endfacet
 facet normal -9.790284e-01  0.000000e+00 -2.037237e-01
   outer loop
     vertex -2.750000e-01 -2.140000e-01  8.690741e-01
     vertex -2.756226e-01 -1.980000e-01  8.720658e-01
     vertex -2.750000e-01 -1.980000e-01  8.690741e-01
   endloop
 endfacet
 facet normal -1.690803e-01  1.599527e-02 -9.854725e-01
   outer loop
     vertex -2.800000e-01 -1.980000e-01  8.761451e-01
     vertex -2.816522e-01 -1.920000e-01  8.765260e-01
     vertex -2.808153e-01 -1.920000e-01  8.763824e-01
   endloop
 endfacet
 facet normal -2.794271e-01  0.000000e+00 -9.601669e-01
   outer loop
     vertex -2.800000e-01 -1.980000e-01  8.761451e-01
     vertex -2.808153e-01 -1.920000e-01  8.763824e-01
     vertex -2.800000e-01 -1.920000e-01  8.761451e-01
   endloop
 endfacet
 facet normal -8.164714e-01 -7.852959e-03 -5.773325e-01
   outer loop
     vertex -2.760048e-01 -2.140000e-01  8.728241e-01
     vertex -2.773868e-01 -1.980000e-01  8.745609e-01
     vertex -2.756226e-01 -1.980000e-01  8.720658e-01
   endloop
 endfacet
 facet normal -9.658694e-01  1.081122e-02 -2.588039e-01
   outer loop
     vertex -2.760048e-01 -2.140000e-01  8.728241e-01
     vertex -2.756226e-01 -1.980000e-01  8.720658e-01
     vertex -2.750000e-01 -2.140000e-01  8.690741e-01
   endloop
 endfacet
 facet normal -5.660921e-02  0.000000e+00 -9.983964e-01
   outer loop
     vertex -2.825000e-01 -2.003792e-01  8.765741e-01
     vertex -2.825000e-01 -1.920000e-01  8.765741e-01
     vertex -2.816522e-01 -1.920000e-01  8.765260e-01
   endloop
 endfacet
 facet normal -1.807691e-01  1.264778e-02 -9.834442e-01
   outer loop
     vertex -2.825000e-01 -2.003792e-01  8.765741e-01
     vertex -2.816522e-01 -1.920000e-01  8.765260e-01
     vertex -2.800000e-01 -1.980000e-01  8.761451e-01
   endloop
 endfacet
 facet normal -5.182459e-01  2.557002e-02 -8.548493e-01
   outer loop
     vertex -2.806000e-01 -2.040000e-01  8.763294e-01
     vertex -2.800000e-01 -1.980000e-01  8.761451e-01
     vertex -2.773868e-01 -1.980000e-01  8.745609e-01
   endloop
 endfacet
 facet normal -5.435721e-01  4.403832e-02 -8.382064e-01
   outer loop
     vertex -2.806000e-01 -2.040000e-01  8.763294e-01
     vertex -2.773868e-01 -1.980000e-01  8.745609e-01
     vertex -2.760048e-01 -2.140000e-01  8.728241e-01
   endloop
 endfacet
 facet normal -1.553874e-01 -1.479732e-02 -9.877428e-01
   outer loop
     vertex -2.806000e-01 -2.040000e-01  8.763294e-01
     vertex -2.825000e-01 -2.003792e-01  8.765741e-01
     vertex -2.800000e-01 -1.980000e-01  8.761451e-01
   endloop
 endfacet
 facet normal -7.050164e-01 -7.683605e-02 -7.050164e-01
   outer loop
     vertex -2.787500e-01 -2.140000e-01  8.755693e-01
     vertex -2.806000e-01 -2.040000e-01  8.763294e-01
     vertex -2.760048e-01 -2.140000e-01  8.728241e-01
   endloop
 endfacet
 facet normal -1.981459e-01  3.779563e-02 -9.794436e-01
   outer loop
     vertex -2.825000e-01 -2.076208e-01  8.765741e-01
     vertex -2.806000e-01 -2.040000e-01  8.763294e-01
     vertex -2.787500e-01 -2.140000e-01  8.755693e-01
   endloop
 endfacet
 facet normal -2.588190e-01  0.000000e+00 -9.659258e-01
   outer loop
     vertex -2.825000e-01 -2.140000e-01  8.765741e-01
     vertex -2.825000e-01 -2.076208e-01  8.765741e-01
     vertex -2.787500e-01 -2.140000e-01  8.755693e-01
   endloop
 endfacet
 facet normal -1.000000e+00  0.000000e+00  0.000000e+00
   outer loop
     vertex -2.800000e-01 -1.920000e-01  8.265741e-01
     vertex -2.800000e-01 -1.980000e-01  8.265741e-01
     vertex -2.800000e-01 -1.980000e-01  8.761451e-01
   endloop
 endfacet
 facet normal -1.000000e+00  0.000000e+00  0.000000e+00
   outer loop
     vertex -2.800000e-01 -1.920000e-01  8.265741e-01
     vertex -2.800000e-01 -1.980000e-01  8.761451e-01
     vertex -2.800000e-01 -1.920000e-01  8.761451e-01
   endloop
 endfacet
 facet normal -7.071068e-01  7.071068e-01  0.000000e+00
   outer loop
     vertex -2.700000e-01 -1.991000e-01  8.265741e-01
     vertex -2.679000e-01 -1.970000e-01  8.405741e-01
     vertex -2.679000e-01 -1.970000e-01  8.265741e-01
   endloop
 endfacet
 facet normal -7.071068e-01  7.071068e-01  0.000000e+00
   outer loop
     vertex -2.700000e-01 -1.991000e-01  8.265741e-01
     vertex -2.700000e-01 -1.991000e-01  8.405741e-01
     vertex -2.679000e-01 -1.970000e-01  8.405741e-01
   endloop
 endfacet
 facet normal  7.071068e-01  7.071068e-01 -0.000000e+00
   outer loop
     vertex -2.721000e-01 -1.970000e-01  8.265741e-01
     vertex -2.721000e-01 -1.970000e-01  8.405741e-01
     vertex -2.700000e-01 -1.991000e-01  8.405741e-01
   endloop
 endfacet
 facet normal  7.071068e-01  7.071068e-01  0.000000e+00
   outer loop
     vertex -2.721000e-01 -1.970000e-01  8.265741e-01
     vertex -2.700000e-01 -1.991000e-01  8.405741e-01
     vertex -2.700000e-01 -1.991000e-01  8.265741e-01
   endloop
 endfacet
 facet normal  7.071068e-01 -7.071068e-01  0.000000e+00
   outer loop
     vertex -2.700000e-01 -1.949000e-01  8.265741e-01
     vertex -2.700000e-01 -1.949000e-01  8.405741e-01
     vertex -2.721000e-01 -1.970000e-01  8.405741e-01
   endloop
 endfacet
 facet normal  7.071068e-01 -7.071068e-01  0.000000e+00
   outer loop
     vertex -2.700000e-01 -1.949000e-01  8.265741e-01
     vertex -2.721000e-01 -1.970000e-01  8.405741e-01
     vertex -2.721000e-01 -1.970000e-01  8.265741e-01
   endloop
 endfacet
 facet normal -7.071068e-01 -7.071068e-01  0.000000e+00
   outer loop
     vertex -2.679000e-01 -1.970000e-01  8.265741e-01
     vertex -2.679000e-01 -1.970000e-01  8.405741e-01
     vertex -2.700000e-01 -1.949000e-01  8.405741e-01
   endloop
 endfacet
 facet normal -7.071068e-01 -7.071068e-01  0.000000e+00
   outer loop
     vertex -2.679000e-01 -1.970000e-01  8.265741e-01
     vertex -2.700000e-01 -1.949000e-01  8.405741e-01
     vertex -2.700000e-01 -1.949000e-01  8.265741e-01
   endloop
 endfacet
 facet normal -4.578769e-01  4.578769e-01 -7.620351e-01
   outer loop
     vertex -2.700000e-01 -1.991000e-01  8.405741e-01
     vertex -2.700000e-01 -1.970000e-01  8.418359e-01
     vertex -2.679000e-01 -1.970000e-01  8.405741e-01
   endloop
 endfacet
 facet normal  4.578769e-01  4.578769e-01 -7.620351e-01
   outer loop
     vertex -2.721000e-01 -1.970000e-01  8.405741e-01
     vertex -2.700000e-01 -1.970000e-01  8.418359e-01
     vertex -2.700000e-01 -1.991000e-01  8.405741e-01
   endloop
 endfacet
 facet normal  0.000000e+00  0.000000e+00  0.000000e+00
   outer loop
     vertex -2.700000e-01 -1.970000e-01  8.418359e-01
     vertex -2.700000e-01 -1.970000e-01  8.418359e-01
     vertex -2.721000e-01 -1.970000e-01  8.405741e-01
   endloop
 endfacet
 facet normal  4.578769e-01 -4.578769e-01 -7.620351e-01
   outer loop
     vertex -2.700000e-01 -1.949000e-01  8.405741e-01
     vertex -2.700000e-01 -1.970000e-01  8.418359e-01
     vertex -2.721000e-01 -1.970000e-01  8.405741e-01
   endloop
 endfacet
 facet normal -4.578769e-01 -4.578769e-01 -7.620351e-01
   outer loop
     vertex -2.679000e-01 -1.970000e-01  8.405741e-01
     vertex -2.700000e-01 -1.970000e-01  8.418359e-01
     vertex -2.700000e-01 -1.949000e-01  8.405741e-01
   endloop
 endfacet
 facet normal -7.071068e-01  7.071068e-01  0.000000e+00
   outer loop
     vertex -2.700000e-01 -2.091000e-01  8.265741e-01
     vertex -2.679000e-01 -2.070000e-01  8.405741e-01
     vertex -2.679000e-01 -2.070000e-01  8.265741e-01
   endloop
 endfacet
 facet normal -7.071068e-01  7.071068e-01  0.000000e+00
   outer loop
     vertex -2.700000e-01 -2.091000e-01  8.265741e-01
     vertex -2.700000e-01 -2.091000e-01  8.405741e-01
     vertex -2.679000e-01 -2.070000e-01  8.405741e-01
   endloop
 endfacet
 facet normal  7.071068e-01  7.071068e-01 -0.000000e+00
   outer loop
     vertex -2.721000e-01 -2.070000e-01  8.265741e-01
     vertex -2.721000e-01 -2.070000e-01  8.405741e-01
     vertex -2.700000e-01 -2.091000e-01  8.405741e-01
   endloop
 endfacet
 facet normal  7.071068e-01  7.071068e-01  0.000000e+00
   outer loop
     vertex -2.721000e-01 -2.070000e-01  8.265741e-01
     vertex -2.700000e-01 -2.091000e-01  8.405741e-01
     vertex -2.700000e-01 -2.091000e-01  8.265741e-01
   endloop
 endfacet
 facet normal  7.071068e-01 -7.071068e-01  0.000000e+00
   outer loop
     vertex -2.700000e-01 -2.049000e-01  8.265741e-01
     vertex -2.700000e-01 -2.049000e-01  8.405741e-01
     vertex -2.721000e-01 -2.070000e-01  8.405741e-01
   endloop
 endfacet
 facet normal  7.071068e-01 -7.071068e-01  0.000000e+00
   outer loop
     vertex -2.700000e-01 -2.049000e-01  8.265741e-01
     vertex -2.721000e-01 -2.070000e-01  8.405741e-01
     vertex -2.721000e-01 -2.070000e-01  8.265741e-01
   endloop
 endfacet
 facet normal -7.071068e-01 -7.071068e-01  0.000000e+00
   outer loop
     vertex -2.679000e-01 -2.070000e-01  8.265741e-01
     vertex -2.679000e-01 -2.070000e-01  8.405741e-01
     vertex -2.700000e-01 -2.049000e-01  8.405741e-01
   endloop
 endfacet
 facet normal -7.071068e-01 -7.071068e-01  0.000000e+00
   outer loop
     vertex -2.679000e-01 -2.070000e-01  8.265741e-01
     vertex -2.700000e-01 -2.049000e-01  8.405741e-01
     vertex -2.700000e-01 -2.049000e-01  8.265741e-01
   endloop
 endfacet
 facet normal -4.578769e-01  4.578769e-01 -7.620351e-01
   outer loop
     vertex -2.700000e-01 -2.091000e-01  8.405741e-01
     vertex -2.700000e-01 -2.070000e-01  8.418359e-01
     vertex -2.679000e-01 -2.070000e-01  8.405741e-01
   endloop
 endfacet
 facet normal  4.578769e-01  4.578769e-01 -7.620351e-01
   outer loop
     vertex -2.721000e-01 -2.070000e-01  8.405741e-01
     vertex -2.700000e-01 -2.070000e-01  8.418359e-01
     vertex -2.700000e-01 -2.091000e-01  8.405741e-01
   endloop
 endfacet
 facet normal  0.000000e+00  0.000000e+00  0.000000e+00
   outer loop
     vertex -2.700000e-01 -2.070000e-01  8.418359e-01
     vertex -2.700000e-01 -2.070000e-01  8.418359e-01
     vertex -2.721000e-01 -2.070000e-01  8.405741e-01
   endloop
 endfacet
 facet normal  4.578769e-01 -4.578769e-01 -7.620351e-01
   outer loop
     vertex -2.700000e-01 -2.049000e-01  8.405741e-01
     vertex -2.700000e-01 -2.070000e-01  8.418359e-01
     vertex -2.721000e-01 -2.070000e-01  8.405741e-01
   endloop
 endfacet
 facet normal -4.578769e-01 -4.578769e-01 -7.620351e-01
   outer loop
     vertex -2.679000e-01 -2.070000e-01  8.405741e-01
     vertex -2.700000e-01 -2.070000e-01  8.418359e-01
     vertex -2.700000e-01 -2.049000e-01  8.405741e-01
   endloop
 endfacet
endsolid
