solid 
 facet normal  0.000000e+00  0.000000e+00  1.000000e+00
   outer loop
     vertex  2.962496e-02 -3.513400e-03 -4.798824e-02
     vertex  2.830000e-02  4.137105e-03 -4.798824e-02
     vertex  2.830000e-02 -4.662895e-03 -4.798824e-02
   endloop
 endfacet
 facet normal  0.000000e+00 -0.000000e+00  1.000000e+00
   outer loop
     vertex  2.925000e-02 -4.163029e-03 -4.798824e-02
     vertex  2.962496e-02 -3.513400e-03 -4.798824e-02
     vertex  2.830000e-02 -4.662895e-03 -4.798824e-02
   endloop
 endfacet
 facet normal  0.000000e+00  0.000000e+00  1.000000e+00
   outer loop
     vertex  3.750000e-02  3.637180e-03 -4.798824e-02
     vertex  3.750000e-02  4.137105e-03 -4.798824e-02
     vertex  2.830000e-02  4.137105e-03 -4.798824e-02
   endloop
 endfacet
 facet normal  0.000000e+00  0.000000e+00  1.000000e+00
   outer loop
     vertex  3.037503e-02 -3.513399e-03 -4.798824e-02
     vertex  2.830000e-02  4.137105e-03 -4.798824e-02
     vertex  2.962496e-02 -3.513400e-03 -4.798824e-02
   endloop
 endfacet
 facet normal  0.000000e+00 -0.000000e+00  1.000000e+00
   outer loop
     vertex  2.925000e-02 -4.662895e-03 -4.798824e-02
     vertex  2.925000e-02 -4.163029e-03 -4.798824e-02
     vertex  2.830000e-02 -4.662895e-03 -4.798824e-02
   endloop
 endfacet
 facet normal  0.000000e+00  0.000000e+00  1.000000e+00
   outer loop
     vertex  3.760046e-02  3.262148e-03 -4.798824e-02
     vertex  2.830000e-02  4.137105e-03 -4.798824e-02
     vertex  3.037503e-02 -3.513399e-03 -4.798824e-02
   endloop
 endfacet
 facet normal  0.000000e+00  0.000000e+00  1.000000e+00
   outer loop
     vertex  3.760046e-02  3.262148e-03 -4.798824e-02
     vertex  3.750000e-02  3.637180e-03 -4.798824e-02
     vertex  2.830000e-02  4.137105e-03 -4.798824e-02
   endloop
 endfacet
 facet normal  0.000000e+00  0.000000e+00  1.000000e+00
   outer loop
     vertex  3.787498e-02  2.987599e-03 -4.798824e-02
     vertex  3.760046e-02  3.262148e-03 -4.798824e-02
     vertex  3.037503e-02 -3.513399e-03 -4.798824e-02
   endloop
 endfacet
 facet normal  0.000000e+00 -0.000000e+00  1.000000e+00
   outer loop
     vertex  3.075000e-02 -4.163026e-03 -4.798824e-02
     vertex  3.787498e-02  2.987599e-03 -4.798824e-02
     vertex  3.037503e-02 -3.513399e-03 -4.798824e-02
   endloop
 endfacet
 facet normal  0.000000e+00  0.000000e+00  1.000000e+00
   outer loop
     vertex  3.980000e-02  4.137105e-03 -4.798824e-02
     vertex  3.900000e-02  4.137105e-03 -4.798824e-02
     vertex  3.900000e-02  3.637193e-03 -4.798824e-02
   endloop
 endfacet
 facet normal  0.000000e+00  0.000000e+00  1.000000e+00
   outer loop
     vertex  3.980000e-02  2.700000e-03 -4.798824e-02
     vertex  3.862503e-02  2.987602e-03 -4.798824e-02
     vertex  3.825000e-02  2.887111e-03 -4.798824e-02
   endloop
 endfacet
 facet normal  0.000000e+00  0.000000e+00  1.000000e+00
   outer loop
     vertex  3.980000e-02  2.700000e-03 -4.798824e-02
     vertex  3.889955e-02  3.262156e-03 -4.798824e-02
     vertex  3.862503e-02  2.987602e-03 -4.798824e-02
   endloop
 endfacet
 facet normal  0.000000e+00  0.000000e+00  1.000000e+00
   outer loop
     vertex  3.980000e-02  2.700000e-03 -4.798824e-02
     vertex  3.900000e-02  3.637193e-03 -4.798824e-02
     vertex  3.889955e-02  3.262156e-03 -4.798824e-02
   endloop
 endfacet
 facet normal  0.000000e+00 -0.000000e+00  1.000000e+00
   outer loop
     vertex  3.980000e-02  2.700000e-03 -4.798824e-02
     vertex  3.980000e-02  4.137105e-03 -4.798824e-02
     vertex  3.900000e-02  3.637193e-03 -4.798824e-02
   endloop
 endfacet
 facet normal  0.000000e+00  0.000000e+00  1.000000e+00
   outer loop
     vertex  3.980000e-02 -3.300000e-03 -4.798824e-02
     vertex  3.825000e-02  2.887111e-03 -4.798824e-02
     vertex  3.787498e-02  2.987599e-03 -4.798824e-02
   endloop
 endfacet
 facet normal  0.000000e+00  0.000000e+00  1.000000e+00
   outer loop
     vertex  3.980000e-02 -3.300000e-03 -4.798824e-02
     vertex  3.787498e-02  2.987599e-03 -4.798824e-02
     vertex  3.075000e-02 -4.163026e-03 -4.798824e-02
   endloop
 endfacet
 facet normal  0.000000e+00 -0.000000e+00  1.000000e+00
   outer loop
     vertex  3.980000e-02 -3.300000e-03 -4.798824e-02
     vertex  3.980000e-02  2.700000e-03 -4.798824e-02
     vertex  3.825000e-02  2.887111e-03 -4.798824e-02
   endloop
 endfacet
 facet normal  0.000000e+00 -0.000000e+00  1.000000e+00
   outer loop
     vertex  4.080000e-02 -3.300000e-03 -4.798824e-02
     vertex  4.080000e-02  2.700000e-03 -4.798824e-02
     vertex  3.980000e-02  2.700000e-03 -4.798824e-02
   endloop
 endfacet
 facet normal  0.000000e+00  0.000000e+00  1.000000e+00
   outer loop
     vertex  4.080000e-02 -3.300000e-03 -4.798824e-02
     vertex  3.980000e-02  2.700000e-03 -4.798824e-02
     vertex  3.980000e-02 -3.300000e-03 -4.798824e-02
   endloop
 endfacet
 facet normal  0.000000e+00  0.000000e+00  1.000000e+00
   outer loop
     vertex  3.980000e-02 -4.662895e-03 -4.798824e-02
     vertex  3.075000e-02 -4.163026e-03 -4.798824e-02
     vertex  3.075000e-02 -4.662895e-03 -4.798824e-02
   endloop
 endfacet
 facet normal  0.000000e+00 -0.000000e+00  1.000000e+00
   outer loop
     vertex  3.980000e-02 -4.662895e-03 -4.798824e-02
     vertex  3.980000e-02 -3.300000e-03 -4.798824e-02
     vertex  3.075000e-02 -4.163026e-03 -4.798824e-02
   endloop
 endfacet
 facet normal  9.000654e-01  0.000000e+00 -4.357548e-01
   outer loop
     vertex  4.287275e-02 -3.300000e-03 -5.015978e-02
     vertex  4.216132e-02 -3.300000e-03 -5.162926e-02
     vertex  4.216132e-02  2.700000e-03 -5.162926e-02
   endloop
 endfacet
 facet normal  9.000654e-01  0.000000e+00 -4.357548e-01
   outer loop
     vertex  4.287275e-02 -3.300000e-03 -5.015978e-02
     vertex  4.216132e-02  2.700000e-03 -5.162926e-02
     vertex  4.287275e-02  2.700000e-03 -5.015978e-02
   endloop
 endfacet
 facet normal  9.366722e-01 -0.000000e+00  3.502074e-01
   outer loop
     vertex  4.230099e-02 -3.300000e-03 -4.863053e-02
     vertex  4.287275e-02  2.700000e-03 -5.015978e-02
     vertex  4.230099e-02  2.700000e-03 -4.863053e-02
   endloop
 endfacet
 facet normal  9.366722e-01  0.000000e+00  3.502074e-01
   outer loop
     vertex  4.230099e-02 -3.300000e-03 -4.863053e-02
     vertex  4.287275e-02 -3.300000e-03 -5.015978e-02
     vertex  4.287275e-02  2.700000e-03 -5.015978e-02
   endloop
 endfacet
 facet normal  3.934071e-01 -0.000000e+00  9.193644e-01
   outer loop
     vertex  4.080000e-02 -3.300000e-03 -4.798824e-02
     vertex  4.230099e-02  2.700000e-03 -4.863053e-02
     vertex  4.080000e-02  2.700000e-03 -4.798824e-02
   endloop
 endfacet
 facet normal  3.934071e-01  0.000000e+00  9.193644e-01
   outer loop
     vertex  4.080000e-02 -3.300000e-03 -4.798824e-02
     vertex  4.230099e-02 -3.300000e-03 -4.863053e-02
     vertex  4.230099e-02  2.700000e-03 -4.863053e-02
   endloop
 endfacet
 facet normal  6.560590e-01  0.000000e+00 -7.547096e-01
   outer loop
     vertex  4.201038e-02 -3.300000e-03 -5.176048e-02
     vertex  4.216132e-02  2.700000e-03 -5.162926e-02
     vertex  4.216132e-02 -3.300000e-03 -5.162926e-02
   endloop
 endfacet
 facet normal  6.560590e-01  0.000000e+00 -7.547096e-01
   outer loop
     vertex  4.201038e-02 -3.300000e-03 -5.176048e-02
     vertex  4.201038e-02  2.700000e-03 -5.176048e-02
     vertex  4.216132e-02  2.700000e-03 -5.162926e-02
   endloop
 endfacet
 facet normal  7.566148e-01  0.000000e+00 -6.538609e-01
   outer loop
     vertex  4.163885e-02 -3.300000e-03 -5.219039e-02
     vertex  4.201038e-02  2.700000e-03 -5.176048e-02
     vertex  4.201038e-02 -3.300000e-03 -5.176048e-02
   endloop
 endfacet
 facet normal  7.566148e-01 -7.743268e-13 -6.538609e-01
   outer loop
     vertex  4.163885e-02 -3.300000e-03 -5.219039e-02
     vertex  4.163885e-02  2.700000e-03 -5.219039e-02
     vertex  4.201038e-02  2.700000e-03 -5.176048e-02
   endloop
 endfacet
 facet normal  9.099613e-01  0.000000e+00 -4.146932e-01
   outer loop
     vertex  4.140321e-02 -3.300000e-03 -5.270744e-02
     vertex  4.140321e-02  2.700000e-03 -5.270744e-02
     vertex  4.163885e-02  2.700000e-03 -5.219039e-02
   endloop
 endfacet
 facet normal  9.099613e-01 -4.910996e-13 -4.146932e-01
   outer loop
     vertex  4.140321e-02 -3.300000e-03 -5.270744e-02
     vertex  4.163885e-02  2.700000e-03 -5.219039e-02
     vertex  4.163885e-02 -3.300000e-03 -5.219039e-02
   endloop
 endfacet
 facet normal  9.898590e-01  0.000000e+00 -1.420531e-01
   outer loop
     vertex  4.132250e-02 -3.300000e-03 -5.326989e-02
     vertex  4.132250e-02  2.700000e-03 -5.326989e-02
     vertex  4.140321e-02  2.700000e-03 -5.270744e-02
   endloop
 endfacet
 facet normal  9.898590e-01  0.000000e+00 -1.420531e-01
   outer loop
     vertex  4.132250e-02 -3.300000e-03 -5.326989e-02
     vertex  4.140321e-02  2.700000e-03 -5.270744e-02
     vertex  4.140321e-02 -3.300000e-03 -5.270744e-02
   endloop
 endfacet
 facet normal  1.000000e+00  0.000000e+00 -0.000000e+00
   outer loop
     vertex  4.132250e-02  3.000000e-03 -5.491912e-02
     vertex  4.132250e-02  3.470000e-03 -5.441912e-02
     vertex  4.132250e-02  2.700000e-03 -5.441912e-02
   endloop
 endfacet
 facet normal  1.000000e+00  0.000000e+00  0.000000e+00
   outer loop
     vertex  4.132250e-02  3.000000e-03 -5.491912e-02
     vertex  4.132250e-02  3.470000e-03 -5.491912e-02
     vertex  4.132250e-02  3.470000e-03 -5.441912e-02
   endloop
 endfacet
 facet normal  1.000000e+00  0.000000e+00  0.000000e+00
   outer loop
     vertex  4.132250e-02  3.000000e-03 -5.612912e-02
     vertex  4.132250e-02  3.000000e-03 -5.491912e-02
     vertex  4.132250e-02  2.700000e-03 -5.441912e-02
   endloop
 endfacet
 facet normal  1.000000e+00  0.000000e+00 -0.000000e+00
   outer loop
     vertex  4.132250e-02 -3.300000e-03 -5.441912e-02
     vertex  4.132250e-02  2.700000e-03 -5.326989e-02
     vertex  4.132250e-02 -3.300000e-03 -5.326989e-02
   endloop
 endfacet
 facet normal  1.000000e+00  0.000000e+00  0.000000e+00
   outer loop
     vertex  4.132250e-02 -3.300000e-03 -5.441912e-02
     vertex  4.132250e-02  2.700000e-03 -5.441912e-02
     vertex  4.132250e-02  2.700000e-03 -5.326989e-02
   endloop
 endfacet
 facet normal  1.000000e+00  0.000000e+00 -0.000000e+00
   outer loop
     vertex  4.132250e-02 -3.600000e-03 -5.491912e-02
     vertex  4.132250e-02 -3.300000e-03 -5.441912e-02
     vertex  4.132250e-02 -4.070000e-03 -5.441912e-02
   endloop
 endfacet
 facet normal  1.000000e+00  0.000000e+00  0.000000e+00
   outer loop
     vertex  4.132250e-02 -4.070000e-03 -5.491912e-02
     vertex  4.132250e-02 -3.600000e-03 -5.491912e-02
     vertex  4.132250e-02 -4.070000e-03 -5.441912e-02
   endloop
 endfacet
 facet normal  1.000000e+00  0.000000e+00 -0.000000e+00
   outer loop
     vertex  4.132250e-02 -3.600000e-03 -5.612912e-02
     vertex  4.132250e-02 -3.300000e-03 -5.441912e-02
     vertex  4.132250e-02 -3.600000e-03 -5.491912e-02
   endloop
 endfacet
 facet normal  1.000000e+00  0.000000e+00  0.000000e+00
   outer loop
     vertex  4.132250e-02 -3.600000e-03 -5.612912e-02
     vertex  4.132250e-02  3.000000e-03 -5.612912e-02
     vertex  4.132250e-02  2.700000e-03 -5.441912e-02
   endloop
 endfacet
 facet normal  1.000000e+00  0.000000e+00  0.000000e+00
   outer loop
     vertex  4.132250e-02 -3.600000e-03 -5.612912e-02
     vertex  4.132250e-02  2.700000e-03 -5.441912e-02
     vertex  4.132250e-02 -3.300000e-03 -5.441912e-02
   endloop
 endfacet
 facet normal -0.000000e+00  0.000000e+00 -1.000000e+00
   outer loop
     vertex  4.132250e-02  3.000000e-03 -5.612912e-02
     vertex  4.124750e-02 -3.600000e-03 -5.612912e-02
     vertex  4.124750e-02  3.000000e-03 -5.612912e-02
   endloop
 endfacet
 facet normal  0.000000e+00 -0.000000e+00 -1.000000e+00
   outer loop
     vertex  4.132250e-02  3.000000e-03 -5.612912e-02
     vertex  4.132250e-02 -3.600000e-03 -5.612912e-02
     vertex  4.124750e-02 -3.600000e-03 -5.612912e-02
   endloop
 endfacet
 facet normal -1.000000e+00  0.000000e+00  0.000000e+00
   outer loop
     vertex  4.124750e-02  3.000000e-03 -5.491912e-02
     vertex  4.124750e-02  2.700000e-03 -5.441912e-02
     vertex  4.124750e-02  3.470000e-03 -5.441912e-02
   endloop
 endfacet
 facet normal -1.000000e+00  0.000000e+00  0.000000e+00
   outer loop
     vertex  4.124750e-02  3.000000e-03 -5.491912e-02
     vertex  4.124750e-02  3.470000e-03 -5.441912e-02
     vertex  4.124750e-02  3.470000e-03 -5.491912e-02
   endloop
 endfacet
 facet normal -1.000000e+00  0.000000e+00  0.000000e+00
   outer loop
     vertex  4.124750e-02  3.000000e-03 -5.612912e-02
     vertex  4.124750e-02  2.700000e-03 -5.441912e-02
     vertex  4.124750e-02  3.000000e-03 -5.491912e-02
   endloop
 endfacet
 facet normal -1.000000e+00  0.000000e+00  0.000000e+00
   outer loop
     vertex  4.124750e-02 -3.300000e-03 -5.441912e-02
     vertex  4.124750e-02 -3.300000e-03 -5.326989e-02
     vertex  4.124750e-02  2.700000e-03 -5.326989e-02
   endloop
 endfacet
 facet normal -1.000000e+00  0.000000e+00  0.000000e+00
   outer loop
     vertex  4.124750e-02 -3.300000e-03 -5.441912e-02
     vertex  4.124750e-02  2.700000e-03 -5.326989e-02
     vertex  4.124750e-02  2.700000e-03 -5.441912e-02
   endloop
 endfacet
 facet normal -1.000000e+00  0.000000e+00  0.000000e+00
   outer loop
     vertex  4.124750e-02 -3.600000e-03 -5.491912e-02
     vertex  4.124750e-02 -4.070000e-03 -5.441912e-02
     vertex  4.124750e-02 -3.300000e-03 -5.441912e-02
   endloop
 endfacet
 facet normal -1.000000e+00  0.000000e+00  0.000000e+00
   outer loop
     vertex  4.124750e-02 -4.070000e-03 -5.491912e-02
     vertex  4.124750e-02 -4.070000e-03 -5.441912e-02
     vertex  4.124750e-02 -3.600000e-03 -5.491912e-02
   endloop
 endfacet
 facet normal -1.000000e+00  0.000000e+00  0.000000e+00
   outer loop
     vertex  4.124750e-02 -3.600000e-03 -5.612912e-02
     vertex  4.124750e-02 -3.600000e-03 -5.491912e-02
     vertex  4.124750e-02 -3.300000e-03 -5.441912e-02
   endloop
 endfacet
 facet normal -1.000000e+00  0.000000e+00  0.000000e+00
   outer loop
     vertex  4.124750e-02 -3.600000e-03 -5.612912e-02
     vertex  4.124750e-02  2.700000e-03 -5.441912e-02
     vertex  4.124750e-02  3.000000e-03 -5.612912e-02
   endloop
 endfacet
 facet normal -1.000000e+00  0.000000e+00  0.000000e+00
   outer loop
     vertex  4.124750e-02 -3.600000e-03 -5.612912e-02
     vertex  4.124750e-02 -3.300000e-03 -5.441912e-02
     vertex  4.124750e-02  2.700000e-03 -5.441912e-02
   endloop
 endfacet
 facet normal  0.000000e+00 -1.000000e+00 -3.773669e-16
   outer loop
     vertex  4.132250e-02 -3.300000e-03 -5.326989e-02
     vertex  4.124750e-02 -3.300000e-03 -5.441912e-02
     vertex  4.132250e-02 -3.300000e-03 -5.441912e-02
   endloop
 endfacet
 facet normal -0.000000e+00 -1.000000e+00 -3.773669e-16
   outer loop
     vertex  4.132250e-02 -3.300000e-03 -5.326989e-02
     vertex  4.124750e-02 -3.300000e-03 -5.326989e-02
     vertex  4.124750e-02 -3.300000e-03 -5.441912e-02
   endloop
 endfacet
 facet normal -2.090028e-16 -1.000000e+00 -7.131934e-16
   outer loop
     vertex  4.140321e-02 -3.300000e-03 -5.270744e-02
     vertex  4.133124e-02 -3.300000e-03 -5.268635e-02
     vertex  4.124750e-02 -3.300000e-03 -5.326989e-02
   endloop
 endfacet
 facet normal  0.000000e+00 -1.000000e+00 -7.710566e-16
   outer loop
     vertex  4.140321e-02 -3.300000e-03 -5.270744e-02
     vertex  4.124750e-02 -3.300000e-03 -5.326989e-02
     vertex  4.132250e-02 -3.300000e-03 -5.326989e-02
   endloop
 endfacet
 facet normal -0.000000e+00 -1.000000e+00  0.000000e+00
   outer loop
     vertex  4.163885e-02 -3.300000e-03 -5.219039e-02
     vertex  4.157571e-02 -3.300000e-03 -5.214991e-02
     vertex  4.133124e-02 -3.300000e-03 -5.268635e-02
   endloop
 endfacet
 facet normal  0.000000e+00 -1.000000e+00  0.000000e+00
   outer loop
     vertex  4.163885e-02 -3.300000e-03 -5.219039e-02
     vertex  4.133124e-02 -3.300000e-03 -5.268635e-02
     vertex  4.140321e-02 -3.300000e-03 -5.270744e-02
   endloop
 endfacet
 facet normal -0.000000e+00 -1.000000e+00  0.000000e+00
   outer loop
     vertex  4.201038e-02 -3.300000e-03 -5.176048e-02
     vertex  4.196118e-02 -3.300000e-03 -5.170387e-02
     vertex  4.157571e-02 -3.300000e-03 -5.214991e-02
   endloop
 endfacet
 facet normal  0.000000e+00 -1.000000e+00  0.000000e+00
   outer loop
     vertex  4.201038e-02 -3.300000e-03 -5.176048e-02
     vertex  4.157571e-02 -3.300000e-03 -5.214991e-02
     vertex  4.163885e-02 -3.300000e-03 -5.219039e-02
   endloop
 endfacet
 facet normal -7.566148e-01  0.000000e+00  6.538609e-01
   outer loop
     vertex  4.157571e-02 -3.300000e-03 -5.214991e-02
     vertex  4.196118e-02 -3.300000e-03 -5.170387e-02
     vertex  4.196118e-02  2.700000e-03 -5.170387e-02
   endloop
 endfacet
 facet normal -7.566148e-01  0.000000e+00  6.538609e-01
   outer loop
     vertex  4.157571e-02 -3.300000e-03 -5.214991e-02
     vertex  4.196118e-02  2.700000e-03 -5.170387e-02
     vertex  4.157571e-02  2.700000e-03 -5.214991e-02
   endloop
 endfacet
 facet normal -9.099613e-01  0.000000e+00  4.146932e-01
   outer loop
     vertex  4.133124e-02 -3.300000e-03 -5.268635e-02
     vertex  4.157571e-02  2.700000e-03 -5.214991e-02
     vertex  4.133124e-02  2.700000e-03 -5.268635e-02
   endloop
 endfacet
 facet normal -9.099613e-01  0.000000e+00  4.146932e-01
   outer loop
     vertex  4.133124e-02 -3.300000e-03 -5.268635e-02
     vertex  4.157571e-02 -3.300000e-03 -5.214991e-02
     vertex  4.157571e-02  2.700000e-03 -5.214991e-02
   endloop
 endfacet
 facet normal -9.898590e-01  0.000000e+00  1.420531e-01
   outer loop
     vertex  4.124750e-02 -3.300000e-03 -5.326989e-02
     vertex  4.133124e-02  2.700000e-03 -5.268635e-02
     vertex  4.124750e-02  2.700000e-03 -5.326989e-02
   endloop
 endfacet
 facet normal -9.898590e-01  0.000000e+00  1.420531e-01
   outer loop
     vertex  4.124750e-02 -3.300000e-03 -5.326989e-02
     vertex  4.133124e-02 -3.300000e-03 -5.268635e-02
     vertex  4.133124e-02  2.700000e-03 -5.268635e-02
   endloop
 endfacet
 facet normal  0.000000e+00  1.000000e+00  0.000000e+00
   outer loop
     vertex  4.163885e-02  2.700000e-03 -5.219039e-02
     vertex  4.196118e-02  2.700000e-03 -5.170387e-02
     vertex  4.201038e-02  2.700000e-03 -5.176048e-02
   endloop
 endfacet
 facet normal  0.000000e+00  1.000000e+00 -0.000000e+00
   outer loop
     vertex  4.163885e-02  2.700000e-03 -5.219039e-02
     vertex  4.157571e-02  2.700000e-03 -5.214991e-02
     vertex  4.196118e-02  2.700000e-03 -5.170387e-02
   endloop
 endfacet
 facet normal  0.000000e+00  1.000000e+00 -0.000000e+00
   outer loop
     vertex  4.140321e-02  2.700000e-03 -5.270744e-02
     vertex  4.133124e-02  2.700000e-03 -5.268635e-02
     vertex  4.157571e-02  2.700000e-03 -5.214991e-02
   endloop
 endfacet
 facet normal  0.000000e+00  1.000000e+00  0.000000e+00
   outer loop
     vertex  4.140321e-02  2.700000e-03 -5.270744e-02
     vertex  4.157571e-02  2.700000e-03 -5.214991e-02
     vertex  4.163885e-02  2.700000e-03 -5.219039e-02
   endloop
 endfacet
 facet normal -0.000000e+00  1.000000e+00  7.710566e-16
   outer loop
     vertex  4.124750e-02  2.700000e-03 -5.326989e-02
     vertex  4.140321e-02  2.700000e-03 -5.270744e-02
     vertex  4.132250e-02  2.700000e-03 -5.326989e-02
   endloop
 endfacet
 facet normal  2.090028e-16  1.000000e+00  7.131934e-16
   outer loop
     vertex  4.124750e-02  2.700000e-03 -5.326989e-02
     vertex  4.133124e-02  2.700000e-03 -5.268635e-02
     vertex  4.140321e-02  2.700000e-03 -5.270744e-02
   endloop
 endfacet
 facet normal  0.000000e+00  1.000000e+00  3.773669e-16
   outer loop
     vertex  4.132250e-02  2.700000e-03 -5.441912e-02
     vertex  4.124750e-02  2.700000e-03 -5.441912e-02
     vertex  4.124750e-02  2.700000e-03 -5.326989e-02
   endloop
 endfacet
 facet normal  0.000000e+00  1.000000e+00  3.773669e-16
   outer loop
     vertex  4.132250e-02  2.700000e-03 -5.441912e-02
     vertex  4.124750e-02  2.700000e-03 -5.326989e-02
     vertex  4.132250e-02  2.700000e-03 -5.326989e-02
   endloop
 endfacet
 facet normal  0.000000e+00  0.000000e+00  1.000000e+00
   outer loop
     vertex  4.132250e-02  3.470000e-03 -5.441912e-02
     vertex  4.124750e-02  2.700000e-03 -5.441912e-02
     vertex  4.132250e-02  2.700000e-03 -5.441912e-02
   endloop
 endfacet
 facet normal  0.000000e+00  0.000000e+00  1.000000e+00
   outer loop
     vertex  4.132250e-02  3.470000e-03 -5.441912e-02
     vertex  4.124750e-02  3.470000e-03 -5.441912e-02
     vertex  4.124750e-02  2.700000e-03 -5.441912e-02
   endloop
 endfacet
 facet normal  0.000000e+00  1.000000e+00 -8.673617e-16
   outer loop
     vertex  4.132250e-02  3.470000e-03 -5.491912e-02
     vertex  4.124750e-02  3.470000e-03 -5.441912e-02
     vertex  4.132250e-02  3.470000e-03 -5.441912e-02
   endloop
 endfacet
 facet normal  0.000000e+00  1.000000e+00 -8.673617e-16
   outer loop
     vertex  4.132250e-02  3.470000e-03 -5.491912e-02
     vertex  4.124750e-02  3.470000e-03 -5.491912e-02
     vertex  4.124750e-02  3.470000e-03 -5.441912e-02
   endloop
 endfacet
 facet normal  0.000000e+00  0.000000e+00 -1.000000e+00
   outer loop
     vertex  4.132250e-02  3.000000e-03 -5.491912e-02
     vertex  4.124750e-02  3.470000e-03 -5.491912e-02
     vertex  4.132250e-02  3.470000e-03 -5.491912e-02
   endloop
 endfacet
 facet normal  0.000000e+00  0.000000e+00 -1.000000e+00
   outer loop
     vertex  4.132250e-02  3.000000e-03 -5.491912e-02
     vertex  4.124750e-02  3.000000e-03 -5.491912e-02
     vertex  4.124750e-02  3.470000e-03 -5.491912e-02
   endloop
 endfacet
 facet normal  0.000000e+00  1.000000e+00  3.584139e-16
   outer loop
     vertex  4.132250e-02  3.000000e-03 -5.612912e-02
     vertex  4.124750e-02  3.000000e-03 -5.491912e-02
     vertex  4.132250e-02  3.000000e-03 -5.491912e-02
   endloop
 endfacet
 facet normal  0.000000e+00  1.000000e+00  3.584139e-16
   outer loop
     vertex  4.132250e-02  3.000000e-03 -5.612912e-02
     vertex  4.124750e-02  3.000000e-03 -5.612912e-02
     vertex  4.124750e-02  3.000000e-03 -5.491912e-02
   endloop
 endfacet
 facet normal  0.000000e+00  1.000000e+00  0.000000e+00
   outer loop
     vertex  4.201038e-02  2.700000e-03 -5.176048e-02
     vertex  4.211212e-02  2.700000e-03 -5.157266e-02
     vertex  4.216132e-02  2.700000e-03 -5.162926e-02
   endloop
 endfacet
 facet normal  0.000000e+00  1.000000e+00 -0.000000e+00
   outer loop
     vertex  4.201038e-02  2.700000e-03 -5.176048e-02
     vertex  4.196118e-02  2.700000e-03 -5.170387e-02
     vertex  4.211212e-02  2.700000e-03 -5.157266e-02
   endloop
 endfacet
 facet normal  1.394664e-17  1.000000e+00  2.994400e-16
   outer loop
     vertex  4.287275e-02  2.700000e-03 -5.015978e-02
     vertex  4.211212e-02  2.700000e-03 -5.157266e-02
     vertex  4.279783e-02  2.700000e-03 -5.015629e-02
   endloop
 endfacet
 facet normal  2.180581e-16  1.000000e+00  1.895550e-16
   outer loop
     vertex  4.287275e-02  2.700000e-03 -5.015978e-02
     vertex  4.216132e-02  2.700000e-03 -5.162926e-02
     vertex  4.211212e-02  2.700000e-03 -5.157266e-02
   endloop
 endfacet
 facet normal  2.889298e-16  1.000000e+00  0.000000e+00
   outer loop
     vertex  4.230099e-02  2.700000e-03 -4.863053e-02
     vertex  4.080000e-02  2.700000e-03 -4.806324e-02
     vertex  4.080000e-02  2.700000e-03 -4.798824e-02
   endloop
 endfacet
 facet normal  2.069760e-16  1.000000e+00 -2.168404e-16
   outer loop
     vertex  4.230099e-02  2.700000e-03 -4.863053e-02
     vertex  4.224674e-02  2.700000e-03 -4.868232e-02
     vertex  4.080000e-02  2.700000e-03 -4.806324e-02
   endloop
 endfacet
 facet normal  0.000000e+00  1.000000e+00  0.000000e+00
   outer loop
     vertex  4.230099e-02  2.700000e-03 -4.863053e-02
     vertex  4.279783e-02  2.700000e-03 -5.015629e-02
     vertex  4.224674e-02  2.700000e-03 -4.868232e-02
   endloop
 endfacet
 facet normal  0.000000e+00  1.000000e+00  0.000000e+00
   outer loop
     vertex  4.230099e-02  2.700000e-03 -4.863053e-02
     vertex  4.287275e-02  2.700000e-03 -5.015978e-02
     vertex  4.279783e-02  2.700000e-03 -5.015629e-02
   endloop
 endfacet
 facet normal  0.000000e+00  1.000000e+00  0.000000e+00
   outer loop
     vertex  4.080000e-02  2.700000e-03 -4.806324e-02
     vertex  3.980000e-02  2.700000e-03 -4.806324e-02
     vertex  3.980000e-02  2.700000e-03 -4.798824e-02
   endloop
 endfacet
 facet normal  0.000000e+00  1.000000e+00  0.000000e+00
   outer loop
     vertex  4.080000e-02  2.700000e-03 -4.798824e-02
     vertex  4.080000e-02  2.700000e-03 -4.806324e-02
     vertex  3.980000e-02  2.700000e-03 -4.798824e-02
   endloop
 endfacet
 facet normal  1.000000e+00 -0.000000e+00  0.000000e+00
   outer loop
     vertex  3.980000e-02  2.700000e-03 -4.798824e-02
     vertex  3.980000e-02  4.137105e-03 -4.806324e-02
     vertex  3.980000e-02  4.137105e-03 -4.798824e-02
   endloop
 endfacet
 facet normal  1.000000e+00  0.000000e+00  0.000000e+00
   outer loop
     vertex  3.980000e-02  2.700000e-03 -4.798824e-02
     vertex  3.980000e-02  2.700000e-03 -4.806324e-02
     vertex  3.980000e-02  4.137105e-03 -4.806324e-02
   endloop
 endfacet
 facet normal  1.192622e-14  1.000000e+00  1.156482e-14
   outer loop
     vertex  3.980000e-02  4.137105e-03 -4.798824e-02
     vertex  3.900000e-02  4.137105e-03 -4.806324e-02
     vertex  3.900000e-02  4.137105e-03 -4.798824e-02
   endloop
 endfacet
 facet normal  1.192622e-14  1.000000e+00  1.156482e-14
   outer loop
     vertex  3.980000e-02  4.137105e-03 -4.798824e-02
     vertex  3.980000e-02  4.137105e-03 -4.806324e-02
     vertex  3.900000e-02  4.137105e-03 -4.806324e-02
   endloop
 endfacet
 facet normal -1.000000e+00  5.771249e-06 -7.930584e-09
   outer loop
     vertex  3.900000e-02  4.137105e-03 -4.806324e-02
     vertex  3.900000e-02  3.637180e-03 -4.806324e-02
     vertex  3.900000e-02  3.637193e-03 -4.798824e-02
   endloop
 endfacet
 facet normal -1.000000e+00  5.772439e-06  6.675723e-20
   outer loop
     vertex  3.900000e-02  4.137105e-03 -4.798824e-02
     vertex  3.900000e-02  4.137105e-03 -4.806324e-02
     vertex  3.900000e-02  3.637193e-03 -4.798824e-02
   endloop
 endfacet
 facet normal -2.588241e-01  9.659245e-01  0.000000e+00
   outer loop
     vertex  3.825000e-02  2.887111e-03 -4.798824e-02
     vertex  3.862502e-02  2.987599e-03 -4.806324e-02
     vertex  3.825000e-02  2.887111e-03 -4.806324e-02
   endloop
 endfacet
 facet normal -7.071419e-01  7.070716e-01  1.516861e-05
   outer loop
     vertex  3.862503e-02  2.987602e-03 -4.798824e-02
     vertex  3.889954e-02  3.262148e-03 -4.806324e-02
     vertex  3.862502e-02  2.987599e-03 -4.806324e-02
   endloop
 endfacet
 facet normal -2.588270e-01  9.659237e-01 -1.516874e-05
   outer loop
     vertex  3.862503e-02  2.987602e-03 -4.798824e-02
     vertex  3.862502e-02  2.987599e-03 -4.806324e-02
     vertex  3.825000e-02  2.887111e-03 -4.798824e-02
   endloop
 endfacet
 facet normal -9.659488e-01  2.587334e-01  3.033628e-05
   outer loop
     vertex  3.889955e-02  3.262156e-03 -4.798824e-02
     vertex  3.900000e-02  3.637180e-03 -4.806324e-02
     vertex  3.889954e-02  3.262148e-03 -4.806324e-02
   endloop
 endfacet
 facet normal -7.071481e-01  7.070654e-01 -3.033713e-05
   outer loop
     vertex  3.889955e-02  3.262156e-03 -4.798824e-02
     vertex  3.889954e-02  3.262148e-03 -4.806324e-02
     vertex  3.862503e-02  2.987602e-03 -4.798824e-02
   endloop
 endfacet
 facet normal -9.659526e-01  2.587192e-01 -4.549175e-05
   outer loop
     vertex  3.900000e-02  3.637193e-03 -4.798824e-02
     vertex  3.900000e-02  3.637180e-03 -4.806324e-02
     vertex  3.889955e-02  3.262156e-03 -4.798824e-02
   endloop
 endfacet
 facet normal  9.659488e-01  2.587334e-01  0.000000e+00
   outer loop
     vertex  3.760046e-02  3.262148e-03 -4.798824e-02
     vertex  3.750000e-02  3.637180e-03 -4.806324e-02
     vertex  3.750000e-02  3.637180e-03 -4.798824e-02
   endloop
 endfacet
 facet normal  9.659488e-01  2.587334e-01 -4.742646e-13
   outer loop
     vertex  3.760046e-02  3.262148e-03 -4.798824e-02
     vertex  3.760046e-02  3.262148e-03 -4.806324e-02
     vertex  3.750000e-02  3.637180e-03 -4.806324e-02
   endloop
 endfacet
 facet normal  7.071419e-01  7.070716e-01 -1.496420e-12
   outer loop
     vertex  3.787498e-02  2.987599e-03 -4.798824e-02
     vertex  3.787498e-02  2.987599e-03 -4.806324e-02
     vertex  3.760046e-02  3.262148e-03 -4.806324e-02
   endloop
 endfacet
 facet normal  7.071419e-01  7.070716e-01 -1.296270e-12
   outer loop
     vertex  3.787498e-02  2.987599e-03 -4.798824e-02
     vertex  3.760046e-02  3.262148e-03 -4.806324e-02
     vertex  3.760046e-02  3.262148e-03 -4.798824e-02
   endloop
 endfacet
 facet normal  2.588241e-01  9.659245e-01  0.000000e+00
   outer loop
     vertex  3.825000e-02  2.887111e-03 -4.798824e-02
     vertex  3.825000e-02  2.887111e-03 -4.806324e-02
     vertex  3.787498e-02  2.987599e-03 -4.806324e-02
   endloop
 endfacet
 facet normal  2.588241e-01  9.659245e-01 -2.044171e-12
   outer loop
     vertex  3.825000e-02  2.887111e-03 -4.798824e-02
     vertex  3.787498e-02  2.987599e-03 -4.806324e-02
     vertex  3.787498e-02  2.987599e-03 -4.798824e-02
   endloop
 endfacet
 facet normal  1.000000e+00  5.771235e-06  7.001921e-20
   outer loop
     vertex  3.750000e-02  3.637180e-03 -4.806324e-02
     vertex  3.750000e-02  4.137105e-03 -4.806324e-02
     vertex  3.750000e-02  4.137105e-03 -4.798824e-02
   endloop
 endfacet
 facet normal  1.000000e+00  5.771235e-06  0.000000e+00
   outer loop
     vertex  3.750000e-02  3.637180e-03 -4.798824e-02
     vertex  3.750000e-02  3.637180e-03 -4.806324e-02
     vertex  3.750000e-02  4.137105e-03 -4.798824e-02
   endloop
 endfacet
 facet normal -1.037063e-15  1.000000e+00  1.156482e-14
   outer loop
     vertex  3.750000e-02  4.137105e-03 -4.798824e-02
     vertex  2.830000e-02  4.137105e-03 -4.806324e-02
     vertex  2.830000e-02  4.137105e-03 -4.798824e-02
   endloop
 endfacet
 facet normal -1.037063e-15  1.000000e+00  1.156482e-14
   outer loop
     vertex  3.750000e-02  4.137105e-03 -4.798824e-02
     vertex  3.750000e-02  4.137105e-03 -4.806324e-02
     vertex  2.830000e-02  4.137105e-03 -4.806324e-02
   endloop
 endfacet
 facet normal -1.000000e+00 -0.000000e+00  0.000000e+00
   outer loop
     vertex  2.830000e-02  4.137105e-03 -4.798824e-02
     vertex  2.830000e-02 -4.662895e-03 -4.806324e-02
     vertex  2.830000e-02 -4.662895e-03 -4.798824e-02
   endloop
 endfacet
 facet normal -1.000000e+00  0.000000e+00 -0.000000e+00
   outer loop
     vertex  2.830000e-02  4.137105e-03 -4.798824e-02
     vertex  2.830000e-02  4.137105e-03 -4.806324e-02
     vertex  2.830000e-02 -4.662895e-03 -4.806324e-02
   endloop
 endfacet
 facet normal  0.000000e+00 -1.000000e+00 -1.156482e-14
   outer loop
     vertex  2.830000e-02 -4.662895e-03 -4.798824e-02
     vertex  2.925000e-02 -4.662895e-03 -4.806324e-02
     vertex  2.925000e-02 -4.662895e-03 -4.798824e-02
   endloop
 endfacet
 facet normal  0.000000e+00 -1.000000e+00 -1.156482e-14
   outer loop
     vertex  2.830000e-02 -4.662895e-03 -4.798824e-02
     vertex  2.830000e-02 -4.662895e-03 -4.806324e-02
     vertex  2.925000e-02 -4.662895e-03 -4.806324e-02
   endloop
 endfacet
 facet normal  1.000000e+00 -8.923117e-06  4.661216e-06
   outer loop
     vertex  2.925000e-02 -4.662895e-03 -4.806324e-02
     vertex  2.925000e-02 -4.163026e-03 -4.806324e-02
     vertex  2.925000e-02 -4.163029e-03 -4.798824e-02
   endloop
 endfacet
 facet normal  1.000000e+00 -8.223747e-06 -9.510619e-20
   outer loop
     vertex  2.925000e-02 -4.662895e-03 -4.798824e-02
     vertex  2.925000e-02 -4.662895e-03 -4.806324e-02
     vertex  2.925000e-02 -4.163029e-03 -4.798824e-02
   endloop
 endfacet
 facet normal -8.660843e-01 -4.998980e-01 -5.781232e-15
   outer loop
     vertex  3.075000e-02 -4.163026e-03 -4.798824e-02
     vertex  3.037504e-02 -3.513399e-03 -4.806324e-02
     vertex  3.075000e-02 -4.163026e-03 -4.806324e-02
   endloop
 endfacet
 facet normal  5.781868e-16 -1.000000e+00  6.034909e-06
   outer loop
     vertex  3.037503e-02 -3.513399e-03 -4.798824e-02
     vertex  2.962496e-02 -3.513399e-03 -4.806324e-02
     vertex  3.037504e-02 -3.513399e-03 -4.806324e-02
   endloop
 endfacet
 facet normal -8.660840e-01 -4.998985e-01 -6.034884e-06
   outer loop
     vertex  3.037503e-02 -3.513399e-03 -4.798824e-02
     vertex  3.037504e-02 -3.513399e-03 -4.806324e-02
     vertex  3.075000e-02 -4.163026e-03 -4.798824e-02
   endloop
 endfacet
 facet normal  8.660843e-01 -4.998980e-01  1.206968e-05
   outer loop
     vertex  2.962496e-02 -3.513400e-03 -4.798824e-02
     vertex  2.925000e-02 -4.163026e-03 -4.806324e-02
     vertex  2.962496e-02 -3.513399e-03 -4.806324e-02
   endloop
 endfacet
 facet normal  1.810304e-06 -1.000000e+00 -1.206982e-05
   outer loop
     vertex  2.962496e-02 -3.513400e-03 -4.798824e-02
     vertex  2.962496e-02 -3.513399e-03 -4.806324e-02
     vertex  3.037503e-02 -3.513399e-03 -4.798824e-02
   endloop
 endfacet
 facet normal  8.660856e-01 -4.998957e-01 -1.406230e-05
   outer loop
     vertex  2.925000e-02 -4.163029e-03 -4.798824e-02
     vertex  2.925000e-02 -4.163026e-03 -4.806324e-02
     vertex  2.962496e-02 -3.513400e-03 -4.798824e-02
   endloop
 endfacet
 facet normal -1.000000e+00 -8.923103e-06 -1.077340e-19
   outer loop
     vertex  3.075000e-02 -4.163026e-03 -4.806324e-02
     vertex  3.075000e-02 -4.662895e-03 -4.806324e-02
     vertex  3.075000e-02 -4.662895e-03 -4.798824e-02
   endloop
 endfacet
 facet normal -1.000000e+00 -8.923103e-06 -1.031941e-19
   outer loop
     vertex  3.075000e-02 -4.163026e-03 -4.798824e-02
     vertex  3.075000e-02 -4.163026e-03 -4.806324e-02
     vertex  3.075000e-02 -4.662895e-03 -4.798824e-02
   endloop
 endfacet
 facet normal  0.000000e+00 -1.000000e+00 -1.156482e-14
   outer loop
     vertex  3.075000e-02 -4.662895e-03 -4.798824e-02
     vertex  3.980000e-02 -4.662895e-03 -4.806324e-02
     vertex  3.980000e-02 -4.662895e-03 -4.798824e-02
   endloop
 endfacet
 facet normal  0.000000e+00 -1.000000e+00 -1.156482e-14
   outer loop
     vertex  3.075000e-02 -4.662895e-03 -4.798824e-02
     vertex  3.075000e-02 -4.662895e-03 -4.806324e-02
     vertex  3.980000e-02 -4.662895e-03 -4.806324e-02
   endloop
 endfacet
 facet normal  1.000000e+00 -0.000000e+00  0.000000e+00
   outer loop
     vertex  3.980000e-02 -4.662895e-03 -4.798824e-02
     vertex  3.980000e-02 -3.300000e-03 -4.806324e-02
     vertex  3.980000e-02 -3.300000e-03 -4.798824e-02
   endloop
 endfacet
 facet normal  1.000000e+00  0.000000e+00  0.000000e+00
   outer loop
     vertex  3.980000e-02 -4.662895e-03 -4.798824e-02
     vertex  3.980000e-02 -4.662895e-03 -4.806324e-02
     vertex  3.980000e-02 -3.300000e-03 -4.806324e-02
   endloop
 endfacet
 facet normal  0.000000e+00 -1.000000e+00  0.000000e+00
   outer loop
     vertex  3.980000e-02 -3.300000e-03 -4.798824e-02
     vertex  3.980000e-02 -3.300000e-03 -4.806324e-02
     vertex  4.080000e-02 -3.300000e-03 -4.806324e-02
   endloop
 endfacet
 facet normal  0.000000e+00 -1.000000e+00  0.000000e+00
   outer loop
     vertex  3.980000e-02 -3.300000e-03 -4.798824e-02
     vertex  4.080000e-02 -3.300000e-03 -4.806324e-02
     vertex  4.080000e-02 -3.300000e-03 -4.798824e-02
   endloop
 endfacet
 facet normal -1.344255e-17 -1.000000e+00 -2.886169e-16
   outer loop
     vertex  4.279783e-02 -3.300000e-03 -5.015629e-02
     vertex  4.216132e-02 -3.300000e-03 -5.162926e-02
     vertex  4.287275e-02 -3.300000e-03 -5.015978e-02
   endloop
 endfacet
 facet normal -2.262352e-16 -1.000000e+00 -1.966633e-16
   outer loop
     vertex  4.279783e-02 -3.300000e-03 -5.015629e-02
     vertex  4.211212e-02 -3.300000e-03 -5.157266e-02
     vertex  4.216132e-02 -3.300000e-03 -5.162926e-02
   endloop
 endfacet
 facet normal  0.000000e+00 -1.000000e+00  0.000000e+00
   outer loop
     vertex  4.224674e-02 -3.300000e-03 -4.868232e-02
     vertex  4.287275e-02 -3.300000e-03 -5.015978e-02
     vertex  4.230099e-02 -3.300000e-03 -4.863053e-02
   endloop
 endfacet
 facet normal  0.000000e+00 -1.000000e+00  0.000000e+00
   outer loop
     vertex  4.224674e-02 -3.300000e-03 -4.868232e-02
     vertex  4.279783e-02 -3.300000e-03 -5.015629e-02
     vertex  4.287275e-02 -3.300000e-03 -5.015978e-02
   endloop
 endfacet
 facet normal -2.997646e-16 -1.000000e+00 -0.000000e+00
   outer loop
     vertex  4.080000e-02 -3.300000e-03 -4.798824e-02
     vertex  4.080000e-02 -3.300000e-03 -4.806324e-02
     vertex  4.224674e-02 -3.300000e-03 -4.868232e-02
   endloop
 endfacet
 facet normal -1.994949e-16 -1.000000e+00  2.090028e-16
   outer loop
     vertex  4.080000e-02 -3.300000e-03 -4.798824e-02
     vertex  4.224674e-02 -3.300000e-03 -4.868232e-02
     vertex  4.230099e-02 -3.300000e-03 -4.863053e-02
   endloop
 endfacet
 facet normal -0.000000e+00 -1.000000e+00  0.000000e+00
   outer loop
     vertex  4.216132e-02 -3.300000e-03 -5.162926e-02
     vertex  4.211212e-02 -3.300000e-03 -5.157266e-02
     vertex  4.196118e-02 -3.300000e-03 -5.170387e-02
   endloop
 endfacet
 facet normal  0.000000e+00 -1.000000e+00  0.000000e+00
   outer loop
     vertex  4.216132e-02 -3.300000e-03 -5.162926e-02
     vertex  4.196118e-02 -3.300000e-03 -5.170387e-02
     vertex  4.201038e-02 -3.300000e-03 -5.176048e-02
   endloop
 endfacet
 facet normal -6.560590e-01  0.000000e+00  7.547096e-01
   outer loop
     vertex  4.196118e-02 -3.300000e-03 -5.170387e-02
     vertex  4.211212e-02 -3.300000e-03 -5.157266e-02
     vertex  4.211212e-02  2.700000e-03 -5.157266e-02
   endloop
 endfacet
 facet normal -6.560590e-01  0.000000e+00  7.547096e-01
   outer loop
     vertex  4.196118e-02 -3.300000e-03 -5.170387e-02
     vertex  4.211212e-02  2.700000e-03 -5.157266e-02
     vertex  4.196118e-02  2.700000e-03 -5.170387e-02
   endloop
 endfacet
 facet normal -9.000654e-01  0.000000e+00  4.357548e-01
   outer loop
     vertex  4.279783e-02 -3.300000e-03 -5.015629e-02
     vertex  4.279783e-02  2.700000e-03 -5.015629e-02
     vertex  4.211212e-02  2.700000e-03 -5.157266e-02
   endloop
 endfacet
 facet normal -9.000654e-01  0.000000e+00  4.357548e-01
   outer loop
     vertex  4.279783e-02 -3.300000e-03 -5.015629e-02
     vertex  4.211212e-02  2.700000e-03 -5.157266e-02
     vertex  4.211212e-02 -3.300000e-03 -5.157266e-02
   endloop
 endfacet
 facet normal -9.366722e-01  0.000000e+00 -3.502074e-01
   outer loop
     vertex  4.224674e-02 -3.300000e-03 -4.868232e-02
     vertex  4.224674e-02  2.700000e-03 -4.868232e-02
     vertex  4.279783e-02  2.700000e-03 -5.015629e-02
   endloop
 endfacet
 facet normal -9.366722e-01  0.000000e+00 -3.502074e-01
   outer loop
     vertex  4.224674e-02 -3.300000e-03 -4.868232e-02
     vertex  4.279783e-02  2.700000e-03 -5.015629e-02
     vertex  4.279783e-02 -3.300000e-03 -5.015629e-02
   endloop
 endfacet
 facet normal -3.934071e-01  0.000000e+00 -9.193644e-01
   outer loop
     vertex  4.080000e-02 -3.300000e-03 -4.806324e-02
     vertex  4.080000e-02  2.700000e-03 -4.806324e-02
     vertex  4.224674e-02  2.700000e-03 -4.868232e-02
   endloop
 endfacet
 facet normal -3.934071e-01  0.000000e+00 -9.193644e-01
   outer loop
     vertex  4.080000e-02 -3.300000e-03 -4.806324e-02
     vertex  4.224674e-02  2.700000e-03 -4.868232e-02
     vertex  4.224674e-02 -3.300000e-03 -4.868232e-02
   endloop
 endfacet
 facet normal -5.362730e-12  0.000000e+00 -1.000000e+00
   outer loop
     vertex  2.962496e-02 -3.513399e-03 -4.806324e-02
     vertex  2.830000e-02 -4.662895e-03 -4.806324e-02
     vertex  2.830000e-02  4.137105e-03 -4.806324e-02
   endloop
 endfacet
 facet normal  8.265394e-12 -1.570844e-11 -1.000000e+00
   outer loop
     vertex  2.925000e-02 -4.163026e-03 -4.806324e-02
     vertex  2.830000e-02 -4.662895e-03 -4.806324e-02
     vertex  2.962496e-02 -3.513399e-03 -4.806324e-02
   endloop
 endfacet
 facet normal  0.000000e+00  0.000000e+00 -1.000000e+00
   outer loop
     vertex  3.750000e-02  3.637180e-03 -4.806324e-02
     vertex  2.830000e-02  4.137105e-03 -4.806324e-02
     vertex  3.750000e-02  4.137105e-03 -4.806324e-02
   endloop
 endfacet
 facet normal -5.369925e-28  9.287528e-13 -1.000000e+00
   outer loop
     vertex  3.037504e-02 -3.513399e-03 -4.806324e-02
     vertex  2.962496e-02 -3.513399e-03 -4.806324e-02
     vertex  2.830000e-02  4.137105e-03 -4.806324e-02
   endloop
 endfacet
 facet normal  0.000000e+00  0.000000e+00 -1.000000e+00
   outer loop
     vertex  2.925000e-02 -4.662895e-03 -4.806324e-02
     vertex  2.830000e-02 -4.662895e-03 -4.806324e-02
     vertex  2.925000e-02 -4.163026e-03 -4.806324e-02
   endloop
 endfacet
 facet normal -6.943296e-13  7.404308e-13 -1.000000e+00
   outer loop
     vertex  3.760046e-02  3.262148e-03 -4.806324e-02
     vertex  3.037504e-02 -3.513399e-03 -4.806324e-02
     vertex  2.830000e-02  4.137105e-03 -4.806324e-02
   endloop
 endfacet
 facet normal  1.044738e-12  1.922605e-11 -1.000000e+00
   outer loop
     vertex  3.760046e-02  3.262148e-03 -4.806324e-02
     vertex  2.830000e-02  4.137105e-03 -4.806324e-02
     vertex  3.750000e-02  3.637180e-03 -4.806324e-02
   endloop
 endfacet
 facet normal -0.000000e+00  0.000000e+00 -1.000000e+00
   outer loop
     vertex  3.787498e-02  2.987599e-03 -4.806324e-02
     vertex  3.037504e-02 -3.513399e-03 -4.806324e-02
     vertex  3.760046e-02  3.262148e-03 -4.806324e-02
   endloop
 endfacet
 facet normal  6.319260e-12 -7.290279e-12 -1.000000e+00
   outer loop
     vertex  3.075000e-02 -4.163026e-03 -4.806324e-02
     vertex  3.037504e-02 -3.513399e-03 -4.806324e-02
     vertex  3.787498e-02  2.987599e-03 -4.806324e-02
   endloop
 endfacet
 facet normal -0.000000e+00  0.000000e+00 -1.000000e+00
   outer loop
     vertex  3.980000e-02  4.137105e-03 -4.806324e-02
     vertex  3.900000e-02  3.637180e-03 -4.806324e-02
     vertex  3.900000e-02  4.137105e-03 -4.806324e-02
   endloop
 endfacet
 facet normal  1.689390e-11  1.442111e-11 -1.000000e+00
   outer loop
     vertex  3.980000e-02  2.700000e-03 -4.806324e-02
     vertex  3.889954e-02  3.262148e-03 -4.806324e-02
     vertex  3.900000e-02  3.637180e-03 -4.806324e-02
   endloop
 endfacet
 facet normal  4.858248e-12 -4.857765e-12 -1.000000e+00
   outer loop
     vertex  3.980000e-02  2.700000e-03 -4.806324e-02
     vertex  3.862502e-02  2.987599e-03 -4.806324e-02
     vertex  3.889954e-02  3.262148e-03 -4.806324e-02
   endloop
 endfacet
 facet normal -5.884615e-12 -4.874741e-11 -1.000000e+00
   outer loop
     vertex  3.980000e-02  2.700000e-03 -4.806324e-02
     vertex  3.825000e-02  2.887111e-03 -4.806324e-02
     vertex  3.862502e-02  2.987599e-03 -4.806324e-02
   endloop
 endfacet
 facet normal  0.000000e+00  0.000000e+00 -1.000000e+00
   outer loop
     vertex  3.980000e-02  2.700000e-03 -4.806324e-02
     vertex  3.900000e-02  3.637180e-03 -4.806324e-02
     vertex  3.980000e-02  4.137105e-03 -4.806324e-02
   endloop
 endfacet
 facet normal  2.031010e-11  5.088103e-12 -1.000000e+00
   outer loop
     vertex  3.980000e-02 -3.300000e-03 -4.806324e-02
     vertex  3.787498e-02  2.987599e-03 -4.806324e-02
     vertex  3.825000e-02  2.887111e-03 -4.806324e-02
   endloop
 endfacet
 facet normal  0.000000e+00  0.000000e+00 -1.000000e+00
   outer loop
     vertex  3.980000e-02 -3.300000e-03 -4.806324e-02
     vertex  3.980000e-02  2.700000e-03 -4.806324e-02
     vertex  4.080000e-02  2.700000e-03 -4.806324e-02
   endloop
 endfacet
 facet normal  1.047086e-13 -1.098012e-12 -1.000000e+00
   outer loop
     vertex  3.980000e-02 -3.300000e-03 -4.806324e-02
     vertex  3.075000e-02 -4.163026e-03 -4.806324e-02
     vertex  3.787498e-02  2.987599e-03 -4.806324e-02
   endloop
 endfacet
 facet normal  0.000000e+00  0.000000e+00 -1.000000e+00
   outer loop
     vertex  3.980000e-02 -3.300000e-03 -4.806324e-02
     vertex  3.825000e-02  2.887111e-03 -4.806324e-02
     vertex  3.980000e-02  2.700000e-03 -4.806324e-02
   endloop
 endfacet
 facet normal  0.000000e+00  0.000000e+00 -1.000000e+00
   outer loop
     vertex  4.080000e-02 -3.300000e-03 -4.806324e-02
     vertex  3.980000e-02 -3.300000e-03 -4.806324e-02
     vertex  4.080000e-02  2.700000e-03 -4.806324e-02
   endloop
 endfacet
 facet normal  0.000000e+00  0.000000e+00 -1.000000e+00
   outer loop
     vertex  3.980000e-02 -4.662895e-03 -4.806324e-02
     vertex  3.075000e-02 -4.662895e-03 -4.806324e-02
     vertex  3.075000e-02 -4.163026e-03 -4.806324e-02
   endloop
 endfacet
 facet normal  0.000000e+00  0.000000e+00 -1.000000e+00
   outer loop
     vertex  3.980000e-02 -4.662895e-03 -4.806324e-02
     vertex  3.075000e-02 -4.163026e-03 -4.806324e-02
     vertex  3.980000e-02 -3.300000e-03 -4.806324e-02
   endloop
 endfacet
 facet normal  0.000000e+00  0.000000e+00  1.000000e+00
   outer loop
     vertex  4.132250e-02 -3.300000e-03 -5.441912e-02
     vertex  4.124750e-02 -4.070000e-03 -5.441912e-02
     vertex  4.132250e-02 -4.070000e-03 -5.441912e-02
   endloop
 endfacet
 facet normal  0.000000e+00  0.000000e+00  1.000000e+00
   outer loop
     vertex  4.132250e-02 -3.300000e-03 -5.441912e-02
     vertex  4.124750e-02 -3.300000e-03 -5.441912e-02
     vertex  4.124750e-02 -4.070000e-03 -5.441912e-02
   endloop
 endfacet
 facet normal  0.000000e+00 -1.000000e+00 -0.000000e+00
   outer loop
     vertex  4.132250e-02 -4.070000e-03 -5.441912e-02
     vertex  4.124750e-02 -4.070000e-03 -5.491912e-02
     vertex  4.132250e-02 -4.070000e-03 -5.491912e-02
   endloop
 endfacet
 facet normal -0.000000e+00 -1.000000e+00  0.000000e+00
   outer loop
     vertex  4.132250e-02 -4.070000e-03 -5.441912e-02
     vertex  4.124750e-02 -4.070000e-03 -5.441912e-02
     vertex  4.124750e-02 -4.070000e-03 -5.491912e-02
   endloop
 endfacet
 facet normal  0.000000e+00  0.000000e+00 -1.000000e+00
   outer loop
     vertex  4.132250e-02 -4.070000e-03 -5.491912e-02
     vertex  4.124750e-02 -3.600000e-03 -5.491912e-02
     vertex  4.132250e-02 -3.600000e-03 -5.491912e-02
   endloop
 endfacet
 facet normal  0.000000e+00  0.000000e+00 -1.000000e+00
   outer loop
     vertex  4.132250e-02 -4.070000e-03 -5.491912e-02
     vertex  4.124750e-02 -4.070000e-03 -5.491912e-02
     vertex  4.124750e-02 -3.600000e-03 -5.491912e-02
   endloop
 endfacet
 facet normal  0.000000e+00 -1.000000e+00 -3.584139e-16
   outer loop
     vertex  4.132250e-02 -3.600000e-03 -5.491912e-02
     vertex  4.124750e-02 -3.600000e-03 -5.612912e-02
     vertex  4.132250e-02 -3.600000e-03 -5.612912e-02
   endloop
 endfacet
 facet normal -0.000000e+00 -1.000000e+00 -3.584139e-16
   outer loop
     vertex  4.132250e-02 -3.600000e-03 -5.491912e-02
     vertex  4.124750e-02 -3.600000e-03 -5.491912e-02
     vertex  4.124750e-02 -3.600000e-03 -5.612912e-02
   endloop
 endfacet
endsolid
