solid 
 facet normal  0.000000e+00 -0.000000e+00  1.000000e+00
   outer loop
     vertex  2.575000e-02 -8.250000e-03 -6.152000e-02
     vertex  2.575000e-02 -3.750000e-03 -6.152000e-02
     vertex  1.375000e-02 -3.750000e-03 -6.152000e-02
   endloop
 endfacet
 facet normal  0.000000e+00  0.000000e+00  1.000000e+00
   outer loop
     vertex  2.575000e-02 -8.250000e-03 -6.152000e-02
     vertex  1.375000e-02 -3.750000e-03 -6.152000e-02
     vertex  1.375000e-02 -8.250000e-03 -6.152000e-02
   endloop
 endfacet
 facet normal -1.000000e+00  0.000000e+00  0.000000e+00
   outer loop
     vertex  1.375000e-02 -3.750000e-03 -6.202000e-02
     vertex  1.375000e-02 -8.250000e-03 -6.152000e-02
     vertex  1.375000e-02 -3.750000e-03 -6.152000e-02
   endloop
 endfacet
 facet normal -1.000000e+00  0.000000e+00  0.000000e+00
   outer loop
     vertex  1.375000e-02 -3.750000e-03 -6.202000e-02
     vertex  1.375000e-02 -8.250000e-03 -6.202000e-02
     vertex  1.375000e-02 -8.250000e-03 -6.152000e-02
   endloop
 endfacet
 facet normal  0.000000e+00 -1.000000e+00  0.000000e+00
   outer loop
     vertex  1.375000e-02 -8.250000e-03 -6.202000e-02
     vertex  2.575000e-02 -8.250000e-03 -6.152000e-02
     vertex  1.375000e-02 -8.250000e-03 -6.152000e-02
   endloop
 endfacet
 facet normal  0.000000e+00 -1.000000e+00  0.000000e+00
   outer loop
     vertex  1.375000e-02 -8.250000e-03 -6.202000e-02
     vertex  2.575000e-02 -8.250000e-03 -6.202000e-02
     vertex  2.575000e-02 -8.250000e-03 -6.152000e-02
   endloop
 endfacet
 facet normal  1.000000e+00  0.000000e+00  0.000000e+00
   outer loop
     vertex  2.575000e-02 -8.250000e-03 -6.202000e-02
     vertex  2.575000e-02 -3.750000e-03 -6.152000e-02
     vertex  2.575000e-02 -8.250000e-03 -6.152000e-02
   endloop
 endfacet
 facet normal  1.000000e+00  0.000000e+00  0.000000e+00
   outer loop
     vertex  2.575000e-02 -8.250000e-03 -6.202000e-02
     vertex  2.575000e-02 -3.750000e-03 -6.202000e-02
     vertex  2.575000e-02 -3.750000e-03 -6.152000e-02
   endloop
 endfacet
 facet normal  0.000000e+00  1.000000e+00 -0.000000e+00
   outer loop
     vertex  2.575000e-02 -3.750000e-03 -6.202000e-02
     vertex  1.375000e-02 -3.750000e-03 -6.152000e-02
     vertex  2.575000e-02 -3.750000e-03 -6.152000e-02
   endloop
 endfacet
 facet normal  0.000000e+00  1.000000e+00  0.000000e+00
   outer loop
     vertex  2.575000e-02 -3.750000e-03 -6.202000e-02
     vertex  1.375000e-02 -3.750000e-03 -6.202000e-02
     vertex  1.375000e-02 -3.750000e-03 -6.152000e-02
   endloop
 endfacet
 facet normal  0.000000e+00  0.000000e+00 -1.000000e+00
   outer loop
     vertex  2.575000e-02 -8.250000e-03 -6.202000e-02
     vertex  1.375000e-02 -8.250000e-03 -6.202000e-02
     vertex  1.375000e-02 -3.750000e-03 -6.202000e-02
   endloop
 endfacet
 facet normal  0.000000e+00  0.000000e+00 -1.000000e+00
   outer loop
     vertex  2.575000e-02 -8.250000e-03 -6.202000e-02
     vertex  1.375000e-02 -3.750000e-03 -6.202000e-02
     vertex  2.575000e-02 -3.750000e-03 -6.202000e-02
   endloop
 endfacet
endsolid
