solid 
 facet normal  0.000000e+00 -0.000000e+00  1.000000e+00
   outer loop
     vertex  1.780997e-01  2.594441e-01  8.406922e-01
     vertex  1.830997e-01  2.644441e-01  8.406922e-01
     vertex  1.720997e-01  2.674441e-01  8.406922e-01
   endloop
 endfacet
 facet normal  0.000000e+00  0.000000e+00  1.000000e+00
   outer loop
     vertex  1.940997e-01  2.674441e-01  8.406922e-01
     vertex  1.720997e-01  2.674441e-01  8.406922e-01
     vertex  1.830997e-01  2.644441e-01  8.406922e-01
   endloop
 endfacet
 facet normal  0.000000e+00 -0.000000e+00  1.000000e+00
   outer loop
     vertex  1.880997e-01  2.594441e-01  8.406922e-01
     vertex  1.940997e-01  2.674441e-01  8.406922e-01
     vertex  1.830997e-01  2.644441e-01  8.406922e-01
   endloop
 endfacet
 facet normal  0.000000e+00  0.000000e+00  1.000000e+00
   outer loop
     vertex  1.775997e-01  2.450941e-01  8.406922e-01
     vertex  1.830997e-01  2.544441e-01  8.406922e-01
     vertex  1.780997e-01  2.594441e-01  8.406922e-01
   endloop
 endfacet
 facet normal  0.000000e+00  0.000000e+00  1.000000e+00
   outer loop
     vertex  1.749497e-01  2.424441e-01  8.406922e-01
     vertex  1.775997e-01  2.450941e-01  8.406922e-01
     vertex  1.780997e-01  2.594441e-01  8.406922e-01
   endloop
 endfacet
 facet normal  0.000000e+00 -0.000000e+00  1.000000e+00
   outer loop
     vertex  1.749497e-01  2.424441e-01  8.406922e-01
     vertex  1.780997e-01  2.594441e-01  8.406922e-01
     vertex  1.720997e-01  2.674441e-01  8.406922e-01
   endloop
 endfacet
 facet normal  0.000000e+00 -0.000000e+00  1.000000e+00
   outer loop
     vertex  1.875997e-01  2.450941e-01  8.406922e-01
     vertex  1.880997e-01  2.594441e-01  8.406922e-01
     vertex  1.830997e-01  2.544441e-01  8.406922e-01
   endloop
 endfacet
 facet normal  0.000000e+00  0.000000e+00  1.000000e+00
   outer loop
     vertex  1.875997e-01  2.450941e-01  8.406922e-01
     vertex  1.830997e-01  2.544441e-01  8.406922e-01
     vertex  1.775997e-01  2.450941e-01  8.406922e-01
   endloop
 endfacet
 facet normal  0.000000e+00  0.000000e+00  1.000000e+00
   outer loop
     vertex  1.849497e-01  2.424441e-01  8.406922e-01
     vertex  1.775997e-01  2.450941e-01  8.406922e-01
     vertex  1.802497e-01  2.424441e-01  8.406922e-01
   endloop
 endfacet
 facet normal  0.000000e+00 -0.000000e+00  1.000000e+00
   outer loop
     vertex  1.849497e-01  2.424441e-01  8.406922e-01
     vertex  1.875997e-01  2.450941e-01  8.406922e-01
     vertex  1.775997e-01  2.450941e-01  8.406922e-01
   endloop
 endfacet
 facet normal  0.000000e+00  0.000000e+00  1.000000e+00
   outer loop
     vertex  1.902497e-01  2.424441e-01  8.406922e-01
     vertex  1.880997e-01  2.594441e-01  8.406922e-01
     vertex  1.875997e-01  2.450941e-01  8.406922e-01
   endloop
 endfacet
 facet normal  0.000000e+00 -0.000000e+00  1.000000e+00
   outer loop
     vertex  1.902497e-01  2.424441e-01  8.406922e-01
     vertex  1.940997e-01  2.674441e-01  8.406922e-01
     vertex  1.880997e-01  2.594441e-01  8.406922e-01
   endloop
 endfacet
 facet normal  0.000000e+00  0.000000e+00  1.000000e+00
   outer loop
     vertex  1.875997e-01  2.397941e-01  8.406922e-01
     vertex  1.802497e-01  2.424441e-01  8.406922e-01
     vertex  1.775997e-01  2.397941e-01  8.406922e-01
   endloop
 endfacet
 facet normal  0.000000e+00  0.000000e+00  1.000000e+00
   outer loop
     vertex  1.875997e-01  2.397941e-01  8.406922e-01
     vertex  1.849497e-01  2.424441e-01  8.406922e-01
     vertex  1.802497e-01  2.424441e-01  8.406922e-01
   endloop
 endfacet
 facet normal  0.000000e+00 -0.000000e+00  1.000000e+00
   outer loop
     vertex  1.830997e-01  2.304441e-01  8.406922e-01
     vertex  1.875997e-01  2.397941e-01  8.406922e-01
     vertex  1.775997e-01  2.397941e-01  8.406922e-01
   endloop
 endfacet
 facet normal  0.000000e+00  0.000000e+00  1.000000e+00
   outer loop
     vertex  1.780997e-01  2.254441e-01  8.406922e-01
     vertex  1.775997e-01  2.397941e-01  8.406922e-01
     vertex  1.749497e-01  2.424441e-01  8.406922e-01
   endloop
 endfacet
 facet normal  0.000000e+00 -0.000000e+00  1.000000e+00
   outer loop
     vertex  1.780997e-01  2.254441e-01  8.406922e-01
     vertex  1.830997e-01  2.304441e-01  8.406922e-01
     vertex  1.775997e-01  2.397941e-01  8.406922e-01
   endloop
 endfacet
 facet normal  0.000000e+00  0.000000e+00  1.000000e+00
   outer loop
     vertex  1.720997e-01  2.174441e-01  8.406922e-01
     vertex  1.780997e-01  2.254441e-01  8.406922e-01
     vertex  1.749497e-01  2.424441e-01  8.406922e-01
   endloop
 endfacet
 facet normal  0.000000e+00 -0.000000e+00  1.000000e+00
   outer loop
     vertex  1.880997e-01  2.254441e-01  8.406922e-01
     vertex  1.902497e-01  2.424441e-01  8.406922e-01
     vertex  1.875997e-01  2.397941e-01  8.406922e-01
   endloop
 endfacet
 facet normal  0.000000e+00  0.000000e+00  1.000000e+00
   outer loop
     vertex  1.880997e-01  2.254441e-01  8.406922e-01
     vertex  1.875997e-01  2.397941e-01  8.406922e-01
     vertex  1.830997e-01  2.304441e-01  8.406922e-01
   endloop
 endfacet
 facet normal  0.000000e+00  0.000000e+00  1.000000e+00
   outer loop
     vertex  1.830997e-01  2.204441e-01  8.406922e-01
     vertex  1.780997e-01  2.254441e-01  8.406922e-01
     vertex  1.720997e-01  2.174441e-01  8.406922e-01
   endloop
 endfacet
 facet normal  0.000000e+00  0.000000e+00  1.000000e+00
   outer loop
     vertex  1.940997e-01  2.174441e-01  8.406922e-01
     vertex  1.880997e-01  2.254441e-01  8.406922e-01
     vertex  1.830997e-01  2.204441e-01  8.406922e-01
   endloop
 endfacet
 facet normal  0.000000e+00  0.000000e+00  1.000000e+00
   outer loop
     vertex  1.940997e-01  2.174441e-01  8.406922e-01
     vertex  1.902497e-01  2.424441e-01  8.406922e-01
     vertex  1.880997e-01  2.254441e-01  8.406922e-01
   endloop
 endfacet
 facet normal  0.000000e+00  0.000000e+00  1.000000e+00
   outer loop
     vertex  1.940997e-01  2.174441e-01  8.406922e-01
     vertex  1.830997e-01  2.204441e-01  8.406922e-01
     vertex  1.720997e-01  2.174441e-01  8.406922e-01
   endloop
 endfacet
 facet normal  0.000000e+00  0.000000e+00  1.000000e+00
   outer loop
     vertex  1.940997e-01  2.674441e-01  8.406922e-01
     vertex  1.902497e-01  2.424441e-01  8.406922e-01
     vertex  1.940997e-01  2.174441e-01  8.406922e-01
   endloop
 endfacet
 facet normal  0.000000e+00  0.000000e+00  1.000000e+00
   outer loop
     vertex  1.720997e-01  2.174441e-01  8.406922e-01
     vertex  1.749497e-01  2.424441e-01  8.406922e-01
     vertex  1.720997e-01  2.674441e-01  8.406922e-01
   endloop
 endfacet
 facet normal  0.000000e+00  1.000000e+00 -0.000000e+00
   outer loop
     vertex  1.940997e-01  2.674441e-01  8.256922e-01
     vertex  1.720997e-01  2.674441e-01  8.406922e-01
     vertex  1.940997e-01  2.674441e-01  8.406922e-01
   endloop
 endfacet
 facet normal  0.000000e+00  1.000000e+00  0.000000e+00
   outer loop
     vertex  1.940997e-01  2.674441e-01  8.256922e-01
     vertex  1.720997e-01  2.674441e-01  8.256922e-01
     vertex  1.720997e-01  2.674441e-01  8.406922e-01
   endloop
 endfacet
 facet normal -1.000000e+00  0.000000e+00  0.000000e+00
   outer loop
     vertex  1.720997e-01  2.674441e-01  8.256922e-01
     vertex  1.720997e-01  2.174441e-01  8.406922e-01
     vertex  1.720997e-01  2.674441e-01  8.406922e-01
   endloop
 endfacet
 facet normal -1.000000e+00  0.000000e+00  0.000000e+00
   outer loop
     vertex  1.720997e-01  2.674441e-01  8.256922e-01
     vertex  1.720997e-01  2.174441e-01  8.256922e-01
     vertex  1.720997e-01  2.174441e-01  8.406922e-01
   endloop
 endfacet
 facet normal  0.000000e+00 -1.000000e+00  0.000000e+00
   outer loop
     vertex  1.720997e-01  2.174441e-01  8.256922e-01
     vertex  1.940997e-01  2.174441e-01  8.406922e-01
     vertex  1.720997e-01  2.174441e-01  8.406922e-01
   endloop
 endfacet
 facet normal  0.000000e+00 -1.000000e+00  0.000000e+00
   outer loop
     vertex  1.720997e-01  2.174441e-01  8.256922e-01
     vertex  1.940997e-01  2.174441e-01  8.256922e-01
     vertex  1.940997e-01  2.174441e-01  8.406922e-01
   endloop
 endfacet
 facet normal  1.000000e+00  0.000000e+00  0.000000e+00
   outer loop
     vertex  1.940997e-01  2.174441e-01  8.256922e-01
     vertex  1.940997e-01  2.674441e-01  8.406922e-01
     vertex  1.940997e-01  2.174441e-01  8.406922e-01
   endloop
 endfacet
 facet normal  1.000000e+00  0.000000e+00  0.000000e+00
   outer loop
     vertex  1.940997e-01  2.174441e-01  8.256922e-01
     vertex  1.940997e-01  2.674441e-01  8.256922e-01
     vertex  1.940997e-01  2.674441e-01  8.406922e-01
   endloop
 endfacet
 facet normal  0.000000e+00  0.000000e+00 -1.000000e+00
   outer loop
     vertex  1.727247e-01  2.424441e-01  8.256922e-01
     vertex  1.720997e-01  2.674441e-01  8.256922e-01
     vertex  1.775997e-01  2.473191e-01  8.256922e-01
   endloop
 endfacet
 facet normal  0.000000e+00  0.000000e+00 -1.000000e+00
   outer loop
     vertex  1.875997e-01  2.473191e-01  8.256922e-01
     vertex  1.720997e-01  2.674441e-01  8.256922e-01
     vertex  1.940997e-01  2.674441e-01  8.256922e-01
   endloop
 endfacet
 facet normal -0.000000e+00  0.000000e+00 -1.000000e+00
   outer loop
     vertex  1.875997e-01  2.473191e-01  8.256922e-01
     vertex  1.824747e-01  2.424441e-01  8.256922e-01
     vertex  1.775997e-01  2.473191e-01  8.256922e-01
   endloop
 endfacet
 facet normal  0.000000e+00  0.000000e+00 -1.000000e+00
   outer loop
     vertex  1.875997e-01  2.473191e-01  8.256922e-01
     vertex  1.775997e-01  2.473191e-01  8.256922e-01
     vertex  1.720997e-01  2.674441e-01  8.256922e-01
   endloop
 endfacet
 facet normal  0.000000e+00  0.000000e+00 -1.000000e+00
   outer loop
     vertex  1.875997e-01  2.473191e-01  8.256922e-01
     vertex  1.827247e-01  2.424441e-01  8.256922e-01
     vertex  1.824747e-01  2.424441e-01  8.256922e-01
   endloop
 endfacet
 facet normal  0.000000e+00  0.000000e+00 -1.000000e+00
   outer loop
     vertex  1.924747e-01  2.424441e-01  8.256922e-01
     vertex  1.875997e-01  2.473191e-01  8.256922e-01
     vertex  1.940997e-01  2.674441e-01  8.256922e-01
   endloop
 endfacet
 facet normal  0.000000e+00  0.000000e+00 -1.000000e+00
   outer loop
     vertex  1.875997e-01  2.375691e-01  8.256922e-01
     vertex  1.775997e-01  2.375691e-01  8.256922e-01
     vertex  1.824747e-01  2.424441e-01  8.256922e-01
   endloop
 endfacet
 facet normal  0.000000e+00  0.000000e+00 -1.000000e+00
   outer loop
     vertex  1.875997e-01  2.375691e-01  8.256922e-01
     vertex  1.824747e-01  2.424441e-01  8.256922e-01
     vertex  1.827247e-01  2.424441e-01  8.256922e-01
   endloop
 endfacet
 facet normal  0.000000e+00  0.000000e+00 -1.000000e+00
   outer loop
     vertex  1.720997e-01  2.174441e-01  8.256922e-01
     vertex  1.727247e-01  2.424441e-01  8.256922e-01
     vertex  1.775997e-01  2.375691e-01  8.256922e-01
   endloop
 endfacet
 facet normal  0.000000e+00  0.000000e+00 -1.000000e+00
   outer loop
     vertex  1.720997e-01  2.174441e-01  8.256922e-01
     vertex  1.775997e-01  2.375691e-01  8.256922e-01
     vertex  1.875997e-01  2.375691e-01  8.256922e-01
   endloop
 endfacet
 facet normal  0.000000e+00  0.000000e+00 -1.000000e+00
   outer loop
     vertex  1.940997e-01  2.174441e-01  8.256922e-01
     vertex  1.875997e-01  2.375691e-01  8.256922e-01
     vertex  1.924747e-01  2.424441e-01  8.256922e-01
   endloop
 endfacet
 facet normal  0.000000e+00  0.000000e+00 -1.000000e+00
   outer loop
     vertex  1.940997e-01  2.174441e-01  8.256922e-01
     vertex  1.720997e-01  2.174441e-01  8.256922e-01
     vertex  1.875997e-01  2.375691e-01  8.256922e-01
   endloop
 endfacet
 facet normal  0.000000e+00 -0.000000e+00 -1.000000e+00
   outer loop
     vertex  1.940997e-01  2.674441e-01  8.256922e-01
     vertex  1.940997e-01  2.174441e-01  8.256922e-01
     vertex  1.924747e-01  2.424441e-01  8.256922e-01
   endloop
 endfacet
 facet normal  0.000000e+00  0.000000e+00 -1.000000e+00
   outer loop
     vertex  1.720997e-01  2.174441e-01  8.256922e-01
     vertex  1.720997e-01  2.674441e-01  8.256922e-01
     vertex  1.727247e-01  2.424441e-01  8.256922e-01
   endloop
 endfacet
 facet normal  7.071068e-01 -7.071068e-01  0.000000e+00
   outer loop
     vertex  1.775997e-01  2.473191e-01  8.256922e-01
     vertex  1.727247e-01  2.424441e-01  8.306922e-01
     vertex  1.727247e-01  2.424441e-01  8.256922e-01
   endloop
 endfacet
 facet normal  7.071068e-01 -7.071068e-01  0.000000e+00
   outer loop
     vertex  1.775997e-01  2.473191e-01  8.256922e-01
     vertex  1.775997e-01  2.473191e-01  8.306922e-01
     vertex  1.727247e-01  2.424441e-01  8.306922e-01
   endloop
 endfacet
 facet normal -7.071068e-01 -7.071068e-01  0.000000e+00
   outer loop
     vertex  1.824747e-01  2.424441e-01  8.256922e-01
     vertex  1.824747e-01  2.424441e-01  8.306922e-01
     vertex  1.775997e-01  2.473191e-01  8.306922e-01
   endloop
 endfacet
 facet normal -7.071068e-01 -7.071068e-01  0.000000e+00
   outer loop
     vertex  1.824747e-01  2.424441e-01  8.256922e-01
     vertex  1.775997e-01  2.473191e-01  8.306922e-01
     vertex  1.775997e-01  2.473191e-01  8.256922e-01
   endloop
 endfacet
 facet normal -7.071068e-01  7.071068e-01  0.000000e+00
   outer loop
     vertex  1.775997e-01  2.375691e-01  8.256922e-01
     vertex  1.775997e-01  2.375691e-01  8.306922e-01
     vertex  1.824747e-01  2.424441e-01  8.306922e-01
   endloop
 endfacet
 facet normal -7.071068e-01  7.071068e-01  0.000000e+00
   outer loop
     vertex  1.775997e-01  2.375691e-01  8.256922e-01
     vertex  1.824747e-01  2.424441e-01  8.306922e-01
     vertex  1.824747e-01  2.424441e-01  8.256922e-01
   endloop
 endfacet
 facet normal  7.071068e-01  7.071068e-01 -0.000000e+00
   outer loop
     vertex  1.727247e-01  2.424441e-01  8.256922e-01
     vertex  1.727247e-01  2.424441e-01  8.306922e-01
     vertex  1.775997e-01  2.375691e-01  8.306922e-01
   endloop
 endfacet
 facet normal  7.071068e-01  7.071068e-01  0.000000e+00
   outer loop
     vertex  1.727247e-01  2.424441e-01  8.256922e-01
     vertex  1.775997e-01  2.375691e-01  8.306922e-01
     vertex  1.775997e-01  2.375691e-01  8.256922e-01
   endloop
 endfacet
 facet normal -0.000000e+00  0.000000e+00 -1.000000e+00
   outer loop
     vertex  1.775997e-01  2.450941e-01  8.306922e-01
     vertex  1.727247e-01  2.424441e-01  8.306922e-01
     vertex  1.775997e-01  2.473191e-01  8.306922e-01
   endloop
 endfacet
 facet normal  0.000000e+00  0.000000e+00 -1.000000e+00
   outer loop
     vertex  1.775997e-01  2.450941e-01  8.306922e-01
     vertex  1.749497e-01  2.424441e-01  8.306922e-01
     vertex  1.727247e-01  2.424441e-01  8.306922e-01
   endloop
 endfacet
 facet normal  0.000000e+00  0.000000e+00 -1.000000e+00
   outer loop
     vertex  1.824747e-01  2.424441e-01  8.306922e-01
     vertex  1.802497e-01  2.424441e-01  8.306922e-01
     vertex  1.775997e-01  2.450941e-01  8.306922e-01
   endloop
 endfacet
 facet normal  0.000000e+00  0.000000e+00 -1.000000e+00
   outer loop
     vertex  1.824747e-01  2.424441e-01  8.306922e-01
     vertex  1.775997e-01  2.450941e-01  8.306922e-01
     vertex  1.775997e-01  2.473191e-01  8.306922e-01
   endloop
 endfacet
 facet normal  0.000000e+00  0.000000e+00 -1.000000e+00
   outer loop
     vertex  1.775997e-01  2.375691e-01  8.306922e-01
     vertex  1.749497e-01  2.424441e-01  8.306922e-01
     vertex  1.775997e-01  2.397941e-01  8.306922e-01
   endloop
 endfacet
 facet normal  0.000000e+00  0.000000e+00 -1.000000e+00
   outer loop
     vertex  1.775997e-01  2.375691e-01  8.306922e-01
     vertex  1.775997e-01  2.397941e-01  8.306922e-01
     vertex  1.802497e-01  2.424441e-01  8.306922e-01
   endloop
 endfacet
 facet normal  0.000000e+00  0.000000e+00 -1.000000e+00
   outer loop
     vertex  1.775997e-01  2.375691e-01  8.306922e-01
     vertex  1.727247e-01  2.424441e-01  8.306922e-01
     vertex  1.749497e-01  2.424441e-01  8.306922e-01
   endloop
 endfacet
 facet normal  0.000000e+00  0.000000e+00 -1.000000e+00
   outer loop
     vertex  1.775997e-01  2.375691e-01  8.306922e-01
     vertex  1.802497e-01  2.424441e-01  8.306922e-01
     vertex  1.824747e-01  2.424441e-01  8.306922e-01
   endloop
 endfacet
 facet normal  7.071068e-01 -7.071068e-01  0.000000e+00
   outer loop
     vertex  1.775997e-01  2.450941e-01  8.306922e-01
     vertex  1.749497e-01  2.424441e-01  8.406922e-01
     vertex  1.749497e-01  2.424441e-01  8.306922e-01
   endloop
 endfacet
 facet normal  7.071068e-01 -7.071068e-01  0.000000e+00
   outer loop
     vertex  1.775997e-01  2.450941e-01  8.306922e-01
     vertex  1.775997e-01  2.450941e-01  8.406922e-01
     vertex  1.749497e-01  2.424441e-01  8.406922e-01
   endloop
 endfacet
 facet normal -7.071068e-01 -7.071068e-01  0.000000e+00
   outer loop
     vertex  1.802497e-01  2.424441e-01  8.306922e-01
     vertex  1.802497e-01  2.424441e-01  8.406922e-01
     vertex  1.775997e-01  2.450941e-01  8.406922e-01
   endloop
 endfacet
 facet normal -7.071068e-01 -7.071068e-01  0.000000e+00
   outer loop
     vertex  1.802497e-01  2.424441e-01  8.306922e-01
     vertex  1.775997e-01  2.450941e-01  8.406922e-01
     vertex  1.775997e-01  2.450941e-01  8.306922e-01
   endloop
 endfacet
 facet normal -7.071068e-01  7.071068e-01  0.000000e+00
   outer loop
     vertex  1.775997e-01  2.397941e-01  8.306922e-01
     vertex  1.775997e-01  2.397941e-01  8.406922e-01
     vertex  1.802497e-01  2.424441e-01  8.406922e-01
   endloop
 endfacet
 facet normal -7.071068e-01  7.071068e-01  0.000000e+00
   outer loop
     vertex  1.775997e-01  2.397941e-01  8.306922e-01
     vertex  1.802497e-01  2.424441e-01  8.406922e-01
     vertex  1.802497e-01  2.424441e-01  8.306922e-01
   endloop
 endfacet
 facet normal  7.071068e-01  7.071068e-01 -0.000000e+00
   outer loop
     vertex  1.749497e-01  2.424441e-01  8.306922e-01
     vertex  1.749497e-01  2.424441e-01  8.406922e-01
     vertex  1.775997e-01  2.397941e-01  8.406922e-01
   endloop
 endfacet
 facet normal  7.071068e-01  7.071068e-01  0.000000e+00
   outer loop
     vertex  1.749497e-01  2.424441e-01  8.306922e-01
     vertex  1.775997e-01  2.397941e-01  8.406922e-01
     vertex  1.775997e-01  2.397941e-01  8.306922e-01
   endloop
 endfacet
 facet normal  7.071068e-01 -7.071068e-01  0.000000e+00
   outer loop
     vertex  1.875997e-01  2.473191e-01  8.256922e-01
     vertex  1.827247e-01  2.424441e-01  8.306922e-01
     vertex  1.827247e-01  2.424441e-01  8.256922e-01
   endloop
 endfacet
 facet normal  7.071068e-01 -7.071068e-01  0.000000e+00
   outer loop
     vertex  1.875997e-01  2.473191e-01  8.256922e-01
     vertex  1.875997e-01  2.473191e-01  8.306922e-01
     vertex  1.827247e-01  2.424441e-01  8.306922e-01
   endloop
 endfacet
 facet normal -7.071068e-01 -7.071068e-01  0.000000e+00
   outer loop
     vertex  1.924747e-01  2.424441e-01  8.256922e-01
     vertex  1.924747e-01  2.424441e-01  8.306922e-01
     vertex  1.875997e-01  2.473191e-01  8.306922e-01
   endloop
 endfacet
 facet normal -7.071068e-01 -7.071068e-01  0.000000e+00
   outer loop
     vertex  1.924747e-01  2.424441e-01  8.256922e-01
     vertex  1.875997e-01  2.473191e-01  8.306922e-01
     vertex  1.875997e-01  2.473191e-01  8.256922e-01
   endloop
 endfacet
 facet normal -7.071068e-01  7.071068e-01  0.000000e+00
   outer loop
     vertex  1.875997e-01  2.375691e-01  8.256922e-01
     vertex  1.875997e-01  2.375691e-01  8.306922e-01
     vertex  1.924747e-01  2.424441e-01  8.306922e-01
   endloop
 endfacet
 facet normal -7.071068e-01  7.071068e-01  0.000000e+00
   outer loop
     vertex  1.875997e-01  2.375691e-01  8.256922e-01
     vertex  1.924747e-01  2.424441e-01  8.306922e-01
     vertex  1.924747e-01  2.424441e-01  8.256922e-01
   endloop
 endfacet
 facet normal  7.071068e-01  7.071068e-01 -0.000000e+00
   outer loop
     vertex  1.827247e-01  2.424441e-01  8.256922e-01
     vertex  1.827247e-01  2.424441e-01  8.306922e-01
     vertex  1.875997e-01  2.375691e-01  8.306922e-01
   endloop
 endfacet
 facet normal  7.071068e-01  7.071068e-01  0.000000e+00
   outer loop
     vertex  1.827247e-01  2.424441e-01  8.256922e-01
     vertex  1.875997e-01  2.375691e-01  8.306922e-01
     vertex  1.875997e-01  2.375691e-01  8.256922e-01
   endloop
 endfacet
 facet normal -0.000000e+00  0.000000e+00 -1.000000e+00
   outer loop
     vertex  1.875997e-01  2.450941e-01  8.306922e-01
     vertex  1.827247e-01  2.424441e-01  8.306922e-01
     vertex  1.875997e-01  2.473191e-01  8.306922e-01
   endloop
 endfacet
 facet normal  0.000000e+00  0.000000e+00 -1.000000e+00
   outer loop
     vertex  1.875997e-01  2.450941e-01  8.306922e-01
     vertex  1.849497e-01  2.424441e-01  8.306922e-01
     vertex  1.827247e-01  2.424441e-01  8.306922e-01
   endloop
 endfacet
 facet normal  0.000000e+00  0.000000e+00 -1.000000e+00
   outer loop
     vertex  1.924747e-01  2.424441e-01  8.306922e-01
     vertex  1.902497e-01  2.424441e-01  8.306922e-01
     vertex  1.875997e-01  2.450941e-01  8.306922e-01
   endloop
 endfacet
 facet normal  0.000000e+00  0.000000e+00 -1.000000e+00
   outer loop
     vertex  1.924747e-01  2.424441e-01  8.306922e-01
     vertex  1.875997e-01  2.450941e-01  8.306922e-01
     vertex  1.875997e-01  2.473191e-01  8.306922e-01
   endloop
 endfacet
 facet normal  0.000000e+00  0.000000e+00 -1.000000e+00
   outer loop
     vertex  1.875997e-01  2.375691e-01  8.306922e-01
     vertex  1.849497e-01  2.424441e-01  8.306922e-01
     vertex  1.875997e-01  2.397941e-01  8.306922e-01
   endloop
 endfacet
 facet normal  0.000000e+00  0.000000e+00 -1.000000e+00
   outer loop
     vertex  1.875997e-01  2.375691e-01  8.306922e-01
     vertex  1.875997e-01  2.397941e-01  8.306922e-01
     vertex  1.902497e-01  2.424441e-01  8.306922e-01
   endloop
 endfacet
 facet normal  0.000000e+00  0.000000e+00 -1.000000e+00
   outer loop
     vertex  1.875997e-01  2.375691e-01  8.306922e-01
     vertex  1.827247e-01  2.424441e-01  8.306922e-01
     vertex  1.849497e-01  2.424441e-01  8.306922e-01
   endloop
 endfacet
 facet normal  0.000000e+00  0.000000e+00 -1.000000e+00
   outer loop
     vertex  1.875997e-01  2.375691e-01  8.306922e-01
     vertex  1.902497e-01  2.424441e-01  8.306922e-01
     vertex  1.924747e-01  2.424441e-01  8.306922e-01
   endloop
 endfacet
 facet normal  7.071068e-01 -7.071068e-01  0.000000e+00
   outer loop
     vertex  1.875997e-01  2.450941e-01  8.306922e-01
     vertex  1.849497e-01  2.424441e-01  8.406922e-01
     vertex  1.849497e-01  2.424441e-01  8.306922e-01
   endloop
 endfacet
 facet normal  7.071068e-01 -7.071068e-01  0.000000e+00
   outer loop
     vertex  1.875997e-01  2.450941e-01  8.306922e-01
     vertex  1.875997e-01  2.450941e-01  8.406922e-01
     vertex  1.849497e-01  2.424441e-01  8.406922e-01
   endloop
 endfacet
 facet normal -7.071068e-01 -7.071068e-01  0.000000e+00
   outer loop
     vertex  1.902497e-01  2.424441e-01  8.306922e-01
     vertex  1.902497e-01  2.424441e-01  8.406922e-01
     vertex  1.875997e-01  2.450941e-01  8.406922e-01
   endloop
 endfacet
 facet normal -7.071068e-01 -7.071068e-01  0.000000e+00
   outer loop
     vertex  1.902497e-01  2.424441e-01  8.306922e-01
     vertex  1.875997e-01  2.450941e-01  8.406922e-01
     vertex  1.875997e-01  2.450941e-01  8.306922e-01
   endloop
 endfacet
 facet normal -7.071068e-01  7.071068e-01  0.000000e+00
   outer loop
     vertex  1.875997e-01  2.397941e-01  8.306922e-01
     vertex  1.875997e-01  2.397941e-01  8.406922e-01
     vertex  1.902497e-01  2.424441e-01  8.406922e-01
   endloop
 endfacet
 facet normal -7.071068e-01  7.071068e-01  0.000000e+00
   outer loop
     vertex  1.875997e-01  2.397941e-01  8.306922e-01
     vertex  1.902497e-01  2.424441e-01  8.406922e-01
     vertex  1.902497e-01  2.424441e-01  8.306922e-01
   endloop
 endfacet
 facet normal  7.071068e-01  7.071068e-01 -0.000000e+00
   outer loop
     vertex  1.849497e-01  2.424441e-01  8.306922e-01
     vertex  1.849497e-01  2.424441e-01  8.406922e-01
     vertex  1.875997e-01  2.397941e-01  8.406922e-01
   endloop
 endfacet
 facet normal  7.071068e-01  7.071068e-01  0.000000e+00
   outer loop
     vertex  1.849497e-01  2.424441e-01  8.306922e-01
     vertex  1.875997e-01  2.397941e-01  8.406922e-01
     vertex  1.875997e-01  2.397941e-01  8.306922e-01
   endloop
 endfacet
 facet normal -7.071068e-01  7.071068e-01  0.000000e+00
   outer loop
     vertex  1.830997e-01  2.204441e-01  8.306922e-01
     vertex  1.880997e-01  2.254441e-01  8.406922e-01
     vertex  1.880997e-01  2.254441e-01  8.306922e-01
   endloop
 endfacet
 facet normal -7.071068e-01  7.071068e-01  0.000000e+00
   outer loop
     vertex  1.830997e-01  2.204441e-01  8.306922e-01
     vertex  1.830997e-01  2.204441e-01  8.406922e-01
     vertex  1.880997e-01  2.254441e-01  8.406922e-01
   endloop
 endfacet
 facet normal  7.071068e-01  7.071068e-01 -0.000000e+00
   outer loop
     vertex  1.780997e-01  2.254441e-01  8.306922e-01
     vertex  1.780997e-01  2.254441e-01  8.406922e-01
     vertex  1.830997e-01  2.204441e-01  8.406922e-01
   endloop
 endfacet
 facet normal  7.071068e-01  7.071068e-01  0.000000e+00
   outer loop
     vertex  1.780997e-01  2.254441e-01  8.306922e-01
     vertex  1.830997e-01  2.204441e-01  8.406922e-01
     vertex  1.830997e-01  2.204441e-01  8.306922e-01
   endloop
 endfacet
 facet normal  7.071068e-01 -7.071068e-01  0.000000e+00
   outer loop
     vertex  1.830997e-01  2.304441e-01  8.306922e-01
     vertex  1.830997e-01  2.304441e-01  8.406922e-01
     vertex  1.780997e-01  2.254441e-01  8.406922e-01
   endloop
 endfacet
 facet normal  7.071068e-01 -7.071068e-01  0.000000e+00
   outer loop
     vertex  1.830997e-01  2.304441e-01  8.306922e-01
     vertex  1.780997e-01  2.254441e-01  8.406922e-01
     vertex  1.780997e-01  2.254441e-01  8.306922e-01
   endloop
 endfacet
 facet normal -7.071068e-01 -7.071068e-01  0.000000e+00
   outer loop
     vertex  1.880997e-01  2.254441e-01  8.306922e-01
     vertex  1.880997e-01  2.254441e-01  8.406922e-01
     vertex  1.830997e-01  2.304441e-01  8.406922e-01
   endloop
 endfacet
 facet normal -7.071068e-01 -7.071068e-01  0.000000e+00
   outer loop
     vertex  1.880997e-01  2.254441e-01  8.306922e-01
     vertex  1.830997e-01  2.304441e-01  8.406922e-01
     vertex  1.830997e-01  2.304441e-01  8.306922e-01
   endloop
 endfacet
 facet normal  0.000000e+00  0.000000e+00  1.000000e+00
   outer loop
     vertex  1.830997e-01  2.304441e-01  8.306922e-01
     vertex  1.830997e-01  2.204441e-01  8.306922e-01
     vertex  1.880997e-01  2.254441e-01  8.306922e-01
   endloop
 endfacet
 facet normal  0.000000e+00  0.000000e+00  1.000000e+00
   outer loop
     vertex  1.830997e-01  2.304441e-01  8.306922e-01
     vertex  1.780997e-01  2.254441e-01  8.306922e-01
     vertex  1.830997e-01  2.204441e-01  8.306922e-01
   endloop
 endfacet
 facet normal -7.071068e-01 -7.071068e-01  0.000000e+00
   outer loop
     vertex  1.830997e-01  2.644441e-01  8.406922e-01
     vertex  1.880997e-01  2.594441e-01  8.306922e-01
     vertex  1.880997e-01  2.594441e-01  8.406922e-01
   endloop
 endfacet
 facet normal -7.071068e-01 -7.071068e-01 -0.000000e+00
   outer loop
     vertex  1.830997e-01  2.644441e-01  8.406922e-01
     vertex  1.830997e-01  2.644441e-01  8.306922e-01
     vertex  1.880997e-01  2.594441e-01  8.306922e-01
   endloop
 endfacet
 facet normal  7.071068e-01 -7.071068e-01  0.000000e+00
   outer loop
     vertex  1.780997e-01  2.594441e-01  8.406922e-01
     vertex  1.780997e-01  2.594441e-01  8.306922e-01
     vertex  1.830997e-01  2.644441e-01  8.306922e-01
   endloop
 endfacet
 facet normal  7.071068e-01 -7.071068e-01  0.000000e+00
   outer loop
     vertex  1.780997e-01  2.594441e-01  8.406922e-01
     vertex  1.830997e-01  2.644441e-01  8.306922e-01
     vertex  1.830997e-01  2.644441e-01  8.406922e-01
   endloop
 endfacet
 facet normal  7.071068e-01  7.071068e-01  0.000000e+00
   outer loop
     vertex  1.830997e-01  2.544441e-01  8.406922e-01
     vertex  1.830997e-01  2.544441e-01  8.306922e-01
     vertex  1.780997e-01  2.594441e-01  8.306922e-01
   endloop
 endfacet
 facet normal  7.071068e-01  7.071068e-01  0.000000e+00
   outer loop
     vertex  1.830997e-01  2.544441e-01  8.406922e-01
     vertex  1.780997e-01  2.594441e-01  8.306922e-01
     vertex  1.780997e-01  2.594441e-01  8.406922e-01
   endloop
 endfacet
 facet normal -7.071068e-01  7.071068e-01  0.000000e+00
   outer loop
     vertex  1.880997e-01  2.594441e-01  8.406922e-01
     vertex  1.880997e-01  2.594441e-01  8.306922e-01
     vertex  1.830997e-01  2.544441e-01  8.306922e-01
   endloop
 endfacet
 facet normal -7.071068e-01  7.071068e-01  0.000000e+00
   outer loop
     vertex  1.880997e-01  2.594441e-01  8.406922e-01
     vertex  1.830997e-01  2.544441e-01  8.306922e-01
     vertex  1.830997e-01  2.544441e-01  8.406922e-01
   endloop
 endfacet
 facet normal  0.000000e+00  0.000000e+00  1.000000e+00
   outer loop
     vertex  1.780997e-01  2.594441e-01  8.306922e-01
     vertex  1.880997e-01  2.594441e-01  8.306922e-01
     vertex  1.830997e-01  2.644441e-01  8.306922e-01
   endloop
 endfacet
 facet normal -0.000000e+00  0.000000e+00  1.000000e+00
   outer loop
     vertex  1.780997e-01  2.594441e-01  8.306922e-01
     vertex  1.830997e-01  2.544441e-01  8.306922e-01
     vertex  1.880997e-01  2.594441e-01  8.306922e-01
   endloop
 endfacet
endsolid
