solid 
 facet normal -7.071068e-01  0.000000e+00  7.071068e-01
   outer loop
     vertex -1.181503e-01  2.587354e-01  8.536922e-01
     vertex -1.294003e-01  2.604441e-01  8.424422e-01
     vertex -1.294003e-01  2.587354e-01  8.424422e-01
   endloop
 endfacet
 facet normal -7.071068e-01  0.000000e+00  7.071068e-01
   outer loop
     vertex -1.181503e-01  2.587354e-01  8.536922e-01
     vertex -1.181503e-01  2.604441e-01  8.536922e-01
     vertex -1.294003e-01  2.604441e-01  8.424422e-01
   endloop
 endfacet
 facet normal -7.071068e-01  0.000000e+00 -7.071068e-01
   outer loop
     vertex -1.294003e-01  2.587354e-01  8.649422e-01
     vertex -1.294003e-01  2.604441e-01  8.649422e-01
     vertex -1.181503e-01  2.604441e-01  8.536922e-01
   endloop
 endfacet
 facet normal -7.071068e-01  0.000000e+00 -7.071068e-01
   outer loop
     vertex -1.294003e-01  2.587354e-01  8.649422e-01
     vertex -1.181503e-01  2.604441e-01  8.536922e-01
     vertex -1.181503e-01  2.587354e-01  8.536922e-01
   endloop
 endfacet
 facet normal  7.071068e-01  0.000000e+00 -7.071068e-01
   outer loop
     vertex -1.406503e-01  2.587354e-01  8.536922e-01
     vertex -1.406503e-01  2.604441e-01  8.536922e-01
     vertex -1.294003e-01  2.604441e-01  8.649422e-01
   endloop
 endfacet
 facet normal  7.071068e-01  0.000000e+00 -7.071068e-01
   outer loop
     vertex -1.406503e-01  2.587354e-01  8.536922e-01
     vertex -1.294003e-01  2.604441e-01  8.649422e-01
     vertex -1.294003e-01  2.587354e-01  8.649422e-01
   endloop
 endfacet
 facet normal  7.071068e-01 -0.000000e+00  7.071068e-01
   outer loop
     vertex -1.294003e-01  2.587354e-01  8.424422e-01
     vertex -1.294003e-01  2.604441e-01  8.424422e-01
     vertex -1.406503e-01  2.604441e-01  8.536922e-01
   endloop
 endfacet
 facet normal  7.071068e-01  0.000000e+00  7.071068e-01
   outer loop
     vertex -1.294003e-01  2.587354e-01  8.424422e-01
     vertex -1.406503e-01  2.604441e-01  8.536922e-01
     vertex -1.406503e-01  2.587354e-01  8.536922e-01
   endloop
 endfacet
 facet normal -5.821187e-01 -5.676933e-01  5.821187e-01
   outer loop
     vertex -1.168346e-01  2.573864e-01  8.536922e-01
     vertex -1.294003e-01  2.587354e-01  8.424422e-01
     vertex -1.294003e-01  2.573864e-01  8.411266e-01
   endloop
 endfacet
 facet normal -5.821187e-01 -5.676933e-01  5.821187e-01
   outer loop
     vertex -1.168346e-01  2.573864e-01  8.536922e-01
     vertex -1.181503e-01  2.587354e-01  8.536922e-01
     vertex -1.294003e-01  2.587354e-01  8.424422e-01
   endloop
 endfacet
 facet normal -5.821187e-01  5.676933e-01  5.821187e-01
   outer loop
     vertex -1.168346e-01  2.555019e-01  8.536922e-01
     vertex -1.294003e-01  2.541529e-01  8.424422e-01
     vertex -1.181503e-01  2.541529e-01  8.536922e-01
   endloop
 endfacet
 facet normal -7.071068e-01  0.000000e+00  7.071068e-01
   outer loop
     vertex -1.168346e-01  2.555019e-01  8.536922e-01
     vertex -1.294003e-01  2.573864e-01  8.411266e-01
     vertex -1.294003e-01  2.555019e-01  8.411266e-01
   endloop
 endfacet
 facet normal -5.821187e-01  5.676933e-01  5.821187e-01
   outer loop
     vertex -1.168346e-01  2.555019e-01  8.536922e-01
     vertex -1.294003e-01  2.555019e-01  8.411266e-01
     vertex -1.294003e-01  2.541529e-01  8.424422e-01
   endloop
 endfacet
 facet normal -7.071068e-01  0.000000e+00  7.071068e-01
   outer loop
     vertex -1.168346e-01  2.555019e-01  8.536922e-01
     vertex -1.168346e-01  2.573864e-01  8.536922e-01
     vertex -1.294003e-01  2.573864e-01  8.411266e-01
   endloop
 endfacet
 facet normal -5.821187e-01 -5.676933e-01 -5.821187e-01
   outer loop
     vertex -1.294003e-01  2.573864e-01  8.662579e-01
     vertex -1.294003e-01  2.587354e-01  8.649422e-01
     vertex -1.181503e-01  2.587354e-01  8.536922e-01
   endloop
 endfacet
 facet normal -5.821187e-01 -5.676933e-01 -5.821187e-01
   outer loop
     vertex -1.294003e-01  2.573864e-01  8.662579e-01
     vertex -1.181503e-01  2.587354e-01  8.536922e-01
     vertex -1.168346e-01  2.573864e-01  8.536922e-01
   endloop
 endfacet
 facet normal -5.821187e-01  5.676933e-01 -5.821187e-01
   outer loop
     vertex -1.294003e-01  2.555019e-01  8.662579e-01
     vertex -1.181503e-01  2.541529e-01  8.536922e-01
     vertex -1.294003e-01  2.541529e-01  8.649422e-01
   endloop
 endfacet
 facet normal -7.071068e-01  0.000000e+00 -7.071068e-01
   outer loop
     vertex -1.294003e-01  2.555019e-01  8.662579e-01
     vertex -1.168346e-01  2.573864e-01  8.536922e-01
     vertex -1.168346e-01  2.555019e-01  8.536922e-01
   endloop
 endfacet
 facet normal -5.821187e-01  5.676933e-01 -5.821187e-01
   outer loop
     vertex -1.294003e-01  2.555019e-01  8.662579e-01
     vertex -1.168346e-01  2.555019e-01  8.536922e-01
     vertex -1.181503e-01  2.541529e-01  8.536922e-01
   endloop
 endfacet
 facet normal -7.071068e-01  0.000000e+00 -7.071068e-01
   outer loop
     vertex -1.294003e-01  2.555019e-01  8.662579e-01
     vertex -1.294003e-01  2.573864e-01  8.662579e-01
     vertex -1.168346e-01  2.573864e-01  8.536922e-01
   endloop
 endfacet
 facet normal  5.821187e-01 -5.676933e-01  5.821187e-01
   outer loop
     vertex -1.419659e-01  2.573864e-01  8.536922e-01
     vertex -1.294003e-01  2.573864e-01  8.411266e-01
     vertex -1.294003e-01  2.587354e-01  8.424422e-01
   endloop
 endfacet
 facet normal  5.821187e-01 -5.676933e-01 -5.821187e-01
   outer loop
     vertex -1.419659e-01  2.573864e-01  8.536922e-01
     vertex -1.406503e-01  2.587354e-01  8.536922e-01
     vertex -1.294003e-01  2.587354e-01  8.649422e-01
   endloop
 endfacet
 facet normal  5.821187e-01 -5.676933e-01  5.821187e-01
   outer loop
     vertex -1.419659e-01  2.573864e-01  8.536922e-01
     vertex -1.294003e-01  2.587354e-01  8.424422e-01
     vertex -1.406503e-01  2.587354e-01  8.536922e-01
   endloop
 endfacet
 facet normal  5.821187e-01 -5.676933e-01 -5.821187e-01
   outer loop
     vertex -1.419659e-01  2.573864e-01  8.536922e-01
     vertex -1.294003e-01  2.587354e-01  8.649422e-01
     vertex -1.294003e-01  2.573864e-01  8.662579e-01
   endloop
 endfacet
 facet normal  7.071068e-01  0.000000e+00  7.071068e-01
   outer loop
     vertex -1.419659e-01  2.555019e-01  8.536922e-01
     vertex -1.294003e-01  2.555019e-01  8.411266e-01
     vertex -1.294003e-01  2.573864e-01  8.411266e-01
   endloop
 endfacet
 facet normal  5.821187e-01  5.676933e-01  5.821187e-01
   outer loop
     vertex -1.419659e-01  2.555019e-01  8.536922e-01
     vertex -1.294003e-01  2.541529e-01  8.424422e-01
     vertex -1.294003e-01  2.555019e-01  8.411266e-01
   endloop
 endfacet
 facet normal  5.821187e-01  5.676933e-01 -5.821187e-01
   outer loop
     vertex -1.419659e-01  2.555019e-01  8.536922e-01
     vertex -1.294003e-01  2.541529e-01  8.649422e-01
     vertex -1.406503e-01  2.541529e-01  8.536922e-01
   endloop
 endfacet
 facet normal  5.821187e-01  5.676933e-01  5.821187e-01
   outer loop
     vertex -1.419659e-01  2.555019e-01  8.536922e-01
     vertex -1.406503e-01  2.541529e-01  8.536922e-01
     vertex -1.294003e-01  2.541529e-01  8.424422e-01
   endloop
 endfacet
 facet normal  7.071068e-01 -0.000000e+00  7.071068e-01
   outer loop
     vertex -1.419659e-01  2.555019e-01  8.536922e-01
     vertex -1.294003e-01  2.573864e-01  8.411266e-01
     vertex -1.419659e-01  2.573864e-01  8.536922e-01
   endloop
 endfacet
 facet normal  5.821187e-01  5.676933e-01 -5.821187e-01
   outer loop
     vertex -1.419659e-01  2.555019e-01  8.536922e-01
     vertex -1.294003e-01  2.555019e-01  8.662579e-01
     vertex -1.294003e-01  2.541529e-01  8.649422e-01
   endloop
 endfacet
 facet normal  7.071068e-01  0.000000e+00 -7.071068e-01
   outer loop
     vertex -1.419659e-01  2.555019e-01  8.536922e-01
     vertex -1.419659e-01  2.573864e-01  8.536922e-01
     vertex -1.294003e-01  2.573864e-01  8.662579e-01
   endloop
 endfacet
 facet normal  7.071068e-01  0.000000e+00 -7.071068e-01
   outer loop
     vertex -1.419659e-01  2.555019e-01  8.536922e-01
     vertex -1.294003e-01  2.573864e-01  8.662579e-01
     vertex -1.294003e-01  2.555019e-01  8.662579e-01
   endloop
 endfacet
 facet normal -7.071068e-01  0.000000e+00  7.071068e-01
   outer loop
     vertex -1.181503e-01  2.484441e-01  8.536922e-01
     vertex -1.294003e-01  2.541529e-01  8.424422e-01
     vertex -1.294003e-01  2.484441e-01  8.424422e-01
   endloop
 endfacet
 facet normal -7.071068e-01  0.000000e+00  7.071068e-01
   outer loop
     vertex -1.181503e-01  2.484441e-01  8.536922e-01
     vertex -1.181503e-01  2.541529e-01  8.536922e-01
     vertex -1.294003e-01  2.541529e-01  8.424422e-01
   endloop
 endfacet
 facet normal -7.071068e-01  0.000000e+00 -7.071068e-01
   outer loop
     vertex -1.294003e-01  2.484441e-01  8.649422e-01
     vertex -1.294003e-01  2.541529e-01  8.649422e-01
     vertex -1.181503e-01  2.541529e-01  8.536922e-01
   endloop
 endfacet
 facet normal -7.071068e-01  0.000000e+00 -7.071068e-01
   outer loop
     vertex -1.294003e-01  2.484441e-01  8.649422e-01
     vertex -1.181503e-01  2.541529e-01  8.536922e-01
     vertex -1.181503e-01  2.484441e-01  8.536922e-01
   endloop
 endfacet
 facet normal  7.071068e-01  0.000000e+00 -7.071068e-01
   outer loop
     vertex -1.406503e-01  2.484441e-01  8.536922e-01
     vertex -1.406503e-01  2.541529e-01  8.536922e-01
     vertex -1.294003e-01  2.541529e-01  8.649422e-01
   endloop
 endfacet
 facet normal  7.071068e-01  0.000000e+00 -7.071068e-01
   outer loop
     vertex -1.406503e-01  2.484441e-01  8.536922e-01
     vertex -1.294003e-01  2.541529e-01  8.649422e-01
     vertex -1.294003e-01  2.484441e-01  8.649422e-01
   endloop
 endfacet
 facet normal  7.071068e-01 -0.000000e+00  7.071068e-01
   outer loop
     vertex -1.294003e-01  2.484441e-01  8.424422e-01
     vertex -1.294003e-01  2.541529e-01  8.424422e-01
     vertex -1.406503e-01  2.541529e-01  8.536922e-01
   endloop
 endfacet
 facet normal  7.071068e-01  0.000000e+00  7.071068e-01
   outer loop
     vertex -1.294003e-01  2.484441e-01  8.424422e-01
     vertex -1.406503e-01  2.541529e-01  8.536922e-01
     vertex -1.406503e-01  2.484441e-01  8.536922e-01
   endloop
 endfacet
 facet normal  0.000000e+00 -1.000000e+00  0.000000e+00
   outer loop
     vertex -1.294003e-01  2.484441e-01  8.424422e-01
     vertex -1.294003e-01  2.484441e-01  8.374422e-01
     vertex -1.131503e-01  2.484441e-01  8.536922e-01
   endloop
 endfacet
 facet normal  0.000000e+00 -1.000000e+00  0.000000e+00
   outer loop
     vertex -1.294003e-01  2.484441e-01  8.424422e-01
     vertex -1.131503e-01  2.484441e-01  8.536922e-01
     vertex -1.181503e-01  2.484441e-01  8.536922e-01
   endloop
 endfacet
 facet normal  0.000000e+00 -1.000000e+00  0.000000e+00
   outer loop
     vertex -1.456503e-01  2.484441e-01  8.536922e-01
     vertex -1.294003e-01  2.484441e-01  8.424422e-01
     vertex -1.406503e-01  2.484441e-01  8.536922e-01
   endloop
 endfacet
 facet normal  0.000000e+00 -1.000000e+00  0.000000e+00
   outer loop
     vertex -1.456503e-01  2.484441e-01  8.536922e-01
     vertex -1.294003e-01  2.484441e-01  8.374422e-01
     vertex -1.294003e-01  2.484441e-01  8.424422e-01
   endloop
 endfacet
 facet normal  0.000000e+00 -1.000000e+00  0.000000e+00
   outer loop
     vertex -1.294003e-01  2.484441e-01  8.699422e-01
     vertex -1.294003e-01  2.484441e-01  8.649422e-01
     vertex -1.181503e-01  2.484441e-01  8.536922e-01
   endloop
 endfacet
 facet normal  0.000000e+00 -1.000000e+00 -0.000000e+00
   outer loop
     vertex -1.294003e-01  2.484441e-01  8.699422e-01
     vertex -1.406503e-01  2.484441e-01  8.536922e-01
     vertex -1.294003e-01  2.484441e-01  8.649422e-01
   endloop
 endfacet
 facet normal  0.000000e+00 -1.000000e+00  0.000000e+00
   outer loop
     vertex -1.294003e-01  2.484441e-01  8.699422e-01
     vertex -1.181503e-01  2.484441e-01  8.536922e-01
     vertex -1.131503e-01  2.484441e-01  8.536922e-01
   endloop
 endfacet
 facet normal  0.000000e+00 -1.000000e+00  0.000000e+00
   outer loop
     vertex -1.294003e-01  2.484441e-01  8.699422e-01
     vertex -1.456503e-01  2.484441e-01  8.536922e-01
     vertex -1.406503e-01  2.484441e-01  8.536922e-01
   endloop
 endfacet
 facet normal -5.000000e-01  0.000000e+00  8.660254e-01
   outer loop
     vertex -1.153274e-01  2.424441e-01  8.455672e-01
     vertex -1.294003e-01  2.484441e-01  8.374422e-01
     vertex -1.294003e-01  2.424441e-01  8.374422e-01
   endloop
 endfacet
 facet normal -5.790209e-01 -5.739943e-01  5.790209e-01
   outer loop
     vertex -1.153274e-01  2.424441e-01  8.455672e-01
     vertex -1.131503e-01  2.484441e-01  8.536922e-01
     vertex -1.294003e-01  2.484441e-01  8.374422e-01
   endloop
 endfacet
 facet normal -5.790209e-01 -5.739943e-01 -5.790209e-01
   outer loop
     vertex -1.153274e-01  2.424441e-01  8.618172e-01
     vertex -1.294003e-01  2.484441e-01  8.699422e-01
     vertex -1.131503e-01  2.484441e-01  8.536922e-01
   endloop
 endfacet
 facet normal -9.400312e-01  3.410883e-01  0.000000e+00
   outer loop
     vertex -1.153274e-01  2.424441e-01  8.618172e-01
     vertex -1.131503e-01  2.484441e-01  8.536922e-01
     vertex -1.153274e-01  2.424441e-01  8.455672e-01
   endloop
 endfacet
 facet normal -5.000000e-01  0.000000e+00 -8.660254e-01
   outer loop
     vertex -1.294003e-01  2.424441e-01  8.699422e-01
     vertex -1.294003e-01  2.484441e-01  8.699422e-01
     vertex -1.153274e-01  2.424441e-01  8.618172e-01
   endloop
 endfacet
 facet normal  5.790209e-01 -5.739943e-01 -5.790209e-01
   outer loop
     vertex -1.434732e-01  2.424441e-01  8.618172e-01
     vertex -1.456503e-01  2.484441e-01  8.536922e-01
     vertex -1.294003e-01  2.484441e-01  8.699422e-01
   endloop
 endfacet
 facet normal  5.000000e-01  0.000000e+00 -8.660254e-01
   outer loop
     vertex -1.434732e-01  2.424441e-01  8.618172e-01
     vertex -1.294003e-01  2.484441e-01  8.699422e-01
     vertex -1.294003e-01  2.424441e-01  8.699422e-01
   endloop
 endfacet
 facet normal  5.790209e-01 -5.739943e-01  5.790209e-01
   outer loop
     vertex -1.434732e-01  2.424441e-01  8.455672e-01
     vertex -1.294003e-01  2.484441e-01  8.374422e-01
     vertex -1.456503e-01  2.484441e-01  8.536922e-01
   endloop
 endfacet
 facet normal  9.400312e-01  3.410883e-01 -0.000000e+00
   outer loop
     vertex -1.434732e-01  2.424441e-01  8.455672e-01
     vertex -1.456503e-01  2.484441e-01  8.536922e-01
     vertex -1.434732e-01  2.424441e-01  8.618172e-01
   endloop
 endfacet
 facet normal  5.000000e-01 -0.000000e+00  8.660254e-01
   outer loop
     vertex -1.294003e-01  2.424441e-01  8.374422e-01
     vertex -1.294003e-01  2.484441e-01  8.374422e-01
     vertex -1.434732e-01  2.424441e-01  8.455672e-01
   endloop
 endfacet
 facet normal  1.053525e-01 -9.775497e-01  1.824759e-01
   outer loop
     vertex -1.120798e-01  2.431441e-01  8.636922e-01
     vertex -1.294003e-01  2.431441e-01  8.736922e-01
     vertex -1.294003e-01  2.424441e-01  8.699422e-01
   endloop
 endfacet
 facet normal  1.053525e-01 -9.775497e-01  1.824759e-01
   outer loop
     vertex -1.120798e-01  2.431441e-01  8.636922e-01
     vertex -1.294003e-01  2.424441e-01  8.699422e-01
     vertex -1.153274e-01  2.424441e-01  8.618172e-01
   endloop
 endfacet
 facet normal  2.107051e-01 -9.775497e-01  0.000000e+00
   outer loop
     vertex -1.120798e-01  2.431441e-01  8.436922e-01
     vertex -1.153274e-01  2.424441e-01  8.618172e-01
     vertex -1.153274e-01  2.424441e-01  8.455672e-01
   endloop
 endfacet
 facet normal  2.107051e-01 -9.775497e-01  0.000000e+00
   outer loop
     vertex -1.120798e-01  2.431441e-01  8.436922e-01
     vertex -1.120798e-01  2.431441e-01  8.636922e-01
     vertex -1.153274e-01  2.424441e-01  8.618172e-01
   endloop
 endfacet
 facet normal  1.053525e-01 -9.775497e-01 -1.824759e-01
   outer loop
     vertex -1.294003e-01  2.431441e-01  8.336922e-01
     vertex -1.153274e-01  2.424441e-01  8.455672e-01
     vertex -1.294003e-01  2.424441e-01  8.374422e-01
   endloop
 endfacet
 facet normal  1.053525e-01 -9.775497e-01 -1.824759e-01
   outer loop
     vertex -1.294003e-01  2.431441e-01  8.336922e-01
     vertex -1.120798e-01  2.431441e-01  8.436922e-01
     vertex -1.153274e-01  2.424441e-01  8.455672e-01
   endloop
 endfacet
 facet normal -1.053525e-01 -9.775497e-01 -1.824759e-01
   outer loop
     vertex -1.467208e-01  2.431441e-01  8.436922e-01
     vertex -1.294003e-01  2.424441e-01  8.374422e-01
     vertex -1.434732e-01  2.424441e-01  8.455672e-01
   endloop
 endfacet
 facet normal -1.053525e-01 -9.775497e-01 -1.824759e-01
   outer loop
     vertex -1.467208e-01  2.431441e-01  8.436922e-01
     vertex -1.294003e-01  2.431441e-01  8.336922e-01
     vertex -1.294003e-01  2.424441e-01  8.374422e-01
   endloop
 endfacet
 facet normal -2.107051e-01 -9.775497e-01  0.000000e+00
   outer loop
     vertex -1.467208e-01  2.431441e-01  8.636922e-01
     vertex -1.434732e-01  2.424441e-01  8.455672e-01
     vertex -1.434732e-01  2.424441e-01  8.618172e-01
   endloop
 endfacet
 facet normal -2.107051e-01 -9.775497e-01 -0.000000e+00
   outer loop
     vertex -1.467208e-01  2.431441e-01  8.636922e-01
     vertex -1.467208e-01  2.431441e-01  8.436922e-01
     vertex -1.434732e-01  2.424441e-01  8.455672e-01
   endloop
 endfacet
 facet normal -1.053525e-01 -9.775497e-01  1.824759e-01
   outer loop
     vertex -1.294003e-01  2.431441e-01  8.736922e-01
     vertex -1.434732e-01  2.424441e-01  8.618172e-01
     vertex -1.294003e-01  2.424441e-01  8.699422e-01
   endloop
 endfacet
 facet normal -1.053525e-01 -9.775497e-01  1.824759e-01
   outer loop
     vertex -1.294003e-01  2.431441e-01  8.736922e-01
     vertex -1.467208e-01  2.431441e-01  8.636922e-01
     vertex -1.434732e-01  2.424441e-01  8.618172e-01
   endloop
 endfacet
 facet normal  5.000000e-01  0.000000e+00 -8.660254e-01
   outer loop
     vertex -1.120798e-01  2.431441e-01  8.436922e-01
     vertex -1.294003e-01  2.431441e-01  8.336922e-01
     vertex -1.294003e-01  2.523941e-01  8.336922e-01
   endloop
 endfacet
 facet normal  6.170578e-01  4.883434e-01 -6.170578e-01
   outer loop
     vertex -1.120798e-01  2.431441e-01  8.436922e-01
     vertex -1.294003e-01  2.523941e-01  8.336922e-01
     vertex -1.094003e-01  2.523941e-01  8.536922e-01
   endloop
 endfacet
 facet normal  6.170578e-01  4.883434e-01  6.170578e-01
   outer loop
     vertex -1.120798e-01  2.431441e-01  8.636922e-01
     vertex -1.094003e-01  2.523941e-01  8.536922e-01
     vertex -1.294003e-01  2.523941e-01  8.736922e-01
   endloop
 endfacet
 facet normal  9.605127e-01 -2.782363e-01  0.000000e+00
   outer loop
     vertex -1.120798e-01  2.431441e-01  8.636922e-01
     vertex -1.120798e-01  2.431441e-01  8.436922e-01
     vertex -1.094003e-01  2.523941e-01  8.536922e-01
   endloop
 endfacet
 facet normal  5.000000e-01 -0.000000e+00  8.660254e-01
   outer loop
     vertex -1.294003e-01  2.431441e-01  8.736922e-01
     vertex -1.120798e-01  2.431441e-01  8.636922e-01
     vertex -1.294003e-01  2.523941e-01  8.736922e-01
   endloop
 endfacet
 facet normal -6.170578e-01  4.883434e-01  6.170578e-01
   outer loop
     vertex -1.467208e-01  2.431441e-01  8.636922e-01
     vertex -1.294003e-01  2.523941e-01  8.736922e-01
     vertex -1.494003e-01  2.523941e-01  8.536922e-01
   endloop
 endfacet
 facet normal -5.000000e-01  0.000000e+00  8.660254e-01
   outer loop
     vertex -1.467208e-01  2.431441e-01  8.636922e-01
     vertex -1.294003e-01  2.431441e-01  8.736922e-01
     vertex -1.294003e-01  2.523941e-01  8.736922e-01
   endloop
 endfacet
 facet normal -6.170578e-01  4.883434e-01 -6.170578e-01
   outer loop
     vertex -1.467208e-01  2.431441e-01  8.436922e-01
     vertex -1.494003e-01  2.523941e-01  8.536922e-01
     vertex -1.294003e-01  2.523941e-01  8.336922e-01
   endloop
 endfacet
 facet normal -9.605127e-01 -2.782363e-01  0.000000e+00
   outer loop
     vertex -1.467208e-01  2.431441e-01  8.436922e-01
     vertex -1.467208e-01  2.431441e-01  8.636922e-01
     vertex -1.494003e-01  2.523941e-01  8.536922e-01
   endloop
 endfacet
 facet normal -5.000000e-01  0.000000e+00 -8.660254e-01
   outer loop
     vertex -1.294003e-01  2.431441e-01  8.336922e-01
     vertex -1.467208e-01  2.431441e-01  8.436922e-01
     vertex -1.294003e-01  2.523941e-01  8.336922e-01
   endloop
 endfacet
 facet normal -0.000000e+00  1.000000e+00  0.000000e+00
   outer loop
     vertex -1.294003e-01  2.523941e-01  8.386922e-01
     vertex -1.094003e-01  2.523941e-01  8.536922e-01
     vertex -1.294003e-01  2.523941e-01  8.336922e-01
   endloop
 endfacet
 facet normal  0.000000e+00  1.000000e+00  0.000000e+00
   outer loop
     vertex -1.294003e-01  2.523941e-01  8.386922e-01
     vertex -1.144003e-01  2.523941e-01  8.536922e-01
     vertex -1.094003e-01  2.523941e-01  8.536922e-01
   endloop
 endfacet
 facet normal -0.000000e+00  1.000000e+00  0.000000e+00
   outer loop
     vertex -1.494003e-01  2.523941e-01  8.536922e-01
     vertex -1.444003e-01  2.523941e-01  8.536922e-01
     vertex -1.294003e-01  2.523941e-01  8.386922e-01
   endloop
 endfacet
 facet normal  0.000000e+00  1.000000e+00  0.000000e+00
   outer loop
     vertex -1.494003e-01  2.523941e-01  8.536922e-01
     vertex -1.294003e-01  2.523941e-01  8.386922e-01
     vertex -1.294003e-01  2.523941e-01  8.336922e-01
   endloop
 endfacet
 facet normal  0.000000e+00  1.000000e+00  0.000000e+00
   outer loop
     vertex -1.294003e-01  2.523941e-01  8.736922e-01
     vertex -1.144003e-01  2.523941e-01  8.536922e-01
     vertex -1.294003e-01  2.523941e-01  8.686922e-01
   endloop
 endfacet
 facet normal  0.000000e+00  1.000000e+00  0.000000e+00
   outer loop
     vertex -1.294003e-01  2.523941e-01  8.736922e-01
     vertex -1.294003e-01  2.523941e-01  8.686922e-01
     vertex -1.444003e-01  2.523941e-01  8.536922e-01
   endloop
 endfacet
 facet normal  0.000000e+00  1.000000e+00  0.000000e+00
   outer loop
     vertex -1.294003e-01  2.523941e-01  8.736922e-01
     vertex -1.094003e-01  2.523941e-01  8.536922e-01
     vertex -1.144003e-01  2.523941e-01  8.536922e-01
   endloop
 endfacet
 facet normal  0.000000e+00  1.000000e+00  0.000000e+00
   outer loop
     vertex -1.294003e-01  2.523941e-01  8.736922e-01
     vertex -1.444003e-01  2.523941e-01  8.536922e-01
     vertex -1.494003e-01  2.523941e-01  8.536922e-01
   endloop
 endfacet
 facet normal  7.071068e-01  0.000000e+00 -7.071068e-01
   outer loop
     vertex -1.144003e-01  2.523941e-01  8.536922e-01
     vertex -1.294003e-01  2.523941e-01  8.386922e-01
     vertex -1.294003e-01  2.578441e-01  8.386922e-01
   endloop
 endfacet
 facet normal  7.071068e-01  0.000000e+00 -7.071068e-01
   outer loop
     vertex -1.144003e-01  2.523941e-01  8.536922e-01
     vertex -1.294003e-01  2.578441e-01  8.386922e-01
     vertex -1.144003e-01  2.578441e-01  8.536922e-01
   endloop
 endfacet
 facet normal  7.071068e-01 -0.000000e+00  7.071068e-01
   outer loop
     vertex -1.294003e-01  2.523941e-01  8.686922e-01
     vertex -1.144003e-01  2.578441e-01  8.536922e-01
     vertex -1.294003e-01  2.578441e-01  8.686922e-01
   endloop
 endfacet
 facet normal  7.071068e-01  0.000000e+00  7.071068e-01
   outer loop
     vertex -1.294003e-01  2.523941e-01  8.686922e-01
     vertex -1.144003e-01  2.523941e-01  8.536922e-01
     vertex -1.144003e-01  2.578441e-01  8.536922e-01
   endloop
 endfacet
 facet normal -7.071068e-01  0.000000e+00  7.071068e-01
   outer loop
     vertex -1.444003e-01  2.523941e-01  8.536922e-01
     vertex -1.294003e-01  2.578441e-01  8.686922e-01
     vertex -1.444003e-01  2.578441e-01  8.536922e-01
   endloop
 endfacet
 facet normal -7.071068e-01  0.000000e+00  7.071068e-01
   outer loop
     vertex -1.444003e-01  2.523941e-01  8.536922e-01
     vertex -1.294003e-01  2.523941e-01  8.686922e-01
     vertex -1.294003e-01  2.578441e-01  8.686922e-01
   endloop
 endfacet
 facet normal -7.071068e-01  0.000000e+00 -7.071068e-01
   outer loop
     vertex -1.294003e-01  2.523941e-01  8.386922e-01
     vertex -1.444003e-01  2.578441e-01  8.536922e-01
     vertex -1.294003e-01  2.578441e-01  8.386922e-01
   endloop
 endfacet
 facet normal -7.071068e-01  0.000000e+00 -7.071068e-01
   outer loop
     vertex -1.294003e-01  2.523941e-01  8.386922e-01
     vertex -1.444003e-01  2.523941e-01  8.536922e-01
     vertex -1.444003e-01  2.578441e-01  8.536922e-01
   endloop
 endfacet
 facet normal  0.000000e+00 -1.000000e+00  0.000000e+00
   outer loop
     vertex -1.294003e-01  2.578441e-01  8.386922e-01
     vertex -1.294003e-01  2.578441e-01  8.336922e-01
     vertex -1.094003e-01  2.578441e-01  8.536922e-01
   endloop
 endfacet
 facet normal  0.000000e+00 -1.000000e+00  0.000000e+00
   outer loop
     vertex -1.294003e-01  2.578441e-01  8.386922e-01
     vertex -1.094003e-01  2.578441e-01  8.536922e-01
     vertex -1.144003e-01  2.578441e-01  8.536922e-01
   endloop
 endfacet
 facet normal  0.000000e+00 -1.000000e+00  0.000000e+00
   outer loop
     vertex -1.494003e-01  2.578441e-01  8.536922e-01
     vertex -1.294003e-01  2.578441e-01  8.386922e-01
     vertex -1.444003e-01  2.578441e-01  8.536922e-01
   endloop
 endfacet
 facet normal  0.000000e+00 -1.000000e+00  0.000000e+00
   outer loop
     vertex -1.494003e-01  2.578441e-01  8.536922e-01
     vertex -1.294003e-01  2.578441e-01  8.336922e-01
     vertex -1.294003e-01  2.578441e-01  8.386922e-01
   endloop
 endfacet
 facet normal  0.000000e+00 -1.000000e+00  0.000000e+00
   outer loop
     vertex -1.294003e-01  2.578441e-01  8.736922e-01
     vertex -1.294003e-01  2.578441e-01  8.686922e-01
     vertex -1.144003e-01  2.578441e-01  8.536922e-01
   endloop
 endfacet
 facet normal  0.000000e+00 -1.000000e+00 -0.000000e+00
   outer loop
     vertex -1.294003e-01  2.578441e-01  8.736922e-01
     vertex -1.444003e-01  2.578441e-01  8.536922e-01
     vertex -1.294003e-01  2.578441e-01  8.686922e-01
   endloop
 endfacet
 facet normal  0.000000e+00 -1.000000e+00  0.000000e+00
   outer loop
     vertex -1.294003e-01  2.578441e-01  8.736922e-01
     vertex -1.144003e-01  2.578441e-01  8.536922e-01
     vertex -1.094003e-01  2.578441e-01  8.536922e-01
   endloop
 endfacet
 facet normal  0.000000e+00 -1.000000e+00  0.000000e+00
   outer loop
     vertex -1.294003e-01  2.578441e-01  8.736922e-01
     vertex -1.494003e-01  2.578441e-01  8.536922e-01
     vertex -1.444003e-01  2.578441e-01  8.536922e-01
   endloop
 endfacet
 facet normal  7.071068e-01  0.000000e+00 -7.071068e-01
   outer loop
     vertex -1.094003e-01  2.578441e-01  8.536922e-01
     vertex -1.294003e-01  2.578441e-01  8.336922e-01
     vertex -1.294003e-01  2.604441e-01  8.336922e-01
   endloop
 endfacet
 facet normal  7.071068e-01  0.000000e+00 -7.071068e-01
   outer loop
     vertex -1.094003e-01  2.578441e-01  8.536922e-01
     vertex -1.294003e-01  2.604441e-01  8.336922e-01
     vertex -1.094003e-01  2.604441e-01  8.536922e-01
   endloop
 endfacet
 facet normal  7.071068e-01 -0.000000e+00  7.071068e-01
   outer loop
     vertex -1.294003e-01  2.578441e-01  8.736922e-01
     vertex -1.094003e-01  2.604441e-01  8.536922e-01
     vertex -1.294003e-01  2.604441e-01  8.736922e-01
   endloop
 endfacet
 facet normal  7.071068e-01  0.000000e+00  7.071068e-01
   outer loop
     vertex -1.294003e-01  2.578441e-01  8.736922e-01
     vertex -1.094003e-01  2.578441e-01  8.536922e-01
     vertex -1.094003e-01  2.604441e-01  8.536922e-01
   endloop
 endfacet
 facet normal -7.071068e-01  0.000000e+00  7.071068e-01
   outer loop
     vertex -1.494003e-01  2.578441e-01  8.536922e-01
     vertex -1.294003e-01  2.604441e-01  8.736922e-01
     vertex -1.494003e-01  2.604441e-01  8.536922e-01
   endloop
 endfacet
 facet normal -7.071068e-01  0.000000e+00  7.071068e-01
   outer loop
     vertex -1.494003e-01  2.578441e-01  8.536922e-01
     vertex -1.294003e-01  2.578441e-01  8.736922e-01
     vertex -1.294003e-01  2.604441e-01  8.736922e-01
   endloop
 endfacet
 facet normal -7.071068e-01  0.000000e+00 -7.071068e-01
   outer loop
     vertex -1.294003e-01  2.578441e-01  8.336922e-01
     vertex -1.494003e-01  2.604441e-01  8.536922e-01
     vertex -1.294003e-01  2.604441e-01  8.336922e-01
   endloop
 endfacet
 facet normal -7.071068e-01  0.000000e+00 -7.071068e-01
   outer loop
     vertex -1.294003e-01  2.578441e-01  8.336922e-01
     vertex -1.494003e-01  2.578441e-01  8.536922e-01
     vertex -1.494003e-01  2.604441e-01  8.536922e-01
   endloop
 endfacet
 facet normal -0.000000e+00  1.000000e+00  0.000000e+00
   outer loop
     vertex -1.181503e-01  2.604441e-01  8.536922e-01
     vertex -1.094003e-01  2.604441e-01  8.536922e-01
     vertex -1.294003e-01  2.604441e-01  8.336922e-01
   endloop
 endfacet
 facet normal  0.000000e+00  1.000000e+00  0.000000e+00
   outer loop
     vertex -1.181503e-01  2.604441e-01  8.536922e-01
     vertex -1.294003e-01  2.604441e-01  8.336922e-01
     vertex -1.294003e-01  2.604441e-01  8.424422e-01
   endloop
 endfacet
 facet normal -0.000000e+00  1.000000e+00  0.000000e+00
   outer loop
     vertex -1.494003e-01  2.604441e-01  8.536922e-01
     vertex -1.406503e-01  2.604441e-01  8.536922e-01
     vertex -1.294003e-01  2.604441e-01  8.424422e-01
   endloop
 endfacet
 facet normal  0.000000e+00  1.000000e+00  0.000000e+00
   outer loop
     vertex -1.494003e-01  2.604441e-01  8.536922e-01
     vertex -1.294003e-01  2.604441e-01  8.424422e-01
     vertex -1.294003e-01  2.604441e-01  8.336922e-01
   endloop
 endfacet
 facet normal  0.000000e+00  1.000000e+00  0.000000e+00
   outer loop
     vertex -1.294003e-01  2.604441e-01  8.736922e-01
     vertex -1.294003e-01  2.604441e-01  8.649422e-01
     vertex -1.406503e-01  2.604441e-01  8.536922e-01
   endloop
 endfacet
 facet normal  0.000000e+00  1.000000e+00  0.000000e+00
   outer loop
     vertex -1.294003e-01  2.604441e-01  8.736922e-01
     vertex -1.181503e-01  2.604441e-01  8.536922e-01
     vertex -1.294003e-01  2.604441e-01  8.649422e-01
   endloop
 endfacet
 facet normal  0.000000e+00  1.000000e+00  0.000000e+00
   outer loop
     vertex -1.294003e-01  2.604441e-01  8.736922e-01
     vertex -1.094003e-01  2.604441e-01  8.536922e-01
     vertex -1.181503e-01  2.604441e-01  8.536922e-01
   endloop
 endfacet
 facet normal  0.000000e+00  1.000000e+00  0.000000e+00
   outer loop
     vertex -1.294003e-01  2.604441e-01  8.736922e-01
     vertex -1.406503e-01  2.604441e-01  8.536922e-01
     vertex -1.494003e-01  2.604441e-01  8.536922e-01
   endloop
 endfacet
endsolid
