solid 
 facet normal  0.000000e+00 -1.000000e+00  0.000000e+00
   outer loop
     vertex  2.720997e-01 -2.365559e-01  8.686922e-01
     vertex  2.745997e-01 -2.365559e-01  8.686922e-01
     vertex  2.675997e-01 -2.365559e-01  8.756922e-01
   endloop
 endfacet
 facet normal  0.000000e+00 -1.000000e+00  0.000000e+00
   outer loop
     vertex  2.720997e-01 -2.365559e-01  8.686922e-01
     vertex  2.675997e-01 -2.365559e-01  8.756922e-01
     vertex  2.675997e-01 -2.365559e-01  8.731922e-01
   endloop
 endfacet
 facet normal  0.000000e+00 -1.000000e+00  0.000000e+00
   outer loop
     vertex  2.605997e-01 -2.365559e-01  8.686922e-01
     vertex  2.630997e-01 -2.365559e-01  8.686922e-01
     vertex  2.675997e-01 -2.365559e-01  8.731922e-01
   endloop
 endfacet
 facet normal  0.000000e+00 -1.000000e+00  0.000000e+00
   outer loop
     vertex  2.605997e-01 -2.365559e-01  8.686922e-01
     vertex  2.675997e-01 -2.365559e-01  8.731922e-01
     vertex  2.675997e-01 -2.365559e-01  8.756922e-01
   endloop
 endfacet
 facet normal  0.000000e+00 -1.000000e+00  0.000000e+00
   outer loop
     vertex  2.675997e-01 -2.365559e-01  8.616922e-01
     vertex  2.675997e-01 -2.365559e-01  8.641922e-01
     vertex  2.630997e-01 -2.365559e-01  8.686922e-01
   endloop
 endfacet
 facet normal  0.000000e+00 -1.000000e+00  0.000000e+00
   outer loop
     vertex  2.675997e-01 -2.365559e-01  8.616922e-01
     vertex  2.720997e-01 -2.365559e-01  8.686922e-01
     vertex  2.675997e-01 -2.365559e-01  8.641922e-01
   endloop
 endfacet
 facet normal  0.000000e+00 -1.000000e+00  0.000000e+00
   outer loop
     vertex  2.675997e-01 -2.365559e-01  8.616922e-01
     vertex  2.745997e-01 -2.365559e-01  8.686922e-01
     vertex  2.720997e-01 -2.365559e-01  8.686922e-01
   endloop
 endfacet
 facet normal  0.000000e+00 -1.000000e+00  0.000000e+00
   outer loop
     vertex  2.675997e-01 -2.365559e-01  8.616922e-01
     vertex  2.630997e-01 -2.365559e-01  8.686922e-01
     vertex  2.605997e-01 -2.365559e-01  8.686922e-01
   endloop
 endfacet
 facet normal  7.071068e-01  0.000000e+00  7.071068e-01
   outer loop
     vertex  2.745997e-01 -2.345559e-01  8.686922e-01
     vertex  2.675997e-01 -2.345559e-01  8.756922e-01
     vertex  2.675997e-01 -2.365559e-01  8.756922e-01
   endloop
 endfacet
 facet normal  7.071068e-01  0.000000e+00  7.071068e-01
   outer loop
     vertex  2.745997e-01 -2.345559e-01  8.686922e-01
     vertex  2.675997e-01 -2.365559e-01  8.756922e-01
     vertex  2.745997e-01 -2.365559e-01  8.686922e-01
   endloop
 endfacet
 facet normal  7.071068e-01  0.000000e+00 -7.071068e-01
   outer loop
     vertex  2.675997e-01 -2.345559e-01  8.616922e-01
     vertex  2.745997e-01 -2.365559e-01  8.686922e-01
     vertex  2.675997e-01 -2.365559e-01  8.616922e-01
   endloop
 endfacet
 facet normal  7.071068e-01  0.000000e+00 -7.071068e-01
   outer loop
     vertex  2.675997e-01 -2.345559e-01  8.616922e-01
     vertex  2.745997e-01 -2.345559e-01  8.686922e-01
     vertex  2.745997e-01 -2.365559e-01  8.686922e-01
   endloop
 endfacet
 facet normal -7.071068e-01 -0.000000e+00 -7.071068e-01
   outer loop
     vertex  2.605997e-01 -2.345559e-01  8.686922e-01
     vertex  2.675997e-01 -2.365559e-01  8.616922e-01
     vertex  2.605997e-01 -2.365559e-01  8.686922e-01
   endloop
 endfacet
 facet normal -7.071068e-01  0.000000e+00 -7.071068e-01
   outer loop
     vertex  2.605997e-01 -2.345559e-01  8.686922e-01
     vertex  2.675997e-01 -2.345559e-01  8.616922e-01
     vertex  2.675997e-01 -2.365559e-01  8.616922e-01
   endloop
 endfacet
 facet normal -7.071068e-01  0.000000e+00  7.071068e-01
   outer loop
     vertex  2.675997e-01 -2.345559e-01  8.756922e-01
     vertex  2.605997e-01 -2.365559e-01  8.686922e-01
     vertex  2.675997e-01 -2.365559e-01  8.756922e-01
   endloop
 endfacet
 facet normal -7.071068e-01  0.000000e+00  7.071068e-01
   outer loop
     vertex  2.675997e-01 -2.345559e-01  8.756922e-01
     vertex  2.605997e-01 -2.345559e-01  8.686922e-01
     vertex  2.605997e-01 -2.365559e-01  8.686922e-01
   endloop
 endfacet
 facet normal  0.000000e+00  1.000000e+00 -0.000000e+00
   outer loop
     vertex  2.720997e-01 -2.345559e-01  8.686922e-01
     vertex  2.675997e-01 -2.345559e-01  8.756922e-01
     vertex  2.745997e-01 -2.345559e-01  8.686922e-01
   endloop
 endfacet
 facet normal  0.000000e+00  1.000000e+00  0.000000e+00
   outer loop
     vertex  2.720997e-01 -2.345559e-01  8.686922e-01
     vertex  2.675997e-01 -2.345559e-01  8.731922e-01
     vertex  2.675997e-01 -2.345559e-01  8.756922e-01
   endloop
 endfacet
 facet normal  0.000000e+00  1.000000e+00  0.000000e+00
   outer loop
     vertex  2.605997e-01 -2.345559e-01  8.686922e-01
     vertex  2.675997e-01 -2.345559e-01  8.731922e-01
     vertex  2.630997e-01 -2.345559e-01  8.686922e-01
   endloop
 endfacet
 facet normal  0.000000e+00  1.000000e+00  0.000000e+00
   outer loop
     vertex  2.605997e-01 -2.345559e-01  8.686922e-01
     vertex  2.675997e-01 -2.345559e-01  8.756922e-01
     vertex  2.675997e-01 -2.345559e-01  8.731922e-01
   endloop
 endfacet
 facet normal  0.000000e+00  1.000000e+00 -0.000000e+00
   outer loop
     vertex  2.675997e-01 -2.345559e-01  8.616922e-01
     vertex  2.630997e-01 -2.345559e-01  8.686922e-01
     vertex  2.675997e-01 -2.345559e-01  8.641922e-01
   endloop
 endfacet
 facet normal  0.000000e+00  1.000000e+00  0.000000e+00
   outer loop
     vertex  2.675997e-01 -2.345559e-01  8.616922e-01
     vertex  2.675997e-01 -2.345559e-01  8.641922e-01
     vertex  2.720997e-01 -2.345559e-01  8.686922e-01
   endloop
 endfacet
 facet normal  0.000000e+00  1.000000e+00  0.000000e+00
   outer loop
     vertex  2.675997e-01 -2.345559e-01  8.616922e-01
     vertex  2.720997e-01 -2.345559e-01  8.686922e-01
     vertex  2.745997e-01 -2.345559e-01  8.686922e-01
   endloop
 endfacet
 facet normal  0.000000e+00  1.000000e+00  0.000000e+00
   outer loop
     vertex  2.675997e-01 -2.345559e-01  8.616922e-01
     vertex  2.605997e-01 -2.345559e-01  8.686922e-01
     vertex  2.630997e-01 -2.345559e-01  8.686922e-01
   endloop
 endfacet
 facet normal -7.071068e-01  0.000000e+00 -7.071068e-01
   outer loop
     vertex  2.720997e-01 -2.345559e-01  8.686922e-01
     vertex  2.675997e-01 -2.365559e-01  8.731922e-01
     vertex  2.675997e-01 -2.345559e-01  8.731922e-01
   endloop
 endfacet
 facet normal -7.071068e-01 -0.000000e+00 -7.071068e-01
   outer loop
     vertex  2.720997e-01 -2.345559e-01  8.686922e-01
     vertex  2.720997e-01 -2.365559e-01  8.686922e-01
     vertex  2.675997e-01 -2.365559e-01  8.731922e-01
   endloop
 endfacet
 facet normal -7.071068e-01  0.000000e+00  7.071068e-01
   outer loop
     vertex  2.675997e-01 -2.345559e-01  8.641922e-01
     vertex  2.675997e-01 -2.365559e-01  8.641922e-01
     vertex  2.720997e-01 -2.365559e-01  8.686922e-01
   endloop
 endfacet
 facet normal -7.071068e-01  0.000000e+00  7.071068e-01
   outer loop
     vertex  2.675997e-01 -2.345559e-01  8.641922e-01
     vertex  2.720997e-01 -2.365559e-01  8.686922e-01
     vertex  2.720997e-01 -2.345559e-01  8.686922e-01
   endloop
 endfacet
 facet normal  7.071068e-01  0.000000e+00  7.071068e-01
   outer loop
     vertex  2.630997e-01 -2.345559e-01  8.686922e-01
     vertex  2.630997e-01 -2.365559e-01  8.686922e-01
     vertex  2.675997e-01 -2.365559e-01  8.641922e-01
   endloop
 endfacet
 facet normal  7.071068e-01  0.000000e+00  7.071068e-01
   outer loop
     vertex  2.630997e-01 -2.345559e-01  8.686922e-01
     vertex  2.675997e-01 -2.365559e-01  8.641922e-01
     vertex  2.675997e-01 -2.345559e-01  8.641922e-01
   endloop
 endfacet
 facet normal  7.071068e-01  0.000000e+00 -7.071068e-01
   outer loop
     vertex  2.675997e-01 -2.345559e-01  8.731922e-01
     vertex  2.675997e-01 -2.365559e-01  8.731922e-01
     vertex  2.630997e-01 -2.365559e-01  8.686922e-01
   endloop
 endfacet
 facet normal  7.071068e-01  0.000000e+00 -7.071068e-01
   outer loop
     vertex  2.675997e-01 -2.345559e-01  8.731922e-01
     vertex  2.630997e-01 -2.365559e-01  8.686922e-01
     vertex  2.630997e-01 -2.345559e-01  8.686922e-01
   endloop
 endfacet
endsolid
