solid 
 facet normal  1.000000e+00  0.000000e+00 -0.000000e+00
   outer loop
     vertex  1.895997e-01  2.299441e-01  8.686922e-01
     vertex  1.895997e-01  2.324441e-01  8.686922e-01
     vertex  1.895997e-01  2.254441e-01  8.756922e-01
   endloop
 endfacet
 facet normal  1.000000e+00  0.000000e+00  0.000000e+00
   outer loop
     vertex  1.895997e-01  2.299441e-01  8.686922e-01
     vertex  1.895997e-01  2.254441e-01  8.756922e-01
     vertex  1.895997e-01  2.254441e-01  8.731922e-01
   endloop
 endfacet
 facet normal  1.000000e+00  0.000000e+00  0.000000e+00
   outer loop
     vertex  1.895997e-01  2.184441e-01  8.686922e-01
     vertex  1.895997e-01  2.209441e-01  8.686922e-01
     vertex  1.895997e-01  2.254441e-01  8.731922e-01
   endloop
 endfacet
 facet normal  1.000000e+00  0.000000e+00  0.000000e+00
   outer loop
     vertex  1.895997e-01  2.184441e-01  8.686922e-01
     vertex  1.895997e-01  2.254441e-01  8.731922e-01
     vertex  1.895997e-01  2.254441e-01  8.756922e-01
   endloop
 endfacet
 facet normal  1.000000e+00  0.000000e+00 -0.000000e+00
   outer loop
     vertex  1.895997e-01  2.254441e-01  8.616922e-01
     vertex  1.895997e-01  2.254441e-01  8.641922e-01
     vertex  1.895997e-01  2.209441e-01  8.686922e-01
   endloop
 endfacet
 facet normal  1.000000e+00  0.000000e+00  0.000000e+00
   outer loop
     vertex  1.895997e-01  2.254441e-01  8.616922e-01
     vertex  1.895997e-01  2.299441e-01  8.686922e-01
     vertex  1.895997e-01  2.254441e-01  8.641922e-01
   endloop
 endfacet
 facet normal  1.000000e+00  0.000000e+00  0.000000e+00
   outer loop
     vertex  1.895997e-01  2.254441e-01  8.616922e-01
     vertex  1.895997e-01  2.324441e-01  8.686922e-01
     vertex  1.895997e-01  2.299441e-01  8.686922e-01
   endloop
 endfacet
 facet normal  1.000000e+00  0.000000e+00  0.000000e+00
   outer loop
     vertex  1.895997e-01  2.254441e-01  8.616922e-01
     vertex  1.895997e-01  2.209441e-01  8.686922e-01
     vertex  1.895997e-01  2.184441e-01  8.686922e-01
   endloop
 endfacet
 facet normal  0.000000e+00  7.071068e-01  7.071068e-01
   outer loop
     vertex  1.875997e-01  2.324441e-01  8.686922e-01
     vertex  1.875997e-01  2.254441e-01  8.756922e-01
     vertex  1.895997e-01  2.254441e-01  8.756922e-01
   endloop
 endfacet
 facet normal -0.000000e+00  7.071068e-01  7.071068e-01
   outer loop
     vertex  1.875997e-01  2.324441e-01  8.686922e-01
     vertex  1.895997e-01  2.254441e-01  8.756922e-01
     vertex  1.895997e-01  2.324441e-01  8.686922e-01
   endloop
 endfacet
 facet normal  0.000000e+00  7.071068e-01 -7.071068e-01
   outer loop
     vertex  1.875997e-01  2.254441e-01  8.616922e-01
     vertex  1.895997e-01  2.324441e-01  8.686922e-01
     vertex  1.895997e-01  2.254441e-01  8.616922e-01
   endloop
 endfacet
 facet normal  0.000000e+00  7.071068e-01 -7.071068e-01
   outer loop
     vertex  1.875997e-01  2.254441e-01  8.616922e-01
     vertex  1.875997e-01  2.324441e-01  8.686922e-01
     vertex  1.895997e-01  2.324441e-01  8.686922e-01
   endloop
 endfacet
 facet normal  0.000000e+00 -7.071068e-01 -7.071068e-01
   outer loop
     vertex  1.875997e-01  2.184441e-01  8.686922e-01
     vertex  1.895997e-01  2.254441e-01  8.616922e-01
     vertex  1.895997e-01  2.184441e-01  8.686922e-01
   endloop
 endfacet
 facet normal  0.000000e+00 -7.071068e-01 -7.071068e-01
   outer loop
     vertex  1.875997e-01  2.184441e-01  8.686922e-01
     vertex  1.875997e-01  2.254441e-01  8.616922e-01
     vertex  1.895997e-01  2.254441e-01  8.616922e-01
   endloop
 endfacet
 facet normal  0.000000e+00 -7.071068e-01  7.071068e-01
   outer loop
     vertex  1.875997e-01  2.254441e-01  8.756922e-01
     vertex  1.895997e-01  2.184441e-01  8.686922e-01
     vertex  1.895997e-01  2.254441e-01  8.756922e-01
   endloop
 endfacet
 facet normal  0.000000e+00 -7.071068e-01  7.071068e-01
   outer loop
     vertex  1.875997e-01  2.254441e-01  8.756922e-01
     vertex  1.875997e-01  2.184441e-01  8.686922e-01
     vertex  1.895997e-01  2.184441e-01  8.686922e-01
   endloop
 endfacet
 facet normal -1.000000e+00  0.000000e+00  0.000000e+00
   outer loop
     vertex  1.875997e-01  2.299441e-01  8.686922e-01
     vertex  1.875997e-01  2.254441e-01  8.756922e-01
     vertex  1.875997e-01  2.324441e-01  8.686922e-01
   endloop
 endfacet
 facet normal -1.000000e+00  0.000000e+00  0.000000e+00
   outer loop
     vertex  1.875997e-01  2.299441e-01  8.686922e-01
     vertex  1.875997e-01  2.254441e-01  8.731922e-01
     vertex  1.875997e-01  2.254441e-01  8.756922e-01
   endloop
 endfacet
 facet normal -1.000000e+00  0.000000e+00  0.000000e+00
   outer loop
     vertex  1.875997e-01  2.184441e-01  8.686922e-01
     vertex  1.875997e-01  2.254441e-01  8.731922e-01
     vertex  1.875997e-01  2.209441e-01  8.686922e-01
   endloop
 endfacet
 facet normal -1.000000e+00  0.000000e+00  0.000000e+00
   outer loop
     vertex  1.875997e-01  2.184441e-01  8.686922e-01
     vertex  1.875997e-01  2.254441e-01  8.756922e-01
     vertex  1.875997e-01  2.254441e-01  8.731922e-01
   endloop
 endfacet
 facet normal -1.000000e+00  0.000000e+00  0.000000e+00
   outer loop
     vertex  1.875997e-01  2.254441e-01  8.616922e-01
     vertex  1.875997e-01  2.209441e-01  8.686922e-01
     vertex  1.875997e-01  2.254441e-01  8.641922e-01
   endloop
 endfacet
 facet normal -1.000000e+00  0.000000e+00  0.000000e+00
   outer loop
     vertex  1.875997e-01  2.254441e-01  8.616922e-01
     vertex  1.875997e-01  2.254441e-01  8.641922e-01
     vertex  1.875997e-01  2.299441e-01  8.686922e-01
   endloop
 endfacet
 facet normal -1.000000e+00  0.000000e+00  0.000000e+00
   outer loop
     vertex  1.875997e-01  2.254441e-01  8.616922e-01
     vertex  1.875997e-01  2.299441e-01  8.686922e-01
     vertex  1.875997e-01  2.324441e-01  8.686922e-01
   endloop
 endfacet
 facet normal -1.000000e+00  0.000000e+00  0.000000e+00
   outer loop
     vertex  1.875997e-01  2.254441e-01  8.616922e-01
     vertex  1.875997e-01  2.184441e-01  8.686922e-01
     vertex  1.875997e-01  2.209441e-01  8.686922e-01
   endloop
 endfacet
 facet normal  0.000000e+00 -7.071068e-01 -7.071068e-01
   outer loop
     vertex  1.875997e-01  2.299441e-01  8.686922e-01
     vertex  1.895997e-01  2.254441e-01  8.731922e-01
     vertex  1.875997e-01  2.254441e-01  8.731922e-01
   endloop
 endfacet
 facet normal  0.000000e+00 -7.071068e-01 -7.071068e-01
   outer loop
     vertex  1.875997e-01  2.299441e-01  8.686922e-01
     vertex  1.895997e-01  2.299441e-01  8.686922e-01
     vertex  1.895997e-01  2.254441e-01  8.731922e-01
   endloop
 endfacet
 facet normal  0.000000e+00 -7.071068e-01  7.071068e-01
   outer loop
     vertex  1.875997e-01  2.254441e-01  8.641922e-01
     vertex  1.895997e-01  2.254441e-01  8.641922e-01
     vertex  1.895997e-01  2.299441e-01  8.686922e-01
   endloop
 endfacet
 facet normal  0.000000e+00 -7.071068e-01  7.071068e-01
   outer loop
     vertex  1.875997e-01  2.254441e-01  8.641922e-01
     vertex  1.895997e-01  2.299441e-01  8.686922e-01
     vertex  1.875997e-01  2.299441e-01  8.686922e-01
   endloop
 endfacet
 facet normal -0.000000e+00  7.071068e-01  7.071068e-01
   outer loop
     vertex  1.875997e-01  2.209441e-01  8.686922e-01
     vertex  1.895997e-01  2.209441e-01  8.686922e-01
     vertex  1.895997e-01  2.254441e-01  8.641922e-01
   endloop
 endfacet
 facet normal  0.000000e+00  7.071068e-01  7.071068e-01
   outer loop
     vertex  1.875997e-01  2.209441e-01  8.686922e-01
     vertex  1.895997e-01  2.254441e-01  8.641922e-01
     vertex  1.875997e-01  2.254441e-01  8.641922e-01
   endloop
 endfacet
 facet normal  0.000000e+00  7.071068e-01 -7.071068e-01
   outer loop
     vertex  1.875997e-01  2.254441e-01  8.731922e-01
     vertex  1.895997e-01  2.254441e-01  8.731922e-01
     vertex  1.895997e-01  2.209441e-01  8.686922e-01
   endloop
 endfacet
 facet normal  0.000000e+00  7.071068e-01 -7.071068e-01
   outer loop
     vertex  1.875997e-01  2.254441e-01  8.731922e-01
     vertex  1.895997e-01  2.209441e-01  8.686922e-01
     vertex  1.875997e-01  2.209441e-01  8.686922e-01
   endloop
 endfacet
endsolid
