solid 
 facet normal  0.000000e+00 -1.000000e+00  0.000000e+00
   outer loop
     vertex -1.924003e-01 -2.695559e-01  8.831922e-01
     vertex -1.924003e-01 -2.695559e-01  8.856922e-01
     vertex -1.944003e-01 -2.695559e-01  8.851563e-01
   endloop
 endfacet
 facet normal  0.000000e+00 -1.000000e+00  0.000000e+00
   outer loop
     vertex -1.939003e-01 -2.695559e-01  8.816922e-01
     vertex -1.958644e-01 -2.695559e-01  8.836922e-01
     vertex -1.964003e-01 -2.695559e-01  8.816922e-01
   endloop
 endfacet
 facet normal  0.000000e+00 -1.000000e+00  0.000000e+00
   outer loop
     vertex -1.939003e-01 -2.695559e-01  8.816922e-01
     vertex -1.944003e-01 -2.695559e-01  8.851563e-01
     vertex -1.958644e-01 -2.695559e-01  8.836922e-01
   endloop
 endfacet
 facet normal  0.000000e+00 -1.000000e+00  0.000000e+00
   outer loop
     vertex -1.939003e-01 -2.695559e-01  8.816922e-01
     vertex -1.924003e-01 -2.695559e-01  8.831922e-01
     vertex -1.944003e-01 -2.695559e-01  8.851563e-01
   endloop
 endfacet
 facet normal  0.000000e+00 -1.000000e+00  0.000000e+00
   outer loop
     vertex -1.909003e-01 -2.695559e-01  8.816922e-01
     vertex -1.924003e-01 -2.695559e-01  8.856922e-01
     vertex -1.924003e-01 -2.695559e-01  8.831922e-01
   endloop
 endfacet
 facet normal  0.000000e+00 -1.000000e+00  0.000000e+00
   outer loop
     vertex -1.924003e-01 -2.695559e-01  8.801922e-01
     vertex -1.939003e-01 -2.695559e-01  8.816922e-01
     vertex -1.964003e-01 -2.695559e-01  8.816922e-01
   endloop
 endfacet
 facet normal -0.000000e+00 -1.000000e+00  0.000000e+00
   outer loop
     vertex -1.924003e-01 -2.695559e-01  8.271922e-01
     vertex -1.964003e-01 -2.695559e-01  8.816922e-01
     vertex -1.964003e-01 -2.695559e-01  8.256922e-01
   endloop
 endfacet
 facet normal  0.000000e+00 -1.000000e+00  0.000000e+00
   outer loop
     vertex -1.924003e-01 -2.695559e-01  8.271922e-01
     vertex -1.924003e-01 -2.695559e-01  8.801922e-01
     vertex -1.964003e-01 -2.695559e-01  8.816922e-01
   endloop
 endfacet
 facet normal  0.000000e+00 -1.000000e+00  0.000000e+00
   outer loop
     vertex -1.939003e-01 -2.695559e-01  8.256922e-01
     vertex -1.924003e-01 -2.695559e-01  8.271922e-01
     vertex -1.964003e-01 -2.695559e-01  8.256922e-01
   endloop
 endfacet
 facet normal  0.000000e+00 -1.000000e+00  0.000000e+00
   outer loop
     vertex -1.958644e-01 -2.695559e-01  8.236922e-01
     vertex -1.939003e-01 -2.695559e-01  8.256922e-01
     vertex -1.964003e-01 -2.695559e-01  8.256922e-01
   endloop
 endfacet
 facet normal  0.000000e+00 -1.000000e+00  0.000000e+00
   outer loop
     vertex -1.909003e-01 -2.695559e-01  8.256922e-01
     vertex -1.909003e-01 -2.695559e-01  8.816922e-01
     vertex -1.924003e-01 -2.695559e-01  8.801922e-01
   endloop
 endfacet
 facet normal  0.000000e+00 -1.000000e+00  0.000000e+00
   outer loop
     vertex -1.909003e-01 -2.695559e-01  8.256922e-01
     vertex -1.924003e-01 -2.695559e-01  8.801922e-01
     vertex -1.924003e-01 -2.695559e-01  8.271922e-01
   endloop
 endfacet
 facet normal  0.000000e+00 -1.000000e+00  0.000000e+00
   outer loop
     vertex -1.924003e-01 -2.695559e-01  8.241922e-01
     vertex -1.958644e-01 -2.695559e-01  8.236922e-01
     vertex -1.944003e-01 -2.695559e-01  8.222281e-01
   endloop
 endfacet
 facet normal -0.000000e+00 -1.000000e+00  0.000000e+00
   outer loop
     vertex -1.924003e-01 -2.695559e-01  8.241922e-01
     vertex -1.939003e-01 -2.695559e-01  8.256922e-01
     vertex -1.958644e-01 -2.695559e-01  8.236922e-01
   endloop
 endfacet
 facet normal  0.000000e+00 -1.000000e+00  0.000000e+00
   outer loop
     vertex -1.924003e-01 -2.695559e-01  8.216922e-01
     vertex -1.909003e-01 -2.695559e-01  8.256922e-01
     vertex -1.924003e-01 -2.695559e-01  8.241922e-01
   endloop
 endfacet
 facet normal  0.000000e+00 -1.000000e+00  0.000000e+00
   outer loop
     vertex -1.924003e-01 -2.695559e-01  8.216922e-01
     vertex -1.924003e-01 -2.695559e-01  8.241922e-01
     vertex -1.944003e-01 -2.695559e-01  8.222281e-01
   endloop
 endfacet
 facet normal  0.000000e+00 -1.000000e+00  0.000000e+00
   outer loop
     vertex -7.990027e-02 -2.695559e-01  8.816922e-01
     vertex -1.924003e-01 -2.695559e-01  8.856922e-01
     vertex -1.909003e-01 -2.695559e-01  8.816922e-01
   endloop
 endfacet
 facet normal -0.000000e+00 -1.000000e+00  0.000000e+00
   outer loop
     vertex -7.840027e-02 -2.695559e-01  8.831922e-01
     vertex -1.924003e-01 -2.695559e-01  8.856922e-01
     vertex -7.990027e-02 -2.695559e-01  8.816922e-01
   endloop
 endfacet
 facet normal  0.000000e+00 -1.000000e+00  0.000000e+00
   outer loop
     vertex -7.990027e-02 -2.695559e-01  8.256922e-01
     vertex -1.909003e-01 -2.695559e-01  8.816922e-01
     vertex -1.909003e-01 -2.695559e-01  8.256922e-01
   endloop
 endfacet
 facet normal -0.000000e+00 -1.000000e+00  0.000000e+00
   outer loop
     vertex -7.990027e-02 -2.695559e-01  8.256922e-01
     vertex -1.909003e-01 -2.695559e-01  8.256922e-01
     vertex -1.924003e-01 -2.695559e-01  8.216922e-01
   endloop
 endfacet
 facet normal  0.000000e+00 -1.000000e+00  0.000000e+00
   outer loop
     vertex -7.990027e-02 -2.695559e-01  8.256922e-01
     vertex -7.990027e-02 -2.695559e-01  8.816922e-01
     vertex -1.909003e-01 -2.695559e-01  8.816922e-01
   endloop
 endfacet
 facet normal  0.000000e+00 -1.000000e+00  0.000000e+00
   outer loop
     vertex -7.840027e-02 -2.695559e-01  8.271922e-01
     vertex -7.840027e-02 -2.695559e-01  8.801922e-01
     vertex -7.990027e-02 -2.695559e-01  8.816922e-01
   endloop
 endfacet
 facet normal -0.000000e+00 -1.000000e+00  0.000000e+00
   outer loop
     vertex -7.840027e-02 -2.695559e-01  8.271922e-01
     vertex -7.990027e-02 -2.695559e-01  8.816922e-01
     vertex -7.990027e-02 -2.695559e-01  8.256922e-01
   endloop
 endfacet
 facet normal  0.000000e+00 -1.000000e+00  0.000000e+00
   outer loop
     vertex -7.690027e-02 -2.695559e-01  8.256922e-01
     vertex -7.690027e-02 -2.695559e-01  8.816922e-01
     vertex -7.840027e-02 -2.695559e-01  8.801922e-01
   endloop
 endfacet
 facet normal  0.000000e+00 -1.000000e+00  0.000000e+00
   outer loop
     vertex -7.690027e-02 -2.695559e-01  8.256922e-01
     vertex -7.840027e-02 -2.695559e-01  8.801922e-01
     vertex -7.840027e-02 -2.695559e-01  8.271922e-01
   endloop
 endfacet
 facet normal -0.000000e+00 -1.000000e+00  0.000000e+00
   outer loop
     vertex -7.840027e-02 -2.695559e-01  8.241922e-01
     vertex -7.990027e-02 -2.695559e-01  8.256922e-01
     vertex -1.924003e-01 -2.695559e-01  8.216922e-01
   endloop
 endfacet
 facet normal  0.000000e+00 -1.000000e+00  0.000000e+00
   outer loop
     vertex  3.559973e-02 -2.695559e-01  8.856922e-01
     vertex -7.840027e-02 -2.695559e-01  8.831922e-01
     vertex -7.690027e-02 -2.695559e-01  8.816922e-01
   endloop
 endfacet
 facet normal  0.000000e+00 -1.000000e+00  0.000000e+00
   outer loop
     vertex  3.409973e-02 -2.695559e-01  8.816922e-01
     vertex  3.559973e-02 -2.695559e-01  8.856922e-01
     vertex -7.690027e-02 -2.695559e-01  8.816922e-01
   endloop
 endfacet
 facet normal -0.000000e+00 -1.000000e+00  0.000000e+00
   outer loop
     vertex  3.559973e-02 -2.695559e-01  8.831922e-01
     vertex  3.559973e-02 -2.695559e-01  8.856922e-01
     vertex  3.409973e-02 -2.695559e-01  8.816922e-01
   endloop
 endfacet
 facet normal -0.000000e+00 -1.000000e+00  0.000000e+00
   outer loop
     vertex  3.759973e-02 -2.695559e-01  8.851563e-01
     vertex  3.559973e-02 -2.695559e-01  8.856922e-01
     vertex  3.559973e-02 -2.695559e-01  8.831922e-01
   endloop
 endfacet
 facet normal -0.000000e+00 -1.000000e+00  0.000000e+00
   outer loop
     vertex  3.906383e-02 -2.695559e-01  8.836922e-01
     vertex  3.759973e-02 -2.695559e-01  8.851563e-01
     vertex  3.559973e-02 -2.695559e-01  8.831922e-01
   endloop
 endfacet
 facet normal  0.000000e+00 -1.000000e+00  0.000000e+00
   outer loop
     vertex  3.709973e-02 -2.695559e-01  8.816922e-01
     vertex  3.906383e-02 -2.695559e-01  8.836922e-01
     vertex  3.559973e-02 -2.695559e-01  8.831922e-01
   endloop
 endfacet
 facet normal  0.000000e+00 -1.000000e+00  0.000000e+00
   outer loop
     vertex  3.959973e-02 -2.695559e-01  8.816922e-01
     vertex  3.906383e-02 -2.695559e-01  8.836922e-01
     vertex  3.709973e-02 -2.695559e-01  8.816922e-01
   endloop
 endfacet
 facet normal -0.000000e+00 -1.000000e+00  0.000000e+00
   outer loop
     vertex  3.959973e-02 -2.695559e-01  8.816922e-01
     vertex  3.709973e-02 -2.695559e-01  8.816922e-01
     vertex  3.559973e-02 -2.695559e-01  8.801922e-01
   endloop
 endfacet
 facet normal  0.000000e+00 -1.000000e+00  0.000000e+00
   outer loop
     vertex  3.409973e-02 -2.695559e-01  8.256922e-01
     vertex -7.690027e-02 -2.695559e-01  8.816922e-01
     vertex -7.690027e-02 -2.695559e-01  8.256922e-01
   endloop
 endfacet
 facet normal  0.000000e+00 -1.000000e+00  0.000000e+00
   outer loop
     vertex  3.409973e-02 -2.695559e-01  8.256922e-01
     vertex  3.409973e-02 -2.695559e-01  8.816922e-01
     vertex -7.690027e-02 -2.695559e-01  8.816922e-01
   endloop
 endfacet
 facet normal -0.000000e+00 -1.000000e+00  0.000000e+00
   outer loop
     vertex  3.559973e-02 -2.695559e-01  8.271922e-01
     vertex  3.409973e-02 -2.695559e-01  8.816922e-01
     vertex  3.409973e-02 -2.695559e-01  8.256922e-01
   endloop
 endfacet
 facet normal  0.000000e+00 -1.000000e+00  0.000000e+00
   outer loop
     vertex  3.559973e-02 -2.695559e-01  8.271922e-01
     vertex  3.559973e-02 -2.695559e-01  8.801922e-01
     vertex  3.409973e-02 -2.695559e-01  8.816922e-01
   endloop
 endfacet
 facet normal  0.000000e+00 -1.000000e+00  0.000000e+00
   outer loop
     vertex  3.959973e-02 -2.695559e-01  8.256922e-01
     vertex  3.959973e-02 -2.695559e-01  8.816922e-01
     vertex  3.559973e-02 -2.695559e-01  8.801922e-01
   endloop
 endfacet
 facet normal  0.000000e+00 -1.000000e+00  0.000000e+00
   outer loop
     vertex  3.959973e-02 -2.695559e-01  8.256922e-01
     vertex  3.559973e-02 -2.695559e-01  8.801922e-01
     vertex  3.559973e-02 -2.695559e-01  8.271922e-01
   endloop
 endfacet
 facet normal  0.000000e+00 -1.000000e+00  0.000000e+00
   outer loop
     vertex  3.959973e-02 -2.695559e-01  8.256922e-01
     vertex  3.559973e-02 -2.695559e-01  8.271922e-01
     vertex  3.709973e-02 -2.695559e-01  8.256922e-01
   endloop
 endfacet
 facet normal  0.000000e+00 -1.000000e+00  0.000000e+00
   outer loop
     vertex  3.559973e-02 -2.695559e-01  8.216922e-01
     vertex -7.690027e-02 -2.695559e-01  8.256922e-01
     vertex -7.840027e-02 -2.695559e-01  8.241922e-01
   endloop
 endfacet
 facet normal  0.000000e+00 -1.000000e+00  0.000000e+00
   outer loop
     vertex  3.559973e-02 -2.695559e-01  8.216922e-01
     vertex  3.559973e-02 -2.695559e-01  8.241922e-01
     vertex  3.409973e-02 -2.695559e-01  8.256922e-01
   endloop
 endfacet
 facet normal  0.000000e+00 -1.000000e+00  0.000000e+00
   outer loop
     vertex  3.559973e-02 -2.695559e-01  8.216922e-01
     vertex  3.409973e-02 -2.695559e-01  8.256922e-01
     vertex -7.690027e-02 -2.695559e-01  8.256922e-01
   endloop
 endfacet
 facet normal  0.000000e+00 -1.000000e+00  0.000000e+00
   outer loop
     vertex  3.906383e-02 -2.695559e-01  8.236922e-01
     vertex  3.959973e-02 -2.695559e-01  8.256922e-01
     vertex  3.709973e-02 -2.695559e-01  8.256922e-01
   endloop
 endfacet
 facet normal -0.000000e+00 -1.000000e+00  0.000000e+00
   outer loop
     vertex  3.759973e-02 -2.695559e-01  8.222281e-01
     vertex  3.559973e-02 -2.695559e-01  8.241922e-01
     vertex  3.559973e-02 -2.695559e-01  8.216922e-01
   endloop
 endfacet
 facet normal  0.000000e+00 -1.000000e+00  0.000000e+00
   outer loop
     vertex  3.759973e-02 -2.695559e-01  8.222281e-01
     vertex  3.906383e-02 -2.695559e-01  8.236922e-01
     vertex  3.709973e-02 -2.695559e-01  8.256922e-01
   endloop
 endfacet
 facet normal  0.000000e+00 -1.000000e+00  0.000000e+00
   outer loop
     vertex  3.759973e-02 -2.695559e-01  8.222281e-01
     vertex  3.709973e-02 -2.695559e-01  8.256922e-01
     vertex  3.559973e-02 -2.695559e-01  8.241922e-01
   endloop
 endfacet
 facet normal  0.000000e+00 -1.000000e+00  0.000000e+00
   outer loop
     vertex  3.559973e-02 -2.695559e-01  8.216922e-01
     vertex -7.840027e-02 -2.695559e-01  8.241922e-01
     vertex -1.924003e-01 -2.695559e-01  8.216922e-01
   endloop
 endfacet
 facet normal  0.000000e+00 -1.000000e+00  0.000000e+00
   outer loop
     vertex -1.924003e-01 -2.695559e-01  8.856922e-01
     vertex -7.840027e-02 -2.695559e-01  8.831922e-01
     vertex  3.559973e-02 -2.695559e-01  8.856922e-01
   endloop
 endfacet
 facet normal  0.000000e+00  0.000000e+00  1.000000e+00
   outer loop
     vertex  3.559973e-02 -2.675559e-01  8.856922e-01
     vertex -1.924003e-01 -2.695559e-01  8.856922e-01
     vertex  3.559973e-02 -2.695559e-01  8.856922e-01
   endloop
 endfacet
 facet normal  0.000000e+00  0.000000e+00  1.000000e+00
   outer loop
     vertex  3.559973e-02 -2.675559e-01  8.856922e-01
     vertex -1.924003e-01 -2.675559e-01  8.856922e-01
     vertex -1.924003e-01 -2.695559e-01  8.856922e-01
   endloop
 endfacet
 facet normal -9.659258e-01  0.000000e+00  2.588190e-01
   outer loop
     vertex -1.958644e-01 -2.675559e-01  8.836922e-01
     vertex -1.964003e-01 -2.695559e-01  8.816922e-01
     vertex -1.958644e-01 -2.695559e-01  8.836922e-01
   endloop
 endfacet
 facet normal -9.659258e-01  0.000000e+00  2.588190e-01
   outer loop
     vertex -1.958644e-01 -2.675559e-01  8.836922e-01
     vertex -1.964003e-01 -2.675559e-01  8.816922e-01
     vertex -1.964003e-01 -2.695559e-01  8.816922e-01
   endloop
 endfacet
 facet normal -7.071068e-01  0.000000e+00  7.071068e-01
   outer loop
     vertex -1.944003e-01 -2.675559e-01  8.851563e-01
     vertex -1.958644e-01 -2.695559e-01  8.836922e-01
     vertex -1.944003e-01 -2.695559e-01  8.851563e-01
   endloop
 endfacet
 facet normal -7.071068e-01  0.000000e+00  7.071068e-01
   outer loop
     vertex -1.944003e-01 -2.675559e-01  8.851563e-01
     vertex -1.958644e-01 -2.675559e-01  8.836922e-01
     vertex -1.958644e-01 -2.695559e-01  8.836922e-01
   endloop
 endfacet
 facet normal -2.588190e-01  0.000000e+00  9.659258e-01
   outer loop
     vertex -1.924003e-01 -2.675559e-01  8.856922e-01
     vertex -1.944003e-01 -2.695559e-01  8.851563e-01
     vertex -1.924003e-01 -2.695559e-01  8.856922e-01
   endloop
 endfacet
 facet normal -2.588190e-01  0.000000e+00  9.659258e-01
   outer loop
     vertex -1.924003e-01 -2.675559e-01  8.856922e-01
     vertex -1.944003e-01 -2.675559e-01  8.851563e-01
     vertex -1.944003e-01 -2.695559e-01  8.851563e-01
   endloop
 endfacet
 facet normal -1.000000e+00 -0.000000e+00  0.000000e+00
   outer loop
     vertex -1.964003e-01 -2.675559e-01  8.816922e-01
     vertex -1.964003e-01 -2.695559e-01  8.256922e-01
     vertex -1.964003e-01 -2.695559e-01  8.816922e-01
   endloop
 endfacet
 facet normal -1.000000e+00  0.000000e+00 -0.000000e+00
   outer loop
     vertex -1.964003e-01 -2.675559e-01  8.816922e-01
     vertex -1.964003e-01 -2.675559e-01  8.256922e-01
     vertex -1.964003e-01 -2.695559e-01  8.256922e-01
   endloop
 endfacet
 facet normal -2.588190e-01 -0.000000e+00 -9.659258e-01
   outer loop
     vertex -1.944003e-01 -2.675559e-01  8.222281e-01
     vertex -1.924003e-01 -2.695559e-01  8.216922e-01
     vertex -1.944003e-01 -2.695559e-01  8.222281e-01
   endloop
 endfacet
 facet normal -2.588190e-01  0.000000e+00 -9.659258e-01
   outer loop
     vertex -1.944003e-01 -2.675559e-01  8.222281e-01
     vertex -1.924003e-01 -2.675559e-01  8.216922e-01
     vertex -1.924003e-01 -2.695559e-01  8.216922e-01
   endloop
 endfacet
 facet normal -7.071068e-01 -0.000000e+00 -7.071068e-01
   outer loop
     vertex -1.958644e-01 -2.675559e-01  8.236922e-01
     vertex -1.944003e-01 -2.695559e-01  8.222281e-01
     vertex -1.958644e-01 -2.695559e-01  8.236922e-01
   endloop
 endfacet
 facet normal -7.071068e-01  0.000000e+00 -7.071068e-01
   outer loop
     vertex -1.958644e-01 -2.675559e-01  8.236922e-01
     vertex -1.944003e-01 -2.675559e-01  8.222281e-01
     vertex -1.944003e-01 -2.695559e-01  8.222281e-01
   endloop
 endfacet
 facet normal -9.659258e-01 -0.000000e+00 -2.588190e-01
   outer loop
     vertex -1.964003e-01 -2.675559e-01  8.256922e-01
     vertex -1.958644e-01 -2.695559e-01  8.236922e-01
     vertex -1.964003e-01 -2.695559e-01  8.256922e-01
   endloop
 endfacet
 facet normal -9.659258e-01  0.000000e+00 -2.588190e-01
   outer loop
     vertex -1.964003e-01 -2.675559e-01  8.256922e-01
     vertex -1.958644e-01 -2.675559e-01  8.236922e-01
     vertex -1.958644e-01 -2.695559e-01  8.236922e-01
   endloop
 endfacet
 facet normal  0.000000e+00  0.000000e+00 -1.000000e+00
   outer loop
     vertex -1.924003e-01 -2.675559e-01  8.216922e-01
     vertex  3.559973e-02 -2.695559e-01  8.216922e-01
     vertex -1.924003e-01 -2.695559e-01  8.216922e-01
   endloop
 endfacet
 facet normal  0.000000e+00  0.000000e+00 -1.000000e+00
   outer loop
     vertex -1.924003e-01 -2.675559e-01  8.216922e-01
     vertex  3.559973e-02 -2.675559e-01  8.216922e-01
     vertex  3.559973e-02 -2.695559e-01  8.216922e-01
   endloop
 endfacet
 facet normal  9.659258e-01  0.000000e+00 -2.588190e-01
   outer loop
     vertex  3.906383e-02 -2.675559e-01  8.236922e-01
     vertex  3.959973e-02 -2.695559e-01  8.256922e-01
     vertex  3.906383e-02 -2.695559e-01  8.236922e-01
   endloop
 endfacet
 facet normal  9.659258e-01  0.000000e+00 -2.588190e-01
   outer loop
     vertex  3.906383e-02 -2.675559e-01  8.236922e-01
     vertex  3.959973e-02 -2.675559e-01  8.256922e-01
     vertex  3.959973e-02 -2.695559e-01  8.256922e-01
   endloop
 endfacet
 facet normal  7.071068e-01  0.000000e+00 -7.071068e-01
   outer loop
     vertex  3.759973e-02 -2.675559e-01  8.222281e-01
     vertex  3.906383e-02 -2.695559e-01  8.236922e-01
     vertex  3.759973e-02 -2.695559e-01  8.222281e-01
   endloop
 endfacet
 facet normal  7.071068e-01  0.000000e+00 -7.071068e-01
   outer loop
     vertex  3.759973e-02 -2.675559e-01  8.222281e-01
     vertex  3.906383e-02 -2.675559e-01  8.236922e-01
     vertex  3.906383e-02 -2.695559e-01  8.236922e-01
   endloop
 endfacet
 facet normal  2.588190e-01  0.000000e+00 -9.659258e-01
   outer loop
     vertex  3.559973e-02 -2.675559e-01  8.216922e-01
     vertex  3.759973e-02 -2.695559e-01  8.222281e-01
     vertex  3.559973e-02 -2.695559e-01  8.216922e-01
   endloop
 endfacet
 facet normal  2.588190e-01  0.000000e+00 -9.659258e-01
   outer loop
     vertex  3.559973e-02 -2.675559e-01  8.216922e-01
     vertex  3.759973e-02 -2.675559e-01  8.222281e-01
     vertex  3.759973e-02 -2.695559e-01  8.222281e-01
   endloop
 endfacet
 facet normal  1.000000e+00  0.000000e+00  0.000000e+00
   outer loop
     vertex  3.959973e-02 -2.675559e-01  8.256922e-01
     vertex  3.959973e-02 -2.695559e-01  8.816922e-01
     vertex  3.959973e-02 -2.695559e-01  8.256922e-01
   endloop
 endfacet
 facet normal  1.000000e+00  0.000000e+00 -0.000000e+00
   outer loop
     vertex  3.959973e-02 -2.675559e-01  8.256922e-01
     vertex  3.959973e-02 -2.675559e-01  8.816922e-01
     vertex  3.959973e-02 -2.695559e-01  8.816922e-01
   endloop
 endfacet
 facet normal  2.588190e-01  0.000000e+00  9.659258e-01
   outer loop
     vertex  3.759973e-02 -2.675559e-01  8.851563e-01
     vertex  3.559973e-02 -2.695559e-01  8.856922e-01
     vertex  3.759973e-02 -2.695559e-01  8.851563e-01
   endloop
 endfacet
 facet normal  2.588190e-01  0.000000e+00  9.659258e-01
   outer loop
     vertex  3.759973e-02 -2.675559e-01  8.851563e-01
     vertex  3.559973e-02 -2.675559e-01  8.856922e-01
     vertex  3.559973e-02 -2.695559e-01  8.856922e-01
   endloop
 endfacet
 facet normal  7.071068e-01  0.000000e+00  7.071068e-01
   outer loop
     vertex  3.906383e-02 -2.675559e-01  8.836922e-01
     vertex  3.759973e-02 -2.695559e-01  8.851563e-01
     vertex  3.906383e-02 -2.695559e-01  8.836922e-01
   endloop
 endfacet
 facet normal  7.071068e-01  0.000000e+00  7.071068e-01
   outer loop
     vertex  3.906383e-02 -2.675559e-01  8.836922e-01
     vertex  3.759973e-02 -2.675559e-01  8.851563e-01
     vertex  3.759973e-02 -2.695559e-01  8.851563e-01
   endloop
 endfacet
 facet normal  9.659258e-01  0.000000e+00  2.588190e-01
   outer loop
     vertex  3.959973e-02 -2.675559e-01  8.816922e-01
     vertex  3.906383e-02 -2.695559e-01  8.836922e-01
     vertex  3.959973e-02 -2.695559e-01  8.816922e-01
   endloop
 endfacet
 facet normal  9.659258e-01  0.000000e+00  2.588190e-01
   outer loop
     vertex  3.959973e-02 -2.675559e-01  8.816922e-01
     vertex  3.906383e-02 -2.675559e-01  8.836922e-01
     vertex  3.906383e-02 -2.695559e-01  8.836922e-01
   endloop
 endfacet
 facet normal  0.000000e+00  1.000000e+00 -2.842171e-11
   outer loop
     vertex -1.954003e-01 -2.675559e-01  8.816922e-01
     vertex -1.964003e-01 -2.675559e-01  8.816922e-01
     vertex -1.958644e-01 -2.675559e-01  8.836922e-01
   endloop
 endfacet
 facet normal  0.000000e+00  1.000000e+00  0.000000e+00
   outer loop
     vertex -1.924003e-01 -2.675559e-01  8.846922e-01
     vertex -1.958644e-01 -2.675559e-01  8.836922e-01
     vertex -1.944003e-01 -2.675559e-01  8.851563e-01
   endloop
 endfacet
 facet normal  1.319056e-11  1.000000e+00  5.684342e-11
   outer loop
     vertex -1.924003e-01 -2.675559e-01  8.846922e-01
     vertex -1.944003e-01 -2.675559e-01  8.851563e-01
     vertex -1.924003e-01 -2.675559e-01  8.856922e-01
   endloop
 endfacet
 facet normal  7.689539e-12  1.000000e+00 -2.663735e-11
   outer loop
     vertex -1.924003e-01 -2.675559e-01  8.846922e-01
     vertex -1.954003e-01 -2.675559e-01  8.816922e-01
     vertex -1.958644e-01 -2.675559e-01  8.836922e-01
   endloop
 endfacet
 facet normal  5.684342e-11  1.000000e+00  5.684342e-11
   outer loop
     vertex -1.894003e-01 -2.675559e-01  8.816922e-01
     vertex -1.924003e-01 -2.675559e-01  8.846922e-01
     vertex -1.924003e-01 -2.675559e-01  8.856922e-01
   endloop
 endfacet
 facet normal  0.000000e+00  1.000000e+00  1.894781e-11
   outer loop
     vertex -1.924003e-01 -2.675559e-01  8.786922e-01
     vertex -1.964003e-01 -2.675559e-01  8.816922e-01
     vertex -1.954003e-01 -2.675559e-01  8.816922e-01
   endloop
 endfacet
 facet normal -1.421085e-11  1.000000e+00  0.000000e+00
   outer loop
     vertex -1.924003e-01 -2.675559e-01  8.286922e-01
     vertex -1.964003e-01 -2.675559e-01  8.256922e-01
     vertex -1.964003e-01 -2.675559e-01  8.816922e-01
   endloop
 endfacet
 facet normal -1.421085e-11  1.000000e+00  0.000000e+00
   outer loop
     vertex -1.924003e-01 -2.675559e-01  8.286922e-01
     vertex -1.964003e-01 -2.675559e-01  8.816922e-01
     vertex -1.924003e-01 -2.675559e-01  8.786922e-01
   endloop
 endfacet
 facet normal  0.000000e+00  1.000000e+00 -1.894781e-11
   outer loop
     vertex -1.954003e-01 -2.675559e-01  8.256922e-01
     vertex -1.964003e-01 -2.675559e-01  8.256922e-01
     vertex -1.924003e-01 -2.675559e-01  8.286922e-01
   endloop
 endfacet
 facet normal  0.000000e+00  1.000000e+00  2.842171e-11
   outer loop
     vertex -1.958644e-01 -2.675559e-01  8.236922e-01
     vertex -1.964003e-01 -2.675559e-01  8.256922e-01
     vertex -1.954003e-01 -2.675559e-01  8.256922e-01
   endloop
 endfacet
 facet normal  0.000000e+00  1.000000e+00 -0.000000e+00
   outer loop
     vertex -1.894003e-01 -2.675559e-01  8.256922e-01
     vertex -1.924003e-01 -2.675559e-01  8.786922e-01
     vertex -1.894003e-01 -2.675559e-01  8.816922e-01
   endloop
 endfacet
 facet normal  0.000000e+00  1.000000e+00  0.000000e+00
   outer loop
     vertex -1.894003e-01 -2.675559e-01  8.256922e-01
     vertex -1.924003e-01 -2.675559e-01  8.286922e-01
     vertex -1.924003e-01 -2.675559e-01  8.786922e-01
   endloop
 endfacet
 facet normal  0.000000e+00  1.000000e+00  0.000000e+00
   outer loop
     vertex -1.924003e-01 -2.675559e-01  8.226922e-01
     vertex -1.944003e-01 -2.675559e-01  8.222281e-01
     vertex -1.958644e-01 -2.675559e-01  8.236922e-01
   endloop
 endfacet
 facet normal  7.689539e-12  1.000000e+00  2.663735e-11
   outer loop
     vertex -1.924003e-01 -2.675559e-01  8.226922e-01
     vertex -1.958644e-01 -2.675559e-01  8.236922e-01
     vertex -1.954003e-01 -2.675559e-01  8.256922e-01
   endloop
 endfacet
 facet normal  5.684342e-11  1.000000e+00 -5.684342e-11
   outer loop
     vertex -1.924003e-01 -2.675559e-01  8.216922e-01
     vertex -1.924003e-01 -2.675559e-01  8.226922e-01
     vertex -1.894003e-01 -2.675559e-01  8.256922e-01
   endloop
 endfacet
 facet normal  1.319056e-11  1.000000e+00 -5.684342e-11
   outer loop
     vertex -1.924003e-01 -2.675559e-01  8.216922e-01
     vertex -1.944003e-01 -2.675559e-01  8.222281e-01
     vertex -1.924003e-01 -2.675559e-01  8.226922e-01
   endloop
 endfacet
 facet normal  5.263280e-13  1.000000e+00  1.460560e-11
   outer loop
     vertex -8.140027e-02 -2.675559e-01  8.816922e-01
     vertex -1.894003e-01 -2.675559e-01  8.816922e-01
     vertex -1.924003e-01 -2.675559e-01  8.856922e-01
   endloop
 endfacet
 facet normal -6.590541e-13  1.000000e+00 -1.828875e-11
   outer loop
     vertex -7.840027e-02 -2.675559e-01  8.846922e-01
     vertex -8.140027e-02 -2.675559e-01  8.816922e-01
     vertex -1.924003e-01 -2.675559e-01  8.856922e-01
   endloop
 endfacet
 facet normal  5.263280e-13  1.000000e+00  0.000000e+00
   outer loop
     vertex -8.140027e-02 -2.675559e-01  8.256922e-01
     vertex -1.894003e-01 -2.675559e-01  8.256922e-01
     vertex -1.894003e-01 -2.675559e-01  8.816922e-01
   endloop
 endfacet
 facet normal  5.263280e-13  1.000000e+00 -1.460560e-11
   outer loop
     vertex -8.140027e-02 -2.675559e-01  8.256922e-01
     vertex -1.924003e-01 -2.675559e-01  8.216922e-01
     vertex -1.894003e-01 -2.675559e-01  8.256922e-01
   endloop
 endfacet
 facet normal  5.263280e-13  1.000000e+00 -0.000000e+00
   outer loop
     vertex -8.140027e-02 -2.675559e-01  8.256922e-01
     vertex -1.894003e-01 -2.675559e-01  8.816922e-01
     vertex -8.140027e-02 -2.675559e-01  8.816922e-01
   endloop
 endfacet
 facet normal -1.894781e-11  1.000000e+00  0.000000e+00
   outer loop
     vertex -7.840027e-02 -2.675559e-01  8.286922e-01
     vertex -8.140027e-02 -2.675559e-01  8.816922e-01
     vertex -7.840027e-02 -2.675559e-01  8.786922e-01
   endloop
 endfacet
 facet normal -1.894781e-11  1.000000e+00  0.000000e+00
   outer loop
     vertex -7.840027e-02 -2.675559e-01  8.286922e-01
     vertex -8.140027e-02 -2.675559e-01  8.256922e-01
     vertex -8.140027e-02 -2.675559e-01  8.816922e-01
   endloop
 endfacet
 facet normal  0.000000e+00  1.000000e+00 -0.000000e+00
   outer loop
     vertex -7.540027e-02 -2.675559e-01  8.256922e-01
     vertex -7.840027e-02 -2.675559e-01  8.786922e-01
     vertex -7.540027e-02 -2.675559e-01  8.816922e-01
   endloop
 endfacet
 facet normal  0.000000e+00  1.000000e+00  0.000000e+00
   outer loop
     vertex -7.540027e-02 -2.675559e-01  8.256922e-01
     vertex -7.840027e-02 -2.675559e-01  8.286922e-01
     vertex -7.840027e-02 -2.675559e-01  8.786922e-01
   endloop
 endfacet
 facet normal -6.590541e-13  1.000000e+00  1.828875e-11
   outer loop
     vertex -7.840027e-02 -2.675559e-01  8.226922e-01
     vertex -1.924003e-01 -2.675559e-01  8.216922e-01
     vertex -8.140027e-02 -2.675559e-01  8.256922e-01
   endloop
 endfacet
 facet normal  4.942906e-13  1.000000e+00  4.942906e-13
   outer loop
     vertex  3.559973e-02 -2.675559e-01  8.856922e-01
     vertex -7.540027e-02 -2.675559e-01  8.816922e-01
     vertex -7.840027e-02 -2.675559e-01  8.846922e-01
   endloop
 endfacet
 facet normal  5.263280e-13  1.000000e+00 -3.947460e-13
   outer loop
     vertex  3.259973e-02 -2.675559e-01  8.816922e-01
     vertex -7.540027e-02 -2.675559e-01  8.816922e-01
     vertex  3.559973e-02 -2.675559e-01  8.856922e-01
   endloop
 endfacet
 facet normal -7.579123e-11  1.000000e+00  5.684342e-11
   outer loop
     vertex  3.559973e-02 -2.675559e-01  8.846922e-01
     vertex  3.259973e-02 -2.675559e-01  8.816922e-01
     vertex  3.559973e-02 -2.675559e-01  8.856922e-01
   endloop
 endfacet
 facet normal -1.319056e-11  1.000000e+00  5.684342e-11
   outer loop
     vertex  3.759973e-02 -2.675559e-01  8.851563e-01
     vertex  3.559973e-02 -2.675559e-01  8.846922e-01
     vertex  3.559973e-02 -2.675559e-01  8.856922e-01
   endloop
 endfacet
 facet normal  0.000000e+00  1.000000e+00  0.000000e+00
   outer loop
     vertex  3.906383e-02 -2.675559e-01  8.836922e-01
     vertex  3.559973e-02 -2.675559e-01  8.846922e-01
     vertex  3.759973e-02 -2.675559e-01  8.851563e-01
   endloop
 endfacet
 facet normal  0.000000e+00  1.000000e+00 -0.000000e+00
   outer loop
     vertex  3.859973e-02 -2.675559e-01  8.816922e-01
     vertex  3.559973e-02 -2.675559e-01  8.846922e-01
     vertex  3.906383e-02 -2.675559e-01  8.836922e-01
   endloop
 endfacet
 facet normal  5.684342e-11  1.000000e+00 -1.319056e-11
   outer loop
     vertex  3.959973e-02 -2.675559e-01  8.816922e-01
     vertex  3.859973e-02 -2.675559e-01  8.816922e-01
     vertex  3.906383e-02 -2.675559e-01  8.836922e-01
   endloop
 endfacet
 facet normal  5.684342e-11  1.000000e+00 -5.684342e-11
   outer loop
     vertex  3.959973e-02 -2.675559e-01  8.816922e-01
     vertex  3.559973e-02 -2.675559e-01  8.786922e-01
     vertex  3.859973e-02 -2.675559e-01  8.816922e-01
   endloop
 endfacet
 facet normal  5.263280e-13  1.000000e+00  0.000000e+00
   outer loop
     vertex  3.259973e-02 -2.675559e-01  8.256922e-01
     vertex -7.540027e-02 -2.675559e-01  8.256922e-01
     vertex -7.540027e-02 -2.675559e-01  8.816922e-01
   endloop
 endfacet
 facet normal  5.263280e-13  1.000000e+00 -0.000000e+00
   outer loop
     vertex  3.259973e-02 -2.675559e-01  8.256922e-01
     vertex -7.540027e-02 -2.675559e-01  8.816922e-01
     vertex  3.259973e-02 -2.675559e-01  8.816922e-01
   endloop
 endfacet
 facet normal -1.894781e-11  1.000000e+00  0.000000e+00
   outer loop
     vertex  3.559973e-02 -2.675559e-01  8.286922e-01
     vertex  3.259973e-02 -2.675559e-01  8.256922e-01
     vertex  3.259973e-02 -2.675559e-01  8.816922e-01
   endloop
 endfacet
 facet normal -1.894781e-11  1.000000e+00  0.000000e+00
   outer loop
     vertex  3.559973e-02 -2.675559e-01  8.286922e-01
     vertex  3.259973e-02 -2.675559e-01  8.816922e-01
     vertex  3.559973e-02 -2.675559e-01  8.786922e-01
   endloop
 endfacet
 facet normal  1.421085e-11  1.000000e+00  0.000000e+00
   outer loop
     vertex  3.959973e-02 -2.675559e-01  8.256922e-01
     vertex  3.559973e-02 -2.675559e-01  8.286922e-01
     vertex  3.559973e-02 -2.675559e-01  8.786922e-01
   endloop
 endfacet
 facet normal  1.421085e-11  1.000000e+00 -0.000000e+00
   outer loop
     vertex  3.959973e-02 -2.675559e-01  8.256922e-01
     vertex  3.559973e-02 -2.675559e-01  8.786922e-01
     vertex  3.959973e-02 -2.675559e-01  8.816922e-01
   endloop
 endfacet
 facet normal  5.684342e-11  1.000000e+00  5.684342e-11
   outer loop
     vertex  3.959973e-02 -2.675559e-01  8.256922e-01
     vertex  3.859973e-02 -2.675559e-01  8.256922e-01
     vertex  3.559973e-02 -2.675559e-01  8.286922e-01
   endloop
 endfacet
 facet normal  4.942906e-13  1.000000e+00 -4.942906e-13
   outer loop
     vertex  3.559973e-02 -2.675559e-01  8.216922e-01
     vertex -7.840027e-02 -2.675559e-01  8.226922e-01
     vertex -7.540027e-02 -2.675559e-01  8.256922e-01
   endloop
 endfacet
 facet normal -7.579123e-11  1.000000e+00 -5.684342e-11
   outer loop
     vertex  3.559973e-02 -2.675559e-01  8.216922e-01
     vertex  3.259973e-02 -2.675559e-01  8.256922e-01
     vertex  3.559973e-02 -2.675559e-01  8.226922e-01
   endloop
 endfacet
 facet normal  5.263280e-13  1.000000e+00  3.947460e-13
   outer loop
     vertex  3.559973e-02 -2.675559e-01  8.216922e-01
     vertex -7.540027e-02 -2.675559e-01  8.256922e-01
     vertex  3.259973e-02 -2.675559e-01  8.256922e-01
   endloop
 endfacet
 facet normal -1.319056e-11  1.000000e+00 -5.684342e-11
   outer loop
     vertex  3.759973e-02 -2.675559e-01  8.222281e-01
     vertex  3.559973e-02 -2.675559e-01  8.216922e-01
     vertex  3.559973e-02 -2.675559e-01  8.226922e-01
   endloop
 endfacet
 facet normal  5.684342e-11  1.000000e+00  1.319056e-11
   outer loop
     vertex  3.906383e-02 -2.675559e-01  8.236922e-01
     vertex  3.859973e-02 -2.675559e-01  8.256922e-01
     vertex  3.959973e-02 -2.675559e-01  8.256922e-01
   endloop
 endfacet
 facet normal  0.000000e+00  1.000000e+00  0.000000e+00
   outer loop
     vertex  3.906383e-02 -2.675559e-01  8.236922e-01
     vertex  3.759973e-02 -2.675559e-01  8.222281e-01
     vertex  3.559973e-02 -2.675559e-01  8.226922e-01
   endloop
 endfacet
 facet normal  0.000000e+00  1.000000e+00  0.000000e+00
   outer loop
     vertex  3.906383e-02 -2.675559e-01  8.236922e-01
     vertex  3.559973e-02 -2.675559e-01  8.226922e-01
     vertex  3.859973e-02 -2.675559e-01  8.256922e-01
   endloop
 endfacet
 facet normal -0.000000e+00  1.000000e+00  5.684342e-11
   outer loop
     vertex -1.924003e-01 -2.675559e-01  8.856922e-01
     vertex  3.559973e-02 -2.675559e-01  8.856922e-01
     vertex -7.840027e-02 -2.675559e-01  8.846922e-01
   endloop
 endfacet
 facet normal  0.000000e+00  1.000000e+00 -5.684342e-11
   outer loop
     vertex  3.559973e-02 -2.675559e-01  8.216922e-01
     vertex -1.924003e-01 -2.675559e-01  8.216922e-01
     vertex -7.840027e-02 -2.675559e-01  8.226922e-01
   endloop
 endfacet
 facet normal  5.773503e-01  5.773503e-01 -5.773503e-01
   outer loop
     vertex -1.924003e-01 -2.675559e-01  8.286922e-01
     vertex -1.939003e-01 -2.690559e-01  8.256922e-01
     vertex -1.954003e-01 -2.675559e-01  8.256922e-01
   endloop
 endfacet
 facet normal  5.773503e-01  5.773503e-01 -5.773503e-01
   outer loop
     vertex -1.924003e-01 -2.675559e-01  8.286922e-01
     vertex -1.924003e-01 -2.690559e-01  8.271922e-01
     vertex -1.939003e-01 -2.690559e-01  8.256922e-01
   endloop
 endfacet
 facet normal -5.773503e-01  5.773503e-01 -5.773503e-01
   outer loop
     vertex -1.894003e-01 -2.675559e-01  8.256922e-01
     vertex -1.909003e-01 -2.690559e-01  8.256922e-01
     vertex -1.924003e-01 -2.690559e-01  8.271922e-01
   endloop
 endfacet
 facet normal -5.773503e-01  5.773503e-01 -5.773503e-01
   outer loop
     vertex -1.894003e-01 -2.675559e-01  8.256922e-01
     vertex -1.924003e-01 -2.690559e-01  8.271922e-01
     vertex -1.924003e-01 -2.675559e-01  8.286922e-01
   endloop
 endfacet
 facet normal -5.773503e-01  5.773503e-01  5.773503e-01
   outer loop
     vertex -1.924003e-01 -2.675559e-01  8.226922e-01
     vertex -1.924003e-01 -2.690559e-01  8.241922e-01
     vertex -1.909003e-01 -2.690559e-01  8.256922e-01
   endloop
 endfacet
 facet normal -5.773503e-01  5.773503e-01  5.773503e-01
   outer loop
     vertex -1.924003e-01 -2.675559e-01  8.226922e-01
     vertex -1.909003e-01 -2.690559e-01  8.256922e-01
     vertex -1.894003e-01 -2.675559e-01  8.256922e-01
   endloop
 endfacet
 facet normal  5.773503e-01  5.773503e-01  5.773503e-01
   outer loop
     vertex -1.954003e-01 -2.675559e-01  8.256922e-01
     vertex -1.939003e-01 -2.690559e-01  8.256922e-01
     vertex -1.924003e-01 -2.690559e-01  8.241922e-01
   endloop
 endfacet
 facet normal  5.773503e-01  5.773503e-01  5.773503e-01
   outer loop
     vertex -1.954003e-01 -2.675559e-01  8.256922e-01
     vertex -1.924003e-01 -2.690559e-01  8.241922e-01
     vertex -1.924003e-01 -2.675559e-01  8.226922e-01
   endloop
 endfacet
 facet normal  7.071068e-01  0.000000e+00 -7.071068e-01
   outer loop
     vertex -1.924003e-01 -2.690559e-01  8.271922e-01
     vertex -1.939003e-01 -2.695559e-01  8.256922e-01
     vertex -1.939003e-01 -2.690559e-01  8.256922e-01
   endloop
 endfacet
 facet normal  7.071068e-01  0.000000e+00 -7.071068e-01
   outer loop
     vertex -1.924003e-01 -2.690559e-01  8.271922e-01
     vertex -1.924003e-01 -2.695559e-01  8.271922e-01
     vertex -1.939003e-01 -2.695559e-01  8.256922e-01
   endloop
 endfacet
 facet normal -7.071068e-01 -0.000000e+00 -7.071068e-01
   outer loop
     vertex -1.909003e-01 -2.690559e-01  8.256922e-01
     vertex -1.909003e-01 -2.695559e-01  8.256922e-01
     vertex -1.924003e-01 -2.695559e-01  8.271922e-01
   endloop
 endfacet
 facet normal -7.071068e-01  0.000000e+00 -7.071068e-01
   outer loop
     vertex -1.909003e-01 -2.690559e-01  8.256922e-01
     vertex -1.924003e-01 -2.695559e-01  8.271922e-01
     vertex -1.924003e-01 -2.690559e-01  8.271922e-01
   endloop
 endfacet
 facet normal -7.071068e-01  0.000000e+00  7.071068e-01
   outer loop
     vertex -1.924003e-01 -2.690559e-01  8.241922e-01
     vertex -1.924003e-01 -2.695559e-01  8.241922e-01
     vertex -1.909003e-01 -2.695559e-01  8.256922e-01
   endloop
 endfacet
 facet normal -7.071068e-01  0.000000e+00  7.071068e-01
   outer loop
     vertex -1.924003e-01 -2.690559e-01  8.241922e-01
     vertex -1.909003e-01 -2.695559e-01  8.256922e-01
     vertex -1.909003e-01 -2.690559e-01  8.256922e-01
   endloop
 endfacet
 facet normal  7.071068e-01  0.000000e+00  7.071068e-01
   outer loop
     vertex -1.939003e-01 -2.690559e-01  8.256922e-01
     vertex -1.939003e-01 -2.695559e-01  8.256922e-01
     vertex -1.924003e-01 -2.695559e-01  8.241922e-01
   endloop
 endfacet
 facet normal  7.071068e-01  0.000000e+00  7.071068e-01
   outer loop
     vertex -1.939003e-01 -2.690559e-01  8.256922e-01
     vertex -1.924003e-01 -2.695559e-01  8.241922e-01
     vertex -1.924003e-01 -2.690559e-01  8.241922e-01
   endloop
 endfacet
 facet normal  5.773503e-01  5.773503e-01 -5.773503e-01
   outer loop
     vertex -7.840027e-02 -2.675559e-01  8.286922e-01
     vertex -7.990027e-02 -2.690559e-01  8.256922e-01
     vertex -8.140027e-02 -2.675559e-01  8.256922e-01
   endloop
 endfacet
 facet normal  5.773503e-01  5.773503e-01 -5.773503e-01
   outer loop
     vertex -7.840027e-02 -2.675559e-01  8.286922e-01
     vertex -7.840027e-02 -2.690559e-01  8.271922e-01
     vertex -7.990027e-02 -2.690559e-01  8.256922e-01
   endloop
 endfacet
 facet normal -5.773503e-01  5.773503e-01 -5.773503e-01
   outer loop
     vertex -7.540027e-02 -2.675559e-01  8.256922e-01
     vertex -7.690027e-02 -2.690559e-01  8.256922e-01
     vertex -7.840027e-02 -2.690559e-01  8.271922e-01
   endloop
 endfacet
 facet normal -5.773503e-01  5.773503e-01 -5.773503e-01
   outer loop
     vertex -7.540027e-02 -2.675559e-01  8.256922e-01
     vertex -7.840027e-02 -2.690559e-01  8.271922e-01
     vertex -7.840027e-02 -2.675559e-01  8.286922e-01
   endloop
 endfacet
 facet normal -5.773503e-01  5.773503e-01  5.773503e-01
   outer loop
     vertex -7.840027e-02 -2.675559e-01  8.226922e-01
     vertex -7.840027e-02 -2.690559e-01  8.241922e-01
     vertex -7.690027e-02 -2.690559e-01  8.256922e-01
   endloop
 endfacet
 facet normal -5.773503e-01  5.773503e-01  5.773503e-01
   outer loop
     vertex -7.840027e-02 -2.675559e-01  8.226922e-01
     vertex -7.690027e-02 -2.690559e-01  8.256922e-01
     vertex -7.540027e-02 -2.675559e-01  8.256922e-01
   endloop
 endfacet
 facet normal  5.773503e-01  5.773503e-01  5.773503e-01
   outer loop
     vertex -8.140027e-02 -2.675559e-01  8.256922e-01
     vertex -7.990027e-02 -2.690559e-01  8.256922e-01
     vertex -7.840027e-02 -2.690559e-01  8.241922e-01
   endloop
 endfacet
 facet normal  5.773503e-01  5.773503e-01  5.773503e-01
   outer loop
     vertex -8.140027e-02 -2.675559e-01  8.256922e-01
     vertex -7.840027e-02 -2.690559e-01  8.241922e-01
     vertex -7.840027e-02 -2.675559e-01  8.226922e-01
   endloop
 endfacet
 facet normal  7.071068e-01  0.000000e+00 -7.071068e-01
   outer loop
     vertex -7.840027e-02 -2.690559e-01  8.271922e-01
     vertex -7.990027e-02 -2.695559e-01  8.256922e-01
     vertex -7.990027e-02 -2.690559e-01  8.256922e-01
   endloop
 endfacet
 facet normal  7.071068e-01  0.000000e+00 -7.071068e-01
   outer loop
     vertex -7.840027e-02 -2.690559e-01  8.271922e-01
     vertex -7.840027e-02 -2.695559e-01  8.271922e-01
     vertex -7.990027e-02 -2.695559e-01  8.256922e-01
   endloop
 endfacet
 facet normal -7.071068e-01 -0.000000e+00 -7.071068e-01
   outer loop
     vertex -7.690027e-02 -2.690559e-01  8.256922e-01
     vertex -7.690027e-02 -2.695559e-01  8.256922e-01
     vertex -7.840027e-02 -2.695559e-01  8.271922e-01
   endloop
 endfacet
 facet normal -7.071068e-01  0.000000e+00 -7.071068e-01
   outer loop
     vertex -7.690027e-02 -2.690559e-01  8.256922e-01
     vertex -7.840027e-02 -2.695559e-01  8.271922e-01
     vertex -7.840027e-02 -2.690559e-01  8.271922e-01
   endloop
 endfacet
 facet normal -7.071068e-01  0.000000e+00  7.071068e-01
   outer loop
     vertex -7.840027e-02 -2.690559e-01  8.241922e-01
     vertex -7.840027e-02 -2.695559e-01  8.241922e-01
     vertex -7.690027e-02 -2.695559e-01  8.256922e-01
   endloop
 endfacet
 facet normal -7.071068e-01  0.000000e+00  7.071068e-01
   outer loop
     vertex -7.840027e-02 -2.690559e-01  8.241922e-01
     vertex -7.690027e-02 -2.695559e-01  8.256922e-01
     vertex -7.690027e-02 -2.690559e-01  8.256922e-01
   endloop
 endfacet
 facet normal  7.071068e-01  0.000000e+00  7.071068e-01
   outer loop
     vertex -7.990027e-02 -2.690559e-01  8.256922e-01
     vertex -7.990027e-02 -2.695559e-01  8.256922e-01
     vertex -7.840027e-02 -2.695559e-01  8.241922e-01
   endloop
 endfacet
 facet normal  7.071068e-01  0.000000e+00  7.071068e-01
   outer loop
     vertex -7.990027e-02 -2.690559e-01  8.256922e-01
     vertex -7.840027e-02 -2.695559e-01  8.241922e-01
     vertex -7.840027e-02 -2.690559e-01  8.241922e-01
   endloop
 endfacet
 facet normal  5.773503e-01  5.773503e-01 -5.773503e-01
   outer loop
     vertex  3.559973e-02 -2.675559e-01  8.286922e-01
     vertex  3.409973e-02 -2.690559e-01  8.256922e-01
     vertex  3.259973e-02 -2.675559e-01  8.256922e-01
   endloop
 endfacet
 facet normal  5.773503e-01  5.773503e-01 -5.773503e-01
   outer loop
     vertex  3.559973e-02 -2.675559e-01  8.286922e-01
     vertex  3.559973e-02 -2.690559e-01  8.271922e-01
     vertex  3.409973e-02 -2.690559e-01  8.256922e-01
   endloop
 endfacet
 facet normal -5.773503e-01  5.773503e-01 -5.773503e-01
   outer loop
     vertex  3.859973e-02 -2.675559e-01  8.256922e-01
     vertex  3.709973e-02 -2.690559e-01  8.256922e-01
     vertex  3.559973e-02 -2.690559e-01  8.271922e-01
   endloop
 endfacet
 facet normal -5.773503e-01  5.773503e-01 -5.773503e-01
   outer loop
     vertex  3.859973e-02 -2.675559e-01  8.256922e-01
     vertex  3.559973e-02 -2.690559e-01  8.271922e-01
     vertex  3.559973e-02 -2.675559e-01  8.286922e-01
   endloop
 endfacet
 facet normal -5.773503e-01  5.773503e-01  5.773503e-01
   outer loop
     vertex  3.559973e-02 -2.675559e-01  8.226922e-01
     vertex  3.559973e-02 -2.690559e-01  8.241922e-01
     vertex  3.709973e-02 -2.690559e-01  8.256922e-01
   endloop
 endfacet
 facet normal -5.773503e-01  5.773503e-01  5.773503e-01
   outer loop
     vertex  3.559973e-02 -2.675559e-01  8.226922e-01
     vertex  3.709973e-02 -2.690559e-01  8.256922e-01
     vertex  3.859973e-02 -2.675559e-01  8.256922e-01
   endloop
 endfacet
 facet normal  5.773503e-01  5.773503e-01  5.773503e-01
   outer loop
     vertex  3.259973e-02 -2.675559e-01  8.256922e-01
     vertex  3.409973e-02 -2.690559e-01  8.256922e-01
     vertex  3.559973e-02 -2.690559e-01  8.241922e-01
   endloop
 endfacet
 facet normal  5.773503e-01  5.773503e-01  5.773503e-01
   outer loop
     vertex  3.259973e-02 -2.675559e-01  8.256922e-01
     vertex  3.559973e-02 -2.690559e-01  8.241922e-01
     vertex  3.559973e-02 -2.675559e-01  8.226922e-01
   endloop
 endfacet
 facet normal  7.071068e-01  0.000000e+00 -7.071068e-01
   outer loop
     vertex  3.559973e-02 -2.690559e-01  8.271922e-01
     vertex  3.409973e-02 -2.695559e-01  8.256922e-01
     vertex  3.409973e-02 -2.690559e-01  8.256922e-01
   endloop
 endfacet
 facet normal  7.071068e-01  0.000000e+00 -7.071068e-01
   outer loop
     vertex  3.559973e-02 -2.690559e-01  8.271922e-01
     vertex  3.559973e-02 -2.695559e-01  8.271922e-01
     vertex  3.409973e-02 -2.695559e-01  8.256922e-01
   endloop
 endfacet
 facet normal -7.071068e-01 -0.000000e+00 -7.071068e-01
   outer loop
     vertex  3.709973e-02 -2.690559e-01  8.256922e-01
     vertex  3.709973e-02 -2.695559e-01  8.256922e-01
     vertex  3.559973e-02 -2.695559e-01  8.271922e-01
   endloop
 endfacet
 facet normal -7.071068e-01  0.000000e+00 -7.071068e-01
   outer loop
     vertex  3.709973e-02 -2.690559e-01  8.256922e-01
     vertex  3.559973e-02 -2.695559e-01  8.271922e-01
     vertex  3.559973e-02 -2.690559e-01  8.271922e-01
   endloop
 endfacet
 facet normal -7.071068e-01  0.000000e+00  7.071068e-01
   outer loop
     vertex  3.559973e-02 -2.690559e-01  8.241922e-01
     vertex  3.559973e-02 -2.695559e-01  8.241922e-01
     vertex  3.709973e-02 -2.695559e-01  8.256922e-01
   endloop
 endfacet
 facet normal -7.071068e-01  0.000000e+00  7.071068e-01
   outer loop
     vertex  3.559973e-02 -2.690559e-01  8.241922e-01
     vertex  3.709973e-02 -2.695559e-01  8.256922e-01
     vertex  3.709973e-02 -2.690559e-01  8.256922e-01
   endloop
 endfacet
 facet normal  7.071068e-01  0.000000e+00  7.071068e-01
   outer loop
     vertex  3.409973e-02 -2.690559e-01  8.256922e-01
     vertex  3.409973e-02 -2.695559e-01  8.256922e-01
     vertex  3.559973e-02 -2.695559e-01  8.241922e-01
   endloop
 endfacet
 facet normal  7.071068e-01  0.000000e+00  7.071068e-01
   outer loop
     vertex  3.409973e-02 -2.690559e-01  8.256922e-01
     vertex  3.559973e-02 -2.695559e-01  8.241922e-01
     vertex  3.559973e-02 -2.690559e-01  8.241922e-01
   endloop
 endfacet
 facet normal  5.773503e-01  5.773503e-01 -5.773503e-01
   outer loop
     vertex  3.559973e-02 -2.675559e-01  8.846922e-01
     vertex  3.409973e-02 -2.690559e-01  8.816922e-01
     vertex  3.259973e-02 -2.675559e-01  8.816922e-01
   endloop
 endfacet
 facet normal  5.773503e-01  5.773503e-01 -5.773503e-01
   outer loop
     vertex  3.559973e-02 -2.675559e-01  8.846922e-01
     vertex  3.559973e-02 -2.690559e-01  8.831922e-01
     vertex  3.409973e-02 -2.690559e-01  8.816922e-01
   endloop
 endfacet
 facet normal -5.773503e-01  5.773503e-01 -5.773503e-01
   outer loop
     vertex  3.859973e-02 -2.675559e-01  8.816922e-01
     vertex  3.709973e-02 -2.690559e-01  8.816922e-01
     vertex  3.559973e-02 -2.690559e-01  8.831922e-01
   endloop
 endfacet
 facet normal -5.773503e-01  5.773503e-01 -5.773503e-01
   outer loop
     vertex  3.859973e-02 -2.675559e-01  8.816922e-01
     vertex  3.559973e-02 -2.690559e-01  8.831922e-01
     vertex  3.559973e-02 -2.675559e-01  8.846922e-01
   endloop
 endfacet
 facet normal -5.773503e-01  5.773503e-01  5.773503e-01
   outer loop
     vertex  3.559973e-02 -2.675559e-01  8.786922e-01
     vertex  3.559973e-02 -2.690559e-01  8.801922e-01
     vertex  3.709973e-02 -2.690559e-01  8.816922e-01
   endloop
 endfacet
 facet normal -5.773503e-01  5.773503e-01  5.773503e-01
   outer loop
     vertex  3.559973e-02 -2.675559e-01  8.786922e-01
     vertex  3.709973e-02 -2.690559e-01  8.816922e-01
     vertex  3.859973e-02 -2.675559e-01  8.816922e-01
   endloop
 endfacet
 facet normal  5.773503e-01  5.773503e-01  5.773503e-01
   outer loop
     vertex  3.259973e-02 -2.675559e-01  8.816922e-01
     vertex  3.409973e-02 -2.690559e-01  8.816922e-01
     vertex  3.559973e-02 -2.690559e-01  8.801922e-01
   endloop
 endfacet
 facet normal  5.773503e-01  5.773503e-01  5.773503e-01
   outer loop
     vertex  3.259973e-02 -2.675559e-01  8.816922e-01
     vertex  3.559973e-02 -2.690559e-01  8.801922e-01
     vertex  3.559973e-02 -2.675559e-01  8.786922e-01
   endloop
 endfacet
 facet normal  7.071068e-01  0.000000e+00 -7.071068e-01
   outer loop
     vertex  3.559973e-02 -2.690559e-01  8.831922e-01
     vertex  3.409973e-02 -2.695559e-01  8.816922e-01
     vertex  3.409973e-02 -2.690559e-01  8.816922e-01
   endloop
 endfacet
 facet normal  7.071068e-01  0.000000e+00 -7.071068e-01
   outer loop
     vertex  3.559973e-02 -2.690559e-01  8.831922e-01
     vertex  3.559973e-02 -2.695559e-01  8.831922e-01
     vertex  3.409973e-02 -2.695559e-01  8.816922e-01
   endloop
 endfacet
 facet normal -7.071068e-01 -0.000000e+00 -7.071068e-01
   outer loop
     vertex  3.709973e-02 -2.690559e-01  8.816922e-01
     vertex  3.709973e-02 -2.695559e-01  8.816922e-01
     vertex  3.559973e-02 -2.695559e-01  8.831922e-01
   endloop
 endfacet
 facet normal -7.071068e-01  0.000000e+00 -7.071068e-01
   outer loop
     vertex  3.709973e-02 -2.690559e-01  8.816922e-01
     vertex  3.559973e-02 -2.695559e-01  8.831922e-01
     vertex  3.559973e-02 -2.690559e-01  8.831922e-01
   endloop
 endfacet
 facet normal -7.071068e-01  0.000000e+00  7.071068e-01
   outer loop
     vertex  3.559973e-02 -2.690559e-01  8.801922e-01
     vertex  3.559973e-02 -2.695559e-01  8.801922e-01
     vertex  3.709973e-02 -2.695559e-01  8.816922e-01
   endloop
 endfacet
 facet normal -7.071068e-01  0.000000e+00  7.071068e-01
   outer loop
     vertex  3.559973e-02 -2.690559e-01  8.801922e-01
     vertex  3.709973e-02 -2.695559e-01  8.816922e-01
     vertex  3.709973e-02 -2.690559e-01  8.816922e-01
   endloop
 endfacet
 facet normal  7.071068e-01  0.000000e+00  7.071068e-01
   outer loop
     vertex  3.409973e-02 -2.690559e-01  8.816922e-01
     vertex  3.409973e-02 -2.695559e-01  8.816922e-01
     vertex  3.559973e-02 -2.695559e-01  8.801922e-01
   endloop
 endfacet
 facet normal  7.071068e-01  0.000000e+00  7.071068e-01
   outer loop
     vertex  3.409973e-02 -2.690559e-01  8.816922e-01
     vertex  3.559973e-02 -2.695559e-01  8.801922e-01
     vertex  3.559973e-02 -2.690559e-01  8.801922e-01
   endloop
 endfacet
 facet normal  5.773503e-01  5.773503e-01 -5.773503e-01
   outer loop
     vertex -7.840027e-02 -2.675559e-01  8.846922e-01
     vertex -7.990027e-02 -2.690559e-01  8.816922e-01
     vertex -8.140027e-02 -2.675559e-01  8.816922e-01
   endloop
 endfacet
 facet normal  5.773503e-01  5.773503e-01 -5.773503e-01
   outer loop
     vertex -7.840027e-02 -2.675559e-01  8.846922e-01
     vertex -7.840027e-02 -2.690559e-01  8.831922e-01
     vertex -7.990027e-02 -2.690559e-01  8.816922e-01
   endloop
 endfacet
 facet normal -5.773503e-01  5.773503e-01 -5.773503e-01
   outer loop
     vertex -7.540027e-02 -2.675559e-01  8.816922e-01
     vertex -7.690027e-02 -2.690559e-01  8.816922e-01
     vertex -7.840027e-02 -2.690559e-01  8.831922e-01
   endloop
 endfacet
 facet normal -5.773503e-01  5.773503e-01 -5.773503e-01
   outer loop
     vertex -7.540027e-02 -2.675559e-01  8.816922e-01
     vertex -7.840027e-02 -2.690559e-01  8.831922e-01
     vertex -7.840027e-02 -2.675559e-01  8.846922e-01
   endloop
 endfacet
 facet normal -5.773503e-01  5.773503e-01  5.773503e-01
   outer loop
     vertex -7.840027e-02 -2.675559e-01  8.786922e-01
     vertex -7.840027e-02 -2.690559e-01  8.801922e-01
     vertex -7.690027e-02 -2.690559e-01  8.816922e-01
   endloop
 endfacet
 facet normal -5.773503e-01  5.773503e-01  5.773503e-01
   outer loop
     vertex -7.840027e-02 -2.675559e-01  8.786922e-01
     vertex -7.690027e-02 -2.690559e-01  8.816922e-01
     vertex -7.540027e-02 -2.675559e-01  8.816922e-01
   endloop
 endfacet
 facet normal  5.773503e-01  5.773503e-01  5.773503e-01
   outer loop
     vertex -8.140027e-02 -2.675559e-01  8.816922e-01
     vertex -7.990027e-02 -2.690559e-01  8.816922e-01
     vertex -7.840027e-02 -2.690559e-01  8.801922e-01
   endloop
 endfacet
 facet normal  5.773503e-01  5.773503e-01  5.773503e-01
   outer loop
     vertex -8.140027e-02 -2.675559e-01  8.816922e-01
     vertex -7.840027e-02 -2.690559e-01  8.801922e-01
     vertex -7.840027e-02 -2.675559e-01  8.786922e-01
   endloop
 endfacet
 facet normal  7.071068e-01  0.000000e+00 -7.071068e-01
   outer loop
     vertex -7.840027e-02 -2.690559e-01  8.831922e-01
     vertex -7.990027e-02 -2.695559e-01  8.816922e-01
     vertex -7.990027e-02 -2.690559e-01  8.816922e-01
   endloop
 endfacet
 facet normal  7.071068e-01  0.000000e+00 -7.071068e-01
   outer loop
     vertex -7.840027e-02 -2.690559e-01  8.831922e-01
     vertex -7.840027e-02 -2.695559e-01  8.831922e-01
     vertex -7.990027e-02 -2.695559e-01  8.816922e-01
   endloop
 endfacet
 facet normal -7.071068e-01 -0.000000e+00 -7.071068e-01
   outer loop
     vertex -7.690027e-02 -2.690559e-01  8.816922e-01
     vertex -7.690027e-02 -2.695559e-01  8.816922e-01
     vertex -7.840027e-02 -2.695559e-01  8.831922e-01
   endloop
 endfacet
 facet normal -7.071068e-01  0.000000e+00 -7.071068e-01
   outer loop
     vertex -7.690027e-02 -2.690559e-01  8.816922e-01
     vertex -7.840027e-02 -2.695559e-01  8.831922e-01
     vertex -7.840027e-02 -2.690559e-01  8.831922e-01
   endloop
 endfacet
 facet normal -7.071068e-01  0.000000e+00  7.071068e-01
   outer loop
     vertex -7.840027e-02 -2.690559e-01  8.801922e-01
     vertex -7.840027e-02 -2.695559e-01  8.801922e-01
     vertex -7.690027e-02 -2.695559e-01  8.816922e-01
   endloop
 endfacet
 facet normal -7.071068e-01  0.000000e+00  7.071068e-01
   outer loop
     vertex -7.840027e-02 -2.690559e-01  8.801922e-01
     vertex -7.690027e-02 -2.695559e-01  8.816922e-01
     vertex -7.690027e-02 -2.690559e-01  8.816922e-01
   endloop
 endfacet
 facet normal  7.071068e-01  0.000000e+00  7.071068e-01
   outer loop
     vertex -7.990027e-02 -2.690559e-01  8.816922e-01
     vertex -7.990027e-02 -2.695559e-01  8.816922e-01
     vertex -7.840027e-02 -2.695559e-01  8.801922e-01
   endloop
 endfacet
 facet normal  7.071068e-01  0.000000e+00  7.071068e-01
   outer loop
     vertex -7.990027e-02 -2.690559e-01  8.816922e-01
     vertex -7.840027e-02 -2.695559e-01  8.801922e-01
     vertex -7.840027e-02 -2.690559e-01  8.801922e-01
   endloop
 endfacet
 facet normal  5.773503e-01  5.773503e-01 -5.773503e-01
   outer loop
     vertex -1.924003e-01 -2.675559e-01  8.846922e-01
     vertex -1.939003e-01 -2.690559e-01  8.816922e-01
     vertex -1.954003e-01 -2.675559e-01  8.816922e-01
   endloop
 endfacet
 facet normal  5.773503e-01  5.773503e-01 -5.773503e-01
   outer loop
     vertex -1.924003e-01 -2.675559e-01  8.846922e-01
     vertex -1.924003e-01 -2.690559e-01  8.831922e-01
     vertex -1.939003e-01 -2.690559e-01  8.816922e-01
   endloop
 endfacet
 facet normal -5.773503e-01  5.773503e-01 -5.773503e-01
   outer loop
     vertex -1.894003e-01 -2.675559e-01  8.816922e-01
     vertex -1.909003e-01 -2.690559e-01  8.816922e-01
     vertex -1.924003e-01 -2.690559e-01  8.831922e-01
   endloop
 endfacet
 facet normal -5.773503e-01  5.773503e-01 -5.773503e-01
   outer loop
     vertex -1.894003e-01 -2.675559e-01  8.816922e-01
     vertex -1.924003e-01 -2.690559e-01  8.831922e-01
     vertex -1.924003e-01 -2.675559e-01  8.846922e-01
   endloop
 endfacet
 facet normal -5.773503e-01  5.773503e-01  5.773503e-01
   outer loop
     vertex -1.924003e-01 -2.675559e-01  8.786922e-01
     vertex -1.924003e-01 -2.690559e-01  8.801922e-01
     vertex -1.909003e-01 -2.690559e-01  8.816922e-01
   endloop
 endfacet
 facet normal -5.773503e-01  5.773503e-01  5.773503e-01
   outer loop
     vertex -1.924003e-01 -2.675559e-01  8.786922e-01
     vertex -1.909003e-01 -2.690559e-01  8.816922e-01
     vertex -1.894003e-01 -2.675559e-01  8.816922e-01
   endloop
 endfacet
 facet normal  5.773503e-01  5.773503e-01  5.773503e-01
   outer loop
     vertex -1.954003e-01 -2.675559e-01  8.816922e-01
     vertex -1.939003e-01 -2.690559e-01  8.816922e-01
     vertex -1.924003e-01 -2.690559e-01  8.801922e-01
   endloop
 endfacet
 facet normal  5.773503e-01  5.773503e-01  5.773503e-01
   outer loop
     vertex -1.954003e-01 -2.675559e-01  8.816922e-01
     vertex -1.924003e-01 -2.690559e-01  8.801922e-01
     vertex -1.924003e-01 -2.675559e-01  8.786922e-01
   endloop
 endfacet
 facet normal  7.071068e-01  0.000000e+00 -7.071068e-01
   outer loop
     vertex -1.924003e-01 -2.690559e-01  8.831922e-01
     vertex -1.939003e-01 -2.695559e-01  8.816922e-01
     vertex -1.939003e-01 -2.690559e-01  8.816922e-01
   endloop
 endfacet
 facet normal  7.071068e-01  0.000000e+00 -7.071068e-01
   outer loop
     vertex -1.924003e-01 -2.690559e-01  8.831922e-01
     vertex -1.924003e-01 -2.695559e-01  8.831922e-01
     vertex -1.939003e-01 -2.695559e-01  8.816922e-01
   endloop
 endfacet
 facet normal -7.071068e-01 -0.000000e+00 -7.071068e-01
   outer loop
     vertex -1.909003e-01 -2.690559e-01  8.816922e-01
     vertex -1.909003e-01 -2.695559e-01  8.816922e-01
     vertex -1.924003e-01 -2.695559e-01  8.831922e-01
   endloop
 endfacet
 facet normal -7.071068e-01  0.000000e+00 -7.071068e-01
   outer loop
     vertex -1.909003e-01 -2.690559e-01  8.816922e-01
     vertex -1.924003e-01 -2.695559e-01  8.831922e-01
     vertex -1.924003e-01 -2.690559e-01  8.831922e-01
   endloop
 endfacet
 facet normal -7.071068e-01  0.000000e+00  7.071068e-01
   outer loop
     vertex -1.924003e-01 -2.690559e-01  8.801922e-01
     vertex -1.924003e-01 -2.695559e-01  8.801922e-01
     vertex -1.909003e-01 -2.695559e-01  8.816922e-01
   endloop
 endfacet
 facet normal -7.071068e-01  0.000000e+00  7.071068e-01
   outer loop
     vertex -1.924003e-01 -2.690559e-01  8.801922e-01
     vertex -1.909003e-01 -2.695559e-01  8.816922e-01
     vertex -1.909003e-01 -2.690559e-01  8.816922e-01
   endloop
 endfacet
 facet normal  7.071068e-01  0.000000e+00  7.071068e-01
   outer loop
     vertex -1.939003e-01 -2.690559e-01  8.816922e-01
     vertex -1.939003e-01 -2.695559e-01  8.816922e-01
     vertex -1.924003e-01 -2.695559e-01  8.801922e-01
   endloop
 endfacet
 facet normal  7.071068e-01  0.000000e+00  7.071068e-01
   outer loop
     vertex -1.939003e-01 -2.690559e-01  8.816922e-01
     vertex -1.924003e-01 -2.695559e-01  8.801922e-01
     vertex -1.924003e-01 -2.690559e-01  8.801922e-01
   endloop
 endfacet
endsolid
