solid 
 facet normal  0.000000e+00  0.000000e+00  1.000000e+00
   outer loop
     vertex -2.169003e-01  2.254441e-01  8.406922e-01
     vertex -2.219003e-01  2.204441e-01  8.406922e-01
     vertex -2.109003e-01  2.174441e-01  8.406922e-01
   endloop
 endfacet
 facet normal  0.000000e+00  0.000000e+00  1.000000e+00
   outer loop
     vertex -2.329003e-01  2.174441e-01  8.406922e-01
     vertex -2.109003e-01  2.174441e-01  8.406922e-01
     vertex -2.219003e-01  2.204441e-01  8.406922e-01
   endloop
 endfacet
 facet normal  0.000000e+00  0.000000e+00  1.000000e+00
   outer loop
     vertex -2.269003e-01  2.254441e-01  8.406922e-01
     vertex -2.329003e-01  2.174441e-01  8.406922e-01
     vertex -2.219003e-01  2.204441e-01  8.406922e-01
   endloop
 endfacet
 facet normal  0.000000e+00  0.000000e+00  1.000000e+00
   outer loop
     vertex -2.164003e-01  2.397941e-01  8.406922e-01
     vertex -2.219003e-01  2.304441e-01  8.406922e-01
     vertex -2.169003e-01  2.254441e-01  8.406922e-01
   endloop
 endfacet
 facet normal  0.000000e+00  0.000000e+00  1.000000e+00
   outer loop
     vertex -2.137503e-01  2.424441e-01  8.406922e-01
     vertex -2.164003e-01  2.397941e-01  8.406922e-01
     vertex -2.169003e-01  2.254441e-01  8.406922e-01
   endloop
 endfacet
 facet normal  0.000000e+00  0.000000e+00  1.000000e+00
   outer loop
     vertex -2.137503e-01  2.424441e-01  8.406922e-01
     vertex -2.169003e-01  2.254441e-01  8.406922e-01
     vertex -2.109003e-01  2.174441e-01  8.406922e-01
   endloop
 endfacet
 facet normal  0.000000e+00  0.000000e+00  1.000000e+00
   outer loop
     vertex -2.264003e-01  2.397941e-01  8.406922e-01
     vertex -2.269003e-01  2.254441e-01  8.406922e-01
     vertex -2.219003e-01  2.304441e-01  8.406922e-01
   endloop
 endfacet
 facet normal -0.000000e+00  0.000000e+00  1.000000e+00
   outer loop
     vertex -2.264003e-01  2.397941e-01  8.406922e-01
     vertex -2.219003e-01  2.304441e-01  8.406922e-01
     vertex -2.164003e-01  2.397941e-01  8.406922e-01
   endloop
 endfacet
 facet normal -0.000000e+00  0.000000e+00  1.000000e+00
   outer loop
     vertex -2.237503e-01  2.424441e-01  8.406922e-01
     vertex -2.164003e-01  2.397941e-01  8.406922e-01
     vertex -2.190503e-01  2.424441e-01  8.406922e-01
   endloop
 endfacet
 facet normal  0.000000e+00  0.000000e+00  1.000000e+00
   outer loop
     vertex -2.237503e-01  2.424441e-01  8.406922e-01
     vertex -2.264003e-01  2.397941e-01  8.406922e-01
     vertex -2.164003e-01  2.397941e-01  8.406922e-01
   endloop
 endfacet
 facet normal  0.000000e+00  0.000000e+00  1.000000e+00
   outer loop
     vertex -2.290503e-01  2.424441e-01  8.406922e-01
     vertex -2.269003e-01  2.254441e-01  8.406922e-01
     vertex -2.264003e-01  2.397941e-01  8.406922e-01
   endloop
 endfacet
 facet normal  0.000000e+00  0.000000e+00  1.000000e+00
   outer loop
     vertex -2.290503e-01  2.424441e-01  8.406922e-01
     vertex -2.329003e-01  2.174441e-01  8.406922e-01
     vertex -2.269003e-01  2.254441e-01  8.406922e-01
   endloop
 endfacet
 facet normal -0.000000e+00  0.000000e+00  1.000000e+00
   outer loop
     vertex -2.264003e-01  2.450941e-01  8.406922e-01
     vertex -2.190503e-01  2.424441e-01  8.406922e-01
     vertex -2.164003e-01  2.450941e-01  8.406922e-01
   endloop
 endfacet
 facet normal  0.000000e+00  0.000000e+00  1.000000e+00
   outer loop
     vertex -2.264003e-01  2.450941e-01  8.406922e-01
     vertex -2.237503e-01  2.424441e-01  8.406922e-01
     vertex -2.190503e-01  2.424441e-01  8.406922e-01
   endloop
 endfacet
 facet normal  0.000000e+00  0.000000e+00  1.000000e+00
   outer loop
     vertex -2.219003e-01  2.544441e-01  8.406922e-01
     vertex -2.264003e-01  2.450941e-01  8.406922e-01
     vertex -2.164003e-01  2.450941e-01  8.406922e-01
   endloop
 endfacet
 facet normal  0.000000e+00  0.000000e+00  1.000000e+00
   outer loop
     vertex -2.169003e-01  2.594441e-01  8.406922e-01
     vertex -2.164003e-01  2.450941e-01  8.406922e-01
     vertex -2.137503e-01  2.424441e-01  8.406922e-01
   endloop
 endfacet
 facet normal  0.000000e+00  0.000000e+00  1.000000e+00
   outer loop
     vertex -2.169003e-01  2.594441e-01  8.406922e-01
     vertex -2.219003e-01  2.544441e-01  8.406922e-01
     vertex -2.164003e-01  2.450941e-01  8.406922e-01
   endloop
 endfacet
 facet normal  0.000000e+00  0.000000e+00  1.000000e+00
   outer loop
     vertex -2.109003e-01  2.674441e-01  8.406922e-01
     vertex -2.169003e-01  2.594441e-01  8.406922e-01
     vertex -2.137503e-01  2.424441e-01  8.406922e-01
   endloop
 endfacet
 facet normal  0.000000e+00  0.000000e+00  1.000000e+00
   outer loop
     vertex -2.269003e-01  2.594441e-01  8.406922e-01
     vertex -2.290503e-01  2.424441e-01  8.406922e-01
     vertex -2.264003e-01  2.450941e-01  8.406922e-01
   endloop
 endfacet
 facet normal  0.000000e+00  0.000000e+00  1.000000e+00
   outer loop
     vertex -2.269003e-01  2.594441e-01  8.406922e-01
     vertex -2.264003e-01  2.450941e-01  8.406922e-01
     vertex -2.219003e-01  2.544441e-01  8.406922e-01
   endloop
 endfacet
 facet normal -0.000000e+00  0.000000e+00  1.000000e+00
   outer loop
     vertex -2.219003e-01  2.644441e-01  8.406922e-01
     vertex -2.169003e-01  2.594441e-01  8.406922e-01
     vertex -2.109003e-01  2.674441e-01  8.406922e-01
   endloop
 endfacet
 facet normal  0.000000e+00  0.000000e+00  1.000000e+00
   outer loop
     vertex -2.329003e-01  2.674441e-01  8.406922e-01
     vertex -2.269003e-01  2.594441e-01  8.406922e-01
     vertex -2.219003e-01  2.644441e-01  8.406922e-01
   endloop
 endfacet
 facet normal  0.000000e+00  0.000000e+00  1.000000e+00
   outer loop
     vertex -2.329003e-01  2.674441e-01  8.406922e-01
     vertex -2.290503e-01  2.424441e-01  8.406922e-01
     vertex -2.269003e-01  2.594441e-01  8.406922e-01
   endloop
 endfacet
 facet normal -0.000000e+00  0.000000e+00  1.000000e+00
   outer loop
     vertex -2.329003e-01  2.674441e-01  8.406922e-01
     vertex -2.219003e-01  2.644441e-01  8.406922e-01
     vertex -2.109003e-01  2.674441e-01  8.406922e-01
   endloop
 endfacet
 facet normal  0.000000e+00  0.000000e+00  1.000000e+00
   outer loop
     vertex -2.329003e-01  2.174441e-01  8.406922e-01
     vertex -2.290503e-01  2.424441e-01  8.406922e-01
     vertex -2.329003e-01  2.674441e-01  8.406922e-01
   endloop
 endfacet
 facet normal  0.000000e+00  0.000000e+00  1.000000e+00
   outer loop
     vertex -2.109003e-01  2.674441e-01  8.406922e-01
     vertex -2.137503e-01  2.424441e-01  8.406922e-01
     vertex -2.109003e-01  2.174441e-01  8.406922e-01
   endloop
 endfacet
 facet normal  0.000000e+00 -1.000000e+00  0.000000e+00
   outer loop
     vertex -2.329003e-01  2.174441e-01  8.256922e-01
     vertex -2.109003e-01  2.174441e-01  8.406922e-01
     vertex -2.329003e-01  2.174441e-01  8.406922e-01
   endloop
 endfacet
 facet normal  0.000000e+00 -1.000000e+00  0.000000e+00
   outer loop
     vertex -2.329003e-01  2.174441e-01  8.256922e-01
     vertex -2.109003e-01  2.174441e-01  8.256922e-01
     vertex -2.109003e-01  2.174441e-01  8.406922e-01
   endloop
 endfacet
 facet normal  1.000000e+00  0.000000e+00  0.000000e+00
   outer loop
     vertex -2.109003e-01  2.174441e-01  8.256922e-01
     vertex -2.109003e-01  2.674441e-01  8.406922e-01
     vertex -2.109003e-01  2.174441e-01  8.406922e-01
   endloop
 endfacet
 facet normal  1.000000e+00  0.000000e+00  0.000000e+00
   outer loop
     vertex -2.109003e-01  2.174441e-01  8.256922e-01
     vertex -2.109003e-01  2.674441e-01  8.256922e-01
     vertex -2.109003e-01  2.674441e-01  8.406922e-01
   endloop
 endfacet
 facet normal  0.000000e+00  1.000000e+00 -0.000000e+00
   outer loop
     vertex -2.109003e-01  2.674441e-01  8.256922e-01
     vertex -2.329003e-01  2.674441e-01  8.406922e-01
     vertex -2.109003e-01  2.674441e-01  8.406922e-01
   endloop
 endfacet
 facet normal  0.000000e+00  1.000000e+00  0.000000e+00
   outer loop
     vertex -2.109003e-01  2.674441e-01  8.256922e-01
     vertex -2.329003e-01  2.674441e-01  8.256922e-01
     vertex -2.329003e-01  2.674441e-01  8.406922e-01
   endloop
 endfacet
 facet normal -1.000000e+00  0.000000e+00  0.000000e+00
   outer loop
     vertex -2.329003e-01  2.674441e-01  8.256922e-01
     vertex -2.329003e-01  2.174441e-01  8.406922e-01
     vertex -2.329003e-01  2.674441e-01  8.406922e-01
   endloop
 endfacet
 facet normal -1.000000e+00  0.000000e+00  0.000000e+00
   outer loop
     vertex -2.329003e-01  2.674441e-01  8.256922e-01
     vertex -2.329003e-01  2.174441e-01  8.256922e-01
     vertex -2.329003e-01  2.174441e-01  8.406922e-01
   endloop
 endfacet
 facet normal  0.000000e+00 -0.000000e+00 -1.000000e+00
   outer loop
     vertex -2.115253e-01  2.424441e-01  8.256922e-01
     vertex -2.109003e-01  2.174441e-01  8.256922e-01
     vertex -2.164003e-01  2.375691e-01  8.256922e-01
   endloop
 endfacet
 facet normal  0.000000e+00 -0.000000e+00 -1.000000e+00
   outer loop
     vertex -2.264003e-01  2.375691e-01  8.256922e-01
     vertex -2.109003e-01  2.174441e-01  8.256922e-01
     vertex -2.329003e-01  2.174441e-01  8.256922e-01
   endloop
 endfacet
 facet normal  0.000000e+00  0.000000e+00 -1.000000e+00
   outer loop
     vertex -2.264003e-01  2.375691e-01  8.256922e-01
     vertex -2.212753e-01  2.424441e-01  8.256922e-01
     vertex -2.164003e-01  2.375691e-01  8.256922e-01
   endloop
 endfacet
 facet normal  0.000000e+00  0.000000e+00 -1.000000e+00
   outer loop
     vertex -2.264003e-01  2.375691e-01  8.256922e-01
     vertex -2.164003e-01  2.375691e-01  8.256922e-01
     vertex -2.109003e-01  2.174441e-01  8.256922e-01
   endloop
 endfacet
 facet normal  0.000000e+00  0.000000e+00 -1.000000e+00
   outer loop
     vertex -2.264003e-01  2.375691e-01  8.256922e-01
     vertex -2.215253e-01  2.424441e-01  8.256922e-01
     vertex -2.212753e-01  2.424441e-01  8.256922e-01
   endloop
 endfacet
 facet normal  0.000000e+00 -0.000000e+00 -1.000000e+00
   outer loop
     vertex -2.312753e-01  2.424441e-01  8.256922e-01
     vertex -2.264003e-01  2.375691e-01  8.256922e-01
     vertex -2.329003e-01  2.174441e-01  8.256922e-01
   endloop
 endfacet
 facet normal  0.000000e+00  0.000000e+00 -1.000000e+00
   outer loop
     vertex -2.264003e-01  2.473191e-01  8.256922e-01
     vertex -2.164003e-01  2.473191e-01  8.256922e-01
     vertex -2.212753e-01  2.424441e-01  8.256922e-01
   endloop
 endfacet
 facet normal  0.000000e+00  0.000000e+00 -1.000000e+00
   outer loop
     vertex -2.264003e-01  2.473191e-01  8.256922e-01
     vertex -2.212753e-01  2.424441e-01  8.256922e-01
     vertex -2.215253e-01  2.424441e-01  8.256922e-01
   endloop
 endfacet
 facet normal  0.000000e+00  0.000000e+00 -1.000000e+00
   outer loop
     vertex -2.109003e-01  2.674441e-01  8.256922e-01
     vertex -2.115253e-01  2.424441e-01  8.256922e-01
     vertex -2.164003e-01  2.473191e-01  8.256922e-01
   endloop
 endfacet
 facet normal  0.000000e+00  0.000000e+00 -1.000000e+00
   outer loop
     vertex -2.109003e-01  2.674441e-01  8.256922e-01
     vertex -2.164003e-01  2.473191e-01  8.256922e-01
     vertex -2.264003e-01  2.473191e-01  8.256922e-01
   endloop
 endfacet
 facet normal  0.000000e+00  0.000000e+00 -1.000000e+00
   outer loop
     vertex -2.329003e-01  2.674441e-01  8.256922e-01
     vertex -2.264003e-01  2.473191e-01  8.256922e-01
     vertex -2.312753e-01  2.424441e-01  8.256922e-01
   endloop
 endfacet
 facet normal  0.000000e+00  0.000000e+00 -1.000000e+00
   outer loop
     vertex -2.329003e-01  2.674441e-01  8.256922e-01
     vertex -2.109003e-01  2.674441e-01  8.256922e-01
     vertex -2.264003e-01  2.473191e-01  8.256922e-01
   endloop
 endfacet
 facet normal  0.000000e+00  0.000000e+00 -1.000000e+00
   outer loop
     vertex -2.329003e-01  2.174441e-01  8.256922e-01
     vertex -2.329003e-01  2.674441e-01  8.256922e-01
     vertex -2.312753e-01  2.424441e-01  8.256922e-01
   endloop
 endfacet
 facet normal  0.000000e+00 -0.000000e+00 -1.000000e+00
   outer loop
     vertex -2.109003e-01  2.674441e-01  8.256922e-01
     vertex -2.109003e-01  2.174441e-01  8.256922e-01
     vertex -2.115253e-01  2.424441e-01  8.256922e-01
   endloop
 endfacet
 facet normal -7.071068e-01  7.071068e-01  0.000000e+00
   outer loop
     vertex -2.164003e-01  2.375691e-01  8.256922e-01
     vertex -2.115253e-01  2.424441e-01  8.306922e-01
     vertex -2.115253e-01  2.424441e-01  8.256922e-01
   endloop
 endfacet
 facet normal -7.071068e-01  7.071068e-01  0.000000e+00
   outer loop
     vertex -2.164003e-01  2.375691e-01  8.256922e-01
     vertex -2.164003e-01  2.375691e-01  8.306922e-01
     vertex -2.115253e-01  2.424441e-01  8.306922e-01
   endloop
 endfacet
 facet normal  7.071068e-01  7.071068e-01 -0.000000e+00
   outer loop
     vertex -2.212753e-01  2.424441e-01  8.256922e-01
     vertex -2.212753e-01  2.424441e-01  8.306922e-01
     vertex -2.164003e-01  2.375691e-01  8.306922e-01
   endloop
 endfacet
 facet normal  7.071068e-01  7.071068e-01  0.000000e+00
   outer loop
     vertex -2.212753e-01  2.424441e-01  8.256922e-01
     vertex -2.164003e-01  2.375691e-01  8.306922e-01
     vertex -2.164003e-01  2.375691e-01  8.256922e-01
   endloop
 endfacet
 facet normal  7.071068e-01 -7.071068e-01  0.000000e+00
   outer loop
     vertex -2.164003e-01  2.473191e-01  8.256922e-01
     vertex -2.164003e-01  2.473191e-01  8.306922e-01
     vertex -2.212753e-01  2.424441e-01  8.306922e-01
   endloop
 endfacet
 facet normal  7.071068e-01 -7.071068e-01  0.000000e+00
   outer loop
     vertex -2.164003e-01  2.473191e-01  8.256922e-01
     vertex -2.212753e-01  2.424441e-01  8.306922e-01
     vertex -2.212753e-01  2.424441e-01  8.256922e-01
   endloop
 endfacet
 facet normal -7.071068e-01 -7.071068e-01  0.000000e+00
   outer loop
     vertex -2.115253e-01  2.424441e-01  8.256922e-01
     vertex -2.115253e-01  2.424441e-01  8.306922e-01
     vertex -2.164003e-01  2.473191e-01  8.306922e-01
   endloop
 endfacet
 facet normal -7.071068e-01 -7.071068e-01  0.000000e+00
   outer loop
     vertex -2.115253e-01  2.424441e-01  8.256922e-01
     vertex -2.164003e-01  2.473191e-01  8.306922e-01
     vertex -2.164003e-01  2.473191e-01  8.256922e-01
   endloop
 endfacet
 facet normal  0.000000e+00  0.000000e+00 -1.000000e+00
   outer loop
     vertex -2.164003e-01  2.397941e-01  8.306922e-01
     vertex -2.115253e-01  2.424441e-01  8.306922e-01
     vertex -2.164003e-01  2.375691e-01  8.306922e-01
   endloop
 endfacet
 facet normal  0.000000e+00  0.000000e+00 -1.000000e+00
   outer loop
     vertex -2.164003e-01  2.397941e-01  8.306922e-01
     vertex -2.137503e-01  2.424441e-01  8.306922e-01
     vertex -2.115253e-01  2.424441e-01  8.306922e-01
   endloop
 endfacet
 facet normal  0.000000e+00  0.000000e+00 -1.000000e+00
   outer loop
     vertex -2.212753e-01  2.424441e-01  8.306922e-01
     vertex -2.190503e-01  2.424441e-01  8.306922e-01
     vertex -2.164003e-01  2.397941e-01  8.306922e-01
   endloop
 endfacet
 facet normal  0.000000e+00  0.000000e+00 -1.000000e+00
   outer loop
     vertex -2.212753e-01  2.424441e-01  8.306922e-01
     vertex -2.164003e-01  2.397941e-01  8.306922e-01
     vertex -2.164003e-01  2.375691e-01  8.306922e-01
   endloop
 endfacet
 facet normal  0.000000e+00  0.000000e+00 -1.000000e+00
   outer loop
     vertex -2.164003e-01  2.473191e-01  8.306922e-01
     vertex -2.137503e-01  2.424441e-01  8.306922e-01
     vertex -2.164003e-01  2.450941e-01  8.306922e-01
   endloop
 endfacet
 facet normal  0.000000e+00 -0.000000e+00 -1.000000e+00
   outer loop
     vertex -2.164003e-01  2.473191e-01  8.306922e-01
     vertex -2.164003e-01  2.450941e-01  8.306922e-01
     vertex -2.190503e-01  2.424441e-01  8.306922e-01
   endloop
 endfacet
 facet normal  0.000000e+00  0.000000e+00 -1.000000e+00
   outer loop
     vertex -2.164003e-01  2.473191e-01  8.306922e-01
     vertex -2.115253e-01  2.424441e-01  8.306922e-01
     vertex -2.137503e-01  2.424441e-01  8.306922e-01
   endloop
 endfacet
 facet normal  0.000000e+00  0.000000e+00 -1.000000e+00
   outer loop
     vertex -2.164003e-01  2.473191e-01  8.306922e-01
     vertex -2.190503e-01  2.424441e-01  8.306922e-01
     vertex -2.212753e-01  2.424441e-01  8.306922e-01
   endloop
 endfacet
 facet normal -7.071068e-01  7.071068e-01  0.000000e+00
   outer loop
     vertex -2.164003e-01  2.397941e-01  8.306922e-01
     vertex -2.137503e-01  2.424441e-01  8.406922e-01
     vertex -2.137503e-01  2.424441e-01  8.306922e-01
   endloop
 endfacet
 facet normal -7.071068e-01  7.071068e-01  0.000000e+00
   outer loop
     vertex -2.164003e-01  2.397941e-01  8.306922e-01
     vertex -2.164003e-01  2.397941e-01  8.406922e-01
     vertex -2.137503e-01  2.424441e-01  8.406922e-01
   endloop
 endfacet
 facet normal  7.071068e-01  7.071068e-01 -0.000000e+00
   outer loop
     vertex -2.190503e-01  2.424441e-01  8.306922e-01
     vertex -2.190503e-01  2.424441e-01  8.406922e-01
     vertex -2.164003e-01  2.397941e-01  8.406922e-01
   endloop
 endfacet
 facet normal  7.071068e-01  7.071068e-01  0.000000e+00
   outer loop
     vertex -2.190503e-01  2.424441e-01  8.306922e-01
     vertex -2.164003e-01  2.397941e-01  8.406922e-01
     vertex -2.164003e-01  2.397941e-01  8.306922e-01
   endloop
 endfacet
 facet normal  7.071068e-01 -7.071068e-01  0.000000e+00
   outer loop
     vertex -2.164003e-01  2.450941e-01  8.306922e-01
     vertex -2.164003e-01  2.450941e-01  8.406922e-01
     vertex -2.190503e-01  2.424441e-01  8.406922e-01
   endloop
 endfacet
 facet normal  7.071068e-01 -7.071068e-01  0.000000e+00
   outer loop
     vertex -2.164003e-01  2.450941e-01  8.306922e-01
     vertex -2.190503e-01  2.424441e-01  8.406922e-01
     vertex -2.190503e-01  2.424441e-01  8.306922e-01
   endloop
 endfacet
 facet normal -7.071068e-01 -7.071068e-01  0.000000e+00
   outer loop
     vertex -2.137503e-01  2.424441e-01  8.306922e-01
     vertex -2.137503e-01  2.424441e-01  8.406922e-01
     vertex -2.164003e-01  2.450941e-01  8.406922e-01
   endloop
 endfacet
 facet normal -7.071068e-01 -7.071068e-01  0.000000e+00
   outer loop
     vertex -2.137503e-01  2.424441e-01  8.306922e-01
     vertex -2.164003e-01  2.450941e-01  8.406922e-01
     vertex -2.164003e-01  2.450941e-01  8.306922e-01
   endloop
 endfacet
 facet normal -7.071068e-01  7.071068e-01  0.000000e+00
   outer loop
     vertex -2.264003e-01  2.375691e-01  8.256922e-01
     vertex -2.215253e-01  2.424441e-01  8.306922e-01
     vertex -2.215253e-01  2.424441e-01  8.256922e-01
   endloop
 endfacet
 facet normal -7.071068e-01  7.071068e-01  0.000000e+00
   outer loop
     vertex -2.264003e-01  2.375691e-01  8.256922e-01
     vertex -2.264003e-01  2.375691e-01  8.306922e-01
     vertex -2.215253e-01  2.424441e-01  8.306922e-01
   endloop
 endfacet
 facet normal  7.071068e-01  7.071068e-01 -0.000000e+00
   outer loop
     vertex -2.312753e-01  2.424441e-01  8.256922e-01
     vertex -2.312753e-01  2.424441e-01  8.306922e-01
     vertex -2.264003e-01  2.375691e-01  8.306922e-01
   endloop
 endfacet
 facet normal  7.071068e-01  7.071068e-01  0.000000e+00
   outer loop
     vertex -2.312753e-01  2.424441e-01  8.256922e-01
     vertex -2.264003e-01  2.375691e-01  8.306922e-01
     vertex -2.264003e-01  2.375691e-01  8.256922e-01
   endloop
 endfacet
 facet normal  7.071068e-01 -7.071068e-01  0.000000e+00
   outer loop
     vertex -2.264003e-01  2.473191e-01  8.256922e-01
     vertex -2.264003e-01  2.473191e-01  8.306922e-01
     vertex -2.312753e-01  2.424441e-01  8.306922e-01
   endloop
 endfacet
 facet normal  7.071068e-01 -7.071068e-01  0.000000e+00
   outer loop
     vertex -2.264003e-01  2.473191e-01  8.256922e-01
     vertex -2.312753e-01  2.424441e-01  8.306922e-01
     vertex -2.312753e-01  2.424441e-01  8.256922e-01
   endloop
 endfacet
 facet normal -7.071068e-01 -7.071068e-01  0.000000e+00
   outer loop
     vertex -2.215253e-01  2.424441e-01  8.256922e-01
     vertex -2.215253e-01  2.424441e-01  8.306922e-01
     vertex -2.264003e-01  2.473191e-01  8.306922e-01
   endloop
 endfacet
 facet normal -7.071068e-01 -7.071068e-01  0.000000e+00
   outer loop
     vertex -2.215253e-01  2.424441e-01  8.256922e-01
     vertex -2.264003e-01  2.473191e-01  8.306922e-01
     vertex -2.264003e-01  2.473191e-01  8.256922e-01
   endloop
 endfacet
 facet normal  0.000000e+00  0.000000e+00 -1.000000e+00
   outer loop
     vertex -2.264003e-01  2.397941e-01  8.306922e-01
     vertex -2.215253e-01  2.424441e-01  8.306922e-01
     vertex -2.264003e-01  2.375691e-01  8.306922e-01
   endloop
 endfacet
 facet normal  0.000000e+00  0.000000e+00 -1.000000e+00
   outer loop
     vertex -2.264003e-01  2.397941e-01  8.306922e-01
     vertex -2.237503e-01  2.424441e-01  8.306922e-01
     vertex -2.215253e-01  2.424441e-01  8.306922e-01
   endloop
 endfacet
 facet normal  0.000000e+00  0.000000e+00 -1.000000e+00
   outer loop
     vertex -2.312753e-01  2.424441e-01  8.306922e-01
     vertex -2.290503e-01  2.424441e-01  8.306922e-01
     vertex -2.264003e-01  2.397941e-01  8.306922e-01
   endloop
 endfacet
 facet normal  0.000000e+00  0.000000e+00 -1.000000e+00
   outer loop
     vertex -2.312753e-01  2.424441e-01  8.306922e-01
     vertex -2.264003e-01  2.397941e-01  8.306922e-01
     vertex -2.264003e-01  2.375691e-01  8.306922e-01
   endloop
 endfacet
 facet normal  0.000000e+00  0.000000e+00 -1.000000e+00
   outer loop
     vertex -2.264003e-01  2.473191e-01  8.306922e-01
     vertex -2.237503e-01  2.424441e-01  8.306922e-01
     vertex -2.264003e-01  2.450941e-01  8.306922e-01
   endloop
 endfacet
 facet normal  0.000000e+00 -0.000000e+00 -1.000000e+00
   outer loop
     vertex -2.264003e-01  2.473191e-01  8.306922e-01
     vertex -2.264003e-01  2.450941e-01  8.306922e-01
     vertex -2.290503e-01  2.424441e-01  8.306922e-01
   endloop
 endfacet
 facet normal  0.000000e+00  0.000000e+00 -1.000000e+00
   outer loop
     vertex -2.264003e-01  2.473191e-01  8.306922e-01
     vertex -2.215253e-01  2.424441e-01  8.306922e-01
     vertex -2.237503e-01  2.424441e-01  8.306922e-01
   endloop
 endfacet
 facet normal  0.000000e+00  0.000000e+00 -1.000000e+00
   outer loop
     vertex -2.264003e-01  2.473191e-01  8.306922e-01
     vertex -2.290503e-01  2.424441e-01  8.306922e-01
     vertex -2.312753e-01  2.424441e-01  8.306922e-01
   endloop
 endfacet
 facet normal -7.071068e-01  7.071068e-01  0.000000e+00
   outer loop
     vertex -2.264003e-01  2.397941e-01  8.306922e-01
     vertex -2.237503e-01  2.424441e-01  8.406922e-01
     vertex -2.237503e-01  2.424441e-01  8.306922e-01
   endloop
 endfacet
 facet normal -7.071068e-01  7.071068e-01  0.000000e+00
   outer loop
     vertex -2.264003e-01  2.397941e-01  8.306922e-01
     vertex -2.264003e-01  2.397941e-01  8.406922e-01
     vertex -2.237503e-01  2.424441e-01  8.406922e-01
   endloop
 endfacet
 facet normal  7.071068e-01  7.071068e-01 -0.000000e+00
   outer loop
     vertex -2.290503e-01  2.424441e-01  8.306922e-01
     vertex -2.290503e-01  2.424441e-01  8.406922e-01
     vertex -2.264003e-01  2.397941e-01  8.406922e-01
   endloop
 endfacet
 facet normal  7.071068e-01  7.071068e-01  0.000000e+00
   outer loop
     vertex -2.290503e-01  2.424441e-01  8.306922e-01
     vertex -2.264003e-01  2.397941e-01  8.406922e-01
     vertex -2.264003e-01  2.397941e-01  8.306922e-01
   endloop
 endfacet
 facet normal  7.071068e-01 -7.071068e-01  0.000000e+00
   outer loop
     vertex -2.264003e-01  2.450941e-01  8.306922e-01
     vertex -2.264003e-01  2.450941e-01  8.406922e-01
     vertex -2.290503e-01  2.424441e-01  8.406922e-01
   endloop
 endfacet
 facet normal  7.071068e-01 -7.071068e-01  0.000000e+00
   outer loop
     vertex -2.264003e-01  2.450941e-01  8.306922e-01
     vertex -2.290503e-01  2.424441e-01  8.406922e-01
     vertex -2.290503e-01  2.424441e-01  8.306922e-01
   endloop
 endfacet
 facet normal -7.071068e-01 -7.071068e-01  0.000000e+00
   outer loop
     vertex -2.237503e-01  2.424441e-01  8.306922e-01
     vertex -2.237503e-01  2.424441e-01  8.406922e-01
     vertex -2.264003e-01  2.450941e-01  8.406922e-01
   endloop
 endfacet
 facet normal -7.071068e-01 -7.071068e-01  0.000000e+00
   outer loop
     vertex -2.237503e-01  2.424441e-01  8.306922e-01
     vertex -2.264003e-01  2.450941e-01  8.406922e-01
     vertex -2.264003e-01  2.450941e-01  8.306922e-01
   endloop
 endfacet
 facet normal  7.071068e-01 -7.071068e-01  0.000000e+00
   outer loop
     vertex -2.219003e-01  2.644441e-01  8.306922e-01
     vertex -2.269003e-01  2.594441e-01  8.406922e-01
     vertex -2.269003e-01  2.594441e-01  8.306922e-01
   endloop
 endfacet
 facet normal  7.071068e-01 -7.071068e-01  0.000000e+00
   outer loop
     vertex -2.219003e-01  2.644441e-01  8.306922e-01
     vertex -2.219003e-01  2.644441e-01  8.406922e-01
     vertex -2.269003e-01  2.594441e-01  8.406922e-01
   endloop
 endfacet
 facet normal -7.071068e-01 -7.071068e-01  0.000000e+00
   outer loop
     vertex -2.169003e-01  2.594441e-01  8.306922e-01
     vertex -2.169003e-01  2.594441e-01  8.406922e-01
     vertex -2.219003e-01  2.644441e-01  8.406922e-01
   endloop
 endfacet
 facet normal -7.071068e-01 -7.071068e-01  0.000000e+00
   outer loop
     vertex -2.169003e-01  2.594441e-01  8.306922e-01
     vertex -2.219003e-01  2.644441e-01  8.406922e-01
     vertex -2.219003e-01  2.644441e-01  8.306922e-01
   endloop
 endfacet
 facet normal -7.071068e-01  7.071068e-01  0.000000e+00
   outer loop
     vertex -2.219003e-01  2.544441e-01  8.306922e-01
     vertex -2.219003e-01  2.544441e-01  8.406922e-01
     vertex -2.169003e-01  2.594441e-01  8.406922e-01
   endloop
 endfacet
 facet normal -7.071068e-01  7.071068e-01  0.000000e+00
   outer loop
     vertex -2.219003e-01  2.544441e-01  8.306922e-01
     vertex -2.169003e-01  2.594441e-01  8.406922e-01
     vertex -2.169003e-01  2.594441e-01  8.306922e-01
   endloop
 endfacet
 facet normal  7.071068e-01  7.071068e-01 -0.000000e+00
   outer loop
     vertex -2.269003e-01  2.594441e-01  8.306922e-01
     vertex -2.269003e-01  2.594441e-01  8.406922e-01
     vertex -2.219003e-01  2.544441e-01  8.406922e-01
   endloop
 endfacet
 facet normal  7.071068e-01  7.071068e-01  0.000000e+00
   outer loop
     vertex -2.269003e-01  2.594441e-01  8.306922e-01
     vertex -2.219003e-01  2.544441e-01  8.406922e-01
     vertex -2.219003e-01  2.544441e-01  8.306922e-01
   endloop
 endfacet
 facet normal  0.000000e+00 -0.000000e+00  1.000000e+00
   outer loop
     vertex -2.219003e-01  2.544441e-01  8.306922e-01
     vertex -2.219003e-01  2.644441e-01  8.306922e-01
     vertex -2.269003e-01  2.594441e-01  8.306922e-01
   endloop
 endfacet
 facet normal  0.000000e+00  0.000000e+00  1.000000e+00
   outer loop
     vertex -2.219003e-01  2.544441e-01  8.306922e-01
     vertex -2.169003e-01  2.594441e-01  8.306922e-01
     vertex -2.219003e-01  2.644441e-01  8.306922e-01
   endloop
 endfacet
 facet normal  7.071068e-01  7.071068e-01  0.000000e+00
   outer loop
     vertex -2.219003e-01  2.204441e-01  8.406922e-01
     vertex -2.269003e-01  2.254441e-01  8.306922e-01
     vertex -2.269003e-01  2.254441e-01  8.406922e-01
   endloop
 endfacet
 facet normal  7.071068e-01  7.071068e-01  0.000000e+00
   outer loop
     vertex -2.219003e-01  2.204441e-01  8.406922e-01
     vertex -2.219003e-01  2.204441e-01  8.306922e-01
     vertex -2.269003e-01  2.254441e-01  8.306922e-01
   endloop
 endfacet
 facet normal -7.071068e-01  7.071068e-01  0.000000e+00
   outer loop
     vertex -2.169003e-01  2.254441e-01  8.406922e-01
     vertex -2.169003e-01  2.254441e-01  8.306922e-01
     vertex -2.219003e-01  2.204441e-01  8.306922e-01
   endloop
 endfacet
 facet normal -7.071068e-01  7.071068e-01  0.000000e+00
   outer loop
     vertex -2.169003e-01  2.254441e-01  8.406922e-01
     vertex -2.219003e-01  2.204441e-01  8.306922e-01
     vertex -2.219003e-01  2.204441e-01  8.406922e-01
   endloop
 endfacet
 facet normal -7.071068e-01 -7.071068e-01 -0.000000e+00
   outer loop
     vertex -2.219003e-01  2.304441e-01  8.406922e-01
     vertex -2.219003e-01  2.304441e-01  8.306922e-01
     vertex -2.169003e-01  2.254441e-01  8.306922e-01
   endloop
 endfacet
 facet normal -7.071068e-01 -7.071068e-01  0.000000e+00
   outer loop
     vertex -2.219003e-01  2.304441e-01  8.406922e-01
     vertex -2.169003e-01  2.254441e-01  8.306922e-01
     vertex -2.169003e-01  2.254441e-01  8.406922e-01
   endloop
 endfacet
 facet normal  7.071068e-01 -7.071068e-01  0.000000e+00
   outer loop
     vertex -2.269003e-01  2.254441e-01  8.406922e-01
     vertex -2.269003e-01  2.254441e-01  8.306922e-01
     vertex -2.219003e-01  2.304441e-01  8.306922e-01
   endloop
 endfacet
 facet normal  7.071068e-01 -7.071068e-01  0.000000e+00
   outer loop
     vertex -2.269003e-01  2.254441e-01  8.406922e-01
     vertex -2.219003e-01  2.304441e-01  8.306922e-01
     vertex -2.219003e-01  2.304441e-01  8.406922e-01
   endloop
 endfacet
 facet normal  0.000000e+00  0.000000e+00  1.000000e+00
   outer loop
     vertex -2.169003e-01  2.254441e-01  8.306922e-01
     vertex -2.269003e-01  2.254441e-01  8.306922e-01
     vertex -2.219003e-01  2.204441e-01  8.306922e-01
   endloop
 endfacet
 facet normal  0.000000e+00  0.000000e+00  1.000000e+00
   outer loop
     vertex -2.169003e-01  2.254441e-01  8.306922e-01
     vertex -2.219003e-01  2.304441e-01  8.306922e-01
     vertex -2.269003e-01  2.254441e-01  8.306922e-01
   endloop
 endfacet
endsolid
