solid 
 facet normal -1.000000e+00  0.000000e+00  0.000000e+00
   outer loop
     vertex -2.614003e-01  1.454441e-01  8.831922e-01
     vertex -2.614003e-01  1.454441e-01  8.856922e-01
     vertex -2.614003e-01  1.474441e-01  8.851563e-01
   endloop
 endfacet
 facet normal -1.000000e+00  0.000000e+00  0.000000e+00
   outer loop
     vertex -2.614003e-01  1.469441e-01  8.816922e-01
     vertex -2.614003e-01  1.489083e-01  8.836922e-01
     vertex -2.614003e-01  1.494441e-01  8.816922e-01
   endloop
 endfacet
 facet normal -1.000000e+00  0.000000e+00  0.000000e+00
   outer loop
     vertex -2.614003e-01  1.469441e-01  8.816922e-01
     vertex -2.614003e-01  1.474441e-01  8.851563e-01
     vertex -2.614003e-01  1.489083e-01  8.836922e-01
   endloop
 endfacet
 facet normal -1.000000e+00  0.000000e+00  0.000000e+00
   outer loop
     vertex -2.614003e-01  1.469441e-01  8.816922e-01
     vertex -2.614003e-01  1.454441e-01  8.831922e-01
     vertex -2.614003e-01  1.474441e-01  8.851563e-01
   endloop
 endfacet
 facet normal -1.000000e+00  0.000000e+00  0.000000e+00
   outer loop
     vertex -2.614003e-01  1.439441e-01  8.816922e-01
     vertex -2.614003e-01  1.454441e-01  8.856922e-01
     vertex -2.614003e-01  1.454441e-01  8.831922e-01
   endloop
 endfacet
 facet normal -1.000000e+00  0.000000e+00  0.000000e+00
   outer loop
     vertex -2.614003e-01  1.454441e-01  8.801922e-01
     vertex -2.614003e-01  1.469441e-01  8.816922e-01
     vertex -2.614003e-01  1.494441e-01  8.816922e-01
   endloop
 endfacet
 facet normal -1.000000e+00  0.000000e+00  0.000000e+00
   outer loop
     vertex -2.614003e-01  1.454441e-01  8.271922e-01
     vertex -2.614003e-01  1.494441e-01  8.816922e-01
     vertex -2.614003e-01  1.494441e-01  8.256922e-01
   endloop
 endfacet
 facet normal -1.000000e+00  0.000000e+00  0.000000e+00
   outer loop
     vertex -2.614003e-01  1.454441e-01  8.271922e-01
     vertex -2.614003e-01  1.454441e-01  8.801922e-01
     vertex -2.614003e-01  1.494441e-01  8.816922e-01
   endloop
 endfacet
 facet normal -1.000000e+00  0.000000e+00  0.000000e+00
   outer loop
     vertex -2.614003e-01  1.469441e-01  8.256922e-01
     vertex -2.614003e-01  1.454441e-01  8.271922e-01
     vertex -2.614003e-01  1.494441e-01  8.256922e-01
   endloop
 endfacet
 facet normal -1.000000e+00  0.000000e+00  0.000000e+00
   outer loop
     vertex -2.614003e-01  1.489083e-01  8.236922e-01
     vertex -2.614003e-01  1.469441e-01  8.256922e-01
     vertex -2.614003e-01  1.494441e-01  8.256922e-01
   endloop
 endfacet
 facet normal -1.000000e+00  0.000000e+00  0.000000e+00
   outer loop
     vertex -2.614003e-01  1.439441e-01  8.256922e-01
     vertex -2.614003e-01  1.439441e-01  8.816922e-01
     vertex -2.614003e-01  1.454441e-01  8.801922e-01
   endloop
 endfacet
 facet normal -1.000000e+00  0.000000e+00  0.000000e+00
   outer loop
     vertex -2.614003e-01  1.439441e-01  8.256922e-01
     vertex -2.614003e-01  1.454441e-01  8.801922e-01
     vertex -2.614003e-01  1.454441e-01  8.271922e-01
   endloop
 endfacet
 facet normal -1.000000e+00  0.000000e+00  0.000000e+00
   outer loop
     vertex -2.614003e-01  1.454441e-01  8.241922e-01
     vertex -2.614003e-01  1.489083e-01  8.236922e-01
     vertex -2.614003e-01  1.474441e-01  8.222281e-01
   endloop
 endfacet
 facet normal -1.000000e+00  0.000000e+00  0.000000e+00
   outer loop
     vertex -2.614003e-01  1.454441e-01  8.241922e-01
     vertex -2.614003e-01  1.469441e-01  8.256922e-01
     vertex -2.614003e-01  1.489083e-01  8.236922e-01
   endloop
 endfacet
 facet normal -1.000000e+00  0.000000e+00  0.000000e+00
   outer loop
     vertex -2.614003e-01  1.454441e-01  8.216922e-01
     vertex -2.614003e-01  1.439441e-01  8.256922e-01
     vertex -2.614003e-01  1.454441e-01  8.241922e-01
   endloop
 endfacet
 facet normal -1.000000e+00  0.000000e+00  0.000000e+00
   outer loop
     vertex -2.614003e-01  1.454441e-01  8.216922e-01
     vertex -2.614003e-01  1.454441e-01  8.241922e-01
     vertex -2.614003e-01  1.474441e-01  8.222281e-01
   endloop
 endfacet
 facet normal -1.000000e+00  0.000000e+00  0.000000e+00
   outer loop
     vertex -2.614003e-01  3.294415e-02  8.816922e-01
     vertex -2.614003e-01  1.454441e-01  8.856922e-01
     vertex -2.614003e-01  1.439441e-01  8.816922e-01
   endloop
 endfacet
 facet normal -1.000000e+00  0.000000e+00  0.000000e+00
   outer loop
     vertex -2.614003e-01  3.144415e-02  8.831922e-01
     vertex -2.614003e-01  1.454441e-01  8.856922e-01
     vertex -2.614003e-01  3.294415e-02  8.816922e-01
   endloop
 endfacet
 facet normal -1.000000e+00  0.000000e+00  0.000000e+00
   outer loop
     vertex -2.614003e-01  3.294415e-02  8.256922e-01
     vertex -2.614003e-01  1.439441e-01  8.816922e-01
     vertex -2.614003e-01  1.439441e-01  8.256922e-01
   endloop
 endfacet
 facet normal -1.000000e+00  0.000000e+00  0.000000e+00
   outer loop
     vertex -2.614003e-01  3.294415e-02  8.256922e-01
     vertex -2.614003e-01  1.439441e-01  8.256922e-01
     vertex -2.614003e-01  1.454441e-01  8.216922e-01
   endloop
 endfacet
 facet normal -1.000000e+00  0.000000e+00  0.000000e+00
   outer loop
     vertex -2.614003e-01  3.294415e-02  8.256922e-01
     vertex -2.614003e-01  3.294415e-02  8.816922e-01
     vertex -2.614003e-01  1.439441e-01  8.816922e-01
   endloop
 endfacet
 facet normal -1.000000e+00  0.000000e+00  0.000000e+00
   outer loop
     vertex -2.614003e-01  3.144415e-02  8.271922e-01
     vertex -2.614003e-01  3.144415e-02  8.801922e-01
     vertex -2.614003e-01  3.294415e-02  8.816922e-01
   endloop
 endfacet
 facet normal -1.000000e+00  0.000000e+00  0.000000e+00
   outer loop
     vertex -2.614003e-01  3.144415e-02  8.271922e-01
     vertex -2.614003e-01  3.294415e-02  8.816922e-01
     vertex -2.614003e-01  3.294415e-02  8.256922e-01
   endloop
 endfacet
 facet normal -1.000000e+00  0.000000e+00  0.000000e+00
   outer loop
     vertex -2.614003e-01  2.994415e-02  8.256922e-01
     vertex -2.614003e-01  2.994415e-02  8.816922e-01
     vertex -2.614003e-01  3.144415e-02  8.801922e-01
   endloop
 endfacet
 facet normal -1.000000e+00  0.000000e+00  0.000000e+00
   outer loop
     vertex -2.614003e-01  2.994415e-02  8.256922e-01
     vertex -2.614003e-01  3.144415e-02  8.801922e-01
     vertex -2.614003e-01  3.144415e-02  8.271922e-01
   endloop
 endfacet
 facet normal -1.000000e+00  0.000000e+00  0.000000e+00
   outer loop
     vertex -2.614003e-01  3.144415e-02  8.241922e-01
     vertex -2.614003e-01  3.294415e-02  8.256922e-01
     vertex -2.614003e-01  1.454441e-01  8.216922e-01
   endloop
 endfacet
 facet normal -1.000000e+00  0.000000e+00  0.000000e+00
   outer loop
     vertex -2.614003e-01 -8.255585e-02  8.856922e-01
     vertex -2.614003e-01  3.144415e-02  8.831922e-01
     vertex -2.614003e-01  2.994415e-02  8.816922e-01
   endloop
 endfacet
 facet normal -1.000000e+00  0.000000e+00  0.000000e+00
   outer loop
     vertex -2.614003e-01 -8.105585e-02  8.816922e-01
     vertex -2.614003e-01 -8.255585e-02  8.856922e-01
     vertex -2.614003e-01  2.994415e-02  8.816922e-01
   endloop
 endfacet
 facet normal -1.000000e+00  0.000000e+00  0.000000e+00
   outer loop
     vertex -2.614003e-01 -8.255585e-02  8.831922e-01
     vertex -2.614003e-01 -8.255585e-02  8.856922e-01
     vertex -2.614003e-01 -8.105585e-02  8.816922e-01
   endloop
 endfacet
 facet normal -1.000000e+00  0.000000e+00  0.000000e+00
   outer loop
     vertex -2.614003e-01 -8.455585e-02  8.851563e-01
     vertex -2.614003e-01 -8.255585e-02  8.856922e-01
     vertex -2.614003e-01 -8.255585e-02  8.831922e-01
   endloop
 endfacet
 facet normal -1.000000e+00  0.000000e+00  0.000000e+00
   outer loop
     vertex -2.614003e-01 -8.601995e-02  8.836922e-01
     vertex -2.614003e-01 -8.455585e-02  8.851563e-01
     vertex -2.614003e-01 -8.255585e-02  8.831922e-01
   endloop
 endfacet
 facet normal -1.000000e+00  0.000000e+00  0.000000e+00
   outer loop
     vertex -2.614003e-01 -8.405585e-02  8.816922e-01
     vertex -2.614003e-01 -8.601995e-02  8.836922e-01
     vertex -2.614003e-01 -8.255585e-02  8.831922e-01
   endloop
 endfacet
 facet normal -1.000000e+00  0.000000e+00  0.000000e+00
   outer loop
     vertex -2.614003e-01 -8.655585e-02  8.816922e-01
     vertex -2.614003e-01 -8.601995e-02  8.836922e-01
     vertex -2.614003e-01 -8.405585e-02  8.816922e-01
   endloop
 endfacet
 facet normal -1.000000e+00  0.000000e+00  0.000000e+00
   outer loop
     vertex -2.614003e-01 -8.655585e-02  8.816922e-01
     vertex -2.614003e-01 -8.405585e-02  8.816922e-01
     vertex -2.614003e-01 -8.255585e-02  8.801922e-01
   endloop
 endfacet
 facet normal -1.000000e+00  0.000000e+00  0.000000e+00
   outer loop
     vertex -2.614003e-01 -8.105585e-02  8.256922e-01
     vertex -2.614003e-01  2.994415e-02  8.816922e-01
     vertex -2.614003e-01  2.994415e-02  8.256922e-01
   endloop
 endfacet
 facet normal -1.000000e+00  0.000000e+00  0.000000e+00
   outer loop
     vertex -2.614003e-01 -8.105585e-02  8.256922e-01
     vertex -2.614003e-01 -8.105585e-02  8.816922e-01
     vertex -2.614003e-01  2.994415e-02  8.816922e-01
   endloop
 endfacet
 facet normal -1.000000e+00  0.000000e+00  0.000000e+00
   outer loop
     vertex -2.614003e-01 -8.255585e-02  8.271922e-01
     vertex -2.614003e-01 -8.105585e-02  8.816922e-01
     vertex -2.614003e-01 -8.105585e-02  8.256922e-01
   endloop
 endfacet
 facet normal -1.000000e+00  0.000000e+00  0.000000e+00
   outer loop
     vertex -2.614003e-01 -8.255585e-02  8.271922e-01
     vertex -2.614003e-01 -8.255585e-02  8.801922e-01
     vertex -2.614003e-01 -8.105585e-02  8.816922e-01
   endloop
 endfacet
 facet normal -1.000000e+00  0.000000e+00  0.000000e+00
   outer loop
     vertex -2.614003e-01 -8.655585e-02  8.256922e-01
     vertex -2.614003e-01 -8.655585e-02  8.816922e-01
     vertex -2.614003e-01 -8.255585e-02  8.801922e-01
   endloop
 endfacet
 facet normal -1.000000e+00  0.000000e+00  0.000000e+00
   outer loop
     vertex -2.614003e-01 -8.655585e-02  8.256922e-01
     vertex -2.614003e-01 -8.255585e-02  8.801922e-01
     vertex -2.614003e-01 -8.255585e-02  8.271922e-01
   endloop
 endfacet
 facet normal -1.000000e+00  0.000000e+00  0.000000e+00
   outer loop
     vertex -2.614003e-01 -8.655585e-02  8.256922e-01
     vertex -2.614003e-01 -8.255585e-02  8.271922e-01
     vertex -2.614003e-01 -8.405585e-02  8.256922e-01
   endloop
 endfacet
 facet normal -1.000000e+00  0.000000e+00  0.000000e+00
   outer loop
     vertex -2.614003e-01 -8.255585e-02  8.216922e-01
     vertex -2.614003e-01  2.994415e-02  8.256922e-01
     vertex -2.614003e-01  3.144415e-02  8.241922e-01
   endloop
 endfacet
 facet normal -1.000000e+00  0.000000e+00  0.000000e+00
   outer loop
     vertex -2.614003e-01 -8.255585e-02  8.216922e-01
     vertex -2.614003e-01 -8.255585e-02  8.241922e-01
     vertex -2.614003e-01 -8.105585e-02  8.256922e-01
   endloop
 endfacet
 facet normal -1.000000e+00  0.000000e+00  0.000000e+00
   outer loop
     vertex -2.614003e-01 -8.255585e-02  8.216922e-01
     vertex -2.614003e-01 -8.105585e-02  8.256922e-01
     vertex -2.614003e-01  2.994415e-02  8.256922e-01
   endloop
 endfacet
 facet normal -1.000000e+00  0.000000e+00  0.000000e+00
   outer loop
     vertex -2.614003e-01 -8.601995e-02  8.236922e-01
     vertex -2.614003e-01 -8.655585e-02  8.256922e-01
     vertex -2.614003e-01 -8.405585e-02  8.256922e-01
   endloop
 endfacet
 facet normal -1.000000e+00  0.000000e+00  0.000000e+00
   outer loop
     vertex -2.614003e-01 -8.601995e-02  8.236922e-01
     vertex -2.614003e-01 -8.405585e-02  8.256922e-01
     vertex -2.614003e-01 -8.255585e-02  8.241922e-01
   endloop
 endfacet
 facet normal -1.000000e+00  0.000000e+00  0.000000e+00
   outer loop
     vertex -2.614003e-01 -8.455585e-02  8.222281e-01
     vertex -2.614003e-01 -8.255585e-02  8.241922e-01
     vertex -2.614003e-01 -8.255585e-02  8.216922e-01
   endloop
 endfacet
 facet normal -1.000000e+00  0.000000e+00  0.000000e+00
   outer loop
     vertex -2.614003e-01 -8.455585e-02  8.222281e-01
     vertex -2.614003e-01 -8.601995e-02  8.236922e-01
     vertex -2.614003e-01 -8.255585e-02  8.241922e-01
   endloop
 endfacet
 facet normal -1.000000e+00  0.000000e+00  0.000000e+00
   outer loop
     vertex -2.614003e-01 -8.255585e-02  8.216922e-01
     vertex -2.614003e-01  3.144415e-02  8.241922e-01
     vertex -2.614003e-01  1.454441e-01  8.216922e-01
   endloop
 endfacet
 facet normal -1.000000e+00 -0.000000e+00  0.000000e+00
   outer loop
     vertex -2.614003e-01  1.454441e-01  8.856922e-01
     vertex -2.614003e-01  3.144415e-02  8.831922e-01
     vertex -2.614003e-01 -8.255585e-02  8.856922e-01
   endloop
 endfacet
 facet normal  0.000000e+00  0.000000e+00  1.000000e+00
   outer loop
     vertex -2.594003e-01 -8.255585e-02  8.856922e-01
     vertex -2.614003e-01  1.454441e-01  8.856922e-01
     vertex -2.614003e-01 -8.255585e-02  8.856922e-01
   endloop
 endfacet
 facet normal  0.000000e+00 -0.000000e+00  1.000000e+00
   outer loop
     vertex -2.594003e-01 -8.255585e-02  8.856922e-01
     vertex -2.594003e-01  1.454441e-01  8.856922e-01
     vertex -2.614003e-01  1.454441e-01  8.856922e-01
   endloop
 endfacet
 facet normal  0.000000e+00  9.659258e-01  2.588190e-01
   outer loop
     vertex -2.594003e-01  1.489083e-01  8.836922e-01
     vertex -2.614003e-01  1.494441e-01  8.816922e-01
     vertex -2.614003e-01  1.489083e-01  8.836922e-01
   endloop
 endfacet
 facet normal  0.000000e+00  9.659258e-01  2.588190e-01
   outer loop
     vertex -2.594003e-01  1.489083e-01  8.836922e-01
     vertex -2.594003e-01  1.494441e-01  8.816922e-01
     vertex -2.614003e-01  1.494441e-01  8.816922e-01
   endloop
 endfacet
 facet normal  0.000000e+00  7.071068e-01  7.071068e-01
   outer loop
     vertex -2.594003e-01  1.474441e-01  8.851563e-01
     vertex -2.614003e-01  1.489083e-01  8.836922e-01
     vertex -2.614003e-01  1.474441e-01  8.851563e-01
   endloop
 endfacet
 facet normal  0.000000e+00  7.071068e-01  7.071068e-01
   outer loop
     vertex -2.594003e-01  1.474441e-01  8.851563e-01
     vertex -2.594003e-01  1.489083e-01  8.836922e-01
     vertex -2.614003e-01  1.489083e-01  8.836922e-01
   endloop
 endfacet
 facet normal  0.000000e+00  2.588190e-01  9.659258e-01
   outer loop
     vertex -2.594003e-01  1.454441e-01  8.856922e-01
     vertex -2.614003e-01  1.474441e-01  8.851563e-01
     vertex -2.614003e-01  1.454441e-01  8.856922e-01
   endloop
 endfacet
 facet normal  0.000000e+00  2.588190e-01  9.659258e-01
   outer loop
     vertex -2.594003e-01  1.454441e-01  8.856922e-01
     vertex -2.594003e-01  1.474441e-01  8.851563e-01
     vertex -2.614003e-01  1.474441e-01  8.851563e-01
   endloop
 endfacet
 facet normal  0.000000e+00  1.000000e+00  0.000000e+00
   outer loop
     vertex -2.594003e-01  1.494441e-01  8.816922e-01
     vertex -2.614003e-01  1.494441e-01  8.256922e-01
     vertex -2.614003e-01  1.494441e-01  8.816922e-01
   endloop
 endfacet
 facet normal  0.000000e+00  1.000000e+00  0.000000e+00
   outer loop
     vertex -2.594003e-01  1.494441e-01  8.816922e-01
     vertex -2.594003e-01  1.494441e-01  8.256922e-01
     vertex -2.614003e-01  1.494441e-01  8.256922e-01
   endloop
 endfacet
 facet normal  0.000000e+00  2.588190e-01 -9.659258e-01
   outer loop
     vertex -2.594003e-01  1.474441e-01  8.222281e-01
     vertex -2.614003e-01  1.454441e-01  8.216922e-01
     vertex -2.614003e-01  1.474441e-01  8.222281e-01
   endloop
 endfacet
 facet normal  0.000000e+00  2.588190e-01 -9.659258e-01
   outer loop
     vertex -2.594003e-01  1.474441e-01  8.222281e-01
     vertex -2.594003e-01  1.454441e-01  8.216922e-01
     vertex -2.614003e-01  1.454441e-01  8.216922e-01
   endloop
 endfacet
 facet normal  0.000000e+00  7.071068e-01 -7.071068e-01
   outer loop
     vertex -2.594003e-01  1.489083e-01  8.236922e-01
     vertex -2.614003e-01  1.474441e-01  8.222281e-01
     vertex -2.614003e-01  1.489083e-01  8.236922e-01
   endloop
 endfacet
 facet normal  0.000000e+00  7.071068e-01 -7.071068e-01
   outer loop
     vertex -2.594003e-01  1.489083e-01  8.236922e-01
     vertex -2.594003e-01  1.474441e-01  8.222281e-01
     vertex -2.614003e-01  1.474441e-01  8.222281e-01
   endloop
 endfacet
 facet normal  0.000000e+00  9.659258e-01 -2.588190e-01
   outer loop
     vertex -2.594003e-01  1.494441e-01  8.256922e-01
     vertex -2.614003e-01  1.489083e-01  8.236922e-01
     vertex -2.614003e-01  1.494441e-01  8.256922e-01
   endloop
 endfacet
 facet normal  0.000000e+00  9.659258e-01 -2.588190e-01
   outer loop
     vertex -2.594003e-01  1.494441e-01  8.256922e-01
     vertex -2.594003e-01  1.489083e-01  8.236922e-01
     vertex -2.614003e-01  1.489083e-01  8.236922e-01
   endloop
 endfacet
 facet normal -0.000000e+00  0.000000e+00 -1.000000e+00
   outer loop
     vertex -2.594003e-01  1.454441e-01  8.216922e-01
     vertex -2.614003e-01 -8.255585e-02  8.216922e-01
     vertex -2.614003e-01  1.454441e-01  8.216922e-01
   endloop
 endfacet
 facet normal  0.000000e+00 -0.000000e+00 -1.000000e+00
   outer loop
     vertex -2.594003e-01  1.454441e-01  8.216922e-01
     vertex -2.594003e-01 -8.255585e-02  8.216922e-01
     vertex -2.614003e-01 -8.255585e-02  8.216922e-01
   endloop
 endfacet
 facet normal -0.000000e+00 -9.659258e-01 -2.588190e-01
   outer loop
     vertex -2.594003e-01 -8.601995e-02  8.236922e-01
     vertex -2.614003e-01 -8.655585e-02  8.256922e-01
     vertex -2.614003e-01 -8.601995e-02  8.236922e-01
   endloop
 endfacet
 facet normal  0.000000e+00 -9.659258e-01 -2.588190e-01
   outer loop
     vertex -2.594003e-01 -8.601995e-02  8.236922e-01
     vertex -2.594003e-01 -8.655585e-02  8.256922e-01
     vertex -2.614003e-01 -8.655585e-02  8.256922e-01
   endloop
 endfacet
 facet normal -0.000000e+00 -7.071068e-01 -7.071068e-01
   outer loop
     vertex -2.594003e-01 -8.455585e-02  8.222281e-01
     vertex -2.614003e-01 -8.601995e-02  8.236922e-01
     vertex -2.614003e-01 -8.455585e-02  8.222281e-01
   endloop
 endfacet
 facet normal  0.000000e+00 -7.071068e-01 -7.071068e-01
   outer loop
     vertex -2.594003e-01 -8.455585e-02  8.222281e-01
     vertex -2.594003e-01 -8.601995e-02  8.236922e-01
     vertex -2.614003e-01 -8.601995e-02  8.236922e-01
   endloop
 endfacet
 facet normal -0.000000e+00 -2.588190e-01 -9.659258e-01
   outer loop
     vertex -2.594003e-01 -8.255585e-02  8.216922e-01
     vertex -2.614003e-01 -8.455585e-02  8.222281e-01
     vertex -2.614003e-01 -8.255585e-02  8.216922e-01
   endloop
 endfacet
 facet normal  0.000000e+00 -2.588190e-01 -9.659258e-01
   outer loop
     vertex -2.594003e-01 -8.255585e-02  8.216922e-01
     vertex -2.594003e-01 -8.455585e-02  8.222281e-01
     vertex -2.614003e-01 -8.455585e-02  8.222281e-01
   endloop
 endfacet
 facet normal  0.000000e+00 -1.000000e+00  0.000000e+00
   outer loop
     vertex -2.594003e-01 -8.655585e-02  8.256922e-01
     vertex -2.614003e-01 -8.655585e-02  8.816922e-01
     vertex -2.614003e-01 -8.655585e-02  8.256922e-01
   endloop
 endfacet
 facet normal  0.000000e+00 -1.000000e+00  0.000000e+00
   outer loop
     vertex -2.594003e-01 -8.655585e-02  8.256922e-01
     vertex -2.594003e-01 -8.655585e-02  8.816922e-01
     vertex -2.614003e-01 -8.655585e-02  8.816922e-01
   endloop
 endfacet
 facet normal  0.000000e+00 -2.588190e-01  9.659258e-01
   outer loop
     vertex -2.594003e-01 -8.455585e-02  8.851563e-01
     vertex -2.614003e-01 -8.255585e-02  8.856922e-01
     vertex -2.614003e-01 -8.455585e-02  8.851563e-01
   endloop
 endfacet
 facet normal  0.000000e+00 -2.588190e-01  9.659258e-01
   outer loop
     vertex -2.594003e-01 -8.455585e-02  8.851563e-01
     vertex -2.594003e-01 -8.255585e-02  8.856922e-01
     vertex -2.614003e-01 -8.255585e-02  8.856922e-01
   endloop
 endfacet
 facet normal  0.000000e+00 -7.071068e-01  7.071068e-01
   outer loop
     vertex -2.594003e-01 -8.601995e-02  8.836922e-01
     vertex -2.614003e-01 -8.455585e-02  8.851563e-01
     vertex -2.614003e-01 -8.601995e-02  8.836922e-01
   endloop
 endfacet
 facet normal  0.000000e+00 -7.071068e-01  7.071068e-01
   outer loop
     vertex -2.594003e-01 -8.601995e-02  8.836922e-01
     vertex -2.594003e-01 -8.455585e-02  8.851563e-01
     vertex -2.614003e-01 -8.455585e-02  8.851563e-01
   endloop
 endfacet
 facet normal  0.000000e+00 -9.659258e-01  2.588190e-01
   outer loop
     vertex -2.594003e-01 -8.655585e-02  8.816922e-01
     vertex -2.614003e-01 -8.601995e-02  8.836922e-01
     vertex -2.614003e-01 -8.655585e-02  8.816922e-01
   endloop
 endfacet
 facet normal  0.000000e+00 -9.659258e-01  2.588190e-01
   outer loop
     vertex -2.594003e-01 -8.655585e-02  8.816922e-01
     vertex -2.594003e-01 -8.601995e-02  8.836922e-01
     vertex -2.614003e-01 -8.601995e-02  8.836922e-01
   endloop
 endfacet
 facet normal  1.000000e+00  0.000000e+00  0.000000e+00
   outer loop
     vertex -2.594003e-01  1.484441e-01  8.816922e-01
     vertex -2.594003e-01  1.494441e-01  8.816922e-01
     vertex -2.594003e-01  1.489083e-01  8.836922e-01
   endloop
 endfacet
 facet normal  1.000000e+00 -0.000000e+00  0.000000e+00
   outer loop
     vertex -2.594003e-01  1.454441e-01  8.846922e-01
     vertex -2.594003e-01  1.489083e-01  8.836922e-01
     vertex -2.594003e-01  1.474441e-01  8.851563e-01
   endloop
 endfacet
 facet normal  1.000000e+00  0.000000e+00  0.000000e+00
   outer loop
     vertex -2.594003e-01  1.454441e-01  8.846922e-01
     vertex -2.594003e-01  1.474441e-01  8.851563e-01
     vertex -2.594003e-01  1.454441e-01  8.856922e-01
   endloop
 endfacet
 facet normal  1.000000e+00  0.000000e+00  0.000000e+00
   outer loop
     vertex -2.594003e-01  1.454441e-01  8.846922e-01
     vertex -2.594003e-01  1.484441e-01  8.816922e-01
     vertex -2.594003e-01  1.489083e-01  8.836922e-01
   endloop
 endfacet
 facet normal  1.000000e+00  0.000000e+00  0.000000e+00
   outer loop
     vertex -2.594003e-01  1.424441e-01  8.816922e-01
     vertex -2.594003e-01  1.454441e-01  8.846922e-01
     vertex -2.594003e-01  1.454441e-01  8.856922e-01
   endloop
 endfacet
 facet normal  1.000000e+00  0.000000e+00  0.000000e+00
   outer loop
     vertex -2.594003e-01  1.454441e-01  8.786922e-01
     vertex -2.594003e-01  1.494441e-01  8.816922e-01
     vertex -2.594003e-01  1.484441e-01  8.816922e-01
   endloop
 endfacet
 facet normal  1.000000e+00 -0.000000e+00  0.000000e+00
   outer loop
     vertex -2.594003e-01  1.454441e-01  8.286922e-01
     vertex -2.594003e-01  1.494441e-01  8.256922e-01
     vertex -2.594003e-01  1.494441e-01  8.816922e-01
   endloop
 endfacet
 facet normal  1.000000e+00  0.000000e+00  0.000000e+00
   outer loop
     vertex -2.594003e-01  1.454441e-01  8.286922e-01
     vertex -2.594003e-01  1.494441e-01  8.816922e-01
     vertex -2.594003e-01  1.454441e-01  8.786922e-01
   endloop
 endfacet
 facet normal  1.000000e+00  0.000000e+00 -0.000000e+00
   outer loop
     vertex -2.594003e-01  1.484441e-01  8.256922e-01
     vertex -2.594003e-01  1.494441e-01  8.256922e-01
     vertex -2.594003e-01  1.454441e-01  8.286922e-01
   endloop
 endfacet
 facet normal  1.000000e+00  0.000000e+00 -0.000000e+00
   outer loop
     vertex -2.594003e-01  1.489083e-01  8.236922e-01
     vertex -2.594003e-01  1.494441e-01  8.256922e-01
     vertex -2.594003e-01  1.484441e-01  8.256922e-01
   endloop
 endfacet
 facet normal  1.000000e+00  0.000000e+00  0.000000e+00
   outer loop
     vertex -2.594003e-01  1.424441e-01  8.256922e-01
     vertex -2.594003e-01  1.454441e-01  8.786922e-01
     vertex -2.594003e-01  1.424441e-01  8.816922e-01
   endloop
 endfacet
 facet normal  1.000000e+00  0.000000e+00  0.000000e+00
   outer loop
     vertex -2.594003e-01  1.424441e-01  8.256922e-01
     vertex -2.594003e-01  1.454441e-01  8.286922e-01
     vertex -2.594003e-01  1.454441e-01  8.786922e-01
   endloop
 endfacet
 facet normal  1.000000e+00 -0.000000e+00  0.000000e+00
   outer loop
     vertex -2.594003e-01  1.454441e-01  8.226922e-01
     vertex -2.594003e-01  1.474441e-01  8.222281e-01
     vertex -2.594003e-01  1.489083e-01  8.236922e-01
   endloop
 endfacet
 facet normal  1.000000e+00  0.000000e+00  0.000000e+00
   outer loop
     vertex -2.594003e-01  1.454441e-01  8.226922e-01
     vertex -2.594003e-01  1.489083e-01  8.236922e-01
     vertex -2.594003e-01  1.484441e-01  8.256922e-01
   endloop
 endfacet
 facet normal  1.000000e+00  0.000000e+00 -0.000000e+00
   outer loop
     vertex -2.594003e-01  1.454441e-01  8.216922e-01
     vertex -2.594003e-01  1.454441e-01  8.226922e-01
     vertex -2.594003e-01  1.424441e-01  8.256922e-01
   endloop
 endfacet
 facet normal  1.000000e+00  0.000000e+00  0.000000e+00
   outer loop
     vertex -2.594003e-01  1.454441e-01  8.216922e-01
     vertex -2.594003e-01  1.474441e-01  8.222281e-01
     vertex -2.594003e-01  1.454441e-01  8.226922e-01
   endloop
 endfacet
 facet normal  1.000000e+00  0.000000e+00  0.000000e+00
   outer loop
     vertex -2.594003e-01  3.444415e-02  8.816922e-01
     vertex -2.594003e-01  1.424441e-01  8.816922e-01
     vertex -2.594003e-01  1.454441e-01  8.856922e-01
   endloop
 endfacet
 facet normal  1.000000e+00 -0.000000e+00  0.000000e+00
   outer loop
     vertex -2.594003e-01  3.144415e-02  8.846922e-01
     vertex -2.594003e-01  3.444415e-02  8.816922e-01
     vertex -2.594003e-01  1.454441e-01  8.856922e-01
   endloop
 endfacet
 facet normal  1.000000e+00  0.000000e+00  0.000000e+00
   outer loop
     vertex -2.594003e-01  3.444415e-02  8.256922e-01
     vertex -2.594003e-01  1.424441e-01  8.256922e-01
     vertex -2.594003e-01  1.424441e-01  8.816922e-01
   endloop
 endfacet
 facet normal  1.000000e+00 -0.000000e+00  0.000000e+00
   outer loop
     vertex -2.594003e-01  3.444415e-02  8.256922e-01
     vertex -2.594003e-01  1.454441e-01  8.216922e-01
     vertex -2.594003e-01  1.424441e-01  8.256922e-01
   endloop
 endfacet
 facet normal  1.000000e+00  0.000000e+00  0.000000e+00
   outer loop
     vertex -2.594003e-01  3.444415e-02  8.256922e-01
     vertex -2.594003e-01  1.424441e-01  8.816922e-01
     vertex -2.594003e-01  3.444415e-02  8.816922e-01
   endloop
 endfacet
 facet normal  1.000000e+00  0.000000e+00  0.000000e+00
   outer loop
     vertex -2.594003e-01  3.144415e-02  8.286922e-01
     vertex -2.594003e-01  3.444415e-02  8.816922e-01
     vertex -2.594003e-01  3.144415e-02  8.786922e-01
   endloop
 endfacet
 facet normal  1.000000e+00 -0.000000e+00  0.000000e+00
   outer loop
     vertex -2.594003e-01  3.144415e-02  8.286922e-01
     vertex -2.594003e-01  3.444415e-02  8.256922e-01
     vertex -2.594003e-01  3.444415e-02  8.816922e-01
   endloop
 endfacet
 facet normal  1.000000e+00  0.000000e+00  0.000000e+00
   outer loop
     vertex -2.594003e-01  2.844415e-02  8.256922e-01
     vertex -2.594003e-01  3.144415e-02  8.786922e-01
     vertex -2.594003e-01  2.844415e-02  8.816922e-01
   endloop
 endfacet
 facet normal  1.000000e+00  0.000000e+00  0.000000e+00
   outer loop
     vertex -2.594003e-01  2.844415e-02  8.256922e-01
     vertex -2.594003e-01  3.144415e-02  8.286922e-01
     vertex -2.594003e-01  3.144415e-02  8.786922e-01
   endloop
 endfacet
 facet normal  1.000000e+00 -0.000000e+00  0.000000e+00
   outer loop
     vertex -2.594003e-01  3.144415e-02  8.226922e-01
     vertex -2.594003e-01  1.454441e-01  8.216922e-01
     vertex -2.594003e-01  3.444415e-02  8.256922e-01
   endloop
 endfacet
 facet normal  1.000000e+00  0.000000e+00  0.000000e+00
   outer loop
     vertex -2.594003e-01 -8.255585e-02  8.856922e-01
     vertex -2.594003e-01  2.844415e-02  8.816922e-01
     vertex -2.594003e-01  3.144415e-02  8.846922e-01
   endloop
 endfacet
 facet normal  1.000000e+00  0.000000e+00 -0.000000e+00
   outer loop
     vertex -2.594003e-01 -7.955585e-02  8.816922e-01
     vertex -2.594003e-01  2.844415e-02  8.816922e-01
     vertex -2.594003e-01 -8.255585e-02  8.856922e-01
   endloop
 endfacet
 facet normal  1.000000e+00 -0.000000e+00  0.000000e+00
   outer loop
     vertex -2.594003e-01 -8.255585e-02  8.846922e-01
     vertex -2.594003e-01 -7.955585e-02  8.816922e-01
     vertex -2.594003e-01 -8.255585e-02  8.856922e-01
   endloop
 endfacet
 facet normal  1.000000e+00 -0.000000e+00  0.000000e+00
   outer loop
     vertex -2.594003e-01 -8.455585e-02  8.851563e-01
     vertex -2.594003e-01 -8.255585e-02  8.846922e-01
     vertex -2.594003e-01 -8.255585e-02  8.856922e-01
   endloop
 endfacet
 facet normal  1.000000e+00  0.000000e+00 -0.000000e+00
   outer loop
     vertex -2.594003e-01 -8.555585e-02  8.816922e-01
     vertex -2.594003e-01 -8.455585e-02  8.851563e-01
     vertex -2.594003e-01 -8.601995e-02  8.836922e-01
   endloop
 endfacet
 facet normal  1.000000e+00  0.000000e+00  0.000000e+00
   outer loop
     vertex -2.594003e-01 -8.555585e-02  8.816922e-01
     vertex -2.594003e-01 -8.255585e-02  8.846922e-01
     vertex -2.594003e-01 -8.455585e-02  8.851563e-01
   endloop
 endfacet
 facet normal  1.000000e+00  0.000000e+00  0.000000e+00
   outer loop
     vertex -2.594003e-01 -8.655585e-02  8.816922e-01
     vertex -2.594003e-01 -8.555585e-02  8.816922e-01
     vertex -2.594003e-01 -8.601995e-02  8.836922e-01
   endloop
 endfacet
 facet normal  1.000000e+00 -0.000000e+00  0.000000e+00
   outer loop
     vertex -2.594003e-01 -8.655585e-02  8.816922e-01
     vertex -2.594003e-01 -8.255585e-02  8.786922e-01
     vertex -2.594003e-01 -8.555585e-02  8.816922e-01
   endloop
 endfacet
 facet normal  1.000000e+00  0.000000e+00  0.000000e+00
   outer loop
     vertex -2.594003e-01 -7.955585e-02  8.256922e-01
     vertex -2.594003e-01  2.844415e-02  8.256922e-01
     vertex -2.594003e-01  2.844415e-02  8.816922e-01
   endloop
 endfacet
 facet normal  1.000000e+00  0.000000e+00  0.000000e+00
   outer loop
     vertex -2.594003e-01 -7.955585e-02  8.256922e-01
     vertex -2.594003e-01  2.844415e-02  8.816922e-01
     vertex -2.594003e-01 -7.955585e-02  8.816922e-01
   endloop
 endfacet
 facet normal  1.000000e+00 -0.000000e+00  0.000000e+00
   outer loop
     vertex -2.594003e-01 -8.255585e-02  8.286922e-01
     vertex -2.594003e-01 -7.955585e-02  8.256922e-01
     vertex -2.594003e-01 -7.955585e-02  8.816922e-01
   endloop
 endfacet
 facet normal  1.000000e+00  0.000000e+00  0.000000e+00
   outer loop
     vertex -2.594003e-01 -8.255585e-02  8.286922e-01
     vertex -2.594003e-01 -7.955585e-02  8.816922e-01
     vertex -2.594003e-01 -8.255585e-02  8.786922e-01
   endloop
 endfacet
 facet normal  1.000000e+00  0.000000e+00  0.000000e+00
   outer loop
     vertex -2.594003e-01 -8.655585e-02  8.256922e-01
     vertex -2.594003e-01 -8.255585e-02  8.286922e-01
     vertex -2.594003e-01 -8.255585e-02  8.786922e-01
   endloop
 endfacet
 facet normal  1.000000e+00  0.000000e+00  0.000000e+00
   outer loop
     vertex -2.594003e-01 -8.655585e-02  8.256922e-01
     vertex -2.594003e-01 -8.255585e-02  8.786922e-01
     vertex -2.594003e-01 -8.655585e-02  8.816922e-01
   endloop
 endfacet
 facet normal  1.000000e+00  0.000000e+00  0.000000e+00
   outer loop
     vertex -2.594003e-01 -8.655585e-02  8.256922e-01
     vertex -2.594003e-01 -8.555585e-02  8.256922e-01
     vertex -2.594003e-01 -8.255585e-02  8.286922e-01
   endloop
 endfacet
 facet normal  1.000000e+00  0.000000e+00  0.000000e+00
   outer loop
     vertex -2.594003e-01 -8.255585e-02  8.216922e-01
     vertex -2.594003e-01  3.144415e-02  8.226922e-01
     vertex -2.594003e-01  2.844415e-02  8.256922e-01
   endloop
 endfacet
 facet normal  1.000000e+00  0.000000e+00  0.000000e+00
   outer loop
     vertex -2.594003e-01 -8.255585e-02  8.216922e-01
     vertex -2.594003e-01 -7.955585e-02  8.256922e-01
     vertex -2.594003e-01 -8.255585e-02  8.226922e-01
   endloop
 endfacet
 facet normal  1.000000e+00  0.000000e+00  0.000000e+00
   outer loop
     vertex -2.594003e-01 -8.255585e-02  8.216922e-01
     vertex -2.594003e-01  2.844415e-02  8.256922e-01
     vertex -2.594003e-01 -7.955585e-02  8.256922e-01
   endloop
 endfacet
 facet normal  1.000000e+00 -0.000000e+00  0.000000e+00
   outer loop
     vertex -2.594003e-01 -8.455585e-02  8.222281e-01
     vertex -2.594003e-01 -8.255585e-02  8.216922e-01
     vertex -2.594003e-01 -8.255585e-02  8.226922e-01
   endloop
 endfacet
 facet normal  1.000000e+00  0.000000e+00 -0.000000e+00
   outer loop
     vertex -2.594003e-01 -8.601995e-02  8.236922e-01
     vertex -2.594003e-01 -8.555585e-02  8.256922e-01
     vertex -2.594003e-01 -8.655585e-02  8.256922e-01
   endloop
 endfacet
 facet normal  1.000000e+00  0.000000e+00  0.000000e+00
   outer loop
     vertex -2.594003e-01 -8.601995e-02  8.236922e-01
     vertex -2.594003e-01 -8.455585e-02  8.222281e-01
     vertex -2.594003e-01 -8.255585e-02  8.226922e-01
   endloop
 endfacet
 facet normal  1.000000e+00 -0.000000e+00  0.000000e+00
   outer loop
     vertex -2.594003e-01 -8.601995e-02  8.236922e-01
     vertex -2.594003e-01 -8.255585e-02  8.226922e-01
     vertex -2.594003e-01 -8.555585e-02  8.256922e-01
   endloop
 endfacet
 facet normal  1.000000e+00  0.000000e+00  0.000000e+00
   outer loop
     vertex -2.594003e-01  1.454441e-01  8.856922e-01
     vertex -2.594003e-01 -8.255585e-02  8.856922e-01
     vertex -2.594003e-01  3.144415e-02  8.846922e-01
   endloop
 endfacet
 facet normal  1.000000e+00  0.000000e+00  0.000000e+00
   outer loop
     vertex -2.594003e-01 -8.255585e-02  8.216922e-01
     vertex -2.594003e-01  1.454441e-01  8.216922e-01
     vertex -2.594003e-01  3.144415e-02  8.226922e-01
   endloop
 endfacet
 facet normal  5.773503e-01 -5.773503e-01 -5.773503e-01
   outer loop
     vertex -2.594003e-01  1.454441e-01  8.286922e-01
     vertex -2.609003e-01  1.469441e-01  8.256922e-01
     vertex -2.594003e-01  1.484441e-01  8.256922e-01
   endloop
 endfacet
 facet normal  5.773503e-01 -5.773503e-01 -5.773503e-01
   outer loop
     vertex -2.594003e-01  1.454441e-01  8.286922e-01
     vertex -2.609003e-01  1.454441e-01  8.271922e-01
     vertex -2.609003e-01  1.469441e-01  8.256922e-01
   endloop
 endfacet
 facet normal  5.773503e-01  5.773503e-01 -5.773503e-01
   outer loop
     vertex -2.594003e-01  1.424441e-01  8.256922e-01
     vertex -2.609003e-01  1.439441e-01  8.256922e-01
     vertex -2.609003e-01  1.454441e-01  8.271922e-01
   endloop
 endfacet
 facet normal  5.773503e-01  5.773503e-01 -5.773503e-01
   outer loop
     vertex -2.594003e-01  1.424441e-01  8.256922e-01
     vertex -2.609003e-01  1.454441e-01  8.271922e-01
     vertex -2.594003e-01  1.454441e-01  8.286922e-01
   endloop
 endfacet
 facet normal  5.773503e-01  5.773503e-01  5.773503e-01
   outer loop
     vertex -2.594003e-01  1.454441e-01  8.226922e-01
     vertex -2.609003e-01  1.454441e-01  8.241922e-01
     vertex -2.609003e-01  1.439441e-01  8.256922e-01
   endloop
 endfacet
 facet normal  5.773503e-01  5.773503e-01  5.773503e-01
   outer loop
     vertex -2.594003e-01  1.454441e-01  8.226922e-01
     vertex -2.609003e-01  1.439441e-01  8.256922e-01
     vertex -2.594003e-01  1.424441e-01  8.256922e-01
   endloop
 endfacet
 facet normal  5.773503e-01 -5.773503e-01  5.773503e-01
   outer loop
     vertex -2.594003e-01  1.484441e-01  8.256922e-01
     vertex -2.609003e-01  1.469441e-01  8.256922e-01
     vertex -2.609003e-01  1.454441e-01  8.241922e-01
   endloop
 endfacet
 facet normal  5.773503e-01 -5.773503e-01  5.773503e-01
   outer loop
     vertex -2.594003e-01  1.484441e-01  8.256922e-01
     vertex -2.609003e-01  1.454441e-01  8.241922e-01
     vertex -2.594003e-01  1.454441e-01  8.226922e-01
   endloop
 endfacet
 facet normal  0.000000e+00 -7.071068e-01 -7.071068e-01
   outer loop
     vertex -2.609003e-01  1.454441e-01  8.271922e-01
     vertex -2.614003e-01  1.469441e-01  8.256922e-01
     vertex -2.609003e-01  1.469441e-01  8.256922e-01
   endloop
 endfacet
 facet normal -0.000000e+00 -7.071068e-01 -7.071068e-01
   outer loop
     vertex -2.609003e-01  1.454441e-01  8.271922e-01
     vertex -2.614003e-01  1.454441e-01  8.271922e-01
     vertex -2.614003e-01  1.469441e-01  8.256922e-01
   endloop
 endfacet
 facet normal  0.000000e+00  7.071068e-01 -7.071068e-01
   outer loop
     vertex -2.609003e-01  1.439441e-01  8.256922e-01
     vertex -2.614003e-01  1.439441e-01  8.256922e-01
     vertex -2.614003e-01  1.454441e-01  8.271922e-01
   endloop
 endfacet
 facet normal  0.000000e+00  7.071068e-01 -7.071068e-01
   outer loop
     vertex -2.609003e-01  1.439441e-01  8.256922e-01
     vertex -2.614003e-01  1.454441e-01  8.271922e-01
     vertex -2.609003e-01  1.454441e-01  8.271922e-01
   endloop
 endfacet
 facet normal  0.000000e+00  7.071068e-01  7.071068e-01
   outer loop
     vertex -2.609003e-01  1.454441e-01  8.241922e-01
     vertex -2.614003e-01  1.454441e-01  8.241922e-01
     vertex -2.614003e-01  1.439441e-01  8.256922e-01
   endloop
 endfacet
 facet normal  0.000000e+00  7.071068e-01  7.071068e-01
   outer loop
     vertex -2.609003e-01  1.454441e-01  8.241922e-01
     vertex -2.614003e-01  1.439441e-01  8.256922e-01
     vertex -2.609003e-01  1.439441e-01  8.256922e-01
   endloop
 endfacet
 facet normal  0.000000e+00 -7.071068e-01  7.071068e-01
   outer loop
     vertex -2.609003e-01  1.469441e-01  8.256922e-01
     vertex -2.614003e-01  1.469441e-01  8.256922e-01
     vertex -2.614003e-01  1.454441e-01  8.241922e-01
   endloop
 endfacet
 facet normal  0.000000e+00 -7.071068e-01  7.071068e-01
   outer loop
     vertex -2.609003e-01  1.469441e-01  8.256922e-01
     vertex -2.614003e-01  1.454441e-01  8.241922e-01
     vertex -2.609003e-01  1.454441e-01  8.241922e-01
   endloop
 endfacet
 facet normal  5.773503e-01 -5.773503e-01 -5.773503e-01
   outer loop
     vertex -2.594003e-01  3.144415e-02  8.286922e-01
     vertex -2.609003e-01  3.294415e-02  8.256922e-01
     vertex -2.594003e-01  3.444415e-02  8.256922e-01
   endloop
 endfacet
 facet normal  5.773503e-01 -5.773503e-01 -5.773503e-01
   outer loop
     vertex -2.594003e-01  3.144415e-02  8.286922e-01
     vertex -2.609003e-01  3.144415e-02  8.271922e-01
     vertex -2.609003e-01  3.294415e-02  8.256922e-01
   endloop
 endfacet
 facet normal  5.773503e-01  5.773503e-01 -5.773503e-01
   outer loop
     vertex -2.594003e-01  2.844415e-02  8.256922e-01
     vertex -2.609003e-01  2.994415e-02  8.256922e-01
     vertex -2.609003e-01  3.144415e-02  8.271922e-01
   endloop
 endfacet
 facet normal  5.773503e-01  5.773503e-01 -5.773503e-01
   outer loop
     vertex -2.594003e-01  2.844415e-02  8.256922e-01
     vertex -2.609003e-01  3.144415e-02  8.271922e-01
     vertex -2.594003e-01  3.144415e-02  8.286922e-01
   endloop
 endfacet
 facet normal  5.773503e-01  5.773503e-01  5.773503e-01
   outer loop
     vertex -2.594003e-01  3.144415e-02  8.226922e-01
     vertex -2.609003e-01  3.144415e-02  8.241922e-01
     vertex -2.609003e-01  2.994415e-02  8.256922e-01
   endloop
 endfacet
 facet normal  5.773503e-01  5.773503e-01  5.773503e-01
   outer loop
     vertex -2.594003e-01  3.144415e-02  8.226922e-01
     vertex -2.609003e-01  2.994415e-02  8.256922e-01
     vertex -2.594003e-01  2.844415e-02  8.256922e-01
   endloop
 endfacet
 facet normal  5.773503e-01 -5.773503e-01  5.773503e-01
   outer loop
     vertex -2.594003e-01  3.444415e-02  8.256922e-01
     vertex -2.609003e-01  3.294415e-02  8.256922e-01
     vertex -2.609003e-01  3.144415e-02  8.241922e-01
   endloop
 endfacet
 facet normal  5.773503e-01 -5.773503e-01  5.773503e-01
   outer loop
     vertex -2.594003e-01  3.444415e-02  8.256922e-01
     vertex -2.609003e-01  3.144415e-02  8.241922e-01
     vertex -2.594003e-01  3.144415e-02  8.226922e-01
   endloop
 endfacet
 facet normal  0.000000e+00 -7.071068e-01 -7.071068e-01
   outer loop
     vertex -2.609003e-01  3.144415e-02  8.271922e-01
     vertex -2.614003e-01  3.294415e-02  8.256922e-01
     vertex -2.609003e-01  3.294415e-02  8.256922e-01
   endloop
 endfacet
 facet normal -0.000000e+00 -7.071068e-01 -7.071068e-01
   outer loop
     vertex -2.609003e-01  3.144415e-02  8.271922e-01
     vertex -2.614003e-01  3.144415e-02  8.271922e-01
     vertex -2.614003e-01  3.294415e-02  8.256922e-01
   endloop
 endfacet
 facet normal  0.000000e+00  7.071068e-01 -7.071068e-01
   outer loop
     vertex -2.609003e-01  2.994415e-02  8.256922e-01
     vertex -2.614003e-01  2.994415e-02  8.256922e-01
     vertex -2.614003e-01  3.144415e-02  8.271922e-01
   endloop
 endfacet
 facet normal  0.000000e+00  7.071068e-01 -7.071068e-01
   outer loop
     vertex -2.609003e-01  2.994415e-02  8.256922e-01
     vertex -2.614003e-01  3.144415e-02  8.271922e-01
     vertex -2.609003e-01  3.144415e-02  8.271922e-01
   endloop
 endfacet
 facet normal  0.000000e+00  7.071068e-01  7.071068e-01
   outer loop
     vertex -2.609003e-01  3.144415e-02  8.241922e-01
     vertex -2.614003e-01  3.144415e-02  8.241922e-01
     vertex -2.614003e-01  2.994415e-02  8.256922e-01
   endloop
 endfacet
 facet normal  0.000000e+00  7.071068e-01  7.071068e-01
   outer loop
     vertex -2.609003e-01  3.144415e-02  8.241922e-01
     vertex -2.614003e-01  2.994415e-02  8.256922e-01
     vertex -2.609003e-01  2.994415e-02  8.256922e-01
   endloop
 endfacet
 facet normal  0.000000e+00 -7.071068e-01  7.071068e-01
   outer loop
     vertex -2.609003e-01  3.294415e-02  8.256922e-01
     vertex -2.614003e-01  3.294415e-02  8.256922e-01
     vertex -2.614003e-01  3.144415e-02  8.241922e-01
   endloop
 endfacet
 facet normal  0.000000e+00 -7.071068e-01  7.071068e-01
   outer loop
     vertex -2.609003e-01  3.294415e-02  8.256922e-01
     vertex -2.614003e-01  3.144415e-02  8.241922e-01
     vertex -2.609003e-01  3.144415e-02  8.241922e-01
   endloop
 endfacet
 facet normal  5.773503e-01 -5.773503e-01 -5.773503e-01
   outer loop
     vertex -2.594003e-01 -8.255585e-02  8.286922e-01
     vertex -2.609003e-01 -8.105585e-02  8.256922e-01
     vertex -2.594003e-01 -7.955585e-02  8.256922e-01
   endloop
 endfacet
 facet normal  5.773503e-01 -5.773503e-01 -5.773503e-01
   outer loop
     vertex -2.594003e-01 -8.255585e-02  8.286922e-01
     vertex -2.609003e-01 -8.255585e-02  8.271922e-01
     vertex -2.609003e-01 -8.105585e-02  8.256922e-01
   endloop
 endfacet
 facet normal  5.773503e-01  5.773503e-01 -5.773503e-01
   outer loop
     vertex -2.594003e-01 -8.555585e-02  8.256922e-01
     vertex -2.609003e-01 -8.405585e-02  8.256922e-01
     vertex -2.609003e-01 -8.255585e-02  8.271922e-01
   endloop
 endfacet
 facet normal  5.773503e-01  5.773503e-01 -5.773503e-01
   outer loop
     vertex -2.594003e-01 -8.555585e-02  8.256922e-01
     vertex -2.609003e-01 -8.255585e-02  8.271922e-01
     vertex -2.594003e-01 -8.255585e-02  8.286922e-01
   endloop
 endfacet
 facet normal  5.773503e-01  5.773503e-01  5.773503e-01
   outer loop
     vertex -2.594003e-01 -8.255585e-02  8.226922e-01
     vertex -2.609003e-01 -8.255585e-02  8.241922e-01
     vertex -2.609003e-01 -8.405585e-02  8.256922e-01
   endloop
 endfacet
 facet normal  5.773503e-01  5.773503e-01  5.773503e-01
   outer loop
     vertex -2.594003e-01 -8.255585e-02  8.226922e-01
     vertex -2.609003e-01 -8.405585e-02  8.256922e-01
     vertex -2.594003e-01 -8.555585e-02  8.256922e-01
   endloop
 endfacet
 facet normal  5.773503e-01 -5.773503e-01  5.773503e-01
   outer loop
     vertex -2.594003e-01 -7.955585e-02  8.256922e-01
     vertex -2.609003e-01 -8.105585e-02  8.256922e-01
     vertex -2.609003e-01 -8.255585e-02  8.241922e-01
   endloop
 endfacet
 facet normal  5.773503e-01 -5.773503e-01  5.773503e-01
   outer loop
     vertex -2.594003e-01 -7.955585e-02  8.256922e-01
     vertex -2.609003e-01 -8.255585e-02  8.241922e-01
     vertex -2.594003e-01 -8.255585e-02  8.226922e-01
   endloop
 endfacet
 facet normal  0.000000e+00 -7.071068e-01 -7.071068e-01
   outer loop
     vertex -2.609003e-01 -8.255585e-02  8.271922e-01
     vertex -2.614003e-01 -8.105585e-02  8.256922e-01
     vertex -2.609003e-01 -8.105585e-02  8.256922e-01
   endloop
 endfacet
 facet normal -0.000000e+00 -7.071068e-01 -7.071068e-01
   outer loop
     vertex -2.609003e-01 -8.255585e-02  8.271922e-01
     vertex -2.614003e-01 -8.255585e-02  8.271922e-01
     vertex -2.614003e-01 -8.105585e-02  8.256922e-01
   endloop
 endfacet
 facet normal  0.000000e+00  7.071068e-01 -7.071068e-01
   outer loop
     vertex -2.609003e-01 -8.405585e-02  8.256922e-01
     vertex -2.614003e-01 -8.405585e-02  8.256922e-01
     vertex -2.614003e-01 -8.255585e-02  8.271922e-01
   endloop
 endfacet
 facet normal  0.000000e+00  7.071068e-01 -7.071068e-01
   outer loop
     vertex -2.609003e-01 -8.405585e-02  8.256922e-01
     vertex -2.614003e-01 -8.255585e-02  8.271922e-01
     vertex -2.609003e-01 -8.255585e-02  8.271922e-01
   endloop
 endfacet
 facet normal  0.000000e+00  7.071068e-01  7.071068e-01
   outer loop
     vertex -2.609003e-01 -8.255585e-02  8.241922e-01
     vertex -2.614003e-01 -8.255585e-02  8.241922e-01
     vertex -2.614003e-01 -8.405585e-02  8.256922e-01
   endloop
 endfacet
 facet normal  0.000000e+00  7.071068e-01  7.071068e-01
   outer loop
     vertex -2.609003e-01 -8.255585e-02  8.241922e-01
     vertex -2.614003e-01 -8.405585e-02  8.256922e-01
     vertex -2.609003e-01 -8.405585e-02  8.256922e-01
   endloop
 endfacet
 facet normal  0.000000e+00 -7.071068e-01  7.071068e-01
   outer loop
     vertex -2.609003e-01 -8.105585e-02  8.256922e-01
     vertex -2.614003e-01 -8.105585e-02  8.256922e-01
     vertex -2.614003e-01 -8.255585e-02  8.241922e-01
   endloop
 endfacet
 facet normal  0.000000e+00 -7.071068e-01  7.071068e-01
   outer loop
     vertex -2.609003e-01 -8.105585e-02  8.256922e-01
     vertex -2.614003e-01 -8.255585e-02  8.241922e-01
     vertex -2.609003e-01 -8.255585e-02  8.241922e-01
   endloop
 endfacet
 facet normal  5.773503e-01 -5.773503e-01 -5.773503e-01
   outer loop
     vertex -2.594003e-01 -8.255585e-02  8.846922e-01
     vertex -2.609003e-01 -8.105585e-02  8.816922e-01
     vertex -2.594003e-01 -7.955585e-02  8.816922e-01
   endloop
 endfacet
 facet normal  5.773503e-01 -5.773503e-01 -5.773503e-01
   outer loop
     vertex -2.594003e-01 -8.255585e-02  8.846922e-01
     vertex -2.609003e-01 -8.255585e-02  8.831922e-01
     vertex -2.609003e-01 -8.105585e-02  8.816922e-01
   endloop
 endfacet
 facet normal  5.773503e-01  5.773503e-01 -5.773503e-01
   outer loop
     vertex -2.594003e-01 -8.555585e-02  8.816922e-01
     vertex -2.609003e-01 -8.405585e-02  8.816922e-01
     vertex -2.609003e-01 -8.255585e-02  8.831922e-01
   endloop
 endfacet
 facet normal  5.773503e-01  5.773503e-01 -5.773503e-01
   outer loop
     vertex -2.594003e-01 -8.555585e-02  8.816922e-01
     vertex -2.609003e-01 -8.255585e-02  8.831922e-01
     vertex -2.594003e-01 -8.255585e-02  8.846922e-01
   endloop
 endfacet
 facet normal  5.773503e-01  5.773503e-01  5.773503e-01
   outer loop
     vertex -2.594003e-01 -8.255585e-02  8.786922e-01
     vertex -2.609003e-01 -8.255585e-02  8.801922e-01
     vertex -2.609003e-01 -8.405585e-02  8.816922e-01
   endloop
 endfacet
 facet normal  5.773503e-01  5.773503e-01  5.773503e-01
   outer loop
     vertex -2.594003e-01 -8.255585e-02  8.786922e-01
     vertex -2.609003e-01 -8.405585e-02  8.816922e-01
     vertex -2.594003e-01 -8.555585e-02  8.816922e-01
   endloop
 endfacet
 facet normal  5.773503e-01 -5.773503e-01  5.773503e-01
   outer loop
     vertex -2.594003e-01 -7.955585e-02  8.816922e-01
     vertex -2.609003e-01 -8.105585e-02  8.816922e-01
     vertex -2.609003e-01 -8.255585e-02  8.801922e-01
   endloop
 endfacet
 facet normal  5.773503e-01 -5.773503e-01  5.773503e-01
   outer loop
     vertex -2.594003e-01 -7.955585e-02  8.816922e-01
     vertex -2.609003e-01 -8.255585e-02  8.801922e-01
     vertex -2.594003e-01 -8.255585e-02  8.786922e-01
   endloop
 endfacet
 facet normal  0.000000e+00 -7.071068e-01 -7.071068e-01
   outer loop
     vertex -2.609003e-01 -8.255585e-02  8.831922e-01
     vertex -2.614003e-01 -8.105585e-02  8.816922e-01
     vertex -2.609003e-01 -8.105585e-02  8.816922e-01
   endloop
 endfacet
 facet normal -0.000000e+00 -7.071068e-01 -7.071068e-01
   outer loop
     vertex -2.609003e-01 -8.255585e-02  8.831922e-01
     vertex -2.614003e-01 -8.255585e-02  8.831922e-01
     vertex -2.614003e-01 -8.105585e-02  8.816922e-01
   endloop
 endfacet
 facet normal  0.000000e+00  7.071068e-01 -7.071068e-01
   outer loop
     vertex -2.609003e-01 -8.405585e-02  8.816922e-01
     vertex -2.614003e-01 -8.405585e-02  8.816922e-01
     vertex -2.614003e-01 -8.255585e-02  8.831922e-01
   endloop
 endfacet
 facet normal  0.000000e+00  7.071068e-01 -7.071068e-01
   outer loop
     vertex -2.609003e-01 -8.405585e-02  8.816922e-01
     vertex -2.614003e-01 -8.255585e-02  8.831922e-01
     vertex -2.609003e-01 -8.255585e-02  8.831922e-01
   endloop
 endfacet
 facet normal  0.000000e+00  7.071068e-01  7.071068e-01
   outer loop
     vertex -2.609003e-01 -8.255585e-02  8.801922e-01
     vertex -2.614003e-01 -8.255585e-02  8.801922e-01
     vertex -2.614003e-01 -8.405585e-02  8.816922e-01
   endloop
 endfacet
 facet normal  0.000000e+00  7.071068e-01  7.071068e-01
   outer loop
     vertex -2.609003e-01 -8.255585e-02  8.801922e-01
     vertex -2.614003e-01 -8.405585e-02  8.816922e-01
     vertex -2.609003e-01 -8.405585e-02  8.816922e-01
   endloop
 endfacet
 facet normal  0.000000e+00 -7.071068e-01  7.071068e-01
   outer loop
     vertex -2.609003e-01 -8.105585e-02  8.816922e-01
     vertex -2.614003e-01 -8.105585e-02  8.816922e-01
     vertex -2.614003e-01 -8.255585e-02  8.801922e-01
   endloop
 endfacet
 facet normal  0.000000e+00 -7.071068e-01  7.071068e-01
   outer loop
     vertex -2.609003e-01 -8.105585e-02  8.816922e-01
     vertex -2.614003e-01 -8.255585e-02  8.801922e-01
     vertex -2.609003e-01 -8.255585e-02  8.801922e-01
   endloop
 endfacet
 facet normal  5.773503e-01 -5.773503e-01 -5.773503e-01
   outer loop
     vertex -2.594003e-01  3.144415e-02  8.846922e-01
     vertex -2.609003e-01  3.294415e-02  8.816922e-01
     vertex -2.594003e-01  3.444415e-02  8.816922e-01
   endloop
 endfacet
 facet normal  5.773503e-01 -5.773503e-01 -5.773503e-01
   outer loop
     vertex -2.594003e-01  3.144415e-02  8.846922e-01
     vertex -2.609003e-01  3.144415e-02  8.831922e-01
     vertex -2.609003e-01  3.294415e-02  8.816922e-01
   endloop
 endfacet
 facet normal  5.773503e-01  5.773503e-01 -5.773503e-01
   outer loop
     vertex -2.594003e-01  2.844415e-02  8.816922e-01
     vertex -2.609003e-01  2.994415e-02  8.816922e-01
     vertex -2.609003e-01  3.144415e-02  8.831922e-01
   endloop
 endfacet
 facet normal  5.773503e-01  5.773503e-01 -5.773503e-01
   outer loop
     vertex -2.594003e-01  2.844415e-02  8.816922e-01
     vertex -2.609003e-01  3.144415e-02  8.831922e-01
     vertex -2.594003e-01  3.144415e-02  8.846922e-01
   endloop
 endfacet
 facet normal  5.773503e-01  5.773503e-01  5.773503e-01
   outer loop
     vertex -2.594003e-01  3.144415e-02  8.786922e-01
     vertex -2.609003e-01  3.144415e-02  8.801922e-01
     vertex -2.609003e-01  2.994415e-02  8.816922e-01
   endloop
 endfacet
 facet normal  5.773503e-01  5.773503e-01  5.773503e-01
   outer loop
     vertex -2.594003e-01  3.144415e-02  8.786922e-01
     vertex -2.609003e-01  2.994415e-02  8.816922e-01
     vertex -2.594003e-01  2.844415e-02  8.816922e-01
   endloop
 endfacet
 facet normal  5.773503e-01 -5.773503e-01  5.773503e-01
   outer loop
     vertex -2.594003e-01  3.444415e-02  8.816922e-01
     vertex -2.609003e-01  3.294415e-02  8.816922e-01
     vertex -2.609003e-01  3.144415e-02  8.801922e-01
   endloop
 endfacet
 facet normal  5.773503e-01 -5.773503e-01  5.773503e-01
   outer loop
     vertex -2.594003e-01  3.444415e-02  8.816922e-01
     vertex -2.609003e-01  3.144415e-02  8.801922e-01
     vertex -2.594003e-01  3.144415e-02  8.786922e-01
   endloop
 endfacet
 facet normal  0.000000e+00 -7.071068e-01 -7.071068e-01
   outer loop
     vertex -2.609003e-01  3.144415e-02  8.831922e-01
     vertex -2.614003e-01  3.294415e-02  8.816922e-01
     vertex -2.609003e-01  3.294415e-02  8.816922e-01
   endloop
 endfacet
 facet normal -0.000000e+00 -7.071068e-01 -7.071068e-01
   outer loop
     vertex -2.609003e-01  3.144415e-02  8.831922e-01
     vertex -2.614003e-01  3.144415e-02  8.831922e-01
     vertex -2.614003e-01  3.294415e-02  8.816922e-01
   endloop
 endfacet
 facet normal  0.000000e+00  7.071068e-01 -7.071068e-01
   outer loop
     vertex -2.609003e-01  2.994415e-02  8.816922e-01
     vertex -2.614003e-01  2.994415e-02  8.816922e-01
     vertex -2.614003e-01  3.144415e-02  8.831922e-01
   endloop
 endfacet
 facet normal  0.000000e+00  7.071068e-01 -7.071068e-01
   outer loop
     vertex -2.609003e-01  2.994415e-02  8.816922e-01
     vertex -2.614003e-01  3.144415e-02  8.831922e-01
     vertex -2.609003e-01  3.144415e-02  8.831922e-01
   endloop
 endfacet
 facet normal  0.000000e+00  7.071068e-01  7.071068e-01
   outer loop
     vertex -2.609003e-01  3.144415e-02  8.801922e-01
     vertex -2.614003e-01  3.144415e-02  8.801922e-01
     vertex -2.614003e-01  2.994415e-02  8.816922e-01
   endloop
 endfacet
 facet normal  0.000000e+00  7.071068e-01  7.071068e-01
   outer loop
     vertex -2.609003e-01  3.144415e-02  8.801922e-01
     vertex -2.614003e-01  2.994415e-02  8.816922e-01
     vertex -2.609003e-01  2.994415e-02  8.816922e-01
   endloop
 endfacet
 facet normal  0.000000e+00 -7.071068e-01  7.071068e-01
   outer loop
     vertex -2.609003e-01  3.294415e-02  8.816922e-01
     vertex -2.614003e-01  3.294415e-02  8.816922e-01
     vertex -2.614003e-01  3.144415e-02  8.801922e-01
   endloop
 endfacet
 facet normal  0.000000e+00 -7.071068e-01  7.071068e-01
   outer loop
     vertex -2.609003e-01  3.294415e-02  8.816922e-01
     vertex -2.614003e-01  3.144415e-02  8.801922e-01
     vertex -2.609003e-01  3.144415e-02  8.801922e-01
   endloop
 endfacet
 facet normal  5.773503e-01 -5.773503e-01 -5.773503e-01
   outer loop
     vertex -2.594003e-01  1.454441e-01  8.846922e-01
     vertex -2.609003e-01  1.469441e-01  8.816922e-01
     vertex -2.594003e-01  1.484441e-01  8.816922e-01
   endloop
 endfacet
 facet normal  5.773503e-01 -5.773503e-01 -5.773503e-01
   outer loop
     vertex -2.594003e-01  1.454441e-01  8.846922e-01
     vertex -2.609003e-01  1.454441e-01  8.831922e-01
     vertex -2.609003e-01  1.469441e-01  8.816922e-01
   endloop
 endfacet
 facet normal  5.773503e-01  5.773503e-01 -5.773503e-01
   outer loop
     vertex -2.594003e-01  1.424441e-01  8.816922e-01
     vertex -2.609003e-01  1.439441e-01  8.816922e-01
     vertex -2.609003e-01  1.454441e-01  8.831922e-01
   endloop
 endfacet
 facet normal  5.773503e-01  5.773503e-01 -5.773503e-01
   outer loop
     vertex -2.594003e-01  1.424441e-01  8.816922e-01
     vertex -2.609003e-01  1.454441e-01  8.831922e-01
     vertex -2.594003e-01  1.454441e-01  8.846922e-01
   endloop
 endfacet
 facet normal  5.773503e-01  5.773503e-01  5.773503e-01
   outer loop
     vertex -2.594003e-01  1.454441e-01  8.786922e-01
     vertex -2.609003e-01  1.454441e-01  8.801922e-01
     vertex -2.609003e-01  1.439441e-01  8.816922e-01
   endloop
 endfacet
 facet normal  5.773503e-01  5.773503e-01  5.773503e-01
   outer loop
     vertex -2.594003e-01  1.454441e-01  8.786922e-01
     vertex -2.609003e-01  1.439441e-01  8.816922e-01
     vertex -2.594003e-01  1.424441e-01  8.816922e-01
   endloop
 endfacet
 facet normal  5.773503e-01 -5.773503e-01  5.773503e-01
   outer loop
     vertex -2.594003e-01  1.484441e-01  8.816922e-01
     vertex -2.609003e-01  1.469441e-01  8.816922e-01
     vertex -2.609003e-01  1.454441e-01  8.801922e-01
   endloop
 endfacet
 facet normal  5.773503e-01 -5.773503e-01  5.773503e-01
   outer loop
     vertex -2.594003e-01  1.484441e-01  8.816922e-01
     vertex -2.609003e-01  1.454441e-01  8.801922e-01
     vertex -2.594003e-01  1.454441e-01  8.786922e-01
   endloop
 endfacet
 facet normal  0.000000e+00 -7.071068e-01 -7.071068e-01
   outer loop
     vertex -2.609003e-01  1.454441e-01  8.831922e-01
     vertex -2.614003e-01  1.469441e-01  8.816922e-01
     vertex -2.609003e-01  1.469441e-01  8.816922e-01
   endloop
 endfacet
 facet normal -0.000000e+00 -7.071068e-01 -7.071068e-01
   outer loop
     vertex -2.609003e-01  1.454441e-01  8.831922e-01
     vertex -2.614003e-01  1.454441e-01  8.831922e-01
     vertex -2.614003e-01  1.469441e-01  8.816922e-01
   endloop
 endfacet
 facet normal  0.000000e+00  7.071068e-01 -7.071068e-01
   outer loop
     vertex -2.609003e-01  1.439441e-01  8.816922e-01
     vertex -2.614003e-01  1.439441e-01  8.816922e-01
     vertex -2.614003e-01  1.454441e-01  8.831922e-01
   endloop
 endfacet
 facet normal  0.000000e+00  7.071068e-01 -7.071068e-01
   outer loop
     vertex -2.609003e-01  1.439441e-01  8.816922e-01
     vertex -2.614003e-01  1.454441e-01  8.831922e-01
     vertex -2.609003e-01  1.454441e-01  8.831922e-01
   endloop
 endfacet
 facet normal  0.000000e+00  7.071068e-01  7.071068e-01
   outer loop
     vertex -2.609003e-01  1.454441e-01  8.801922e-01
     vertex -2.614003e-01  1.454441e-01  8.801922e-01
     vertex -2.614003e-01  1.439441e-01  8.816922e-01
   endloop
 endfacet
 facet normal  0.000000e+00  7.071068e-01  7.071068e-01
   outer loop
     vertex -2.609003e-01  1.454441e-01  8.801922e-01
     vertex -2.614003e-01  1.439441e-01  8.816922e-01
     vertex -2.609003e-01  1.439441e-01  8.816922e-01
   endloop
 endfacet
 facet normal  0.000000e+00 -7.071068e-01  7.071068e-01
   outer loop
     vertex -2.609003e-01  1.469441e-01  8.816922e-01
     vertex -2.614003e-01  1.469441e-01  8.816922e-01
     vertex -2.614003e-01  1.454441e-01  8.801922e-01
   endloop
 endfacet
 facet normal  0.000000e+00 -7.071068e-01  7.071068e-01
   outer loop
     vertex -2.609003e-01  1.469441e-01  8.816922e-01
     vertex -2.614003e-01  1.454441e-01  8.801922e-01
     vertex -2.609003e-01  1.454441e-01  8.801922e-01
   endloop
 endfacet
endsolid
