solid 
 facet normal  0.000000e+00  1.000000e+00  0.000000e+00
   outer loop
     vertex  1.535997e-01  2.144441e-01  8.831922e-01
     vertex  1.535997e-01  2.144441e-01  8.856922e-01
     vertex  1.555997e-01  2.144441e-01  8.851563e-01
   endloop
 endfacet
 facet normal  0.000000e+00  1.000000e+00  0.000000e+00
   outer loop
     vertex  1.550997e-01  2.144441e-01  8.816922e-01
     vertex  1.570638e-01  2.144441e-01  8.836922e-01
     vertex  1.575997e-01  2.144441e-01  8.816922e-01
   endloop
 endfacet
 facet normal  0.000000e+00  1.000000e+00  0.000000e+00
   outer loop
     vertex  1.550997e-01  2.144441e-01  8.816922e-01
     vertex  1.555997e-01  2.144441e-01  8.851563e-01
     vertex  1.570638e-01  2.144441e-01  8.836922e-01
   endloop
 endfacet
 facet normal  0.000000e+00  1.000000e+00 -0.000000e+00
   outer loop
     vertex  1.550997e-01  2.144441e-01  8.816922e-01
     vertex  1.535997e-01  2.144441e-01  8.831922e-01
     vertex  1.555997e-01  2.144441e-01  8.851563e-01
   endloop
 endfacet
 facet normal  0.000000e+00  1.000000e+00  0.000000e+00
   outer loop
     vertex  1.520997e-01  2.144441e-01  8.816922e-01
     vertex  1.535997e-01  2.144441e-01  8.856922e-01
     vertex  1.535997e-01  2.144441e-01  8.831922e-01
   endloop
 endfacet
 facet normal  0.000000e+00  1.000000e+00  0.000000e+00
   outer loop
     vertex  1.535997e-01  2.144441e-01  8.801922e-01
     vertex  1.550997e-01  2.144441e-01  8.816922e-01
     vertex  1.575997e-01  2.144441e-01  8.816922e-01
   endloop
 endfacet
 facet normal  0.000000e+00  1.000000e+00 -0.000000e+00
   outer loop
     vertex  1.575997e-01  2.144441e-01  8.256922e-01
     vertex  1.535997e-01  2.144441e-01  8.801922e-01
     vertex  1.575997e-01  2.144441e-01  8.816922e-01
   endloop
 endfacet
 facet normal -0.000000e+00  1.000000e+00  0.000000e+00
   outer loop
     vertex  1.535997e-01  2.144441e-01  8.271922e-01
     vertex  1.535997e-01  2.144441e-01  8.801922e-01
     vertex  1.575997e-01  2.144441e-01  8.256922e-01
   endloop
 endfacet
 facet normal  0.000000e+00  1.000000e+00 -0.000000e+00
   outer loop
     vertex  1.550997e-01  2.144441e-01  8.256922e-01
     vertex  1.535997e-01  2.144441e-01  8.271922e-01
     vertex  1.575997e-01  2.144441e-01  8.256922e-01
   endloop
 endfacet
 facet normal  0.000000e+00  1.000000e+00 -0.000000e+00
   outer loop
     vertex  1.570638e-01  2.144441e-01  8.236922e-01
     vertex  1.550997e-01  2.144441e-01  8.256922e-01
     vertex  1.575997e-01  2.144441e-01  8.256922e-01
   endloop
 endfacet
 facet normal  0.000000e+00  1.000000e+00  0.000000e+00
   outer loop
     vertex  1.520997e-01  2.144441e-01  8.256922e-01
     vertex  1.520997e-01  2.144441e-01  8.816922e-01
     vertex  1.535997e-01  2.144441e-01  8.801922e-01
   endloop
 endfacet
 facet normal  0.000000e+00  1.000000e+00  0.000000e+00
   outer loop
     vertex  1.520997e-01  2.144441e-01  8.256922e-01
     vertex  1.535997e-01  2.144441e-01  8.801922e-01
     vertex  1.535997e-01  2.144441e-01  8.271922e-01
   endloop
 endfacet
 facet normal  0.000000e+00  1.000000e+00  0.000000e+00
   outer loop
     vertex  1.535997e-01  2.144441e-01  8.241922e-01
     vertex  1.570638e-01  2.144441e-01  8.236922e-01
     vertex  1.555997e-01  2.144441e-01  8.222281e-01
   endloop
 endfacet
 facet normal -0.000000e+00  1.000000e+00  0.000000e+00
   outer loop
     vertex  1.535997e-01  2.144441e-01  8.241922e-01
     vertex  1.550997e-01  2.144441e-01  8.256922e-01
     vertex  1.570638e-01  2.144441e-01  8.236922e-01
   endloop
 endfacet
 facet normal  0.000000e+00  1.000000e+00 -0.000000e+00
   outer loop
     vertex  1.535997e-01  2.144441e-01  8.216922e-01
     vertex  1.520997e-01  2.144441e-01  8.256922e-01
     vertex  1.535997e-01  2.144441e-01  8.241922e-01
   endloop
 endfacet
 facet normal  0.000000e+00  1.000000e+00  0.000000e+00
   outer loop
     vertex  1.535997e-01  2.144441e-01  8.216922e-01
     vertex  1.535997e-01  2.144441e-01  8.241922e-01
     vertex  1.555997e-01  2.144441e-01  8.222281e-01
   endloop
 endfacet
 facet normal  0.000000e+00  1.000000e+00  0.000000e+00
   outer loop
     vertex  4.109973e-02  2.144441e-01  8.816922e-01
     vertex  1.535997e-01  2.144441e-01  8.856922e-01
     vertex  1.520997e-01  2.144441e-01  8.816922e-01
   endloop
 endfacet
 facet normal -0.000000e+00  1.000000e+00  0.000000e+00
   outer loop
     vertex  3.959973e-02  2.144441e-01  8.831922e-01
     vertex  1.535997e-01  2.144441e-01  8.856922e-01
     vertex  4.109973e-02  2.144441e-01  8.816922e-01
   endloop
 endfacet
 facet normal  0.000000e+00  1.000000e+00  0.000000e+00
   outer loop
     vertex  4.109973e-02  2.144441e-01  8.256922e-01
     vertex  1.520997e-01  2.144441e-01  8.816922e-01
     vertex  1.520997e-01  2.144441e-01  8.256922e-01
   endloop
 endfacet
 facet normal -0.000000e+00  1.000000e+00  0.000000e+00
   outer loop
     vertex  4.109973e-02  2.144441e-01  8.256922e-01
     vertex  1.520997e-01  2.144441e-01  8.256922e-01
     vertex  1.535997e-01  2.144441e-01  8.216922e-01
   endloop
 endfacet
 facet normal  0.000000e+00  1.000000e+00  0.000000e+00
   outer loop
     vertex  4.109973e-02  2.144441e-01  8.256922e-01
     vertex  4.109973e-02  2.144441e-01  8.816922e-01
     vertex  1.520997e-01  2.144441e-01  8.816922e-01
   endloop
 endfacet
 facet normal  0.000000e+00  1.000000e+00  0.000000e+00
   outer loop
     vertex  3.959973e-02  2.144441e-01  8.271922e-01
     vertex  3.959973e-02  2.144441e-01  8.801922e-01
     vertex  4.109973e-02  2.144441e-01  8.816922e-01
   endloop
 endfacet
 facet normal -0.000000e+00  1.000000e+00  0.000000e+00
   outer loop
     vertex  3.959973e-02  2.144441e-01  8.271922e-01
     vertex  4.109973e-02  2.144441e-01  8.816922e-01
     vertex  4.109973e-02  2.144441e-01  8.256922e-01
   endloop
 endfacet
 facet normal  0.000000e+00  1.000000e+00  0.000000e+00
   outer loop
     vertex  3.809973e-02  2.144441e-01  8.256922e-01
     vertex  3.809973e-02  2.144441e-01  8.816922e-01
     vertex  3.959973e-02  2.144441e-01  8.801922e-01
   endloop
 endfacet
 facet normal  0.000000e+00  1.000000e+00  0.000000e+00
   outer loop
     vertex  3.809973e-02  2.144441e-01  8.256922e-01
     vertex  3.959973e-02  2.144441e-01  8.801922e-01
     vertex  3.959973e-02  2.144441e-01  8.271922e-01
   endloop
 endfacet
 facet normal -0.000000e+00  1.000000e+00  0.000000e+00
   outer loop
     vertex  3.959973e-02  2.144441e-01  8.241922e-01
     vertex  4.109973e-02  2.144441e-01  8.256922e-01
     vertex  1.535997e-01  2.144441e-01  8.216922e-01
   endloop
 endfacet
 facet normal  0.000000e+00  1.000000e+00  0.000000e+00
   outer loop
     vertex -7.440027e-02  2.144441e-01  8.856922e-01
     vertex  3.959973e-02  2.144441e-01  8.831922e-01
     vertex  3.809973e-02  2.144441e-01  8.816922e-01
   endloop
 endfacet
 facet normal  0.000000e+00  1.000000e+00 -0.000000e+00
   outer loop
     vertex -7.290027e-02  2.144441e-01  8.816922e-01
     vertex -7.440027e-02  2.144441e-01  8.856922e-01
     vertex  3.809973e-02  2.144441e-01  8.816922e-01
   endloop
 endfacet
 facet normal -0.000000e+00  1.000000e+00  0.000000e+00
   outer loop
     vertex -7.440027e-02  2.144441e-01  8.831922e-01
     vertex -7.440027e-02  2.144441e-01  8.856922e-01
     vertex -7.290027e-02  2.144441e-01  8.816922e-01
   endloop
 endfacet
 facet normal -0.000000e+00  1.000000e+00  0.000000e+00
   outer loop
     vertex -7.640027e-02  2.144441e-01  8.851563e-01
     vertex -7.440027e-02  2.144441e-01  8.856922e-01
     vertex -7.440027e-02  2.144441e-01  8.831922e-01
   endloop
 endfacet
 facet normal  0.000000e+00  1.000000e+00 -0.000000e+00
   outer loop
     vertex -7.590027e-02  2.144441e-01  8.816922e-01
     vertex -7.640027e-02  2.144441e-01  8.851563e-01
     vertex -7.440027e-02  2.144441e-01  8.831922e-01
   endloop
 endfacet
 facet normal  0.000000e+00  1.000000e+00  0.000000e+00
   outer loop
     vertex -7.590027e-02  2.144441e-01  8.816922e-01
     vertex -7.786437e-02  2.144441e-01  8.836922e-01
     vertex -7.640027e-02  2.144441e-01  8.851563e-01
   endloop
 endfacet
 facet normal  0.000000e+00  1.000000e+00  0.000000e+00
   outer loop
     vertex -7.840027e-02  2.144441e-01  8.816922e-01
     vertex -7.786437e-02  2.144441e-01  8.836922e-01
     vertex -7.590027e-02  2.144441e-01  8.816922e-01
   endloop
 endfacet
 facet normal -0.000000e+00  1.000000e+00  0.000000e+00
   outer loop
     vertex -7.840027e-02  2.144441e-01  8.816922e-01
     vertex -7.590027e-02  2.144441e-01  8.816922e-01
     vertex -7.440027e-02  2.144441e-01  8.801922e-01
   endloop
 endfacet
 facet normal  0.000000e+00  1.000000e+00  0.000000e+00
   outer loop
     vertex -7.290027e-02  2.144441e-01  8.256922e-01
     vertex  3.809973e-02  2.144441e-01  8.816922e-01
     vertex  3.809973e-02  2.144441e-01  8.256922e-01
   endloop
 endfacet
 facet normal  0.000000e+00  1.000000e+00  0.000000e+00
   outer loop
     vertex -7.290027e-02  2.144441e-01  8.256922e-01
     vertex -7.290027e-02  2.144441e-01  8.816922e-01
     vertex  3.809973e-02  2.144441e-01  8.816922e-01
   endloop
 endfacet
 facet normal  0.000000e+00  1.000000e+00 -0.000000e+00
   outer loop
     vertex -7.440027e-02  2.144441e-01  8.271922e-01
     vertex -7.840027e-02  2.144441e-01  8.816922e-01
     vertex -7.440027e-02  2.144441e-01  8.801922e-01
   endloop
 endfacet
 facet normal -0.000000e+00  1.000000e+00  0.000000e+00
   outer loop
     vertex -7.440027e-02  2.144441e-01  8.271922e-01
     vertex -7.290027e-02  2.144441e-01  8.816922e-01
     vertex -7.290027e-02  2.144441e-01  8.256922e-01
   endloop
 endfacet
 facet normal  0.000000e+00  1.000000e+00  0.000000e+00
   outer loop
     vertex -7.440027e-02  2.144441e-01  8.271922e-01
     vertex -7.440027e-02  2.144441e-01  8.801922e-01
     vertex -7.290027e-02  2.144441e-01  8.816922e-01
   endloop
 endfacet
 facet normal  0.000000e+00  1.000000e+00  0.000000e+00
   outer loop
     vertex -7.840027e-02  2.144441e-01  8.256922e-01
     vertex -7.440027e-02  2.144441e-01  8.271922e-01
     vertex -7.590027e-02  2.144441e-01  8.256922e-01
   endloop
 endfacet
 facet normal  0.000000e+00  1.000000e+00  0.000000e+00
   outer loop
     vertex -7.840027e-02  2.144441e-01  8.256922e-01
     vertex -7.840027e-02  2.144441e-01  8.816922e-01
     vertex -7.440027e-02  2.144441e-01  8.271922e-01
   endloop
 endfacet
 facet normal  0.000000e+00  1.000000e+00  0.000000e+00
   outer loop
     vertex -7.440027e-02  2.144441e-01  8.216922e-01
     vertex  3.809973e-02  2.144441e-01  8.256922e-01
     vertex  3.959973e-02  2.144441e-01  8.241922e-01
   endloop
 endfacet
 facet normal  0.000000e+00  1.000000e+00  0.000000e+00
   outer loop
     vertex -7.440027e-02  2.144441e-01  8.216922e-01
     vertex -7.440027e-02  2.144441e-01  8.241922e-01
     vertex -7.290027e-02  2.144441e-01  8.256922e-01
   endloop
 endfacet
 facet normal  0.000000e+00  1.000000e+00  0.000000e+00
   outer loop
     vertex -7.440027e-02  2.144441e-01  8.216922e-01
     vertex -7.290027e-02  2.144441e-01  8.256922e-01
     vertex  3.809973e-02  2.144441e-01  8.256922e-01
   endloop
 endfacet
 facet normal  0.000000e+00  1.000000e+00 -0.000000e+00
   outer loop
     vertex -7.786437e-02  2.144441e-01  8.236922e-01
     vertex -7.840027e-02  2.144441e-01  8.256922e-01
     vertex -7.590027e-02  2.144441e-01  8.256922e-01
   endloop
 endfacet
 facet normal -0.000000e+00  1.000000e+00  0.000000e+00
   outer loop
     vertex -7.640027e-02  2.144441e-01  8.222281e-01
     vertex -7.440027e-02  2.144441e-01  8.241922e-01
     vertex -7.440027e-02  2.144441e-01  8.216922e-01
   endloop
 endfacet
 facet normal  0.000000e+00  1.000000e+00 -0.000000e+00
   outer loop
     vertex -7.640027e-02  2.144441e-01  8.222281e-01
     vertex -7.786437e-02  2.144441e-01  8.236922e-01
     vertex -7.590027e-02  2.144441e-01  8.256922e-01
   endloop
 endfacet
 facet normal  0.000000e+00  1.000000e+00  0.000000e+00
   outer loop
     vertex -7.640027e-02  2.144441e-01  8.222281e-01
     vertex -7.590027e-02  2.144441e-01  8.256922e-01
     vertex -7.440027e-02  2.144441e-01  8.241922e-01
   endloop
 endfacet
 facet normal  0.000000e+00  1.000000e+00  0.000000e+00
   outer loop
     vertex -7.440027e-02  2.144441e-01  8.216922e-01
     vertex  3.959973e-02  2.144441e-01  8.241922e-01
     vertex  1.535997e-01  2.144441e-01  8.216922e-01
   endloop
 endfacet
 facet normal  0.000000e+00  1.000000e+00  0.000000e+00
   outer loop
     vertex  1.535997e-01  2.144441e-01  8.856922e-01
     vertex  3.959973e-02  2.144441e-01  8.831922e-01
     vertex -7.440027e-02  2.144441e-01  8.856922e-01
   endloop
 endfacet
 facet normal -0.000000e+00  0.000000e+00  1.000000e+00
   outer loop
     vertex -7.440027e-02  2.144441e-01  8.856922e-01
     vertex  1.535997e-01  2.124441e-01  8.856922e-01
     vertex  1.535997e-01  2.144441e-01  8.856922e-01
   endloop
 endfacet
 facet normal  0.000000e+00  0.000000e+00  1.000000e+00
   outer loop
     vertex -7.440027e-02  2.124441e-01  8.856922e-01
     vertex  1.535997e-01  2.124441e-01  8.856922e-01
     vertex -7.440027e-02  2.144441e-01  8.856922e-01
   endloop
 endfacet
 facet normal  9.659258e-01 -0.000000e+00  2.588190e-01
   outer loop
     vertex  1.570638e-01  2.124441e-01  8.836922e-01
     vertex  1.575997e-01  2.144441e-01  8.816922e-01
     vertex  1.570638e-01  2.144441e-01  8.836922e-01
   endloop
 endfacet
 facet normal  9.659258e-01  0.000000e+00  2.588190e-01
   outer loop
     vertex  1.570638e-01  2.124441e-01  8.836922e-01
     vertex  1.575997e-01  2.124441e-01  8.816922e-01
     vertex  1.575997e-01  2.144441e-01  8.816922e-01
   endloop
 endfacet
 facet normal  7.071068e-01 -0.000000e+00  7.071068e-01
   outer loop
     vertex  1.555997e-01  2.124441e-01  8.851563e-01
     vertex  1.570638e-01  2.144441e-01  8.836922e-01
     vertex  1.555997e-01  2.144441e-01  8.851563e-01
   endloop
 endfacet
 facet normal  7.071068e-01  0.000000e+00  7.071068e-01
   outer loop
     vertex  1.555997e-01  2.124441e-01  8.851563e-01
     vertex  1.570638e-01  2.124441e-01  8.836922e-01
     vertex  1.570638e-01  2.144441e-01  8.836922e-01
   endloop
 endfacet
 facet normal  2.588190e-01 -0.000000e+00  9.659258e-01
   outer loop
     vertex  1.535997e-01  2.124441e-01  8.856922e-01
     vertex  1.555997e-01  2.144441e-01  8.851563e-01
     vertex  1.535997e-01  2.144441e-01  8.856922e-01
   endloop
 endfacet
 facet normal  2.588190e-01  0.000000e+00  9.659258e-01
   outer loop
     vertex  1.535997e-01  2.124441e-01  8.856922e-01
     vertex  1.555997e-01  2.124441e-01  8.851563e-01
     vertex  1.555997e-01  2.144441e-01  8.851563e-01
   endloop
 endfacet
 facet normal  1.000000e+00 -0.000000e+00  0.000000e+00
   outer loop
     vertex  1.575997e-01  2.124441e-01  8.816922e-01
     vertex  1.575997e-01  2.144441e-01  8.256922e-01
     vertex  1.575997e-01  2.144441e-01  8.816922e-01
   endloop
 endfacet
 facet normal  1.000000e+00  0.000000e+00  0.000000e+00
   outer loop
     vertex  1.575997e-01  2.124441e-01  8.816922e-01
     vertex  1.575997e-01  2.124441e-01  8.256922e-01
     vertex  1.575997e-01  2.144441e-01  8.256922e-01
   endloop
 endfacet
 facet normal  2.588190e-01  0.000000e+00 -9.659258e-01
   outer loop
     vertex  1.555997e-01  2.124441e-01  8.222281e-01
     vertex  1.535997e-01  2.144441e-01  8.216922e-01
     vertex  1.555997e-01  2.144441e-01  8.222281e-01
   endloop
 endfacet
 facet normal  2.588190e-01  0.000000e+00 -9.659258e-01
   outer loop
     vertex  1.555997e-01  2.124441e-01  8.222281e-01
     vertex  1.535997e-01  2.124441e-01  8.216922e-01
     vertex  1.535997e-01  2.144441e-01  8.216922e-01
   endloop
 endfacet
 facet normal  7.071068e-01  0.000000e+00 -7.071068e-01
   outer loop
     vertex  1.570638e-01  2.124441e-01  8.236922e-01
     vertex  1.555997e-01  2.144441e-01  8.222281e-01
     vertex  1.570638e-01  2.144441e-01  8.236922e-01
   endloop
 endfacet
 facet normal  7.071068e-01  0.000000e+00 -7.071068e-01
   outer loop
     vertex  1.570638e-01  2.124441e-01  8.236922e-01
     vertex  1.555997e-01  2.124441e-01  8.222281e-01
     vertex  1.555997e-01  2.144441e-01  8.222281e-01
   endloop
 endfacet
 facet normal  9.659258e-01  0.000000e+00 -2.588190e-01
   outer loop
     vertex  1.575997e-01  2.124441e-01  8.256922e-01
     vertex  1.570638e-01  2.144441e-01  8.236922e-01
     vertex  1.575997e-01  2.144441e-01  8.256922e-01
   endloop
 endfacet
 facet normal  9.659258e-01  0.000000e+00 -2.588190e-01
   outer loop
     vertex  1.575997e-01  2.124441e-01  8.256922e-01
     vertex  1.570638e-01  2.124441e-01  8.236922e-01
     vertex  1.570638e-01  2.144441e-01  8.236922e-01
   endloop
 endfacet
 facet normal -0.000000e+00  0.000000e+00 -1.000000e+00
   outer loop
     vertex  1.535997e-01  2.144441e-01  8.216922e-01
     vertex -7.440027e-02  2.124441e-01  8.216922e-01
     vertex -7.440027e-02  2.144441e-01  8.216922e-01
   endloop
 endfacet
 facet normal  0.000000e+00  0.000000e+00 -1.000000e+00
   outer loop
     vertex  1.535997e-01  2.124441e-01  8.216922e-01
     vertex -7.440027e-02  2.124441e-01  8.216922e-01
     vertex  1.535997e-01  2.144441e-01  8.216922e-01
   endloop
 endfacet
 facet normal -9.659258e-01  0.000000e+00 -2.588190e-01
   outer loop
     vertex -7.786437e-02  2.124441e-01  8.236922e-01
     vertex -7.840027e-02  2.144441e-01  8.256922e-01
     vertex -7.786437e-02  2.144441e-01  8.236922e-01
   endloop
 endfacet
 facet normal -9.659258e-01  0.000000e+00 -2.588190e-01
   outer loop
     vertex -7.786437e-02  2.124441e-01  8.236922e-01
     vertex -7.840027e-02  2.124441e-01  8.256922e-01
     vertex -7.840027e-02  2.144441e-01  8.256922e-01
   endloop
 endfacet
 facet normal -7.071068e-01  0.000000e+00 -7.071068e-01
   outer loop
     vertex -7.640027e-02  2.124441e-01  8.222281e-01
     vertex -7.786437e-02  2.144441e-01  8.236922e-01
     vertex -7.640027e-02  2.144441e-01  8.222281e-01
   endloop
 endfacet
 facet normal -7.071068e-01  0.000000e+00 -7.071068e-01
   outer loop
     vertex -7.640027e-02  2.124441e-01  8.222281e-01
     vertex -7.786437e-02  2.124441e-01  8.236922e-01
     vertex -7.786437e-02  2.144441e-01  8.236922e-01
   endloop
 endfacet
 facet normal -2.588190e-01  0.000000e+00 -9.659258e-01
   outer loop
     vertex -7.440027e-02  2.124441e-01  8.216922e-01
     vertex -7.640027e-02  2.144441e-01  8.222281e-01
     vertex -7.440027e-02  2.144441e-01  8.216922e-01
   endloop
 endfacet
 facet normal -2.588190e-01  0.000000e+00 -9.659258e-01
   outer loop
     vertex -7.440027e-02  2.124441e-01  8.216922e-01
     vertex -7.640027e-02  2.124441e-01  8.222281e-01
     vertex -7.640027e-02  2.144441e-01  8.222281e-01
   endloop
 endfacet
 facet normal -1.000000e+00  0.000000e+00  0.000000e+00
   outer loop
     vertex -7.840027e-02  2.124441e-01  8.256922e-01
     vertex -7.840027e-02  2.144441e-01  8.816922e-01
     vertex -7.840027e-02  2.144441e-01  8.256922e-01
   endloop
 endfacet
 facet normal -1.000000e+00  0.000000e+00  0.000000e+00
   outer loop
     vertex -7.840027e-02  2.124441e-01  8.256922e-01
     vertex -7.840027e-02  2.124441e-01  8.816922e-01
     vertex -7.840027e-02  2.144441e-01  8.816922e-01
   endloop
 endfacet
 facet normal -2.588190e-01  0.000000e+00  9.659258e-01
   outer loop
     vertex -7.640027e-02  2.124441e-01  8.851563e-01
     vertex -7.440027e-02  2.144441e-01  8.856922e-01
     vertex -7.640027e-02  2.144441e-01  8.851563e-01
   endloop
 endfacet
 facet normal -2.588190e-01  0.000000e+00  9.659258e-01
   outer loop
     vertex -7.640027e-02  2.124441e-01  8.851563e-01
     vertex -7.440027e-02  2.124441e-01  8.856922e-01
     vertex -7.440027e-02  2.144441e-01  8.856922e-01
   endloop
 endfacet
 facet normal -7.071068e-01  0.000000e+00  7.071068e-01
   outer loop
     vertex -7.786437e-02  2.124441e-01  8.836922e-01
     vertex -7.640027e-02  2.144441e-01  8.851563e-01
     vertex -7.786437e-02  2.144441e-01  8.836922e-01
   endloop
 endfacet
 facet normal -7.071068e-01  0.000000e+00  7.071068e-01
   outer loop
     vertex -7.786437e-02  2.124441e-01  8.836922e-01
     vertex -7.640027e-02  2.124441e-01  8.851563e-01
     vertex -7.640027e-02  2.144441e-01  8.851563e-01
   endloop
 endfacet
 facet normal -9.659258e-01  0.000000e+00  2.588190e-01
   outer loop
     vertex -7.840027e-02  2.124441e-01  8.816922e-01
     vertex -7.786437e-02  2.144441e-01  8.836922e-01
     vertex -7.840027e-02  2.144441e-01  8.816922e-01
   endloop
 endfacet
 facet normal -9.659258e-01  0.000000e+00  2.588190e-01
   outer loop
     vertex -7.840027e-02  2.124441e-01  8.816922e-01
     vertex -7.786437e-02  2.124441e-01  8.836922e-01
     vertex -7.786437e-02  2.144441e-01  8.836922e-01
   endloop
 endfacet
 facet normal  0.000000e+00 -1.000000e+00  0.000000e+00
   outer loop
     vertex  1.565997e-01  2.124441e-01  8.816922e-01
     vertex  1.575997e-01  2.124441e-01  8.816922e-01
     vertex  1.570638e-01  2.124441e-01  8.836922e-01
   endloop
 endfacet
 facet normal  0.000000e+00 -1.000000e+00  0.000000e+00
   outer loop
     vertex  1.535997e-01  2.124441e-01  8.846922e-01
     vertex  1.570638e-01  2.124441e-01  8.836922e-01
     vertex  1.555997e-01  2.124441e-01  8.851563e-01
   endloop
 endfacet
 facet normal  0.000000e+00 -1.000000e+00  0.000000e+00
   outer loop
     vertex  1.535997e-01  2.124441e-01  8.846922e-01
     vertex  1.555997e-01  2.124441e-01  8.851563e-01
     vertex  1.535997e-01  2.124441e-01  8.856922e-01
   endloop
 endfacet
 facet normal  0.000000e+00 -1.000000e+00  0.000000e+00
   outer loop
     vertex  1.535997e-01  2.124441e-01  8.846922e-01
     vertex  1.565997e-01  2.124441e-01  8.816922e-01
     vertex  1.570638e-01  2.124441e-01  8.836922e-01
   endloop
 endfacet
 facet normal  0.000000e+00 -1.000000e+00  0.000000e+00
   outer loop
     vertex  1.505997e-01  2.124441e-01  8.816922e-01
     vertex  1.535997e-01  2.124441e-01  8.846922e-01
     vertex  1.535997e-01  2.124441e-01  8.856922e-01
   endloop
 endfacet
 facet normal  0.000000e+00 -1.000000e+00  0.000000e+00
   outer loop
     vertex  1.535997e-01  2.124441e-01  8.786922e-01
     vertex  1.575997e-01  2.124441e-01  8.816922e-01
     vertex  1.565997e-01  2.124441e-01  8.816922e-01
   endloop
 endfacet
 facet normal  0.000000e+00 -1.000000e+00  0.000000e+00
   outer loop
     vertex  1.575997e-01  2.124441e-01  8.256922e-01
     vertex  1.575997e-01  2.124441e-01  8.816922e-01
     vertex  1.535997e-01  2.124441e-01  8.786922e-01
   endloop
 endfacet
 facet normal  0.000000e+00 -1.000000e+00  0.000000e+00
   outer loop
     vertex  1.535997e-01  2.124441e-01  8.286922e-01
     vertex  1.575997e-01  2.124441e-01  8.256922e-01
     vertex  1.535997e-01  2.124441e-01  8.786922e-01
   endloop
 endfacet
 facet normal  0.000000e+00 -1.000000e+00  0.000000e+00
   outer loop
     vertex  1.565997e-01  2.124441e-01  8.256922e-01
     vertex  1.575997e-01  2.124441e-01  8.256922e-01
     vertex  1.535997e-01  2.124441e-01  8.286922e-01
   endloop
 endfacet
 facet normal  0.000000e+00 -1.000000e+00  0.000000e+00
   outer loop
     vertex  1.570638e-01  2.124441e-01  8.236922e-01
     vertex  1.575997e-01  2.124441e-01  8.256922e-01
     vertex  1.565997e-01  2.124441e-01  8.256922e-01
   endloop
 endfacet
 facet normal  0.000000e+00 -1.000000e+00  0.000000e+00
   outer loop
     vertex  1.505997e-01  2.124441e-01  8.256922e-01
     vertex  1.535997e-01  2.124441e-01  8.786922e-01
     vertex  1.505997e-01  2.124441e-01  8.816922e-01
   endloop
 endfacet
 facet normal  0.000000e+00 -1.000000e+00  0.000000e+00
   outer loop
     vertex  1.505997e-01  2.124441e-01  8.256922e-01
     vertex  1.535997e-01  2.124441e-01  8.286922e-01
     vertex  1.535997e-01  2.124441e-01  8.786922e-01
   endloop
 endfacet
 facet normal  0.000000e+00 -1.000000e+00  0.000000e+00
   outer loop
     vertex  1.535997e-01  2.124441e-01  8.226922e-01
     vertex  1.555997e-01  2.124441e-01  8.222281e-01
     vertex  1.570638e-01  2.124441e-01  8.236922e-01
   endloop
 endfacet
 facet normal  0.000000e+00 -1.000000e+00  0.000000e+00
   outer loop
     vertex  1.535997e-01  2.124441e-01  8.226922e-01
     vertex  1.570638e-01  2.124441e-01  8.236922e-01
     vertex  1.565997e-01  2.124441e-01  8.256922e-01
   endloop
 endfacet
 facet normal  0.000000e+00 -1.000000e+00  0.000000e+00
   outer loop
     vertex  1.535997e-01  2.124441e-01  8.216922e-01
     vertex  1.535997e-01  2.124441e-01  8.226922e-01
     vertex  1.505997e-01  2.124441e-01  8.256922e-01
   endloop
 endfacet
 facet normal  0.000000e+00 -1.000000e+00  0.000000e+00
   outer loop
     vertex  1.535997e-01  2.124441e-01  8.216922e-01
     vertex  1.555997e-01  2.124441e-01  8.222281e-01
     vertex  1.535997e-01  2.124441e-01  8.226922e-01
   endloop
 endfacet
 facet normal  0.000000e+00 -1.000000e+00  0.000000e+00
   outer loop
     vertex  4.259973e-02  2.124441e-01  8.816922e-01
     vertex  1.505997e-01  2.124441e-01  8.816922e-01
     vertex  1.535997e-01  2.124441e-01  8.856922e-01
   endloop
 endfacet
 facet normal  0.000000e+00 -1.000000e+00  0.000000e+00
   outer loop
     vertex  3.959973e-02  2.124441e-01  8.846922e-01
     vertex  4.259973e-02  2.124441e-01  8.816922e-01
     vertex  1.535997e-01  2.124441e-01  8.856922e-01
   endloop
 endfacet
 facet normal  0.000000e+00 -1.000000e+00  0.000000e+00
   outer loop
     vertex  4.259973e-02  2.124441e-01  8.256922e-01
     vertex  1.505997e-01  2.124441e-01  8.256922e-01
     vertex  1.505997e-01  2.124441e-01  8.816922e-01
   endloop
 endfacet
 facet normal  0.000000e+00 -1.000000e+00  0.000000e+00
   outer loop
     vertex  4.259973e-02  2.124441e-01  8.256922e-01
     vertex  1.535997e-01  2.124441e-01  8.216922e-01
     vertex  1.505997e-01  2.124441e-01  8.256922e-01
   endloop
 endfacet
 facet normal  0.000000e+00 -1.000000e+00  0.000000e+00
   outer loop
     vertex  4.259973e-02  2.124441e-01  8.256922e-01
     vertex  1.505997e-01  2.124441e-01  8.816922e-01
     vertex  4.259973e-02  2.124441e-01  8.816922e-01
   endloop
 endfacet
 facet normal  0.000000e+00 -1.000000e+00  0.000000e+00
   outer loop
     vertex  3.959973e-02  2.124441e-01  8.286922e-01
     vertex  4.259973e-02  2.124441e-01  8.816922e-01
     vertex  3.959973e-02  2.124441e-01  8.786922e-01
   endloop
 endfacet
 facet normal  0.000000e+00 -1.000000e+00  0.000000e+00
   outer loop
     vertex  3.959973e-02  2.124441e-01  8.286922e-01
     vertex  4.259973e-02  2.124441e-01  8.256922e-01
     vertex  4.259973e-02  2.124441e-01  8.816922e-01
   endloop
 endfacet
 facet normal  0.000000e+00 -1.000000e+00  0.000000e+00
   outer loop
     vertex  3.659973e-02  2.124441e-01  8.256922e-01
     vertex  3.959973e-02  2.124441e-01  8.786922e-01
     vertex  3.659973e-02  2.124441e-01  8.816922e-01
   endloop
 endfacet
 facet normal  0.000000e+00 -1.000000e+00  0.000000e+00
   outer loop
     vertex  3.659973e-02  2.124441e-01  8.256922e-01
     vertex  3.959973e-02  2.124441e-01  8.286922e-01
     vertex  3.959973e-02  2.124441e-01  8.786922e-01
   endloop
 endfacet
 facet normal  0.000000e+00 -1.000000e+00  0.000000e+00
   outer loop
     vertex  3.959973e-02  2.124441e-01  8.226922e-01
     vertex  1.535997e-01  2.124441e-01  8.216922e-01
     vertex  4.259973e-02  2.124441e-01  8.256922e-01
   endloop
 endfacet
 facet normal  0.000000e+00 -1.000000e+00  0.000000e+00
   outer loop
     vertex -7.440027e-02  2.124441e-01  8.856922e-01
     vertex  3.659973e-02  2.124441e-01  8.816922e-01
     vertex  3.959973e-02  2.124441e-01  8.846922e-01
   endloop
 endfacet
 facet normal  0.000000e+00 -1.000000e+00  0.000000e+00
   outer loop
     vertex -7.140027e-02  2.124441e-01  8.816922e-01
     vertex  3.659973e-02  2.124441e-01  8.816922e-01
     vertex -7.440027e-02  2.124441e-01  8.856922e-01
   endloop
 endfacet
 facet normal  0.000000e+00 -1.000000e+00  0.000000e+00
   outer loop
     vertex -7.440027e-02  2.124441e-01  8.846922e-01
     vertex -7.140027e-02  2.124441e-01  8.816922e-01
     vertex -7.440027e-02  2.124441e-01  8.856922e-01
   endloop
 endfacet
 facet normal  0.000000e+00 -1.000000e+00  0.000000e+00
   outer loop
     vertex -7.640027e-02  2.124441e-01  8.851563e-01
     vertex -7.440027e-02  2.124441e-01  8.846922e-01
     vertex -7.440027e-02  2.124441e-01  8.856922e-01
   endloop
 endfacet
 facet normal  0.000000e+00 -1.000000e+00  0.000000e+00
   outer loop
     vertex -7.740027e-02  2.124441e-01  8.816922e-01
     vertex -7.640027e-02  2.124441e-01  8.851563e-01
     vertex -7.786437e-02  2.124441e-01  8.836922e-01
   endloop
 endfacet
 facet normal  0.000000e+00 -1.000000e+00  0.000000e+00
   outer loop
     vertex -7.740027e-02  2.124441e-01  8.816922e-01
     vertex -7.440027e-02  2.124441e-01  8.846922e-01
     vertex -7.640027e-02  2.124441e-01  8.851563e-01
   endloop
 endfacet
 facet normal  0.000000e+00 -1.000000e+00  0.000000e+00
   outer loop
     vertex -7.840027e-02  2.124441e-01  8.816922e-01
     vertex -7.740027e-02  2.124441e-01  8.816922e-01
     vertex -7.786437e-02  2.124441e-01  8.836922e-01
   endloop
 endfacet
 facet normal  0.000000e+00 -1.000000e+00  0.000000e+00
   outer loop
     vertex -7.840027e-02  2.124441e-01  8.816922e-01
     vertex -7.440027e-02  2.124441e-01  8.786922e-01
     vertex -7.740027e-02  2.124441e-01  8.816922e-01
   endloop
 endfacet
 facet normal  0.000000e+00 -1.000000e+00  0.000000e+00
   outer loop
     vertex -7.140027e-02  2.124441e-01  8.256922e-01
     vertex  3.659973e-02  2.124441e-01  8.256922e-01
     vertex  3.659973e-02  2.124441e-01  8.816922e-01
   endloop
 endfacet
 facet normal  0.000000e+00 -1.000000e+00  0.000000e+00
   outer loop
     vertex -7.140027e-02  2.124441e-01  8.256922e-01
     vertex  3.659973e-02  2.124441e-01  8.816922e-01
     vertex -7.140027e-02  2.124441e-01  8.816922e-01
   endloop
 endfacet
 facet normal  0.000000e+00 -1.000000e+00  0.000000e+00
   outer loop
     vertex -7.440027e-02  2.124441e-01  8.286922e-01
     vertex -7.440027e-02  2.124441e-01  8.786922e-01
     vertex -7.840027e-02  2.124441e-01  8.816922e-01
   endloop
 endfacet
 facet normal  0.000000e+00 -1.000000e+00  0.000000e+00
   outer loop
     vertex -7.440027e-02  2.124441e-01  8.286922e-01
     vertex -7.140027e-02  2.124441e-01  8.816922e-01
     vertex -7.440027e-02  2.124441e-01  8.786922e-01
   endloop
 endfacet
 facet normal  0.000000e+00 -1.000000e+00  0.000000e+00
   outer loop
     vertex -7.440027e-02  2.124441e-01  8.286922e-01
     vertex -7.140027e-02  2.124441e-01  8.256922e-01
     vertex -7.140027e-02  2.124441e-01  8.816922e-01
   endloop
 endfacet
 facet normal  0.000000e+00 -1.000000e+00  0.000000e+00
   outer loop
     vertex -7.840027e-02  2.124441e-01  8.256922e-01
     vertex -7.440027e-02  2.124441e-01  8.286922e-01
     vertex -7.840027e-02  2.124441e-01  8.816922e-01
   endloop
 endfacet
 facet normal  0.000000e+00 -1.000000e+00  0.000000e+00
   outer loop
     vertex -7.840027e-02  2.124441e-01  8.256922e-01
     vertex -7.740027e-02  2.124441e-01  8.256922e-01
     vertex -7.440027e-02  2.124441e-01  8.286922e-01
   endloop
 endfacet
 facet normal  0.000000e+00 -1.000000e+00  0.000000e+00
   outer loop
     vertex -7.440027e-02  2.124441e-01  8.216922e-01
     vertex  3.959973e-02  2.124441e-01  8.226922e-01
     vertex  3.659973e-02  2.124441e-01  8.256922e-01
   endloop
 endfacet
 facet normal  0.000000e+00 -1.000000e+00  0.000000e+00
   outer loop
     vertex -7.440027e-02  2.124441e-01  8.216922e-01
     vertex -7.140027e-02  2.124441e-01  8.256922e-01
     vertex -7.440027e-02  2.124441e-01  8.226922e-01
   endloop
 endfacet
 facet normal  0.000000e+00 -1.000000e+00  0.000000e+00
   outer loop
     vertex -7.440027e-02  2.124441e-01  8.216922e-01
     vertex  3.659973e-02  2.124441e-01  8.256922e-01
     vertex -7.140027e-02  2.124441e-01  8.256922e-01
   endloop
 endfacet
 facet normal  0.000000e+00 -1.000000e+00  0.000000e+00
   outer loop
     vertex -7.640027e-02  2.124441e-01  8.222281e-01
     vertex -7.440027e-02  2.124441e-01  8.216922e-01
     vertex -7.440027e-02  2.124441e-01  8.226922e-01
   endloop
 endfacet
 facet normal  0.000000e+00 -1.000000e+00  0.000000e+00
   outer loop
     vertex -7.786437e-02  2.124441e-01  8.236922e-01
     vertex -7.640027e-02  2.124441e-01  8.222281e-01
     vertex -7.440027e-02  2.124441e-01  8.226922e-01
   endloop
 endfacet
 facet normal  0.000000e+00 -1.000000e+00  0.000000e+00
   outer loop
     vertex -7.786437e-02  2.124441e-01  8.236922e-01
     vertex -7.740027e-02  2.124441e-01  8.256922e-01
     vertex -7.840027e-02  2.124441e-01  8.256922e-01
   endloop
 endfacet
 facet normal  0.000000e+00 -1.000000e+00  0.000000e+00
   outer loop
     vertex -7.786437e-02  2.124441e-01  8.236922e-01
     vertex -7.440027e-02  2.124441e-01  8.226922e-01
     vertex -7.740027e-02  2.124441e-01  8.256922e-01
   endloop
 endfacet
 facet normal -0.000000e+00 -1.000000e+00  0.000000e+00
   outer loop
     vertex  1.535997e-01  2.124441e-01  8.856922e-01
     vertex -7.440027e-02  2.124441e-01  8.856922e-01
     vertex  3.959973e-02  2.124441e-01  8.846922e-01
   endloop
 endfacet
 facet normal  0.000000e+00 -1.000000e+00  0.000000e+00
   outer loop
     vertex -7.440027e-02  2.124441e-01  8.216922e-01
     vertex  1.535997e-01  2.124441e-01  8.216922e-01
     vertex  3.959973e-02  2.124441e-01  8.226922e-01
   endloop
 endfacet
 facet normal -5.773503e-01 -5.773503e-01 -5.773503e-01
   outer loop
     vertex  1.535997e-01  2.124441e-01  8.286922e-01
     vertex  1.550997e-01  2.139441e-01  8.256922e-01
     vertex  1.565997e-01  2.124441e-01  8.256922e-01
   endloop
 endfacet
 facet normal -5.773503e-01 -5.773503e-01 -5.773503e-01
   outer loop
     vertex  1.535997e-01  2.124441e-01  8.286922e-01
     vertex  1.535997e-01  2.139441e-01  8.271922e-01
     vertex  1.550997e-01  2.139441e-01  8.256922e-01
   endloop
 endfacet
 facet normal  5.773503e-01 -5.773503e-01 -5.773503e-01
   outer loop
     vertex  1.505997e-01  2.124441e-01  8.256922e-01
     vertex  1.520997e-01  2.139441e-01  8.256922e-01
     vertex  1.535997e-01  2.139441e-01  8.271922e-01
   endloop
 endfacet
 facet normal  5.773503e-01 -5.773503e-01 -5.773503e-01
   outer loop
     vertex  1.505997e-01  2.124441e-01  8.256922e-01
     vertex  1.535997e-01  2.139441e-01  8.271922e-01
     vertex  1.535997e-01  2.124441e-01  8.286922e-01
   endloop
 endfacet
 facet normal  5.773503e-01 -5.773503e-01  5.773503e-01
   outer loop
     vertex  1.535997e-01  2.124441e-01  8.226922e-01
     vertex  1.535997e-01  2.139441e-01  8.241922e-01
     vertex  1.520997e-01  2.139441e-01  8.256922e-01
   endloop
 endfacet
 facet normal  5.773503e-01 -5.773503e-01  5.773503e-01
   outer loop
     vertex  1.535997e-01  2.124441e-01  8.226922e-01
     vertex  1.520997e-01  2.139441e-01  8.256922e-01
     vertex  1.505997e-01  2.124441e-01  8.256922e-01
   endloop
 endfacet
 facet normal -5.773503e-01 -5.773503e-01  5.773503e-01
   outer loop
     vertex  1.565997e-01  2.124441e-01  8.256922e-01
     vertex  1.550997e-01  2.139441e-01  8.256922e-01
     vertex  1.535997e-01  2.139441e-01  8.241922e-01
   endloop
 endfacet
 facet normal -5.773503e-01 -5.773503e-01  5.773503e-01
   outer loop
     vertex  1.565997e-01  2.124441e-01  8.256922e-01
     vertex  1.535997e-01  2.139441e-01  8.241922e-01
     vertex  1.535997e-01  2.124441e-01  8.226922e-01
   endloop
 endfacet
 facet normal -7.071068e-01  0.000000e+00 -7.071068e-01
   outer loop
     vertex  1.535997e-01  2.139441e-01  8.271922e-01
     vertex  1.550997e-01  2.144441e-01  8.256922e-01
     vertex  1.550997e-01  2.139441e-01  8.256922e-01
   endloop
 endfacet
 facet normal -7.071068e-01  0.000000e+00 -7.071068e-01
   outer loop
     vertex  1.535997e-01  2.139441e-01  8.271922e-01
     vertex  1.535997e-01  2.144441e-01  8.271922e-01
     vertex  1.550997e-01  2.144441e-01  8.256922e-01
   endloop
 endfacet
 facet normal  7.071068e-01  0.000000e+00 -7.071068e-01
   outer loop
     vertex  1.520997e-01  2.139441e-01  8.256922e-01
     vertex  1.520997e-01  2.144441e-01  8.256922e-01
     vertex  1.535997e-01  2.144441e-01  8.271922e-01
   endloop
 endfacet
 facet normal  7.071068e-01  0.000000e+00 -7.071068e-01
   outer loop
     vertex  1.520997e-01  2.139441e-01  8.256922e-01
     vertex  1.535997e-01  2.144441e-01  8.271922e-01
     vertex  1.535997e-01  2.139441e-01  8.271922e-01
   endloop
 endfacet
 facet normal  7.071068e-01 -0.000000e+00  7.071068e-01
   outer loop
     vertex  1.535997e-01  2.139441e-01  8.241922e-01
     vertex  1.535997e-01  2.144441e-01  8.241922e-01
     vertex  1.520997e-01  2.144441e-01  8.256922e-01
   endloop
 endfacet
 facet normal  7.071068e-01  0.000000e+00  7.071068e-01
   outer loop
     vertex  1.535997e-01  2.139441e-01  8.241922e-01
     vertex  1.520997e-01  2.144441e-01  8.256922e-01
     vertex  1.520997e-01  2.139441e-01  8.256922e-01
   endloop
 endfacet
 facet normal -7.071068e-01  0.000000e+00  7.071068e-01
   outer loop
     vertex  1.550997e-01  2.139441e-01  8.256922e-01
     vertex  1.550997e-01  2.144441e-01  8.256922e-01
     vertex  1.535997e-01  2.144441e-01  8.241922e-01
   endloop
 endfacet
 facet normal -7.071068e-01  0.000000e+00  7.071068e-01
   outer loop
     vertex  1.550997e-01  2.139441e-01  8.256922e-01
     vertex  1.535997e-01  2.144441e-01  8.241922e-01
     vertex  1.535997e-01  2.139441e-01  8.241922e-01
   endloop
 endfacet
 facet normal -5.773503e-01 -5.773503e-01 -5.773503e-01
   outer loop
     vertex  3.959973e-02  2.124441e-01  8.286922e-01
     vertex  4.109973e-02  2.139441e-01  8.256922e-01
     vertex  4.259973e-02  2.124441e-01  8.256922e-01
   endloop
 endfacet
 facet normal -5.773503e-01 -5.773503e-01 -5.773503e-01
   outer loop
     vertex  3.959973e-02  2.124441e-01  8.286922e-01
     vertex  3.959973e-02  2.139441e-01  8.271922e-01
     vertex  4.109973e-02  2.139441e-01  8.256922e-01
   endloop
 endfacet
 facet normal  5.773503e-01 -5.773503e-01 -5.773503e-01
   outer loop
     vertex  3.659973e-02  2.124441e-01  8.256922e-01
     vertex  3.809973e-02  2.139441e-01  8.256922e-01
     vertex  3.959973e-02  2.139441e-01  8.271922e-01
   endloop
 endfacet
 facet normal  5.773503e-01 -5.773503e-01 -5.773503e-01
   outer loop
     vertex  3.659973e-02  2.124441e-01  8.256922e-01
     vertex  3.959973e-02  2.139441e-01  8.271922e-01
     vertex  3.959973e-02  2.124441e-01  8.286922e-01
   endloop
 endfacet
 facet normal  5.773503e-01 -5.773503e-01  5.773503e-01
   outer loop
     vertex  3.959973e-02  2.124441e-01  8.226922e-01
     vertex  3.959973e-02  2.139441e-01  8.241922e-01
     vertex  3.809973e-02  2.139441e-01  8.256922e-01
   endloop
 endfacet
 facet normal  5.773503e-01 -5.773503e-01  5.773503e-01
   outer loop
     vertex  3.959973e-02  2.124441e-01  8.226922e-01
     vertex  3.809973e-02  2.139441e-01  8.256922e-01
     vertex  3.659973e-02  2.124441e-01  8.256922e-01
   endloop
 endfacet
 facet normal -5.773503e-01 -5.773503e-01  5.773503e-01
   outer loop
     vertex  4.259973e-02  2.124441e-01  8.256922e-01
     vertex  4.109973e-02  2.139441e-01  8.256922e-01
     vertex  3.959973e-02  2.139441e-01  8.241922e-01
   endloop
 endfacet
 facet normal -5.773503e-01 -5.773503e-01  5.773503e-01
   outer loop
     vertex  4.259973e-02  2.124441e-01  8.256922e-01
     vertex  3.959973e-02  2.139441e-01  8.241922e-01
     vertex  3.959973e-02  2.124441e-01  8.226922e-01
   endloop
 endfacet
 facet normal -7.071068e-01  0.000000e+00 -7.071068e-01
   outer loop
     vertex  3.959973e-02  2.139441e-01  8.271922e-01
     vertex  4.109973e-02  2.144441e-01  8.256922e-01
     vertex  4.109973e-02  2.139441e-01  8.256922e-01
   endloop
 endfacet
 facet normal -7.071068e-01  0.000000e+00 -7.071068e-01
   outer loop
     vertex  3.959973e-02  2.139441e-01  8.271922e-01
     vertex  3.959973e-02  2.144441e-01  8.271922e-01
     vertex  4.109973e-02  2.144441e-01  8.256922e-01
   endloop
 endfacet
 facet normal  7.071068e-01  0.000000e+00 -7.071068e-01
   outer loop
     vertex  3.809973e-02  2.139441e-01  8.256922e-01
     vertex  3.809973e-02  2.144441e-01  8.256922e-01
     vertex  3.959973e-02  2.144441e-01  8.271922e-01
   endloop
 endfacet
 facet normal  7.071068e-01  0.000000e+00 -7.071068e-01
   outer loop
     vertex  3.809973e-02  2.139441e-01  8.256922e-01
     vertex  3.959973e-02  2.144441e-01  8.271922e-01
     vertex  3.959973e-02  2.139441e-01  8.271922e-01
   endloop
 endfacet
 facet normal  7.071068e-01 -0.000000e+00  7.071068e-01
   outer loop
     vertex  3.959973e-02  2.139441e-01  8.241922e-01
     vertex  3.959973e-02  2.144441e-01  8.241922e-01
     vertex  3.809973e-02  2.144441e-01  8.256922e-01
   endloop
 endfacet
 facet normal  7.071068e-01  0.000000e+00  7.071068e-01
   outer loop
     vertex  3.959973e-02  2.139441e-01  8.241922e-01
     vertex  3.809973e-02  2.144441e-01  8.256922e-01
     vertex  3.809973e-02  2.139441e-01  8.256922e-01
   endloop
 endfacet
 facet normal -7.071068e-01  0.000000e+00  7.071068e-01
   outer loop
     vertex  4.109973e-02  2.139441e-01  8.256922e-01
     vertex  4.109973e-02  2.144441e-01  8.256922e-01
     vertex  3.959973e-02  2.144441e-01  8.241922e-01
   endloop
 endfacet
 facet normal -7.071068e-01  0.000000e+00  7.071068e-01
   outer loop
     vertex  4.109973e-02  2.139441e-01  8.256922e-01
     vertex  3.959973e-02  2.144441e-01  8.241922e-01
     vertex  3.959973e-02  2.139441e-01  8.241922e-01
   endloop
 endfacet
 facet normal -5.773503e-01 -5.773503e-01 -5.773503e-01
   outer loop
     vertex -7.440027e-02  2.124441e-01  8.286922e-01
     vertex -7.290027e-02  2.139441e-01  8.256922e-01
     vertex -7.140027e-02  2.124441e-01  8.256922e-01
   endloop
 endfacet
 facet normal -5.773503e-01 -5.773503e-01 -5.773503e-01
   outer loop
     vertex -7.440027e-02  2.124441e-01  8.286922e-01
     vertex -7.440027e-02  2.139441e-01  8.271922e-01
     vertex -7.290027e-02  2.139441e-01  8.256922e-01
   endloop
 endfacet
 facet normal  5.773503e-01 -5.773503e-01 -5.773503e-01
   outer loop
     vertex -7.740027e-02  2.124441e-01  8.256922e-01
     vertex -7.590027e-02  2.139441e-01  8.256922e-01
     vertex -7.440027e-02  2.139441e-01  8.271922e-01
   endloop
 endfacet
 facet normal  5.773503e-01 -5.773503e-01 -5.773503e-01
   outer loop
     vertex -7.740027e-02  2.124441e-01  8.256922e-01
     vertex -7.440027e-02  2.139441e-01  8.271922e-01
     vertex -7.440027e-02  2.124441e-01  8.286922e-01
   endloop
 endfacet
 facet normal  5.773503e-01 -5.773503e-01  5.773503e-01
   outer loop
     vertex -7.440027e-02  2.124441e-01  8.226922e-01
     vertex -7.440027e-02  2.139441e-01  8.241922e-01
     vertex -7.590027e-02  2.139441e-01  8.256922e-01
   endloop
 endfacet
 facet normal  5.773503e-01 -5.773503e-01  5.773503e-01
   outer loop
     vertex -7.440027e-02  2.124441e-01  8.226922e-01
     vertex -7.590027e-02  2.139441e-01  8.256922e-01
     vertex -7.740027e-02  2.124441e-01  8.256922e-01
   endloop
 endfacet
 facet normal -5.773503e-01 -5.773503e-01  5.773503e-01
   outer loop
     vertex -7.140027e-02  2.124441e-01  8.256922e-01
     vertex -7.290027e-02  2.139441e-01  8.256922e-01
     vertex -7.440027e-02  2.139441e-01  8.241922e-01
   endloop
 endfacet
 facet normal -5.773503e-01 -5.773503e-01  5.773503e-01
   outer loop
     vertex -7.140027e-02  2.124441e-01  8.256922e-01
     vertex -7.440027e-02  2.139441e-01  8.241922e-01
     vertex -7.440027e-02  2.124441e-01  8.226922e-01
   endloop
 endfacet
 facet normal -7.071068e-01  0.000000e+00 -7.071068e-01
   outer loop
     vertex -7.440027e-02  2.139441e-01  8.271922e-01
     vertex -7.290027e-02  2.144441e-01  8.256922e-01
     vertex -7.290027e-02  2.139441e-01  8.256922e-01
   endloop
 endfacet
 facet normal -7.071068e-01  0.000000e+00 -7.071068e-01
   outer loop
     vertex -7.440027e-02  2.139441e-01  8.271922e-01
     vertex -7.440027e-02  2.144441e-01  8.271922e-01
     vertex -7.290027e-02  2.144441e-01  8.256922e-01
   endloop
 endfacet
 facet normal  7.071068e-01  0.000000e+00 -7.071068e-01
   outer loop
     vertex -7.590027e-02  2.139441e-01  8.256922e-01
     vertex -7.590027e-02  2.144441e-01  8.256922e-01
     vertex -7.440027e-02  2.144441e-01  8.271922e-01
   endloop
 endfacet
 facet normal  7.071068e-01  0.000000e+00 -7.071068e-01
   outer loop
     vertex -7.590027e-02  2.139441e-01  8.256922e-01
     vertex -7.440027e-02  2.144441e-01  8.271922e-01
     vertex -7.440027e-02  2.139441e-01  8.271922e-01
   endloop
 endfacet
 facet normal  7.071068e-01 -0.000000e+00  7.071068e-01
   outer loop
     vertex -7.440027e-02  2.139441e-01  8.241922e-01
     vertex -7.440027e-02  2.144441e-01  8.241922e-01
     vertex -7.590027e-02  2.144441e-01  8.256922e-01
   endloop
 endfacet
 facet normal  7.071068e-01  0.000000e+00  7.071068e-01
   outer loop
     vertex -7.440027e-02  2.139441e-01  8.241922e-01
     vertex -7.590027e-02  2.144441e-01  8.256922e-01
     vertex -7.590027e-02  2.139441e-01  8.256922e-01
   endloop
 endfacet
 facet normal -7.071068e-01  0.000000e+00  7.071068e-01
   outer loop
     vertex -7.290027e-02  2.139441e-01  8.256922e-01
     vertex -7.290027e-02  2.144441e-01  8.256922e-01
     vertex -7.440027e-02  2.144441e-01  8.241922e-01
   endloop
 endfacet
 facet normal -7.071068e-01  0.000000e+00  7.071068e-01
   outer loop
     vertex -7.290027e-02  2.139441e-01  8.256922e-01
     vertex -7.440027e-02  2.144441e-01  8.241922e-01
     vertex -7.440027e-02  2.139441e-01  8.241922e-01
   endloop
 endfacet
 facet normal -5.773503e-01 -5.773503e-01 -5.773503e-01
   outer loop
     vertex -7.440027e-02  2.124441e-01  8.846922e-01
     vertex -7.290027e-02  2.139441e-01  8.816922e-01
     vertex -7.140027e-02  2.124441e-01  8.816922e-01
   endloop
 endfacet
 facet normal -5.773503e-01 -5.773503e-01 -5.773503e-01
   outer loop
     vertex -7.440027e-02  2.124441e-01  8.846922e-01
     vertex -7.440027e-02  2.139441e-01  8.831922e-01
     vertex -7.290027e-02  2.139441e-01  8.816922e-01
   endloop
 endfacet
 facet normal  5.773503e-01 -5.773503e-01 -5.773503e-01
   outer loop
     vertex -7.740027e-02  2.124441e-01  8.816922e-01
     vertex -7.590027e-02  2.139441e-01  8.816922e-01
     vertex -7.440027e-02  2.139441e-01  8.831922e-01
   endloop
 endfacet
 facet normal  5.773503e-01 -5.773503e-01 -5.773503e-01
   outer loop
     vertex -7.740027e-02  2.124441e-01  8.816922e-01
     vertex -7.440027e-02  2.139441e-01  8.831922e-01
     vertex -7.440027e-02  2.124441e-01  8.846922e-01
   endloop
 endfacet
 facet normal  5.773503e-01 -5.773503e-01  5.773503e-01
   outer loop
     vertex -7.440027e-02  2.124441e-01  8.786922e-01
     vertex -7.440027e-02  2.139441e-01  8.801922e-01
     vertex -7.590027e-02  2.139441e-01  8.816922e-01
   endloop
 endfacet
 facet normal  5.773503e-01 -5.773503e-01  5.773503e-01
   outer loop
     vertex -7.440027e-02  2.124441e-01  8.786922e-01
     vertex -7.590027e-02  2.139441e-01  8.816922e-01
     vertex -7.740027e-02  2.124441e-01  8.816922e-01
   endloop
 endfacet
 facet normal -5.773503e-01 -5.773503e-01  5.773503e-01
   outer loop
     vertex -7.140027e-02  2.124441e-01  8.816922e-01
     vertex -7.290027e-02  2.139441e-01  8.816922e-01
     vertex -7.440027e-02  2.139441e-01  8.801922e-01
   endloop
 endfacet
 facet normal -5.773503e-01 -5.773503e-01  5.773503e-01
   outer loop
     vertex -7.140027e-02  2.124441e-01  8.816922e-01
     vertex -7.440027e-02  2.139441e-01  8.801922e-01
     vertex -7.440027e-02  2.124441e-01  8.786922e-01
   endloop
 endfacet
 facet normal -7.071068e-01  0.000000e+00 -7.071068e-01
   outer loop
     vertex -7.440027e-02  2.139441e-01  8.831922e-01
     vertex -7.290027e-02  2.144441e-01  8.816922e-01
     vertex -7.290027e-02  2.139441e-01  8.816922e-01
   endloop
 endfacet
 facet normal -7.071068e-01  0.000000e+00 -7.071068e-01
   outer loop
     vertex -7.440027e-02  2.139441e-01  8.831922e-01
     vertex -7.440027e-02  2.144441e-01  8.831922e-01
     vertex -7.290027e-02  2.144441e-01  8.816922e-01
   endloop
 endfacet
 facet normal  7.071068e-01  0.000000e+00 -7.071068e-01
   outer loop
     vertex -7.590027e-02  2.139441e-01  8.816922e-01
     vertex -7.590027e-02  2.144441e-01  8.816922e-01
     vertex -7.440027e-02  2.144441e-01  8.831922e-01
   endloop
 endfacet
 facet normal  7.071068e-01  0.000000e+00 -7.071068e-01
   outer loop
     vertex -7.590027e-02  2.139441e-01  8.816922e-01
     vertex -7.440027e-02  2.144441e-01  8.831922e-01
     vertex -7.440027e-02  2.139441e-01  8.831922e-01
   endloop
 endfacet
 facet normal  7.071068e-01 -0.000000e+00  7.071068e-01
   outer loop
     vertex -7.440027e-02  2.139441e-01  8.801922e-01
     vertex -7.440027e-02  2.144441e-01  8.801922e-01
     vertex -7.590027e-02  2.144441e-01  8.816922e-01
   endloop
 endfacet
 facet normal  7.071068e-01  0.000000e+00  7.071068e-01
   outer loop
     vertex -7.440027e-02  2.139441e-01  8.801922e-01
     vertex -7.590027e-02  2.144441e-01  8.816922e-01
     vertex -7.590027e-02  2.139441e-01  8.816922e-01
   endloop
 endfacet
 facet normal -7.071068e-01  0.000000e+00  7.071068e-01
   outer loop
     vertex -7.290027e-02  2.139441e-01  8.816922e-01
     vertex -7.290027e-02  2.144441e-01  8.816922e-01
     vertex -7.440027e-02  2.144441e-01  8.801922e-01
   endloop
 endfacet
 facet normal -7.071068e-01  0.000000e+00  7.071068e-01
   outer loop
     vertex -7.290027e-02  2.139441e-01  8.816922e-01
     vertex -7.440027e-02  2.144441e-01  8.801922e-01
     vertex -7.440027e-02  2.139441e-01  8.801922e-01
   endloop
 endfacet
 facet normal -5.773503e-01 -5.773503e-01 -5.773503e-01
   outer loop
     vertex  3.959973e-02  2.124441e-01  8.846922e-01
     vertex  4.109973e-02  2.139441e-01  8.816922e-01
     vertex  4.259973e-02  2.124441e-01  8.816922e-01
   endloop
 endfacet
 facet normal -5.773503e-01 -5.773503e-01 -5.773503e-01
   outer loop
     vertex  3.959973e-02  2.124441e-01  8.846922e-01
     vertex  3.959973e-02  2.139441e-01  8.831922e-01
     vertex  4.109973e-02  2.139441e-01  8.816922e-01
   endloop
 endfacet
 facet normal  5.773503e-01 -5.773503e-01 -5.773503e-01
   outer loop
     vertex  3.659973e-02  2.124441e-01  8.816922e-01
     vertex  3.809973e-02  2.139441e-01  8.816922e-01
     vertex  3.959973e-02  2.139441e-01  8.831922e-01
   endloop
 endfacet
 facet normal  5.773503e-01 -5.773503e-01 -5.773503e-01
   outer loop
     vertex  3.659973e-02  2.124441e-01  8.816922e-01
     vertex  3.959973e-02  2.139441e-01  8.831922e-01
     vertex  3.959973e-02  2.124441e-01  8.846922e-01
   endloop
 endfacet
 facet normal  5.773503e-01 -5.773503e-01  5.773503e-01
   outer loop
     vertex  3.959973e-02  2.124441e-01  8.786922e-01
     vertex  3.959973e-02  2.139441e-01  8.801922e-01
     vertex  3.809973e-02  2.139441e-01  8.816922e-01
   endloop
 endfacet
 facet normal  5.773503e-01 -5.773503e-01  5.773503e-01
   outer loop
     vertex  3.959973e-02  2.124441e-01  8.786922e-01
     vertex  3.809973e-02  2.139441e-01  8.816922e-01
     vertex  3.659973e-02  2.124441e-01  8.816922e-01
   endloop
 endfacet
 facet normal -5.773503e-01 -5.773503e-01  5.773503e-01
   outer loop
     vertex  4.259973e-02  2.124441e-01  8.816922e-01
     vertex  4.109973e-02  2.139441e-01  8.816922e-01
     vertex  3.959973e-02  2.139441e-01  8.801922e-01
   endloop
 endfacet
 facet normal -5.773503e-01 -5.773503e-01  5.773503e-01
   outer loop
     vertex  4.259973e-02  2.124441e-01  8.816922e-01
     vertex  3.959973e-02  2.139441e-01  8.801922e-01
     vertex  3.959973e-02  2.124441e-01  8.786922e-01
   endloop
 endfacet
 facet normal -7.071068e-01  0.000000e+00 -7.071068e-01
   outer loop
     vertex  3.959973e-02  2.139441e-01  8.831922e-01
     vertex  4.109973e-02  2.144441e-01  8.816922e-01
     vertex  4.109973e-02  2.139441e-01  8.816922e-01
   endloop
 endfacet
 facet normal -7.071068e-01  0.000000e+00 -7.071068e-01
   outer loop
     vertex  3.959973e-02  2.139441e-01  8.831922e-01
     vertex  3.959973e-02  2.144441e-01  8.831922e-01
     vertex  4.109973e-02  2.144441e-01  8.816922e-01
   endloop
 endfacet
 facet normal  7.071068e-01  0.000000e+00 -7.071068e-01
   outer loop
     vertex  3.809973e-02  2.139441e-01  8.816922e-01
     vertex  3.809973e-02  2.144441e-01  8.816922e-01
     vertex  3.959973e-02  2.144441e-01  8.831922e-01
   endloop
 endfacet
 facet normal  7.071068e-01  0.000000e+00 -7.071068e-01
   outer loop
     vertex  3.809973e-02  2.139441e-01  8.816922e-01
     vertex  3.959973e-02  2.144441e-01  8.831922e-01
     vertex  3.959973e-02  2.139441e-01  8.831922e-01
   endloop
 endfacet
 facet normal  7.071068e-01 -0.000000e+00  7.071068e-01
   outer loop
     vertex  3.959973e-02  2.139441e-01  8.801922e-01
     vertex  3.959973e-02  2.144441e-01  8.801922e-01
     vertex  3.809973e-02  2.144441e-01  8.816922e-01
   endloop
 endfacet
 facet normal  7.071068e-01  0.000000e+00  7.071068e-01
   outer loop
     vertex  3.959973e-02  2.139441e-01  8.801922e-01
     vertex  3.809973e-02  2.144441e-01  8.816922e-01
     vertex  3.809973e-02  2.139441e-01  8.816922e-01
   endloop
 endfacet
 facet normal -7.071068e-01  0.000000e+00  7.071068e-01
   outer loop
     vertex  4.109973e-02  2.139441e-01  8.816922e-01
     vertex  4.109973e-02  2.144441e-01  8.816922e-01
     vertex  3.959973e-02  2.144441e-01  8.801922e-01
   endloop
 endfacet
 facet normal -7.071068e-01  0.000000e+00  7.071068e-01
   outer loop
     vertex  4.109973e-02  2.139441e-01  8.816922e-01
     vertex  3.959973e-02  2.144441e-01  8.801922e-01
     vertex  3.959973e-02  2.139441e-01  8.801922e-01
   endloop
 endfacet
 facet normal -5.773503e-01 -5.773503e-01 -5.773503e-01
   outer loop
     vertex  1.535997e-01  2.124441e-01  8.846922e-01
     vertex  1.550997e-01  2.139441e-01  8.816922e-01
     vertex  1.565997e-01  2.124441e-01  8.816922e-01
   endloop
 endfacet
 facet normal -5.773503e-01 -5.773503e-01 -5.773503e-01
   outer loop
     vertex  1.535997e-01  2.124441e-01  8.846922e-01
     vertex  1.535997e-01  2.139441e-01  8.831922e-01
     vertex  1.550997e-01  2.139441e-01  8.816922e-01
   endloop
 endfacet
 facet normal  5.773503e-01 -5.773503e-01 -5.773503e-01
   outer loop
     vertex  1.505997e-01  2.124441e-01  8.816922e-01
     vertex  1.520997e-01  2.139441e-01  8.816922e-01
     vertex  1.535997e-01  2.139441e-01  8.831922e-01
   endloop
 endfacet
 facet normal  5.773503e-01 -5.773503e-01 -5.773503e-01
   outer loop
     vertex  1.505997e-01  2.124441e-01  8.816922e-01
     vertex  1.535997e-01  2.139441e-01  8.831922e-01
     vertex  1.535997e-01  2.124441e-01  8.846922e-01
   endloop
 endfacet
 facet normal  5.773503e-01 -5.773503e-01  5.773503e-01
   outer loop
     vertex  1.535997e-01  2.124441e-01  8.786922e-01
     vertex  1.535997e-01  2.139441e-01  8.801922e-01
     vertex  1.520997e-01  2.139441e-01  8.816922e-01
   endloop
 endfacet
 facet normal  5.773503e-01 -5.773503e-01  5.773503e-01
   outer loop
     vertex  1.535997e-01  2.124441e-01  8.786922e-01
     vertex  1.520997e-01  2.139441e-01  8.816922e-01
     vertex  1.505997e-01  2.124441e-01  8.816922e-01
   endloop
 endfacet
 facet normal -5.773503e-01 -5.773503e-01  5.773503e-01
   outer loop
     vertex  1.565997e-01  2.124441e-01  8.816922e-01
     vertex  1.550997e-01  2.139441e-01  8.816922e-01
     vertex  1.535997e-01  2.139441e-01  8.801922e-01
   endloop
 endfacet
 facet normal -5.773503e-01 -5.773503e-01  5.773503e-01
   outer loop
     vertex  1.565997e-01  2.124441e-01  8.816922e-01
     vertex  1.535997e-01  2.139441e-01  8.801922e-01
     vertex  1.535997e-01  2.124441e-01  8.786922e-01
   endloop
 endfacet
 facet normal -7.071068e-01  0.000000e+00 -7.071068e-01
   outer loop
     vertex  1.535997e-01  2.139441e-01  8.831922e-01
     vertex  1.550997e-01  2.144441e-01  8.816922e-01
     vertex  1.550997e-01  2.139441e-01  8.816922e-01
   endloop
 endfacet
 facet normal -7.071068e-01  0.000000e+00 -7.071068e-01
   outer loop
     vertex  1.535997e-01  2.139441e-01  8.831922e-01
     vertex  1.535997e-01  2.144441e-01  8.831922e-01
     vertex  1.550997e-01  2.144441e-01  8.816922e-01
   endloop
 endfacet
 facet normal  7.071068e-01  0.000000e+00 -7.071068e-01
   outer loop
     vertex  1.520997e-01  2.139441e-01  8.816922e-01
     vertex  1.520997e-01  2.144441e-01  8.816922e-01
     vertex  1.535997e-01  2.144441e-01  8.831922e-01
   endloop
 endfacet
 facet normal  7.071068e-01  0.000000e+00 -7.071068e-01
   outer loop
     vertex  1.520997e-01  2.139441e-01  8.816922e-01
     vertex  1.535997e-01  2.144441e-01  8.831922e-01
     vertex  1.535997e-01  2.139441e-01  8.831922e-01
   endloop
 endfacet
 facet normal  7.071068e-01 -0.000000e+00  7.071068e-01
   outer loop
     vertex  1.535997e-01  2.139441e-01  8.801922e-01
     vertex  1.535997e-01  2.144441e-01  8.801922e-01
     vertex  1.520997e-01  2.144441e-01  8.816922e-01
   endloop
 endfacet
 facet normal  7.071068e-01  0.000000e+00  7.071068e-01
   outer loop
     vertex  1.535997e-01  2.139441e-01  8.801922e-01
     vertex  1.520997e-01  2.144441e-01  8.816922e-01
     vertex  1.520997e-01  2.139441e-01  8.816922e-01
   endloop
 endfacet
 facet normal -7.071068e-01  0.000000e+00  7.071068e-01
   outer loop
     vertex  1.550997e-01  2.139441e-01  8.816922e-01
     vertex  1.550997e-01  2.144441e-01  8.816922e-01
     vertex  1.535997e-01  2.144441e-01  8.801922e-01
   endloop
 endfacet
 facet normal -7.071068e-01  0.000000e+00  7.071068e-01
   outer loop
     vertex  1.550997e-01  2.139441e-01  8.816922e-01
     vertex  1.535997e-01  2.144441e-01  8.801922e-01
     vertex  1.535997e-01  2.139441e-01  8.801922e-01
   endloop
 endfacet
endsolid
