solid 
 facet normal  0.000000e+00 -0.000000e+00  1.000000e+00
   outer loop
     vertex  1.780997e-01 -2.805559e-01  8.406922e-01
     vertex  1.830997e-01 -2.755559e-01  8.406922e-01
     vertex  1.720997e-01 -2.725559e-01  8.406922e-01
   endloop
 endfacet
 facet normal  0.000000e+00  0.000000e+00  1.000000e+00
   outer loop
     vertex  1.940997e-01 -2.725559e-01  8.406922e-01
     vertex  1.720997e-01 -2.725559e-01  8.406922e-01
     vertex  1.830997e-01 -2.755559e-01  8.406922e-01
   endloop
 endfacet
 facet normal  0.000000e+00 -0.000000e+00  1.000000e+00
   outer loop
     vertex  1.880997e-01 -2.805559e-01  8.406922e-01
     vertex  1.940997e-01 -2.725559e-01  8.406922e-01
     vertex  1.830997e-01 -2.755559e-01  8.406922e-01
   endloop
 endfacet
 facet normal  0.000000e+00  0.000000e+00  1.000000e+00
   outer loop
     vertex  1.775997e-01 -2.949059e-01  8.406922e-01
     vertex  1.830997e-01 -2.855559e-01  8.406922e-01
     vertex  1.780997e-01 -2.805559e-01  8.406922e-01
   endloop
 endfacet
 facet normal  0.000000e+00  0.000000e+00  1.000000e+00
   outer loop
     vertex  1.749497e-01 -2.975559e-01  8.406922e-01
     vertex  1.775997e-01 -2.949059e-01  8.406922e-01
     vertex  1.780997e-01 -2.805559e-01  8.406922e-01
   endloop
 endfacet
 facet normal  0.000000e+00 -0.000000e+00  1.000000e+00
   outer loop
     vertex  1.749497e-01 -2.975559e-01  8.406922e-01
     vertex  1.780997e-01 -2.805559e-01  8.406922e-01
     vertex  1.720997e-01 -2.725559e-01  8.406922e-01
   endloop
 endfacet
 facet normal  0.000000e+00 -0.000000e+00  1.000000e+00
   outer loop
     vertex  1.875997e-01 -2.949059e-01  8.406922e-01
     vertex  1.880997e-01 -2.805559e-01  8.406922e-01
     vertex  1.830997e-01 -2.855559e-01  8.406922e-01
   endloop
 endfacet
 facet normal  0.000000e+00  0.000000e+00  1.000000e+00
   outer loop
     vertex  1.875997e-01 -2.949059e-01  8.406922e-01
     vertex  1.830997e-01 -2.855559e-01  8.406922e-01
     vertex  1.775997e-01 -2.949059e-01  8.406922e-01
   endloop
 endfacet
 facet normal  0.000000e+00  0.000000e+00  1.000000e+00
   outer loop
     vertex  1.849497e-01 -2.975559e-01  8.406922e-01
     vertex  1.775997e-01 -2.949059e-01  8.406922e-01
     vertex  1.802497e-01 -2.975559e-01  8.406922e-01
   endloop
 endfacet
 facet normal  0.000000e+00 -0.000000e+00  1.000000e+00
   outer loop
     vertex  1.849497e-01 -2.975559e-01  8.406922e-01
     vertex  1.875997e-01 -2.949059e-01  8.406922e-01
     vertex  1.775997e-01 -2.949059e-01  8.406922e-01
   endloop
 endfacet
 facet normal  0.000000e+00  0.000000e+00  1.000000e+00
   outer loop
     vertex  1.902497e-01 -2.975559e-01  8.406922e-01
     vertex  1.880997e-01 -2.805559e-01  8.406922e-01
     vertex  1.875997e-01 -2.949059e-01  8.406922e-01
   endloop
 endfacet
 facet normal  0.000000e+00 -0.000000e+00  1.000000e+00
   outer loop
     vertex  1.902497e-01 -2.975559e-01  8.406922e-01
     vertex  1.940997e-01 -2.725559e-01  8.406922e-01
     vertex  1.880997e-01 -2.805559e-01  8.406922e-01
   endloop
 endfacet
 facet normal  0.000000e+00  0.000000e+00  1.000000e+00
   outer loop
     vertex  1.875997e-01 -3.002059e-01  8.406922e-01
     vertex  1.802497e-01 -2.975559e-01  8.406922e-01
     vertex  1.775997e-01 -3.002059e-01  8.406922e-01
   endloop
 endfacet
 facet normal  0.000000e+00  0.000000e+00  1.000000e+00
   outer loop
     vertex  1.875997e-01 -3.002059e-01  8.406922e-01
     vertex  1.849497e-01 -2.975559e-01  8.406922e-01
     vertex  1.802497e-01 -2.975559e-01  8.406922e-01
   endloop
 endfacet
 facet normal  0.000000e+00 -0.000000e+00  1.000000e+00
   outer loop
     vertex  1.830997e-01 -3.095559e-01  8.406922e-01
     vertex  1.875997e-01 -3.002059e-01  8.406922e-01
     vertex  1.775997e-01 -3.002059e-01  8.406922e-01
   endloop
 endfacet
 facet normal  0.000000e+00  0.000000e+00  1.000000e+00
   outer loop
     vertex  1.780997e-01 -3.145559e-01  8.406922e-01
     vertex  1.775997e-01 -3.002059e-01  8.406922e-01
     vertex  1.749497e-01 -2.975559e-01  8.406922e-01
   endloop
 endfacet
 facet normal  0.000000e+00 -0.000000e+00  1.000000e+00
   outer loop
     vertex  1.780997e-01 -3.145559e-01  8.406922e-01
     vertex  1.830997e-01 -3.095559e-01  8.406922e-01
     vertex  1.775997e-01 -3.002059e-01  8.406922e-01
   endloop
 endfacet
 facet normal  0.000000e+00  0.000000e+00  1.000000e+00
   outer loop
     vertex  1.720997e-01 -3.225559e-01  8.406922e-01
     vertex  1.780997e-01 -3.145559e-01  8.406922e-01
     vertex  1.749497e-01 -2.975559e-01  8.406922e-01
   endloop
 endfacet
 facet normal  0.000000e+00 -0.000000e+00  1.000000e+00
   outer loop
     vertex  1.880997e-01 -3.145559e-01  8.406922e-01
     vertex  1.902497e-01 -2.975559e-01  8.406922e-01
     vertex  1.875997e-01 -3.002059e-01  8.406922e-01
   endloop
 endfacet
 facet normal  0.000000e+00  0.000000e+00  1.000000e+00
   outer loop
     vertex  1.880997e-01 -3.145559e-01  8.406922e-01
     vertex  1.875997e-01 -3.002059e-01  8.406922e-01
     vertex  1.830997e-01 -3.095559e-01  8.406922e-01
   endloop
 endfacet
 facet normal  0.000000e+00  0.000000e+00  1.000000e+00
   outer loop
     vertex  1.830997e-01 -3.195559e-01  8.406922e-01
     vertex  1.780997e-01 -3.145559e-01  8.406922e-01
     vertex  1.720997e-01 -3.225559e-01  8.406922e-01
   endloop
 endfacet
 facet normal  0.000000e+00  0.000000e+00  1.000000e+00
   outer loop
     vertex  1.940997e-01 -3.225559e-01  8.406922e-01
     vertex  1.880997e-01 -3.145559e-01  8.406922e-01
     vertex  1.830997e-01 -3.195559e-01  8.406922e-01
   endloop
 endfacet
 facet normal  0.000000e+00  0.000000e+00  1.000000e+00
   outer loop
     vertex  1.940997e-01 -3.225559e-01  8.406922e-01
     vertex  1.902497e-01 -2.975559e-01  8.406922e-01
     vertex  1.880997e-01 -3.145559e-01  8.406922e-01
   endloop
 endfacet
 facet normal  0.000000e+00  0.000000e+00  1.000000e+00
   outer loop
     vertex  1.940997e-01 -3.225559e-01  8.406922e-01
     vertex  1.830997e-01 -3.195559e-01  8.406922e-01
     vertex  1.720997e-01 -3.225559e-01  8.406922e-01
   endloop
 endfacet
 facet normal  0.000000e+00  0.000000e+00  1.000000e+00
   outer loop
     vertex  1.940997e-01 -2.725559e-01  8.406922e-01
     vertex  1.902497e-01 -2.975559e-01  8.406922e-01
     vertex  1.940997e-01 -3.225559e-01  8.406922e-01
   endloop
 endfacet
 facet normal  0.000000e+00  0.000000e+00  1.000000e+00
   outer loop
     vertex  1.720997e-01 -3.225559e-01  8.406922e-01
     vertex  1.749497e-01 -2.975559e-01  8.406922e-01
     vertex  1.720997e-01 -2.725559e-01  8.406922e-01
   endloop
 endfacet
 facet normal  0.000000e+00  1.000000e+00 -0.000000e+00
   outer loop
     vertex  1.940997e-01 -2.725559e-01  8.256922e-01
     vertex  1.720997e-01 -2.725559e-01  8.406922e-01
     vertex  1.940997e-01 -2.725559e-01  8.406922e-01
   endloop
 endfacet
 facet normal  0.000000e+00  1.000000e+00  0.000000e+00
   outer loop
     vertex  1.940997e-01 -2.725559e-01  8.256922e-01
     vertex  1.720997e-01 -2.725559e-01  8.256922e-01
     vertex  1.720997e-01 -2.725559e-01  8.406922e-01
   endloop
 endfacet
 facet normal -1.000000e+00 -0.000000e+00  0.000000e+00
   outer loop
     vertex  1.720997e-01 -2.725559e-01  8.406922e-01
     vertex  1.720997e-01 -3.225559e-01  8.256922e-01
     vertex  1.720997e-01 -3.225559e-01  8.406922e-01
   endloop
 endfacet
 facet normal -1.000000e+00  0.000000e+00  0.000000e+00
   outer loop
     vertex  1.720997e-01 -2.725559e-01  8.256922e-01
     vertex  1.720997e-01 -3.225559e-01  8.256922e-01
     vertex  1.720997e-01 -2.725559e-01  8.406922e-01
   endloop
 endfacet
 facet normal  0.000000e+00 -1.000000e+00  0.000000e+00
   outer loop
     vertex  1.720997e-01 -3.225559e-01  8.256922e-01
     vertex  1.940997e-01 -3.225559e-01  8.406922e-01
     vertex  1.720997e-01 -3.225559e-01  8.406922e-01
   endloop
 endfacet
 facet normal  0.000000e+00 -1.000000e+00  0.000000e+00
   outer loop
     vertex  1.720997e-01 -3.225559e-01  8.256922e-01
     vertex  1.940997e-01 -3.225559e-01  8.256922e-01
     vertex  1.940997e-01 -3.225559e-01  8.406922e-01
   endloop
 endfacet
 facet normal  1.000000e+00 -0.000000e+00  0.000000e+00
   outer loop
     vertex  1.940997e-01 -3.225559e-01  8.406922e-01
     vertex  1.940997e-01 -2.725559e-01  8.256922e-01
     vertex  1.940997e-01 -2.725559e-01  8.406922e-01
   endloop
 endfacet
 facet normal  1.000000e+00  0.000000e+00  0.000000e+00
   outer loop
     vertex  1.940997e-01 -3.225559e-01  8.256922e-01
     vertex  1.940997e-01 -2.725559e-01  8.256922e-01
     vertex  1.940997e-01 -3.225559e-01  8.406922e-01
   endloop
 endfacet
 facet normal  0.000000e+00  0.000000e+00 -1.000000e+00
   outer loop
     vertex  1.727247e-01 -2.975559e-01  8.256922e-01
     vertex  1.720997e-01 -2.725559e-01  8.256922e-01
     vertex  1.775997e-01 -2.926809e-01  8.256922e-01
   endloop
 endfacet
 facet normal  0.000000e+00  0.000000e+00 -1.000000e+00
   outer loop
     vertex  1.875997e-01 -2.926809e-01  8.256922e-01
     vertex  1.720997e-01 -2.725559e-01  8.256922e-01
     vertex  1.940997e-01 -2.725559e-01  8.256922e-01
   endloop
 endfacet
 facet normal  0.000000e+00  0.000000e+00 -1.000000e+00
   outer loop
     vertex  1.875997e-01 -2.926809e-01  8.256922e-01
     vertex  1.775997e-01 -2.926809e-01  8.256922e-01
     vertex  1.720997e-01 -2.725559e-01  8.256922e-01
   endloop
 endfacet
 facet normal  0.000000e+00  0.000000e+00 -1.000000e+00
   outer loop
     vertex  1.827247e-01 -2.975559e-01  8.256922e-01
     vertex  1.824747e-01 -2.975559e-01  8.256922e-01
     vertex  1.775997e-01 -2.926809e-01  8.256922e-01
   endloop
 endfacet
 facet normal  0.000000e+00  0.000000e+00 -1.000000e+00
   outer loop
     vertex  1.827247e-01 -2.975559e-01  8.256922e-01
     vertex  1.775997e-01 -2.926809e-01  8.256922e-01
     vertex  1.875997e-01 -2.926809e-01  8.256922e-01
   endloop
 endfacet
 facet normal  0.000000e+00  0.000000e+00 -1.000000e+00
   outer loop
     vertex  1.924747e-01 -2.975559e-01  8.256922e-01
     vertex  1.875997e-01 -2.926809e-01  8.256922e-01
     vertex  1.940997e-01 -2.725559e-01  8.256922e-01
   endloop
 endfacet
 facet normal  0.000000e+00  0.000000e+00 -1.000000e+00
   outer loop
     vertex  1.875997e-01 -3.024309e-01  8.256922e-01
     vertex  1.775997e-01 -3.024309e-01  8.256922e-01
     vertex  1.824747e-01 -2.975559e-01  8.256922e-01
   endloop
 endfacet
 facet normal  0.000000e+00  0.000000e+00 -1.000000e+00
   outer loop
     vertex  1.875997e-01 -3.024309e-01  8.256922e-01
     vertex  1.824747e-01 -2.975559e-01  8.256922e-01
     vertex  1.827247e-01 -2.975559e-01  8.256922e-01
   endloop
 endfacet
 facet normal  0.000000e+00  0.000000e+00 -1.000000e+00
   outer loop
     vertex  1.720997e-01 -3.225559e-01  8.256922e-01
     vertex  1.727247e-01 -2.975559e-01  8.256922e-01
     vertex  1.775997e-01 -3.024309e-01  8.256922e-01
   endloop
 endfacet
 facet normal  0.000000e+00  0.000000e+00 -1.000000e+00
   outer loop
     vertex  1.720997e-01 -3.225559e-01  8.256922e-01
     vertex  1.775997e-01 -3.024309e-01  8.256922e-01
     vertex  1.875997e-01 -3.024309e-01  8.256922e-01
   endloop
 endfacet
 facet normal  0.000000e+00  0.000000e+00 -1.000000e+00
   outer loop
     vertex  1.940997e-01 -3.225559e-01  8.256922e-01
     vertex  1.875997e-01 -3.024309e-01  8.256922e-01
     vertex  1.924747e-01 -2.975559e-01  8.256922e-01
   endloop
 endfacet
 facet normal  0.000000e+00  0.000000e+00 -1.000000e+00
   outer loop
     vertex  1.940997e-01 -3.225559e-01  8.256922e-01
     vertex  1.720997e-01 -3.225559e-01  8.256922e-01
     vertex  1.875997e-01 -3.024309e-01  8.256922e-01
   endloop
 endfacet
 facet normal  0.000000e+00 -0.000000e+00 -1.000000e+00
   outer loop
     vertex  1.940997e-01 -2.725559e-01  8.256922e-01
     vertex  1.940997e-01 -3.225559e-01  8.256922e-01
     vertex  1.924747e-01 -2.975559e-01  8.256922e-01
   endloop
 endfacet
 facet normal  0.000000e+00  0.000000e+00 -1.000000e+00
   outer loop
     vertex  1.720997e-01 -3.225559e-01  8.256922e-01
     vertex  1.720997e-01 -2.725559e-01  8.256922e-01
     vertex  1.727247e-01 -2.975559e-01  8.256922e-01
   endloop
 endfacet
 facet normal  7.071068e-01 -7.071068e-01  0.000000e+00
   outer loop
     vertex  1.775997e-01 -2.926809e-01  8.256922e-01
     vertex  1.727247e-01 -2.975559e-01  8.306922e-01
     vertex  1.727247e-01 -2.975559e-01  8.256922e-01
   endloop
 endfacet
 facet normal  7.071068e-01 -7.071068e-01  0.000000e+00
   outer loop
     vertex  1.775997e-01 -2.926809e-01  8.256922e-01
     vertex  1.775997e-01 -2.926809e-01  8.306922e-01
     vertex  1.727247e-01 -2.975559e-01  8.306922e-01
   endloop
 endfacet
 facet normal -7.071068e-01 -7.071068e-01  0.000000e+00
   outer loop
     vertex  1.824747e-01 -2.975559e-01  8.256922e-01
     vertex  1.824747e-01 -2.975559e-01  8.306922e-01
     vertex  1.775997e-01 -2.926809e-01  8.306922e-01
   endloop
 endfacet
 facet normal -7.071068e-01 -7.071068e-01  0.000000e+00
   outer loop
     vertex  1.824747e-01 -2.975559e-01  8.256922e-01
     vertex  1.775997e-01 -2.926809e-01  8.306922e-01
     vertex  1.775997e-01 -2.926809e-01  8.256922e-01
   endloop
 endfacet
 facet normal -7.071068e-01  7.071068e-01  0.000000e+00
   outer loop
     vertex  1.775997e-01 -3.024309e-01  8.256922e-01
     vertex  1.775997e-01 -3.024309e-01  8.306922e-01
     vertex  1.824747e-01 -2.975559e-01  8.306922e-01
   endloop
 endfacet
 facet normal -7.071068e-01  7.071068e-01  0.000000e+00
   outer loop
     vertex  1.775997e-01 -3.024309e-01  8.256922e-01
     vertex  1.824747e-01 -2.975559e-01  8.306922e-01
     vertex  1.824747e-01 -2.975559e-01  8.256922e-01
   endloop
 endfacet
 facet normal  7.071068e-01  7.071068e-01 -0.000000e+00
   outer loop
     vertex  1.727247e-01 -2.975559e-01  8.256922e-01
     vertex  1.727247e-01 -2.975559e-01  8.306922e-01
     vertex  1.775997e-01 -3.024309e-01  8.306922e-01
   endloop
 endfacet
 facet normal  7.071068e-01  7.071068e-01  0.000000e+00
   outer loop
     vertex  1.727247e-01 -2.975559e-01  8.256922e-01
     vertex  1.775997e-01 -3.024309e-01  8.306922e-01
     vertex  1.775997e-01 -3.024309e-01  8.256922e-01
   endloop
 endfacet
 facet normal  0.000000e+00  0.000000e+00 -1.000000e+00
   outer loop
     vertex  1.749497e-01 -2.975559e-01  8.306922e-01
     vertex  1.727247e-01 -2.975559e-01  8.306922e-01
     vertex  1.775997e-01 -2.926809e-01  8.306922e-01
   endloop
 endfacet
 facet normal -0.000000e+00  0.000000e+00 -1.000000e+00
   outer loop
     vertex  1.775997e-01 -2.949059e-01  8.306922e-01
     vertex  1.749497e-01 -2.975559e-01  8.306922e-01
     vertex  1.775997e-01 -2.926809e-01  8.306922e-01
   endloop
 endfacet
 facet normal  0.000000e+00  0.000000e+00 -1.000000e+00
   outer loop
     vertex  1.802497e-01 -2.975559e-01  8.306922e-01
     vertex  1.775997e-01 -2.949059e-01  8.306922e-01
     vertex  1.775997e-01 -2.926809e-01  8.306922e-01
   endloop
 endfacet
 facet normal  0.000000e+00  0.000000e+00 -1.000000e+00
   outer loop
     vertex  1.775997e-01 -3.024309e-01  8.306922e-01
     vertex  1.749497e-01 -2.975559e-01  8.306922e-01
     vertex  1.775997e-01 -3.002059e-01  8.306922e-01
   endloop
 endfacet
 facet normal  0.000000e+00  0.000000e+00 -1.000000e+00
   outer loop
     vertex  1.775997e-01 -3.024309e-01  8.306922e-01
     vertex  1.775997e-01 -3.002059e-01  8.306922e-01
     vertex  1.802497e-01 -2.975559e-01  8.306922e-01
   endloop
 endfacet
 facet normal  0.000000e+00  0.000000e+00 -1.000000e+00
   outer loop
     vertex  1.775997e-01 -3.024309e-01  8.306922e-01
     vertex  1.727247e-01 -2.975559e-01  8.306922e-01
     vertex  1.749497e-01 -2.975559e-01  8.306922e-01
   endloop
 endfacet
 facet normal  0.000000e+00  0.000000e+00 -1.000000e+00
   outer loop
     vertex  1.824747e-01 -2.975559e-01  8.306922e-01
     vertex  1.802497e-01 -2.975559e-01  8.306922e-01
     vertex  1.775997e-01 -2.926809e-01  8.306922e-01
   endloop
 endfacet
 facet normal -0.000000e+00  0.000000e+00 -1.000000e+00
   outer loop
     vertex  1.824747e-01 -2.975559e-01  8.306922e-01
     vertex  1.775997e-01 -3.024309e-01  8.306922e-01
     vertex  1.802497e-01 -2.975559e-01  8.306922e-01
   endloop
 endfacet
 facet normal  7.071068e-01 -7.071068e-01  0.000000e+00
   outer loop
     vertex  1.775997e-01 -2.949059e-01  8.306922e-01
     vertex  1.749497e-01 -2.975559e-01  8.406922e-01
     vertex  1.749497e-01 -2.975559e-01  8.306922e-01
   endloop
 endfacet
 facet normal  7.071068e-01 -7.071068e-01  0.000000e+00
   outer loop
     vertex  1.775997e-01 -2.949059e-01  8.306922e-01
     vertex  1.775997e-01 -2.949059e-01  8.406922e-01
     vertex  1.749497e-01 -2.975559e-01  8.406922e-01
   endloop
 endfacet
 facet normal -7.071068e-01 -7.071068e-01  0.000000e+00
   outer loop
     vertex  1.802497e-01 -2.975559e-01  8.306922e-01
     vertex  1.802497e-01 -2.975559e-01  8.406922e-01
     vertex  1.775997e-01 -2.949059e-01  8.406922e-01
   endloop
 endfacet
 facet normal -7.071068e-01 -7.071068e-01  0.000000e+00
   outer loop
     vertex  1.802497e-01 -2.975559e-01  8.306922e-01
     vertex  1.775997e-01 -2.949059e-01  8.406922e-01
     vertex  1.775997e-01 -2.949059e-01  8.306922e-01
   endloop
 endfacet
 facet normal -7.071068e-01  7.071068e-01  0.000000e+00
   outer loop
     vertex  1.775997e-01 -3.002059e-01  8.306922e-01
     vertex  1.775997e-01 -3.002059e-01  8.406922e-01
     vertex  1.802497e-01 -2.975559e-01  8.406922e-01
   endloop
 endfacet
 facet normal -7.071068e-01  7.071068e-01  0.000000e+00
   outer loop
     vertex  1.775997e-01 -3.002059e-01  8.306922e-01
     vertex  1.802497e-01 -2.975559e-01  8.406922e-01
     vertex  1.802497e-01 -2.975559e-01  8.306922e-01
   endloop
 endfacet
 facet normal  7.071068e-01  7.071068e-01 -0.000000e+00
   outer loop
     vertex  1.749497e-01 -2.975559e-01  8.306922e-01
     vertex  1.749497e-01 -2.975559e-01  8.406922e-01
     vertex  1.775997e-01 -3.002059e-01  8.406922e-01
   endloop
 endfacet
 facet normal  7.071068e-01  7.071068e-01  0.000000e+00
   outer loop
     vertex  1.749497e-01 -2.975559e-01  8.306922e-01
     vertex  1.775997e-01 -3.002059e-01  8.406922e-01
     vertex  1.775997e-01 -3.002059e-01  8.306922e-01
   endloop
 endfacet
 facet normal  7.071068e-01 -7.071068e-01  0.000000e+00
   outer loop
     vertex  1.875997e-01 -2.926809e-01  8.256922e-01
     vertex  1.827247e-01 -2.975559e-01  8.306922e-01
     vertex  1.827247e-01 -2.975559e-01  8.256922e-01
   endloop
 endfacet
 facet normal  7.071068e-01 -7.071068e-01  0.000000e+00
   outer loop
     vertex  1.875997e-01 -2.926809e-01  8.256922e-01
     vertex  1.875997e-01 -2.926809e-01  8.306922e-01
     vertex  1.827247e-01 -2.975559e-01  8.306922e-01
   endloop
 endfacet
 facet normal -7.071068e-01 -7.071068e-01  0.000000e+00
   outer loop
     vertex  1.924747e-01 -2.975559e-01  8.256922e-01
     vertex  1.924747e-01 -2.975559e-01  8.306922e-01
     vertex  1.875997e-01 -2.926809e-01  8.306922e-01
   endloop
 endfacet
 facet normal -7.071068e-01 -7.071068e-01  0.000000e+00
   outer loop
     vertex  1.924747e-01 -2.975559e-01  8.256922e-01
     vertex  1.875997e-01 -2.926809e-01  8.306922e-01
     vertex  1.875997e-01 -2.926809e-01  8.256922e-01
   endloop
 endfacet
 facet normal -7.071068e-01  7.071068e-01  0.000000e+00
   outer loop
     vertex  1.875997e-01 -3.024309e-01  8.256922e-01
     vertex  1.875997e-01 -3.024309e-01  8.306922e-01
     vertex  1.924747e-01 -2.975559e-01  8.306922e-01
   endloop
 endfacet
 facet normal -7.071068e-01  7.071068e-01  0.000000e+00
   outer loop
     vertex  1.875997e-01 -3.024309e-01  8.256922e-01
     vertex  1.924747e-01 -2.975559e-01  8.306922e-01
     vertex  1.924747e-01 -2.975559e-01  8.256922e-01
   endloop
 endfacet
 facet normal  7.071068e-01  7.071068e-01 -0.000000e+00
   outer loop
     vertex  1.827247e-01 -2.975559e-01  8.256922e-01
     vertex  1.827247e-01 -2.975559e-01  8.306922e-01
     vertex  1.875997e-01 -3.024309e-01  8.306922e-01
   endloop
 endfacet
 facet normal  7.071068e-01  7.071068e-01  0.000000e+00
   outer loop
     vertex  1.827247e-01 -2.975559e-01  8.256922e-01
     vertex  1.875997e-01 -3.024309e-01  8.306922e-01
     vertex  1.875997e-01 -3.024309e-01  8.256922e-01
   endloop
 endfacet
 facet normal  0.000000e+00  0.000000e+00 -1.000000e+00
   outer loop
     vertex  1.849497e-01 -2.975559e-01  8.306922e-01
     vertex  1.827247e-01 -2.975559e-01  8.306922e-01
     vertex  1.875997e-01 -2.926809e-01  8.306922e-01
   endloop
 endfacet
 facet normal -0.000000e+00  0.000000e+00 -1.000000e+00
   outer loop
     vertex  1.875997e-01 -2.949059e-01  8.306922e-01
     vertex  1.849497e-01 -2.975559e-01  8.306922e-01
     vertex  1.875997e-01 -2.926809e-01  8.306922e-01
   endloop
 endfacet
 facet normal  0.000000e+00  0.000000e+00 -1.000000e+00
   outer loop
     vertex  1.902497e-01 -2.975559e-01  8.306922e-01
     vertex  1.875997e-01 -2.949059e-01  8.306922e-01
     vertex  1.875997e-01 -2.926809e-01  8.306922e-01
   endloop
 endfacet
 facet normal  0.000000e+00  0.000000e+00 -1.000000e+00
   outer loop
     vertex  1.875997e-01 -3.024309e-01  8.306922e-01
     vertex  1.849497e-01 -2.975559e-01  8.306922e-01
     vertex  1.875997e-01 -3.002059e-01  8.306922e-01
   endloop
 endfacet
 facet normal  0.000000e+00  0.000000e+00 -1.000000e+00
   outer loop
     vertex  1.875997e-01 -3.024309e-01  8.306922e-01
     vertex  1.875997e-01 -3.002059e-01  8.306922e-01
     vertex  1.902497e-01 -2.975559e-01  8.306922e-01
   endloop
 endfacet
 facet normal  0.000000e+00  0.000000e+00 -1.000000e+00
   outer loop
     vertex  1.875997e-01 -3.024309e-01  8.306922e-01
     vertex  1.827247e-01 -2.975559e-01  8.306922e-01
     vertex  1.849497e-01 -2.975559e-01  8.306922e-01
   endloop
 endfacet
 facet normal  0.000000e+00  0.000000e+00 -1.000000e+00
   outer loop
     vertex  1.924747e-01 -2.975559e-01  8.306922e-01
     vertex  1.902497e-01 -2.975559e-01  8.306922e-01
     vertex  1.875997e-01 -2.926809e-01  8.306922e-01
   endloop
 endfacet
 facet normal -0.000000e+00  0.000000e+00 -1.000000e+00
   outer loop
     vertex  1.924747e-01 -2.975559e-01  8.306922e-01
     vertex  1.875997e-01 -3.024309e-01  8.306922e-01
     vertex  1.902497e-01 -2.975559e-01  8.306922e-01
   endloop
 endfacet
 facet normal  7.071068e-01 -7.071068e-01  0.000000e+00
   outer loop
     vertex  1.875997e-01 -2.949059e-01  8.306922e-01
     vertex  1.849497e-01 -2.975559e-01  8.406922e-01
     vertex  1.849497e-01 -2.975559e-01  8.306922e-01
   endloop
 endfacet
 facet normal  7.071068e-01 -7.071068e-01  0.000000e+00
   outer loop
     vertex  1.875997e-01 -2.949059e-01  8.306922e-01
     vertex  1.875997e-01 -2.949059e-01  8.406922e-01
     vertex  1.849497e-01 -2.975559e-01  8.406922e-01
   endloop
 endfacet
 facet normal -7.071068e-01 -7.071068e-01  0.000000e+00
   outer loop
     vertex  1.902497e-01 -2.975559e-01  8.306922e-01
     vertex  1.902497e-01 -2.975559e-01  8.406922e-01
     vertex  1.875997e-01 -2.949059e-01  8.406922e-01
   endloop
 endfacet
 facet normal -7.071068e-01 -7.071068e-01  0.000000e+00
   outer loop
     vertex  1.902497e-01 -2.975559e-01  8.306922e-01
     vertex  1.875997e-01 -2.949059e-01  8.406922e-01
     vertex  1.875997e-01 -2.949059e-01  8.306922e-01
   endloop
 endfacet
 facet normal -7.071068e-01  7.071068e-01  0.000000e+00
   outer loop
     vertex  1.875997e-01 -3.002059e-01  8.306922e-01
     vertex  1.875997e-01 -3.002059e-01  8.406922e-01
     vertex  1.902497e-01 -2.975559e-01  8.406922e-01
   endloop
 endfacet
 facet normal -7.071068e-01  7.071068e-01  0.000000e+00
   outer loop
     vertex  1.875997e-01 -3.002059e-01  8.306922e-01
     vertex  1.902497e-01 -2.975559e-01  8.406922e-01
     vertex  1.902497e-01 -2.975559e-01  8.306922e-01
   endloop
 endfacet
 facet normal  7.071068e-01  7.071068e-01 -0.000000e+00
   outer loop
     vertex  1.849497e-01 -2.975559e-01  8.306922e-01
     vertex  1.849497e-01 -2.975559e-01  8.406922e-01
     vertex  1.875997e-01 -3.002059e-01  8.406922e-01
   endloop
 endfacet
 facet normal  7.071068e-01  7.071068e-01  0.000000e+00
   outer loop
     vertex  1.849497e-01 -2.975559e-01  8.306922e-01
     vertex  1.875997e-01 -3.002059e-01  8.406922e-01
     vertex  1.875997e-01 -3.002059e-01  8.306922e-01
   endloop
 endfacet
 facet normal -7.071068e-01  7.071068e-01  0.000000e+00
   outer loop
     vertex  1.830997e-01 -3.195559e-01  8.306922e-01
     vertex  1.880997e-01 -3.145559e-01  8.406922e-01
     vertex  1.880997e-01 -3.145559e-01  8.306922e-01
   endloop
 endfacet
 facet normal -7.071068e-01  7.071068e-01  0.000000e+00
   outer loop
     vertex  1.830997e-01 -3.195559e-01  8.306922e-01
     vertex  1.830997e-01 -3.195559e-01  8.406922e-01
     vertex  1.880997e-01 -3.145559e-01  8.406922e-01
   endloop
 endfacet
 facet normal  7.071068e-01  7.071068e-01 -0.000000e+00
   outer loop
     vertex  1.780997e-01 -3.145559e-01  8.306922e-01
     vertex  1.780997e-01 -3.145559e-01  8.406922e-01
     vertex  1.830997e-01 -3.195559e-01  8.406922e-01
   endloop
 endfacet
 facet normal  7.071068e-01  7.071068e-01  0.000000e+00
   outer loop
     vertex  1.780997e-01 -3.145559e-01  8.306922e-01
     vertex  1.830997e-01 -3.195559e-01  8.406922e-01
     vertex  1.830997e-01 -3.195559e-01  8.306922e-01
   endloop
 endfacet
 facet normal  7.071068e-01 -7.071068e-01  0.000000e+00
   outer loop
     vertex  1.830997e-01 -3.095559e-01  8.306922e-01
     vertex  1.830997e-01 -3.095559e-01  8.406922e-01
     vertex  1.780997e-01 -3.145559e-01  8.406922e-01
   endloop
 endfacet
 facet normal  7.071068e-01 -7.071068e-01  0.000000e+00
   outer loop
     vertex  1.830997e-01 -3.095559e-01  8.306922e-01
     vertex  1.780997e-01 -3.145559e-01  8.406922e-01
     vertex  1.780997e-01 -3.145559e-01  8.306922e-01
   endloop
 endfacet
 facet normal -7.071068e-01 -7.071068e-01  0.000000e+00
   outer loop
     vertex  1.880997e-01 -3.145559e-01  8.306922e-01
     vertex  1.880997e-01 -3.145559e-01  8.406922e-01
     vertex  1.830997e-01 -3.095559e-01  8.406922e-01
   endloop
 endfacet
 facet normal -7.071068e-01 -7.071068e-01  0.000000e+00
   outer loop
     vertex  1.880997e-01 -3.145559e-01  8.306922e-01
     vertex  1.830997e-01 -3.095559e-01  8.406922e-01
     vertex  1.830997e-01 -3.095559e-01  8.306922e-01
   endloop
 endfacet
 facet normal  0.000000e+00  0.000000e+00  1.000000e+00
   outer loop
     vertex  1.830997e-01 -3.095559e-01  8.306922e-01
     vertex  1.830997e-01 -3.195559e-01  8.306922e-01
     vertex  1.880997e-01 -3.145559e-01  8.306922e-01
   endloop
 endfacet
 facet normal  0.000000e+00  0.000000e+00  1.000000e+00
   outer loop
     vertex  1.830997e-01 -3.095559e-01  8.306922e-01
     vertex  1.780997e-01 -3.145559e-01  8.306922e-01
     vertex  1.830997e-01 -3.195559e-01  8.306922e-01
   endloop
 endfacet
 facet normal -7.071068e-01 -7.071068e-01  0.000000e+00
   outer loop
     vertex  1.830997e-01 -2.755559e-01  8.406922e-01
     vertex  1.880997e-01 -2.805559e-01  8.306922e-01
     vertex  1.880997e-01 -2.805559e-01  8.406922e-01
   endloop
 endfacet
 facet normal -7.071068e-01 -7.071068e-01 -0.000000e+00
   outer loop
     vertex  1.830997e-01 -2.755559e-01  8.406922e-01
     vertex  1.830997e-01 -2.755559e-01  8.306922e-01
     vertex  1.880997e-01 -2.805559e-01  8.306922e-01
   endloop
 endfacet
 facet normal  7.071068e-01 -7.071068e-01  0.000000e+00
   outer loop
     vertex  1.780997e-01 -2.805559e-01  8.406922e-01
     vertex  1.780997e-01 -2.805559e-01  8.306922e-01
     vertex  1.830997e-01 -2.755559e-01  8.306922e-01
   endloop
 endfacet
 facet normal  7.071068e-01 -7.071068e-01  0.000000e+00
   outer loop
     vertex  1.780997e-01 -2.805559e-01  8.406922e-01
     vertex  1.830997e-01 -2.755559e-01  8.306922e-01
     vertex  1.830997e-01 -2.755559e-01  8.406922e-01
   endloop
 endfacet
 facet normal  7.071068e-01  7.071068e-01  0.000000e+00
   outer loop
     vertex  1.830997e-01 -2.855559e-01  8.406922e-01
     vertex  1.830997e-01 -2.855559e-01  8.306922e-01
     vertex  1.780997e-01 -2.805559e-01  8.306922e-01
   endloop
 endfacet
 facet normal  7.071068e-01  7.071068e-01  0.000000e+00
   outer loop
     vertex  1.830997e-01 -2.855559e-01  8.406922e-01
     vertex  1.780997e-01 -2.805559e-01  8.306922e-01
     vertex  1.780997e-01 -2.805559e-01  8.406922e-01
   endloop
 endfacet
 facet normal -7.071068e-01  7.071068e-01  0.000000e+00
   outer loop
     vertex  1.880997e-01 -2.805559e-01  8.406922e-01
     vertex  1.880997e-01 -2.805559e-01  8.306922e-01
     vertex  1.830997e-01 -2.855559e-01  8.306922e-01
   endloop
 endfacet
 facet normal -7.071068e-01  7.071068e-01  0.000000e+00
   outer loop
     vertex  1.880997e-01 -2.805559e-01  8.406922e-01
     vertex  1.830997e-01 -2.855559e-01  8.306922e-01
     vertex  1.830997e-01 -2.855559e-01  8.406922e-01
   endloop
 endfacet
 facet normal  0.000000e+00  0.000000e+00  1.000000e+00
   outer loop
     vertex  1.780997e-01 -2.805559e-01  8.306922e-01
     vertex  1.880997e-01 -2.805559e-01  8.306922e-01
     vertex  1.830997e-01 -2.755559e-01  8.306922e-01
   endloop
 endfacet
 facet normal -0.000000e+00  0.000000e+00  1.000000e+00
   outer loop
     vertex  1.780997e-01 -2.805559e-01  8.306922e-01
     vertex  1.830997e-01 -2.855559e-01  8.306922e-01
     vertex  1.880997e-01 -2.805559e-01  8.306922e-01
   endloop
 endfacet
endsolid
