solid 
 facet normal  6.546537e-01  3.779645e-01  6.546537e-01
   outer loop
     vertex  1.974047e-01  6.804843e-03  4.487972e-01
     vertex  1.974047e-01  2.777825e-03  4.511222e-01
     vertex  1.979047e-01  2.777825e-03  4.506222e-01
   endloop
 endfacet
 facet normal  9.521148e-01  2.161914e-01  2.161914e-01
   outer loop
     vertex  1.979047e-01  6.927825e-03  4.464722e-01
     vertex  1.974047e-01  6.804843e-03  4.487972e-01
     vertex  1.979047e-01  2.777825e-03  4.506222e-01
   endloop
 endfacet
 facet normal -2.388450e-01  9.710577e-01  0.000000e+00
   outer loop
     vertex  1.974047e-01  6.804843e-03  4.441472e-01
     vertex  1.974047e-01  6.804843e-03  4.487972e-01
     vertex  1.979047e-01  6.927825e-03  4.464722e-01
   endloop
 endfacet
 facet normal  9.521148e-01  2.161914e-01 -2.161914e-01
   outer loop
     vertex  1.979047e-01  2.777825e-03  4.423222e-01
     vertex  1.974047e-01  6.804843e-03  4.441472e-01
     vertex  1.979047e-01  6.927825e-03  4.464722e-01
   endloop
 endfacet
 facet normal  6.546537e-01  3.779645e-01 -6.546537e-01
   outer loop
     vertex  1.974047e-01  2.777825e-03  4.418222e-01
     vertex  1.974047e-01  6.804843e-03  4.441472e-01
     vertex  1.979047e-01  2.777825e-03  4.423222e-01
   endloop
 endfacet
 facet normal  6.546537e-01 -3.779645e-01 -6.546537e-01
   outer loop
     vertex  1.974047e-01 -1.249193e-03  4.441472e-01
     vertex  1.974047e-01  2.777825e-03  4.418222e-01
     vertex  1.979047e-01  2.777825e-03  4.423222e-01
   endloop
 endfacet
 facet normal  9.521148e-01 -2.161914e-01 -2.161914e-01
   outer loop
     vertex  1.979047e-01 -1.372175e-03  4.464722e-01
     vertex  1.974047e-01 -1.249193e-03  4.441472e-01
     vertex  1.979047e-01  2.777825e-03  4.423222e-01
   endloop
 endfacet
 facet normal -2.388450e-01 -9.710577e-01 -0.000000e+00
   outer loop
     vertex  1.974047e-01 -1.249193e-03  4.487972e-01
     vertex  1.974047e-01 -1.249193e-03  4.441472e-01
     vertex  1.979047e-01 -1.372175e-03  4.464722e-01
   endloop
 endfacet
 facet normal  9.521148e-01 -2.161914e-01  2.161914e-01
   outer loop
     vertex  1.979047e-01  2.777825e-03  4.506222e-01
     vertex  1.974047e-01 -1.249193e-03  4.487972e-01
     vertex  1.979047e-01 -1.372175e-03  4.464722e-01
   endloop
 endfacet
 facet normal  6.546537e-01 -3.779645e-01  6.546537e-01
   outer loop
     vertex  1.974047e-01  2.777825e-03  4.511222e-01
     vertex  1.974047e-01 -1.249193e-03  4.487972e-01
     vertex  1.979047e-01  2.777825e-03  4.506222e-01
   endloop
 endfacet
 facet normal  1.000000e+00 -2.706829e-11 -2.706829e-11
   outer loop
     vertex  1.979047e-01  2.777825e-03  4.495722e-01
     vertex  1.979047e-01  6.927825e-03  4.464722e-01
     vertex  1.979047e-01  2.777825e-03  4.506222e-01
   endloop
 endfacet
 facet normal  1.000000e+00  0.000000e+00  9.168293e-12
   outer loop
     vertex  1.979047e-01  2.777825e-03  4.495722e-01
     vertex  1.979047e-01  5.877825e-03  4.464722e-01
     vertex  1.979047e-01  6.927825e-03  4.464722e-01
   endloop
 endfacet
 facet normal  1.000000e+00 -0.000000e+00  9.168293e-12
   outer loop
     vertex  1.979047e-01 -1.372175e-03  4.464722e-01
     vertex  1.979047e-01 -3.221750e-04  4.464722e-01
     vertex  1.979047e-01  2.777825e-03  4.495722e-01
   endloop
 endfacet
 facet normal  1.000000e+00  2.706829e-11 -2.706829e-11
   outer loop
     vertex  1.979047e-01 -1.372175e-03  4.464722e-01
     vertex  1.979047e-01  2.777825e-03  4.495722e-01
     vertex  1.979047e-01  2.777825e-03  4.506222e-01
   endloop
 endfacet
 facet normal  1.000000e+00  0.000000e+00  0.000000e+00
   outer loop
     vertex  1.979047e-01  2.777825e-03  4.423222e-01
     vertex  1.979047e-01  5.877825e-03  4.464722e-01
     vertex  1.979047e-01  2.777825e-03  4.433722e-01
   endloop
 endfacet
 facet normal  1.000000e+00  0.000000e+00 -0.000000e+00
   outer loop
     vertex  1.979047e-01  2.777825e-03  4.423222e-01
     vertex  1.979047e-01  2.777825e-03  4.433722e-01
     vertex  1.979047e-01 -3.221750e-04  4.464722e-01
   endloop
 endfacet
 facet normal  1.000000e+00  0.000000e+00  0.000000e+00
   outer loop
     vertex  1.979047e-01  2.777825e-03  4.423222e-01
     vertex  1.979047e-01  6.927825e-03  4.464722e-01
     vertex  1.979047e-01  5.877825e-03  4.464722e-01
   endloop
 endfacet
 facet normal  1.000000e+00  0.000000e+00  0.000000e+00
   outer loop
     vertex  1.979047e-01  2.777825e-03  4.423222e-01
     vertex  1.979047e-01 -3.221750e-04  4.464722e-01
     vertex  1.979047e-01 -1.372175e-03  4.464722e-01
   endloop
 endfacet
 facet normal  0.000000e+00 -5.000000e-01 -8.660254e-01
   outer loop
     vertex  1.947047e-01  2.777825e-03  4.418222e-01
     vertex  1.974047e-01  2.777825e-03  4.418222e-01
     vertex  1.974047e-01 -1.249193e-03  4.441472e-01
   endloop
 endfacet
 facet normal  2.248269e-01 -9.743987e-01  0.000000e+00
   outer loop
     vertex  1.947047e-01 -1.872175e-03  4.464722e-01
     vertex  1.974047e-01 -1.249193e-03  4.441472e-01
     vertex  1.974047e-01 -1.249193e-03  4.487972e-01
   endloop
 endfacet
 facet normal -4.071293e-01 -6.458505e-01 -6.458505e-01
   outer loop
     vertex  1.947047e-01 -1.872175e-03  4.464722e-01
     vertex  1.947047e-01  2.777825e-03  4.418222e-01
     vertex  1.974047e-01 -1.249193e-03  4.441472e-01
   endloop
 endfacet
 facet normal  1.823254e-11 -5.000000e-01  8.660254e-01
   outer loop
     vertex  1.947047e-01  2.777825e-03  4.511222e-01
     vertex  1.974047e-01 -1.249193e-03  4.487972e-01
     vertex  1.974047e-01  2.777825e-03  4.511222e-01
   endloop
 endfacet
 facet normal  1.823254e-11  5.000000e-01  8.660254e-01
   outer loop
     vertex  1.947047e-01  2.777825e-03  4.511222e-01
     vertex  1.974047e-01  2.777825e-03  4.511222e-01
     vertex  1.974047e-01  6.804843e-03  4.487972e-01
   endloop
 endfacet
 facet normal -4.071293e-01 -6.458505e-01  6.458505e-01
   outer loop
     vertex  1.947047e-01  2.777825e-03  4.511222e-01
     vertex  1.947047e-01 -1.872175e-03  4.464722e-01
     vertex  1.974047e-01 -1.249193e-03  4.487972e-01
   endloop
 endfacet
 facet normal  2.248269e-01  9.743987e-01  0.000000e+00
   outer loop
     vertex  1.947047e-01  7.427825e-03  4.464722e-01
     vertex  1.974047e-01  6.804843e-03  4.487972e-01
     vertex  1.974047e-01  6.804843e-03  4.441472e-01
   endloop
 endfacet
 facet normal -4.071293e-01  6.458505e-01  6.458505e-01
   outer loop
     vertex  1.947047e-01  7.427825e-03  4.464722e-01
     vertex  1.947047e-01  2.777825e-03  4.511222e-01
     vertex  1.974047e-01  6.804843e-03  4.487972e-01
   endloop
 endfacet
 facet normal  0.000000e+00  5.000000e-01 -8.660254e-01
   outer loop
     vertex  1.947047e-01  2.777825e-03  4.418222e-01
     vertex  1.974047e-01  6.804843e-03  4.441472e-01
     vertex  1.974047e-01  2.777825e-03  4.418222e-01
   endloop
 endfacet
 facet normal -4.071293e-01  6.458505e-01 -6.458505e-01
   outer loop
     vertex  1.947047e-01  2.777825e-03  4.418222e-01
     vertex  1.947047e-01  7.427825e-03  4.464722e-01
     vertex  1.974047e-01  6.804843e-03  4.441472e-01
   endloop
 endfacet
 facet normal  1.000000e+00  1.631617e-11  2.105312e-11
   outer loop
     vertex  1.947047e-01  2.777825e-03  4.511222e-01
     vertex  1.947047e-01  8.777825e-03  4.464722e-01
     vertex  1.947047e-01  2.777825e-03  4.524722e-01
   endloop
 endfacet
 facet normal  1.000000e+00  0.000000e+00  0.000000e+00
   outer loop
     vertex  1.947047e-01  2.777825e-03  4.511222e-01
     vertex  1.947047e-01  7.427825e-03  4.464722e-01
     vertex  1.947047e-01  8.777825e-03  4.464722e-01
   endloop
 endfacet
 facet normal  1.000000e+00  0.000000e+00  0.000000e+00
   outer loop
     vertex  1.947047e-01 -3.222175e-03  4.464722e-01
     vertex  1.947047e-01 -1.872175e-03  4.464722e-01
     vertex  1.947047e-01  2.777825e-03  4.511222e-01
   endloop
 endfacet
 facet normal  1.000000e+00 -1.631617e-11  2.105312e-11
   outer loop
     vertex  1.947047e-01 -3.222175e-03  4.464722e-01
     vertex  1.947047e-01  2.777825e-03  4.511222e-01
     vertex  1.947047e-01  2.777825e-03  4.524722e-01
   endloop
 endfacet
 facet normal  1.000000e+00  2.716531e-11  2.105312e-11
   outer loop
     vertex  1.947047e-01  2.777825e-03  4.404722e-01
     vertex  1.947047e-01  2.777825e-03  4.418222e-01
     vertex  1.947047e-01 -1.872175e-03  4.464722e-01
   endloop
 endfacet
 facet normal  1.000000e+00 -2.716531e-11  2.105312e-11
   outer loop
     vertex  1.947047e-01  2.777825e-03  4.404722e-01
     vertex  1.947047e-01  7.427825e-03  4.464722e-01
     vertex  1.947047e-01  2.777825e-03  4.418222e-01
   endloop
 endfacet
 facet normal  1.000000e+00  0.000000e+00  0.000000e+00
   outer loop
     vertex  1.947047e-01  2.777825e-03  4.404722e-01
     vertex  1.947047e-01  8.777825e-03  4.464722e-01
     vertex  1.947047e-01  7.427825e-03  4.464722e-01
   endloop
 endfacet
 facet normal  1.000000e+00  0.000000e+00  0.000000e+00
   outer loop
     vertex  1.947047e-01  2.777825e-03  4.404722e-01
     vertex  1.947047e-01 -1.872175e-03  4.464722e-01
     vertex  1.947047e-01 -3.222175e-03  4.464722e-01
   endloop
 endfacet
 facet normal  0.000000e+00 -7.071068e-01  7.071068e-01
   outer loop
     vertex  1.947047e-01 -3.222175e-03  4.464722e-01
     vertex  1.947047e-01  2.777825e-03  4.524722e-01
     vertex  1.937047e-01  2.777825e-03  4.524722e-01
   endloop
 endfacet
 facet normal  0.000000e+00 -7.071068e-01  7.071068e-01
   outer loop
     vertex  1.947047e-01 -3.222175e-03  4.464722e-01
     vertex  1.937047e-01  2.777825e-03  4.524722e-01
     vertex  1.937047e-01 -3.222175e-03  4.464722e-01
   endloop
 endfacet
 facet normal -0.000000e+00 -7.071068e-01 -7.071068e-01
   outer loop
     vertex  1.947047e-01  2.777825e-03  4.404722e-01
     vertex  1.937047e-01 -3.222175e-03  4.464722e-01
     vertex  1.937047e-01  2.777825e-03  4.404722e-01
   endloop
 endfacet
 facet normal  0.000000e+00 -7.071068e-01 -7.071068e-01
   outer loop
     vertex  1.947047e-01  2.777825e-03  4.404722e-01
     vertex  1.947047e-01 -3.222175e-03  4.464722e-01
     vertex  1.937047e-01 -3.222175e-03  4.464722e-01
   endloop
 endfacet
 facet normal  0.000000e+00  7.071068e-01 -7.071068e-01
   outer loop
     vertex  1.947047e-01  8.777825e-03  4.464722e-01
     vertex  1.937047e-01  2.777825e-03  4.404722e-01
     vertex  1.937047e-01  8.777825e-03  4.464722e-01
   endloop
 endfacet
 facet normal  0.000000e+00  7.071068e-01 -7.071068e-01
   outer loop
     vertex  1.947047e-01  8.777825e-03  4.464722e-01
     vertex  1.947047e-01  2.777825e-03  4.404722e-01
     vertex  1.937047e-01  2.777825e-03  4.404722e-01
   endloop
 endfacet
 facet normal  0.000000e+00  7.071068e-01  7.071068e-01
   outer loop
     vertex  1.947047e-01  2.777825e-03  4.524722e-01
     vertex  1.937047e-01  8.777825e-03  4.464722e-01
     vertex  1.937047e-01  2.777825e-03  4.524722e-01
   endloop
 endfacet
 facet normal  0.000000e+00  7.071068e-01  7.071068e-01
   outer loop
     vertex  1.947047e-01  2.777825e-03  4.524722e-01
     vertex  1.947047e-01  8.777825e-03  4.464722e-01
     vertex  1.937047e-01  8.777825e-03  4.464722e-01
   endloop
 endfacet
 facet normal -1.000000e+00  4.736952e-12  0.000000e+00
   outer loop
     vertex  1.937047e-01  2.777825e-03  4.495722e-01
     vertex  1.937047e-01  2.777825e-03  4.524722e-01
     vertex  1.937047e-01  8.777825e-03  4.464722e-01
   endloop
 endfacet
 facet normal -1.000000e+00  0.000000e+00 -9.168293e-12
   outer loop
     vertex  1.937047e-01  2.777825e-03  4.495722e-01
     vertex  1.937047e-01  8.777825e-03  4.464722e-01
     vertex  1.937047e-01  5.877825e-03  4.464722e-01
   endloop
 endfacet
 facet normal -1.000000e+00  0.000000e+00 -9.168293e-12
   outer loop
     vertex  1.937047e-01 -3.222175e-03  4.464722e-01
     vertex  1.937047e-01  2.777825e-03  4.495722e-01
     vertex  1.937047e-01 -3.221750e-04  4.464722e-01
   endloop
 endfacet
 facet normal -1.000000e+00 -4.736952e-12  0.000000e+00
   outer loop
     vertex  1.937047e-01 -3.222175e-03  4.464722e-01
     vertex  1.937047e-01  2.777825e-03  4.524722e-01
     vertex  1.937047e-01  2.777825e-03  4.495722e-01
   endloop
 endfacet
 facet normal -1.000000e+00  0.000000e+00  0.000000e+00
   outer loop
     vertex  1.937047e-01  2.777825e-03  4.404722e-01
     vertex  1.937047e-01 -3.221750e-04  4.464722e-01
     vertex  1.937047e-01  2.777825e-03  4.433722e-01
   endloop
 endfacet
 facet normal -1.000000e+00  0.000000e+00  0.000000e+00
   outer loop
     vertex  1.937047e-01  2.777825e-03  4.404722e-01
     vertex  1.937047e-01  2.777825e-03  4.433722e-01
     vertex  1.937047e-01  5.877825e-03  4.464722e-01
   endloop
 endfacet
 facet normal -1.000000e+00  0.000000e+00  0.000000e+00
   outer loop
     vertex  1.937047e-01  2.777825e-03  4.404722e-01
     vertex  1.937047e-01  5.877825e-03  4.464722e-01
     vertex  1.937047e-01  8.777825e-03  4.464722e-01
   endloop
 endfacet
 facet normal -1.000000e+00  0.000000e+00  0.000000e+00
   outer loop
     vertex  1.937047e-01  2.777825e-03  4.404722e-01
     vertex  1.937047e-01 -3.222175e-03  4.464722e-01
     vertex  1.937047e-01 -3.221750e-04  4.464722e-01
   endloop
 endfacet
 facet normal  0.000000e+00  7.071068e-01 -7.071068e-01
   outer loop
     vertex  1.979047e-01 -3.221750e-04  4.464722e-01
     vertex  1.937047e-01  2.777825e-03  4.495722e-01
     vertex  1.979047e-01  2.777825e-03  4.495722e-01
   endloop
 endfacet
 facet normal  0.000000e+00  7.071068e-01 -7.071068e-01
   outer loop
     vertex  1.979047e-01 -3.221750e-04  4.464722e-01
     vertex  1.937047e-01 -3.221750e-04  4.464722e-01
     vertex  1.937047e-01  2.777825e-03  4.495722e-01
   endloop
 endfacet
 facet normal  0.000000e+00  7.071068e-01  7.071068e-01
   outer loop
     vertex  1.979047e-01  2.777825e-03  4.433722e-01
     vertex  1.937047e-01  2.777825e-03  4.433722e-01
     vertex  1.937047e-01 -3.221750e-04  4.464722e-01
   endloop
 endfacet
 facet normal  0.000000e+00  7.071068e-01  7.071068e-01
   outer loop
     vertex  1.979047e-01  2.777825e-03  4.433722e-01
     vertex  1.937047e-01 -3.221750e-04  4.464722e-01
     vertex  1.979047e-01 -3.221750e-04  4.464722e-01
   endloop
 endfacet
 facet normal  0.000000e+00 -7.071068e-01  7.071068e-01
   outer loop
     vertex  1.979047e-01  5.877825e-03  4.464722e-01
     vertex  1.937047e-01  5.877825e-03  4.464722e-01
     vertex  1.937047e-01  2.777825e-03  4.433722e-01
   endloop
 endfacet
 facet normal  0.000000e+00 -7.071068e-01  7.071068e-01
   outer loop
     vertex  1.979047e-01  5.877825e-03  4.464722e-01
     vertex  1.937047e-01  2.777825e-03  4.433722e-01
     vertex  1.979047e-01  2.777825e-03  4.433722e-01
   endloop
 endfacet
 facet normal -0.000000e+00 -7.071068e-01 -7.071068e-01
   outer loop
     vertex  1.979047e-01  2.777825e-03  4.495722e-01
     vertex  1.937047e-01  2.777825e-03  4.495722e-01
     vertex  1.937047e-01  5.877825e-03  4.464722e-01
   endloop
 endfacet
 facet normal  0.000000e+00 -7.071068e-01 -7.071068e-01
   outer loop
     vertex  1.979047e-01  2.777825e-03  4.495722e-01
     vertex  1.937047e-01  5.877825e-03  4.464722e-01
     vertex  1.979047e-01  5.877825e-03  4.464722e-01
   endloop
 endfacet
endsolid
