solid 
 facet normal  0.000000e+00 -1.000000e+00  0.000000e+00
   outer loop
     vertex  2.383997e-01 -2.345559e-01  8.686922e-01
     vertex  2.407247e-01 -2.345559e-01  8.686922e-01
     vertex  2.335997e-01 -2.345559e-01  8.758172e-01
   endloop
 endfacet
 facet normal  0.000000e+00 -1.000000e+00  0.000000e+00
   outer loop
     vertex  2.383997e-01 -2.345559e-01  8.686922e-01
     vertex  2.335997e-01 -2.345559e-01  8.758172e-01
     vertex  2.335997e-01 -2.345559e-01  8.734922e-01
   endloop
 endfacet
 facet normal  0.000000e+00 -1.000000e+00  0.000000e+00
   outer loop
     vertex  2.264747e-01 -2.345559e-01  8.686922e-01
     vertex  2.287997e-01 -2.345559e-01  8.686922e-01
     vertex  2.335997e-01 -2.345559e-01  8.734922e-01
   endloop
 endfacet
 facet normal  0.000000e+00 -1.000000e+00  0.000000e+00
   outer loop
     vertex  2.264747e-01 -2.345559e-01  8.686922e-01
     vertex  2.335997e-01 -2.345559e-01  8.734922e-01
     vertex  2.335997e-01 -2.345559e-01  8.758172e-01
   endloop
 endfacet
 facet normal  0.000000e+00 -1.000000e+00  0.000000e+00
   outer loop
     vertex  2.335997e-01 -2.345559e-01  8.615672e-01
     vertex  2.383997e-01 -2.345559e-01  8.686922e-01
     vertex  2.335997e-01 -2.345559e-01  8.638922e-01
   endloop
 endfacet
 facet normal  0.000000e+00 -1.000000e+00  0.000000e+00
   outer loop
     vertex  2.335997e-01 -2.345559e-01  8.615672e-01
     vertex  2.335997e-01 -2.345559e-01  8.638922e-01
     vertex  2.287997e-01 -2.345559e-01  8.686922e-01
   endloop
 endfacet
 facet normal  0.000000e+00 -1.000000e+00  0.000000e+00
   outer loop
     vertex  2.335997e-01 -2.345559e-01  8.615672e-01
     vertex  2.407247e-01 -2.345559e-01  8.686922e-01
     vertex  2.383997e-01 -2.345559e-01  8.686922e-01
   endloop
 endfacet
 facet normal  0.000000e+00 -1.000000e+00  0.000000e+00
   outer loop
     vertex  2.335997e-01 -2.345559e-01  8.615672e-01
     vertex  2.287997e-01 -2.345559e-01  8.686922e-01
     vertex  2.264747e-01 -2.345559e-01  8.686922e-01
   endloop
 endfacet
 facet normal -6.947466e-01 -1.861568e-01 -6.947466e-01
   outer loop
     vertex  2.381399e-01 -2.344059e-01  8.686922e-01
     vertex  2.335997e-01 -2.344059e-01  8.732324e-01
     vertex  2.335997e-01 -2.342559e-01  8.731922e-01
   endloop
 endfacet
 facet normal -6.947466e-01 -1.861568e-01 -6.947466e-01
   outer loop
     vertex  2.381399e-01 -2.344059e-01  8.686922e-01
     vertex  2.335997e-01 -2.342559e-01  8.731922e-01
     vertex  2.380997e-01 -2.342559e-01  8.686922e-01
   endloop
 endfacet
 facet normal -2.505628e-01 -9.351131e-01 -2.505628e-01
   outer loop
     vertex  2.382497e-01 -2.345157e-01  8.686922e-01
     vertex  2.383997e-01 -2.345559e-01  8.686922e-01
     vertex  2.335997e-01 -2.345559e-01  8.734922e-01
   endloop
 endfacet
 facet normal -2.505628e-01 -9.351131e-01 -2.505628e-01
   outer loop
     vertex  2.382497e-01 -2.345157e-01  8.686922e-01
     vertex  2.335997e-01 -2.345559e-01  8.734922e-01
     vertex  2.335997e-01 -2.345157e-01  8.733422e-01
   endloop
 endfacet
 facet normal -5.773503e-01 -5.773503e-01 -5.773503e-01
   outer loop
     vertex  2.382497e-01 -2.345157e-01  8.686922e-01
     vertex  2.335997e-01 -2.345157e-01  8.733422e-01
     vertex  2.335997e-01 -2.344059e-01  8.732324e-01
   endloop
 endfacet
 facet normal -5.773503e-01 -5.773503e-01 -5.773503e-01
   outer loop
     vertex  2.382497e-01 -2.345157e-01  8.686922e-01
     vertex  2.335997e-01 -2.344059e-01  8.732324e-01
     vertex  2.381399e-01 -2.344059e-01  8.686922e-01
   endloop
 endfacet
 facet normal -6.947466e-01 -1.861568e-01  6.947466e-01
   outer loop
     vertex  2.335997e-01 -2.344059e-01  8.641520e-01
     vertex  2.380997e-01 -2.342559e-01  8.686922e-01
     vertex  2.335997e-01 -2.342559e-01  8.641922e-01
   endloop
 endfacet
 facet normal -6.947466e-01 -1.861568e-01  6.947466e-01
   outer loop
     vertex  2.335997e-01 -2.344059e-01  8.641520e-01
     vertex  2.381399e-01 -2.344059e-01  8.686922e-01
     vertex  2.380997e-01 -2.342559e-01  8.686922e-01
   endloop
 endfacet
 facet normal -2.505628e-01 -9.351131e-01  2.505628e-01
   outer loop
     vertex  2.335997e-01 -2.345157e-01  8.640422e-01
     vertex  2.335997e-01 -2.345559e-01  8.638922e-01
     vertex  2.383997e-01 -2.345559e-01  8.686922e-01
   endloop
 endfacet
 facet normal -5.773503e-01 -5.773503e-01  5.773503e-01
   outer loop
     vertex  2.335997e-01 -2.345157e-01  8.640422e-01
     vertex  2.382497e-01 -2.345157e-01  8.686922e-01
     vertex  2.381399e-01 -2.344059e-01  8.686922e-01
   endloop
 endfacet
 facet normal -5.773503e-01 -5.773503e-01  5.773503e-01
   outer loop
     vertex  2.335997e-01 -2.345157e-01  8.640422e-01
     vertex  2.381399e-01 -2.344059e-01  8.686922e-01
     vertex  2.335997e-01 -2.344059e-01  8.641520e-01
   endloop
 endfacet
 facet normal -2.505628e-01 -9.351131e-01  2.505628e-01
   outer loop
     vertex  2.335997e-01 -2.345157e-01  8.640422e-01
     vertex  2.383997e-01 -2.345559e-01  8.686922e-01
     vertex  2.382497e-01 -2.345157e-01  8.686922e-01
   endloop
 endfacet
 facet normal  6.947466e-01 -1.861568e-01  6.947466e-01
   outer loop
     vertex  2.290595e-01 -2.344059e-01  8.686922e-01
     vertex  2.335997e-01 -2.342559e-01  8.641922e-01
     vertex  2.290997e-01 -2.342559e-01  8.686922e-01
   endloop
 endfacet
 facet normal  6.947466e-01 -1.861568e-01 -6.947466e-01
   outer loop
     vertex  2.290595e-01 -2.344059e-01  8.686922e-01
     vertex  2.290997e-01 -2.342559e-01  8.686922e-01
     vertex  2.335997e-01 -2.342559e-01  8.731922e-01
   endloop
 endfacet
 facet normal  6.947466e-01 -1.861568e-01 -6.947466e-01
   outer loop
     vertex  2.290595e-01 -2.344059e-01  8.686922e-01
     vertex  2.335997e-01 -2.342559e-01  8.731922e-01
     vertex  2.335997e-01 -2.344059e-01  8.732324e-01
   endloop
 endfacet
 facet normal  6.947466e-01 -1.861568e-01  6.947466e-01
   outer loop
     vertex  2.290595e-01 -2.344059e-01  8.686922e-01
     vertex  2.335997e-01 -2.344059e-01  8.641520e-01
     vertex  2.335997e-01 -2.342559e-01  8.641922e-01
   endloop
 endfacet
 facet normal  2.505628e-01 -9.351131e-01  2.505628e-01
   outer loop
     vertex  2.289497e-01 -2.345157e-01  8.686922e-01
     vertex  2.287997e-01 -2.345559e-01  8.686922e-01
     vertex  2.335997e-01 -2.345559e-01  8.638922e-01
   endloop
 endfacet
 facet normal  2.505628e-01 -9.351131e-01 -2.505628e-01
   outer loop
     vertex  2.289497e-01 -2.345157e-01  8.686922e-01
     vertex  2.335997e-01 -2.345559e-01  8.734922e-01
     vertex  2.287997e-01 -2.345559e-01  8.686922e-01
   endloop
 endfacet
 facet normal  2.505628e-01 -9.351131e-01 -2.505628e-01
   outer loop
     vertex  2.289497e-01 -2.345157e-01  8.686922e-01
     vertex  2.335997e-01 -2.345157e-01  8.733422e-01
     vertex  2.335997e-01 -2.345559e-01  8.734922e-01
   endloop
 endfacet
 facet normal  5.773503e-01 -5.773503e-01 -5.773503e-01
   outer loop
     vertex  2.289497e-01 -2.345157e-01  8.686922e-01
     vertex  2.335997e-01 -2.344059e-01  8.732324e-01
     vertex  2.335997e-01 -2.345157e-01  8.733422e-01
   endloop
 endfacet
 facet normal  5.773503e-01 -5.773503e-01  5.773503e-01
   outer loop
     vertex  2.289497e-01 -2.345157e-01  8.686922e-01
     vertex  2.335997e-01 -2.345157e-01  8.640422e-01
     vertex  2.335997e-01 -2.344059e-01  8.641520e-01
   endloop
 endfacet
 facet normal  2.505628e-01 -9.351131e-01  2.505628e-01
   outer loop
     vertex  2.289497e-01 -2.345157e-01  8.686922e-01
     vertex  2.335997e-01 -2.345559e-01  8.638922e-01
     vertex  2.335997e-01 -2.345157e-01  8.640422e-01
   endloop
 endfacet
 facet normal  5.773503e-01 -5.773503e-01 -5.773503e-01
   outer loop
     vertex  2.289497e-01 -2.345157e-01  8.686922e-01
     vertex  2.290595e-01 -2.344059e-01  8.686922e-01
     vertex  2.335997e-01 -2.344059e-01  8.732324e-01
   endloop
 endfacet
 facet normal  5.773503e-01 -5.773503e-01  5.773503e-01
   outer loop
     vertex  2.289497e-01 -2.345157e-01  8.686922e-01
     vertex  2.335997e-01 -2.344059e-01  8.641520e-01
     vertex  2.290595e-01 -2.344059e-01  8.686922e-01
   endloop
 endfacet
 facet normal -7.071068e-01  0.000000e+00 -7.071068e-01
   outer loop
     vertex  2.380997e-01 -2.278559e-01  8.686922e-01
     vertex  2.335997e-01 -2.342559e-01  8.731922e-01
     vertex  2.335997e-01 -2.278559e-01  8.731922e-01
   endloop
 endfacet
 facet normal -7.071068e-01 -0.000000e+00 -7.071068e-01
   outer loop
     vertex  2.380997e-01 -2.278559e-01  8.686922e-01
     vertex  2.380997e-01 -2.342559e-01  8.686922e-01
     vertex  2.335997e-01 -2.342559e-01  8.731922e-01
   endloop
 endfacet
 facet normal -7.071068e-01  0.000000e+00  7.071068e-01
   outer loop
     vertex  2.335997e-01 -2.278559e-01  8.641922e-01
     vertex  2.335997e-01 -2.342559e-01  8.641922e-01
     vertex  2.380997e-01 -2.342559e-01  8.686922e-01
   endloop
 endfacet
 facet normal -7.071068e-01  0.000000e+00  7.071068e-01
   outer loop
     vertex  2.335997e-01 -2.278559e-01  8.641922e-01
     vertex  2.380997e-01 -2.342559e-01  8.686922e-01
     vertex  2.380997e-01 -2.278559e-01  8.686922e-01
   endloop
 endfacet
 facet normal  7.071068e-01  0.000000e+00  7.071068e-01
   outer loop
     vertex  2.290997e-01 -2.278559e-01  8.686922e-01
     vertex  2.290997e-01 -2.342559e-01  8.686922e-01
     vertex  2.335997e-01 -2.342559e-01  8.641922e-01
   endloop
 endfacet
 facet normal  7.071068e-01  0.000000e+00  7.071068e-01
   outer loop
     vertex  2.290997e-01 -2.278559e-01  8.686922e-01
     vertex  2.335997e-01 -2.342559e-01  8.641922e-01
     vertex  2.335997e-01 -2.278559e-01  8.641922e-01
   endloop
 endfacet
 facet normal  7.071068e-01  0.000000e+00 -7.071068e-01
   outer loop
     vertex  2.335997e-01 -2.278559e-01  8.731922e-01
     vertex  2.335997e-01 -2.342559e-01  8.731922e-01
     vertex  2.290997e-01 -2.342559e-01  8.686922e-01
   endloop
 endfacet
 facet normal  7.071068e-01  0.000000e+00 -7.071068e-01
   outer loop
     vertex  2.335997e-01 -2.278559e-01  8.731922e-01
     vertex  2.290997e-01 -2.342559e-01  8.686922e-01
     vertex  2.290997e-01 -2.278559e-01  8.686922e-01
   endloop
 endfacet
 facet normal -2.505628e-01  9.351131e-01 -2.505628e-01
   outer loop
     vertex  2.382497e-01 -2.275960e-01  8.686922e-01
     vertex  2.335997e-01 -2.275960e-01  8.733422e-01
     vertex  2.335997e-01 -2.275559e-01  8.734922e-01
   endloop
 endfacet
 facet normal -2.505628e-01  9.351131e-01 -2.505628e-01
   outer loop
     vertex  2.382497e-01 -2.275960e-01  8.686922e-01
     vertex  2.335997e-01 -2.275559e-01  8.734922e-01
     vertex  2.383997e-01 -2.275559e-01  8.686922e-01
   endloop
 endfacet
 facet normal -6.947466e-01  1.861568e-01 -6.947466e-01
   outer loop
     vertex  2.381399e-01 -2.277059e-01  8.686922e-01
     vertex  2.380997e-01 -2.278559e-01  8.686922e-01
     vertex  2.335997e-01 -2.278559e-01  8.731922e-01
   endloop
 endfacet
 facet normal -6.947466e-01  1.861568e-01 -6.947466e-01
   outer loop
     vertex  2.381399e-01 -2.277059e-01  8.686922e-01
     vertex  2.335997e-01 -2.278559e-01  8.731922e-01
     vertex  2.335997e-01 -2.277059e-01  8.732324e-01
   endloop
 endfacet
 facet normal -5.773503e-01  5.773503e-01 -5.773503e-01
   outer loop
     vertex  2.381399e-01 -2.277059e-01  8.686922e-01
     vertex  2.335997e-01 -2.277059e-01  8.732324e-01
     vertex  2.335997e-01 -2.275960e-01  8.733422e-01
   endloop
 endfacet
 facet normal -5.773503e-01  5.773503e-01 -5.773503e-01
   outer loop
     vertex  2.381399e-01 -2.277059e-01  8.686922e-01
     vertex  2.335997e-01 -2.275960e-01  8.733422e-01
     vertex  2.382497e-01 -2.275960e-01  8.686922e-01
   endloop
 endfacet
 facet normal -2.505628e-01  9.351131e-01  2.505628e-01
   outer loop
     vertex  2.335997e-01 -2.275960e-01  8.640422e-01
     vertex  2.383997e-01 -2.275559e-01  8.686922e-01
     vertex  2.335997e-01 -2.275559e-01  8.638922e-01
   endloop
 endfacet
 facet normal -2.505628e-01  9.351131e-01  2.505628e-01
   outer loop
     vertex  2.335997e-01 -2.275960e-01  8.640422e-01
     vertex  2.382497e-01 -2.275960e-01  8.686922e-01
     vertex  2.383997e-01 -2.275559e-01  8.686922e-01
   endloop
 endfacet
 facet normal -6.947466e-01  1.861568e-01  6.947466e-01
   outer loop
     vertex  2.335997e-01 -2.277059e-01  8.641520e-01
     vertex  2.335997e-01 -2.278559e-01  8.641922e-01
     vertex  2.380997e-01 -2.278559e-01  8.686922e-01
   endloop
 endfacet
 facet normal -5.773503e-01  5.773503e-01  5.773503e-01
   outer loop
     vertex  2.335997e-01 -2.277059e-01  8.641520e-01
     vertex  2.381399e-01 -2.277059e-01  8.686922e-01
     vertex  2.382497e-01 -2.275960e-01  8.686922e-01
   endloop
 endfacet
 facet normal -5.773503e-01  5.773503e-01  5.773503e-01
   outer loop
     vertex  2.335997e-01 -2.277059e-01  8.641520e-01
     vertex  2.382497e-01 -2.275960e-01  8.686922e-01
     vertex  2.335997e-01 -2.275960e-01  8.640422e-01
   endloop
 endfacet
 facet normal -6.947466e-01  1.861568e-01  6.947466e-01
   outer loop
     vertex  2.335997e-01 -2.277059e-01  8.641520e-01
     vertex  2.380997e-01 -2.278559e-01  8.686922e-01
     vertex  2.381399e-01 -2.277059e-01  8.686922e-01
   endloop
 endfacet
 facet normal  2.505628e-01  9.351131e-01  2.505628e-01
   outer loop
     vertex  2.289497e-01 -2.275960e-01  8.686922e-01
     vertex  2.335997e-01 -2.275559e-01  8.638922e-01
     vertex  2.287997e-01 -2.275559e-01  8.686922e-01
   endloop
 endfacet
 facet normal  2.505628e-01  9.351131e-01 -2.505628e-01
   outer loop
     vertex  2.289497e-01 -2.275960e-01  8.686922e-01
     vertex  2.287997e-01 -2.275559e-01  8.686922e-01
     vertex  2.335997e-01 -2.275559e-01  8.734922e-01
   endloop
 endfacet
 facet normal  2.505628e-01  9.351131e-01 -2.505628e-01
   outer loop
     vertex  2.289497e-01 -2.275960e-01  8.686922e-01
     vertex  2.335997e-01 -2.275559e-01  8.734922e-01
     vertex  2.335997e-01 -2.275960e-01  8.733422e-01
   endloop
 endfacet
 facet normal  2.505628e-01  9.351131e-01  2.505628e-01
   outer loop
     vertex  2.289497e-01 -2.275960e-01  8.686922e-01
     vertex  2.335997e-01 -2.275960e-01  8.640422e-01
     vertex  2.335997e-01 -2.275559e-01  8.638922e-01
   endloop
 endfacet
 facet normal  6.947466e-01  1.861568e-01  6.947466e-01
   outer loop
     vertex  2.290595e-01 -2.277059e-01  8.686922e-01
     vertex  2.290997e-01 -2.278559e-01  8.686922e-01
     vertex  2.335997e-01 -2.278559e-01  8.641922e-01
   endloop
 endfacet
 facet normal  6.947466e-01  1.861568e-01 -6.947466e-01
   outer loop
     vertex  2.290595e-01 -2.277059e-01  8.686922e-01
     vertex  2.335997e-01 -2.278559e-01  8.731922e-01
     vertex  2.290997e-01 -2.278559e-01  8.686922e-01
   endloop
 endfacet
 facet normal  6.947466e-01  1.861568e-01 -6.947466e-01
   outer loop
     vertex  2.290595e-01 -2.277059e-01  8.686922e-01
     vertex  2.335997e-01 -2.277059e-01  8.732324e-01
     vertex  2.335997e-01 -2.278559e-01  8.731922e-01
   endloop
 endfacet
 facet normal  5.773503e-01  5.773503e-01 -5.773503e-01
   outer loop
     vertex  2.290595e-01 -2.277059e-01  8.686922e-01
     vertex  2.335997e-01 -2.275960e-01  8.733422e-01
     vertex  2.335997e-01 -2.277059e-01  8.732324e-01
   endloop
 endfacet
 facet normal  5.773503e-01  5.773503e-01  5.773503e-01
   outer loop
     vertex  2.290595e-01 -2.277059e-01  8.686922e-01
     vertex  2.335997e-01 -2.277059e-01  8.641520e-01
     vertex  2.335997e-01 -2.275960e-01  8.640422e-01
   endloop
 endfacet
 facet normal  6.947466e-01  1.861568e-01  6.947466e-01
   outer loop
     vertex  2.290595e-01 -2.277059e-01  8.686922e-01
     vertex  2.335997e-01 -2.278559e-01  8.641922e-01
     vertex  2.335997e-01 -2.277059e-01  8.641520e-01
   endloop
 endfacet
 facet normal  5.773503e-01  5.773503e-01 -5.773503e-01
   outer loop
     vertex  2.290595e-01 -2.277059e-01  8.686922e-01
     vertex  2.289497e-01 -2.275960e-01  8.686922e-01
     vertex  2.335997e-01 -2.275960e-01  8.733422e-01
   endloop
 endfacet
 facet normal  5.773503e-01  5.773503e-01  5.773503e-01
   outer loop
     vertex  2.290595e-01 -2.277059e-01  8.686922e-01
     vertex  2.335997e-01 -2.275960e-01  8.640422e-01
     vertex  2.289497e-01 -2.275960e-01  8.686922e-01
   endloop
 endfacet
 facet normal  0.000000e+00  1.000000e+00 -0.000000e+00
   outer loop
     vertex  2.383997e-01 -2.275559e-01  8.686922e-01
     vertex  2.335997e-01 -2.275559e-01  8.758172e-01
     vertex  2.407247e-01 -2.275559e-01  8.686922e-01
   endloop
 endfacet
 facet normal  0.000000e+00  1.000000e+00  0.000000e+00
   outer loop
     vertex  2.383997e-01 -2.275559e-01  8.686922e-01
     vertex  2.335997e-01 -2.275559e-01  8.734922e-01
     vertex  2.335997e-01 -2.275559e-01  8.758172e-01
   endloop
 endfacet
 facet normal  0.000000e+00  1.000000e+00  0.000000e+00
   outer loop
     vertex  2.264747e-01 -2.275559e-01  8.686922e-01
     vertex  2.335997e-01 -2.275559e-01  8.734922e-01
     vertex  2.287997e-01 -2.275559e-01  8.686922e-01
   endloop
 endfacet
 facet normal  0.000000e+00  1.000000e+00  0.000000e+00
   outer loop
     vertex  2.264747e-01 -2.275559e-01  8.686922e-01
     vertex  2.335997e-01 -2.275559e-01  8.758172e-01
     vertex  2.335997e-01 -2.275559e-01  8.734922e-01
   endloop
 endfacet
 facet normal  0.000000e+00  1.000000e+00  0.000000e+00
   outer loop
     vertex  2.335997e-01 -2.275559e-01  8.615672e-01
     vertex  2.335997e-01 -2.275559e-01  8.638922e-01
     vertex  2.383997e-01 -2.275559e-01  8.686922e-01
   endloop
 endfacet
 facet normal  0.000000e+00  1.000000e+00 -0.000000e+00
   outer loop
     vertex  2.335997e-01 -2.275559e-01  8.615672e-01
     vertex  2.287997e-01 -2.275559e-01  8.686922e-01
     vertex  2.335997e-01 -2.275559e-01  8.638922e-01
   endloop
 endfacet
 facet normal  0.000000e+00  1.000000e+00  0.000000e+00
   outer loop
     vertex  2.335997e-01 -2.275559e-01  8.615672e-01
     vertex  2.383997e-01 -2.275559e-01  8.686922e-01
     vertex  2.407247e-01 -2.275559e-01  8.686922e-01
   endloop
 endfacet
 facet normal  0.000000e+00  1.000000e+00  0.000000e+00
   outer loop
     vertex  2.335997e-01 -2.275559e-01  8.615672e-01
     vertex  2.264747e-01 -2.275559e-01  8.686922e-01
     vertex  2.287997e-01 -2.275559e-01  8.686922e-01
   endloop
 endfacet
 facet normal  6.947466e-01  1.861568e-01  6.947466e-01
   outer loop
     vertex  2.408113e-01 -2.276059e-01  8.686922e-01
     vertex  2.335997e-01 -2.276059e-01  8.759038e-01
     vertex  2.335997e-01 -2.276559e-01  8.759172e-01
   endloop
 endfacet
 facet normal  6.947466e-01  1.861568e-01  6.947466e-01
   outer loop
     vertex  2.408113e-01 -2.276059e-01  8.686922e-01
     vertex  2.335997e-01 -2.276559e-01  8.759172e-01
     vertex  2.408247e-01 -2.276559e-01  8.686922e-01
   endloop
 endfacet
 facet normal  2.505628e-01  9.351131e-01  2.505628e-01
   outer loop
     vertex  2.407747e-01 -2.275692e-01  8.686922e-01
     vertex  2.407247e-01 -2.275559e-01  8.686922e-01
     vertex  2.335997e-01 -2.275559e-01  8.758172e-01
   endloop
 endfacet
 facet normal  2.505628e-01  9.351131e-01  2.505628e-01
   outer loop
     vertex  2.407747e-01 -2.275692e-01  8.686922e-01
     vertex  2.335997e-01 -2.275559e-01  8.758172e-01
     vertex  2.335997e-01 -2.275692e-01  8.758672e-01
   endloop
 endfacet
 facet normal  5.773503e-01  5.773503e-01  5.773503e-01
   outer loop
     vertex  2.407747e-01 -2.275692e-01  8.686922e-01
     vertex  2.335997e-01 -2.275692e-01  8.758672e-01
     vertex  2.335997e-01 -2.276059e-01  8.759038e-01
   endloop
 endfacet
 facet normal  5.773503e-01  5.773503e-01  5.773503e-01
   outer loop
     vertex  2.407747e-01 -2.275692e-01  8.686922e-01
     vertex  2.335997e-01 -2.276059e-01  8.759038e-01
     vertex  2.408113e-01 -2.276059e-01  8.686922e-01
   endloop
 endfacet
 facet normal  6.947466e-01  1.861568e-01 -6.947466e-01
   outer loop
     vertex  2.335997e-01 -2.276059e-01  8.614806e-01
     vertex  2.408247e-01 -2.276559e-01  8.686922e-01
     vertex  2.335997e-01 -2.276559e-01  8.614672e-01
   endloop
 endfacet
 facet normal  6.947466e-01  1.861568e-01 -6.947466e-01
   outer loop
     vertex  2.335997e-01 -2.276059e-01  8.614806e-01
     vertex  2.408113e-01 -2.276059e-01  8.686922e-01
     vertex  2.408247e-01 -2.276559e-01  8.686922e-01
   endloop
 endfacet
 facet normal  2.505628e-01  9.351131e-01 -2.505628e-01
   outer loop
     vertex  2.335997e-01 -2.275692e-01  8.615172e-01
     vertex  2.335997e-01 -2.275559e-01  8.615672e-01
     vertex  2.407247e-01 -2.275559e-01  8.686922e-01
   endloop
 endfacet
 facet normal  5.773503e-01  5.773503e-01 -5.773503e-01
   outer loop
     vertex  2.335997e-01 -2.275692e-01  8.615172e-01
     vertex  2.407747e-01 -2.275692e-01  8.686922e-01
     vertex  2.408113e-01 -2.276059e-01  8.686922e-01
   endloop
 endfacet
 facet normal  5.773503e-01  5.773503e-01 -5.773503e-01
   outer loop
     vertex  2.335997e-01 -2.275692e-01  8.615172e-01
     vertex  2.408113e-01 -2.276059e-01  8.686922e-01
     vertex  2.335997e-01 -2.276059e-01  8.614806e-01
   endloop
 endfacet
 facet normal  2.505628e-01  9.351131e-01 -2.505628e-01
   outer loop
     vertex  2.335997e-01 -2.275692e-01  8.615172e-01
     vertex  2.407247e-01 -2.275559e-01  8.686922e-01
     vertex  2.407747e-01 -2.275692e-01  8.686922e-01
   endloop
 endfacet
 facet normal -6.947466e-01  1.861568e-01 -6.947466e-01
   outer loop
     vertex  2.263881e-01 -2.276059e-01  8.686922e-01
     vertex  2.335997e-01 -2.276559e-01  8.614672e-01
     vertex  2.263747e-01 -2.276559e-01  8.686922e-01
   endloop
 endfacet
 facet normal -6.947466e-01  1.861568e-01  6.947466e-01
   outer loop
     vertex  2.263881e-01 -2.276059e-01  8.686922e-01
     vertex  2.263747e-01 -2.276559e-01  8.686922e-01
     vertex  2.335997e-01 -2.276559e-01  8.759172e-01
   endloop
 endfacet
 facet normal -6.947466e-01  1.861568e-01  6.947466e-01
   outer loop
     vertex  2.263881e-01 -2.276059e-01  8.686922e-01
     vertex  2.335997e-01 -2.276559e-01  8.759172e-01
     vertex  2.335997e-01 -2.276059e-01  8.759038e-01
   endloop
 endfacet
 facet normal -6.947466e-01  1.861568e-01 -6.947466e-01
   outer loop
     vertex  2.263881e-01 -2.276059e-01  8.686922e-01
     vertex  2.335997e-01 -2.276059e-01  8.614806e-01
     vertex  2.335997e-01 -2.276559e-01  8.614672e-01
   endloop
 endfacet
 facet normal -2.505628e-01  9.351131e-01 -2.505628e-01
   outer loop
     vertex  2.264247e-01 -2.275692e-01  8.686922e-01
     vertex  2.264747e-01 -2.275559e-01  8.686922e-01
     vertex  2.335997e-01 -2.275559e-01  8.615672e-01
   endloop
 endfacet
 facet normal -2.505628e-01  9.351131e-01  2.505628e-01
   outer loop
     vertex  2.264247e-01 -2.275692e-01  8.686922e-01
     vertex  2.335997e-01 -2.275559e-01  8.758172e-01
     vertex  2.264747e-01 -2.275559e-01  8.686922e-01
   endloop
 endfacet
 facet normal -2.505628e-01  9.351131e-01  2.505628e-01
   outer loop
     vertex  2.264247e-01 -2.275692e-01  8.686922e-01
     vertex  2.335997e-01 -2.275692e-01  8.758672e-01
     vertex  2.335997e-01 -2.275559e-01  8.758172e-01
   endloop
 endfacet
 facet normal -5.773503e-01  5.773503e-01  5.773503e-01
   outer loop
     vertex  2.264247e-01 -2.275692e-01  8.686922e-01
     vertex  2.335997e-01 -2.276059e-01  8.759038e-01
     vertex  2.335997e-01 -2.275692e-01  8.758672e-01
   endloop
 endfacet
 facet normal -5.773503e-01  5.773503e-01 -5.773503e-01
   outer loop
     vertex  2.264247e-01 -2.275692e-01  8.686922e-01
     vertex  2.335997e-01 -2.275692e-01  8.615172e-01
     vertex  2.335997e-01 -2.276059e-01  8.614806e-01
   endloop
 endfacet
 facet normal -2.505628e-01  9.351131e-01 -2.505628e-01
   outer loop
     vertex  2.264247e-01 -2.275692e-01  8.686922e-01
     vertex  2.335997e-01 -2.275559e-01  8.615672e-01
     vertex  2.335997e-01 -2.275692e-01  8.615172e-01
   endloop
 endfacet
 facet normal -5.773503e-01  5.773503e-01  5.773503e-01
   outer loop
     vertex  2.264247e-01 -2.275692e-01  8.686922e-01
     vertex  2.263881e-01 -2.276059e-01  8.686922e-01
     vertex  2.335997e-01 -2.276059e-01  8.759038e-01
   endloop
 endfacet
 facet normal -5.773503e-01  5.773503e-01 -5.773503e-01
   outer loop
     vertex  2.264247e-01 -2.275692e-01  8.686922e-01
     vertex  2.335997e-01 -2.276059e-01  8.614806e-01
     vertex  2.263881e-01 -2.276059e-01  8.686922e-01
   endloop
 endfacet
 facet normal  7.071068e-01  0.000000e+00  7.071068e-01
   outer loop
     vertex  2.408247e-01 -2.276559e-01  8.686922e-01
     vertex  2.335997e-01 -2.276559e-01  8.759172e-01
     vertex  2.335997e-01 -2.278259e-01  8.759172e-01
   endloop
 endfacet
 facet normal  7.071068e-01  0.000000e+00  7.071068e-01
   outer loop
     vertex  2.408247e-01 -2.276559e-01  8.686922e-01
     vertex  2.335997e-01 -2.278259e-01  8.759172e-01
     vertex  2.408247e-01 -2.278259e-01  8.686922e-01
   endloop
 endfacet
 facet normal  7.071068e-01  0.000000e+00 -7.071068e-01
   outer loop
     vertex  2.335997e-01 -2.276559e-01  8.614672e-01
     vertex  2.408247e-01 -2.278259e-01  8.686922e-01
     vertex  2.335997e-01 -2.278259e-01  8.614672e-01
   endloop
 endfacet
 facet normal  7.071068e-01  0.000000e+00 -7.071068e-01
   outer loop
     vertex  2.335997e-01 -2.276559e-01  8.614672e-01
     vertex  2.408247e-01 -2.276559e-01  8.686922e-01
     vertex  2.408247e-01 -2.278259e-01  8.686922e-01
   endloop
 endfacet
 facet normal -7.071068e-01 -0.000000e+00 -7.071068e-01
   outer loop
     vertex  2.263747e-01 -2.276559e-01  8.686922e-01
     vertex  2.335997e-01 -2.278259e-01  8.614672e-01
     vertex  2.263747e-01 -2.278259e-01  8.686922e-01
   endloop
 endfacet
 facet normal -7.071068e-01  0.000000e+00 -7.071068e-01
   outer loop
     vertex  2.263747e-01 -2.276559e-01  8.686922e-01
     vertex  2.335997e-01 -2.276559e-01  8.614672e-01
     vertex  2.335997e-01 -2.278259e-01  8.614672e-01
   endloop
 endfacet
 facet normal -7.071068e-01  0.000000e+00  7.071068e-01
   outer loop
     vertex  2.335997e-01 -2.276559e-01  8.759172e-01
     vertex  2.263747e-01 -2.278259e-01  8.686922e-01
     vertex  2.335997e-01 -2.278259e-01  8.759172e-01
   endloop
 endfacet
 facet normal -7.071068e-01  0.000000e+00  7.071068e-01
   outer loop
     vertex  2.335997e-01 -2.276559e-01  8.759172e-01
     vertex  2.263747e-01 -2.276559e-01  8.686922e-01
     vertex  2.263747e-01 -2.278259e-01  8.686922e-01
   endloop
 endfacet
 facet normal  5.000000e-01  0.000000e+00  8.660254e-01
   outer loop
     vertex  2.398568e-01 -2.279159e-01  8.723047e-01
     vertex  2.335997e-01 -2.279159e-01  8.759172e-01
     vertex  2.335997e-01 -2.295351e-01  8.759172e-01
   endloop
 endfacet
 facet normal  4.628826e-01 -7.559625e-01  4.628826e-01
   outer loop
     vertex  2.398568e-01 -2.279159e-01  8.723047e-01
     vertex  2.335997e-01 -2.295351e-01  8.759172e-01
     vertex  2.408247e-01 -2.295351e-01  8.686922e-01
   endloop
 endfacet
 facet normal  4.628826e-01 -7.559625e-01 -4.628826e-01
   outer loop
     vertex  2.398568e-01 -2.279159e-01  8.650797e-01
     vertex  2.408247e-01 -2.295351e-01  8.686922e-01
     vertex  2.335997e-01 -2.295351e-01  8.614672e-01
   endloop
 endfacet
 facet normal  8.583328e-01  5.130933e-01 -0.000000e+00
   outer loop
     vertex  2.398568e-01 -2.279159e-01  8.650797e-01
     vertex  2.398568e-01 -2.279159e-01  8.723047e-01
     vertex  2.408247e-01 -2.295351e-01  8.686922e-01
   endloop
 endfacet
 facet normal  5.000000e-01  0.000000e+00 -8.660254e-01
   outer loop
     vertex  2.335997e-01 -2.279159e-01  8.614672e-01
     vertex  2.398568e-01 -2.279159e-01  8.650797e-01
     vertex  2.335997e-01 -2.295351e-01  8.614672e-01
   endloop
 endfacet
 facet normal -4.628826e-01 -7.559625e-01 -4.628826e-01
   outer loop
     vertex  2.273427e-01 -2.279159e-01  8.650797e-01
     vertex  2.335997e-01 -2.295351e-01  8.614672e-01
     vertex  2.263747e-01 -2.295351e-01  8.686922e-01
   endloop
 endfacet
 facet normal -5.000000e-01  0.000000e+00 -8.660254e-01
   outer loop
     vertex  2.273427e-01 -2.279159e-01  8.650797e-01
     vertex  2.335997e-01 -2.279159e-01  8.614672e-01
     vertex  2.335997e-01 -2.295351e-01  8.614672e-01
   endloop
 endfacet
 facet normal -4.628826e-01 -7.559625e-01  4.628826e-01
   outer loop
     vertex  2.273427e-01 -2.279159e-01  8.723047e-01
     vertex  2.263747e-01 -2.295351e-01  8.686922e-01
     vertex  2.335997e-01 -2.295351e-01  8.759172e-01
   endloop
 endfacet
 facet normal -8.583328e-01  5.130933e-01  0.000000e+00
   outer loop
     vertex  2.273427e-01 -2.279159e-01  8.723047e-01
     vertex  2.273427e-01 -2.279159e-01  8.650797e-01
     vertex  2.263747e-01 -2.295351e-01  8.686922e-01
   endloop
 endfacet
 facet normal -5.000000e-01  0.000000e+00  8.660254e-01
   outer loop
     vertex  2.335997e-01 -2.279159e-01  8.759172e-01
     vertex  2.273427e-01 -2.279159e-01  8.723047e-01
     vertex  2.335997e-01 -2.295351e-01  8.759172e-01
   endloop
 endfacet
 facet normal -0.000000e+00  1.000000e+00  0.000000e+00
   outer loop
     vertex  2.335997e-01 -2.278259e-01  8.759172e-01
     vertex  2.335997e-01 -2.278259e-01  8.776047e-01
     vertex  2.425122e-01 -2.278259e-01  8.686922e-01
   endloop
 endfacet
 facet normal  0.000000e+00  1.000000e+00  0.000000e+00
   outer loop
     vertex  2.335997e-01 -2.278259e-01  8.759172e-01
     vertex  2.425122e-01 -2.278259e-01  8.686922e-01
     vertex  2.408247e-01 -2.278259e-01  8.686922e-01
   endloop
 endfacet
 facet normal  0.000000e+00  1.000000e+00  0.000000e+00
   outer loop
     vertex  2.335997e-01 -2.278259e-01  8.597797e-01
     vertex  2.335997e-01 -2.278259e-01  8.614672e-01
     vertex  2.408247e-01 -2.278259e-01  8.686922e-01
   endloop
 endfacet
 facet normal  0.000000e+00  1.000000e+00  0.000000e+00
   outer loop
     vertex  2.335997e-01 -2.278259e-01  8.597797e-01
     vertex  2.408247e-01 -2.278259e-01  8.686922e-01
     vertex  2.425122e-01 -2.278259e-01  8.686922e-01
   endloop
 endfacet
 facet normal -0.000000e+00  1.000000e+00  0.000000e+00
   outer loop
     vertex  2.246872e-01 -2.278259e-01  8.686922e-01
     vertex  2.263747e-01 -2.278259e-01  8.686922e-01
     vertex  2.335997e-01 -2.278259e-01  8.614672e-01
   endloop
 endfacet
 facet normal  0.000000e+00  1.000000e+00  0.000000e+00
   outer loop
     vertex  2.246872e-01 -2.278259e-01  8.686922e-01
     vertex  2.335997e-01 -2.278259e-01  8.759172e-01
     vertex  2.263747e-01 -2.278259e-01  8.686922e-01
   endloop
 endfacet
 facet normal  0.000000e+00  1.000000e+00  0.000000e+00
   outer loop
     vertex  2.246872e-01 -2.278259e-01  8.686922e-01
     vertex  2.335997e-01 -2.278259e-01  8.776047e-01
     vertex  2.335997e-01 -2.278259e-01  8.759172e-01
   endloop
 endfacet
 facet normal  0.000000e+00  1.000000e+00  0.000000e+00
   outer loop
     vertex  2.246872e-01 -2.278259e-01  8.686922e-01
     vertex  2.335997e-01 -2.278259e-01  8.614672e-01
     vertex  2.335997e-01 -2.278259e-01  8.597797e-01
   endloop
 endfacet
 facet normal  3.073379e-02  9.981091e-01 -5.323248e-02
   outer loop
     vertex  2.420489e-01 -2.278709e-01  8.638141e-01
     vertex  2.335997e-01 -2.278709e-01  8.589360e-01
     vertex  2.335997e-01 -2.278259e-01  8.597797e-01
   endloop
 endfacet
 facet normal  1.019196e-02  9.998961e-01 -1.019196e-02
   outer loop
     vertex  2.425122e-01 -2.278259e-01  8.686922e-01
     vertex  2.420489e-01 -2.278709e-01  8.638141e-01
     vertex  2.335997e-01 -2.278259e-01  8.597797e-01
   endloop
 endfacet
 facet normal  9.666615e-02 -9.953169e-01  0.000000e+00
   outer loop
     vertex  2.420489e-01 -2.278709e-01  8.735704e-01
     vertex  2.420489e-01 -2.278709e-01  8.638141e-01
     vertex  2.425122e-01 -2.278259e-01  8.686922e-01
   endloop
 endfacet
 facet normal  1.019196e-02  9.998961e-01  1.019196e-02
   outer loop
     vertex  2.335997e-01 -2.278259e-01  8.776047e-01
     vertex  2.420489e-01 -2.278709e-01  8.735704e-01
     vertex  2.425122e-01 -2.278259e-01  8.686922e-01
   endloop
 endfacet
 facet normal  3.073379e-02  9.981091e-01  5.323248e-02
   outer loop
     vertex  2.335997e-01 -2.278709e-01  8.784485e-01
     vertex  2.420489e-01 -2.278709e-01  8.735704e-01
     vertex  2.335997e-01 -2.278259e-01  8.776047e-01
   endloop
 endfacet
 facet normal -3.073379e-02  9.981091e-01  5.323248e-02
   outer loop
     vertex  2.251506e-01 -2.278709e-01  8.735704e-01
     vertex  2.335997e-01 -2.278709e-01  8.784485e-01
     vertex  2.335997e-01 -2.278259e-01  8.776047e-01
   endloop
 endfacet
 facet normal -1.019196e-02  9.998961e-01  1.019196e-02
   outer loop
     vertex  2.246872e-01 -2.278259e-01  8.686922e-01
     vertex  2.251506e-01 -2.278709e-01  8.735704e-01
     vertex  2.335997e-01 -2.278259e-01  8.776047e-01
   endloop
 endfacet
 facet normal -9.666615e-02 -9.953169e-01  0.000000e+00
   outer loop
     vertex  2.251506e-01 -2.278709e-01  8.638141e-01
     vertex  2.251506e-01 -2.278709e-01  8.735704e-01
     vertex  2.246872e-01 -2.278259e-01  8.686922e-01
   endloop
 endfacet
 facet normal -1.019196e-02  9.998961e-01 -1.019196e-02
   outer loop
     vertex  2.335997e-01 -2.278259e-01  8.597797e-01
     vertex  2.251506e-01 -2.278709e-01  8.638141e-01
     vertex  2.246872e-01 -2.278259e-01  8.686922e-01
   endloop
 endfacet
 facet normal -3.073379e-02  9.981091e-01 -5.323248e-02
   outer loop
     vertex  2.335997e-01 -2.278709e-01  8.589360e-01
     vertex  2.251506e-01 -2.278709e-01  8.638141e-01
     vertex  2.335997e-01 -2.278259e-01  8.597797e-01
   endloop
 endfacet
 facet normal -3.073379e-02  9.981091e-01 -5.323248e-02
   outer loop
     vertex  2.420489e-01 -2.278709e-01  8.735704e-01
     vertex  2.335997e-01 -2.278709e-01  8.784485e-01
     vertex  2.335997e-01 -2.278259e-01  8.792922e-01
   endloop
 endfacet
 facet normal -1.649543e-02 -9.997279e-01 -1.649543e-02
   outer loop
     vertex  2.441997e-01 -2.278259e-01  8.686922e-01
     vertex  2.420489e-01 -2.278709e-01  8.735704e-01
     vertex  2.335997e-01 -2.278259e-01  8.792922e-01
   endloop
 endfacet
 facet normal -2.091748e-02  9.997812e-01  0.000000e+00
   outer loop
     vertex  2.420489e-01 -2.278709e-01  8.638141e-01
     vertex  2.420489e-01 -2.278709e-01  8.735704e-01
     vertex  2.441997e-01 -2.278259e-01  8.686922e-01
   endloop
 endfacet
 facet normal -3.073379e-02  9.981091e-01  5.323248e-02
   outer loop
     vertex  2.335997e-01 -2.278259e-01  8.580922e-01
     vertex  2.335997e-01 -2.278709e-01  8.589360e-01
     vertex  2.420489e-01 -2.278709e-01  8.638141e-01
   endloop
 endfacet
 facet normal  3.073379e-02  9.981091e-01  5.323248e-02
   outer loop
     vertex  2.251506e-01 -2.278709e-01  8.638141e-01
     vertex  2.335997e-01 -2.278709e-01  8.589360e-01
     vertex  2.335997e-01 -2.278259e-01  8.580922e-01
   endloop
 endfacet
 facet normal  2.091748e-02  9.997812e-01  0.000000e+00
   outer loop
     vertex  2.251506e-01 -2.278709e-01  8.735704e-01
     vertex  2.251506e-01 -2.278709e-01  8.638141e-01
     vertex  2.229997e-01 -2.278259e-01  8.686922e-01
   endloop
 endfacet
 facet normal  3.073379e-02  9.981091e-01 -5.323248e-02
   outer loop
     vertex  2.335997e-01 -2.278259e-01  8.792922e-01
     vertex  2.335997e-01 -2.278709e-01  8.784485e-01
     vertex  2.251506e-01 -2.278709e-01  8.735704e-01
   endloop
 endfacet
 facet normal  1.649543e-02 -9.997279e-01 -1.649543e-02
   outer loop
     vertex  2.335997e-01 -2.278259e-01  8.792922e-01
     vertex  2.251506e-01 -2.278709e-01  8.735704e-01
     vertex  2.229997e-01 -2.278259e-01  8.686922e-01
   endloop
 endfacet
 facet normal -1.649543e-02 -9.997279e-01  1.649543e-02
   outer loop
     vertex  2.335997e-01 -2.278259e-01  8.580922e-01
     vertex  2.420489e-01 -2.278709e-01  8.638141e-01
     vertex  2.441997e-01 -2.278259e-01  8.686922e-01
   endloop
 endfacet
 facet normal  1.649543e-02 -9.997279e-01  1.649543e-02
   outer loop
     vertex  2.229997e-01 -2.278259e-01  8.686922e-01
     vertex  2.251506e-01 -2.278709e-01  8.638141e-01
     vertex  2.335997e-01 -2.278259e-01  8.580922e-01
   endloop
 endfacet
 facet normal  7.071068e-01  0.000000e+00  7.071068e-01
   outer loop
     vertex  2.441997e-01 -2.278259e-01  8.686922e-01
     vertex  2.335997e-01 -2.278259e-01  8.792922e-01
     vertex  2.335997e-01 -2.279159e-01  8.792922e-01
   endloop
 endfacet
 facet normal  7.071068e-01  0.000000e+00  7.071068e-01
   outer loop
     vertex  2.441997e-01 -2.278259e-01  8.686922e-01
     vertex  2.335997e-01 -2.279159e-01  8.792922e-01
     vertex  2.441997e-01 -2.279159e-01  8.686922e-01
   endloop
 endfacet
 facet normal  7.071068e-01  0.000000e+00 -7.071068e-01
   outer loop
     vertex  2.335997e-01 -2.278259e-01  8.580922e-01
     vertex  2.441997e-01 -2.279159e-01  8.686922e-01
     vertex  2.335997e-01 -2.279159e-01  8.580922e-01
   endloop
 endfacet
 facet normal  7.071068e-01  0.000000e+00 -7.071068e-01
   outer loop
     vertex  2.335997e-01 -2.278259e-01  8.580922e-01
     vertex  2.441997e-01 -2.278259e-01  8.686922e-01
     vertex  2.441997e-01 -2.279159e-01  8.686922e-01
   endloop
 endfacet
 facet normal -7.071068e-01 -0.000000e+00 -7.071068e-01
   outer loop
     vertex  2.229997e-01 -2.278259e-01  8.686922e-01
     vertex  2.335997e-01 -2.279159e-01  8.580922e-01
     vertex  2.229997e-01 -2.279159e-01  8.686922e-01
   endloop
 endfacet
 facet normal -7.071068e-01  0.000000e+00 -7.071068e-01
   outer loop
     vertex  2.229997e-01 -2.278259e-01  8.686922e-01
     vertex  2.335997e-01 -2.278259e-01  8.580922e-01
     vertex  2.335997e-01 -2.279159e-01  8.580922e-01
   endloop
 endfacet
 facet normal -7.071068e-01  0.000000e+00  7.071068e-01
   outer loop
     vertex  2.335997e-01 -2.278259e-01  8.792922e-01
     vertex  2.229997e-01 -2.279159e-01  8.686922e-01
     vertex  2.335997e-01 -2.279159e-01  8.792922e-01
   endloop
 endfacet
 facet normal -7.071068e-01  0.000000e+00  7.071068e-01
   outer loop
     vertex  2.335997e-01 -2.278259e-01  8.792922e-01
     vertex  2.229997e-01 -2.278259e-01  8.686922e-01
     vertex  2.229997e-01 -2.279159e-01  8.686922e-01
   endloop
 endfacet
 facet normal  1.054734e-01 -9.888128e-01  1.054734e-01
   outer loop
     vertex  2.441997e-01 -2.279159e-01  8.686922e-01
     vertex  2.335997e-01 -2.279159e-01  8.792922e-01
     vertex  2.335997e-01 -2.280059e-01  8.784485e-01
   endloop
 endfacet
 facet normal  1.054734e-01 -9.888128e-01  1.054734e-01
   outer loop
     vertex  2.441997e-01 -2.279159e-01  8.686922e-01
     vertex  2.335997e-01 -2.280059e-01  8.784485e-01
     vertex  2.433560e-01 -2.280059e-01  8.686922e-01
   endloop
 endfacet
 facet normal  1.054734e-01 -9.888128e-01 -1.054734e-01
   outer loop
     vertex  2.335997e-01 -2.279159e-01  8.580922e-01
     vertex  2.433560e-01 -2.280059e-01  8.686922e-01
     vertex  2.335997e-01 -2.280059e-01  8.589360e-01
   endloop
 endfacet
 facet normal  1.054734e-01 -9.888128e-01 -1.054734e-01
   outer loop
     vertex  2.335997e-01 -2.279159e-01  8.580922e-01
     vertex  2.441997e-01 -2.279159e-01  8.686922e-01
     vertex  2.433560e-01 -2.280059e-01  8.686922e-01
   endloop
 endfacet
 facet normal -1.054734e-01 -9.888128e-01 -1.054734e-01
   outer loop
     vertex  2.229997e-01 -2.279159e-01  8.686922e-01
     vertex  2.335997e-01 -2.280059e-01  8.589360e-01
     vertex  2.238435e-01 -2.280059e-01  8.686922e-01
   endloop
 endfacet
 facet normal -1.054734e-01 -9.888128e-01 -1.054734e-01
   outer loop
     vertex  2.229997e-01 -2.279159e-01  8.686922e-01
     vertex  2.335997e-01 -2.279159e-01  8.580922e-01
     vertex  2.335997e-01 -2.280059e-01  8.589360e-01
   endloop
 endfacet
 facet normal -1.054734e-01 -9.888128e-01  1.054734e-01
   outer loop
     vertex  2.335997e-01 -2.279159e-01  8.792922e-01
     vertex  2.238435e-01 -2.280059e-01  8.686922e-01
     vertex  2.335997e-01 -2.280059e-01  8.784485e-01
   endloop
 endfacet
 facet normal -1.054734e-01 -9.888128e-01  1.054734e-01
   outer loop
     vertex  2.335997e-01 -2.279159e-01  8.792922e-01
     vertex  2.229997e-01 -2.279159e-01  8.686922e-01
     vertex  2.238435e-01 -2.280059e-01  8.686922e-01
   endloop
 endfacet
 facet normal  0.000000e+00 -1.000000e+00  0.000000e+00
   outer loop
     vertex  2.335997e-01 -2.280059e-01  8.776047e-01
     vertex  2.433560e-01 -2.280059e-01  8.686922e-01
     vertex  2.335997e-01 -2.280059e-01  8.784485e-01
   endloop
 endfacet
 facet normal  0.000000e+00 -1.000000e+00  0.000000e+00
   outer loop
     vertex  2.335997e-01 -2.280059e-01  8.776047e-01
     vertex  2.425122e-01 -2.280059e-01  8.686922e-01
     vertex  2.433560e-01 -2.280059e-01  8.686922e-01
   endloop
 endfacet
 facet normal  0.000000e+00 -1.000000e+00  0.000000e+00
   outer loop
     vertex  2.238435e-01 -2.280059e-01  8.686922e-01
     vertex  2.246872e-01 -2.280059e-01  8.686922e-01
     vertex  2.335997e-01 -2.280059e-01  8.776047e-01
   endloop
 endfacet
 facet normal  0.000000e+00 -1.000000e+00  0.000000e+00
   outer loop
     vertex  2.238435e-01 -2.280059e-01  8.686922e-01
     vertex  2.335997e-01 -2.280059e-01  8.776047e-01
     vertex  2.335997e-01 -2.280059e-01  8.784485e-01
   endloop
 endfacet
 facet normal  0.000000e+00 -1.000000e+00  0.000000e+00
   outer loop
     vertex  2.335997e-01 -2.280059e-01  8.589360e-01
     vertex  2.335997e-01 -2.280059e-01  8.597797e-01
     vertex  2.246872e-01 -2.280059e-01  8.686922e-01
   endloop
 endfacet
 facet normal  0.000000e+00 -1.000000e+00  0.000000e+00
   outer loop
     vertex  2.335997e-01 -2.280059e-01  8.589360e-01
     vertex  2.425122e-01 -2.280059e-01  8.686922e-01
     vertex  2.335997e-01 -2.280059e-01  8.597797e-01
   endloop
 endfacet
 facet normal  0.000000e+00 -1.000000e+00  0.000000e+00
   outer loop
     vertex  2.335997e-01 -2.280059e-01  8.589360e-01
     vertex  2.433560e-01 -2.280059e-01  8.686922e-01
     vertex  2.425122e-01 -2.280059e-01  8.686922e-01
   endloop
 endfacet
 facet normal  0.000000e+00 -1.000000e+00  0.000000e+00
   outer loop
     vertex  2.335997e-01 -2.280059e-01  8.589360e-01
     vertex  2.246872e-01 -2.280059e-01  8.686922e-01
     vertex  2.238435e-01 -2.280059e-01  8.686922e-01
   endloop
 endfacet
 facet normal -3.073379e-02 -9.981091e-01  5.323248e-02
   outer loop
     vertex  2.398568e-01 -2.279159e-01  8.650797e-01
     vertex  2.335997e-01 -2.279159e-01  8.614672e-01
     vertex  2.335997e-01 -2.280059e-01  8.597797e-01
   endloop
 endfacet
 facet normal -9.321980e-02  9.912720e-01  9.321980e-02
   outer loop
     vertex  2.425122e-01 -2.280059e-01  8.686922e-01
     vertex  2.398568e-01 -2.279159e-01  8.650797e-01
     vertex  2.335997e-01 -2.280059e-01  8.597797e-01
   endloop
 endfacet
 facet normal -3.387290e-02 -9.994261e-01 -0.000000e+00
   outer loop
     vertex  2.398568e-01 -2.279159e-01  8.723047e-01
     vertex  2.398568e-01 -2.279159e-01  8.650797e-01
     vertex  2.425122e-01 -2.280059e-01  8.686922e-01
   endloop
 endfacet
 facet normal -3.073379e-02 -9.981091e-01 -5.323248e-02
   outer loop
     vertex  2.335997e-01 -2.280059e-01  8.776047e-01
     vertex  2.335997e-01 -2.279159e-01  8.759172e-01
     vertex  2.398568e-01 -2.279159e-01  8.723047e-01
   endloop
 endfacet
 facet normal -9.321980e-02  9.912720e-01 -9.321980e-02
   outer loop
     vertex  2.335997e-01 -2.280059e-01  8.776047e-01
     vertex  2.398568e-01 -2.279159e-01  8.723047e-01
     vertex  2.425122e-01 -2.280059e-01  8.686922e-01
   endloop
 endfacet
 facet normal  3.073379e-02 -9.981091e-01 -5.323248e-02
   outer loop
     vertex  2.273427e-01 -2.279159e-01  8.723047e-01
     vertex  2.335997e-01 -2.279159e-01  8.759172e-01
     vertex  2.335997e-01 -2.280059e-01  8.776047e-01
   endloop
 endfacet
 facet normal  9.321980e-02  9.912720e-01 -9.321980e-02
   outer loop
     vertex  2.246872e-01 -2.280059e-01  8.686922e-01
     vertex  2.273427e-01 -2.279159e-01  8.723047e-01
     vertex  2.335997e-01 -2.280059e-01  8.776047e-01
   endloop
 endfacet
 facet normal  3.387290e-02 -9.994261e-01  0.000000e+00
   outer loop
     vertex  2.273427e-01 -2.279159e-01  8.650797e-01
     vertex  2.273427e-01 -2.279159e-01  8.723047e-01
     vertex  2.246872e-01 -2.280059e-01  8.686922e-01
   endloop
 endfacet
 facet normal  3.073379e-02 -9.981091e-01  5.323248e-02
   outer loop
     vertex  2.335997e-01 -2.280059e-01  8.597797e-01
     vertex  2.335997e-01 -2.279159e-01  8.614672e-01
     vertex  2.273427e-01 -2.279159e-01  8.650797e-01
   endloop
 endfacet
 facet normal  9.321980e-02  9.912720e-01  9.321980e-02
   outer loop
     vertex  2.335997e-01 -2.280059e-01  8.597797e-01
     vertex  2.273427e-01 -2.279159e-01  8.650797e-01
     vertex  2.246872e-01 -2.280059e-01  8.686922e-01
   endloop
 endfacet
 facet normal  6.410930e-01 -4.219000e-01  6.410930e-01
   outer loop
     vertex  2.401987e-01 -2.304864e-01  8.686922e-01
     vertex  2.335997e-01 -2.295351e-01  8.759172e-01
     vertex  2.335997e-01 -2.304864e-01  8.752912e-01
   endloop
 endfacet
 facet normal  6.410930e-01 -4.219000e-01  6.410930e-01
   outer loop
     vertex  2.401987e-01 -2.304864e-01  8.686922e-01
     vertex  2.408247e-01 -2.295351e-01  8.686922e-01
     vertex  2.335997e-01 -2.295351e-01  8.759172e-01
   endloop
 endfacet
 facet normal  6.410930e-01  4.219000e-01  6.410930e-01
   outer loop
     vertex  2.401987e-01 -2.316253e-01  8.686922e-01
     vertex  2.335997e-01 -2.325766e-01  8.759172e-01
     vertex  2.408247e-01 -2.325766e-01  8.686922e-01
   endloop
 endfacet
 facet normal  7.071068e-01  0.000000e+00  7.071068e-01
   outer loop
     vertex  2.401987e-01 -2.316253e-01  8.686922e-01
     vertex  2.335997e-01 -2.304864e-01  8.752912e-01
     vertex  2.335997e-01 -2.316253e-01  8.752912e-01
   endloop
 endfacet
 facet normal  6.410930e-01  4.219000e-01  6.410930e-01
   outer loop
     vertex  2.401987e-01 -2.316253e-01  8.686922e-01
     vertex  2.335997e-01 -2.316253e-01  8.752912e-01
     vertex  2.335997e-01 -2.325766e-01  8.759172e-01
   endloop
 endfacet
 facet normal  7.071068e-01 -0.000000e+00  7.071068e-01
   outer loop
     vertex  2.401987e-01 -2.316253e-01  8.686922e-01
     vertex  2.401987e-01 -2.304864e-01  8.686922e-01
     vertex  2.335997e-01 -2.304864e-01  8.752912e-01
   endloop
 endfacet
 facet normal  6.410930e-01 -4.219000e-01 -6.410930e-01
   outer loop
     vertex  2.335997e-01 -2.304864e-01  8.620933e-01
     vertex  2.335997e-01 -2.295351e-01  8.614672e-01
     vertex  2.408247e-01 -2.295351e-01  8.686922e-01
   endloop
 endfacet
 facet normal  6.410930e-01 -4.219000e-01 -6.410930e-01
   outer loop
     vertex  2.335997e-01 -2.304864e-01  8.620933e-01
     vertex  2.408247e-01 -2.295351e-01  8.686922e-01
     vertex  2.401987e-01 -2.304864e-01  8.686922e-01
   endloop
 endfacet
 facet normal  6.410930e-01  4.219000e-01 -6.410930e-01
   outer loop
     vertex  2.335997e-01 -2.316253e-01  8.620933e-01
     vertex  2.408247e-01 -2.325766e-01  8.686922e-01
     vertex  2.335997e-01 -2.325766e-01  8.614672e-01
   endloop
 endfacet
 facet normal  7.071068e-01  0.000000e+00 -7.071068e-01
   outer loop
     vertex  2.335997e-01 -2.316253e-01  8.620933e-01
     vertex  2.401987e-01 -2.304864e-01  8.686922e-01
     vertex  2.401987e-01 -2.316253e-01  8.686922e-01
   endloop
 endfacet
 facet normal  7.071068e-01  0.000000e+00 -7.071068e-01
   outer loop
     vertex  2.335997e-01 -2.316253e-01  8.620933e-01
     vertex  2.335997e-01 -2.304864e-01  8.620933e-01
     vertex  2.401987e-01 -2.304864e-01  8.686922e-01
   endloop
 endfacet
 facet normal  6.410930e-01  4.219000e-01 -6.410930e-01
   outer loop
     vertex  2.335997e-01 -2.316253e-01  8.620933e-01
     vertex  2.401987e-01 -2.316253e-01  8.686922e-01
     vertex  2.408247e-01 -2.325766e-01  8.686922e-01
   endloop
 endfacet
 facet normal -6.410930e-01 -4.219000e-01  6.410930e-01
   outer loop
     vertex  2.270008e-01 -2.304864e-01  8.686922e-01
     vertex  2.335997e-01 -2.304864e-01  8.752912e-01
     vertex  2.335997e-01 -2.295351e-01  8.759172e-01
   endloop
 endfacet
 facet normal -6.410930e-01 -4.219000e-01  6.410930e-01
   outer loop
     vertex  2.270008e-01 -2.304864e-01  8.686922e-01
     vertex  2.335997e-01 -2.295351e-01  8.759172e-01
     vertex  2.263747e-01 -2.295351e-01  8.686922e-01
   endloop
 endfacet
 facet normal -6.410930e-01 -4.219000e-01 -6.410930e-01
   outer loop
     vertex  2.270008e-01 -2.304864e-01  8.686922e-01
     vertex  2.263747e-01 -2.295351e-01  8.686922e-01
     vertex  2.335997e-01 -2.295351e-01  8.614672e-01
   endloop
 endfacet
 facet normal -6.410930e-01 -4.219000e-01 -6.410930e-01
   outer loop
     vertex  2.270008e-01 -2.304864e-01  8.686922e-01
     vertex  2.335997e-01 -2.295351e-01  8.614672e-01
     vertex  2.335997e-01 -2.304864e-01  8.620933e-01
   endloop
 endfacet
 facet normal -7.071068e-01  0.000000e+00  7.071068e-01
   outer loop
     vertex  2.270008e-01 -2.316253e-01  8.686922e-01
     vertex  2.335997e-01 -2.316253e-01  8.752912e-01
     vertex  2.335997e-01 -2.304864e-01  8.752912e-01
   endloop
 endfacet
 facet normal -6.410930e-01  4.219000e-01  6.410930e-01
   outer loop
     vertex  2.270008e-01 -2.316253e-01  8.686922e-01
     vertex  2.335997e-01 -2.325766e-01  8.759172e-01
     vertex  2.335997e-01 -2.316253e-01  8.752912e-01
   endloop
 endfacet
 facet normal -6.410930e-01  4.219000e-01 -6.410930e-01
   outer loop
     vertex  2.270008e-01 -2.316253e-01  8.686922e-01
     vertex  2.335997e-01 -2.325766e-01  8.614672e-01
     vertex  2.263747e-01 -2.325766e-01  8.686922e-01
   endloop
 endfacet
 facet normal -6.410930e-01  4.219000e-01  6.410930e-01
   outer loop
     vertex  2.270008e-01 -2.316253e-01  8.686922e-01
     vertex  2.263747e-01 -2.325766e-01  8.686922e-01
     vertex  2.335997e-01 -2.325766e-01  8.759172e-01
   endloop
 endfacet
 facet normal -7.071068e-01  0.000000e+00 -7.071068e-01
   outer loop
     vertex  2.270008e-01 -2.316253e-01  8.686922e-01
     vertex  2.270008e-01 -2.304864e-01  8.686922e-01
     vertex  2.335997e-01 -2.304864e-01  8.620933e-01
   endloop
 endfacet
 facet normal -7.071068e-01  0.000000e+00  7.071068e-01
   outer loop
     vertex  2.270008e-01 -2.316253e-01  8.686922e-01
     vertex  2.335997e-01 -2.304864e-01  8.752912e-01
     vertex  2.270008e-01 -2.304864e-01  8.686922e-01
   endloop
 endfacet
 facet normal -6.410930e-01  4.219000e-01 -6.410930e-01
   outer loop
     vertex  2.270008e-01 -2.316253e-01  8.686922e-01
     vertex  2.335997e-01 -2.316253e-01  8.620933e-01
     vertex  2.335997e-01 -2.325766e-01  8.614672e-01
   endloop
 endfacet
 facet normal -7.071068e-01  0.000000e+00 -7.071068e-01
   outer loop
     vertex  2.270008e-01 -2.316253e-01  8.686922e-01
     vertex  2.335997e-01 -2.304864e-01  8.620933e-01
     vertex  2.335997e-01 -2.316253e-01  8.620933e-01
   endloop
 endfacet
 facet normal  7.071068e-01  0.000000e+00  7.071068e-01
   outer loop
     vertex  2.408247e-01 -2.342859e-01  8.686922e-01
     vertex  2.335997e-01 -2.342859e-01  8.759172e-01
     vertex  2.335997e-01 -2.344559e-01  8.759172e-01
   endloop
 endfacet
 facet normal  7.071068e-01  0.000000e+00  7.071068e-01
   outer loop
     vertex  2.408247e-01 -2.342859e-01  8.686922e-01
     vertex  2.335997e-01 -2.344559e-01  8.759172e-01
     vertex  2.408247e-01 -2.344559e-01  8.686922e-01
   endloop
 endfacet
 facet normal  7.071068e-01  0.000000e+00 -7.071068e-01
   outer loop
     vertex  2.335997e-01 -2.342859e-01  8.614672e-01
     vertex  2.408247e-01 -2.344559e-01  8.686922e-01
     vertex  2.335997e-01 -2.344559e-01  8.614672e-01
   endloop
 endfacet
 facet normal  7.071068e-01  0.000000e+00 -7.071068e-01
   outer loop
     vertex  2.335997e-01 -2.342859e-01  8.614672e-01
     vertex  2.408247e-01 -2.342859e-01  8.686922e-01
     vertex  2.408247e-01 -2.344559e-01  8.686922e-01
   endloop
 endfacet
 facet normal -7.071068e-01 -0.000000e+00 -7.071068e-01
   outer loop
     vertex  2.263747e-01 -2.342859e-01  8.686922e-01
     vertex  2.335997e-01 -2.344559e-01  8.614672e-01
     vertex  2.263747e-01 -2.344559e-01  8.686922e-01
   endloop
 endfacet
 facet normal -7.071068e-01  0.000000e+00 -7.071068e-01
   outer loop
     vertex  2.263747e-01 -2.342859e-01  8.686922e-01
     vertex  2.335997e-01 -2.342859e-01  8.614672e-01
     vertex  2.335997e-01 -2.344559e-01  8.614672e-01
   endloop
 endfacet
 facet normal -7.071068e-01  0.000000e+00  7.071068e-01
   outer loop
     vertex  2.335997e-01 -2.342859e-01  8.759172e-01
     vertex  2.263747e-01 -2.344559e-01  8.686922e-01
     vertex  2.335997e-01 -2.344559e-01  8.759172e-01
   endloop
 endfacet
 facet normal -7.071068e-01  0.000000e+00  7.071068e-01
   outer loop
     vertex  2.335997e-01 -2.342859e-01  8.759172e-01
     vertex  2.263747e-01 -2.342859e-01  8.686922e-01
     vertex  2.263747e-01 -2.344559e-01  8.686922e-01
   endloop
 endfacet
 facet normal  7.071068e-01  0.000000e+00  7.071068e-01
   outer loop
     vertex  2.408247e-01 -2.325766e-01  8.686922e-01
     vertex  2.335997e-01 -2.325766e-01  8.759172e-01
     vertex  2.335997e-01 -2.341959e-01  8.759172e-01
   endloop
 endfacet
 facet normal  7.071068e-01  0.000000e+00  7.071068e-01
   outer loop
     vertex  2.408247e-01 -2.325766e-01  8.686922e-01
     vertex  2.335997e-01 -2.341959e-01  8.759172e-01
     vertex  2.408247e-01 -2.341959e-01  8.686922e-01
   endloop
 endfacet
 facet normal  7.071068e-01  0.000000e+00 -7.071068e-01
   outer loop
     vertex  2.335997e-01 -2.325766e-01  8.614672e-01
     vertex  2.408247e-01 -2.341959e-01  8.686922e-01
     vertex  2.335997e-01 -2.341959e-01  8.614672e-01
   endloop
 endfacet
 facet normal  7.071068e-01  0.000000e+00 -7.071068e-01
   outer loop
     vertex  2.335997e-01 -2.325766e-01  8.614672e-01
     vertex  2.408247e-01 -2.325766e-01  8.686922e-01
     vertex  2.408247e-01 -2.341959e-01  8.686922e-01
   endloop
 endfacet
 facet normal -7.071068e-01 -0.000000e+00 -7.071068e-01
   outer loop
     vertex  2.263747e-01 -2.325766e-01  8.686922e-01
     vertex  2.335997e-01 -2.341959e-01  8.614672e-01
     vertex  2.263747e-01 -2.341959e-01  8.686922e-01
   endloop
 endfacet
 facet normal -7.071068e-01  0.000000e+00 -7.071068e-01
   outer loop
     vertex  2.263747e-01 -2.325766e-01  8.686922e-01
     vertex  2.335997e-01 -2.325766e-01  8.614672e-01
     vertex  2.335997e-01 -2.341959e-01  8.614672e-01
   endloop
 endfacet
 facet normal -7.071068e-01  0.000000e+00  7.071068e-01
   outer loop
     vertex  2.335997e-01 -2.325766e-01  8.759172e-01
     vertex  2.263747e-01 -2.341959e-01  8.686922e-01
     vertex  2.335997e-01 -2.341959e-01  8.759172e-01
   endloop
 endfacet
 facet normal -7.071068e-01  0.000000e+00  7.071068e-01
   outer loop
     vertex  2.335997e-01 -2.325766e-01  8.759172e-01
     vertex  2.263747e-01 -2.325766e-01  8.686922e-01
     vertex  2.263747e-01 -2.341959e-01  8.686922e-01
   endloop
 endfacet
 facet normal  0.000000e+00 -1.000000e+00  0.000000e+00
   outer loop
     vertex  2.335997e-01 -2.342859e-01  8.759172e-01
     vertex  2.425122e-01 -2.342859e-01  8.686922e-01
     vertex  2.335997e-01 -2.342859e-01  8.776047e-01
   endloop
 endfacet
 facet normal  0.000000e+00 -1.000000e+00  0.000000e+00
   outer loop
     vertex  2.335997e-01 -2.342859e-01  8.759172e-01
     vertex  2.408247e-01 -2.342859e-01  8.686922e-01
     vertex  2.425122e-01 -2.342859e-01  8.686922e-01
   endloop
 endfacet
 facet normal  0.000000e+00 -1.000000e+00  0.000000e+00
   outer loop
     vertex  2.246872e-01 -2.342859e-01  8.686922e-01
     vertex  2.263747e-01 -2.342859e-01  8.686922e-01
     vertex  2.335997e-01 -2.342859e-01  8.759172e-01
   endloop
 endfacet
 facet normal  0.000000e+00 -1.000000e+00  0.000000e+00
   outer loop
     vertex  2.246872e-01 -2.342859e-01  8.686922e-01
     vertex  2.335997e-01 -2.342859e-01  8.759172e-01
     vertex  2.335997e-01 -2.342859e-01  8.776047e-01
   endloop
 endfacet
 facet normal  0.000000e+00 -1.000000e+00  0.000000e+00
   outer loop
     vertex  2.335997e-01 -2.342859e-01  8.597797e-01
     vertex  2.408247e-01 -2.342859e-01  8.686922e-01
     vertex  2.335997e-01 -2.342859e-01  8.614672e-01
   endloop
 endfacet
 facet normal  0.000000e+00 -1.000000e+00  0.000000e+00
   outer loop
     vertex  2.335997e-01 -2.342859e-01  8.597797e-01
     vertex  2.335997e-01 -2.342859e-01  8.614672e-01
     vertex  2.263747e-01 -2.342859e-01  8.686922e-01
   endloop
 endfacet
 facet normal  0.000000e+00 -1.000000e+00  0.000000e+00
   outer loop
     vertex  2.335997e-01 -2.342859e-01  8.597797e-01
     vertex  2.425122e-01 -2.342859e-01  8.686922e-01
     vertex  2.408247e-01 -2.342859e-01  8.686922e-01
   endloop
 endfacet
 facet normal  0.000000e+00 -1.000000e+00  0.000000e+00
   outer loop
     vertex  2.335997e-01 -2.342859e-01  8.597797e-01
     vertex  2.263747e-01 -2.342859e-01  8.686922e-01
     vertex  2.246872e-01 -2.342859e-01  8.686922e-01
   endloop
 endfacet
 facet normal  3.073379e-02 -9.981091e-01  5.323248e-02
   outer loop
     vertex  2.420489e-01 -2.342409e-01  8.735704e-01
     vertex  2.335997e-01 -2.342409e-01  8.784485e-01
     vertex  2.335997e-01 -2.342859e-01  8.776047e-01
   endloop
 endfacet
 facet normal  1.019196e-02 -9.998961e-01  1.019196e-02
   outer loop
     vertex  2.425122e-01 -2.342859e-01  8.686922e-01
     vertex  2.420489e-01 -2.342409e-01  8.735704e-01
     vertex  2.335997e-01 -2.342859e-01  8.776047e-01
   endloop
 endfacet
 facet normal  9.666615e-02  9.953169e-01 -0.000000e+00
   outer loop
     vertex  2.420489e-01 -2.342409e-01  8.638141e-01
     vertex  2.420489e-01 -2.342409e-01  8.735704e-01
     vertex  2.425122e-01 -2.342859e-01  8.686922e-01
   endloop
 endfacet
 facet normal  1.019196e-02 -9.998961e-01 -1.019196e-02
   outer loop
     vertex  2.335997e-01 -2.342859e-01  8.597797e-01
     vertex  2.420489e-01 -2.342409e-01  8.638141e-01
     vertex  2.425122e-01 -2.342859e-01  8.686922e-01
   endloop
 endfacet
 facet normal  3.073379e-02 -9.981091e-01 -5.323248e-02
   outer loop
     vertex  2.335997e-01 -2.342409e-01  8.589360e-01
     vertex  2.420489e-01 -2.342409e-01  8.638141e-01
     vertex  2.335997e-01 -2.342859e-01  8.597797e-01
   endloop
 endfacet
 facet normal -3.073379e-02 -9.981091e-01 -5.323248e-02
   outer loop
     vertex  2.251506e-01 -2.342409e-01  8.638141e-01
     vertex  2.335997e-01 -2.342409e-01  8.589360e-01
     vertex  2.335997e-01 -2.342859e-01  8.597797e-01
   endloop
 endfacet
 facet normal -1.019196e-02 -9.998961e-01 -1.019196e-02
   outer loop
     vertex  2.246872e-01 -2.342859e-01  8.686922e-01
     vertex  2.251506e-01 -2.342409e-01  8.638141e-01
     vertex  2.335997e-01 -2.342859e-01  8.597797e-01
   endloop
 endfacet
 facet normal -9.666615e-02  9.953169e-01  0.000000e+00
   outer loop
     vertex  2.251506e-01 -2.342409e-01  8.735704e-01
     vertex  2.251506e-01 -2.342409e-01  8.638141e-01
     vertex  2.246872e-01 -2.342859e-01  8.686922e-01
   endloop
 endfacet
 facet normal -1.019196e-02 -9.998961e-01  1.019196e-02
   outer loop
     vertex  2.335997e-01 -2.342859e-01  8.776047e-01
     vertex  2.251506e-01 -2.342409e-01  8.735704e-01
     vertex  2.246872e-01 -2.342859e-01  8.686922e-01
   endloop
 endfacet
 facet normal -3.073379e-02 -9.981091e-01  5.323248e-02
   outer loop
     vertex  2.335997e-01 -2.342409e-01  8.784485e-01
     vertex  2.251506e-01 -2.342409e-01  8.735704e-01
     vertex  2.335997e-01 -2.342859e-01  8.776047e-01
   endloop
 endfacet
 facet normal -3.073379e-02 -9.981091e-01  5.323248e-02
   outer loop
     vertex  2.427796e-01 -2.342859e-01  8.633922e-01
     vertex  2.335997e-01 -2.342409e-01  8.589360e-01
     vertex  2.335997e-01 -2.342859e-01  8.580922e-01
   endloop
 endfacet
 facet normal -3.073379e-02 -9.981091e-01  5.323248e-02
   outer loop
     vertex  2.427796e-01 -2.342859e-01  8.633922e-01
     vertex  2.420489e-01 -2.342409e-01  8.638141e-01
     vertex  2.335997e-01 -2.342409e-01  8.589360e-01
   endloop
 endfacet
 facet normal -6.146758e-02 -9.981091e-01  0.000000e+00
   outer loop
     vertex  2.427796e-01 -2.342859e-01  8.739922e-01
     vertex  2.420489e-01 -2.342409e-01  8.735704e-01
     vertex  2.420489e-01 -2.342409e-01  8.638141e-01
   endloop
 endfacet
 facet normal -6.146758e-02 -9.981091e-01 -0.000000e+00
   outer loop
     vertex  2.427796e-01 -2.342859e-01  8.739922e-01
     vertex  2.420489e-01 -2.342409e-01  8.638141e-01
     vertex  2.427796e-01 -2.342859e-01  8.633922e-01
   endloop
 endfacet
 facet normal -3.073379e-02 -9.981091e-01 -5.323248e-02
   outer loop
     vertex  2.335997e-01 -2.342859e-01  8.792922e-01
     vertex  2.335997e-01 -2.342409e-01  8.784485e-01
     vertex  2.420489e-01 -2.342409e-01  8.735704e-01
   endloop
 endfacet
 facet normal -3.073379e-02 -9.981091e-01 -5.323248e-02
   outer loop
     vertex  2.335997e-01 -2.342859e-01  8.792922e-01
     vertex  2.420489e-01 -2.342409e-01  8.735704e-01
     vertex  2.427796e-01 -2.342859e-01  8.739922e-01
   endloop
 endfacet
 facet normal  3.073379e-02 -9.981091e-01 -5.323248e-02
   outer loop
     vertex  2.244199e-01 -2.342859e-01  8.739922e-01
     vertex  2.251506e-01 -2.342409e-01  8.735704e-01
     vertex  2.335997e-01 -2.342409e-01  8.784485e-01
   endloop
 endfacet
 facet normal  3.073379e-02 -9.981091e-01 -5.323248e-02
   outer loop
     vertex  2.244199e-01 -2.342859e-01  8.739922e-01
     vertex  2.335997e-01 -2.342409e-01  8.784485e-01
     vertex  2.335997e-01 -2.342859e-01  8.792922e-01
   endloop
 endfacet
 facet normal  6.146758e-02 -9.981091e-01  0.000000e+00
   outer loop
     vertex  2.244199e-01 -2.342859e-01  8.633922e-01
     vertex  2.251506e-01 -2.342409e-01  8.638141e-01
     vertex  2.251506e-01 -2.342409e-01  8.735704e-01
   endloop
 endfacet
 facet normal  6.146758e-02 -9.981091e-01  0.000000e+00
   outer loop
     vertex  2.244199e-01 -2.342859e-01  8.633922e-01
     vertex  2.251506e-01 -2.342409e-01  8.735704e-01
     vertex  2.244199e-01 -2.342859e-01  8.739922e-01
   endloop
 endfacet
 facet normal  3.073379e-02 -9.981091e-01  5.323248e-02
   outer loop
     vertex  2.335997e-01 -2.342859e-01  8.580922e-01
     vertex  2.335997e-01 -2.342409e-01  8.589360e-01
     vertex  2.251506e-01 -2.342409e-01  8.638141e-01
   endloop
 endfacet
 facet normal  3.073379e-02 -9.981091e-01  5.323248e-02
   outer loop
     vertex  2.335997e-01 -2.342859e-01  8.580922e-01
     vertex  2.251506e-01 -2.342409e-01  8.638141e-01
     vertex  2.244199e-01 -2.342859e-01  8.633922e-01
   endloop
 endfacet
 facet normal  5.000000e-01  0.000000e+00  8.660254e-01
   outer loop
     vertex  2.427796e-01 -2.341959e-01  8.739922e-01
     vertex  2.335997e-01 -2.341959e-01  8.792922e-01
     vertex  2.335997e-01 -2.342859e-01  8.792922e-01
   endloop
 endfacet
 facet normal  5.000000e-01  0.000000e+00  8.660254e-01
   outer loop
     vertex  2.427796e-01 -2.341959e-01  8.739922e-01
     vertex  2.335997e-01 -2.342859e-01  8.792922e-01
     vertex  2.427796e-01 -2.342859e-01  8.739922e-01
   endloop
 endfacet
 facet normal  1.000000e+00  0.000000e+00  0.000000e+00
   outer loop
     vertex  2.427796e-01 -2.341959e-01  8.633922e-01
     vertex  2.427796e-01 -2.342859e-01  8.739922e-01
     vertex  2.427796e-01 -2.342859e-01  8.633922e-01
   endloop
 endfacet
 facet normal  1.000000e+00  0.000000e+00 -0.000000e+00
   outer loop
     vertex  2.427796e-01 -2.341959e-01  8.633922e-01
     vertex  2.427796e-01 -2.341959e-01  8.739922e-01
     vertex  2.427796e-01 -2.342859e-01  8.739922e-01
   endloop
 endfacet
 facet normal  5.000000e-01  0.000000e+00 -8.660254e-01
   outer loop
     vertex  2.335997e-01 -2.341959e-01  8.580922e-01
     vertex  2.427796e-01 -2.342859e-01  8.633922e-01
     vertex  2.335997e-01 -2.342859e-01  8.580922e-01
   endloop
 endfacet
 facet normal  5.000000e-01  0.000000e+00 -8.660254e-01
   outer loop
     vertex  2.335997e-01 -2.341959e-01  8.580922e-01
     vertex  2.427796e-01 -2.341959e-01  8.633922e-01
     vertex  2.427796e-01 -2.342859e-01  8.633922e-01
   endloop
 endfacet
 facet normal -5.000000e-01 -0.000000e+00 -8.660254e-01
   outer loop
     vertex  2.244199e-01 -2.341959e-01  8.633922e-01
     vertex  2.335997e-01 -2.342859e-01  8.580922e-01
     vertex  2.244199e-01 -2.342859e-01  8.633922e-01
   endloop
 endfacet
 facet normal -5.000000e-01  0.000000e+00 -8.660254e-01
   outer loop
     vertex  2.244199e-01 -2.341959e-01  8.633922e-01
     vertex  2.335997e-01 -2.341959e-01  8.580922e-01
     vertex  2.335997e-01 -2.342859e-01  8.580922e-01
   endloop
 endfacet
 facet normal -1.000000e+00 -0.000000e+00  0.000000e+00
   outer loop
     vertex  2.244199e-01 -2.341959e-01  8.739922e-01
     vertex  2.244199e-01 -2.342859e-01  8.633922e-01
     vertex  2.244199e-01 -2.342859e-01  8.739922e-01
   endloop
 endfacet
 facet normal -1.000000e+00  0.000000e+00 -0.000000e+00
   outer loop
     vertex  2.244199e-01 -2.341959e-01  8.739922e-01
     vertex  2.244199e-01 -2.341959e-01  8.633922e-01
     vertex  2.244199e-01 -2.342859e-01  8.633922e-01
   endloop
 endfacet
 facet normal -5.000000e-01  0.000000e+00  8.660254e-01
   outer loop
     vertex  2.335997e-01 -2.341959e-01  8.792922e-01
     vertex  2.244199e-01 -2.342859e-01  8.739922e-01
     vertex  2.335997e-01 -2.342859e-01  8.792922e-01
   endloop
 endfacet
 facet normal -5.000000e-01  0.000000e+00  8.660254e-01
   outer loop
     vertex  2.335997e-01 -2.341959e-01  8.792922e-01
     vertex  2.244199e-01 -2.341959e-01  8.739922e-01
     vertex  2.244199e-01 -2.342859e-01  8.739922e-01
   endloop
 endfacet
 facet normal  6.112215e-02  9.925000e-01 -1.058667e-01
   outer loop
     vertex  2.427796e-01 -2.341959e-01  8.633922e-01
     vertex  2.335997e-01 -2.341959e-01  8.580922e-01
     vertex  2.335997e-01 -2.341059e-01  8.589360e-01
   endloop
 endfacet
 facet normal  1.904627e-02  9.996372e-01 -1.904627e-02
   outer loop
     vertex  2.433560e-01 -2.341059e-01  8.686922e-01
     vertex  2.427796e-01 -2.341959e-01  8.633922e-01
     vertex  2.335997e-01 -2.341059e-01  8.589360e-01
   endloop
 endfacet
 facet normal  1.542773e-01 -9.880276e-01  0.000000e+00
   outer loop
     vertex  2.427796e-01 -2.341959e-01  8.739922e-01
     vertex  2.427796e-01 -2.341959e-01  8.633922e-01
     vertex  2.433560e-01 -2.341059e-01  8.686922e-01
   endloop
 endfacet
 facet normal  1.904627e-02  9.996372e-01  1.904627e-02
   outer loop
     vertex  2.335997e-01 -2.341059e-01  8.784485e-01
     vertex  2.427796e-01 -2.341959e-01  8.739922e-01
     vertex  2.433560e-01 -2.341059e-01  8.686922e-01
   endloop
 endfacet
 facet normal  6.112215e-02  9.925000e-01  1.058667e-01
   outer loop
     vertex  2.335997e-01 -2.341959e-01  8.792922e-01
     vertex  2.427796e-01 -2.341959e-01  8.739922e-01
     vertex  2.335997e-01 -2.341059e-01  8.784485e-01
   endloop
 endfacet
 facet normal -6.112215e-02  9.925000e-01  1.058667e-01
   outer loop
     vertex  2.244199e-01 -2.341959e-01  8.739922e-01
     vertex  2.335997e-01 -2.341959e-01  8.792922e-01
     vertex  2.335997e-01 -2.341059e-01  8.784485e-01
   endloop
 endfacet
 facet normal -1.904627e-02  9.996372e-01  1.904627e-02
   outer loop
     vertex  2.238435e-01 -2.341059e-01  8.686922e-01
     vertex  2.244199e-01 -2.341959e-01  8.739922e-01
     vertex  2.335997e-01 -2.341059e-01  8.784485e-01
   endloop
 endfacet
 facet normal -1.542773e-01 -9.880276e-01  0.000000e+00
   outer loop
     vertex  2.244199e-01 -2.341959e-01  8.633922e-01
     vertex  2.244199e-01 -2.341959e-01  8.739922e-01
     vertex  2.238435e-01 -2.341059e-01  8.686922e-01
   endloop
 endfacet
 facet normal -1.904627e-02  9.996372e-01 -1.904627e-02
   outer loop
     vertex  2.335997e-01 -2.341059e-01  8.589360e-01
     vertex  2.244199e-01 -2.341959e-01  8.633922e-01
     vertex  2.238435e-01 -2.341059e-01  8.686922e-01
   endloop
 endfacet
 facet normal -6.112215e-02  9.925000e-01 -1.058667e-01
   outer loop
     vertex  2.335997e-01 -2.341959e-01  8.580922e-01
     vertex  2.244199e-01 -2.341959e-01  8.633922e-01
     vertex  2.335997e-01 -2.341059e-01  8.589360e-01
   endloop
 endfacet
 facet normal  0.000000e+00  1.000000e+00 -0.000000e+00
   outer loop
     vertex  2.425122e-01 -2.341059e-01  8.686922e-01
     vertex  2.335997e-01 -2.341059e-01  8.784485e-01
     vertex  2.433560e-01 -2.341059e-01  8.686922e-01
   endloop
 endfacet
 facet normal  0.000000e+00  1.000000e+00  0.000000e+00
   outer loop
     vertex  2.425122e-01 -2.341059e-01  8.686922e-01
     vertex  2.335997e-01 -2.341059e-01  8.776047e-01
     vertex  2.335997e-01 -2.341059e-01  8.784485e-01
   endloop
 endfacet
 facet normal  0.000000e+00  1.000000e+00  0.000000e+00
   outer loop
     vertex  2.238435e-01 -2.341059e-01  8.686922e-01
     vertex  2.335997e-01 -2.341059e-01  8.776047e-01
     vertex  2.246872e-01 -2.341059e-01  8.686922e-01
   endloop
 endfacet
 facet normal  0.000000e+00  1.000000e+00  0.000000e+00
   outer loop
     vertex  2.238435e-01 -2.341059e-01  8.686922e-01
     vertex  2.335997e-01 -2.341059e-01  8.784485e-01
     vertex  2.335997e-01 -2.341059e-01  8.776047e-01
   endloop
 endfacet
 facet normal  0.000000e+00  1.000000e+00 -0.000000e+00
   outer loop
     vertex  2.335997e-01 -2.341059e-01  8.589360e-01
     vertex  2.246872e-01 -2.341059e-01  8.686922e-01
     vertex  2.335997e-01 -2.341059e-01  8.597797e-01
   endloop
 endfacet
 facet normal  0.000000e+00  1.000000e+00  0.000000e+00
   outer loop
     vertex  2.335997e-01 -2.341059e-01  8.589360e-01
     vertex  2.335997e-01 -2.341059e-01  8.597797e-01
     vertex  2.425122e-01 -2.341059e-01  8.686922e-01
   endloop
 endfacet
 facet normal  0.000000e+00  1.000000e+00  0.000000e+00
   outer loop
     vertex  2.335997e-01 -2.341059e-01  8.589360e-01
     vertex  2.425122e-01 -2.341059e-01  8.686922e-01
     vertex  2.433560e-01 -2.341059e-01  8.686922e-01
   endloop
 endfacet
 facet normal  0.000000e+00  1.000000e+00  0.000000e+00
   outer loop
     vertex  2.335997e-01 -2.341059e-01  8.589360e-01
     vertex  2.238435e-01 -2.341059e-01  8.686922e-01
     vertex  2.246872e-01 -2.341059e-01  8.686922e-01
   endloop
 endfacet
 facet normal -5.318227e-02  9.971676e-01 -5.318227e-02
   outer loop
     vertex  2.425122e-01 -2.341059e-01  8.686922e-01
     vertex  2.335997e-01 -2.341959e-01  8.759172e-01
     vertex  2.335997e-01 -2.341059e-01  8.776047e-01
   endloop
 endfacet
 facet normal -5.318227e-02  9.971676e-01 -5.318227e-02
   outer loop
     vertex  2.425122e-01 -2.341059e-01  8.686922e-01
     vertex  2.408247e-01 -2.341959e-01  8.686922e-01
     vertex  2.335997e-01 -2.341959e-01  8.759172e-01
   endloop
 endfacet
 facet normal -5.318227e-02  9.971676e-01  5.318227e-02
   outer loop
     vertex  2.335997e-01 -2.341059e-01  8.597797e-01
     vertex  2.335997e-01 -2.341959e-01  8.614672e-01
     vertex  2.408247e-01 -2.341959e-01  8.686922e-01
   endloop
 endfacet
 facet normal -5.318227e-02  9.971676e-01  5.318227e-02
   outer loop
     vertex  2.335997e-01 -2.341059e-01  8.597797e-01
     vertex  2.408247e-01 -2.341959e-01  8.686922e-01
     vertex  2.425122e-01 -2.341059e-01  8.686922e-01
   endloop
 endfacet
 facet normal  5.318227e-02  9.971676e-01  5.318227e-02
   outer loop
     vertex  2.246872e-01 -2.341059e-01  8.686922e-01
     vertex  2.263747e-01 -2.341959e-01  8.686922e-01
     vertex  2.335997e-01 -2.341959e-01  8.614672e-01
   endloop
 endfacet
 facet normal  5.318227e-02  9.971676e-01  5.318227e-02
   outer loop
     vertex  2.246872e-01 -2.341059e-01  8.686922e-01
     vertex  2.335997e-01 -2.341959e-01  8.614672e-01
     vertex  2.335997e-01 -2.341059e-01  8.597797e-01
   endloop
 endfacet
 facet normal  5.318227e-02  9.971676e-01 -5.318227e-02
   outer loop
     vertex  2.335997e-01 -2.341059e-01  8.776047e-01
     vertex  2.335997e-01 -2.341959e-01  8.759172e-01
     vertex  2.263747e-01 -2.341959e-01  8.686922e-01
   endloop
 endfacet
 facet normal  5.318227e-02  9.971676e-01 -5.318227e-02
   outer loop
     vertex  2.335997e-01 -2.341059e-01  8.776047e-01
     vertex  2.263747e-01 -2.341959e-01  8.686922e-01
     vertex  2.246872e-01 -2.341059e-01  8.686922e-01
   endloop
 endfacet
 facet normal  2.505628e-01 -9.351131e-01  2.505628e-01
   outer loop
     vertex  2.407747e-01 -2.345425e-01  8.686922e-01
     vertex  2.335997e-01 -2.345425e-01  8.758672e-01
     vertex  2.335997e-01 -2.345559e-01  8.758172e-01
   endloop
 endfacet
 facet normal  2.505628e-01 -9.351131e-01  2.505628e-01
   outer loop
     vertex  2.407747e-01 -2.345425e-01  8.686922e-01
     vertex  2.335997e-01 -2.345559e-01  8.758172e-01
     vertex  2.407247e-01 -2.345559e-01  8.686922e-01
   endloop
 endfacet
 facet normal  6.947466e-01 -1.861568e-01  6.947466e-01
   outer loop
     vertex  2.408113e-01 -2.345059e-01  8.686922e-01
     vertex  2.408247e-01 -2.344559e-01  8.686922e-01
     vertex  2.335997e-01 -2.344559e-01  8.759172e-01
   endloop
 endfacet
 facet normal  6.947466e-01 -1.861568e-01  6.947466e-01
   outer loop
     vertex  2.408113e-01 -2.345059e-01  8.686922e-01
     vertex  2.335997e-01 -2.344559e-01  8.759172e-01
     vertex  2.335997e-01 -2.345059e-01  8.759038e-01
   endloop
 endfacet
 facet normal  5.773503e-01 -5.773503e-01  5.773503e-01
   outer loop
     vertex  2.408113e-01 -2.345059e-01  8.686922e-01
     vertex  2.335997e-01 -2.345059e-01  8.759038e-01
     vertex  2.335997e-01 -2.345425e-01  8.758672e-01
   endloop
 endfacet
 facet normal  5.773503e-01 -5.773503e-01  5.773503e-01
   outer loop
     vertex  2.408113e-01 -2.345059e-01  8.686922e-01
     vertex  2.335997e-01 -2.345425e-01  8.758672e-01
     vertex  2.407747e-01 -2.345425e-01  8.686922e-01
   endloop
 endfacet
 facet normal  2.505628e-01 -9.351131e-01 -2.505628e-01
   outer loop
     vertex  2.335997e-01 -2.345425e-01  8.615172e-01
     vertex  2.407247e-01 -2.345559e-01  8.686922e-01
     vertex  2.335997e-01 -2.345559e-01  8.615672e-01
   endloop
 endfacet
 facet normal  2.505628e-01 -9.351131e-01 -2.505628e-01
   outer loop
     vertex  2.335997e-01 -2.345425e-01  8.615172e-01
     vertex  2.407747e-01 -2.345425e-01  8.686922e-01
     vertex  2.407247e-01 -2.345559e-01  8.686922e-01
   endloop
 endfacet
 facet normal  6.947466e-01 -1.861568e-01 -6.947466e-01
   outer loop
     vertex  2.335997e-01 -2.345059e-01  8.614806e-01
     vertex  2.335997e-01 -2.344559e-01  8.614672e-01
     vertex  2.408247e-01 -2.344559e-01  8.686922e-01
   endloop
 endfacet
 facet normal  5.773503e-01 -5.773503e-01 -5.773503e-01
   outer loop
     vertex  2.335997e-01 -2.345059e-01  8.614806e-01
     vertex  2.408113e-01 -2.345059e-01  8.686922e-01
     vertex  2.407747e-01 -2.345425e-01  8.686922e-01
   endloop
 endfacet
 facet normal  5.773503e-01 -5.773503e-01 -5.773503e-01
   outer loop
     vertex  2.335997e-01 -2.345059e-01  8.614806e-01
     vertex  2.407747e-01 -2.345425e-01  8.686922e-01
     vertex  2.335997e-01 -2.345425e-01  8.615172e-01
   endloop
 endfacet
 facet normal  6.947466e-01 -1.861568e-01 -6.947466e-01
   outer loop
     vertex  2.335997e-01 -2.345059e-01  8.614806e-01
     vertex  2.408247e-01 -2.344559e-01  8.686922e-01
     vertex  2.408113e-01 -2.345059e-01  8.686922e-01
   endloop
 endfacet
 facet normal -2.505628e-01 -9.351131e-01  2.505628e-01
   outer loop
     vertex  2.264247e-01 -2.345425e-01  8.686922e-01
     vertex  2.264747e-01 -2.345559e-01  8.686922e-01
     vertex  2.335997e-01 -2.345559e-01  8.758172e-01
   endloop
 endfacet
 facet normal -2.505628e-01 -9.351131e-01 -2.505628e-01
   outer loop
     vertex  2.264247e-01 -2.345425e-01  8.686922e-01
     vertex  2.335997e-01 -2.345559e-01  8.615672e-01
     vertex  2.264747e-01 -2.345559e-01  8.686922e-01
   endloop
 endfacet
 facet normal -2.505628e-01 -9.351131e-01  2.505628e-01
   outer loop
     vertex  2.264247e-01 -2.345425e-01  8.686922e-01
     vertex  2.335997e-01 -2.345559e-01  8.758172e-01
     vertex  2.335997e-01 -2.345425e-01  8.758672e-01
   endloop
 endfacet
 facet normal -2.505628e-01 -9.351131e-01 -2.505628e-01
   outer loop
     vertex  2.264247e-01 -2.345425e-01  8.686922e-01
     vertex  2.335997e-01 -2.345425e-01  8.615172e-01
     vertex  2.335997e-01 -2.345559e-01  8.615672e-01
   endloop
 endfacet
 facet normal -6.947466e-01 -1.861568e-01  6.947466e-01
   outer loop
     vertex  2.263881e-01 -2.345059e-01  8.686922e-01
     vertex  2.335997e-01 -2.344559e-01  8.759172e-01
     vertex  2.263747e-01 -2.344559e-01  8.686922e-01
   endloop
 endfacet
 facet normal -6.947466e-01 -1.861568e-01 -6.947466e-01
   outer loop
     vertex  2.263881e-01 -2.345059e-01  8.686922e-01
     vertex  2.263747e-01 -2.344559e-01  8.686922e-01
     vertex  2.335997e-01 -2.344559e-01  8.614672e-01
   endloop
 endfacet
 facet normal -6.947466e-01 -1.861568e-01  6.947466e-01
   outer loop
     vertex  2.263881e-01 -2.345059e-01  8.686922e-01
     vertex  2.335997e-01 -2.345059e-01  8.759038e-01
     vertex  2.335997e-01 -2.344559e-01  8.759172e-01
   endloop
 endfacet
 facet normal -5.773503e-01 -5.773503e-01  5.773503e-01
   outer loop
     vertex  2.263881e-01 -2.345059e-01  8.686922e-01
     vertex  2.335997e-01 -2.345425e-01  8.758672e-01
     vertex  2.335997e-01 -2.345059e-01  8.759038e-01
   endloop
 endfacet
 facet normal -6.947466e-01 -1.861568e-01 -6.947466e-01
   outer loop
     vertex  2.263881e-01 -2.345059e-01  8.686922e-01
     vertex  2.335997e-01 -2.344559e-01  8.614672e-01
     vertex  2.335997e-01 -2.345059e-01  8.614806e-01
   endloop
 endfacet
 facet normal -5.773503e-01 -5.773503e-01 -5.773503e-01
   outer loop
     vertex  2.263881e-01 -2.345059e-01  8.686922e-01
     vertex  2.335997e-01 -2.345425e-01  8.615172e-01
     vertex  2.264247e-01 -2.345425e-01  8.686922e-01
   endloop
 endfacet
 facet normal -5.773503e-01 -5.773503e-01  5.773503e-01
   outer loop
     vertex  2.263881e-01 -2.345059e-01  8.686922e-01
     vertex  2.264247e-01 -2.345425e-01  8.686922e-01
     vertex  2.335997e-01 -2.345425e-01  8.758672e-01
   endloop
 endfacet
 facet normal -5.773503e-01 -5.773503e-01 -5.773503e-01
   outer loop
     vertex  2.263881e-01 -2.345059e-01  8.686922e-01
     vertex  2.335997e-01 -2.345059e-01  8.614806e-01
     vertex  2.335997e-01 -2.345425e-01  8.615172e-01
   endloop
 endfacet
endsolid
