solid 
 facet normal  0.000000e+00  7.071068e-01 -7.071068e-01
   outer loop
     vertex -2.263103e-01  2.148441e-01  8.686922e-01
     vertex -2.264003e-01  2.254441e-01  8.792922e-01
     vertex -2.263103e-01  2.254441e-01  8.792922e-01
   endloop
 endfacet
 facet normal  0.000000e+00  7.071068e-01 -7.071068e-01
   outer loop
     vertex -2.263103e-01  2.148441e-01  8.686922e-01
     vertex -2.264003e-01  2.148441e-01  8.686922e-01
     vertex -2.264003e-01  2.254441e-01  8.792922e-01
   endloop
 endfacet
 facet normal  0.000000e+00  7.071068e-01  7.071068e-01
   outer loop
     vertex -2.263103e-01  2.254441e-01  8.580922e-01
     vertex -2.264003e-01  2.254441e-01  8.580922e-01
     vertex -2.264003e-01  2.148441e-01  8.686922e-01
   endloop
 endfacet
 facet normal  0.000000e+00  7.071068e-01  7.071068e-01
   outer loop
     vertex -2.263103e-01  2.254441e-01  8.580922e-01
     vertex -2.264003e-01  2.148441e-01  8.686922e-01
     vertex -2.263103e-01  2.148441e-01  8.686922e-01
   endloop
 endfacet
 facet normal  0.000000e+00 -7.071068e-01  7.071068e-01
   outer loop
     vertex -2.263103e-01  2.360441e-01  8.686922e-01
     vertex -2.264003e-01  2.360441e-01  8.686922e-01
     vertex -2.264003e-01  2.254441e-01  8.580922e-01
   endloop
 endfacet
 facet normal  0.000000e+00 -7.071068e-01  7.071068e-01
   outer loop
     vertex -2.263103e-01  2.360441e-01  8.686922e-01
     vertex -2.264003e-01  2.254441e-01  8.580922e-01
     vertex -2.263103e-01  2.254441e-01  8.580922e-01
   endloop
 endfacet
 facet normal -0.000000e+00 -7.071068e-01 -7.071068e-01
   outer loop
     vertex -2.263103e-01  2.254441e-01  8.792922e-01
     vertex -2.264003e-01  2.254441e-01  8.792922e-01
     vertex -2.264003e-01  2.360441e-01  8.686922e-01
   endloop
 endfacet
 facet normal  0.000000e+00 -7.071068e-01 -7.071068e-01
   outer loop
     vertex -2.263103e-01  2.254441e-01  8.792922e-01
     vertex -2.264003e-01  2.360441e-01  8.686922e-01
     vertex -2.263103e-01  2.360441e-01  8.686922e-01
   endloop
 endfacet
 facet normal -8.320503e-01  2.773501e-01 -4.803845e-01
   outer loop
     vertex -2.260403e-01  2.161293e-01  8.740702e-01
     vertex -2.259503e-01  2.254441e-01  8.792922e-01
     vertex -2.259503e-01  2.162643e-01  8.739922e-01
   endloop
 endfacet
 facet normal  8.282584e-01  2.920914e-01 -4.781952e-01
   outer loop
     vertex -2.260403e-01  2.161293e-01  8.740702e-01
     vertex -2.263103e-01  2.254441e-01  8.792922e-01
     vertex -2.262203e-01  2.254441e-01  8.794481e-01
   endloop
 endfacet
 facet normal  0.000000e+00  5.000000e-01 -8.660254e-01
   outer loop
     vertex -2.260403e-01  2.161293e-01  8.740702e-01
     vertex -2.262203e-01  2.254441e-01  8.794481e-01
     vertex -2.260403e-01  2.254441e-01  8.794481e-01
   endloop
 endfacet
 facet normal -8.320503e-01  2.773501e-01 -4.803845e-01
   outer loop
     vertex -2.260403e-01  2.161293e-01  8.740702e-01
     vertex -2.260403e-01  2.254441e-01  8.794481e-01
     vertex -2.259503e-01  2.254441e-01  8.792922e-01
   endloop
 endfacet
 facet normal  9.956763e-01  6.568409e-02 -6.568409e-02
   outer loop
     vertex -2.260403e-01  2.161293e-01  8.740702e-01
     vertex -2.263103e-01  2.148441e-01  8.686922e-01
     vertex -2.263103e-01  2.254441e-01  8.792922e-01
   endloop
 endfacet
 facet normal  8.547503e-01  4.934903e-01 -1.608389e-01
   outer loop
     vertex -2.262203e-01  2.146883e-01  8.686922e-01
     vertex -2.263103e-01  2.148441e-01  8.686922e-01
     vertex -2.260403e-01  2.161293e-01  8.740702e-01
   endloop
 endfacet
 facet normal -9.983734e-01  5.701316e-02  0.000000e+00
   outer loop
     vertex -2.260403e-01  2.146883e-01  8.686922e-01
     vertex -2.259503e-01  2.162643e-01  8.739922e-01
     vertex -2.259503e-01  2.162643e-01  8.633922e-01
   endloop
 endfacet
 facet normal  0.000000e+00  9.659258e-01 -2.588190e-01
   outer loop
     vertex -2.260403e-01  2.146883e-01  8.686922e-01
     vertex -2.262203e-01  2.146883e-01  8.686922e-01
     vertex -2.260403e-01  2.161293e-01  8.740702e-01
   endloop
 endfacet
 facet normal -8.583563e-01  4.955722e-01 -1.327882e-01
   outer loop
     vertex -2.260403e-01  2.146883e-01  8.686922e-01
     vertex -2.260403e-01  2.161293e-01  8.740702e-01
     vertex -2.259503e-01  2.162643e-01  8.739922e-01
   endloop
 endfacet
 facet normal  9.956763e-01  6.568409e-02  6.568409e-02
   outer loop
     vertex -2.260403e-01  2.161293e-01  8.633143e-01
     vertex -2.263103e-01  2.254441e-01  8.580922e-01
     vertex -2.263103e-01  2.148441e-01  8.686922e-01
   endloop
 endfacet
 facet normal  0.000000e+00  9.659258e-01  2.588190e-01
   outer loop
     vertex -2.260403e-01  2.161293e-01  8.633143e-01
     vertex -2.262203e-01  2.146883e-01  8.686922e-01
     vertex -2.260403e-01  2.146883e-01  8.686922e-01
   endloop
 endfacet
 facet normal  8.547503e-01  4.934903e-01  1.608389e-01
   outer loop
     vertex -2.260403e-01  2.161293e-01  8.633143e-01
     vertex -2.263103e-01  2.148441e-01  8.686922e-01
     vertex -2.262203e-01  2.146883e-01  8.686922e-01
   endloop
 endfacet
 facet normal -8.583563e-01  4.955722e-01  1.327882e-01
   outer loop
     vertex -2.260403e-01  2.161293e-01  8.633143e-01
     vertex -2.260403e-01  2.146883e-01  8.686922e-01
     vertex -2.259503e-01  2.162643e-01  8.633922e-01
   endloop
 endfacet
 facet normal  8.282584e-01  2.920914e-01  4.781952e-01
   outer loop
     vertex -2.262203e-01  2.254441e-01  8.579364e-01
     vertex -2.263103e-01  2.254441e-01  8.580922e-01
     vertex -2.260403e-01  2.161293e-01  8.633143e-01
   endloop
 endfacet
 facet normal -8.320503e-01  2.773501e-01  4.803845e-01
   outer loop
     vertex -2.260403e-01  2.254441e-01  8.579364e-01
     vertex -2.259503e-01  2.162643e-01  8.633922e-01
     vertex -2.259503e-01  2.254441e-01  8.580922e-01
   endloop
 endfacet
 facet normal -8.320503e-01  2.773501e-01  4.803845e-01
   outer loop
     vertex -2.260403e-01  2.254441e-01  8.579364e-01
     vertex -2.260403e-01  2.161293e-01  8.633143e-01
     vertex -2.259503e-01  2.162643e-01  8.633922e-01
   endloop
 endfacet
 facet normal  0.000000e+00  5.000000e-01  8.660254e-01
   outer loop
     vertex -2.260403e-01  2.254441e-01  8.579364e-01
     vertex -2.262203e-01  2.254441e-01  8.579364e-01
     vertex -2.260403e-01  2.161293e-01  8.633143e-01
   endloop
 endfacet
 facet normal -8.320503e-01 -2.773501e-01  4.803845e-01
   outer loop
     vertex -2.260403e-01  2.347590e-01  8.633143e-01
     vertex -2.259503e-01  2.254441e-01  8.580922e-01
     vertex -2.259503e-01  2.346240e-01  8.633922e-01
   endloop
 endfacet
 facet normal  9.956763e-01 -6.568409e-02  6.568409e-02
   outer loop
     vertex -2.260403e-01  2.347590e-01  8.633143e-01
     vertex -2.263103e-01  2.360441e-01  8.686922e-01
     vertex -2.263103e-01  2.254441e-01  8.580922e-01
   endloop
 endfacet
 facet normal  8.282584e-01 -2.920914e-01  4.781952e-01
   outer loop
     vertex -2.260403e-01  2.347590e-01  8.633143e-01
     vertex -2.263103e-01  2.254441e-01  8.580922e-01
     vertex -2.262203e-01  2.254441e-01  8.579364e-01
   endloop
 endfacet
 facet normal -8.320503e-01 -2.773501e-01  4.803845e-01
   outer loop
     vertex -2.260403e-01  2.347590e-01  8.633143e-01
     vertex -2.260403e-01  2.254441e-01  8.579364e-01
     vertex -2.259503e-01  2.254441e-01  8.580922e-01
   endloop
 endfacet
 facet normal  0.000000e+00 -5.000000e-01  8.660254e-01
   outer loop
     vertex -2.260403e-01  2.347590e-01  8.633143e-01
     vertex -2.262203e-01  2.254441e-01  8.579364e-01
     vertex -2.260403e-01  2.254441e-01  8.579364e-01
   endloop
 endfacet
 facet normal  8.547503e-01 -4.934903e-01  1.608389e-01
   outer loop
     vertex -2.262203e-01  2.362000e-01  8.686922e-01
     vertex -2.263103e-01  2.360441e-01  8.686922e-01
     vertex -2.260403e-01  2.347590e-01  8.633143e-01
   endloop
 endfacet
 facet normal -9.983734e-01 -5.701316e-02  0.000000e+00
   outer loop
     vertex -2.260403e-01  2.362000e-01  8.686922e-01
     vertex -2.259503e-01  2.346240e-01  8.633922e-01
     vertex -2.259503e-01  2.346240e-01  8.739922e-01
   endloop
 endfacet
 facet normal -8.583563e-01 -4.955722e-01  1.327882e-01
   outer loop
     vertex -2.260403e-01  2.362000e-01  8.686922e-01
     vertex -2.260403e-01  2.347590e-01  8.633143e-01
     vertex -2.259503e-01  2.346240e-01  8.633922e-01
   endloop
 endfacet
 facet normal  0.000000e+00 -9.659258e-01  2.588190e-01
   outer loop
     vertex -2.260403e-01  2.362000e-01  8.686922e-01
     vertex -2.262203e-01  2.362000e-01  8.686922e-01
     vertex -2.260403e-01  2.347590e-01  8.633143e-01
   endloop
 endfacet
 facet normal  8.282584e-01 -2.920914e-01 -4.781952e-01
   outer loop
     vertex -2.260403e-01  2.347590e-01  8.740702e-01
     vertex -2.262203e-01  2.254441e-01  8.794481e-01
     vertex -2.263103e-01  2.254441e-01  8.792922e-01
   endloop
 endfacet
 facet normal  0.000000e+00 -5.000000e-01 -8.660254e-01
   outer loop
     vertex -2.260403e-01  2.347590e-01  8.740702e-01
     vertex -2.260403e-01  2.254441e-01  8.794481e-01
     vertex -2.262203e-01  2.254441e-01  8.794481e-01
   endloop
 endfacet
 facet normal -8.320503e-01 -2.773501e-01 -4.803845e-01
   outer loop
     vertex -2.260403e-01  2.347590e-01  8.740702e-01
     vertex -2.259503e-01  2.254441e-01  8.792922e-01
     vertex -2.260403e-01  2.254441e-01  8.794481e-01
   endloop
 endfacet
 facet normal -8.320503e-01 -2.773501e-01 -4.803845e-01
   outer loop
     vertex -2.260403e-01  2.347590e-01  8.740702e-01
     vertex -2.259503e-01  2.346240e-01  8.739922e-01
     vertex -2.259503e-01  2.254441e-01  8.792922e-01
   endloop
 endfacet
 facet normal  9.956763e-01 -6.568409e-02 -6.568409e-02
   outer loop
     vertex -2.260403e-01  2.347590e-01  8.740702e-01
     vertex -2.263103e-01  2.254441e-01  8.792922e-01
     vertex -2.263103e-01  2.360441e-01  8.686922e-01
   endloop
 endfacet
 facet normal -8.583563e-01 -4.955722e-01 -1.327882e-01
   outer loop
     vertex -2.260403e-01  2.347590e-01  8.740702e-01
     vertex -2.260403e-01  2.362000e-01  8.686922e-01
     vertex -2.259503e-01  2.346240e-01  8.739922e-01
   endloop
 endfacet
 facet normal  8.547503e-01 -4.934903e-01 -1.608389e-01
   outer loop
     vertex -2.260403e-01  2.347590e-01  8.740702e-01
     vertex -2.263103e-01  2.360441e-01  8.686922e-01
     vertex -2.262203e-01  2.362000e-01  8.686922e-01
   endloop
 endfacet
 facet normal  0.000000e+00 -9.659258e-01 -2.588190e-01
   outer loop
     vertex -2.260403e-01  2.347590e-01  8.740702e-01
     vertex -2.262203e-01  2.362000e-01  8.686922e-01
     vertex -2.260403e-01  2.362000e-01  8.686922e-01
   endloop
 endfacet
 facet normal -9.798955e-01  9.975574e-02  1.727820e-01
   outer loop
     vertex -2.259503e-01  2.162643e-01  8.633922e-01
     vertex -2.258145e-01  2.254441e-01  8.588622e-01
     vertex -2.259503e-01  2.254441e-01  8.580922e-01
   endloop
 endfacet
 facet normal -9.798955e-01  9.975574e-02  1.727820e-01
   outer loop
     vertex -2.259503e-01  2.162643e-01  8.633922e-01
     vertex -2.258145e-01  2.169311e-01  8.637772e-01
     vertex -2.258145e-01  2.254441e-01  8.588622e-01
   endloop
 endfacet
 facet normal -9.798955e-01  1.995115e-01  0.000000e+00
   outer loop
     vertex -2.259503e-01  2.162643e-01  8.739922e-01
     vertex -2.258145e-01  2.169311e-01  8.736072e-01
     vertex -2.258145e-01  2.169311e-01  8.637772e-01
   endloop
 endfacet
 facet normal -9.798955e-01  1.995115e-01  0.000000e+00
   outer loop
     vertex -2.259503e-01  2.162643e-01  8.739922e-01
     vertex -2.258145e-01  2.169311e-01  8.637772e-01
     vertex -2.259503e-01  2.162643e-01  8.633922e-01
   endloop
 endfacet
 facet normal -9.798955e-01  9.975574e-02 -1.727820e-01
   outer loop
     vertex -2.259503e-01  2.254441e-01  8.792922e-01
     vertex -2.258145e-01  2.254441e-01  8.785222e-01
     vertex -2.258145e-01  2.169311e-01  8.736072e-01
   endloop
 endfacet
 facet normal -9.798955e-01  9.975574e-02 -1.727820e-01
   outer loop
     vertex -2.259503e-01  2.254441e-01  8.792922e-01
     vertex -2.258145e-01  2.169311e-01  8.736072e-01
     vertex -2.259503e-01  2.162643e-01  8.739922e-01
   endloop
 endfacet
 facet normal -9.798955e-01 -9.975574e-02 -1.727820e-01
   outer loop
     vertex -2.259503e-01  2.346240e-01  8.739922e-01
     vertex -2.258145e-01  2.339572e-01  8.736072e-01
     vertex -2.258145e-01  2.254441e-01  8.785222e-01
   endloop
 endfacet
 facet normal -9.798955e-01 -9.975574e-02 -1.727820e-01
   outer loop
     vertex -2.259503e-01  2.346240e-01  8.739922e-01
     vertex -2.258145e-01  2.254441e-01  8.785222e-01
     vertex -2.259503e-01  2.254441e-01  8.792922e-01
   endloop
 endfacet
 facet normal -9.798955e-01 -1.995115e-01  0.000000e+00
   outer loop
     vertex -2.259503e-01  2.346240e-01  8.633922e-01
     vertex -2.258145e-01  2.339572e-01  8.637772e-01
     vertex -2.258145e-01  2.339572e-01  8.736072e-01
   endloop
 endfacet
 facet normal -9.798955e-01 -1.995115e-01  0.000000e+00
   outer loop
     vertex -2.259503e-01  2.346240e-01  8.633922e-01
     vertex -2.258145e-01  2.339572e-01  8.736072e-01
     vertex -2.259503e-01  2.346240e-01  8.739922e-01
   endloop
 endfacet
 facet normal -9.798955e-01 -9.975574e-02  1.727820e-01
   outer loop
     vertex -2.259503e-01  2.254441e-01  8.580922e-01
     vertex -2.258145e-01  2.254441e-01  8.588622e-01
     vertex -2.258145e-01  2.339572e-01  8.637772e-01
   endloop
 endfacet
 facet normal -9.798955e-01 -9.975574e-02  1.727820e-01
   outer loop
     vertex -2.259503e-01  2.254441e-01  8.580922e-01
     vertex -2.258145e-01  2.339572e-01  8.637772e-01
     vertex -2.259503e-01  2.346240e-01  8.633922e-01
   endloop
 endfacet
 facet normal  0.000000e+00  5.000000e-01 -8.660254e-01
   outer loop
     vertex -2.243731e-01  2.254441e-01  8.785222e-01
     vertex -2.258145e-01  2.169311e-01  8.736072e-01
     vertex -2.258145e-01  2.254441e-01  8.785222e-01
   endloop
 endfacet
 facet normal  6.745335e-01  7.382442e-01  0.000000e+00
   outer loop
     vertex -2.243731e-01  2.156141e-01  8.686922e-01
     vertex -2.258145e-01  2.169311e-01  8.637772e-01
     vertex -2.258145e-01  2.169311e-01  8.736072e-01
   endloop
 endfacet
 facet normal -8.700733e-01  3.485488e-01 -3.485488e-01
   outer loop
     vertex -2.243731e-01  2.156141e-01  8.686922e-01
     vertex -2.258145e-01  2.169311e-01  8.736072e-01
     vertex -2.243731e-01  2.254441e-01  8.785222e-01
   endloop
 endfacet
 facet normal  0.000000e+00  5.000000e-01  8.660254e-01
   outer loop
     vertex -2.243731e-01  2.254441e-01  8.588622e-01
     vertex -2.258145e-01  2.254441e-01  8.588622e-01
     vertex -2.258145e-01  2.169311e-01  8.637772e-01
   endloop
 endfacet
 facet normal  0.000000e+00 -5.000000e-01  8.660254e-01
   outer loop
     vertex -2.243731e-01  2.254441e-01  8.588622e-01
     vertex -2.258145e-01  2.339572e-01  8.637772e-01
     vertex -2.258145e-01  2.254441e-01  8.588622e-01
   endloop
 endfacet
 facet normal -8.700733e-01  3.485488e-01  3.485488e-01
   outer loop
     vertex -2.243731e-01  2.254441e-01  8.588622e-01
     vertex -2.258145e-01  2.169311e-01  8.637772e-01
     vertex -2.243731e-01  2.156141e-01  8.686922e-01
   endloop
 endfacet
 facet normal  6.745335e-01 -7.382442e-01  0.000000e+00
   outer loop
     vertex -2.243731e-01  2.352741e-01  8.686922e-01
     vertex -2.258145e-01  2.339572e-01  8.736072e-01
     vertex -2.258145e-01  2.339572e-01  8.637772e-01
   endloop
 endfacet
 facet normal -8.700733e-01 -3.485488e-01  3.485488e-01
   outer loop
     vertex -2.243731e-01  2.352741e-01  8.686922e-01
     vertex -2.258145e-01  2.339572e-01  8.637772e-01
     vertex -2.243731e-01  2.254441e-01  8.588622e-01
   endloop
 endfacet
 facet normal -0.000000e+00 -5.000000e-01 -8.660254e-01
   outer loop
     vertex -2.243731e-01  2.254441e-01  8.785222e-01
     vertex -2.258145e-01  2.254441e-01  8.785222e-01
     vertex -2.258145e-01  2.339572e-01  8.736072e-01
   endloop
 endfacet
 facet normal -8.700733e-01 -3.485488e-01 -3.485488e-01
   outer loop
     vertex -2.243731e-01  2.254441e-01  8.785222e-01
     vertex -2.258145e-01  2.339572e-01  8.736072e-01
     vertex -2.243731e-01  2.352741e-01  8.686922e-01
   endloop
 endfacet
 facet normal  4.034371e-01  6.470079e-01 -6.470079e-01
   outer loop
     vertex -2.234464e-01  2.150363e-01  8.686922e-01
     vertex -2.243731e-01  2.254441e-01  8.785222e-01
     vertex -2.234464e-01  2.254441e-01  8.791001e-01
   endloop
 endfacet
 facet normal  4.034371e-01  6.470079e-01 -6.470079e-01
   outer loop
     vertex -2.234464e-01  2.150363e-01  8.686922e-01
     vertex -2.243731e-01  2.156141e-01  8.686922e-01
     vertex -2.243731e-01  2.254441e-01  8.785222e-01
   endloop
 endfacet
 facet normal -4.034371e-01  6.470079e-01 -6.470079e-01
   outer loop
     vertex -2.223542e-01  2.150363e-01  8.686922e-01
     vertex -2.214274e-01  2.254441e-01  8.785222e-01
     vertex -2.214274e-01  2.156141e-01  8.686922e-01
   endloop
 endfacet
 facet normal  0.000000e+00  7.071068e-01 -7.071068e-01
   outer loop
     vertex -2.223542e-01  2.150363e-01  8.686922e-01
     vertex -2.234464e-01  2.254441e-01  8.791001e-01
     vertex -2.223542e-01  2.254441e-01  8.791001e-01
   endloop
 endfacet
 facet normal -4.034371e-01  6.470079e-01 -6.470079e-01
   outer loop
     vertex -2.223542e-01  2.150363e-01  8.686922e-01
     vertex -2.223542e-01  2.254441e-01  8.791001e-01
     vertex -2.214274e-01  2.254441e-01  8.785222e-01
   endloop
 endfacet
 facet normal  0.000000e+00  7.071068e-01 -7.071068e-01
   outer loop
     vertex -2.223542e-01  2.150363e-01  8.686922e-01
     vertex -2.234464e-01  2.150363e-01  8.686922e-01
     vertex -2.234464e-01  2.254441e-01  8.791001e-01
   endloop
 endfacet
 facet normal  4.034371e-01  6.470079e-01  6.470079e-01
   outer loop
     vertex -2.234464e-01  2.254441e-01  8.582844e-01
     vertex -2.243731e-01  2.254441e-01  8.588622e-01
     vertex -2.243731e-01  2.156141e-01  8.686922e-01
   endloop
 endfacet
 facet normal  4.034371e-01  6.470079e-01  6.470079e-01
   outer loop
     vertex -2.234464e-01  2.254441e-01  8.582844e-01
     vertex -2.243731e-01  2.156141e-01  8.686922e-01
     vertex -2.234464e-01  2.150363e-01  8.686922e-01
   endloop
 endfacet
 facet normal -4.034371e-01  6.470079e-01  6.470079e-01
   outer loop
     vertex -2.223542e-01  2.254441e-01  8.582844e-01
     vertex -2.214274e-01  2.156141e-01  8.686922e-01
     vertex -2.214274e-01  2.254441e-01  8.588622e-01
   endloop
 endfacet
 facet normal  0.000000e+00  7.071068e-01  7.071068e-01
   outer loop
     vertex -2.223542e-01  2.254441e-01  8.582844e-01
     vertex -2.234464e-01  2.150363e-01  8.686922e-01
     vertex -2.223542e-01  2.150363e-01  8.686922e-01
   endloop
 endfacet
 facet normal -4.034371e-01  6.470079e-01  6.470079e-01
   outer loop
     vertex -2.223542e-01  2.254441e-01  8.582844e-01
     vertex -2.223542e-01  2.150363e-01  8.686922e-01
     vertex -2.214274e-01  2.156141e-01  8.686922e-01
   endloop
 endfacet
 facet normal  0.000000e+00  7.071068e-01  7.071068e-01
   outer loop
     vertex -2.223542e-01  2.254441e-01  8.582844e-01
     vertex -2.234464e-01  2.254441e-01  8.582844e-01
     vertex -2.234464e-01  2.150363e-01  8.686922e-01
   endloop
 endfacet
 facet normal  4.034371e-01 -6.470079e-01 -6.470079e-01
   outer loop
     vertex -2.234464e-01  2.358520e-01  8.686922e-01
     vertex -2.234464e-01  2.254441e-01  8.791001e-01
     vertex -2.243731e-01  2.254441e-01  8.785222e-01
   endloop
 endfacet
 facet normal  4.034371e-01 -6.470079e-01  6.470079e-01
   outer loop
     vertex -2.234464e-01  2.358520e-01  8.686922e-01
     vertex -2.243731e-01  2.352741e-01  8.686922e-01
     vertex -2.243731e-01  2.254441e-01  8.588622e-01
   endloop
 endfacet
 facet normal  4.034371e-01 -6.470079e-01 -6.470079e-01
   outer loop
     vertex -2.234464e-01  2.358520e-01  8.686922e-01
     vertex -2.243731e-01  2.254441e-01  8.785222e-01
     vertex -2.243731e-01  2.352741e-01  8.686922e-01
   endloop
 endfacet
 facet normal  4.034371e-01 -6.470079e-01  6.470079e-01
   outer loop
     vertex -2.234464e-01  2.358520e-01  8.686922e-01
     vertex -2.243731e-01  2.254441e-01  8.588622e-01
     vertex -2.234464e-01  2.254441e-01  8.582844e-01
   endloop
 endfacet
 facet normal  0.000000e+00 -7.071068e-01 -7.071068e-01
   outer loop
     vertex -2.223542e-01  2.358520e-01  8.686922e-01
     vertex -2.223542e-01  2.254441e-01  8.791001e-01
     vertex -2.234464e-01  2.254441e-01  8.791001e-01
   endloop
 endfacet
 facet normal -4.034371e-01 -6.470079e-01 -6.470079e-01
   outer loop
     vertex -2.223542e-01  2.358520e-01  8.686922e-01
     vertex -2.214274e-01  2.254441e-01  8.785222e-01
     vertex -2.223542e-01  2.254441e-01  8.791001e-01
   endloop
 endfacet
 facet normal -4.034371e-01 -6.470079e-01  6.470079e-01
   outer loop
     vertex -2.223542e-01  2.358520e-01  8.686922e-01
     vertex -2.214274e-01  2.254441e-01  8.588622e-01
     vertex -2.214274e-01  2.352741e-01  8.686922e-01
   endloop
 endfacet
 facet normal -4.034371e-01 -6.470079e-01 -6.470079e-01
   outer loop
     vertex -2.223542e-01  2.358520e-01  8.686922e-01
     vertex -2.214274e-01  2.352741e-01  8.686922e-01
     vertex -2.214274e-01  2.254441e-01  8.785222e-01
   endloop
 endfacet
 facet normal -0.000000e+00 -7.071068e-01 -7.071068e-01
   outer loop
     vertex -2.223542e-01  2.358520e-01  8.686922e-01
     vertex -2.234464e-01  2.254441e-01  8.791001e-01
     vertex -2.234464e-01  2.358520e-01  8.686922e-01
   endloop
 endfacet
 facet normal -4.034371e-01 -6.470079e-01  6.470079e-01
   outer loop
     vertex -2.223542e-01  2.358520e-01  8.686922e-01
     vertex -2.223542e-01  2.254441e-01  8.582844e-01
     vertex -2.214274e-01  2.254441e-01  8.588622e-01
   endloop
 endfacet
 facet normal  0.000000e+00 -7.071068e-01  7.071068e-01
   outer loop
     vertex -2.223542e-01  2.358520e-01  8.686922e-01
     vertex -2.234464e-01  2.358520e-01  8.686922e-01
     vertex -2.234464e-01  2.254441e-01  8.582844e-01
   endloop
 endfacet
 facet normal  0.000000e+00 -7.071068e-01  7.071068e-01
   outer loop
     vertex -2.223542e-01  2.358520e-01  8.686922e-01
     vertex -2.234464e-01  2.254441e-01  8.582844e-01
     vertex -2.223542e-01  2.254441e-01  8.582844e-01
   endloop
 endfacet
 facet normal  0.000000e+00  7.071068e-01 -7.071068e-01
   outer loop
     vertex -2.199860e-01  2.156141e-01  8.686922e-01
     vertex -2.214274e-01  2.254441e-01  8.785222e-01
     vertex -2.199860e-01  2.254441e-01  8.785222e-01
   endloop
 endfacet
 facet normal  0.000000e+00  7.071068e-01 -7.071068e-01
   outer loop
     vertex -2.199860e-01  2.156141e-01  8.686922e-01
     vertex -2.214274e-01  2.156141e-01  8.686922e-01
     vertex -2.214274e-01  2.254441e-01  8.785222e-01
   endloop
 endfacet
 facet normal  0.000000e+00  7.071068e-01  7.071068e-01
   outer loop
     vertex -2.199860e-01  2.254441e-01  8.588622e-01
     vertex -2.214274e-01  2.254441e-01  8.588622e-01
     vertex -2.214274e-01  2.156141e-01  8.686922e-01
   endloop
 endfacet
 facet normal  0.000000e+00  7.071068e-01  7.071068e-01
   outer loop
     vertex -2.199860e-01  2.254441e-01  8.588622e-01
     vertex -2.214274e-01  2.156141e-01  8.686922e-01
     vertex -2.199860e-01  2.156141e-01  8.686922e-01
   endloop
 endfacet
 facet normal  0.000000e+00 -7.071068e-01  7.071068e-01
   outer loop
     vertex -2.199860e-01  2.352741e-01  8.686922e-01
     vertex -2.214274e-01  2.352741e-01  8.686922e-01
     vertex -2.214274e-01  2.254441e-01  8.588622e-01
   endloop
 endfacet
 facet normal  0.000000e+00 -7.071068e-01  7.071068e-01
   outer loop
     vertex -2.199860e-01  2.352741e-01  8.686922e-01
     vertex -2.214274e-01  2.254441e-01  8.588622e-01
     vertex -2.199860e-01  2.254441e-01  8.588622e-01
   endloop
 endfacet
 facet normal -0.000000e+00 -7.071068e-01 -7.071068e-01
   outer loop
     vertex -2.199860e-01  2.254441e-01  8.785222e-01
     vertex -2.214274e-01  2.254441e-01  8.785222e-01
     vertex -2.214274e-01  2.352741e-01  8.686922e-01
   endloop
 endfacet
 facet normal  0.000000e+00 -7.071068e-01 -7.071068e-01
   outer loop
     vertex -2.199860e-01  2.254441e-01  8.785222e-01
     vertex -2.214274e-01  2.352741e-01  8.686922e-01
     vertex -2.199860e-01  2.352741e-01  8.686922e-01
   endloop
 endfacet
 facet normal  9.702875e-01  1.710879e-01 -1.710879e-01
   outer loop
     vertex -2.198503e-01  2.148441e-01  8.686922e-01
     vertex -2.199860e-01  2.254441e-01  8.785222e-01
     vertex -2.198503e-01  2.254441e-01  8.792922e-01
   endloop
 endfacet
 facet normal  9.702875e-01  1.710879e-01 -1.710879e-01
   outer loop
     vertex -2.198503e-01  2.148441e-01  8.686922e-01
     vertex -2.199860e-01  2.156141e-01  8.686922e-01
     vertex -2.199860e-01  2.254441e-01  8.785222e-01
   endloop
 endfacet
 facet normal  9.702875e-01  1.710879e-01  1.710879e-01
   outer loop
     vertex -2.198503e-01  2.254441e-01  8.580922e-01
     vertex -2.199860e-01  2.254441e-01  8.588622e-01
     vertex -2.199860e-01  2.156141e-01  8.686922e-01
   endloop
 endfacet
 facet normal  9.702875e-01  1.710879e-01  1.710879e-01
   outer loop
     vertex -2.198503e-01  2.254441e-01  8.580922e-01
     vertex -2.199860e-01  2.156141e-01  8.686922e-01
     vertex -2.198503e-01  2.148441e-01  8.686922e-01
   endloop
 endfacet
 facet normal  9.702875e-01 -1.710879e-01  1.710879e-01
   outer loop
     vertex -2.198503e-01  2.360441e-01  8.686922e-01
     vertex -2.199860e-01  2.352741e-01  8.686922e-01
     vertex -2.199860e-01  2.254441e-01  8.588622e-01
   endloop
 endfacet
 facet normal  9.702875e-01 -1.710879e-01  1.710879e-01
   outer loop
     vertex -2.198503e-01  2.360441e-01  8.686922e-01
     vertex -2.199860e-01  2.254441e-01  8.588622e-01
     vertex -2.198503e-01  2.254441e-01  8.580922e-01
   endloop
 endfacet
 facet normal  9.702875e-01 -1.710879e-01 -1.710879e-01
   outer loop
     vertex -2.198503e-01  2.254441e-01  8.792922e-01
     vertex -2.199860e-01  2.254441e-01  8.785222e-01
     vertex -2.199860e-01  2.352741e-01  8.686922e-01
   endloop
 endfacet
 facet normal  9.702875e-01 -1.710879e-01 -1.710879e-01
   outer loop
     vertex -2.198503e-01  2.254441e-01  8.792922e-01
     vertex -2.199860e-01  2.352741e-01  8.686922e-01
     vertex -2.198503e-01  2.360441e-01  8.686922e-01
   endloop
 endfacet
 facet normal  7.745967e-01  4.472136e-01 -4.472136e-01
   outer loop
     vertex -2.197603e-01  2.146883e-01  8.686922e-01
     vertex -2.198503e-01  2.254441e-01  8.792922e-01
     vertex -2.197603e-01  2.254441e-01  8.794481e-01
   endloop
 endfacet
 facet normal  7.745967e-01  4.472136e-01 -4.472136e-01
   outer loop
     vertex -2.197603e-01  2.146883e-01  8.686922e-01
     vertex -2.198503e-01  2.148441e-01  8.686922e-01
     vertex -2.198503e-01  2.254441e-01  8.792922e-01
   endloop
 endfacet
 facet normal -7.745967e-01  4.472136e-01 -4.472136e-01
   outer loop
     vertex -2.195803e-01  2.146883e-01  8.686922e-01
     vertex -2.194903e-01  2.254441e-01  8.792922e-01
     vertex -2.194903e-01  2.148441e-01  8.686922e-01
   endloop
 endfacet
 facet normal  0.000000e+00  7.071068e-01 -7.071068e-01
   outer loop
     vertex -2.195803e-01  2.146883e-01  8.686922e-01
     vertex -2.197603e-01  2.254441e-01  8.794481e-01
     vertex -2.195803e-01  2.254441e-01  8.794481e-01
   endloop
 endfacet
 facet normal -7.745967e-01  4.472136e-01 -4.472136e-01
   outer loop
     vertex -2.195803e-01  2.146883e-01  8.686922e-01
     vertex -2.195803e-01  2.254441e-01  8.794481e-01
     vertex -2.194903e-01  2.254441e-01  8.792922e-01
   endloop
 endfacet
 facet normal  0.000000e+00  7.071068e-01 -7.071068e-01
   outer loop
     vertex -2.195803e-01  2.146883e-01  8.686922e-01
     vertex -2.197603e-01  2.146883e-01  8.686922e-01
     vertex -2.197603e-01  2.254441e-01  8.794481e-01
   endloop
 endfacet
 facet normal  7.745967e-01  4.472136e-01  4.472136e-01
   outer loop
     vertex -2.197603e-01  2.254441e-01  8.579364e-01
     vertex -2.198503e-01  2.254441e-01  8.580922e-01
     vertex -2.198503e-01  2.148441e-01  8.686922e-01
   endloop
 endfacet
 facet normal  7.745967e-01  4.472136e-01  4.472136e-01
   outer loop
     vertex -2.197603e-01  2.254441e-01  8.579364e-01
     vertex -2.198503e-01  2.148441e-01  8.686922e-01
     vertex -2.197603e-01  2.146883e-01  8.686922e-01
   endloop
 endfacet
 facet normal -7.745967e-01  4.472136e-01  4.472136e-01
   outer loop
     vertex -2.195803e-01  2.254441e-01  8.579364e-01
     vertex -2.194903e-01  2.148441e-01  8.686922e-01
     vertex -2.194903e-01  2.254441e-01  8.580922e-01
   endloop
 endfacet
 facet normal  0.000000e+00  7.071068e-01  7.071068e-01
   outer loop
     vertex -2.195803e-01  2.254441e-01  8.579364e-01
     vertex -2.197603e-01  2.146883e-01  8.686922e-01
     vertex -2.195803e-01  2.146883e-01  8.686922e-01
   endloop
 endfacet
 facet normal -7.745967e-01  4.472136e-01  4.472136e-01
   outer loop
     vertex -2.195803e-01  2.254441e-01  8.579364e-01
     vertex -2.195803e-01  2.146883e-01  8.686922e-01
     vertex -2.194903e-01  2.148441e-01  8.686922e-01
   endloop
 endfacet
 facet normal  0.000000e+00  7.071068e-01  7.071068e-01
   outer loop
     vertex -2.195803e-01  2.254441e-01  8.579364e-01
     vertex -2.197603e-01  2.254441e-01  8.579364e-01
     vertex -2.197603e-01  2.146883e-01  8.686922e-01
   endloop
 endfacet
 facet normal  7.745967e-01 -4.472136e-01 -4.472136e-01
   outer loop
     vertex -2.197603e-01  2.362000e-01  8.686922e-01
     vertex -2.197603e-01  2.254441e-01  8.794481e-01
     vertex -2.198503e-01  2.254441e-01  8.792922e-01
   endloop
 endfacet
 facet normal  7.745967e-01 -4.472136e-01  4.472136e-01
   outer loop
     vertex -2.197603e-01  2.362000e-01  8.686922e-01
     vertex -2.198503e-01  2.360441e-01  8.686922e-01
     vertex -2.198503e-01  2.254441e-01  8.580922e-01
   endloop
 endfacet
 facet normal  7.745967e-01 -4.472136e-01 -4.472136e-01
   outer loop
     vertex -2.197603e-01  2.362000e-01  8.686922e-01
     vertex -2.198503e-01  2.254441e-01  8.792922e-01
     vertex -2.198503e-01  2.360441e-01  8.686922e-01
   endloop
 endfacet
 facet normal  7.745967e-01 -4.472136e-01  4.472136e-01
   outer loop
     vertex -2.197603e-01  2.362000e-01  8.686922e-01
     vertex -2.198503e-01  2.254441e-01  8.580922e-01
     vertex -2.197603e-01  2.254441e-01  8.579364e-01
   endloop
 endfacet
 facet normal  0.000000e+00 -7.071068e-01 -7.071068e-01
   outer loop
     vertex -2.195803e-01  2.362000e-01  8.686922e-01
     vertex -2.195803e-01  2.254441e-01  8.794481e-01
     vertex -2.197603e-01  2.254441e-01  8.794481e-01
   endloop
 endfacet
 facet normal -7.745967e-01 -4.472136e-01 -4.472136e-01
   outer loop
     vertex -2.195803e-01  2.362000e-01  8.686922e-01
     vertex -2.194903e-01  2.254441e-01  8.792922e-01
     vertex -2.195803e-01  2.254441e-01  8.794481e-01
   endloop
 endfacet
 facet normal -7.745967e-01 -4.472136e-01  4.472136e-01
   outer loop
     vertex -2.195803e-01  2.362000e-01  8.686922e-01
     vertex -2.194903e-01  2.254441e-01  8.580922e-01
     vertex -2.194903e-01  2.360441e-01  8.686922e-01
   endloop
 endfacet
 facet normal -7.745967e-01 -4.472136e-01 -4.472136e-01
   outer loop
     vertex -2.195803e-01  2.362000e-01  8.686922e-01
     vertex -2.194903e-01  2.360441e-01  8.686922e-01
     vertex -2.194903e-01  2.254441e-01  8.792922e-01
   endloop
 endfacet
 facet normal -0.000000e+00 -7.071068e-01 -7.071068e-01
   outer loop
     vertex -2.195803e-01  2.362000e-01  8.686922e-01
     vertex -2.197603e-01  2.254441e-01  8.794481e-01
     vertex -2.197603e-01  2.362000e-01  8.686922e-01
   endloop
 endfacet
 facet normal -7.745967e-01 -4.472136e-01  4.472136e-01
   outer loop
     vertex -2.195803e-01  2.362000e-01  8.686922e-01
     vertex -2.195803e-01  2.254441e-01  8.579364e-01
     vertex -2.194903e-01  2.254441e-01  8.580922e-01
   endloop
 endfacet
 facet normal  0.000000e+00 -7.071068e-01  7.071068e-01
   outer loop
     vertex -2.195803e-01  2.362000e-01  8.686922e-01
     vertex -2.197603e-01  2.362000e-01  8.686922e-01
     vertex -2.197603e-01  2.254441e-01  8.579364e-01
   endloop
 endfacet
 facet normal  0.000000e+00 -7.071068e-01  7.071068e-01
   outer loop
     vertex -2.195803e-01  2.362000e-01  8.686922e-01
     vertex -2.197603e-01  2.254441e-01  8.579364e-01
     vertex -2.195803e-01  2.254441e-01  8.579364e-01
   endloop
 endfacet
 facet normal  0.000000e+00  7.071068e-01 -7.071068e-01
   outer loop
     vertex -2.194003e-01  2.148441e-01  8.686922e-01
     vertex -2.194903e-01  2.254441e-01  8.792922e-01
     vertex -2.194003e-01  2.254441e-01  8.792922e-01
   endloop
 endfacet
 facet normal  0.000000e+00  7.071068e-01 -7.071068e-01
   outer loop
     vertex -2.194003e-01  2.148441e-01  8.686922e-01
     vertex -2.194903e-01  2.148441e-01  8.686922e-01
     vertex -2.194903e-01  2.254441e-01  8.792922e-01
   endloop
 endfacet
 facet normal  0.000000e+00  7.071068e-01  7.071068e-01
   outer loop
     vertex -2.194003e-01  2.254441e-01  8.580922e-01
     vertex -2.194903e-01  2.254441e-01  8.580922e-01
     vertex -2.194903e-01  2.148441e-01  8.686922e-01
   endloop
 endfacet
 facet normal  0.000000e+00  7.071068e-01  7.071068e-01
   outer loop
     vertex -2.194003e-01  2.254441e-01  8.580922e-01
     vertex -2.194903e-01  2.148441e-01  8.686922e-01
     vertex -2.194003e-01  2.148441e-01  8.686922e-01
   endloop
 endfacet
 facet normal  0.000000e+00 -7.071068e-01  7.071068e-01
   outer loop
     vertex -2.194003e-01  2.360441e-01  8.686922e-01
     vertex -2.194903e-01  2.360441e-01  8.686922e-01
     vertex -2.194903e-01  2.254441e-01  8.580922e-01
   endloop
 endfacet
 facet normal  0.000000e+00 -7.071068e-01  7.071068e-01
   outer loop
     vertex -2.194003e-01  2.360441e-01  8.686922e-01
     vertex -2.194903e-01  2.254441e-01  8.580922e-01
     vertex -2.194003e-01  2.254441e-01  8.580922e-01
   endloop
 endfacet
 facet normal -0.000000e+00 -7.071068e-01 -7.071068e-01
   outer loop
     vertex -2.194003e-01  2.254441e-01  8.792922e-01
     vertex -2.194903e-01  2.254441e-01  8.792922e-01
     vertex -2.194903e-01  2.360441e-01  8.686922e-01
   endloop
 endfacet
 facet normal  0.000000e+00 -7.071068e-01 -7.071068e-01
   outer loop
     vertex -2.194003e-01  2.254441e-01  8.792922e-01
     vertex -2.194903e-01  2.360441e-01  8.686922e-01
     vertex -2.194003e-01  2.360441e-01  8.686922e-01
   endloop
 endfacet
 facet normal  1.000000e+00  2.429206e-12 -0.000000e+00
   outer loop
     vertex -2.194003e-01  2.254441e-01  8.792922e-01
     vertex -2.194003e-01  2.254441e-01  8.803922e-01
     vertex -2.194003e-01  2.137441e-01  8.686922e-01
   endloop
 endfacet
 facet normal  1.000000e+00  0.000000e+00  2.681293e-12
   outer loop
     vertex -2.194003e-01  2.254441e-01  8.792922e-01
     vertex -2.194003e-01  2.137441e-01  8.686922e-01
     vertex -2.194003e-01  2.148441e-01  8.686922e-01
   endloop
 endfacet
 facet normal  1.000000e+00  0.000000e+00  2.681293e-12
   outer loop
     vertex -2.194003e-01  2.371441e-01  8.686922e-01
     vertex -2.194003e-01  2.254441e-01  8.792922e-01
     vertex -2.194003e-01  2.360441e-01  8.686922e-01
   endloop
 endfacet
 facet normal  1.000000e+00 -2.429206e-12  0.000000e+00
   outer loop
     vertex -2.194003e-01  2.371441e-01  8.686922e-01
     vertex -2.194003e-01  2.254441e-01  8.803922e-01
     vertex -2.194003e-01  2.254441e-01  8.792922e-01
   endloop
 endfacet
 facet normal  1.000000e+00  0.000000e+00 -0.000000e+00
   outer loop
     vertex -2.194003e-01  2.254441e-01  8.569922e-01
     vertex -2.194003e-01  2.254441e-01  8.580922e-01
     vertex -2.194003e-01  2.148441e-01  8.686922e-01
   endloop
 endfacet
 facet normal  1.000000e+00  0.000000e+00  0.000000e+00
   outer loop
     vertex -2.194003e-01  2.254441e-01  8.569922e-01
     vertex -2.194003e-01  2.360441e-01  8.686922e-01
     vertex -2.194003e-01  2.254441e-01  8.580922e-01
   endloop
 endfacet
 facet normal  1.000000e+00  0.000000e+00  0.000000e+00
   outer loop
     vertex -2.194003e-01  2.254441e-01  8.569922e-01
     vertex -2.194003e-01  2.148441e-01  8.686922e-01
     vertex -2.194003e-01  2.137441e-01  8.686922e-01
   endloop
 endfacet
 facet normal  1.000000e+00  0.000000e+00  0.000000e+00
   outer loop
     vertex -2.194003e-01  2.254441e-01  8.569922e-01
     vertex -2.194003e-01  2.371441e-01  8.686922e-01
     vertex -2.194003e-01  2.360441e-01  8.686922e-01
   endloop
 endfacet
 facet normal  1.861568e-01 -6.947466e-01  6.947466e-01
   outer loop
     vertex -2.195503e-01  2.134843e-01  8.686922e-01
     vertex -2.195503e-01  2.254441e-01  8.806520e-01
     vertex -2.197003e-01  2.254441e-01  8.806922e-01
   endloop
 endfacet
 facet normal  1.861568e-01 -6.947466e-01  6.947466e-01
   outer loop
     vertex -2.195503e-01  2.134843e-01  8.686922e-01
     vertex -2.197003e-01  2.254441e-01  8.806922e-01
     vertex -2.197003e-01  2.134441e-01  8.686922e-01
   endloop
 endfacet
 facet normal  9.351131e-01 -2.505628e-01  2.505628e-01
   outer loop
     vertex -2.194405e-01  2.135941e-01  8.686922e-01
     vertex -2.194003e-01  2.137441e-01  8.686922e-01
     vertex -2.194003e-01  2.254441e-01  8.803922e-01
   endloop
 endfacet
 facet normal  9.351131e-01 -2.505628e-01  2.505628e-01
   outer loop
     vertex -2.194405e-01  2.135941e-01  8.686922e-01
     vertex -2.194003e-01  2.254441e-01  8.803922e-01
     vertex -2.194405e-01  2.254441e-01  8.805422e-01
   endloop
 endfacet
 facet normal  5.773503e-01 -5.773503e-01  5.773503e-01
   outer loop
     vertex -2.194405e-01  2.135941e-01  8.686922e-01
     vertex -2.194405e-01  2.254441e-01  8.805422e-01
     vertex -2.195503e-01  2.254441e-01  8.806520e-01
   endloop
 endfacet
 facet normal  5.773503e-01 -5.773503e-01  5.773503e-01
   outer loop
     vertex -2.194405e-01  2.135941e-01  8.686922e-01
     vertex -2.195503e-01  2.254441e-01  8.806520e-01
     vertex -2.195503e-01  2.134843e-01  8.686922e-01
   endloop
 endfacet
 facet normal  1.861568e-01 -6.947466e-01 -6.947466e-01
   outer loop
     vertex -2.195503e-01  2.254441e-01  8.567324e-01
     vertex -2.197003e-01  2.134441e-01  8.686922e-01
     vertex -2.197003e-01  2.254441e-01  8.566922e-01
   endloop
 endfacet
 facet normal  1.861568e-01 -6.947466e-01 -6.947466e-01
   outer loop
     vertex -2.195503e-01  2.254441e-01  8.567324e-01
     vertex -2.195503e-01  2.134843e-01  8.686922e-01
     vertex -2.197003e-01  2.134441e-01  8.686922e-01
   endloop
 endfacet
 facet normal  9.351131e-01 -2.505628e-01 -2.505628e-01
   outer loop
     vertex -2.194405e-01  2.254441e-01  8.568422e-01
     vertex -2.194003e-01  2.254441e-01  8.569922e-01
     vertex -2.194003e-01  2.137441e-01  8.686922e-01
   endloop
 endfacet
 facet normal  5.773503e-01 -5.773503e-01 -5.773503e-01
   outer loop
     vertex -2.194405e-01  2.254441e-01  8.568422e-01
     vertex -2.194405e-01  2.135941e-01  8.686922e-01
     vertex -2.195503e-01  2.134843e-01  8.686922e-01
   endloop
 endfacet
 facet normal  5.773503e-01 -5.773503e-01 -5.773503e-01
   outer loop
     vertex -2.194405e-01  2.254441e-01  8.568422e-01
     vertex -2.195503e-01  2.134843e-01  8.686922e-01
     vertex -2.195503e-01  2.254441e-01  8.567324e-01
   endloop
 endfacet
 facet normal  9.351131e-01 -2.505628e-01 -2.505628e-01
   outer loop
     vertex -2.194405e-01  2.254441e-01  8.568422e-01
     vertex -2.194003e-01  2.137441e-01  8.686922e-01
     vertex -2.194405e-01  2.135941e-01  8.686922e-01
   endloop
 endfacet
 facet normal  1.861568e-01  6.947466e-01 -6.947466e-01
   outer loop
     vertex -2.195503e-01  2.374040e-01  8.686922e-01
     vertex -2.197003e-01  2.254441e-01  8.566922e-01
     vertex -2.197003e-01  2.374441e-01  8.686922e-01
   endloop
 endfacet
 facet normal  1.861568e-01  6.947466e-01  6.947466e-01
   outer loop
     vertex -2.195503e-01  2.374040e-01  8.686922e-01
     vertex -2.197003e-01  2.374441e-01  8.686922e-01
     vertex -2.197003e-01  2.254441e-01  8.806922e-01
   endloop
 endfacet
 facet normal  1.861568e-01  6.947466e-01  6.947466e-01
   outer loop
     vertex -2.195503e-01  2.374040e-01  8.686922e-01
     vertex -2.197003e-01  2.254441e-01  8.806922e-01
     vertex -2.195503e-01  2.254441e-01  8.806520e-01
   endloop
 endfacet
 facet normal  1.861568e-01  6.947466e-01 -6.947466e-01
   outer loop
     vertex -2.195503e-01  2.374040e-01  8.686922e-01
     vertex -2.195503e-01  2.254441e-01  8.567324e-01
     vertex -2.197003e-01  2.254441e-01  8.566922e-01
   endloop
 endfacet
 facet normal  9.351131e-01  2.505628e-01 -2.505628e-01
   outer loop
     vertex -2.194405e-01  2.372941e-01  8.686922e-01
     vertex -2.194003e-01  2.371441e-01  8.686922e-01
     vertex -2.194003e-01  2.254441e-01  8.569922e-01
   endloop
 endfacet
 facet normal  9.351131e-01  2.505628e-01  2.505628e-01
   outer loop
     vertex -2.194405e-01  2.372941e-01  8.686922e-01
     vertex -2.194003e-01  2.254441e-01  8.803922e-01
     vertex -2.194003e-01  2.371441e-01  8.686922e-01
   endloop
 endfacet
 facet normal  9.351131e-01  2.505628e-01  2.505628e-01
   outer loop
     vertex -2.194405e-01  2.372941e-01  8.686922e-01
     vertex -2.194405e-01  2.254441e-01  8.805422e-01
     vertex -2.194003e-01  2.254441e-01  8.803922e-01
   endloop
 endfacet
 facet normal  5.773503e-01  5.773503e-01  5.773503e-01
   outer loop
     vertex -2.194405e-01  2.372941e-01  8.686922e-01
     vertex -2.195503e-01  2.254441e-01  8.806520e-01
     vertex -2.194405e-01  2.254441e-01  8.805422e-01
   endloop
 endfacet
 facet normal  5.773503e-01  5.773503e-01 -5.773503e-01
   outer loop
     vertex -2.194405e-01  2.372941e-01  8.686922e-01
     vertex -2.194405e-01  2.254441e-01  8.568422e-01
     vertex -2.195503e-01  2.254441e-01  8.567324e-01
   endloop
 endfacet
 facet normal  9.351131e-01  2.505628e-01 -2.505628e-01
   outer loop
     vertex -2.194405e-01  2.372941e-01  8.686922e-01
     vertex -2.194003e-01  2.254441e-01  8.569922e-01
     vertex -2.194405e-01  2.254441e-01  8.568422e-01
   endloop
 endfacet
 facet normal  5.773503e-01  5.773503e-01  5.773503e-01
   outer loop
     vertex -2.194405e-01  2.372941e-01  8.686922e-01
     vertex -2.195503e-01  2.374040e-01  8.686922e-01
     vertex -2.195503e-01  2.254441e-01  8.806520e-01
   endloop
 endfacet
 facet normal  5.773503e-01  5.773503e-01 -5.773503e-01
   outer loop
     vertex -2.194405e-01  2.372941e-01  8.686922e-01
     vertex -2.195503e-01  2.254441e-01  8.567324e-01
     vertex -2.195503e-01  2.374040e-01  8.686922e-01
   endloop
 endfacet
 facet normal  0.000000e+00 -7.071068e-01  7.071068e-01
   outer loop
     vertex -2.197003e-01  2.134441e-01  8.686922e-01
     vertex -2.197003e-01  2.254441e-01  8.806922e-01
     vertex -2.261003e-01  2.254441e-01  8.806922e-01
   endloop
 endfacet
 facet normal  0.000000e+00 -7.071068e-01  7.071068e-01
   outer loop
     vertex -2.197003e-01  2.134441e-01  8.686922e-01
     vertex -2.261003e-01  2.254441e-01  8.806922e-01
     vertex -2.261003e-01  2.134441e-01  8.686922e-01
   endloop
 endfacet
 facet normal -0.000000e+00 -7.071068e-01 -7.071068e-01
   outer loop
     vertex -2.197003e-01  2.254441e-01  8.566922e-01
     vertex -2.261003e-01  2.134441e-01  8.686922e-01
     vertex -2.261003e-01  2.254441e-01  8.566922e-01
   endloop
 endfacet
 facet normal  0.000000e+00 -7.071068e-01 -7.071068e-01
   outer loop
     vertex -2.197003e-01  2.254441e-01  8.566922e-01
     vertex -2.197003e-01  2.134441e-01  8.686922e-01
     vertex -2.261003e-01  2.134441e-01  8.686922e-01
   endloop
 endfacet
 facet normal  0.000000e+00  7.071068e-01 -7.071068e-01
   outer loop
     vertex -2.197003e-01  2.374441e-01  8.686922e-01
     vertex -2.261003e-01  2.254441e-01  8.566922e-01
     vertex -2.261003e-01  2.374441e-01  8.686922e-01
   endloop
 endfacet
 facet normal  0.000000e+00  7.071068e-01 -7.071068e-01
   outer loop
     vertex -2.197003e-01  2.374441e-01  8.686922e-01
     vertex -2.197003e-01  2.254441e-01  8.566922e-01
     vertex -2.261003e-01  2.254441e-01  8.566922e-01
   endloop
 endfacet
 facet normal  0.000000e+00  7.071068e-01  7.071068e-01
   outer loop
     vertex -2.197003e-01  2.254441e-01  8.806922e-01
     vertex -2.261003e-01  2.374441e-01  8.686922e-01
     vertex -2.261003e-01  2.254441e-01  8.806922e-01
   endloop
 endfacet
 facet normal  0.000000e+00  7.071068e-01  7.071068e-01
   outer loop
     vertex -2.197003e-01  2.254441e-01  8.806922e-01
     vertex -2.197003e-01  2.374441e-01  8.686922e-01
     vertex -2.261003e-01  2.374441e-01  8.686922e-01
   endloop
 endfacet
 facet normal -9.351131e-01 -2.505628e-01  2.505628e-01
   outer loop
     vertex -2.263601e-01  2.135941e-01  8.686922e-01
     vertex -2.263601e-01  2.254441e-01  8.805422e-01
     vertex -2.264003e-01  2.254441e-01  8.803922e-01
   endloop
 endfacet
 facet normal -9.351131e-01 -2.505628e-01  2.505628e-01
   outer loop
     vertex -2.263601e-01  2.135941e-01  8.686922e-01
     vertex -2.264003e-01  2.254441e-01  8.803922e-01
     vertex -2.264003e-01  2.137441e-01  8.686922e-01
   endloop
 endfacet
 facet normal -1.861568e-01 -6.947466e-01  6.947466e-01
   outer loop
     vertex -2.262503e-01  2.134843e-01  8.686922e-01
     vertex -2.261003e-01  2.134441e-01  8.686922e-01
     vertex -2.261003e-01  2.254441e-01  8.806922e-01
   endloop
 endfacet
 facet normal -1.861568e-01 -6.947466e-01  6.947466e-01
   outer loop
     vertex -2.262503e-01  2.134843e-01  8.686922e-01
     vertex -2.261003e-01  2.254441e-01  8.806922e-01
     vertex -2.262503e-01  2.254441e-01  8.806520e-01
   endloop
 endfacet
 facet normal -5.773503e-01 -5.773503e-01  5.773503e-01
   outer loop
     vertex -2.262503e-01  2.134843e-01  8.686922e-01
     vertex -2.262503e-01  2.254441e-01  8.806520e-01
     vertex -2.263601e-01  2.254441e-01  8.805422e-01
   endloop
 endfacet
 facet normal -5.773503e-01 -5.773503e-01  5.773503e-01
   outer loop
     vertex -2.262503e-01  2.134843e-01  8.686922e-01
     vertex -2.263601e-01  2.254441e-01  8.805422e-01
     vertex -2.263601e-01  2.135941e-01  8.686922e-01
   endloop
 endfacet
 facet normal -9.351131e-01 -2.505628e-01 -2.505628e-01
   outer loop
     vertex -2.263601e-01  2.254441e-01  8.568422e-01
     vertex -2.264003e-01  2.137441e-01  8.686922e-01
     vertex -2.264003e-01  2.254441e-01  8.569922e-01
   endloop
 endfacet
 facet normal -9.351131e-01 -2.505628e-01 -2.505628e-01
   outer loop
     vertex -2.263601e-01  2.254441e-01  8.568422e-01
     vertex -2.263601e-01  2.135941e-01  8.686922e-01
     vertex -2.264003e-01  2.137441e-01  8.686922e-01
   endloop
 endfacet
 facet normal -1.861568e-01 -6.947466e-01 -6.947466e-01
   outer loop
     vertex -2.262503e-01  2.254441e-01  8.567324e-01
     vertex -2.261003e-01  2.254441e-01  8.566922e-01
     vertex -2.261003e-01  2.134441e-01  8.686922e-01
   endloop
 endfacet
 facet normal -5.773503e-01 -5.773503e-01 -5.773503e-01
   outer loop
     vertex -2.262503e-01  2.254441e-01  8.567324e-01
     vertex -2.262503e-01  2.134843e-01  8.686922e-01
     vertex -2.263601e-01  2.135941e-01  8.686922e-01
   endloop
 endfacet
 facet normal -5.773503e-01 -5.773503e-01 -5.773503e-01
   outer loop
     vertex -2.262503e-01  2.254441e-01  8.567324e-01
     vertex -2.263601e-01  2.135941e-01  8.686922e-01
     vertex -2.263601e-01  2.254441e-01  8.568422e-01
   endloop
 endfacet
 facet normal -1.861568e-01 -6.947466e-01 -6.947466e-01
   outer loop
     vertex -2.262503e-01  2.254441e-01  8.567324e-01
     vertex -2.261003e-01  2.134441e-01  8.686922e-01
     vertex -2.262503e-01  2.134843e-01  8.686922e-01
   endloop
 endfacet
 facet normal -9.351131e-01  2.505628e-01 -2.505628e-01
   outer loop
     vertex -2.263601e-01  2.372941e-01  8.686922e-01
     vertex -2.264003e-01  2.254441e-01  8.569922e-01
     vertex -2.264003e-01  2.371441e-01  8.686922e-01
   endloop
 endfacet
 facet normal -9.351131e-01  2.505628e-01  2.505628e-01
   outer loop
     vertex -2.263601e-01  2.372941e-01  8.686922e-01
     vertex -2.264003e-01  2.371441e-01  8.686922e-01
     vertex -2.264003e-01  2.254441e-01  8.803922e-01
   endloop
 endfacet
 facet normal -9.351131e-01  2.505628e-01  2.505628e-01
   outer loop
     vertex -2.263601e-01  2.372941e-01  8.686922e-01
     vertex -2.264003e-01  2.254441e-01  8.803922e-01
     vertex -2.263601e-01  2.254441e-01  8.805422e-01
   endloop
 endfacet
 facet normal -9.351131e-01  2.505628e-01 -2.505628e-01
   outer loop
     vertex -2.263601e-01  2.372941e-01  8.686922e-01
     vertex -2.263601e-01  2.254441e-01  8.568422e-01
     vertex -2.264003e-01  2.254441e-01  8.569922e-01
   endloop
 endfacet
 facet normal -1.861568e-01  6.947466e-01 -6.947466e-01
   outer loop
     vertex -2.262503e-01  2.374040e-01  8.686922e-01
     vertex -2.261003e-01  2.374441e-01  8.686922e-01
     vertex -2.261003e-01  2.254441e-01  8.566922e-01
   endloop
 endfacet
 facet normal -1.861568e-01  6.947466e-01  6.947466e-01
   outer loop
     vertex -2.262503e-01  2.374040e-01  8.686922e-01
     vertex -2.261003e-01  2.254441e-01  8.806922e-01
     vertex -2.261003e-01  2.374441e-01  8.686922e-01
   endloop
 endfacet
 facet normal -1.861568e-01  6.947466e-01  6.947466e-01
   outer loop
     vertex -2.262503e-01  2.374040e-01  8.686922e-01
     vertex -2.262503e-01  2.254441e-01  8.806520e-01
     vertex -2.261003e-01  2.254441e-01  8.806922e-01
   endloop
 endfacet
 facet normal -5.773503e-01  5.773503e-01  5.773503e-01
   outer loop
     vertex -2.262503e-01  2.374040e-01  8.686922e-01
     vertex -2.263601e-01  2.254441e-01  8.805422e-01
     vertex -2.262503e-01  2.254441e-01  8.806520e-01
   endloop
 endfacet
 facet normal -5.773503e-01  5.773503e-01 -5.773503e-01
   outer loop
     vertex -2.262503e-01  2.374040e-01  8.686922e-01
     vertex -2.262503e-01  2.254441e-01  8.567324e-01
     vertex -2.263601e-01  2.254441e-01  8.568422e-01
   endloop
 endfacet
 facet normal -1.861568e-01  6.947466e-01 -6.947466e-01
   outer loop
     vertex -2.262503e-01  2.374040e-01  8.686922e-01
     vertex -2.261003e-01  2.254441e-01  8.566922e-01
     vertex -2.262503e-01  2.254441e-01  8.567324e-01
   endloop
 endfacet
 facet normal -5.773503e-01  5.773503e-01  5.773503e-01
   outer loop
     vertex -2.262503e-01  2.374040e-01  8.686922e-01
     vertex -2.263601e-01  2.372941e-01  8.686922e-01
     vertex -2.263601e-01  2.254441e-01  8.805422e-01
   endloop
 endfacet
 facet normal -5.773503e-01  5.773503e-01 -5.773503e-01
   outer loop
     vertex -2.262503e-01  2.374040e-01  8.686922e-01
     vertex -2.263601e-01  2.254441e-01  8.568422e-01
     vertex -2.263601e-01  2.372941e-01  8.686922e-01
   endloop
 endfacet
 facet normal -1.000000e+00  0.000000e+00  0.000000e+00
   outer loop
     vertex -2.264003e-01  2.148441e-01  8.686922e-01
     vertex -2.264003e-01  2.137441e-01  8.686922e-01
     vertex -2.264003e-01  2.254441e-01  8.803922e-01
   endloop
 endfacet
 facet normal -1.000000e+00  0.000000e+00  0.000000e+00
   outer loop
     vertex -2.264003e-01  2.148441e-01  8.686922e-01
     vertex -2.264003e-01  2.254441e-01  8.803922e-01
     vertex -2.264003e-01  2.254441e-01  8.792922e-01
   endloop
 endfacet
 facet normal -1.000000e+00  0.000000e+00  0.000000e+00
   outer loop
     vertex -2.264003e-01  2.371441e-01  8.686922e-01
     vertex -2.264003e-01  2.360441e-01  8.686922e-01
     vertex -2.264003e-01  2.254441e-01  8.792922e-01
   endloop
 endfacet
 facet normal -1.000000e+00  0.000000e+00  0.000000e+00
   outer loop
     vertex -2.264003e-01  2.371441e-01  8.686922e-01
     vertex -2.264003e-01  2.254441e-01  8.792922e-01
     vertex -2.264003e-01  2.254441e-01  8.803922e-01
   endloop
 endfacet
 facet normal -1.000000e+00  0.000000e+00  0.000000e+00
   outer loop
     vertex -2.264003e-01  2.254441e-01  8.569922e-01
     vertex -2.264003e-01  2.254441e-01  8.580922e-01
     vertex -2.264003e-01  2.360441e-01  8.686922e-01
   endloop
 endfacet
 facet normal -1.000000e+00  0.000000e+00  0.000000e+00
   outer loop
     vertex -2.264003e-01  2.254441e-01  8.569922e-01
     vertex -2.264003e-01  2.148441e-01  8.686922e-01
     vertex -2.264003e-01  2.254441e-01  8.580922e-01
   endloop
 endfacet
 facet normal -1.000000e+00  0.000000e+00  0.000000e+00
   outer loop
     vertex -2.264003e-01  2.254441e-01  8.569922e-01
     vertex -2.264003e-01  2.137441e-01  8.686922e-01
     vertex -2.264003e-01  2.148441e-01  8.686922e-01
   endloop
 endfacet
 facet normal -1.000000e+00  0.000000e+00  0.000000e+00
   outer loop
     vertex -2.264003e-01  2.254441e-01  8.569922e-01
     vertex -2.264003e-01  2.360441e-01  8.686922e-01
     vertex -2.264003e-01  2.371441e-01  8.686922e-01
   endloop
 endfacet
endsolid
