solid 
 facet normal  0.000000e+00  0.000000e+00  1.000000e+00
   outer loop
     vertex  1.822047e-01 -1.747222e-01  5.928222e-01
     vertex  1.822047e-01 -1.827222e-01  5.928222e-01
     vertex  1.837047e-01 -1.827222e-01  5.928222e-01
   endloop
 endfacet
 facet normal -0.000000e+00  0.000000e+00  1.000000e+00
   outer loop
     vertex  1.822047e-01 -1.747222e-01  5.928222e-01
     vertex  1.837047e-01 -1.827222e-01  5.928222e-01
     vertex  1.837047e-01 -1.747222e-01  5.928222e-01
   endloop
 endfacet
 facet normal  0.000000e+00 -1.000000e+00  0.000000e+00
   outer loop
     vertex  1.822047e-01 -1.827222e-01  5.928222e-01
     vertex  1.822047e-01 -1.827222e-01  5.758222e-01
     vertex  1.837047e-01 -1.827222e-01  5.758222e-01
   endloop
 endfacet
 facet normal  0.000000e+00 -1.000000e+00  0.000000e+00
   outer loop
     vertex  1.822047e-01 -1.827222e-01  5.928222e-01
     vertex  1.837047e-01 -1.827222e-01  5.758222e-01
     vertex  1.837047e-01 -1.827222e-01  5.928222e-01
   endloop
 endfacet
 facet normal  1.000000e+00  0.000000e+00  0.000000e+00
   outer loop
     vertex  1.837047e-01 -1.827222e-01  5.928222e-01
     vertex  1.837047e-01 -1.827222e-01  5.758222e-01
     vertex  1.837047e-01 -1.747222e-01  5.758222e-01
   endloop
 endfacet
 facet normal  1.000000e+00 -0.000000e+00  0.000000e+00
   outer loop
     vertex  1.837047e-01 -1.827222e-01  5.928222e-01
     vertex  1.837047e-01 -1.747222e-01  5.758222e-01
     vertex  1.837047e-01 -1.747222e-01  5.928222e-01
   endloop
 endfacet
 facet normal  0.000000e+00  1.000000e+00  0.000000e+00
   outer loop
     vertex  1.822047e-01 -1.747222e-01  5.758222e-01
     vertex  1.822047e-01 -1.747222e-01  5.928222e-01
     vertex  1.837047e-01 -1.747222e-01  5.928222e-01
   endloop
 endfacet
 facet normal  0.000000e+00  1.000000e+00  0.000000e+00
   outer loop
     vertex  1.822047e-01 -1.747222e-01  5.758222e-01
     vertex  1.837047e-01 -1.747222e-01  5.928222e-01
     vertex  1.837047e-01 -1.747222e-01  5.758222e-01
   endloop
 endfacet
 facet normal -1.000000e+00  0.000000e+00  0.000000e+00
   outer loop
     vertex  1.822047e-01 -1.827222e-01  5.758222e-01
     vertex  1.822047e-01 -1.827222e-01  5.928222e-01
     vertex  1.822047e-01 -1.747222e-01  5.928222e-01
   endloop
 endfacet
 facet normal -1.000000e+00  0.000000e+00  0.000000e+00
   outer loop
     vertex  1.822047e-01 -1.827222e-01  5.758222e-01
     vertex  1.822047e-01 -1.747222e-01  5.928222e-01
     vertex  1.822047e-01 -1.747222e-01  5.758222e-01
   endloop
 endfacet
 facet normal  0.000000e+00  0.000000e+00 -1.000000e+00
   outer loop
     vertex  1.822047e-01 -1.747222e-01  5.758222e-01
     vertex  1.837047e-01 -1.747222e-01  5.758222e-01
     vertex  1.837047e-01 -1.827222e-01  5.758222e-01
   endloop
 endfacet
 facet normal  0.000000e+00  0.000000e+00 -1.000000e+00
   outer loop
     vertex  1.822047e-01 -1.747222e-01  5.758222e-01
     vertex  1.837047e-01 -1.827222e-01  5.758222e-01
     vertex  1.822047e-01 -1.827222e-01  5.758222e-01
   endloop
 endfacet
endsolid
