solid 
 facet normal -1.000000e+00  0.000000e+00  0.000000e+00
   outer loop
     vertex  6.870473e-02 -1.771722e-01  5.115160e-01
     vertex  6.870473e-02 -1.555722e-01  5.289156e-01
     vertex  6.870473e-02 -1.555722e-01  5.115160e-01
   endloop
 endfacet
 facet normal -1.000000e+00  0.000000e+00  0.000000e+00
   outer loop
     vertex  6.870473e-02 -1.771722e-01  5.289156e-01
     vertex  6.870473e-02 -1.555722e-01  5.289156e-01
     vertex  6.870473e-02 -1.771722e-01  5.115160e-01
   endloop
 endfacet
 facet normal  0.000000e+00  1.000000e+00  0.000000e+00
   outer loop
     vertex  6.870473e-02 -1.555722e-01  5.115160e-01
     vertex  7.190473e-02 -1.555722e-01  5.286602e-01
     vertex  7.190473e-02 -1.555722e-01  5.115160e-01
   endloop
 endfacet
 facet normal  0.000000e+00  1.000000e+00  0.000000e+00
   outer loop
     vertex  6.870473e-02 -1.555722e-01  5.115160e-01
     vertex  6.870473e-02 -1.555722e-01  5.289156e-01
     vertex  7.190473e-02 -1.555722e-01  5.286602e-01
   endloop
 endfacet
 facet normal  1.000000e+00 -0.000000e+00  0.000000e+00
   outer loop
     vertex  7.190473e-02 -1.771722e-01  5.286602e-01
     vertex  7.190473e-02 -1.555722e-01  5.115160e-01
     vertex  7.190473e-02 -1.555722e-01  5.286602e-01
   endloop
 endfacet
 facet normal  1.000000e+00  0.000000e+00  0.000000e+00
   outer loop
     vertex  7.190473e-02 -1.771722e-01  5.115160e-01
     vertex  7.190473e-02 -1.555722e-01  5.115160e-01
     vertex  7.190473e-02 -1.771722e-01  5.286602e-01
   endloop
 endfacet
 facet normal  0.000000e+00  0.000000e+00 -1.000000e+00
   outer loop
     vertex  6.870473e-02 -1.555722e-01  5.115160e-01
     vertex  7.190473e-02 -1.771722e-01  5.115160e-01
     vertex  6.870473e-02 -1.771722e-01  5.115160e-01
   endloop
 endfacet
 facet normal  0.000000e+00  0.000000e+00 -1.000000e+00
   outer loop
     vertex  6.870473e-02 -1.555722e-01  5.115160e-01
     vertex  7.190473e-02 -1.555722e-01  5.115160e-01
     vertex  7.190473e-02 -1.771722e-01  5.115160e-01
   endloop
 endfacet
 facet normal  0.000000e+00 -1.000000e+00  0.000000e+00
   outer loop
     vertex  6.870473e-02 -1.771722e-01  5.115160e-01
     vertex  7.190473e-02 -1.771722e-01  5.286602e-01
     vertex  6.870473e-02 -1.771722e-01  5.289156e-01
   endloop
 endfacet
 facet normal  0.000000e+00 -1.000000e+00  0.000000e+00
   outer loop
     vertex  6.870473e-02 -1.771722e-01  5.115160e-01
     vertex  7.190473e-02 -1.771722e-01  5.115160e-01
     vertex  7.190473e-02 -1.771722e-01  5.286602e-01
   endloop
 endfacet
 facet normal  7.955854e-02 -0.000000e+00  9.968302e-01
   outer loop
     vertex  6.870473e-02 -1.771722e-01  5.289156e-01
     vertex  7.190473e-02 -1.555722e-01  5.286602e-01
     vertex  6.870473e-02 -1.555722e-01  5.289156e-01
   endloop
 endfacet
 facet normal  7.955854e-02 -0.000000e+00  9.968302e-01
   outer loop
     vertex  7.190473e-02 -1.771722e-01  5.286602e-01
     vertex  7.190473e-02 -1.555722e-01  5.286602e-01
     vertex  6.870473e-02 -1.771722e-01  5.289156e-01
   endloop
 endfacet
endsolid
