solid 
 facet normal -1.000000e+00  0.000000e+00  0.000000e+00
   outer loop
     vertex  1.987047e-01 -1.771722e-01  3.215160e-01
     vertex  1.987047e-01 -1.555722e-01  3.389156e-01
     vertex  1.987047e-01 -1.555722e-01  3.215160e-01
   endloop
 endfacet
 facet normal -1.000000e+00  0.000000e+00  0.000000e+00
   outer loop
     vertex  1.987047e-01 -1.771722e-01  3.389156e-01
     vertex  1.987047e-01 -1.555722e-01  3.389156e-01
     vertex  1.987047e-01 -1.771722e-01  3.215160e-01
   endloop
 endfacet
 facet normal  0.000000e+00  1.000000e+00  0.000000e+00
   outer loop
     vertex  1.987047e-01 -1.555722e-01  3.215160e-01
     vertex  2.019047e-01 -1.555722e-01  3.386602e-01
     vertex  2.019047e-01 -1.555722e-01  3.215160e-01
   endloop
 endfacet
 facet normal  0.000000e+00  1.000000e+00  0.000000e+00
   outer loop
     vertex  1.987047e-01 -1.555722e-01  3.215160e-01
     vertex  1.987047e-01 -1.555722e-01  3.389156e-01
     vertex  2.019047e-01 -1.555722e-01  3.386602e-01
   endloop
 endfacet
 facet normal  1.000000e+00 -0.000000e+00  0.000000e+00
   outer loop
     vertex  2.019047e-01 -1.771722e-01  3.386602e-01
     vertex  2.019047e-01 -1.555722e-01  3.215160e-01
     vertex  2.019047e-01 -1.555722e-01  3.386602e-01
   endloop
 endfacet
 facet normal  1.000000e+00  0.000000e+00  0.000000e+00
   outer loop
     vertex  2.019047e-01 -1.771722e-01  3.215160e-01
     vertex  2.019047e-01 -1.555722e-01  3.215160e-01
     vertex  2.019047e-01 -1.771722e-01  3.386602e-01
   endloop
 endfacet
 facet normal  0.000000e+00  0.000000e+00 -1.000000e+00
   outer loop
     vertex  1.987047e-01 -1.555722e-01  3.215160e-01
     vertex  2.019047e-01 -1.771722e-01  3.215160e-01
     vertex  1.987047e-01 -1.771722e-01  3.215160e-01
   endloop
 endfacet
 facet normal  0.000000e+00  0.000000e+00 -1.000000e+00
   outer loop
     vertex  1.987047e-01 -1.555722e-01  3.215160e-01
     vertex  2.019047e-01 -1.555722e-01  3.215160e-01
     vertex  2.019047e-01 -1.771722e-01  3.215160e-01
   endloop
 endfacet
 facet normal  0.000000e+00 -1.000000e+00  0.000000e+00
   outer loop
     vertex  1.987047e-01 -1.771722e-01  3.215160e-01
     vertex  2.019047e-01 -1.771722e-01  3.386602e-01
     vertex  1.987047e-01 -1.771722e-01  3.389156e-01
   endloop
 endfacet
 facet normal  0.000000e+00 -1.000000e+00  0.000000e+00
   outer loop
     vertex  1.987047e-01 -1.771722e-01  3.215160e-01
     vertex  2.019047e-01 -1.771722e-01  3.215160e-01
     vertex  2.019047e-01 -1.771722e-01  3.386602e-01
   endloop
 endfacet
 facet normal  7.955854e-02 -0.000000e+00  9.968302e-01
   outer loop
     vertex  1.987047e-01 -1.771722e-01  3.389156e-01
     vertex  2.019047e-01 -1.555722e-01  3.386602e-01
     vertex  1.987047e-01 -1.555722e-01  3.389156e-01
   endloop
 endfacet
 facet normal  7.955854e-02 -0.000000e+00  9.968302e-01
   outer loop
     vertex  2.019047e-01 -1.771722e-01  3.386602e-01
     vertex  2.019047e-01 -1.555722e-01  3.386602e-01
     vertex  1.987047e-01 -1.771722e-01  3.389156e-01
   endloop
 endfacet
endsolid
