solid 
 facet normal  0.000000e+00  7.071068e-01  7.071068e-01
   outer loop
     vertex  1.557047e-01 -1.548722e-01  5.504722e-01
     vertex  1.557047e-01 -1.568722e-01  5.524722e-01
     vertex  1.567047e-01 -1.568722e-01  5.524722e-01
   endloop
 endfacet
 facet normal -0.000000e+00  7.071068e-01  7.071068e-01
   outer loop
     vertex  1.557047e-01 -1.548722e-01  5.504722e-01
     vertex  1.567047e-01 -1.568722e-01  5.524722e-01
     vertex  1.567047e-01 -1.548722e-01  5.504722e-01
   endloop
 endfacet
 facet normal  0.000000e+00  7.071068e-01 -7.071068e-01
   outer loop
     vertex  1.557047e-01 -1.568722e-01  5.484722e-01
     vertex  1.567047e-01 -1.548722e-01  5.504722e-01
     vertex  1.567047e-01 -1.568722e-01  5.484722e-01
   endloop
 endfacet
 facet normal  0.000000e+00  7.071068e-01 -7.071068e-01
   outer loop
     vertex  1.557047e-01 -1.568722e-01  5.484722e-01
     vertex  1.557047e-01 -1.548722e-01  5.504722e-01
     vertex  1.567047e-01 -1.548722e-01  5.504722e-01
   endloop
 endfacet
 facet normal  0.000000e+00 -7.071068e-01 -7.071068e-01
   outer loop
     vertex  1.557047e-01 -1.588722e-01  5.504722e-01
     vertex  1.567047e-01 -1.568722e-01  5.484722e-01
     vertex  1.567047e-01 -1.588722e-01  5.504722e-01
   endloop
 endfacet
 facet normal  0.000000e+00 -7.071068e-01 -7.071068e-01
   outer loop
     vertex  1.557047e-01 -1.588722e-01  5.504722e-01
     vertex  1.557047e-01 -1.568722e-01  5.484722e-01
     vertex  1.567047e-01 -1.568722e-01  5.484722e-01
   endloop
 endfacet
 facet normal  0.000000e+00 -7.071068e-01  7.071068e-01
   outer loop
     vertex  1.557047e-01 -1.568722e-01  5.524722e-01
     vertex  1.567047e-01 -1.588722e-01  5.504722e-01
     vertex  1.567047e-01 -1.568722e-01  5.524722e-01
   endloop
 endfacet
 facet normal  0.000000e+00 -7.071068e-01  7.071068e-01
   outer loop
     vertex  1.557047e-01 -1.568722e-01  5.524722e-01
     vertex  1.557047e-01 -1.588722e-01  5.504722e-01
     vertex  1.567047e-01 -1.588722e-01  5.504722e-01
   endloop
 endfacet
 facet normal  1.000000e+00  0.000000e+00 -0.000000e+00
   outer loop
     vertex  1.567047e-01 -1.568722e-01  5.484722e-01
     vertex  1.567047e-01 -1.568722e-01  5.524722e-01
     vertex  1.567047e-01 -1.588722e-01  5.504722e-01
   endloop
 endfacet
 facet normal  1.000000e+00  0.000000e+00  0.000000e+00
   outer loop
     vertex  1.567047e-01 -1.568722e-01  5.484722e-01
     vertex  1.567047e-01 -1.548722e-01  5.504722e-01
     vertex  1.567047e-01 -1.568722e-01  5.524722e-01
   endloop
 endfacet
 facet normal -1.000000e+00  0.000000e+00  0.000000e+00
   outer loop
     vertex  1.557047e-01 -1.568722e-01  5.484722e-01
     vertex  1.557047e-01 -1.568722e-01  5.524722e-01
     vertex  1.557047e-01 -1.548722e-01  5.504722e-01
   endloop
 endfacet
 facet normal -1.000000e+00  0.000000e+00  0.000000e+00
   outer loop
     vertex  1.557047e-01 -1.568722e-01  5.484722e-01
     vertex  1.557047e-01 -1.588722e-01  5.504722e-01
     vertex  1.557047e-01 -1.568722e-01  5.524722e-01
   endloop
 endfacet
endsolid
