solid 
 facet normal  1.000000e+00  6.758819e-13  1.892657e-12
   outer loop
     vertex  3.577763e-02 -1.775925e-01  5.831389e-01
     vertex  3.577763e-02 -1.792573e-01  5.837334e-01
     vertex  3.577763e-02 -1.798518e-01  5.820686e-01
   endloop
 endfacet
 facet normal  1.000000e+00  1.892657e-12 -6.758819e-13
   outer loop
     vertex  3.577763e-02 -1.781870e-01  5.814741e-01
     vertex  3.577763e-02 -1.775925e-01  5.831389e-01
     vertex  3.577763e-02 -1.798518e-01  5.820686e-01
   endloop
 endfacet
 facet normal  0.000000e+00 -9.417525e-01  3.363068e-01
   outer loop
     vertex  2.952616e-02 -1.792573e-01  5.837334e-01
     vertex  2.952616e-02 -1.798518e-01  5.820686e-01
     vertex  3.577763e-02 -1.798518e-01  5.820686e-01
   endloop
 endfacet
 facet normal  0.000000e+00 -9.417525e-01  3.363068e-01
   outer loop
     vertex  2.952616e-02 -1.792573e-01  5.837334e-01
     vertex  3.577763e-02 -1.798518e-01  5.820686e-01
     vertex  3.577763e-02 -1.792573e-01  5.837334e-01
   endloop
 endfacet
 facet normal -0.000000e+00  3.363068e-01  9.417525e-01
   outer loop
     vertex  2.952616e-02 -1.775925e-01  5.831389e-01
     vertex  3.577763e-02 -1.792573e-01  5.837334e-01
     vertex  3.577763e-02 -1.775925e-01  5.831389e-01
   endloop
 endfacet
 facet normal  0.000000e+00  3.363068e-01  9.417525e-01
   outer loop
     vertex  2.952616e-02 -1.775925e-01  5.831389e-01
     vertex  2.952616e-02 -1.792573e-01  5.837334e-01
     vertex  3.577763e-02 -1.792573e-01  5.837334e-01
   endloop
 endfacet
 facet normal  0.000000e+00  9.417525e-01 -3.363068e-01
   outer loop
     vertex  2.952616e-02 -1.781870e-01  5.814741e-01
     vertex  3.577763e-02 -1.775925e-01  5.831389e-01
     vertex  3.577763e-02 -1.781870e-01  5.814741e-01
   endloop
 endfacet
 facet normal  0.000000e+00  9.417525e-01 -3.363068e-01
   outer loop
     vertex  2.952616e-02 -1.781870e-01  5.814741e-01
     vertex  2.952616e-02 -1.775925e-01  5.831389e-01
     vertex  3.577763e-02 -1.775925e-01  5.831389e-01
   endloop
 endfacet
 facet normal  0.000000e+00 -3.363068e-01 -9.417525e-01
   outer loop
     vertex  2.952616e-02 -1.798518e-01  5.820686e-01
     vertex  3.577763e-02 -1.781870e-01  5.814741e-01
     vertex  3.577763e-02 -1.798518e-01  5.820686e-01
   endloop
 endfacet
 facet normal  0.000000e+00 -3.363068e-01 -9.417525e-01
   outer loop
     vertex  2.952616e-02 -1.798518e-01  5.820686e-01
     vertex  2.952616e-02 -1.781870e-01  5.814741e-01
     vertex  3.577763e-02 -1.781870e-01  5.814741e-01
   endloop
 endfacet
 facet normal  4.769051e-01 -8.277578e-01  2.955985e-01
   outer loop
     vertex  2.922616e-02 -1.792917e-01  5.838061e-01
     vertex  2.910189e-02 -1.800106e-01  5.819934e-01
     vertex  2.922616e-02 -1.799245e-01  5.820342e-01
   endloop
 endfacet
 facet normal  4.769051e-01 -8.277578e-01  2.955985e-01
   outer loop
     vertex  2.922616e-02 -1.792917e-01  5.838061e-01
     vertex  2.910189e-02 -1.793326e-01  5.838922e-01
     vertex  2.910189e-02 -1.800106e-01  5.819934e-01
   endloop
 endfacet
 facet normal  9.269160e-02 -9.376981e-01  3.348589e-01
   outer loop
     vertex  2.937086e-02 -1.792661e-01  5.837519e-01
     vertex  2.952616e-02 -1.798518e-01  5.820686e-01
     vertex  2.952616e-02 -1.792573e-01  5.837334e-01
   endloop
 endfacet
 facet normal  2.810846e-01 -9.037838e-01  3.227479e-01
   outer loop
     vertex  2.937086e-02 -1.792661e-01  5.837519e-01
     vertex  2.922616e-02 -1.799245e-01  5.820342e-01
     vertex  2.937086e-02 -1.798703e-01  5.820599e-01
   endloop
 endfacet
 facet normal  9.269160e-02 -9.376981e-01  3.348589e-01
   outer loop
     vertex  2.937086e-02 -1.792661e-01  5.837519e-01
     vertex  2.937086e-02 -1.798703e-01  5.820599e-01
     vertex  2.952616e-02 -1.798518e-01  5.820686e-01
   endloop
 endfacet
 facet normal  2.810846e-01 -9.037838e-01  3.227479e-01
   outer loop
     vertex  2.937086e-02 -1.792661e-01  5.837519e-01
     vertex  2.922616e-02 -1.792917e-01  5.838061e-01
     vertex  2.922616e-02 -1.799245e-01  5.820342e-01
   endloop
 endfacet
 facet normal  4.769051e-01  2.955985e-01  8.277578e-01
   outer loop
     vertex  2.922616e-02 -1.775199e-01  5.831733e-01
     vertex  2.910189e-02 -1.774337e-01  5.832141e-01
     vertex  2.910189e-02 -1.793326e-01  5.838922e-01
   endloop
 endfacet
 facet normal  4.769051e-01  2.955985e-01  8.277578e-01
   outer loop
     vertex  2.922616e-02 -1.775199e-01  5.831733e-01
     vertex  2.910189e-02 -1.793326e-01  5.838922e-01
     vertex  2.922616e-02 -1.792917e-01  5.838061e-01
   endloop
 endfacet
 facet normal  9.269160e-02  3.348589e-01  9.376981e-01
   outer loop
     vertex  2.937086e-02 -1.775740e-01  5.831477e-01
     vertex  2.952616e-02 -1.792573e-01  5.837334e-01
     vertex  2.952616e-02 -1.775925e-01  5.831389e-01
   endloop
 endfacet
 facet normal  2.810846e-01  3.227479e-01  9.037838e-01
   outer loop
     vertex  2.937086e-02 -1.775740e-01  5.831477e-01
     vertex  2.922616e-02 -1.792917e-01  5.838061e-01
     vertex  2.937086e-02 -1.792661e-01  5.837519e-01
   endloop
 endfacet
 facet normal  2.810846e-01  3.227479e-01  9.037838e-01
   outer loop
     vertex  2.937086e-02 -1.775740e-01  5.831477e-01
     vertex  2.922616e-02 -1.775199e-01  5.831733e-01
     vertex  2.922616e-02 -1.792917e-01  5.838061e-01
   endloop
 endfacet
 facet normal  9.269160e-02  3.348589e-01  9.376981e-01
   outer loop
     vertex  2.937086e-02 -1.775740e-01  5.831477e-01
     vertex  2.937086e-02 -1.792661e-01  5.837519e-01
     vertex  2.952616e-02 -1.792573e-01  5.837334e-01
   endloop
 endfacet
 facet normal  4.769051e-01 -2.955985e-01 -8.277578e-01
   outer loop
     vertex  2.922616e-02 -1.781526e-01  5.814015e-01
     vertex  2.922616e-02 -1.799245e-01  5.820342e-01
     vertex  2.910189e-02 -1.800106e-01  5.819934e-01
   endloop
 endfacet
 facet normal  4.769051e-01 -2.955985e-01 -8.277578e-01
   outer loop
     vertex  2.922616e-02 -1.781526e-01  5.814015e-01
     vertex  2.910189e-02 -1.800106e-01  5.819934e-01
     vertex  2.910189e-02 -1.781118e-01  5.813153e-01
   endloop
 endfacet
 facet normal  4.769051e-01  8.277578e-01 -2.955985e-01
   outer loop
     vertex  2.922616e-02 -1.781526e-01  5.814015e-01
     vertex  2.910189e-02 -1.781118e-01  5.813153e-01
     vertex  2.910189e-02 -1.774337e-01  5.832141e-01
   endloop
 endfacet
 facet normal  4.769051e-01  8.277578e-01 -2.955985e-01
   outer loop
     vertex  2.922616e-02 -1.781526e-01  5.814015e-01
     vertex  2.910189e-02 -1.774337e-01  5.832141e-01
     vertex  2.922616e-02 -1.775199e-01  5.831733e-01
   endloop
 endfacet
 facet normal  2.810846e-01 -3.227479e-01 -9.037838e-01
   outer loop
     vertex  2.937086e-02 -1.781783e-01  5.814556e-01
     vertex  2.937086e-02 -1.798703e-01  5.820599e-01
     vertex  2.922616e-02 -1.799245e-01  5.820342e-01
   endloop
 endfacet
 facet normal  9.269160e-02 -3.348589e-01 -9.376981e-01
   outer loop
     vertex  2.937086e-02 -1.781783e-01  5.814556e-01
     vertex  2.952616e-02 -1.798518e-01  5.820686e-01
     vertex  2.937086e-02 -1.798703e-01  5.820599e-01
   endloop
 endfacet
 facet normal  9.269160e-02  9.376981e-01 -3.348589e-01
   outer loop
     vertex  2.937086e-02 -1.781783e-01  5.814556e-01
     vertex  2.952616e-02 -1.775925e-01  5.831389e-01
     vertex  2.952616e-02 -1.781870e-01  5.814741e-01
   endloop
 endfacet
 facet normal  9.269160e-02 -3.348589e-01 -9.376981e-01
   outer loop
     vertex  2.937086e-02 -1.781783e-01  5.814556e-01
     vertex  2.952616e-02 -1.781870e-01  5.814741e-01
     vertex  2.952616e-02 -1.798518e-01  5.820686e-01
   endloop
 endfacet
 facet normal  2.810846e-01  9.037838e-01 -3.227479e-01
   outer loop
     vertex  2.937086e-02 -1.781783e-01  5.814556e-01
     vertex  2.922616e-02 -1.781526e-01  5.814015e-01
     vertex  2.922616e-02 -1.775199e-01  5.831733e-01
   endloop
 endfacet
 facet normal  2.810846e-01 -3.227479e-01 -9.037838e-01
   outer loop
     vertex  2.937086e-02 -1.781783e-01  5.814556e-01
     vertex  2.922616e-02 -1.799245e-01  5.820342e-01
     vertex  2.922616e-02 -1.781526e-01  5.814015e-01
   endloop
 endfacet
 facet normal  9.269160e-02  9.376981e-01 -3.348589e-01
   outer loop
     vertex  2.937086e-02 -1.781783e-01  5.814556e-01
     vertex  2.937086e-02 -1.775740e-01  5.831477e-01
     vertex  2.952616e-02 -1.775925e-01  5.831389e-01
   endloop
 endfacet
 facet normal  2.810846e-01  9.037838e-01 -3.227479e-01
   outer loop
     vertex  2.937086e-02 -1.781783e-01  5.814556e-01
     vertex  2.922616e-02 -1.775199e-01  5.831733e-01
     vertex  2.937086e-02 -1.775740e-01  5.831477e-01
   endloop
 endfacet
 facet normal  7.070105e-01 -6.460061e-01 -2.877712e-01
   outer loop
     vertex  2.837763e-02 -1.807060e-01  5.817750e-01
     vertex  2.837763e-02 -1.806652e-01  5.816833e-01
     vertex  2.910189e-02 -1.800106e-01  5.819934e-01
   endloop
 endfacet
 facet normal  7.085211e-01 -6.573169e-01 -2.567730e-01
   outer loop
     vertex  2.837763e-02 -1.807425e-01  5.818684e-01
     vertex  2.837763e-02 -1.807060e-01  5.817750e-01
     vertex  2.910189e-02 -1.800106e-01  5.819934e-01
   endloop
 endfacet
 facet normal  7.115101e-01 -6.657238e-01 -2.248672e-01
   outer loop
     vertex  2.837763e-02 -1.807746e-01  5.819634e-01
     vertex  2.837763e-02 -1.807425e-01  5.818684e-01
     vertex  2.910189e-02 -1.800106e-01  5.819934e-01
   endloop
 endfacet
 facet normal  6.376018e-01 -7.597084e-01  1.276987e-01
   outer loop
     vertex  2.817763e-02 -1.805966e-01  5.840212e-01
     vertex  2.817763e-02 -1.809570e-01  5.818770e-01
     vertex  2.837763e-02 -1.807746e-01  5.819634e-01
   endloop
 endfacet
 facet normal  8.003303e-01 -5.646365e-01  2.016359e-01
   outer loop
     vertex  2.817763e-02 -1.805966e-01  5.840212e-01
     vertex  2.910189e-02 -1.800106e-01  5.819934e-01
     vertex  2.910189e-02 -1.793326e-01  5.838922e-01
   endloop
 endfacet
 facet normal  7.171219e-01 -6.849134e-01  1.289564e-01
   outer loop
     vertex  2.817763e-02 -1.805966e-01  5.840212e-01
     vertex  2.837763e-02 -1.807746e-01  5.819634e-01
     vertex  2.910189e-02 -1.800106e-01  5.819934e-01
   endloop
 endfacet
 facet normal  5.797805e-01 -3.488162e-01  7.363300e-01
   outer loop
     vertex  2.817763e-02 -1.786317e-01  5.849520e-01
     vertex  2.817763e-02 -1.805966e-01  5.840212e-01
     vertex  2.910189e-02 -1.793326e-01  5.838922e-01
   endloop
 endfacet
 facet normal  8.003303e-01  2.016359e-01  5.646365e-01
   outer loop
     vertex  2.910189e-02 -1.774337e-01  5.832141e-01
     vertex  2.817763e-02 -1.786317e-01  5.849520e-01
     vertex  2.910189e-02 -1.793326e-01  5.838922e-01
   endloop
 endfacet
 facet normal  7.171219e-01  3.340626e-01  6.116685e-01
   outer loop
     vertex  2.837763e-02 -1.769266e-01  5.837863e-01
     vertex  2.817763e-02 -1.786317e-01  5.849520e-01
     vertex  2.910189e-02 -1.774337e-01  5.832141e-01
   endloop
 endfacet
 facet normal  7.089856e-01  6.064173e-01  3.599965e-01
   outer loop
     vertex  2.837763e-02 -1.768242e-01  5.836138e-01
     vertex  2.837763e-02 -1.769266e-01  5.837863e-01
     vertex  2.910189e-02 -1.774337e-01  5.832141e-01
   endloop
 endfacet
 facet normal  6.376018e-01  3.824136e-01  6.687479e-01
   outer loop
     vertex  2.817763e-02 -1.767442e-01  5.838727e-01
     vertex  2.817763e-02 -1.786317e-01  5.849520e-01
     vertex  2.837763e-02 -1.769266e-01  5.837863e-01
   endloop
 endfacet
 facet normal  7.059615e-01  6.400630e-01  3.032124e-01
   outer loop
     vertex  2.837763e-02 -1.767383e-01  5.834326e-01
     vertex  2.837763e-02 -1.768242e-01  5.836138e-01
     vertex  2.910189e-02 -1.774337e-01  5.832141e-01
   endloop
 endfacet
 facet normal  7.089856e-01  6.626899e-01  2.412084e-01
   outer loop
     vertex  2.837763e-02 -1.766697e-01  5.832441e-01
     vertex  2.837763e-02 -1.767383e-01  5.834326e-01
     vertex  2.910189e-02 -1.774337e-01  5.832141e-01
   endloop
 endfacet
 facet normal  8.003303e-01  5.646365e-01 -2.016359e-01
   outer loop
     vertex  2.817763e-02 -1.768478e-01  5.811863e-01
     vertex  2.910189e-02 -1.774337e-01  5.832141e-01
     vertex  2.910189e-02 -1.781118e-01  5.813153e-01
   endloop
 endfacet
 facet normal  6.376018e-01  7.597084e-01 -1.276987e-01
   outer loop
     vertex  2.817763e-02 -1.768478e-01  5.811863e-01
     vertex  2.817763e-02 -1.764874e-01  5.833305e-01
     vertex  2.837763e-02 -1.766697e-01  5.832441e-01
   endloop
 endfacet
 facet normal  7.171219e-01  6.849134e-01 -1.289564e-01
   outer loop
     vertex  2.817763e-02 -1.768478e-01  5.811863e-01
     vertex  2.837763e-02 -1.766697e-01  5.832441e-01
     vertex  2.910189e-02 -1.774337e-01  5.832141e-01
   endloop
 endfacet
 facet normal  5.797805e-01  3.488162e-01 -7.363300e-01
   outer loop
     vertex  2.817763e-02 -1.788127e-01  5.802555e-01
     vertex  2.817763e-02 -1.768478e-01  5.811863e-01
     vertex  2.910189e-02 -1.781118e-01  5.813153e-01
   endloop
 endfacet
 facet normal  8.003303e-01 -2.016359e-01 -5.646365e-01
   outer loop
     vertex  2.910189e-02 -1.800106e-01  5.819934e-01
     vertex  2.817763e-02 -1.788127e-01  5.802555e-01
     vertex  2.910189e-02 -1.781118e-01  5.813153e-01
   endloop
 endfacet
 facet normal  7.171219e-01 -3.340626e-01 -6.116685e-01
   outer loop
     vertex  2.837763e-02 -1.805177e-01  5.814212e-01
     vertex  2.817763e-02 -1.788127e-01  5.802555e-01
     vertex  2.910189e-02 -1.800106e-01  5.819934e-01
   endloop
 endfacet
 facet normal  7.115101e-01 -5.956943e-01 -3.726952e-01
   outer loop
     vertex  2.837763e-02 -1.805709e-01  5.815063e-01
     vertex  2.837763e-02 -1.805177e-01  5.814212e-01
     vertex  2.910189e-02 -1.800106e-01  5.819934e-01
   endloop
 endfacet
 facet normal  7.085211e-01 -6.150576e-01 -3.459797e-01
   outer loop
     vertex  2.837763e-02 -1.806201e-01  5.815937e-01
     vertex  2.837763e-02 -1.805709e-01  5.815063e-01
     vertex  2.910189e-02 -1.800106e-01  5.819934e-01
   endloop
 endfacet
 facet normal  7.070105e-01 -6.318792e-01 -3.175921e-01
   outer loop
     vertex  2.837763e-02 -1.806652e-01  5.816833e-01
     vertex  2.837763e-02 -1.806201e-01  5.815937e-01
     vertex  2.910189e-02 -1.800106e-01  5.819934e-01
   endloop
 endfacet
 facet normal  6.376018e-01 -3.824136e-01 -6.687479e-01
   outer loop
     vertex  2.817763e-02 -1.807001e-01  5.813348e-01
     vertex  2.817763e-02 -1.788127e-01  5.802555e-01
     vertex  2.837763e-02 -1.805177e-01  5.814212e-01
   endloop
 endfacet
 facet normal -1.000000e+00 -0.000000e+00  0.000000e+00
   outer loop
     vertex  2.837763e-02 -1.766697e-01  5.832441e-01
     vertex  2.837763e-02 -1.807746e-01  5.819634e-01
     vertex  2.837763e-02 -1.769266e-01  5.837863e-01
   endloop
 endfacet
 facet normal -1.000000e+00 -1.717608e-10 -8.136699e-11
   outer loop
     vertex  2.837763e-02 -1.766697e-01  5.832441e-01
     vertex  2.837763e-02 -1.769266e-01  5.837863e-01
     vertex  2.837763e-02 -1.768242e-01  5.836138e-01
   endloop
 endfacet
 facet normal -1.000000e+00 -1.717608e-10 -8.136699e-11
   outer loop
     vertex  2.837763e-02 -1.766697e-01  5.832441e-01
     vertex  2.837763e-02 -1.768242e-01  5.836138e-01
     vertex  2.837763e-02 -1.767383e-01  5.834326e-01
   endloop
 endfacet
 facet normal -1.000000e+00  1.526519e-11 -3.222390e-11
   outer loop
     vertex  2.837763e-02 -1.766697e-01  5.832441e-01
     vertex  2.837763e-02 -1.805177e-01  5.814212e-01
     vertex  2.837763e-02 -1.805709e-01  5.815063e-01
   endloop
 endfacet
 facet normal -1.000000e+00  7.281988e-13  4.096234e-13
   outer loop
     vertex  2.837763e-02 -1.766697e-01  5.832441e-01
     vertex  2.837763e-02 -1.805709e-01  5.815063e-01
     vertex  2.837763e-02 -1.806201e-01  5.815937e-01
   endloop
 endfacet
 facet normal -1.000000e+00 -1.294225e-11  3.313106e-11
   outer loop
     vertex  2.837763e-02 -1.766697e-01  5.832441e-01
     vertex  2.837763e-02 -1.806201e-01  5.815937e-01
     vertex  2.837763e-02 -1.806652e-01  5.816833e-01
   endloop
 endfacet
 facet normal -1.000000e+00  1.289997e-11 -3.302282e-11
   outer loop
     vertex  2.837763e-02 -1.766697e-01  5.832441e-01
     vertex  2.837763e-02 -1.806652e-01  5.816833e-01
     vertex  2.837763e-02 -1.807060e-01  5.817750e-01
   endloop
 endfacet
 facet normal -1.000000e+00  7.706267e-13  3.010361e-13
   outer loop
     vertex  2.837763e-02 -1.766697e-01  5.832441e-01
     vertex  2.837763e-02 -1.807060e-01  5.817750e-01
     vertex  2.837763e-02 -1.807425e-01  5.818684e-01
   endloop
 endfacet
 facet normal -1.000000e+00 -1.055019e-11  3.381653e-11
   outer loop
     vertex  2.837763e-02 -1.766697e-01  5.832441e-01
     vertex  2.837763e-02 -1.807425e-01  5.818684e-01
     vertex  2.837763e-02 -1.807746e-01  5.819634e-01
   endloop
 endfacet
 facet normal  0.000000e+00  4.281148e-01 -9.037244e-01
   outer loop
     vertex  2.837763e-02 -1.769266e-01  5.837863e-01
     vertex  2.777763e-02 -1.767442e-01  5.838727e-01
     vertex  2.817763e-02 -1.767442e-01  5.838727e-01
   endloop
 endfacet
 facet normal  1.200363e-10  4.281148e-01 -9.037244e-01
   outer loop
     vertex  2.725367e-02 -1.781221e-01  5.832200e-01
     vertex  2.777763e-02 -1.767442e-01  5.838727e-01
     vertex  2.837763e-02 -1.769266e-01  5.837863e-01
   endloop
 endfacet
 facet normal -1.286785e-11  4.281148e-01 -9.037244e-01
   outer loop
     vertex  2.837763e-02 -1.807746e-01  5.819634e-01
     vertex  2.725367e-02 -1.795791e-01  5.825298e-01
     vertex  2.725367e-02 -1.781221e-01  5.832200e-01
   endloop
 endfacet
 facet normal  1.581589e-11  4.281148e-01 -9.037244e-01
   outer loop
     vertex  2.837763e-02 -1.807746e-01  5.819634e-01
     vertex  2.777763e-02 -1.809570e-01  5.818770e-01
     vertex  2.725367e-02 -1.795791e-01  5.825298e-01
   endloop
 endfacet
 facet normal -3.575163e-11  4.281148e-01 -9.037244e-01
   outer loop
     vertex  2.837763e-02 -1.807746e-01  5.819634e-01
     vertex  2.725367e-02 -1.781221e-01  5.832200e-01
     vertex  2.837763e-02 -1.769266e-01  5.837863e-01
   endloop
 endfacet
 facet normal  0.000000e+00  4.281148e-01 -9.037244e-01
   outer loop
     vertex  2.817763e-02 -1.809570e-01  5.818770e-01
     vertex  2.777763e-02 -1.809570e-01  5.818770e-01
     vertex  2.837763e-02 -1.807746e-01  5.819634e-01
   endloop
 endfacet
 facet normal  0.000000e+00 -9.861655e-01  1.657637e-01
   outer loop
     vertex  2.777763e-02 -1.805966e-01  5.840212e-01
     vertex  2.817763e-02 -1.809570e-01  5.818770e-01
     vertex  2.817763e-02 -1.805966e-01  5.840212e-01
   endloop
 endfacet
 facet normal  0.000000e+00 -9.861655e-01  1.657637e-01
   outer loop
     vertex  2.777763e-02 -1.805966e-01  5.840212e-01
     vertex  2.777763e-02 -1.809570e-01  5.818770e-01
     vertex  2.817763e-02 -1.809570e-01  5.818770e-01
   endloop
 endfacet
 facet normal  0.000000e+00 -4.281148e-01  9.037244e-01
   outer loop
     vertex  2.777763e-02 -1.786317e-01  5.849520e-01
     vertex  2.817763e-02 -1.805966e-01  5.840212e-01
     vertex  2.817763e-02 -1.786317e-01  5.849520e-01
   endloop
 endfacet
 facet normal  0.000000e+00 -4.281148e-01  9.037244e-01
   outer loop
     vertex  2.777763e-02 -1.786317e-01  5.849520e-01
     vertex  2.777763e-02 -1.805966e-01  5.840212e-01
     vertex  2.817763e-02 -1.805966e-01  5.840212e-01
   endloop
 endfacet
 facet normal -0.000000e+00  4.964050e-01  8.680910e-01
   outer loop
     vertex  2.777763e-02 -1.767442e-01  5.838727e-01
     vertex  2.817763e-02 -1.786317e-01  5.849520e-01
     vertex  2.817763e-02 -1.767442e-01  5.838727e-01
   endloop
 endfacet
 facet normal  0.000000e+00  4.964050e-01  8.680910e-01
   outer loop
     vertex  2.777763e-02 -1.767442e-01  5.838727e-01
     vertex  2.777763e-02 -1.786317e-01  5.849520e-01
     vertex  2.817763e-02 -1.786317e-01  5.849520e-01
   endloop
 endfacet
 facet normal -9.223264e-01 -3.810659e-01  6.405303e-02
   outer loop
     vertex  2.777763e-02 -1.805966e-01  5.840212e-01
     vertex  2.725367e-02 -1.795791e-01  5.825298e-01
     vertex  2.777763e-02 -1.809570e-01  5.818770e-01
   endloop
 endfacet
 facet normal -9.223264e-01  1.918167e-01  3.354405e-01
   outer loop
     vertex  2.777763e-02 -1.786317e-01  5.849520e-01
     vertex  2.777763e-02 -1.767442e-01  5.838727e-01
     vertex  2.725367e-02 -1.781221e-01  5.832200e-01
   endloop
 endfacet
 facet normal -9.594506e-01 -1.206756e-01  2.547390e-01
   outer loop
     vertex  2.777763e-02 -1.786317e-01  5.849520e-01
     vertex  2.725367e-02 -1.781221e-01  5.832200e-01
     vertex  2.725367e-02 -1.795791e-01  5.825298e-01
   endloop
 endfacet
 facet normal -9.594506e-01 -1.206756e-01  2.547390e-01
   outer loop
     vertex  2.777763e-02 -1.786317e-01  5.849520e-01
     vertex  2.725367e-02 -1.795791e-01  5.825298e-01
     vertex  2.777763e-02 -1.805966e-01  5.840212e-01
   endloop
 endfacet
 facet normal  0.000000e+00 -4.281148e-01  9.037244e-01
   outer loop
     vertex  2.837763e-02 -1.805177e-01  5.814212e-01
     vertex  2.777763e-02 -1.807001e-01  5.813348e-01
     vertex  2.817763e-02 -1.807001e-01  5.813348e-01
   endloop
 endfacet
 facet normal -3.132024e-11 -4.281148e-01  9.037244e-01
   outer loop
     vertex  2.725367e-02 -1.793222e-01  5.819875e-01
     vertex  2.777763e-02 -1.807001e-01  5.813348e-01
     vertex  2.837763e-02 -1.805177e-01  5.814212e-01
   endloop
 endfacet
 facet normal  4.800840e-11 -4.281148e-01  9.037244e-01
   outer loop
     vertex  2.837763e-02 -1.766697e-01  5.832441e-01
     vertex  2.725367e-02 -1.778653e-01  5.826777e-01
     vertex  2.725367e-02 -1.793222e-01  5.819875e-01
   endloop
 endfacet
 facet normal  1.554781e-11 -4.281148e-01  9.037244e-01
   outer loop
     vertex  2.837763e-02 -1.766697e-01  5.832441e-01
     vertex  2.777763e-02 -1.764874e-01  5.833305e-01
     vertex  2.725367e-02 -1.778653e-01  5.826777e-01
   endloop
 endfacet
 facet normal -1.817759e-11 -4.281148e-01  9.037244e-01
   outer loop
     vertex  2.837763e-02 -1.766697e-01  5.832441e-01
     vertex  2.725367e-02 -1.793222e-01  5.819875e-01
     vertex  2.837763e-02 -1.805177e-01  5.814212e-01
   endloop
 endfacet
 facet normal  0.000000e+00 -4.281148e-01  9.037244e-01
   outer loop
     vertex  2.817763e-02 -1.764874e-01  5.833305e-01
     vertex  2.777763e-02 -1.764874e-01  5.833305e-01
     vertex  2.837763e-02 -1.766697e-01  5.832441e-01
   endloop
 endfacet
 facet normal  0.000000e+00  9.861655e-01 -1.657637e-01
   outer loop
     vertex  2.777763e-02 -1.768478e-01  5.811863e-01
     vertex  2.817763e-02 -1.764874e-01  5.833305e-01
     vertex  2.817763e-02 -1.768478e-01  5.811863e-01
   endloop
 endfacet
 facet normal  0.000000e+00  9.861655e-01 -1.657637e-01
   outer loop
     vertex  2.777763e-02 -1.768478e-01  5.811863e-01
     vertex  2.777763e-02 -1.764874e-01  5.833305e-01
     vertex  2.817763e-02 -1.764874e-01  5.833305e-01
   endloop
 endfacet
 facet normal  0.000000e+00  4.281148e-01 -9.037244e-01
   outer loop
     vertex  2.777763e-02 -1.788127e-01  5.802555e-01
     vertex  2.817763e-02 -1.768478e-01  5.811863e-01
     vertex  2.817763e-02 -1.788127e-01  5.802555e-01
   endloop
 endfacet
 facet normal  0.000000e+00  4.281148e-01 -9.037244e-01
   outer loop
     vertex  2.777763e-02 -1.788127e-01  5.802555e-01
     vertex  2.777763e-02 -1.768478e-01  5.811863e-01
     vertex  2.817763e-02 -1.768478e-01  5.811863e-01
   endloop
 endfacet
 facet normal  0.000000e+00 -4.964050e-01 -8.680910e-01
   outer loop
     vertex  2.777763e-02 -1.807001e-01  5.813348e-01
     vertex  2.817763e-02 -1.788127e-01  5.802555e-01
     vertex  2.817763e-02 -1.807001e-01  5.813348e-01
   endloop
 endfacet
 facet normal  0.000000e+00 -4.964050e-01 -8.680910e-01
   outer loop
     vertex  2.777763e-02 -1.807001e-01  5.813348e-01
     vertex  2.777763e-02 -1.788127e-01  5.802555e-01
     vertex  2.817763e-02 -1.788127e-01  5.802555e-01
   endloop
 endfacet
 facet normal -9.223264e-01 -1.918167e-01 -3.354405e-01
   outer loop
     vertex  2.725367e-02 -1.793222e-01  5.819875e-01
     vertex  2.777763e-02 -1.788127e-01  5.802555e-01
     vertex  2.777763e-02 -1.807001e-01  5.813348e-01
   endloop
 endfacet
 facet normal -9.594506e-01  1.206756e-01 -2.547390e-01
   outer loop
     vertex  2.725367e-02 -1.778653e-01  5.826777e-01
     vertex  2.777763e-02 -1.768478e-01  5.811863e-01
     vertex  2.777763e-02 -1.788127e-01  5.802555e-01
   endloop
 endfacet
 facet normal -9.594506e-01  1.206756e-01 -2.547390e-01
   outer loop
     vertex  2.725367e-02 -1.778653e-01  5.826777e-01
     vertex  2.777763e-02 -1.788127e-01  5.802555e-01
     vertex  2.725367e-02 -1.793222e-01  5.819875e-01
   endloop
 endfacet
 facet normal -9.223264e-01  3.810659e-01 -6.405303e-02
   outer loop
     vertex  2.777763e-02 -1.764874e-01  5.833305e-01
     vertex  2.777763e-02 -1.768478e-01  5.811863e-01
     vertex  2.725367e-02 -1.778653e-01  5.826777e-01
   endloop
 endfacet
endsolid
