solid 
 facet normal  0.000000e+00  0.000000e+00 -1.000000e+00
   outer loop
     vertex  6.370473e-02 -1.535222e-01  3.714715e-01
     vertex  6.870473e-02 -1.785222e-01  3.714715e-01
     vertex  6.370473e-02 -1.785222e-01  3.714715e-01
   endloop
 endfacet
 facet normal  0.000000e+00  0.000000e+00 -1.000000e+00
   outer loop
     vertex  6.370473e-02 -1.535222e-01  3.714715e-01
     vertex  6.870473e-02 -1.535222e-01  3.714715e-01
     vertex  6.870473e-02 -1.785222e-01  3.714715e-01
   endloop
 endfacet
 facet normal  1.000000e+00 -0.000000e+00  0.000000e+00
   outer loop
     vertex  6.870473e-02 -1.444222e-01  3.294156e-01
     vertex  6.870473e-02 -1.442222e-01  3.210090e-01
     vertex  6.870473e-02 -1.442222e-01  3.294156e-01
   endloop
 endfacet
 facet normal  1.000000e+00  0.000000e+00  0.000000e+00
   outer loop
     vertex  6.870473e-02 -1.535222e-01  3.464715e-01
     vertex  6.870473e-02 -1.444222e-01  3.294156e-01
     vertex  6.870473e-02 -1.444222e-01  3.334156e-01
   endloop
 endfacet
 facet normal  1.000000e+00  0.000000e+00  0.000000e+00
   outer loop
     vertex  6.870473e-02 -1.535222e-01  3.464715e-01
     vertex  6.870473e-02 -1.444222e-01  3.334156e-01
     vertex  6.870473e-02 -1.442222e-01  3.334156e-01
   endloop
 endfacet
 facet normal  1.000000e+00  0.000000e+00  0.000000e+00
   outer loop
     vertex  6.870473e-02 -1.883222e-01  3.294156e-01
     vertex  6.870473e-02 -1.885222e-01  3.210090e-01
     vertex  6.870473e-02 -1.442222e-01  3.210090e-01
   endloop
 endfacet
 facet normal  1.000000e+00 -0.000000e+00  0.000000e+00
   outer loop
     vertex  6.870473e-02 -1.883222e-01  3.294156e-01
     vertex  6.870473e-02 -1.442222e-01  3.210090e-01
     vertex  6.870473e-02 -1.444222e-01  3.294156e-01
   endloop
 endfacet
 facet normal  1.000000e+00 -0.000000e+00  0.000000e+00
   outer loop
     vertex  6.870473e-02 -1.885222e-01  3.294156e-01
     vertex  6.870473e-02 -1.885222e-01  3.210090e-01
     vertex  6.870473e-02 -1.883222e-01  3.294156e-01
   endloop
 endfacet
 facet normal  1.000000e+00  0.000000e+00  0.000000e+00
   outer loop
     vertex  6.870473e-02 -1.785222e-01  3.464715e-01
     vertex  6.870473e-02 -1.885222e-01  3.334156e-01
     vertex  6.870473e-02 -1.883222e-01  3.334156e-01
   endloop
 endfacet
 facet normal  1.000000e+00  0.000000e+00  0.000000e+00
   outer loop
     vertex  6.870473e-02 -1.785222e-01  3.464715e-01
     vertex  6.870473e-02 -1.883222e-01  3.334156e-01
     vertex  6.870473e-02 -1.883222e-01  3.294156e-01
   endloop
 endfacet
 facet normal  1.000000e+00 -0.000000e+00  0.000000e+00
   outer loop
     vertex  6.870473e-02 -1.785222e-01  3.464715e-01
     vertex  6.870473e-02 -1.444222e-01  3.294156e-01
     vertex  6.870473e-02 -1.535222e-01  3.464715e-01
   endloop
 endfacet
 facet normal  1.000000e+00  0.000000e+00  0.000000e+00
   outer loop
     vertex  6.870473e-02 -1.785222e-01  3.464715e-01
     vertex  6.870473e-02 -1.883222e-01  3.294156e-01
     vertex  6.870473e-02 -1.444222e-01  3.294156e-01
   endloop
 endfacet
 facet normal  1.000000e+00  0.000000e+00  0.000000e+00
   outer loop
     vertex  6.870473e-02 -1.535222e-01  3.714715e-01
     vertex  6.870473e-02 -1.535222e-01  3.464715e-01
     vertex  6.870473e-02 -1.442222e-01  3.334156e-01
   endloop
 endfacet
 facet normal  1.000000e+00  0.000000e+00  0.000000e+00
   outer loop
     vertex  6.870473e-02 -1.442222e-01  3.854156e-01
     vertex  6.870473e-02 -1.535222e-01  3.714715e-01
     vertex  6.870473e-02 -1.442222e-01  3.334156e-01
   endloop
 endfacet
 facet normal  1.000000e+00 -0.000000e+00  0.000000e+00
   outer loop
     vertex  6.870473e-02 -1.444222e-01  3.854156e-01
     vertex  6.870473e-02 -1.535222e-01  3.714715e-01
     vertex  6.870473e-02 -1.442222e-01  3.854156e-01
   endloop
 endfacet
 facet normal  1.000000e+00  0.000000e+00  0.000000e+00
   outer loop
     vertex  6.870473e-02 -1.444222e-01  3.894156e-01
     vertex  6.870473e-02 -1.535222e-01  3.714715e-01
     vertex  6.870473e-02 -1.444222e-01  3.854156e-01
   endloop
 endfacet
 facet normal  1.000000e+00  0.000000e+00  0.000000e+00
   outer loop
     vertex  6.870473e-02 -1.442222e-01  3.978222e-01
     vertex  6.870473e-02 -1.444222e-01  3.894156e-01
     vertex  6.870473e-02 -1.442222e-01  3.894156e-01
   endloop
 endfacet
 facet normal  1.000000e+00  0.000000e+00  0.000000e+00
   outer loop
     vertex  6.870473e-02 -1.785222e-01  3.714715e-01
     vertex  6.870473e-02 -1.885222e-01  3.334156e-01
     vertex  6.870473e-02 -1.785222e-01  3.464715e-01
   endloop
 endfacet
 facet normal  1.000000e+00  0.000000e+00  0.000000e+00
   outer loop
     vertex  6.870473e-02 -1.785222e-01  3.714715e-01
     vertex  6.870473e-02 -1.535222e-01  3.714715e-01
     vertex  6.870473e-02 -1.444222e-01  3.894156e-01
   endloop
 endfacet
 facet normal  1.000000e+00  0.000000e+00  0.000000e+00
   outer loop
     vertex  6.870473e-02 -1.885222e-01  3.854156e-01
     vertex  6.870473e-02 -1.885222e-01  3.334156e-01
     vertex  6.870473e-02 -1.785222e-01  3.714715e-01
   endloop
 endfacet
 facet normal  1.000000e+00 -0.000000e+00  0.000000e+00
   outer loop
     vertex  6.870473e-02 -1.885222e-01  3.854156e-01
     vertex  6.870473e-02 -1.785222e-01  3.714715e-01
     vertex  6.870473e-02 -1.883222e-01  3.854156e-01
   endloop
 endfacet
 facet normal  1.000000e+00 -0.000000e+00  0.000000e+00
   outer loop
     vertex  6.870473e-02 -1.883222e-01  3.894156e-01
     vertex  6.870473e-02 -1.785222e-01  3.714715e-01
     vertex  6.870473e-02 -1.444222e-01  3.894156e-01
   endloop
 endfacet
 facet normal  1.000000e+00  0.000000e+00  0.000000e+00
   outer loop
     vertex  6.870473e-02 -1.883222e-01  3.894156e-01
     vertex  6.870473e-02 -1.883222e-01  3.854156e-01
     vertex  6.870473e-02 -1.785222e-01  3.714715e-01
   endloop
 endfacet
 facet normal  1.000000e+00  0.000000e+00  0.000000e+00
   outer loop
     vertex  6.870473e-02 -1.885222e-01  3.978222e-01
     vertex  6.870473e-02 -1.885222e-01  3.894156e-01
     vertex  6.870473e-02 -1.883222e-01  3.894156e-01
   endloop
 endfacet
 facet normal  1.000000e+00 -0.000000e+00  0.000000e+00
   outer loop
     vertex  6.870473e-02 -1.885222e-01  3.978222e-01
     vertex  6.870473e-02 -1.444222e-01  3.894156e-01
     vertex  6.870473e-02 -1.442222e-01  3.978222e-01
   endloop
 endfacet
 facet normal  1.000000e+00  0.000000e+00  0.000000e+00
   outer loop
     vertex  6.870473e-02 -1.885222e-01  3.978222e-01
     vertex  6.870473e-02 -1.883222e-01  3.894156e-01
     vertex  6.870473e-02 -1.444222e-01  3.894156e-01
   endloop
 endfacet
 facet normal  0.000000e+00  0.000000e+00  1.000000e+00
   outer loop
     vertex  5.870473e-02 -1.885222e-01  3.294156e-01
     vertex  6.870473e-02 -1.883222e-01  3.294156e-01
     vertex  5.870473e-02 -1.883222e-01  3.294156e-01
   endloop
 endfacet
 facet normal  0.000000e+00  0.000000e+00  1.000000e+00
   outer loop
     vertex  5.870473e-02 -1.885222e-01  3.294156e-01
     vertex  6.870473e-02 -1.885222e-01  3.294156e-01
     vertex  6.870473e-02 -1.883222e-01  3.294156e-01
   endloop
 endfacet
 facet normal  0.000000e+00 -1.000000e+00  0.000000e+00
   outer loop
     vertex  5.870473e-02 -1.885222e-01  3.294156e-01
     vertex  6.870473e-02 -1.885222e-01  3.210090e-01
     vertex  6.870473e-02 -1.885222e-01  3.294156e-01
   endloop
 endfacet
 facet normal  0.000000e+00 -1.000000e+00  0.000000e+00
   outer loop
     vertex  6.382076e-02 -1.885222e-01  3.181892e-01
     vertex  6.870473e-02 -1.885222e-01  3.210090e-01
     vertex  5.870473e-02 -1.885222e-01  3.294156e-01
   endloop
 endfacet
 facet normal  4.860492e-10 -1.000000e+00 -1.813960e-09
   outer loop
     vertex  6.357076e-02 -1.885222e-01  3.181222e-01
     vertex  6.365758e-02 -1.885222e-01  3.181298e-01
     vertex  6.374177e-02 -1.885222e-01  3.181524e-01
   endloop
 endfacet
 facet normal  4.860491e-10 -1.000000e+00 -1.813960e-09
   outer loop
     vertex  6.357076e-02 -1.885222e-01  3.181222e-01
     vertex  6.374177e-02 -1.885222e-01  3.181524e-01
     vertex  6.382076e-02 -1.885222e-01  3.181892e-01
   endloop
 endfacet
 facet normal  0.000000e+00 -1.000000e+00  0.000000e+00
   outer loop
     vertex  6.357076e-02 -1.885222e-01  3.181222e-01
     vertex  6.382076e-02 -1.885222e-01  3.181892e-01
     vertex  5.870473e-02 -1.885222e-01  3.294156e-01
   endloop
 endfacet
 facet normal  0.000000e+00 -1.000000e+00  0.000000e+00
   outer loop
     vertex  5.870473e-02 -1.885222e-01  3.181222e-01
     vertex  6.357076e-02 -1.885222e-01  3.181222e-01
     vertex  5.870473e-02 -1.885222e-01  3.294156e-01
   endloop
 endfacet
 facet normal  5.000000e-01  0.000000e+00 -8.660254e-01
   outer loop
     vertex  6.382076e-02 -1.442222e-01  3.181892e-01
     vertex  6.870473e-02 -1.442222e-01  3.210090e-01
     vertex  6.870473e-02 -1.885222e-01  3.210090e-01
   endloop
 endfacet
 facet normal  5.000000e-01  0.000000e+00 -8.660254e-01
   outer loop
     vertex  6.382076e-02 -1.442222e-01  3.181892e-01
     vertex  6.870473e-02 -1.885222e-01  3.210090e-01
     vertex  6.382076e-02 -1.885222e-01  3.181892e-01
   endloop
 endfacet
 facet normal -0.000000e+00  1.000000e+00  0.000000e+00
   outer loop
     vertex  5.870473e-02 -1.442222e-01  3.294156e-01
     vertex  6.870473e-02 -1.442222e-01  3.294156e-01
     vertex  6.870473e-02 -1.442222e-01  3.210090e-01
   endloop
 endfacet
 facet normal  0.000000e+00  1.000000e+00 -0.000000e+00
   outer loop
     vertex  6.382076e-02 -1.442222e-01  3.181892e-01
     vertex  5.870473e-02 -1.442222e-01  3.294156e-01
     vertex  6.870473e-02 -1.442222e-01  3.210090e-01
   endloop
 endfacet
 facet normal  0.000000e+00  1.000000e+00  0.000000e+00
   outer loop
     vertex  6.365758e-02 -1.442222e-01  3.181298e-01
     vertex  6.382076e-02 -1.442222e-01  3.181892e-01
     vertex  6.374177e-02 -1.442222e-01  3.181524e-01
   endloop
 endfacet
 facet normal  0.000000e+00  1.000000e+00 -0.000000e+00
   outer loop
     vertex  6.357076e-02 -1.442222e-01  3.181222e-01
     vertex  5.870473e-02 -1.442222e-01  3.294156e-01
     vertex  6.382076e-02 -1.442222e-01  3.181892e-01
   endloop
 endfacet
 facet normal  0.000000e+00  1.000000e+00  0.000000e+00
   outer loop
     vertex  6.357076e-02 -1.442222e-01  3.181222e-01
     vertex  6.382076e-02 -1.442222e-01  3.181892e-01
     vertex  6.365758e-02 -1.442222e-01  3.181298e-01
   endloop
 endfacet
 facet normal  0.000000e+00  1.000000e+00  0.000000e+00
   outer loop
     vertex  5.870473e-02 -1.442222e-01  3.181222e-01
     vertex  5.870473e-02 -1.442222e-01  3.294156e-01
     vertex  6.357076e-02 -1.442222e-01  3.181222e-01
   endloop
 endfacet
 facet normal  0.000000e+00  0.000000e+00  1.000000e+00
   outer loop
     vertex  5.870473e-02 -1.444222e-01  3.294156e-01
     vertex  6.870473e-02 -1.444222e-01  3.294156e-01
     vertex  6.870473e-02 -1.442222e-01  3.294156e-01
   endloop
 endfacet
 facet normal  0.000000e+00  0.000000e+00  1.000000e+00
   outer loop
     vertex  5.870473e-02 -1.444222e-01  3.294156e-01
     vertex  6.870473e-02 -1.442222e-01  3.294156e-01
     vertex  5.870473e-02 -1.442222e-01  3.294156e-01
   endloop
 endfacet
 facet normal  0.000000e+00  1.000000e+00  0.000000e+00
   outer loop
     vertex  5.870473e-02 -1.444222e-01  3.294156e-01
     vertex  6.870473e-02 -1.444222e-01  3.334156e-01
     vertex  6.870473e-02 -1.444222e-01  3.294156e-01
   endloop
 endfacet
 facet normal -0.000000e+00  1.000000e+00  0.000000e+00
   outer loop
     vertex  5.870473e-02 -1.444222e-01  3.334156e-01
     vertex  6.870473e-02 -1.444222e-01  3.334156e-01
     vertex  5.870473e-02 -1.444222e-01  3.294156e-01
   endloop
 endfacet
 facet normal  0.000000e+00  0.000000e+00 -1.000000e+00
   outer loop
     vertex  5.870473e-02 -1.442222e-01  3.334156e-01
     vertex  6.870473e-02 -1.444222e-01  3.334156e-01
     vertex  5.870473e-02 -1.444222e-01  3.334156e-01
   endloop
 endfacet
 facet normal  0.000000e+00  0.000000e+00 -1.000000e+00
   outer loop
     vertex  5.870473e-02 -1.442222e-01  3.334156e-01
     vertex  6.870473e-02 -1.442222e-01  3.334156e-01
     vertex  6.870473e-02 -1.444222e-01  3.334156e-01
   endloop
 endfacet
 facet normal  0.000000e+00  1.000000e+00 -0.000000e+00
   outer loop
     vertex  6.870473e-02 -1.442222e-01  3.334156e-01
     vertex  5.870473e-02 -1.442222e-01  3.854156e-01
     vertex  6.870473e-02 -1.442222e-01  3.854156e-01
   endloop
 endfacet
 facet normal  0.000000e+00  1.000000e+00  0.000000e+00
   outer loop
     vertex  5.870473e-02 -1.442222e-01  3.334156e-01
     vertex  5.870473e-02 -1.442222e-01  3.854156e-01
     vertex  6.870473e-02 -1.442222e-01  3.334156e-01
   endloop
 endfacet
 facet normal  0.000000e+00  0.000000e+00  1.000000e+00
   outer loop
     vertex  5.870473e-02 -1.444222e-01  3.854156e-01
     vertex  6.870473e-02 -1.444222e-01  3.854156e-01
     vertex  6.870473e-02 -1.442222e-01  3.854156e-01
   endloop
 endfacet
 facet normal  0.000000e+00  0.000000e+00  1.000000e+00
   outer loop
     vertex  5.870473e-02 -1.444222e-01  3.854156e-01
     vertex  6.870473e-02 -1.442222e-01  3.854156e-01
     vertex  5.870473e-02 -1.442222e-01  3.854156e-01
   endloop
 endfacet
 facet normal  0.000000e+00  1.000000e+00  0.000000e+00
   outer loop
     vertex  5.870473e-02 -1.444222e-01  3.894156e-01
     vertex  6.870473e-02 -1.444222e-01  3.854156e-01
     vertex  5.870473e-02 -1.444222e-01  3.854156e-01
   endloop
 endfacet
 facet normal -0.000000e+00  1.000000e+00  0.000000e+00
   outer loop
     vertex  5.870473e-02 -1.444222e-01  3.894156e-01
     vertex  6.870473e-02 -1.444222e-01  3.894156e-01
     vertex  6.870473e-02 -1.444222e-01  3.854156e-01
   endloop
 endfacet
 facet normal  0.000000e+00  0.000000e+00 -1.000000e+00
   outer loop
     vertex  5.870473e-02 -1.442222e-01  3.894156e-01
     vertex  6.870473e-02 -1.444222e-01  3.894156e-01
     vertex  5.870473e-02 -1.444222e-01  3.894156e-01
   endloop
 endfacet
 facet normal  0.000000e+00  0.000000e+00 -1.000000e+00
   outer loop
     vertex  5.870473e-02 -1.442222e-01  3.894156e-01
     vertex  6.870473e-02 -1.442222e-01  3.894156e-01
     vertex  6.870473e-02 -1.444222e-01  3.894156e-01
   endloop
 endfacet
 facet normal  0.000000e+00  1.000000e+00  0.000000e+00
   outer loop
     vertex  6.552931e-02 -1.442222e-01  4.028222e-01
     vertex  6.570032e-02 -1.442222e-01  4.027921e-01
     vertex  6.585070e-02 -1.442222e-01  4.027053e-01
   endloop
 endfacet
 facet normal  0.000000e+00  1.000000e+00  0.000000e+00
   outer loop
     vertex  6.552931e-02 -1.442222e-01  4.028222e-01
     vertex  6.585070e-02 -1.442222e-01  4.027053e-01
     vertex  6.596232e-02 -1.442222e-01  4.025722e-01
   endloop
 endfacet
 facet normal  0.000000e+00  1.000000e+00  0.000000e+00
   outer loop
     vertex  6.870473e-02 -1.442222e-01  3.978222e-01
     vertex  6.552931e-02 -1.442222e-01  4.028222e-01
     vertex  6.596232e-02 -1.442222e-01  4.025722e-01
   endloop
 endfacet
 facet normal -0.000000e+00  1.000000e+00  0.000000e+00
   outer loop
     vertex  5.870473e-02 -1.442222e-01  4.028222e-01
     vertex  6.552931e-02 -1.442222e-01  4.028222e-01
     vertex  6.870473e-02 -1.442222e-01  3.978222e-01
   endloop
 endfacet
 facet normal  0.000000e+00  1.000000e+00  0.000000e+00
   outer loop
     vertex  5.870473e-02 -1.442222e-01  3.894156e-01
     vertex  6.870473e-02 -1.442222e-01  3.978222e-01
     vertex  6.870473e-02 -1.442222e-01  3.894156e-01
   endloop
 endfacet
 facet normal  0.000000e+00  1.000000e+00  0.000000e+00
   outer loop
     vertex  5.870473e-02 -1.442222e-01  3.894156e-01
     vertex  5.870473e-02 -1.442222e-01  4.028222e-01
     vertex  6.870473e-02 -1.442222e-01  3.978222e-01
   endloop
 endfacet
 facet normal  8.660254e-01  0.000000e+00  5.000000e-01
   outer loop
     vertex  6.870473e-02 -1.442222e-01  3.978222e-01
     vertex  6.596232e-02 -1.885222e-01  4.025722e-01
     vertex  6.870473e-02 -1.885222e-01  3.978222e-01
   endloop
 endfacet
 facet normal  8.660254e-01  0.000000e+00  5.000000e-01
   outer loop
     vertex  6.870473e-02 -1.442222e-01  3.978222e-01
     vertex  6.596232e-02 -1.442222e-01  4.025722e-01
     vertex  6.596232e-02 -1.885222e-01  4.025722e-01
   endloop
 endfacet
 facet normal  2.392755e-10 -1.000000e+00  4.144374e-10
   outer loop
     vertex  6.570032e-02 -1.885222e-01  4.027921e-01
     vertex  6.596232e-02 -1.885222e-01  4.025722e-01
     vertex  6.585070e-02 -1.885222e-01  4.027053e-01
   endloop
 endfacet
 facet normal  2.392755e-10 -1.000000e+00  4.144374e-10
   outer loop
     vertex  6.552931e-02 -1.885222e-01  4.028222e-01
     vertex  6.596232e-02 -1.885222e-01  4.025722e-01
     vertex  6.570032e-02 -1.885222e-01  4.027921e-01
   endloop
 endfacet
 facet normal  0.000000e+00 -1.000000e+00  0.000000e+00
   outer loop
     vertex  6.870473e-02 -1.885222e-01  3.978222e-01
     vertex  6.596232e-02 -1.885222e-01  4.025722e-01
     vertex  6.552931e-02 -1.885222e-01  4.028222e-01
   endloop
 endfacet
 facet normal  0.000000e+00 -1.000000e+00  0.000000e+00
   outer loop
     vertex  5.870473e-02 -1.885222e-01  4.028222e-01
     vertex  6.870473e-02 -1.885222e-01  3.978222e-01
     vertex  6.552931e-02 -1.885222e-01  4.028222e-01
   endloop
 endfacet
 facet normal  0.000000e+00 -1.000000e+00  0.000000e+00
   outer loop
     vertex  5.870473e-02 -1.885222e-01  3.894156e-01
     vertex  6.870473e-02 -1.885222e-01  3.894156e-01
     vertex  6.870473e-02 -1.885222e-01  3.978222e-01
   endloop
 endfacet
 facet normal  0.000000e+00 -1.000000e+00  0.000000e+00
   outer loop
     vertex  5.870473e-02 -1.885222e-01  3.894156e-01
     vertex  6.870473e-02 -1.885222e-01  3.978222e-01
     vertex  5.870473e-02 -1.885222e-01  4.028222e-01
   endloop
 endfacet
 facet normal -1.000000e+00  0.000000e+00  0.000000e+00
   outer loop
     vertex  5.870473e-02 -1.444222e-01  3.894156e-01
     vertex  5.870473e-02 -1.442222e-01  4.028222e-01
     vertex  5.870473e-02 -1.442222e-01  3.894156e-01
   endloop
 endfacet
 facet normal -1.000000e+00  0.000000e+00  0.000000e+00
   outer loop
     vertex  5.870473e-02 -1.883222e-01  3.894156e-01
     vertex  5.870473e-02 -1.885222e-01  4.028222e-01
     vertex  5.870473e-02 -1.442222e-01  4.028222e-01
   endloop
 endfacet
 facet normal -1.000000e+00  0.000000e+00  0.000000e+00
   outer loop
     vertex  5.870473e-02 -1.883222e-01  3.894156e-01
     vertex  5.870473e-02 -1.442222e-01  4.028222e-01
     vertex  5.870473e-02 -1.444222e-01  3.894156e-01
   endloop
 endfacet
 facet normal -1.000000e+00  0.000000e+00  0.000000e+00
   outer loop
     vertex  5.870473e-02 -1.885222e-01  3.894156e-01
     vertex  5.870473e-02 -1.885222e-01  4.028222e-01
     vertex  5.870473e-02 -1.883222e-01  3.894156e-01
   endloop
 endfacet
 facet normal -1.000000e+00  0.000000e+00  0.000000e+00
   outer loop
     vertex  5.870473e-02 -1.883222e-01  3.854156e-01
     vertex  5.870473e-02 -1.444222e-01  3.894156e-01
     vertex  5.870473e-02 -1.444222e-01  3.854156e-01
   endloop
 endfacet
 facet normal -1.000000e+00  0.000000e+00  0.000000e+00
   outer loop
     vertex  5.870473e-02 -1.883222e-01  3.854156e-01
     vertex  5.870473e-02 -1.883222e-01  3.894156e-01
     vertex  5.870473e-02 -1.444222e-01  3.894156e-01
   endloop
 endfacet
 facet normal -1.000000e+00  0.000000e+00  0.000000e+00
   outer loop
     vertex  5.870473e-02 -1.444222e-01  3.334156e-01
     vertex  5.870473e-02 -1.444222e-01  3.854156e-01
     vertex  5.870473e-02 -1.442222e-01  3.854156e-01
   endloop
 endfacet
 facet normal -1.000000e+00  0.000000e+00  0.000000e+00
   outer loop
     vertex  5.870473e-02 -1.444222e-01  3.334156e-01
     vertex  5.870473e-02 -1.442222e-01  3.854156e-01
     vertex  5.870473e-02 -1.442222e-01  3.334156e-01
   endloop
 endfacet
 facet normal -1.000000e+00  0.000000e+00  0.000000e+00
   outer loop
     vertex  5.870473e-02 -1.444222e-01  3.334156e-01
     vertex  5.870473e-02 -1.883222e-01  3.854156e-01
     vertex  5.870473e-02 -1.444222e-01  3.854156e-01
   endloop
 endfacet
 facet normal -1.000000e+00  0.000000e+00  0.000000e+00
   outer loop
     vertex  5.870473e-02 -1.442222e-01  3.181222e-01
     vertex  5.870473e-02 -1.444222e-01  3.294156e-01
     vertex  5.870473e-02 -1.442222e-01  3.294156e-01
   endloop
 endfacet
 facet normal -1.000000e+00  0.000000e+00  0.000000e+00
   outer loop
     vertex  5.870473e-02 -1.883222e-01  3.334156e-01
     vertex  5.870473e-02 -1.885222e-01  3.854156e-01
     vertex  5.870473e-02 -1.883222e-01  3.854156e-01
   endloop
 endfacet
 facet normal -1.000000e+00  0.000000e+00  0.000000e+00
   outer loop
     vertex  5.870473e-02 -1.883222e-01  3.334156e-01
     vertex  5.870473e-02 -1.883222e-01  3.854156e-01
     vertex  5.870473e-02 -1.444222e-01  3.334156e-01
   endloop
 endfacet
 facet normal -1.000000e+00  0.000000e+00  0.000000e+00
   outer loop
     vertex  5.870473e-02 -1.885222e-01  3.334156e-01
     vertex  5.870473e-02 -1.885222e-01  3.854156e-01
     vertex  5.870473e-02 -1.883222e-01  3.334156e-01
   endloop
 endfacet
 facet normal -1.000000e+00  0.000000e+00  0.000000e+00
   outer loop
     vertex  5.870473e-02 -1.883222e-01  3.294156e-01
     vertex  5.870473e-02 -1.444222e-01  3.334156e-01
     vertex  5.870473e-02 -1.444222e-01  3.294156e-01
   endloop
 endfacet
 facet normal -1.000000e+00  0.000000e+00  0.000000e+00
   outer loop
     vertex  5.870473e-02 -1.883222e-01  3.294156e-01
     vertex  5.870473e-02 -1.444222e-01  3.294156e-01
     vertex  5.870473e-02 -1.442222e-01  3.181222e-01
   endloop
 endfacet
 facet normal -1.000000e+00  0.000000e+00  0.000000e+00
   outer loop
     vertex  5.870473e-02 -1.883222e-01  3.294156e-01
     vertex  5.870473e-02 -1.883222e-01  3.334156e-01
     vertex  5.870473e-02 -1.444222e-01  3.334156e-01
   endloop
 endfacet
 facet normal -1.000000e+00  0.000000e+00  0.000000e+00
   outer loop
     vertex  5.870473e-02 -1.885222e-01  3.181222e-01
     vertex  5.870473e-02 -1.885222e-01  3.294156e-01
     vertex  5.870473e-02 -1.883222e-01  3.294156e-01
   endloop
 endfacet
 facet normal -1.000000e+00  0.000000e+00  0.000000e+00
   outer loop
     vertex  5.870473e-02 -1.885222e-01  3.181222e-01
     vertex  5.870473e-02 -1.883222e-01  3.294156e-01
     vertex  5.870473e-02 -1.442222e-01  3.181222e-01
   endloop
 endfacet
 facet normal  0.000000e+00  0.000000e+00 -1.000000e+00
   outer loop
     vertex  6.357076e-02 -1.885222e-01  3.181222e-01
     vertex  5.870473e-02 -1.442222e-01  3.181222e-01
     vertex  6.357076e-02 -1.442222e-01  3.181222e-01
   endloop
 endfacet
 facet normal  0.000000e+00  0.000000e+00 -1.000000e+00
   outer loop
     vertex  5.870473e-02 -1.885222e-01  3.181222e-01
     vertex  5.870473e-02 -1.442222e-01  3.181222e-01
     vertex  6.357076e-02 -1.885222e-01  3.181222e-01
   endloop
 endfacet
 facet normal  4.226183e-01  0.000000e+00 -9.063078e-01
   outer loop
     vertex  6.382076e-02 -1.442222e-01  3.181892e-01
     vertex  6.382076e-02 -1.885222e-01  3.181892e-01
     vertex  6.374177e-02 -1.885222e-01  3.181524e-01
   endloop
 endfacet
 facet normal  2.588190e-01  1.037822e-14 -9.659258e-01
   outer loop
     vertex  6.374177e-02 -1.442222e-01  3.181524e-01
     vertex  6.374177e-02 -1.885222e-01  3.181524e-01
     vertex  6.365758e-02 -1.885222e-01  3.181298e-01
   endloop
 endfacet
 facet normal  4.226183e-01  1.694629e-14 -9.063078e-01
   outer loop
     vertex  6.374177e-02 -1.442222e-01  3.181524e-01
     vertex  6.382076e-02 -1.442222e-01  3.181892e-01
     vertex  6.374177e-02 -1.885222e-01  3.181524e-01
   endloop
 endfacet
 facet normal  8.715574e-02  0.000000e+00 -9.961947e-01
   outer loop
     vertex  6.365758e-02 -1.442222e-01  3.181298e-01
     vertex  6.365758e-02 -1.885222e-01  3.181298e-01
     vertex  6.357076e-02 -1.885222e-01  3.181222e-01
   endloop
 endfacet
 facet normal  2.588190e-01  0.000000e+00 -9.659258e-01
   outer loop
     vertex  6.365758e-02 -1.442222e-01  3.181298e-01
     vertex  6.374177e-02 -1.442222e-01  3.181524e-01
     vertex  6.365758e-02 -1.885222e-01  3.181298e-01
   endloop
 endfacet
 facet normal  8.715574e-02  0.000000e+00 -9.961947e-01
   outer loop
     vertex  6.357076e-02 -1.442222e-01  3.181222e-01
     vertex  6.365758e-02 -1.442222e-01  3.181298e-01
     vertex  6.357076e-02 -1.885222e-01  3.181222e-01
   endloop
 endfacet
 facet normal  0.000000e+00  0.000000e+00  1.000000e+00
   outer loop
     vertex  5.870473e-02 -1.442222e-01  4.028222e-01
     vertex  5.870473e-02 -1.885222e-01  4.028222e-01
     vertex  6.552931e-02 -1.885222e-01  4.028222e-01
   endloop
 endfacet
 facet normal -0.000000e+00  0.000000e+00  1.000000e+00
   outer loop
     vertex  5.870473e-02 -1.442222e-01  4.028222e-01
     vertex  6.552931e-02 -1.885222e-01  4.028222e-01
     vertex  6.552931e-02 -1.442222e-01  4.028222e-01
   endloop
 endfacet
 facet normal  7.660444e-01  0.000000e+00  6.427876e-01
   outer loop
     vertex  6.585070e-02 -1.885222e-01  4.027053e-01
     vertex  6.596232e-02 -1.885222e-01  4.025722e-01
     vertex  6.596232e-02 -1.442222e-01  4.025722e-01
   endloop
 endfacet
 facet normal  7.660444e-01 -0.000000e+00  6.427876e-01
   outer loop
     vertex  6.585070e-02 -1.885222e-01  4.027053e-01
     vertex  6.596232e-02 -1.442222e-01  4.025722e-01
     vertex  6.585070e-02 -1.442222e-01  4.027053e-01
   endloop
 endfacet
 facet normal  5.000000e-01 -0.000000e+00  8.660254e-01
   outer loop
     vertex  6.570032e-02 -1.885222e-01  4.027921e-01
     vertex  6.585070e-02 -1.442222e-01  4.027053e-01
     vertex  6.570032e-02 -1.442222e-01  4.027921e-01
   endloop
 endfacet
 facet normal  5.000000e-01  0.000000e+00  8.660254e-01
   outer loop
     vertex  6.570032e-02 -1.885222e-01  4.027921e-01
     vertex  6.585070e-02 -1.885222e-01  4.027053e-01
     vertex  6.585070e-02 -1.442222e-01  4.027053e-01
   endloop
 endfacet
 facet normal  1.736482e-01 -0.000000e+00  9.848078e-01
   outer loop
     vertex  6.552931e-02 -1.885222e-01  4.028222e-01
     vertex  6.570032e-02 -1.442222e-01  4.027921e-01
     vertex  6.552931e-02 -1.442222e-01  4.028222e-01
   endloop
 endfacet
 facet normal  1.736482e-01  0.000000e+00  9.848078e-01
   outer loop
     vertex  6.552931e-02 -1.885222e-01  4.028222e-01
     vertex  6.570032e-02 -1.885222e-01  4.027921e-01
     vertex  6.570032e-02 -1.442222e-01  4.027921e-01
   endloop
 endfacet
 facet normal  0.000000e+00  0.000000e+00 -1.000000e+00
   outer loop
     vertex  5.870473e-02 -1.883222e-01  3.894156e-01
     vertex  6.870473e-02 -1.883222e-01  3.894156e-01
     vertex  6.870473e-02 -1.885222e-01  3.894156e-01
   endloop
 endfacet
 facet normal  0.000000e+00  0.000000e+00 -1.000000e+00
   outer loop
     vertex  5.870473e-02 -1.883222e-01  3.894156e-01
     vertex  6.870473e-02 -1.885222e-01  3.894156e-01
     vertex  5.870473e-02 -1.885222e-01  3.894156e-01
   endloop
 endfacet
 facet normal  0.000000e+00 -1.000000e+00  0.000000e+00
   outer loop
     vertex  5.870473e-02 -1.883222e-01  3.854156e-01
     vertex  6.870473e-02 -1.883222e-01  3.894156e-01
     vertex  5.870473e-02 -1.883222e-01  3.894156e-01
   endloop
 endfacet
 facet normal  0.000000e+00 -1.000000e+00  0.000000e+00
   outer loop
     vertex  5.870473e-02 -1.883222e-01  3.854156e-01
     vertex  6.870473e-02 -1.883222e-01  3.854156e-01
     vertex  6.870473e-02 -1.883222e-01  3.894156e-01
   endloop
 endfacet
 facet normal  0.000000e+00  0.000000e+00  1.000000e+00
   outer loop
     vertex  5.870473e-02 -1.885222e-01  3.854156e-01
     vertex  6.870473e-02 -1.883222e-01  3.854156e-01
     vertex  5.870473e-02 -1.883222e-01  3.854156e-01
   endloop
 endfacet
 facet normal  0.000000e+00  0.000000e+00  1.000000e+00
   outer loop
     vertex  5.870473e-02 -1.885222e-01  3.854156e-01
     vertex  6.870473e-02 -1.885222e-01  3.854156e-01
     vertex  6.870473e-02 -1.883222e-01  3.854156e-01
   endloop
 endfacet
 facet normal  0.000000e+00 -1.000000e+00  0.000000e+00
   outer loop
     vertex  6.870473e-02 -1.885222e-01  3.334156e-01
     vertex  6.870473e-02 -1.885222e-01  3.854156e-01
     vertex  5.870473e-02 -1.885222e-01  3.854156e-01
   endloop
 endfacet
 facet normal  0.000000e+00 -1.000000e+00  0.000000e+00
   outer loop
     vertex  5.870473e-02 -1.885222e-01  3.334156e-01
     vertex  6.870473e-02 -1.885222e-01  3.334156e-01
     vertex  5.870473e-02 -1.885222e-01  3.854156e-01
   endloop
 endfacet
 facet normal  0.000000e+00  0.000000e+00 -1.000000e+00
   outer loop
     vertex  5.870473e-02 -1.883222e-01  3.334156e-01
     vertex  6.870473e-02 -1.883222e-01  3.334156e-01
     vertex  6.870473e-02 -1.885222e-01  3.334156e-01
   endloop
 endfacet
 facet normal  0.000000e+00  0.000000e+00 -1.000000e+00
   outer loop
     vertex  5.870473e-02 -1.883222e-01  3.334156e-01
     vertex  6.870473e-02 -1.885222e-01  3.334156e-01
     vertex  5.870473e-02 -1.885222e-01  3.334156e-01
   endloop
 endfacet
 facet normal  0.000000e+00 -1.000000e+00  0.000000e+00
   outer loop
     vertex  5.870473e-02 -1.883222e-01  3.334156e-01
     vertex  6.870473e-02 -1.883222e-01  3.294156e-01
     vertex  6.870473e-02 -1.883222e-01  3.334156e-01
   endloop
 endfacet
 facet normal  0.000000e+00 -1.000000e+00  0.000000e+00
   outer loop
     vertex  5.870473e-02 -1.883222e-01  3.294156e-01
     vertex  6.870473e-02 -1.883222e-01  3.294156e-01
     vertex  5.870473e-02 -1.883222e-01  3.334156e-01
   endloop
 endfacet
 facet normal  0.000000e+00  1.000000e+00  0.000000e+00
   outer loop
     vertex  6.370473e-02 -1.785222e-01  3.714715e-01
     vertex  6.870473e-02 -1.785222e-01  3.464715e-01
     vertex  6.370473e-02 -1.785222e-01  3.464715e-01
   endloop
 endfacet
 facet normal -0.000000e+00  1.000000e+00  0.000000e+00
   outer loop
     vertex  6.370473e-02 -1.785222e-01  3.714715e-01
     vertex  6.870473e-02 -1.785222e-01  3.714715e-01
     vertex  6.870473e-02 -1.785222e-01  3.464715e-01
   endloop
 endfacet
 facet normal  1.000000e+00  0.000000e+00  0.000000e+00
   outer loop
     vertex  6.370473e-02 -1.785222e-01  3.714715e-01
     vertex  6.370473e-02 -1.785222e-01  3.464715e-01
     vertex  6.370473e-02 -1.535222e-01  3.464715e-01
   endloop
 endfacet
 facet normal  1.000000e+00 -0.000000e+00  0.000000e+00
   outer loop
     vertex  6.370473e-02 -1.785222e-01  3.714715e-01
     vertex  6.370473e-02 -1.535222e-01  3.464715e-01
     vertex  6.370473e-02 -1.535222e-01  3.714715e-01
   endloop
 endfacet
 facet normal  0.000000e+00 -1.000000e+00  0.000000e+00
   outer loop
     vertex  6.370473e-02 -1.535222e-01  3.464715e-01
     vertex  6.870473e-02 -1.535222e-01  3.714715e-01
     vertex  6.370473e-02 -1.535222e-01  3.714715e-01
   endloop
 endfacet
 facet normal  0.000000e+00 -1.000000e+00  0.000000e+00
   outer loop
     vertex  6.370473e-02 -1.535222e-01  3.464715e-01
     vertex  6.870473e-02 -1.535222e-01  3.464715e-01
     vertex  6.870473e-02 -1.535222e-01  3.714715e-01
   endloop
 endfacet
 facet normal  0.000000e+00  0.000000e+00  1.000000e+00
   outer loop
     vertex  6.370473e-02 -1.785222e-01  3.464715e-01
     vertex  6.870473e-02 -1.535222e-01  3.464715e-01
     vertex  6.370473e-02 -1.535222e-01  3.464715e-01
   endloop
 endfacet
 facet normal  0.000000e+00  0.000000e+00  1.000000e+00
   outer loop
     vertex  6.370473e-02 -1.785222e-01  3.464715e-01
     vertex  6.870473e-02 -1.785222e-01  3.464715e-01
     vertex  6.870473e-02 -1.535222e-01  3.464715e-01
   endloop
 endfacet
endsolid
