solid 
 facet normal -3.249569e-01 -1.413026e-01  9.351131e-01
   outer loop
     vertex  1.834508e-01  1.165474e-01  7.169990e-01
     vertex  1.833578e-01  1.165841e-01  7.169722e-01
     vertex  1.845985e-01  1.137309e-01  7.169722e-01
   endloop
 endfacet
 facet normal -9.010225e-01 -3.917960e-01  1.861568e-01
   outer loop
     vertex  1.835439e-01  1.165108e-01  7.171722e-01
     vertex  1.835190e-01  1.165206e-01  7.170722e-01
     vertex  1.846718e-01  1.139170e-01  7.171722e-01
   endloop
 endfacet
 facet normal -1.413026e-01  3.249569e-01  9.351131e-01
   outer loop
     vertex  1.861743e-01  1.177317e-01  7.169990e-01
     vertex  1.833578e-01  1.165841e-01  7.169722e-01
     vertex  1.834508e-01  1.165474e-01  7.169990e-01
   endloop
 endfacet
 facet normal -1.413026e-01  3.249569e-01  9.351131e-01
   outer loop
     vertex  1.861743e-01  1.177317e-01  7.169990e-01
     vertex  1.862110e-01  1.178248e-01  7.169722e-01
     vertex  1.833578e-01  1.165841e-01  7.169722e-01
   endloop
 endfacet
 facet normal -3.917960e-01  9.010225e-01  1.861568e-01
   outer loop
     vertex  1.861475e-01  1.176636e-01  7.170722e-01
     vertex  1.835439e-01  1.165108e-01  7.171722e-01
     vertex  1.861377e-01  1.176387e-01  7.171722e-01
   endloop
 endfacet
 facet normal -3.255914e-01  7.487703e-01  5.773503e-01
   outer loop
     vertex  1.861475e-01  1.176636e-01  7.170722e-01
     vertex  1.834508e-01  1.165474e-01  7.169990e-01
     vertex  1.835190e-01  1.165206e-01  7.170722e-01
   endloop
 endfacet
 facet normal -3.917960e-01  9.010225e-01  1.861568e-01
   outer loop
     vertex  1.861475e-01  1.176636e-01  7.170722e-01
     vertex  1.835190e-01  1.165206e-01  7.170722e-01
     vertex  1.835439e-01  1.165108e-01  7.171722e-01
   endloop
 endfacet
 facet normal -3.255914e-01  7.487703e-01  5.773503e-01
   outer loop
     vertex  1.861475e-01  1.176636e-01  7.170722e-01
     vertex  1.861743e-01  1.177317e-01  7.169990e-01
     vertex  1.834508e-01  1.165474e-01  7.169990e-01
   endloop
 endfacet
 facet normal  3.249569e-01  1.413026e-01  9.351131e-01
   outer loop
     vertex  1.873586e-01  1.150082e-01  7.169990e-01
     vertex  1.874517e-01  1.149716e-01  7.169722e-01
     vertex  1.862110e-01  1.178248e-01  7.169722e-01
   endloop
 endfacet
 facet normal  3.249569e-01  1.413026e-01  9.351131e-01
   outer loop
     vertex  1.873586e-01  1.150082e-01  7.169990e-01
     vertex  1.862110e-01  1.178248e-01  7.169722e-01
     vertex  1.861743e-01  1.177317e-01  7.169990e-01
   endloop
 endfacet
 facet normal  9.010225e-01  3.917960e-01  1.861568e-01
   outer loop
     vertex  1.872905e-01  1.150350e-01  7.170722e-01
     vertex  1.861377e-01  1.176387e-01  7.171722e-01
     vertex  1.872656e-01  1.150449e-01  7.171722e-01
   endloop
 endfacet
 facet normal  7.487703e-01  3.255914e-01  5.773503e-01
   outer loop
     vertex  1.872905e-01  1.150350e-01  7.170722e-01
     vertex  1.861743e-01  1.177317e-01  7.169990e-01
     vertex  1.861475e-01  1.176636e-01  7.170722e-01
   endloop
 endfacet
 facet normal  7.487703e-01  3.255914e-01  5.773503e-01
   outer loop
     vertex  1.872905e-01  1.150350e-01  7.170722e-01
     vertex  1.873586e-01  1.150082e-01  7.169990e-01
     vertex  1.861743e-01  1.177317e-01  7.169990e-01
   endloop
 endfacet
 facet normal  9.010225e-01  3.917960e-01  1.861568e-01
   outer loop
     vertex  1.872905e-01  1.150350e-01  7.170722e-01
     vertex  1.861475e-01  1.176636e-01  7.170722e-01
     vertex  1.861377e-01  1.176387e-01  7.171722e-01
   endloop
 endfacet
 facet normal  1.413026e-01 -3.249569e-01  9.351131e-01
   outer loop
     vertex  1.846351e-01  1.138239e-01  7.169990e-01
     vertex  1.845985e-01  1.137309e-01  7.169722e-01
     vertex  1.874517e-01  1.149716e-01  7.169722e-01
   endloop
 endfacet
 facet normal  1.413026e-01 -3.249569e-01  9.351131e-01
   outer loop
     vertex  1.846351e-01  1.138239e-01  7.169990e-01
     vertex  1.874517e-01  1.149716e-01  7.169722e-01
     vertex  1.873586e-01  1.150082e-01  7.169990e-01
   endloop
 endfacet
 facet normal -3.249569e-01 -1.413026e-01  9.351131e-01
   outer loop
     vertex  1.846351e-01  1.138239e-01  7.169990e-01
     vertex  1.834508e-01  1.165474e-01  7.169990e-01
     vertex  1.845985e-01  1.137309e-01  7.169722e-01
   endloop
 endfacet
 facet normal -7.487703e-01 -3.255914e-01  5.773503e-01
   outer loop
     vertex  1.846619e-01  1.138920e-01  7.170722e-01
     vertex  1.835190e-01  1.165206e-01  7.170722e-01
     vertex  1.834508e-01  1.165474e-01  7.169990e-01
   endloop
 endfacet
 facet normal  3.917960e-01 -9.010225e-01  1.861568e-01
   outer loop
     vertex  1.846619e-01  1.138920e-01  7.170722e-01
     vertex  1.872656e-01  1.150449e-01  7.171722e-01
     vertex  1.846718e-01  1.139170e-01  7.171722e-01
   endloop
 endfacet
 facet normal -7.487703e-01 -3.255914e-01  5.773503e-01
   outer loop
     vertex  1.846619e-01  1.138920e-01  7.170722e-01
     vertex  1.834508e-01  1.165474e-01  7.169990e-01
     vertex  1.846351e-01  1.138239e-01  7.169990e-01
   endloop
 endfacet
 facet normal  3.255914e-01 -7.487703e-01  5.773503e-01
   outer loop
     vertex  1.846619e-01  1.138920e-01  7.170722e-01
     vertex  1.846351e-01  1.138239e-01  7.169990e-01
     vertex  1.873586e-01  1.150082e-01  7.169990e-01
   endloop
 endfacet
 facet normal  3.917960e-01 -9.010225e-01  1.861568e-01
   outer loop
     vertex  1.846619e-01  1.138920e-01  7.170722e-01
     vertex  1.872905e-01  1.150350e-01  7.170722e-01
     vertex  1.872656e-01  1.150449e-01  7.171722e-01
   endloop
 endfacet
 facet normal  3.255914e-01 -7.487703e-01  5.773503e-01
   outer loop
     vertex  1.846619e-01  1.138920e-01  7.170722e-01
     vertex  1.873586e-01  1.150082e-01  7.169990e-01
     vertex  1.872905e-01  1.150350e-01  7.170722e-01
   endloop
 endfacet
 facet normal -9.010225e-01 -3.917960e-01  1.861568e-01
   outer loop
     vertex  1.846619e-01  1.138920e-01  7.170722e-01
     vertex  1.846718e-01  1.139170e-01  7.171722e-01
     vertex  1.835190e-01  1.165206e-01  7.170722e-01
   endloop
 endfacet
 facet normal -3.987664e-01  9.170525e-01  0.000000e+00
   outer loop
     vertex  1.861377e-01  1.176387e-01  7.171722e-01
     vertex  1.835439e-01  1.165108e-01  7.171722e-01
     vertex  1.835439e-01  1.165108e-01  7.229722e-01
   endloop
 endfacet
 facet normal -3.987664e-01  9.170525e-01  0.000000e+00
   outer loop
     vertex  1.861377e-01  1.176387e-01  7.171722e-01
     vertex  1.835439e-01  1.165108e-01  7.229722e-01
     vertex  1.861377e-01  1.176387e-01  7.229722e-01
   endloop
 endfacet
 facet normal  9.170525e-01  3.987664e-01 -0.000000e+00
   outer loop
     vertex  1.872656e-01  1.150449e-01  7.171722e-01
     vertex  1.861377e-01  1.176387e-01  7.229722e-01
     vertex  1.872656e-01  1.150449e-01  7.229722e-01
   endloop
 endfacet
 facet normal  9.170525e-01  3.987664e-01  0.000000e+00
   outer loop
     vertex  1.872656e-01  1.150449e-01  7.171722e-01
     vertex  1.861377e-01  1.176387e-01  7.171722e-01
     vertex  1.861377e-01  1.176387e-01  7.229722e-01
   endloop
 endfacet
 facet normal  3.987664e-01 -9.170525e-01  0.000000e+00
   outer loop
     vertex  1.846718e-01  1.139170e-01  7.171722e-01
     vertex  1.872656e-01  1.150449e-01  7.229722e-01
     vertex  1.846718e-01  1.139170e-01  7.229722e-01
   endloop
 endfacet
 facet normal  3.987664e-01 -9.170525e-01  0.000000e+00
   outer loop
     vertex  1.846718e-01  1.139170e-01  7.171722e-01
     vertex  1.872656e-01  1.150449e-01  7.171722e-01
     vertex  1.872656e-01  1.150449e-01  7.229722e-01
   endloop
 endfacet
 facet normal -9.170525e-01 -3.987664e-01  0.000000e+00
   outer loop
     vertex  1.835439e-01  1.165108e-01  7.171722e-01
     vertex  1.846718e-01  1.139170e-01  7.229722e-01
     vertex  1.835439e-01  1.165108e-01  7.229722e-01
   endloop
 endfacet
 facet normal -9.170525e-01 -3.987664e-01  0.000000e+00
   outer loop
     vertex  1.835439e-01  1.165108e-01  7.171722e-01
     vertex  1.846718e-01  1.139170e-01  7.171722e-01
     vertex  1.846718e-01  1.139170e-01  7.229722e-01
   endloop
 endfacet
 facet normal -0.000000e+00  0.000000e+00  1.000000e+00
   outer loop
     vertex  1.835439e-01  1.165108e-01  7.229722e-01
     vertex  1.872656e-01  1.150449e-01  7.229722e-01
     vertex  1.861377e-01  1.176387e-01  7.229722e-01
   endloop
 endfacet
 facet normal  0.000000e+00 -0.000000e+00  1.000000e+00
   outer loop
     vertex  1.846718e-01  1.139170e-01  7.229722e-01
     vertex  1.872656e-01  1.150449e-01  7.229722e-01
     vertex  1.835439e-01  1.165108e-01  7.229722e-01
   endloop
 endfacet
 facet normal  0.000000e+00 -0.000000e+00  1.000000e+00
   outer loop
     vertex  1.833578e-01  1.165841e-01  7.169722e-01
     vertex  1.868707e-01  1.194995e-01  7.169722e-01
     vertex  1.816830e-01  1.172438e-01  7.169722e-01
   endloop
 endfacet
 facet normal  0.000000e+00 -0.000000e+00  1.000000e+00
   outer loop
     vertex  1.862110e-01  1.178248e-01  7.169722e-01
     vertex  1.868707e-01  1.194995e-01  7.169722e-01
     vertex  1.833578e-01  1.165841e-01  7.169722e-01
   endloop
 endfacet
 facet normal  0.000000e+00  0.000000e+00  1.000000e+00
   outer loop
     vertex  1.874517e-01  1.149716e-01  7.169722e-01
     vertex  1.868707e-01  1.194995e-01  7.169722e-01
     vertex  1.862110e-01  1.178248e-01  7.169722e-01
   endloop
 endfacet
 facet normal  0.000000e+00 -0.000000e+00  1.000000e+00
   outer loop
     vertex  1.839388e-01  1.120561e-01  7.169722e-01
     vertex  1.845985e-01  1.137309e-01  7.169722e-01
     vertex  1.833578e-01  1.165841e-01  7.169722e-01
   endloop
 endfacet
 facet normal  0.000000e+00  0.000000e+00  1.000000e+00
   outer loop
     vertex  1.839388e-01  1.120561e-01  7.169722e-01
     vertex  1.874517e-01  1.149716e-01  7.169722e-01
     vertex  1.845985e-01  1.137309e-01  7.169722e-01
   endloop
 endfacet
 facet normal  0.000000e+00  0.000000e+00  1.000000e+00
   outer loop
     vertex  1.839388e-01  1.120561e-01  7.169722e-01
     vertex  1.833578e-01  1.165841e-01  7.169722e-01
     vertex  1.816830e-01  1.172438e-01  7.169722e-01
   endloop
 endfacet
 facet normal  0.000000e+00  0.000000e+00  1.000000e+00
   outer loop
     vertex  1.891264e-01  1.143119e-01  7.169722e-01
     vertex  1.868707e-01  1.194995e-01  7.169722e-01
     vertex  1.874517e-01  1.149716e-01  7.169722e-01
   endloop
 endfacet
 facet normal  0.000000e+00  0.000000e+00  1.000000e+00
   outer loop
     vertex  1.891264e-01  1.143119e-01  7.169722e-01
     vertex  1.874517e-01  1.149716e-01  7.169722e-01
     vertex  1.839388e-01  1.120561e-01  7.169722e-01
   endloop
 endfacet
 facet normal -3.987664e-01  9.170525e-01  0.000000e+00
   outer loop
     vertex  1.868707e-01  1.194995e-01  7.154275e-01
     vertex  1.816830e-01  1.172438e-01  7.154275e-01
     vertex  1.816830e-01  1.172438e-01  7.169722e-01
   endloop
 endfacet
 facet normal -3.987664e-01  9.170525e-01  0.000000e+00
   outer loop
     vertex  1.868707e-01  1.194995e-01  7.154275e-01
     vertex  1.816830e-01  1.172438e-01  7.169722e-01
     vertex  1.868707e-01  1.194995e-01  7.169722e-01
   endloop
 endfacet
 facet normal  9.170525e-01  3.987664e-01 -0.000000e+00
   outer loop
     vertex  1.891264e-01  1.143119e-01  7.154275e-01
     vertex  1.868707e-01  1.194995e-01  7.169722e-01
     vertex  1.891264e-01  1.143119e-01  7.169722e-01
   endloop
 endfacet
 facet normal  9.170525e-01  3.987664e-01  0.000000e+00
   outer loop
     vertex  1.891264e-01  1.143119e-01  7.154275e-01
     vertex  1.868707e-01  1.194995e-01  7.154275e-01
     vertex  1.868707e-01  1.194995e-01  7.169722e-01
   endloop
 endfacet
 facet normal  3.987664e-01 -9.170525e-01  0.000000e+00
   outer loop
     vertex  1.839388e-01  1.120561e-01  7.154275e-01
     vertex  1.891264e-01  1.143119e-01  7.169722e-01
     vertex  1.839388e-01  1.120561e-01  7.169722e-01
   endloop
 endfacet
 facet normal  3.987664e-01 -9.170525e-01  0.000000e+00
   outer loop
     vertex  1.839388e-01  1.120561e-01  7.154275e-01
     vertex  1.891264e-01  1.143119e-01  7.154275e-01
     vertex  1.891264e-01  1.143119e-01  7.169722e-01
   endloop
 endfacet
 facet normal -9.170525e-01 -3.987664e-01  0.000000e+00
   outer loop
     vertex  1.816830e-01  1.172438e-01  7.154275e-01
     vertex  1.839388e-01  1.120561e-01  7.169722e-01
     vertex  1.816830e-01  1.172438e-01  7.169722e-01
   endloop
 endfacet
 facet normal -9.170525e-01 -3.987664e-01  0.000000e+00
   outer loop
     vertex  1.816830e-01  1.172438e-01  7.154275e-01
     vertex  1.839388e-01  1.120561e-01  7.154275e-01
     vertex  1.839388e-01  1.120561e-01  7.169722e-01
   endloop
 endfacet
 facet normal -9.114308e-01 -3.963218e-01 -1.105573e-01
   outer loop
     vertex  1.816992e-01  1.172374e-01  7.153170e-01
     vertex  1.839388e-01  1.120561e-01  7.154275e-01
     vertex  1.816830e-01  1.172438e-01  7.154275e-01
   endloop
 endfacet
 facet normal -3.963218e-01  9.114308e-01 -1.105573e-01
   outer loop
     vertex  1.868643e-01  1.194833e-01  7.153170e-01
     vertex  1.816992e-01  1.172374e-01  7.153170e-01
     vertex  1.816830e-01  1.172438e-01  7.154275e-01
   endloop
 endfacet
 facet normal -3.963218e-01  9.114308e-01 -1.105573e-01
   outer loop
     vertex  1.868643e-01  1.194833e-01  7.153170e-01
     vertex  1.816830e-01  1.172438e-01  7.154275e-01
     vertex  1.868707e-01  1.194995e-01  7.154275e-01
   endloop
 endfacet
 facet normal -3.267169e-01  7.513586e-01 -5.733379e-01
   outer loop
     vertex  1.868458e-01  1.194364e-01  7.152172e-01
     vertex  1.868169e-01  1.193631e-01  7.151376e-01
     vertex  1.818194e-01  1.171900e-01  7.151376e-01
   endloop
 endfacet
 facet normal -3.267169e-01  7.513586e-01 -5.733379e-01
   outer loop
     vertex  1.868458e-01  1.194364e-01  7.152172e-01
     vertex  1.818194e-01  1.171900e-01  7.151376e-01
     vertex  1.817462e-01  1.172189e-01  7.152172e-01
   endloop
 endfacet
 facet normal -3.754916e-01  8.635269e-01 -3.366412e-01
   outer loop
     vertex  1.868458e-01  1.194364e-01  7.152172e-01
     vertex  1.817462e-01  1.172189e-01  7.152172e-01
     vertex  1.816992e-01  1.172374e-01  7.153170e-01
   endloop
 endfacet
 facet normal -3.754916e-01  8.635269e-01 -3.366412e-01
   outer loop
     vertex  1.868458e-01  1.194364e-01  7.152172e-01
     vertex  1.816992e-01  1.172374e-01  7.153170e-01
     vertex  1.868643e-01  1.194833e-01  7.153170e-01
   endloop
 endfacet
 facet normal  9.114308e-01  3.963218e-01 -1.105573e-01
   outer loop
     vertex  1.891103e-01  1.143183e-01  7.153170e-01
     vertex  1.868707e-01  1.194995e-01  7.154275e-01
     vertex  1.891264e-01  1.143119e-01  7.154275e-01
   endloop
 endfacet
 facet normal  9.114308e-01  3.963218e-01 -1.105573e-01
   outer loop
     vertex  1.891103e-01  1.143183e-01  7.153170e-01
     vertex  1.868643e-01  1.194833e-01  7.153170e-01
     vertex  1.868707e-01  1.194995e-01  7.154275e-01
   endloop
 endfacet
 facet normal  7.513586e-01  3.267169e-01 -5.733379e-01
   outer loop
     vertex  1.890633e-01  1.143368e-01  7.152172e-01
     vertex  1.889900e-01  1.143656e-01  7.151376e-01
     vertex  1.868169e-01  1.193631e-01  7.151376e-01
   endloop
 endfacet
 facet normal  8.635269e-01  3.754916e-01 -3.366412e-01
   outer loop
     vertex  1.890633e-01  1.143368e-01  7.152172e-01
     vertex  1.868458e-01  1.194364e-01  7.152172e-01
     vertex  1.868643e-01  1.194833e-01  7.153170e-01
   endloop
 endfacet
 facet normal  8.635269e-01  3.754916e-01 -3.366412e-01
   outer loop
     vertex  1.890633e-01  1.143368e-01  7.152172e-01
     vertex  1.868643e-01  1.194833e-01  7.153170e-01
     vertex  1.891103e-01  1.143183e-01  7.153170e-01
   endloop
 endfacet
 facet normal  7.513586e-01  3.267169e-01 -5.733379e-01
   outer loop
     vertex  1.890633e-01  1.143368e-01  7.152172e-01
     vertex  1.868169e-01  1.193631e-01  7.151376e-01
     vertex  1.868458e-01  1.194364e-01  7.152172e-01
   endloop
 endfacet
 facet normal  3.963218e-01 -9.114308e-01 -1.105573e-01
   outer loop
     vertex  1.839452e-01  1.120723e-01  7.153170e-01
     vertex  1.891264e-01  1.143119e-01  7.154275e-01
     vertex  1.839388e-01  1.120561e-01  7.154275e-01
   endloop
 endfacet
 facet normal  3.963218e-01 -9.114308e-01 -1.105573e-01
   outer loop
     vertex  1.839452e-01  1.120723e-01  7.153170e-01
     vertex  1.891103e-01  1.143183e-01  7.153170e-01
     vertex  1.891264e-01  1.143119e-01  7.154275e-01
   endloop
 endfacet
 facet normal -9.114308e-01 -3.963218e-01 -1.105573e-01
   outer loop
     vertex  1.839452e-01  1.120723e-01  7.153170e-01
     vertex  1.839388e-01  1.120561e-01  7.154275e-01
     vertex  1.816992e-01  1.172374e-01  7.153170e-01
   endloop
 endfacet
 facet normal  3.267169e-01 -7.513586e-01 -5.733379e-01
   outer loop
     vertex  1.839637e-01  1.121193e-01  7.152172e-01
     vertex  1.839925e-01  1.121925e-01  7.151376e-01
     vertex  1.889900e-01  1.143656e-01  7.151376e-01
   endloop
 endfacet
 facet normal -7.513586e-01 -3.267169e-01 -5.733379e-01
   outer loop
     vertex  1.839637e-01  1.121193e-01  7.152172e-01
     vertex  1.818194e-01  1.171900e-01  7.151376e-01
     vertex  1.839925e-01  1.121925e-01  7.151376e-01
   endloop
 endfacet
 facet normal -7.513586e-01 -3.267169e-01 -5.733379e-01
   outer loop
     vertex  1.839637e-01  1.121193e-01  7.152172e-01
     vertex  1.817462e-01  1.172189e-01  7.152172e-01
     vertex  1.818194e-01  1.171900e-01  7.151376e-01
   endloop
 endfacet
 facet normal -8.635269e-01 -3.754916e-01 -3.366412e-01
   outer loop
     vertex  1.839637e-01  1.121193e-01  7.152172e-01
     vertex  1.816992e-01  1.172374e-01  7.153170e-01
     vertex  1.817462e-01  1.172189e-01  7.152172e-01
   endloop
 endfacet
 facet normal  3.754916e-01 -8.635269e-01 -3.366412e-01
   outer loop
     vertex  1.839637e-01  1.121193e-01  7.152172e-01
     vertex  1.891103e-01  1.143183e-01  7.153170e-01
     vertex  1.839452e-01  1.120723e-01  7.153170e-01
   endloop
 endfacet
 facet normal  3.754916e-01 -8.635269e-01 -3.366412e-01
   outer loop
     vertex  1.839637e-01  1.121193e-01  7.152172e-01
     vertex  1.890633e-01  1.143368e-01  7.152172e-01
     vertex  1.891103e-01  1.143183e-01  7.153170e-01
   endloop
 endfacet
 facet normal -8.635269e-01 -3.754916e-01 -3.366412e-01
   outer loop
     vertex  1.839637e-01  1.121193e-01  7.152172e-01
     vertex  1.839452e-01  1.120723e-01  7.153170e-01
     vertex  1.816992e-01  1.172374e-01  7.153170e-01
   endloop
 endfacet
 facet normal  3.267169e-01 -7.513586e-01 -5.733379e-01
   outer loop
     vertex  1.839637e-01  1.121193e-01  7.152172e-01
     vertex  1.889900e-01  1.143656e-01  7.151376e-01
     vertex  1.890633e-01  1.143368e-01  7.152172e-01
   endloop
 endfacet
 facet normal -2.784040e-01  6.402524e-01 -7.159386e-01
   outer loop
     vertex  1.856529e-01  1.178130e-01  7.142041e-01
     vertex  1.818194e-01  1.171900e-01  7.151376e-01
     vertex  1.868169e-01  1.193631e-01  7.151376e-01
   endloop
 endfacet
 facet normal -2.784040e-01  6.402524e-01 -7.159386e-01
   outer loop
     vertex  1.837470e-01  1.169843e-01  7.142041e-01
     vertex  1.818194e-01  1.171900e-01  7.151376e-01
     vertex  1.856529e-01  1.178130e-01  7.142041e-01
   endloop
 endfacet
 facet normal  1.181116e-01  4.457144e-01 -8.873490e-01
   outer loop
     vertex  1.859752e-01  1.176949e-01  7.141876e-01
     vertex  1.856529e-01  1.178130e-01  7.142041e-01
     vertex  1.868169e-01  1.193631e-01  7.151376e-01
   endloop
 endfacet
 facet normal -1.510857e-01  3.474554e-01 -9.254447e-01
   outer loop
     vertex  1.855184e-01  1.174715e-01  7.140978e-01
     vertex  1.837470e-01  1.169843e-01  7.142041e-01
     vertex  1.856529e-01  1.178130e-01  7.142041e-01
   endloop
 endfacet
 facet normal -1.510857e-01  3.474554e-01 -9.254447e-01
   outer loop
     vertex  1.840885e-01  1.168498e-01  7.140978e-01
     vertex  1.837470e-01  1.169843e-01  7.142041e-01
     vertex  1.855184e-01  1.174715e-01  7.140978e-01
   endloop
 endfacet
 facet normal -4.065350e-01  2.175798e-01 -8.873490e-01
   outer loop
     vertex  1.836136e-01  1.166680e-01  7.141876e-01
     vertex  1.818194e-01  1.171900e-01  7.151376e-01
     vertex  1.837470e-01  1.169843e-01  7.142041e-01
   endloop
 endfacet
 facet normal  1.666505e-01  4.230905e-01 -8.906301e-01
   outer loop
     vertex  1.862949e-01  1.175690e-01  7.141876e-01
     vertex  1.859752e-01  1.176949e-01  7.141876e-01
     vertex  1.868169e-01  1.193631e-01  7.151376e-01
   endloop
 endfacet
 facet normal -1.216782e-01  2.798262e-01 -9.523086e-01
   outer loop
     vertex  1.853818e-01  1.171248e-01  7.140134e-01
     vertex  1.840885e-01  1.168498e-01  7.140978e-01
     vertex  1.855184e-01  1.174715e-01  7.140978e-01
   endloop
 endfacet
 facet normal -1.216782e-01  2.798262e-01 -9.523086e-01
   outer loop
     vertex  1.844353e-01  1.167132e-01  7.140134e-01
     vertex  1.840885e-01  1.168498e-01  7.140978e-01
     vertex  1.853818e-01  1.171248e-01  7.140134e-01
   endloop
 endfacet
 facet normal -4.230905e-01  1.666505e-01 -8.906301e-01
   outer loop
     vertex  1.834877e-01  1.163483e-01  7.141876e-01
     vertex  1.818194e-01  1.171900e-01  7.151376e-01
     vertex  1.836136e-01  1.166680e-01  7.141876e-01
   endloop
 endfacet
 facet normal  2.175798e-01  4.065350e-01 -8.873490e-01
   outer loop
     vertex  1.866112e-01  1.174356e-01  7.142041e-01
     vertex  1.862949e-01  1.175690e-01  7.141876e-01
     vertex  1.868169e-01  1.193631e-01  7.151376e-01
   endloop
 endfacet
 facet normal -1.007138e-01  2.316139e-01 -9.675804e-01
   outer loop
     vertex  1.850807e-01  1.167335e-01  7.139510e-01
     vertex  1.844353e-01  1.167132e-01  7.140134e-01
     vertex  1.853818e-01  1.171248e-01  7.140134e-01
   endloop
 endfacet
 facet normal -1.007138e-01  2.316139e-01 -9.675804e-01
   outer loop
     vertex  1.849268e-01  1.166666e-01  7.139510e-01
     vertex  1.844353e-01  1.167132e-01  7.140134e-01
     vertex  1.850807e-01  1.167335e-01  7.139510e-01
   endloop
 endfacet
 facet normal -4.797787e-02  1.930165e-01 -9.800218e-01
   outer loop
     vertex  1.852436e-01  1.167740e-01  7.139510e-01
     vertex  1.850807e-01  1.167335e-01  7.139510e-01
     vertex  1.853818e-01  1.171248e-01  7.140134e-01
   endloop
 endfacet
 facet normal -1.084488e-01  1.667217e-01 -9.800218e-01
   outer loop
     vertex  1.847860e-01  1.165750e-01  7.139510e-01
     vertex  1.844353e-01  1.167132e-01  7.140134e-01
     vertex  1.849268e-01  1.166666e-01  7.139510e-01
   endloop
 endfacet
 facet normal -4.457144e-01  1.181116e-01 -8.873490e-01
   outer loop
     vertex  1.833695e-01  1.160260e-01  7.142041e-01
     vertex  1.818194e-01  1.171900e-01  7.151376e-01
     vertex  1.834877e-01  1.163483e-01  7.141876e-01
   endloop
 endfacet
 facet normal  1.667217e-01  1.084488e-01 -9.800218e-01
   outer loop
     vertex  1.862935e-01  1.162558e-01  7.139510e-01
     vertex  1.862019e-01  1.163965e-01  7.139510e-01
     vertex  1.863401e-01  1.167473e-01  7.140134e-01
   endloop
 endfacet
 facet normal -1.930165e-01 -4.797787e-02 -9.800218e-01
   outer loop
     vertex  1.844491e-01  1.154538e-01  7.139510e-01
     vertex  1.840578e-01  1.157549e-01  7.140134e-01
     vertex  1.844086e-01  1.156167e-01  7.139510e-01
   endloop
 endfacet
 facet normal -2.316139e-01 -1.007138e-01 -9.675804e-01
   outer loop
     vertex  1.845160e-01  1.152998e-01  7.139510e-01
     vertex  1.840578e-01  1.157549e-01  7.140134e-01
     vertex  1.844491e-01  1.154538e-01  7.139510e-01
   endloop
 endfacet
 facet normal  2.316139e-01  1.007138e-01 -9.675804e-01
   outer loop
     vertex  1.867517e-01  1.158008e-01  7.140134e-01
     vertex  1.862935e-01  1.162558e-01  7.139510e-01
     vertex  1.863401e-01  1.167473e-01  7.140134e-01
   endloop
 endfacet
 facet normal  2.316139e-01  1.007138e-01 -9.675804e-01
   outer loop
     vertex  1.867517e-01  1.158008e-01  7.140134e-01
     vertex  1.863604e-01  1.161019e-01  7.139510e-01
     vertex  1.862935e-01  1.162558e-01  7.139510e-01
   endloop
 endfacet
 facet normal  1.930165e-01  4.797787e-02 -9.800218e-01
   outer loop
     vertex  1.867517e-01  1.158008e-01  7.140134e-01
     vertex  1.864009e-01  1.159390e-01  7.139510e-01
     vertex  1.863604e-01  1.161019e-01  7.139510e-01
   endloop
 endfacet
 facet normal -2.316139e-01 -1.007138e-01 -9.675804e-01
   outer loop
     vertex  1.844694e-01  1.148084e-01  7.140134e-01
     vertex  1.840578e-01  1.157549e-01  7.140134e-01
     vertex  1.845160e-01  1.152998e-01  7.139510e-01
   endloop
 endfacet
 facet normal -2.798262e-01 -1.216782e-01 -9.523086e-01
   outer loop
     vertex  1.844694e-01  1.148084e-01  7.140134e-01
     vertex  1.837110e-01  1.158914e-01  7.140978e-01
     vertex  1.840578e-01  1.157549e-01  7.140134e-01
   endloop
 endfacet
 facet normal -1.667217e-01 -1.084488e-01 -9.800218e-01
   outer loop
     vertex  1.844694e-01  1.148084e-01  7.140134e-01
     vertex  1.845160e-01  1.152998e-01  7.139510e-01
     vertex  1.846075e-01  1.151591e-01  7.139510e-01
   endloop
 endfacet
 facet normal  2.798262e-01  1.216782e-01 -9.523086e-01
   outer loop
     vertex  1.870984e-01  1.156642e-01  7.140978e-01
     vertex  1.863401e-01  1.167473e-01  7.140134e-01
     vertex  1.864767e-01  1.170940e-01  7.140978e-01
   endloop
 endfacet
 facet normal  2.798262e-01  1.216782e-01 -9.523086e-01
   outer loop
     vertex  1.870984e-01  1.156642e-01  7.140978e-01
     vertex  1.867517e-01  1.158008e-01  7.140134e-01
     vertex  1.863401e-01  1.167473e-01  7.140134e-01
   endloop
 endfacet
 facet normal -2.798262e-01 -1.216782e-01 -9.523086e-01
   outer loop
     vertex  1.843328e-01  1.144616e-01  7.140978e-01
     vertex  1.837110e-01  1.158914e-01  7.140978e-01
     vertex  1.844694e-01  1.148084e-01  7.140134e-01
   endloop
 endfacet
 facet normal -3.474554e-01 -1.510857e-01 -9.254447e-01
   outer loop
     vertex  1.843328e-01  1.144616e-01  7.140978e-01
     vertex  1.833695e-01  1.160260e-01  7.142041e-01
     vertex  1.837110e-01  1.158914e-01  7.140978e-01
   endloop
 endfacet
 facet normal  3.474554e-01  1.510857e-01 -9.254447e-01
   outer loop
     vertex  1.874400e-01  1.155297e-01  7.142041e-01
     vertex  1.864767e-01  1.170940e-01  7.140978e-01
     vertex  1.866112e-01  1.174356e-01  7.142041e-01
   endloop
 endfacet
 facet normal  3.474554e-01  1.510857e-01 -9.254447e-01
   outer loop
     vertex  1.874400e-01  1.155297e-01  7.142041e-01
     vertex  1.870984e-01  1.156642e-01  7.140978e-01
     vertex  1.864767e-01  1.170940e-01  7.140978e-01
   endloop
 endfacet
 facet normal -3.474554e-01 -1.510857e-01 -9.254447e-01
   outer loop
     vertex  1.841983e-01  1.141201e-01  7.142041e-01
     vertex  1.833695e-01  1.160260e-01  7.142041e-01
     vertex  1.843328e-01  1.144616e-01  7.140978e-01
   endloop
 endfacet
 facet normal -6.402524e-01 -2.784040e-01 -7.159386e-01
   outer loop
     vertex  1.841983e-01  1.141201e-01  7.142041e-01
     vertex  1.818194e-01  1.171900e-01  7.151376e-01
     vertex  1.833695e-01  1.160260e-01  7.142041e-01
   endloop
 endfacet
 facet normal  1.084488e-01 -1.667217e-01 -9.800218e-01
   outer loop
     vertex  1.863742e-01  1.148425e-01  7.140134e-01
     vertex  1.858827e-01  1.148891e-01  7.139510e-01
     vertex  1.860234e-01  1.149806e-01  7.139510e-01
   endloop
 endfacet
 facet normal  1.007138e-01 -2.316139e-01 -9.675804e-01
   outer loop
     vertex  1.863742e-01  1.148425e-01  7.140134e-01
     vertex  1.857288e-01  1.148221e-01  7.139510e-01
     vertex  1.858827e-01  1.148891e-01  7.139510e-01
   endloop
 endfacet
 facet normal  1.007138e-01 -2.316139e-01 -9.675804e-01
   outer loop
     vertex  1.854277e-01  1.144309e-01  7.140134e-01
     vertex  1.857288e-01  1.148221e-01  7.139510e-01
     vertex  1.863742e-01  1.148425e-01  7.140134e-01
   endloop
 endfacet
 facet normal  4.797787e-02 -1.930165e-01 -9.800218e-01
   outer loop
     vertex  1.854277e-01  1.144309e-01  7.140134e-01
     vertex  1.855659e-01  1.147817e-01  7.139510e-01
     vertex  1.857288e-01  1.148221e-01  7.139510e-01
   endloop
 endfacet
 facet normal  1.216782e-01 -2.798262e-01 -9.523086e-01
   outer loop
     vertex  1.867210e-01  1.147059e-01  7.140978e-01
     vertex  1.854277e-01  1.144309e-01  7.140134e-01
     vertex  1.863742e-01  1.148425e-01  7.140134e-01
   endloop
 endfacet
 facet normal  1.216782e-01 -2.798262e-01 -9.523086e-01
   outer loop
     vertex  1.852911e-01  1.140841e-01  7.140978e-01
     vertex  1.854277e-01  1.144309e-01  7.140134e-01
     vertex  1.867210e-01  1.147059e-01  7.140978e-01
   endloop
 endfacet
 facet normal  1.510857e-01 -3.474554e-01 -9.254447e-01
   outer loop
     vertex  1.870625e-01  1.145713e-01  7.142041e-01
     vertex  1.852911e-01  1.140841e-01  7.140978e-01
     vertex  1.867210e-01  1.147059e-01  7.140978e-01
   endloop
 endfacet
 facet normal  1.510857e-01 -3.474554e-01 -9.254447e-01
   outer loop
     vertex  1.851566e-01  1.137426e-01  7.142041e-01
     vertex  1.852911e-01  1.140841e-01  7.140978e-01
     vertex  1.870625e-01  1.145713e-01  7.142041e-01
   endloop
 endfacet
 facet normal  6.402524e-01  2.784040e-01 -7.159386e-01
   outer loop
     vertex  1.889900e-01  1.143656e-01  7.151376e-01
     vertex  1.874400e-01  1.155297e-01  7.142041e-01
     vertex  1.866112e-01  1.174356e-01  7.142041e-01
   endloop
 endfacet
 facet normal  4.457144e-01 -1.181116e-01 -8.873490e-01
   outer loop
     vertex  1.889900e-01  1.143656e-01  7.151376e-01
     vertex  1.873218e-01  1.152074e-01  7.141876e-01
     vertex  1.874400e-01  1.155297e-01  7.142041e-01
   endloop
 endfacet
 facet normal  4.230905e-01 -1.666505e-01 -8.906301e-01
   outer loop
     vertex  1.889900e-01  1.143656e-01  7.151376e-01
     vertex  1.871959e-01  1.148876e-01  7.141876e-01
     vertex  1.873218e-01  1.152074e-01  7.141876e-01
   endloop
 endfacet
 facet normal  4.065350e-01 -2.175798e-01 -8.873490e-01
   outer loop
     vertex  1.889900e-01  1.143656e-01  7.151376e-01
     vertex  1.870625e-01  1.145713e-01  7.142041e-01
     vertex  1.871959e-01  1.148876e-01  7.141876e-01
   endloop
 endfacet
 facet normal  2.784040e-01 -6.402524e-01 -7.159386e-01
   outer loop
     vertex  1.889900e-01  1.143656e-01  7.151376e-01
     vertex  1.851566e-01  1.137426e-01  7.142041e-01
     vertex  1.870625e-01  1.145713e-01  7.142041e-01
   endloop
 endfacet
 facet normal  6.402524e-01  2.784040e-01 -7.159386e-01
   outer loop
     vertex  1.889900e-01  1.143656e-01  7.151376e-01
     vertex  1.866112e-01  1.174356e-01  7.142041e-01
     vertex  1.868169e-01  1.193631e-01  7.151376e-01
   endloop
 endfacet
 facet normal  2.784040e-01 -6.402524e-01 -7.159386e-01
   outer loop
     vertex  1.839925e-01  1.121925e-01  7.151376e-01
     vertex  1.851566e-01  1.137426e-01  7.142041e-01
     vertex  1.889900e-01  1.143656e-01  7.151376e-01
   endloop
 endfacet
 facet normal -1.181116e-01 -4.457144e-01 -8.873490e-01
   outer loop
     vertex  1.839925e-01  1.121925e-01  7.151376e-01
     vertex  1.848343e-01  1.138607e-01  7.141876e-01
     vertex  1.851566e-01  1.137426e-01  7.142041e-01
   endloop
 endfacet
 facet normal -1.666505e-01 -4.230905e-01 -8.906301e-01
   outer loop
     vertex  1.839925e-01  1.121925e-01  7.151376e-01
     vertex  1.845145e-01  1.139867e-01  7.141876e-01
     vertex  1.848343e-01  1.138607e-01  7.141876e-01
   endloop
 endfacet
 facet normal -2.175798e-01 -4.065350e-01 -8.873490e-01
   outer loop
     vertex  1.839925e-01  1.121925e-01  7.151376e-01
     vertex  1.841983e-01  1.141201e-01  7.142041e-01
     vertex  1.845145e-01  1.139867e-01  7.141876e-01
   endloop
 endfacet
 facet normal -6.402524e-01 -2.784040e-01 -7.159386e-01
   outer loop
     vertex  1.839925e-01  1.121925e-01  7.151376e-01
     vertex  1.818194e-01  1.171900e-01  7.151376e-01
     vertex  1.841983e-01  1.141201e-01  7.142041e-01
   endloop
 endfacet
 facet normal -9.304245e-01  3.664837e-01  1.082835e-11
   outer loop
     vertex  1.862443e-01  1.165040e-01  7.162122e-01
     vertex  1.863401e-01  1.167473e-01  7.140134e-01
     vertex  1.862019e-01  1.163965e-01  7.139510e-01
   endloop
 endfacet
 facet normal -9.304245e-01  3.664837e-01  2.147535e-11
   outer loop
     vertex  1.862443e-01  1.165040e-01  7.162122e-01
     vertex  1.864767e-01  1.170940e-01  7.140978e-01
     vertex  1.863401e-01  1.167473e-01  7.140134e-01
   endloop
 endfacet
 facet normal -9.304245e-01  3.664837e-01  8.931061e-12
   outer loop
     vertex  1.862443e-01  1.165040e-01  7.162122e-01
     vertex  1.866112e-01  1.174356e-01  7.142041e-01
     vertex  1.864767e-01  1.170940e-01  7.140978e-01
   endloop
 endfacet
 facet normal -9.304245e-01  3.664837e-01  6.972864e-12
   outer loop
     vertex  1.861322e-01  1.162194e-01  7.162122e-01
     vertex  1.862443e-01  1.165040e-01  7.162122e-01
     vertex  1.862019e-01  1.163965e-01  7.139510e-01
   endloop
 endfacet
 facet normal -0.000000e+00  0.000000e+00 -1.000000e+00
   outer loop
     vertex  1.855391e-01  1.166181e-01  7.162122e-01
     vertex  1.851738e-01  1.165969e-01  7.162122e-01
     vertex  1.852859e-01  1.168815e-01  7.162122e-01
   endloop
 endfacet
 facet normal  0.000000e+00  0.000000e+00 -1.000000e+00
   outer loop
     vertex  1.858795e-01  1.164841e-01  7.162122e-01
     vertex  1.855391e-01  1.166181e-01  7.162122e-01
     vertex  1.852859e-01  1.168815e-01  7.162122e-01
   endloop
 endfacet
 facet normal -0.000000e+00  0.000000e+00 -1.000000e+00
   outer loop
     vertex  1.862443e-01  1.165040e-01  7.162122e-01
     vertex  1.858795e-01  1.164841e-01  7.162122e-01
     vertex  1.852859e-01  1.168815e-01  7.162122e-01
   endloop
 endfacet
 facet normal  0.000000e+00  0.000000e+00 -1.000000e+00
   outer loop
     vertex  1.861322e-01  1.162194e-01  7.162122e-01
     vertex  1.858795e-01  1.164841e-01  7.162122e-01
     vertex  1.862443e-01  1.165040e-01  7.162122e-01
   endloop
 endfacet
 facet normal  9.304245e-01 -3.664837e-01 -7.256634e-11
   outer loop
     vertex  1.852859e-01  1.168815e-01  7.162122e-01
     vertex  1.855184e-01  1.174715e-01  7.140978e-01
     vertex  1.856529e-01  1.178130e-01  7.142041e-01
   endloop
 endfacet
 facet normal  9.304245e-01 -3.664837e-01 -2.602479e-11
   outer loop
     vertex  1.852859e-01  1.168815e-01  7.162122e-01
     vertex  1.853818e-01  1.171248e-01  7.140134e-01
     vertex  1.855184e-01  1.174715e-01  7.140978e-01
   endloop
 endfacet
 facet normal  9.304245e-01 -3.664837e-01 -1.373028e-11
   outer loop
     vertex  1.852859e-01  1.168815e-01  7.162122e-01
     vertex  1.852436e-01  1.167740e-01  7.139510e-01
     vertex  1.853818e-01  1.171248e-01  7.140134e-01
   endloop
 endfacet
 facet normal  9.304245e-01 -3.664837e-01 -6.972864e-12
   outer loop
     vertex  1.851738e-01  1.165969e-01  7.162122e-01
     vertex  1.852436e-01  1.167740e-01  7.139510e-01
     vertex  1.852859e-01  1.168815e-01  7.162122e-01
   endloop
 endfacet
 facet normal  4.786392e-01 -8.752067e-01 -7.012614e-02
   outer loop
     vertex  1.849268e-01  1.166666e-01  7.139510e-01
     vertex  1.850305e-01  1.165421e-01  7.162122e-01
     vertex  1.849631e-01  1.165053e-01  7.162122e-01
   endloop
 endfacet
 facet normal  5.439931e-01 -8.362970e-01 -6.840214e-02
   outer loop
     vertex  1.849268e-01  1.166666e-01  7.139510e-01
     vertex  1.849631e-01  1.165053e-01  7.162122e-01
     vertex  1.847860e-01  1.165750e-01  7.139510e-01
   endloop
 endfacet
 facet normal  3.136902e-01 -9.469323e-01 -7.012614e-02
   outer loop
     vertex  1.850807e-01  1.167335e-01  7.139510e-01
     vertex  1.851738e-01  1.165969e-01  7.162122e-01
     vertex  1.851009e-01  1.165728e-01  7.162122e-01
   endloop
 endfacet
 facet normal  3.978269e-01 -9.148921e-01 -6.860184e-02
   outer loop
     vertex  1.850807e-01  1.167335e-01  7.139510e-01
     vertex  1.851009e-01  1.165728e-01  7.162122e-01
     vertex  1.850305e-01  1.165421e-01  7.162122e-01
   endloop
 endfacet
 facet normal  3.978269e-01 -9.148921e-01 -6.860184e-02
   outer loop
     vertex  1.850807e-01  1.167335e-01  7.139510e-01
     vertex  1.850305e-01  1.165421e-01  7.162122e-01
     vertex  1.849268e-01  1.166666e-01  7.139510e-01
   endloop
 endfacet
 facet normal  2.406631e-01 -9.681954e-01 -6.840214e-02
   outer loop
     vertex  1.852436e-01  1.167740e-01  7.139510e-01
     vertex  1.851738e-01  1.165969e-01  7.162122e-01
     vertex  1.850807e-01  1.167335e-01  7.139510e-01
   endloop
 endfacet
 facet normal -3.664837e-01 -9.304245e-01  5.431203e-12
   outer loop
     vertex  1.846786e-01  1.166174e-01  7.162122e-01
     vertex  1.844353e-01  1.167132e-01  7.140134e-01
     vertex  1.847860e-01  1.165750e-01  7.139510e-01
   endloop
 endfacet
 facet normal -3.664837e-01 -9.304245e-01  1.432690e-11
   outer loop
     vertex  1.846786e-01  1.166174e-01  7.162122e-01
     vertex  1.840885e-01  1.168498e-01  7.140978e-01
     vertex  1.844353e-01  1.167132e-01  7.140134e-01
   endloop
 endfacet
 facet normal -3.664837e-01 -9.304245e-01  3.904807e-11
   outer loop
     vertex  1.846786e-01  1.166174e-01  7.162122e-01
     vertex  1.837470e-01  1.169843e-01  7.142041e-01
     vertex  1.840885e-01  1.168498e-01  7.140978e-01
   endloop
 endfacet
 facet normal -3.664837e-01 -9.304245e-01  2.092932e-12
   outer loop
     vertex  1.849631e-01  1.165053e-01  7.162122e-01
     vertex  1.846786e-01  1.166174e-01  7.162122e-01
     vertex  1.847860e-01  1.165750e-01  7.139510e-01
   endloop
 endfacet
 facet normal  0.000000e+00  0.000000e+00 -1.000000e+00
   outer loop
     vertex  1.848171e-01  1.163933e-01  7.162122e-01
     vertex  1.846786e-01  1.166174e-01  7.162122e-01
     vertex  1.849631e-01  1.165053e-01  7.162122e-01
   endloop
 endfacet
 facet normal  0.000000e+00  0.000000e+00 -1.000000e+00
   outer loop
     vertex  1.846985e-01  1.162526e-01  7.162122e-01
     vertex  1.846786e-01  1.166174e-01  7.162122e-01
     vertex  1.848171e-01  1.163933e-01  7.162122e-01
   endloop
 endfacet
 facet normal  0.000000e+00  0.000000e+00 -1.000000e+00
   outer loop
     vertex  1.846129e-01  1.160897e-01  7.162122e-01
     vertex  1.846786e-01  1.166174e-01  7.162122e-01
     vertex  1.846985e-01  1.162526e-01  7.162122e-01
   endloop
 endfacet
 facet normal  0.000000e+00  0.000000e+00 -1.000000e+00
   outer loop
     vertex  1.843011e-01  1.156590e-01  7.162122e-01
     vertex  1.846129e-01  1.160897e-01  7.162122e-01
     vertex  1.845644e-01  1.159122e-01  7.162122e-01
   endloop
 endfacet
 facet normal -0.000000e+00  0.000000e+00 -1.000000e+00
   outer loop
     vertex  1.845552e-01  1.157284e-01  7.162122e-01
     vertex  1.843011e-01  1.156590e-01  7.162122e-01
     vertex  1.845644e-01  1.159122e-01  7.162122e-01
   endloop
 endfacet
 facet normal  0.000000e+00  0.000000e+00 -1.000000e+00
   outer loop
     vertex  1.845857e-01  1.155469e-01  7.162122e-01
     vertex  1.843011e-01  1.156590e-01  7.162122e-01
     vertex  1.845552e-01  1.157284e-01  7.162122e-01
   endloop
 endfacet
 facet normal  0.000000e+00  0.000000e+00 -1.000000e+00
   outer loop
     vertex  1.843011e-01  1.156590e-01  7.162122e-01
     vertex  1.846786e-01  1.166174e-01  7.162122e-01
     vertex  1.846129e-01  1.160897e-01  7.162122e-01
   endloop
 endfacet
 facet normal  3.664837e-01  9.304245e-01 -7.043743e-11
   outer loop
     vertex  1.843011e-01  1.156590e-01  7.162122e-01
     vertex  1.837110e-01  1.158914e-01  7.140978e-01
     vertex  1.833695e-01  1.160260e-01  7.142041e-01
   endloop
 endfacet
 facet normal  3.664837e-01  9.304245e-01 -2.603766e-11
   outer loop
     vertex  1.843011e-01  1.156590e-01  7.162122e-01
     vertex  1.840578e-01  1.157549e-01  7.140134e-01
     vertex  1.837110e-01  1.158914e-01  7.140978e-01
   endloop
 endfacet
 facet normal  3.664837e-01  9.304245e-01 -9.044817e-12
   outer loop
     vertex  1.843011e-01  1.156590e-01  7.162122e-01
     vertex  1.844086e-01  1.156167e-01  7.139510e-01
     vertex  1.840578e-01  1.157549e-01  7.140134e-01
   endloop
 endfacet
 facet normal  3.664837e-01  9.304245e-01 -2.092930e-12
   outer loop
     vertex  1.843011e-01  1.156590e-01  7.162122e-01
     vertex  1.845857e-01  1.155469e-01  7.162122e-01
     vertex  1.844086e-01  1.156167e-01  7.139510e-01
   endloop
 endfacet
 facet normal  8.362970e-01  5.439931e-01 -6.840214e-02
   outer loop
     vertex  1.845160e-01  1.152998e-01  7.139510e-01
     vertex  1.846773e-01  1.153362e-01  7.162122e-01
     vertex  1.846075e-01  1.151591e-01  7.139510e-01
   endloop
 endfacet
 facet normal  9.148921e-01  3.978269e-01 -6.860184e-02
   outer loop
     vertex  1.845160e-01  1.152998e-01  7.139510e-01
     vertex  1.846098e-01  1.154740e-01  7.162122e-01
     vertex  1.846404e-01  1.154036e-01  7.162122e-01
   endloop
 endfacet
 facet normal  8.752067e-01  4.786392e-01 -7.012614e-02
   outer loop
     vertex  1.845160e-01  1.152998e-01  7.139510e-01
     vertex  1.846404e-01  1.154036e-01  7.162122e-01
     vertex  1.846773e-01  1.153362e-01  7.162122e-01
   endloop
 endfacet
 facet normal  9.469323e-01  3.136902e-01 -7.012614e-02
   outer loop
     vertex  1.844491e-01  1.154538e-01  7.139510e-01
     vertex  1.845857e-01  1.155469e-01  7.162122e-01
     vertex  1.846098e-01  1.154740e-01  7.162122e-01
   endloop
 endfacet
 facet normal  9.148921e-01  3.978269e-01 -6.860184e-02
   outer loop
     vertex  1.844491e-01  1.154538e-01  7.139510e-01
     vertex  1.846098e-01  1.154740e-01  7.162122e-01
     vertex  1.845160e-01  1.152998e-01  7.139510e-01
   endloop
 endfacet
 facet normal  9.681954e-01  2.406631e-01 -6.840214e-02
   outer loop
     vertex  1.844086e-01  1.156167e-01  7.139510e-01
     vertex  1.845857e-01  1.155469e-01  7.162122e-01
     vertex  1.844491e-01  1.154538e-01  7.139510e-01
   endloop
 endfacet
 facet normal  9.304245e-01 -3.664837e-01  2.889435e-12
   outer loop
     vertex  1.845652e-01  1.150517e-01  7.162122e-01
     vertex  1.844694e-01  1.148084e-01  7.140134e-01
     vertex  1.846075e-01  1.151591e-01  7.139510e-01
   endloop
 endfacet
 facet normal  9.304245e-01 -3.664837e-01 -1.234413e-11
   outer loop
     vertex  1.845652e-01  1.150517e-01  7.162122e-01
     vertex  1.843328e-01  1.144616e-01  7.140978e-01
     vertex  1.844694e-01  1.148084e-01  7.140134e-01
   endloop
 endfacet
 facet normal  9.304245e-01 -3.664837e-01 -3.695111e-11
   outer loop
     vertex  1.845652e-01  1.150517e-01  7.162122e-01
     vertex  1.841983e-01  1.141201e-01  7.142041e-01
     vertex  1.843328e-01  1.144616e-01  7.140978e-01
   endloop
 endfacet
 facet normal  9.304245e-01 -3.664837e-01  4.295746e-12
   outer loop
     vertex  1.845652e-01  1.150517e-01  7.162122e-01
     vertex  1.846075e-01  1.151591e-01  7.139510e-01
     vertex  1.846773e-01  1.153362e-01  7.162122e-01
   endloop
 endfacet
 facet normal -0.000000e+00  0.000000e+00 -1.000000e+00
   outer loop
     vertex  1.849299e-01  1.150716e-01  7.162122e-01
     vertex  1.845652e-01  1.150517e-01  7.162122e-01
     vertex  1.846773e-01  1.153362e-01  7.162122e-01
   endloop
 endfacet
 facet normal  0.000000e+00  0.000000e+00 -1.000000e+00
   outer loop
     vertex  1.855235e-01  1.146742e-01  7.162122e-01
     vertex  1.852704e-01  1.149375e-01  7.162122e-01
     vertex  1.856356e-01  1.149587e-01  7.162122e-01
   endloop
 endfacet
 facet normal  0.000000e+00  0.000000e+00 -1.000000e+00
   outer loop
     vertex  1.855235e-01  1.146742e-01  7.162122e-01
     vertex  1.845652e-01  1.150517e-01  7.162122e-01
     vertex  1.852704e-01  1.149375e-01  7.162122e-01
   endloop
 endfacet
 facet normal  0.000000e+00  0.000000e+00 -1.000000e+00
   outer loop
     vertex  1.852704e-01  1.149375e-01  7.162122e-01
     vertex  1.845652e-01  1.150517e-01  7.162122e-01
     vertex  1.849299e-01  1.150716e-01  7.162122e-01
   endloop
 endfacet
 facet normal -9.304245e-01  3.664837e-01 -1.432022e-11
   outer loop
     vertex  1.855235e-01  1.146742e-01  7.162122e-01
     vertex  1.852911e-01  1.140841e-01  7.140978e-01
     vertex  1.851566e-01  1.137426e-01  7.142041e-01
   endloop
 endfacet
 facet normal -9.304245e-01  3.664837e-01 -7.216003e-12
   outer loop
     vertex  1.855235e-01  1.146742e-01  7.162122e-01
     vertex  1.854277e-01  1.144309e-01  7.140134e-01
     vertex  1.852911e-01  1.140841e-01  7.140978e-01
   endloop
 endfacet
 facet normal -9.304245e-01  3.664837e-01 -7.926412e-12
   outer loop
     vertex  1.855235e-01  1.146742e-01  7.162122e-01
     vertex  1.855659e-01  1.147817e-01  7.139510e-01
     vertex  1.854277e-01  1.144309e-01  7.140134e-01
   endloop
 endfacet
 facet normal -9.304245e-01  3.664837e-01 -4.295746e-12
   outer loop
     vertex  1.855235e-01  1.146742e-01  7.162122e-01
     vertex  1.856356e-01  1.149587e-01  7.162122e-01
     vertex  1.855659e-01  1.147817e-01  7.139510e-01
   endloop
 endfacet
 facet normal -4.786392e-01  8.752067e-01 -7.012614e-02
   outer loop
     vertex  1.858827e-01  1.148891e-01  7.139510e-01
     vertex  1.857790e-01  1.150135e-01  7.162122e-01
     vertex  1.858463e-01  1.150504e-01  7.162122e-01
   endloop
 endfacet
 facet normal -5.439931e-01  8.362970e-01 -6.840214e-02
   outer loop
     vertex  1.858827e-01  1.148891e-01  7.139510e-01
     vertex  1.858463e-01  1.150504e-01  7.162122e-01
     vertex  1.860234e-01  1.149806e-01  7.139510e-01
   endloop
 endfacet
 facet normal -3.978269e-01  9.148921e-01 -6.860184e-02
   outer loop
     vertex  1.857288e-01  1.148221e-01  7.139510e-01
     vertex  1.857085e-01  1.149829e-01  7.162122e-01
     vertex  1.857790e-01  1.150135e-01  7.162122e-01
   endloop
 endfacet
 facet normal -3.136902e-01  9.469323e-01 -7.012614e-02
   outer loop
     vertex  1.857288e-01  1.148221e-01  7.139510e-01
     vertex  1.856356e-01  1.149587e-01  7.162122e-01
     vertex  1.857085e-01  1.149829e-01  7.162122e-01
   endloop
 endfacet
 facet normal -3.978269e-01  9.148921e-01 -6.860184e-02
   outer loop
     vertex  1.857288e-01  1.148221e-01  7.139510e-01
     vertex  1.857790e-01  1.150135e-01  7.162122e-01
     vertex  1.858827e-01  1.148891e-01  7.139510e-01
   endloop
 endfacet
 facet normal -2.406631e-01  9.681954e-01 -6.840214e-02
   outer loop
     vertex  1.855659e-01  1.147817e-01  7.139510e-01
     vertex  1.856356e-01  1.149587e-01  7.162122e-01
     vertex  1.857288e-01  1.148221e-01  7.139510e-01
   endloop
 endfacet
 facet normal  3.664837e-01  9.304245e-01 -1.536534e-11
   outer loop
     vertex  1.861309e-01  1.149383e-01  7.162122e-01
     vertex  1.863742e-01  1.148425e-01  7.140134e-01
     vertex  1.860234e-01  1.149806e-01  7.139510e-01
   endloop
 endfacet
 facet normal  3.664837e-01  9.304245e-01 -5.320827e-11
   outer loop
     vertex  1.861309e-01  1.149383e-01  7.162122e-01
     vertex  1.867210e-01  1.147059e-01  7.140978e-01
     vertex  1.863742e-01  1.148425e-01  7.140134e-01
   endloop
 endfacet
 facet normal  3.664837e-01  9.304245e-01 -6.535507e-11
   outer loop
     vertex  1.861309e-01  1.149383e-01  7.162122e-01
     vertex  1.870625e-01  1.145713e-01  7.142041e-01
     vertex  1.867210e-01  1.147059e-01  7.140978e-01
   endloop
 endfacet
 facet normal  3.664837e-01  9.304245e-01 -2.982217e-12
   outer loop
     vertex  1.858463e-01  1.150504e-01  7.162122e-01
     vertex  1.861309e-01  1.149383e-01  7.162122e-01
     vertex  1.860234e-01  1.149806e-01  7.139510e-01
   endloop
 endfacet
 facet normal  0.000000e+00  0.000000e+00 -1.000000e+00
   outer loop
     vertex  1.862451e-01  1.156434e-01  7.162122e-01
     vertex  1.862238e-01  1.160087e-01  7.162122e-01
     vertex  1.865084e-01  1.158966e-01  7.162122e-01
   endloop
 endfacet
 facet normal  0.000000e+00  0.000000e+00 -1.000000e+00
   outer loop
     vertex  1.861110e-01  1.153030e-01  7.162122e-01
     vertex  1.862451e-01  1.156434e-01  7.162122e-01
     vertex  1.865084e-01  1.158966e-01  7.162122e-01
   endloop
 endfacet
 facet normal  0.000000e+00  0.000000e+00 -1.000000e+00
   outer loop
     vertex  1.861309e-01  1.149383e-01  7.162122e-01
     vertex  1.858463e-01  1.150504e-01  7.162122e-01
     vertex  1.861110e-01  1.153030e-01  7.162122e-01
   endloop
 endfacet
 facet normal  0.000000e+00  0.000000e+00 -1.000000e+00
   outer loop
     vertex  1.861309e-01  1.149383e-01  7.162122e-01
     vertex  1.861110e-01  1.153030e-01  7.162122e-01
     vertex  1.865084e-01  1.158966e-01  7.162122e-01
   endloop
 endfacet
 facet normal -3.664837e-01 -9.304245e-01  3.396569e-11
   outer loop
     vertex  1.865084e-01  1.158966e-01  7.162122e-01
     vertex  1.870984e-01  1.156642e-01  7.140978e-01
     vertex  1.874400e-01  1.155297e-01  7.142041e-01
   endloop
 endfacet
 facet normal -3.664837e-01 -9.304245e-01  2.156960e-11
   outer loop
     vertex  1.865084e-01  1.158966e-01  7.162122e-01
     vertex  1.867517e-01  1.158008e-01  7.140134e-01
     vertex  1.870984e-01  1.156642e-01  7.140978e-01
   endloop
 endfacet
 facet normal -3.664837e-01 -9.304245e-01  8.138111e-12
   outer loop
     vertex  1.865084e-01  1.158966e-01  7.162122e-01
     vertex  1.864009e-01  1.159390e-01  7.139510e-01
     vertex  1.867517e-01  1.158008e-01  7.140134e-01
   endloop
 endfacet
 facet normal -3.664837e-01 -9.304245e-01  2.982217e-12
   outer loop
     vertex  1.865084e-01  1.158966e-01  7.162122e-01
     vertex  1.862238e-01  1.160087e-01  7.162122e-01
     vertex  1.864009e-01  1.159390e-01  7.139510e-01
   endloop
 endfacet
 facet normal -8.362970e-01 -5.439931e-01 -6.840214e-02
   outer loop
     vertex  1.862935e-01  1.162558e-01  7.139510e-01
     vertex  1.861322e-01  1.162194e-01  7.162122e-01
     vertex  1.862019e-01  1.163965e-01  7.139510e-01
   endloop
 endfacet
 facet normal -9.148921e-01 -3.978269e-01 -6.860184e-02
   outer loop
     vertex  1.862935e-01  1.162558e-01  7.139510e-01
     vertex  1.861997e-01  1.160816e-01  7.162122e-01
     vertex  1.861690e-01  1.161520e-01  7.162122e-01
   endloop
 endfacet
 facet normal -8.752067e-01 -4.786392e-01 -7.012614e-02
   outer loop
     vertex  1.862935e-01  1.162558e-01  7.139510e-01
     vertex  1.861690e-01  1.161520e-01  7.162122e-01
     vertex  1.861322e-01  1.162194e-01  7.162122e-01
   endloop
 endfacet
 facet normal -9.469323e-01 -3.136902e-01 -7.012614e-02
   outer loop
     vertex  1.863604e-01  1.161019e-01  7.139510e-01
     vertex  1.862238e-01  1.160087e-01  7.162122e-01
     vertex  1.861997e-01  1.160816e-01  7.162122e-01
   endloop
 endfacet
 facet normal -9.148921e-01 -3.978269e-01 -6.860184e-02
   outer loop
     vertex  1.863604e-01  1.161019e-01  7.139510e-01
     vertex  1.861997e-01  1.160816e-01  7.162122e-01
     vertex  1.862935e-01  1.162558e-01  7.139510e-01
   endloop
 endfacet
 facet normal -9.681954e-01 -2.406631e-01 -6.840214e-02
   outer loop
     vertex  1.864009e-01  1.159390e-01  7.139510e-01
     vertex  1.862238e-01  1.160087e-01  7.162122e-01
     vertex  1.863604e-01  1.161019e-01  7.139510e-01
   endloop
 endfacet
 facet normal  2.750451e-01 -1.444373e-01 -9.505199e-01
   outer loop
     vertex  1.846985e-01  1.162526e-01  7.162122e-01
     vertex  1.854047e-01  1.157778e-01  7.164887e-01
     vertex  1.846129e-01  1.160897e-01  7.162122e-01
   endloop
 endfacet
 facet normal  2.375653e-01 -2.001866e-01 -9.505199e-01
   outer loop
     vertex  1.848171e-01  1.163933e-01  7.162122e-01
     vertex  1.854047e-01  1.157778e-01  7.164887e-01
     vertex  1.846985e-01  1.162526e-01  7.162122e-01
   endloop
 endfacet
 facet normal  1.889774e-01 -2.465756e-01 -9.505199e-01
   outer loop
     vertex  1.849631e-01  1.165053e-01  7.162122e-01
     vertex  1.854047e-01  1.157778e-01  7.164887e-01
     vertex  1.848171e-01  1.163933e-01  7.162122e-01
   endloop
 endfacet
 facet normal  1.484094e-01 -2.713712e-01 -9.509639e-01
   outer loop
     vertex  1.850305e-01  1.165421e-01  7.162122e-01
     vertex  1.854047e-01  1.157778e-01  7.164887e-01
     vertex  1.849631e-01  1.165053e-01  7.162122e-01
   endloop
 endfacet
 facet normal  1.233392e-01 -2.836461e-01 -9.509639e-01
   outer loop
     vertex  1.851009e-01  1.165728e-01  7.162122e-01
     vertex  1.854047e-01  1.157778e-01  7.164887e-01
     vertex  1.850305e-01  1.165421e-01  7.162122e-01
   endloop
 endfacet
 facet normal  9.726446e-02 -2.936108e-01 -9.509639e-01
   outer loop
     vertex  1.851738e-01  1.165969e-01  7.162122e-01
     vertex  1.854047e-01  1.157778e-01  7.164887e-01
     vertex  1.851009e-01  1.165728e-01  7.162122e-01
   endloop
 endfacet
 facet normal  1.832878e-02 -3.151525e-01 -9.488640e-01
   outer loop
     vertex  1.855391e-01  1.166181e-01  7.162122e-01
     vertex  1.854047e-01  1.157778e-01  7.164887e-01
     vertex  1.851738e-01  1.165969e-01  7.162122e-01
   endloop
 endfacet
 facet normal -1.156934e-01 -2.937211e-01 -9.488640e-01
   outer loop
     vertex  1.858795e-01  1.164841e-01  7.162122e-01
     vertex  1.854047e-01  1.157778e-01  7.164887e-01
     vertex  1.855391e-01  1.166181e-01  7.162122e-01
   endloop
 endfacet
 facet normal -2.283301e-01 -2.179964e-01 -9.488640e-01
   outer loop
     vertex  1.861322e-01  1.162194e-01  7.162122e-01
     vertex  1.854047e-01  1.157778e-01  7.164887e-01
     vertex  1.858795e-01  1.164841e-01  7.162122e-01
   endloop
 endfacet
 facet normal -2.713712e-01 -1.484094e-01 -9.509639e-01
   outer loop
     vertex  1.861690e-01  1.161520e-01  7.162122e-01
     vertex  1.854047e-01  1.157778e-01  7.164887e-01
     vertex  1.861322e-01  1.162194e-01  7.162122e-01
   endloop
 endfacet
 facet normal -2.836461e-01 -1.233392e-01 -9.509639e-01
   outer loop
     vertex  1.861997e-01  1.160816e-01  7.162122e-01
     vertex  1.854047e-01  1.157778e-01  7.164887e-01
     vertex  1.861690e-01  1.161520e-01  7.162122e-01
   endloop
 endfacet
 facet normal -2.936108e-01 -9.726446e-02 -9.509639e-01
   outer loop
     vertex  1.862238e-01  1.160087e-01  7.162122e-01
     vertex  1.854047e-01  1.157778e-01  7.164887e-01
     vertex  1.861997e-01  1.160816e-01  7.162122e-01
   endloop
 endfacet
 facet normal -3.151525e-01 -1.832878e-02 -9.488640e-01
   outer loop
     vertex  1.862451e-01  1.156434e-01  7.162122e-01
     vertex  1.854047e-01  1.157778e-01  7.164887e-01
     vertex  1.862238e-01  1.160087e-01  7.162122e-01
   endloop
 endfacet
 facet normal -1.484094e-01  2.713712e-01 -9.509639e-01
   outer loop
     vertex  1.854047e-01  1.157778e-01  7.164887e-01
     vertex  1.858463e-01  1.150504e-01  7.162122e-01
     vertex  1.857790e-01  1.150135e-01  7.162122e-01
   endloop
 endfacet
 facet normal -1.233392e-01  2.836461e-01 -9.509639e-01
   outer loop
     vertex  1.854047e-01  1.157778e-01  7.164887e-01
     vertex  1.857790e-01  1.150135e-01  7.162122e-01
     vertex  1.857085e-01  1.149829e-01  7.162122e-01
   endloop
 endfacet
 facet normal -9.726446e-02  2.936108e-01 -9.509639e-01
   outer loop
     vertex  1.854047e-01  1.157778e-01  7.164887e-01
     vertex  1.857085e-01  1.149829e-01  7.162122e-01
     vertex  1.856356e-01  1.149587e-01  7.162122e-01
   endloop
 endfacet
 facet normal -2.937211e-01  1.156934e-01 -9.488640e-01
   outer loop
     vertex  1.854047e-01  1.157778e-01  7.164887e-01
     vertex  1.862451e-01  1.156434e-01  7.162122e-01
     vertex  1.861110e-01  1.153030e-01  7.162122e-01
   endloop
 endfacet
 facet normal -2.179964e-01  2.283301e-01 -9.488640e-01
   outer loop
     vertex  1.854047e-01  1.157778e-01  7.164887e-01
     vertex  1.861110e-01  1.153030e-01  7.162122e-01
     vertex  1.858463e-01  1.150504e-01  7.162122e-01
   endloop
 endfacet
 facet normal  0.000000e+00  0.000000e+00  0.000000e+00
   outer loop
     vertex  1.854047e-01  1.157778e-01  7.164887e-01
     vertex  1.854047e-01  1.157778e-01  7.164887e-01
     vertex  1.862451e-01  1.156434e-01  7.162122e-01
   endloop
 endfacet
 facet normal -1.832878e-02  3.151525e-01 -9.488640e-01
   outer loop
     vertex  1.852704e-01  1.149375e-01  7.162122e-01
     vertex  1.854047e-01  1.157778e-01  7.164887e-01
     vertex  1.856356e-01  1.149587e-01  7.162122e-01
   endloop
 endfacet
 facet normal  1.156934e-01  2.937211e-01 -9.488640e-01
   outer loop
     vertex  1.849299e-01  1.150716e-01  7.162122e-01
     vertex  1.854047e-01  1.157778e-01  7.164887e-01
     vertex  1.852704e-01  1.149375e-01  7.162122e-01
   endloop
 endfacet
 facet normal  2.283301e-01  2.179964e-01 -9.488640e-01
   outer loop
     vertex  1.846773e-01  1.153362e-01  7.162122e-01
     vertex  1.854047e-01  1.157778e-01  7.164887e-01
     vertex  1.849299e-01  1.150716e-01  7.162122e-01
   endloop
 endfacet
 facet normal  2.713712e-01  1.484094e-01 -9.509639e-01
   outer loop
     vertex  1.846404e-01  1.154036e-01  7.162122e-01
     vertex  1.854047e-01  1.157778e-01  7.164887e-01
     vertex  1.846773e-01  1.153362e-01  7.162122e-01
   endloop
 endfacet
 facet normal  2.836461e-01  1.233392e-01 -9.509639e-01
   outer loop
     vertex  1.846098e-01  1.154740e-01  7.162122e-01
     vertex  1.854047e-01  1.157778e-01  7.164887e-01
     vertex  1.846404e-01  1.154036e-01  7.162122e-01
   endloop
 endfacet
 facet normal  2.936108e-01  9.726446e-02 -9.509639e-01
   outer loop
     vertex  1.845857e-01  1.155469e-01  7.162122e-01
     vertex  1.854047e-01  1.157778e-01  7.164887e-01
     vertex  1.846098e-01  1.154740e-01  7.162122e-01
   endloop
 endfacet
 facet normal  3.063715e-01  5.146326e-02 -9.505199e-01
   outer loop
     vertex  1.845552e-01  1.157284e-01  7.162122e-01
     vertex  1.854047e-01  1.157778e-01  7.164887e-01
     vertex  1.845857e-01  1.155469e-01  7.162122e-01
   endloop
 endfacet
 facet normal  3.102718e-01 -1.560024e-02 -9.505199e-01
   outer loop
     vertex  1.845644e-01  1.159122e-01  7.162122e-01
     vertex  1.854047e-01  1.157778e-01  7.164887e-01
     vertex  1.845552e-01  1.157284e-01  7.162122e-01
   endloop
 endfacet
 facet normal  2.996644e-01 -8.193430e-02 -9.505199e-01
   outer loop
     vertex  1.846129e-01  1.160897e-01  7.162122e-01
     vertex  1.854047e-01  1.157778e-01  7.164887e-01
     vertex  1.845644e-01  1.159122e-01  7.162122e-01
   endloop
 endfacet
 facet normal -8.326689e-01  3.279788e-01 -4.461978e-01
   outer loop
     vertex  1.865084e-01  1.158966e-01  7.162122e-01
     vertex  1.874400e-01  1.155297e-01  7.142041e-01
     vertex  1.873218e-01  1.152074e-01  7.141876e-01
   endloop
 endfacet
 facet normal -8.326689e-01  3.279788e-01 -4.461978e-01
   outer loop
     vertex  1.865084e-01  1.158966e-01  7.162122e-01
     vertex  1.873218e-01  1.152074e-01  7.141876e-01
     vertex  1.871959e-01  1.148876e-01  7.141876e-01
   endloop
 endfacet
 facet normal -8.326689e-01  3.279788e-01 -4.461978e-01
   outer loop
     vertex  1.861309e-01  1.149383e-01  7.162122e-01
     vertex  1.871959e-01  1.148876e-01  7.141876e-01
     vertex  1.870625e-01  1.145713e-01  7.142041e-01
   endloop
 endfacet
 facet normal -8.326689e-01  3.279788e-01 -4.461978e-01
   outer loop
     vertex  1.861309e-01  1.149383e-01  7.162122e-01
     vertex  1.865084e-01  1.158966e-01  7.162122e-01
     vertex  1.871959e-01  1.148876e-01  7.141876e-01
   endloop
 endfacet
 facet normal  3.279788e-01  8.326689e-01 -4.461978e-01
   outer loop
     vertex  1.845145e-01  1.139867e-01  7.141876e-01
     vertex  1.841983e-01  1.141201e-01  7.142041e-01
     vertex  1.845652e-01  1.150517e-01  7.162122e-01
   endloop
 endfacet
 facet normal  3.279788e-01  8.326689e-01 -4.461978e-01
   outer loop
     vertex  1.845145e-01  1.139867e-01  7.141876e-01
     vertex  1.845652e-01  1.150517e-01  7.162122e-01
     vertex  1.855235e-01  1.146742e-01  7.162122e-01
   endloop
 endfacet
 facet normal  3.279788e-01  8.326689e-01 -4.461978e-01
   outer loop
     vertex  1.848343e-01  1.138607e-01  7.141876e-01
     vertex  1.845145e-01  1.139867e-01  7.141876e-01
     vertex  1.855235e-01  1.146742e-01  7.162122e-01
   endloop
 endfacet
 facet normal  3.279788e-01  8.326689e-01 -4.461978e-01
   outer loop
     vertex  1.851566e-01  1.137426e-01  7.142041e-01
     vertex  1.848343e-01  1.138607e-01  7.141876e-01
     vertex  1.855235e-01  1.146742e-01  7.162122e-01
   endloop
 endfacet
 facet normal  8.326689e-01 -3.279788e-01 -4.461978e-01
   outer loop
     vertex  1.836136e-01  1.166680e-01  7.141876e-01
     vertex  1.837470e-01  1.169843e-01  7.142041e-01
     vertex  1.846786e-01  1.166174e-01  7.162122e-01
   endloop
 endfacet
 facet normal  8.326689e-01 -3.279788e-01 -4.461978e-01
   outer loop
     vertex  1.836136e-01  1.166680e-01  7.141876e-01
     vertex  1.846786e-01  1.166174e-01  7.162122e-01
     vertex  1.843011e-01  1.156590e-01  7.162122e-01
   endloop
 endfacet
 facet normal  8.326689e-01 -3.279788e-01 -4.461978e-01
   outer loop
     vertex  1.834877e-01  1.163483e-01  7.141876e-01
     vertex  1.836136e-01  1.166680e-01  7.141876e-01
     vertex  1.843011e-01  1.156590e-01  7.162122e-01
   endloop
 endfacet
 facet normal  8.326689e-01 -3.279788e-01 -4.461978e-01
   outer loop
     vertex  1.833695e-01  1.160260e-01  7.142041e-01
     vertex  1.834877e-01  1.163483e-01  7.141876e-01
     vertex  1.843011e-01  1.156590e-01  7.162122e-01
   endloop
 endfacet
 facet normal -3.279788e-01 -8.326689e-01 -4.461978e-01
   outer loop
     vertex  1.852859e-01  1.168815e-01  7.162122e-01
     vertex  1.856529e-01  1.178130e-01  7.142041e-01
     vertex  1.859752e-01  1.176949e-01  7.141876e-01
   endloop
 endfacet
 facet normal -3.279788e-01 -8.326689e-01 -4.461978e-01
   outer loop
     vertex  1.852859e-01  1.168815e-01  7.162122e-01
     vertex  1.859752e-01  1.176949e-01  7.141876e-01
     vertex  1.862949e-01  1.175690e-01  7.141876e-01
   endloop
 endfacet
 facet normal -3.279788e-01 -8.326689e-01 -4.461978e-01
   outer loop
     vertex  1.862443e-01  1.165040e-01  7.162122e-01
     vertex  1.862949e-01  1.175690e-01  7.141876e-01
     vertex  1.866112e-01  1.174356e-01  7.142041e-01
   endloop
 endfacet
 facet normal -3.279788e-01 -8.326689e-01 -4.461978e-01
   outer loop
     vertex  1.862443e-01  1.165040e-01  7.162122e-01
     vertex  1.852859e-01  1.168815e-01  7.162122e-01
     vertex  1.862949e-01  1.175690e-01  7.141876e-01
   endloop
 endfacet
endsolid
