solid 
 facet normal -7.156765e-01  2.957704e-01  6.327139e-01
   outer loop
     vertex  5.056864e-02  1.151372e-01  7.203356e-01
     vertex  5.088345e-02  1.151789e-01  7.206722e-01
     vertex  5.262540e-02  1.193939e-01  7.206722e-01
   endloop
 endfacet
 facet normal -7.156765e-01  2.957704e-01  6.327139e-01
   outer loop
     vertex  5.056864e-02  1.151372e-01  7.203356e-01
     vertex  5.262540e-02  1.193939e-01  7.206722e-01
     vertex  5.243188e-02  1.196457e-01  7.203356e-01
   endloop
 endfacet
 facet normal -9.135959e-01  3.775653e-01 -1.509538e-01
   outer loop
     vertex  5.056864e-02  1.151372e-01  7.203356e-01
     vertex  5.243188e-02  1.196457e-01  7.203356e-01
     vertex  5.248085e-02  1.195820e-01  7.198799e-01
   endloop
 endfacet
 facet normal -5.182882e-01  1.364139e-01 -8.442563e-01
   outer loop
     vertex  5.056864e-02  1.151372e-01  7.203356e-01
     vertex  5.248085e-02  1.195820e-01  7.198799e-01
     vertex  5.273286e-02  1.192541e-01  7.196722e-01
   endloop
 endfacet
 facet normal -3.957937e-02 -3.042080e-02 -9.987532e-01
   outer loop
     vertex  5.357218e-02  1.113436e-01  7.198799e-01
     vertex  5.273286e-02  1.192541e-01  7.196722e-01
     vertex  5.807661e-02  1.123015e-01  7.196722e-01
   endloop
 endfacet
 facet normal -2.085559e-01 -4.777439e-02 -9.768429e-01
   outer loop
     vertex  5.357218e-02  1.113436e-01  7.198799e-01
     vertex  5.056864e-02  1.151372e-01  7.203356e-01
     vertex  5.273286e-02  1.192541e-01  7.196722e-01
   endloop
 endfacet
 facet normal -6.139830e-01 -4.719089e-01  6.327139e-01
   outer loop
     vertex  5.354149e-02  1.112693e-01  7.203356e-01
     vertex  5.366278e-02  1.115628e-01  7.206722e-01
     vertex  5.088345e-02  1.151789e-01  7.206722e-01
   endloop
 endfacet
 facet normal -7.837791e-01 -6.024146e-01 -1.509538e-01
   outer loop
     vertex  5.354149e-02  1.112693e-01  7.203356e-01
     vertex  5.056864e-02  1.151372e-01  7.203356e-01
     vertex  5.357218e-02  1.113436e-01  7.198799e-01
   endloop
 endfacet
 facet normal -6.139830e-01 -4.719089e-01  6.327139e-01
   outer loop
     vertex  5.354149e-02  1.112693e-01  7.203356e-01
     vertex  5.088345e-02  1.151789e-01  7.206722e-01
     vertex  5.056864e-02  1.151372e-01  7.203356e-01
   endloop
 endfacet
 facet normal  6.587899e-02 -4.973169e-01 -8.650641e-01
   outer loop
     vertex  5.832861e-02  1.119737e-01  7.198799e-01
     vertex  5.357218e-02  1.113436e-01  7.198799e-01
     vertex  5.807661e-02  1.123015e-01  7.196722e-01
   endloop
 endfacet
 facet normal  1.016936e-01 -7.676793e-01  6.327139e-01
   outer loop
     vertex  5.837758e-02  1.119100e-01  7.203356e-01
     vertex  5.818406e-02  1.121617e-01  7.206722e-01
     vertex  5.366278e-02  1.115628e-01  7.206722e-01
   endloop
 endfacet
 facet normal  1.016936e-01 -7.676793e-01  6.327139e-01
   outer loop
     vertex  5.837758e-02  1.119100e-01  7.203356e-01
     vertex  5.366278e-02  1.115628e-01  7.206722e-01
     vertex  5.354149e-02  1.112693e-01  7.203356e-01
   endloop
 endfacet
 facet normal  1.298168e-01 -9.799799e-01 -1.509538e-01
   outer loop
     vertex  5.837758e-02  1.119100e-01  7.203356e-01
     vertex  5.357218e-02  1.113436e-01  7.198799e-01
     vertex  5.832861e-02  1.119737e-01  7.198799e-01
   endloop
 endfacet
 facet normal  1.298168e-01 -9.799799e-01 -1.509538e-01
   outer loop
     vertex  5.837758e-02  1.119100e-01  7.203356e-01
     vertex  5.354149e-02  1.112693e-01  7.203356e-01
     vertex  5.357218e-02  1.113436e-01  7.198799e-01
   endloop
 endfacet
 facet normal  7.156765e-01 -2.957704e-01  6.327139e-01
   outer loop
     vertex  6.024083e-02  1.164185e-01  7.203356e-01
     vertex  5.992602e-02  1.163768e-01  7.206722e-01
     vertex  5.818406e-02  1.121617e-01  7.206722e-01
   endloop
 endfacet
 facet normal  7.156765e-01 -2.957704e-01  6.327139e-01
   outer loop
     vertex  6.024083e-02  1.164185e-01  7.203356e-01
     vertex  5.818406e-02  1.121617e-01  7.206722e-01
     vertex  5.837758e-02  1.119100e-01  7.203356e-01
   endloop
 endfacet
 facet normal  5.182882e-01 -1.364139e-01 -8.442563e-01
   outer loop
     vertex  6.024083e-02  1.164185e-01  7.203356e-01
     vertex  5.832861e-02  1.119737e-01  7.198799e-01
     vertex  5.807661e-02  1.123015e-01  7.196722e-01
   endloop
 endfacet
 facet normal  9.135959e-01 -3.775653e-01 -1.509538e-01
   outer loop
     vertex  6.024083e-02  1.164185e-01  7.203356e-01
     vertex  5.837758e-02  1.119100e-01  7.203356e-01
     vertex  5.832861e-02  1.119737e-01  7.198799e-01
   endloop
 endfacet
 facet normal  3.957937e-02  3.042080e-02 -9.987532e-01
   outer loop
     vertex  5.723728e-02  1.202121e-01  7.198799e-01
     vertex  5.807661e-02  1.123015e-01  7.196722e-01
     vertex  5.273286e-02  1.192541e-01  7.196722e-01
   endloop
 endfacet
 facet normal -6.587899e-02  4.973169e-01 -8.650641e-01
   outer loop
     vertex  5.723728e-02  1.202121e-01  7.198799e-01
     vertex  5.273286e-02  1.192541e-01  7.196722e-01
     vertex  5.248085e-02  1.195820e-01  7.198799e-01
   endloop
 endfacet
 facet normal  2.085559e-01  4.777439e-02 -9.768429e-01
   outer loop
     vertex  5.723728e-02  1.202121e-01  7.198799e-01
     vertex  6.024083e-02  1.164185e-01  7.203356e-01
     vertex  5.807661e-02  1.123015e-01  7.196722e-01
   endloop
 endfacet
 facet normal  6.139830e-01  4.719089e-01  6.327139e-01
   outer loop
     vertex  5.726798e-02  1.202863e-01  7.203356e-01
     vertex  5.714669e-02  1.199928e-01  7.206722e-01
     vertex  5.992602e-02  1.163768e-01  7.206722e-01
   endloop
 endfacet
 facet normal -1.016936e-01  7.676793e-01  6.327139e-01
   outer loop
     vertex  5.726798e-02  1.202863e-01  7.203356e-01
     vertex  5.262540e-02  1.193939e-01  7.206722e-01
     vertex  5.714669e-02  1.199928e-01  7.206722e-01
   endloop
 endfacet
 facet normal -1.016936e-01  7.676793e-01  6.327139e-01
   outer loop
     vertex  5.726798e-02  1.202863e-01  7.203356e-01
     vertex  5.243188e-02  1.196457e-01  7.203356e-01
     vertex  5.262540e-02  1.193939e-01  7.206722e-01
   endloop
 endfacet
 facet normal -1.298168e-01  9.799799e-01 -1.509538e-01
   outer loop
     vertex  5.726798e-02  1.202863e-01  7.203356e-01
     vertex  5.248085e-02  1.195820e-01  7.198799e-01
     vertex  5.243188e-02  1.196457e-01  7.203356e-01
   endloop
 endfacet
 facet normal -1.298168e-01  9.799799e-01 -1.509538e-01
   outer loop
     vertex  5.726798e-02  1.202863e-01  7.203356e-01
     vertex  5.723728e-02  1.202121e-01  7.198799e-01
     vertex  5.248085e-02  1.195820e-01  7.198799e-01
   endloop
 endfacet
 facet normal  6.139830e-01  4.719089e-01  6.327139e-01
   outer loop
     vertex  5.726798e-02  1.202863e-01  7.203356e-01
     vertex  5.992602e-02  1.163768e-01  7.206722e-01
     vertex  6.024083e-02  1.164185e-01  7.203356e-01
   endloop
 endfacet
 facet normal  7.837791e-01  6.024146e-01 -1.509538e-01
   outer loop
     vertex  5.726798e-02  1.202863e-01  7.203356e-01
     vertex  6.024083e-02  1.164185e-01  7.203356e-01
     vertex  5.723728e-02  1.202121e-01  7.198799e-01
   endloop
 endfacet
 facet normal  1.351945e-01 -3.256614e-01  9.357709e-01
   outer loop
     vertex  5.596734e-02  1.115298e-01  7.207726e-01
     vertex  5.818406e-02  1.121617e-01  7.206722e-01
     vertex  5.765792e-02  1.128463e-01  7.209865e-01
   endloop
 endfacet
 facet normal  3.764979e-02 -2.842162e-01 -9.580207e-01
   outer loop
     vertex  5.366278e-02  1.115628e-01  7.206722e-01
     vertex  5.818406e-02  1.121617e-01  7.206722e-01
     vertex  5.596734e-02  1.115298e-01  7.207726e-01
   endloop
 endfacet
 facet normal -4.479335e-02 -1.083535e-01  9.931028e-01
   outer loop
     vertex  5.200710e-02  1.131664e-01  7.207725e-01
     vertex  5.366278e-02  1.115628e-01  7.206722e-01
     vertex  5.596734e-02  1.115298e-01  7.207726e-01
   endloop
 endfacet
 facet normal -2.270629e-01 -1.745211e-01 -9.581153e-01
   outer loop
     vertex  5.088345e-02  1.151789e-01  7.206722e-01
     vertex  5.366278e-02  1.115628e-01  7.206722e-01
     vertex  5.200710e-02  1.131664e-01  7.207725e-01
   endloop
 endfacet
 facet normal -1.162007e-01 -1.539297e-02  9.931065e-01
   outer loop
     vertex  5.144436e-02  1.174145e-01  7.207725e-01
     vertex  5.088345e-02  1.151789e-01  7.206722e-01
     vertex  5.200710e-02  1.131664e-01  7.207725e-01
   endloop
 endfacet
 facet normal -2.799147e-01  2.144292e-01  9.357713e-01
   outer loop
     vertex  5.262540e-02  1.193939e-01  7.206722e-01
     vertex  5.144436e-02  1.174145e-01  7.207725e-01
     vertex  5.315155e-02  1.187094e-01  7.209865e-01
   endloop
 endfacet
 facet normal -2.646710e-01  1.093816e-01 -9.581153e-01
   outer loop
     vertex  5.262540e-02  1.193939e-01  7.206722e-01
     vertex  5.088345e-02  1.151789e-01  7.206722e-01
     vertex  5.144436e-02  1.174145e-01  7.207725e-01
   endloop
 endfacet
 facet normal -1.351945e-01  3.256614e-01  9.357709e-01
   outer loop
     vertex  5.484212e-02  1.200258e-01  7.207726e-01
     vertex  5.262540e-02  1.193939e-01  7.206722e-01
     vertex  5.315155e-02  1.187094e-01  7.209865e-01
   endloop
 endfacet
 facet normal -3.764981e-02  2.842163e-01 -9.580207e-01
   outer loop
     vertex  5.714669e-02  1.199928e-01  7.206722e-01
     vertex  5.262540e-02  1.193939e-01  7.206722e-01
     vertex  5.484212e-02  1.200258e-01  7.207726e-01
   endloop
 endfacet
 facet normal  4.479335e-02  1.083535e-01  9.931027e-01
   outer loop
     vertex  5.880236e-02  1.183893e-01  7.207725e-01
     vertex  5.714669e-02  1.199928e-01  7.206722e-01
     vertex  5.484212e-02  1.200258e-01  7.207726e-01
   endloop
 endfacet
 facet normal  2.270629e-01  1.745211e-01 -9.581153e-01
   outer loop
     vertex  5.992602e-02  1.163768e-01  7.206722e-01
     vertex  5.714669e-02  1.199928e-01  7.206722e-01
     vertex  5.880236e-02  1.183893e-01  7.207725e-01
   endloop
 endfacet
 facet normal  1.162007e-01  1.539296e-02  9.931065e-01
   outer loop
     vertex  5.936511e-02  1.141411e-01  7.207725e-01
     vertex  5.992602e-02  1.163768e-01  7.206722e-01
     vertex  5.880236e-02  1.183893e-01  7.207725e-01
   endloop
 endfacet
 facet normal  2.799146e-01 -2.144292e-01  9.357713e-01
   outer loop
     vertex  5.818406e-02  1.121617e-01  7.206722e-01
     vertex  5.936511e-02  1.141411e-01  7.207725e-01
     vertex  5.765792e-02  1.128463e-01  7.209865e-01
   endloop
 endfacet
 facet normal  2.646710e-01 -1.093816e-01 -9.581153e-01
   outer loop
     vertex  5.818406e-02  1.121617e-01  7.206722e-01
     vertex  5.992602e-02  1.163768e-01  7.206722e-01
     vertex  5.936511e-02  1.141411e-01  7.207725e-01
   endloop
 endfacet
 facet normal  4.838993e-01 -6.677227e-01  5.656747e-01
   outer loop
     vertex  5.677360e-02  1.123458e-01  7.210461e-01
     vertex  5.593546e-02  1.117714e-01  7.210850e-01
     vertex  5.596734e-02  1.115298e-01  7.207726e-01
   endloop
 endfacet
 facet normal  3.506467e-01 -4.562127e-01  8.178734e-01
   outer loop
     vertex  5.677360e-02  1.123458e-01  7.210461e-01
     vertex  5.913978e-02  1.142342e-01  7.210850e-01
     vertex  5.593546e-02  1.117714e-01  7.210850e-01
   endloop
 endfacet
 facet normal  3.958006e-01 -6.185705e-01  6.787580e-01
   outer loop
     vertex  5.677360e-02  1.123458e-01  7.210461e-01
     vertex  5.596734e-02  1.115298e-01  7.207726e-01
     vertex  5.765792e-02  1.128463e-01  7.209865e-01
   endloop
 endfacet
 facet normal  5.206486e-01 -6.392074e-01  5.659849e-01
   outer loop
     vertex  5.836431e-02  1.135684e-01  7.210464e-01
     vertex  5.936511e-02  1.141411e-01  7.207725e-01
     vertex  5.913978e-02  1.142342e-01  7.210850e-01
   endloop
 endfacet
 facet normal  4.955642e-01 -5.411222e-01  6.794136e-01
   outer loop
     vertex  5.836431e-02  1.135684e-01  7.210464e-01
     vertex  5.765792e-02  1.128463e-01  7.209865e-01
     vertex  5.936511e-02  1.141411e-01  7.207725e-01
   endloop
 endfacet
 facet normal  3.473459e-01 -4.521521e-01  8.215286e-01
   outer loop
     vertex  5.836431e-02  1.135684e-01  7.210464e-01
     vertex  5.913978e-02  1.142342e-01  7.210850e-01
     vertex  5.677360e-02  1.123458e-01  7.210461e-01
   endloop
 endfacet
 facet normal  2.360618e-01 -3.073940e-01  9.218372e-01
   outer loop
     vertex  5.836431e-02  1.135684e-01  7.210464e-01
     vertex  5.677360e-02  1.123458e-01  7.210461e-01
     vertex  5.765792e-02  1.128463e-01  7.209865e-01
   endloop
 endfacet
 facet normal -3.370072e-01 -7.522272e-01  5.661982e-01
   outer loop
     vertex  5.412795e-02  1.124597e-01  7.210960e-01
     vertex  5.220041e-02  1.133150e-01  7.210850e-01
     vertex  5.200710e-02  1.131664e-01  7.207725e-01
   endloop
 endfacet
 facet normal  7.585478e-02  1.835433e-01  9.800806e-01
   outer loop
     vertex  5.412795e-02  1.124597e-01  7.210960e-01
     vertex  5.593546e-02  1.117714e-01  7.210850e-01
     vertex  5.220041e-02  1.133150e-01  7.210850e-01
   endloop
 endfacet
 facet normal -2.902165e-01 -7.711628e-01  5.666413e-01
   outer loop
     vertex  5.412795e-02  1.124597e-01  7.210960e-01
     vertex  5.596734e-02  1.115298e-01  7.207726e-01
     vertex  5.593546e-02  1.117714e-01  7.210850e-01
   endloop
 endfacet
 facet normal -3.436430e-01 -8.315514e-01  4.363849e-01
   outer loop
     vertex  5.412795e-02  1.124597e-01  7.210960e-01
     vertex  5.200710e-02  1.131664e-01  7.207725e-01
     vertex  5.596734e-02  1.115298e-01  7.207726e-01
   endloop
 endfacet
 facet normal  1.961397e-01  2.598277e-02  9.802317e-01
   outer loop
     vertex  5.186977e-02  1.153977e-01  7.210959e-01
     vertex  5.220041e-02  1.133150e-01  7.210850e-01
     vertex  5.166968e-02  1.173214e-01  7.210850e-01
   endloop
 endfacet
 facet normal -8.136090e-01 -1.321382e-01  5.661978e-01
   outer loop
     vertex  5.186977e-02  1.153977e-01  7.210959e-01
     vertex  5.200710e-02  1.131664e-01  7.207725e-01
     vertex  5.220041e-02  1.133150e-01  7.210850e-01
   endloop
 endfacet
 facet normal -8.919378e-01 -1.181540e-01  4.364477e-01
   outer loop
     vertex  5.186977e-02  1.153977e-01  7.210959e-01
     vertex  5.144436e-02  1.174145e-01  7.207725e-01
     vertex  5.200710e-02  1.131664e-01  7.207725e-01
   endloop
 endfacet
 facet normal -8.197943e-01 -8.204210e-02  5.667508e-01
   outer loop
     vertex  5.186977e-02  1.153977e-01  7.210959e-01
     vertex  5.166968e-02  1.173214e-01  7.210850e-01
     vertex  5.144436e-02  1.174145e-01  7.207725e-01
   endloop
 endfacet
 facet normal -3.507286e-01  4.563169e-01  8.177801e-01
   outer loop
     vertex  5.403587e-02  1.192098e-01  7.210460e-01
     vertex  5.166968e-02  1.173214e-01  7.210850e-01
     vertex  5.487400e-02  1.197843e-01  7.210850e-01
   endloop
 endfacet
 facet normal -3.957997e-01  6.185696e-01  6.787594e-01
   outer loop
     vertex  5.403587e-02  1.192098e-01  7.210460e-01
     vertex  5.484212e-02  1.200258e-01  7.207726e-01
     vertex  5.315155e-02  1.187094e-01  7.209865e-01
   endloop
 endfacet
 facet normal -4.839141e-01  6.677300e-01  5.656535e-01
   outer loop
     vertex  5.403587e-02  1.192098e-01  7.210460e-01
     vertex  5.487400e-02  1.197843e-01  7.210850e-01
     vertex  5.484212e-02  1.200258e-01  7.207726e-01
   endloop
 endfacet
 facet normal -5.206541e-01  6.392085e-01  5.659786e-01
   outer loop
     vertex  5.244513e-02  1.179872e-01  7.210464e-01
     vertex  5.144436e-02  1.174145e-01  7.207725e-01
     vertex  5.166968e-02  1.173214e-01  7.210850e-01
   endloop
 endfacet
 facet normal -4.955788e-01  5.411463e-01  6.793837e-01
   outer loop
     vertex  5.244513e-02  1.179872e-01  7.210464e-01
     vertex  5.315155e-02  1.187094e-01  7.209865e-01
     vertex  5.144436e-02  1.174145e-01  7.207725e-01
   endloop
 endfacet
 facet normal -2.360712e-01  3.074156e-01  9.218276e-01
   outer loop
     vertex  5.244513e-02  1.179872e-01  7.210464e-01
     vertex  5.403587e-02  1.192098e-01  7.210460e-01
     vertex  5.315155e-02  1.187094e-01  7.209865e-01
   endloop
 endfacet
 facet normal -3.472815e-01  4.520763e-01  8.215976e-01
   outer loop
     vertex  5.244513e-02  1.179872e-01  7.210464e-01
     vertex  5.166968e-02  1.173214e-01  7.210850e-01
     vertex  5.403587e-02  1.192098e-01  7.210460e-01
   endloop
 endfacet
 facet normal -6.093977e-01  7.928647e-01 -5.091582e-07
   outer loop
     vertex  5.327184e-02  1.185529e-01  7.234722e-01
     vertex  5.487400e-02  1.197843e-01  7.210850e-01
     vertex  5.166968e-02  1.173214e-01  7.210850e-01
   endloop
 endfacet
 facet normal -6.093977e-01  7.928647e-01 -5.451771e-07
   outer loop
     vertex  5.327184e-02  1.185529e-01  7.234722e-01
     vertex  5.166968e-02  1.173214e-01  7.210850e-01
     vertex  5.166968e-02  1.173214e-01  7.230722e-01
   endloop
 endfacet
 facet normal -6.093979e-01  7.928646e-01 -6.781948e-07
   outer loop
     vertex  5.487400e-02  1.197843e-01  7.230722e-01
     vertex  5.487400e-02  1.197843e-01  7.210850e-01
     vertex  5.327184e-02  1.185529e-01  7.234722e-01
   endloop
 endfacet
 facet normal -5.158412e-01  2.131837e-01  8.297352e-01
   outer loop
     vertex  5.166968e-02  1.173214e-01  7.230722e-01
     vertex  5.198709e-02  1.165326e-01  7.234722e-01
     vertex  5.245135e-02  1.176560e-01  7.234722e-01
   endloop
 endfacet
 facet normal -7.510527e-01  3.218794e-02  6.594571e-01
   outer loop
     vertex  5.166968e-02  1.173214e-01  7.230722e-01
     vertex  5.193504e-02  1.153182e-01  7.234722e-01
     vertex  5.198709e-02  1.165326e-01  7.234722e-01
   endloop
 endfacet
 facet normal -5.546498e-01  5.074248e-01  6.594571e-01
   outer loop
     vertex  5.327184e-02  1.185529e-01  7.234722e-01
     vertex  5.166968e-02  1.173214e-01  7.230722e-01
     vertex  5.245135e-02  1.176560e-01  7.234722e-01
   endloop
 endfacet
 facet normal  0.000000e+00  0.000000e+00  1.000000e+00
   outer loop
     vertex  5.381900e-02  1.145590e-01  7.234722e-01
     vertex  5.406794e-02  1.125432e-01  7.234722e-01
     vertex  5.525487e-02  1.122810e-01  7.234722e-01
   endloop
 endfacet
 facet normal  0.000000e+00  0.000000e+00  1.000000e+00
   outer loop
     vertex  5.381900e-02  1.145590e-01  7.234722e-01
     vertex  5.230149e-02  1.141592e-01  7.234722e-01
     vertex  5.304224e-02  1.131955e-01  7.234722e-01
   endloop
 endfacet
 facet normal  0.000000e+00  0.000000e+00  1.000000e+00
   outer loop
     vertex  5.381900e-02  1.145590e-01  7.234722e-01
     vertex  5.304224e-02  1.131955e-01  7.234722e-01
     vertex  5.406794e-02  1.125432e-01  7.234722e-01
   endloop
 endfacet
 facet normal -1.851618e-11 -1.098232e-10  1.000000e+00
   outer loop
     vertex  5.662353e-02  1.141921e-01  7.234722e-01
     vertex  5.753762e-02  1.130028e-01  7.234722e-01
     vertex  5.835811e-02  1.138996e-01  7.234722e-01
   endloop
 endfacet
 facet normal  0.000000e+00  0.000000e+00  1.000000e+00
   outer loop
     vertex  5.662353e-02  1.141921e-01  7.234722e-01
     vertex  5.525487e-02  1.122810e-01  7.234722e-01
     vertex  5.645988e-02  1.124407e-01  7.234722e-01
   endloop
 endfacet
 facet normal  1.108902e-10 -1.036116e-11  1.000000e+00
   outer loop
     vertex  5.662353e-02  1.141921e-01  7.234722e-01
     vertex  5.645988e-02  1.124407e-01  7.234722e-01
     vertex  5.753762e-02  1.130028e-01  7.234722e-01
   endloop
 endfacet
 facet normal  0.000000e+00  0.000000e+00  1.000000e+00
   outer loop
     vertex  5.662353e-02  1.141921e-01  7.234722e-01
     vertex  5.381900e-02  1.145590e-01  7.234722e-01
     vertex  5.525487e-02  1.122810e-01  7.234722e-01
   endloop
 endfacet
 facet normal  0.000000e+00  0.000000e+00  1.000000e+00
   outer loop
     vertex  5.193504e-02  1.153182e-01  7.234722e-01
     vertex  5.230149e-02  1.141592e-01  7.234722e-01
     vertex  5.381900e-02  1.145590e-01  7.234722e-01
   endloop
 endfacet
 facet normal  0.000000e+00  0.000000e+00  1.000000e+00
   outer loop
     vertex  5.882237e-02  1.150230e-01  7.234722e-01
     vertex  5.662353e-02  1.141921e-01  7.234722e-01
     vertex  5.835811e-02  1.138996e-01  7.234722e-01
   endloop
 endfacet
 facet normal  0.000000e+00  0.000000e+00  1.000000e+00
   outer loop
     vertex  5.198709e-02  1.165326e-01  7.234722e-01
     vertex  5.193504e-02  1.153182e-01  7.234722e-01
     vertex  5.381900e-02  1.145590e-01  7.234722e-01
   endloop
 endfacet
 facet normal  0.000000e+00  0.000000e+00  1.000000e+00
   outer loop
     vertex  5.418594e-02  1.173636e-01  7.234722e-01
     vertex  5.198709e-02  1.165326e-01  7.234722e-01
     vertex  5.381900e-02  1.145590e-01  7.234722e-01
   endloop
 endfacet
 facet normal  9.640287e-11  8.948236e-11  1.000000e+00
   outer loop
     vertex  5.699046e-02  1.169966e-01  7.234722e-01
     vertex  5.882237e-02  1.150230e-01  7.234722e-01
     vertex  5.887442e-02  1.162375e-01  7.234722e-01
   endloop
 endfacet
 facet normal  0.000000e+00  0.000000e+00  1.000000e+00
   outer loop
     vertex  5.699046e-02  1.169966e-01  7.234722e-01
     vertex  5.662353e-02  1.141921e-01  7.234722e-01
     vertex  5.882237e-02  1.150230e-01  7.234722e-01
   endloop
 endfacet
 facet normal  0.000000e+00  0.000000e+00  1.000000e+00
   outer loop
     vertex  5.245135e-02  1.176560e-01  7.234722e-01
     vertex  5.198709e-02  1.165326e-01  7.234722e-01
     vertex  5.418594e-02  1.173636e-01  7.234722e-01
   endloop
 endfacet
 facet normal  2.385665e-11 -9.054872e-11  1.000000e+00
   outer loop
     vertex  5.850797e-02  1.173964e-01  7.234722e-01
     vertex  5.699046e-02  1.169966e-01  7.234722e-01
     vertex  5.887442e-02  1.162375e-01  7.234722e-01
   endloop
 endfacet
 facet normal  0.000000e+00  0.000000e+00  1.000000e+00
   outer loop
     vertex  5.327184e-02  1.185529e-01  7.234722e-01
     vertex  5.245135e-02  1.176560e-01  7.234722e-01
     vertex  5.418594e-02  1.173636e-01  7.234722e-01
   endloop
 endfacet
 facet normal  0.000000e+00  0.000000e+00  1.000000e+00
   outer loop
     vertex  5.776723e-02  1.183602e-01  7.234722e-01
     vertex  5.699046e-02  1.169966e-01  7.234722e-01
     vertex  5.850797e-02  1.173964e-01  7.234722e-01
   endloop
 endfacet
 facet normal  0.000000e+00  0.000000e+00  1.000000e+00
   outer loop
     vertex  5.434958e-02  1.191150e-01  7.234722e-01
     vertex  5.327184e-02  1.185529e-01  7.234722e-01
     vertex  5.418594e-02  1.173636e-01  7.234722e-01
   endloop
 endfacet
 facet normal  0.000000e+00  0.000000e+00  1.000000e+00
   outer loop
     vertex  5.674153e-02  1.190125e-01  7.234722e-01
     vertex  5.699046e-02  1.169966e-01  7.234722e-01
     vertex  5.776723e-02  1.183602e-01  7.234722e-01
   endloop
 endfacet
 facet normal  0.000000e+00  0.000000e+00  1.000000e+00
   outer loop
     vertex  5.555459e-02  1.192746e-01  7.234722e-01
     vertex  5.418594e-02  1.173636e-01  7.234722e-01
     vertex  5.699046e-02  1.169966e-01  7.234722e-01
   endloop
 endfacet
 facet normal  0.000000e+00  0.000000e+00  1.000000e+00
   outer loop
     vertex  5.555459e-02  1.192746e-01  7.234722e-01
     vertex  5.434958e-02  1.191150e-01  7.234722e-01
     vertex  5.418594e-02  1.173636e-01  7.234722e-01
   endloop
 endfacet
 facet normal  0.000000e+00  0.000000e+00  1.000000e+00
   outer loop
     vertex  5.555459e-02  1.192746e-01  7.234722e-01
     vertex  5.699046e-02  1.169966e-01  7.234722e-01
     vertex  5.674153e-02  1.190125e-01  7.234722e-01
   endloop
 endfacet
 facet normal -7.329812e-02  5.533235e-01  8.297352e-01
   outer loop
     vertex  5.487400e-02  1.197843e-01  7.230722e-01
     vertex  5.434958e-02  1.191150e-01  7.234722e-01
     vertex  5.555459e-02  1.192746e-01  7.234722e-01
   endloop
 endfacet
 facet normal -3.476508e-01  6.665247e-01  6.594571e-01
   outer loop
     vertex  5.487400e-02  1.197843e-01  7.230722e-01
     vertex  5.327184e-02  1.185529e-01  7.234722e-01
     vertex  5.434958e-02  1.191150e-01  7.234722e-01
   endloop
 endfacet
 facet normal  1.621179e-01  7.340532e-01  6.594571e-01
   outer loop
     vertex  5.674153e-02  1.190125e-01  7.234722e-01
     vertex  5.487400e-02  1.197843e-01  7.230722e-01
     vertex  5.555459e-02  1.192746e-01  7.234722e-01
   endloop
 endfacet
 facet normal  3.819419e-01  9.241863e-01 -5.677679e-07
   outer loop
     vertex  5.674153e-02  1.190125e-01  7.234722e-01
     vertex  5.860906e-02  1.182407e-01  7.230722e-01
     vertex  5.860906e-02  1.182407e-01  7.210850e-01
   endloop
 endfacet
 facet normal  3.819422e-01  9.241862e-01 -3.585573e-07
   outer loop
     vertex  5.674153e-02  1.190125e-01  7.234722e-01
     vertex  5.860906e-02  1.182407e-01  7.210850e-01
     vertex  5.487400e-02  1.197843e-01  7.210850e-01
   endloop
 endfacet
 facet normal  3.819421e-01  9.241863e-01 -2.937636e-07
   outer loop
     vertex  5.487400e-02  1.197843e-01  7.230722e-01
     vertex  5.674153e-02  1.190125e-01  7.234722e-01
     vertex  5.487400e-02  1.197843e-01  7.210850e-01
   endloop
 endfacet
 facet normal  3.436398e-01  8.315436e-01  4.364022e-01
   outer loop
     vertex  5.668148e-02  1.190960e-01  7.210960e-01
     vertex  5.880236e-02  1.183893e-01  7.207725e-01
     vertex  5.484212e-02  1.200258e-01  7.207726e-01
   endloop
 endfacet
 facet normal  3.370068e-01  7.522275e-01  5.661980e-01
   outer loop
     vertex  5.668148e-02  1.190960e-01  7.210960e-01
     vertex  5.860906e-02  1.182407e-01  7.210850e-01
     vertex  5.880236e-02  1.183893e-01  7.207725e-01
   endloop
 endfacet
 facet normal -7.607813e-02 -1.840913e-01  9.799605e-01
   outer loop
     vertex  5.668148e-02  1.190960e-01  7.210960e-01
     vertex  5.487400e-02  1.197843e-01  7.210850e-01
     vertex  5.860906e-02  1.182407e-01  7.210850e-01
   endloop
 endfacet
 facet normal  2.902230e-01  7.711710e-01  5.666268e-01
   outer loop
     vertex  5.668148e-02  1.190960e-01  7.210960e-01
     vertex  5.484212e-02  1.200258e-01  7.207726e-01
     vertex  5.487400e-02  1.197843e-01  7.210850e-01
   endloop
 endfacet
 facet normal -1.962017e-01 -2.599262e-02  9.802190e-01
   outer loop
     vertex  5.893970e-02  1.161579e-01  7.210959e-01
     vertex  5.860906e-02  1.182407e-01  7.210850e-01
     vertex  5.913978e-02  1.142342e-01  7.210850e-01
   endloop
 endfacet
 facet normal  8.136090e-01  1.321382e-01  5.661978e-01
   outer loop
     vertex  5.893970e-02  1.161579e-01  7.210959e-01
     vertex  5.880236e-02  1.183893e-01  7.207725e-01
     vertex  5.860906e-02  1.182407e-01  7.210850e-01
   endloop
 endfacet
 facet normal  8.919379e-01  1.181540e-01  4.364475e-01
   outer loop
     vertex  5.893970e-02  1.161579e-01  7.210959e-01
     vertex  5.936511e-02  1.141411e-01  7.207725e-01
     vertex  5.880236e-02  1.183893e-01  7.207725e-01
   endloop
 endfacet
 facet normal  8.197863e-01  8.203842e-02  5.667628e-01
   outer loop
     vertex  5.893970e-02  1.161579e-01  7.210959e-01
     vertex  5.913978e-02  1.142342e-01  7.210850e-01
     vertex  5.936511e-02  1.141411e-01  7.207725e-01
   endloop
 endfacet
 facet normal  9.913398e-01  1.313220e-01 -1.973290e-06
   outer loop
     vertex  5.887442e-02  1.162375e-01  7.234722e-01
     vertex  5.913979e-02  1.142342e-01  7.230722e-01
     vertex  5.913978e-02  1.142342e-01  7.210850e-01
   endloop
 endfacet
 facet normal  9.913399e-01  1.313209e-01 -1.057629e-06
   outer loop
     vertex  5.887442e-02  1.162375e-01  7.234722e-01
     vertex  5.913978e-02  1.142342e-01  7.210850e-01
     vertex  5.860906e-02  1.182407e-01  7.210850e-01
   endloop
 endfacet
 facet normal  9.913398e-01  1.313215e-01 -5.677663e-07
   outer loop
     vertex  5.860906e-02  1.182407e-01  7.230722e-01
     vertex  5.887442e-02  1.162375e-01  7.234722e-01
     vertex  5.860906e-02  1.182407e-01  7.210850e-01
   endloop
 endfacet
 facet normal  4.425431e-01  3.401398e-01  8.297352e-01
   outer loop
     vertex  5.860906e-02  1.182407e-01  7.230722e-01
     vertex  5.776723e-02  1.183602e-01  7.234722e-01
     vertex  5.850797e-02  1.173964e-01  7.234722e-01
   endloop
 endfacet
 facet normal  4.034019e-01  6.343368e-01  6.594571e-01
   outer loop
     vertex  5.860906e-02  1.182407e-01  7.230722e-01
     vertex  5.674153e-02  1.190125e-01  7.234722e-01
     vertex  5.776723e-02  1.183602e-01  7.234722e-01
   endloop
 endfacet
 facet normal  7.167676e-01  2.266284e-01  6.594571e-01
   outer loop
     vertex  5.887442e-02  1.162375e-01  7.234722e-01
     vertex  5.860906e-02  1.182407e-01  7.230722e-01
     vertex  5.850797e-02  1.173964e-01  7.234722e-01
   endloop
 endfacet
 facet normal  6.093981e-01 -7.928644e-01 -2.073817e-06
   outer loop
     vertex  5.753762e-02  1.130028e-01  7.234722e-01
     vertex  5.593546e-02  1.117714e-01  7.230722e-01
     vertex  5.593546e-02  1.117714e-01  7.210850e-01
   endloop
 endfacet
 facet normal  6.093970e-01 -7.928653e-01 -8.631593e-07
   outer loop
     vertex  5.753762e-02  1.130028e-01  7.234722e-01
     vertex  5.593546e-02  1.117714e-01  7.210850e-01
     vertex  5.913978e-02  1.142342e-01  7.210850e-01
   endloop
 endfacet
 facet normal  6.093978e-01 -7.928646e-01  6.674470e-12
   outer loop
     vertex  5.913979e-02  1.142342e-01  7.230722e-01
     vertex  5.753762e-02  1.130028e-01  7.234722e-01
     vertex  5.913978e-02  1.142342e-01  7.210850e-01
   endloop
 endfacet
 facet normal -3.819419e-01 -9.241863e-01 -5.677586e-07
   outer loop
     vertex  5.406794e-02  1.125432e-01  7.234722e-01
     vertex  5.220041e-02  1.133150e-01  7.230722e-01
     vertex  5.220041e-02  1.133150e-01  7.210850e-01
   endloop
 endfacet
 facet normal -3.819423e-01 -9.241862e-01 -2.362795e-07
   outer loop
     vertex  5.406794e-02  1.125432e-01  7.234722e-01
     vertex  5.220041e-02  1.133150e-01  7.210850e-01
     vertex  5.593546e-02  1.117714e-01  7.210850e-01
   endloop
 endfacet
 facet normal -3.819420e-01 -9.241863e-01  2.926463e-12
   outer loop
     vertex  5.593546e-02  1.117714e-01  7.230722e-01
     vertex  5.406794e-02  1.125432e-01  7.234722e-01
     vertex  5.593546e-02  1.117714e-01  7.210850e-01
   endloop
 endfacet
 facet normal  7.329812e-02 -5.533235e-01  8.297352e-01
   outer loop
     vertex  5.593546e-02  1.117714e-01  7.230722e-01
     vertex  5.645988e-02  1.124407e-01  7.234722e-01
     vertex  5.525487e-02  1.122810e-01  7.234722e-01
   endloop
 endfacet
 facet normal  3.476508e-01 -6.665247e-01  6.594571e-01
   outer loop
     vertex  5.593546e-02  1.117714e-01  7.230722e-01
     vertex  5.753762e-02  1.130028e-01  7.234722e-01
     vertex  5.645988e-02  1.124407e-01  7.234722e-01
   endloop
 endfacet
 facet normal -1.621179e-01 -7.340532e-01  6.594571e-01
   outer loop
     vertex  5.406794e-02  1.125432e-01  7.234722e-01
     vertex  5.593546e-02  1.117714e-01  7.230722e-01
     vertex  5.525487e-02  1.122810e-01  7.234722e-01
   endloop
 endfacet
 facet normal -9.913398e-01 -1.313219e-01 -1.115277e-06
   outer loop
     vertex  5.193504e-02  1.153182e-01  7.234722e-01
     vertex  5.166968e-02  1.173214e-01  7.230722e-01
     vertex  5.166968e-02  1.173214e-01  7.210850e-01
   endloop
 endfacet
 facet normal -9.913399e-01 -1.313214e-01 -7.004856e-07
   outer loop
     vertex  5.193504e-02  1.153182e-01  7.234722e-01
     vertex  5.166968e-02  1.173214e-01  7.210850e-01
     vertex  5.220041e-02  1.133150e-01  7.210850e-01
   endloop
 endfacet
 facet normal -9.913398e-01 -1.313215e-01 -5.677583e-07
   outer loop
     vertex  5.220041e-02  1.133150e-01  7.230722e-01
     vertex  5.193504e-02  1.153182e-01  7.234722e-01
     vertex  5.220041e-02  1.133150e-01  7.210850e-01
   endloop
 endfacet
 facet normal -4.425431e-01 -3.401398e-01  8.297352e-01
   outer loop
     vertex  5.220041e-02  1.133150e-01  7.230722e-01
     vertex  5.304224e-02  1.131955e-01  7.234722e-01
     vertex  5.230149e-02  1.141592e-01  7.234722e-01
   endloop
 endfacet
 facet normal -4.034019e-01 -6.343368e-01  6.594571e-01
   outer loop
     vertex  5.220041e-02  1.133150e-01  7.230722e-01
     vertex  5.406794e-02  1.125432e-01  7.234722e-01
     vertex  5.304224e-02  1.131955e-01  7.234722e-01
   endloop
 endfacet
 facet normal -7.167676e-01 -2.266284e-01  6.594571e-01
   outer loop
     vertex  5.193504e-02  1.153182e-01  7.234722e-01
     vertex  5.220041e-02  1.133150e-01  7.230722e-01
     vertex  5.230149e-02  1.141592e-01  7.234722e-01
   endloop
 endfacet
 facet normal  5.158412e-01 -2.131837e-01  8.297352e-01
   outer loop
     vertex  5.913979e-02  1.142342e-01  7.230722e-01
     vertex  5.882237e-02  1.150230e-01  7.234722e-01
     vertex  5.835811e-02  1.138996e-01  7.234722e-01
   endloop
 endfacet
 facet normal  7.510527e-01 -3.218794e-02  6.594571e-01
   outer loop
     vertex  5.913979e-02  1.142342e-01  7.230722e-01
     vertex  5.887442e-02  1.162375e-01  7.234722e-01
     vertex  5.882237e-02  1.150230e-01  7.234722e-01
   endloop
 endfacet
 facet normal  5.546498e-01 -5.074248e-01  6.594571e-01
   outer loop
     vertex  5.753762e-02  1.130028e-01  7.234722e-01
     vertex  5.913979e-02  1.142342e-01  7.230722e-01
     vertex  5.835811e-02  1.138996e-01  7.234722e-01
   endloop
 endfacet
 facet normal  6.976856e-01 -9.128262e-02  7.105648e-01
   outer loop
     vertex  5.381900e-02  1.145590e-01  7.234722e-01
     vertex  5.442970e-02  1.170464e-01  7.231922e-01
     vertex  5.418594e-02  1.173636e-01  7.234722e-01
   endloop
 endfacet
 facet normal  6.976856e-01 -9.128262e-02  7.105648e-01
   outer loop
     vertex  5.381900e-02  1.145590e-01  7.234722e-01
     vertex  5.413615e-02  1.148028e-01  7.231922e-01
     vertex  5.442970e-02  1.170464e-01  7.231922e-01
   endloop
 endfacet
 facet normal  9.128262e-02  6.976856e-01  7.105648e-01
   outer loop
     vertex  5.662353e-02  1.141921e-01  7.234722e-01
     vertex  5.637977e-02  1.145092e-01  7.231922e-01
     vertex  5.413615e-02  1.148028e-01  7.231922e-01
   endloop
 endfacet
 facet normal  9.128262e-02  6.976856e-01  7.105648e-01
   outer loop
     vertex  5.662353e-02  1.141921e-01  7.234722e-01
     vertex  5.413615e-02  1.148028e-01  7.231922e-01
     vertex  5.381900e-02  1.145590e-01  7.234722e-01
   endloop
 endfacet
 facet normal -6.976856e-01  9.128262e-02  7.105648e-01
   outer loop
     vertex  5.699046e-02  1.169966e-01  7.234722e-01
     vertex  5.667332e-02  1.167529e-01  7.231922e-01
     vertex  5.637977e-02  1.145092e-01  7.231922e-01
   endloop
 endfacet
 facet normal -6.976856e-01  9.128262e-02  7.105648e-01
   outer loop
     vertex  5.699046e-02  1.169966e-01  7.234722e-01
     vertex  5.637977e-02  1.145092e-01  7.231922e-01
     vertex  5.662353e-02  1.141921e-01  7.234722e-01
   endloop
 endfacet
 facet normal -9.128262e-02 -6.976856e-01  7.105648e-01
   outer loop
     vertex  5.418594e-02  1.173636e-01  7.234722e-01
     vertex  5.442970e-02  1.170464e-01  7.231922e-01
     vertex  5.667332e-02  1.167529e-01  7.231922e-01
   endloop
 endfacet
 facet normal -9.128262e-02 -6.976856e-01  7.105648e-01
   outer loop
     vertex  5.418594e-02  1.173636e-01  7.234722e-01
     vertex  5.667332e-02  1.167529e-01  7.231922e-01
     vertex  5.699046e-02  1.169966e-01  7.234722e-01
   endloop
 endfacet
 facet normal  7.938415e-01 -6.081247e-01 -1.064128e-11
   outer loop
     vertex  5.442970e-02  1.170464e-01  7.231922e-01
     vertex  5.392603e-02  1.163889e-01  7.199777e-01
     vertex  5.442970e-02  1.170464e-01  7.199777e-01
   endloop
 endfacet
 facet normal  9.834220e-01 -1.286673e-01 -1.277725e-01
   outer loop
     vertex  5.413615e-02  1.148028e-01  7.231922e-01
     vertex  5.381859e-02  1.155677e-01  7.199777e-01
     vertex  5.392603e-02  1.163889e-01  7.199777e-01
   endloop
 endfacet
 facet normal  9.235722e-01  3.834246e-01 -2.387966e-12
   outer loop
     vertex  5.413615e-02  1.148028e-01  7.231922e-01
     vertex  5.413615e-02  1.148028e-01  7.199777e-01
     vertex  5.381859e-02  1.155677e-01  7.199777e-01
   endloop
 endfacet
 facet normal  9.834220e-01 -1.286673e-01 -1.277725e-01
   outer loop
     vertex  5.413615e-02  1.148028e-01  7.231922e-01
     vertex  5.392603e-02  1.163889e-01  7.199777e-01
     vertex  5.442970e-02  1.170464e-01  7.231922e-01
   endloop
 endfacet
 facet normal  1.297307e-01  9.915493e-01 -8.767181e-12
   outer loop
     vertex  5.637977e-02  1.145092e-01  7.231922e-01
     vertex  5.637977e-02  1.145092e-01  7.199777e-01
     vertex  5.413615e-02  1.148028e-01  7.199777e-01
   endloop
 endfacet
 facet normal  1.297307e-01  9.915493e-01  3.810053e-12
   outer loop
     vertex  5.637977e-02  1.145092e-01  7.231922e-01
     vertex  5.413615e-02  1.148028e-01  7.199777e-01
     vertex  5.413615e-02  1.148028e-01  7.231922e-01
   endloop
 endfacet
 facet normal -9.915493e-01  1.297307e-01 -7.620115e-12
   outer loop
     vertex  5.667332e-02  1.167529e-01  7.231922e-01
     vertex  5.667332e-02  1.167529e-01  7.199777e-01
     vertex  5.637977e-02  1.145092e-01  7.199777e-01
   endloop
 endfacet
 facet normal -9.915493e-01  1.297307e-01 -1.147060e-12
   outer loop
     vertex  5.667332e-02  1.167529e-01  7.231922e-01
     vertex  5.637977e-02  1.145092e-01  7.199777e-01
     vertex  5.637977e-02  1.145092e-01  7.231922e-01
   endloop
 endfacet
 facet normal -1.297307e-01 -9.915493e-01 -7.906882e-12
   outer loop
     vertex  5.442970e-02  1.170464e-01  7.231922e-01
     vertex  5.442970e-02  1.170464e-01  7.199777e-01
     vertex  5.667332e-02  1.167529e-01  7.199777e-01
   endloop
 endfacet
 facet normal -1.297307e-01 -9.915493e-01 -9.914254e-12
   outer loop
     vertex  5.442970e-02  1.170464e-01  7.231922e-01
     vertex  5.667332e-02  1.167529e-01  7.199777e-01
     vertex  5.667332e-02  1.167529e-01  7.231922e-01
   endloop
 endfacet
 facet normal  5.420619e-01  2.250391e-01 -8.096458e-01
   outer loop
     vertex  5.342205e-02  1.155152e-01  7.196976e-01
     vertex  5.413615e-02  1.148028e-01  7.199777e-01
     vertex  5.381900e-02  1.145590e-01  7.196976e-01
   endloop
 endfacet
 facet normal  5.420619e-01  2.250391e-01 -8.096458e-01
   outer loop
     vertex  5.342205e-02  1.155152e-01  7.196976e-01
     vertex  5.381859e-02  1.155677e-01  7.199777e-01
     vertex  5.413615e-02  1.148028e-01  7.199777e-01
   endloop
 endfacet
 facet normal  5.819590e-01 -7.614137e-02 -8.096458e-01
   outer loop
     vertex  5.355636e-02  1.165417e-01  7.196976e-01
     vertex  5.392603e-02  1.163889e-01  7.199777e-01
     vertex  5.381859e-02  1.155677e-01  7.199777e-01
   endloop
 endfacet
 facet normal  5.819590e-01 -7.614137e-02 -8.096458e-01
   outer loop
     vertex  5.355636e-02  1.165417e-01  7.196976e-01
     vertex  5.381859e-02  1.155677e-01  7.199777e-01
     vertex  5.342205e-02  1.155152e-01  7.196976e-01
   endloop
 endfacet
 facet normal  4.659205e-01 -3.569198e-01 -8.096458e-01
   outer loop
     vertex  5.418594e-02  1.173636e-01  7.196976e-01
     vertex  5.442970e-02  1.170464e-01  7.199777e-01
     vertex  5.392603e-02  1.163889e-01  7.199777e-01
   endloop
 endfacet
 facet normal  4.659205e-01 -3.569198e-01 -8.096458e-01
   outer loop
     vertex  5.418594e-02  1.173636e-01  7.196976e-01
     vertex  5.392603e-02  1.163889e-01  7.199777e-01
     vertex  5.355636e-02  1.165417e-01  7.196976e-01
   endloop
 endfacet
 facet normal -9.128262e-02 -6.976856e-01 -7.105648e-01
   outer loop
     vertex  5.699046e-02  1.169966e-01  7.196976e-01
     vertex  5.667332e-02  1.167529e-01  7.199777e-01
     vertex  5.442970e-02  1.170464e-01  7.199777e-01
   endloop
 endfacet
 facet normal -9.128262e-02 -6.976856e-01 -7.105648e-01
   outer loop
     vertex  5.699046e-02  1.169966e-01  7.196976e-01
     vertex  5.442970e-02  1.170464e-01  7.199777e-01
     vertex  5.418594e-02  1.173636e-01  7.196976e-01
   endloop
 endfacet
 facet normal -6.976856e-01  9.128262e-02 -7.105648e-01
   outer loop
     vertex  5.662353e-02  1.141921e-01  7.196976e-01
     vertex  5.637977e-02  1.145092e-01  7.199777e-01
     vertex  5.667332e-02  1.167529e-01  7.199777e-01
   endloop
 endfacet
 facet normal -6.976856e-01  9.128262e-02 -7.105648e-01
   outer loop
     vertex  5.662353e-02  1.141921e-01  7.196976e-01
     vertex  5.667332e-02  1.167529e-01  7.199777e-01
     vertex  5.699046e-02  1.169966e-01  7.196976e-01
   endloop
 endfacet
 facet normal  9.128262e-02  6.976856e-01 -7.105648e-01
   outer loop
     vertex  5.381900e-02  1.145590e-01  7.196976e-01
     vertex  5.413615e-02  1.148028e-01  7.199777e-01
     vertex  5.637977e-02  1.145092e-01  7.199777e-01
   endloop
 endfacet
 facet normal  9.128262e-02  6.976856e-01 -7.105648e-01
   outer loop
     vertex  5.381900e-02  1.145590e-01  7.196976e-01
     vertex  5.637977e-02  1.145092e-01  7.199777e-01
     vertex  5.662353e-02  1.141921e-01  7.196976e-01
   endloop
 endfacet
 facet normal  7.938415e-01 -6.081247e-01  0.000000e+00
   outer loop
     vertex  5.355636e-02  1.165417e-01  7.196976e-01
     vertex  5.418594e-02  1.173636e-01  7.196722e-01
     vertex  5.418594e-02  1.173636e-01  7.196976e-01
   endloop
 endfacet
 facet normal  4.859589e-02 -6.358108e-03  9.987983e-01
   outer loop
     vertex  5.342205e-02  1.155152e-01  7.196976e-01
     vertex  5.381900e-02  1.145590e-01  7.196722e-01
     vertex  5.418594e-02  1.173636e-01  7.196722e-01
   endloop
 endfacet
 facet normal  4.859589e-02 -6.358108e-03  9.987983e-01
   outer loop
     vertex  5.342205e-02  1.155152e-01  7.196976e-01
     vertex  5.418594e-02  1.173636e-01  7.196722e-01
     vertex  5.355636e-02  1.165417e-01  7.196976e-01
   endloop
 endfacet
 facet normal  9.235722e-01  3.834246e-01  3.022031e-10
   outer loop
     vertex  5.381900e-02  1.145590e-01  7.196976e-01
     vertex  5.381900e-02  1.145590e-01  7.196722e-01
     vertex  5.342205e-02  1.155152e-01  7.196976e-01
   endloop
 endfacet
 facet normal  1.297307e-01  9.915493e-01  0.000000e+00
   outer loop
     vertex  5.662353e-02  1.141921e-01  7.196976e-01
     vertex  5.662353e-02  1.141921e-01  7.196722e-01
     vertex  5.381900e-02  1.145590e-01  7.196722e-01
   endloop
 endfacet
 facet normal  1.297307e-01  9.915493e-01 -4.821725e-10
   outer loop
     vertex  5.662353e-02  1.141921e-01  7.196976e-01
     vertex  5.381900e-02  1.145590e-01  7.196722e-01
     vertex  5.381900e-02  1.145590e-01  7.196976e-01
   endloop
 endfacet
 facet normal -9.915493e-01  1.297307e-01  0.000000e+00
   outer loop
     vertex  5.699046e-02  1.169966e-01  7.196976e-01
     vertex  5.699046e-02  1.169966e-01  7.196722e-01
     vertex  5.662353e-02  1.141921e-01  7.196722e-01
   endloop
 endfacet
 facet normal -9.915493e-01  1.297307e-01  0.000000e+00
   outer loop
     vertex  5.699046e-02  1.169966e-01  7.196976e-01
     vertex  5.662353e-02  1.141921e-01  7.196722e-01
     vertex  5.662353e-02  1.141921e-01  7.196976e-01
   endloop
 endfacet
 facet normal -1.297307e-01 -9.915493e-01 -0.000000e+00
   outer loop
     vertex  5.418594e-02  1.173636e-01  7.196976e-01
     vertex  5.418594e-02  1.173636e-01  7.196722e-01
     vertex  5.699046e-02  1.169966e-01  7.196722e-01
   endloop
 endfacet
 facet normal -1.297307e-01 -9.915493e-01  0.000000e+00
   outer loop
     vertex  5.418594e-02  1.173636e-01  7.196976e-01
     vertex  5.699046e-02  1.169966e-01  7.196722e-01
     vertex  5.699046e-02  1.169966e-01  7.196976e-01
   endloop
 endfacet
endsolid
