solid 
 facet normal  7.047139e-01  3.210163e-01 -6.327139e-01
   outer loop
     vertex  6.026054e-02 -1.928905e-01  2.734088e-01
     vertex  5.994444e-02 -1.928601e-01  2.730722e-01
     vertex  5.805380e-02 -1.887096e-01  2.730722e-01
   endloop
 endfacet
 facet normal  7.047139e-01  3.210163e-01 -6.327139e-01
   outer loop
     vertex  6.026054e-02 -1.928905e-01  2.734088e-01
     vertex  5.805380e-02 -1.887096e-01  2.730722e-01
     vertex  5.823825e-02 -1.884511e-01  2.734088e-01
   endloop
 endfacet
 facet normal  8.996014e-01  4.097929e-01  1.509538e-01
   outer loop
     vertex  6.026054e-02 -1.928905e-01  2.734088e-01
     vertex  5.823825e-02 -1.884511e-01  2.734088e-01
     vertex  5.819158e-02 -1.885165e-01  2.738646e-01
   endloop
 endfacet
 facet normal  5.131131e-01  1.547459e-01  8.442563e-01
   outer loop
     vertex  6.026054e-02 -1.928905e-01  2.734088e-01
     vertex  5.819158e-02 -1.885165e-01  2.738646e-01
     vertex  5.795139e-02 -1.888531e-01  2.740722e-01
   endloop
 endfacet
 facet normal  4.063542e-02 -2.899508e-02  9.987532e-01
   outer loop
     vertex  5.739370e-02 -1.967885e-01  2.738646e-01
     vertex  5.795139e-02 -1.888531e-01  2.740722e-01
     vertex  5.285808e-02 -1.959912e-01  2.740722e-01
   endloop
 endfacet
 facet normal  2.101219e-01 -4.033286e-02  9.768429e-01
   outer loop
     vertex  5.739370e-02 -1.967885e-01  2.738646e-01
     vertex  6.026054e-02 -1.928905e-01  2.734088e-01
     vertex  5.795139e-02 -1.888531e-01  2.740722e-01
   endloop
 endfacet
 facet normal  6.303652e-01 -4.497920e-01 -6.327139e-01
   outer loop
     vertex  5.742702e-02 -1.968616e-01  2.734088e-01
     vertex  5.729537e-02 -1.965726e-01  2.730722e-01
     vertex  5.994444e-02 -1.928601e-01  2.730722e-01
   endloop
 endfacet
 facet normal  8.046918e-01 -5.741813e-01  1.509538e-01
   outer loop
     vertex  5.742702e-02 -1.968616e-01  2.734088e-01
     vertex  6.026054e-02 -1.928905e-01  2.734088e-01
     vertex  5.739370e-02 -1.967885e-01  2.738646e-01
   endloop
 endfacet
 facet normal  6.303652e-01 -4.497920e-01 -6.327139e-01
   outer loop
     vertex  5.742702e-02 -1.968616e-01  2.734088e-01
     vertex  5.994444e-02 -1.928601e-01  2.730722e-01
     vertex  6.026054e-02 -1.928905e-01  2.734088e-01
   endloop
 endfacet
 facet normal -4.816446e-02 -4.993439e-01  8.650641e-01
   outer loop
     vertex  5.261788e-02 -1.963278e-01  2.738646e-01
     vertex  5.739370e-02 -1.967885e-01  2.738646e-01
     vertex  5.285808e-02 -1.959912e-01  2.740722e-01
   endloop
 endfacet
 facet normal -7.434868e-02 -7.708082e-01 -6.327139e-01
   outer loop
     vertex  5.257121e-02 -1.963932e-01  2.734088e-01
     vertex  5.275566e-02 -1.961347e-01  2.730722e-01
     vertex  5.729537e-02 -1.965726e-01  2.730722e-01
   endloop
 endfacet
 facet normal -7.434868e-02 -7.708082e-01 -6.327139e-01
   outer loop
     vertex  5.257121e-02 -1.963932e-01  2.734088e-01
     vertex  5.729537e-02 -1.965726e-01  2.730722e-01
     vertex  5.742702e-02 -1.968616e-01  2.734088e-01
   endloop
 endfacet
 facet normal -9.490970e-02 -9.839741e-01  1.509538e-01
   outer loop
     vertex  5.257121e-02 -1.963932e-01  2.734088e-01
     vertex  5.739370e-02 -1.967885e-01  2.738646e-01
     vertex  5.261788e-02 -1.963278e-01  2.738646e-01
   endloop
 endfacet
 facet normal -9.490970e-02 -9.839741e-01  1.509538e-01
   outer loop
     vertex  5.257121e-02 -1.963932e-01  2.734088e-01
     vertex  5.742702e-02 -1.968616e-01  2.734088e-01
     vertex  5.739370e-02 -1.967885e-01  2.738646e-01
   endloop
 endfacet
 facet normal -7.047139e-01 -3.210163e-01 -6.327139e-01
   outer loop
     vertex  5.054893e-02 -1.919538e-01  2.734088e-01
     vertex  5.086502e-02 -1.919843e-01  2.730722e-01
     vertex  5.275566e-02 -1.961347e-01  2.730722e-01
   endloop
 endfacet
 facet normal -7.047139e-01 -3.210163e-01 -6.327139e-01
   outer loop
     vertex  5.054893e-02 -1.919538e-01  2.734088e-01
     vertex  5.275566e-02 -1.961347e-01  2.730722e-01
     vertex  5.257121e-02 -1.963932e-01  2.734088e-01
   endloop
 endfacet
 facet normal -5.131131e-01 -1.547459e-01  8.442563e-01
   outer loop
     vertex  5.054893e-02 -1.919538e-01  2.734088e-01
     vertex  5.261788e-02 -1.963278e-01  2.738646e-01
     vertex  5.285808e-02 -1.959912e-01  2.740722e-01
   endloop
 endfacet
 facet normal -8.996014e-01 -4.097929e-01  1.509538e-01
   outer loop
     vertex  5.054893e-02 -1.919538e-01  2.734088e-01
     vertex  5.257121e-02 -1.963932e-01  2.734088e-01
     vertex  5.261788e-02 -1.963278e-01  2.738646e-01
   endloop
 endfacet
 facet normal -4.063542e-02  2.899508e-02  9.987532e-01
   outer loop
     vertex  5.341576e-02 -1.880559e-01  2.738646e-01
     vertex  5.285808e-02 -1.959912e-01  2.740722e-01
     vertex  5.795139e-02 -1.888531e-01  2.740722e-01
   endloop
 endfacet
 facet normal  4.816446e-02  4.993439e-01  8.650641e-01
   outer loop
     vertex  5.341576e-02 -1.880559e-01  2.738646e-01
     vertex  5.795139e-02 -1.888531e-01  2.740722e-01
     vertex  5.819158e-02 -1.885165e-01  2.738646e-01
   endloop
 endfacet
 facet normal -2.101219e-01  4.033286e-02  9.768429e-01
   outer loop
     vertex  5.341576e-02 -1.880559e-01  2.738646e-01
     vertex  5.054893e-02 -1.919538e-01  2.734088e-01
     vertex  5.285808e-02 -1.959912e-01  2.740722e-01
   endloop
 endfacet
 facet normal -6.303652e-01  4.497920e-01 -6.327139e-01
   outer loop
     vertex  5.338245e-02 -1.879827e-01  2.734088e-01
     vertex  5.351409e-02 -1.882717e-01  2.730722e-01
     vertex  5.086502e-02 -1.919843e-01  2.730722e-01
   endloop
 endfacet
 facet normal  7.434868e-02  7.708082e-01 -6.327139e-01
   outer loop
     vertex  5.338245e-02 -1.879827e-01  2.734088e-01
     vertex  5.805380e-02 -1.887096e-01  2.730722e-01
     vertex  5.351409e-02 -1.882717e-01  2.730722e-01
   endloop
 endfacet
 facet normal  7.434868e-02  7.708082e-01 -6.327139e-01
   outer loop
     vertex  5.338245e-02 -1.879827e-01  2.734088e-01
     vertex  5.823825e-02 -1.884511e-01  2.734088e-01
     vertex  5.805380e-02 -1.887096e-01  2.730722e-01
   endloop
 endfacet
 facet normal  9.490970e-02  9.839741e-01  1.509538e-01
   outer loop
     vertex  5.338245e-02 -1.879827e-01  2.734088e-01
     vertex  5.819158e-02 -1.885165e-01  2.738646e-01
     vertex  5.823825e-02 -1.884511e-01  2.734088e-01
   endloop
 endfacet
 facet normal  9.490970e-02  9.839741e-01  1.509538e-01
   outer loop
     vertex  5.338245e-02 -1.879827e-01  2.734088e-01
     vertex  5.341576e-02 -1.880559e-01  2.738646e-01
     vertex  5.819158e-02 -1.885165e-01  2.738646e-01
   endloop
 endfacet
 facet normal -6.303652e-01  4.497920e-01 -6.327139e-01
   outer loop
     vertex  5.338245e-02 -1.879827e-01  2.734088e-01
     vertex  5.086502e-02 -1.919843e-01  2.730722e-01
     vertex  5.054893e-02 -1.919538e-01  2.734088e-01
   endloop
 endfacet
 facet normal -8.046918e-01  5.741813e-01  1.509538e-01
   outer loop
     vertex  5.338245e-02 -1.879827e-01  2.734088e-01
     vertex  5.054893e-02 -1.919538e-01  2.734088e-01
     vertex  5.341576e-02 -1.880559e-01  2.738646e-01
   endloop
 endfacet
 facet normal -1.235362e-01 -3.302600e-01 -9.357709e-01
   outer loop
     vertex  5.499344e-02 -1.966875e-01  2.729719e-01
     vertex  5.275566e-02 -1.961347e-01  2.730722e-01
     vertex  5.325715e-02 -1.954319e-01  2.727580e-01
   endloop
 endfacet
 facet normal -2.752595e-02 -2.853746e-01  9.580207e-01
   outer loop
     vertex  5.729537e-02 -1.965726e-01  2.730722e-01
     vertex  5.275566e-02 -1.961347e-01  2.730722e-01
     vertex  5.499344e-02 -1.966875e-01  2.729719e-01
   endloop
 endfacet
 facet normal  4.861556e-02 -1.066933e-01 -9.931028e-01
   outer loop
     vertex  5.889301e-02 -1.949112e-01  2.729720e-01
     vertex  5.729537e-02 -1.965726e-01  2.730722e-01
     vertex  5.499344e-02 -1.966875e-01  2.729719e-01
   endloop
 endfacet
 facet normal  2.331213e-01 -1.663418e-01  9.581153e-01
   outer loop
     vertex  5.994444e-02 -1.928601e-01  2.730722e-01
     vertex  5.729537e-02 -1.965726e-01  2.730722e-01
     vertex  5.889301e-02 -1.949112e-01  2.729720e-01
   endloop
 endfacet
 facet normal  1.166743e-01 -1.125387e-02 -9.931065e-01
   outer loop
     vertex  5.930444e-02 -1.906458e-01  2.729720e-01
     vertex  5.994444e-02 -1.928601e-01  2.730722e-01
     vertex  5.889301e-02 -1.949112e-01  2.729720e-01
   endloop
 endfacet
 facet normal  2.721178e-01  2.242410e-01 -9.357713e-01
   outer loop
     vertex  5.805380e-02 -1.887096e-01  2.730722e-01
     vertex  5.930444e-02 -1.906458e-01  2.729720e-01
     vertex  5.755232e-02 -1.894124e-01  2.727580e-01
   endloop
 endfacet
 facet normal  2.606168e-01  1.187180e-01  9.581153e-01
   outer loop
     vertex  5.805380e-02 -1.887096e-01  2.730722e-01
     vertex  5.994444e-02 -1.928601e-01  2.730722e-01
     vertex  5.930444e-02 -1.906458e-01  2.729720e-01
   endloop
 endfacet
 facet normal  1.235362e-01  3.302600e-01 -9.357709e-01
   outer loop
     vertex  5.581603e-02 -1.881569e-01  2.729719e-01
     vertex  5.805380e-02 -1.887096e-01  2.730722e-01
     vertex  5.755232e-02 -1.894124e-01  2.727580e-01
   endloop
 endfacet
 facet normal  2.752596e-02  2.853748e-01  9.580207e-01
   outer loop
     vertex  5.351409e-02 -1.882717e-01  2.730722e-01
     vertex  5.805380e-02 -1.887096e-01  2.730722e-01
     vertex  5.581603e-02 -1.881569e-01  2.729719e-01
   endloop
 endfacet
 facet normal -4.861557e-02  1.066933e-01 -9.931027e-01
   outer loop
     vertex  5.191645e-02 -1.899331e-01  2.729720e-01
     vertex  5.351409e-02 -1.882717e-01  2.730722e-01
     vertex  5.581603e-02 -1.881569e-01  2.729719e-01
   endloop
 endfacet
 facet normal -2.331213e-01  1.663418e-01  9.581153e-01
   outer loop
     vertex  5.086502e-02 -1.919843e-01  2.730722e-01
     vertex  5.351409e-02 -1.882717e-01  2.730722e-01
     vertex  5.191645e-02 -1.899331e-01  2.729720e-01
   endloop
 endfacet
 facet normal -1.166743e-01  1.125386e-02 -9.931065e-01
   outer loop
     vertex  5.150502e-02 -1.941986e-01  2.729720e-01
     vertex  5.086502e-02 -1.919843e-01  2.730722e-01
     vertex  5.191645e-02 -1.899331e-01  2.729720e-01
   endloop
 endfacet
 facet normal -2.721178e-01 -2.242410e-01 -9.357713e-01
   outer loop
     vertex  5.275566e-02 -1.961347e-01  2.730722e-01
     vertex  5.150502e-02 -1.941986e-01  2.729720e-01
     vertex  5.325715e-02 -1.954319e-01  2.727580e-01
   endloop
 endfacet
 facet normal -2.606168e-01 -1.187180e-01  9.581153e-01
   outer loop
     vertex  5.275566e-02 -1.961347e-01  2.730722e-01
     vertex  5.086502e-02 -1.919843e-01  2.730722e-01
     vertex  5.150502e-02 -1.941986e-01  2.729720e-01
   endloop
 endfacet
 facet normal -4.598651e-01 -6.844971e-01 -5.656747e-01
   outer loop
     vertex  5.415869e-02 -1.959007e-01  2.726984e-01
     vertex  5.501672e-02 -1.964450e-01  2.726595e-01
     vertex  5.499344e-02 -1.966875e-01  2.729719e-01
   endloop
 endfacet
 facet normal -3.342130e-01 -4.683853e-01 -8.178734e-01
   outer loop
     vertex  5.415869e-02 -1.959007e-01  2.726984e-01
     vertex  5.172689e-02 -1.940975e-01  2.726595e-01
     vertex  5.501672e-02 -1.964450e-01  2.726595e-01
   endloop
 endfacet
 facet normal -3.735687e-01 -6.322452e-01 -6.787580e-01
   outer loop
     vertex  5.415869e-02 -1.959007e-01  2.726984e-01
     vertex  5.499344e-02 -1.966875e-01  2.729719e-01
     vertex  5.325715e-02 -1.954319e-01  2.727580e-01
   endloop
 endfacet
 facet normal -4.976045e-01 -6.573057e-01 -5.659849e-01
   outer loop
     vertex  5.252554e-02 -1.947353e-01  2.726981e-01
     vertex  5.150502e-02 -1.941986e-01  2.729720e-01
     vertex  5.172689e-02 -1.940975e-01  2.726595e-01
   endloop
 endfacet
 facet normal -4.760216e-01 -5.583910e-01 -6.794136e-01
   outer loop
     vertex  5.252554e-02 -1.947353e-01  2.726981e-01
     vertex  5.325715e-02 -1.954319e-01  2.727580e-01
     vertex  5.150502e-02 -1.941986e-01  2.729720e-01
   endloop
 endfacet
 facet normal -3.310586e-01 -4.642100e-01 -8.215286e-01
   outer loop
     vertex  5.252554e-02 -1.947353e-01  2.726981e-01
     vertex  5.172689e-02 -1.940975e-01  2.726595e-01
     vertex  5.415869e-02 -1.959007e-01  2.726984e-01
   endloop
 endfacet
 facet normal -2.249889e-01 -3.155887e-01 -9.218372e-01
   outer loop
     vertex  5.252554e-02 -1.947353e-01  2.726981e-01
     vertex  5.415869e-02 -1.959007e-01  2.726984e-01
     vertex  5.325715e-02 -1.954319e-01  2.727580e-01
   endloop
 endfacet
 facet normal  3.635259e-01 -7.397760e-01 -5.661982e-01
   outer loop
     vertex  5.679863e-02 -1.956928e-01  2.726485e-01
     vertex  5.869455e-02 -1.947696e-01  2.726595e-01
     vertex  5.889301e-02 -1.949112e-01  2.729720e-01
   endloop
 endfacet
 facet normal -8.232936e-02  1.807318e-01 -9.800806e-01
   outer loop
     vertex  5.679863e-02 -1.956928e-01  2.726485e-01
     vertex  5.501672e-02 -1.964450e-01  2.726595e-01
     vertex  5.869455e-02 -1.947696e-01  2.726595e-01
   endloop
 endfacet
 facet normal  3.174376e-01 -7.603624e-01 -5.666413e-01
   outer loop
     vertex  5.679863e-02 -1.956928e-01  2.726485e-01
     vertex  5.499344e-02 -1.966875e-01  2.729719e-01
     vertex  5.501672e-02 -1.964450e-01  2.726595e-01
   endloop
 endfacet
 facet normal  3.729765e-01 -8.188143e-01 -4.363849e-01
   outer loop
     vertex  5.679863e-02 -1.956928e-01  2.726485e-01
     vertex  5.889301e-02 -1.949112e-01  2.729720e-01
     vertex  5.499344e-02 -1.966875e-01  2.729719e-01
   endloop
 endfacet
 facet normal -1.969392e-01  1.899623e-02 -9.802317e-01
   outer loop
     vertex  5.895097e-02 -1.926764e-01  2.726486e-01
     vertex  5.869455e-02 -1.947696e-01  2.726595e-01
     vertex  5.908257e-02 -1.907468e-01  2.726595e-01
   endloop
 endfacet
 facet normal  8.177908e-01 -1.031419e-01 -5.661978e-01
   outer loop
     vertex  5.895097e-02 -1.926764e-01  2.726486e-01
     vertex  5.889301e-02 -1.949112e-01  2.729720e-01
     vertex  5.869455e-02 -1.947696e-01  2.726595e-01
   endloop
 endfacet
 facet normal  8.955732e-01 -8.638298e-02 -4.364477e-01
   outer loop
     vertex  5.895097e-02 -1.926764e-01  2.726486e-01
     vertex  5.930444e-02 -1.906458e-01  2.729720e-01
     vertex  5.889301e-02 -1.949112e-01  2.729720e-01
   endloop
 endfacet
 facet normal  8.221919e-01 -5.285763e-02 -5.667508e-01
   outer loop
     vertex  5.895097e-02 -1.926764e-01  2.726486e-01
     vertex  5.908257e-02 -1.907468e-01  2.726595e-01
     vertex  5.930444e-02 -1.906458e-01  2.729720e-01
   endloop
 endfacet
 facet normal  3.342912e-01  4.684923e-01 -8.177801e-01
   outer loop
     vertex  5.665077e-02 -1.889437e-01  2.726984e-01
     vertex  5.908257e-02 -1.907468e-01  2.726595e-01
     vertex  5.579275e-02 -1.883994e-01  2.726595e-01
   endloop
 endfacet
 facet normal  3.735678e-01  6.322442e-01 -6.787594e-01
   outer loop
     vertex  5.665077e-02 -1.889437e-01  2.726984e-01
     vertex  5.581603e-02 -1.881569e-01  2.729719e-01
     vertex  5.755232e-02 -1.894124e-01  2.727580e-01
   endloop
 endfacet
 facet normal  4.598796e-01  6.845049e-01 -5.656535e-01
   outer loop
     vertex  5.665077e-02 -1.889437e-01  2.726984e-01
     vertex  5.579275e-02 -1.883994e-01  2.726595e-01
     vertex  5.581603e-02 -1.881569e-01  2.729719e-01
   endloop
 endfacet
 facet normal  4.976100e-01  6.573070e-01 -5.659786e-01
   outer loop
     vertex  5.828395e-02 -1.901090e-01  2.726981e-01
     vertex  5.930444e-02 -1.906458e-01  2.729720e-01
     vertex  5.908257e-02 -1.907468e-01  2.726595e-01
   endloop
 endfacet
 facet normal  4.760353e-01  5.584157e-01 -6.793837e-01
   outer loop
     vertex  5.828395e-02 -1.901090e-01  2.726981e-01
     vertex  5.755232e-02 -1.894124e-01  2.727580e-01
     vertex  5.930444e-02 -1.906458e-01  2.729720e-01
   endloop
 endfacet
 facet normal  2.249976e-01  3.156105e-01 -9.218276e-01
   outer loop
     vertex  5.828395e-02 -1.901090e-01  2.726981e-01
     vertex  5.665077e-02 -1.889437e-01  2.726984e-01
     vertex  5.755232e-02 -1.894124e-01  2.727580e-01
   endloop
 endfacet
 facet normal  3.309969e-01  4.641319e-01 -8.215976e-01
   outer loop
     vertex  5.828395e-02 -1.901090e-01  2.726981e-01
     vertex  5.908257e-02 -1.907468e-01  2.726595e-01
     vertex  5.665077e-02 -1.889437e-01  2.726984e-01
   endloop
 endfacet
 facet normal  5.808371e-01  8.140198e-01  5.091582e-07
   outer loop
     vertex  5.743766e-02 -1.895731e-01  2.702722e-01
     vertex  5.579275e-02 -1.883994e-01  2.726595e-01
     vertex  5.908257e-02 -1.907468e-01  2.726595e-01
   endloop
 endfacet
 facet normal  5.808371e-01  8.140198e-01  5.451789e-07
   outer loop
     vertex  5.743766e-02 -1.895731e-01  2.702722e-01
     vertex  5.908257e-02 -1.907468e-01  2.726595e-01
     vertex  5.908257e-02 -1.907468e-01  2.706722e-01
   endloop
 endfacet
 facet normal  5.808373e-01  8.140197e-01  6.781975e-07
   outer loop
     vertex  5.579275e-02 -1.883994e-01  2.706722e-01
     vertex  5.579275e-02 -1.883994e-01  2.726595e-01
     vertex  5.743766e-02 -1.895731e-01  2.702722e-01
   endloop
 endfacet
 facet normal  5.079396e-01  2.313803e-01 -8.297352e-01
   outer loop
     vertex  5.908257e-02 -1.907468e-01  2.706722e-01
     vertex  5.879339e-02 -1.915464e-01  2.702722e-01
     vertex  5.828950e-02 -1.904402e-01  2.702722e-01
   endloop
 endfacet
 facet normal  7.494345e-01  5.885743e-02 -6.594571e-01
   outer loop
     vertex  5.908257e-02 -1.907468e-01  2.706722e-01
     vertex  5.888856e-02 -1.927582e-01  2.702722e-01
     vertex  5.879339e-02 -1.915464e-01  2.702722e-01
   endloop
 endfacet
 facet normal  5.362673e-01  5.268146e-01 -6.594571e-01
   outer loop
     vertex  5.743766e-02 -1.895731e-01  2.702722e-01
     vertex  5.908257e-02 -1.907468e-01  2.706722e-01
     vertex  5.828950e-02 -1.904402e-01  2.702722e-01
   endloop
 endfacet
 facet normal  0.000000e+00  0.000000e+00 -1.000000e+00
   outer loop
     vertex  5.703277e-02 -1.935838e-01  2.702722e-01
     vertex  5.685563e-02 -1.956073e-01  2.702722e-01
     vertex  5.567876e-02 -1.959114e-01  2.702722e-01
   endloop
 endfacet
 facet normal  0.000000e+00  0.000000e+00 -1.000000e+00
   outer loop
     vertex  5.703277e-02 -1.935838e-01  2.702722e-01
     vertex  5.856353e-02 -1.939295e-01  2.702722e-01
     vertex  5.785750e-02 -1.949190e-01  2.702722e-01
   endloop
 endfacet
 facet normal  0.000000e+00 -0.000000e+00 -1.000000e+00
   outer loop
     vertex  5.703277e-02 -1.935838e-01  2.702722e-01
     vertex  5.785750e-02 -1.949190e-01  2.702722e-01
     vertex  5.685563e-02 -1.956073e-01  2.702722e-01
   endloop
 endfacet
 facet normal  0.000000e+00  0.000000e+00 -1.000000e+00
   outer loop
     vertex  5.424306e-02 -1.940502e-01  2.702722e-01
     vertex  5.337180e-02 -1.952712e-01  2.702722e-01
     vertex  5.251996e-02 -1.944041e-01  2.702722e-01
   endloop
 endfacet
 facet normal  0.000000e+00  0.000000e+00 -1.000000e+00
   outer loop
     vertex  5.424306e-02 -1.940502e-01  2.702722e-01
     vertex  5.567876e-02 -1.959114e-01  2.702722e-01
     vertex  5.446884e-02 -1.957947e-01  2.702722e-01
   endloop
 endfacet
 facet normal  0.000000e+00 -0.000000e+00 -1.000000e+00
   outer loop
     vertex  5.424306e-02 -1.940502e-01  2.702722e-01
     vertex  5.446884e-02 -1.957947e-01  2.702722e-01
     vertex  5.337180e-02 -1.952712e-01  2.702722e-01
   endloop
 endfacet
 facet normal  0.000000e+00  0.000000e+00 -1.000000e+00
   outer loop
     vertex  5.424306e-02 -1.940502e-01  2.702722e-01
     vertex  5.703277e-02 -1.935838e-01  2.702722e-01
     vertex  5.567876e-02 -1.959114e-01  2.702722e-01
   endloop
 endfacet
 facet normal  0.000000e+00  0.000000e+00 -1.000000e+00
   outer loop
     vertex  5.888856e-02 -1.927582e-01  2.702722e-01
     vertex  5.856353e-02 -1.939295e-01  2.702722e-01
     vertex  5.703277e-02 -1.935838e-01  2.702722e-01
   endloop
 endfacet
 facet normal  0.000000e+00  0.000000e+00 -1.000000e+00
   outer loop
     vertex  5.201607e-02 -1.932979e-01  2.702722e-01
     vertex  5.424306e-02 -1.940502e-01  2.702722e-01
     vertex  5.251996e-02 -1.944041e-01  2.702722e-01
   endloop
 endfacet
 facet normal  0.000000e+00 -0.000000e+00 -1.000000e+00
   outer loop
     vertex  5.879339e-02 -1.915464e-01  2.702722e-01
     vertex  5.888856e-02 -1.927582e-01  2.702722e-01
     vertex  5.703277e-02 -1.935838e-01  2.702722e-01
   endloop
 endfacet
 facet normal  1.975756e-11 -1.707314e-11 -1.000000e+00
   outer loop
     vertex  5.656641e-02 -1.907941e-01  2.702722e-01
     vertex  5.879339e-02 -1.915464e-01  2.702722e-01
     vertex  5.703277e-02 -1.935838e-01  2.702722e-01
   endloop
 endfacet
 facet normal  0.000000e+00  0.000000e+00 -1.000000e+00
   outer loop
     vertex  5.377669e-02 -1.912605e-01  2.702722e-01
     vertex  5.201607e-02 -1.932979e-01  2.702722e-01
     vertex  5.192090e-02 -1.920861e-01  2.702722e-01
   endloop
 endfacet
 facet normal  0.000000e+00 -0.000000e+00 -1.000000e+00
   outer loop
     vertex  5.377669e-02 -1.912605e-01  2.702722e-01
     vertex  5.424306e-02 -1.940502e-01  2.702722e-01
     vertex  5.201607e-02 -1.932979e-01  2.702722e-01
   endloop
 endfacet
 facet normal  3.016673e-11  1.374176e-11 -1.000000e+00
   outer loop
     vertex  5.828950e-02 -1.904402e-01  2.702722e-01
     vertex  5.879339e-02 -1.915464e-01  2.702722e-01
     vertex  5.656641e-02 -1.907941e-01  2.702722e-01
   endloop
 endfacet
 facet normal  0.000000e+00 -0.000000e+00 -1.000000e+00
   outer loop
     vertex  5.224593e-02 -1.909149e-01  2.702722e-01
     vertex  5.377669e-02 -1.912605e-01  2.702722e-01
     vertex  5.192090e-02 -1.920861e-01  2.702722e-01
   endloop
 endfacet
 facet normal  2.745048e-11  2.696661e-11 -1.000000e+00
   outer loop
     vertex  5.743766e-02 -1.895731e-01  2.702722e-01
     vertex  5.828950e-02 -1.904402e-01  2.702722e-01
     vertex  5.656641e-02 -1.907941e-01  2.702722e-01
   endloop
 endfacet
 facet normal  0.000000e+00 -0.000000e+00 -1.000000e+00
   outer loop
     vertex  5.295196e-02 -1.899254e-01  2.702722e-01
     vertex  5.377669e-02 -1.912605e-01  2.702722e-01
     vertex  5.224593e-02 -1.909149e-01  2.702722e-01
   endloop
 endfacet
 facet normal  1.657189e-11  3.472894e-11 -1.000000e+00
   outer loop
     vertex  5.634062e-02 -1.890496e-01  2.702722e-01
     vertex  5.743766e-02 -1.895731e-01  2.702722e-01
     vertex  5.656641e-02 -1.907941e-01  2.702722e-01
   endloop
 endfacet
 facet normal  0.000000e+00  0.000000e+00 -1.000000e+00
   outer loop
     vertex  5.395383e-02 -1.892371e-01  2.702722e-01
     vertex  5.377669e-02 -1.912605e-01  2.702722e-01
     vertex  5.295196e-02 -1.899254e-01  2.702722e-01
   endloop
 endfacet
 facet normal -2.257108e-11  1.313012e-11 -1.000000e+00
   outer loop
     vertex  5.513070e-02 -1.889329e-01  2.702722e-01
     vertex  5.656641e-02 -1.907941e-01  2.702722e-01
     vertex  5.377669e-02 -1.912605e-01  2.702722e-01
   endloop
 endfacet
 facet normal  3.182649e-12  3.299604e-11 -1.000000e+00
   outer loop
     vertex  5.513070e-02 -1.889329e-01  2.702722e-01
     vertex  5.634062e-02 -1.890496e-01  2.702722e-01
     vertex  5.656641e-02 -1.907941e-01  2.702722e-01
   endloop
 endfacet
 facet normal  0.000000e+00  0.000000e+00 -1.000000e+00
   outer loop
     vertex  5.513070e-02 -1.889329e-01  2.702722e-01
     vertex  5.377669e-02 -1.912605e-01  2.702722e-01
     vertex  5.395383e-02 -1.892371e-01  2.702722e-01
   endloop
 endfacet
 facet normal  5.358861e-02  5.555787e-01 -8.297352e-01
   outer loop
     vertex  5.579275e-02 -1.883994e-01  2.706722e-01
     vertex  5.634062e-02 -1.890496e-01  2.702722e-01
     vertex  5.513070e-02 -1.889329e-01  2.702722e-01
   endloop
 endfacet
 facet normal  3.237452e-01  6.784580e-01 -6.594571e-01
   outer loop
     vertex  5.579275e-02 -1.883994e-01  2.706722e-01
     vertex  5.743766e-02 -1.895731e-01  2.702722e-01
     vertex  5.634062e-02 -1.890496e-01  2.702722e-01
   endloop
 endfacet
 facet normal -1.881012e-01  7.278284e-01 -6.594571e-01
   outer loop
     vertex  5.395383e-02 -1.892371e-01  2.702722e-01
     vertex  5.579275e-02 -1.883994e-01  2.706722e-01
     vertex  5.513070e-02 -1.889329e-01  2.702722e-01
   endloop
 endfacet
 facet normal -4.145431e-01  9.100297e-01  5.677722e-07
   outer loop
     vertex  5.395383e-02 -1.892371e-01  2.702722e-01
     vertex  5.211491e-02 -1.900747e-01  2.706722e-01
     vertex  5.211491e-02 -1.900748e-01  2.726595e-01
   endloop
 endfacet
 facet normal -4.145433e-01  9.100296e-01  3.585579e-07
   outer loop
     vertex  5.395383e-02 -1.892371e-01  2.702722e-01
     vertex  5.211491e-02 -1.900748e-01  2.726595e-01
     vertex  5.579275e-02 -1.883994e-01  2.726595e-01
   endloop
 endfacet
 facet normal -4.145432e-01  9.100296e-01  2.937680e-07
   outer loop
     vertex  5.579275e-02 -1.883994e-01  2.706722e-01
     vertex  5.395383e-02 -1.892371e-01  2.702722e-01
     vertex  5.579275e-02 -1.883994e-01  2.726595e-01
   endloop
 endfacet
 facet normal -3.729730e-01  8.188066e-01 -4.364022e-01
   outer loop
     vertex  5.401087e-02 -1.891515e-01  2.726485e-01
     vertex  5.191645e-02 -1.899331e-01  2.729720e-01
     vertex  5.581603e-02 -1.881569e-01  2.729719e-01
   endloop
 endfacet
 facet normal -3.635255e-01  7.397763e-01 -5.661980e-01
   outer loop
     vertex  5.401087e-02 -1.891515e-01  2.726485e-01
     vertex  5.211491e-02 -1.900748e-01  2.726595e-01
     vertex  5.191645e-02 -1.899331e-01  2.729720e-01
   endloop
 endfacet
 facet normal  8.257205e-02 -1.812714e-01 -9.799605e-01
   outer loop
     vertex  5.401087e-02 -1.891515e-01  2.726485e-01
     vertex  5.579275e-02 -1.883994e-01  2.726595e-01
     vertex  5.211491e-02 -1.900748e-01  2.726595e-01
   endloop
 endfacet
 facet normal -3.174444e-01  7.603704e-01 -5.666268e-01
   outer loop
     vertex  5.401087e-02 -1.891515e-01  2.726485e-01
     vertex  5.581603e-02 -1.881569e-01  2.729719e-01
     vertex  5.579275e-02 -1.883994e-01  2.726595e-01
   endloop
 endfacet
 facet normal  1.970014e-01 -1.900388e-02 -9.802190e-01
   outer loop
     vertex  5.185849e-02 -1.921680e-01  2.726486e-01
     vertex  5.211491e-02 -1.900748e-01  2.726595e-01
     vertex  5.172689e-02 -1.940975e-01  2.726595e-01
   endloop
 endfacet
 facet normal -8.177908e-01  1.031419e-01 -5.661978e-01
   outer loop
     vertex  5.185849e-02 -1.921680e-01  2.726486e-01
     vertex  5.191645e-02 -1.899331e-01  2.729720e-01
     vertex  5.211491e-02 -1.900748e-01  2.726595e-01
   endloop
 endfacet
 facet normal -8.955733e-01  8.638294e-02 -4.364475e-01
   outer loop
     vertex  5.185849e-02 -1.921680e-01  2.726486e-01
     vertex  5.150502e-02 -1.941986e-01  2.729720e-01
     vertex  5.191645e-02 -1.899331e-01  2.729720e-01
   endloop
 endfacet
 facet normal -8.221839e-01  5.285423e-02 -5.667628e-01
   outer loop
     vertex  5.185849e-02 -1.921680e-01  2.726486e-01
     vertex  5.172689e-02 -1.940975e-01  2.726595e-01
     vertex  5.150502e-02 -1.941986e-01  2.729720e-01
   endloop
 endfacet
 facet normal -9.953803e-01  9.601028e-02  1.973289e-06
   outer loop
     vertex  5.192090e-02 -1.920861e-01  2.702722e-01
     vertex  5.172689e-02 -1.940975e-01  2.706722e-01
     vertex  5.172689e-02 -1.940975e-01  2.726595e-01
   endloop
 endfacet
 facet normal -9.953804e-01  9.600921e-02  1.057623e-06
   outer loop
     vertex  5.192090e-02 -1.920861e-01  2.702722e-01
     vertex  5.172689e-02 -1.940975e-01  2.726595e-01
     vertex  5.211491e-02 -1.900748e-01  2.726595e-01
   endloop
 endfacet
 facet normal -9.953804e-01  9.600978e-02  5.677701e-07
   outer loop
     vertex  5.211491e-02 -1.900747e-01  2.706722e-01
     vertex  5.192090e-02 -1.920861e-01  2.702722e-01
     vertex  5.211491e-02 -1.900748e-01  2.726595e-01
   endloop
 endfacet
 facet normal -4.543510e-01  3.241985e-01 -8.297352e-01
   outer loop
     vertex  5.211491e-02 -1.900747e-01  2.706722e-01
     vertex  5.295196e-02 -1.899254e-01  2.702722e-01
     vertex  5.224593e-02 -1.909149e-01  2.702722e-01
   endloop
 endfacet
 facet normal -4.256893e-01  6.196006e-01 -6.594571e-01
   outer loop
     vertex  5.211491e-02 -1.900747e-01  2.706722e-01
     vertex  5.395383e-02 -1.892371e-01  2.702722e-01
     vertex  5.295196e-02 -1.899254e-01  2.702722e-01
   endloop
 endfacet
 facet normal -7.243685e-01  2.010138e-01 -6.594571e-01
   outer loop
     vertex  5.192090e-02 -1.920861e-01  2.702722e-01
     vertex  5.211491e-02 -1.900747e-01  2.706722e-01
     vertex  5.224593e-02 -1.909149e-01  2.702722e-01
   endloop
 endfacet
 facet normal -5.808375e-01 -8.140195e-01  2.073828e-06
   outer loop
     vertex  5.337180e-02 -1.952712e-01  2.702722e-01
     vertex  5.501671e-02 -1.964450e-01  2.706722e-01
     vertex  5.501672e-02 -1.964450e-01  2.726595e-01
   endloop
 endfacet
 facet normal -5.808364e-01 -8.140203e-01  8.631546e-07
   outer loop
     vertex  5.337180e-02 -1.952712e-01  2.702722e-01
     vertex  5.501672e-02 -1.964450e-01  2.726595e-01
     vertex  5.172689e-02 -1.940975e-01  2.726595e-01
   endloop
 endfacet
 facet normal -5.808372e-01 -8.140197e-01 -1.705288e-11
   outer loop
     vertex  5.172689e-02 -1.940975e-01  2.706722e-01
     vertex  5.337180e-02 -1.952712e-01  2.702722e-01
     vertex  5.172689e-02 -1.940975e-01  2.726595e-01
   endloop
 endfacet
 facet normal  4.145431e-01 -9.100297e-01  5.677533e-07
   outer loop
     vertex  5.685563e-02 -1.956073e-01  2.702722e-01
     vertex  5.869455e-02 -1.947696e-01  2.706722e-01
     vertex  5.869455e-02 -1.947696e-01  2.726595e-01
   endloop
 endfacet
 facet normal  4.145434e-01 -9.100295e-01  2.362856e-07
   outer loop
     vertex  5.685563e-02 -1.956073e-01  2.702722e-01
     vertex  5.869455e-02 -1.947696e-01  2.726595e-01
     vertex  5.501672e-02 -1.964450e-01  2.726595e-01
   endloop
 endfacet
 facet normal  4.145432e-01 -9.100296e-01  8.449526e-12
   outer loop
     vertex  5.501671e-02 -1.964450e-01  2.706722e-01
     vertex  5.685563e-02 -1.956073e-01  2.702722e-01
     vertex  5.501672e-02 -1.964450e-01  2.726595e-01
   endloop
 endfacet
 facet normal -5.358861e-02 -5.555787e-01 -8.297352e-01
   outer loop
     vertex  5.501671e-02 -1.964450e-01  2.706722e-01
     vertex  5.446884e-02 -1.957947e-01  2.702722e-01
     vertex  5.567876e-02 -1.959114e-01  2.702722e-01
   endloop
 endfacet
 facet normal -3.237452e-01 -6.784580e-01 -6.594571e-01
   outer loop
     vertex  5.501671e-02 -1.964450e-01  2.706722e-01
     vertex  5.337180e-02 -1.952712e-01  2.702722e-01
     vertex  5.446884e-02 -1.957947e-01  2.702722e-01
   endloop
 endfacet
 facet normal  1.881012e-01 -7.278284e-01 -6.594571e-01
   outer loop
     vertex  5.685563e-02 -1.956073e-01  2.702722e-01
     vertex  5.501671e-02 -1.964450e-01  2.706722e-01
     vertex  5.567876e-02 -1.959114e-01  2.702722e-01
   endloop
 endfacet
 facet normal  9.953804e-01 -9.601011e-02  1.115271e-06
   outer loop
     vertex  5.888856e-02 -1.927582e-01  2.702722e-01
     vertex  5.908257e-02 -1.907468e-01  2.706722e-01
     vertex  5.908257e-02 -1.907468e-01  2.726595e-01
   endloop
 endfacet
 facet normal  9.953804e-01 -9.600963e-02  7.004833e-07
   outer loop
     vertex  5.888856e-02 -1.927582e-01  2.702722e-01
     vertex  5.908257e-02 -1.907468e-01  2.726595e-01
     vertex  5.869455e-02 -1.947696e-01  2.726595e-01
   endloop
 endfacet
 facet normal  9.953804e-01 -9.600978e-02  5.677544e-07
   outer loop
     vertex  5.869455e-02 -1.947696e-01  2.706722e-01
     vertex  5.888856e-02 -1.927582e-01  2.702722e-01
     vertex  5.869455e-02 -1.947696e-01  2.726595e-01
   endloop
 endfacet
 facet normal  4.543510e-01 -3.241985e-01 -8.297352e-01
   outer loop
     vertex  5.869455e-02 -1.947696e-01  2.706722e-01
     vertex  5.785750e-02 -1.949190e-01  2.702722e-01
     vertex  5.856353e-02 -1.939295e-01  2.702722e-01
   endloop
 endfacet
 facet normal  4.256893e-01 -6.196006e-01 -6.594571e-01
   outer loop
     vertex  5.869455e-02 -1.947696e-01  2.706722e-01
     vertex  5.685563e-02 -1.956073e-01  2.702722e-01
     vertex  5.785750e-02 -1.949190e-01  2.702722e-01
   endloop
 endfacet
 facet normal  7.243685e-01 -2.010138e-01 -6.594571e-01
   outer loop
     vertex  5.888856e-02 -1.927582e-01  2.702722e-01
     vertex  5.869455e-02 -1.947696e-01  2.706722e-01
     vertex  5.856353e-02 -1.939295e-01  2.702722e-01
   endloop
 endfacet
 facet normal -5.079396e-01 -2.313803e-01 -8.297352e-01
   outer loop
     vertex  5.172689e-02 -1.940975e-01  2.706722e-01
     vertex  5.201607e-02 -1.932979e-01  2.702722e-01
     vertex  5.251996e-02 -1.944041e-01  2.702722e-01
   endloop
 endfacet
 facet normal -7.494345e-01 -5.885743e-02 -6.594571e-01
   outer loop
     vertex  5.172689e-02 -1.940975e-01  2.706722e-01
     vertex  5.192090e-02 -1.920861e-01  2.702722e-01
     vertex  5.201607e-02 -1.932979e-01  2.702722e-01
   endloop
 endfacet
 facet normal -5.362673e-01 -5.268146e-01 -6.594571e-01
   outer loop
     vertex  5.337180e-02 -1.952712e-01  2.702722e-01
     vertex  5.172689e-02 -1.940975e-01  2.706722e-01
     vertex  5.251996e-02 -1.944041e-01  2.702722e-01
   endloop
 endfacet
 facet normal -6.940010e-01 -1.160183e-01 -7.105648e-01
   outer loop
     vertex  5.703277e-02 -1.935838e-01  2.702722e-01
     vertex  5.633407e-02 -1.911197e-01  2.705523e-01
     vertex  5.656641e-02 -1.907941e-01  2.702722e-01
   endloop
 endfacet
 facet normal -6.940010e-01 -1.160183e-01 -7.105648e-01
   outer loop
     vertex  5.703277e-02 -1.935838e-01  2.702722e-01
     vertex  5.670716e-02 -1.933515e-01  2.705523e-01
     vertex  5.633407e-02 -1.911197e-01  2.705523e-01
   endloop
 endfacet
 facet normal -1.160183e-01  6.940010e-01 -7.105648e-01
   outer loop
     vertex  5.424306e-02 -1.940502e-01  2.702722e-01
     vertex  5.447539e-02 -1.937246e-01  2.705523e-01
     vertex  5.670716e-02 -1.933515e-01  2.705523e-01
   endloop
 endfacet
 facet normal -1.160183e-01  6.940010e-01 -7.105648e-01
   outer loop
     vertex  5.424306e-02 -1.940502e-01  2.702722e-01
     vertex  5.670716e-02 -1.933515e-01  2.705523e-01
     vertex  5.703277e-02 -1.935838e-01  2.702722e-01
   endloop
 endfacet
 facet normal  6.940010e-01  1.160183e-01 -7.105648e-01
   outer loop
     vertex  5.377669e-02 -1.912605e-01  2.702722e-01
     vertex  5.410230e-02 -1.914928e-01  2.705523e-01
     vertex  5.447539e-02 -1.937246e-01  2.705523e-01
   endloop
 endfacet
 facet normal  6.940010e-01  1.160183e-01 -7.105648e-01
   outer loop
     vertex  5.377669e-02 -1.912605e-01  2.702722e-01
     vertex  5.447539e-02 -1.937246e-01  2.705523e-01
     vertex  5.424306e-02 -1.940502e-01  2.702722e-01
   endloop
 endfacet
 facet normal  1.160183e-01 -6.940010e-01 -7.105648e-01
   outer loop
     vertex  5.656641e-02 -1.907941e-01  2.702722e-01
     vertex  5.633407e-02 -1.911197e-01  2.705523e-01
     vertex  5.410230e-02 -1.914928e-01  2.705523e-01
   endloop
 endfacet
 facet normal  1.160183e-01 -6.940010e-01 -7.105648e-01
   outer loop
     vertex  5.656641e-02 -1.907941e-01  2.702722e-01
     vertex  5.410230e-02 -1.914928e-01  2.705523e-01
     vertex  5.377669e-02 -1.912605e-01  2.702722e-01
   endloop
 endfacet
 facet normal -7.717295e-01 -6.359510e-01  9.034794e-12
   outer loop
     vertex  5.633407e-02 -1.911197e-01  2.705523e-01
     vertex  5.686078e-02 -1.917589e-01  2.737668e-01
     vertex  5.633407e-02 -1.911197e-01  2.737668e-01
   endloop
 endfacet
 facet normal -9.782285e-01 -1.635335e-01  1.277725e-01
   outer loop
     vertex  5.670716e-02 -1.933515e-01  2.705523e-01
     vertex  5.699734e-02 -1.925758e-01  2.737668e-01
     vertex  5.686078e-02 -1.917589e-01  2.737668e-01
   endloop
 endfacet
 facet normal -9.366144e-01  3.503618e-01  1.447718e-11
   outer loop
     vertex  5.670716e-02 -1.933515e-01  2.705523e-01
     vertex  5.670716e-02 -1.933515e-01  2.737668e-01
     vertex  5.699734e-02 -1.925758e-01  2.737668e-01
   endloop
 endfacet
 facet normal -9.782285e-01 -1.635335e-01  1.277725e-01
   outer loop
     vertex  5.670716e-02 -1.933515e-01  2.705523e-01
     vertex  5.686078e-02 -1.917589e-01  2.737668e-01
     vertex  5.633407e-02 -1.911197e-01  2.705523e-01
   endloop
 endfacet
 facet normal -1.648850e-01  9.863128e-01 -7.289483e-13
   outer loop
     vertex  5.447539e-02 -1.937246e-01  2.705523e-01
     vertex  5.447539e-02 -1.937246e-01  2.737668e-01
     vertex  5.670716e-02 -1.933515e-01  2.737668e-01
   endloop
 endfacet
 facet normal -1.648850e-01  9.863128e-01  1.889966e-11
   outer loop
     vertex  5.447539e-02 -1.937246e-01  2.705523e-01
     vertex  5.670716e-02 -1.933515e-01  2.737668e-01
     vertex  5.670716e-02 -1.933515e-01  2.705523e-01
   endloop
 endfacet
 facet normal  9.863128e-01  1.648850e-01  5.818337e-12
   outer loop
     vertex  5.410230e-02 -1.914928e-01  2.705523e-01
     vertex  5.410230e-02 -1.914928e-01  2.737668e-01
     vertex  5.447539e-02 -1.937246e-01  2.737668e-01
   endloop
 endfacet
 facet normal  9.863128e-01  1.648850e-01  4.360437e-12
   outer loop
     vertex  5.410230e-02 -1.914928e-01  2.705523e-01
     vertex  5.447539e-02 -1.937246e-01  2.737668e-01
     vertex  5.447539e-02 -1.937246e-01  2.705523e-01
   endloop
 endfacet
 facet normal  1.648850e-01 -9.863128e-01  7.991933e-12
   outer loop
     vertex  5.633407e-02 -1.911197e-01  2.705523e-01
     vertex  5.633407e-02 -1.911197e-01  2.737668e-01
     vertex  5.410230e-02 -1.914928e-01  2.737668e-01
   endloop
 endfacet
 facet normal  1.648850e-01 -9.863128e-01 -7.991934e-12
   outer loop
     vertex  5.633407e-02 -1.911197e-01  2.705523e-01
     vertex  5.410230e-02 -1.914928e-01  2.737668e-01
     vertex  5.410230e-02 -1.914928e-01  2.705523e-01
   endloop
 endfacet
 facet normal -5.497167e-01  2.056340e-01  8.096458e-01
   outer loop
     vertex  5.739549e-02 -1.926142e-01  2.740468e-01
     vertex  5.670716e-02 -1.933515e-01  2.737668e-01
     vertex  5.703277e-02 -1.935838e-01  2.740468e-01
   endloop
 endfacet
 facet normal -5.497167e-01  2.056340e-01  8.096458e-01
   outer loop
     vertex  5.739549e-02 -1.926142e-01  2.740468e-01
     vertex  5.699734e-02 -1.925758e-01  2.737668e-01
     vertex  5.670716e-02 -1.933515e-01  2.737668e-01
   endloop
 endfacet
 facet normal -5.788856e-01 -9.677409e-02  8.096458e-01
   outer loop
     vertex  5.722479e-02 -1.915931e-01  2.740468e-01
     vertex  5.686078e-02 -1.917589e-01  2.737668e-01
     vertex  5.699734e-02 -1.925758e-01  2.737668e-01
   endloop
 endfacet
 facet normal -5.788856e-01 -9.677409e-02  8.096458e-01
   outer loop
     vertex  5.722479e-02 -1.915931e-01  2.740468e-01
     vertex  5.699734e-02 -1.925758e-01  2.737668e-01
     vertex  5.739549e-02 -1.926142e-01  2.740468e-01
   endloop
 endfacet
 facet normal -4.529426e-01 -3.732516e-01  8.096458e-01
   outer loop
     vertex  5.656641e-02 -1.907941e-01  2.740468e-01
     vertex  5.633407e-02 -1.911197e-01  2.737668e-01
     vertex  5.686078e-02 -1.917589e-01  2.737668e-01
   endloop
 endfacet
 facet normal -4.529426e-01 -3.732516e-01  8.096458e-01
   outer loop
     vertex  5.656641e-02 -1.907941e-01  2.740468e-01
     vertex  5.686078e-02 -1.917589e-01  2.737668e-01
     vertex  5.722479e-02 -1.915931e-01  2.740468e-01
   endloop
 endfacet
 facet normal  1.160183e-01 -6.940010e-01  7.105648e-01
   outer loop
     vertex  5.377669e-02 -1.912605e-01  2.740468e-01
     vertex  5.410230e-02 -1.914928e-01  2.737668e-01
     vertex  5.633407e-02 -1.911197e-01  2.737668e-01
   endloop
 endfacet
 facet normal  1.160183e-01 -6.940010e-01  7.105648e-01
   outer loop
     vertex  5.377669e-02 -1.912605e-01  2.740468e-01
     vertex  5.633407e-02 -1.911197e-01  2.737668e-01
     vertex  5.656641e-02 -1.907941e-01  2.740468e-01
   endloop
 endfacet
 facet normal  6.940010e-01  1.160183e-01  7.105648e-01
   outer loop
     vertex  5.424306e-02 -1.940502e-01  2.740468e-01
     vertex  5.447539e-02 -1.937246e-01  2.737668e-01
     vertex  5.410230e-02 -1.914928e-01  2.737668e-01
   endloop
 endfacet
 facet normal  6.940010e-01  1.160183e-01  7.105648e-01
   outer loop
     vertex  5.424306e-02 -1.940502e-01  2.740468e-01
     vertex  5.410230e-02 -1.914928e-01  2.737668e-01
     vertex  5.377669e-02 -1.912605e-01  2.740468e-01
   endloop
 endfacet
 facet normal -1.160183e-01  6.940010e-01  7.105648e-01
   outer loop
     vertex  5.703277e-02 -1.935838e-01  2.740468e-01
     vertex  5.670716e-02 -1.933515e-01  2.737668e-01
     vertex  5.447539e-02 -1.937246e-01  2.737668e-01
   endloop
 endfacet
 facet normal -1.160183e-01  6.940010e-01  7.105648e-01
   outer loop
     vertex  5.703277e-02 -1.935838e-01  2.740468e-01
     vertex  5.447539e-02 -1.937246e-01  2.737668e-01
     vertex  5.424306e-02 -1.940502e-01  2.740468e-01
   endloop
 endfacet
 facet normal -7.717295e-01 -6.359510e-01  0.000000e+00
   outer loop
     vertex  5.722479e-02 -1.915931e-01  2.740468e-01
     vertex  5.656641e-02 -1.907941e-01  2.740722e-01
     vertex  5.656641e-02 -1.907941e-01  2.740468e-01
   endloop
 endfacet
 facet normal -4.833925e-02 -8.081023e-03 -9.987983e-01
   outer loop
     vertex  5.739549e-02 -1.926142e-01  2.740468e-01
     vertex  5.703277e-02 -1.935838e-01  2.740722e-01
     vertex  5.656641e-02 -1.907941e-01  2.740722e-01
   endloop
 endfacet
 facet normal -4.833925e-02 -8.081023e-03 -9.987983e-01
   outer loop
     vertex  5.739549e-02 -1.926142e-01  2.740468e-01
     vertex  5.656641e-02 -1.907941e-01  2.740722e-01
     vertex  5.722479e-02 -1.915931e-01  2.740468e-01
   endloop
 endfacet
 facet normal -9.366144e-01  3.503618e-01 -3.920426e-10
   outer loop
     vertex  5.703277e-02 -1.935838e-01  2.740468e-01
     vertex  5.703277e-02 -1.935838e-01  2.740722e-01
     vertex  5.739549e-02 -1.926142e-01  2.740468e-01
   endloop
 endfacet
 facet normal -1.648850e-01  9.863128e-01  0.000000e+00
   outer loop
     vertex  5.424306e-02 -1.940502e-01  2.740468e-01
     vertex  5.424306e-02 -1.940502e-01  2.740722e-01
     vertex  5.703277e-02 -1.935838e-01  2.740722e-01
   endloop
 endfacet
 facet normal -1.648850e-01  9.863128e-01 -1.103649e-09
   outer loop
     vertex  5.424306e-02 -1.940502e-01  2.740468e-01
     vertex  5.703277e-02 -1.935838e-01  2.740722e-01
     vertex  5.703277e-02 -1.935838e-01  2.740468e-01
   endloop
 endfacet
 facet normal  9.863128e-01  1.648850e-01 -0.000000e+00
   outer loop
     vertex  5.377669e-02 -1.912605e-01  2.740468e-01
     vertex  5.377669e-02 -1.912605e-01  2.740722e-01
     vertex  5.424306e-02 -1.940502e-01  2.740722e-01
   endloop
 endfacet
 facet normal  9.863128e-01  1.648850e-01  0.000000e+00
   outer loop
     vertex  5.377669e-02 -1.912605e-01  2.740468e-01
     vertex  5.424306e-02 -1.940502e-01  2.740722e-01
     vertex  5.424306e-02 -1.940502e-01  2.740468e-01
   endloop
 endfacet
 facet normal  1.648850e-01 -9.863128e-01  0.000000e+00
   outer loop
     vertex  5.656641e-02 -1.907941e-01  2.740468e-01
     vertex  5.656641e-02 -1.907941e-01  2.740722e-01
     vertex  5.377669e-02 -1.912605e-01  2.740722e-01
   endloop
 endfacet
 facet normal  1.648850e-01 -9.863128e-01  0.000000e+00
   outer loop
     vertex  5.656641e-02 -1.907941e-01  2.740468e-01
     vertex  5.377669e-02 -1.912605e-01  2.740722e-01
     vertex  5.377669e-02 -1.912605e-01  2.740468e-01
   endloop
 endfacet
endsolid
