solid 
 facet normal  3.272535e-01 -1.358991e-01 -9.351131e-01
   outer loop
     vertex  1.873456e-01 -1.394203e-01  2.767454e-01
     vertex  1.874380e-01 -1.393821e-01  2.767722e-01
     vertex  1.862448e-01 -1.422555e-01  2.767722e-01
   endloop
 endfacet
 facet normal  9.073904e-01 -3.768134e-01 -1.861568e-01
   outer loop
     vertex  1.872532e-01 -1.394585e-01  2.765722e-01
     vertex  1.872779e-01 -1.394482e-01  2.766722e-01
     vertex  1.861684e-01 -1.420706e-01  2.765722e-01
   endloop
 endfacet
 facet normal  1.358991e-01  3.272535e-01 -9.351131e-01
   outer loop
     vertex  1.846028e-01 -1.382813e-01  2.767454e-01
     vertex  1.874380e-01 -1.393821e-01  2.767722e-01
     vertex  1.873456e-01 -1.394203e-01  2.767454e-01
   endloop
 endfacet
 facet normal  1.358991e-01  3.272535e-01 -9.351131e-01
   outer loop
     vertex  1.846028e-01 -1.382813e-01  2.767454e-01
     vertex  1.845647e-01 -1.381889e-01  2.767722e-01
     vertex  1.874380e-01 -1.393821e-01  2.767722e-01
   endloop
 endfacet
 facet normal  3.768134e-01  9.073904e-01 -1.861568e-01
   outer loop
     vertex  1.846308e-01 -1.383490e-01  2.766722e-01
     vertex  1.872532e-01 -1.394585e-01  2.765722e-01
     vertex  1.846410e-01 -1.383737e-01  2.765722e-01
   endloop
 endfacet
 facet normal  3.131405e-01  7.540621e-01 -5.773503e-01
   outer loop
     vertex  1.846308e-01 -1.383490e-01  2.766722e-01
     vertex  1.873456e-01 -1.394203e-01  2.767454e-01
     vertex  1.872779e-01 -1.394482e-01  2.766722e-01
   endloop
 endfacet
 facet normal  3.768134e-01  9.073904e-01 -1.861568e-01
   outer loop
     vertex  1.846308e-01 -1.383490e-01  2.766722e-01
     vertex  1.872779e-01 -1.394482e-01  2.766722e-01
     vertex  1.872532e-01 -1.394585e-01  2.765722e-01
   endloop
 endfacet
 facet normal  3.131405e-01  7.540621e-01 -5.773503e-01
   outer loop
     vertex  1.846308e-01 -1.383490e-01  2.766722e-01
     vertex  1.846028e-01 -1.382813e-01  2.767454e-01
     vertex  1.873456e-01 -1.394203e-01  2.767454e-01
   endloop
 endfacet
 facet normal -3.272535e-01  1.358991e-01 -9.351131e-01
   outer loop
     vertex  1.834639e-01 -1.410241e-01  2.767454e-01
     vertex  1.833714e-01 -1.410622e-01  2.767722e-01
     vertex  1.845647e-01 -1.381889e-01  2.767722e-01
   endloop
 endfacet
 facet normal -3.272535e-01  1.358991e-01 -9.351131e-01
   outer loop
     vertex  1.834639e-01 -1.410241e-01  2.767454e-01
     vertex  1.845647e-01 -1.381889e-01  2.767722e-01
     vertex  1.846028e-01 -1.382813e-01  2.767454e-01
   endloop
 endfacet
 facet normal -9.073904e-01  3.768134e-01 -1.861568e-01
   outer loop
     vertex  1.835315e-01 -1.409961e-01  2.766722e-01
     vertex  1.846410e-01 -1.383737e-01  2.765722e-01
     vertex  1.835563e-01 -1.409859e-01  2.765722e-01
   endloop
 endfacet
 facet normal -7.540621e-01  3.131405e-01 -5.773503e-01
   outer loop
     vertex  1.835315e-01 -1.409961e-01  2.766722e-01
     vertex  1.846028e-01 -1.382813e-01  2.767454e-01
     vertex  1.846308e-01 -1.383490e-01  2.766722e-01
   endloop
 endfacet
 facet normal -7.540621e-01  3.131405e-01 -5.773503e-01
   outer loop
     vertex  1.835315e-01 -1.409961e-01  2.766722e-01
     vertex  1.834639e-01 -1.410241e-01  2.767454e-01
     vertex  1.846028e-01 -1.382813e-01  2.767454e-01
   endloop
 endfacet
 facet normal -9.073904e-01  3.768134e-01 -1.861568e-01
   outer loop
     vertex  1.835315e-01 -1.409961e-01  2.766722e-01
     vertex  1.846308e-01 -1.383490e-01  2.766722e-01
     vertex  1.846410e-01 -1.383737e-01  2.765722e-01
   endloop
 endfacet
 facet normal -1.358991e-01 -3.272535e-01 -9.351131e-01
   outer loop
     vertex  1.862066e-01 -1.421630e-01  2.767454e-01
     vertex  1.862448e-01 -1.422555e-01  2.767722e-01
     vertex  1.833714e-01 -1.410622e-01  2.767722e-01
   endloop
 endfacet
 facet normal -1.358991e-01 -3.272535e-01 -9.351131e-01
   outer loop
     vertex  1.862066e-01 -1.421630e-01  2.767454e-01
     vertex  1.833714e-01 -1.410622e-01  2.767722e-01
     vertex  1.834639e-01 -1.410241e-01  2.767454e-01
   endloop
 endfacet
 facet normal  3.272535e-01 -1.358991e-01 -9.351131e-01
   outer loop
     vertex  1.862066e-01 -1.421630e-01  2.767454e-01
     vertex  1.873456e-01 -1.394203e-01  2.767454e-01
     vertex  1.862448e-01 -1.422555e-01  2.767722e-01
   endloop
 endfacet
 facet normal  7.540621e-01 -3.131405e-01 -5.773503e-01
   outer loop
     vertex  1.861787e-01 -1.420954e-01  2.766722e-01
     vertex  1.872779e-01 -1.394482e-01  2.766722e-01
     vertex  1.873456e-01 -1.394203e-01  2.767454e-01
   endloop
 endfacet
 facet normal -3.768134e-01 -9.073904e-01 -1.861568e-01
   outer loop
     vertex  1.861787e-01 -1.420954e-01  2.766722e-01
     vertex  1.835563e-01 -1.409859e-01  2.765722e-01
     vertex  1.861684e-01 -1.420706e-01  2.765722e-01
   endloop
 endfacet
 facet normal  7.540621e-01 -3.131405e-01 -5.773503e-01
   outer loop
     vertex  1.861787e-01 -1.420954e-01  2.766722e-01
     vertex  1.873456e-01 -1.394203e-01  2.767454e-01
     vertex  1.862066e-01 -1.421630e-01  2.767454e-01
   endloop
 endfacet
 facet normal -3.131405e-01 -7.540621e-01 -5.773503e-01
   outer loop
     vertex  1.861787e-01 -1.420954e-01  2.766722e-01
     vertex  1.862066e-01 -1.421630e-01  2.767454e-01
     vertex  1.834639e-01 -1.410241e-01  2.767454e-01
   endloop
 endfacet
 facet normal -3.768134e-01 -9.073904e-01 -1.861568e-01
   outer loop
     vertex  1.861787e-01 -1.420954e-01  2.766722e-01
     vertex  1.835315e-01 -1.409961e-01  2.766722e-01
     vertex  1.835563e-01 -1.409859e-01  2.765722e-01
   endloop
 endfacet
 facet normal -3.131405e-01 -7.540621e-01 -5.773503e-01
   outer loop
     vertex  1.861787e-01 -1.420954e-01  2.766722e-01
     vertex  1.834639e-01 -1.410241e-01  2.767454e-01
     vertex  1.835315e-01 -1.409961e-01  2.766722e-01
   endloop
 endfacet
 facet normal  9.073904e-01 -3.768134e-01 -1.861568e-01
   outer loop
     vertex  1.861787e-01 -1.420954e-01  2.766722e-01
     vertex  1.861684e-01 -1.420706e-01  2.765722e-01
     vertex  1.872779e-01 -1.394482e-01  2.766722e-01
   endloop
 endfacet
 facet normal  3.835172e-01  9.235337e-01  0.000000e+00
   outer loop
     vertex  1.846410e-01 -1.383737e-01  2.765722e-01
     vertex  1.872532e-01 -1.394585e-01  2.765722e-01
     vertex  1.872532e-01 -1.394585e-01  2.707722e-01
   endloop
 endfacet
 facet normal  3.835172e-01  9.235337e-01  0.000000e+00
   outer loop
     vertex  1.846410e-01 -1.383737e-01  2.765722e-01
     vertex  1.872532e-01 -1.394585e-01  2.707722e-01
     vertex  1.846410e-01 -1.383737e-01  2.707722e-01
   endloop
 endfacet
 facet normal -9.235337e-01  3.835172e-01  0.000000e+00
   outer loop
     vertex  1.835563e-01 -1.409859e-01  2.765722e-01
     vertex  1.846410e-01 -1.383737e-01  2.707722e-01
     vertex  1.835563e-01 -1.409859e-01  2.707722e-01
   endloop
 endfacet
 facet normal -9.235337e-01  3.835172e-01  0.000000e+00
   outer loop
     vertex  1.835563e-01 -1.409859e-01  2.765722e-01
     vertex  1.846410e-01 -1.383737e-01  2.765722e-01
     vertex  1.846410e-01 -1.383737e-01  2.707722e-01
   endloop
 endfacet
 facet normal -3.835172e-01 -9.235337e-01 -0.000000e+00
   outer loop
     vertex  1.861684e-01 -1.420706e-01  2.765722e-01
     vertex  1.835563e-01 -1.409859e-01  2.707722e-01
     vertex  1.861684e-01 -1.420706e-01  2.707722e-01
   endloop
 endfacet
 facet normal -3.835172e-01 -9.235337e-01  0.000000e+00
   outer loop
     vertex  1.861684e-01 -1.420706e-01  2.765722e-01
     vertex  1.835563e-01 -1.409859e-01  2.765722e-01
     vertex  1.835563e-01 -1.409859e-01  2.707722e-01
   endloop
 endfacet
 facet normal  9.235337e-01 -3.835172e-01  0.000000e+00
   outer loop
     vertex  1.872532e-01 -1.394585e-01  2.765722e-01
     vertex  1.861684e-01 -1.420706e-01  2.707722e-01
     vertex  1.872532e-01 -1.394585e-01  2.707722e-01
   endloop
 endfacet
 facet normal  9.235337e-01 -3.835172e-01  0.000000e+00
   outer loop
     vertex  1.872532e-01 -1.394585e-01  2.765722e-01
     vertex  1.861684e-01 -1.420706e-01  2.765722e-01
     vertex  1.861684e-01 -1.420706e-01  2.707722e-01
   endloop
 endfacet
 facet normal  0.000000e+00  0.000000e+00 -1.000000e+00
   outer loop
     vertex  1.861684e-01 -1.420706e-01  2.707722e-01
     vertex  1.835563e-01 -1.409859e-01  2.707722e-01
     vertex  1.846410e-01 -1.383737e-01  2.707722e-01
   endloop
 endfacet
 facet normal -0.000000e+00  0.000000e+00 -1.000000e+00
   outer loop
     vertex  1.872532e-01 -1.394585e-01  2.707722e-01
     vertex  1.861684e-01 -1.420706e-01  2.707722e-01
     vertex  1.846410e-01 -1.383737e-01  2.707722e-01
   endloop
 endfacet
 facet normal  0.000000e+00  0.000000e+00 -1.000000e+00
   outer loop
     vertex  1.874380e-01 -1.393821e-01  2.767722e-01
     vertex  1.838773e-01 -1.365253e-01  2.767722e-01
     vertex  1.891016e-01 -1.386948e-01  2.767722e-01
   endloop
 endfacet
 facet normal  0.000000e+00  0.000000e+00 -1.000000e+00
   outer loop
     vertex  1.845647e-01 -1.381889e-01  2.767722e-01
     vertex  1.838773e-01 -1.365253e-01  2.767722e-01
     vertex  1.874380e-01 -1.393821e-01  2.767722e-01
   endloop
 endfacet
 facet normal  0.000000e+00  0.000000e+00 -1.000000e+00
   outer loop
     vertex  1.833714e-01 -1.410622e-01  2.767722e-01
     vertex  1.838773e-01 -1.365253e-01  2.767722e-01
     vertex  1.845647e-01 -1.381889e-01  2.767722e-01
   endloop
 endfacet
 facet normal  0.000000e+00  0.000000e+00 -1.000000e+00
   outer loop
     vertex  1.869321e-01 -1.439191e-01  2.767722e-01
     vertex  1.862448e-01 -1.422555e-01  2.767722e-01
     vertex  1.874380e-01 -1.393821e-01  2.767722e-01
   endloop
 endfacet
 facet normal  0.000000e+00  0.000000e+00 -1.000000e+00
   outer loop
     vertex  1.869321e-01 -1.439191e-01  2.767722e-01
     vertex  1.833714e-01 -1.410622e-01  2.767722e-01
     vertex  1.862448e-01 -1.422555e-01  2.767722e-01
   endloop
 endfacet
 facet normal  0.000000e+00  0.000000e+00 -1.000000e+00
   outer loop
     vertex  1.869321e-01 -1.439191e-01  2.767722e-01
     vertex  1.874380e-01 -1.393821e-01  2.767722e-01
     vertex  1.891016e-01 -1.386948e-01  2.767722e-01
   endloop
 endfacet
 facet normal  0.000000e+00  0.000000e+00 -1.000000e+00
   outer loop
     vertex  1.817078e-01 -1.417496e-01  2.767722e-01
     vertex  1.838773e-01 -1.365253e-01  2.767722e-01
     vertex  1.833714e-01 -1.410622e-01  2.767722e-01
   endloop
 endfacet
 facet normal  0.000000e+00  0.000000e+00 -1.000000e+00
   outer loop
     vertex  1.817078e-01 -1.417496e-01  2.767722e-01
     vertex  1.833714e-01 -1.410622e-01  2.767722e-01
     vertex  1.869321e-01 -1.439191e-01  2.767722e-01
   endloop
 endfacet
 facet normal  3.835172e-01  9.235337e-01  0.000000e+00
   outer loop
     vertex  1.838773e-01 -1.365253e-01  2.783169e-01
     vertex  1.891016e-01 -1.386948e-01  2.783169e-01
     vertex  1.891016e-01 -1.386948e-01  2.767722e-01
   endloop
 endfacet
 facet normal  3.835172e-01  9.235337e-01  0.000000e+00
   outer loop
     vertex  1.838773e-01 -1.365253e-01  2.783169e-01
     vertex  1.891016e-01 -1.386948e-01  2.767722e-01
     vertex  1.838773e-01 -1.365253e-01  2.767722e-01
   endloop
 endfacet
 facet normal -9.235337e-01  3.835172e-01  0.000000e+00
   outer loop
     vertex  1.817078e-01 -1.417496e-01  2.783169e-01
     vertex  1.838773e-01 -1.365253e-01  2.767722e-01
     vertex  1.817078e-01 -1.417496e-01  2.767722e-01
   endloop
 endfacet
 facet normal -9.235337e-01  3.835172e-01  0.000000e+00
   outer loop
     vertex  1.817078e-01 -1.417496e-01  2.783169e-01
     vertex  1.838773e-01 -1.365253e-01  2.783169e-01
     vertex  1.838773e-01 -1.365253e-01  2.767722e-01
   endloop
 endfacet
 facet normal -3.835172e-01 -9.235337e-01 -0.000000e+00
   outer loop
     vertex  1.869321e-01 -1.439191e-01  2.783169e-01
     vertex  1.817078e-01 -1.417496e-01  2.767722e-01
     vertex  1.869321e-01 -1.439191e-01  2.767722e-01
   endloop
 endfacet
 facet normal -3.835172e-01 -9.235337e-01  0.000000e+00
   outer loop
     vertex  1.869321e-01 -1.439191e-01  2.783169e-01
     vertex  1.817078e-01 -1.417496e-01  2.783169e-01
     vertex  1.817078e-01 -1.417496e-01  2.767722e-01
   endloop
 endfacet
 facet normal  9.235337e-01 -3.835172e-01  0.000000e+00
   outer loop
     vertex  1.891016e-01 -1.386948e-01  2.783169e-01
     vertex  1.869321e-01 -1.439191e-01  2.767722e-01
     vertex  1.891016e-01 -1.386948e-01  2.767722e-01
   endloop
 endfacet
 facet normal  9.235337e-01 -3.835172e-01  0.000000e+00
   outer loop
     vertex  1.891016e-01 -1.386948e-01  2.783169e-01
     vertex  1.869321e-01 -1.439191e-01  2.783169e-01
     vertex  1.869321e-01 -1.439191e-01  2.767722e-01
   endloop
 endfacet
 facet normal  9.178722e-01 -3.811662e-01  1.105573e-01
   outer loop
     vertex  1.890856e-01 -1.387014e-01  2.784275e-01
     vertex  1.869321e-01 -1.439191e-01  2.783169e-01
     vertex  1.891016e-01 -1.386948e-01  2.783169e-01
   endloop
 endfacet
 facet normal  3.811662e-01  9.178722e-01  1.105573e-01
   outer loop
     vertex  1.838840e-01 -1.365413e-01  2.784275e-01
     vertex  1.890856e-01 -1.387014e-01  2.784275e-01
     vertex  1.891016e-01 -1.386948e-01  2.783169e-01
   endloop
 endfacet
 facet normal  3.811662e-01  9.178722e-01  1.105573e-01
   outer loop
     vertex  1.838840e-01 -1.365413e-01  2.784275e-01
     vertex  1.891016e-01 -1.386948e-01  2.783169e-01
     vertex  1.838773e-01 -1.365253e-01  2.783169e-01
   endloop
 endfacet
 facet normal  3.142230e-01  7.566687e-01  5.733379e-01
   outer loop
     vertex  1.839033e-01 -1.365880e-01  2.785273e-01
     vertex  1.839333e-01 -1.366607e-01  2.786069e-01
     vertex  1.889662e-01 -1.387507e-01  2.786069e-01
   endloop
 endfacet
 facet normal  3.142230e-01  7.566687e-01  5.733379e-01
   outer loop
     vertex  1.839033e-01 -1.365880e-01  2.785273e-01
     vertex  1.889662e-01 -1.387507e-01  2.786069e-01
     vertex  1.890389e-01 -1.387207e-01  2.785273e-01
   endloop
 endfacet
 facet normal  3.611325e-01  8.696298e-01  3.366412e-01
   outer loop
     vertex  1.839033e-01 -1.365880e-01  2.785273e-01
     vertex  1.890389e-01 -1.387207e-01  2.785273e-01
     vertex  1.890856e-01 -1.387014e-01  2.784275e-01
   endloop
 endfacet
 facet normal  3.611325e-01  8.696298e-01  3.366412e-01
   outer loop
     vertex  1.839033e-01 -1.365880e-01  2.785273e-01
     vertex  1.890856e-01 -1.387014e-01  2.784275e-01
     vertex  1.838840e-01 -1.365413e-01  2.784275e-01
   endloop
 endfacet
 facet normal -9.178722e-01  3.811662e-01  1.105573e-01
   outer loop
     vertex  1.817239e-01 -1.417429e-01  2.784275e-01
     vertex  1.838773e-01 -1.365253e-01  2.783169e-01
     vertex  1.817078e-01 -1.417496e-01  2.783169e-01
   endloop
 endfacet
 facet normal -9.178722e-01  3.811662e-01  1.105573e-01
   outer loop
     vertex  1.817239e-01 -1.417429e-01  2.784275e-01
     vertex  1.838840e-01 -1.365413e-01  2.784275e-01
     vertex  1.838773e-01 -1.365253e-01  2.783169e-01
   endloop
 endfacet
 facet normal -7.566687e-01  3.142230e-01  5.733379e-01
   outer loop
     vertex  1.817706e-01 -1.417237e-01  2.785273e-01
     vertex  1.818433e-01 -1.416936e-01  2.786069e-01
     vertex  1.839333e-01 -1.366607e-01  2.786069e-01
   endloop
 endfacet
 facet normal -8.696298e-01  3.611325e-01  3.366412e-01
   outer loop
     vertex  1.817706e-01 -1.417237e-01  2.785273e-01
     vertex  1.839033e-01 -1.365880e-01  2.785273e-01
     vertex  1.838840e-01 -1.365413e-01  2.784275e-01
   endloop
 endfacet
 facet normal -8.696298e-01  3.611325e-01  3.366412e-01
   outer loop
     vertex  1.817706e-01 -1.417237e-01  2.785273e-01
     vertex  1.838840e-01 -1.365413e-01  2.784275e-01
     vertex  1.817239e-01 -1.417429e-01  2.784275e-01
   endloop
 endfacet
 facet normal -7.566687e-01  3.142230e-01  5.733379e-01
   outer loop
     vertex  1.817706e-01 -1.417237e-01  2.785273e-01
     vertex  1.839333e-01 -1.366607e-01  2.786069e-01
     vertex  1.839033e-01 -1.365880e-01  2.785273e-01
   endloop
 endfacet
 facet normal -3.811662e-01 -9.178722e-01  1.105573e-01
   outer loop
     vertex  1.869255e-01 -1.439030e-01  2.784275e-01
     vertex  1.817078e-01 -1.417496e-01  2.783169e-01
     vertex  1.869321e-01 -1.439191e-01  2.783169e-01
   endloop
 endfacet
 facet normal -3.811662e-01 -9.178722e-01  1.105573e-01
   outer loop
     vertex  1.869255e-01 -1.439030e-01  2.784275e-01
     vertex  1.817239e-01 -1.417429e-01  2.784275e-01
     vertex  1.817078e-01 -1.417496e-01  2.783169e-01
   endloop
 endfacet
 facet normal  9.178722e-01 -3.811662e-01  1.105573e-01
   outer loop
     vertex  1.869255e-01 -1.439030e-01  2.784275e-01
     vertex  1.869321e-01 -1.439191e-01  2.783169e-01
     vertex  1.890856e-01 -1.387014e-01  2.784275e-01
   endloop
 endfacet
 facet normal -3.142230e-01 -7.566687e-01  5.733379e-01
   outer loop
     vertex  1.869062e-01 -1.438563e-01  2.785273e-01
     vertex  1.868762e-01 -1.437836e-01  2.786069e-01
     vertex  1.818433e-01 -1.416936e-01  2.786069e-01
   endloop
 endfacet
 facet normal  7.566687e-01 -3.142230e-01  5.733379e-01
   outer loop
     vertex  1.869062e-01 -1.438563e-01  2.785273e-01
     vertex  1.889662e-01 -1.387507e-01  2.786069e-01
     vertex  1.868762e-01 -1.437836e-01  2.786069e-01
   endloop
 endfacet
 facet normal  7.566687e-01 -3.142230e-01  5.733379e-01
   outer loop
     vertex  1.869062e-01 -1.438563e-01  2.785273e-01
     vertex  1.890389e-01 -1.387207e-01  2.785273e-01
     vertex  1.889662e-01 -1.387507e-01  2.786069e-01
   endloop
 endfacet
 facet normal  8.696298e-01 -3.611325e-01  3.366412e-01
   outer loop
     vertex  1.869062e-01 -1.438563e-01  2.785273e-01
     vertex  1.890856e-01 -1.387014e-01  2.784275e-01
     vertex  1.890389e-01 -1.387207e-01  2.785273e-01
   endloop
 endfacet
 facet normal -3.611325e-01 -8.696298e-01  3.366412e-01
   outer loop
     vertex  1.869062e-01 -1.438563e-01  2.785273e-01
     vertex  1.817239e-01 -1.417429e-01  2.784275e-01
     vertex  1.869255e-01 -1.439030e-01  2.784275e-01
   endloop
 endfacet
 facet normal -3.611325e-01 -8.696298e-01  3.366412e-01
   outer loop
     vertex  1.869062e-01 -1.438563e-01  2.785273e-01
     vertex  1.817706e-01 -1.417237e-01  2.785273e-01
     vertex  1.817239e-01 -1.417429e-01  2.784275e-01
   endloop
 endfacet
 facet normal  8.696298e-01 -3.611325e-01  3.366412e-01
   outer loop
     vertex  1.869062e-01 -1.438563e-01  2.785273e-01
     vertex  1.869255e-01 -1.439030e-01  2.784275e-01
     vertex  1.890856e-01 -1.387014e-01  2.784275e-01
   endloop
 endfacet
 facet normal -3.142230e-01 -7.566687e-01  5.733379e-01
   outer loop
     vertex  1.869062e-01 -1.438563e-01  2.785273e-01
     vertex  1.818433e-01 -1.416936e-01  2.786069e-01
     vertex  1.817706e-01 -1.417237e-01  2.785273e-01
   endloop
 endfacet
 facet normal  2.677576e-01  6.447773e-01  7.159386e-01
   outer loop
     vertex  1.851229e-01 -1.381913e-01  2.795404e-01
     vertex  1.889662e-01 -1.387507e-01  2.786069e-01
     vertex  1.839333e-01 -1.366607e-01  2.786069e-01
   endloop
 endfacet
 facet normal  2.677576e-01  6.447773e-01  7.159386e-01
   outer loop
     vertex  1.870423e-01 -1.389884e-01  2.795404e-01
     vertex  1.889662e-01 -1.387507e-01  2.786069e-01
     vertex  1.851229e-01 -1.381913e-01  2.795404e-01
   endloop
 endfacet
 facet normal -1.254803e-01  4.436962e-01  8.873490e-01
   outer loop
     vertex  1.848026e-01 -1.383148e-01  2.795569e-01
     vertex  1.851229e-01 -1.381913e-01  2.795404e-01
     vertex  1.839333e-01 -1.366607e-01  2.786069e-01
   endloop
 endfacet
 facet normal  1.453081e-01  3.499110e-01  9.254447e-01
   outer loop
     vertex  1.852631e-01 -1.385306e-01  2.796467e-01
     vertex  1.870423e-01 -1.389884e-01  2.795404e-01
     vertex  1.851229e-01 -1.381913e-01  2.795404e-01
   endloop
 endfacet
 facet normal  1.453081e-01  3.499110e-01  9.254447e-01
   outer loop
     vertex  1.867030e-01 -1.391286e-01  2.796467e-01
     vertex  1.870423e-01 -1.389884e-01  2.795404e-01
     vertex  1.852631e-01 -1.385306e-01  2.796467e-01
   endloop
 endfacet
 facet normal  4.028742e-01  2.242857e-01  8.873490e-01
   outer loop
     vertex  1.871809e-01 -1.393024e-01  2.795569e-01
     vertex  1.889662e-01 -1.387507e-01  2.786069e-01
     vertex  1.870423e-01 -1.389884e-01  2.795404e-01
   endloop
 endfacet
 facet normal -1.736377e-01  4.202712e-01  8.906301e-01
   outer loop
     vertex  1.844850e-01 -1.384460e-01  2.795569e-01
     vertex  1.848026e-01 -1.383148e-01  2.795569e-01
     vertex  1.839333e-01 -1.366607e-01  2.786069e-01
   endloop
 endfacet
 facet normal  1.170251e-01  2.818039e-01  9.523086e-01
   outer loop
     vertex  1.854054e-01 -1.388750e-01  2.797311e-01
     vertex  1.867030e-01 -1.391286e-01  2.796467e-01
     vertex  1.852631e-01 -1.385306e-01  2.796467e-01
   endloop
 endfacet
 facet normal  1.170251e-01  2.818039e-01  9.523086e-01
   outer loop
     vertex  1.863586e-01 -1.392709e-01  2.797311e-01
     vertex  1.867030e-01 -1.391286e-01  2.796467e-01
     vertex  1.854054e-01 -1.388750e-01  2.797311e-01
   endloop
 endfacet
 facet normal  4.202712e-01  1.736377e-01  8.906301e-01
   outer loop
     vertex  1.873121e-01 -1.396201e-01  2.795569e-01
     vertex  1.889662e-01 -1.387507e-01  2.786069e-01
     vertex  1.871809e-01 -1.393024e-01  2.795569e-01
   endloop
 endfacet
 facet normal -2.242857e-01  4.028742e-01  8.873490e-01
   outer loop
     vertex  1.841710e-01 -1.385847e-01  2.795404e-01
     vertex  1.844850e-01 -1.384460e-01  2.795569e-01
     vertex  1.839333e-01 -1.366607e-01  2.786069e-01
   endloop
 endfacet
 facet normal  9.686239e-02  2.332508e-01  9.675804e-01
   outer loop
     vertex  1.857129e-01 -1.392613e-01  2.797934e-01
     vertex  1.863586e-01 -1.392709e-01  2.797311e-01
     vertex  1.854054e-01 -1.388750e-01  2.797311e-01
   endloop
 endfacet
 facet normal  9.686239e-02  2.332508e-01  9.675804e-01
   outer loop
     vertex  1.858679e-01 -1.393256e-01  2.797934e-01
     vertex  1.863586e-01 -1.392709e-01  2.797311e-01
     vertex  1.857129e-01 -1.392613e-01  2.797934e-01
   endloop
 endfacet
 facet normal  4.477324e-02  1.937850e-01  9.800218e-01
   outer loop
     vertex  1.855493e-01 -1.392235e-01  2.797934e-01
     vertex  1.857129e-01 -1.392613e-01  2.797934e-01
     vertex  1.854054e-01 -1.388750e-01  2.797311e-01
   endloop
 endfacet
 facet normal  1.056716e-01  1.684956e-01  9.800218e-01
   outer loop
     vertex  1.860101e-01 -1.394148e-01  2.797934e-01
     vertex  1.863586e-01 -1.392709e-01  2.797311e-01
     vertex  1.858679e-01 -1.393256e-01  2.797934e-01
   endloop
 endfacet
 facet normal  4.436962e-01  1.254803e-01  8.873490e-01
   outer loop
     vertex  1.874356e-01 -1.399403e-01  2.795404e-01
     vertex  1.889662e-01 -1.387507e-01  2.786069e-01
     vertex  1.873121e-01 -1.396201e-01  2.795569e-01
   endloop
 endfacet
 facet normal -1.684956e-01  1.056716e-01  9.800218e-01
   outer loop
     vertex  1.845082e-01 -1.397590e-01  2.797934e-01
     vertex  1.845974e-01 -1.396168e-01  2.797934e-01
     vertex  1.844534e-01 -1.392683e-01  2.797311e-01
   endloop
 endfacet
 facet normal  1.937850e-01 -4.477324e-02  9.800218e-01
   outer loop
     vertex  1.863656e-01 -1.405303e-01  2.797934e-01
     vertex  1.867519e-01 -1.402228e-01  2.797311e-01
     vertex  1.864034e-01 -1.403668e-01  2.797934e-01
   endloop
 endfacet
 facet normal  2.332508e-01 -9.686239e-02  9.675804e-01
   outer loop
     vertex  1.863013e-01 -1.406854e-01  2.797934e-01
     vertex  1.867519e-01 -1.402228e-01  2.797311e-01
     vertex  1.863656e-01 -1.405303e-01  2.797934e-01
   endloop
 endfacet
 facet normal -2.332508e-01  9.686239e-02  9.675804e-01
   outer loop
     vertex  1.840576e-01 -1.402215e-01  2.797311e-01
     vertex  1.845082e-01 -1.397590e-01  2.797934e-01
     vertex  1.844534e-01 -1.392683e-01  2.797311e-01
   endloop
 endfacet
 facet normal -2.332508e-01  9.686239e-02  9.675804e-01
   outer loop
     vertex  1.840576e-01 -1.402215e-01  2.797311e-01
     vertex  1.844438e-01 -1.399140e-01  2.797934e-01
     vertex  1.845082e-01 -1.397590e-01  2.797934e-01
   endloop
 endfacet
 facet normal -1.937850e-01  4.477324e-02  9.800218e-01
   outer loop
     vertex  1.840576e-01 -1.402215e-01  2.797311e-01
     vertex  1.844060e-01 -1.400776e-01  2.797934e-01
     vertex  1.844438e-01 -1.399140e-01  2.797934e-01
   endloop
 endfacet
 facet normal  2.332508e-01 -9.686239e-02  9.675804e-01
   outer loop
     vertex  1.863560e-01 -1.411760e-01  2.797311e-01
     vertex  1.867519e-01 -1.402228e-01  2.797311e-01
     vertex  1.863013e-01 -1.406854e-01  2.797934e-01
   endloop
 endfacet
 facet normal  2.818039e-01 -1.170251e-01  9.523086e-01
   outer loop
     vertex  1.863560e-01 -1.411760e-01  2.797311e-01
     vertex  1.870963e-01 -1.400805e-01  2.796467e-01
     vertex  1.867519e-01 -1.402228e-01  2.797311e-01
   endloop
 endfacet
 facet normal  1.684956e-01 -1.056716e-01  9.800218e-01
   outer loop
     vertex  1.863560e-01 -1.411760e-01  2.797311e-01
     vertex  1.863013e-01 -1.406854e-01  2.797934e-01
     vertex  1.862121e-01 -1.408276e-01  2.797934e-01
   endloop
 endfacet
 facet normal -2.818039e-01  1.170251e-01  9.523086e-01
   outer loop
     vertex  1.837131e-01 -1.403638e-01  2.796467e-01
     vertex  1.844534e-01 -1.392683e-01  2.797311e-01
     vertex  1.843111e-01 -1.389239e-01  2.796467e-01
   endloop
 endfacet
 facet normal -2.818039e-01  1.170251e-01  9.523086e-01
   outer loop
     vertex  1.837131e-01 -1.403638e-01  2.796467e-01
     vertex  1.840576e-01 -1.402215e-01  2.797311e-01
     vertex  1.844534e-01 -1.392683e-01  2.797311e-01
   endloop
 endfacet
 facet normal  2.818039e-01 -1.170251e-01  9.523086e-01
   outer loop
     vertex  1.864983e-01 -1.415205e-01  2.796467e-01
     vertex  1.870963e-01 -1.400805e-01  2.796467e-01
     vertex  1.863560e-01 -1.411760e-01  2.797311e-01
   endloop
 endfacet
 facet normal  3.499110e-01 -1.453081e-01  9.254447e-01
   outer loop
     vertex  1.864983e-01 -1.415205e-01  2.796467e-01
     vertex  1.874356e-01 -1.399403e-01  2.795404e-01
     vertex  1.870963e-01 -1.400805e-01  2.796467e-01
   endloop
 endfacet
 facet normal -3.499110e-01  1.453081e-01  9.254447e-01
   outer loop
     vertex  1.833739e-01 -1.405040e-01  2.795404e-01
     vertex  1.843111e-01 -1.389239e-01  2.796467e-01
     vertex  1.841710e-01 -1.385847e-01  2.795404e-01
   endloop
 endfacet
 facet normal -3.499110e-01  1.453081e-01  9.254447e-01
   outer loop
     vertex  1.833739e-01 -1.405040e-01  2.795404e-01
     vertex  1.837131e-01 -1.403638e-01  2.796467e-01
     vertex  1.843111e-01 -1.389239e-01  2.796467e-01
   endloop
 endfacet
 facet normal  3.499110e-01 -1.453081e-01  9.254447e-01
   outer loop
     vertex  1.866385e-01 -1.418597e-01  2.795404e-01
     vertex  1.874356e-01 -1.399403e-01  2.795404e-01
     vertex  1.864983e-01 -1.415205e-01  2.796467e-01
   endloop
 endfacet
 facet normal  6.447773e-01 -2.677576e-01  7.159386e-01
   outer loop
     vertex  1.866385e-01 -1.418597e-01  2.795404e-01
     vertex  1.889662e-01 -1.387507e-01  2.786069e-01
     vertex  1.874356e-01 -1.399403e-01  2.795404e-01
   endloop
 endfacet
 facet normal -1.056716e-01 -1.684956e-01  9.800218e-01
   outer loop
     vertex  1.844509e-01 -1.411735e-01  2.797311e-01
     vertex  1.849415e-01 -1.411187e-01  2.797934e-01
     vertex  1.847993e-01 -1.410295e-01  2.797934e-01
   endloop
 endfacet
 facet normal -9.686239e-02 -2.332508e-01  9.675804e-01
   outer loop
     vertex  1.844509e-01 -1.411735e-01  2.797311e-01
     vertex  1.850966e-01 -1.411831e-01  2.797934e-01
     vertex  1.849415e-01 -1.411187e-01  2.797934e-01
   endloop
 endfacet
 facet normal -9.686239e-02 -2.332508e-01  9.675804e-01
   outer loop
     vertex  1.854041e-01 -1.415693e-01  2.797311e-01
     vertex  1.850966e-01 -1.411831e-01  2.797934e-01
     vertex  1.844509e-01 -1.411735e-01  2.797311e-01
   endloop
 endfacet
 facet normal -4.477324e-02 -1.937850e-01  9.800218e-01
   outer loop
     vertex  1.854041e-01 -1.415693e-01  2.797311e-01
     vertex  1.852601e-01 -1.412209e-01  2.797934e-01
     vertex  1.850966e-01 -1.411831e-01  2.797934e-01
   endloop
 endfacet
 facet normal -1.170251e-01 -2.818039e-01  9.523086e-01
   outer loop
     vertex  1.841065e-01 -1.413158e-01  2.796467e-01
     vertex  1.854041e-01 -1.415693e-01  2.797311e-01
     vertex  1.844509e-01 -1.411735e-01  2.797311e-01
   endloop
 endfacet
 facet normal -1.170251e-01 -2.818039e-01  9.523086e-01
   outer loop
     vertex  1.855464e-01 -1.419138e-01  2.796467e-01
     vertex  1.854041e-01 -1.415693e-01  2.797311e-01
     vertex  1.841065e-01 -1.413158e-01  2.796467e-01
   endloop
 endfacet
 facet normal -1.453081e-01 -3.499110e-01  9.254447e-01
   outer loop
     vertex  1.837672e-01 -1.414560e-01  2.795404e-01
     vertex  1.855464e-01 -1.419138e-01  2.796467e-01
     vertex  1.841065e-01 -1.413158e-01  2.796467e-01
   endloop
 endfacet
 facet normal -1.453081e-01 -3.499110e-01  9.254447e-01
   outer loop
     vertex  1.856866e-01 -1.422530e-01  2.795404e-01
     vertex  1.855464e-01 -1.419138e-01  2.796467e-01
     vertex  1.837672e-01 -1.414560e-01  2.795404e-01
   endloop
 endfacet
 facet normal -6.447773e-01  2.677576e-01  7.159386e-01
   outer loop
     vertex  1.818433e-01 -1.416936e-01  2.786069e-01
     vertex  1.833739e-01 -1.405040e-01  2.795404e-01
     vertex  1.841710e-01 -1.385847e-01  2.795404e-01
   endloop
 endfacet
 facet normal -4.436962e-01 -1.254803e-01  8.873490e-01
   outer loop
     vertex  1.818433e-01 -1.416936e-01  2.786069e-01
     vertex  1.834974e-01 -1.408243e-01  2.795569e-01
     vertex  1.833739e-01 -1.405040e-01  2.795404e-01
   endloop
 endfacet
 facet normal -4.202712e-01 -1.736377e-01  8.906301e-01
   outer loop
     vertex  1.818433e-01 -1.416936e-01  2.786069e-01
     vertex  1.836286e-01 -1.411419e-01  2.795569e-01
     vertex  1.834974e-01 -1.408243e-01  2.795569e-01
   endloop
 endfacet
 facet normal -4.028742e-01 -2.242857e-01  8.873490e-01
   outer loop
     vertex  1.818433e-01 -1.416936e-01  2.786069e-01
     vertex  1.837672e-01 -1.414560e-01  2.795404e-01
     vertex  1.836286e-01 -1.411419e-01  2.795569e-01
   endloop
 endfacet
 facet normal -2.677576e-01 -6.447773e-01  7.159386e-01
   outer loop
     vertex  1.818433e-01 -1.416936e-01  2.786069e-01
     vertex  1.856866e-01 -1.422530e-01  2.795404e-01
     vertex  1.837672e-01 -1.414560e-01  2.795404e-01
   endloop
 endfacet
 facet normal -6.447773e-01  2.677576e-01  7.159386e-01
   outer loop
     vertex  1.818433e-01 -1.416936e-01  2.786069e-01
     vertex  1.841710e-01 -1.385847e-01  2.795404e-01
     vertex  1.839333e-01 -1.366607e-01  2.786069e-01
   endloop
 endfacet
 facet normal -2.677576e-01 -6.447773e-01  7.159386e-01
   outer loop
     vertex  1.868762e-01 -1.437836e-01  2.786069e-01
     vertex  1.856866e-01 -1.422530e-01  2.795404e-01
     vertex  1.818433e-01 -1.416936e-01  2.786069e-01
   endloop
 endfacet
 facet normal  1.254803e-01 -4.436962e-01  8.873490e-01
   outer loop
     vertex  1.868762e-01 -1.437836e-01  2.786069e-01
     vertex  1.860069e-01 -1.421295e-01  2.795569e-01
     vertex  1.856866e-01 -1.422530e-01  2.795404e-01
   endloop
 endfacet
 facet normal  1.736377e-01 -4.202712e-01  8.906301e-01
   outer loop
     vertex  1.868762e-01 -1.437836e-01  2.786069e-01
     vertex  1.863245e-01 -1.419983e-01  2.795569e-01
     vertex  1.860069e-01 -1.421295e-01  2.795569e-01
   endloop
 endfacet
 facet normal  2.242857e-01 -4.028742e-01  8.873490e-01
   outer loop
     vertex  1.868762e-01 -1.437836e-01  2.786069e-01
     vertex  1.866385e-01 -1.418597e-01  2.795404e-01
     vertex  1.863245e-01 -1.419983e-01  2.795569e-01
   endloop
 endfacet
 facet normal  6.447773e-01 -2.677576e-01  7.159386e-01
   outer loop
     vertex  1.868762e-01 -1.437836e-01  2.786069e-01
     vertex  1.889662e-01 -1.387507e-01  2.786069e-01
     vertex  1.866385e-01 -1.418597e-01  2.795404e-01
   endloop
 endfacet
 facet normal  9.242246e-01  3.818493e-01 -1.073166e-11
   outer loop
     vertex  1.845533e-01 -1.395100e-01  2.775322e-01
     vertex  1.844534e-01 -1.392683e-01  2.797311e-01
     vertex  1.845974e-01 -1.396168e-01  2.797934e-01
   endloop
 endfacet
 facet normal  9.242246e-01  3.818493e-01 -1.672022e-11
   outer loop
     vertex  1.845533e-01 -1.395100e-01  2.775322e-01
     vertex  1.843111e-01 -1.389239e-01  2.796467e-01
     vertex  1.844534e-01 -1.392683e-01  2.797311e-01
   endloop
 endfacet
 facet normal  9.242246e-01  3.818493e-01 -1.883625e-11
   outer loop
     vertex  1.845533e-01 -1.395100e-01  2.775322e-01
     vertex  1.841710e-01 -1.385847e-01  2.795404e-01
     vertex  1.843111e-01 -1.389239e-01  2.796467e-01
   endloop
 endfacet
 facet normal  9.242246e-01  3.818493e-01 -6.951081e-12
   outer loop
     vertex  1.846701e-01 -1.397927e-01  2.775322e-01
     vertex  1.845533e-01 -1.395100e-01  2.775322e-01
     vertex  1.845974e-01 -1.396168e-01  2.797934e-01
   endloop
 endfacet
 facet normal -0.000000e+00  0.000000e+00  1.000000e+00
   outer loop
     vertex  1.852565e-01 -1.393842e-01  2.775322e-01
     vertex  1.856220e-01 -1.393994e-01  2.775322e-01
     vertex  1.855052e-01 -1.391167e-01  2.775322e-01
   endloop
 endfacet
 facet normal -0.000000e+00  0.000000e+00  1.000000e+00
   outer loop
     vertex  1.845533e-01 -1.395100e-01  2.775322e-01
     vertex  1.849183e-01 -1.395239e-01  2.775322e-01
     vertex  1.852565e-01 -1.393842e-01  2.775322e-01
   endloop
 endfacet
 facet normal  0.000000e+00  0.000000e+00  1.000000e+00
   outer loop
     vertex  1.845533e-01 -1.395100e-01  2.775322e-01
     vertex  1.852565e-01 -1.393842e-01  2.775322e-01
     vertex  1.855052e-01 -1.391167e-01  2.775322e-01
   endloop
 endfacet
 facet normal  0.000000e+00 -0.000000e+00  1.000000e+00
   outer loop
     vertex  1.846701e-01 -1.397927e-01  2.775322e-01
     vertex  1.849183e-01 -1.395239e-01  2.775322e-01
     vertex  1.845533e-01 -1.395100e-01  2.775322e-01
   endloop
 endfacet
 facet normal -9.242246e-01 -3.818493e-01  7.405511e-12
   outer loop
     vertex  1.855052e-01 -1.391167e-01  2.775322e-01
     vertex  1.852631e-01 -1.385306e-01  2.796467e-01
     vertex  1.851229e-01 -1.381913e-01  2.795404e-01
   endloop
 endfacet
 facet normal -9.242246e-01 -3.818493e-01 -1.470762e-11
   outer loop
     vertex  1.855052e-01 -1.391167e-01  2.775322e-01
     vertex  1.854054e-01 -1.388750e-01  2.797311e-01
     vertex  1.852631e-01 -1.385306e-01  2.796467e-01
   endloop
 endfacet
 facet normal -9.242246e-01 -3.818493e-01 -4.573718e-12
   outer loop
     vertex  1.855052e-01 -1.391167e-01  2.775322e-01
     vertex  1.855493e-01 -1.392235e-01  2.797934e-01
     vertex  1.854054e-01 -1.388750e-01  2.797311e-01
   endloop
 endfacet
 facet normal -9.242246e-01 -3.818493e-01 -2.783847e-13
   outer loop
     vertex  1.856220e-01 -1.393994e-01  2.775322e-01
     vertex  1.855493e-01 -1.392235e-01  2.797934e-01
     vertex  1.855052e-01 -1.391167e-01  2.775322e-01
   endloop
 endfacet
 facet normal -4.640725e-01 -8.830170e-01  7.012614e-02
   outer loop
     vertex  1.858679e-01 -1.393256e-01  2.797934e-01
     vertex  1.857662e-01 -1.394518e-01  2.775322e-01
     vertex  1.858342e-01 -1.394875e-01  2.775322e-01
   endloop
 endfacet
 facet normal -5.300620e-01 -8.451955e-01  6.840214e-02
   outer loop
     vertex  1.858679e-01 -1.393256e-01  2.797934e-01
     vertex  1.858342e-01 -1.394875e-01  2.775322e-01
     vertex  1.860101e-01 -1.394148e-01  2.797934e-01
   endloop
 endfacet
 facet normal -2.979577e-01 -9.519998e-01  7.012614e-02
   outer loop
     vertex  1.857129e-01 -1.392613e-01  2.797934e-01
     vertex  1.856220e-01 -1.393994e-01  2.775322e-01
     vertex  1.856953e-01 -1.394223e-01  2.775322e-01
   endloop
 endfacet
 facet normal -3.826137e-01 -9.213580e-01  6.860184e-02
   outer loop
     vertex  1.857129e-01 -1.392613e-01  2.797934e-01
     vertex  1.856953e-01 -1.394223e-01  2.775322e-01
     vertex  1.857662e-01 -1.394518e-01  2.775322e-01
   endloop
 endfacet
 facet normal -3.826137e-01 -9.213580e-01  6.860184e-02
   outer loop
     vertex  1.857129e-01 -1.392613e-01  2.797934e-01
     vertex  1.857662e-01 -1.394518e-01  2.775322e-01
     vertex  1.858679e-01 -1.393256e-01  2.797934e-01
   endloop
 endfacet
 facet normal -2.245883e-01 -9.720500e-01  6.840214e-02
   outer loop
     vertex  1.855493e-01 -1.392235e-01  2.797934e-01
     vertex  1.856220e-01 -1.393994e-01  2.775322e-01
     vertex  1.857129e-01 -1.392613e-01  2.797934e-01
   endloop
 endfacet
 facet normal  3.818493e-01 -9.242246e-01 -1.565979e-11
   outer loop
     vertex  1.861169e-01 -1.393707e-01  2.775322e-01
     vertex  1.863586e-01 -1.392709e-01  2.797311e-01
     vertex  1.860101e-01 -1.394148e-01  2.797934e-01
   endloop
 endfacet
 facet normal  3.818493e-01 -9.242246e-01  4.524781e-12
   outer loop
     vertex  1.861169e-01 -1.393707e-01  2.775322e-01
     vertex  1.867030e-01 -1.391286e-01  2.796467e-01
     vertex  1.863586e-01 -1.392709e-01  2.797311e-01
   endloop
 endfacet
 facet normal  3.818493e-01 -9.242246e-01  3.810859e-11
   outer loop
     vertex  1.861169e-01 -1.393707e-01  2.775322e-01
     vertex  1.870423e-01 -1.389884e-01  2.795404e-01
     vertex  1.867030e-01 -1.391286e-01  2.796467e-01
   endloop
 endfacet
 facet normal  3.818493e-01 -9.242246e-01 -2.079285e-11
   outer loop
     vertex  1.858342e-01 -1.394875e-01  2.775322e-01
     vertex  1.861169e-01 -1.393707e-01  2.775322e-01
     vertex  1.860101e-01 -1.394148e-01  2.797934e-01
   endloop
 endfacet
 facet normal  0.000000e+00 -0.000000e+00  1.000000e+00
   outer loop
     vertex  1.859821e-01 -1.395970e-01  2.775322e-01
     vertex  1.861169e-01 -1.393707e-01  2.775322e-01
     vertex  1.858342e-01 -1.394875e-01  2.775322e-01
   endloop
 endfacet
 facet normal  0.000000e+00 -0.000000e+00  1.000000e+00
   outer loop
     vertex  1.861030e-01 -1.397357e-01  2.775322e-01
     vertex  1.861169e-01 -1.393707e-01  2.775322e-01
     vertex  1.859821e-01 -1.395970e-01  2.775322e-01
   endloop
 endfacet
 facet normal  0.000000e+00  0.000000e+00  1.000000e+00
   outer loop
     vertex  1.861912e-01 -1.398972e-01  2.775322e-01
     vertex  1.861169e-01 -1.393707e-01  2.775322e-01
     vertex  1.861030e-01 -1.397357e-01  2.775322e-01
   endloop
 endfacet
 facet normal  0.000000e+00  0.000000e+00  1.000000e+00
   outer loop
     vertex  1.865102e-01 -1.403227e-01  2.775322e-01
     vertex  1.861912e-01 -1.398972e-01  2.775322e-01
     vertex  1.862427e-01 -1.400739e-01  2.775322e-01
   endloop
 endfacet
 facet normal -0.000000e+00 -0.000000e+00  1.000000e+00
   outer loop
     vertex  1.862550e-01 -1.402575e-01  2.775322e-01
     vertex  1.865102e-01 -1.403227e-01  2.775322e-01
     vertex  1.862427e-01 -1.400739e-01  2.775322e-01
   endloop
 endfacet
 facet normal  0.000000e+00  0.000000e+00  1.000000e+00
   outer loop
     vertex  1.862275e-01 -1.404395e-01  2.775322e-01
     vertex  1.865102e-01 -1.403227e-01  2.775322e-01
     vertex  1.862550e-01 -1.402575e-01  2.775322e-01
   endloop
 endfacet
 facet normal  0.000000e+00  0.000000e+00  1.000000e+00
   outer loop
     vertex  1.865102e-01 -1.403227e-01  2.775322e-01
     vertex  1.861169e-01 -1.393707e-01  2.775322e-01
     vertex  1.861912e-01 -1.398972e-01  2.775322e-01
   endloop
 endfacet
 facet normal -3.818493e-01  9.242246e-01 -3.810859e-11
   outer loop
     vertex  1.865102e-01 -1.403227e-01  2.775322e-01
     vertex  1.870963e-01 -1.400805e-01  2.796467e-01
     vertex  1.874356e-01 -1.399403e-01  2.795404e-01
   endloop
 endfacet
 facet normal -3.818493e-01  9.242246e-01 -4.524781e-12
   outer loop
     vertex  1.865102e-01 -1.403227e-01  2.775322e-01
     vertex  1.867519e-01 -1.402228e-01  2.797311e-01
     vertex  1.870963e-01 -1.400805e-01  2.796467e-01
   endloop
 endfacet
 facet normal -3.818493e-01  9.242246e-01  4.176048e-12
   outer loop
     vertex  1.865102e-01 -1.403227e-01  2.775322e-01
     vertex  1.864034e-01 -1.403668e-01  2.797934e-01
     vertex  1.867519e-01 -1.402228e-01  2.797311e-01
   endloop
 endfacet
 facet normal -3.818493e-01  9.242246e-01  4.376339e-12
   outer loop
     vertex  1.865102e-01 -1.403227e-01  2.775322e-01
     vertex  1.862275e-01 -1.404395e-01  2.775322e-01
     vertex  1.864034e-01 -1.403668e-01  2.797934e-01
   endloop
 endfacet
 facet normal -8.451955e-01  5.300620e-01  6.840214e-02
   outer loop
     vertex  1.863013e-01 -1.406854e-01  2.797934e-01
     vertex  1.861394e-01 -1.406517e-01  2.775322e-01
     vertex  1.862121e-01 -1.408276e-01  2.797934e-01
   endloop
 endfacet
 facet normal -9.213580e-01  3.826137e-01  6.860184e-02
   outer loop
     vertex  1.863013e-01 -1.406854e-01  2.797934e-01
     vertex  1.862046e-01 -1.405128e-01  2.775322e-01
     vertex  1.861751e-01 -1.405837e-01  2.775322e-01
   endloop
 endfacet
 facet normal -8.830170e-01  4.640725e-01  7.012614e-02
   outer loop
     vertex  1.863013e-01 -1.406854e-01  2.797934e-01
     vertex  1.861751e-01 -1.405837e-01  2.775322e-01
     vertex  1.861394e-01 -1.406517e-01  2.775322e-01
   endloop
 endfacet
 facet normal -9.519998e-01  2.979577e-01  7.012614e-02
   outer loop
     vertex  1.863656e-01 -1.405303e-01  2.797934e-01
     vertex  1.862275e-01 -1.404395e-01  2.775322e-01
     vertex  1.862046e-01 -1.405128e-01  2.775322e-01
   endloop
 endfacet
 facet normal -9.213580e-01  3.826137e-01  6.860184e-02
   outer loop
     vertex  1.863656e-01 -1.405303e-01  2.797934e-01
     vertex  1.862046e-01 -1.405128e-01  2.775322e-01
     vertex  1.863013e-01 -1.406854e-01  2.797934e-01
   endloop
 endfacet
 facet normal -9.720500e-01  2.245883e-01  6.840214e-02
   outer loop
     vertex  1.864034e-01 -1.403668e-01  2.797934e-01
     vertex  1.862275e-01 -1.404395e-01  2.775322e-01
     vertex  1.863656e-01 -1.405303e-01  2.797934e-01
   endloop
 endfacet
 facet normal -9.242246e-01 -3.818493e-01  3.607256e-13
   outer loop
     vertex  1.862562e-01 -1.409343e-01  2.775322e-01
     vertex  1.863560e-01 -1.411760e-01  2.797311e-01
     vertex  1.862121e-01 -1.408276e-01  2.797934e-01
   endloop
 endfacet
 facet normal -9.242246e-01 -3.818493e-01 -1.864268e-11
   outer loop
     vertex  1.862562e-01 -1.409343e-01  2.775322e-01
     vertex  1.864983e-01 -1.415205e-01  2.796467e-01
     vertex  1.863560e-01 -1.411760e-01  2.797311e-01
   endloop
 endfacet
 facet normal -9.242246e-01 -3.818493e-01  3.124139e-11
   outer loop
     vertex  1.862562e-01 -1.409343e-01  2.775322e-01
     vertex  1.866385e-01 -1.418597e-01  2.795404e-01
     vertex  1.864983e-01 -1.415205e-01  2.796467e-01
   endloop
 endfacet
 facet normal -9.242246e-01 -3.818493e-01  2.783799e-13
   outer loop
     vertex  1.862562e-01 -1.409343e-01  2.775322e-01
     vertex  1.862121e-01 -1.408276e-01  2.797934e-01
     vertex  1.861394e-01 -1.406517e-01  2.775322e-01
   endloop
 endfacet
 facet normal -0.000000e+00  0.000000e+00  1.000000e+00
   outer loop
     vertex  1.858912e-01 -1.409204e-01  2.775322e-01
     vertex  1.862562e-01 -1.409343e-01  2.775322e-01
     vertex  1.861394e-01 -1.406517e-01  2.775322e-01
   endloop
 endfacet
 facet normal  0.000000e+00 -0.000000e+00  1.000000e+00
   outer loop
     vertex  1.853042e-01 -1.413276e-01  2.775322e-01
     vertex  1.855530e-01 -1.410602e-01  2.775322e-01
     vertex  1.851875e-01 -1.410450e-01  2.775322e-01
   endloop
 endfacet
 facet normal  0.000000e+00  0.000000e+00  1.000000e+00
   outer loop
     vertex  1.853042e-01 -1.413276e-01  2.775322e-01
     vertex  1.862562e-01 -1.409343e-01  2.775322e-01
     vertex  1.855530e-01 -1.410602e-01  2.775322e-01
   endloop
 endfacet
 facet normal  0.000000e+00  0.000000e+00  1.000000e+00
   outer loop
     vertex  1.855530e-01 -1.410602e-01  2.775322e-01
     vertex  1.862562e-01 -1.409343e-01  2.775322e-01
     vertex  1.858912e-01 -1.409204e-01  2.775322e-01
   endloop
 endfacet
 facet normal  9.242246e-01  3.818493e-01  3.111904e-11
   outer loop
     vertex  1.853042e-01 -1.413276e-01  2.775322e-01
     vertex  1.855464e-01 -1.419138e-01  2.796467e-01
     vertex  1.856866e-01 -1.422530e-01  2.795404e-01
   endloop
 endfacet
 facet normal  9.242246e-01  3.818493e-01 -1.747721e-11
   outer loop
     vertex  1.853042e-01 -1.413276e-01  2.775322e-01
     vertex  1.854041e-01 -1.415693e-01  2.797311e-01
     vertex  1.855464e-01 -1.419138e-01  2.796467e-01
   endloop
 endfacet
 facet normal  9.242246e-01  3.818493e-01 -3.950261e-12
   outer loop
     vertex  1.853042e-01 -1.413276e-01  2.775322e-01
     vertex  1.852601e-01 -1.412209e-01  2.797934e-01
     vertex  1.854041e-01 -1.415693e-01  2.797311e-01
   endloop
 endfacet
 facet normal  9.242246e-01  3.818493e-01 -4.665828e-12
   outer loop
     vertex  1.853042e-01 -1.413276e-01  2.775322e-01
     vertex  1.851875e-01 -1.410450e-01  2.775322e-01
     vertex  1.852601e-01 -1.412209e-01  2.797934e-01
   endloop
 endfacet
 facet normal  4.640725e-01  8.830170e-01  7.012614e-02
   outer loop
     vertex  1.849415e-01 -1.411187e-01  2.797934e-01
     vertex  1.850432e-01 -1.409926e-01  2.775322e-01
     vertex  1.849752e-01 -1.409568e-01  2.775322e-01
   endloop
 endfacet
 facet normal  5.300620e-01  8.451955e-01  6.840214e-02
   outer loop
     vertex  1.849415e-01 -1.411187e-01  2.797934e-01
     vertex  1.849752e-01 -1.409568e-01  2.775322e-01
     vertex  1.847993e-01 -1.410295e-01  2.797934e-01
   endloop
 endfacet
 facet normal  3.826137e-01  9.213580e-01  6.860184e-02
   outer loop
     vertex  1.850966e-01 -1.411831e-01  2.797934e-01
     vertex  1.851142e-01 -1.410220e-01  2.775322e-01
     vertex  1.850432e-01 -1.409926e-01  2.775322e-01
   endloop
 endfacet
 facet normal  2.979577e-01  9.519998e-01  7.012614e-02
   outer loop
     vertex  1.850966e-01 -1.411831e-01  2.797934e-01
     vertex  1.851875e-01 -1.410450e-01  2.775322e-01
     vertex  1.851142e-01 -1.410220e-01  2.775322e-01
   endloop
 endfacet
 facet normal  3.826137e-01  9.213580e-01  6.860184e-02
   outer loop
     vertex  1.850966e-01 -1.411831e-01  2.797934e-01
     vertex  1.850432e-01 -1.409926e-01  2.775322e-01
     vertex  1.849415e-01 -1.411187e-01  2.797934e-01
   endloop
 endfacet
 facet normal  2.245883e-01  9.720500e-01  6.840214e-02
   outer loop
     vertex  1.852601e-01 -1.412209e-01  2.797934e-01
     vertex  1.851875e-01 -1.410450e-01  2.775322e-01
     vertex  1.850966e-01 -1.411831e-01  2.797934e-01
   endloop
 endfacet
 facet normal -3.818493e-01  9.242246e-01 -1.122314e-12
   outer loop
     vertex  1.846926e-01 -1.410736e-01  2.775322e-01
     vertex  1.844509e-01 -1.411735e-01  2.797311e-01
     vertex  1.847993e-01 -1.410295e-01  2.797934e-01
   endloop
 endfacet
 facet normal -3.818493e-01  9.242246e-01  4.410700e-12
   outer loop
     vertex  1.846926e-01 -1.410736e-01  2.775322e-01
     vertex  1.841065e-01 -1.413158e-01  2.796467e-01
     vertex  1.844509e-01 -1.411735e-01  2.797311e-01
   endloop
 endfacet
 facet normal -3.818493e-01  9.242246e-01 -9.622350e-11
   outer loop
     vertex  1.846926e-01 -1.410736e-01  2.775322e-01
     vertex  1.837672e-01 -1.414560e-01  2.795404e-01
     vertex  1.841065e-01 -1.413158e-01  2.796467e-01
   endloop
 endfacet
 facet normal -3.818493e-01  9.242246e-01  2.853125e-12
   outer loop
     vertex  1.849752e-01 -1.409568e-01  2.775322e-01
     vertex  1.846926e-01 -1.410736e-01  2.775322e-01
     vertex  1.847993e-01 -1.410295e-01  2.797934e-01
   endloop
 endfacet
 facet normal  0.000000e+00 -0.000000e+00  1.000000e+00
   outer loop
     vertex  1.845668e-01 -1.403705e-01  2.775322e-01
     vertex  1.845819e-01 -1.400049e-01  2.775322e-01
     vertex  1.842993e-01 -1.401217e-01  2.775322e-01
   endloop
 endfacet
 facet normal  0.000000e+00  0.000000e+00  1.000000e+00
   outer loop
     vertex  1.847065e-01 -1.407086e-01  2.775322e-01
     vertex  1.845668e-01 -1.403705e-01  2.775322e-01
     vertex  1.842993e-01 -1.401217e-01  2.775322e-01
   endloop
 endfacet
 facet normal  0.000000e+00  0.000000e+00  1.000000e+00
   outer loop
     vertex  1.846926e-01 -1.410736e-01  2.775322e-01
     vertex  1.849752e-01 -1.409568e-01  2.775322e-01
     vertex  1.847065e-01 -1.407086e-01  2.775322e-01
   endloop
 endfacet
 facet normal  0.000000e+00 -0.000000e+00  1.000000e+00
   outer loop
     vertex  1.846926e-01 -1.410736e-01  2.775322e-01
     vertex  1.847065e-01 -1.407086e-01  2.775322e-01
     vertex  1.842993e-01 -1.401217e-01  2.775322e-01
   endloop
 endfacet
 facet normal  3.818493e-01 -9.242246e-01  9.622350e-11
   outer loop
     vertex  1.842993e-01 -1.401217e-01  2.775322e-01
     vertex  1.837131e-01 -1.403638e-01  2.796467e-01
     vertex  1.833739e-01 -1.405040e-01  2.795404e-01
   endloop
 endfacet
 facet normal  3.818493e-01 -9.242246e-01 -4.410700e-12
   outer loop
     vertex  1.842993e-01 -1.401217e-01  2.775322e-01
     vertex  1.840576e-01 -1.402215e-01  2.797311e-01
     vertex  1.837131e-01 -1.403638e-01  2.796467e-01
   endloop
 endfacet
 facet normal  3.818493e-01 -9.242246e-01 -7.003995e-12
   outer loop
     vertex  1.842993e-01 -1.401217e-01  2.775322e-01
     vertex  1.844060e-01 -1.400776e-01  2.797934e-01
     vertex  1.840576e-01 -1.402215e-01  2.797311e-01
   endloop
 endfacet
 facet normal  3.818493e-01 -9.242246e-01 -1.447004e-11
   outer loop
     vertex  1.842993e-01 -1.401217e-01  2.775322e-01
     vertex  1.845819e-01 -1.400049e-01  2.775322e-01
     vertex  1.844060e-01 -1.400776e-01  2.797934e-01
   endloop
 endfacet
 facet normal  8.451955e-01 -5.300620e-01  6.840214e-02
   outer loop
     vertex  1.845082e-01 -1.397590e-01  2.797934e-01
     vertex  1.846701e-01 -1.397927e-01  2.775322e-01
     vertex  1.845974e-01 -1.396168e-01  2.797934e-01
   endloop
 endfacet
 facet normal  9.213580e-01 -3.826137e-01  6.860184e-02
   outer loop
     vertex  1.845082e-01 -1.397590e-01  2.797934e-01
     vertex  1.846049e-01 -1.399316e-01  2.775322e-01
     vertex  1.846343e-01 -1.398607e-01  2.775322e-01
   endloop
 endfacet
 facet normal  8.830170e-01 -4.640725e-01  7.012614e-02
   outer loop
     vertex  1.845082e-01 -1.397590e-01  2.797934e-01
     vertex  1.846343e-01 -1.398607e-01  2.775322e-01
     vertex  1.846701e-01 -1.397927e-01  2.775322e-01
   endloop
 endfacet
 facet normal  9.519998e-01 -2.979577e-01  7.012614e-02
   outer loop
     vertex  1.844438e-01 -1.399140e-01  2.797934e-01
     vertex  1.845819e-01 -1.400049e-01  2.775322e-01
     vertex  1.846049e-01 -1.399316e-01  2.775322e-01
   endloop
 endfacet
 facet normal  9.213580e-01 -3.826137e-01  6.860184e-02
   outer loop
     vertex  1.844438e-01 -1.399140e-01  2.797934e-01
     vertex  1.846049e-01 -1.399316e-01  2.775322e-01
     vertex  1.845082e-01 -1.397590e-01  2.797934e-01
   endloop
 endfacet
 facet normal  9.720500e-01 -2.245883e-01  6.840214e-02
   outer loop
     vertex  1.844060e-01 -1.400776e-01  2.797934e-01
     vertex  1.845819e-01 -1.400049e-01  2.775322e-01
     vertex  1.844438e-01 -1.399140e-01  2.797934e-01
   endloop
 endfacet
 facet normal -2.726142e-01 -1.489746e-01  9.505199e-01
   outer loop
     vertex  1.861030e-01 -1.397357e-01  2.775322e-01
     vertex  1.854047e-01 -1.402222e-01  2.772557e-01
     vertex  1.861912e-01 -1.398972e-01  2.775322e-01
   endloop
 endfacet
 facet normal -2.342159e-01 -2.040953e-01  9.505199e-01
   outer loop
     vertex  1.859821e-01 -1.395970e-01  2.775322e-01
     vertex  1.854047e-01 -1.402222e-01  2.772557e-01
     vertex  1.861030e-01 -1.397357e-01  2.775322e-01
   endloop
 endfacet
 facet normal -1.848660e-01 -2.496728e-01  9.505199e-01
   outer loop
     vertex  1.858342e-01 -1.394875e-01  2.775322e-01
     vertex  1.854047e-01 -1.402222e-01  2.772557e-01
     vertex  1.859821e-01 -1.395970e-01  2.775322e-01
   endloop
 endfacet
 facet normal -1.438928e-01 -2.737929e-01  9.509639e-01
   outer loop
     vertex  1.857662e-01 -1.394518e-01  2.775322e-01
     vertex  1.854047e-01 -1.402222e-01  2.772557e-01
     vertex  1.858342e-01 -1.394875e-01  2.775322e-01
   endloop
 endfacet
 facet normal -1.186226e-01 -2.856508e-01  9.509639e-01
   outer loop
     vertex  1.856953e-01 -1.394223e-01  2.775322e-01
     vertex  1.854047e-01 -1.402222e-01  2.772557e-01
     vertex  1.857662e-01 -1.394518e-01  2.775322e-01
   endloop
 endfacet
 facet normal -9.238634e-02 -2.951821e-01  9.509639e-01
   outer loop
     vertex  1.856220e-01 -1.393994e-01  2.775322e-01
     vertex  1.854047e-01 -1.402222e-01  2.772557e-01
     vertex  1.856953e-01 -1.394223e-01  2.775322e-01
   endloop
 endfacet
 facet normal -1.310458e-02 -3.154129e-01  9.488640e-01
   outer loop
     vertex  1.852565e-01 -1.393842e-01  2.775322e-01
     vertex  1.854047e-01 -1.402222e-01  2.772557e-01
     vertex  1.856220e-01 -1.393994e-01  2.775322e-01
   endloop
 endfacet
 facet normal  1.205441e-01 -2.917639e-01  9.488640e-01
   outer loop
     vertex  1.849183e-01 -1.395239e-01  2.775322e-01
     vertex  1.854047e-01 -1.402222e-01  2.772557e-01
     vertex  1.852565e-01 -1.393842e-01  2.775322e-01
   endloop
 endfacet
 facet normal  2.319107e-01 -2.141833e-01  9.488640e-01
   outer loop
     vertex  1.846701e-01 -1.397927e-01  2.775322e-01
     vertex  1.854047e-01 -1.402222e-01  2.772557e-01
     vertex  1.849183e-01 -1.395239e-01  2.775322e-01
   endloop
 endfacet
 facet normal  2.737929e-01 -1.438928e-01  9.509639e-01
   outer loop
     vertex  1.846343e-01 -1.398607e-01  2.775322e-01
     vertex  1.854047e-01 -1.402222e-01  2.772557e-01
     vertex  1.846701e-01 -1.397927e-01  2.775322e-01
   endloop
 endfacet
 facet normal  2.856508e-01 -1.186226e-01  9.509639e-01
   outer loop
     vertex  1.846049e-01 -1.399316e-01  2.775322e-01
     vertex  1.854047e-01 -1.402222e-01  2.772557e-01
     vertex  1.846343e-01 -1.398607e-01  2.775322e-01
   endloop
 endfacet
 facet normal  2.951821e-01 -9.238634e-02  9.509639e-01
   outer loop
     vertex  1.845819e-01 -1.400049e-01  2.775322e-01
     vertex  1.854047e-01 -1.402222e-01  2.772557e-01
     vertex  1.846049e-01 -1.399316e-01  2.775322e-01
   endloop
 endfacet
 facet normal  3.154129e-01 -1.310458e-02  9.488640e-01
   outer loop
     vertex  1.845668e-01 -1.403705e-01  2.775322e-01
     vertex  1.854047e-01 -1.402222e-01  2.772557e-01
     vertex  1.845819e-01 -1.400049e-01  2.775322e-01
   endloop
 endfacet
 facet normal  1.438928e-01  2.737929e-01  9.509639e-01
   outer loop
     vertex  1.854047e-01 -1.402222e-01  2.772557e-01
     vertex  1.849752e-01 -1.409568e-01  2.775322e-01
     vertex  1.850432e-01 -1.409926e-01  2.775322e-01
   endloop
 endfacet
 facet normal  1.186226e-01  2.856508e-01  9.509639e-01
   outer loop
     vertex  1.854047e-01 -1.402222e-01  2.772557e-01
     vertex  1.850432e-01 -1.409926e-01  2.775322e-01
     vertex  1.851142e-01 -1.410220e-01  2.775322e-01
   endloop
 endfacet
 facet normal  9.238634e-02  2.951821e-01  9.509639e-01
   outer loop
     vertex  1.854047e-01 -1.402222e-01  2.772557e-01
     vertex  1.851142e-01 -1.410220e-01  2.775322e-01
     vertex  1.851875e-01 -1.410450e-01  2.775322e-01
   endloop
 endfacet
 facet normal  2.917639e-01  1.205441e-01  9.488640e-01
   outer loop
     vertex  1.854047e-01 -1.402222e-01  2.772557e-01
     vertex  1.845668e-01 -1.403705e-01  2.775322e-01
     vertex  1.847065e-01 -1.407086e-01  2.775322e-01
   endloop
 endfacet
 facet normal  2.141833e-01  2.319107e-01  9.488640e-01
   outer loop
     vertex  1.854047e-01 -1.402222e-01  2.772557e-01
     vertex  1.847065e-01 -1.407086e-01  2.775322e-01
     vertex  1.849752e-01 -1.409568e-01  2.775322e-01
   endloop
 endfacet
 facet normal  0.000000e+00  0.000000e+00  0.000000e+00
   outer loop
     vertex  1.854047e-01 -1.402222e-01  2.772557e-01
     vertex  1.854047e-01 -1.402222e-01  2.772557e-01
     vertex  1.845668e-01 -1.403705e-01  2.775322e-01
   endloop
 endfacet
 facet normal  1.310458e-02  3.154129e-01  9.488640e-01
   outer loop
     vertex  1.855530e-01 -1.410602e-01  2.775322e-01
     vertex  1.854047e-01 -1.402222e-01  2.772557e-01
     vertex  1.851875e-01 -1.410450e-01  2.775322e-01
   endloop
 endfacet
 facet normal -1.205441e-01  2.917639e-01  9.488640e-01
   outer loop
     vertex  1.858912e-01 -1.409204e-01  2.775322e-01
     vertex  1.854047e-01 -1.402222e-01  2.772557e-01
     vertex  1.855530e-01 -1.410602e-01  2.775322e-01
   endloop
 endfacet
 facet normal -2.319107e-01  2.141833e-01  9.488640e-01
   outer loop
     vertex  1.861394e-01 -1.406517e-01  2.775322e-01
     vertex  1.854047e-01 -1.402222e-01  2.772557e-01
     vertex  1.858912e-01 -1.409204e-01  2.775322e-01
   endloop
 endfacet
 facet normal -2.737929e-01  1.438928e-01  9.509639e-01
   outer loop
     vertex  1.861751e-01 -1.405837e-01  2.775322e-01
     vertex  1.854047e-01 -1.402222e-01  2.772557e-01
     vertex  1.861394e-01 -1.406517e-01  2.775322e-01
   endloop
 endfacet
 facet normal -2.856508e-01  1.186226e-01  9.509639e-01
   outer loop
     vertex  1.862046e-01 -1.405128e-01  2.775322e-01
     vertex  1.854047e-01 -1.402222e-01  2.772557e-01
     vertex  1.861751e-01 -1.405837e-01  2.775322e-01
   endloop
 endfacet
 facet normal -2.951821e-01  9.238634e-02  9.509639e-01
   outer loop
     vertex  1.862275e-01 -1.404395e-01  2.775322e-01
     vertex  1.854047e-01 -1.402222e-01  2.772557e-01
     vertex  1.862046e-01 -1.405128e-01  2.775322e-01
   endloop
 endfacet
 facet normal -3.071821e-01  4.638000e-02  9.505199e-01
   outer loop
     vertex  1.862550e-01 -1.402575e-01  2.775322e-01
     vertex  1.854047e-01 -1.402222e-01  2.772557e-01
     vertex  1.862275e-01 -1.404395e-01  2.775322e-01
   endloop
 endfacet
 facet normal -3.099707e-01 -2.073891e-02  9.505199e-01
   outer loop
     vertex  1.862427e-01 -1.400739e-01  2.775322e-01
     vertex  1.854047e-01 -1.402222e-01  2.772557e-01
     vertex  1.862550e-01 -1.402575e-01  2.775322e-01
   endloop
 endfacet
 facet normal -2.982657e-01 -8.688811e-02  9.505199e-01
   outer loop
     vertex  1.861912e-01 -1.398972e-01  2.775322e-01
     vertex  1.854047e-01 -1.402222e-01  2.772557e-01
     vertex  1.862427e-01 -1.400739e-01  2.775322e-01
   endloop
 endfacet
 facet normal  8.271204e-01  3.417301e-01  4.461978e-01
   outer loop
     vertex  1.842993e-01 -1.401217e-01  2.775322e-01
     vertex  1.833739e-01 -1.405040e-01  2.795404e-01
     vertex  1.834974e-01 -1.408243e-01  2.795569e-01
   endloop
 endfacet
 facet normal  8.271204e-01  3.417301e-01  4.461978e-01
   outer loop
     vertex  1.842993e-01 -1.401217e-01  2.775322e-01
     vertex  1.834974e-01 -1.408243e-01  2.795569e-01
     vertex  1.836286e-01 -1.411419e-01  2.795569e-01
   endloop
 endfacet
 facet normal  8.271204e-01  3.417301e-01  4.461978e-01
   outer loop
     vertex  1.846926e-01 -1.410736e-01  2.775322e-01
     vertex  1.836286e-01 -1.411419e-01  2.795569e-01
     vertex  1.837672e-01 -1.414560e-01  2.795404e-01
   endloop
 endfacet
 facet normal  8.271204e-01  3.417301e-01  4.461978e-01
   outer loop
     vertex  1.846926e-01 -1.410736e-01  2.775322e-01
     vertex  1.842993e-01 -1.401217e-01  2.775322e-01
     vertex  1.836286e-01 -1.411419e-01  2.795569e-01
   endloop
 endfacet
 facet normal -3.417301e-01  8.271204e-01  4.461978e-01
   outer loop
     vertex  1.863245e-01 -1.419983e-01  2.795569e-01
     vertex  1.866385e-01 -1.418597e-01  2.795404e-01
     vertex  1.862562e-01 -1.409343e-01  2.775322e-01
   endloop
 endfacet
 facet normal -3.417301e-01  8.271204e-01  4.461978e-01
   outer loop
     vertex  1.860069e-01 -1.421295e-01  2.795569e-01
     vertex  1.862562e-01 -1.409343e-01  2.775322e-01
     vertex  1.853042e-01 -1.413276e-01  2.775322e-01
   endloop
 endfacet
 facet normal -3.417301e-01  8.271204e-01  4.461978e-01
   outer loop
     vertex  1.860069e-01 -1.421295e-01  2.795569e-01
     vertex  1.863245e-01 -1.419983e-01  2.795569e-01
     vertex  1.862562e-01 -1.409343e-01  2.775322e-01
   endloop
 endfacet
 facet normal -3.417301e-01  8.271204e-01  4.461978e-01
   outer loop
     vertex  1.856866e-01 -1.422530e-01  2.795404e-01
     vertex  1.860069e-01 -1.421295e-01  2.795569e-01
     vertex  1.853042e-01 -1.413276e-01  2.775322e-01
   endloop
 endfacet
 facet normal -8.271204e-01 -3.417301e-01  4.461978e-01
   outer loop
     vertex  1.871809e-01 -1.393024e-01  2.795569e-01
     vertex  1.870423e-01 -1.389884e-01  2.795404e-01
     vertex  1.861169e-01 -1.393707e-01  2.775322e-01
   endloop
 endfacet
 facet normal -8.271204e-01 -3.417301e-01  4.461978e-01
   outer loop
     vertex  1.871809e-01 -1.393024e-01  2.795569e-01
     vertex  1.861169e-01 -1.393707e-01  2.775322e-01
     vertex  1.865102e-01 -1.403227e-01  2.775322e-01
   endloop
 endfacet
 facet normal -8.271204e-01 -3.417301e-01  4.461978e-01
   outer loop
     vertex  1.873121e-01 -1.396201e-01  2.795569e-01
     vertex  1.871809e-01 -1.393024e-01  2.795569e-01
     vertex  1.865102e-01 -1.403227e-01  2.775322e-01
   endloop
 endfacet
 facet normal -8.271204e-01 -3.417301e-01  4.461978e-01
   outer loop
     vertex  1.874356e-01 -1.399403e-01  2.795404e-01
     vertex  1.873121e-01 -1.396201e-01  2.795569e-01
     vertex  1.865102e-01 -1.403227e-01  2.775322e-01
   endloop
 endfacet
 facet normal  3.417301e-01 -8.271204e-01  4.461978e-01
   outer loop
     vertex  1.855052e-01 -1.391167e-01  2.775322e-01
     vertex  1.851229e-01 -1.381913e-01  2.795404e-01
     vertex  1.848026e-01 -1.383148e-01  2.795569e-01
   endloop
 endfacet
 facet normal  3.417301e-01 -8.271204e-01  4.461978e-01
   outer loop
     vertex  1.845533e-01 -1.395100e-01  2.775322e-01
     vertex  1.848026e-01 -1.383148e-01  2.795569e-01
     vertex  1.844850e-01 -1.384460e-01  2.795569e-01
   endloop
 endfacet
 facet normal  3.417301e-01 -8.271204e-01  4.461978e-01
   outer loop
     vertex  1.845533e-01 -1.395100e-01  2.775322e-01
     vertex  1.844850e-01 -1.384460e-01  2.795569e-01
     vertex  1.841710e-01 -1.385847e-01  2.795404e-01
   endloop
 endfacet
 facet normal  3.417301e-01 -8.271204e-01  4.461978e-01
   outer loop
     vertex  1.845533e-01 -1.395100e-01  2.775322e-01
     vertex  1.855052e-01 -1.391167e-01  2.775322e-01
     vertex  1.848026e-01 -1.383148e-01  2.795569e-01
   endloop
 endfacet
endsolid
