solid 
 facet normal  4.078094e-01  6.583043e-01 -6.327139e-01
   outer loop
     vertex  5.970313e-02 -1.379152e-01  2.734088e-01
     vertex  5.942332e-02 -1.380654e-01  2.730722e-01
     vertex  5.554621e-02 -1.356636e-01  2.730722e-01
   endloop
 endfacet
 facet normal  4.078094e-01  6.583043e-01 -6.327139e-01
   outer loop
     vertex  5.970313e-02 -1.379152e-01  2.734088e-01
     vertex  5.554621e-02 -1.356636e-01  2.730722e-01
     vertex  5.555606e-02 -1.353462e-01  2.734088e-01
   endloop
 endfacet
 facet normal  5.205886e-01  8.403574e-01  1.509538e-01
   outer loop
     vertex  5.970313e-02 -1.379152e-01  2.734088e-01
     vertex  5.555606e-02 -1.353462e-01  2.734088e-01
     vertex  5.555356e-02 -1.354265e-01  2.738646e-01
   endloop
 endfacet
 facet normal  3.407967e-01  4.136291e-01  8.442563e-01
   outer loop
     vertex  5.970313e-02 -1.379152e-01  2.734088e-01
     vertex  5.555356e-02 -1.354265e-01  2.738646e-01
     vertex  5.554074e-02 -1.358398e-01  2.740722e-01
   endloop
 endfacet
 facet normal  4.989543e-02 -1.548486e-03  9.987532e-01
   outer loop
     vertex  5.948349e-02 -1.427489e-01  2.738646e-01
     vertex  5.554074e-02 -1.358398e-01  2.740722e-01
     vertex  5.526873e-02 -1.446045e-01  2.740722e-01
   endloop
 endfacet
 facet normal  1.971440e-01  8.313953e-02  9.768429e-01
   outer loop
     vertex  5.948349e-02 -1.427489e-01  2.738646e-01
     vertex  5.970313e-02 -1.379152e-01  2.734088e-01
     vertex  5.554074e-02 -1.358398e-01  2.740722e-01
   endloop
 endfacet
 facet normal  7.740129e-01 -2.402120e-02 -6.327139e-01
   outer loop
     vertex  5.955180e-02 -1.427912e-01  2.734088e-01
     vertex  5.928185e-02 -1.426240e-01  2.730722e-01
     vertex  5.942332e-02 -1.380654e-01  2.730722e-01
   endloop
 endfacet
 facet normal  9.880651e-01 -3.066423e-02  1.509538e-01
   outer loop
     vertex  5.955180e-02 -1.427912e-01  2.734088e-01
     vertex  5.970313e-02 -1.379152e-01  2.734088e-01
     vertex  5.948349e-02 -1.427489e-01  2.738646e-01
   endloop
 endfacet
 facet normal  7.740129e-01 -2.402120e-02 -6.327139e-01
   outer loop
     vertex  5.955180e-02 -1.427912e-01  2.734088e-01
     vertex  5.942332e-02 -1.380654e-01  2.730722e-01
     vertex  5.970313e-02 -1.379152e-01  2.734088e-01
   endloop
 endfacet
 facet normal  2.372334e-01 -4.420231e-01  8.650641e-01
   outer loop
     vertex  5.525590e-02 -1.450179e-01  2.738646e-01
     vertex  5.948349e-02 -1.427489e-01  2.738646e-01
     vertex  5.526873e-02 -1.446045e-01  2.740722e-01
   endloop
 endfacet
 facet normal  3.662035e-01 -6.823255e-01 -6.327139e-01
   outer loop
     vertex  5.525341e-02 -1.450982e-01  2.734088e-01
     vertex  5.526326e-02 -1.447808e-01  2.730722e-01
     vertex  5.928185e-02 -1.426240e-01  2.730722e-01
   endloop
 endfacet
 facet normal  3.662035e-01 -6.823255e-01 -6.327139e-01
   outer loop
     vertex  5.525341e-02 -1.450982e-01  2.734088e-01
     vertex  5.928185e-02 -1.426240e-01  2.730722e-01
     vertex  5.955180e-02 -1.427912e-01  2.734088e-01
   endloop
 endfacet
 facet normal  4.674765e-01 -8.710216e-01  1.509538e-01
   outer loop
     vertex  5.525341e-02 -1.450982e-01  2.734088e-01
     vertex  5.948349e-02 -1.427489e-01  2.738646e-01
     vertex  5.525590e-02 -1.450179e-01  2.738646e-01
   endloop
 endfacet
 facet normal  4.674765e-01 -8.710216e-01  1.509538e-01
   outer loop
     vertex  5.525341e-02 -1.450982e-01  2.734088e-01
     vertex  5.955180e-02 -1.427912e-01  2.734088e-01
     vertex  5.948349e-02 -1.427489e-01  2.738646e-01
   endloop
 endfacet
 facet normal -4.078094e-01 -6.583043e-01 -6.327139e-01
   outer loop
     vertex  5.110634e-02 -1.425291e-01  2.734088e-01
     vertex  5.138614e-02 -1.423789e-01  2.730722e-01
     vertex  5.526326e-02 -1.447808e-01  2.730722e-01
   endloop
 endfacet
 facet normal -4.078094e-01 -6.583043e-01 -6.327139e-01
   outer loop
     vertex  5.110634e-02 -1.425291e-01  2.734088e-01
     vertex  5.526326e-02 -1.447808e-01  2.730722e-01
     vertex  5.525341e-02 -1.450982e-01  2.734088e-01
   endloop
 endfacet
 facet normal -3.407967e-01 -4.136291e-01  8.442563e-01
   outer loop
     vertex  5.110634e-02 -1.425291e-01  2.734088e-01
     vertex  5.525590e-02 -1.450179e-01  2.738646e-01
     vertex  5.526873e-02 -1.446045e-01  2.740722e-01
   endloop
 endfacet
 facet normal -5.205886e-01 -8.403574e-01  1.509538e-01
   outer loop
     vertex  5.110634e-02 -1.425291e-01  2.734088e-01
     vertex  5.525341e-02 -1.450982e-01  2.734088e-01
     vertex  5.525590e-02 -1.450179e-01  2.738646e-01
   endloop
 endfacet
 facet normal -4.989543e-02  1.548486e-03  9.987532e-01
   outer loop
     vertex  5.132597e-02 -1.376954e-01  2.738646e-01
     vertex  5.526873e-02 -1.446045e-01  2.740722e-01
     vertex  5.554074e-02 -1.358398e-01  2.740722e-01
   endloop
 endfacet
 facet normal -2.372334e-01  4.420231e-01  8.650641e-01
   outer loop
     vertex  5.132597e-02 -1.376954e-01  2.738646e-01
     vertex  5.554074e-02 -1.358398e-01  2.740722e-01
     vertex  5.555356e-02 -1.354265e-01  2.738646e-01
   endloop
 endfacet
 facet normal -1.971440e-01 -8.313953e-02  9.768429e-01
   outer loop
     vertex  5.132597e-02 -1.376954e-01  2.738646e-01
     vertex  5.110634e-02 -1.425291e-01  2.734088e-01
     vertex  5.526873e-02 -1.446045e-01  2.740722e-01
   endloop
 endfacet
 facet normal -7.740129e-01  2.402120e-02 -6.327139e-01
   outer loop
     vertex  5.125766e-02 -1.376531e-01  2.734088e-01
     vertex  5.152762e-02 -1.378204e-01  2.730722e-01
     vertex  5.138614e-02 -1.423789e-01  2.730722e-01
   endloop
 endfacet
 facet normal -3.662035e-01  6.823255e-01 -6.327139e-01
   outer loop
     vertex  5.125766e-02 -1.376531e-01  2.734088e-01
     vertex  5.554621e-02 -1.356636e-01  2.730722e-01
     vertex  5.152762e-02 -1.378204e-01  2.730722e-01
   endloop
 endfacet
 facet normal -3.662035e-01  6.823255e-01 -6.327139e-01
   outer loop
     vertex  5.125766e-02 -1.376531e-01  2.734088e-01
     vertex  5.555606e-02 -1.353462e-01  2.734088e-01
     vertex  5.554621e-02 -1.356636e-01  2.730722e-01
   endloop
 endfacet
 facet normal -4.674765e-01  8.710216e-01  1.509538e-01
   outer loop
     vertex  5.125766e-02 -1.376531e-01  2.734088e-01
     vertex  5.555356e-02 -1.354265e-01  2.738646e-01
     vertex  5.555606e-02 -1.353462e-01  2.734088e-01
   endloop
 endfacet
 facet normal -4.674765e-01  8.710216e-01  1.509538e-01
   outer loop
     vertex  5.125766e-02 -1.376531e-01  2.734088e-01
     vertex  5.132597e-02 -1.376954e-01  2.738646e-01
     vertex  5.555356e-02 -1.354265e-01  2.738646e-01
   endloop
 endfacet
 facet normal -7.740129e-01  2.402120e-02 -6.327139e-01
   outer loop
     vertex  5.125766e-02 -1.376531e-01  2.734088e-01
     vertex  5.138614e-02 -1.423789e-01  2.730722e-01
     vertex  5.110634e-02 -1.425291e-01  2.734088e-01
   endloop
 endfacet
 facet normal -9.880651e-01  3.066423e-02  1.509538e-01
   outer loop
     vertex  5.125766e-02 -1.376531e-01  2.734088e-01
     vertex  5.110634e-02 -1.425291e-01  2.734088e-01
     vertex  5.132597e-02 -1.376954e-01  2.738646e-01
   endloop
 endfacet
 facet normal  8.065741e-02 -3.432597e-01 -9.357709e-01
   outer loop
     vertex  5.743123e-02 -1.439978e-01  2.729719e-01
     vertex  5.526326e-02 -1.447808e-01  2.730722e-01
     vertex  5.529004e-02 -1.439178e-01  2.727580e-01
   endloop
 endfacet
 facet normal  1.355787e-01 -2.526158e-01  9.580207e-01
   outer loop
     vertex  5.928185e-02 -1.426240e-01  2.730722e-01
     vertex  5.526326e-02 -1.447808e-01  2.730722e-01
     vertex  5.743123e-02 -1.439978e-01  2.729719e-01
   endloop
 endfacet
 facet normal  9.967844e-02 -6.173440e-02 -9.931028e-01
   outer loop
     vertex  5.968793e-02 -1.403551e-01  2.729720e-01
     vertex  5.928185e-02 -1.426240e-01  2.730722e-01
     vertex  5.743123e-02 -1.439978e-01  2.729719e-01
   endloop
 endfacet
 facet normal  2.862451e-01 -8.883509e-03  9.581153e-01
   outer loop
     vertex  5.942332e-02 -1.380654e-01  2.730722e-01
     vertex  5.928185e-02 -1.426240e-01  2.730722e-01
     vertex  5.968793e-02 -1.403551e-01  2.729720e-01
   endloop
 endfacet
 facet normal  1.032810e-01  5.543085e-02 -9.931065e-01
   outer loop
     vertex  5.766145e-02 -1.365793e-01  2.729720e-01
     vertex  5.942332e-02 -1.380654e-01  2.730722e-01
     vertex  5.968793e-02 -1.403551e-01  2.729720e-01
   endloop
 endfacet
 facet normal  1.017829e-01  3.375979e-01 -9.357713e-01
   outer loop
     vertex  5.554621e-02 -1.356636e-01  2.730722e-01
     vertex  5.766145e-02 -1.365793e-01  2.729720e-01
     vertex  5.551942e-02 -1.365266e-01  2.727580e-01
   endloop
 endfacet
 facet normal  1.508158e-01  2.434536e-01  9.581153e-01
   outer loop
     vertex  5.554621e-02 -1.356636e-01  2.730722e-01
     vertex  5.942332e-02 -1.380654e-01  2.730722e-01
     vertex  5.766145e-02 -1.365793e-01  2.729720e-01
   endloop
 endfacet
 facet normal -8.065741e-02  3.432597e-01 -9.357709e-01
   outer loop
     vertex  5.337824e-02 -1.364466e-01  2.729719e-01
     vertex  5.554621e-02 -1.356636e-01  2.730722e-01
     vertex  5.551942e-02 -1.365266e-01  2.727580e-01
   endloop
 endfacet
 facet normal -1.355788e-01  2.526160e-01  9.580207e-01
   outer loop
     vertex  5.152762e-02 -1.378204e-01  2.730722e-01
     vertex  5.554621e-02 -1.356636e-01  2.730722e-01
     vertex  5.337824e-02 -1.364466e-01  2.729719e-01
   endloop
 endfacet
 facet normal -9.967845e-02  6.173441e-02 -9.931027e-01
   outer loop
     vertex  5.112154e-02 -1.400892e-01  2.729720e-01
     vertex  5.152762e-02 -1.378204e-01  2.730722e-01
     vertex  5.337824e-02 -1.364466e-01  2.729719e-01
   endloop
 endfacet
 facet normal -2.862451e-01  8.883509e-03  9.581153e-01
   outer loop
     vertex  5.138614e-02 -1.423789e-01  2.730722e-01
     vertex  5.152762e-02 -1.378204e-01  2.730722e-01
     vertex  5.112154e-02 -1.400892e-01  2.729720e-01
   endloop
 endfacet
 facet normal -1.032810e-01 -5.543085e-02 -9.931065e-01
   outer loop
     vertex  5.314802e-02 -1.438651e-01  2.729720e-01
     vertex  5.138614e-02 -1.423789e-01  2.730722e-01
     vertex  5.112154e-02 -1.400892e-01  2.729720e-01
   endloop
 endfacet
 facet normal -1.017829e-01 -3.375979e-01 -9.357713e-01
   outer loop
     vertex  5.526326e-02 -1.447808e-01  2.730722e-01
     vertex  5.314802e-02 -1.438651e-01  2.729720e-01
     vertex  5.529004e-02 -1.439178e-01  2.727580e-01
   endloop
 endfacet
 facet normal -1.508158e-01 -2.434536e-01  9.581153e-01
   outer loop
     vertex  5.526326e-02 -1.447808e-01  2.730722e-01
     vertex  5.138614e-02 -1.423789e-01  2.730722e-01
     vertex  5.314802e-02 -1.438651e-01  2.729720e-01
   endloop
 endfacet
 facet normal -2.338654e-03 -8.246252e-01 -5.656747e-01
   outer loop
     vertex  5.630010e-02 -1.438070e-01  2.726984e-01
     vertex  5.731592e-02 -1.437832e-01  2.726595e-01
     vertex  5.743123e-02 -1.439978e-01  2.729719e-01
   endloop
 endfacet
 facet normal -1.784905e-02 -5.751213e-01 -8.178734e-01
   outer loop
     vertex  5.630010e-02 -1.438070e-01  2.726984e-01
     vertex  5.327641e-02 -1.436578e-01  2.726595e-01
     vertex  5.731592e-02 -1.437832e-01  2.726595e-01
   endloop
 endfacet
 facet normal  4.041349e-02 -7.332492e-01 -6.787580e-01
   outer loop
     vertex  5.630010e-02 -1.438070e-01  2.726984e-01
     vertex  5.743123e-02 -1.439978e-01  2.729719e-01
     vertex  5.529004e-02 -1.439178e-01  2.727580e-01
   endloop
 endfacet
 facet normal -4.882404e-02 -8.229686e-01 -5.659849e-01
   outer loop
     vertex  5.429478e-02 -1.437447e-01  2.726981e-01
     vertex  5.314802e-02 -1.438651e-01  2.729720e-01
     vertex  5.327641e-02 -1.436578e-01  2.726595e-01
   endloop
 endfacet
 facet normal -8.580268e-02 -7.287215e-01 -6.794136e-01
   outer loop
     vertex  5.429478e-02 -1.437447e-01  2.726981e-01
     vertex  5.529004e-02 -1.439178e-01  2.727580e-01
     vertex  5.314802e-02 -1.438651e-01  2.729720e-01
   endloop
 endfacet
 facet normal -1.754428e-02 -5.698973e-01 -8.215286e-01
   outer loop
     vertex  5.429478e-02 -1.437447e-01  2.726981e-01
     vertex  5.327641e-02 -1.436578e-01  2.726595e-01
     vertex  5.630010e-02 -1.438070e-01  2.726984e-01
   endloop
 endfacet
 facet normal -1.186242e-02 -3.873958e-01 -9.218372e-01
   outer loop
     vertex  5.429478e-02 -1.437447e-01  2.726981e-01
     vertex  5.630010e-02 -1.438070e-01  2.726984e-01
     vertex  5.529004e-02 -1.439178e-01  2.727580e-01
   endloop
 endfacet
 facet normal  7.131275e-01 -4.133628e-01 -5.661982e-01
   outer loop
     vertex  5.838018e-02 -1.421682e-01  2.726485e-01
     vertex  5.944424e-02 -1.403475e-01  2.726595e-01
     vertex  5.968793e-02 -1.403551e-01  2.729720e-01
   endloop
 endfacet
 facet normal -1.688305e-01  1.045867e-01 -9.800806e-01
   outer loop
     vertex  5.838018e-02 -1.421682e-01  2.726485e-01
     vertex  5.731592e-02 -1.437832e-01  2.726595e-01
     vertex  5.944424e-02 -1.403475e-01  2.726595e-01
   endloop
 endfacet
 facet normal  6.862301e-01 -4.560766e-01 -5.666413e-01
   outer loop
     vertex  5.838018e-02 -1.421682e-01  2.726485e-01
     vertex  5.743123e-02 -1.439978e-01  2.729719e-01
     vertex  5.731592e-02 -1.437832e-01  2.726595e-01
   endloop
 endfacet
 facet normal  7.648775e-01 -4.738467e-01 -4.363849e-01
   outer loop
     vertex  5.838018e-02 -1.421682e-01  2.726485e-01
     vertex  5.968793e-02 -1.403551e-01  2.729720e-01
     vertex  5.743123e-02 -1.439978e-01  2.729719e-01
   endloop
 endfacet
 facet normal -1.743323e-01 -9.356358e-02 -9.802317e-01
   outer loop
     vertex  5.849512e-02 -1.384643e-01  2.726486e-01
     vertex  5.944424e-02 -1.403475e-01  2.726595e-01
     vertex  5.753305e-02 -1.367865e-01  2.726595e-01
   endloop
 endfacet
 facet normal  7.373874e-01  3.683475e-01 -5.661978e-01
   outer loop
     vertex  5.849512e-02 -1.384643e-01  2.726486e-01
     vertex  5.968793e-02 -1.403551e-01  2.729720e-01
     vertex  5.944424e-02 -1.403475e-01  2.726595e-01
   endloop
 endfacet
 facet normal  7.927685e-01  4.254781e-01 -4.364477e-01
   outer loop
     vertex  5.849512e-02 -1.384643e-01  2.726486e-01
     vertex  5.766145e-02 -1.365793e-01  2.729720e-01
     vertex  5.968793e-02 -1.403551e-01  2.729720e-01
   endloop
 endfacet
 facet normal  7.131244e-01  4.126102e-01 -5.667508e-01
   outer loop
     vertex  5.849512e-02 -1.384643e-01  2.726486e-01
     vertex  5.753305e-02 -1.367865e-01  2.726595e-01
     vertex  5.766145e-02 -1.365793e-01  2.729720e-01
   endloop
 endfacet
 facet normal  1.785464e-02  5.752537e-01 -8.177801e-01
   outer loop
     vertex  5.450936e-02 -1.366374e-01  2.726984e-01
     vertex  5.753305e-02 -1.367865e-01  2.726595e-01
     vertex  5.349355e-02 -1.366612e-01  2.726595e-01
   endloop
 endfacet
 facet normal -4.041368e-02  7.332479e-01 -6.787594e-01
   outer loop
     vertex  5.450936e-02 -1.366374e-01  2.726984e-01
     vertex  5.337824e-02 -1.364466e-01  2.729719e-01
     vertex  5.551942e-02 -1.365266e-01  2.727580e-01
   endloop
 endfacet
 facet normal  2.346407e-03  8.246397e-01 -5.656535e-01
   outer loop
     vertex  5.450936e-02 -1.366374e-01  2.726984e-01
     vertex  5.349355e-02 -1.366612e-01  2.726595e-01
     vertex  5.337824e-02 -1.364466e-01  2.729719e-01
   endloop
 endfacet
 facet normal  4.882784e-02  8.229727e-01 -5.659786e-01
   outer loop
     vertex  5.651472e-02 -1.366996e-01  2.726981e-01
     vertex  5.766145e-02 -1.365793e-01  2.729720e-01
     vertex  5.753305e-02 -1.367865e-01  2.726595e-01
   endloop
 endfacet
 facet normal  8.580044e-02  7.287496e-01 -6.793837e-01
   outer loop
     vertex  5.651472e-02 -1.366996e-01  2.726981e-01
     vertex  5.551942e-02 -1.365266e-01  2.727580e-01
     vertex  5.766145e-02 -1.365793e-01  2.729720e-01
   endloop
 endfacet
 facet normal  1.185750e-02  3.874188e-01 -9.218276e-01
   outer loop
     vertex  5.651472e-02 -1.366996e-01  2.726981e-01
     vertex  5.450936e-02 -1.366374e-01  2.726984e-01
     vertex  5.551942e-02 -1.365266e-01  2.727580e-01
   endloop
 endfacet
 facet normal  1.753634e-02  5.697981e-01 -8.215976e-01
   outer loop
     vertex  5.651472e-02 -1.366996e-01  2.726981e-01
     vertex  5.753305e-02 -1.367865e-01  2.726595e-01
     vertex  5.450936e-02 -1.366374e-01  2.726984e-01
   endloop
 endfacet
 facet normal  3.101963e-02  9.995188e-01  5.091593e-07
   outer loop
     vertex  5.551330e-02 -1.367239e-01  2.702722e-01
     vertex  5.349355e-02 -1.366612e-01  2.726595e-01
     vertex  5.753305e-02 -1.367865e-01  2.726595e-01
   endloop
 endfacet
 facet normal  3.101959e-02  9.995188e-01  5.451702e-07
   outer loop
     vertex  5.551330e-02 -1.367239e-01  2.702722e-01
     vertex  5.753305e-02 -1.367865e-01  2.726595e-01
     vertex  5.753305e-02 -1.367865e-01  2.706722e-01
   endloop
 endfacet
 facet normal  3.101983e-02  9.995188e-01  6.782030e-07
   outer loop
     vertex  5.349355e-02 -1.366612e-01  2.706722e-01
     vertex  5.349355e-02 -1.366612e-01  2.726595e-01
     vertex  5.551330e-02 -1.367239e-01  2.702722e-01
   endloop
 endfacet
 facet normal  2.939386e-01  4.744888e-01 -8.297352e-01
   outer loop
     vertex  5.753305e-02 -1.367865e-01  2.706722e-01
     vertex  5.773657e-02 -1.376121e-01  2.702722e-01
     vertex  5.670325e-02 -1.369720e-01  2.702722e-01
   endloop
 endfacet
 facet normal  5.905798e-01  4.651148e-01 -6.594571e-01
   outer loop
     vertex  5.753305e-02 -1.367865e-01  2.706722e-01
     vertex  5.848865e-02 -1.385670e-01  2.702722e-01
     vertex  5.773657e-02 -1.376121e-01  2.702722e-01
   endloop
 endfacet
 facet normal  1.534404e-01  7.359160e-01 -6.594571e-01
   outer loop
     vertex  5.551330e-02 -1.367239e-01  2.702722e-01
     vertex  5.753305e-02 -1.367865e-01  2.706722e-01
     vertex  5.670325e-02 -1.369720e-01  2.702722e-01
   endloop
 endfacet
 facet normal  0.000000e+00  0.000000e+00 -1.000000e+00
   outer loop
     vertex  5.534269e-02 -1.422212e-01  2.702722e-01
     vertex  5.529616e-02 -1.437205e-01  2.702722e-01
     vertex  5.410622e-02 -1.434724e-01  2.702722e-01
   endloop
 endfacet
 facet normal  0.000000e+00  0.000000e+00 -1.000000e+00
   outer loop
     vertex  5.534269e-02 -1.422212e-01  2.702722e-01
     vertex  5.757024e-02 -1.429718e-01  2.702722e-01
     vertex  5.649921e-02 -1.435466e-01  2.702722e-01
   endloop
 endfacet
 facet normal  0.000000e+00 -0.000000e+00 -1.000000e+00
   outer loop
     vertex  5.534269e-02 -1.422212e-01  2.702722e-01
     vertex  5.649921e-02 -1.435466e-01  2.702722e-01
     vertex  5.529616e-02 -1.437205e-01  2.702722e-01
   endloop
 endfacet
 facet normal  0.000000e+00  0.000000e+00 -1.000000e+00
   outer loop
     vertex  5.740377e-02 -1.402842e-01  2.702722e-01
     vertex  5.838008e-02 -1.420654e-01  2.702722e-01
     vertex  5.757024e-02 -1.429718e-01  2.702722e-01
   endloop
 endfacet
 facet normal  0.000000e+00  0.000000e+00 -1.000000e+00
   outer loop
     vertex  5.740377e-02 -1.402842e-01  2.702722e-01
     vertex  5.886875e-02 -1.397216e-01  2.702722e-01
     vertex  5.883105e-02 -1.409366e-01  2.702722e-01
   endloop
 endfacet
 facet normal  0.000000e+00  0.000000e+00 -1.000000e+00
   outer loop
     vertex  5.740377e-02 -1.402842e-01  2.702722e-01
     vertex  5.883105e-02 -1.409366e-01  2.702722e-01
     vertex  5.838008e-02 -1.420654e-01  2.702722e-01
   endloop
 endfacet
 facet normal  0.000000e+00 -0.000000e+00 -1.000000e+00
   outer loop
     vertex  5.740377e-02 -1.402842e-01  2.702722e-01
     vertex  5.757024e-02 -1.429718e-01  2.702722e-01
     vertex  5.534269e-02 -1.422212e-01  2.702722e-01
   endloop
 endfacet
 facet normal  0.000000e+00 -0.000000e+00 -1.000000e+00
   outer loop
     vertex  5.848865e-02 -1.385670e-01  2.702722e-01
     vertex  5.886875e-02 -1.397216e-01  2.702722e-01
     vertex  5.740377e-02 -1.402842e-01  2.702722e-01
   endloop
 endfacet
 facet normal  0.000000e+00  0.000000e+00 -1.000000e+00
   outer loop
     vertex  5.307289e-02 -1.428323e-01  2.702722e-01
     vertex  5.534269e-02 -1.422212e-01  2.702722e-01
     vertex  5.410622e-02 -1.434724e-01  2.702722e-01
   endloop
 endfacet
 facet normal  0.000000e+00 -0.000000e+00 -1.000000e+00
   outer loop
     vertex  5.773657e-02 -1.376121e-01  2.702722e-01
     vertex  5.848865e-02 -1.385670e-01  2.702722e-01
     vertex  5.740377e-02 -1.402842e-01  2.702722e-01
   endloop
 endfacet
 facet normal  0.000000e+00  0.000000e+00 -1.000000e+00
   outer loop
     vertex  5.340569e-02 -1.401601e-01  2.702722e-01
     vertex  5.307289e-02 -1.428323e-01  2.702722e-01
     vertex  5.232082e-02 -1.418773e-01  2.702722e-01
   endloop
 endfacet
 facet normal  0.000000e+00 -0.000000e+00 -1.000000e+00
   outer loop
     vertex  5.340569e-02 -1.401601e-01  2.702722e-01
     vertex  5.534269e-02 -1.422212e-01  2.702722e-01
     vertex  5.307289e-02 -1.428323e-01  2.702722e-01
   endloop
 endfacet
 facet normal  2.591212e-11 -3.227285e-12 -1.000000e+00
   outer loop
     vertex  5.546677e-02 -1.382231e-01  2.702722e-01
     vertex  5.773657e-02 -1.376121e-01  2.702722e-01
     vertex  5.740377e-02 -1.402842e-01  2.702722e-01
   endloop
 endfacet
 facet normal  1.745713e-11  2.818007e-11 -1.000000e+00
   outer loop
     vertex  5.670325e-02 -1.369720e-01  2.702722e-01
     vertex  5.773657e-02 -1.376121e-01  2.702722e-01
     vertex  5.546677e-02 -1.382231e-01  2.702722e-01
   endloop
 endfacet
 facet normal  0.000000e+00  0.000000e+00 -1.000000e+00
   outer loop
     vertex  5.194071e-02 -1.407227e-01  2.702722e-01
     vertex  5.340569e-02 -1.401601e-01  2.702722e-01
     vertex  5.232082e-02 -1.418773e-01  2.702722e-01
   endloop
 endfacet
 facet normal  7.854314e-12  3.767010e-11 -1.000000e+00
   outer loop
     vertex  5.551330e-02 -1.367239e-01  2.702722e-01
     vertex  5.670325e-02 -1.369720e-01  2.702722e-01
     vertex  5.546677e-02 -1.382231e-01  2.702722e-01
   endloop
 endfacet
 facet normal  0.000000e+00 -0.000000e+00 -1.000000e+00
   outer loop
     vertex  5.197842e-02 -1.395078e-01  2.702722e-01
     vertex  5.340569e-02 -1.401601e-01  2.702722e-01
     vertex  5.194071e-02 -1.407227e-01  2.702722e-01
   endloop
 endfacet
 facet normal -5.503293e-12  3.808465e-11 -1.000000e+00
   outer loop
     vertex  5.431026e-02 -1.368977e-01  2.702722e-01
     vertex  5.551330e-02 -1.367239e-01  2.702722e-01
     vertex  5.546677e-02 -1.382231e-01  2.702722e-01
   endloop
 endfacet
 facet normal  0.000000e+00 -0.000000e+00 -1.000000e+00
   outer loop
     vertex  5.242939e-02 -1.383790e-01  2.702722e-01
     vertex  5.340569e-02 -1.401601e-01  2.702722e-01
     vertex  5.197842e-02 -1.395078e-01  2.702722e-01
   endloop
 endfacet
 facet normal -2.606238e-11 -1.614276e-12 -1.000000e+00
   outer loop
     vertex  5.323923e-02 -1.374725e-01  2.702722e-01
     vertex  5.546677e-02 -1.382231e-01  2.702722e-01
     vertex  5.340569e-02 -1.401601e-01  2.702722e-01
   endloop
 endfacet
 facet normal -1.567610e-11  2.920835e-11 -1.000000e+00
   outer loop
     vertex  5.323923e-02 -1.374725e-01  2.702722e-01
     vertex  5.431026e-02 -1.368977e-01  2.702722e-01
     vertex  5.546677e-02 -1.382231e-01  2.702722e-01
   endloop
 endfacet
 facet normal  0.000000e+00 -0.000000e+00 -1.000000e+00
   outer loop
     vertex  5.323923e-02 -1.374725e-01  2.702722e-01
     vertex  5.340569e-02 -1.401601e-01  2.702722e-01
     vertex  5.242939e-02 -1.383790e-01  2.702722e-01
   endloop
 endfacet
 facet normal -2.639501e-01  4.918026e-01 -8.297352e-01
   outer loop
     vertex  5.349355e-02 -1.366612e-01  2.706722e-01
     vertex  5.431026e-02 -1.368977e-01  2.702722e-01
     vertex  5.323923e-02 -1.374725e-01  2.702722e-01
   endloop
 endfacet
 facet normal -1.075113e-01  7.440145e-01 -6.594571e-01
   outer loop
     vertex  5.349355e-02 -1.366612e-01  2.706722e-01
     vertex  5.551330e-02 -1.367239e-01  2.702722e-01
     vertex  5.431026e-02 -1.368977e-01  2.702722e-01
   endloop
 endfacet
 facet normal -5.606017e-01  5.008413e-01 -6.594571e-01
   outer loop
     vertex  5.242939e-02 -1.383790e-01  2.702722e-01
     vertex  5.349355e-02 -1.366612e-01  2.706722e-01
     vertex  5.323923e-02 -1.374725e-01  2.702722e-01
   endloop
 endfacet
 facet normal -8.500987e-01  5.266233e-01  5.677567e-07
   outer loop
     vertex  5.242939e-02 -1.383790e-01  2.702722e-01
     vertex  5.136523e-02 -1.400968e-01  2.706722e-01
     vertex  5.136523e-02 -1.400968e-01  2.726595e-01
   endloop
 endfacet
 facet normal -8.500989e-01  5.266231e-01  3.585540e-07
   outer loop
     vertex  5.242939e-02 -1.383790e-01  2.702722e-01
     vertex  5.136523e-02 -1.400968e-01  2.726595e-01
     vertex  5.349355e-02 -1.366612e-01  2.726595e-01
   endloop
 endfacet
 facet normal -8.500988e-01  5.266232e-01  2.937656e-07
   outer loop
     vertex  5.349355e-02 -1.366612e-01  2.706722e-01
     vertex  5.242939e-02 -1.383790e-01  2.702722e-01
     vertex  5.349355e-02 -1.366612e-01  2.726595e-01
   endloop
 endfacet
 facet normal -7.648703e-01  4.738423e-01 -4.364022e-01
   outer loop
     vertex  5.242931e-02 -1.382762e-01  2.726485e-01
     vertex  5.112154e-02 -1.400892e-01  2.729720e-01
     vertex  5.337824e-02 -1.364466e-01  2.729719e-01
   endloop
 endfacet
 facet normal -7.131273e-01  4.133633e-01 -5.661980e-01
   outer loop
     vertex  5.242931e-02 -1.382762e-01  2.726485e-01
     vertex  5.136523e-02 -1.400968e-01  2.726595e-01
     vertex  5.112154e-02 -1.400892e-01  2.729720e-01
   endloop
 endfacet
 facet normal  1.693320e-01 -1.049007e-01 -9.799605e-01
   outer loop
     vertex  5.242931e-02 -1.382762e-01  2.726485e-01
     vertex  5.349355e-02 -1.366612e-01  2.726595e-01
     vertex  5.136523e-02 -1.400968e-01  2.726595e-01
   endloop
 endfacet
 facet normal -6.862402e-01  4.560794e-01 -5.666268e-01
   outer loop
     vertex  5.242931e-02 -1.382762e-01  2.726485e-01
     vertex  5.337824e-02 -1.364466e-01  2.729719e-01
     vertex  5.349355e-02 -1.366612e-01  2.726595e-01
   endloop
 endfacet
 facet normal  1.743883e-01  9.359180e-02 -9.802190e-01
   outer loop
     vertex  5.231435e-02 -1.419800e-01  2.726486e-01
     vertex  5.136523e-02 -1.400968e-01  2.726595e-01
     vertex  5.327641e-02 -1.436578e-01  2.726595e-01
   endloop
 endfacet
 facet normal -7.373874e-01 -3.683475e-01 -5.661978e-01
   outer loop
     vertex  5.231435e-02 -1.419800e-01  2.726486e-01
     vertex  5.112154e-02 -1.400892e-01  2.729720e-01
     vertex  5.136523e-02 -1.400968e-01  2.726595e-01
   endloop
 endfacet
 facet normal -7.927685e-01 -4.254782e-01 -4.364475e-01
   outer loop
     vertex  5.231435e-02 -1.419800e-01  2.726486e-01
     vertex  5.314802e-02 -1.438651e-01  2.729720e-01
     vertex  5.112154e-02 -1.400892e-01  2.729720e-01
   endloop
 endfacet
 facet normal -7.131158e-01 -4.126085e-01 -5.667628e-01
   outer loop
     vertex  5.231435e-02 -1.419800e-01  2.726486e-01
     vertex  5.327641e-02 -1.436578e-01  2.726595e-01
     vertex  5.314802e-02 -1.438651e-01  2.729720e-01
   endloop
 endfacet
 facet normal -8.811187e-01 -4.728952e-01  1.973289e-06
   outer loop
     vertex  5.232082e-02 -1.418773e-01  2.702722e-01
     vertex  5.327641e-02 -1.436578e-01  2.706722e-01
     vertex  5.327641e-02 -1.436578e-01  2.726595e-01
   endloop
 endfacet
 facet normal -8.811182e-01 -4.728962e-01  1.057620e-06
   outer loop
     vertex  5.232082e-02 -1.418773e-01  2.702722e-01
     vertex  5.327641e-02 -1.436578e-01  2.726595e-01
     vertex  5.136523e-02 -1.400968e-01  2.726595e-01
   endloop
 endfacet
 facet normal -8.811184e-01 -4.728956e-01  5.677556e-07
   outer loop
     vertex  5.136523e-02 -1.400968e-01  2.706722e-01
     vertex  5.232082e-02 -1.418773e-01  2.702722e-01
     vertex  5.136523e-02 -1.400968e-01  2.726595e-01
   endloop
 endfacet
 facet normal -5.578886e-01  1.731387e-02 -8.297352e-01
   outer loop
     vertex  5.136523e-02 -1.400968e-01  2.706722e-01
     vertex  5.197842e-02 -1.395078e-01  2.702722e-01
     vertex  5.194071e-02 -1.407227e-01  2.702722e-01
   endloop
 endfacet
 facet normal -6.980911e-01  2.788998e-01 -6.594571e-01
   outer loop
     vertex  5.136523e-02 -1.400968e-01  2.706722e-01
     vertex  5.242939e-02 -1.383790e-01  2.702722e-01
     vertex  5.197842e-02 -1.395078e-01  2.702722e-01
   endloop
 endfacet
 facet normal -7.140421e-01 -2.350747e-01 -6.594571e-01
   outer loop
     vertex  5.232082e-02 -1.418773e-01  2.702722e-01
     vertex  5.136523e-02 -1.400968e-01  2.706722e-01
     vertex  5.194071e-02 -1.407227e-01  2.702722e-01
   endloop
 endfacet
 facet normal -3.102010e-02 -9.995188e-01  2.073808e-06
   outer loop
     vertex  5.529616e-02 -1.437205e-01  2.702722e-01
     vertex  5.731592e-02 -1.437832e-01  2.706722e-01
     vertex  5.731592e-02 -1.437832e-01  2.726595e-01
   endloop
 endfacet
 facet normal -3.101868e-02 -9.995188e-01  8.631453e-07
   outer loop
     vertex  5.529616e-02 -1.437205e-01  2.702722e-01
     vertex  5.731592e-02 -1.437832e-01  2.726595e-01
     vertex  5.327641e-02 -1.436578e-01  2.726595e-01
   endloop
 endfacet
 facet normal -3.101969e-02 -9.995188e-01 -1.350547e-11
   outer loop
     vertex  5.327641e-02 -1.436578e-01  2.706722e-01
     vertex  5.529616e-02 -1.437205e-01  2.702722e-01
     vertex  5.327641e-02 -1.436578e-01  2.726595e-01
   endloop
 endfacet
 facet normal  8.500987e-01 -5.266233e-01  5.677628e-07
   outer loop
     vertex  5.838008e-02 -1.420654e-01  2.702722e-01
     vertex  5.944424e-02 -1.403475e-01  2.706722e-01
     vertex  5.944424e-02 -1.403475e-01  2.726595e-01
   endloop
 endfacet
 facet normal  8.500989e-01 -5.266230e-01  2.362791e-07
   outer loop
     vertex  5.838008e-02 -1.420654e-01  2.702722e-01
     vertex  5.944424e-02 -1.403475e-01  2.726595e-01
     vertex  5.731592e-02 -1.437832e-01  2.726595e-01
   endloop
 endfacet
 facet normal  8.500988e-01 -5.266232e-01 -1.241222e-11
   outer loop
     vertex  5.731592e-02 -1.437832e-01  2.706722e-01
     vertex  5.838008e-02 -1.420654e-01  2.702722e-01
     vertex  5.731592e-02 -1.437832e-01  2.726595e-01
   endloop
 endfacet
 facet normal  2.639501e-01 -4.918026e-01 -8.297352e-01
   outer loop
     vertex  5.731592e-02 -1.437832e-01  2.706722e-01
     vertex  5.649921e-02 -1.435466e-01  2.702722e-01
     vertex  5.757024e-02 -1.429718e-01  2.702722e-01
   endloop
 endfacet
 facet normal  1.075113e-01 -7.440145e-01 -6.594571e-01
   outer loop
     vertex  5.731592e-02 -1.437832e-01  2.706722e-01
     vertex  5.529616e-02 -1.437205e-01  2.702722e-01
     vertex  5.649921e-02 -1.435466e-01  2.702722e-01
   endloop
 endfacet
 facet normal  5.606017e-01 -5.008413e-01 -6.594571e-01
   outer loop
     vertex  5.838008e-02 -1.420654e-01  2.702722e-01
     vertex  5.731592e-02 -1.437832e-01  2.706722e-01
     vertex  5.757024e-02 -1.429718e-01  2.702722e-01
   endloop
 endfacet
 facet normal  8.811186e-01  4.728953e-01  1.115271e-06
   outer loop
     vertex  5.848865e-02 -1.385670e-01  2.702722e-01
     vertex  5.753305e-02 -1.367865e-01  2.706722e-01
     vertex  5.753305e-02 -1.367865e-01  2.726595e-01
   endloop
 endfacet
 facet normal  8.811184e-01  4.728958e-01  7.004827e-07
   outer loop
     vertex  5.848865e-02 -1.385670e-01  2.702722e-01
     vertex  5.753305e-02 -1.367865e-01  2.726595e-01
     vertex  5.944424e-02 -1.403475e-01  2.726595e-01
   endloop
 endfacet
 facet normal  8.811184e-01  4.728956e-01  5.677619e-07
   outer loop
     vertex  5.944424e-02 -1.403475e-01  2.706722e-01
     vertex  5.848865e-02 -1.385670e-01  2.702722e-01
     vertex  5.944424e-02 -1.403475e-01  2.726595e-01
   endloop
 endfacet
 facet normal  5.578886e-01 -1.731387e-02 -8.297352e-01
   outer loop
     vertex  5.944424e-02 -1.403475e-01  2.706722e-01
     vertex  5.883105e-02 -1.409366e-01  2.702722e-01
     vertex  5.886875e-02 -1.397216e-01  2.702722e-01
   endloop
 endfacet
 facet normal  6.980911e-01 -2.788998e-01 -6.594571e-01
   outer loop
     vertex  5.944424e-02 -1.403475e-01  2.706722e-01
     vertex  5.838008e-02 -1.420654e-01  2.702722e-01
     vertex  5.883105e-02 -1.409366e-01  2.702722e-01
   endloop
 endfacet
 facet normal  7.140421e-01  2.350747e-01 -6.594571e-01
   outer loop
     vertex  5.848865e-02 -1.385670e-01  2.702722e-01
     vertex  5.944424e-02 -1.403475e-01  2.706722e-01
     vertex  5.886875e-02 -1.397216e-01  2.702722e-01
   endloop
 endfacet
 facet normal -2.939386e-01 -4.744888e-01 -8.297352e-01
   outer loop
     vertex  5.327641e-02 -1.436578e-01  2.706722e-01
     vertex  5.307289e-02 -1.428323e-01  2.702722e-01
     vertex  5.410622e-02 -1.434724e-01  2.702722e-01
   endloop
 endfacet
 facet normal -5.905798e-01 -4.651148e-01 -6.594571e-01
   outer loop
     vertex  5.327641e-02 -1.436578e-01  2.706722e-01
     vertex  5.232082e-02 -1.418773e-01  2.702722e-01
     vertex  5.307289e-02 -1.428323e-01  2.702722e-01
   endloop
 endfacet
 facet normal -1.534404e-01 -7.359160e-01 -6.594571e-01
   outer loop
     vertex  5.529616e-02 -1.437205e-01  2.702722e-01
     vertex  5.327641e-02 -1.436578e-01  2.706722e-01
     vertex  5.410622e-02 -1.434724e-01  2.702722e-01
   endloop
 endfacet
 facet normal -5.127370e-01 -4.818698e-01 -7.105648e-01
   outer loop
     vertex  5.740377e-02 -1.402842e-01  2.702722e-01
     vertex  5.545436e-02 -1.386229e-01  2.705523e-01
     vertex  5.546677e-02 -1.382231e-01  2.702722e-01
   endloop
 endfacet
 facet normal -5.127370e-01 -4.818698e-01 -7.105648e-01
   outer loop
     vertex  5.740377e-02 -1.402842e-01  2.702722e-01
     vertex  5.700396e-02 -1.402718e-01  2.705523e-01
     vertex  5.545436e-02 -1.386229e-01  2.705523e-01
   endloop
 endfacet
 facet normal -4.818698e-01  5.127370e-01 -7.105648e-01
   outer loop
     vertex  5.534269e-02 -1.422212e-01  2.702722e-01
     vertex  5.535510e-02 -1.418214e-01  2.705523e-01
     vertex  5.700396e-02 -1.402718e-01  2.705523e-01
   endloop
 endfacet
 facet normal -4.818698e-01  5.127370e-01 -7.105648e-01
   outer loop
     vertex  5.534269e-02 -1.422212e-01  2.702722e-01
     vertex  5.700396e-02 -1.402718e-01  2.705523e-01
     vertex  5.740377e-02 -1.402842e-01  2.702722e-01
   endloop
 endfacet
 facet normal  5.127370e-01  4.818698e-01 -7.105648e-01
   outer loop
     vertex  5.340569e-02 -1.401601e-01  2.702722e-01
     vertex  5.380550e-02 -1.401725e-01  2.705523e-01
     vertex  5.535510e-02 -1.418214e-01  2.705523e-01
   endloop
 endfacet
 facet normal  5.127370e-01  4.818698e-01 -7.105648e-01
   outer loop
     vertex  5.340569e-02 -1.401601e-01  2.702722e-01
     vertex  5.535510e-02 -1.418214e-01  2.705523e-01
     vertex  5.534269e-02 -1.422212e-01  2.702722e-01
   endloop
 endfacet
 facet normal  4.818698e-01 -5.127370e-01 -7.105648e-01
   outer loop
     vertex  5.546677e-02 -1.382231e-01  2.702722e-01
     vertex  5.545436e-02 -1.386229e-01  2.705523e-01
     vertex  5.380550e-02 -1.401725e-01  2.705523e-01
   endloop
 endfacet
 facet normal  4.818698e-01 -5.127370e-01 -7.105648e-01
   outer loop
     vertex  5.546677e-02 -1.382231e-01  2.702722e-01
     vertex  5.380550e-02 -1.401725e-01  2.705523e-01
     vertex  5.340569e-02 -1.401601e-01  2.702722e-01
   endloop
 endfacet
 facet normal -2.886572e-01 -9.574325e-01  0.000000e+00
   outer loop
     vertex  5.545436e-02 -1.386229e-01  2.705523e-01
     vertex  5.624733e-02 -1.388620e-01  2.737668e-01
     vertex  5.545436e-02 -1.386229e-01  2.737668e-01
   endloop
 endfacet
 facet normal -7.227279e-01 -6.792190e-01  1.277725e-01
   outer loop
     vertex  5.700396e-02 -1.402718e-01  2.705523e-01
     vertex  5.681452e-02 -1.394655e-01  2.737668e-01
     vertex  5.624733e-02 -1.388620e-01  2.737668e-01
   endloop
 endfacet
 facet normal -9.734895e-01 -2.287318e-01  4.562651e-12
   outer loop
     vertex  5.700396e-02 -1.402718e-01  2.705523e-01
     vertex  5.700396e-02 -1.402718e-01  2.737668e-01
     vertex  5.681452e-02 -1.394655e-01  2.737668e-01
   endloop
 endfacet
 facet normal -7.227279e-01 -6.792190e-01  1.277725e-01
   outer loop
     vertex  5.700396e-02 -1.402718e-01  2.705523e-01
     vertex  5.624733e-02 -1.388620e-01  2.737668e-01
     vertex  5.545436e-02 -1.386229e-01  2.705523e-01
   endloop
 endfacet
 facet normal -6.848323e-01  7.287007e-01  6.443100e-12
   outer loop
     vertex  5.535510e-02 -1.418214e-01  2.705523e-01
     vertex  5.535510e-02 -1.418214e-01  2.737668e-01
     vertex  5.700396e-02 -1.402718e-01  2.737668e-01
   endloop
 endfacet
 facet normal -6.848323e-01  7.287007e-01  1.894141e-11
   outer loop
     vertex  5.535510e-02 -1.418214e-01  2.705523e-01
     vertex  5.700396e-02 -1.402718e-01  2.737668e-01
     vertex  5.700396e-02 -1.402718e-01  2.705523e-01
   endloop
 endfacet
 facet normal  7.287007e-01  6.848323e-01  6.443100e-12
   outer loop
     vertex  5.380550e-02 -1.401725e-01  2.705523e-01
     vertex  5.380550e-02 -1.401725e-01  2.737668e-01
     vertex  5.535510e-02 -1.418214e-01  2.737668e-01
   endloop
 endfacet
 facet normal  7.287007e-01  6.848323e-01  6.055231e-12
   outer loop
     vertex  5.380550e-02 -1.401725e-01  2.705523e-01
     vertex  5.535510e-02 -1.418214e-01  2.737668e-01
     vertex  5.535510e-02 -1.418214e-01  2.705523e-01
   endloop
 endfacet
 facet normal  6.848323e-01 -7.287007e-01  0.000000e+00
   outer loop
     vertex  5.545436e-02 -1.386229e-01  2.705523e-01
     vertex  5.545436e-02 -1.386229e-01  2.737668e-01
     vertex  5.380550e-02 -1.401725e-01  2.737668e-01
   endloop
 endfacet
 facet normal  6.848323e-01 -7.287007e-01  6.055231e-12
   outer loop
     vertex  5.545436e-02 -1.386229e-01  2.705523e-01
     vertex  5.380550e-02 -1.401725e-01  2.737668e-01
     vertex  5.380550e-02 -1.401725e-01  2.705523e-01
   endloop
 endfacet
 facet normal -5.713593e-01 -1.342470e-01  8.096458e-01
   outer loop
     vertex  5.716697e-02 -1.392764e-01  2.740468e-01
     vertex  5.700396e-02 -1.402718e-01  2.737668e-01
     vertex  5.740377e-02 -1.402842e-01  2.740468e-01
   endloop
 endfacet
 facet normal -5.713593e-01 -1.342470e-01  8.096458e-01
   outer loop
     vertex  5.716697e-02 -1.392764e-01  2.740468e-01
     vertex  5.681452e-02 -1.394655e-01  2.737668e-01
     vertex  5.700396e-02 -1.402718e-01  2.737668e-01
   endloop
 endfacet
 facet normal -4.276882e-01 -4.019410e-01  8.096458e-01
   outer loop
     vertex  5.645798e-02 -1.385220e-01  2.740468e-01
     vertex  5.624733e-02 -1.388620e-01  2.737668e-01
     vertex  5.681452e-02 -1.394655e-01  2.737668e-01
   endloop
 endfacet
 facet normal -4.276882e-01 -4.019410e-01  8.096458e-01
   outer loop
     vertex  5.645798e-02 -1.385220e-01  2.740468e-01
     vertex  5.681452e-02 -1.394655e-01  2.737668e-01
     vertex  5.716697e-02 -1.392764e-01  2.740468e-01
   endloop
 endfacet
 facet normal -1.694184e-01 -5.619352e-01  8.096458e-01
   outer loop
     vertex  5.546677e-02 -1.382231e-01  2.740468e-01
     vertex  5.545436e-02 -1.386229e-01  2.737668e-01
     vertex  5.624733e-02 -1.388620e-01  2.737668e-01
   endloop
 endfacet
 facet normal -1.694184e-01 -5.619352e-01  8.096458e-01
   outer loop
     vertex  5.546677e-02 -1.382231e-01  2.740468e-01
     vertex  5.624733e-02 -1.388620e-01  2.737668e-01
     vertex  5.645798e-02 -1.385220e-01  2.740468e-01
   endloop
 endfacet
 facet normal  4.818698e-01 -5.127370e-01  7.105648e-01
   outer loop
     vertex  5.340569e-02 -1.401601e-01  2.740468e-01
     vertex  5.380550e-02 -1.401725e-01  2.737668e-01
     vertex  5.545436e-02 -1.386229e-01  2.737668e-01
   endloop
 endfacet
 facet normal  4.818698e-01 -5.127370e-01  7.105648e-01
   outer loop
     vertex  5.340569e-02 -1.401601e-01  2.740468e-01
     vertex  5.545436e-02 -1.386229e-01  2.737668e-01
     vertex  5.546677e-02 -1.382231e-01  2.740468e-01
   endloop
 endfacet
 facet normal  5.127370e-01  4.818698e-01  7.105648e-01
   outer loop
     vertex  5.534269e-02 -1.422212e-01  2.740468e-01
     vertex  5.535510e-02 -1.418214e-01  2.737668e-01
     vertex  5.380550e-02 -1.401725e-01  2.737668e-01
   endloop
 endfacet
 facet normal  5.127370e-01  4.818698e-01  7.105648e-01
   outer loop
     vertex  5.534269e-02 -1.422212e-01  2.740468e-01
     vertex  5.380550e-02 -1.401725e-01  2.737668e-01
     vertex  5.340569e-02 -1.401601e-01  2.740468e-01
   endloop
 endfacet
 facet normal -4.818698e-01  5.127370e-01  7.105648e-01
   outer loop
     vertex  5.740377e-02 -1.402842e-01  2.740468e-01
     vertex  5.700396e-02 -1.402718e-01  2.737668e-01
     vertex  5.535510e-02 -1.418214e-01  2.737668e-01
   endloop
 endfacet
 facet normal -4.818698e-01  5.127370e-01  7.105648e-01
   outer loop
     vertex  5.740377e-02 -1.402842e-01  2.740468e-01
     vertex  5.535510e-02 -1.418214e-01  2.737668e-01
     vertex  5.534269e-02 -1.422212e-01  2.740468e-01
   endloop
 endfacet
 facet normal -2.886572e-01 -9.574325e-01  0.000000e+00
   outer loop
     vertex  5.645798e-02 -1.385220e-01  2.740468e-01
     vertex  5.546677e-02 -1.382231e-01  2.740722e-01
     vertex  5.546677e-02 -1.382231e-01  2.740468e-01
   endloop
 endfacet
 facet normal -3.571367e-02 -3.356367e-02 -9.987983e-01
   outer loop
     vertex  5.716697e-02 -1.392764e-01  2.740468e-01
     vertex  5.740377e-02 -1.402842e-01  2.740722e-01
     vertex  5.546677e-02 -1.382231e-01  2.740722e-01
   endloop
 endfacet
 facet normal -3.571367e-02 -3.356367e-02 -9.987983e-01
   outer loop
     vertex  5.716697e-02 -1.392764e-01  2.740468e-01
     vertex  5.546677e-02 -1.382231e-01  2.740722e-01
     vertex  5.645798e-02 -1.385220e-01  2.740468e-01
   endloop
 endfacet
 facet normal -9.734895e-01 -2.287318e-01 -2.887075e-10
   outer loop
     vertex  5.740377e-02 -1.402842e-01  2.740468e-01
     vertex  5.740377e-02 -1.402842e-01  2.740722e-01
     vertex  5.716697e-02 -1.392764e-01  2.740468e-01
   endloop
 endfacet
 facet normal -6.848323e-01  7.287007e-01  0.000000e+00
   outer loop
     vertex  5.534269e-02 -1.422212e-01  2.740468e-01
     vertex  5.534269e-02 -1.422212e-01  2.740722e-01
     vertex  5.740377e-02 -1.402842e-01  2.740722e-01
   endloop
 endfacet
 facet normal -6.848323e-01  7.287007e-01 -1.198546e-09
   outer loop
     vertex  5.534269e-02 -1.422212e-01  2.740468e-01
     vertex  5.740377e-02 -1.402842e-01  2.740722e-01
     vertex  5.740377e-02 -1.402842e-01  2.740468e-01
   endloop
 endfacet
 facet normal  7.287007e-01  6.848323e-01 -0.000000e+00
   outer loop
     vertex  5.340569e-02 -1.401601e-01  2.740468e-01
     vertex  5.340569e-02 -1.401601e-01  2.740722e-01
     vertex  5.534269e-02 -1.422212e-01  2.740722e-01
   endloop
 endfacet
 facet normal  7.287007e-01  6.848323e-01  0.000000e+00
   outer loop
     vertex  5.340569e-02 -1.401601e-01  2.740468e-01
     vertex  5.534269e-02 -1.422212e-01  2.740722e-01
     vertex  5.534269e-02 -1.422212e-01  2.740468e-01
   endloop
 endfacet
 facet normal  6.848323e-01 -7.287007e-01  0.000000e+00
   outer loop
     vertex  5.546677e-02 -1.382231e-01  2.740468e-01
     vertex  5.546677e-02 -1.382231e-01  2.740722e-01
     vertex  5.340569e-02 -1.401601e-01  2.740722e-01
   endloop
 endfacet
 facet normal  6.848323e-01 -7.287007e-01  0.000000e+00
   outer loop
     vertex  5.546677e-02 -1.382231e-01  2.740468e-01
     vertex  5.340569e-02 -1.401601e-01  2.740722e-01
     vertex  5.340569e-02 -1.401601e-01  2.740468e-01
   endloop
 endfacet
endsolid
