solid 
 facet normal -3.871928e-01  6.706376e-01  6.327139e-01
   outer loop
     vertex  5.117996e-02 -1.697830e-01  7.203356e-01
     vertex  5.145498e-02 -1.699418e-01  7.206722e-01
     vertex  5.540473e-02 -1.676614e-01  7.206722e-01
   endloop
 endfacet
 facet normal -3.871928e-01  6.706376e-01  6.327139e-01
   outer loop
     vertex  5.117996e-02 -1.697830e-01  7.203356e-01
     vertex  5.540473e-02 -1.676614e-01  7.206722e-01
     vertex  5.540473e-02 -1.673438e-01  7.203356e-01
   endloop
 endfacet
 facet normal -4.942704e-01  8.561015e-01 -1.509538e-01
   outer loop
     vertex  5.117996e-02 -1.697830e-01  7.203356e-01
     vertex  5.540473e-02 -1.673438e-01  7.203356e-01
     vertex  5.540473e-02 -1.674242e-01  7.198799e-01
   endloop
 endfacet
 facet normal -3.278020e-01  4.240014e-01 -8.442563e-01
   outer loop
     vertex  5.117996e-02 -1.697830e-01  7.203356e-01
     vertex  5.540473e-02 -1.674242e-01  7.198799e-01
     vertex  5.540473e-02 -1.678377e-01  7.196722e-01
   endloop
 endfacet
 facet normal -4.991945e-02  0.000000e+00 -9.987532e-01
   outer loop
     vertex  5.124955e-02 -1.746212e-01  7.198799e-01
     vertex  5.540473e-02 -1.678377e-01  7.196722e-01
     vertex  5.540473e-02 -1.766066e-01  7.196722e-01
   endloop
 endfacet
 facet normal -1.944702e-01  8.921487e-02 -9.768429e-01
   outer loop
     vertex  5.124955e-02 -1.746212e-01  7.198799e-01
     vertex  5.117996e-02 -1.697830e-01  7.203356e-01
     vertex  5.540473e-02 -1.678377e-01  7.196722e-01
   endloop
 endfacet
 facet normal -7.743856e-01  0.000000e+00  6.327139e-01
   outer loop
     vertex  5.117996e-02 -1.746613e-01  7.203356e-01
     vertex  5.145498e-02 -1.745026e-01  7.206722e-01
     vertex  5.145498e-02 -1.699418e-01  7.206722e-01
   endloop
 endfacet
 facet normal -9.885408e-01  0.000000e+00 -1.509538e-01
   outer loop
     vertex  5.117996e-02 -1.746613e-01  7.203356e-01
     vertex  5.117996e-02 -1.697830e-01  7.203356e-01
     vertex  5.124955e-02 -1.746212e-01  7.198799e-01
   endloop
 endfacet
 facet normal -7.743856e-01  0.000000e+00  6.327139e-01
   outer loop
     vertex  5.117996e-02 -1.746613e-01  7.203356e-01
     vertex  5.145498e-02 -1.699418e-01  7.206722e-01
     vertex  5.117996e-02 -1.697830e-01  7.203356e-01
   endloop
 endfacet
 facet normal -2.508307e-01 -4.344515e-01 -8.650641e-01
   outer loop
     vertex  5.540473e-02 -1.770202e-01  7.198799e-01
     vertex  5.124955e-02 -1.746212e-01  7.198799e-01
     vertex  5.540473e-02 -1.766066e-01  7.196722e-01
   endloop
 endfacet
 facet normal -3.871928e-01 -6.706376e-01  6.327139e-01
   outer loop
     vertex  5.540473e-02 -1.771005e-01  7.203356e-01
     vertex  5.540473e-02 -1.767830e-01  7.206722e-01
     vertex  5.145498e-02 -1.745026e-01  7.206722e-01
   endloop
 endfacet
 facet normal -3.871928e-01 -6.706376e-01  6.327139e-01
   outer loop
     vertex  5.540473e-02 -1.771005e-01  7.203356e-01
     vertex  5.145498e-02 -1.745026e-01  7.206722e-01
     vertex  5.117996e-02 -1.746613e-01  7.203356e-01
   endloop
 endfacet
 facet normal -4.942704e-01 -8.561015e-01 -1.509538e-01
   outer loop
     vertex  5.540473e-02 -1.771005e-01  7.203356e-01
     vertex  5.124955e-02 -1.746212e-01  7.198799e-01
     vertex  5.540473e-02 -1.770202e-01  7.198799e-01
   endloop
 endfacet
 facet normal -4.942704e-01 -8.561015e-01 -1.509538e-01
   outer loop
     vertex  5.540473e-02 -1.771005e-01  7.203356e-01
     vertex  5.117996e-02 -1.746613e-01  7.203356e-01
     vertex  5.124955e-02 -1.746212e-01  7.198799e-01
   endloop
 endfacet
 facet normal  3.871928e-01 -6.706376e-01  6.327139e-01
   outer loop
     vertex  5.962950e-02 -1.746613e-01  7.203356e-01
     vertex  5.935448e-02 -1.745026e-01  7.206722e-01
     vertex  5.540473e-02 -1.767830e-01  7.206722e-01
   endloop
 endfacet
 facet normal  3.871928e-01 -6.706376e-01  6.327139e-01
   outer loop
     vertex  5.962950e-02 -1.746613e-01  7.203356e-01
     vertex  5.540473e-02 -1.767830e-01  7.206722e-01
     vertex  5.540473e-02 -1.771005e-01  7.203356e-01
   endloop
 endfacet
 facet normal  3.278020e-01 -4.240014e-01 -8.442563e-01
   outer loop
     vertex  5.962950e-02 -1.746613e-01  7.203356e-01
     vertex  5.540473e-02 -1.770202e-01  7.198799e-01
     vertex  5.540473e-02 -1.766066e-01  7.196722e-01
   endloop
 endfacet
 facet normal  4.942704e-01 -8.561015e-01 -1.509538e-01
   outer loop
     vertex  5.962950e-02 -1.746613e-01  7.203356e-01
     vertex  5.540473e-02 -1.771005e-01  7.203356e-01
     vertex  5.540473e-02 -1.770202e-01  7.198799e-01
   endloop
 endfacet
 facet normal  4.991945e-02  0.000000e+00 -9.987532e-01
   outer loop
     vertex  5.955991e-02 -1.698232e-01  7.198799e-01
     vertex  5.540473e-02 -1.766066e-01  7.196722e-01
     vertex  5.540473e-02 -1.678377e-01  7.196722e-01
   endloop
 endfacet
 facet normal  2.508307e-01  4.344515e-01 -8.650641e-01
   outer loop
     vertex  5.955991e-02 -1.698232e-01  7.198799e-01
     vertex  5.540473e-02 -1.678377e-01  7.196722e-01
     vertex  5.540473e-02 -1.674242e-01  7.198799e-01
   endloop
 endfacet
 facet normal  1.944702e-01 -8.921487e-02 -9.768429e-01
   outer loop
     vertex  5.955991e-02 -1.698232e-01  7.198799e-01
     vertex  5.962950e-02 -1.746613e-01  7.203356e-01
     vertex  5.540473e-02 -1.766066e-01  7.196722e-01
   endloop
 endfacet
 facet normal  7.743856e-01  0.000000e+00  6.327139e-01
   outer loop
     vertex  5.962950e-02 -1.697830e-01  7.203356e-01
     vertex  5.935448e-02 -1.699418e-01  7.206722e-01
     vertex  5.935448e-02 -1.745026e-01  7.206722e-01
   endloop
 endfacet
 facet normal  3.871928e-01  6.706376e-01  6.327139e-01
   outer loop
     vertex  5.962950e-02 -1.697830e-01  7.203356e-01
     vertex  5.540473e-02 -1.676614e-01  7.206722e-01
     vertex  5.935448e-02 -1.699418e-01  7.206722e-01
   endloop
 endfacet
 facet normal  3.871928e-01  6.706376e-01  6.327139e-01
   outer loop
     vertex  5.962950e-02 -1.697830e-01  7.203356e-01
     vertex  5.540473e-02 -1.673438e-01  7.203356e-01
     vertex  5.540473e-02 -1.676614e-01  7.206722e-01
   endloop
 endfacet
 facet normal  4.942704e-01  8.561015e-01 -1.509538e-01
   outer loop
     vertex  5.962950e-02 -1.697830e-01  7.203356e-01
     vertex  5.540473e-02 -1.674242e-01  7.198799e-01
     vertex  5.540473e-02 -1.673438e-01  7.203356e-01
   endloop
 endfacet
 facet normal  4.942704e-01  8.561015e-01 -1.509538e-01
   outer loop
     vertex  5.962950e-02 -1.697830e-01  7.203356e-01
     vertex  5.955991e-02 -1.698232e-01  7.198799e-01
     vertex  5.540473e-02 -1.674242e-01  7.198799e-01
   endloop
 endfacet
 facet normal  7.743856e-01  0.000000e+00  6.327139e-01
   outer loop
     vertex  5.962950e-02 -1.697830e-01  7.203356e-01
     vertex  5.935448e-02 -1.745026e-01  7.206722e-01
     vertex  5.962950e-02 -1.746613e-01  7.203356e-01
   endloop
 endfacet
 facet normal  9.885408e-01  0.000000e+00 -1.509538e-01
   outer loop
     vertex  5.962950e-02 -1.697830e-01  7.203356e-01
     vertex  5.962950e-02 -1.746613e-01  7.203356e-01
     vertex  5.955991e-02 -1.698232e-01  7.198799e-01
   endloop
 endfacet
 facet normal -9.126640e-02 -3.405926e-01  9.357709e-01
   outer loop
     vertex  5.326210e-02 -1.759331e-01  7.207726e-01
     vertex  5.540473e-02 -1.767830e-01  7.206722e-01
     vertex  5.540473e-02 -1.759196e-01  7.209865e-01
   endloop
 endfacet
 facet normal -1.433495e-01 -2.482887e-01 -9.580207e-01
   outer loop
     vertex  5.145498e-02 -1.745026e-01  7.206722e-01
     vertex  5.540473e-02 -1.767830e-01  7.206722e-01
     vertex  5.326210e-02 -1.759331e-01  7.207726e-01
   endloop
 endfacet
 facet normal -1.015455e-01 -5.861270e-02  9.931028e-01
   outer loop
     vertex  5.111948e-02 -1.722222e-01  7.207725e-01
     vertex  5.145498e-02 -1.745026e-01  7.206722e-01
     vertex  5.326210e-02 -1.759331e-01  7.207726e-01
   endloop
 endfacet
 facet normal -2.863829e-01 -0.000000e+00 -9.581153e-01
   outer loop
     vertex  5.145498e-02 -1.699418e-01  7.206722e-01
     vertex  5.145498e-02 -1.745026e-01  7.206722e-01
     vertex  5.111948e-02 -1.722222e-01  7.207725e-01
   endloop
 endfacet
 facet normal -1.015119e-01  5.860792e-02  9.931065e-01
   outer loop
     vertex  5.326210e-02 -1.685110e-01  7.207725e-01
     vertex  5.145498e-02 -1.699418e-01  7.206722e-01
     vertex  5.111948e-02 -1.722222e-01  7.207725e-01
   endloop
 endfacet
 facet normal -9.126173e-02  3.405927e-01  9.357713e-01
   outer loop
     vertex  5.540473e-02 -1.676614e-01  7.206722e-01
     vertex  5.326210e-02 -1.685110e-01  7.207725e-01
     vertex  5.540473e-02 -1.685248e-01  7.209865e-01
   endloop
 endfacet
 facet normal -1.431914e-01  2.480147e-01 -9.581153e-01
   outer loop
     vertex  5.540473e-02 -1.676614e-01  7.206722e-01
     vertex  5.145498e-02 -1.699418e-01  7.206722e-01
     vertex  5.326210e-02 -1.685110e-01  7.207725e-01
   endloop
 endfacet
 facet normal  9.126640e-02  3.405926e-01  9.357709e-01
   outer loop
     vertex  5.754737e-02 -1.685112e-01  7.207726e-01
     vertex  5.540473e-02 -1.676614e-01  7.206722e-01
     vertex  5.540473e-02 -1.685248e-01  7.209865e-01
   endloop
 endfacet
 facet normal  1.433496e-01  2.482888e-01 -9.580207e-01
   outer loop
     vertex  5.935448e-02 -1.699418e-01  7.206722e-01
     vertex  5.540473e-02 -1.676614e-01  7.206722e-01
     vertex  5.754737e-02 -1.685112e-01  7.207726e-01
   endloop
 endfacet
 facet normal  1.015455e-01  5.861270e-02  9.931027e-01
   outer loop
     vertex  5.968999e-02 -1.722222e-01  7.207725e-01
     vertex  5.935448e-02 -1.699418e-01  7.206722e-01
     vertex  5.754737e-02 -1.685112e-01  7.207726e-01
   endloop
 endfacet
 facet normal  2.863829e-01  0.000000e+00 -9.581153e-01
   outer loop
     vertex  5.935448e-02 -1.745026e-01  7.206722e-01
     vertex  5.935448e-02 -1.699418e-01  7.206722e-01
     vertex  5.968999e-02 -1.722222e-01  7.207725e-01
   endloop
 endfacet
 facet normal  1.015119e-01 -5.860792e-02  9.931065e-01
   outer loop
     vertex  5.754736e-02 -1.759333e-01  7.207725e-01
     vertex  5.935448e-02 -1.745026e-01  7.206722e-01
     vertex  5.968999e-02 -1.722222e-01  7.207725e-01
   endloop
 endfacet
 facet normal  9.126172e-02 -3.405927e-01  9.357713e-01
   outer loop
     vertex  5.540473e-02 -1.767830e-01  7.206722e-01
     vertex  5.754736e-02 -1.759333e-01  7.207725e-01
     vertex  5.540473e-02 -1.759196e-01  7.209865e-01
   endloop
 endfacet
 facet normal  1.431914e-01 -2.480147e-01 -9.581153e-01
   outer loop
     vertex  5.540473e-02 -1.767830e-01  7.206722e-01
     vertex  5.935448e-02 -1.745026e-01  7.206722e-01
     vertex  5.754736e-02 -1.759333e-01  7.207725e-01
   endloop
 endfacet
 facet normal -2.324209e-02 -8.243009e-01  5.656747e-01
   outer loop
     vertex  5.439860e-02 -1.757775e-01  7.210461e-01
     vertex  5.338400e-02 -1.757222e-01  7.210850e-01
     vertex  5.326210e-02 -1.759331e-01  7.207726e-01
   endloop
 endfacet
 facet normal  3.734337e-07 -5.753982e-01  8.178734e-01
   outer loop
     vertex  5.439860e-02 -1.757775e-01  7.210461e-01
     vertex  5.742545e-02 -1.757222e-01  7.210850e-01
     vertex  5.338400e-02 -1.757222e-01  7.210850e-01
   endloop
 endfacet
 facet normal -6.313921e-02 -7.316427e-01  6.787580e-01
   outer loop
     vertex  5.439860e-02 -1.757775e-01  7.210461e-01
     vertex  5.326210e-02 -1.759331e-01  7.207726e-01
     vertex  5.540473e-02 -1.759196e-01  7.209865e-01
   endloop
 endfacet
 facet normal  2.327231e-02 -8.240870e-01  5.659849e-01
   outer loop
     vertex  5.640488e-02 -1.757775e-01  7.210464e-01
     vertex  5.754736e-02 -1.759333e-01  7.207725e-01
     vertex  5.742545e-02 -1.757222e-01  7.210850e-01
   endloop
 endfacet
 facet normal  6.315667e-02 -7.310324e-01  6.794136e-01
   outer loop
     vertex  5.640488e-02 -1.757775e-01  7.210464e-01
     vertex  5.540473e-02 -1.759196e-01  7.209865e-01
     vertex  5.754736e-02 -1.759333e-01  7.207725e-01
   endloop
 endfacet
 facet normal -1.421981e-04 -5.701672e-01  8.215286e-01
   outer loop
     vertex  5.640488e-02 -1.757775e-01  7.210464e-01
     vertex  5.742545e-02 -1.757222e-01  7.210850e-01
     vertex  5.439860e-02 -1.757775e-01  7.210461e-01
   endloop
 endfacet
 facet normal -1.601890e-04 -3.875773e-01  9.218372e-01
   outer loop
     vertex  5.640488e-02 -1.757775e-01  7.210464e-01
     vertex  5.439860e-02 -1.757775e-01  7.210461e-01
     vertex  5.540473e-02 -1.759196e-01  7.209865e-01
   endloop
 endfacet
 facet normal -7.256067e-01 -3.910429e-01  5.661982e-01
   outer loop
     vertex  5.237035e-02 -1.740749e-01  7.210960e-01
     vertex  5.136328e-02 -1.722222e-01  7.210850e-01
     vertex  5.111948e-02 -1.722222e-01  7.207725e-01
   endloop
 endfacet
 facet normal  1.719935e-01  9.929927e-02  9.800806e-01
   outer loop
     vertex  5.237035e-02 -1.740749e-01  7.210960e-01
     vertex  5.338400e-02 -1.757222e-01  7.210850e-01
     vertex  5.136328e-02 -1.722222e-01  7.210850e-01
   endloop
 endfacet
 facet normal -7.000473e-01 -4.345704e-01  5.666413e-01
   outer loop
     vertex  5.237035e-02 -1.740749e-01  7.210960e-01
     vertex  5.326210e-02 -1.759331e-01  7.207726e-01
     vertex  5.338400e-02 -1.757222e-01  7.210850e-01
   endloop
 endfacet
 facet normal -7.792080e-01 -4.498924e-01  4.363849e-01
   outer loop
     vertex  5.237035e-02 -1.740749e-01  7.210960e-01
     vertex  5.111948e-02 -1.722222e-01  7.207725e-01
     vertex  5.326210e-02 -1.759331e-01  7.207726e-01
   endloop
 endfacet
 facet normal  1.713461e-01 -9.892629e-02  9.802317e-01
   outer loop
     vertex  5.237036e-02 -1.703693e-01  7.210959e-01
     vertex  5.136328e-02 -1.722222e-01  7.210850e-01
     vertex  5.338401e-02 -1.687222e-01  7.210850e-01
   endloop
 endfacet
 facet normal -7.256065e-01  3.910438e-01  5.661978e-01
   outer loop
     vertex  5.237036e-02 -1.703693e-01  7.210959e-01
     vertex  5.111948e-02 -1.722222e-01  7.207725e-01
     vertex  5.136328e-02 -1.722222e-01  7.210850e-01
   endloop
 endfacet
 facet normal -7.791887e-01  4.498648e-01  4.364477e-01
   outer loop
     vertex  5.237036e-02 -1.703693e-01  7.210959e-01
     vertex  5.326210e-02 -1.685110e-01  7.207725e-01
     vertex  5.111948e-02 -1.722222e-01  7.207725e-01
   endloop
 endfacet
 facet normal -6.999822e-01  4.345325e-01  5.667508e-01
   outer loop
     vertex  5.237036e-02 -1.703693e-01  7.210959e-01
     vertex  5.338401e-02 -1.687222e-01  7.210850e-01
     vertex  5.326210e-02 -1.685110e-01  7.207725e-01
   endloop
 endfacet
 facet normal -1.853586e-06  5.755308e-01  8.177801e-01
   outer loop
     vertex  5.641087e-02 -1.686669e-01  7.210460e-01
     vertex  5.338401e-02 -1.687222e-01  7.210850e-01
     vertex  5.742546e-02 -1.687222e-01  7.210850e-01
   endloop
 endfacet
 facet normal  6.313936e-02  7.316414e-01  6.787594e-01
   outer loop
     vertex  5.641087e-02 -1.686669e-01  7.210460e-01
     vertex  5.754737e-02 -1.685112e-01  7.207726e-01
     vertex  5.540473e-02 -1.685248e-01  7.209865e-01
   endloop
 endfacet
 facet normal  2.323479e-02  8.243157e-01  5.656535e-01
   outer loop
     vertex  5.641087e-02 -1.686669e-01  7.210460e-01
     vertex  5.742546e-02 -1.687222e-01  7.210850e-01
     vertex  5.754737e-02 -1.685112e-01  7.207726e-01
   endloop
 endfacet
 facet normal -2.327599e-02  8.240913e-01  5.659786e-01
   outer loop
     vertex  5.440455e-02 -1.686669e-01  7.210464e-01
     vertex  5.326210e-02 -1.685110e-01  7.207725e-01
     vertex  5.338401e-02 -1.687222e-01  7.210850e-01
   endloop
 endfacet
 facet normal -6.315356e-02  7.310604e-01  6.793837e-01
   outer loop
     vertex  5.440455e-02 -1.686669e-01  7.210464e-01
     vertex  5.540473e-02 -1.685248e-01  7.209865e-01
     vertex  5.326210e-02 -1.685110e-01  7.207725e-01
   endloop
 endfacet
 facet normal  1.658179e-04  3.876002e-01  9.218276e-01
   outer loop
     vertex  5.440455e-02 -1.686669e-01  7.210464e-01
     vertex  5.641087e-02 -1.686669e-01  7.210460e-01
     vertex  5.540473e-02 -1.685248e-01  7.209865e-01
   endloop
 endfacet
 facet normal  1.470573e-04  5.700679e-01  8.215976e-01
   outer loop
     vertex  5.440455e-02 -1.686669e-01  7.210464e-01
     vertex  5.338401e-02 -1.687222e-01  7.210850e-01
     vertex  5.641087e-02 -1.686669e-01  7.210460e-01
   endloop
 endfacet
 facet normal  6.541095e-08  1.000000e+00 -5.091582e-07
   outer loop
     vertex  5.540473e-02 -1.687222e-01  7.234722e-01
     vertex  5.742546e-02 -1.687222e-01  7.210850e-01
     vertex  5.338401e-02 -1.687222e-01  7.210850e-01
   endloop
 endfacet
 facet normal  1.079584e-07  1.000000e+00 -5.451729e-07
   outer loop
     vertex  5.540473e-02 -1.687222e-01  7.234722e-01
     vertex  5.338401e-02 -1.687222e-01  7.210850e-01
     vertex  5.338401e-02 -1.687222e-01  7.230722e-01
   endloop
 endfacet
 facet normal -1.342906e-07  1.000000e+00 -6.781978e-07
   outer loop
     vertex  5.742546e-02 -1.687222e-01  7.230722e-01
     vertex  5.742546e-02 -1.687222e-01  7.210850e-01
     vertex  5.540473e-02 -1.687222e-01  7.234722e-01
   endloop
 endfacet
 facet normal -2.790786e-01  4.833783e-01  8.297352e-01
   outer loop
     vertex  5.338401e-02 -1.687222e-01  7.230722e-01
     vertex  5.315498e-02 -1.695410e-01  7.234722e-01
     vertex  5.420766e-02 -1.689333e-01  7.234722e-01
   endloop
 endfacet
 facet normal -5.758679e-01  4.832106e-01  6.594571e-01
   outer loop
     vertex  5.338401e-02 -1.687222e-01  7.230722e-01
     vertex  5.237364e-02 -1.704722e-01  7.234722e-01
     vertex  5.315498e-02 -1.695410e-01  7.234722e-01
   endloop
 endfacet
 facet normal -1.305387e-01  7.403215e-01  6.594571e-01
   outer loop
     vertex  5.540473e-02 -1.687222e-01  7.234722e-01
     vertex  5.338401e-02 -1.687222e-01  7.230722e-01
     vertex  5.420766e-02 -1.689333e-01  7.234722e-01
   endloop
 endfacet
 facet normal  0.000000e+00  0.000000e+00  1.000000e+00
   outer loop
     vertex  5.340473e-02 -1.722222e-01  7.234722e-01
     vertex  5.237364e-02 -1.739722e-01  7.234722e-01
     vertex  5.315498e-02 -1.749033e-01  7.234722e-01
   endloop
 endfacet
 facet normal  0.000000e+00  0.000000e+00  1.000000e+00
   outer loop
     vertex  5.340473e-02 -1.722222e-01  7.234722e-01
     vertex  5.195791e-02 -1.716144e-01  7.234722e-01
     vertex  5.195791e-02 -1.728299e-01  7.234722e-01
   endloop
 endfacet
 facet normal  0.000000e+00  0.000000e+00  1.000000e+00
   outer loop
     vertex  5.340473e-02 -1.722222e-01  7.234722e-01
     vertex  5.195791e-02 -1.728299e-01  7.234722e-01
     vertex  5.237364e-02 -1.739722e-01  7.234722e-01
   endloop
 endfacet
 facet normal -8.160684e-11 -7.579123e-11  1.000000e+00
   outer loop
     vertex  5.540473e-02 -1.742222e-01  7.234722e-01
     vertex  5.540473e-02 -1.757222e-01  7.234722e-01
     vertex  5.660180e-02 -1.755111e-01  7.234722e-01
   endloop
 endfacet
 facet normal  0.000000e+00  0.000000e+00  1.000000e+00
   outer loop
     vertex  5.540473e-02 -1.742222e-01  7.234722e-01
     vertex  5.315498e-02 -1.749033e-01  7.234722e-01
     vertex  5.420766e-02 -1.755111e-01  7.234722e-01
   endloop
 endfacet
 facet normal  8.160684e-11 -7.579123e-11  1.000000e+00
   outer loop
     vertex  5.540473e-02 -1.742222e-01  7.234722e-01
     vertex  5.420766e-02 -1.755111e-01  7.234722e-01
     vertex  5.540473e-02 -1.757222e-01  7.234722e-01
   endloop
 endfacet
 facet normal  0.000000e+00  0.000000e+00  1.000000e+00
   outer loop
     vertex  5.540473e-02 -1.742222e-01  7.234722e-01
     vertex  5.340473e-02 -1.722222e-01  7.234722e-01
     vertex  5.315498e-02 -1.749033e-01  7.234722e-01
   endloop
 endfacet
 facet normal  0.000000e+00  0.000000e+00  1.000000e+00
   outer loop
     vertex  5.237364e-02 -1.704722e-01  7.234722e-01
     vertex  5.195791e-02 -1.716144e-01  7.234722e-01
     vertex  5.340473e-02 -1.722222e-01  7.234722e-01
   endloop
 endfacet
 facet normal  0.000000e+00  0.000000e+00  1.000000e+00
   outer loop
     vertex  5.765449e-02 -1.749033e-01  7.234722e-01
     vertex  5.540473e-02 -1.742222e-01  7.234722e-01
     vertex  5.660180e-02 -1.755111e-01  7.234722e-01
   endloop
 endfacet
 facet normal  0.000000e+00  0.000000e+00  1.000000e+00
   outer loop
     vertex  5.315498e-02 -1.695410e-01  7.234722e-01
     vertex  5.237364e-02 -1.704722e-01  7.234722e-01
     vertex  5.340473e-02 -1.722222e-01  7.234722e-01
   endloop
 endfacet
 facet normal  0.000000e+00  0.000000e+00  1.000000e+00
   outer loop
     vertex  5.540473e-02 -1.702222e-01  7.234722e-01
     vertex  5.315498e-02 -1.695410e-01  7.234722e-01
     vertex  5.340473e-02 -1.722222e-01  7.234722e-01
   endloop
 endfacet
 facet normal  1.309648e-10  1.219971e-11  1.000000e+00
   outer loop
     vertex  5.740473e-02 -1.722222e-01  7.234722e-01
     vertex  5.765449e-02 -1.749033e-01  7.234722e-01
     vertex  5.843582e-02 -1.739722e-01  7.234722e-01
   endloop
 endfacet
 facet normal  0.000000e+00  0.000000e+00  1.000000e+00
   outer loop
     vertex  5.740473e-02 -1.722222e-01  7.234722e-01
     vertex  5.540473e-02 -1.742222e-01  7.234722e-01
     vertex  5.765449e-02 -1.749033e-01  7.234722e-01
   endloop
 endfacet
 facet normal  0.000000e+00  0.000000e+00  1.000000e+00
   outer loop
     vertex  5.420766e-02 -1.689333e-01  7.234722e-01
     vertex  5.315498e-02 -1.695410e-01  7.234722e-01
     vertex  5.540473e-02 -1.702222e-01  7.234722e-01
   endloop
 endfacet
 facet normal -3.626509e-11 -8.633107e-11  1.000000e+00
   outer loop
     vertex  5.885156e-02 -1.728299e-01  7.234722e-01
     vertex  5.740473e-02 -1.722222e-01  7.234722e-01
     vertex  5.843582e-02 -1.739722e-01  7.234722e-01
   endloop
 endfacet
 facet normal  0.000000e+00  0.000000e+00  1.000000e+00
   outer loop
     vertex  5.540473e-02 -1.687222e-01  7.234722e-01
     vertex  5.420766e-02 -1.689333e-01  7.234722e-01
     vertex  5.540473e-02 -1.702222e-01  7.234722e-01
   endloop
 endfacet
 facet normal  0.000000e+00  0.000000e+00  1.000000e+00
   outer loop
     vertex  5.885156e-02 -1.716144e-01  7.234722e-01
     vertex  5.740473e-02 -1.722222e-01  7.234722e-01
     vertex  5.885156e-02 -1.728299e-01  7.234722e-01
   endloop
 endfacet
 facet normal  0.000000e+00  0.000000e+00  1.000000e+00
   outer loop
     vertex  5.660180e-02 -1.689333e-01  7.234722e-01
     vertex  5.540473e-02 -1.687222e-01  7.234722e-01
     vertex  5.540473e-02 -1.702222e-01  7.234722e-01
   endloop
 endfacet
 facet normal  0.000000e+00  0.000000e+00  1.000000e+00
   outer loop
     vertex  5.843582e-02 -1.704722e-01  7.234722e-01
     vertex  5.740473e-02 -1.722222e-01  7.234722e-01
     vertex  5.885156e-02 -1.716144e-01  7.234722e-01
   endloop
 endfacet
 facet normal  0.000000e+00  0.000000e+00  1.000000e+00
   outer loop
     vertex  5.765449e-02 -1.695410e-01  7.234722e-01
     vertex  5.540473e-02 -1.702222e-01  7.234722e-01
     vertex  5.740473e-02 -1.722222e-01  7.234722e-01
   endloop
 endfacet
 facet normal  0.000000e+00  0.000000e+00  1.000000e+00
   outer loop
     vertex  5.765449e-02 -1.695410e-01  7.234722e-01
     vertex  5.660180e-02 -1.689333e-01  7.234722e-01
     vertex  5.540473e-02 -1.702222e-01  7.234722e-01
   endloop
 endfacet
 facet normal  0.000000e+00  0.000000e+00  1.000000e+00
   outer loop
     vertex  5.765449e-02 -1.695410e-01  7.234722e-01
     vertex  5.740473e-02 -1.722222e-01  7.234722e-01
     vertex  5.843582e-02 -1.704722e-01  7.234722e-01
   endloop
 endfacet
 facet normal  2.790786e-01  4.833783e-01  8.297352e-01
   outer loop
     vertex  5.742546e-02 -1.687222e-01  7.230722e-01
     vertex  5.660180e-02 -1.689333e-01  7.234722e-01
     vertex  5.765449e-02 -1.695410e-01  7.234722e-01
   endloop
 endfacet
 facet normal  1.305387e-01  7.403215e-01  6.594571e-01
   outer loop
     vertex  5.742546e-02 -1.687222e-01  7.230722e-01
     vertex  5.540473e-02 -1.687222e-01  7.234722e-01
     vertex  5.660180e-02 -1.689333e-01  7.234722e-01
   endloop
 endfacet
 facet normal  5.758679e-01  4.832106e-01  6.594571e-01
   outer loop
     vertex  5.843582e-02 -1.704722e-01  7.234722e-01
     vertex  5.742546e-02 -1.687222e-01  7.230722e-01
     vertex  5.765449e-02 -1.695410e-01  7.234722e-01
   endloop
 endfacet
 facet normal  8.660253e-01  5.000001e-01 -5.677585e-07
   outer loop
     vertex  5.843582e-02 -1.704722e-01  7.234722e-01
     vertex  5.944618e-02 -1.722222e-01  7.230722e-01
     vertex  5.944618e-02 -1.722222e-01  7.210850e-01
   endloop
 endfacet
 facet normal  8.660255e-01  4.999999e-01 -3.585527e-07
   outer loop
     vertex  5.843582e-02 -1.704722e-01  7.234722e-01
     vertex  5.944618e-02 -1.722222e-01  7.210850e-01
     vertex  5.742546e-02 -1.687222e-01  7.210850e-01
   endloop
 endfacet
 facet normal  8.660254e-01  4.999999e-01 -2.937636e-07
   outer loop
     vertex  5.742546e-02 -1.687222e-01  7.230722e-01
     vertex  5.843582e-02 -1.704722e-01  7.234722e-01
     vertex  5.742546e-02 -1.687222e-01  7.210850e-01
   endloop
 endfacet
 facet normal  7.792007e-01  4.498882e-01  4.364022e-01
   outer loop
     vertex  5.843908e-02 -1.703694e-01  7.210960e-01
     vertex  5.968999e-02 -1.722222e-01  7.207725e-01
     vertex  5.754737e-02 -1.685112e-01  7.207726e-01
   endloop
 endfacet
 facet normal  7.256065e-01  3.910434e-01  5.661980e-01
   outer loop
     vertex  5.843908e-02 -1.703694e-01  7.210960e-01
     vertex  5.944618e-02 -1.722222e-01  7.210850e-01
     vertex  5.968999e-02 -1.722222e-01  7.207725e-01
   endloop
 endfacet
 facet normal -1.725045e-01 -9.959760e-02  9.799605e-01
   outer loop
     vertex  5.843908e-02 -1.703694e-01  7.210960e-01
     vertex  5.742546e-02 -1.687222e-01  7.210850e-01
     vertex  5.944618e-02 -1.722222e-01  7.210850e-01
   endloop
 endfacet
 facet normal  7.000574e-01  4.345730e-01  5.666268e-01
   outer loop
     vertex  5.843908e-02 -1.703694e-01  7.210960e-01
     vertex  5.754737e-02 -1.685112e-01  7.207726e-01
     vertex  5.742546e-02 -1.687222e-01  7.210850e-01
   endloop
 endfacet
 facet normal -1.714012e-01  9.895623e-02  9.802190e-01
   outer loop
     vertex  5.843910e-02 -1.740750e-01  7.210959e-01
     vertex  5.944618e-02 -1.722222e-01  7.210850e-01
     vertex  5.742545e-02 -1.757222e-01  7.210850e-01
   endloop
 endfacet
 facet normal  7.256065e-01 -3.910438e-01  5.661978e-01
   outer loop
     vertex  5.843910e-02 -1.740750e-01  7.210959e-01
     vertex  5.968999e-02 -1.722222e-01  7.207725e-01
     vertex  5.944618e-02 -1.722222e-01  7.210850e-01
   endloop
 endfacet
 facet normal  7.791888e-01 -4.498649e-01  4.364475e-01
   outer loop
     vertex  5.843910e-02 -1.740750e-01  7.210959e-01
     vertex  5.754736e-02 -1.759333e-01  7.207725e-01
     vertex  5.968999e-02 -1.722222e-01  7.207725e-01
   endloop
 endfacet
 facet normal  6.999736e-01 -4.345306e-01  5.667628e-01
   outer loop
     vertex  5.843910e-02 -1.740750e-01  7.210959e-01
     vertex  5.742545e-02 -1.757222e-01  7.210850e-01
     vertex  5.754736e-02 -1.759333e-01  7.207725e-01
   endloop
 endfacet
 facet normal  8.660256e-01 -4.999997e-01 -1.973289e-06
   outer loop
     vertex  5.843582e-02 -1.739722e-01  7.234722e-01
     vertex  5.742546e-02 -1.757222e-01  7.230722e-01
     vertex  5.742545e-02 -1.757222e-01  7.210850e-01
   endloop
 endfacet
 facet normal  8.660251e-01 -5.000006e-01 -1.057626e-06
   outer loop
     vertex  5.843582e-02 -1.739722e-01  7.234722e-01
     vertex  5.742545e-02 -1.757222e-01  7.210850e-01
     vertex  5.944618e-02 -1.722222e-01  7.210850e-01
   endloop
 endfacet
 facet normal  8.660253e-01 -5.000001e-01 -5.677585e-07
   outer loop
     vertex  5.944618e-02 -1.722222e-01  7.230722e-01
     vertex  5.843582e-02 -1.739722e-01  7.234722e-01
     vertex  5.944618e-02 -1.722222e-01  7.210850e-01
   endloop
 endfacet
 facet normal  5.581572e-01  0.000000e+00  8.297352e-01
   outer loop
     vertex  5.944618e-02 -1.722222e-01  7.230722e-01
     vertex  5.885156e-02 -1.716144e-01  7.234722e-01
     vertex  5.885156e-02 -1.728299e-01  7.234722e-01
   endloop
 endfacet
 facet normal  7.064066e-01  2.571110e-01  6.594571e-01
   outer loop
     vertex  5.944618e-02 -1.722222e-01  7.230722e-01
     vertex  5.843582e-02 -1.704722e-01  7.234722e-01
     vertex  5.885156e-02 -1.716144e-01  7.234722e-01
   endloop
 endfacet
 facet normal  7.064066e-01 -2.571110e-01  6.594571e-01
   outer loop
     vertex  5.843582e-02 -1.739722e-01  7.234722e-01
     vertex  5.944618e-02 -1.722222e-01  7.230722e-01
     vertex  5.885156e-02 -1.728299e-01  7.234722e-01
   endloop
 endfacet
 facet normal  4.105224e-07 -1.000000e+00 -2.073812e-06
   outer loop
     vertex  5.540473e-02 -1.757222e-01  7.234722e-01
     vertex  5.338401e-02 -1.757222e-01  7.230722e-01
     vertex  5.338400e-02 -1.757222e-01  7.210850e-01
   endloop
 endfacet
 facet normal -1.019749e-06 -1.000000e+00 -8.631467e-07
   outer loop
     vertex  5.540473e-02 -1.757222e-01  7.234722e-01
     vertex  5.338400e-02 -1.757222e-01  7.210850e-01
     vertex  5.742545e-02 -1.757222e-01  7.210850e-01
   endloop
 endfacet
 facet normal -1.123407e-11 -1.000000e+00  1.430184e-11
   outer loop
     vertex  5.742546e-02 -1.757222e-01  7.230722e-01
     vertex  5.540473e-02 -1.757222e-01  7.234722e-01
     vertex  5.742545e-02 -1.757222e-01  7.210850e-01
   endloop
 endfacet
 facet normal -8.660253e-01 -5.000001e-01 -5.677585e-07
   outer loop
     vertex  5.237364e-02 -1.739722e-01  7.234722e-01
     vertex  5.136328e-02 -1.722222e-01  7.230722e-01
     vertex  5.136328e-02 -1.722222e-01  7.210850e-01
   endloop
 endfacet
 facet normal -8.660255e-01 -4.999998e-01 -2.362804e-07
   outer loop
     vertex  5.237364e-02 -1.739722e-01  7.234722e-01
     vertex  5.136328e-02 -1.722222e-01  7.210850e-01
     vertex  5.338400e-02 -1.757222e-01  7.210850e-01
   endloop
 endfacet
 facet normal -8.660254e-01 -5.000000e-01  9.028265e-12
   outer loop
     vertex  5.338401e-02 -1.757222e-01  7.230722e-01
     vertex  5.237364e-02 -1.739722e-01  7.234722e-01
     vertex  5.338400e-02 -1.757222e-01  7.210850e-01
   endloop
 endfacet
 facet normal -2.790786e-01 -4.833783e-01  8.297352e-01
   outer loop
     vertex  5.338401e-02 -1.757222e-01  7.230722e-01
     vertex  5.420766e-02 -1.755111e-01  7.234722e-01
     vertex  5.315498e-02 -1.749033e-01  7.234722e-01
   endloop
 endfacet
 facet normal -1.305387e-01 -7.403215e-01  6.594571e-01
   outer loop
     vertex  5.338401e-02 -1.757222e-01  7.230722e-01
     vertex  5.540473e-02 -1.757222e-01  7.234722e-01
     vertex  5.420766e-02 -1.755111e-01  7.234722e-01
   endloop
 endfacet
 facet normal -5.758679e-01 -4.832106e-01  6.594571e-01
   outer loop
     vertex  5.237364e-02 -1.739722e-01  7.234722e-01
     vertex  5.338401e-02 -1.757222e-01  7.230722e-01
     vertex  5.315498e-02 -1.749033e-01  7.234722e-01
   endloop
 endfacet
 facet normal -8.660255e-01  4.999998e-01 -1.115272e-06
   outer loop
     vertex  5.237364e-02 -1.704722e-01  7.234722e-01
     vertex  5.338401e-02 -1.687222e-01  7.230722e-01
     vertex  5.338401e-02 -1.687222e-01  7.210850e-01
   endloop
 endfacet
 facet normal -8.660253e-01  5.000002e-01 -7.004828e-07
   outer loop
     vertex  5.237364e-02 -1.704722e-01  7.234722e-01
     vertex  5.338401e-02 -1.687222e-01  7.210850e-01
     vertex  5.136328e-02 -1.722222e-01  7.210850e-01
   endloop
 endfacet
 facet normal -8.660253e-01  5.000001e-01 -5.677585e-07
   outer loop
     vertex  5.136328e-02 -1.722222e-01  7.230722e-01
     vertex  5.237364e-02 -1.704722e-01  7.234722e-01
     vertex  5.136328e-02 -1.722222e-01  7.210850e-01
   endloop
 endfacet
 facet normal -5.581572e-01  0.000000e+00  8.297352e-01
   outer loop
     vertex  5.136328e-02 -1.722222e-01  7.230722e-01
     vertex  5.195791e-02 -1.728299e-01  7.234722e-01
     vertex  5.195791e-02 -1.716144e-01  7.234722e-01
   endloop
 endfacet
 facet normal -7.064066e-01 -2.571110e-01  6.594571e-01
   outer loop
     vertex  5.136328e-02 -1.722222e-01  7.230722e-01
     vertex  5.237364e-02 -1.739722e-01  7.234722e-01
     vertex  5.195791e-02 -1.728299e-01  7.234722e-01
   endloop
 endfacet
 facet normal -7.064066e-01  2.571110e-01  6.594571e-01
   outer loop
     vertex  5.237364e-02 -1.704722e-01  7.234722e-01
     vertex  5.136328e-02 -1.722222e-01  7.230722e-01
     vertex  5.195791e-02 -1.716144e-01  7.234722e-01
   endloop
 endfacet
 facet normal  2.790786e-01 -4.833783e-01  8.297352e-01
   outer loop
     vertex  5.742546e-02 -1.757222e-01  7.230722e-01
     vertex  5.765449e-02 -1.749033e-01  7.234722e-01
     vertex  5.660180e-02 -1.755111e-01  7.234722e-01
   endloop
 endfacet
 facet normal  5.758679e-01 -4.832106e-01  6.594571e-01
   outer loop
     vertex  5.742546e-02 -1.757222e-01  7.230722e-01
     vertex  5.843582e-02 -1.739722e-01  7.234722e-01
     vertex  5.765449e-02 -1.749033e-01  7.234722e-01
   endloop
 endfacet
 facet normal  1.305387e-01 -7.403215e-01  6.594571e-01
   outer loop
     vertex  5.540473e-02 -1.757222e-01  7.234722e-01
     vertex  5.742546e-02 -1.757222e-01  7.230722e-01
     vertex  5.660180e-02 -1.755111e-01  7.234722e-01
   endloop
 endfacet
 facet normal  4.975428e-01 -4.975428e-01  7.105648e-01
   outer loop
     vertex  5.340473e-02 -1.722222e-01  7.234722e-01
     vertex  5.540473e-02 -1.706222e-01  7.231922e-01
     vertex  5.540473e-02 -1.702222e-01  7.234722e-01
   endloop
 endfacet
 facet normal  4.975428e-01 -4.975428e-01  7.105648e-01
   outer loop
     vertex  5.340473e-02 -1.722222e-01  7.234722e-01
     vertex  5.380473e-02 -1.722222e-01  7.231922e-01
     vertex  5.540473e-02 -1.706222e-01  7.231922e-01
   endloop
 endfacet
 facet normal  4.975428e-01  4.975428e-01  7.105648e-01
   outer loop
     vertex  5.540473e-02 -1.742222e-01  7.234722e-01
     vertex  5.540473e-02 -1.738222e-01  7.231922e-01
     vertex  5.380473e-02 -1.722222e-01  7.231922e-01
   endloop
 endfacet
 facet normal  4.975428e-01  4.975428e-01  7.105648e-01
   outer loop
     vertex  5.540473e-02 -1.742222e-01  7.234722e-01
     vertex  5.380473e-02 -1.722222e-01  7.231922e-01
     vertex  5.340473e-02 -1.722222e-01  7.234722e-01
   endloop
 endfacet
 facet normal -4.975428e-01  4.975428e-01  7.105648e-01
   outer loop
     vertex  5.740473e-02 -1.722222e-01  7.234722e-01
     vertex  5.700473e-02 -1.722222e-01  7.231922e-01
     vertex  5.540473e-02 -1.738222e-01  7.231922e-01
   endloop
 endfacet
 facet normal -4.975428e-01  4.975428e-01  7.105648e-01
   outer loop
     vertex  5.740473e-02 -1.722222e-01  7.234722e-01
     vertex  5.540473e-02 -1.738222e-01  7.231922e-01
     vertex  5.540473e-02 -1.742222e-01  7.234722e-01
   endloop
 endfacet
 facet normal -4.975428e-01 -4.975428e-01  7.105648e-01
   outer loop
     vertex  5.540473e-02 -1.702222e-01  7.234722e-01
     vertex  5.540473e-02 -1.706222e-01  7.231922e-01
     vertex  5.700473e-02 -1.722222e-01  7.231922e-01
   endloop
 endfacet
 facet normal -4.975428e-01 -4.975428e-01  7.105648e-01
   outer loop
     vertex  5.540473e-02 -1.702222e-01  7.234722e-01
     vertex  5.700473e-02 -1.722222e-01  7.231922e-01
     vertex  5.740473e-02 -1.722222e-01  7.234722e-01
   endloop
 endfacet
 facet normal  2.588190e-01 -9.659258e-01 -8.540621e-12
   outer loop
     vertex  5.540473e-02 -1.706222e-01  7.231922e-01
     vertex  5.460473e-02 -1.708365e-01  7.199777e-01
     vertex  5.540473e-02 -1.706222e-01  7.199777e-01
   endloop
 endfacet
 facet normal  7.013110e-01 -7.013110e-01 -1.277725e-01
   outer loop
     vertex  5.380473e-02 -1.722222e-01  7.231922e-01
     vertex  5.401909e-02 -1.714222e-01  7.199777e-01
     vertex  5.460473e-02 -1.708365e-01  7.199777e-01
   endloop
 endfacet
 facet normal  9.659258e-01 -2.588190e-01 -4.270311e-12
   outer loop
     vertex  5.380473e-02 -1.722222e-01  7.231922e-01
     vertex  5.380473e-02 -1.722222e-01  7.199777e-01
     vertex  5.401909e-02 -1.714222e-01  7.199777e-01
   endloop
 endfacet
 facet normal  7.013110e-01 -7.013110e-01 -1.277725e-01
   outer loop
     vertex  5.380473e-02 -1.722222e-01  7.231922e-01
     vertex  5.460473e-02 -1.708365e-01  7.199777e-01
     vertex  5.540473e-02 -1.706222e-01  7.231922e-01
   endloop
 endfacet
 facet normal  7.071068e-01  7.071068e-01 -6.252169e-12
   outer loop
     vertex  5.540473e-02 -1.738222e-01  7.231922e-01
     vertex  5.540473e-02 -1.738222e-01  7.199777e-01
     vertex  5.380473e-02 -1.722222e-01  7.199777e-01
   endloop
 endfacet
 facet normal  7.071068e-01  7.071068e-01 -3.126079e-12
   outer loop
     vertex  5.540473e-02 -1.738222e-01  7.231922e-01
     vertex  5.380473e-02 -1.722222e-01  7.199777e-01
     vertex  5.380473e-02 -1.722222e-01  7.231922e-01
   endloop
 endfacet
 facet normal -7.071068e-01  7.071068e-01 -6.252169e-12
   outer loop
     vertex  5.700473e-02 -1.722222e-01  7.231922e-01
     vertex  5.700473e-02 -1.722222e-01  7.199777e-01
     vertex  5.540473e-02 -1.738222e-01  7.199777e-01
   endloop
 endfacet
 facet normal -7.071068e-01  7.071068e-01 -6.252158e-12
   outer loop
     vertex  5.700473e-02 -1.722222e-01  7.231922e-01
     vertex  5.540473e-02 -1.738222e-01  7.199777e-01
     vertex  5.540473e-02 -1.738222e-01  7.231922e-01
   endloop
 endfacet
 facet normal -7.071068e-01 -7.071068e-01 -6.252169e-12
   outer loop
     vertex  5.540473e-02 -1.706222e-01  7.231922e-01
     vertex  5.540473e-02 -1.706222e-01  7.199777e-01
     vertex  5.700473e-02 -1.722222e-01  7.199777e-01
   endloop
 endfacet
 facet normal -7.071068e-01 -7.071068e-01 -6.252158e-12
   outer loop
     vertex  5.540473e-02 -1.706222e-01  7.231922e-01
     vertex  5.700473e-02 -1.722222e-01  7.199777e-01
     vertex  5.700473e-02 -1.722222e-01  7.231922e-01
   endloop
 endfacet
 facet normal  5.669201e-01 -1.519058e-01 -8.096458e-01
   outer loop
     vertex  5.367268e-02 -1.712222e-01  7.196976e-01
     vertex  5.380473e-02 -1.722222e-01  7.199777e-01
     vertex  5.340473e-02 -1.722222e-01  7.196976e-01
   endloop
 endfacet
 facet normal  5.669201e-01 -1.519058e-01 -8.096458e-01
   outer loop
     vertex  5.367268e-02 -1.712222e-01  7.196976e-01
     vertex  5.401909e-02 -1.714222e-01  7.199777e-01
     vertex  5.380473e-02 -1.722222e-01  7.199777e-01
   endloop
 endfacet
 facet normal  4.150143e-01 -4.150143e-01 -8.096458e-01
   outer loop
     vertex  5.440473e-02 -1.704901e-01  7.196976e-01
     vertex  5.460473e-02 -1.708365e-01  7.199777e-01
     vertex  5.401909e-02 -1.714222e-01  7.199777e-01
   endloop
 endfacet
 facet normal  4.150143e-01 -4.150143e-01 -8.096458e-01
   outer loop
     vertex  5.440473e-02 -1.704901e-01  7.196976e-01
     vertex  5.401909e-02 -1.714222e-01  7.199777e-01
     vertex  5.367268e-02 -1.712222e-01  7.196976e-01
   endloop
 endfacet
 facet normal  1.519058e-01 -5.669201e-01 -8.096458e-01
   outer loop
     vertex  5.540473e-02 -1.702222e-01  7.196976e-01
     vertex  5.540473e-02 -1.706222e-01  7.199777e-01
     vertex  5.460473e-02 -1.708365e-01  7.199777e-01
   endloop
 endfacet
 facet normal  1.519058e-01 -5.669201e-01 -8.096458e-01
   outer loop
     vertex  5.540473e-02 -1.702222e-01  7.196976e-01
     vertex  5.460473e-02 -1.708365e-01  7.199777e-01
     vertex  5.440473e-02 -1.704901e-01  7.196976e-01
   endloop
 endfacet
 facet normal -4.975428e-01 -4.975428e-01 -7.105648e-01
   outer loop
     vertex  5.740473e-02 -1.722222e-01  7.196976e-01
     vertex  5.700473e-02 -1.722222e-01  7.199777e-01
     vertex  5.540473e-02 -1.706222e-01  7.199777e-01
   endloop
 endfacet
 facet normal -4.975428e-01 -4.975428e-01 -7.105648e-01
   outer loop
     vertex  5.740473e-02 -1.722222e-01  7.196976e-01
     vertex  5.540473e-02 -1.706222e-01  7.199777e-01
     vertex  5.540473e-02 -1.702222e-01  7.196976e-01
   endloop
 endfacet
 facet normal -4.975428e-01  4.975428e-01 -7.105648e-01
   outer loop
     vertex  5.540473e-02 -1.742222e-01  7.196976e-01
     vertex  5.540473e-02 -1.738222e-01  7.199777e-01
     vertex  5.700473e-02 -1.722222e-01  7.199777e-01
   endloop
 endfacet
 facet normal -4.975428e-01  4.975428e-01 -7.105648e-01
   outer loop
     vertex  5.540473e-02 -1.742222e-01  7.196976e-01
     vertex  5.700473e-02 -1.722222e-01  7.199777e-01
     vertex  5.740473e-02 -1.722222e-01  7.196976e-01
   endloop
 endfacet
 facet normal  4.975428e-01  4.975428e-01 -7.105648e-01
   outer loop
     vertex  5.340473e-02 -1.722222e-01  7.196976e-01
     vertex  5.380473e-02 -1.722222e-01  7.199777e-01
     vertex  5.540473e-02 -1.738222e-01  7.199777e-01
   endloop
 endfacet
 facet normal  4.975428e-01  4.975428e-01 -7.105648e-01
   outer loop
     vertex  5.340473e-02 -1.722222e-01  7.196976e-01
     vertex  5.540473e-02 -1.738222e-01  7.199777e-01
     vertex  5.540473e-02 -1.742222e-01  7.196976e-01
   endloop
 endfacet
 facet normal  2.588190e-01 -9.659258e-01  0.000000e+00
   outer loop
     vertex  5.440473e-02 -1.704901e-01  7.196976e-01
     vertex  5.540473e-02 -1.702222e-01  7.196722e-01
     vertex  5.540473e-02 -1.702222e-01  7.196976e-01
   endloop
 endfacet
 facet normal  3.465535e-02 -3.465535e-02  9.987983e-01
   outer loop
     vertex  5.367268e-02 -1.712222e-01  7.196976e-01
     vertex  5.340473e-02 -1.722222e-01  7.196722e-01
     vertex  5.540473e-02 -1.702222e-01  7.196722e-01
   endloop
 endfacet
 facet normal  3.465535e-02 -3.465535e-02  9.987983e-01
   outer loop
     vertex  5.367268e-02 -1.712222e-01  7.196976e-01
     vertex  5.540473e-02 -1.702222e-01  7.196722e-01
     vertex  5.440473e-02 -1.704901e-01  7.196976e-01
   endloop
 endfacet
 facet normal  9.659258e-01 -2.588190e-01  0.000000e+00
   outer loop
     vertex  5.340473e-02 -1.722222e-01  7.196976e-01
     vertex  5.340473e-02 -1.722222e-01  7.196722e-01
     vertex  5.367268e-02 -1.712222e-01  7.196976e-01
   endloop
 endfacet
 facet normal  7.071068e-01  7.071068e-01  0.000000e+00
   outer loop
     vertex  5.540473e-02 -1.742222e-01  7.196976e-01
     vertex  5.540473e-02 -1.742222e-01  7.196722e-01
     vertex  5.340473e-02 -1.722222e-01  7.196722e-01
   endloop
 endfacet
 facet normal  7.071068e-01  7.071068e-01  0.000000e+00
   outer loop
     vertex  5.540473e-02 -1.742222e-01  7.196976e-01
     vertex  5.340473e-02 -1.722222e-01  7.196722e-01
     vertex  5.340473e-02 -1.722222e-01  7.196976e-01
   endloop
 endfacet
 facet normal -7.071068e-01  7.071068e-01  0.000000e+00
   outer loop
     vertex  5.740473e-02 -1.722222e-01  7.196976e-01
     vertex  5.740473e-02 -1.722222e-01  7.196722e-01
     vertex  5.540473e-02 -1.742222e-01  7.196722e-01
   endloop
 endfacet
 facet normal -7.071068e-01  7.071068e-01  0.000000e+00
   outer loop
     vertex  5.740473e-02 -1.722222e-01  7.196976e-01
     vertex  5.540473e-02 -1.742222e-01  7.196722e-01
     vertex  5.540473e-02 -1.742222e-01  7.196976e-01
   endloop
 endfacet
 facet normal -7.071068e-01 -7.071068e-01 -0.000000e+00
   outer loop
     vertex  5.540473e-02 -1.702222e-01  7.196976e-01
     vertex  5.540473e-02 -1.702222e-01  7.196722e-01
     vertex  5.740473e-02 -1.722222e-01  7.196722e-01
   endloop
 endfacet
 facet normal -7.071068e-01 -7.071068e-01  0.000000e+00
   outer loop
     vertex  5.540473e-02 -1.702222e-01  7.196976e-01
     vertex  5.740473e-02 -1.722222e-01  7.196722e-01
     vertex  5.740473e-02 -1.722222e-01  7.196976e-01
   endloop
 endfacet
endsolid
