solid 
 facet normal -3.296262e-01 -1.300386e-01  9.351131e-01
   outer loop
     vertex  1.834785e-01  5.261421e-02  7.169990e-01
     vertex  1.833868e-01  5.265404e-02  7.169722e-01
     vertex  1.845285e-01  4.975984e-02  7.169722e-01
   endloop
 endfacet
 facet normal -9.139690e-01 -3.605638e-01  1.861568e-01
   outer loop
     vertex  1.835702e-01  5.257438e-02  7.171722e-01
     vertex  1.835456e-01  5.258505e-02  7.170722e-01
     vertex  1.846082e-01  4.994330e-02  7.171722e-01
   endloop
 endfacet
 facet normal -1.300386e-01  3.296262e-01  9.351131e-01
   outer loop
     vertex  1.862411e-01  5.370408e-02  7.169990e-01
     vertex  1.833868e-01  5.265404e-02  7.169722e-01
     vertex  1.834785e-01  5.261421e-02  7.169990e-01
   endloop
 endfacet
 facet normal -1.300386e-01  3.296262e-01  9.351131e-01
   outer loop
     vertex  1.862411e-01  5.370408e-02  7.169990e-01
     vertex  1.862809e-01  5.379581e-02  7.169722e-01
     vertex  1.833868e-01  5.265404e-02  7.169722e-01
   endloop
 endfacet
 facet normal -3.605638e-01  9.139690e-01  1.861568e-01
   outer loop
     vertex  1.862120e-01  5.363693e-02  7.170722e-01
     vertex  1.835702e-01  5.257438e-02  7.171722e-01
     vertex  1.862013e-01  5.361235e-02  7.171722e-01
   endloop
 endfacet
 facet normal -2.996367e-01  7.595291e-01  5.773503e-01
   outer loop
     vertex  1.862120e-01  5.363693e-02  7.170722e-01
     vertex  1.834785e-01  5.261421e-02  7.169990e-01
     vertex  1.835456e-01  5.258505e-02  7.170722e-01
   endloop
 endfacet
 facet normal -3.605638e-01  9.139690e-01  1.861568e-01
   outer loop
     vertex  1.862120e-01  5.363693e-02  7.170722e-01
     vertex  1.835456e-01  5.258505e-02  7.170722e-01
     vertex  1.835702e-01  5.257438e-02  7.171722e-01
   endloop
 endfacet
 facet normal -2.996367e-01  7.595291e-01  5.773503e-01
   outer loop
     vertex  1.862120e-01  5.363693e-02  7.170722e-01
     vertex  1.862411e-01  5.370408e-02  7.169990e-01
     vertex  1.834785e-01  5.261421e-02  7.169990e-01
   endloop
 endfacet
 facet normal  3.296262e-01  1.300386e-01  9.351131e-01
   outer loop
     vertex  1.873310e-01  5.094144e-02  7.169990e-01
     vertex  1.874227e-01  5.090161e-02  7.169722e-01
     vertex  1.862809e-01  5.379581e-02  7.169722e-01
   endloop
 endfacet
 facet normal  3.296262e-01  1.300386e-01  9.351131e-01
   outer loop
     vertex  1.873310e-01  5.094144e-02  7.169990e-01
     vertex  1.862809e-01  5.379581e-02  7.169722e-01
     vertex  1.862411e-01  5.370408e-02  7.169990e-01
   endloop
 endfacet
 facet normal  9.139690e-01  3.605638e-01  1.861568e-01
   outer loop
     vertex  1.872638e-01  5.097060e-02  7.170722e-01
     vertex  1.862013e-01  5.361235e-02  7.171722e-01
     vertex  1.872393e-01  5.098127e-02  7.171722e-01
   endloop
 endfacet
 facet normal  7.595291e-01  2.996367e-01  5.773503e-01
   outer loop
     vertex  1.872638e-01  5.097060e-02  7.170722e-01
     vertex  1.862411e-01  5.370408e-02  7.169990e-01
     vertex  1.862120e-01  5.363693e-02  7.170722e-01
   endloop
 endfacet
 facet normal  7.595291e-01  2.996367e-01  5.773503e-01
   outer loop
     vertex  1.872638e-01  5.097060e-02  7.170722e-01
     vertex  1.873310e-01  5.094144e-02  7.169990e-01
     vertex  1.862411e-01  5.370408e-02  7.169990e-01
   endloop
 endfacet
 facet normal  9.139690e-01  3.605638e-01  1.861568e-01
   outer loop
     vertex  1.872638e-01  5.097060e-02  7.170722e-01
     vertex  1.862120e-01  5.363693e-02  7.170722e-01
     vertex  1.862013e-01  5.361235e-02  7.171722e-01
   endloop
 endfacet
 facet normal  1.300386e-01 -3.296262e-01  9.351131e-01
   outer loop
     vertex  1.845683e-01  4.985157e-02  7.169990e-01
     vertex  1.845285e-01  4.975984e-02  7.169722e-01
     vertex  1.874227e-01  5.090161e-02  7.169722e-01
   endloop
 endfacet
 facet normal  1.300386e-01 -3.296262e-01  9.351131e-01
   outer loop
     vertex  1.845683e-01  4.985157e-02  7.169990e-01
     vertex  1.874227e-01  5.090161e-02  7.169722e-01
     vertex  1.873310e-01  5.094144e-02  7.169990e-01
   endloop
 endfacet
 facet normal -3.296262e-01 -1.300386e-01  9.351131e-01
   outer loop
     vertex  1.845683e-01  4.985157e-02  7.169990e-01
     vertex  1.834785e-01  5.261421e-02  7.169990e-01
     vertex  1.845285e-01  4.975984e-02  7.169722e-01
   endloop
 endfacet
 facet normal -7.595291e-01 -2.996367e-01  5.773503e-01
   outer loop
     vertex  1.845975e-01  4.991872e-02  7.170722e-01
     vertex  1.835456e-01  5.258505e-02  7.170722e-01
     vertex  1.834785e-01  5.261421e-02  7.169990e-01
   endloop
 endfacet
 facet normal  3.605638e-01 -9.139690e-01  1.861568e-01
   outer loop
     vertex  1.845975e-01  4.991872e-02  7.170722e-01
     vertex  1.872393e-01  5.098127e-02  7.171722e-01
     vertex  1.846082e-01  4.994330e-02  7.171722e-01
   endloop
 endfacet
 facet normal -7.595291e-01 -2.996367e-01  5.773503e-01
   outer loop
     vertex  1.845975e-01  4.991872e-02  7.170722e-01
     vertex  1.834785e-01  5.261421e-02  7.169990e-01
     vertex  1.845683e-01  4.985157e-02  7.169990e-01
   endloop
 endfacet
 facet normal  2.996367e-01 -7.595291e-01  5.773503e-01
   outer loop
     vertex  1.845975e-01  4.991872e-02  7.170722e-01
     vertex  1.845683e-01  4.985157e-02  7.169990e-01
     vertex  1.873310e-01  5.094144e-02  7.169990e-01
   endloop
 endfacet
 facet normal  3.605638e-01 -9.139690e-01  1.861568e-01
   outer loop
     vertex  1.845975e-01  4.991872e-02  7.170722e-01
     vertex  1.872638e-01  5.097060e-02  7.170722e-01
     vertex  1.872393e-01  5.098127e-02  7.171722e-01
   endloop
 endfacet
 facet normal  2.996367e-01 -7.595291e-01  5.773503e-01
   outer loop
     vertex  1.845975e-01  4.991872e-02  7.170722e-01
     vertex  1.873310e-01  5.094144e-02  7.169990e-01
     vertex  1.872638e-01  5.097060e-02  7.170722e-01
   endloop
 endfacet
 facet normal -9.139690e-01 -3.605638e-01  1.861568e-01
   outer loop
     vertex  1.845975e-01  4.991872e-02  7.170722e-01
     vertex  1.846082e-01  4.994330e-02  7.171722e-01
     vertex  1.835456e-01  5.258505e-02  7.170722e-01
   endloop
 endfacet
 facet normal -3.669785e-01  9.302294e-01  0.000000e+00
   outer loop
     vertex  1.862013e-01  5.361235e-02  7.171722e-01
     vertex  1.835702e-01  5.257438e-02  7.171722e-01
     vertex  1.835702e-01  5.257438e-02  7.229722e-01
   endloop
 endfacet
 facet normal -3.669785e-01  9.302294e-01  0.000000e+00
   outer loop
     vertex  1.862013e-01  5.361235e-02  7.171722e-01
     vertex  1.835702e-01  5.257438e-02  7.229722e-01
     vertex  1.862013e-01  5.361235e-02  7.229722e-01
   endloop
 endfacet
 facet normal  9.302294e-01  3.669785e-01 -0.000000e+00
   outer loop
     vertex  1.872393e-01  5.098127e-02  7.171722e-01
     vertex  1.862013e-01  5.361235e-02  7.229722e-01
     vertex  1.872393e-01  5.098127e-02  7.229722e-01
   endloop
 endfacet
 facet normal  9.302294e-01  3.669785e-01  0.000000e+00
   outer loop
     vertex  1.872393e-01  5.098127e-02  7.171722e-01
     vertex  1.862013e-01  5.361235e-02  7.171722e-01
     vertex  1.862013e-01  5.361235e-02  7.229722e-01
   endloop
 endfacet
 facet normal  3.669785e-01 -9.302294e-01  0.000000e+00
   outer loop
     vertex  1.846082e-01  4.994330e-02  7.171722e-01
     vertex  1.872393e-01  5.098127e-02  7.229722e-01
     vertex  1.846082e-01  4.994330e-02  7.229722e-01
   endloop
 endfacet
 facet normal  3.669785e-01 -9.302294e-01  0.000000e+00
   outer loop
     vertex  1.846082e-01  4.994330e-02  7.171722e-01
     vertex  1.872393e-01  5.098127e-02  7.171722e-01
     vertex  1.872393e-01  5.098127e-02  7.229722e-01
   endloop
 endfacet
 facet normal -9.302294e-01 -3.669785e-01  0.000000e+00
   outer loop
     vertex  1.835702e-01  5.257438e-02  7.171722e-01
     vertex  1.846082e-01  4.994330e-02  7.229722e-01
     vertex  1.835702e-01  5.257438e-02  7.229722e-01
   endloop
 endfacet
 facet normal -9.302294e-01 -3.669785e-01  0.000000e+00
   outer loop
     vertex  1.835702e-01  5.257438e-02  7.171722e-01
     vertex  1.846082e-01  4.994330e-02  7.171722e-01
     vertex  1.846082e-01  4.994330e-02  7.229722e-01
   endloop
 endfacet
 facet normal  0.000000e+00  0.000000e+00  1.000000e+00
   outer loop
     vertex  1.846082e-01  4.994330e-02  7.229722e-01
     vertex  1.872393e-01  5.098127e-02  7.229722e-01
     vertex  1.862013e-01  5.361235e-02  7.229722e-01
   endloop
 endfacet
 facet normal -0.000000e+00  0.000000e+00  1.000000e+00
   outer loop
     vertex  1.835702e-01  5.257438e-02  7.229722e-01
     vertex  1.846082e-01  4.994330e-02  7.229722e-01
     vertex  1.862013e-01  5.361235e-02  7.229722e-01
   endloop
 endfacet
 facet normal  0.000000e+00 -0.000000e+00  1.000000e+00
   outer loop
     vertex  1.833868e-01  5.265404e-02  7.169722e-01
     vertex  1.869978e-01  5.544688e-02  7.169722e-01
     vertex  1.817357e-01  5.337094e-02  7.169722e-01
   endloop
 endfacet
 facet normal  0.000000e+00  0.000000e+00  1.000000e+00
   outer loop
     vertex  1.833868e-01  5.265404e-02  7.169722e-01
     vertex  1.862809e-01  5.379581e-02  7.169722e-01
     vertex  1.869978e-01  5.544688e-02  7.169722e-01
   endloop
 endfacet
 facet normal  0.000000e+00  0.000000e+00  1.000000e+00
   outer loop
     vertex  1.845285e-01  4.975984e-02  7.169722e-01
     vertex  1.833868e-01  5.265404e-02  7.169722e-01
     vertex  1.817357e-01  5.337094e-02  7.169722e-01
   endloop
 endfacet
 facet normal  0.000000e+00  0.000000e+00  1.000000e+00
   outer loop
     vertex  1.890738e-01  5.018471e-02  7.169722e-01
     vertex  1.874227e-01  5.090161e-02  7.169722e-01
     vertex  1.845285e-01  4.975984e-02  7.169722e-01
   endloop
 endfacet
 facet normal  0.000000e+00  0.000000e+00  1.000000e+00
   outer loop
     vertex  1.890738e-01  5.018471e-02  7.169722e-01
     vertex  1.862809e-01  5.379581e-02  7.169722e-01
     vertex  1.874227e-01  5.090161e-02  7.169722e-01
   endloop
 endfacet
 facet normal  0.000000e+00  0.000000e+00  1.000000e+00
   outer loop
     vertex  1.890738e-01  5.018471e-02  7.169722e-01
     vertex  1.869978e-01  5.544688e-02  7.169722e-01
     vertex  1.862809e-01  5.379581e-02  7.169722e-01
   endloop
 endfacet
 facet normal  0.000000e+00 -0.000000e+00  1.000000e+00
   outer loop
     vertex  1.838116e-01  4.810877e-02  7.169722e-01
     vertex  1.845285e-01  4.975984e-02  7.169722e-01
     vertex  1.817357e-01  5.337094e-02  7.169722e-01
   endloop
 endfacet
 facet normal  0.000000e+00  0.000000e+00  1.000000e+00
   outer loop
     vertex  1.838116e-01  4.810877e-02  7.169722e-01
     vertex  1.890738e-01  5.018471e-02  7.169722e-01
     vertex  1.845285e-01  4.975984e-02  7.169722e-01
   endloop
 endfacet
 facet normal -3.669785e-01  9.302294e-01  0.000000e+00
   outer loop
     vertex  1.869978e-01  5.544688e-02  7.154275e-01
     vertex  1.817357e-01  5.337094e-02  7.154275e-01
     vertex  1.817357e-01  5.337094e-02  7.169722e-01
   endloop
 endfacet
 facet normal -3.669785e-01  9.302294e-01  0.000000e+00
   outer loop
     vertex  1.869978e-01  5.544688e-02  7.154275e-01
     vertex  1.817357e-01  5.337094e-02  7.169722e-01
     vertex  1.869978e-01  5.544688e-02  7.169722e-01
   endloop
 endfacet
 facet normal  9.302294e-01  3.669785e-01 -0.000000e+00
   outer loop
     vertex  1.890738e-01  5.018471e-02  7.154275e-01
     vertex  1.869978e-01  5.544688e-02  7.169722e-01
     vertex  1.890738e-01  5.018471e-02  7.169722e-01
   endloop
 endfacet
 facet normal  9.302294e-01  3.669785e-01  0.000000e+00
   outer loop
     vertex  1.890738e-01  5.018471e-02  7.154275e-01
     vertex  1.869978e-01  5.544688e-02  7.154275e-01
     vertex  1.869978e-01  5.544688e-02  7.169722e-01
   endloop
 endfacet
 facet normal  3.669785e-01 -9.302294e-01  0.000000e+00
   outer loop
     vertex  1.838116e-01  4.810877e-02  7.154275e-01
     vertex  1.890738e-01  5.018471e-02  7.169722e-01
     vertex  1.838116e-01  4.810877e-02  7.169722e-01
   endloop
 endfacet
 facet normal  3.669785e-01 -9.302294e-01  0.000000e+00
   outer loop
     vertex  1.838116e-01  4.810877e-02  7.154275e-01
     vertex  1.890738e-01  5.018471e-02  7.154275e-01
     vertex  1.890738e-01  5.018471e-02  7.169722e-01
   endloop
 endfacet
 facet normal -9.302294e-01 -3.669785e-01  0.000000e+00
   outer loop
     vertex  1.817357e-01  5.337094e-02  7.154275e-01
     vertex  1.838116e-01  4.810877e-02  7.169722e-01
     vertex  1.817357e-01  5.337094e-02  7.169722e-01
   endloop
 endfacet
 facet normal -9.302294e-01 -3.669785e-01  0.000000e+00
   outer loop
     vertex  1.817357e-01  5.337094e-02  7.154275e-01
     vertex  1.838116e-01  4.810877e-02  7.154275e-01
     vertex  1.838116e-01  4.810877e-02  7.169722e-01
   endloop
 endfacet
 facet normal -9.245269e-01 -3.647289e-01 -1.105573e-01
   outer loop
     vertex  1.817516e-01  5.336401e-02  7.153170e-01
     vertex  1.838116e-01  4.810877e-02  7.154275e-01
     vertex  1.817357e-01  5.337094e-02  7.154275e-01
   endloop
 endfacet
 facet normal -3.647289e-01  9.245269e-01 -1.105573e-01
   outer loop
     vertex  1.869909e-01  5.543093e-02  7.153170e-01
     vertex  1.817516e-01  5.336401e-02  7.153170e-01
     vertex  1.817357e-01  5.337094e-02  7.154275e-01
   endloop
 endfacet
 facet normal -3.647289e-01  9.245269e-01 -1.105573e-01
   outer loop
     vertex  1.869909e-01  5.543093e-02  7.153170e-01
     vertex  1.817357e-01  5.337094e-02  7.154275e-01
     vertex  1.869978e-01  5.544688e-02  7.154275e-01
   endloop
 endfacet
 facet normal -3.006725e-01  7.621546e-01 -5.733379e-01
   outer loop
     vertex  1.869708e-01  5.538462e-02  7.152172e-01
     vertex  1.869395e-01  5.531243e-02  7.151376e-01
     vertex  1.818701e-01  5.331256e-02  7.151376e-01
   endloop
 endfacet
 facet normal -3.006725e-01  7.621546e-01 -5.733379e-01
   outer loop
     vertex  1.869708e-01  5.538462e-02  7.152172e-01
     vertex  1.818701e-01  5.331256e-02  7.151376e-01
     vertex  1.817979e-01  5.334391e-02  7.152172e-01
   endloop
 endfacet
 facet normal -3.455591e-01  8.759347e-01 -3.366412e-01
   outer loop
     vertex  1.869708e-01  5.538462e-02  7.152172e-01
     vertex  1.817979e-01  5.334391e-02  7.152172e-01
     vertex  1.817516e-01  5.336401e-02  7.153170e-01
   endloop
 endfacet
 facet normal -3.455591e-01  8.759347e-01 -3.366412e-01
   outer loop
     vertex  1.869708e-01  5.538462e-02  7.152172e-01
     vertex  1.817516e-01  5.336401e-02  7.153170e-01
     vertex  1.869909e-01  5.543093e-02  7.153170e-01
   endloop
 endfacet
 facet normal  9.245269e-01  3.647289e-01 -1.105573e-01
   outer loop
     vertex  1.890578e-01  5.019164e-02  7.153170e-01
     vertex  1.869978e-01  5.544688e-02  7.154275e-01
     vertex  1.890738e-01  5.018471e-02  7.154275e-01
   endloop
 endfacet
 facet normal  9.245269e-01  3.647289e-01 -1.105573e-01
   outer loop
     vertex  1.890578e-01  5.019164e-02  7.153170e-01
     vertex  1.869909e-01  5.543093e-02  7.153170e-01
     vertex  1.869978e-01  5.544688e-02  7.154275e-01
   endloop
 endfacet
 facet normal  7.621546e-01  3.006725e-01 -5.733379e-01
   outer loop
     vertex  1.890115e-01  5.021174e-02  7.152172e-01
     vertex  1.889393e-01  5.024309e-02  7.151376e-01
     vertex  1.869395e-01  5.531243e-02  7.151376e-01
   endloop
 endfacet
 facet normal  8.759347e-01  3.455591e-01 -3.366412e-01
   outer loop
     vertex  1.890115e-01  5.021174e-02  7.152172e-01
     vertex  1.869708e-01  5.538462e-02  7.152172e-01
     vertex  1.869909e-01  5.543093e-02  7.153170e-01
   endloop
 endfacet
 facet normal  8.759347e-01  3.455591e-01 -3.366412e-01
   outer loop
     vertex  1.890115e-01  5.021174e-02  7.152172e-01
     vertex  1.869909e-01  5.543093e-02  7.153170e-01
     vertex  1.890578e-01  5.019164e-02  7.153170e-01
   endloop
 endfacet
 facet normal  7.621546e-01  3.006725e-01 -5.733379e-01
   outer loop
     vertex  1.890115e-01  5.021174e-02  7.152172e-01
     vertex  1.869395e-01  5.531243e-02  7.151376e-01
     vertex  1.869708e-01  5.538462e-02  7.152172e-01
   endloop
 endfacet
 facet normal  3.647289e-01 -9.245269e-01 -1.105573e-01
   outer loop
     vertex  1.838185e-01  4.812472e-02  7.153170e-01
     vertex  1.890738e-01  5.018471e-02  7.154275e-01
     vertex  1.838116e-01  4.810877e-02  7.154275e-01
   endloop
 endfacet
 facet normal  3.647289e-01 -9.245269e-01 -1.105573e-01
   outer loop
     vertex  1.838185e-01  4.812472e-02  7.153170e-01
     vertex  1.890578e-01  5.019164e-02  7.153170e-01
     vertex  1.890738e-01  5.018471e-02  7.154275e-01
   endloop
 endfacet
 facet normal -9.245269e-01 -3.647289e-01 -1.105573e-01
   outer loop
     vertex  1.838185e-01  4.812472e-02  7.153170e-01
     vertex  1.838116e-01  4.810877e-02  7.154275e-01
     vertex  1.817516e-01  5.336401e-02  7.153170e-01
   endloop
 endfacet
 facet normal  3.006725e-01 -7.621546e-01 -5.733379e-01
   outer loop
     vertex  1.838387e-01  4.817103e-02  7.152172e-01
     vertex  1.838700e-01  4.824322e-02  7.151376e-01
     vertex  1.889393e-01  5.024309e-02  7.151376e-01
   endloop
 endfacet
 facet normal -7.621546e-01 -3.006725e-01 -5.733379e-01
   outer loop
     vertex  1.838387e-01  4.817103e-02  7.152172e-01
     vertex  1.818701e-01  5.331256e-02  7.151376e-01
     vertex  1.838700e-01  4.824322e-02  7.151376e-01
   endloop
 endfacet
 facet normal -7.621546e-01 -3.006725e-01 -5.733379e-01
   outer loop
     vertex  1.838387e-01  4.817103e-02  7.152172e-01
     vertex  1.817979e-01  5.334391e-02  7.152172e-01
     vertex  1.818701e-01  5.331256e-02  7.151376e-01
   endloop
 endfacet
 facet normal -8.759347e-01 -3.455591e-01 -3.366412e-01
   outer loop
     vertex  1.838387e-01  4.817103e-02  7.152172e-01
     vertex  1.817516e-01  5.336401e-02  7.153170e-01
     vertex  1.817979e-01  5.334391e-02  7.152172e-01
   endloop
 endfacet
 facet normal  3.455591e-01 -8.759347e-01 -3.366412e-01
   outer loop
     vertex  1.838387e-01  4.817103e-02  7.152172e-01
     vertex  1.890578e-01  5.019164e-02  7.153170e-01
     vertex  1.838185e-01  4.812472e-02  7.153170e-01
   endloop
 endfacet
 facet normal  3.455591e-01 -8.759347e-01 -3.366412e-01
   outer loop
     vertex  1.838387e-01  4.817103e-02  7.152172e-01
     vertex  1.890115e-01  5.021174e-02  7.152172e-01
     vertex  1.890578e-01  5.019164e-02  7.153170e-01
   endloop
 endfacet
 facet normal -8.759347e-01 -3.455591e-01 -3.366412e-01
   outer loop
     vertex  1.838387e-01  4.817103e-02  7.152172e-01
     vertex  1.838185e-01  4.812472e-02  7.153170e-01
     vertex  1.817516e-01  5.336401e-02  7.153170e-01
   endloop
 endfacet
 facet normal  3.006725e-01 -7.621546e-01 -5.733379e-01
   outer loop
     vertex  1.838387e-01  4.817103e-02  7.152172e-01
     vertex  1.889393e-01  5.024309e-02  7.151376e-01
     vertex  1.890115e-01  5.021174e-02  7.152172e-01
   endloop
 endfacet
 facet normal -2.562109e-01  6.494520e-01 -7.159386e-01
   outer loop
     vertex  1.857227e-01  5.380330e-02  7.142041e-01
     vertex  1.818701e-01  5.331256e-02  7.151376e-01
     vertex  1.869395e-01  5.531243e-02  7.151376e-01
   endloop
 endfacet
 facet normal -2.562109e-01  6.494520e-01 -7.159386e-01
   outer loop
     vertex  1.837895e-01  5.304062e-02  7.142041e-01
     vertex  1.818701e-01  5.331256e-02  7.151376e-01
     vertex  1.857227e-01  5.380330e-02  7.142041e-01
   endloop
 endfacet
 facet normal  1.333768e-01  4.413868e-01 -8.873490e-01
   outer loop
     vertex  1.860408e-01  5.367414e-02  7.141876e-01
     vertex  1.857227e-01  5.380330e-02  7.142041e-01
     vertex  1.869395e-01  5.531243e-02  7.151376e-01
   endloop
 endfacet
 facet normal -1.390418e-01  3.524478e-01 -9.254447e-01
   outer loop
     vertex  1.855766e-01  5.346661e-02  7.140978e-01
     vertex  1.837895e-01  5.304062e-02  7.142041e-01
     vertex  1.857227e-01  5.380330e-02  7.142041e-01
   endloop
 endfacet
 facet normal -1.390418e-01  3.524478e-01 -9.254447e-01
   outer loop
     vertex  1.841262e-01  5.289443e-02  7.140978e-01
     vertex  1.837895e-01  5.304062e-02  7.142041e-01
     vertex  1.855766e-01  5.346661e-02  7.140978e-01
   endloop
 endfacet
 facet normal -3.988083e-01  2.314380e-01 -8.873490e-01
   outer loop
     vertex  1.836453e-01  5.272911e-02  7.141876e-01
     vertex  1.818701e-01  5.331256e-02  7.151376e-01
     vertex  1.837895e-01  5.304062e-02  7.142041e-01
   endloop
 endfacet
 facet normal  1.811086e-01  4.171063e-01 -8.906301e-01
   outer loop
     vertex  1.863560e-01  5.353727e-02  7.141876e-01
     vertex  1.860408e-01  5.367414e-02  7.141876e-01
     vertex  1.869395e-01  5.531243e-02  7.151376e-01
   endloop
 endfacet
 facet normal -1.119786e-01  2.838470e-01 -9.523086e-01
   outer loop
     vertex  1.854281e-01  5.312477e-02  7.140134e-01
     vertex  1.841262e-01  5.289443e-02  7.140978e-01
     vertex  1.855766e-01  5.346661e-02  7.140978e-01
   endloop
 endfacet
 facet normal -1.119786e-01  2.838470e-01 -9.523086e-01
   outer loop
     vertex  1.844680e-01  5.274600e-02  7.140134e-01
     vertex  1.841262e-01  5.289443e-02  7.140978e-01
     vertex  1.854281e-01  5.312477e-02  7.140134e-01
   endloop
 endfacet
 facet normal -4.171063e-01  1.811086e-01 -8.906301e-01
   outer loop
     vertex  1.835084e-01  5.241388e-02  7.141876e-01
     vertex  1.818701e-01  5.331256e-02  7.151376e-01
     vertex  1.836453e-01  5.272911e-02  7.141876e-01
   endloop
 endfacet
 facet normal  2.314380e-01  3.988083e-01 -8.873490e-01
   outer loop
     vertex  1.866675e-01  5.339307e-02  7.142041e-01
     vertex  1.863560e-01  5.353727e-02  7.141876e-01
     vertex  1.869395e-01  5.531243e-02  7.151376e-01
   endloop
 endfacet
 facet normal -9.268532e-02  2.349418e-01 -9.675804e-01
   outer loop
     vertex  1.851138e-01  5.274408e-02  7.139510e-01
     vertex  1.844680e-01  5.274600e-02  7.140134e-01
     vertex  1.854281e-01  5.312477e-02  7.140134e-01
   endloop
 endfacet
 facet normal -9.268532e-02  2.349418e-01 -9.675804e-01
   outer loop
     vertex  1.849576e-01  5.268248e-02  7.139510e-01
     vertex  1.844680e-01  5.274600e-02  7.140134e-01
     vertex  1.851138e-01  5.274408e-02  7.139510e-01
   endloop
 endfacet
 facet normal -4.130861e-02  1.945530e-01 -9.800218e-01
   outer loop
     vertex  1.852780e-01  5.277895e-02  7.139510e-01
     vertex  1.851138e-01  5.274408e-02  7.139510e-01
     vertex  1.854281e-01  5.312477e-02  7.140134e-01
   endloop
 endfacet
 facet normal -1.026484e-01  1.703542e-01 -9.800218e-01
   outer loop
     vertex  1.848138e-01  5.259585e-02  7.139510e-01
     vertex  1.844680e-01  5.274600e-02  7.140134e-01
     vertex  1.849576e-01  5.268248e-02  7.139510e-01
   endloop
 endfacet
 facet normal -4.413868e-01  1.333768e-01 -8.873490e-01
   outer loop
     vertex  1.833793e-01  5.209584e-02  7.142041e-01
     vertex  1.818701e-01  5.331256e-02  7.151376e-01
     vertex  1.835084e-01  5.241388e-02  7.141876e-01
   endloop
 endfacet
 facet normal  1.703542e-01  1.026484e-01 -9.800218e-01
   outer loop
     vertex  1.863094e-01  5.222494e-02  7.139510e-01
     vertex  1.862228e-01  5.236872e-02  7.139510e-01
     vertex  1.863729e-01  5.271454e-02  7.140134e-01
   endloop
 endfacet
 facet normal -1.945530e-01 -4.130861e-02 -9.800218e-01
   outer loop
     vertex  1.844385e-01  5.148686e-02  7.139510e-01
     vertex  1.840578e-01  5.180122e-02  7.140134e-01
     vertex  1.844036e-01  5.165106e-02  7.139510e-01
   endloop
 endfacet
 facet normal -2.349418e-01 -9.268532e-02 -9.675804e-01
   outer loop
     vertex  1.845001e-01  5.133071e-02  7.139510e-01
     vertex  1.840578e-01  5.180122e-02  7.140134e-01
     vertex  1.844385e-01  5.148686e-02  7.139510e-01
   endloop
 endfacet
 facet normal  2.349418e-01  9.268532e-02 -9.675804e-01
   outer loop
     vertex  1.867517e-01  5.175443e-02  7.140134e-01
     vertex  1.863094e-01  5.222494e-02  7.139510e-01
     vertex  1.863729e-01  5.271454e-02  7.140134e-01
   endloop
 endfacet
 facet normal  2.349418e-01  9.268532e-02 -9.675804e-01
   outer loop
     vertex  1.867517e-01  5.175443e-02  7.140134e-01
     vertex  1.863710e-01  5.206879e-02  7.139510e-01
     vertex  1.863094e-01  5.222494e-02  7.139510e-01
   endloop
 endfacet
 facet normal  1.945530e-01  4.130861e-02 -9.800218e-01
   outer loop
     vertex  1.867517e-01  5.175443e-02  7.140134e-01
     vertex  1.864059e-01  5.190459e-02  7.139510e-01
     vertex  1.863710e-01  5.206879e-02  7.139510e-01
   endloop
 endfacet
 facet normal -2.349418e-01 -9.268532e-02 -9.675804e-01
   outer loop
     vertex  1.844366e-01  5.084111e-02  7.140134e-01
     vertex  1.840578e-01  5.180122e-02  7.140134e-01
     vertex  1.845001e-01  5.133071e-02  7.139510e-01
   endloop
 endfacet
 facet normal -2.838470e-01 -1.119786e-01 -9.523086e-01
   outer loop
     vertex  1.844366e-01  5.084111e-02  7.140134e-01
     vertex  1.837159e-01  5.194965e-02  7.140978e-01
     vertex  1.840578e-01  5.180122e-02  7.140134e-01
   endloop
 endfacet
 facet normal -1.703542e-01 -1.026484e-01 -9.800218e-01
   outer loop
     vertex  1.844366e-01  5.084111e-02  7.140134e-01
     vertex  1.845001e-01  5.133071e-02  7.139510e-01
     vertex  1.845867e-01  5.118693e-02  7.139510e-01
   endloop
 endfacet
 facet normal  2.838470e-01  1.119786e-01 -9.523086e-01
   outer loop
     vertex  1.870935e-01  5.160600e-02  7.140978e-01
     vertex  1.863729e-01  5.271454e-02  7.140134e-01
     vertex  1.865213e-01  5.305639e-02  7.140978e-01
   endloop
 endfacet
 facet normal  2.838470e-01  1.119786e-01 -9.523086e-01
   outer loop
     vertex  1.870935e-01  5.160600e-02  7.140978e-01
     vertex  1.867517e-01  5.175443e-02  7.140134e-01
     vertex  1.863729e-01  5.271454e-02  7.140134e-01
   endloop
 endfacet
 facet normal -2.838470e-01 -1.119786e-01 -9.523086e-01
   outer loop
     vertex  1.842881e-01  5.049926e-02  7.140978e-01
     vertex  1.837159e-01  5.194965e-02  7.140978e-01
     vertex  1.844366e-01  5.084111e-02  7.140134e-01
   endloop
 endfacet
 facet normal -3.524478e-01 -1.390418e-01 -9.254447e-01
   outer loop
     vertex  1.842881e-01  5.049926e-02  7.140978e-01
     vertex  1.833793e-01  5.209584e-02  7.142041e-01
     vertex  1.837159e-01  5.194965e-02  7.140978e-01
   endloop
 endfacet
 facet normal  3.524478e-01  1.390418e-01 -9.254447e-01
   outer loop
     vertex  1.874302e-01  5.145981e-02  7.142041e-01
     vertex  1.865213e-01  5.305639e-02  7.140978e-01
     vertex  1.866675e-01  5.339307e-02  7.142041e-01
   endloop
 endfacet
 facet normal  3.524478e-01  1.390418e-01 -9.254447e-01
   outer loop
     vertex  1.874302e-01  5.145981e-02  7.142041e-01
     vertex  1.870935e-01  5.160600e-02  7.140978e-01
     vertex  1.865213e-01  5.305639e-02  7.140978e-01
   endloop
 endfacet
 facet normal -3.524478e-01 -1.390418e-01 -9.254447e-01
   outer loop
     vertex  1.841419e-01  5.016258e-02  7.142041e-01
     vertex  1.833793e-01  5.209584e-02  7.142041e-01
     vertex  1.842881e-01  5.049926e-02  7.140978e-01
   endloop
 endfacet
 facet normal -6.494520e-01 -2.562109e-01 -7.159386e-01
   outer loop
     vertex  1.841419e-01  5.016258e-02  7.142041e-01
     vertex  1.818701e-01  5.331256e-02  7.151376e-01
     vertex  1.833793e-01  5.209584e-02  7.142041e-01
   endloop
 endfacet
 facet normal  1.026484e-01 -1.703542e-01 -9.800218e-01
   outer loop
     vertex  1.863414e-01  5.080965e-02  7.140134e-01
     vertex  1.858518e-01  5.087317e-02  7.139510e-01
     vertex  1.859956e-01  5.095980e-02  7.139510e-01
   endloop
 endfacet
 facet normal  9.268532e-02 -2.349418e-01 -9.675804e-01
   outer loop
     vertex  1.863414e-01  5.080965e-02  7.140134e-01
     vertex  1.856957e-01  5.081157e-02  7.139510e-01
     vertex  1.858518e-01  5.087317e-02  7.139510e-01
   endloop
 endfacet
 facet normal  9.268532e-02 -2.349418e-01 -9.675804e-01
   outer loop
     vertex  1.853813e-01  5.043088e-02  7.140134e-01
     vertex  1.856957e-01  5.081157e-02  7.139510e-01
     vertex  1.863414e-01  5.080965e-02  7.140134e-01
   endloop
 endfacet
 facet normal  4.130861e-02 -1.945530e-01 -9.800218e-01
   outer loop
     vertex  1.853813e-01  5.043088e-02  7.140134e-01
     vertex  1.855315e-01  5.077670e-02  7.139510e-01
     vertex  1.856957e-01  5.081157e-02  7.139510e-01
   endloop
 endfacet
 facet normal  1.119786e-01 -2.838470e-01 -9.523086e-01
   outer loop
     vertex  1.866833e-01  5.066122e-02  7.140978e-01
     vertex  1.853813e-01  5.043088e-02  7.140134e-01
     vertex  1.863414e-01  5.080965e-02  7.140134e-01
   endloop
 endfacet
 facet normal  1.119786e-01 -2.838470e-01 -9.523086e-01
   outer loop
     vertex  1.852329e-01  5.008904e-02  7.140978e-01
     vertex  1.853813e-01  5.043088e-02  7.140134e-01
     vertex  1.866833e-01  5.066122e-02  7.140978e-01
   endloop
 endfacet
 facet normal  1.390418e-01 -3.524478e-01 -9.254447e-01
   outer loop
     vertex  1.870200e-01  5.051503e-02  7.142041e-01
     vertex  1.852329e-01  5.008904e-02  7.140978e-01
     vertex  1.866833e-01  5.066122e-02  7.140978e-01
   endloop
 endfacet
 facet normal  1.390418e-01 -3.524478e-01 -9.254447e-01
   outer loop
     vertex  1.850867e-01  4.975235e-02  7.142041e-01
     vertex  1.852329e-01  5.008904e-02  7.140978e-01
     vertex  1.870200e-01  5.051503e-02  7.142041e-01
   endloop
 endfacet
 facet normal  6.494520e-01  2.562109e-01 -7.159386e-01
   outer loop
     vertex  1.889393e-01  5.024309e-02  7.151376e-01
     vertex  1.874302e-01  5.145981e-02  7.142041e-01
     vertex  1.866675e-01  5.339307e-02  7.142041e-01
   endloop
 endfacet
 facet normal  4.413868e-01 -1.333768e-01 -8.873490e-01
   outer loop
     vertex  1.889393e-01  5.024309e-02  7.151376e-01
     vertex  1.873010e-01  5.114177e-02  7.141876e-01
     vertex  1.874302e-01  5.145981e-02  7.142041e-01
   endloop
 endfacet
 facet normal  4.171063e-01 -1.811086e-01 -8.906301e-01
   outer loop
     vertex  1.889393e-01  5.024309e-02  7.151376e-01
     vertex  1.871642e-01  5.082654e-02  7.141876e-01
     vertex  1.873010e-01  5.114177e-02  7.141876e-01
   endloop
 endfacet
 facet normal  3.988083e-01 -2.314380e-01 -8.873490e-01
   outer loop
     vertex  1.889393e-01  5.024309e-02  7.151376e-01
     vertex  1.870200e-01  5.051503e-02  7.142041e-01
     vertex  1.871642e-01  5.082654e-02  7.141876e-01
   endloop
 endfacet
 facet normal  2.562109e-01 -6.494520e-01 -7.159386e-01
   outer loop
     vertex  1.889393e-01  5.024309e-02  7.151376e-01
     vertex  1.850867e-01  4.975235e-02  7.142041e-01
     vertex  1.870200e-01  5.051503e-02  7.142041e-01
   endloop
 endfacet
 facet normal  6.494520e-01  2.562109e-01 -7.159386e-01
   outer loop
     vertex  1.889393e-01  5.024309e-02  7.151376e-01
     vertex  1.866675e-01  5.339307e-02  7.142041e-01
     vertex  1.869395e-01  5.531243e-02  7.151376e-01
   endloop
 endfacet
 facet normal  2.562109e-01 -6.494520e-01 -7.159386e-01
   outer loop
     vertex  1.838700e-01  4.824322e-02  7.151376e-01
     vertex  1.850867e-01  4.975235e-02  7.142041e-01
     vertex  1.889393e-01  5.024309e-02  7.151376e-01
   endloop
 endfacet
 facet normal -1.333768e-01 -4.413868e-01 -8.873490e-01
   outer loop
     vertex  1.838700e-01  4.824322e-02  7.151376e-01
     vertex  1.847687e-01  4.988151e-02  7.141876e-01
     vertex  1.850867e-01  4.975235e-02  7.142041e-01
   endloop
 endfacet
 facet normal -1.811086e-01 -4.171063e-01 -8.906301e-01
   outer loop
     vertex  1.838700e-01  4.824322e-02  7.151376e-01
     vertex  1.844534e-01  5.001838e-02  7.141876e-01
     vertex  1.847687e-01  4.988151e-02  7.141876e-01
   endloop
 endfacet
 facet normal -2.314380e-01 -3.988083e-01 -8.873490e-01
   outer loop
     vertex  1.838700e-01  4.824322e-02  7.151376e-01
     vertex  1.841419e-01  5.016258e-02  7.142041e-01
     vertex  1.844534e-01  5.001838e-02  7.141876e-01
   endloop
 endfacet
 facet normal -6.494520e-01 -2.562109e-01 -7.159386e-01
   outer loop
     vertex  1.838700e-01  4.824322e-02  7.151376e-01
     vertex  1.818701e-01  5.331256e-02  7.151376e-01
     vertex  1.841419e-01  5.016258e-02  7.142041e-01
   endloop
 endfacet
 facet normal -9.172645e-01  3.982785e-01  2.576779e-12
   outer loop
     vertex  1.862688e-01  5.247468e-02  7.162122e-01
     vertex  1.863729e-01  5.271454e-02  7.140134e-01
     vertex  1.862228e-01  5.236872e-02  7.139510e-01
   endloop
 endfacet
 facet normal -9.172645e-01  3.982785e-01 -1.201094e-12
   outer loop
     vertex  1.862688e-01  5.247468e-02  7.162122e-01
     vertex  1.865213e-01  5.305639e-02  7.140978e-01
     vertex  1.863729e-01  5.271454e-02  7.140134e-01
   endloop
 endfacet
 facet normal -9.172645e-01  3.982785e-01  2.009107e-11
   outer loop
     vertex  1.862688e-01  5.247468e-02  7.162122e-01
     vertex  1.866675e-01  5.339307e-02  7.142041e-01
     vertex  1.865213e-01  5.305639e-02  7.140978e-01
   endloop
 endfacet
 facet normal -9.172645e-01  3.982785e-01  2.703942e-12
   outer loop
     vertex  1.861469e-01  5.219414e-02  7.162122e-01
     vertex  1.862688e-01  5.247468e-02  7.162122e-01
     vertex  1.862228e-01  5.236872e-02  7.139510e-01
   endloop
 endfacet
 facet normal -0.000000e+00  0.000000e+00 -1.000000e+00
   outer loop
     vertex  1.855679e-01  5.261303e-02  7.162122e-01
     vertex  1.852022e-01  5.260436e-02  7.162122e-01
     vertex  1.853240e-01  5.288490e-02  7.162122e-01
   endloop
 endfacet
 facet normal  0.000000e+00  0.000000e+00 -1.000000e+00
   outer loop
     vertex  1.859035e-01  5.246731e-02  7.162122e-01
     vertex  1.855679e-01  5.261303e-02  7.162122e-01
     vertex  1.853240e-01  5.288490e-02  7.162122e-01
   endloop
 endfacet
 facet normal -0.000000e+00  0.000000e+00 -1.000000e+00
   outer loop
     vertex  1.862688e-01  5.247468e-02  7.162122e-01
     vertex  1.859035e-01  5.246731e-02  7.162122e-01
     vertex  1.853240e-01  5.288490e-02  7.162122e-01
   endloop
 endfacet
 facet normal  0.000000e+00  0.000000e+00 -1.000000e+00
   outer loop
     vertex  1.861469e-01  5.219414e-02  7.162122e-01
     vertex  1.859035e-01  5.246731e-02  7.162122e-01
     vertex  1.862688e-01  5.247468e-02  7.162122e-01
   endloop
 endfacet
 facet normal  9.172645e-01 -3.982785e-01 -5.439562e-11
   outer loop
     vertex  1.853240e-01  5.288490e-02  7.162122e-01
     vertex  1.855766e-01  5.346661e-02  7.140978e-01
     vertex  1.857227e-01  5.380330e-02  7.142041e-01
   endloop
 endfacet
 facet normal  9.172645e-01 -3.982785e-01 -1.159727e-11
   outer loop
     vertex  1.853240e-01  5.288490e-02  7.162122e-01
     vertex  1.854281e-01  5.312477e-02  7.140134e-01
     vertex  1.855766e-01  5.346661e-02  7.140978e-01
   endloop
 endfacet
 facet normal  9.172645e-01 -3.982785e-01 -6.525995e-12
   outer loop
     vertex  1.853240e-01  5.288490e-02  7.162122e-01
     vertex  1.852780e-01  5.277895e-02  7.139510e-01
     vertex  1.854281e-01  5.312477e-02  7.140134e-01
   endloop
 endfacet
 facet normal  9.172645e-01 -3.982785e-01 -2.703942e-12
   outer loop
     vertex  1.852022e-01  5.260436e-02  7.162122e-01
     vertex  1.852780e-01  5.277895e-02  7.139510e-01
     vertex  1.853240e-01  5.288490e-02  7.162122e-01
   endloop
 endfacet
 facet normal  4.482438e-01 -8.911564e-01 -7.012614e-02
   outer loop
     vertex  1.849576e-01  5.268248e-02  7.139510e-01
     vertex  1.850570e-01  5.255455e-02  7.162122e-01
     vertex  1.849884e-01  5.252004e-02  7.162122e-01
   endloop
 endfacet
 facet normal  5.148977e-01 -8.545183e-01 -6.840214e-02
   outer loop
     vertex  1.849576e-01  5.268248e-02  7.139510e-01
     vertex  1.849884e-01  5.252004e-02  7.162122e-01
     vertex  1.848138e-01  5.259585e-02  7.139510e-01
   endloop
 endfacet
 facet normal  2.809247e-01 -9.571644e-01 -7.012614e-02
   outer loop
     vertex  1.851138e-01  5.274408e-02  7.139510e-01
     vertex  1.852022e-01  5.260436e-02  7.162122e-01
     vertex  1.851285e-01  5.258274e-02  7.162122e-01
   endloop
 endfacet
 facet normal  3.661140e-01 -9.280379e-01 -6.860184e-02
   outer loop
     vertex  1.851138e-01  5.274408e-02  7.139510e-01
     vertex  1.851285e-01  5.258274e-02  7.162122e-01
     vertex  1.850570e-01  5.255455e-02  7.162122e-01
   endloop
 endfacet
 facet normal  3.661140e-01 -9.280379e-01 -6.860184e-02
   outer loop
     vertex  1.851138e-01  5.274408e-02  7.139510e-01
     vertex  1.850570e-01  5.255455e-02  7.162122e-01
     vertex  1.849576e-01  5.268248e-02  7.139510e-01
   endloop
 endfacet
 facet normal  2.072093e-01 -9.759024e-01 -6.840214e-02
   outer loop
     vertex  1.852780e-01  5.277895e-02  7.139510e-01
     vertex  1.852022e-01  5.260436e-02  7.162122e-01
     vertex  1.851138e-01  5.274408e-02  7.139510e-01
   endloop
 endfacet
 facet normal -3.982785e-01 -9.172645e-01  4.939892e-12
   outer loop
     vertex  1.847079e-01  5.264185e-02  7.162122e-01
     vertex  1.844680e-01  5.274600e-02  7.140134e-01
     vertex  1.848138e-01  5.259585e-02  7.139510e-01
   endloop
 endfacet
 facet normal -3.982785e-01 -9.172645e-01  1.902805e-11
   outer loop
     vertex  1.847079e-01  5.264185e-02  7.162122e-01
     vertex  1.841262e-01  5.289443e-02  7.140978e-01
     vertex  1.844680e-01  5.274600e-02  7.140134e-01
   endloop
 endfacet
 facet normal -3.982785e-01 -9.172645e-01  4.070605e-11
   outer loop
     vertex  1.847079e-01  5.264185e-02  7.162122e-01
     vertex  1.837895e-01  5.304062e-02  7.142041e-01
     vertex  1.841262e-01  5.289443e-02  7.140978e-01
   endloop
 endfacet
 facet normal -3.982785e-01 -9.172645e-01  1.515791e-13
   outer loop
     vertex  1.849884e-01  5.252004e-02  7.162122e-01
     vertex  1.847079e-01  5.264185e-02  7.162122e-01
     vertex  1.848138e-01  5.259585e-02  7.139510e-01
   endloop
 endfacet
 facet normal  0.000000e+00  0.000000e+00 -1.000000e+00
   outer loop
     vertex  1.848386e-01  5.241319e-02  7.162122e-01
     vertex  1.847079e-01  5.264185e-02  7.162122e-01
     vertex  1.849884e-01  5.252004e-02  7.162122e-01
   endloop
 endfacet
 facet normal  0.000000e+00  0.000000e+00 -1.000000e+00
   outer loop
     vertex  1.847153e-01  5.227664e-02  7.162122e-01
     vertex  1.847079e-01  5.264185e-02  7.162122e-01
     vertex  1.848386e-01  5.241319e-02  7.162122e-01
   endloop
 endfacet
 facet normal  0.000000e+00  0.000000e+00 -1.000000e+00
   outer loop
     vertex  1.846241e-01  5.211676e-02  7.162122e-01
     vertex  1.847079e-01  5.264185e-02  7.162122e-01
     vertex  1.847153e-01  5.227664e-02  7.162122e-01
   endloop
 endfacet
 facet normal  0.000000e+00  0.000000e+00 -1.000000e+00
   outer loop
     vertex  1.842977e-01  5.169707e-02  7.162122e-01
     vertex  1.846241e-01  5.211676e-02  7.162122e-01
     vertex  1.845695e-01  5.194103e-02  7.162122e-01
   endloop
 endfacet
 facet normal -0.000000e+00  0.000000e+00 -1.000000e+00
   outer loop
     vertex  1.845540e-01  5.175767e-02  7.162122e-01
     vertex  1.842977e-01  5.169707e-02  7.162122e-01
     vertex  1.845695e-01  5.194103e-02  7.162122e-01
   endloop
 endfacet
 facet normal  0.000000e+00  0.000000e+00 -1.000000e+00
   outer loop
     vertex  1.845782e-01  5.157526e-02  7.162122e-01
     vertex  1.842977e-01  5.169707e-02  7.162122e-01
     vertex  1.845540e-01  5.175767e-02  7.162122e-01
   endloop
 endfacet
 facet normal  0.000000e+00  0.000000e+00 -1.000000e+00
   outer loop
     vertex  1.842977e-01  5.169707e-02  7.162122e-01
     vertex  1.847079e-01  5.264185e-02  7.162122e-01
     vertex  1.846241e-01  5.211676e-02  7.162122e-01
   endloop
 endfacet
 facet normal  3.982785e-01  9.172645e-01 -4.274220e-11
   outer loop
     vertex  1.842977e-01  5.169707e-02  7.162122e-01
     vertex  1.837159e-01  5.194965e-02  7.140978e-01
     vertex  1.833793e-01  5.209584e-02  7.142041e-01
   endloop
 endfacet
 facet normal  3.982785e-01  9.172645e-01 -9.964667e-12
   outer loop
     vertex  1.842977e-01  5.169707e-02  7.162122e-01
     vertex  1.840578e-01  5.180122e-02  7.140134e-01
     vertex  1.837159e-01  5.194965e-02  7.140978e-01
   endloop
 endfacet
 facet normal  3.982785e-01  9.172645e-01  6.395113e-13
   outer loop
     vertex  1.842977e-01  5.169707e-02  7.162122e-01
     vertex  1.844036e-01  5.165106e-02  7.139510e-01
     vertex  1.840578e-01  5.180122e-02  7.140134e-01
   endloop
 endfacet
 facet normal  3.982785e-01  9.172645e-01  5.613138e-12
   outer loop
     vertex  1.842977e-01  5.169707e-02  7.162122e-01
     vertex  1.845782e-01  5.157526e-02  7.162122e-01
     vertex  1.844036e-01  5.165106e-02  7.139510e-01
   endloop
 endfacet
 facet normal  8.545183e-01  5.148977e-01 -6.840214e-02
   outer loop
     vertex  1.845001e-01  5.133071e-02  7.139510e-01
     vertex  1.846625e-01  5.136151e-02  7.162122e-01
     vertex  1.845867e-01  5.118693e-02  7.139510e-01
   endloop
 endfacet
 facet normal  9.280379e-01  3.661140e-01 -6.860184e-02
   outer loop
     vertex  1.845001e-01  5.133071e-02  7.139510e-01
     vertex  1.845998e-01  5.150157e-02  7.162122e-01
     vertex  1.846280e-01  5.143012e-02  7.162122e-01
   endloop
 endfacet
 facet normal  8.911564e-01  4.482438e-01 -7.012614e-02
   outer loop
     vertex  1.845001e-01  5.133071e-02  7.139510e-01
     vertex  1.846280e-01  5.143012e-02  7.162122e-01
     vertex  1.846625e-01  5.136151e-02  7.162122e-01
   endloop
 endfacet
 facet normal  9.571644e-01  2.809247e-01 -7.012614e-02
   outer loop
     vertex  1.844385e-01  5.148686e-02  7.139510e-01
     vertex  1.845782e-01  5.157526e-02  7.162122e-01
     vertex  1.845998e-01  5.150157e-02  7.162122e-01
   endloop
 endfacet
 facet normal  9.280379e-01  3.661140e-01 -6.860184e-02
   outer loop
     vertex  1.844385e-01  5.148686e-02  7.139510e-01
     vertex  1.845998e-01  5.150157e-02  7.162122e-01
     vertex  1.845001e-01  5.133071e-02  7.139510e-01
   endloop
 endfacet
 facet normal  9.759024e-01  2.072093e-01 -6.840214e-02
   outer loop
     vertex  1.844036e-01  5.165106e-02  7.139510e-01
     vertex  1.845782e-01  5.157526e-02  7.162122e-01
     vertex  1.844385e-01  5.148686e-02  7.139510e-01
   endloop
 endfacet
 facet normal  9.172645e-01 -3.982785e-01 -7.381989e-12
   outer loop
     vertex  1.845407e-01  5.108097e-02  7.162122e-01
     vertex  1.844366e-01  5.084111e-02  7.140134e-01
     vertex  1.845867e-01  5.118693e-02  7.139510e-01
   endloop
 endfacet
 facet normal  9.172645e-01 -3.982785e-01 -1.652971e-11
   outer loop
     vertex  1.845407e-01  5.108097e-02  7.162122e-01
     vertex  1.842881e-01  5.049926e-02  7.140978e-01
     vertex  1.844366e-01  5.084111e-02  7.140134e-01
   endloop
 endfacet
 facet normal  9.172645e-01 -3.982785e-01  1.869108e-12
   outer loop
     vertex  1.845407e-01  5.108097e-02  7.162122e-01
     vertex  1.841419e-01  5.016258e-02  7.142041e-01
     vertex  1.842881e-01  5.049926e-02  7.140978e-01
   endloop
 endfacet
 facet normal  9.172645e-01 -3.982785e-01 -2.913374e-12
   outer loop
     vertex  1.845407e-01  5.108097e-02  7.162122e-01
     vertex  1.845867e-01  5.118693e-02  7.139510e-01
     vertex  1.846625e-01  5.136151e-02  7.162122e-01
   endloop
 endfacet
 facet normal -0.000000e+00  0.000000e+00 -1.000000e+00
   outer loop
     vertex  1.849059e-01  5.108834e-02  7.162122e-01
     vertex  1.845407e-01  5.108097e-02  7.162122e-01
     vertex  1.846625e-01  5.136151e-02  7.162122e-01
   endloop
 endfacet
 facet normal  0.000000e+00  0.000000e+00 -1.000000e+00
   outer loop
     vertex  1.854855e-01  5.067075e-02  7.162122e-01
     vertex  1.852415e-01  5.094262e-02  7.162122e-01
     vertex  1.856073e-01  5.095129e-02  7.162122e-01
   endloop
 endfacet
 facet normal  0.000000e+00  0.000000e+00 -1.000000e+00
   outer loop
     vertex  1.854855e-01  5.067075e-02  7.162122e-01
     vertex  1.845407e-01  5.108097e-02  7.162122e-01
     vertex  1.852415e-01  5.094262e-02  7.162122e-01
   endloop
 endfacet
 facet normal  0.000000e+00  0.000000e+00 -1.000000e+00
   outer loop
     vertex  1.852415e-01  5.094262e-02  7.162122e-01
     vertex  1.845407e-01  5.108097e-02  7.162122e-01
     vertex  1.849059e-01  5.108834e-02  7.162122e-01
   endloop
 endfacet
 facet normal -9.172645e-01  3.982785e-01  8.208328e-12
   outer loop
     vertex  1.854855e-01  5.067075e-02  7.162122e-01
     vertex  1.852329e-01  5.008904e-02  7.140978e-01
     vertex  1.850867e-01  4.975235e-02  7.142041e-01
   endloop
 endfacet
 facet normal -9.172645e-01  3.982785e-01  3.567026e-11
   outer loop
     vertex  1.854855e-01  5.067075e-02  7.162122e-01
     vertex  1.853813e-01  5.043088e-02  7.140134e-01
     vertex  1.852329e-01  5.008904e-02  7.140978e-01
   endloop
 endfacet
 facet normal -9.172645e-01  3.982785e-01  1.133120e-11
   outer loop
     vertex  1.854855e-01  5.067075e-02  7.162122e-01
     vertex  1.855315e-01  5.077670e-02  7.139510e-01
     vertex  1.853813e-01  5.043088e-02  7.140134e-01
   endloop
 endfacet
 facet normal -9.172645e-01  3.982785e-01  2.913374e-12
   outer loop
     vertex  1.854855e-01  5.067075e-02  7.162122e-01
     vertex  1.856073e-01  5.095129e-02  7.162122e-01
     vertex  1.855315e-01  5.077670e-02  7.139510e-01
   endloop
 endfacet
 facet normal -4.482438e-01  8.911564e-01 -7.012614e-02
   outer loop
     vertex  1.858518e-01  5.087317e-02  7.139510e-01
     vertex  1.857524e-01  5.100110e-02  7.162122e-01
     vertex  1.858210e-01  5.103561e-02  7.162122e-01
   endloop
 endfacet
 facet normal -5.148977e-01  8.545183e-01 -6.840214e-02
   outer loop
     vertex  1.858518e-01  5.087317e-02  7.139510e-01
     vertex  1.858210e-01  5.103561e-02  7.162122e-01
     vertex  1.859956e-01  5.095980e-02  7.139510e-01
   endloop
 endfacet
 facet normal -3.661140e-01  9.280379e-01 -6.860184e-02
   outer loop
     vertex  1.856957e-01  5.081157e-02  7.139510e-01
     vertex  1.856810e-01  5.097291e-02  7.162122e-01
     vertex  1.857524e-01  5.100110e-02  7.162122e-01
   endloop
 endfacet
 facet normal -2.809247e-01  9.571644e-01 -7.012614e-02
   outer loop
     vertex  1.856957e-01  5.081157e-02  7.139510e-01
     vertex  1.856073e-01  5.095129e-02  7.162122e-01
     vertex  1.856810e-01  5.097291e-02  7.162122e-01
   endloop
 endfacet
 facet normal -3.661140e-01  9.280379e-01 -6.860184e-02
   outer loop
     vertex  1.856957e-01  5.081157e-02  7.139510e-01
     vertex  1.857524e-01  5.100110e-02  7.162122e-01
     vertex  1.858518e-01  5.087317e-02  7.139510e-01
   endloop
 endfacet
 facet normal -2.072093e-01  9.759024e-01 -6.840214e-02
   outer loop
     vertex  1.855315e-01  5.077670e-02  7.139510e-01
     vertex  1.856073e-01  5.095129e-02  7.162122e-01
     vertex  1.856957e-01  5.081157e-02  7.139510e-01
   endloop
 endfacet
 facet normal  3.982785e-01  9.172645e-01 -1.728691e-12
   outer loop
     vertex  1.861016e-01  5.091380e-02  7.162122e-01
     vertex  1.863414e-01  5.080965e-02  7.140134e-01
     vertex  1.859956e-01  5.095980e-02  7.139510e-01
   endloop
 endfacet
 facet normal  3.982785e-01  9.172645e-01 -2.902540e-11
   outer loop
     vertex  1.861016e-01  5.091380e-02  7.162122e-01
     vertex  1.866833e-01  5.066122e-02  7.140978e-01
     vertex  1.863414e-01  5.080965e-02  7.140134e-01
   endloop
 endfacet
 facet normal  3.982785e-01  9.172645e-01 -7.854154e-11
   outer loop
     vertex  1.861016e-01  5.091380e-02  7.162122e-01
     vertex  1.870200e-01  5.051503e-02  7.142041e-01
     vertex  1.866833e-01  5.066122e-02  7.140978e-01
   endloop
 endfacet
 facet normal  3.982785e-01  9.172645e-01  9.031703e-12
   outer loop
     vertex  1.858210e-01  5.103561e-02  7.162122e-01
     vertex  1.861016e-01  5.091380e-02  7.162122e-01
     vertex  1.859956e-01  5.095980e-02  7.139510e-01
   endloop
 endfacet
 facet normal  0.000000e+00  0.000000e+00 -1.000000e+00
   outer loop
     vertex  1.862399e-01  5.161462e-02  7.162122e-01
     vertex  1.862313e-01  5.198039e-02  7.162122e-01
     vertex  1.865118e-01  5.185858e-02  7.162122e-01
   endloop
 endfacet
 facet normal  0.000000e+00  0.000000e+00 -1.000000e+00
   outer loop
     vertex  1.861016e-01  5.091380e-02  7.162122e-01
     vertex  1.860942e-01  5.127901e-02  7.162122e-01
     vertex  1.862399e-01  5.161462e-02  7.162122e-01
   endloop
 endfacet
 facet normal  0.000000e+00  0.000000e+00 -1.000000e+00
   outer loop
     vertex  1.861016e-01  5.091380e-02  7.162122e-01
     vertex  1.858210e-01  5.103561e-02  7.162122e-01
     vertex  1.860942e-01  5.127901e-02  7.162122e-01
   endloop
 endfacet
 facet normal  0.000000e+00  0.000000e+00 -1.000000e+00
   outer loop
     vertex  1.861016e-01  5.091380e-02  7.162122e-01
     vertex  1.862399e-01  5.161462e-02  7.162122e-01
     vertex  1.865118e-01  5.185858e-02  7.162122e-01
   endloop
 endfacet
 facet normal -3.982785e-01 -9.172645e-01  3.415956e-11
   outer loop
     vertex  1.865118e-01  5.185858e-02  7.162122e-01
     vertex  1.870935e-01  5.160600e-02  7.140978e-01
     vertex  1.874302e-01  5.145981e-02  7.142041e-01
   endloop
 endfacet
 facet normal -3.982785e-01 -9.172645e-01  1.246733e-11
   outer loop
     vertex  1.865118e-01  5.185858e-02  7.162122e-01
     vertex  1.867517e-01  5.175443e-02  7.140134e-01
     vertex  1.870935e-01  5.160600e-02  7.140978e-01
   endloop
 endfacet
 facet normal -3.982785e-01 -9.172645e-01  4.153783e-12
   outer loop
     vertex  1.865118e-01  5.185858e-02  7.162122e-01
     vertex  1.864059e-01  5.190459e-02  7.139510e-01
     vertex  1.867517e-01  5.175443e-02  7.140134e-01
   endloop
 endfacet
 facet normal -3.982785e-01 -9.172645e-01  1.739117e-12
   outer loop
     vertex  1.865118e-01  5.185858e-02  7.162122e-01
     vertex  1.862313e-01  5.198039e-02  7.162122e-01
     vertex  1.864059e-01  5.190459e-02  7.139510e-01
   endloop
 endfacet
 facet normal -8.545183e-01 -5.148977e-01 -6.840214e-02
   outer loop
     vertex  1.863094e-01  5.222494e-02  7.139510e-01
     vertex  1.861469e-01  5.219414e-02  7.162122e-01
     vertex  1.862228e-01  5.236872e-02  7.139510e-01
   endloop
 endfacet
 facet normal -9.280379e-01 -3.661140e-01 -6.860184e-02
   outer loop
     vertex  1.863094e-01  5.222494e-02  7.139510e-01
     vertex  1.862096e-01  5.205408e-02  7.162122e-01
     vertex  1.861815e-01  5.212553e-02  7.162122e-01
   endloop
 endfacet
 facet normal -8.911564e-01 -4.482438e-01 -7.012614e-02
   outer loop
     vertex  1.863094e-01  5.222494e-02  7.139510e-01
     vertex  1.861815e-01  5.212553e-02  7.162122e-01
     vertex  1.861469e-01  5.219414e-02  7.162122e-01
   endloop
 endfacet
 facet normal -9.571644e-01 -2.809247e-01 -7.012614e-02
   outer loop
     vertex  1.863710e-01  5.206879e-02  7.139510e-01
     vertex  1.862313e-01  5.198039e-02  7.162122e-01
     vertex  1.862096e-01  5.205408e-02  7.162122e-01
   endloop
 endfacet
 facet normal -9.280379e-01 -3.661140e-01 -6.860184e-02
   outer loop
     vertex  1.863710e-01  5.206879e-02  7.139510e-01
     vertex  1.862096e-01  5.205408e-02  7.162122e-01
     vertex  1.863094e-01  5.222494e-02  7.139510e-01
   endloop
 endfacet
 facet normal -9.759024e-01 -2.072093e-01 -6.840214e-02
   outer loop
     vertex  1.864059e-01  5.190459e-02  7.139510e-01
     vertex  1.862313e-01  5.198039e-02  7.162122e-01
     vertex  1.863710e-01  5.206879e-02  7.139510e-01
   endloop
 endfacet
 facet normal  2.699129e-01 -1.538148e-01 -9.505199e-01
   outer loop
     vertex  1.847153e-01  5.227664e-02  7.162122e-01
     vertex  1.854047e-01  5.177782e-02  7.164887e-01
     vertex  1.846241e-01  5.211676e-02  7.162122e-01
   endloop
 endfacet
 facet normal  2.305371e-01 -2.082417e-01 -9.505199e-01
   outer loop
     vertex  1.848386e-01  5.241319e-02  7.162122e-01
     vertex  1.854047e-01  5.177782e-02  7.164887e-01
     vertex  1.847153e-01  5.227664e-02  7.162122e-01
   endloop
 endfacet
 facet normal  1.803819e-01 -2.529315e-01 -9.505199e-01
   outer loop
     vertex  1.849884e-01  5.252004e-02  7.162122e-01
     vertex  1.854047e-01  5.177782e-02  7.164887e-01
     vertex  1.848386e-01  5.241319e-02  7.162122e-01
   endloop
 endfacet
 facet normal  1.389849e-01 -2.763167e-01 -9.509639e-01
   outer loop
     vertex  1.850570e-01  5.255455e-02  7.162122e-01
     vertex  1.854047e-01  5.177782e-02  7.164887e-01
     vertex  1.849884e-01  5.252004e-02  7.162122e-01
   endloop
 endfacet
 facet normal  1.135072e-01 -2.877218e-01 -9.509639e-01
   outer loop
     vertex  1.851285e-01  5.258274e-02  7.162122e-01
     vertex  1.854047e-01  5.177782e-02  7.164887e-01
     vertex  1.850570e-01  5.255455e-02  7.162122e-01
   endloop
 endfacet
 facet normal  8.710501e-02 -2.967834e-01 -9.509639e-01
   outer loop
     vertex  1.852022e-01  5.260436e-02  7.162122e-01
     vertex  1.854047e-01  5.177782e-02  7.164887e-01
     vertex  1.851285e-01  5.258274e-02  7.162122e-01
   endloop
 endfacet
 facet normal  7.474913e-03 -3.155965e-01 -9.488640e-01
   outer loop
     vertex  1.855679e-01  5.261303e-02  7.162122e-01
     vertex  1.854047e-01  5.177782e-02  7.164887e-01
     vertex  1.852022e-01  5.260436e-02  7.162122e-01
   endloop
 endfacet
 facet normal -1.257306e-01 -2.895667e-01 -9.488640e-01
   outer loop
     vertex  1.859035e-01  5.246731e-02  7.162122e-01
     vertex  1.854047e-01  5.177782e-02  7.164887e-01
     vertex  1.855679e-01  5.261303e-02  7.162122e-01
   endloop
 endfacet
 facet normal -2.356952e-01 -2.100115e-01 -9.488640e-01
   outer loop
     vertex  1.861469e-01  5.219414e-02  7.162122e-01
     vertex  1.854047e-01  5.177782e-02  7.164887e-01
     vertex  1.859035e-01  5.246731e-02  7.162122e-01
   endloop
 endfacet
 facet normal -2.763167e-01 -1.389849e-01 -9.509639e-01
   outer loop
     vertex  1.861815e-01  5.212553e-02  7.162122e-01
     vertex  1.854047e-01  5.177782e-02  7.164887e-01
     vertex  1.861469e-01  5.219414e-02  7.162122e-01
   endloop
 endfacet
 facet normal -2.877218e-01 -1.135072e-01 -9.509639e-01
   outer loop
     vertex  1.862096e-01  5.205408e-02  7.162122e-01
     vertex  1.854047e-01  5.177782e-02  7.164887e-01
     vertex  1.861815e-01  5.212553e-02  7.162122e-01
   endloop
 endfacet
 facet normal -2.967834e-01 -8.710501e-02 -9.509639e-01
   outer loop
     vertex  1.862313e-01  5.198039e-02  7.162122e-01
     vertex  1.854047e-01  5.177782e-02  7.164887e-01
     vertex  1.862096e-01  5.205408e-02  7.162122e-01
   endloop
 endfacet
 facet normal -3.155965e-01 -7.474913e-03 -9.488640e-01
   outer loop
     vertex  1.862399e-01  5.161462e-02  7.162122e-01
     vertex  1.854047e-01  5.177782e-02  7.164887e-01
     vertex  1.862313e-01  5.198039e-02  7.162122e-01
   endloop
 endfacet
 facet normal -1.389849e-01  2.763167e-01 -9.509639e-01
   outer loop
     vertex  1.854047e-01  5.177782e-02  7.164887e-01
     vertex  1.858210e-01  5.103561e-02  7.162122e-01
     vertex  1.857524e-01  5.100110e-02  7.162122e-01
   endloop
 endfacet
 facet normal -1.135072e-01  2.877218e-01 -9.509639e-01
   outer loop
     vertex  1.854047e-01  5.177782e-02  7.164887e-01
     vertex  1.857524e-01  5.100110e-02  7.162122e-01
     vertex  1.856810e-01  5.097291e-02  7.162122e-01
   endloop
 endfacet
 facet normal -8.710501e-02  2.967834e-01 -9.509639e-01
   outer loop
     vertex  1.854047e-01  5.177782e-02  7.164887e-01
     vertex  1.856810e-01  5.097291e-02  7.162122e-01
     vertex  1.856073e-01  5.095129e-02  7.162122e-01
   endloop
 endfacet
 facet normal -2.895667e-01  1.257306e-01 -9.488640e-01
   outer loop
     vertex  1.854047e-01  5.177782e-02  7.164887e-01
     vertex  1.862399e-01  5.161462e-02  7.162122e-01
     vertex  1.860942e-01  5.127901e-02  7.162122e-01
   endloop
 endfacet
 facet normal -2.100115e-01  2.356952e-01 -9.488640e-01
   outer loop
     vertex  1.854047e-01  5.177782e-02  7.164887e-01
     vertex  1.860942e-01  5.127901e-02  7.162122e-01
     vertex  1.858210e-01  5.103561e-02  7.162122e-01
   endloop
 endfacet
 facet normal  0.000000e+00  0.000000e+00  0.000000e+00
   outer loop
     vertex  1.854047e-01  5.177782e-02  7.164887e-01
     vertex  1.854047e-01  5.177782e-02  7.164887e-01
     vertex  1.862399e-01  5.161462e-02  7.162122e-01
   endloop
 endfacet
 facet normal -7.474913e-03  3.155965e-01 -9.488640e-01
   outer loop
     vertex  1.852415e-01  5.094262e-02  7.162122e-01
     vertex  1.854047e-01  5.177782e-02  7.164887e-01
     vertex  1.856073e-01  5.095129e-02  7.162122e-01
   endloop
 endfacet
 facet normal  1.257306e-01  2.895667e-01 -9.488640e-01
   outer loop
     vertex  1.849059e-01  5.108834e-02  7.162122e-01
     vertex  1.854047e-01  5.177782e-02  7.164887e-01
     vertex  1.852415e-01  5.094262e-02  7.162122e-01
   endloop
 endfacet
 facet normal  2.356952e-01  2.100115e-01 -9.488640e-01
   outer loop
     vertex  1.846625e-01  5.136151e-02  7.162122e-01
     vertex  1.854047e-01  5.177782e-02  7.164887e-01
     vertex  1.849059e-01  5.108834e-02  7.162122e-01
   endloop
 endfacet
 facet normal  2.763167e-01  1.389849e-01 -9.509639e-01
   outer loop
     vertex  1.846280e-01  5.143012e-02  7.162122e-01
     vertex  1.854047e-01  5.177782e-02  7.164887e-01
     vertex  1.846625e-01  5.136151e-02  7.162122e-01
   endloop
 endfacet
 facet normal  2.877218e-01  1.135072e-01 -9.509639e-01
   outer loop
     vertex  1.845998e-01  5.150157e-02  7.162122e-01
     vertex  1.854047e-01  5.177782e-02  7.164887e-01
     vertex  1.846280e-01  5.143012e-02  7.162122e-01
   endloop
 endfacet
 facet normal  2.967834e-01  8.710501e-02 -9.509639e-01
   outer loop
     vertex  1.845782e-01  5.157526e-02  7.162122e-01
     vertex  1.854047e-01  5.177782e-02  7.164887e-01
     vertex  1.845998e-01  5.150157e-02  7.162122e-01
   endloop
 endfacet
 facet normal  3.079607e-01  4.089189e-02 -9.505199e-01
   outer loop
     vertex  1.845540e-01  5.175767e-02  7.162122e-01
     vertex  1.854047e-01  5.177782e-02  7.164887e-01
     vertex  1.845782e-01  5.157526e-02  7.162122e-01
   endloop
 endfacet
 facet normal  3.095514e-01 -2.626610e-02 -9.505199e-01
   outer loop
     vertex  1.845695e-01  5.194103e-02  7.162122e-01
     vertex  1.854047e-01  5.177782e-02  7.164887e-01
     vertex  1.845540e-01  5.175767e-02  7.162122e-01
   endloop
 endfacet
 facet normal  2.966679e-01 -9.219593e-02 -9.505199e-01
   outer loop
     vertex  1.846241e-01  5.211676e-02  7.162122e-01
     vertex  1.854047e-01  5.177782e-02  7.164887e-01
     vertex  1.845695e-01  5.194103e-02  7.162122e-01
   endloop
 endfacet
 facet normal -8.208916e-01  3.564331e-01 -4.461978e-01
   outer loop
     vertex  1.865118e-01  5.185858e-02  7.162122e-01
     vertex  1.874302e-01  5.145981e-02  7.142041e-01
     vertex  1.873010e-01  5.114177e-02  7.141876e-01
   endloop
 endfacet
 facet normal -8.208916e-01  3.564331e-01 -4.461978e-01
   outer loop
     vertex  1.861016e-01  5.091380e-02  7.162122e-01
     vertex  1.873010e-01  5.114177e-02  7.141876e-01
     vertex  1.871642e-01  5.082654e-02  7.141876e-01
   endloop
 endfacet
 facet normal -8.208916e-01  3.564331e-01 -4.461978e-01
   outer loop
     vertex  1.861016e-01  5.091380e-02  7.162122e-01
     vertex  1.871642e-01  5.082654e-02  7.141876e-01
     vertex  1.870200e-01  5.051503e-02  7.142041e-01
   endloop
 endfacet
 facet normal -8.208916e-01  3.564331e-01 -4.461978e-01
   outer loop
     vertex  1.861016e-01  5.091380e-02  7.162122e-01
     vertex  1.865118e-01  5.185858e-02  7.162122e-01
     vertex  1.873010e-01  5.114177e-02  7.141876e-01
   endloop
 endfacet
 facet normal  3.564331e-01  8.208916e-01 -4.461978e-01
   outer loop
     vertex  1.844534e-01  5.001838e-02  7.141876e-01
     vertex  1.841419e-01  5.016258e-02  7.142041e-01
     vertex  1.845407e-01  5.108097e-02  7.162122e-01
   endloop
 endfacet
 facet normal  3.564331e-01  8.208916e-01 -4.461978e-01
   outer loop
     vertex  1.844534e-01  5.001838e-02  7.141876e-01
     vertex  1.845407e-01  5.108097e-02  7.162122e-01
     vertex  1.854855e-01  5.067075e-02  7.162122e-01
   endloop
 endfacet
 facet normal  3.564331e-01  8.208916e-01 -4.461978e-01
   outer loop
     vertex  1.847687e-01  4.988151e-02  7.141876e-01
     vertex  1.844534e-01  5.001838e-02  7.141876e-01
     vertex  1.854855e-01  5.067075e-02  7.162122e-01
   endloop
 endfacet
 facet normal  3.564331e-01  8.208916e-01 -4.461978e-01
   outer loop
     vertex  1.850867e-01  4.975235e-02  7.142041e-01
     vertex  1.847687e-01  4.988151e-02  7.141876e-01
     vertex  1.854855e-01  5.067075e-02  7.162122e-01
   endloop
 endfacet
 facet normal  8.208916e-01 -3.564331e-01 -4.461978e-01
   outer loop
     vertex  1.836453e-01  5.272911e-02  7.141876e-01
     vertex  1.837895e-01  5.304062e-02  7.142041e-01
     vertex  1.847079e-01  5.264185e-02  7.162122e-01
   endloop
 endfacet
 facet normal  8.208916e-01 -3.564331e-01 -4.461978e-01
   outer loop
     vertex  1.835084e-01  5.241388e-02  7.141876e-01
     vertex  1.847079e-01  5.264185e-02  7.162122e-01
     vertex  1.842977e-01  5.169707e-02  7.162122e-01
   endloop
 endfacet
 facet normal  8.208916e-01 -3.564331e-01 -4.461978e-01
   outer loop
     vertex  1.835084e-01  5.241388e-02  7.141876e-01
     vertex  1.836453e-01  5.272911e-02  7.141876e-01
     vertex  1.847079e-01  5.264185e-02  7.162122e-01
   endloop
 endfacet
 facet normal  8.208916e-01 -3.564331e-01 -4.461978e-01
   outer loop
     vertex  1.833793e-01  5.209584e-02  7.142041e-01
     vertex  1.835084e-01  5.241388e-02  7.141876e-01
     vertex  1.842977e-01  5.169707e-02  7.162122e-01
   endloop
 endfacet
 facet normal -3.564331e-01 -8.208916e-01 -4.461978e-01
   outer loop
     vertex  1.853240e-01  5.288490e-02  7.162122e-01
     vertex  1.857227e-01  5.380330e-02  7.142041e-01
     vertex  1.860408e-01  5.367414e-02  7.141876e-01
   endloop
 endfacet
 facet normal -3.564331e-01 -8.208916e-01 -4.461978e-01
   outer loop
     vertex  1.853240e-01  5.288490e-02  7.162122e-01
     vertex  1.860408e-01  5.367414e-02  7.141876e-01
     vertex  1.863560e-01  5.353727e-02  7.141876e-01
   endloop
 endfacet
 facet normal -3.564331e-01 -8.208916e-01 -4.461978e-01
   outer loop
     vertex  1.862688e-01  5.247468e-02  7.162122e-01
     vertex  1.863560e-01  5.353727e-02  7.141876e-01
     vertex  1.866675e-01  5.339307e-02  7.142041e-01
   endloop
 endfacet
 facet normal -3.564331e-01 -8.208916e-01 -4.461978e-01
   outer loop
     vertex  1.862688e-01  5.247468e-02  7.162122e-01
     vertex  1.853240e-01  5.288490e-02  7.162122e-01
     vertex  1.863560e-01  5.353727e-02  7.141876e-01
   endloop
 endfacet
endsolid
