solid 
 facet normal  3.272535e-01 -1.358991e-01 -9.351131e-01
   outer loop
     vertex  1.873456e-01  1.165797e-01  2.767454e-01
     vertex  1.874380e-01  1.166179e-01  2.767722e-01
     vertex  1.862448e-01  1.137445e-01  2.767722e-01
   endloop
 endfacet
 facet normal  9.073904e-01 -3.768134e-01 -1.861568e-01
   outer loop
     vertex  1.872532e-01  1.165415e-01  2.765722e-01
     vertex  1.872779e-01  1.165518e-01  2.766722e-01
     vertex  1.861684e-01  1.139294e-01  2.765722e-01
   endloop
 endfacet
 facet normal  1.358991e-01  3.272535e-01 -9.351131e-01
   outer loop
     vertex  1.846028e-01  1.177187e-01  2.767454e-01
     vertex  1.874380e-01  1.166179e-01  2.767722e-01
     vertex  1.873456e-01  1.165797e-01  2.767454e-01
   endloop
 endfacet
 facet normal  1.358991e-01  3.272535e-01 -9.351131e-01
   outer loop
     vertex  1.846028e-01  1.177187e-01  2.767454e-01
     vertex  1.845647e-01  1.178111e-01  2.767722e-01
     vertex  1.874380e-01  1.166179e-01  2.767722e-01
   endloop
 endfacet
 facet normal  3.768134e-01  9.073904e-01 -1.861568e-01
   outer loop
     vertex  1.846308e-01  1.176510e-01  2.766722e-01
     vertex  1.872532e-01  1.165415e-01  2.765722e-01
     vertex  1.846410e-01  1.176263e-01  2.765722e-01
   endloop
 endfacet
 facet normal  3.131405e-01  7.540621e-01 -5.773503e-01
   outer loop
     vertex  1.846308e-01  1.176510e-01  2.766722e-01
     vertex  1.873456e-01  1.165797e-01  2.767454e-01
     vertex  1.872779e-01  1.165518e-01  2.766722e-01
   endloop
 endfacet
 facet normal  3.768134e-01  9.073904e-01 -1.861568e-01
   outer loop
     vertex  1.846308e-01  1.176510e-01  2.766722e-01
     vertex  1.872779e-01  1.165518e-01  2.766722e-01
     vertex  1.872532e-01  1.165415e-01  2.765722e-01
   endloop
 endfacet
 facet normal  3.131405e-01  7.540621e-01 -5.773503e-01
   outer loop
     vertex  1.846308e-01  1.176510e-01  2.766722e-01
     vertex  1.846028e-01  1.177187e-01  2.767454e-01
     vertex  1.873456e-01  1.165797e-01  2.767454e-01
   endloop
 endfacet
 facet normal -3.272535e-01  1.358991e-01 -9.351131e-01
   outer loop
     vertex  1.834639e-01  1.149759e-01  2.767454e-01
     vertex  1.833714e-01  1.149378e-01  2.767722e-01
     vertex  1.845647e-01  1.178111e-01  2.767722e-01
   endloop
 endfacet
 facet normal -3.272535e-01  1.358991e-01 -9.351131e-01
   outer loop
     vertex  1.834639e-01  1.149759e-01  2.767454e-01
     vertex  1.845647e-01  1.178111e-01  2.767722e-01
     vertex  1.846028e-01  1.177187e-01  2.767454e-01
   endloop
 endfacet
 facet normal -9.073904e-01  3.768134e-01 -1.861568e-01
   outer loop
     vertex  1.835315e-01  1.150039e-01  2.766722e-01
     vertex  1.846410e-01  1.176263e-01  2.765722e-01
     vertex  1.835563e-01  1.150141e-01  2.765722e-01
   endloop
 endfacet
 facet normal -7.540621e-01  3.131405e-01 -5.773503e-01
   outer loop
     vertex  1.835315e-01  1.150039e-01  2.766722e-01
     vertex  1.846028e-01  1.177187e-01  2.767454e-01
     vertex  1.846308e-01  1.176510e-01  2.766722e-01
   endloop
 endfacet
 facet normal -7.540621e-01  3.131405e-01 -5.773503e-01
   outer loop
     vertex  1.835315e-01  1.150039e-01  2.766722e-01
     vertex  1.834639e-01  1.149759e-01  2.767454e-01
     vertex  1.846028e-01  1.177187e-01  2.767454e-01
   endloop
 endfacet
 facet normal -9.073904e-01  3.768134e-01 -1.861568e-01
   outer loop
     vertex  1.835315e-01  1.150039e-01  2.766722e-01
     vertex  1.846308e-01  1.176510e-01  2.766722e-01
     vertex  1.846410e-01  1.176263e-01  2.765722e-01
   endloop
 endfacet
 facet normal -1.358991e-01 -3.272535e-01 -9.351131e-01
   outer loop
     vertex  1.862066e-01  1.138370e-01  2.767454e-01
     vertex  1.862448e-01  1.137445e-01  2.767722e-01
     vertex  1.833714e-01  1.149378e-01  2.767722e-01
   endloop
 endfacet
 facet normal -1.358991e-01 -3.272535e-01 -9.351131e-01
   outer loop
     vertex  1.862066e-01  1.138370e-01  2.767454e-01
     vertex  1.833714e-01  1.149378e-01  2.767722e-01
     vertex  1.834639e-01  1.149759e-01  2.767454e-01
   endloop
 endfacet
 facet normal  3.272535e-01 -1.358991e-01 -9.351131e-01
   outer loop
     vertex  1.862066e-01  1.138370e-01  2.767454e-01
     vertex  1.873456e-01  1.165797e-01  2.767454e-01
     vertex  1.862448e-01  1.137445e-01  2.767722e-01
   endloop
 endfacet
 facet normal  7.540621e-01 -3.131405e-01 -5.773503e-01
   outer loop
     vertex  1.861787e-01  1.139046e-01  2.766722e-01
     vertex  1.872779e-01  1.165518e-01  2.766722e-01
     vertex  1.873456e-01  1.165797e-01  2.767454e-01
   endloop
 endfacet
 facet normal -3.768134e-01 -9.073904e-01 -1.861568e-01
   outer loop
     vertex  1.861787e-01  1.139046e-01  2.766722e-01
     vertex  1.835563e-01  1.150141e-01  2.765722e-01
     vertex  1.861684e-01  1.139294e-01  2.765722e-01
   endloop
 endfacet
 facet normal  7.540621e-01 -3.131405e-01 -5.773503e-01
   outer loop
     vertex  1.861787e-01  1.139046e-01  2.766722e-01
     vertex  1.873456e-01  1.165797e-01  2.767454e-01
     vertex  1.862066e-01  1.138370e-01  2.767454e-01
   endloop
 endfacet
 facet normal -3.131405e-01 -7.540621e-01 -5.773503e-01
   outer loop
     vertex  1.861787e-01  1.139046e-01  2.766722e-01
     vertex  1.862066e-01  1.138370e-01  2.767454e-01
     vertex  1.834639e-01  1.149759e-01  2.767454e-01
   endloop
 endfacet
 facet normal -3.768134e-01 -9.073904e-01 -1.861568e-01
   outer loop
     vertex  1.861787e-01  1.139046e-01  2.766722e-01
     vertex  1.835315e-01  1.150039e-01  2.766722e-01
     vertex  1.835563e-01  1.150141e-01  2.765722e-01
   endloop
 endfacet
 facet normal -3.131405e-01 -7.540621e-01 -5.773503e-01
   outer loop
     vertex  1.861787e-01  1.139046e-01  2.766722e-01
     vertex  1.834639e-01  1.149759e-01  2.767454e-01
     vertex  1.835315e-01  1.150039e-01  2.766722e-01
   endloop
 endfacet
 facet normal  9.073904e-01 -3.768134e-01 -1.861568e-01
   outer loop
     vertex  1.861787e-01  1.139046e-01  2.766722e-01
     vertex  1.861684e-01  1.139294e-01  2.765722e-01
     vertex  1.872779e-01  1.165518e-01  2.766722e-01
   endloop
 endfacet
 facet normal  3.835172e-01  9.235337e-01  0.000000e+00
   outer loop
     vertex  1.846410e-01  1.176263e-01  2.765722e-01
     vertex  1.872532e-01  1.165415e-01  2.765722e-01
     vertex  1.872532e-01  1.165415e-01  2.707722e-01
   endloop
 endfacet
 facet normal  3.835172e-01  9.235337e-01  0.000000e+00
   outer loop
     vertex  1.846410e-01  1.176263e-01  2.765722e-01
     vertex  1.872532e-01  1.165415e-01  2.707722e-01
     vertex  1.846410e-01  1.176263e-01  2.707722e-01
   endloop
 endfacet
 facet normal -9.235337e-01  3.835172e-01  0.000000e+00
   outer loop
     vertex  1.835563e-01  1.150141e-01  2.765722e-01
     vertex  1.846410e-01  1.176263e-01  2.707722e-01
     vertex  1.835563e-01  1.150141e-01  2.707722e-01
   endloop
 endfacet
 facet normal -9.235337e-01  3.835172e-01  0.000000e+00
   outer loop
     vertex  1.835563e-01  1.150141e-01  2.765722e-01
     vertex  1.846410e-01  1.176263e-01  2.765722e-01
     vertex  1.846410e-01  1.176263e-01  2.707722e-01
   endloop
 endfacet
 facet normal -3.835172e-01 -9.235337e-01 -0.000000e+00
   outer loop
     vertex  1.861684e-01  1.139294e-01  2.765722e-01
     vertex  1.835563e-01  1.150141e-01  2.707722e-01
     vertex  1.861684e-01  1.139294e-01  2.707722e-01
   endloop
 endfacet
 facet normal -3.835172e-01 -9.235337e-01  0.000000e+00
   outer loop
     vertex  1.861684e-01  1.139294e-01  2.765722e-01
     vertex  1.835563e-01  1.150141e-01  2.765722e-01
     vertex  1.835563e-01  1.150141e-01  2.707722e-01
   endloop
 endfacet
 facet normal  9.235337e-01 -3.835172e-01  0.000000e+00
   outer loop
     vertex  1.872532e-01  1.165415e-01  2.765722e-01
     vertex  1.861684e-01  1.139294e-01  2.707722e-01
     vertex  1.872532e-01  1.165415e-01  2.707722e-01
   endloop
 endfacet
 facet normal  9.235337e-01 -3.835172e-01  0.000000e+00
   outer loop
     vertex  1.872532e-01  1.165415e-01  2.765722e-01
     vertex  1.861684e-01  1.139294e-01  2.765722e-01
     vertex  1.861684e-01  1.139294e-01  2.707722e-01
   endloop
 endfacet
 facet normal -0.000000e+00  0.000000e+00 -1.000000e+00
   outer loop
     vertex  1.872532e-01  1.165415e-01  2.707722e-01
     vertex  1.835563e-01  1.150141e-01  2.707722e-01
     vertex  1.846410e-01  1.176263e-01  2.707722e-01
   endloop
 endfacet
 facet normal  0.000000e+00  0.000000e+00 -1.000000e+00
   outer loop
     vertex  1.861684e-01  1.139294e-01  2.707722e-01
     vertex  1.835563e-01  1.150141e-01  2.707722e-01
     vertex  1.872532e-01  1.165415e-01  2.707722e-01
   endloop
 endfacet
 facet normal  0.000000e+00  0.000000e+00 -1.000000e+00
   outer loop
     vertex  1.874380e-01  1.166179e-01  2.767722e-01
     vertex  1.838773e-01  1.194747e-01  2.767722e-01
     vertex  1.891016e-01  1.173052e-01  2.767722e-01
   endloop
 endfacet
 facet normal  0.000000e+00  0.000000e+00 -1.000000e+00
   outer loop
     vertex  1.845647e-01  1.178111e-01  2.767722e-01
     vertex  1.838773e-01  1.194747e-01  2.767722e-01
     vertex  1.874380e-01  1.166179e-01  2.767722e-01
   endloop
 endfacet
 facet normal  0.000000e+00  0.000000e+00 -1.000000e+00
   outer loop
     vertex  1.833714e-01  1.149378e-01  2.767722e-01
     vertex  1.838773e-01  1.194747e-01  2.767722e-01
     vertex  1.845647e-01  1.178111e-01  2.767722e-01
   endloop
 endfacet
 facet normal  0.000000e+00  0.000000e+00 -1.000000e+00
   outer loop
     vertex  1.869321e-01  1.120809e-01  2.767722e-01
     vertex  1.862448e-01  1.137445e-01  2.767722e-01
     vertex  1.874380e-01  1.166179e-01  2.767722e-01
   endloop
 endfacet
 facet normal  0.000000e+00  0.000000e+00 -1.000000e+00
   outer loop
     vertex  1.869321e-01  1.120809e-01  2.767722e-01
     vertex  1.833714e-01  1.149378e-01  2.767722e-01
     vertex  1.862448e-01  1.137445e-01  2.767722e-01
   endloop
 endfacet
 facet normal  0.000000e+00  0.000000e+00 -1.000000e+00
   outer loop
     vertex  1.869321e-01  1.120809e-01  2.767722e-01
     vertex  1.874380e-01  1.166179e-01  2.767722e-01
     vertex  1.891016e-01  1.173052e-01  2.767722e-01
   endloop
 endfacet
 facet normal  0.000000e+00  0.000000e+00 -1.000000e+00
   outer loop
     vertex  1.817078e-01  1.142504e-01  2.767722e-01
     vertex  1.838773e-01  1.194747e-01  2.767722e-01
     vertex  1.833714e-01  1.149378e-01  2.767722e-01
   endloop
 endfacet
 facet normal  0.000000e+00  0.000000e+00 -1.000000e+00
   outer loop
     vertex  1.817078e-01  1.142504e-01  2.767722e-01
     vertex  1.833714e-01  1.149378e-01  2.767722e-01
     vertex  1.869321e-01  1.120809e-01  2.767722e-01
   endloop
 endfacet
 facet normal  3.835172e-01  9.235337e-01  0.000000e+00
   outer loop
     vertex  1.838773e-01  1.194747e-01  2.783169e-01
     vertex  1.891016e-01  1.173052e-01  2.783169e-01
     vertex  1.891016e-01  1.173052e-01  2.767722e-01
   endloop
 endfacet
 facet normal  3.835172e-01  9.235337e-01  0.000000e+00
   outer loop
     vertex  1.838773e-01  1.194747e-01  2.783169e-01
     vertex  1.891016e-01  1.173052e-01  2.767722e-01
     vertex  1.838773e-01  1.194747e-01  2.767722e-01
   endloop
 endfacet
 facet normal -9.235337e-01  3.835172e-01  0.000000e+00
   outer loop
     vertex  1.817078e-01  1.142504e-01  2.783169e-01
     vertex  1.838773e-01  1.194747e-01  2.767722e-01
     vertex  1.817078e-01  1.142504e-01  2.767722e-01
   endloop
 endfacet
 facet normal -9.235337e-01  3.835172e-01  0.000000e+00
   outer loop
     vertex  1.817078e-01  1.142504e-01  2.783169e-01
     vertex  1.838773e-01  1.194747e-01  2.783169e-01
     vertex  1.838773e-01  1.194747e-01  2.767722e-01
   endloop
 endfacet
 facet normal -3.835172e-01 -9.235337e-01 -0.000000e+00
   outer loop
     vertex  1.869321e-01  1.120809e-01  2.783169e-01
     vertex  1.817078e-01  1.142504e-01  2.767722e-01
     vertex  1.869321e-01  1.120809e-01  2.767722e-01
   endloop
 endfacet
 facet normal -3.835172e-01 -9.235337e-01  0.000000e+00
   outer loop
     vertex  1.869321e-01  1.120809e-01  2.783169e-01
     vertex  1.817078e-01  1.142504e-01  2.783169e-01
     vertex  1.817078e-01  1.142504e-01  2.767722e-01
   endloop
 endfacet
 facet normal  9.235337e-01 -3.835172e-01  0.000000e+00
   outer loop
     vertex  1.891016e-01  1.173052e-01  2.783169e-01
     vertex  1.869321e-01  1.120809e-01  2.767722e-01
     vertex  1.891016e-01  1.173052e-01  2.767722e-01
   endloop
 endfacet
 facet normal  9.235337e-01 -3.835172e-01  0.000000e+00
   outer loop
     vertex  1.891016e-01  1.173052e-01  2.783169e-01
     vertex  1.869321e-01  1.120809e-01  2.783169e-01
     vertex  1.869321e-01  1.120809e-01  2.767722e-01
   endloop
 endfacet
 facet normal  9.178722e-01 -3.811662e-01  1.105573e-01
   outer loop
     vertex  1.890856e-01  1.172986e-01  2.784275e-01
     vertex  1.869321e-01  1.120809e-01  2.783169e-01
     vertex  1.891016e-01  1.173052e-01  2.783169e-01
   endloop
 endfacet
 facet normal  3.811662e-01  9.178722e-01  1.105573e-01
   outer loop
     vertex  1.838840e-01  1.194587e-01  2.784275e-01
     vertex  1.890856e-01  1.172986e-01  2.784275e-01
     vertex  1.891016e-01  1.173052e-01  2.783169e-01
   endloop
 endfacet
 facet normal  3.811662e-01  9.178722e-01  1.105573e-01
   outer loop
     vertex  1.838840e-01  1.194587e-01  2.784275e-01
     vertex  1.891016e-01  1.173052e-01  2.783169e-01
     vertex  1.838773e-01  1.194747e-01  2.783169e-01
   endloop
 endfacet
 facet normal  3.142230e-01  7.566687e-01  5.733379e-01
   outer loop
     vertex  1.839033e-01  1.194120e-01  2.785273e-01
     vertex  1.839333e-01  1.193393e-01  2.786069e-01
     vertex  1.889662e-01  1.172493e-01  2.786069e-01
   endloop
 endfacet
 facet normal  3.142230e-01  7.566687e-01  5.733379e-01
   outer loop
     vertex  1.839033e-01  1.194120e-01  2.785273e-01
     vertex  1.889662e-01  1.172493e-01  2.786069e-01
     vertex  1.890389e-01  1.172793e-01  2.785273e-01
   endloop
 endfacet
 facet normal  3.611325e-01  8.696298e-01  3.366412e-01
   outer loop
     vertex  1.839033e-01  1.194120e-01  2.785273e-01
     vertex  1.890389e-01  1.172793e-01  2.785273e-01
     vertex  1.890856e-01  1.172986e-01  2.784275e-01
   endloop
 endfacet
 facet normal  3.611325e-01  8.696298e-01  3.366412e-01
   outer loop
     vertex  1.839033e-01  1.194120e-01  2.785273e-01
     vertex  1.890856e-01  1.172986e-01  2.784275e-01
     vertex  1.838840e-01  1.194587e-01  2.784275e-01
   endloop
 endfacet
 facet normal -9.178722e-01  3.811662e-01  1.105573e-01
   outer loop
     vertex  1.817239e-01  1.142571e-01  2.784275e-01
     vertex  1.838773e-01  1.194747e-01  2.783169e-01
     vertex  1.817078e-01  1.142504e-01  2.783169e-01
   endloop
 endfacet
 facet normal -9.178722e-01  3.811662e-01  1.105573e-01
   outer loop
     vertex  1.817239e-01  1.142571e-01  2.784275e-01
     vertex  1.838840e-01  1.194587e-01  2.784275e-01
     vertex  1.838773e-01  1.194747e-01  2.783169e-01
   endloop
 endfacet
 facet normal -7.566687e-01  3.142230e-01  5.733379e-01
   outer loop
     vertex  1.817706e-01  1.142763e-01  2.785273e-01
     vertex  1.818433e-01  1.143064e-01  2.786069e-01
     vertex  1.839333e-01  1.193393e-01  2.786069e-01
   endloop
 endfacet
 facet normal -8.696298e-01  3.611325e-01  3.366412e-01
   outer loop
     vertex  1.817706e-01  1.142763e-01  2.785273e-01
     vertex  1.839033e-01  1.194120e-01  2.785273e-01
     vertex  1.838840e-01  1.194587e-01  2.784275e-01
   endloop
 endfacet
 facet normal -8.696298e-01  3.611325e-01  3.366412e-01
   outer loop
     vertex  1.817706e-01  1.142763e-01  2.785273e-01
     vertex  1.838840e-01  1.194587e-01  2.784275e-01
     vertex  1.817239e-01  1.142571e-01  2.784275e-01
   endloop
 endfacet
 facet normal -7.566687e-01  3.142230e-01  5.733379e-01
   outer loop
     vertex  1.817706e-01  1.142763e-01  2.785273e-01
     vertex  1.839333e-01  1.193393e-01  2.786069e-01
     vertex  1.839033e-01  1.194120e-01  2.785273e-01
   endloop
 endfacet
 facet normal -3.811662e-01 -9.178722e-01  1.105573e-01
   outer loop
     vertex  1.869255e-01  1.120970e-01  2.784275e-01
     vertex  1.817078e-01  1.142504e-01  2.783169e-01
     vertex  1.869321e-01  1.120809e-01  2.783169e-01
   endloop
 endfacet
 facet normal -3.811662e-01 -9.178722e-01  1.105573e-01
   outer loop
     vertex  1.869255e-01  1.120970e-01  2.784275e-01
     vertex  1.817239e-01  1.142571e-01  2.784275e-01
     vertex  1.817078e-01  1.142504e-01  2.783169e-01
   endloop
 endfacet
 facet normal  9.178722e-01 -3.811662e-01  1.105573e-01
   outer loop
     vertex  1.869255e-01  1.120970e-01  2.784275e-01
     vertex  1.869321e-01  1.120809e-01  2.783169e-01
     vertex  1.890856e-01  1.172986e-01  2.784275e-01
   endloop
 endfacet
 facet normal -3.142230e-01 -7.566687e-01  5.733379e-01
   outer loop
     vertex  1.869062e-01  1.121437e-01  2.785273e-01
     vertex  1.868762e-01  1.122164e-01  2.786069e-01
     vertex  1.818433e-01  1.143064e-01  2.786069e-01
   endloop
 endfacet
 facet normal  7.566687e-01 -3.142230e-01  5.733379e-01
   outer loop
     vertex  1.869062e-01  1.121437e-01  2.785273e-01
     vertex  1.889662e-01  1.172493e-01  2.786069e-01
     vertex  1.868762e-01  1.122164e-01  2.786069e-01
   endloop
 endfacet
 facet normal  7.566687e-01 -3.142230e-01  5.733379e-01
   outer loop
     vertex  1.869062e-01  1.121437e-01  2.785273e-01
     vertex  1.890389e-01  1.172793e-01  2.785273e-01
     vertex  1.889662e-01  1.172493e-01  2.786069e-01
   endloop
 endfacet
 facet normal  8.696298e-01 -3.611325e-01  3.366412e-01
   outer loop
     vertex  1.869062e-01  1.121437e-01  2.785273e-01
     vertex  1.890856e-01  1.172986e-01  2.784275e-01
     vertex  1.890389e-01  1.172793e-01  2.785273e-01
   endloop
 endfacet
 facet normal -3.611325e-01 -8.696298e-01  3.366412e-01
   outer loop
     vertex  1.869062e-01  1.121437e-01  2.785273e-01
     vertex  1.817239e-01  1.142571e-01  2.784275e-01
     vertex  1.869255e-01  1.120970e-01  2.784275e-01
   endloop
 endfacet
 facet normal -3.611325e-01 -8.696298e-01  3.366412e-01
   outer loop
     vertex  1.869062e-01  1.121437e-01  2.785273e-01
     vertex  1.817706e-01  1.142763e-01  2.785273e-01
     vertex  1.817239e-01  1.142571e-01  2.784275e-01
   endloop
 endfacet
 facet normal  8.696298e-01 -3.611325e-01  3.366412e-01
   outer loop
     vertex  1.869062e-01  1.121437e-01  2.785273e-01
     vertex  1.869255e-01  1.120970e-01  2.784275e-01
     vertex  1.890856e-01  1.172986e-01  2.784275e-01
   endloop
 endfacet
 facet normal -3.142230e-01 -7.566687e-01  5.733379e-01
   outer loop
     vertex  1.869062e-01  1.121437e-01  2.785273e-01
     vertex  1.818433e-01  1.143064e-01  2.786069e-01
     vertex  1.817706e-01  1.142763e-01  2.785273e-01
   endloop
 endfacet
 facet normal  2.677576e-01  6.447773e-01  7.159386e-01
   outer loop
     vertex  1.851229e-01  1.178087e-01  2.795404e-01
     vertex  1.889662e-01  1.172493e-01  2.786069e-01
     vertex  1.839333e-01  1.193393e-01  2.786069e-01
   endloop
 endfacet
 facet normal  2.677576e-01  6.447773e-01  7.159386e-01
   outer loop
     vertex  1.870423e-01  1.170116e-01  2.795404e-01
     vertex  1.889662e-01  1.172493e-01  2.786069e-01
     vertex  1.851229e-01  1.178087e-01  2.795404e-01
   endloop
 endfacet
 facet normal -1.254803e-01  4.436962e-01  8.873490e-01
   outer loop
     vertex  1.848026e-01  1.176852e-01  2.795569e-01
     vertex  1.851229e-01  1.178087e-01  2.795404e-01
     vertex  1.839333e-01  1.193393e-01  2.786069e-01
   endloop
 endfacet
 facet normal  1.453081e-01  3.499110e-01  9.254447e-01
   outer loop
     vertex  1.852631e-01  1.174694e-01  2.796467e-01
     vertex  1.870423e-01  1.170116e-01  2.795404e-01
     vertex  1.851229e-01  1.178087e-01  2.795404e-01
   endloop
 endfacet
 facet normal  1.453081e-01  3.499110e-01  9.254447e-01
   outer loop
     vertex  1.867030e-01  1.168714e-01  2.796467e-01
     vertex  1.870423e-01  1.170116e-01  2.795404e-01
     vertex  1.852631e-01  1.174694e-01  2.796467e-01
   endloop
 endfacet
 facet normal  4.028742e-01  2.242857e-01  8.873490e-01
   outer loop
     vertex  1.871809e-01  1.166976e-01  2.795569e-01
     vertex  1.889662e-01  1.172493e-01  2.786069e-01
     vertex  1.870423e-01  1.170116e-01  2.795404e-01
   endloop
 endfacet
 facet normal -1.736377e-01  4.202712e-01  8.906301e-01
   outer loop
     vertex  1.844850e-01  1.175540e-01  2.795569e-01
     vertex  1.848026e-01  1.176852e-01  2.795569e-01
     vertex  1.839333e-01  1.193393e-01  2.786069e-01
   endloop
 endfacet
 facet normal  1.170251e-01  2.818039e-01  9.523086e-01
   outer loop
     vertex  1.854054e-01  1.171250e-01  2.797311e-01
     vertex  1.867030e-01  1.168714e-01  2.796467e-01
     vertex  1.852631e-01  1.174694e-01  2.796467e-01
   endloop
 endfacet
 facet normal  1.170251e-01  2.818039e-01  9.523086e-01
   outer loop
     vertex  1.863586e-01  1.167291e-01  2.797311e-01
     vertex  1.867030e-01  1.168714e-01  2.796467e-01
     vertex  1.854054e-01  1.171250e-01  2.797311e-01
   endloop
 endfacet
 facet normal  4.202712e-01  1.736377e-01  8.906301e-01
   outer loop
     vertex  1.873121e-01  1.163799e-01  2.795569e-01
     vertex  1.889662e-01  1.172493e-01  2.786069e-01
     vertex  1.871809e-01  1.166976e-01  2.795569e-01
   endloop
 endfacet
 facet normal -2.242857e-01  4.028742e-01  8.873490e-01
   outer loop
     vertex  1.841710e-01  1.174153e-01  2.795404e-01
     vertex  1.844850e-01  1.175540e-01  2.795569e-01
     vertex  1.839333e-01  1.193393e-01  2.786069e-01
   endloop
 endfacet
 facet normal  9.686239e-02  2.332508e-01  9.675804e-01
   outer loop
     vertex  1.857129e-01  1.167387e-01  2.797934e-01
     vertex  1.863586e-01  1.167291e-01  2.797311e-01
     vertex  1.854054e-01  1.171250e-01  2.797311e-01
   endloop
 endfacet
 facet normal  9.686239e-02  2.332508e-01  9.675804e-01
   outer loop
     vertex  1.858679e-01  1.166744e-01  2.797934e-01
     vertex  1.863586e-01  1.167291e-01  2.797311e-01
     vertex  1.857129e-01  1.167387e-01  2.797934e-01
   endloop
 endfacet
 facet normal  4.477324e-02  1.937850e-01  9.800218e-01
   outer loop
     vertex  1.855493e-01  1.167765e-01  2.797934e-01
     vertex  1.857129e-01  1.167387e-01  2.797934e-01
     vertex  1.854054e-01  1.171250e-01  2.797311e-01
   endloop
 endfacet
 facet normal  1.056716e-01  1.684956e-01  9.800218e-01
   outer loop
     vertex  1.860101e-01  1.165852e-01  2.797934e-01
     vertex  1.863586e-01  1.167291e-01  2.797311e-01
     vertex  1.858679e-01  1.166744e-01  2.797934e-01
   endloop
 endfacet
 facet normal  4.436962e-01  1.254803e-01  8.873490e-01
   outer loop
     vertex  1.874356e-01  1.160597e-01  2.795404e-01
     vertex  1.889662e-01  1.172493e-01  2.786069e-01
     vertex  1.873121e-01  1.163799e-01  2.795569e-01
   endloop
 endfacet
 facet normal -1.684956e-01  1.056716e-01  9.800218e-01
   outer loop
     vertex  1.845082e-01  1.162410e-01  2.797934e-01
     vertex  1.845974e-01  1.163832e-01  2.797934e-01
     vertex  1.844534e-01  1.167317e-01  2.797311e-01
   endloop
 endfacet
 facet normal  1.937850e-01 -4.477324e-02  9.800218e-01
   outer loop
     vertex  1.863656e-01  1.154697e-01  2.797934e-01
     vertex  1.867519e-01  1.157772e-01  2.797311e-01
     vertex  1.864034e-01  1.156332e-01  2.797934e-01
   endloop
 endfacet
 facet normal  2.332508e-01 -9.686239e-02  9.675804e-01
   outer loop
     vertex  1.863013e-01  1.153146e-01  2.797934e-01
     vertex  1.867519e-01  1.157772e-01  2.797311e-01
     vertex  1.863656e-01  1.154697e-01  2.797934e-01
   endloop
 endfacet
 facet normal -2.332508e-01  9.686239e-02  9.675804e-01
   outer loop
     vertex  1.840576e-01  1.157785e-01  2.797311e-01
     vertex  1.845082e-01  1.162410e-01  2.797934e-01
     vertex  1.844534e-01  1.167317e-01  2.797311e-01
   endloop
 endfacet
 facet normal -2.332508e-01  9.686239e-02  9.675804e-01
   outer loop
     vertex  1.840576e-01  1.157785e-01  2.797311e-01
     vertex  1.844438e-01  1.160860e-01  2.797934e-01
     vertex  1.845082e-01  1.162410e-01  2.797934e-01
   endloop
 endfacet
 facet normal -1.937850e-01  4.477324e-02  9.800218e-01
   outer loop
     vertex  1.840576e-01  1.157785e-01  2.797311e-01
     vertex  1.844060e-01  1.159224e-01  2.797934e-01
     vertex  1.844438e-01  1.160860e-01  2.797934e-01
   endloop
 endfacet
 facet normal  2.332508e-01 -9.686239e-02  9.675804e-01
   outer loop
     vertex  1.863560e-01  1.148240e-01  2.797311e-01
     vertex  1.867519e-01  1.157772e-01  2.797311e-01
     vertex  1.863013e-01  1.153146e-01  2.797934e-01
   endloop
 endfacet
 facet normal  2.818039e-01 -1.170251e-01  9.523086e-01
   outer loop
     vertex  1.863560e-01  1.148240e-01  2.797311e-01
     vertex  1.870963e-01  1.159195e-01  2.796467e-01
     vertex  1.867519e-01  1.157772e-01  2.797311e-01
   endloop
 endfacet
 facet normal  1.684956e-01 -1.056716e-01  9.800218e-01
   outer loop
     vertex  1.863560e-01  1.148240e-01  2.797311e-01
     vertex  1.863013e-01  1.153146e-01  2.797934e-01
     vertex  1.862121e-01  1.151724e-01  2.797934e-01
   endloop
 endfacet
 facet normal -2.818039e-01  1.170251e-01  9.523086e-01
   outer loop
     vertex  1.837131e-01  1.156362e-01  2.796467e-01
     vertex  1.844534e-01  1.167317e-01  2.797311e-01
     vertex  1.843111e-01  1.170761e-01  2.796467e-01
   endloop
 endfacet
 facet normal -2.818039e-01  1.170251e-01  9.523086e-01
   outer loop
     vertex  1.837131e-01  1.156362e-01  2.796467e-01
     vertex  1.840576e-01  1.157785e-01  2.797311e-01
     vertex  1.844534e-01  1.167317e-01  2.797311e-01
   endloop
 endfacet
 facet normal  2.818039e-01 -1.170251e-01  9.523086e-01
   outer loop
     vertex  1.864983e-01  1.144795e-01  2.796467e-01
     vertex  1.870963e-01  1.159195e-01  2.796467e-01
     vertex  1.863560e-01  1.148240e-01  2.797311e-01
   endloop
 endfacet
 facet normal  3.499110e-01 -1.453081e-01  9.254447e-01
   outer loop
     vertex  1.864983e-01  1.144795e-01  2.796467e-01
     vertex  1.874356e-01  1.160597e-01  2.795404e-01
     vertex  1.870963e-01  1.159195e-01  2.796467e-01
   endloop
 endfacet
 facet normal -3.499110e-01  1.453081e-01  9.254447e-01
   outer loop
     vertex  1.833739e-01  1.154960e-01  2.795404e-01
     vertex  1.843111e-01  1.170761e-01  2.796467e-01
     vertex  1.841710e-01  1.174153e-01  2.795404e-01
   endloop
 endfacet
 facet normal -3.499110e-01  1.453081e-01  9.254447e-01
   outer loop
     vertex  1.833739e-01  1.154960e-01  2.795404e-01
     vertex  1.837131e-01  1.156362e-01  2.796467e-01
     vertex  1.843111e-01  1.170761e-01  2.796467e-01
   endloop
 endfacet
 facet normal  3.499110e-01 -1.453081e-01  9.254447e-01
   outer loop
     vertex  1.866385e-01  1.141403e-01  2.795404e-01
     vertex  1.874356e-01  1.160597e-01  2.795404e-01
     vertex  1.864983e-01  1.144795e-01  2.796467e-01
   endloop
 endfacet
 facet normal  6.447773e-01 -2.677576e-01  7.159386e-01
   outer loop
     vertex  1.866385e-01  1.141403e-01  2.795404e-01
     vertex  1.889662e-01  1.172493e-01  2.786069e-01
     vertex  1.874356e-01  1.160597e-01  2.795404e-01
   endloop
 endfacet
 facet normal -1.056716e-01 -1.684956e-01  9.800218e-01
   outer loop
     vertex  1.844509e-01  1.148265e-01  2.797311e-01
     vertex  1.849415e-01  1.148813e-01  2.797934e-01
     vertex  1.847993e-01  1.149705e-01  2.797934e-01
   endloop
 endfacet
 facet normal -9.686239e-02 -2.332508e-01  9.675804e-01
   outer loop
     vertex  1.844509e-01  1.148265e-01  2.797311e-01
     vertex  1.850966e-01  1.148169e-01  2.797934e-01
     vertex  1.849415e-01  1.148813e-01  2.797934e-01
   endloop
 endfacet
 facet normal -9.686239e-02 -2.332508e-01  9.675804e-01
   outer loop
     vertex  1.854041e-01  1.144307e-01  2.797311e-01
     vertex  1.850966e-01  1.148169e-01  2.797934e-01
     vertex  1.844509e-01  1.148265e-01  2.797311e-01
   endloop
 endfacet
 facet normal -4.477324e-02 -1.937850e-01  9.800218e-01
   outer loop
     vertex  1.854041e-01  1.144307e-01  2.797311e-01
     vertex  1.852601e-01  1.147791e-01  2.797934e-01
     vertex  1.850966e-01  1.148169e-01  2.797934e-01
   endloop
 endfacet
 facet normal -1.170251e-01 -2.818039e-01  9.523086e-01
   outer loop
     vertex  1.841065e-01  1.146842e-01  2.796467e-01
     vertex  1.854041e-01  1.144307e-01  2.797311e-01
     vertex  1.844509e-01  1.148265e-01  2.797311e-01
   endloop
 endfacet
 facet normal -1.170251e-01 -2.818039e-01  9.523086e-01
   outer loop
     vertex  1.855464e-01  1.140862e-01  2.796467e-01
     vertex  1.854041e-01  1.144307e-01  2.797311e-01
     vertex  1.841065e-01  1.146842e-01  2.796467e-01
   endloop
 endfacet
 facet normal -1.453081e-01 -3.499110e-01  9.254447e-01
   outer loop
     vertex  1.837672e-01  1.145440e-01  2.795404e-01
     vertex  1.855464e-01  1.140862e-01  2.796467e-01
     vertex  1.841065e-01  1.146842e-01  2.796467e-01
   endloop
 endfacet
 facet normal -1.453081e-01 -3.499110e-01  9.254447e-01
   outer loop
     vertex  1.856866e-01  1.137470e-01  2.795404e-01
     vertex  1.855464e-01  1.140862e-01  2.796467e-01
     vertex  1.837672e-01  1.145440e-01  2.795404e-01
   endloop
 endfacet
 facet normal -6.447773e-01  2.677576e-01  7.159386e-01
   outer loop
     vertex  1.818433e-01  1.143064e-01  2.786069e-01
     vertex  1.833739e-01  1.154960e-01  2.795404e-01
     vertex  1.841710e-01  1.174153e-01  2.795404e-01
   endloop
 endfacet
 facet normal -4.436962e-01 -1.254803e-01  8.873490e-01
   outer loop
     vertex  1.818433e-01  1.143064e-01  2.786069e-01
     vertex  1.834974e-01  1.151757e-01  2.795569e-01
     vertex  1.833739e-01  1.154960e-01  2.795404e-01
   endloop
 endfacet
 facet normal -4.202712e-01 -1.736377e-01  8.906301e-01
   outer loop
     vertex  1.818433e-01  1.143064e-01  2.786069e-01
     vertex  1.836286e-01  1.148581e-01  2.795569e-01
     vertex  1.834974e-01  1.151757e-01  2.795569e-01
   endloop
 endfacet
 facet normal -4.028742e-01 -2.242857e-01  8.873490e-01
   outer loop
     vertex  1.818433e-01  1.143064e-01  2.786069e-01
     vertex  1.837672e-01  1.145440e-01  2.795404e-01
     vertex  1.836286e-01  1.148581e-01  2.795569e-01
   endloop
 endfacet
 facet normal -2.677576e-01 -6.447773e-01  7.159386e-01
   outer loop
     vertex  1.818433e-01  1.143064e-01  2.786069e-01
     vertex  1.856866e-01  1.137470e-01  2.795404e-01
     vertex  1.837672e-01  1.145440e-01  2.795404e-01
   endloop
 endfacet
 facet normal -6.447773e-01  2.677576e-01  7.159386e-01
   outer loop
     vertex  1.818433e-01  1.143064e-01  2.786069e-01
     vertex  1.841710e-01  1.174153e-01  2.795404e-01
     vertex  1.839333e-01  1.193393e-01  2.786069e-01
   endloop
 endfacet
 facet normal -2.677576e-01 -6.447773e-01  7.159386e-01
   outer loop
     vertex  1.868762e-01  1.122164e-01  2.786069e-01
     vertex  1.856866e-01  1.137470e-01  2.795404e-01
     vertex  1.818433e-01  1.143064e-01  2.786069e-01
   endloop
 endfacet
 facet normal  1.254803e-01 -4.436962e-01  8.873490e-01
   outer loop
     vertex  1.868762e-01  1.122164e-01  2.786069e-01
     vertex  1.860069e-01  1.138705e-01  2.795569e-01
     vertex  1.856866e-01  1.137470e-01  2.795404e-01
   endloop
 endfacet
 facet normal  1.736377e-01 -4.202712e-01  8.906301e-01
   outer loop
     vertex  1.868762e-01  1.122164e-01  2.786069e-01
     vertex  1.863245e-01  1.140017e-01  2.795569e-01
     vertex  1.860069e-01  1.138705e-01  2.795569e-01
   endloop
 endfacet
 facet normal  2.242857e-01 -4.028742e-01  8.873490e-01
   outer loop
     vertex  1.868762e-01  1.122164e-01  2.786069e-01
     vertex  1.866385e-01  1.141403e-01  2.795404e-01
     vertex  1.863245e-01  1.140017e-01  2.795569e-01
   endloop
 endfacet
 facet normal  6.447773e-01 -2.677576e-01  7.159386e-01
   outer loop
     vertex  1.868762e-01  1.122164e-01  2.786069e-01
     vertex  1.889662e-01  1.172493e-01  2.786069e-01
     vertex  1.866385e-01  1.141403e-01  2.795404e-01
   endloop
 endfacet
 facet normal  9.242246e-01  3.818493e-01  4.887461e-12
   outer loop
     vertex  1.845533e-01  1.164900e-01  2.775322e-01
     vertex  1.844534e-01  1.167317e-01  2.797311e-01
     vertex  1.845974e-01  1.163832e-01  2.797934e-01
   endloop
 endfacet
 facet normal  9.242246e-01  3.818493e-01  6.911762e-12
   outer loop
     vertex  1.845533e-01  1.164900e-01  2.775322e-01
     vertex  1.843111e-01  1.170761e-01  2.796467e-01
     vertex  1.844534e-01  1.167317e-01  2.797311e-01
   endloop
 endfacet
 facet normal  9.242246e-01  3.818493e-01 -1.045978e-11
   outer loop
     vertex  1.845533e-01  1.164900e-01  2.775322e-01
     vertex  1.841710e-01  1.174153e-01  2.795404e-01
     vertex  1.843111e-01  1.170761e-01  2.796467e-01
   endloop
 endfacet
 facet normal  9.242246e-01  3.818493e-01  6.159278e-12
   outer loop
     vertex  1.846701e-01  1.162073e-01  2.775322e-01
     vertex  1.845533e-01  1.164900e-01  2.775322e-01
     vertex  1.845974e-01  1.163832e-01  2.797934e-01
   endloop
 endfacet
 facet normal -0.000000e+00  0.000000e+00  1.000000e+00
   outer loop
     vertex  1.852565e-01  1.166158e-01  2.775322e-01
     vertex  1.856220e-01  1.166006e-01  2.775322e-01
     vertex  1.855052e-01  1.168833e-01  2.775322e-01
   endloop
 endfacet
 facet normal  0.000000e+00  0.000000e+00  1.000000e+00
   outer loop
     vertex  1.849183e-01  1.164761e-01  2.775322e-01
     vertex  1.852565e-01  1.166158e-01  2.775322e-01
     vertex  1.855052e-01  1.168833e-01  2.775322e-01
   endloop
 endfacet
 facet normal -0.000000e+00  0.000000e+00  1.000000e+00
   outer loop
     vertex  1.845533e-01  1.164900e-01  2.775322e-01
     vertex  1.849183e-01  1.164761e-01  2.775322e-01
     vertex  1.855052e-01  1.168833e-01  2.775322e-01
   endloop
 endfacet
 facet normal  0.000000e+00 -0.000000e+00  1.000000e+00
   outer loop
     vertex  1.846701e-01  1.162073e-01  2.775322e-01
     vertex  1.849183e-01  1.164761e-01  2.775322e-01
     vertex  1.845533e-01  1.164900e-01  2.775322e-01
   endloop
 endfacet
 facet normal -9.242246e-01 -3.818493e-01  4.808115e-11
   outer loop
     vertex  1.855052e-01  1.168833e-01  2.775322e-01
     vertex  1.852631e-01  1.174694e-01  2.796467e-01
     vertex  1.851229e-01  1.178087e-01  2.795404e-01
   endloop
 endfacet
 facet normal -9.242246e-01 -3.818493e-01  7.124033e-12
   outer loop
     vertex  1.855052e-01  1.168833e-01  2.775322e-01
     vertex  1.854054e-01  1.171250e-01  2.797311e-01
     vertex  1.852631e-01  1.174694e-01  2.796467e-01
   endloop
 endfacet
 facet normal -9.242246e-01 -3.818493e-01 -5.564030e-13
   outer loop
     vertex  1.855052e-01  1.168833e-01  2.775322e-01
     vertex  1.855493e-01  1.167765e-01  2.797934e-01
     vertex  1.854054e-01  1.171250e-01  2.797311e-01
   endloop
 endfacet
 facet normal -9.242246e-01 -3.818493e-01 -5.252923e-12
   outer loop
     vertex  1.856220e-01  1.166006e-01  2.775322e-01
     vertex  1.855493e-01  1.167765e-01  2.797934e-01
     vertex  1.855052e-01  1.168833e-01  2.775322e-01
   endloop
 endfacet
 facet normal -4.640725e-01 -8.830170e-01  7.012614e-02
   outer loop
     vertex  1.858679e-01  1.166744e-01  2.797934e-01
     vertex  1.857662e-01  1.165482e-01  2.775322e-01
     vertex  1.858342e-01  1.165125e-01  2.775322e-01
   endloop
 endfacet
 facet normal -5.300620e-01 -8.451955e-01  6.840214e-02
   outer loop
     vertex  1.858679e-01  1.166744e-01  2.797934e-01
     vertex  1.858342e-01  1.165125e-01  2.775322e-01
     vertex  1.860101e-01  1.165852e-01  2.797934e-01
   endloop
 endfacet
 facet normal -2.979577e-01 -9.519998e-01  7.012614e-02
   outer loop
     vertex  1.857129e-01  1.167387e-01  2.797934e-01
     vertex  1.856220e-01  1.166006e-01  2.775322e-01
     vertex  1.856953e-01  1.165777e-01  2.775322e-01
   endloop
 endfacet
 facet normal -3.826137e-01 -9.213580e-01  6.860184e-02
   outer loop
     vertex  1.857129e-01  1.167387e-01  2.797934e-01
     vertex  1.856953e-01  1.165777e-01  2.775322e-01
     vertex  1.857662e-01  1.165482e-01  2.775322e-01
   endloop
 endfacet
 facet normal -3.826137e-01 -9.213580e-01  6.860184e-02
   outer loop
     vertex  1.857129e-01  1.167387e-01  2.797934e-01
     vertex  1.857662e-01  1.165482e-01  2.775322e-01
     vertex  1.858679e-01  1.166744e-01  2.797934e-01
   endloop
 endfacet
 facet normal -2.245883e-01 -9.720500e-01  6.840214e-02
   outer loop
     vertex  1.855493e-01  1.167765e-01  2.797934e-01
     vertex  1.856220e-01  1.166006e-01  2.775322e-01
     vertex  1.857129e-01  1.167387e-01  2.797934e-01
   endloop
 endfacet
 facet normal  3.818493e-01 -9.242246e-01 -1.595932e-12
   outer loop
     vertex  1.861169e-01  1.166293e-01  2.775322e-01
     vertex  1.863586e-01  1.167291e-01  2.797311e-01
     vertex  1.860101e-01  1.165852e-01  2.797934e-01
   endloop
 endfacet
 facet normal  3.818493e-01 -9.242246e-01 -2.813583e-13
   outer loop
     vertex  1.861169e-01  1.166293e-01  2.775322e-01
     vertex  1.867030e-01  1.168714e-01  2.796467e-01
     vertex  1.863586e-01  1.167291e-01  2.797311e-01
   endloop
 endfacet
 facet normal  3.818493e-01 -9.242246e-01  5.476779e-12
   outer loop
     vertex  1.861169e-01  1.166293e-01  2.775322e-01
     vertex  1.870423e-01  1.170116e-01  2.795404e-01
     vertex  1.867030e-01  1.168714e-01  2.796467e-01
   endloop
 endfacet
 facet normal  3.818493e-01 -9.242246e-01 -2.955329e-12
   outer loop
     vertex  1.858342e-01  1.165125e-01  2.775322e-01
     vertex  1.861169e-01  1.166293e-01  2.775322e-01
     vertex  1.860101e-01  1.165852e-01  2.797934e-01
   endloop
 endfacet
 facet normal  0.000000e+00 -0.000000e+00  1.000000e+00
   outer loop
     vertex  1.859821e-01  1.164030e-01  2.775322e-01
     vertex  1.861169e-01  1.166293e-01  2.775322e-01
     vertex  1.858342e-01  1.165125e-01  2.775322e-01
   endloop
 endfacet
 facet normal  0.000000e+00 -0.000000e+00  1.000000e+00
   outer loop
     vertex  1.861030e-01  1.162643e-01  2.775322e-01
     vertex  1.861169e-01  1.166293e-01  2.775322e-01
     vertex  1.859821e-01  1.164030e-01  2.775322e-01
   endloop
 endfacet
 facet normal  0.000000e+00  0.000000e+00  1.000000e+00
   outer loop
     vertex  1.861912e-01  1.161028e-01  2.775322e-01
     vertex  1.861169e-01  1.166293e-01  2.775322e-01
     vertex  1.861030e-01  1.162643e-01  2.775322e-01
   endloop
 endfacet
 facet normal  0.000000e+00  0.000000e+00  1.000000e+00
   outer loop
     vertex  1.865102e-01  1.156773e-01  2.775322e-01
     vertex  1.861912e-01  1.161028e-01  2.775322e-01
     vertex  1.862427e-01  1.159261e-01  2.775322e-01
   endloop
 endfacet
 facet normal -0.000000e+00 -0.000000e+00  1.000000e+00
   outer loop
     vertex  1.862550e-01  1.157425e-01  2.775322e-01
     vertex  1.865102e-01  1.156773e-01  2.775322e-01
     vertex  1.862427e-01  1.159261e-01  2.775322e-01
   endloop
 endfacet
 facet normal  0.000000e+00  0.000000e+00  1.000000e+00
   outer loop
     vertex  1.862275e-01  1.155605e-01  2.775322e-01
     vertex  1.865102e-01  1.156773e-01  2.775322e-01
     vertex  1.862550e-01  1.157425e-01  2.775322e-01
   endloop
 endfacet
 facet normal  0.000000e+00  0.000000e+00  1.000000e+00
   outer loop
     vertex  1.865102e-01  1.156773e-01  2.775322e-01
     vertex  1.861169e-01  1.166293e-01  2.775322e-01
     vertex  1.861912e-01  1.161028e-01  2.775322e-01
   endloop
 endfacet
 facet normal -3.818493e-01  9.242246e-01  5.953957e-12
   outer loop
     vertex  1.865102e-01  1.156773e-01  2.775322e-01
     vertex  1.870963e-01  1.159195e-01  2.796467e-01
     vertex  1.874356e-01  1.160597e-01  2.795404e-01
   endloop
 endfacet
 facet normal -3.818493e-01  9.242246e-01 -7.881030e-12
   outer loop
     vertex  1.865102e-01  1.156773e-01  2.775322e-01
     vertex  1.867519e-01  1.157772e-01  2.797311e-01
     vertex  1.870963e-01  1.159195e-01  2.796467e-01
   endloop
 endfacet
 facet normal -3.818493e-01  9.242246e-01  1.595932e-12
   outer loop
     vertex  1.865102e-01  1.156773e-01  2.775322e-01
     vertex  1.864034e-01  1.156332e-01  2.797934e-01
     vertex  1.867519e-01  1.157772e-01  2.797311e-01
   endloop
 endfacet
 facet normal -3.818493e-01  9.242246e-01 -1.432117e-12
   outer loop
     vertex  1.865102e-01  1.156773e-01  2.775322e-01
     vertex  1.862275e-01  1.155605e-01  2.775322e-01
     vertex  1.864034e-01  1.156332e-01  2.797934e-01
   endloop
 endfacet
 facet normal -8.451955e-01  5.300620e-01  6.840214e-02
   outer loop
     vertex  1.863013e-01  1.153146e-01  2.797934e-01
     vertex  1.861394e-01  1.153483e-01  2.775322e-01
     vertex  1.862121e-01  1.151724e-01  2.797934e-01
   endloop
 endfacet
 facet normal -9.213580e-01  3.826137e-01  6.860184e-02
   outer loop
     vertex  1.863013e-01  1.153146e-01  2.797934e-01
     vertex  1.862046e-01  1.154872e-01  2.775322e-01
     vertex  1.861751e-01  1.154163e-01  2.775322e-01
   endloop
 endfacet
 facet normal -8.830170e-01  4.640725e-01  7.012614e-02
   outer loop
     vertex  1.863013e-01  1.153146e-01  2.797934e-01
     vertex  1.861751e-01  1.154163e-01  2.775322e-01
     vertex  1.861394e-01  1.153483e-01  2.775322e-01
   endloop
 endfacet
 facet normal -9.519998e-01  2.979577e-01  7.012614e-02
   outer loop
     vertex  1.863656e-01  1.154697e-01  2.797934e-01
     vertex  1.862275e-01  1.155605e-01  2.775322e-01
     vertex  1.862046e-01  1.154872e-01  2.775322e-01
   endloop
 endfacet
 facet normal -9.213580e-01  3.826137e-01  6.860184e-02
   outer loop
     vertex  1.863656e-01  1.154697e-01  2.797934e-01
     vertex  1.862046e-01  1.154872e-01  2.775322e-01
     vertex  1.863013e-01  1.153146e-01  2.797934e-01
   endloop
 endfacet
 facet normal -9.720500e-01  2.245883e-01  6.840214e-02
   outer loop
     vertex  1.864034e-01  1.156332e-01  2.797934e-01
     vertex  1.862275e-01  1.155605e-01  2.775322e-01
     vertex  1.863656e-01  1.154697e-01  2.797934e-01
   endloop
 endfacet
 facet normal -9.242246e-01 -3.818493e-01 -2.497329e-12
   outer loop
     vertex  1.862562e-01  1.150657e-01  2.775322e-01
     vertex  1.863560e-01  1.148240e-01  2.797311e-01
     vertex  1.862121e-01  1.151724e-01  2.797934e-01
   endloop
 endfacet
 facet normal -9.242246e-01 -3.818493e-01  1.152436e-12
   outer loop
     vertex  1.862562e-01  1.150657e-01  2.775322e-01
     vertex  1.864983e-01  1.144795e-01  2.796467e-01
     vertex  1.863560e-01  1.148240e-01  2.797311e-01
   endloop
 endfacet
 facet normal -9.242246e-01 -3.818493e-01  4.283126e-11
   outer loop
     vertex  1.862562e-01  1.150657e-01  2.775322e-01
     vertex  1.866385e-01  1.141403e-01  2.795404e-01
     vertex  1.864983e-01  1.144795e-01  2.796467e-01
   endloop
 endfacet
 facet normal -9.242246e-01 -3.818493e-01 -6.363986e-12
   outer loop
     vertex  1.862562e-01  1.150657e-01  2.775322e-01
     vertex  1.862121e-01  1.151724e-01  2.797934e-01
     vertex  1.861394e-01  1.153483e-01  2.775322e-01
   endloop
 endfacet
 facet normal -0.000000e+00  0.000000e+00  1.000000e+00
   outer loop
     vertex  1.858912e-01  1.150796e-01  2.775322e-01
     vertex  1.862562e-01  1.150657e-01  2.775322e-01
     vertex  1.861394e-01  1.153483e-01  2.775322e-01
   endloop
 endfacet
 facet normal  0.000000e+00 -0.000000e+00  1.000000e+00
   outer loop
     vertex  1.853042e-01  1.146724e-01  2.775322e-01
     vertex  1.855530e-01  1.149398e-01  2.775322e-01
     vertex  1.851875e-01  1.149550e-01  2.775322e-01
   endloop
 endfacet
 facet normal  0.000000e+00  0.000000e+00  1.000000e+00
   outer loop
     vertex  1.853042e-01  1.146724e-01  2.775322e-01
     vertex  1.862562e-01  1.150657e-01  2.775322e-01
     vertex  1.855530e-01  1.149398e-01  2.775322e-01
   endloop
 endfacet
 facet normal  0.000000e+00  0.000000e+00  1.000000e+00
   outer loop
     vertex  1.855530e-01  1.149398e-01  2.775322e-01
     vertex  1.862562e-01  1.150657e-01  2.775322e-01
     vertex  1.858912e-01  1.150796e-01  2.775322e-01
   endloop
 endfacet
 facet normal  9.242246e-01  3.818493e-01 -9.289713e-12
   outer loop
     vertex  1.853042e-01  1.146724e-01  2.775322e-01
     vertex  1.855464e-01  1.140862e-01  2.796467e-01
     vertex  1.856866e-01  1.137470e-01  2.795404e-01
   endloop
 endfacet
 facet normal  9.242246e-01  3.818493e-01  3.267847e-11
   outer loop
     vertex  1.853042e-01  1.146724e-01  2.775322e-01
     vertex  1.854041e-01  1.144307e-01  2.797311e-01
     vertex  1.855464e-01  1.140862e-01  2.796467e-01
   endloop
 endfacet
 facet normal  9.242246e-01  3.818493e-01  1.041792e-11
   outer loop
     vertex  1.853042e-01  1.146724e-01  2.775322e-01
     vertex  1.852601e-01  1.147791e-01  2.797934e-01
     vertex  1.854041e-01  1.144307e-01  2.797311e-01
   endloop
 endfacet
 facet normal  9.242246e-01  3.818493e-01  5.457635e-12
   outer loop
     vertex  1.853042e-01  1.146724e-01  2.775322e-01
     vertex  1.851875e-01  1.149550e-01  2.775322e-01
     vertex  1.852601e-01  1.147791e-01  2.797934e-01
   endloop
 endfacet
 facet normal  4.640725e-01  8.830170e-01  7.012614e-02
   outer loop
     vertex  1.849415e-01  1.148813e-01  2.797934e-01
     vertex  1.850432e-01  1.150074e-01  2.775322e-01
     vertex  1.849752e-01  1.150432e-01  2.775322e-01
   endloop
 endfacet
 facet normal  5.300620e-01  8.451955e-01  6.840214e-02
   outer loop
     vertex  1.849415e-01  1.148813e-01  2.797934e-01
     vertex  1.849752e-01  1.150432e-01  2.775322e-01
     vertex  1.847993e-01  1.149705e-01  2.797934e-01
   endloop
 endfacet
 facet normal  3.826137e-01  9.213580e-01  6.860184e-02
   outer loop
     vertex  1.850966e-01  1.148169e-01  2.797934e-01
     vertex  1.851142e-01  1.149780e-01  2.775322e-01
     vertex  1.850432e-01  1.150074e-01  2.775322e-01
   endloop
 endfacet
 facet normal  2.979577e-01  9.519998e-01  7.012614e-02
   outer loop
     vertex  1.850966e-01  1.148169e-01  2.797934e-01
     vertex  1.851875e-01  1.149550e-01  2.775322e-01
     vertex  1.851142e-01  1.149780e-01  2.775322e-01
   endloop
 endfacet
 facet normal  3.826137e-01  9.213580e-01  6.860184e-02
   outer loop
     vertex  1.850966e-01  1.148169e-01  2.797934e-01
     vertex  1.850432e-01  1.150074e-01  2.775322e-01
     vertex  1.849415e-01  1.148813e-01  2.797934e-01
   endloop
 endfacet
 facet normal  2.245883e-01  9.720500e-01  6.840214e-02
   outer loop
     vertex  1.852601e-01  1.147791e-01  2.797934e-01
     vertex  1.851875e-01  1.149550e-01  2.775322e-01
     vertex  1.850966e-01  1.148169e-01  2.797934e-01
   endloop
 endfacet
 facet normal -3.818493e-01  9.242246e-01 -9.714216e-12
   outer loop
     vertex  1.846926e-01  1.149264e-01  2.775322e-01
     vertex  1.844509e-01  1.148265e-01  2.797311e-01
     vertex  1.847993e-01  1.149705e-01  2.797934e-01
   endloop
 endfacet
 facet normal -3.818493e-01  9.242246e-01 -2.316353e-11
   outer loop
     vertex  1.846926e-01  1.149264e-01  2.775322e-01
     vertex  1.841065e-01  1.146842e-01  2.796467e-01
     vertex  1.844509e-01  1.148265e-01  2.797311e-01
   endloop
 endfacet
 facet normal -3.818493e-01  9.242246e-01 -7.405511e-12
   outer loop
     vertex  1.846926e-01  1.149264e-01  2.775322e-01
     vertex  1.837672e-01  1.145440e-01  2.795404e-01
     vertex  1.841065e-01  1.146842e-01  2.796467e-01
   endloop
 endfacet
 facet normal -3.818493e-01  9.242246e-01 -5.942230e-12
   outer loop
     vertex  1.849752e-01  1.150432e-01  2.775322e-01
     vertex  1.846926e-01  1.149264e-01  2.775322e-01
     vertex  1.847993e-01  1.149705e-01  2.797934e-01
   endloop
 endfacet
 facet normal  0.000000e+00 -0.000000e+00  1.000000e+00
   outer loop
     vertex  1.845668e-01  1.156295e-01  2.775322e-01
     vertex  1.845819e-01  1.159951e-01  2.775322e-01
     vertex  1.842993e-01  1.158783e-01  2.775322e-01
   endloop
 endfacet
 facet normal  0.000000e+00 -0.000000e+00  1.000000e+00
   outer loop
     vertex  1.846926e-01  1.149264e-01  2.775322e-01
     vertex  1.847065e-01  1.152914e-01  2.775322e-01
     vertex  1.845668e-01  1.156295e-01  2.775322e-01
   endloop
 endfacet
 facet normal  0.000000e+00  0.000000e+00  1.000000e+00
   outer loop
     vertex  1.846926e-01  1.149264e-01  2.775322e-01
     vertex  1.849752e-01  1.150432e-01  2.775322e-01
     vertex  1.847065e-01  1.152914e-01  2.775322e-01
   endloop
 endfacet
 facet normal  0.000000e+00  0.000000e+00  1.000000e+00
   outer loop
     vertex  1.846926e-01  1.149264e-01  2.775322e-01
     vertex  1.845668e-01  1.156295e-01  2.775322e-01
     vertex  1.842993e-01  1.158783e-01  2.775322e-01
   endloop
 endfacet
 facet normal  3.818493e-01 -9.242246e-01  3.246132e-12
   outer loop
     vertex  1.842993e-01  1.158783e-01  2.775322e-01
     vertex  1.837131e-01  1.156362e-01  2.796467e-01
     vertex  1.833739e-01  1.154960e-01  2.795404e-01
   endloop
 endfacet
 facet normal  3.818493e-01 -9.242246e-01  1.908233e-11
   outer loop
     vertex  1.842993e-01  1.158783e-01  2.775322e-01
     vertex  1.840576e-01  1.157785e-01  2.797311e-01
     vertex  1.837131e-01  1.156362e-01  2.796467e-01
   endloop
 endfacet
 facet normal  3.818493e-01 -9.242246e-01  9.714216e-12
   outer loop
     vertex  1.842993e-01  1.158783e-01  2.775322e-01
     vertex  1.844060e-01  1.159224e-01  2.797934e-01
     vertex  1.840576e-01  1.157785e-01  2.797311e-01
   endloop
 endfacet
 facet normal  3.818493e-01 -9.242246e-01  5.942230e-12
   outer loop
     vertex  1.842993e-01  1.158783e-01  2.775322e-01
     vertex  1.845819e-01  1.159951e-01  2.775322e-01
     vertex  1.844060e-01  1.159224e-01  2.797934e-01
   endloop
 endfacet
 facet normal  8.451955e-01 -5.300620e-01  6.840214e-02
   outer loop
     vertex  1.845082e-01  1.162410e-01  2.797934e-01
     vertex  1.846701e-01  1.162073e-01  2.775322e-01
     vertex  1.845974e-01  1.163832e-01  2.797934e-01
   endloop
 endfacet
 facet normal  9.213580e-01 -3.826137e-01  6.860184e-02
   outer loop
     vertex  1.845082e-01  1.162410e-01  2.797934e-01
     vertex  1.846049e-01  1.160684e-01  2.775322e-01
     vertex  1.846343e-01  1.161393e-01  2.775322e-01
   endloop
 endfacet
 facet normal  8.830170e-01 -4.640725e-01  7.012614e-02
   outer loop
     vertex  1.845082e-01  1.162410e-01  2.797934e-01
     vertex  1.846343e-01  1.161393e-01  2.775322e-01
     vertex  1.846701e-01  1.162073e-01  2.775322e-01
   endloop
 endfacet
 facet normal  9.519998e-01 -2.979577e-01  7.012614e-02
   outer loop
     vertex  1.844438e-01  1.160860e-01  2.797934e-01
     vertex  1.845819e-01  1.159951e-01  2.775322e-01
     vertex  1.846049e-01  1.160684e-01  2.775322e-01
   endloop
 endfacet
 facet normal  9.213580e-01 -3.826137e-01  6.860184e-02
   outer loop
     vertex  1.844438e-01  1.160860e-01  2.797934e-01
     vertex  1.846049e-01  1.160684e-01  2.775322e-01
     vertex  1.845082e-01  1.162410e-01  2.797934e-01
   endloop
 endfacet
 facet normal  9.720500e-01 -2.245883e-01  6.840214e-02
   outer loop
     vertex  1.844060e-01  1.159224e-01  2.797934e-01
     vertex  1.845819e-01  1.159951e-01  2.775322e-01
     vertex  1.844438e-01  1.160860e-01  2.797934e-01
   endloop
 endfacet
 facet normal -2.726142e-01 -1.489746e-01  9.505199e-01
   outer loop
     vertex  1.861030e-01  1.162643e-01  2.775322e-01
     vertex  1.854047e-01  1.157778e-01  2.772557e-01
     vertex  1.861912e-01  1.161028e-01  2.775322e-01
   endloop
 endfacet
 facet normal -2.342159e-01 -2.040953e-01  9.505199e-01
   outer loop
     vertex  1.859821e-01  1.164030e-01  2.775322e-01
     vertex  1.854047e-01  1.157778e-01  2.772557e-01
     vertex  1.861030e-01  1.162643e-01  2.775322e-01
   endloop
 endfacet
 facet normal -1.848660e-01 -2.496728e-01  9.505199e-01
   outer loop
     vertex  1.858342e-01  1.165125e-01  2.775322e-01
     vertex  1.854047e-01  1.157778e-01  2.772557e-01
     vertex  1.859821e-01  1.164030e-01  2.775322e-01
   endloop
 endfacet
 facet normal -1.438928e-01 -2.737929e-01  9.509639e-01
   outer loop
     vertex  1.857662e-01  1.165482e-01  2.775322e-01
     vertex  1.854047e-01  1.157778e-01  2.772557e-01
     vertex  1.858342e-01  1.165125e-01  2.775322e-01
   endloop
 endfacet
 facet normal -1.186226e-01 -2.856508e-01  9.509639e-01
   outer loop
     vertex  1.856953e-01  1.165777e-01  2.775322e-01
     vertex  1.854047e-01  1.157778e-01  2.772557e-01
     vertex  1.857662e-01  1.165482e-01  2.775322e-01
   endloop
 endfacet
 facet normal -9.238634e-02 -2.951821e-01  9.509639e-01
   outer loop
     vertex  1.856220e-01  1.166006e-01  2.775322e-01
     vertex  1.854047e-01  1.157778e-01  2.772557e-01
     vertex  1.856953e-01  1.165777e-01  2.775322e-01
   endloop
 endfacet
 facet normal -1.310458e-02 -3.154129e-01  9.488640e-01
   outer loop
     vertex  1.852565e-01  1.166158e-01  2.775322e-01
     vertex  1.854047e-01  1.157778e-01  2.772557e-01
     vertex  1.856220e-01  1.166006e-01  2.775322e-01
   endloop
 endfacet
 facet normal  1.205441e-01 -2.917639e-01  9.488640e-01
   outer loop
     vertex  1.849183e-01  1.164761e-01  2.775322e-01
     vertex  1.854047e-01  1.157778e-01  2.772557e-01
     vertex  1.852565e-01  1.166158e-01  2.775322e-01
   endloop
 endfacet
 facet normal  2.319107e-01 -2.141833e-01  9.488640e-01
   outer loop
     vertex  1.846701e-01  1.162073e-01  2.775322e-01
     vertex  1.854047e-01  1.157778e-01  2.772557e-01
     vertex  1.849183e-01  1.164761e-01  2.775322e-01
   endloop
 endfacet
 facet normal  2.737929e-01 -1.438928e-01  9.509639e-01
   outer loop
     vertex  1.846343e-01  1.161393e-01  2.775322e-01
     vertex  1.854047e-01  1.157778e-01  2.772557e-01
     vertex  1.846701e-01  1.162073e-01  2.775322e-01
   endloop
 endfacet
 facet normal  2.856508e-01 -1.186226e-01  9.509639e-01
   outer loop
     vertex  1.846049e-01  1.160684e-01  2.775322e-01
     vertex  1.854047e-01  1.157778e-01  2.772557e-01
     vertex  1.846343e-01  1.161393e-01  2.775322e-01
   endloop
 endfacet
 facet normal  2.951821e-01 -9.238634e-02  9.509639e-01
   outer loop
     vertex  1.845819e-01  1.159951e-01  2.775322e-01
     vertex  1.854047e-01  1.157778e-01  2.772557e-01
     vertex  1.846049e-01  1.160684e-01  2.775322e-01
   endloop
 endfacet
 facet normal  3.154129e-01 -1.310458e-02  9.488640e-01
   outer loop
     vertex  1.845668e-01  1.156295e-01  2.775322e-01
     vertex  1.854047e-01  1.157778e-01  2.772557e-01
     vertex  1.845819e-01  1.159951e-01  2.775322e-01
   endloop
 endfacet
 facet normal  1.438928e-01  2.737929e-01  9.509639e-01
   outer loop
     vertex  1.854047e-01  1.157778e-01  2.772557e-01
     vertex  1.849752e-01  1.150432e-01  2.775322e-01
     vertex  1.850432e-01  1.150074e-01  2.775322e-01
   endloop
 endfacet
 facet normal  1.186226e-01  2.856508e-01  9.509639e-01
   outer loop
     vertex  1.854047e-01  1.157778e-01  2.772557e-01
     vertex  1.850432e-01  1.150074e-01  2.775322e-01
     vertex  1.851142e-01  1.149780e-01  2.775322e-01
   endloop
 endfacet
 facet normal  9.238634e-02  2.951821e-01  9.509639e-01
   outer loop
     vertex  1.854047e-01  1.157778e-01  2.772557e-01
     vertex  1.851142e-01  1.149780e-01  2.775322e-01
     vertex  1.851875e-01  1.149550e-01  2.775322e-01
   endloop
 endfacet
 facet normal  2.917639e-01  1.205441e-01  9.488640e-01
   outer loop
     vertex  1.854047e-01  1.157778e-01  2.772557e-01
     vertex  1.845668e-01  1.156295e-01  2.775322e-01
     vertex  1.847065e-01  1.152914e-01  2.775322e-01
   endloop
 endfacet
 facet normal  2.141833e-01  2.319107e-01  9.488640e-01
   outer loop
     vertex  1.854047e-01  1.157778e-01  2.772557e-01
     vertex  1.847065e-01  1.152914e-01  2.775322e-01
     vertex  1.849752e-01  1.150432e-01  2.775322e-01
   endloop
 endfacet
 facet normal  0.000000e+00  0.000000e+00  0.000000e+00
   outer loop
     vertex  1.854047e-01  1.157778e-01  2.772557e-01
     vertex  1.854047e-01  1.157778e-01  2.772557e-01
     vertex  1.845668e-01  1.156295e-01  2.775322e-01
   endloop
 endfacet
 facet normal  1.310458e-02  3.154129e-01  9.488640e-01
   outer loop
     vertex  1.855530e-01  1.149398e-01  2.775322e-01
     vertex  1.854047e-01  1.157778e-01  2.772557e-01
     vertex  1.851875e-01  1.149550e-01  2.775322e-01
   endloop
 endfacet
 facet normal -1.205441e-01  2.917639e-01  9.488640e-01
   outer loop
     vertex  1.858912e-01  1.150796e-01  2.775322e-01
     vertex  1.854047e-01  1.157778e-01  2.772557e-01
     vertex  1.855530e-01  1.149398e-01  2.775322e-01
   endloop
 endfacet
 facet normal -2.319107e-01  2.141833e-01  9.488640e-01
   outer loop
     vertex  1.861394e-01  1.153483e-01  2.775322e-01
     vertex  1.854047e-01  1.157778e-01  2.772557e-01
     vertex  1.858912e-01  1.150796e-01  2.775322e-01
   endloop
 endfacet
 facet normal -2.737929e-01  1.438928e-01  9.509639e-01
   outer loop
     vertex  1.861751e-01  1.154163e-01  2.775322e-01
     vertex  1.854047e-01  1.157778e-01  2.772557e-01
     vertex  1.861394e-01  1.153483e-01  2.775322e-01
   endloop
 endfacet
 facet normal -2.856508e-01  1.186226e-01  9.509639e-01
   outer loop
     vertex  1.862046e-01  1.154872e-01  2.775322e-01
     vertex  1.854047e-01  1.157778e-01  2.772557e-01
     vertex  1.861751e-01  1.154163e-01  2.775322e-01
   endloop
 endfacet
 facet normal -2.951821e-01  9.238634e-02  9.509639e-01
   outer loop
     vertex  1.862275e-01  1.155605e-01  2.775322e-01
     vertex  1.854047e-01  1.157778e-01  2.772557e-01
     vertex  1.862046e-01  1.154872e-01  2.775322e-01
   endloop
 endfacet
 facet normal -3.071821e-01  4.638000e-02  9.505199e-01
   outer loop
     vertex  1.862550e-01  1.157425e-01  2.775322e-01
     vertex  1.854047e-01  1.157778e-01  2.772557e-01
     vertex  1.862275e-01  1.155605e-01  2.775322e-01
   endloop
 endfacet
 facet normal -3.099707e-01 -2.073891e-02  9.505199e-01
   outer loop
     vertex  1.862427e-01  1.159261e-01  2.775322e-01
     vertex  1.854047e-01  1.157778e-01  2.772557e-01
     vertex  1.862550e-01  1.157425e-01  2.775322e-01
   endloop
 endfacet
 facet normal -2.982657e-01 -8.688811e-02  9.505199e-01
   outer loop
     vertex  1.861912e-01  1.161028e-01  2.775322e-01
     vertex  1.854047e-01  1.157778e-01  2.772557e-01
     vertex  1.862427e-01  1.159261e-01  2.775322e-01
   endloop
 endfacet
 facet normal  8.271204e-01  3.417301e-01  4.461978e-01
   outer loop
     vertex  1.842993e-01  1.158783e-01  2.775322e-01
     vertex  1.833739e-01  1.154960e-01  2.795404e-01
     vertex  1.834974e-01  1.151757e-01  2.795569e-01
   endloop
 endfacet
 facet normal  8.271204e-01  3.417301e-01  4.461978e-01
   outer loop
     vertex  1.846926e-01  1.149264e-01  2.775322e-01
     vertex  1.834974e-01  1.151757e-01  2.795569e-01
     vertex  1.836286e-01  1.148581e-01  2.795569e-01
   endloop
 endfacet
 facet normal  8.271204e-01  3.417301e-01  4.461978e-01
   outer loop
     vertex  1.846926e-01  1.149264e-01  2.775322e-01
     vertex  1.836286e-01  1.148581e-01  2.795569e-01
     vertex  1.837672e-01  1.145440e-01  2.795404e-01
   endloop
 endfacet
 facet normal  8.271204e-01  3.417301e-01  4.461978e-01
   outer loop
     vertex  1.846926e-01  1.149264e-01  2.775322e-01
     vertex  1.842993e-01  1.158783e-01  2.775322e-01
     vertex  1.834974e-01  1.151757e-01  2.795569e-01
   endloop
 endfacet
 facet normal -3.417301e-01  8.271204e-01  4.461978e-01
   outer loop
     vertex  1.863245e-01  1.140017e-01  2.795569e-01
     vertex  1.866385e-01  1.141403e-01  2.795404e-01
     vertex  1.862562e-01  1.150657e-01  2.775322e-01
   endloop
 endfacet
 facet normal -3.417301e-01  8.271204e-01  4.461978e-01
   outer loop
     vertex  1.863245e-01  1.140017e-01  2.795569e-01
     vertex  1.862562e-01  1.150657e-01  2.775322e-01
     vertex  1.853042e-01  1.146724e-01  2.775322e-01
   endloop
 endfacet
 facet normal -3.417301e-01  8.271204e-01  4.461978e-01
   outer loop
     vertex  1.860069e-01  1.138705e-01  2.795569e-01
     vertex  1.863245e-01  1.140017e-01  2.795569e-01
     vertex  1.853042e-01  1.146724e-01  2.775322e-01
   endloop
 endfacet
 facet normal -3.417301e-01  8.271204e-01  4.461978e-01
   outer loop
     vertex  1.856866e-01  1.137470e-01  2.795404e-01
     vertex  1.860069e-01  1.138705e-01  2.795569e-01
     vertex  1.853042e-01  1.146724e-01  2.775322e-01
   endloop
 endfacet
 facet normal -8.271204e-01 -3.417301e-01  4.461978e-01
   outer loop
     vertex  1.871809e-01  1.166976e-01  2.795569e-01
     vertex  1.870423e-01  1.170116e-01  2.795404e-01
     vertex  1.861169e-01  1.166293e-01  2.775322e-01
   endloop
 endfacet
 facet normal -8.271204e-01 -3.417301e-01  4.461978e-01
   outer loop
     vertex  1.873121e-01  1.163799e-01  2.795569e-01
     vertex  1.861169e-01  1.166293e-01  2.775322e-01
     vertex  1.865102e-01  1.156773e-01  2.775322e-01
   endloop
 endfacet
 facet normal -8.271204e-01 -3.417301e-01  4.461978e-01
   outer loop
     vertex  1.873121e-01  1.163799e-01  2.795569e-01
     vertex  1.871809e-01  1.166976e-01  2.795569e-01
     vertex  1.861169e-01  1.166293e-01  2.775322e-01
   endloop
 endfacet
 facet normal -8.271204e-01 -3.417301e-01  4.461978e-01
   outer loop
     vertex  1.874356e-01  1.160597e-01  2.795404e-01
     vertex  1.873121e-01  1.163799e-01  2.795569e-01
     vertex  1.865102e-01  1.156773e-01  2.775322e-01
   endloop
 endfacet
 facet normal  3.417301e-01 -8.271204e-01  4.461978e-01
   outer loop
     vertex  1.855052e-01  1.168833e-01  2.775322e-01
     vertex  1.851229e-01  1.178087e-01  2.795404e-01
     vertex  1.848026e-01  1.176852e-01  2.795569e-01
   endloop
 endfacet
 facet normal  3.417301e-01 -8.271204e-01  4.461978e-01
   outer loop
     vertex  1.855052e-01  1.168833e-01  2.775322e-01
     vertex  1.848026e-01  1.176852e-01  2.795569e-01
     vertex  1.844850e-01  1.175540e-01  2.795569e-01
   endloop
 endfacet
 facet normal  3.417301e-01 -8.271204e-01  4.461978e-01
   outer loop
     vertex  1.845533e-01  1.164900e-01  2.775322e-01
     vertex  1.844850e-01  1.175540e-01  2.795569e-01
     vertex  1.841710e-01  1.174153e-01  2.795404e-01
   endloop
 endfacet
 facet normal  3.417301e-01 -8.271204e-01  4.461978e-01
   outer loop
     vertex  1.845533e-01  1.164900e-01  2.775322e-01
     vertex  1.855052e-01  1.168833e-01  2.775322e-01
     vertex  1.844850e-01  1.175540e-01  2.795569e-01
   endloop
 endfacet
endsolid
