solid 
 facet normal  0.000000e+00  0.000000e+00 -1.000000e+00
   outer loop
     vertex  2.244997e-01  2.153925e-01  1.006922e-01
     vertex  2.231997e-01  2.124441e-01  1.006922e-01
     vertex  2.218997e-01  2.127925e-01  1.006922e-01
   endloop
 endfacet
 facet normal  0.000000e+00  0.000000e+00 -1.000000e+00
   outer loop
     vertex  2.235481e-01  2.163441e-01  1.006922e-01
     vertex  2.218997e-01  2.127925e-01  1.006922e-01
     vertex  2.209481e-01  2.137441e-01  1.006922e-01
   endloop
 endfacet
 facet normal  0.000000e+00  0.000000e+00 -1.000000e+00
   outer loop
     vertex  2.235481e-01  2.163441e-01  1.006922e-01
     vertex  2.209481e-01  2.137441e-01  1.006922e-01
     vertex  2.205997e-01  2.150441e-01  1.006922e-01
   endloop
 endfacet
 facet normal  0.000000e+00 -0.000000e+00 -1.000000e+00
   outer loop
     vertex  2.235481e-01  2.163441e-01  1.006922e-01
     vertex  2.244997e-01  2.153925e-01  1.006922e-01
     vertex  2.218997e-01  2.127925e-01  1.006922e-01
   endloop
 endfacet
 facet normal  0.000000e+00 -0.000000e+00 -1.000000e+00
   outer loop
     vertex  2.231997e-01  2.176441e-01  1.006922e-01
     vertex  2.235481e-01  2.163441e-01  1.006922e-01
     vertex  2.205997e-01  2.150441e-01  1.006922e-01
   endloop
 endfacet
 facet normal -0.000000e+00  0.000000e+00 -1.000000e+00
   outer loop
     vertex  2.257997e-01  2.150441e-01  1.006922e-01
     vertex  2.231997e-01  2.124441e-01  1.006922e-01
     vertex  2.244997e-01  2.153925e-01  1.006922e-01
   endloop
 endfacet
 facet normal  0.000000e+00  0.000000e+00 -1.000000e+00
   outer loop
     vertex  2.205997e-01  2.598441e-01  1.006922e-01
     vertex  2.231997e-01  2.572441e-01  1.006922e-01
     vertex  2.231997e-01  2.176441e-01  1.006922e-01
   endloop
 endfacet
 facet normal  0.000000e+00  0.000000e+00 -1.000000e+00
   outer loop
     vertex  2.205997e-01  2.598441e-01  1.006922e-01
     vertex  2.231997e-01  2.176441e-01  1.006922e-01
     vertex  2.205997e-01  2.150441e-01  1.006922e-01
   endloop
 endfacet
 facet normal  0.000000e+00  0.000000e+00 -1.000000e+00
   outer loop
     vertex  2.679997e-01  2.124441e-01  1.006922e-01
     vertex  2.257997e-01  2.150441e-01  1.006922e-01
     vertex  2.653997e-01  2.150441e-01  1.006922e-01
   endloop
 endfacet
 facet normal  0.000000e+00  0.000000e+00 -1.000000e+00
   outer loop
     vertex  2.679997e-01  2.124441e-01  1.006922e-01
     vertex  2.231997e-01  2.124441e-01  1.006922e-01
     vertex  2.257997e-01  2.150441e-01  1.006922e-01
   endloop
 endfacet
 facet normal  0.000000e+00 -0.000000e+00 -1.000000e+00
   outer loop
     vertex  2.666997e-01  2.153925e-01  1.006922e-01
     vertex  2.679997e-01  2.124441e-01  1.006922e-01
     vertex  2.653997e-01  2.150441e-01  1.006922e-01
   endloop
 endfacet
 facet normal -0.000000e+00  0.000000e+00 -1.000000e+00
   outer loop
     vertex  2.692997e-01  2.127925e-01  1.006922e-01
     vertex  2.679997e-01  2.124441e-01  1.006922e-01
     vertex  2.666997e-01  2.153925e-01  1.006922e-01
   endloop
 endfacet
 facet normal  0.000000e+00  0.000000e+00 -1.000000e+00
   outer loop
     vertex  2.235481e-01  2.585441e-01  1.006922e-01
     vertex  2.205997e-01  2.598441e-01  1.006922e-01
     vertex  2.209481e-01  2.611441e-01  1.006922e-01
   endloop
 endfacet
 facet normal -0.000000e+00  0.000000e+00 -1.000000e+00
   outer loop
     vertex  2.235481e-01  2.585441e-01  1.006922e-01
     vertex  2.231997e-01  2.572441e-01  1.006922e-01
     vertex  2.205997e-01  2.598441e-01  1.006922e-01
   endloop
 endfacet
 facet normal  0.000000e+00  0.000000e+00 -1.000000e+00
   outer loop
     vertex  2.676514e-01  2.163441e-01  1.006922e-01
     vertex  2.702514e-01  2.137441e-01  1.006922e-01
     vertex  2.692997e-01  2.127925e-01  1.006922e-01
   endloop
 endfacet
 facet normal  0.000000e+00 -0.000000e+00 -1.000000e+00
   outer loop
     vertex  2.676514e-01  2.163441e-01  1.006922e-01
     vertex  2.692997e-01  2.127925e-01  1.006922e-01
     vertex  2.666997e-01  2.153925e-01  1.006922e-01
   endloop
 endfacet
 facet normal  0.000000e+00  0.000000e+00 -1.000000e+00
   outer loop
     vertex  2.218997e-01  2.620958e-01  1.006922e-01
     vertex  2.244997e-01  2.594958e-01  1.006922e-01
     vertex  2.235481e-01  2.585441e-01  1.006922e-01
   endloop
 endfacet
 facet normal  0.000000e+00 -0.000000e+00 -1.000000e+00
   outer loop
     vertex  2.218997e-01  2.620958e-01  1.006922e-01
     vertex  2.235481e-01  2.585441e-01  1.006922e-01
     vertex  2.209481e-01  2.611441e-01  1.006922e-01
   endloop
 endfacet
 facet normal  0.000000e+00 -0.000000e+00 -1.000000e+00
   outer loop
     vertex  2.231997e-01  2.624441e-01  1.006922e-01
     vertex  2.244997e-01  2.594958e-01  1.006922e-01
     vertex  2.218997e-01  2.620958e-01  1.006922e-01
   endloop
 endfacet
 facet normal -0.000000e+00  0.000000e+00 -1.000000e+00
   outer loop
     vertex  2.257997e-01  2.598441e-01  1.006922e-01
     vertex  2.244997e-01  2.594958e-01  1.006922e-01
     vertex  2.231997e-01  2.624441e-01  1.006922e-01
   endloop
 endfacet
 facet normal -0.000000e+00  0.000000e+00 -1.000000e+00
   outer loop
     vertex  2.705997e-01  2.150441e-01  1.006922e-01
     vertex  2.702514e-01  2.137441e-01  1.006922e-01
     vertex  2.676514e-01  2.163441e-01  1.006922e-01
   endloop
 endfacet
 facet normal  0.000000e+00 -0.000000e+00 -1.000000e+00
   outer loop
     vertex  2.679997e-01  2.176441e-01  1.006922e-01
     vertex  2.705997e-01  2.150441e-01  1.006922e-01
     vertex  2.676514e-01  2.163441e-01  1.006922e-01
   endloop
 endfacet
 facet normal  0.000000e+00  0.000000e+00 -1.000000e+00
   outer loop
     vertex  2.705997e-01  2.598441e-01  1.006922e-01
     vertex  2.679997e-01  2.572441e-01  1.006922e-01
     vertex  2.676514e-01  2.585441e-01  1.006922e-01
   endloop
 endfacet
 facet normal  0.000000e+00  0.000000e+00 -1.000000e+00
   outer loop
     vertex  2.705997e-01  2.598441e-01  1.006922e-01
     vertex  2.679997e-01  2.176441e-01  1.006922e-01
     vertex  2.679997e-01  2.572441e-01  1.006922e-01
   endloop
 endfacet
 facet normal  0.000000e+00 -0.000000e+00 -1.000000e+00
   outer loop
     vertex  2.705997e-01  2.598441e-01  1.006922e-01
     vertex  2.705997e-01  2.150441e-01  1.006922e-01
     vertex  2.679997e-01  2.176441e-01  1.006922e-01
   endloop
 endfacet
 facet normal  0.000000e+00  0.000000e+00 -1.000000e+00
   outer loop
     vertex  2.679997e-01  2.624441e-01  1.006922e-01
     vertex  2.653997e-01  2.598441e-01  1.006922e-01
     vertex  2.257997e-01  2.598441e-01  1.006922e-01
   endloop
 endfacet
 facet normal  0.000000e+00  0.000000e+00 -1.000000e+00
   outer loop
     vertex  2.679997e-01  2.624441e-01  1.006922e-01
     vertex  2.666997e-01  2.594958e-01  1.006922e-01
     vertex  2.653997e-01  2.598441e-01  1.006922e-01
   endloop
 endfacet
 facet normal -0.000000e+00  0.000000e+00 -1.000000e+00
   outer loop
     vertex  2.679997e-01  2.624441e-01  1.006922e-01
     vertex  2.257997e-01  2.598441e-01  1.006922e-01
     vertex  2.231997e-01  2.624441e-01  1.006922e-01
   endloop
 endfacet
 facet normal -0.000000e+00  0.000000e+00 -1.000000e+00
   outer loop
     vertex  2.692997e-01  2.620958e-01  1.006922e-01
     vertex  2.666997e-01  2.594958e-01  1.006922e-01
     vertex  2.679997e-01  2.624441e-01  1.006922e-01
   endloop
 endfacet
 facet normal  0.000000e+00  0.000000e+00 -1.000000e+00
   outer loop
     vertex  2.702514e-01  2.611441e-01  1.006922e-01
     vertex  2.676514e-01  2.585441e-01  1.006922e-01
     vertex  2.666997e-01  2.594958e-01  1.006922e-01
   endloop
 endfacet
 facet normal  0.000000e+00 -0.000000e+00 -1.000000e+00
   outer loop
     vertex  2.702514e-01  2.611441e-01  1.006922e-01
     vertex  2.705997e-01  2.598441e-01  1.006922e-01
     vertex  2.676514e-01  2.585441e-01  1.006922e-01
   endloop
 endfacet
 facet normal -0.000000e+00  0.000000e+00 -1.000000e+00
   outer loop
     vertex  2.702514e-01  2.611441e-01  1.006922e-01
     vertex  2.666997e-01  2.594958e-01  1.006922e-01
     vertex  2.692997e-01  2.620958e-01  1.006922e-01
   endloop
 endfacet
 facet normal -1.000000e+00  0.000000e+00  0.000000e+00
   outer loop
     vertex  2.679997e-01  2.176441e-01  9.006922e-01
     vertex  2.679997e-01  2.572441e-01  9.006922e-01
     vertex  2.679997e-01  2.572441e-01  1.006922e-01
   endloop
 endfacet
 facet normal -1.000000e+00  0.000000e+00 -0.000000e+00
   outer loop
     vertex  2.679997e-01  2.176441e-01  9.006922e-01
     vertex  2.679997e-01  2.572441e-01  1.006922e-01
     vertex  2.679997e-01  2.176441e-01  1.006922e-01
   endloop
 endfacet
 facet normal -2.588190e-01  9.659258e-01 -6.863316e-14
   outer loop
     vertex  2.666997e-01  2.153925e-01  9.006922e-01
     vertex  2.666997e-01  2.153925e-01  1.006922e-01
     vertex  2.653997e-01  2.150441e-01  1.006922e-01
   endloop
 endfacet
 facet normal -2.588190e-01  9.659258e-01 -3.431657e-14
   outer loop
     vertex  2.666997e-01  2.153925e-01  9.006922e-01
     vertex  2.653997e-01  2.150441e-01  1.006922e-01
     vertex  2.653997e-01  2.150441e-01  9.006922e-01
   endloop
 endfacet
 facet normal -7.071068e-01  7.071068e-01 -5.024296e-14
   outer loop
     vertex  2.676514e-01  2.163441e-01  9.006922e-01
     vertex  2.676514e-01  2.163441e-01  1.006922e-01
     vertex  2.666997e-01  2.153925e-01  1.006922e-01
   endloop
 endfacet
 facet normal -7.071068e-01  7.071068e-01 -5.024288e-14
   outer loop
     vertex  2.676514e-01  2.163441e-01  9.006922e-01
     vertex  2.666997e-01  2.153925e-01  1.006922e-01
     vertex  2.666997e-01  2.153925e-01  9.006922e-01
   endloop
 endfacet
 facet normal -9.659258e-01  2.588190e-01 -9.195100e-15
   outer loop
     vertex  2.679997e-01  2.176441e-01  9.006922e-01
     vertex  2.679997e-01  2.176441e-01  1.006922e-01
     vertex  2.676514e-01  2.163441e-01  1.006922e-01
   endloop
 endfacet
 facet normal -9.659258e-01  2.588190e-01 -1.839016e-14
   outer loop
     vertex  2.679997e-01  2.176441e-01  9.006922e-01
     vertex  2.676514e-01  2.163441e-01  1.006922e-01
     vertex  2.676514e-01  2.163441e-01  9.006922e-01
   endloop
 endfacet
 facet normal  0.000000e+00  1.000000e+00 -3.552714e-14
   outer loop
     vertex  2.257997e-01  2.150441e-01  9.006922e-01
     vertex  2.653997e-01  2.150441e-01  9.006922e-01
     vertex  2.653997e-01  2.150441e-01  1.006922e-01
   endloop
 endfacet
 facet normal  0.000000e+00  1.000000e+00 -3.552714e-14
   outer loop
     vertex  2.257997e-01  2.150441e-01  9.006922e-01
     vertex  2.653997e-01  2.150441e-01  1.006922e-01
     vertex  2.257997e-01  2.150441e-01  1.006922e-01
   endloop
 endfacet
 facet normal  9.659258e-01  2.588190e-01 -1.839020e-14
   outer loop
     vertex  2.235481e-01  2.163441e-01  9.006922e-01
     vertex  2.235481e-01  2.163441e-01  1.006922e-01
     vertex  2.231997e-01  2.176441e-01  1.006922e-01
   endloop
 endfacet
 facet normal  9.659258e-01  2.588190e-01 -9.195131e-15
   outer loop
     vertex  2.235481e-01  2.163441e-01  9.006922e-01
     vertex  2.231997e-01  2.176441e-01  1.006922e-01
     vertex  2.231997e-01  2.176441e-01  9.006922e-01
   endloop
 endfacet
 facet normal  7.071068e-01  7.071068e-01 -5.024296e-14
   outer loop
     vertex  2.244997e-01  2.153925e-01  9.006922e-01
     vertex  2.244997e-01  2.153925e-01  1.006922e-01
     vertex  2.235481e-01  2.163441e-01  1.006922e-01
   endloop
 endfacet
 facet normal  7.071068e-01  7.071068e-01 -5.024298e-14
   outer loop
     vertex  2.244997e-01  2.153925e-01  9.006922e-01
     vertex  2.235481e-01  2.163441e-01  1.006922e-01
     vertex  2.235481e-01  2.163441e-01  9.006922e-01
   endloop
 endfacet
 facet normal  2.588190e-01  9.659258e-01 -3.431658e-14
   outer loop
     vertex  2.257997e-01  2.150441e-01  9.006922e-01
     vertex  2.257997e-01  2.150441e-01  1.006922e-01
     vertex  2.244997e-01  2.153925e-01  1.006922e-01
   endloop
 endfacet
 facet normal  2.588190e-01  9.659258e-01 -6.863314e-14
   outer loop
     vertex  2.257997e-01  2.150441e-01  9.006922e-01
     vertex  2.244997e-01  2.153925e-01  1.006922e-01
     vertex  2.244997e-01  2.153925e-01  9.006922e-01
   endloop
 endfacet
 facet normal  1.000000e+00  0.000000e+00  0.000000e+00
   outer loop
     vertex  2.231997e-01  2.572441e-01  9.006922e-01
     vertex  2.231997e-01  2.176441e-01  9.006922e-01
     vertex  2.231997e-01  2.176441e-01  1.006922e-01
   endloop
 endfacet
 facet normal  1.000000e+00  0.000000e+00  0.000000e+00
   outer loop
     vertex  2.231997e-01  2.572441e-01  9.006922e-01
     vertex  2.231997e-01  2.176441e-01  1.006922e-01
     vertex  2.231997e-01  2.572441e-01  1.006922e-01
   endloop
 endfacet
 facet normal  0.000000e+00  0.000000e+00  1.000000e+00
   outer loop
     vertex  2.235481e-01  2.163441e-01  9.006922e-01
     vertex  2.205997e-01  2.150441e-01  9.006922e-01
     vertex  2.209481e-01  2.137441e-01  9.006922e-01
   endloop
 endfacet
 facet normal  0.000000e+00  0.000000e+00  1.000000e+00
   outer loop
     vertex  2.244997e-01  2.153925e-01  9.006922e-01
     vertex  2.209481e-01  2.137441e-01  9.006922e-01
     vertex  2.218997e-01  2.127925e-01  9.006922e-01
   endloop
 endfacet
 facet normal  0.000000e+00  0.000000e+00  1.000000e+00
   outer loop
     vertex  2.244997e-01  2.153925e-01  9.006922e-01
     vertex  2.218997e-01  2.127925e-01  9.006922e-01
     vertex  2.231997e-01  2.124441e-01  9.006922e-01
   endloop
 endfacet
 facet normal  0.000000e+00  0.000000e+00  1.000000e+00
   outer loop
     vertex  2.244997e-01  2.153925e-01  9.006922e-01
     vertex  2.235481e-01  2.163441e-01  9.006922e-01
     vertex  2.209481e-01  2.137441e-01  9.006922e-01
   endloop
 endfacet
 facet normal  0.000000e+00  0.000000e+00  1.000000e+00
   outer loop
     vertex  2.257997e-01  2.150441e-01  9.006922e-01
     vertex  2.244997e-01  2.153925e-01  9.006922e-01
     vertex  2.231997e-01  2.124441e-01  9.006922e-01
   endloop
 endfacet
 facet normal  0.000000e+00  0.000000e+00  1.000000e+00
   outer loop
     vertex  2.231997e-01  2.176441e-01  9.006922e-01
     vertex  2.205997e-01  2.150441e-01  9.006922e-01
     vertex  2.235481e-01  2.163441e-01  9.006922e-01
   endloop
 endfacet
 facet normal  0.000000e+00  0.000000e+00  1.000000e+00
   outer loop
     vertex  2.231997e-01  2.572441e-01  9.006922e-01
     vertex  2.205997e-01  2.598441e-01  9.006922e-01
     vertex  2.205997e-01  2.150441e-01  9.006922e-01
   endloop
 endfacet
 facet normal  0.000000e+00  0.000000e+00  1.000000e+00
   outer loop
     vertex  2.231997e-01  2.572441e-01  9.006922e-01
     vertex  2.205997e-01  2.150441e-01  9.006922e-01
     vertex  2.231997e-01  2.176441e-01  9.006922e-01
   endloop
 endfacet
 facet normal  0.000000e+00  0.000000e+00  1.000000e+00
   outer loop
     vertex  2.653997e-01  2.150441e-01  9.006922e-01
     vertex  2.231997e-01  2.124441e-01  9.006922e-01
     vertex  2.679997e-01  2.124441e-01  9.006922e-01
   endloop
 endfacet
 facet normal  0.000000e+00  0.000000e+00  1.000000e+00
   outer loop
     vertex  2.653997e-01  2.150441e-01  9.006922e-01
     vertex  2.257997e-01  2.150441e-01  9.006922e-01
     vertex  2.231997e-01  2.124441e-01  9.006922e-01
   endloop
 endfacet
 facet normal  0.000000e+00  0.000000e+00  1.000000e+00
   outer loop
     vertex  2.666997e-01  2.153925e-01  9.006922e-01
     vertex  2.653997e-01  2.150441e-01  9.006922e-01
     vertex  2.679997e-01  2.124441e-01  9.006922e-01
   endloop
 endfacet
 facet normal  0.000000e+00  0.000000e+00  1.000000e+00
   outer loop
     vertex  2.235481e-01  2.585441e-01  9.006922e-01
     vertex  2.209481e-01  2.611441e-01  9.006922e-01
     vertex  2.205997e-01  2.598441e-01  9.006922e-01
   endloop
 endfacet
 facet normal  0.000000e+00  0.000000e+00  1.000000e+00
   outer loop
     vertex  2.235481e-01  2.585441e-01  9.006922e-01
     vertex  2.205997e-01  2.598441e-01  9.006922e-01
     vertex  2.231997e-01  2.572441e-01  9.006922e-01
   endloop
 endfacet
 facet normal  0.000000e+00  0.000000e+00  1.000000e+00
   outer loop
     vertex  2.692997e-01  2.127925e-01  9.006922e-01
     vertex  2.666997e-01  2.153925e-01  9.006922e-01
     vertex  2.679997e-01  2.124441e-01  9.006922e-01
   endloop
 endfacet
 facet normal  0.000000e+00  0.000000e+00  1.000000e+00
   outer loop
     vertex  2.702514e-01  2.137441e-01  9.006922e-01
     vertex  2.676514e-01  2.163441e-01  9.006922e-01
     vertex  2.666997e-01  2.153925e-01  9.006922e-01
   endloop
 endfacet
 facet normal  0.000000e+00  0.000000e+00  1.000000e+00
   outer loop
     vertex  2.702514e-01  2.137441e-01  9.006922e-01
     vertex  2.666997e-01  2.153925e-01  9.006922e-01
     vertex  2.692997e-01  2.127925e-01  9.006922e-01
   endloop
 endfacet
 facet normal  0.000000e+00  0.000000e+00  1.000000e+00
   outer loop
     vertex  2.218997e-01  2.620958e-01  9.006922e-01
     vertex  2.235481e-01  2.585441e-01  9.006922e-01
     vertex  2.244997e-01  2.594958e-01  9.006922e-01
   endloop
 endfacet
 facet normal  0.000000e+00  0.000000e+00  1.000000e+00
   outer loop
     vertex  2.218997e-01  2.620958e-01  9.006922e-01
     vertex  2.209481e-01  2.611441e-01  9.006922e-01
     vertex  2.235481e-01  2.585441e-01  9.006922e-01
   endloop
 endfacet
 facet normal  0.000000e+00  0.000000e+00  1.000000e+00
   outer loop
     vertex  2.705997e-01  2.150441e-01  9.006922e-01
     vertex  2.676514e-01  2.163441e-01  9.006922e-01
     vertex  2.702514e-01  2.137441e-01  9.006922e-01
   endloop
 endfacet
 facet normal  0.000000e+00  0.000000e+00  1.000000e+00
   outer loop
     vertex  2.231997e-01  2.624441e-01  9.006922e-01
     vertex  2.244997e-01  2.594958e-01  9.006922e-01
     vertex  2.257997e-01  2.598441e-01  9.006922e-01
   endloop
 endfacet
 facet normal  0.000000e+00  0.000000e+00  1.000000e+00
   outer loop
     vertex  2.231997e-01  2.624441e-01  9.006922e-01
     vertex  2.218997e-01  2.620958e-01  9.006922e-01
     vertex  2.244997e-01  2.594958e-01  9.006922e-01
   endloop
 endfacet
 facet normal  0.000000e+00  0.000000e+00  1.000000e+00
   outer loop
     vertex  2.679997e-01  2.176441e-01  9.006922e-01
     vertex  2.676514e-01  2.163441e-01  9.006922e-01
     vertex  2.705997e-01  2.150441e-01  9.006922e-01
   endloop
 endfacet
 facet normal  0.000000e+00  0.000000e+00  1.000000e+00
   outer loop
     vertex  2.705997e-01  2.598441e-01  9.006922e-01
     vertex  2.676514e-01  2.585441e-01  9.006922e-01
     vertex  2.679997e-01  2.572441e-01  9.006922e-01
   endloop
 endfacet
 facet normal  0.000000e+00  0.000000e+00  1.000000e+00
   outer loop
     vertex  2.705997e-01  2.598441e-01  9.006922e-01
     vertex  2.679997e-01  2.572441e-01  9.006922e-01
     vertex  2.679997e-01  2.176441e-01  9.006922e-01
   endloop
 endfacet
 facet normal  0.000000e+00  0.000000e+00  1.000000e+00
   outer loop
     vertex  2.705997e-01  2.598441e-01  9.006922e-01
     vertex  2.679997e-01  2.176441e-01  9.006922e-01
     vertex  2.705997e-01  2.150441e-01  9.006922e-01
   endloop
 endfacet
 facet normal  0.000000e+00  0.000000e+00  1.000000e+00
   outer loop
     vertex  2.679997e-01  2.624441e-01  9.006922e-01
     vertex  2.257997e-01  2.598441e-01  9.006922e-01
     vertex  2.653997e-01  2.598441e-01  9.006922e-01
   endloop
 endfacet
 facet normal  0.000000e+00  0.000000e+00  1.000000e+00
   outer loop
     vertex  2.679997e-01  2.624441e-01  9.006922e-01
     vertex  2.653997e-01  2.598441e-01  9.006922e-01
     vertex  2.666997e-01  2.594958e-01  9.006922e-01
   endloop
 endfacet
 facet normal  0.000000e+00  0.000000e+00  1.000000e+00
   outer loop
     vertex  2.679997e-01  2.624441e-01  9.006922e-01
     vertex  2.231997e-01  2.624441e-01  9.006922e-01
     vertex  2.257997e-01  2.598441e-01  9.006922e-01
   endloop
 endfacet
 facet normal  0.000000e+00  0.000000e+00  1.000000e+00
   outer loop
     vertex  2.702514e-01  2.611441e-01  9.006922e-01
     vertex  2.676514e-01  2.585441e-01  9.006922e-01
     vertex  2.705997e-01  2.598441e-01  9.006922e-01
   endloop
 endfacet
 facet normal  0.000000e+00  0.000000e+00  1.000000e+00
   outer loop
     vertex  2.692997e-01  2.620958e-01  9.006922e-01
     vertex  2.666997e-01  2.594958e-01  9.006922e-01
     vertex  2.676514e-01  2.585441e-01  9.006922e-01
   endloop
 endfacet
 facet normal  0.000000e+00  0.000000e+00  1.000000e+00
   outer loop
     vertex  2.692997e-01  2.620958e-01  9.006922e-01
     vertex  2.679997e-01  2.624441e-01  9.006922e-01
     vertex  2.666997e-01  2.594958e-01  9.006922e-01
   endloop
 endfacet
 facet normal  0.000000e+00  0.000000e+00  1.000000e+00
   outer loop
     vertex  2.692997e-01  2.620958e-01  9.006922e-01
     vertex  2.676514e-01  2.585441e-01  9.006922e-01
     vertex  2.702514e-01  2.611441e-01  9.006922e-01
   endloop
 endfacet
 facet normal -9.659258e-01 -2.588190e-01  1.839020e-14
   outer loop
     vertex  2.676514e-01  2.585441e-01  9.006922e-01
     vertex  2.676514e-01  2.585441e-01  1.006922e-01
     vertex  2.679997e-01  2.572441e-01  1.006922e-01
   endloop
 endfacet
 facet normal -9.659258e-01 -2.588190e-01  9.195082e-15
   outer loop
     vertex  2.676514e-01  2.585441e-01  9.006922e-01
     vertex  2.679997e-01  2.572441e-01  1.006922e-01
     vertex  2.679997e-01  2.572441e-01  9.006922e-01
   endloop
 endfacet
 facet normal -7.071068e-01 -7.071068e-01  5.024296e-14
   outer loop
     vertex  2.666997e-01  2.594958e-01  9.006922e-01
     vertex  2.666997e-01  2.594958e-01  1.006922e-01
     vertex  2.676514e-01  2.585441e-01  1.006922e-01
   endloop
 endfacet
 facet normal -7.071068e-01 -7.071068e-01  5.024288e-14
   outer loop
     vertex  2.666997e-01  2.594958e-01  9.006922e-01
     vertex  2.676514e-01  2.585441e-01  1.006922e-01
     vertex  2.676514e-01  2.585441e-01  9.006922e-01
   endloop
 endfacet
 facet normal -2.588190e-01 -9.659258e-01  3.431658e-14
   outer loop
     vertex  2.653997e-01  2.598441e-01  9.006922e-01
     vertex  2.653997e-01  2.598441e-01  1.006922e-01
     vertex  2.666997e-01  2.594958e-01  1.006922e-01
   endloop
 endfacet
 facet normal -2.588190e-01 -9.659258e-01  6.863314e-14
   outer loop
     vertex  2.653997e-01  2.598441e-01  9.006922e-01
     vertex  2.666997e-01  2.594958e-01  1.006922e-01
     vertex  2.666997e-01  2.594958e-01  9.006922e-01
   endloop
 endfacet
 facet normal  0.000000e+00 -1.000000e+00  3.552714e-14
   outer loop
     vertex  2.653997e-01  2.598441e-01  9.006922e-01
     vertex  2.257997e-01  2.598441e-01  9.006922e-01
     vertex  2.257997e-01  2.598441e-01  1.006922e-01
   endloop
 endfacet
 facet normal  0.000000e+00 -1.000000e+00  3.552714e-14
   outer loop
     vertex  2.653997e-01  2.598441e-01  9.006922e-01
     vertex  2.257997e-01  2.598441e-01  1.006922e-01
     vertex  2.653997e-01  2.598441e-01  1.006922e-01
   endloop
 endfacet
 facet normal  2.588190e-01 -9.659258e-01  6.863316e-14
   outer loop
     vertex  2.244997e-01  2.594958e-01  9.006922e-01
     vertex  2.244997e-01  2.594958e-01  1.006922e-01
     vertex  2.257997e-01  2.598441e-01  1.006922e-01
   endloop
 endfacet
 facet normal  2.588190e-01 -9.659258e-01  3.431657e-14
   outer loop
     vertex  2.244997e-01  2.594958e-01  9.006922e-01
     vertex  2.257997e-01  2.598441e-01  1.006922e-01
     vertex  2.257997e-01  2.598441e-01  9.006922e-01
   endloop
 endfacet
 facet normal  7.071068e-01 -7.071068e-01  5.024296e-14
   outer loop
     vertex  2.235481e-01  2.585441e-01  9.006922e-01
     vertex  2.235481e-01  2.585441e-01  1.006922e-01
     vertex  2.244997e-01  2.594958e-01  1.006922e-01
   endloop
 endfacet
 facet normal  7.071068e-01 -7.071068e-01  5.024298e-14
   outer loop
     vertex  2.235481e-01  2.585441e-01  9.006922e-01
     vertex  2.244997e-01  2.594958e-01  1.006922e-01
     vertex  2.244997e-01  2.594958e-01  9.006922e-01
   endloop
 endfacet
 facet normal  9.659258e-01 -2.588190e-01  9.195100e-15
   outer loop
     vertex  2.231997e-01  2.572441e-01  9.006922e-01
     vertex  2.231997e-01  2.572441e-01  1.006922e-01
     vertex  2.235481e-01  2.585441e-01  1.006922e-01
   endloop
 endfacet
 facet normal  9.659258e-01 -2.588190e-01  1.839021e-14
   outer loop
     vertex  2.231997e-01  2.572441e-01  9.006922e-01
     vertex  2.235481e-01  2.585441e-01  1.006922e-01
     vertex  2.235481e-01  2.585441e-01  9.006922e-01
   endloop
 endfacet
 facet normal -2.588190e-01 -9.659258e-01  3.431657e-14
   outer loop
     vertex  2.218997e-01  2.127925e-01  1.006922e-01
     vertex  2.231997e-01  2.124441e-01  1.006922e-01
     vertex  2.231997e-01  2.124441e-01  9.006922e-01
   endloop
 endfacet
 facet normal -2.588190e-01 -9.659258e-01  6.863316e-14
   outer loop
     vertex  2.218997e-01  2.127925e-01  1.006922e-01
     vertex  2.231997e-01  2.124441e-01  9.006922e-01
     vertex  2.218997e-01  2.127925e-01  9.006922e-01
   endloop
 endfacet
 facet normal -7.071068e-01 -7.071068e-01  5.024296e-14
   outer loop
     vertex  2.209481e-01  2.137441e-01  1.006922e-01
     vertex  2.218997e-01  2.127925e-01  9.006922e-01
     vertex  2.209481e-01  2.137441e-01  9.006922e-01
   endloop
 endfacet
 facet normal -7.071068e-01 -7.071068e-01  5.024298e-14
   outer loop
     vertex  2.209481e-01  2.137441e-01  1.006922e-01
     vertex  2.218997e-01  2.127925e-01  1.006922e-01
     vertex  2.218997e-01  2.127925e-01  9.006922e-01
   endloop
 endfacet
 facet normal -9.659258e-01 -2.588190e-01  9.195100e-15
   outer loop
     vertex  2.205997e-01  2.150441e-01  1.006922e-01
     vertex  2.209481e-01  2.137441e-01  9.006922e-01
     vertex  2.205997e-01  2.150441e-01  9.006922e-01
   endloop
 endfacet
 facet normal -9.659258e-01 -2.588190e-01  1.839021e-14
   outer loop
     vertex  2.205997e-01  2.150441e-01  1.006922e-01
     vertex  2.209481e-01  2.137441e-01  1.006922e-01
     vertex  2.209481e-01  2.137441e-01  9.006922e-01
   endloop
 endfacet
 facet normal -1.000000e+00  0.000000e+00  0.000000e+00
   outer loop
     vertex  2.205997e-01  2.150441e-01  9.006922e-01
     vertex  2.205997e-01  2.598441e-01  9.006922e-01
     vertex  2.205997e-01  2.598441e-01  1.006922e-01
   endloop
 endfacet
 facet normal -1.000000e+00  0.000000e+00 -0.000000e+00
   outer loop
     vertex  2.205997e-01  2.150441e-01  9.006922e-01
     vertex  2.205997e-01  2.598441e-01  1.006922e-01
     vertex  2.205997e-01  2.150441e-01  1.006922e-01
   endloop
 endfacet
 facet normal -9.659258e-01  2.588190e-01 -9.195082e-15
   outer loop
     vertex  2.209481e-01  2.611441e-01  1.006922e-01
     vertex  2.205997e-01  2.598441e-01  1.006922e-01
     vertex  2.205997e-01  2.598441e-01  9.006922e-01
   endloop
 endfacet
 facet normal -9.659258e-01  2.588190e-01 -1.839020e-14
   outer loop
     vertex  2.209481e-01  2.611441e-01  1.006922e-01
     vertex  2.205997e-01  2.598441e-01  9.006922e-01
     vertex  2.209481e-01  2.611441e-01  9.006922e-01
   endloop
 endfacet
 facet normal -7.071068e-01  7.071068e-01 -5.024296e-14
   outer loop
     vertex  2.218997e-01  2.620958e-01  1.006922e-01
     vertex  2.209481e-01  2.611441e-01  9.006922e-01
     vertex  2.218997e-01  2.620958e-01  9.006922e-01
   endloop
 endfacet
 facet normal -7.071068e-01  7.071068e-01 -5.024298e-14
   outer loop
     vertex  2.218997e-01  2.620958e-01  1.006922e-01
     vertex  2.209481e-01  2.611441e-01  1.006922e-01
     vertex  2.209481e-01  2.611441e-01  9.006922e-01
   endloop
 endfacet
 facet normal -2.588190e-01  9.659258e-01 -3.431658e-14
   outer loop
     vertex  2.231997e-01  2.624441e-01  1.006922e-01
     vertex  2.218997e-01  2.620958e-01  9.006922e-01
     vertex  2.231997e-01  2.624441e-01  9.006922e-01
   endloop
 endfacet
 facet normal -2.588190e-01  9.659258e-01 -6.863314e-14
   outer loop
     vertex  2.231997e-01  2.624441e-01  1.006922e-01
     vertex  2.218997e-01  2.620958e-01  1.006922e-01
     vertex  2.218997e-01  2.620958e-01  9.006922e-01
   endloop
 endfacet
 facet normal  0.000000e+00  1.000000e+00 -3.552714e-14
   outer loop
     vertex  2.231997e-01  2.624441e-01  9.006922e-01
     vertex  2.679997e-01  2.624441e-01  9.006922e-01
     vertex  2.679997e-01  2.624441e-01  1.006922e-01
   endloop
 endfacet
 facet normal  0.000000e+00  1.000000e+00 -3.552714e-14
   outer loop
     vertex  2.231997e-01  2.624441e-01  9.006922e-01
     vertex  2.679997e-01  2.624441e-01  1.006922e-01
     vertex  2.231997e-01  2.624441e-01  1.006922e-01
   endloop
 endfacet
 facet normal  2.588190e-01  9.659258e-01 -3.431657e-14
   outer loop
     vertex  2.692997e-01  2.620958e-01  1.006922e-01
     vertex  2.679997e-01  2.624441e-01  1.006922e-01
     vertex  2.679997e-01  2.624441e-01  9.006922e-01
   endloop
 endfacet
 facet normal  2.588190e-01  9.659258e-01 -6.863316e-14
   outer loop
     vertex  2.692997e-01  2.620958e-01  1.006922e-01
     vertex  2.679997e-01  2.624441e-01  9.006922e-01
     vertex  2.692997e-01  2.620958e-01  9.006922e-01
   endloop
 endfacet
 facet normal  7.071068e-01  7.071068e-01 -5.024296e-14
   outer loop
     vertex  2.702514e-01  2.611441e-01  1.006922e-01
     vertex  2.692997e-01  2.620958e-01  9.006922e-01
     vertex  2.702514e-01  2.611441e-01  9.006922e-01
   endloop
 endfacet
 facet normal  7.071068e-01  7.071068e-01 -5.024288e-14
   outer loop
     vertex  2.702514e-01  2.611441e-01  1.006922e-01
     vertex  2.692997e-01  2.620958e-01  1.006922e-01
     vertex  2.692997e-01  2.620958e-01  9.006922e-01
   endloop
 endfacet
 facet normal  9.659258e-01  2.588190e-01 -9.195100e-15
   outer loop
     vertex  2.705997e-01  2.598441e-01  1.006922e-01
     vertex  2.702514e-01  2.611441e-01  9.006922e-01
     vertex  2.705997e-01  2.598441e-01  9.006922e-01
   endloop
 endfacet
 facet normal  9.659258e-01  2.588190e-01 -1.839021e-14
   outer loop
     vertex  2.705997e-01  2.598441e-01  1.006922e-01
     vertex  2.702514e-01  2.611441e-01  1.006922e-01
     vertex  2.702514e-01  2.611441e-01  9.006922e-01
   endloop
 endfacet
 facet normal  1.000000e+00  0.000000e+00  0.000000e+00
   outer loop
     vertex  2.705997e-01  2.598441e-01  9.006922e-01
     vertex  2.705997e-01  2.150441e-01  9.006922e-01
     vertex  2.705997e-01  2.150441e-01  1.006922e-01
   endloop
 endfacet
 facet normal  1.000000e+00  0.000000e+00  0.000000e+00
   outer loop
     vertex  2.705997e-01  2.598441e-01  9.006922e-01
     vertex  2.705997e-01  2.150441e-01  1.006922e-01
     vertex  2.705997e-01  2.598441e-01  1.006922e-01
   endloop
 endfacet
 facet normal  9.659258e-01 -2.588190e-01  9.195082e-15
   outer loop
     vertex  2.702514e-01  2.137441e-01  1.006922e-01
     vertex  2.705997e-01  2.150441e-01  1.006922e-01
     vertex  2.705997e-01  2.150441e-01  9.006922e-01
   endloop
 endfacet
 facet normal  9.659258e-01 -2.588190e-01  1.839020e-14
   outer loop
     vertex  2.702514e-01  2.137441e-01  1.006922e-01
     vertex  2.705997e-01  2.150441e-01  9.006922e-01
     vertex  2.702514e-01  2.137441e-01  9.006922e-01
   endloop
 endfacet
 facet normal  7.071068e-01 -7.071068e-01  5.024296e-14
   outer loop
     vertex  2.692997e-01  2.127925e-01  1.006922e-01
     vertex  2.702514e-01  2.137441e-01  9.006922e-01
     vertex  2.692997e-01  2.127925e-01  9.006922e-01
   endloop
 endfacet
 facet normal  7.071068e-01 -7.071068e-01  5.024288e-14
   outer loop
     vertex  2.692997e-01  2.127925e-01  1.006922e-01
     vertex  2.702514e-01  2.137441e-01  1.006922e-01
     vertex  2.702514e-01  2.137441e-01  9.006922e-01
   endloop
 endfacet
 facet normal  2.588190e-01 -9.659258e-01  3.431658e-14
   outer loop
     vertex  2.679997e-01  2.124441e-01  1.006922e-01
     vertex  2.692997e-01  2.127925e-01  9.006922e-01
     vertex  2.679997e-01  2.124441e-01  9.006922e-01
   endloop
 endfacet
 facet normal  2.588190e-01 -9.659258e-01  6.863314e-14
   outer loop
     vertex  2.679997e-01  2.124441e-01  1.006922e-01
     vertex  2.692997e-01  2.127925e-01  1.006922e-01
     vertex  2.692997e-01  2.127925e-01  9.006922e-01
   endloop
 endfacet
 facet normal  0.000000e+00 -1.000000e+00  3.552714e-14
   outer loop
     vertex  2.679997e-01  2.124441e-01  9.006922e-01
     vertex  2.231997e-01  2.124441e-01  9.006922e-01
     vertex  2.231997e-01  2.124441e-01  1.006922e-01
   endloop
 endfacet
 facet normal  0.000000e+00 -1.000000e+00  3.552714e-14
   outer loop
     vertex  2.679997e-01  2.124441e-01  9.006922e-01
     vertex  2.231997e-01  2.124441e-01  1.006922e-01
     vertex  2.679997e-01  2.124441e-01  1.006922e-01
   endloop
 endfacet
endsolid
