solid 
 facet normal -1.000000e+00  0.000000e+00  0.000000e+00
   outer loop
     vertex -2.594003e-01  2.153925e-01  2.045922e-01
     vertex -2.594003e-01  2.127925e-01  2.019922e-01
     vertex -2.594003e-01  2.124441e-01  2.032922e-01
   endloop
 endfacet
 facet normal -1.000000e+00  0.000000e+00  0.000000e+00
   outer loop
     vertex -2.594003e-01  2.163441e-01  2.036406e-01
     vertex -2.594003e-01  2.150441e-01  2.006922e-01
     vertex -2.594003e-01  2.137441e-01  2.010406e-01
   endloop
 endfacet
 facet normal -1.000000e+00  0.000000e+00  0.000000e+00
   outer loop
     vertex -2.594003e-01  2.163441e-01  2.036406e-01
     vertex -2.594003e-01  2.137441e-01  2.010406e-01
     vertex -2.594003e-01  2.127925e-01  2.019922e-01
   endloop
 endfacet
 facet normal -1.000000e+00 -0.000000e+00  0.000000e+00
   outer loop
     vertex -2.594003e-01  2.163441e-01  2.036406e-01
     vertex -2.594003e-01  2.127925e-01  2.019922e-01
     vertex -2.594003e-01  2.153925e-01  2.045922e-01
   endloop
 endfacet
 facet normal -1.000000e+00  0.000000e+00 -0.000000e+00
   outer loop
     vertex -2.594003e-01  2.150441e-01  2.058922e-01
     vertex -2.594003e-01  2.153925e-01  2.045922e-01
     vertex -2.594003e-01  2.124441e-01  2.032922e-01
   endloop
 endfacet
 facet normal -1.000000e+00 -0.000000e+00  0.000000e+00
   outer loop
     vertex -2.594003e-01  2.176441e-01  2.032922e-01
     vertex -2.594003e-01  2.150441e-01  2.006922e-01
     vertex -2.594003e-01  2.163441e-01  2.036406e-01
   endloop
 endfacet
 facet normal -1.000000e+00  0.000000e+00  0.000000e+00
   outer loop
     vertex -2.594003e-01  2.598441e-01  2.006922e-01
     vertex -2.594003e-01  2.176441e-01  2.032922e-01
     vertex -2.594003e-01  2.572441e-01  2.032922e-01
   endloop
 endfacet
 facet normal -1.000000e+00  0.000000e+00  0.000000e+00
   outer loop
     vertex -2.594003e-01  2.598441e-01  2.006922e-01
     vertex -2.594003e-01  2.150441e-01  2.006922e-01
     vertex -2.594003e-01  2.176441e-01  2.032922e-01
   endloop
 endfacet
 facet normal -1.000000e+00 -0.000000e+00  0.000000e+00
   outer loop
     vertex -2.594003e-01  2.150441e-01  2.454922e-01
     vertex -2.594003e-01  2.124441e-01  2.032922e-01
     vertex -2.594003e-01  2.124441e-01  2.480922e-01
   endloop
 endfacet
 facet normal -1.000000e+00  0.000000e+00 -0.000000e+00
   outer loop
     vertex -2.594003e-01  2.150441e-01  2.454922e-01
     vertex -2.594003e-01  2.150441e-01  2.058922e-01
     vertex -2.594003e-01  2.124441e-01  2.032922e-01
   endloop
 endfacet
 facet normal -1.000000e+00  0.000000e+00 -0.000000e+00
   outer loop
     vertex -2.594003e-01  2.585441e-01  2.036406e-01
     vertex -2.594003e-01  2.598441e-01  2.006922e-01
     vertex -2.594003e-01  2.572441e-01  2.032922e-01
   endloop
 endfacet
 facet normal -1.000000e+00 -0.000000e+00  0.000000e+00
   outer loop
     vertex -2.594003e-01  2.611441e-01  2.010406e-01
     vertex -2.594003e-01  2.598441e-01  2.006922e-01
     vertex -2.594003e-01  2.585441e-01  2.036406e-01
   endloop
 endfacet
 facet normal -1.000000e+00  0.000000e+00  0.000000e+00
   outer loop
     vertex -2.594003e-01  2.153925e-01  2.467922e-01
     vertex -2.594003e-01  2.124441e-01  2.480922e-01
     vertex -2.594003e-01  2.127925e-01  2.493922e-01
   endloop
 endfacet
 facet normal -1.000000e+00 -0.000000e+00  0.000000e+00
   outer loop
     vertex -2.594003e-01  2.153925e-01  2.467922e-01
     vertex -2.594003e-01  2.150441e-01  2.454922e-01
     vertex -2.594003e-01  2.124441e-01  2.480922e-01
   endloop
 endfacet
 facet normal -1.000000e+00  0.000000e+00  0.000000e+00
   outer loop
     vertex -2.594003e-01  2.620958e-01  2.019922e-01
     vertex -2.594003e-01  2.585441e-01  2.036406e-01
     vertex -2.594003e-01  2.594958e-01  2.045922e-01
   endloop
 endfacet
 facet normal -1.000000e+00 -0.000000e+00  0.000000e+00
   outer loop
     vertex -2.594003e-01  2.620958e-01  2.019922e-01
     vertex -2.594003e-01  2.611441e-01  2.010406e-01
     vertex -2.594003e-01  2.585441e-01  2.036406e-01
   endloop
 endfacet
 facet normal -1.000000e+00  0.000000e+00  0.000000e+00
   outer loop
     vertex -2.594003e-01  2.163441e-01  2.477439e-01
     vertex -2.594003e-01  2.127925e-01  2.493922e-01
     vertex -2.594003e-01  2.137441e-01  2.503439e-01
   endloop
 endfacet
 facet normal -1.000000e+00 -0.000000e+00  0.000000e+00
   outer loop
     vertex -2.594003e-01  2.163441e-01  2.477439e-01
     vertex -2.594003e-01  2.153925e-01  2.467922e-01
     vertex -2.594003e-01  2.127925e-01  2.493922e-01
   endloop
 endfacet
 facet normal -1.000000e+00  0.000000e+00 -0.000000e+00
   outer loop
     vertex -2.594003e-01  2.150441e-01  2.506922e-01
     vertex -2.594003e-01  2.163441e-01  2.477439e-01
     vertex -2.594003e-01  2.137441e-01  2.503439e-01
   endloop
 endfacet
 facet normal -1.000000e+00 -0.000000e+00  0.000000e+00
   outer loop
     vertex -2.594003e-01  2.624441e-01  2.032922e-01
     vertex -2.594003e-01  2.620958e-01  2.019922e-01
     vertex -2.594003e-01  2.594958e-01  2.045922e-01
   endloop
 endfacet
 facet normal -1.000000e+00 -0.000000e+00  0.000000e+00
   outer loop
     vertex -2.594003e-01  2.176441e-01  2.480922e-01
     vertex -2.594003e-01  2.163441e-01  2.477439e-01
     vertex -2.594003e-01  2.150441e-01  2.506922e-01
   endloop
 endfacet
 facet normal -1.000000e+00  0.000000e+00 -0.000000e+00
   outer loop
     vertex -2.594003e-01  2.598441e-01  2.058922e-01
     vertex -2.594003e-01  2.624441e-01  2.032922e-01
     vertex -2.594003e-01  2.594958e-01  2.045922e-01
   endloop
 endfacet
 facet normal -1.000000e+00  0.000000e+00  0.000000e+00
   outer loop
     vertex -2.594003e-01  2.598441e-01  2.506922e-01
     vertex -2.594003e-01  2.572441e-01  2.480922e-01
     vertex -2.594003e-01  2.176441e-01  2.480922e-01
   endloop
 endfacet
 facet normal -1.000000e+00  0.000000e+00  0.000000e+00
   outer loop
     vertex -2.594003e-01  2.598441e-01  2.506922e-01
     vertex -2.594003e-01  2.585441e-01  2.477439e-01
     vertex -2.594003e-01  2.572441e-01  2.480922e-01
   endloop
 endfacet
 facet normal -1.000000e+00 -0.000000e+00  0.000000e+00
   outer loop
     vertex -2.594003e-01  2.598441e-01  2.506922e-01
     vertex -2.594003e-01  2.176441e-01  2.480922e-01
     vertex -2.594003e-01  2.150441e-01  2.506922e-01
   endloop
 endfacet
 facet normal -1.000000e+00  0.000000e+00  0.000000e+00
   outer loop
     vertex -2.594003e-01  2.624441e-01  2.480922e-01
     vertex -2.594003e-01  2.598441e-01  2.454922e-01
     vertex -2.594003e-01  2.594958e-01  2.467922e-01
   endloop
 endfacet
 facet normal -1.000000e+00  0.000000e+00  0.000000e+00
   outer loop
     vertex -2.594003e-01  2.624441e-01  2.480922e-01
     vertex -2.594003e-01  2.598441e-01  2.058922e-01
     vertex -2.594003e-01  2.598441e-01  2.454922e-01
   endloop
 endfacet
 facet normal -1.000000e+00  0.000000e+00 -0.000000e+00
   outer loop
     vertex -2.594003e-01  2.624441e-01  2.480922e-01
     vertex -2.594003e-01  2.624441e-01  2.032922e-01
     vertex -2.594003e-01  2.598441e-01  2.058922e-01
   endloop
 endfacet
 facet normal -1.000000e+00  0.000000e+00 -0.000000e+00
   outer loop
     vertex -2.594003e-01  2.620958e-01  2.493922e-01
     vertex -2.594003e-01  2.624441e-01  2.480922e-01
     vertex -2.594003e-01  2.594958e-01  2.467922e-01
   endloop
 endfacet
 facet normal -1.000000e+00  0.000000e+00  0.000000e+00
   outer loop
     vertex -2.594003e-01  2.611441e-01  2.503439e-01
     vertex -2.594003e-01  2.594958e-01  2.467922e-01
     vertex -2.594003e-01  2.585441e-01  2.477439e-01
   endloop
 endfacet
 facet normal -1.000000e+00 -0.000000e+00  0.000000e+00
   outer loop
     vertex -2.594003e-01  2.611441e-01  2.503439e-01
     vertex -2.594003e-01  2.585441e-01  2.477439e-01
     vertex -2.594003e-01  2.598441e-01  2.506922e-01
   endloop
 endfacet
 facet normal -1.000000e+00  0.000000e+00 -0.000000e+00
   outer loop
     vertex -2.594003e-01  2.611441e-01  2.503439e-01
     vertex -2.594003e-01  2.620958e-01  2.493922e-01
     vertex -2.594003e-01  2.594958e-01  2.467922e-01
   endloop
 endfacet
 facet normal  0.000000e+00 -1.000000e+00  0.000000e+00
   outer loop
     vertex  2.205997e-01  2.598441e-01  2.058922e-01
     vertex  2.205997e-01  2.598441e-01  2.454922e-01
     vertex -2.594003e-01  2.598441e-01  2.454922e-01
   endloop
 endfacet
 facet normal  0.000000e+00 -1.000000e+00  0.000000e+00
   outer loop
     vertex  2.205997e-01  2.598441e-01  2.058922e-01
     vertex -2.594003e-01  2.598441e-01  2.454922e-01
     vertex -2.594003e-01  2.598441e-01  2.058922e-01
   endloop
 endfacet
 facet normal -0.000000e+00 -9.659258e-01 -2.588190e-01
   outer loop
     vertex  2.205997e-01  2.594958e-01  2.467922e-01
     vertex -2.594003e-01  2.594958e-01  2.467922e-01
     vertex -2.594003e-01  2.598441e-01  2.454922e-01
   endloop
 endfacet
 facet normal  0.000000e+00 -9.659258e-01 -2.588190e-01
   outer loop
     vertex  2.205997e-01  2.594958e-01  2.467922e-01
     vertex -2.594003e-01  2.598441e-01  2.454922e-01
     vertex  2.205997e-01  2.598441e-01  2.454922e-01
   endloop
 endfacet
 facet normal -0.000000e+00 -7.071068e-01 -7.071068e-01
   outer loop
     vertex  2.205997e-01  2.585441e-01  2.477439e-01
     vertex -2.594003e-01  2.585441e-01  2.477439e-01
     vertex -2.594003e-01  2.594958e-01  2.467922e-01
   endloop
 endfacet
 facet normal  0.000000e+00 -7.071068e-01 -7.071068e-01
   outer loop
     vertex  2.205997e-01  2.585441e-01  2.477439e-01
     vertex -2.594003e-01  2.594958e-01  2.467922e-01
     vertex  2.205997e-01  2.594958e-01  2.467922e-01
   endloop
 endfacet
 facet normal -0.000000e+00 -2.588190e-01 -9.659258e-01
   outer loop
     vertex  2.205997e-01  2.572441e-01  2.480922e-01
     vertex -2.594003e-01  2.572441e-01  2.480922e-01
     vertex -2.594003e-01  2.585441e-01  2.477439e-01
   endloop
 endfacet
 facet normal  0.000000e+00 -2.588190e-01 -9.659258e-01
   outer loop
     vertex  2.205997e-01  2.572441e-01  2.480922e-01
     vertex -2.594003e-01  2.585441e-01  2.477439e-01
     vertex  2.205997e-01  2.585441e-01  2.477439e-01
   endloop
 endfacet
 facet normal  0.000000e+00  0.000000e+00 -1.000000e+00
   outer loop
     vertex  2.205997e-01  2.176441e-01  2.480922e-01
     vertex -2.594003e-01  2.176441e-01  2.480922e-01
     vertex -2.594003e-01  2.572441e-01  2.480922e-01
   endloop
 endfacet
 facet normal -0.000000e+00 -0.000000e+00 -1.000000e+00
   outer loop
     vertex  2.205997e-01  2.572441e-01  2.480922e-01
     vertex  2.205997e-01  2.176441e-01  2.480922e-01
     vertex -2.594003e-01  2.572441e-01  2.480922e-01
   endloop
 endfacet
 facet normal  0.000000e+00  2.588190e-01 -9.659258e-01
   outer loop
     vertex  2.205997e-01  2.163441e-01  2.477439e-01
     vertex -2.594003e-01  2.163441e-01  2.477439e-01
     vertex -2.594003e-01  2.176441e-01  2.480922e-01
   endloop
 endfacet
 facet normal  0.000000e+00  2.588190e-01 -9.659258e-01
   outer loop
     vertex  2.205997e-01  2.163441e-01  2.477439e-01
     vertex -2.594003e-01  2.176441e-01  2.480922e-01
     vertex  2.205997e-01  2.176441e-01  2.480922e-01
   endloop
 endfacet
 facet normal  0.000000e+00  7.071068e-01 -7.071068e-01
   outer loop
     vertex  2.205997e-01  2.153925e-01  2.467922e-01
     vertex -2.594003e-01  2.153925e-01  2.467922e-01
     vertex -2.594003e-01  2.163441e-01  2.477439e-01
   endloop
 endfacet
 facet normal  0.000000e+00  7.071068e-01 -7.071068e-01
   outer loop
     vertex  2.205997e-01  2.153925e-01  2.467922e-01
     vertex -2.594003e-01  2.163441e-01  2.477439e-01
     vertex  2.205997e-01  2.163441e-01  2.477439e-01
   endloop
 endfacet
 facet normal  0.000000e+00  9.659258e-01 -2.588190e-01
   outer loop
     vertex  2.205997e-01  2.150441e-01  2.454922e-01
     vertex -2.594003e-01  2.150441e-01  2.454922e-01
     vertex -2.594003e-01  2.153925e-01  2.467922e-01
   endloop
 endfacet
 facet normal  0.000000e+00  9.659258e-01 -2.588190e-01
   outer loop
     vertex  2.205997e-01  2.150441e-01  2.454922e-01
     vertex -2.594003e-01  2.153925e-01  2.467922e-01
     vertex  2.205997e-01  2.153925e-01  2.467922e-01
   endloop
 endfacet
 facet normal  0.000000e+00  1.000000e+00  0.000000e+00
   outer loop
     vertex  2.205997e-01  2.150441e-01  2.454922e-01
     vertex  2.205997e-01  2.150441e-01  2.058922e-01
     vertex -2.594003e-01  2.150441e-01  2.058922e-01
   endloop
 endfacet
 facet normal  0.000000e+00  1.000000e+00  0.000000e+00
   outer loop
     vertex  2.205997e-01  2.150441e-01  2.454922e-01
     vertex -2.594003e-01  2.150441e-01  2.058922e-01
     vertex -2.594003e-01  2.150441e-01  2.454922e-01
   endloop
 endfacet
 facet normal  0.000000e+00  9.659258e-01  2.588190e-01
   outer loop
     vertex  2.205997e-01  2.153925e-01  2.045922e-01
     vertex -2.594003e-01  2.153925e-01  2.045922e-01
     vertex -2.594003e-01  2.150441e-01  2.058922e-01
   endloop
 endfacet
 facet normal  0.000000e+00  9.659258e-01  2.588190e-01
   outer loop
     vertex  2.205997e-01  2.153925e-01  2.045922e-01
     vertex -2.594003e-01  2.150441e-01  2.058922e-01
     vertex  2.205997e-01  2.150441e-01  2.058922e-01
   endloop
 endfacet
 facet normal  0.000000e+00  7.071068e-01  7.071068e-01
   outer loop
     vertex  2.205997e-01  2.163441e-01  2.036406e-01
     vertex -2.594003e-01  2.163441e-01  2.036406e-01
     vertex -2.594003e-01  2.153925e-01  2.045922e-01
   endloop
 endfacet
 facet normal  0.000000e+00  7.071068e-01  7.071068e-01
   outer loop
     vertex  2.205997e-01  2.163441e-01  2.036406e-01
     vertex -2.594003e-01  2.153925e-01  2.045922e-01
     vertex  2.205997e-01  2.153925e-01  2.045922e-01
   endloop
 endfacet
 facet normal  0.000000e+00  2.588190e-01  9.659258e-01
   outer loop
     vertex  2.205997e-01  2.176441e-01  2.032922e-01
     vertex -2.594003e-01  2.176441e-01  2.032922e-01
     vertex -2.594003e-01  2.163441e-01  2.036406e-01
   endloop
 endfacet
 facet normal  0.000000e+00  2.588190e-01  9.659258e-01
   outer loop
     vertex  2.205997e-01  2.176441e-01  2.032922e-01
     vertex -2.594003e-01  2.163441e-01  2.036406e-01
     vertex  2.205997e-01  2.163441e-01  2.036406e-01
   endloop
 endfacet
 facet normal  0.000000e+00 -0.000000e+00  1.000000e+00
   outer loop
     vertex  2.205997e-01  2.176441e-01  2.032922e-01
     vertex  2.205997e-01  2.572441e-01  2.032922e-01
     vertex -2.594003e-01  2.572441e-01  2.032922e-01
   endloop
 endfacet
 facet normal  0.000000e+00  0.000000e+00  1.000000e+00
   outer loop
     vertex  2.205997e-01  2.176441e-01  2.032922e-01
     vertex -2.594003e-01  2.572441e-01  2.032922e-01
     vertex -2.594003e-01  2.176441e-01  2.032922e-01
   endloop
 endfacet
 facet normal  0.000000e+00 -2.588190e-01  9.659258e-01
   outer loop
     vertex  2.205997e-01  2.585441e-01  2.036406e-01
     vertex -2.594003e-01  2.585441e-01  2.036406e-01
     vertex -2.594003e-01  2.572441e-01  2.032922e-01
   endloop
 endfacet
 facet normal  0.000000e+00 -2.588190e-01  9.659258e-01
   outer loop
     vertex  2.205997e-01  2.585441e-01  2.036406e-01
     vertex -2.594003e-01  2.572441e-01  2.032922e-01
     vertex  2.205997e-01  2.572441e-01  2.032922e-01
   endloop
 endfacet
 facet normal  0.000000e+00 -7.071068e-01  7.071068e-01
   outer loop
     vertex  2.205997e-01  2.594958e-01  2.045922e-01
     vertex -2.594003e-01  2.594958e-01  2.045922e-01
     vertex -2.594003e-01  2.585441e-01  2.036406e-01
   endloop
 endfacet
 facet normal  0.000000e+00 -7.071068e-01  7.071068e-01
   outer loop
     vertex  2.205997e-01  2.594958e-01  2.045922e-01
     vertex -2.594003e-01  2.585441e-01  2.036406e-01
     vertex  2.205997e-01  2.585441e-01  2.036406e-01
   endloop
 endfacet
 facet normal  0.000000e+00 -9.659258e-01  2.588190e-01
   outer loop
     vertex  2.205997e-01  2.598441e-01  2.058922e-01
     vertex -2.594003e-01  2.598441e-01  2.058922e-01
     vertex -2.594003e-01  2.594958e-01  2.045922e-01
   endloop
 endfacet
 facet normal  0.000000e+00 -9.659258e-01  2.588190e-01
   outer loop
     vertex  2.205997e-01  2.598441e-01  2.058922e-01
     vertex -2.594003e-01  2.594958e-01  2.045922e-01
     vertex  2.205997e-01  2.594958e-01  2.045922e-01
   endloop
 endfacet
 facet normal  1.000000e+00  3.448538e-11 -3.448538e-11
   outer loop
     vertex  2.205997e-01  2.163441e-01  2.036406e-01
     vertex  2.205997e-01  2.137441e-01  2.010406e-01
     vertex  2.205997e-01  2.150441e-01  2.006922e-01
   endloop
 endfacet
 facet normal  1.000000e+00 -3.448538e-11  3.448538e-11
   outer loop
     vertex  2.205997e-01  2.153925e-01  2.045922e-01
     vertex  2.205997e-01  2.124441e-01  2.032922e-01
     vertex  2.205997e-01  2.127925e-01  2.019922e-01
   endloop
 endfacet
 facet normal  1.000000e+00  0.000000e+00  0.000000e+00
   outer loop
     vertex  2.205997e-01  2.153925e-01  2.045922e-01
     vertex  2.205997e-01  2.127925e-01  2.019922e-01
     vertex  2.205997e-01  2.137441e-01  2.010406e-01
   endloop
 endfacet
 facet normal  1.000000e+00  0.000000e+00  0.000000e+00
   outer loop
     vertex  2.205997e-01  2.153925e-01  2.045922e-01
     vertex  2.205997e-01  2.137441e-01  2.010406e-01
     vertex  2.205997e-01  2.163441e-01  2.036406e-01
   endloop
 endfacet
 facet normal  1.000000e+00  3.448538e-11 -3.448538e-11
   outer loop
     vertex  2.205997e-01  2.176441e-01  2.032922e-01
     vertex  2.205997e-01  2.163441e-01  2.036406e-01
     vertex  2.205997e-01  2.150441e-01  2.006922e-01
   endloop
 endfacet
 facet normal  1.000000e+00 -3.448538e-11  3.448538e-11
   outer loop
     vertex  2.205997e-01  2.150441e-01  2.058922e-01
     vertex  2.205997e-01  2.124441e-01  2.032922e-01
     vertex  2.205997e-01  2.153925e-01  2.045922e-01
   endloop
 endfacet
 facet normal  1.000000e+00  0.000000e+00  0.000000e+00
   outer loop
     vertex  2.205997e-01  2.124441e-01  2.480922e-01
     vertex  2.205997e-01  2.150441e-01  2.058922e-01
     vertex  2.205997e-01  2.150441e-01  2.454922e-01
   endloop
 endfacet
 facet normal  1.000000e+00  0.000000e+00  0.000000e+00
   outer loop
     vertex  2.205997e-01  2.124441e-01  2.480922e-01
     vertex  2.205997e-01  2.124441e-01  2.032922e-01
     vertex  2.205997e-01  2.150441e-01  2.058922e-01
   endloop
 endfacet
 facet normal  1.000000e+00  0.000000e+00  0.000000e+00
   outer loop
     vertex  2.205997e-01  2.598441e-01  2.006922e-01
     vertex  2.205997e-01  2.572441e-01  2.032922e-01
     vertex  2.205997e-01  2.176441e-01  2.032922e-01
   endloop
 endfacet
 facet normal  1.000000e+00  0.000000e+00  0.000000e+00
   outer loop
     vertex  2.205997e-01  2.598441e-01  2.006922e-01
     vertex  2.205997e-01  2.176441e-01  2.032922e-01
     vertex  2.205997e-01  2.150441e-01  2.006922e-01
   endloop
 endfacet
 facet normal  1.000000e+00 -3.448538e-11 -3.448538e-11
   outer loop
     vertex  2.205997e-01  2.585441e-01  2.036406e-01
     vertex  2.205997e-01  2.572441e-01  2.032922e-01
     vertex  2.205997e-01  2.598441e-01  2.006922e-01
   endloop
 endfacet
 facet normal  1.000000e+00 -3.448538e-11 -3.448538e-11
   outer loop
     vertex  2.205997e-01  2.153925e-01  2.467922e-01
     vertex  2.205997e-01  2.124441e-01  2.480922e-01
     vertex  2.205997e-01  2.150441e-01  2.454922e-01
   endloop
 endfacet
 facet normal  1.000000e+00 -3.448538e-11 -3.448538e-11
   outer loop
     vertex  2.205997e-01  2.127925e-01  2.493922e-01
     vertex  2.205997e-01  2.124441e-01  2.480922e-01
     vertex  2.205997e-01  2.153925e-01  2.467922e-01
   endloop
 endfacet
 facet normal  1.000000e+00 -3.448538e-11 -3.448538e-11
   outer loop
     vertex  2.205997e-01  2.611441e-01  2.010406e-01
     vertex  2.205997e-01  2.585441e-01  2.036406e-01
     vertex  2.205997e-01  2.598441e-01  2.006922e-01
   endloop
 endfacet
 facet normal  1.000000e+00  0.000000e+00  0.000000e+00
   outer loop
     vertex  2.205997e-01  2.137441e-01  2.503439e-01
     vertex  2.205997e-01  2.153925e-01  2.467922e-01
     vertex  2.205997e-01  2.163441e-01  2.477439e-01
   endloop
 endfacet
 facet normal  1.000000e+00  0.000000e+00  0.000000e+00
   outer loop
     vertex  2.205997e-01  2.137441e-01  2.503439e-01
     vertex  2.205997e-01  2.127925e-01  2.493922e-01
     vertex  2.205997e-01  2.153925e-01  2.467922e-01
   endloop
 endfacet
 facet normal  1.000000e+00  0.000000e+00  0.000000e+00
   outer loop
     vertex  2.205997e-01  2.620958e-01  2.019922e-01
     vertex  2.205997e-01  2.594958e-01  2.045922e-01
     vertex  2.205997e-01  2.585441e-01  2.036406e-01
   endloop
 endfacet
 facet normal  1.000000e+00  0.000000e+00  0.000000e+00
   outer loop
     vertex  2.205997e-01  2.620958e-01  2.019922e-01
     vertex  2.205997e-01  2.585441e-01  2.036406e-01
     vertex  2.205997e-01  2.611441e-01  2.010406e-01
   endloop
 endfacet
 facet normal  1.000000e+00  3.448538e-11  3.448538e-11
   outer loop
     vertex  2.205997e-01  2.624441e-01  2.032922e-01
     vertex  2.205997e-01  2.594958e-01  2.045922e-01
     vertex  2.205997e-01  2.620958e-01  2.019922e-01
   endloop
 endfacet
 facet normal  1.000000e+00  3.448538e-11  3.448538e-11
   outer loop
     vertex  2.205997e-01  2.150441e-01  2.506922e-01
     vertex  2.205997e-01  2.137441e-01  2.503439e-01
     vertex  2.205997e-01  2.163441e-01  2.477439e-01
   endloop
 endfacet
 facet normal  1.000000e+00  3.448538e-11  3.448538e-11
   outer loop
     vertex  2.205997e-01  2.176441e-01  2.480922e-01
     vertex  2.205997e-01  2.150441e-01  2.506922e-01
     vertex  2.205997e-01  2.163441e-01  2.477439e-01
   endloop
 endfacet
 facet normal  1.000000e+00  3.448538e-11  3.448538e-11
   outer loop
     vertex  2.205997e-01  2.598441e-01  2.058922e-01
     vertex  2.205997e-01  2.594958e-01  2.045922e-01
     vertex  2.205997e-01  2.624441e-01  2.032922e-01
   endloop
 endfacet
 facet normal  1.000000e+00  3.448538e-11 -3.448538e-11
   outer loop
     vertex  2.205997e-01  2.624441e-01  2.480922e-01
     vertex  2.205997e-01  2.594958e-01  2.467922e-01
     vertex  2.205997e-01  2.598441e-01  2.454922e-01
   endloop
 endfacet
 facet normal  1.000000e+00  0.000000e+00  0.000000e+00
   outer loop
     vertex  2.205997e-01  2.624441e-01  2.480922e-01
     vertex  2.205997e-01  2.598441e-01  2.454922e-01
     vertex  2.205997e-01  2.598441e-01  2.058922e-01
   endloop
 endfacet
 facet normal  1.000000e+00  0.000000e+00  0.000000e+00
   outer loop
     vertex  2.205997e-01  2.624441e-01  2.480922e-01
     vertex  2.205997e-01  2.598441e-01  2.058922e-01
     vertex  2.205997e-01  2.624441e-01  2.032922e-01
   endloop
 endfacet
 facet normal  1.000000e+00  0.000000e+00  0.000000e+00
   outer loop
     vertex  2.205997e-01  2.598441e-01  2.506922e-01
     vertex  2.205997e-01  2.176441e-01  2.480922e-01
     vertex  2.205997e-01  2.572441e-01  2.480922e-01
   endloop
 endfacet
 facet normal  1.000000e+00 -3.448538e-11  3.448538e-11
   outer loop
     vertex  2.205997e-01  2.598441e-01  2.506922e-01
     vertex  2.205997e-01  2.572441e-01  2.480922e-01
     vertex  2.205997e-01  2.585441e-01  2.477439e-01
   endloop
 endfacet
 facet normal  1.000000e+00  0.000000e+00  0.000000e+00
   outer loop
     vertex  2.205997e-01  2.598441e-01  2.506922e-01
     vertex  2.205997e-01  2.150441e-01  2.506922e-01
     vertex  2.205997e-01  2.176441e-01  2.480922e-01
   endloop
 endfacet
 facet normal  1.000000e+00  3.448538e-11 -3.448538e-11
   outer loop
     vertex  2.205997e-01  2.620958e-01  2.493922e-01
     vertex  2.205997e-01  2.594958e-01  2.467922e-01
     vertex  2.205997e-01  2.624441e-01  2.480922e-01
   endloop
 endfacet
 facet normal  1.000000e+00  0.000000e+00  0.000000e+00
   outer loop
     vertex  2.205997e-01  2.611441e-01  2.503439e-01
     vertex  2.205997e-01  2.585441e-01  2.477439e-01
     vertex  2.205997e-01  2.594958e-01  2.467922e-01
   endloop
 endfacet
 facet normal  1.000000e+00 -3.448538e-11  3.448538e-11
   outer loop
     vertex  2.205997e-01  2.611441e-01  2.503439e-01
     vertex  2.205997e-01  2.598441e-01  2.506922e-01
     vertex  2.205997e-01  2.585441e-01  2.477439e-01
   endloop
 endfacet
 facet normal  1.000000e+00  0.000000e+00  0.000000e+00
   outer loop
     vertex  2.205997e-01  2.611441e-01  2.503439e-01
     vertex  2.205997e-01  2.594958e-01  2.467922e-01
     vertex  2.205997e-01  2.620958e-01  2.493922e-01
   endloop
 endfacet
 facet normal  0.000000e+00  2.588190e-01  9.659258e-01
   outer loop
     vertex -2.594003e-01  2.611441e-01  2.503439e-01
     vertex -2.594003e-01  2.598441e-01  2.506922e-01
     vertex  2.205997e-01  2.598441e-01  2.506922e-01
   endloop
 endfacet
 facet normal -0.000000e+00  2.588190e-01  9.659258e-01
   outer loop
     vertex -2.594003e-01  2.611441e-01  2.503439e-01
     vertex  2.205997e-01  2.598441e-01  2.506922e-01
     vertex  2.205997e-01  2.611441e-01  2.503439e-01
   endloop
 endfacet
 facet normal -0.000000e+00  7.071068e-01  7.071068e-01
   outer loop
     vertex -2.594003e-01  2.620958e-01  2.493922e-01
     vertex  2.205997e-01  2.611441e-01  2.503439e-01
     vertex  2.205997e-01  2.620958e-01  2.493922e-01
   endloop
 endfacet
 facet normal  0.000000e+00  7.071068e-01  7.071068e-01
   outer loop
     vertex -2.594003e-01  2.620958e-01  2.493922e-01
     vertex -2.594003e-01  2.611441e-01  2.503439e-01
     vertex  2.205997e-01  2.611441e-01  2.503439e-01
   endloop
 endfacet
 facet normal -0.000000e+00  9.659258e-01  2.588190e-01
   outer loop
     vertex -2.594003e-01  2.624441e-01  2.480922e-01
     vertex  2.205997e-01  2.620958e-01  2.493922e-01
     vertex  2.205997e-01  2.624441e-01  2.480922e-01
   endloop
 endfacet
 facet normal  0.000000e+00  9.659258e-01  2.588190e-01
   outer loop
     vertex -2.594003e-01  2.624441e-01  2.480922e-01
     vertex -2.594003e-01  2.620958e-01  2.493922e-01
     vertex  2.205997e-01  2.620958e-01  2.493922e-01
   endloop
 endfacet
 facet normal  0.000000e+00  1.000000e+00  0.000000e+00
   outer loop
     vertex  2.205997e-01  2.624441e-01  2.480922e-01
     vertex  2.205997e-01  2.624441e-01  2.032922e-01
     vertex -2.594003e-01  2.624441e-01  2.032922e-01
   endloop
 endfacet
 facet normal  0.000000e+00  1.000000e+00  0.000000e+00
   outer loop
     vertex  2.205997e-01  2.624441e-01  2.480922e-01
     vertex -2.594003e-01  2.624441e-01  2.032922e-01
     vertex -2.594003e-01  2.624441e-01  2.480922e-01
   endloop
 endfacet
 facet normal  0.000000e+00  9.659258e-01 -2.588190e-01
   outer loop
     vertex -2.594003e-01  2.620958e-01  2.019922e-01
     vertex -2.594003e-01  2.624441e-01  2.032922e-01
     vertex  2.205997e-01  2.624441e-01  2.032922e-01
   endloop
 endfacet
 facet normal  0.000000e+00  9.659258e-01 -2.588190e-01
   outer loop
     vertex -2.594003e-01  2.620958e-01  2.019922e-01
     vertex  2.205997e-01  2.624441e-01  2.032922e-01
     vertex  2.205997e-01  2.620958e-01  2.019922e-01
   endloop
 endfacet
 facet normal  0.000000e+00  7.071068e-01 -7.071068e-01
   outer loop
     vertex -2.594003e-01  2.611441e-01  2.010406e-01
     vertex  2.205997e-01  2.620958e-01  2.019922e-01
     vertex  2.205997e-01  2.611441e-01  2.010406e-01
   endloop
 endfacet
 facet normal  0.000000e+00  7.071068e-01 -7.071068e-01
   outer loop
     vertex -2.594003e-01  2.611441e-01  2.010406e-01
     vertex -2.594003e-01  2.620958e-01  2.019922e-01
     vertex  2.205997e-01  2.620958e-01  2.019922e-01
   endloop
 endfacet
 facet normal  0.000000e+00  2.588190e-01 -9.659258e-01
   outer loop
     vertex -2.594003e-01  2.598441e-01  2.006922e-01
     vertex  2.205997e-01  2.611441e-01  2.010406e-01
     vertex  2.205997e-01  2.598441e-01  2.006922e-01
   endloop
 endfacet
 facet normal  0.000000e+00  2.588190e-01 -9.659258e-01
   outer loop
     vertex -2.594003e-01  2.598441e-01  2.006922e-01
     vertex -2.594003e-01  2.611441e-01  2.010406e-01
     vertex  2.205997e-01  2.611441e-01  2.010406e-01
   endloop
 endfacet
 facet normal  0.000000e+00 -0.000000e+00 -1.000000e+00
   outer loop
     vertex  2.205997e-01  2.598441e-01  2.006922e-01
     vertex  2.205997e-01  2.150441e-01  2.006922e-01
     vertex -2.594003e-01  2.150441e-01  2.006922e-01
   endloop
 endfacet
 facet normal -0.000000e+00  0.000000e+00 -1.000000e+00
   outer loop
     vertex  2.205997e-01  2.598441e-01  2.006922e-01
     vertex -2.594003e-01  2.150441e-01  2.006922e-01
     vertex -2.594003e-01  2.598441e-01  2.006922e-01
   endloop
 endfacet
 facet normal  0.000000e+00 -2.588190e-01 -9.659258e-01
   outer loop
     vertex -2.594003e-01  2.137441e-01  2.010406e-01
     vertex -2.594003e-01  2.150441e-01  2.006922e-01
     vertex  2.205997e-01  2.150441e-01  2.006922e-01
   endloop
 endfacet
 facet normal  0.000000e+00 -2.588190e-01 -9.659258e-01
   outer loop
     vertex -2.594003e-01  2.137441e-01  2.010406e-01
     vertex  2.205997e-01  2.150441e-01  2.006922e-01
     vertex  2.205997e-01  2.137441e-01  2.010406e-01
   endloop
 endfacet
 facet normal  0.000000e+00 -7.071068e-01 -7.071068e-01
   outer loop
     vertex -2.594003e-01  2.127925e-01  2.019922e-01
     vertex  2.205997e-01  2.137441e-01  2.010406e-01
     vertex  2.205997e-01  2.127925e-01  2.019922e-01
   endloop
 endfacet
 facet normal  0.000000e+00 -7.071068e-01 -7.071068e-01
   outer loop
     vertex -2.594003e-01  2.127925e-01  2.019922e-01
     vertex -2.594003e-01  2.137441e-01  2.010406e-01
     vertex  2.205997e-01  2.137441e-01  2.010406e-01
   endloop
 endfacet
 facet normal  0.000000e+00 -9.659258e-01 -2.588190e-01
   outer loop
     vertex -2.594003e-01  2.124441e-01  2.032922e-01
     vertex  2.205997e-01  2.127925e-01  2.019922e-01
     vertex  2.205997e-01  2.124441e-01  2.032922e-01
   endloop
 endfacet
 facet normal  0.000000e+00 -9.659258e-01 -2.588190e-01
   outer loop
     vertex -2.594003e-01  2.124441e-01  2.032922e-01
     vertex -2.594003e-01  2.127925e-01  2.019922e-01
     vertex  2.205997e-01  2.127925e-01  2.019922e-01
   endloop
 endfacet
 facet normal  0.000000e+00 -1.000000e+00  0.000000e+00
   outer loop
     vertex  2.205997e-01  2.124441e-01  2.032922e-01
     vertex  2.205997e-01  2.124441e-01  2.480922e-01
     vertex -2.594003e-01  2.124441e-01  2.480922e-01
   endloop
 endfacet
 facet normal  0.000000e+00 -1.000000e+00  0.000000e+00
   outer loop
     vertex  2.205997e-01  2.124441e-01  2.032922e-01
     vertex -2.594003e-01  2.124441e-01  2.480922e-01
     vertex -2.594003e-01  2.124441e-01  2.032922e-01
   endloop
 endfacet
 facet normal  0.000000e+00 -9.659258e-01  2.588190e-01
   outer loop
     vertex -2.594003e-01  2.127925e-01  2.493922e-01
     vertex -2.594003e-01  2.124441e-01  2.480922e-01
     vertex  2.205997e-01  2.124441e-01  2.480922e-01
   endloop
 endfacet
 facet normal  0.000000e+00 -9.659258e-01  2.588190e-01
   outer loop
     vertex -2.594003e-01  2.127925e-01  2.493922e-01
     vertex  2.205997e-01  2.124441e-01  2.480922e-01
     vertex  2.205997e-01  2.127925e-01  2.493922e-01
   endloop
 endfacet
 facet normal  0.000000e+00 -7.071068e-01  7.071068e-01
   outer loop
     vertex -2.594003e-01  2.137441e-01  2.503439e-01
     vertex  2.205997e-01  2.127925e-01  2.493922e-01
     vertex  2.205997e-01  2.137441e-01  2.503439e-01
   endloop
 endfacet
 facet normal  0.000000e+00 -7.071068e-01  7.071068e-01
   outer loop
     vertex -2.594003e-01  2.137441e-01  2.503439e-01
     vertex -2.594003e-01  2.127925e-01  2.493922e-01
     vertex  2.205997e-01  2.127925e-01  2.493922e-01
   endloop
 endfacet
 facet normal  0.000000e+00 -2.588190e-01  9.659258e-01
   outer loop
     vertex -2.594003e-01  2.150441e-01  2.506922e-01
     vertex  2.205997e-01  2.137441e-01  2.503439e-01
     vertex  2.205997e-01  2.150441e-01  2.506922e-01
   endloop
 endfacet
 facet normal  0.000000e+00 -2.588190e-01  9.659258e-01
   outer loop
     vertex -2.594003e-01  2.150441e-01  2.506922e-01
     vertex -2.594003e-01  2.137441e-01  2.503439e-01
     vertex  2.205997e-01  2.137441e-01  2.503439e-01
   endloop
 endfacet
 facet normal  0.000000e+00  0.000000e+00  1.000000e+00
   outer loop
     vertex  2.205997e-01  2.598441e-01  2.506922e-01
     vertex -2.594003e-01  2.598441e-01  2.506922e-01
     vertex -2.594003e-01  2.150441e-01  2.506922e-01
   endloop
 endfacet
 facet normal  0.000000e+00 -0.000000e+00  1.000000e+00
   outer loop
     vertex  2.205997e-01  2.150441e-01  2.506922e-01
     vertex  2.205997e-01  2.598441e-01  2.506922e-01
     vertex -2.594003e-01  2.150441e-01  2.506922e-01
   endloop
 endfacet
endsolid
