solid 
 facet normal  0.000000e+00 -1.000000e+00  0.000000e+00
   outer loop
     vertex  5.879973e-02  8.744415e-02  1.282692e+00
     vertex  8.059973e-02  8.744415e-02  1.260579e+00
     vertex  8.059973e-02  8.744415e-02  1.297692e+00
   endloop
 endfacet
 facet normal  0.000000e+00 -1.000000e+00  0.000000e+00
   outer loop
     vertex  5.559973e-02  8.744415e-02  1.279492e+00
     vertex  8.059973e-02  8.744415e-02  1.260579e+00
     vertex  5.879973e-02  8.744415e-02  1.282692e+00
   endloop
 endfacet
 facet normal  0.000000e+00 -1.000000e+00  0.000000e+00
   outer loop
     vertex  5.559973e-02  8.744415e-02  1.285892e+00
     vertex  5.879973e-02  8.744415e-02  1.282692e+00
     vertex  8.059973e-02  8.744415e-02  1.297692e+00
   endloop
 endfacet
 facet normal  0.000000e+00 -1.000000e+00  0.000000e+00
   outer loop
     vertex  5.599732e-03  8.744415e-02  1.279492e+00
     vertex  5.559973e-02  8.744415e-02  1.279492e+00
     vertex  5.239973e-02  8.744415e-02  1.282692e+00
   endloop
 endfacet
 facet normal  0.000000e+00 -1.000000e+00  0.000000e+00
   outer loop
     vertex  5.599732e-03  8.744415e-02  1.279492e+00
     vertex  5.239973e-02  8.744415e-02  1.282692e+00
     vertex  8.799732e-03  8.744415e-02  1.282692e+00
   endloop
 endfacet
 facet normal  0.000000e+00 -1.000000e+00  0.000000e+00
   outer loop
     vertex  5.599732e-03  8.744415e-02  1.279492e+00
     vertex  8.059973e-02  8.744415e-02  1.260579e+00
     vertex  5.559973e-02  8.744415e-02  1.279492e+00
   endloop
 endfacet
 facet normal  0.000000e+00 -1.000000e+00  0.000000e+00
   outer loop
     vertex  5.599732e-03  8.744415e-02  1.285892e+00
     vertex  5.239973e-02  8.744415e-02  1.282692e+00
     vertex  5.559973e-02  8.744415e-02  1.285892e+00
   endloop
 endfacet
 facet normal  0.000000e+00 -1.000000e+00  0.000000e+00
   outer loop
     vertex  5.599732e-03  8.744415e-02  1.285892e+00
     vertex  8.799732e-03  8.744415e-02  1.282692e+00
     vertex  5.239973e-02  8.744415e-02  1.282692e+00
   endloop
 endfacet
 facet normal  0.000000e+00 -1.000000e+00  0.000000e+00
   outer loop
     vertex  5.599732e-03  8.744415e-02  1.285892e+00
     vertex  5.559973e-02  8.744415e-02  1.285892e+00
     vertex  8.059973e-02  8.744415e-02  1.297692e+00
   endloop
 endfacet
 facet normal  0.000000e+00 -1.000000e+00  0.000000e+00
   outer loop
     vertex -4.120027e-02  8.744415e-02  1.282692e+00
     vertex  5.599732e-03  8.744415e-02  1.279492e+00
     vertex  2.399732e-03  8.744415e-02  1.282692e+00
   endloop
 endfacet
 facet normal  0.000000e+00 -1.000000e+00 -0.000000e+00
   outer loop
     vertex -4.120027e-02  8.744415e-02  1.282692e+00
     vertex -4.440027e-02  8.744415e-02  1.279492e+00
     vertex  5.599732e-03  8.744415e-02  1.279492e+00
   endloop
 endfacet
 facet normal  0.000000e+00 -1.000000e+00  0.000000e+00
   outer loop
     vertex -4.440027e-02  8.744415e-02  1.285892e+00
     vertex  2.399732e-03  8.744415e-02  1.282692e+00
     vertex  5.599732e-03  8.744415e-02  1.285892e+00
   endloop
 endfacet
 facet normal  0.000000e+00 -1.000000e+00  0.000000e+00
   outer loop
     vertex -4.440027e-02  8.744415e-02  1.285892e+00
     vertex -4.120027e-02  8.744415e-02  1.282692e+00
     vertex  2.399732e-03  8.744415e-02  1.282692e+00
   endloop
 endfacet
 facet normal  0.000000e+00 -1.000000e+00  0.000000e+00
   outer loop
     vertex -9.440027e-02  8.744415e-02  1.279492e+00
     vertex -4.440027e-02  8.744415e-02  1.279492e+00
     vertex -4.760027e-02  8.744415e-02  1.282692e+00
   endloop
 endfacet
 facet normal  0.000000e+00 -1.000000e+00  0.000000e+00
   outer loop
     vertex -9.440027e-02  8.744415e-02  1.279492e+00
     vertex -4.760027e-02  8.744415e-02  1.282692e+00
     vertex -9.120027e-02  8.744415e-02  1.282692e+00
   endloop
 endfacet
 facet normal  0.000000e+00 -1.000000e+00  0.000000e+00
   outer loop
     vertex -1.194003e-01  8.744415e-02  1.260579e+00
     vertex  5.599732e-03  8.744415e-02  1.279492e+00
     vertex -4.440027e-02  8.744415e-02  1.279492e+00
   endloop
 endfacet
 facet normal  0.000000e+00 -1.000000e+00  0.000000e+00
   outer loop
     vertex -1.194003e-01  8.744415e-02  1.260579e+00
     vertex  8.059973e-02  8.744415e-02  1.260579e+00
     vertex  5.599732e-03  8.744415e-02  1.279492e+00
   endloop
 endfacet
 facet normal  0.000000e+00 -1.000000e+00  0.000000e+00
   outer loop
     vertex -1.194003e-01  8.744415e-02  1.260579e+00
     vertex -4.440027e-02  8.744415e-02  1.279492e+00
     vertex -9.440027e-02  8.744415e-02  1.279492e+00
   endloop
 endfacet
 facet normal  0.000000e+00 -1.000000e+00 -0.000000e+00
   outer loop
     vertex -9.760027e-02  8.744415e-02  1.282692e+00
     vertex -1.194003e-01  8.744415e-02  1.260579e+00
     vertex -9.440027e-02  8.744415e-02  1.279492e+00
   endloop
 endfacet
 facet normal  0.000000e+00 -1.000000e+00  0.000000e+00
   outer loop
     vertex -9.440027e-02  8.744415e-02  1.285892e+00
     vertex -4.760027e-02  8.744415e-02  1.282692e+00
     vertex -4.440027e-02  8.744415e-02  1.285892e+00
   endloop
 endfacet
 facet normal  0.000000e+00 -1.000000e+00  0.000000e+00
   outer loop
     vertex -9.440027e-02  8.744415e-02  1.285892e+00
     vertex -9.120027e-02  8.744415e-02  1.282692e+00
     vertex -4.760027e-02  8.744415e-02  1.282692e+00
   endloop
 endfacet
 facet normal  0.000000e+00 -1.000000e+00  0.000000e+00
   outer loop
     vertex -1.194003e-01  8.744415e-02  1.297692e+00
     vertex -9.760027e-02  8.744415e-02  1.282692e+00
     vertex -9.440027e-02  8.744415e-02  1.285892e+00
   endloop
 endfacet
 facet normal  0.000000e+00 -1.000000e+00  0.000000e+00
   outer loop
     vertex -1.194003e-01  8.744415e-02  1.297692e+00
     vertex -9.440027e-02  8.744415e-02  1.285892e+00
     vertex -4.440027e-02  8.744415e-02  1.285892e+00
   endloop
 endfacet
 facet normal  0.000000e+00 -1.000000e+00  0.000000e+00
   outer loop
     vertex -1.194003e-01  8.744415e-02  1.297692e+00
     vertex -1.194003e-01  8.744415e-02  1.260579e+00
     vertex -9.760027e-02  8.744415e-02  1.282692e+00
   endloop
 endfacet
 facet normal  0.000000e+00 -1.000000e+00  0.000000e+00
   outer loop
     vertex -1.194003e-01  8.744415e-02  1.297692e+00
     vertex  5.599732e-03  8.744415e-02  1.285892e+00
     vertex  8.059973e-02  8.744415e-02  1.297692e+00
   endloop
 endfacet
 facet normal  0.000000e+00 -1.000000e+00  0.000000e+00
   outer loop
     vertex -1.194003e-01  8.744415e-02  1.297692e+00
     vertex -4.440027e-02  8.744415e-02  1.285892e+00
     vertex  5.599732e-03  8.744415e-02  1.285892e+00
   endloop
 endfacet
 facet normal  1.000000e+00  0.000000e+00  0.000000e+00
   outer loop
     vertex  8.059973e-02  8.744415e-02  1.260579e+00
     vertex  8.059973e-02  9.244415e-02  1.297692e+00
     vertex  8.059973e-02  8.744415e-02  1.297692e+00
   endloop
 endfacet
 facet normal  1.000000e+00  0.000000e+00 -0.000000e+00
   outer loop
     vertex  8.059973e-02  9.244415e-02  1.257692e+00
     vertex  8.059973e-02  9.244415e-02  1.297692e+00
     vertex  8.059973e-02  8.744415e-02  1.260579e+00
   endloop
 endfacet
 facet normal  0.000000e+00  0.000000e+00  1.000000e+00
   outer loop
     vertex  8.059973e-02  9.244415e-02  1.297692e+00
     vertex -1.194003e-01  8.744415e-02  1.297692e+00
     vertex  8.059973e-02  8.744415e-02  1.297692e+00
   endloop
 endfacet
 facet normal  0.000000e+00  0.000000e+00  1.000000e+00
   outer loop
     vertex  8.059973e-02  9.244415e-02  1.297692e+00
     vertex -1.194003e-01  9.244415e-02  1.297692e+00
     vertex -1.194003e-01  8.744415e-02  1.297692e+00
   endloop
 endfacet
 facet normal -1.000000e+00 -0.000000e+00  0.000000e+00
   outer loop
     vertex -1.194003e-01  9.244415e-02  1.297692e+00
     vertex -1.194003e-01  8.744415e-02  1.260579e+00
     vertex -1.194003e-01  8.744415e-02  1.297692e+00
   endloop
 endfacet
 facet normal -1.000000e+00  0.000000e+00 -0.000000e+00
   outer loop
     vertex -1.194003e-01  9.244415e-02  1.297692e+00
     vertex -1.194003e-01  9.244415e-02  1.257692e+00
     vertex -1.194003e-01  8.744415e-02  1.260579e+00
   endloop
 endfacet
 facet normal -0.000000e+00 -5.000000e-01 -8.660254e-01
   outer loop
     vertex  8.059973e-02  9.244415e-02  1.257692e+00
     vertex -1.194003e-01  8.744415e-02  1.260579e+00
     vertex -1.194003e-01  9.244415e-02  1.257692e+00
   endloop
 endfacet
 facet normal -0.000000e+00 -5.000000e-01 -8.660254e-01
   outer loop
     vertex  8.059973e-02  8.744415e-02  1.260579e+00
     vertex -1.194003e-01  8.744415e-02  1.260579e+00
     vertex  8.059973e-02  9.244415e-02  1.257692e+00
   endloop
 endfacet
 facet normal -7.773991e-13  1.000000e+00  0.000000e+00
   outer loop
     vertex  6.231973e-02  9.244415e-02  1.282692e+00
     vertex  8.059973e-02  9.244415e-02  1.297692e+00
     vertex  8.059973e-02  9.244415e-02  1.257692e+00
   endloop
 endfacet
 facet normal -3.283469e-13  1.000000e+00  3.283469e-13
   outer loop
     vertex  6.231973e-02  9.244415e-02  1.282692e+00
     vertex  8.059973e-02  9.244415e-02  1.257692e+00
     vertex  5.559973e-02  9.244415e-02  1.275972e+00
   endloop
 endfacet
 facet normal -4.270089e-13  1.000000e+00 -4.270089e-13
   outer loop
     vertex  5.559973e-02  9.244415e-02  1.289412e+00
     vertex  8.059973e-02  9.244415e-02  1.297692e+00
     vertex  6.231973e-02  9.244415e-02  1.282692e+00
   endloop
 endfacet
 facet normal  0.000000e+00  1.000000e+00 -2.114711e-12
   outer loop
     vertex  5.599732e-03  9.244415e-02  1.275972e+00
     vertex  4.887973e-02  9.244415e-02  1.282692e+00
     vertex  5.559973e-02  9.244415e-02  1.275972e+00
   endloop
 endfacet
 facet normal -0.000000e+00  1.000000e+00  7.773991e-13
   outer loop
     vertex  5.599732e-03  9.244415e-02  1.275972e+00
     vertex  5.559973e-02  9.244415e-02  1.275972e+00
     vertex  8.059973e-02  9.244415e-02  1.257692e+00
   endloop
 endfacet
 facet normal -3.886995e-13  1.000000e+00  3.886995e-13
   outer loop
     vertex  5.599732e-03  9.244415e-02  1.275972e+00
     vertex  1.231973e-02  9.244415e-02  1.282692e+00
     vertex  4.887973e-02  9.244415e-02  1.282692e+00
   endloop
 endfacet
 facet normal -0.000000e+00  1.000000e+00  2.114711e-12
   outer loop
     vertex  5.599732e-03  9.244415e-02  1.289412e+00
     vertex  5.559973e-02  9.244415e-02  1.289412e+00
     vertex  4.887973e-02  9.244415e-02  1.282692e+00
   endloop
 endfacet
 facet normal -3.886995e-13  1.000000e+00 -3.886995e-13
   outer loop
     vertex  5.599732e-03  9.244415e-02  1.289412e+00
     vertex  4.887973e-02  9.244415e-02  1.282692e+00
     vertex  1.231973e-02  9.244415e-02  1.282692e+00
   endloop
 endfacet
 facet normal -3.886995e-13  1.000000e+00 -2.503410e-12
   outer loop
     vertex -3.768027e-02  9.244415e-02  1.282692e+00
     vertex -1.120268e-03  9.244415e-02  1.282692e+00
     vertex  5.599732e-03  9.244415e-02  1.275972e+00
   endloop
 endfacet
 facet normal  0.000000e+00  1.000000e+00  0.000000e+00
   outer loop
     vertex -3.768027e-02  9.244415e-02  1.282692e+00
     vertex  5.599732e-03  9.244415e-02  1.275972e+00
     vertex -4.440027e-02  9.244415e-02  1.275972e+00
   endloop
 endfacet
 facet normal -0.000000e+00  1.000000e+00  2.114711e-12
   outer loop
     vertex -4.440027e-02  9.244415e-02  1.289412e+00
     vertex  5.599732e-03  9.244415e-02  1.289412e+00
     vertex -1.120268e-03  9.244415e-02  1.282692e+00
   endloop
 endfacet
 facet normal -3.886995e-13  1.000000e+00 -3.886995e-13
   outer loop
     vertex -4.440027e-02  9.244415e-02  1.289412e+00
     vertex -1.120268e-03  9.244415e-02  1.282692e+00
     vertex -3.768027e-02  9.244415e-02  1.282692e+00
   endloop
 endfacet
 facet normal  0.000000e+00  1.000000e+00 -2.114711e-12
   outer loop
     vertex -9.440027e-02  9.244415e-02  1.275972e+00
     vertex -5.112027e-02  9.244415e-02  1.282692e+00
     vertex -4.440027e-02  9.244415e-02  1.275972e+00
   endloop
 endfacet
 facet normal -3.886995e-13  1.000000e+00  3.886995e-13
   outer loop
     vertex -9.440027e-02  9.244415e-02  1.275972e+00
     vertex -8.768027e-02  9.244415e-02  1.282692e+00
     vertex -5.112027e-02  9.244415e-02  1.282692e+00
   endloop
 endfacet
 facet normal  0.000000e+00  1.000000e+00  7.773991e-13
   outer loop
     vertex -1.194003e-01  9.244415e-02  1.257692e+00
     vertex -4.440027e-02  9.244415e-02  1.275972e+00
     vertex  5.599732e-03  9.244415e-02  1.275972e+00
   endloop
 endfacet
 facet normal -0.000000e+00  1.000000e+00  7.773991e-13
   outer loop
     vertex -1.194003e-01  9.244415e-02  1.257692e+00
     vertex  5.599732e-03  9.244415e-02  1.275972e+00
     vertex  8.059973e-02  9.244415e-02  1.257692e+00
   endloop
 endfacet
 facet normal  0.000000e+00  1.000000e+00  7.773991e-13
   outer loop
     vertex -1.194003e-01  9.244415e-02  1.257692e+00
     vertex -9.440027e-02  9.244415e-02  1.275972e+00
     vertex -4.440027e-02  9.244415e-02  1.275972e+00
   endloop
 endfacet
 facet normal  1.221529e-12  1.000000e+00 -8.931818e-13
   outer loop
     vertex -1.011203e-01  9.244415e-02  1.282692e+00
     vertex -9.440027e-02  9.244415e-02  1.275972e+00
     vertex -1.194003e-01  9.244415e-02  1.257692e+00
   endloop
 endfacet
 facet normal -0.000000e+00  1.000000e+00  2.114711e-12
   outer loop
     vertex -9.440027e-02  9.244415e-02  1.289412e+00
     vertex -4.440027e-02  9.244415e-02  1.289412e+00
     vertex -5.112027e-02  9.244415e-02  1.282692e+00
   endloop
 endfacet
 facet normal -3.886995e-13  1.000000e+00 -3.886995e-13
   outer loop
     vertex -9.440027e-02  9.244415e-02  1.289412e+00
     vertex -5.112027e-02  9.244415e-02  1.282692e+00
     vertex -8.768027e-02  9.244415e-02  1.282692e+00
   endloop
 endfacet
 facet normal  9.531448e-13  1.000000e+00  1.161566e-12
   outer loop
     vertex -1.194003e-01  9.244415e-02  1.297692e+00
     vertex -9.440027e-02  9.244415e-02  1.289412e+00
     vertex -1.011203e-01  9.244415e-02  1.282692e+00
   endloop
 endfacet
 facet normal  0.000000e+00  1.000000e+00  0.000000e+00
   outer loop
     vertex -1.194003e-01  9.244415e-02  1.297692e+00
     vertex -1.011203e-01  9.244415e-02  1.282692e+00
     vertex -1.194003e-01  9.244415e-02  1.257692e+00
   endloop
 endfacet
 facet normal  0.000000e+00  1.000000e+00 -1.716287e-12
   outer loop
     vertex -1.194003e-01  9.244415e-02  1.297692e+00
     vertex  8.059973e-02  9.244415e-02  1.297692e+00
     vertex  5.559973e-02  9.244415e-02  1.289412e+00
   endloop
 endfacet
 facet normal  0.000000e+00  1.000000e+00 -1.716287e-12
   outer loop
     vertex -1.194003e-01  9.244415e-02  1.297692e+00
     vertex  5.559973e-02  9.244415e-02  1.289412e+00
     vertex  5.599732e-03  9.244415e-02  1.289412e+00
   endloop
 endfacet
 facet normal  0.000000e+00  1.000000e+00 -1.716287e-12
   outer loop
     vertex -1.194003e-01  9.244415e-02  1.297692e+00
     vertex  5.599732e-03  9.244415e-02  1.289412e+00
     vertex -4.440027e-02  9.244415e-02  1.289412e+00
   endloop
 endfacet
 facet normal  0.000000e+00  1.000000e+00 -1.716287e-12
   outer loop
     vertex -1.194003e-01  9.244415e-02  1.297692e+00
     vertex -4.440027e-02  9.244415e-02  1.289412e+00
     vertex -9.440027e-02  9.244415e-02  1.289412e+00
   endloop
 endfacet
 facet normal  5.773503e-01  5.773503e-01 -5.773503e-01
   outer loop
     vertex  5.559973e-02  9.244415e-02  1.289412e+00
     vertex  5.239973e-02  8.892415e-02  1.282692e+00
     vertex  4.887973e-02  9.244415e-02  1.282692e+00
   endloop
 endfacet
 facet normal  5.773503e-01  5.773503e-01 -5.773503e-01
   outer loop
     vertex  5.559973e-02  9.244415e-02  1.289412e+00
     vertex  5.559973e-02  8.892415e-02  1.285892e+00
     vertex  5.239973e-02  8.892415e-02  1.282692e+00
   endloop
 endfacet
 facet normal -5.773503e-01  5.773503e-01 -5.773503e-01
   outer loop
     vertex  6.231973e-02  9.244415e-02  1.282692e+00
     vertex  5.879973e-02  8.892415e-02  1.282692e+00
     vertex  5.559973e-02  8.892415e-02  1.285892e+00
   endloop
 endfacet
 facet normal -5.773503e-01  5.773503e-01 -5.773503e-01
   outer loop
     vertex  6.231973e-02  9.244415e-02  1.282692e+00
     vertex  5.559973e-02  8.892415e-02  1.285892e+00
     vertex  5.559973e-02  9.244415e-02  1.289412e+00
   endloop
 endfacet
 facet normal -5.773503e-01  5.773503e-01  5.773503e-01
   outer loop
     vertex  5.559973e-02  9.244415e-02  1.275972e+00
     vertex  5.559973e-02  8.892415e-02  1.279492e+00
     vertex  5.879973e-02  8.892415e-02  1.282692e+00
   endloop
 endfacet
 facet normal -5.773503e-01  5.773503e-01  5.773503e-01
   outer loop
     vertex  5.559973e-02  9.244415e-02  1.275972e+00
     vertex  5.879973e-02  8.892415e-02  1.282692e+00
     vertex  6.231973e-02  9.244415e-02  1.282692e+00
   endloop
 endfacet
 facet normal  5.773503e-01  5.773503e-01  5.773503e-01
   outer loop
     vertex  4.887973e-02  9.244415e-02  1.282692e+00
     vertex  5.239973e-02  8.892415e-02  1.282692e+00
     vertex  5.559973e-02  8.892415e-02  1.279492e+00
   endloop
 endfacet
 facet normal  5.773503e-01  5.773503e-01  5.773503e-01
   outer loop
     vertex  4.887973e-02  9.244415e-02  1.282692e+00
     vertex  5.559973e-02  8.892415e-02  1.279492e+00
     vertex  5.559973e-02  9.244415e-02  1.275972e+00
   endloop
 endfacet
 facet normal  7.071068e-01  0.000000e+00 -7.071068e-01
   outer loop
     vertex  5.559973e-02  8.892415e-02  1.285892e+00
     vertex  5.239973e-02  8.744415e-02  1.282692e+00
     vertex  5.239973e-02  8.892415e-02  1.282692e+00
   endloop
 endfacet
 facet normal  7.071068e-01  0.000000e+00 -7.071068e-01
   outer loop
     vertex  5.559973e-02  8.892415e-02  1.285892e+00
     vertex  5.559973e-02  8.744415e-02  1.285892e+00
     vertex  5.239973e-02  8.744415e-02  1.282692e+00
   endloop
 endfacet
 facet normal -7.071068e-01 -0.000000e+00 -7.071068e-01
   outer loop
     vertex  5.879973e-02  8.892415e-02  1.282692e+00
     vertex  5.879973e-02  8.744415e-02  1.282692e+00
     vertex  5.559973e-02  8.744415e-02  1.285892e+00
   endloop
 endfacet
 facet normal -7.071068e-01  0.000000e+00 -7.071068e-01
   outer loop
     vertex  5.879973e-02  8.892415e-02  1.282692e+00
     vertex  5.559973e-02  8.744415e-02  1.285892e+00
     vertex  5.559973e-02  8.892415e-02  1.285892e+00
   endloop
 endfacet
 facet normal -7.071068e-01  0.000000e+00  7.071068e-01
   outer loop
     vertex  5.559973e-02  8.892415e-02  1.279492e+00
     vertex  5.559973e-02  8.744415e-02  1.279492e+00
     vertex  5.879973e-02  8.744415e-02  1.282692e+00
   endloop
 endfacet
 facet normal -7.071068e-01  0.000000e+00  7.071068e-01
   outer loop
     vertex  5.559973e-02  8.892415e-02  1.279492e+00
     vertex  5.879973e-02  8.744415e-02  1.282692e+00
     vertex  5.879973e-02  8.892415e-02  1.282692e+00
   endloop
 endfacet
 facet normal  7.071068e-01  0.000000e+00  7.071068e-01
   outer loop
     vertex  5.239973e-02  8.892415e-02  1.282692e+00
     vertex  5.239973e-02  8.744415e-02  1.282692e+00
     vertex  5.559973e-02  8.744415e-02  1.279492e+00
   endloop
 endfacet
 facet normal  7.071068e-01  0.000000e+00  7.071068e-01
   outer loop
     vertex  5.239973e-02  8.892415e-02  1.282692e+00
     vertex  5.559973e-02  8.744415e-02  1.279492e+00
     vertex  5.559973e-02  8.892415e-02  1.279492e+00
   endloop
 endfacet
 facet normal  5.773503e-01  5.773503e-01 -5.773503e-01
   outer loop
     vertex  5.599732e-03  9.244415e-02  1.289412e+00
     vertex  2.399732e-03  8.892415e-02  1.282692e+00
     vertex -1.120268e-03  9.244415e-02  1.282692e+00
   endloop
 endfacet
 facet normal  5.773503e-01  5.773503e-01 -5.773503e-01
   outer loop
     vertex  5.599732e-03  9.244415e-02  1.289412e+00
     vertex  5.599732e-03  8.892415e-02  1.285892e+00
     vertex  2.399732e-03  8.892415e-02  1.282692e+00
   endloop
 endfacet
 facet normal -5.773503e-01  5.773503e-01 -5.773503e-01
   outer loop
     vertex  1.231973e-02  9.244415e-02  1.282692e+00
     vertex  8.799732e-03  8.892415e-02  1.282692e+00
     vertex  5.599732e-03  8.892415e-02  1.285892e+00
   endloop
 endfacet
 facet normal -5.773503e-01  5.773503e-01 -5.773503e-01
   outer loop
     vertex  1.231973e-02  9.244415e-02  1.282692e+00
     vertex  5.599732e-03  8.892415e-02  1.285892e+00
     vertex  5.599732e-03  9.244415e-02  1.289412e+00
   endloop
 endfacet
 facet normal -5.773503e-01  5.773503e-01  5.773503e-01
   outer loop
     vertex  5.599732e-03  9.244415e-02  1.275972e+00
     vertex  5.599732e-03  8.892415e-02  1.279492e+00
     vertex  8.799732e-03  8.892415e-02  1.282692e+00
   endloop
 endfacet
 facet normal -5.773503e-01  5.773503e-01  5.773503e-01
   outer loop
     vertex  5.599732e-03  9.244415e-02  1.275972e+00
     vertex  8.799732e-03  8.892415e-02  1.282692e+00
     vertex  1.231973e-02  9.244415e-02  1.282692e+00
   endloop
 endfacet
 facet normal  5.773503e-01  5.773503e-01  5.773503e-01
   outer loop
     vertex -1.120268e-03  9.244415e-02  1.282692e+00
     vertex  2.399732e-03  8.892415e-02  1.282692e+00
     vertex  5.599732e-03  8.892415e-02  1.279492e+00
   endloop
 endfacet
 facet normal  5.773503e-01  5.773503e-01  5.773503e-01
   outer loop
     vertex -1.120268e-03  9.244415e-02  1.282692e+00
     vertex  5.599732e-03  8.892415e-02  1.279492e+00
     vertex  5.599732e-03  9.244415e-02  1.275972e+00
   endloop
 endfacet
 facet normal  7.071068e-01  0.000000e+00 -7.071068e-01
   outer loop
     vertex  5.599732e-03  8.892415e-02  1.285892e+00
     vertex  2.399732e-03  8.744415e-02  1.282692e+00
     vertex  2.399732e-03  8.892415e-02  1.282692e+00
   endloop
 endfacet
 facet normal  7.071068e-01  0.000000e+00 -7.071068e-01
   outer loop
     vertex  5.599732e-03  8.892415e-02  1.285892e+00
     vertex  5.599732e-03  8.744415e-02  1.285892e+00
     vertex  2.399732e-03  8.744415e-02  1.282692e+00
   endloop
 endfacet
 facet normal -7.071068e-01 -0.000000e+00 -7.071068e-01
   outer loop
     vertex  8.799732e-03  8.892415e-02  1.282692e+00
     vertex  8.799732e-03  8.744415e-02  1.282692e+00
     vertex  5.599732e-03  8.744415e-02  1.285892e+00
   endloop
 endfacet
 facet normal -7.071068e-01  0.000000e+00 -7.071068e-01
   outer loop
     vertex  8.799732e-03  8.892415e-02  1.282692e+00
     vertex  5.599732e-03  8.744415e-02  1.285892e+00
     vertex  5.599732e-03  8.892415e-02  1.285892e+00
   endloop
 endfacet
 facet normal -7.071068e-01  0.000000e+00  7.071068e-01
   outer loop
     vertex  5.599732e-03  8.892415e-02  1.279492e+00
     vertex  5.599732e-03  8.744415e-02  1.279492e+00
     vertex  8.799732e-03  8.744415e-02  1.282692e+00
   endloop
 endfacet
 facet normal -7.071068e-01  0.000000e+00  7.071068e-01
   outer loop
     vertex  5.599732e-03  8.892415e-02  1.279492e+00
     vertex  8.799732e-03  8.744415e-02  1.282692e+00
     vertex  8.799732e-03  8.892415e-02  1.282692e+00
   endloop
 endfacet
 facet normal  7.071068e-01  0.000000e+00  7.071068e-01
   outer loop
     vertex  2.399732e-03  8.892415e-02  1.282692e+00
     vertex  2.399732e-03  8.744415e-02  1.282692e+00
     vertex  5.599732e-03  8.744415e-02  1.279492e+00
   endloop
 endfacet
 facet normal  7.071068e-01  0.000000e+00  7.071068e-01
   outer loop
     vertex  2.399732e-03  8.892415e-02  1.282692e+00
     vertex  5.599732e-03  8.744415e-02  1.279492e+00
     vertex  5.599732e-03  8.892415e-02  1.279492e+00
   endloop
 endfacet
 facet normal  5.773503e-01  5.773503e-01 -5.773503e-01
   outer loop
     vertex -4.440027e-02  9.244415e-02  1.289412e+00
     vertex -4.760027e-02  8.892415e-02  1.282692e+00
     vertex -5.112027e-02  9.244415e-02  1.282692e+00
   endloop
 endfacet
 facet normal  5.773503e-01  5.773503e-01 -5.773503e-01
   outer loop
     vertex -4.440027e-02  9.244415e-02  1.289412e+00
     vertex -4.440027e-02  8.892415e-02  1.285892e+00
     vertex -4.760027e-02  8.892415e-02  1.282692e+00
   endloop
 endfacet
 facet normal -5.773503e-01  5.773503e-01 -5.773503e-01
   outer loop
     vertex -3.768027e-02  9.244415e-02  1.282692e+00
     vertex -4.120027e-02  8.892415e-02  1.282692e+00
     vertex -4.440027e-02  8.892415e-02  1.285892e+00
   endloop
 endfacet
 facet normal -5.773503e-01  5.773503e-01 -5.773503e-01
   outer loop
     vertex -3.768027e-02  9.244415e-02  1.282692e+00
     vertex -4.440027e-02  8.892415e-02  1.285892e+00
     vertex -4.440027e-02  9.244415e-02  1.289412e+00
   endloop
 endfacet
 facet normal -5.773503e-01  5.773503e-01  5.773503e-01
   outer loop
     vertex -4.440027e-02  9.244415e-02  1.275972e+00
     vertex -4.440027e-02  8.892415e-02  1.279492e+00
     vertex -4.120027e-02  8.892415e-02  1.282692e+00
   endloop
 endfacet
 facet normal -5.773503e-01  5.773503e-01  5.773503e-01
   outer loop
     vertex -4.440027e-02  9.244415e-02  1.275972e+00
     vertex -4.120027e-02  8.892415e-02  1.282692e+00
     vertex -3.768027e-02  9.244415e-02  1.282692e+00
   endloop
 endfacet
 facet normal  5.773503e-01  5.773503e-01  5.773503e-01
   outer loop
     vertex -5.112027e-02  9.244415e-02  1.282692e+00
     vertex -4.760027e-02  8.892415e-02  1.282692e+00
     vertex -4.440027e-02  8.892415e-02  1.279492e+00
   endloop
 endfacet
 facet normal  5.773503e-01  5.773503e-01  5.773503e-01
   outer loop
     vertex -5.112027e-02  9.244415e-02  1.282692e+00
     vertex -4.440027e-02  8.892415e-02  1.279492e+00
     vertex -4.440027e-02  9.244415e-02  1.275972e+00
   endloop
 endfacet
 facet normal  7.071068e-01  0.000000e+00 -7.071068e-01
   outer loop
     vertex -4.440027e-02  8.892415e-02  1.285892e+00
     vertex -4.760027e-02  8.744415e-02  1.282692e+00
     vertex -4.760027e-02  8.892415e-02  1.282692e+00
   endloop
 endfacet
 facet normal  7.071068e-01  0.000000e+00 -7.071068e-01
   outer loop
     vertex -4.440027e-02  8.892415e-02  1.285892e+00
     vertex -4.440027e-02  8.744415e-02  1.285892e+00
     vertex -4.760027e-02  8.744415e-02  1.282692e+00
   endloop
 endfacet
 facet normal -7.071068e-01 -0.000000e+00 -7.071068e-01
   outer loop
     vertex -4.120027e-02  8.892415e-02  1.282692e+00
     vertex -4.120027e-02  8.744415e-02  1.282692e+00
     vertex -4.440027e-02  8.744415e-02  1.285892e+00
   endloop
 endfacet
 facet normal -7.071068e-01  0.000000e+00 -7.071068e-01
   outer loop
     vertex -4.120027e-02  8.892415e-02  1.282692e+00
     vertex -4.440027e-02  8.744415e-02  1.285892e+00
     vertex -4.440027e-02  8.892415e-02  1.285892e+00
   endloop
 endfacet
 facet normal -7.071068e-01  0.000000e+00  7.071068e-01
   outer loop
     vertex -4.440027e-02  8.892415e-02  1.279492e+00
     vertex -4.440027e-02  8.744415e-02  1.279492e+00
     vertex -4.120027e-02  8.744415e-02  1.282692e+00
   endloop
 endfacet
 facet normal -7.071068e-01  0.000000e+00  7.071068e-01
   outer loop
     vertex -4.440027e-02  8.892415e-02  1.279492e+00
     vertex -4.120027e-02  8.744415e-02  1.282692e+00
     vertex -4.120027e-02  8.892415e-02  1.282692e+00
   endloop
 endfacet
 facet normal  7.071068e-01  0.000000e+00  7.071068e-01
   outer loop
     vertex -4.760027e-02  8.892415e-02  1.282692e+00
     vertex -4.760027e-02  8.744415e-02  1.282692e+00
     vertex -4.440027e-02  8.744415e-02  1.279492e+00
   endloop
 endfacet
 facet normal  7.071068e-01  0.000000e+00  7.071068e-01
   outer loop
     vertex -4.760027e-02  8.892415e-02  1.282692e+00
     vertex -4.440027e-02  8.744415e-02  1.279492e+00
     vertex -4.440027e-02  8.892415e-02  1.279492e+00
   endloop
 endfacet
 facet normal  5.773503e-01  5.773503e-01 -5.773503e-01
   outer loop
     vertex -9.440027e-02  9.244415e-02  1.289412e+00
     vertex -9.760027e-02  8.892415e-02  1.282692e+00
     vertex -1.011203e-01  9.244415e-02  1.282692e+00
   endloop
 endfacet
 facet normal  5.773503e-01  5.773503e-01 -5.773503e-01
   outer loop
     vertex -9.440027e-02  9.244415e-02  1.289412e+00
     vertex -9.440027e-02  8.892415e-02  1.285892e+00
     vertex -9.760027e-02  8.892415e-02  1.282692e+00
   endloop
 endfacet
 facet normal -5.773503e-01  5.773503e-01 -5.773503e-01
   outer loop
     vertex -8.768027e-02  9.244415e-02  1.282692e+00
     vertex -9.120027e-02  8.892415e-02  1.282692e+00
     vertex -9.440027e-02  8.892415e-02  1.285892e+00
   endloop
 endfacet
 facet normal -5.773503e-01  5.773503e-01 -5.773503e-01
   outer loop
     vertex -8.768027e-02  9.244415e-02  1.282692e+00
     vertex -9.440027e-02  8.892415e-02  1.285892e+00
     vertex -9.440027e-02  9.244415e-02  1.289412e+00
   endloop
 endfacet
 facet normal -5.773503e-01  5.773503e-01  5.773503e-01
   outer loop
     vertex -9.440027e-02  9.244415e-02  1.275972e+00
     vertex -9.440027e-02  8.892415e-02  1.279492e+00
     vertex -9.120027e-02  8.892415e-02  1.282692e+00
   endloop
 endfacet
 facet normal -5.773503e-01  5.773503e-01  5.773503e-01
   outer loop
     vertex -9.440027e-02  9.244415e-02  1.275972e+00
     vertex -9.120027e-02  8.892415e-02  1.282692e+00
     vertex -8.768027e-02  9.244415e-02  1.282692e+00
   endloop
 endfacet
 facet normal  5.773503e-01  5.773503e-01  5.773503e-01
   outer loop
     vertex -1.011203e-01  9.244415e-02  1.282692e+00
     vertex -9.760027e-02  8.892415e-02  1.282692e+00
     vertex -9.440027e-02  8.892415e-02  1.279492e+00
   endloop
 endfacet
 facet normal  5.773503e-01  5.773503e-01  5.773503e-01
   outer loop
     vertex -1.011203e-01  9.244415e-02  1.282692e+00
     vertex -9.440027e-02  8.892415e-02  1.279492e+00
     vertex -9.440027e-02  9.244415e-02  1.275972e+00
   endloop
 endfacet
 facet normal  7.071068e-01  0.000000e+00 -7.071068e-01
   outer loop
     vertex -9.440027e-02  8.892415e-02  1.285892e+00
     vertex -9.760027e-02  8.744415e-02  1.282692e+00
     vertex -9.760027e-02  8.892415e-02  1.282692e+00
   endloop
 endfacet
 facet normal  7.071068e-01  0.000000e+00 -7.071068e-01
   outer loop
     vertex -9.440027e-02  8.892415e-02  1.285892e+00
     vertex -9.440027e-02  8.744415e-02  1.285892e+00
     vertex -9.760027e-02  8.744415e-02  1.282692e+00
   endloop
 endfacet
 facet normal -7.071068e-01 -0.000000e+00 -7.071068e-01
   outer loop
     vertex -9.120027e-02  8.892415e-02  1.282692e+00
     vertex -9.120027e-02  8.744415e-02  1.282692e+00
     vertex -9.440027e-02  8.744415e-02  1.285892e+00
   endloop
 endfacet
 facet normal -7.071068e-01  0.000000e+00 -7.071068e-01
   outer loop
     vertex -9.120027e-02  8.892415e-02  1.282692e+00
     vertex -9.440027e-02  8.744415e-02  1.285892e+00
     vertex -9.440027e-02  8.892415e-02  1.285892e+00
   endloop
 endfacet
 facet normal -7.071068e-01  0.000000e+00  7.071068e-01
   outer loop
     vertex -9.440027e-02  8.892415e-02  1.279492e+00
     vertex -9.440027e-02  8.744415e-02  1.279492e+00
     vertex -9.120027e-02  8.744415e-02  1.282692e+00
   endloop
 endfacet
 facet normal -7.071068e-01  0.000000e+00  7.071068e-01
   outer loop
     vertex -9.440027e-02  8.892415e-02  1.279492e+00
     vertex -9.120027e-02  8.744415e-02  1.282692e+00
     vertex -9.120027e-02  8.892415e-02  1.282692e+00
   endloop
 endfacet
 facet normal  7.071068e-01  0.000000e+00  7.071068e-01
   outer loop
     vertex -9.760027e-02  8.892415e-02  1.282692e+00
     vertex -9.760027e-02  8.744415e-02  1.282692e+00
     vertex -9.440027e-02  8.744415e-02  1.279492e+00
   endloop
 endfacet
 facet normal  7.071068e-01  0.000000e+00  7.071068e-01
   outer loop
     vertex -9.760027e-02  8.892415e-02  1.282692e+00
     vertex -9.440027e-02  8.744415e-02  1.279492e+00
     vertex -9.440027e-02  8.892415e-02  1.279492e+00
   endloop
 endfacet
endsolid
