solid 
 facet normal  0.000000e+00  1.000000e+00  0.000000e+00
   outer loop
     vertex -2.026003e-01 -2.555850e-03  1.060692e+00
     vertex -1.994003e-01 -2.555850e-03  1.057492e+00
     vertex -2.194003e-01 -2.555850e-03  1.040692e+00
   endloop
 endfacet
 facet normal  0.000000e+00  1.000000e+00  0.000000e+00
   outer loop
     vertex -2.026003e-01 -2.555850e-03  1.230692e+00
     vertex -1.994003e-01 -2.555850e-03  1.063892e+00
     vertex -2.026003e-01 -2.555850e-03  1.060692e+00
   endloop
 endfacet
 facet normal  0.000000e+00  1.000000e+00  0.000000e+00
   outer loop
     vertex -2.026003e-01 -2.555850e-03  1.230692e+00
     vertex -1.994003e-01 -2.555850e-03  1.227492e+00
     vertex -1.994003e-01 -2.555850e-03  1.063892e+00
   endloop
 endfacet
 facet normal  0.000000e+00  1.000000e+00  0.000000e+00
   outer loop
     vertex -2.026003e-01 -2.555850e-03  1.230692e+00
     vertex -2.026003e-01 -2.555850e-03  1.060692e+00
     vertex -2.194003e-01 -2.555850e-03  1.040692e+00
   endloop
 endfacet
 facet normal  0.000000e+00  1.000000e+00  0.000000e+00
   outer loop
     vertex -7.940027e-02 -2.555850e-03  1.190692e+00
     vertex -1.994003e-01 -2.555850e-03  1.227492e+00
     vertex -1.962003e-01 -2.555850e-03  1.230692e+00
   endloop
 endfacet
 facet normal  0.000000e+00  1.000000e+00  0.000000e+00
   outer loop
     vertex -7.940027e-02 -2.555850e-03  1.190692e+00
     vertex -1.962003e-01 -2.555850e-03  1.060692e+00
     vertex -1.994003e-01 -2.555850e-03  1.063892e+00
   endloop
 endfacet
 facet normal  0.000000e+00  1.000000e+00  0.000000e+00
   outer loop
     vertex -7.940027e-02 -2.555850e-03  1.190692e+00
     vertex -1.994003e-01 -2.555850e-03  1.063892e+00
     vertex -1.994003e-01 -2.555850e-03  1.227492e+00
   endloop
 endfacet
 facet normal  0.000000e+00  1.000000e+00  0.000000e+00
   outer loop
     vertex -7.940027e-02 -2.555850e-03  1.190692e+00
     vertex -3.794129e-02 -2.555850e-03  1.133629e+00
     vertex -1.962003e-01 -2.555850e-03  1.060692e+00
   endloop
 endfacet
 facet normal  0.000000e+00  1.000000e+00  0.000000e+00
   outer loop
     vertex -1.994003e-01 -2.555850e-03  1.397492e+00
     vertex -1.994003e-01 -2.555850e-03  1.233892e+00
     vertex -2.026003e-01 -2.555850e-03  1.230692e+00
   endloop
 endfacet
 facet normal  0.000000e+00  1.000000e+00  0.000000e+00
   outer loop
     vertex -1.994003e-01 -2.555850e-03  1.397492e+00
     vertex -2.026003e-01 -2.555850e-03  1.230692e+00
     vertex -2.026003e-01 -2.555850e-03  1.400692e+00
   endloop
 endfacet
 facet normal  0.000000e+00  1.000000e+00  0.000000e+00
   outer loop
     vertex -3.794129e-02 -2.555850e-03  1.247756e+00
     vertex -1.994003e-01 -2.555850e-03  1.397492e+00
     vertex -1.962003e-01 -2.555850e-03  1.400692e+00
   endloop
 endfacet
 facet normal  0.000000e+00  1.000000e+00  0.000000e+00
   outer loop
     vertex -3.794129e-02 -2.555850e-03  1.247756e+00
     vertex -1.962003e-01 -2.555850e-03  1.230692e+00
     vertex -1.994003e-01 -2.555850e-03  1.233892e+00
   endloop
 endfacet
 facet normal  0.000000e+00  1.000000e+00  0.000000e+00
   outer loop
     vertex -3.794129e-02 -2.555850e-03  1.247756e+00
     vertex -7.940027e-02 -2.555850e-03  1.190692e+00
     vertex -1.962003e-01 -2.555850e-03  1.230692e+00
   endloop
 endfacet
 facet normal  0.000000e+00  1.000000e+00  0.000000e+00
   outer loop
     vertex -3.794129e-02 -2.555850e-03  1.247756e+00
     vertex -1.994003e-01 -2.555850e-03  1.233892e+00
     vertex -1.994003e-01 -2.555850e-03  1.397492e+00
   endloop
 endfacet
 facet normal  0.000000e+00  1.000000e+00  0.000000e+00
   outer loop
     vertex  1.573997e-01 -2.555850e-03  1.060692e+00
     vertex -3.794129e-02 -2.555850e-03  1.133629e+00
     vertex  2.914075e-02 -2.555850e-03  1.155425e+00
   endloop
 endfacet
 facet normal  0.000000e+00  1.000000e+00  0.000000e+00
   outer loop
     vertex  1.573997e-01 -2.555850e-03  1.060692e+00
     vertex -1.962003e-01 -2.555850e-03  1.060692e+00
     vertex -3.794129e-02 -2.555850e-03  1.133629e+00
   endloop
 endfacet
 facet normal  0.000000e+00  1.000000e+00  0.000000e+00
   outer loop
     vertex  1.605997e-01 -2.555850e-03  1.057492e+00
     vertex -1.994003e-01 -2.555850e-03  1.057492e+00
     vertex -1.962003e-01 -2.555850e-03  1.060692e+00
   endloop
 endfacet
 facet normal  0.000000e+00  1.000000e+00  0.000000e+00
   outer loop
     vertex  1.605997e-01 -2.555850e-03  1.057492e+00
     vertex -1.962003e-01 -2.555850e-03  1.060692e+00
     vertex  1.573997e-01 -2.555850e-03  1.060692e+00
   endloop
 endfacet
 facet normal  0.000000e+00  1.000000e+00  0.000000e+00
   outer loop
     vertex  1.805997e-01 -2.555850e-03  1.040692e+00
     vertex -1.994003e-01 -2.555850e-03  1.057492e+00
     vertex  1.605997e-01 -2.555850e-03  1.057492e+00
   endloop
 endfacet
 facet normal  0.000000e+00  1.000000e+00  0.000000e+00
   outer loop
     vertex  1.805997e-01 -2.555850e-03  1.040692e+00
     vertex -2.194003e-01 -2.555850e-03  1.040692e+00
     vertex -1.994003e-01 -2.555850e-03  1.057492e+00
   endloop
 endfacet
 facet normal  0.000000e+00  1.000000e+00  0.000000e+00
   outer loop
     vertex  1.637997e-01 -2.555850e-03  1.060692e+00
     vertex  1.805997e-01 -2.555850e-03  1.040692e+00
     vertex  1.605997e-01 -2.555850e-03  1.057492e+00
   endloop
 endfacet
 facet normal  0.000000e+00  1.000000e+00  0.000000e+00
   outer loop
     vertex  1.605997e-01 -2.555850e-03  1.063892e+00
     vertex  1.573997e-01 -2.555850e-03  1.060692e+00
     vertex  2.914075e-02 -2.555850e-03  1.155425e+00
   endloop
 endfacet
 facet normal -2.612289e-15  1.000000e+00  2.612289e-15
   outer loop
     vertex -2.026003e-01 -2.555850e-03  1.570692e+00
     vertex -1.994003e-01 -2.555850e-03  1.403892e+00
     vertex -2.026003e-01 -2.555850e-03  1.400692e+00
   endloop
 endfacet
 facet normal  2.714482e-15  1.000000e+00  2.714482e-15
   outer loop
     vertex -2.026003e-01 -2.555850e-03  1.570692e+00
     vertex -1.994003e-01 -2.555850e-03  1.567492e+00
     vertex -1.994003e-01 -2.555850e-03  1.403892e+00
   endloop
 endfacet
 facet normal  2.954375e-14  1.000000e+00  2.612289e-15
   outer loop
     vertex -2.194003e-01 -2.555850e-03  1.590692e+00
     vertex -2.026003e-01 -2.555850e-03  1.570692e+00
     vertex -2.026003e-01 -2.555850e-03  1.400692e+00
   endloop
 endfacet
 facet normal  0.000000e+00  1.000000e+00  0.000000e+00
   outer loop
     vertex -1.962003e-01 -2.555850e-03  1.570692e+00
     vertex -1.962003e-01 -2.555850e-03  1.400692e+00
     vertex -1.994003e-01 -2.555850e-03  1.403892e+00
   endloop
 endfacet
 facet normal -1.414924e-13  1.000000e+00  2.714482e-15
   outer loop
     vertex -1.962003e-01 -2.555850e-03  1.570692e+00
     vertex -1.994003e-01 -2.555850e-03  1.403892e+00
     vertex -1.994003e-01 -2.555850e-03  1.567492e+00
   endloop
 endfacet
 facet normal  1.206764e-14  1.000000e+00 -1.206764e-14
   outer loop
     vertex -1.994003e-01 -2.555850e-03  1.573892e+00
     vertex -2.026003e-01 -2.555850e-03  1.570692e+00
     vertex -2.194003e-01 -2.555850e-03  1.590692e+00
   endloop
 endfacet
 facet normal  0.000000e+00  1.000000e+00  0.000000e+00
   outer loop
     vertex  1.605997e-01 -2.555850e-03  1.227492e+00
     vertex  1.605997e-01 -2.555850e-03  1.063892e+00
     vertex  2.914075e-02 -2.555850e-03  1.155425e+00
   endloop
 endfacet
 facet normal  0.000000e+00  1.000000e+00  0.000000e+00
   outer loop
     vertex  1.573997e-01 -2.555850e-03  1.230692e+00
     vertex  2.914075e-02 -2.555850e-03  1.155425e+00
     vertex  2.914075e-02 -2.555850e-03  1.225959e+00
   endloop
 endfacet
 facet normal  0.000000e+00  1.000000e+00  0.000000e+00
   outer loop
     vertex  1.573997e-01 -2.555850e-03  1.230692e+00
     vertex  1.605997e-01 -2.555850e-03  1.227492e+00
     vertex  2.914075e-02 -2.555850e-03  1.155425e+00
   endloop
 endfacet
 facet normal  0.000000e+00  1.000000e+00  0.000000e+00
   outer loop
     vertex  1.605997e-01 -2.555850e-03  1.233892e+00
     vertex  1.573997e-01 -2.555850e-03  1.230692e+00
     vertex  2.914075e-02 -2.555850e-03  1.225959e+00
   endloop
 endfacet
 facet normal  0.000000e+00  1.000000e+00  0.000000e+00
   outer loop
     vertex  1.637997e-01 -2.555850e-03  1.230692e+00
     vertex  1.637997e-01 -2.555850e-03  1.060692e+00
     vertex  1.605997e-01 -2.555850e-03  1.063892e+00
   endloop
 endfacet
 facet normal  0.000000e+00  1.000000e+00  0.000000e+00
   outer loop
     vertex  1.637997e-01 -2.555850e-03  1.230692e+00
     vertex  1.805997e-01 -2.555850e-03  1.040692e+00
     vertex  1.637997e-01 -2.555850e-03  1.060692e+00
   endloop
 endfacet
 facet normal  0.000000e+00  1.000000e+00  0.000000e+00
   outer loop
     vertex  1.637997e-01 -2.555850e-03  1.230692e+00
     vertex  1.605997e-01 -2.555850e-03  1.063892e+00
     vertex  1.605997e-01 -2.555850e-03  1.227492e+00
   endloop
 endfacet
 facet normal  0.000000e+00  1.000000e+00  0.000000e+00
   outer loop
     vertex  1.573997e-01 -2.555850e-03  1.400692e+00
     vertex  2.914075e-02 -2.555850e-03  1.225959e+00
     vertex -3.794129e-02 -2.555850e-03  1.247756e+00
   endloop
 endfacet
 facet normal  0.000000e+00  1.000000e+00  0.000000e+00
   outer loop
     vertex  1.573997e-01 -2.555850e-03  1.400692e+00
     vertex -3.794129e-02 -2.555850e-03  1.247756e+00
     vertex -1.962003e-01 -2.555850e-03  1.400692e+00
   endloop
 endfacet
 facet normal  0.000000e+00  1.000000e+00  0.000000e+00
   outer loop
     vertex  1.605997e-01 -2.555850e-03  1.397492e+00
     vertex  2.914075e-02 -2.555850e-03  1.225959e+00
     vertex  1.573997e-01 -2.555850e-03  1.400692e+00
   endloop
 endfacet
 facet normal  0.000000e+00  1.000000e+00  0.000000e+00
   outer loop
     vertex  1.605997e-01 -2.555850e-03  1.397492e+00
     vertex  1.605997e-01 -2.555850e-03  1.233892e+00
     vertex  2.914075e-02 -2.555850e-03  1.225959e+00
   endloop
 endfacet
 facet normal  0.000000e+00  1.000000e+00  0.000000e+00
   outer loop
     vertex  1.605997e-01 -2.555850e-03  1.397492e+00
     vertex  1.637997e-01 -2.555850e-03  1.230692e+00
     vertex  1.605997e-01 -2.555850e-03  1.233892e+00
   endloop
 endfacet
 facet normal  0.000000e+00  1.000000e+00  0.000000e+00
   outer loop
     vertex  1.637997e-01 -2.555850e-03  1.400692e+00
     vertex  1.637997e-01 -2.555850e-03  1.230692e+00
     vertex  1.605997e-01 -2.555850e-03  1.397492e+00
   endloop
 endfacet
 facet normal  0.000000e+00  1.000000e+00  0.000000e+00
   outer loop
     vertex  1.573997e-01 -2.555850e-03  1.570692e+00
     vertex  1.573997e-01 -2.555850e-03  1.400692e+00
     vertex -1.962003e-01 -2.555850e-03  1.400692e+00
   endloop
 endfacet
 facet normal  0.000000e+00  1.000000e+00  0.000000e+00
   outer loop
     vertex  1.573997e-01 -2.555850e-03  1.570692e+00
     vertex -1.962003e-01 -2.555850e-03  1.400692e+00
     vertex -1.962003e-01 -2.555850e-03  1.570692e+00
   endloop
 endfacet
 facet normal  0.000000e+00  1.000000e+00  0.000000e+00
   outer loop
     vertex  1.605997e-01 -2.555850e-03  1.567492e+00
     vertex  1.573997e-01 -2.555850e-03  1.400692e+00
     vertex  1.573997e-01 -2.555850e-03  1.570692e+00
   endloop
 endfacet
 facet normal  0.000000e+00  1.000000e+00  0.000000e+00
   outer loop
     vertex  1.605997e-01 -2.555850e-03  1.567492e+00
     vertex  1.605997e-01 -2.555850e-03  1.403892e+00
     vertex  1.573997e-01 -2.555850e-03  1.400692e+00
   endloop
 endfacet
 facet normal  0.000000e+00  1.000000e+00  0.000000e+00
   outer loop
     vertex  1.605997e-01 -2.555850e-03  1.567492e+00
     vertex  1.637997e-01 -2.555850e-03  1.400692e+00
     vertex  1.605997e-01 -2.555850e-03  1.403892e+00
   endloop
 endfacet
 facet normal -1.233581e-15  1.000000e+00  1.375443e-13
   outer loop
     vertex  1.605997e-01 -2.555850e-03  1.573892e+00
     vertex -1.962003e-01 -2.555850e-03  1.570692e+00
     vertex -1.994003e-01 -2.555850e-03  1.573892e+00
   endloop
 endfacet
 facet normal  0.000000e+00  1.000000e+00  0.000000e+00
   outer loop
     vertex  1.605997e-01 -2.555850e-03  1.573892e+00
     vertex  1.573997e-01 -2.555850e-03  1.570692e+00
     vertex -1.962003e-01 -2.555850e-03  1.570692e+00
   endloop
 endfacet
 facet normal  0.000000e+00  1.000000e+00  0.000000e+00
   outer loop
     vertex  1.637997e-01 -2.555850e-03  1.570692e+00
     vertex  1.637997e-01 -2.555850e-03  1.400692e+00
     vertex  1.605997e-01 -2.555850e-03  1.567492e+00
   endloop
 endfacet
 facet normal  0.000000e+00  1.000000e+00  0.000000e+00
   outer loop
     vertex  1.805997e-01 -2.555850e-03  1.590692e+00
     vertex  1.637997e-01 -2.555850e-03  1.400692e+00
     vertex  1.637997e-01 -2.555850e-03  1.570692e+00
   endloop
 endfacet
 facet normal -1.233581e-15  1.000000e+00  1.468549e-15
   outer loop
     vertex  1.805997e-01 -2.555850e-03  1.590692e+00
     vertex  1.605997e-01 -2.555850e-03  1.573892e+00
     vertex -1.994003e-01 -2.555850e-03  1.573892e+00
   endloop
 endfacet
 facet normal  0.000000e+00  1.000000e+00  0.000000e+00
   outer loop
     vertex  1.805997e-01 -2.555850e-03  1.590692e+00
     vertex  1.637997e-01 -2.555850e-03  1.570692e+00
     vertex  1.605997e-01 -2.555850e-03  1.573892e+00
   endloop
 endfacet
 facet normal  0.000000e+00  1.000000e+00 -2.643388e-14
   outer loop
     vertex  1.805997e-01 -2.555850e-03  1.590692e+00
     vertex -1.994003e-01 -2.555850e-03  1.573892e+00
     vertex -2.194003e-01 -2.555850e-03  1.590692e+00
   endloop
 endfacet
 facet normal  0.000000e+00  1.000000e+00 -0.000000e+00
   outer loop
     vertex  1.805997e-01 -2.555850e-03  1.040692e+00
     vertex  1.637997e-01 -2.555850e-03  1.400692e+00
     vertex  1.805997e-01 -2.555850e-03  1.590692e+00
   endloop
 endfacet
 facet normal  0.000000e+00  1.000000e+00  0.000000e+00
   outer loop
     vertex  1.805997e-01 -2.555850e-03  1.040692e+00
     vertex  1.637997e-01 -2.555850e-03  1.230692e+00
     vertex  1.637997e-01 -2.555850e-03  1.400692e+00
   endloop
 endfacet
 facet normal  0.000000e+00  1.000000e+00  0.000000e+00
   outer loop
     vertex -2.194003e-01 -2.555850e-03  1.590692e+00
     vertex -2.026003e-01 -2.555850e-03  1.230692e+00
     vertex -2.194003e-01 -2.555850e-03  1.040692e+00
   endloop
 endfacet
 facet normal  0.000000e+00  1.000000e+00  0.000000e+00
   outer loop
     vertex -2.194003e-01 -2.555850e-03  1.590692e+00
     vertex -2.026003e-01 -2.555850e-03  1.400692e+00
     vertex -2.026003e-01 -2.555850e-03  1.230692e+00
   endloop
 endfacet
 facet normal -1.000000e+00  0.000000e+00  0.000000e+00
   outer loop
     vertex -2.194003e-01 -7.555850e-03  1.040692e+00
     vertex -2.194003e-01 -2.555850e-03  1.590692e+00
     vertex -2.194003e-01 -2.555850e-03  1.040692e+00
   endloop
 endfacet
 facet normal -1.000000e+00  0.000000e+00  0.000000e+00
   outer loop
     vertex -2.194003e-01 -7.555850e-03  1.040692e+00
     vertex -2.194003e-01 -7.555850e-03  1.590692e+00
     vertex -2.194003e-01 -2.555850e-03  1.590692e+00
   endloop
 endfacet
 facet normal -0.000000e+00  0.000000e+00  1.000000e+00
   outer loop
     vertex -2.194003e-01 -2.555850e-03  1.590692e+00
     vertex  1.805997e-01 -7.555850e-03  1.590692e+00
     vertex  1.805997e-01 -2.555850e-03  1.590692e+00
   endloop
 endfacet
 facet normal  0.000000e+00  0.000000e+00  1.000000e+00
   outer loop
     vertex -2.194003e-01 -7.555850e-03  1.590692e+00
     vertex  1.805997e-01 -7.555850e-03  1.590692e+00
     vertex -2.194003e-01 -2.555850e-03  1.590692e+00
   endloop
 endfacet
 facet normal  1.000000e+00 -0.000000e+00  0.000000e+00
   outer loop
     vertex  1.805997e-01 -7.555850e-03  1.590692e+00
     vertex  1.805997e-01 -2.555850e-03  1.040692e+00
     vertex  1.805997e-01 -2.555850e-03  1.590692e+00
   endloop
 endfacet
 facet normal  1.000000e+00  0.000000e+00  0.000000e+00
   outer loop
     vertex  1.805997e-01 -7.555850e-03  1.590692e+00
     vertex  1.805997e-01 -7.555850e-03  1.040692e+00
     vertex  1.805997e-01 -2.555850e-03  1.040692e+00
   endloop
 endfacet
 facet normal -0.000000e+00  0.000000e+00 -1.000000e+00
   outer loop
     vertex  1.805997e-01 -2.555850e-03  1.040692e+00
     vertex -2.194003e-01 -7.555850e-03  1.040692e+00
     vertex -2.194003e-01 -2.555850e-03  1.040692e+00
   endloop
 endfacet
 facet normal  0.000000e+00  0.000000e+00 -1.000000e+00
   outer loop
     vertex  1.805997e-01 -7.555850e-03  1.040692e+00
     vertex -2.194003e-01 -7.555850e-03  1.040692e+00
     vertex  1.805997e-01 -2.555850e-03  1.040692e+00
   endloop
 endfacet
 facet normal  0.000000e+00 -1.000000e+00 -0.000000e+00
   outer loop
     vertex -2.026003e-01 -7.555850e-03  1.060692e+00
     vertex -2.194003e-01 -7.555850e-03  1.040692e+00
     vertex -1.994003e-01 -7.555850e-03  1.057492e+00
   endloop
 endfacet
 facet normal  0.000000e+00 -1.000000e+00 -0.000000e+00
   outer loop
     vertex -2.026003e-01 -7.555850e-03  1.230692e+00
     vertex -2.194003e-01 -7.555850e-03  1.040692e+00
     vertex -2.026003e-01 -7.555850e-03  1.060692e+00
   endloop
 endfacet
 facet normal  0.000000e+00 -1.000000e+00 -0.000000e+00
   outer loop
     vertex -1.994003e-01 -7.555850e-03  1.227492e+00
     vertex -2.026003e-01 -7.555850e-03  1.060692e+00
     vertex -1.994003e-01 -7.555850e-03  1.063892e+00
   endloop
 endfacet
 facet normal -0.000000e+00 -1.000000e+00  0.000000e+00
   outer loop
     vertex -1.994003e-01 -7.555850e-03  1.227492e+00
     vertex -2.026003e-01 -7.555850e-03  1.230692e+00
     vertex -2.026003e-01 -7.555850e-03  1.060692e+00
   endloop
 endfacet
 facet normal  0.000000e+00 -1.000000e+00  0.000000e+00
   outer loop
     vertex -7.940027e-02 -7.555850e-03  1.190692e+00
     vertex -1.962003e-01 -7.555850e-03  1.230692e+00
     vertex -1.994003e-01 -7.555850e-03  1.227492e+00
   endloop
 endfacet
 facet normal  0.000000e+00 -1.000000e+00  0.000000e+00
   outer loop
     vertex -7.940027e-02 -7.555850e-03  1.190692e+00
     vertex -1.994003e-01 -7.555850e-03  1.063892e+00
     vertex -1.962003e-01 -7.555850e-03  1.060692e+00
   endloop
 endfacet
 facet normal  0.000000e+00 -1.000000e+00 -0.000000e+00
   outer loop
     vertex -7.940027e-02 -7.555850e-03  1.190692e+00
     vertex -1.962003e-01 -7.555850e-03  1.060692e+00
     vertex -3.794129e-02 -7.555850e-03  1.133629e+00
   endloop
 endfacet
 facet normal -0.000000e+00 -1.000000e+00  0.000000e+00
   outer loop
     vertex -7.940027e-02 -7.555850e-03  1.190692e+00
     vertex -1.994003e-01 -7.555850e-03  1.227492e+00
     vertex -1.994003e-01 -7.555850e-03  1.063892e+00
   endloop
 endfacet
 facet normal  0.000000e+00 -1.000000e+00 -0.000000e+00
   outer loop
     vertex -1.994003e-01 -7.555850e-03  1.397492e+00
     vertex -2.026003e-01 -7.555850e-03  1.230692e+00
     vertex -1.994003e-01 -7.555850e-03  1.233892e+00
   endloop
 endfacet
 facet normal -0.000000e+00 -1.000000e+00  0.000000e+00
   outer loop
     vertex -1.994003e-01 -7.555850e-03  1.397492e+00
     vertex -2.026003e-01 -7.555850e-03  1.400692e+00
     vertex -2.026003e-01 -7.555850e-03  1.230692e+00
   endloop
 endfacet
 facet normal  0.000000e+00 -1.000000e+00  0.000000e+00
   outer loop
     vertex -3.794129e-02 -7.555850e-03  1.247756e+00
     vertex -1.962003e-01 -7.555850e-03  1.400692e+00
     vertex -1.994003e-01 -7.555850e-03  1.397492e+00
   endloop
 endfacet
 facet normal  0.000000e+00 -1.000000e+00  0.000000e+00
   outer loop
     vertex -3.794129e-02 -7.555850e-03  1.247756e+00
     vertex -1.994003e-01 -7.555850e-03  1.233892e+00
     vertex -1.962003e-01 -7.555850e-03  1.230692e+00
   endloop
 endfacet
 facet normal  0.000000e+00 -1.000000e+00  0.000000e+00
   outer loop
     vertex -3.794129e-02 -7.555850e-03  1.247756e+00
     vertex -1.962003e-01 -7.555850e-03  1.230692e+00
     vertex -7.940027e-02 -7.555850e-03  1.190692e+00
   endloop
 endfacet
 facet normal -0.000000e+00 -1.000000e+00  0.000000e+00
   outer loop
     vertex -3.794129e-02 -7.555850e-03  1.247756e+00
     vertex -1.994003e-01 -7.555850e-03  1.397492e+00
     vertex -1.994003e-01 -7.555850e-03  1.233892e+00
   endloop
 endfacet
 facet normal  0.000000e+00 -1.000000e+00  0.000000e+00
   outer loop
     vertex  1.573997e-01 -7.555850e-03  1.060692e+00
     vertex  2.914075e-02 -7.555850e-03  1.155425e+00
     vertex -3.794129e-02 -7.555850e-03  1.133629e+00
   endloop
 endfacet
 facet normal  0.000000e+00 -1.000000e+00  0.000000e+00
   outer loop
     vertex  1.573997e-01 -7.555850e-03  1.060692e+00
     vertex -3.794129e-02 -7.555850e-03  1.133629e+00
     vertex -1.962003e-01 -7.555850e-03  1.060692e+00
   endloop
 endfacet
 facet normal  0.000000e+00 -1.000000e+00  0.000000e+00
   outer loop
     vertex  1.605997e-01 -7.555850e-03  1.057492e+00
     vertex -1.962003e-01 -7.555850e-03  1.060692e+00
     vertex -1.994003e-01 -7.555850e-03  1.057492e+00
   endloop
 endfacet
 facet normal  0.000000e+00 -1.000000e+00  0.000000e+00
   outer loop
     vertex  1.605997e-01 -7.555850e-03  1.057492e+00
     vertex  1.573997e-01 -7.555850e-03  1.060692e+00
     vertex -1.962003e-01 -7.555850e-03  1.060692e+00
   endloop
 endfacet
 facet normal  0.000000e+00 -1.000000e+00  0.000000e+00
   outer loop
     vertex  1.805997e-01 -7.555850e-03  1.040692e+00
     vertex  1.605997e-01 -7.555850e-03  1.057492e+00
     vertex -1.994003e-01 -7.555850e-03  1.057492e+00
   endloop
 endfacet
 facet normal  0.000000e+00 -1.000000e+00  0.000000e+00
   outer loop
     vertex  1.805997e-01 -7.555850e-03  1.040692e+00
     vertex -1.994003e-01 -7.555850e-03  1.057492e+00
     vertex -2.194003e-01 -7.555850e-03  1.040692e+00
   endloop
 endfacet
 facet normal  0.000000e+00 -1.000000e+00 -0.000000e+00
   outer loop
     vertex  1.637997e-01 -7.555850e-03  1.060692e+00
     vertex  1.605997e-01 -7.555850e-03  1.057492e+00
     vertex  1.805997e-01 -7.555850e-03  1.040692e+00
   endloop
 endfacet
 facet normal -0.000000e+00 -1.000000e+00  0.000000e+00
   outer loop
     vertex  1.605997e-01 -7.555850e-03  1.063892e+00
     vertex  2.914075e-02 -7.555850e-03  1.155425e+00
     vertex  1.573997e-01 -7.555850e-03  1.060692e+00
   endloop
 endfacet
 facet normal  2.612289e-15 -1.000000e+00 -2.612289e-15
   outer loop
     vertex -2.026003e-01 -7.555850e-03  1.570692e+00
     vertex -2.026003e-01 -7.555850e-03  1.400692e+00
     vertex -1.994003e-01 -7.555850e-03  1.403892e+00
   endloop
 endfacet
 facet normal -2.714482e-15 -1.000000e+00 -2.714482e-15
   outer loop
     vertex -2.026003e-01 -7.555850e-03  1.570692e+00
     vertex -1.994003e-01 -7.555850e-03  1.403892e+00
     vertex -1.994003e-01 -7.555850e-03  1.567492e+00
   endloop
 endfacet
 facet normal -2.954375e-14 -1.000000e+00 -2.612289e-15
   outer loop
     vertex -2.194003e-01 -7.555850e-03  1.590692e+00
     vertex -2.026003e-01 -7.555850e-03  1.400692e+00
     vertex -2.026003e-01 -7.555850e-03  1.570692e+00
   endloop
 endfacet
 facet normal  0.000000e+00 -1.000000e+00 -0.000000e+00
   outer loop
     vertex -1.962003e-01 -7.555850e-03  1.570692e+00
     vertex -1.994003e-01 -7.555850e-03  1.403892e+00
     vertex -1.962003e-01 -7.555850e-03  1.400692e+00
   endloop
 endfacet
 facet normal  1.414924e-13 -1.000000e+00 -2.714482e-15
   outer loop
     vertex -1.962003e-01 -7.555850e-03  1.570692e+00
     vertex -1.994003e-01 -7.555850e-03  1.567492e+00
     vertex -1.994003e-01 -7.555850e-03  1.403892e+00
   endloop
 endfacet
 facet normal -1.206764e-14 -1.000000e+00  1.206764e-14
   outer loop
     vertex -1.994003e-01 -7.555850e-03  1.573892e+00
     vertex -2.194003e-01 -7.555850e-03  1.590692e+00
     vertex -2.026003e-01 -7.555850e-03  1.570692e+00
   endloop
 endfacet
 facet normal  0.000000e+00 -1.000000e+00 -0.000000e+00
   outer loop
     vertex  1.605997e-01 -7.555850e-03  1.227492e+00
     vertex  2.914075e-02 -7.555850e-03  1.155425e+00
     vertex  1.605997e-01 -7.555850e-03  1.063892e+00
   endloop
 endfacet
 facet normal  0.000000e+00 -1.000000e+00  0.000000e+00
   outer loop
     vertex  1.573997e-01 -7.555850e-03  1.230692e+00
     vertex  2.914075e-02 -7.555850e-03  1.225959e+00
     vertex  2.914075e-02 -7.555850e-03  1.155425e+00
   endloop
 endfacet
 facet normal  0.000000e+00 -1.000000e+00 -0.000000e+00
   outer loop
     vertex  1.573997e-01 -7.555850e-03  1.230692e+00
     vertex  2.914075e-02 -7.555850e-03  1.155425e+00
     vertex  1.605997e-01 -7.555850e-03  1.227492e+00
   endloop
 endfacet
 facet normal  0.000000e+00 -1.000000e+00 -0.000000e+00
   outer loop
     vertex  1.637997e-01 -7.555850e-03  1.230692e+00
     vertex  1.605997e-01 -7.555850e-03  1.063892e+00
     vertex  1.637997e-01 -7.555850e-03  1.060692e+00
   endloop
 endfacet
 facet normal  0.000000e+00 -1.000000e+00  0.000000e+00
   outer loop
     vertex  1.637997e-01 -7.555850e-03  1.230692e+00
     vertex  1.637997e-01 -7.555850e-03  1.060692e+00
     vertex  1.805997e-01 -7.555850e-03  1.040692e+00
   endloop
 endfacet
 facet normal  0.000000e+00 -1.000000e+00  0.000000e+00
   outer loop
     vertex  1.637997e-01 -7.555850e-03  1.230692e+00
     vertex  1.605997e-01 -7.555850e-03  1.227492e+00
     vertex  1.605997e-01 -7.555850e-03  1.063892e+00
   endloop
 endfacet
 facet normal  0.000000e+00 -1.000000e+00  0.000000e+00
   outer loop
     vertex  1.605997e-01 -7.555850e-03  1.233892e+00
     vertex  2.914075e-02 -7.555850e-03  1.225959e+00
     vertex  1.573997e-01 -7.555850e-03  1.230692e+00
   endloop
 endfacet
 facet normal  0.000000e+00 -1.000000e+00  0.000000e+00
   outer loop
     vertex  1.573997e-01 -7.555850e-03  1.400692e+00
     vertex -3.794129e-02 -7.555850e-03  1.247756e+00
     vertex  2.914075e-02 -7.555850e-03  1.225959e+00
   endloop
 endfacet
 facet normal -0.000000e+00 -1.000000e+00  0.000000e+00
   outer loop
     vertex  1.573997e-01 -7.555850e-03  1.400692e+00
     vertex -1.962003e-01 -7.555850e-03  1.400692e+00
     vertex -3.794129e-02 -7.555850e-03  1.247756e+00
   endloop
 endfacet
 facet normal  0.000000e+00 -1.000000e+00 -0.000000e+00
   outer loop
     vertex  1.605997e-01 -7.555850e-03  1.397492e+00
     vertex  2.914075e-02 -7.555850e-03  1.225959e+00
     vertex  1.605997e-01 -7.555850e-03  1.233892e+00
   endloop
 endfacet
 facet normal -0.000000e+00 -1.000000e+00  0.000000e+00
   outer loop
     vertex  1.605997e-01 -7.555850e-03  1.397492e+00
     vertex  1.573997e-01 -7.555850e-03  1.400692e+00
     vertex  2.914075e-02 -7.555850e-03  1.225959e+00
   endloop
 endfacet
 facet normal  0.000000e+00 -1.000000e+00  0.000000e+00
   outer loop
     vertex  1.637997e-01 -7.555850e-03  1.400692e+00
     vertex  1.605997e-01 -7.555850e-03  1.397492e+00
     vertex  1.605997e-01 -7.555850e-03  1.233892e+00
   endloop
 endfacet
 facet normal  0.000000e+00 -1.000000e+00 -0.000000e+00
   outer loop
     vertex  1.637997e-01 -7.555850e-03  1.400692e+00
     vertex  1.605997e-01 -7.555850e-03  1.233892e+00
     vertex  1.637997e-01 -7.555850e-03  1.230692e+00
   endloop
 endfacet
 facet normal  0.000000e+00 -1.000000e+00 -0.000000e+00
   outer loop
     vertex  1.573997e-01 -7.555850e-03  1.570692e+00
     vertex -1.962003e-01 -7.555850e-03  1.400692e+00
     vertex  1.573997e-01 -7.555850e-03  1.400692e+00
   endloop
 endfacet
 facet normal -0.000000e+00 -1.000000e+00  0.000000e+00
   outer loop
     vertex  1.573997e-01 -7.555850e-03  1.570692e+00
     vertex -1.962003e-01 -7.555850e-03  1.570692e+00
     vertex -1.962003e-01 -7.555850e-03  1.400692e+00
   endloop
 endfacet
 facet normal -0.000000e+00 -1.000000e+00  0.000000e+00
   outer loop
     vertex  1.605997e-01 -7.555850e-03  1.567492e+00
     vertex  1.573997e-01 -7.555850e-03  1.570692e+00
     vertex  1.573997e-01 -7.555850e-03  1.400692e+00
   endloop
 endfacet
 facet normal  0.000000e+00 -1.000000e+00 -0.000000e+00
   outer loop
     vertex  1.605997e-01 -7.555850e-03  1.567492e+00
     vertex  1.573997e-01 -7.555850e-03  1.400692e+00
     vertex  1.605997e-01 -7.555850e-03  1.403892e+00
   endloop
 endfacet
 facet normal  0.000000e+00 -1.000000e+00  0.000000e+00
   outer loop
     vertex  1.637997e-01 -7.555850e-03  1.570692e+00
     vertex  1.605997e-01 -7.555850e-03  1.567492e+00
     vertex  1.605997e-01 -7.555850e-03  1.403892e+00
   endloop
 endfacet
 facet normal  0.000000e+00 -1.000000e+00 -0.000000e+00
   outer loop
     vertex  1.637997e-01 -7.555850e-03  1.570692e+00
     vertex  1.605997e-01 -7.555850e-03  1.403892e+00
     vertex  1.637997e-01 -7.555850e-03  1.400692e+00
   endloop
 endfacet
 facet normal  1.233581e-15 -1.000000e+00 -1.375443e-13
   outer loop
     vertex  1.605997e-01 -7.555850e-03  1.573892e+00
     vertex -1.994003e-01 -7.555850e-03  1.573892e+00
     vertex -1.962003e-01 -7.555850e-03  1.570692e+00
   endloop
 endfacet
 facet normal  0.000000e+00 -1.000000e+00  0.000000e+00
   outer loop
     vertex  1.605997e-01 -7.555850e-03  1.573892e+00
     vertex -1.962003e-01 -7.555850e-03  1.570692e+00
     vertex  1.573997e-01 -7.555850e-03  1.570692e+00
   endloop
 endfacet
 facet normal  0.000000e+00 -1.000000e+00  0.000000e+00
   outer loop
     vertex  1.805997e-01 -7.555850e-03  1.590692e+00
     vertex  1.637997e-01 -7.555850e-03  1.570692e+00
     vertex  1.637997e-01 -7.555850e-03  1.400692e+00
   endloop
 endfacet
 facet normal  0.000000e+00 -1.000000e+00  0.000000e+00
   outer loop
     vertex  1.805997e-01 -7.555850e-03  1.590692e+00
     vertex  1.605997e-01 -7.555850e-03  1.573892e+00
     vertex  1.637997e-01 -7.555850e-03  1.570692e+00
   endloop
 endfacet
 facet normal  1.233581e-15 -1.000000e+00 -1.468549e-15
   outer loop
     vertex  1.805997e-01 -7.555850e-03  1.590692e+00
     vertex -1.994003e-01 -7.555850e-03  1.573892e+00
     vertex  1.605997e-01 -7.555850e-03  1.573892e+00
   endloop
 endfacet
 facet normal  0.000000e+00 -1.000000e+00  2.643388e-14
   outer loop
     vertex  1.805997e-01 -7.555850e-03  1.590692e+00
     vertex -2.194003e-01 -7.555850e-03  1.590692e+00
     vertex -1.994003e-01 -7.555850e-03  1.573892e+00
   endloop
 endfacet
 facet normal  0.000000e+00 -1.000000e+00  0.000000e+00
   outer loop
     vertex -2.194003e-01 -7.555850e-03  1.590692e+00
     vertex -2.194003e-01 -7.555850e-03  1.040692e+00
     vertex -2.026003e-01 -7.555850e-03  1.230692e+00
   endloop
 endfacet
 facet normal  0.000000e+00 -1.000000e+00  0.000000e+00
   outer loop
     vertex -2.194003e-01 -7.555850e-03  1.590692e+00
     vertex -2.026003e-01 -7.555850e-03  1.230692e+00
     vertex -2.026003e-01 -7.555850e-03  1.400692e+00
   endloop
 endfacet
 facet normal  0.000000e+00 -1.000000e+00  0.000000e+00
   outer loop
     vertex  1.805997e-01 -7.555850e-03  1.040692e+00
     vertex  1.805997e-01 -7.555850e-03  1.590692e+00
     vertex  1.637997e-01 -7.555850e-03  1.400692e+00
   endloop
 endfacet
 facet normal  0.000000e+00 -1.000000e+00  0.000000e+00
   outer loop
     vertex  1.805997e-01 -7.555850e-03  1.040692e+00
     vertex  1.637997e-01 -7.555850e-03  1.400692e+00
     vertex  1.637997e-01 -7.555850e-03  1.230692e+00
   endloop
 endfacet
 facet normal -7.071068e-01  0.000000e+00 -7.071068e-01
   outer loop
     vertex -1.994003e-01 -7.555850e-03  1.573892e+00
     vertex -1.962003e-01 -2.555850e-03  1.570692e+00
     vertex -1.962003e-01 -7.555850e-03  1.570692e+00
   endloop
 endfacet
 facet normal -7.071068e-01  0.000000e+00 -7.071068e-01
   outer loop
     vertex -1.994003e-01 -7.555850e-03  1.573892e+00
     vertex -1.994003e-01 -2.555850e-03  1.573892e+00
     vertex -1.962003e-01 -2.555850e-03  1.570692e+00
   endloop
 endfacet
 facet normal  7.071068e-01  0.000000e+00 -7.071068e-01
   outer loop
     vertex -2.026003e-01 -7.555850e-03  1.570692e+00
     vertex -2.026003e-01 -2.555850e-03  1.570692e+00
     vertex -1.994003e-01 -2.555850e-03  1.573892e+00
   endloop
 endfacet
 facet normal  7.071068e-01  0.000000e+00 -7.071068e-01
   outer loop
     vertex -2.026003e-01 -7.555850e-03  1.570692e+00
     vertex -1.994003e-01 -2.555850e-03  1.573892e+00
     vertex -1.994003e-01 -7.555850e-03  1.573892e+00
   endloop
 endfacet
 facet normal  7.071068e-01 -0.000000e+00  7.071068e-01
   outer loop
     vertex -1.994003e-01 -7.555850e-03  1.567492e+00
     vertex -1.994003e-01 -2.555850e-03  1.567492e+00
     vertex -2.026003e-01 -2.555850e-03  1.570692e+00
   endloop
 endfacet
 facet normal  7.071068e-01  0.000000e+00  7.071068e-01
   outer loop
     vertex -1.994003e-01 -7.555850e-03  1.567492e+00
     vertex -2.026003e-01 -2.555850e-03  1.570692e+00
     vertex -2.026003e-01 -7.555850e-03  1.570692e+00
   endloop
 endfacet
 facet normal -7.071068e-01  0.000000e+00  7.071068e-01
   outer loop
     vertex -1.962003e-01 -7.555850e-03  1.570692e+00
     vertex -1.962003e-01 -2.555850e-03  1.570692e+00
     vertex -1.994003e-01 -2.555850e-03  1.567492e+00
   endloop
 endfacet
 facet normal -7.071068e-01  0.000000e+00  7.071068e-01
   outer loop
     vertex -1.962003e-01 -7.555850e-03  1.570692e+00
     vertex -1.994003e-01 -2.555850e-03  1.567492e+00
     vertex -1.994003e-01 -7.555850e-03  1.567492e+00
   endloop
 endfacet
 facet normal -7.071068e-01  0.000000e+00 -7.071068e-01
   outer loop
     vertex -1.994003e-01 -7.555850e-03  1.403892e+00
     vertex -1.962003e-01 -2.555850e-03  1.400692e+00
     vertex -1.962003e-01 -7.555850e-03  1.400692e+00
   endloop
 endfacet
 facet normal -7.071068e-01  0.000000e+00 -7.071068e-01
   outer loop
     vertex -1.994003e-01 -7.555850e-03  1.403892e+00
     vertex -1.994003e-01 -2.555850e-03  1.403892e+00
     vertex -1.962003e-01 -2.555850e-03  1.400692e+00
   endloop
 endfacet
 facet normal  7.071068e-01  0.000000e+00 -7.071068e-01
   outer loop
     vertex -2.026003e-01 -7.555850e-03  1.400692e+00
     vertex -2.026003e-01 -2.555850e-03  1.400692e+00
     vertex -1.994003e-01 -2.555850e-03  1.403892e+00
   endloop
 endfacet
 facet normal  7.071068e-01  0.000000e+00 -7.071068e-01
   outer loop
     vertex -2.026003e-01 -7.555850e-03  1.400692e+00
     vertex -1.994003e-01 -2.555850e-03  1.403892e+00
     vertex -1.994003e-01 -7.555850e-03  1.403892e+00
   endloop
 endfacet
 facet normal  7.071068e-01 -0.000000e+00  7.071068e-01
   outer loop
     vertex -1.994003e-01 -7.555850e-03  1.397492e+00
     vertex -1.994003e-01 -2.555850e-03  1.397492e+00
     vertex -2.026003e-01 -2.555850e-03  1.400692e+00
   endloop
 endfacet
 facet normal  7.071068e-01  0.000000e+00  7.071068e-01
   outer loop
     vertex -1.994003e-01 -7.555850e-03  1.397492e+00
     vertex -2.026003e-01 -2.555850e-03  1.400692e+00
     vertex -2.026003e-01 -7.555850e-03  1.400692e+00
   endloop
 endfacet
 facet normal -7.071068e-01  0.000000e+00  7.071068e-01
   outer loop
     vertex -1.962003e-01 -7.555850e-03  1.400692e+00
     vertex -1.962003e-01 -2.555850e-03  1.400692e+00
     vertex -1.994003e-01 -2.555850e-03  1.397492e+00
   endloop
 endfacet
 facet normal -7.071068e-01  0.000000e+00  7.071068e-01
   outer loop
     vertex -1.962003e-01 -7.555850e-03  1.400692e+00
     vertex -1.994003e-01 -2.555850e-03  1.397492e+00
     vertex -1.994003e-01 -7.555850e-03  1.397492e+00
   endloop
 endfacet
 facet normal -7.071068e-01  0.000000e+00 -7.071068e-01
   outer loop
     vertex -1.994003e-01 -7.555850e-03  1.233892e+00
     vertex -1.962003e-01 -2.555850e-03  1.230692e+00
     vertex -1.962003e-01 -7.555850e-03  1.230692e+00
   endloop
 endfacet
 facet normal -7.071068e-01  0.000000e+00 -7.071068e-01
   outer loop
     vertex -1.994003e-01 -7.555850e-03  1.233892e+00
     vertex -1.994003e-01 -2.555850e-03  1.233892e+00
     vertex -1.962003e-01 -2.555850e-03  1.230692e+00
   endloop
 endfacet
 facet normal  7.071068e-01  0.000000e+00 -7.071068e-01
   outer loop
     vertex -2.026003e-01 -7.555850e-03  1.230692e+00
     vertex -2.026003e-01 -2.555850e-03  1.230692e+00
     vertex -1.994003e-01 -2.555850e-03  1.233892e+00
   endloop
 endfacet
 facet normal  7.071068e-01  0.000000e+00 -7.071068e-01
   outer loop
     vertex -2.026003e-01 -7.555850e-03  1.230692e+00
     vertex -1.994003e-01 -2.555850e-03  1.233892e+00
     vertex -1.994003e-01 -7.555850e-03  1.233892e+00
   endloop
 endfacet
 facet normal  7.071068e-01 -0.000000e+00  7.071068e-01
   outer loop
     vertex -1.994003e-01 -7.555850e-03  1.227492e+00
     vertex -1.994003e-01 -2.555850e-03  1.227492e+00
     vertex -2.026003e-01 -2.555850e-03  1.230692e+00
   endloop
 endfacet
 facet normal  7.071068e-01  0.000000e+00  7.071068e-01
   outer loop
     vertex -1.994003e-01 -7.555850e-03  1.227492e+00
     vertex -2.026003e-01 -2.555850e-03  1.230692e+00
     vertex -2.026003e-01 -7.555850e-03  1.230692e+00
   endloop
 endfacet
 facet normal -7.071068e-01  0.000000e+00  7.071068e-01
   outer loop
     vertex -1.962003e-01 -7.555850e-03  1.230692e+00
     vertex -1.962003e-01 -2.555850e-03  1.230692e+00
     vertex -1.994003e-01 -2.555850e-03  1.227492e+00
   endloop
 endfacet
 facet normal -7.071068e-01  0.000000e+00  7.071068e-01
   outer loop
     vertex -1.962003e-01 -7.555850e-03  1.230692e+00
     vertex -1.994003e-01 -2.555850e-03  1.227492e+00
     vertex -1.994003e-01 -7.555850e-03  1.227492e+00
   endloop
 endfacet
 facet normal -7.071068e-01  0.000000e+00 -7.071068e-01
   outer loop
     vertex -1.994003e-01 -7.555850e-03  1.063892e+00
     vertex -1.962003e-01 -2.555850e-03  1.060692e+00
     vertex -1.962003e-01 -7.555850e-03  1.060692e+00
   endloop
 endfacet
 facet normal -7.071068e-01  0.000000e+00 -7.071068e-01
   outer loop
     vertex -1.994003e-01 -7.555850e-03  1.063892e+00
     vertex -1.994003e-01 -2.555850e-03  1.063892e+00
     vertex -1.962003e-01 -2.555850e-03  1.060692e+00
   endloop
 endfacet
 facet normal  7.071068e-01  0.000000e+00 -7.071068e-01
   outer loop
     vertex -2.026003e-01 -7.555850e-03  1.060692e+00
     vertex -2.026003e-01 -2.555850e-03  1.060692e+00
     vertex -1.994003e-01 -2.555850e-03  1.063892e+00
   endloop
 endfacet
 facet normal  7.071068e-01  0.000000e+00 -7.071068e-01
   outer loop
     vertex -2.026003e-01 -7.555850e-03  1.060692e+00
     vertex -1.994003e-01 -2.555850e-03  1.063892e+00
     vertex -1.994003e-01 -7.555850e-03  1.063892e+00
   endloop
 endfacet
 facet normal  7.071068e-01 -0.000000e+00  7.071068e-01
   outer loop
     vertex -1.994003e-01 -7.555850e-03  1.057492e+00
     vertex -1.994003e-01 -2.555850e-03  1.057492e+00
     vertex -2.026003e-01 -2.555850e-03  1.060692e+00
   endloop
 endfacet
 facet normal  7.071068e-01  0.000000e+00  7.071068e-01
   outer loop
     vertex -1.994003e-01 -7.555850e-03  1.057492e+00
     vertex -2.026003e-01 -2.555850e-03  1.060692e+00
     vertex -2.026003e-01 -7.555850e-03  1.060692e+00
   endloop
 endfacet
 facet normal -7.071068e-01  0.000000e+00  7.071068e-01
   outer loop
     vertex -1.962003e-01 -7.555850e-03  1.060692e+00
     vertex -1.962003e-01 -2.555850e-03  1.060692e+00
     vertex -1.994003e-01 -2.555850e-03  1.057492e+00
   endloop
 endfacet
 facet normal -7.071068e-01  0.000000e+00  7.071068e-01
   outer loop
     vertex -1.962003e-01 -7.555850e-03  1.060692e+00
     vertex -1.994003e-01 -2.555850e-03  1.057492e+00
     vertex -1.994003e-01 -7.555850e-03  1.057492e+00
   endloop
 endfacet
 facet normal  7.071068e-01  0.000000e+00 -7.071068e-01
   outer loop
     vertex  1.605997e-01 -2.555850e-03  1.573892e+00
     vertex  1.573997e-01 -7.555850e-03  1.570692e+00
     vertex  1.573997e-01 -2.555850e-03  1.570692e+00
   endloop
 endfacet
 facet normal  7.071068e-01  0.000000e+00 -7.071068e-01
   outer loop
     vertex  1.605997e-01 -2.555850e-03  1.573892e+00
     vertex  1.605997e-01 -7.555850e-03  1.573892e+00
     vertex  1.573997e-01 -7.555850e-03  1.570692e+00
   endloop
 endfacet
 facet normal -7.071068e-01 -0.000000e+00 -7.071068e-01
   outer loop
     vertex  1.637997e-01 -2.555850e-03  1.570692e+00
     vertex  1.637997e-01 -7.555850e-03  1.570692e+00
     vertex  1.605997e-01 -7.555850e-03  1.573892e+00
   endloop
 endfacet
 facet normal -7.071068e-01  0.000000e+00 -7.071068e-01
   outer loop
     vertex  1.637997e-01 -2.555850e-03  1.570692e+00
     vertex  1.605997e-01 -7.555850e-03  1.573892e+00
     vertex  1.605997e-01 -2.555850e-03  1.573892e+00
   endloop
 endfacet
 facet normal -7.071068e-01  0.000000e+00  7.071068e-01
   outer loop
     vertex  1.605997e-01 -2.555850e-03  1.567492e+00
     vertex  1.605997e-01 -7.555850e-03  1.567492e+00
     vertex  1.637997e-01 -7.555850e-03  1.570692e+00
   endloop
 endfacet
 facet normal -7.071068e-01  0.000000e+00  7.071068e-01
   outer loop
     vertex  1.605997e-01 -2.555850e-03  1.567492e+00
     vertex  1.637997e-01 -7.555850e-03  1.570692e+00
     vertex  1.637997e-01 -2.555850e-03  1.570692e+00
   endloop
 endfacet
 facet normal  7.071068e-01  0.000000e+00  7.071068e-01
   outer loop
     vertex  1.573997e-01 -2.555850e-03  1.570692e+00
     vertex  1.573997e-01 -7.555850e-03  1.570692e+00
     vertex  1.605997e-01 -7.555850e-03  1.567492e+00
   endloop
 endfacet
 facet normal  7.071068e-01  0.000000e+00  7.071068e-01
   outer loop
     vertex  1.573997e-01 -2.555850e-03  1.570692e+00
     vertex  1.605997e-01 -7.555850e-03  1.567492e+00
     vertex  1.605997e-01 -2.555850e-03  1.567492e+00
   endloop
 endfacet
 facet normal  7.071068e-01  0.000000e+00 -7.071068e-01
   outer loop
     vertex  1.605997e-01 -2.555850e-03  1.403892e+00
     vertex  1.573997e-01 -7.555850e-03  1.400692e+00
     vertex  1.573997e-01 -2.555850e-03  1.400692e+00
   endloop
 endfacet
 facet normal  7.071068e-01  0.000000e+00 -7.071068e-01
   outer loop
     vertex  1.605997e-01 -2.555850e-03  1.403892e+00
     vertex  1.605997e-01 -7.555850e-03  1.403892e+00
     vertex  1.573997e-01 -7.555850e-03  1.400692e+00
   endloop
 endfacet
 facet normal -7.071068e-01 -0.000000e+00 -7.071068e-01
   outer loop
     vertex  1.637997e-01 -2.555850e-03  1.400692e+00
     vertex  1.637997e-01 -7.555850e-03  1.400692e+00
     vertex  1.605997e-01 -7.555850e-03  1.403892e+00
   endloop
 endfacet
 facet normal -7.071068e-01  0.000000e+00 -7.071068e-01
   outer loop
     vertex  1.637997e-01 -2.555850e-03  1.400692e+00
     vertex  1.605997e-01 -7.555850e-03  1.403892e+00
     vertex  1.605997e-01 -2.555850e-03  1.403892e+00
   endloop
 endfacet
 facet normal -7.071068e-01  0.000000e+00  7.071068e-01
   outer loop
     vertex  1.605997e-01 -2.555850e-03  1.397492e+00
     vertex  1.605997e-01 -7.555850e-03  1.397492e+00
     vertex  1.637997e-01 -7.555850e-03  1.400692e+00
   endloop
 endfacet
 facet normal -7.071068e-01  0.000000e+00  7.071068e-01
   outer loop
     vertex  1.605997e-01 -2.555850e-03  1.397492e+00
     vertex  1.637997e-01 -7.555850e-03  1.400692e+00
     vertex  1.637997e-01 -2.555850e-03  1.400692e+00
   endloop
 endfacet
 facet normal  7.071068e-01  0.000000e+00  7.071068e-01
   outer loop
     vertex  1.573997e-01 -2.555850e-03  1.400692e+00
     vertex  1.573997e-01 -7.555850e-03  1.400692e+00
     vertex  1.605997e-01 -7.555850e-03  1.397492e+00
   endloop
 endfacet
 facet normal  7.071068e-01  0.000000e+00  7.071068e-01
   outer loop
     vertex  1.573997e-01 -2.555850e-03  1.400692e+00
     vertex  1.605997e-01 -7.555850e-03  1.397492e+00
     vertex  1.605997e-01 -2.555850e-03  1.397492e+00
   endloop
 endfacet
 facet normal  7.071068e-01  0.000000e+00 -7.071068e-01
   outer loop
     vertex  1.605997e-01 -2.555850e-03  1.233892e+00
     vertex  1.573997e-01 -7.555850e-03  1.230692e+00
     vertex  1.573997e-01 -2.555850e-03  1.230692e+00
   endloop
 endfacet
 facet normal  7.071068e-01  0.000000e+00 -7.071068e-01
   outer loop
     vertex  1.605997e-01 -2.555850e-03  1.233892e+00
     vertex  1.605997e-01 -7.555850e-03  1.233892e+00
     vertex  1.573997e-01 -7.555850e-03  1.230692e+00
   endloop
 endfacet
 facet normal -7.071068e-01 -0.000000e+00 -7.071068e-01
   outer loop
     vertex  1.637997e-01 -2.555850e-03  1.230692e+00
     vertex  1.637997e-01 -7.555850e-03  1.230692e+00
     vertex  1.605997e-01 -7.555850e-03  1.233892e+00
   endloop
 endfacet
 facet normal -7.071068e-01  0.000000e+00 -7.071068e-01
   outer loop
     vertex  1.637997e-01 -2.555850e-03  1.230692e+00
     vertex  1.605997e-01 -7.555850e-03  1.233892e+00
     vertex  1.605997e-01 -2.555850e-03  1.233892e+00
   endloop
 endfacet
 facet normal -7.071068e-01  0.000000e+00  7.071068e-01
   outer loop
     vertex  1.605997e-01 -2.555850e-03  1.227492e+00
     vertex  1.605997e-01 -7.555850e-03  1.227492e+00
     vertex  1.637997e-01 -7.555850e-03  1.230692e+00
   endloop
 endfacet
 facet normal -7.071068e-01  0.000000e+00  7.071068e-01
   outer loop
     vertex  1.605997e-01 -2.555850e-03  1.227492e+00
     vertex  1.637997e-01 -7.555850e-03  1.230692e+00
     vertex  1.637997e-01 -2.555850e-03  1.230692e+00
   endloop
 endfacet
 facet normal  7.071068e-01  0.000000e+00  7.071068e-01
   outer loop
     vertex  1.573997e-01 -2.555850e-03  1.230692e+00
     vertex  1.573997e-01 -7.555850e-03  1.230692e+00
     vertex  1.605997e-01 -7.555850e-03  1.227492e+00
   endloop
 endfacet
 facet normal  7.071068e-01  0.000000e+00  7.071068e-01
   outer loop
     vertex  1.573997e-01 -2.555850e-03  1.230692e+00
     vertex  1.605997e-01 -7.555850e-03  1.227492e+00
     vertex  1.605997e-01 -2.555850e-03  1.227492e+00
   endloop
 endfacet
 facet normal  7.071068e-01  0.000000e+00 -7.071068e-01
   outer loop
     vertex  1.605997e-01 -2.555850e-03  1.063892e+00
     vertex  1.573997e-01 -7.555850e-03  1.060692e+00
     vertex  1.573997e-01 -2.555850e-03  1.060692e+00
   endloop
 endfacet
 facet normal  7.071068e-01  0.000000e+00 -7.071068e-01
   outer loop
     vertex  1.605997e-01 -2.555850e-03  1.063892e+00
     vertex  1.605997e-01 -7.555850e-03  1.063892e+00
     vertex  1.573997e-01 -7.555850e-03  1.060692e+00
   endloop
 endfacet
 facet normal -7.071068e-01 -0.000000e+00 -7.071068e-01
   outer loop
     vertex  1.637997e-01 -2.555850e-03  1.060692e+00
     vertex  1.637997e-01 -7.555850e-03  1.060692e+00
     vertex  1.605997e-01 -7.555850e-03  1.063892e+00
   endloop
 endfacet
 facet normal -7.071068e-01  0.000000e+00 -7.071068e-01
   outer loop
     vertex  1.637997e-01 -2.555850e-03  1.060692e+00
     vertex  1.605997e-01 -7.555850e-03  1.063892e+00
     vertex  1.605997e-01 -2.555850e-03  1.063892e+00
   endloop
 endfacet
 facet normal -7.071068e-01  0.000000e+00  7.071068e-01
   outer loop
     vertex  1.605997e-01 -2.555850e-03  1.057492e+00
     vertex  1.605997e-01 -7.555850e-03  1.057492e+00
     vertex  1.637997e-01 -7.555850e-03  1.060692e+00
   endloop
 endfacet
 facet normal -7.071068e-01  0.000000e+00  7.071068e-01
   outer loop
     vertex  1.605997e-01 -2.555850e-03  1.057492e+00
     vertex  1.637997e-01 -7.555850e-03  1.060692e+00
     vertex  1.637997e-01 -2.555850e-03  1.060692e+00
   endloop
 endfacet
 facet normal  7.071068e-01  0.000000e+00  7.071068e-01
   outer loop
     vertex  1.573997e-01 -2.555850e-03  1.060692e+00
     vertex  1.573997e-01 -7.555850e-03  1.060692e+00
     vertex  1.605997e-01 -7.555850e-03  1.057492e+00
   endloop
 endfacet
 facet normal  7.071068e-01  0.000000e+00  7.071068e-01
   outer loop
     vertex  1.573997e-01 -2.555850e-03  1.060692e+00
     vertex  1.605997e-01 -7.555850e-03  1.057492e+00
     vertex  1.605997e-01 -2.555850e-03  1.057492e+00
   endloop
 endfacet
 facet normal  8.090170e-01  0.000000e+00  5.877853e-01
   outer loop
     vertex -3.794129e-02 -7.555850e-03  1.133629e+00
     vertex -7.940027e-02 -2.555850e-03  1.190692e+00
     vertex -7.940027e-02 -7.555850e-03  1.190692e+00
   endloop
 endfacet
 facet normal  8.090170e-01 -0.000000e+00  5.877853e-01
   outer loop
     vertex -3.794129e-02 -7.555850e-03  1.133629e+00
     vertex -3.794129e-02 -2.555850e-03  1.133629e+00
     vertex -7.940027e-02 -2.555850e-03  1.190692e+00
   endloop
 endfacet
 facet normal -3.090170e-01  0.000000e+00  9.510565e-01
   outer loop
     vertex  2.914075e-02 -7.555850e-03  1.155425e+00
     vertex  2.914075e-02 -2.555850e-03  1.155425e+00
     vertex -3.794129e-02 -2.555850e-03  1.133629e+00
   endloop
 endfacet
 facet normal -3.090170e-01  0.000000e+00  9.510565e-01
   outer loop
     vertex  2.914075e-02 -7.555850e-03  1.155425e+00
     vertex -3.794129e-02 -2.555850e-03  1.133629e+00
     vertex -3.794129e-02 -7.555850e-03  1.133629e+00
   endloop
 endfacet
 facet normal -1.000000e+00  0.000000e+00  0.000000e+00
   outer loop
     vertex  2.914075e-02 -7.555850e-03  1.225959e+00
     vertex  2.914075e-02 -2.555850e-03  1.225959e+00
     vertex  2.914075e-02 -2.555850e-03  1.155425e+00
   endloop
 endfacet
 facet normal -1.000000e+00  0.000000e+00  0.000000e+00
   outer loop
     vertex  2.914075e-02 -7.555850e-03  1.225959e+00
     vertex  2.914075e-02 -2.555850e-03  1.155425e+00
     vertex  2.914075e-02 -7.555850e-03  1.155425e+00
   endloop
 endfacet
 facet normal -3.090170e-01  0.000000e+00 -9.510565e-01
   outer loop
     vertex -3.794129e-02 -7.555850e-03  1.247756e+00
     vertex -3.794129e-02 -2.555850e-03  1.247756e+00
     vertex  2.914075e-02 -2.555850e-03  1.225959e+00
   endloop
 endfacet
 facet normal -3.090170e-01  0.000000e+00 -9.510565e-01
   outer loop
     vertex -3.794129e-02 -7.555850e-03  1.247756e+00
     vertex  2.914075e-02 -2.555850e-03  1.225959e+00
     vertex  2.914075e-02 -7.555850e-03  1.225959e+00
   endloop
 endfacet
 facet normal  8.090170e-01  0.000000e+00 -5.877853e-01
   outer loop
     vertex -7.940027e-02 -7.555850e-03  1.190692e+00
     vertex -7.940027e-02 -2.555850e-03  1.190692e+00
     vertex -3.794129e-02 -2.555850e-03  1.247756e+00
   endloop
 endfacet
 facet normal  8.090170e-01  0.000000e+00 -5.877853e-01
   outer loop
     vertex -7.940027e-02 -7.555850e-03  1.190692e+00
     vertex -3.794129e-02 -2.555850e-03  1.247756e+00
     vertex -3.794129e-02 -7.555850e-03  1.247756e+00
   endloop
 endfacet
endsolid
