solid 
 facet normal -9.000637e-11  6.427876e-01  7.660444e-01
   outer loop
     vertex  8.928377e-02  9.164689e-03  9.222502e-01
     vertex  8.859973e-02  9.257086e-03  9.221727e-01
     vertex  8.859973e-02  8.491041e-03  9.228155e-01
   endloop
 endfacet
 facet normal  0.000000e+00  6.427876e-01  7.660444e-01
   outer loop
     vertex  8.988531e-02  8.898645e-03  9.224735e-01
     vertex  8.859973e-02  8.491041e-03  9.228155e-01
     vertex  9.033178e-02  8.491041e-03  9.228155e-01
   endloop
 endfacet
 facet normal -1.004279e-11  6.427876e-01  7.660444e-01
   outer loop
     vertex  8.988531e-02  8.898645e-03  9.224735e-01
     vertex  8.928377e-02  9.164689e-03  9.222502e-01
     vertex  8.859973e-02  8.491041e-03  9.228155e-01
   endloop
 endfacet
 facet normal -9.000637e-11 -6.427876e-01 -7.660444e-01
   outer loop
     vertex -1.280843e-01  9.164689e-03  9.222502e-01
     vertex -1.274003e-01  9.257086e-03  9.221727e-01
     vertex -1.274003e-01  8.491041e-03  9.228155e-01
   endloop
 endfacet
 facet normal  0.000000e+00 -6.427876e-01 -7.660444e-01
   outer loop
     vertex -1.286858e-01  8.898645e-03  9.224735e-01
     vertex -1.274003e-01  8.491041e-03  9.228155e-01
     vertex -1.291323e-01  8.491041e-03  9.228155e-01
   endloop
 endfacet
 facet normal -1.004279e-11 -6.427876e-01 -7.660444e-01
   outer loop
     vertex -1.286858e-01  8.898645e-03  9.224735e-01
     vertex -1.280843e-01  9.164689e-03  9.222502e-01
     vertex -1.274003e-01  8.491041e-03  9.228155e-01
   endloop
 endfacet
 facet normal  9.000637e-11  6.427876e-01  7.660444e-01
   outer loop
     vertex -1.280843e-01  9.164689e-03  9.222502e-01
     vertex -1.274003e-01  8.491041e-03  9.228155e-01
     vertex -1.274003e-01  9.257086e-03  9.221727e-01
   endloop
 endfacet
 facet normal  0.000000e+00  6.427876e-01  7.660444e-01
   outer loop
     vertex -1.286858e-01  8.898645e-03  9.224735e-01
     vertex -1.291323e-01  8.491041e-03  9.228155e-01
     vertex -1.274003e-01  8.491041e-03  9.228155e-01
   endloop
 endfacet
 facet normal  1.004279e-11  6.427876e-01  7.660444e-01
   outer loop
     vertex -1.286858e-01  8.898645e-03  9.224735e-01
     vertex -1.274003e-01  8.491041e-03  9.228155e-01
     vertex -1.280843e-01  9.164689e-03  9.222502e-01
   endloop
 endfacet
 facet normal  0.000000e+00  6.427876e-01  7.660444e-01
   outer loop
     vertex  9.059973e-02  9.257086e-03  9.221727e-01
     vertex  9.033178e-02  8.491041e-03  9.228155e-01
     vertex  9.059973e-02  8.491041e-03  9.228155e-01
   endloop
 endfacet
 facet normal  7.810402e-11  6.427876e-01  7.660444e-01
   outer loop
     vertex  8.988531e-02  8.898645e-03  9.224735e-01
     vertex  9.033178e-02  8.491041e-03  9.228155e-01
     vertex  9.059973e-02  9.257086e-03  9.221727e-01
   endloop
 endfacet
 facet normal  4.391995e-11  6.427876e-01  7.660444e-01
   outer loop
     vertex  8.928377e-02  9.164689e-03  9.222502e-01
     vertex  8.988531e-02  8.898645e-03  9.224735e-01
     vertex  9.059973e-02  9.257086e-03  9.221727e-01
   endloop
 endfacet
 facet normal -0.000000e+00  6.427876e-01  7.660444e-01
   outer loop
     vertex  8.859973e-02  9.257086e-03  9.221727e-01
     vertex  8.928377e-02  9.164689e-03  9.222502e-01
     vertex  9.059973e-02  9.257086e-03  9.221727e-01
   endloop
 endfacet
 facet normal  0.000000e+00 -6.427876e-01 -7.660444e-01
   outer loop
     vertex  9.056935e-02  7.991041e-03  9.232350e-01
     vertex  9.059973e-02  7.724997e-03  9.234583e-01
     vertex  8.959973e-02  7.724997e-03  9.234583e-01
   endloop
 endfacet
 facet normal -4.952148e-11 -6.427876e-01 -7.660444e-01
   outer loop
     vertex  9.047912e-02  8.249002e-03  9.230186e-01
     vertex  8.959973e-02  7.724997e-03  9.234583e-01
     vertex  8.946576e-02  8.108019e-03  9.231369e-01
   endloop
 endfacet
 facet normal  2.594347e-11 -6.427876e-01 -7.660444e-01
   outer loop
     vertex  9.047912e-02  8.249002e-03  9.230186e-01
     vertex  9.056935e-02  7.991041e-03  9.232350e-01
     vertex  8.959973e-02  7.724997e-03  9.234583e-01
   endloop
 endfacet
 facet normal -2.792800e-12 -6.427876e-01 -7.660444e-01
   outer loop
     vertex  9.033178e-02  8.491041e-03  9.228155e-01
     vertex  8.946576e-02  8.108019e-03  9.231369e-01
     vertex  8.909973e-02  8.388411e-03  9.229016e-01
   endloop
 endfacet
 facet normal -7.576408e-11 -6.427876e-01 -7.660444e-01
   outer loop
     vertex  9.033178e-02  8.491041e-03  9.228155e-01
     vertex  9.047912e-02  8.249002e-03  9.230186e-01
     vertex  8.946576e-02  8.108019e-03  9.231369e-01
   endloop
 endfacet
 facet normal  0.000000e+00 -6.427876e-01 -7.660444e-01
   outer loop
     vertex  8.859973e-02  8.491041e-03  9.228155e-01
     vertex  9.033178e-02  8.491041e-03  9.228155e-01
     vertex  8.909973e-02  8.388411e-03  9.229016e-01
   endloop
 endfacet
 facet normal  0.000000e+00 -1.000000e+00  0.000000e+00
   outer loop
     vertex  8.924252e-02  1.664441e-01  1.111421e+00
     vertex  8.959973e-02  1.664441e-01  1.112612e+00
     vertex  8.959973e-02  1.664441e-01  1.155693e+00
   endloop
 endfacet
 facet normal  0.000000e+00 -1.000000e+00  0.000000e+00
   outer loop
     vertex -1.280431e-01  1.664441e-01  1.111421e+00
     vertex  8.959973e-02  1.664441e-01  1.155693e+00
     vertex -1.284003e-01  1.664441e-01  1.155693e+00
   endloop
 endfacet
 facet normal  0.000000e+00 -1.000000e+00  0.000000e+00
   outer loop
     vertex -1.280431e-01  1.664441e-01  1.111421e+00
     vertex -1.284003e-01  1.664441e-01  1.155693e+00
     vertex -1.284003e-01  1.664441e-01  1.112612e+00
   endloop
 endfacet
 facet normal  0.000000e+00 -1.000000e+00  0.000000e+00
   outer loop
     vertex -1.280431e-01  1.664441e-01  1.111421e+00
     vertex  8.924252e-02  1.664441e-01  1.111421e+00
     vertex  8.959973e-02  1.664441e-01  1.155693e+00
   endloop
 endfacet
 facet normal -1.000000e+00  0.000000e+00  0.000000e+00
   outer loop
     vertex -1.284003e-01  1.664441e-01  1.155693e+00
     vertex -1.284003e-01  1.674441e-01  1.112612e+00
     vertex -1.284003e-01  1.664441e-01  1.112612e+00
   endloop
 endfacet
 facet normal -1.000000e+00  0.000000e+00  0.000000e+00
   outer loop
     vertex -1.284003e-01  1.664441e-01  1.155693e+00
     vertex -1.284003e-01  1.674441e-01  1.155693e+00
     vertex -1.284003e-01  1.674441e-01  1.112612e+00
   endloop
 endfacet
 facet normal -9.578957e-01  0.000000e+00 -2.871166e-01
   outer loop
     vertex -1.284003e-01  1.664441e-01  1.112612e+00
     vertex -1.280431e-01  1.668475e-01  1.111421e+00
     vertex -1.280431e-01  1.664441e-01  1.111421e+00
   endloop
 endfacet
 facet normal -9.578957e-01  0.000000e+00 -2.871166e-01
   outer loop
     vertex -1.284003e-01  1.674441e-01  1.112612e+00
     vertex -1.280431e-01  1.674441e-01  1.111421e+00
     vertex -1.280431e-01  1.668475e-01  1.111421e+00
   endloop
 endfacet
 facet normal -9.578957e-01 -0.000000e+00 -2.871166e-01
   outer loop
     vertex -1.284003e-01  1.674441e-01  1.112612e+00
     vertex -1.280431e-01  1.668475e-01  1.111421e+00
     vertex -1.284003e-01  1.664441e-01  1.112612e+00
   endloop
 endfacet
 facet normal -7.071068e-01 -0.000000e+00 -7.071068e-01
   outer loop
     vertex -1.280431e-01  1.668475e-01  1.111421e+00
     vertex -1.274003e-01  1.662102e-01  1.110778e+00
     vertex -1.280431e-01  1.664441e-01  1.111421e+00
   endloop
 endfacet
 facet normal -8.143959e-01 -3.730158e-01 -4.445430e-01
   outer loop
     vertex -1.280431e-01  1.668475e-01  1.111421e+00
     vertex -1.274003e-01  1.669762e-01  1.110135e+00
     vertex -1.274003e-01  1.662102e-01  1.110778e+00
   endloop
 endfacet
 facet normal -8.944272e-01 -0.000000e+00 -4.472136e-01
   outer loop
     vertex -1.280431e-01  1.674441e-01  1.111421e+00
     vertex -1.274003e-01  1.669762e-01  1.110135e+00
     vertex -1.280431e-01  1.668475e-01  1.111421e+00
   endloop
 endfacet
 facet normal  0.000000e+00 -9.396926e-01  3.420201e-01
   outer loop
     vertex  8.924252e-02  1.664441e-01  1.111421e+00
     vertex -1.274003e-01  1.662102e-01  1.110778e+00
     vertex  8.859973e-02  1.662102e-01  1.110778e+00
   endloop
 endfacet
 facet normal  0.000000e+00 -9.396926e-01  3.420201e-01
   outer loop
     vertex  8.924252e-02  1.664441e-01  1.111421e+00
     vertex -1.280431e-01  1.664441e-01  1.111421e+00
     vertex -1.274003e-01  1.662102e-01  1.110778e+00
   endloop
 endfacet
 facet normal  8.143959e-01 -3.730158e-01 -4.445430e-01
   outer loop
     vertex  8.924252e-02  1.668475e-01  1.111421e+00
     vertex  8.859973e-02  1.662102e-01  1.110778e+00
     vertex  8.859973e-02  1.669762e-01  1.110135e+00
   endloop
 endfacet
 facet normal  7.071068e-01  0.000000e+00 -7.071068e-01
   outer loop
     vertex  8.924252e-02  1.668475e-01  1.111421e+00
     vertex  8.924252e-02  1.664441e-01  1.111421e+00
     vertex  8.859973e-02  1.662102e-01  1.110778e+00
   endloop
 endfacet
 facet normal  8.944272e-01  0.000000e+00 -4.472136e-01
   outer loop
     vertex  8.924252e-02  1.674441e-01  1.111421e+00
     vertex  8.924252e-02  1.668475e-01  1.111421e+00
     vertex  8.859973e-02  1.669762e-01  1.110135e+00
   endloop
 endfacet
 facet normal  9.578957e-01  0.000000e+00 -2.871166e-01
   outer loop
     vertex  8.924252e-02  1.668475e-01  1.111421e+00
     vertex  8.959973e-02  1.664441e-01  1.112612e+00
     vertex  8.924252e-02  1.664441e-01  1.111421e+00
   endloop
 endfacet
 facet normal  9.578957e-01  0.000000e+00 -2.871166e-01
   outer loop
     vertex  8.924252e-02  1.668475e-01  1.111421e+00
     vertex  8.959973e-02  1.674441e-01  1.112612e+00
     vertex  8.959973e-02  1.664441e-01  1.112612e+00
   endloop
 endfacet
 facet normal  9.578957e-01  0.000000e+00 -2.871166e-01
   outer loop
     vertex  8.924252e-02  1.674441e-01  1.111421e+00
     vertex  8.959973e-02  1.674441e-01  1.112612e+00
     vertex  8.924252e-02  1.668475e-01  1.111421e+00
   endloop
 endfacet
 facet normal  1.000000e+00  0.000000e+00  0.000000e+00
   outer loop
     vertex  8.959973e-02  1.664441e-01  1.155693e+00
     vertex  8.959973e-02  1.664441e-01  1.112612e+00
     vertex  8.959973e-02  1.674441e-01  1.112612e+00
   endloop
 endfacet
 facet normal  1.000000e+00 -0.000000e+00  0.000000e+00
   outer loop
     vertex  8.959973e-02  1.664441e-01  1.155693e+00
     vertex  8.959973e-02  1.674441e-01  1.112612e+00
     vertex  8.959973e-02  1.674441e-01  1.155693e+00
   endloop
 endfacet
 facet normal  0.000000e+00  0.000000e+00  1.000000e+00
   outer loop
     vertex -1.284003e-01  1.664441e-01  1.155693e+00
     vertex  8.959973e-02  1.664441e-01  1.155693e+00
     vertex  8.959973e-02  1.674441e-01  1.155693e+00
   endloop
 endfacet
 facet normal  0.000000e+00  0.000000e+00  1.000000e+00
   outer loop
     vertex -1.284003e-01  1.664441e-01  1.155693e+00
     vertex  8.959973e-02  1.674441e-01  1.155693e+00
     vertex -1.284003e-01  1.674441e-01  1.155693e+00
   endloop
 endfacet
 facet normal  0.000000e+00  1.000000e+00  0.000000e+00
   outer loop
     vertex  8.924252e-02  1.674441e-01  1.111421e+00
     vertex  8.959973e-02  1.674441e-01  1.155693e+00
     vertex  8.959973e-02  1.674441e-01  1.112612e+00
   endloop
 endfacet
 facet normal  0.000000e+00  1.000000e+00  0.000000e+00
   outer loop
     vertex -1.280431e-01  1.674441e-01  1.111421e+00
     vertex -1.284003e-01  1.674441e-01  1.112612e+00
     vertex -1.284003e-01  1.674441e-01  1.155693e+00
   endloop
 endfacet
 facet normal  0.000000e+00  1.000000e+00 -0.000000e+00
   outer loop
     vertex -1.280431e-01  1.674441e-01  1.111421e+00
     vertex -1.284003e-01  1.674441e-01  1.155693e+00
     vertex  8.959973e-02  1.674441e-01  1.155693e+00
   endloop
 endfacet
 facet normal  0.000000e+00  1.000000e+00  0.000000e+00
   outer loop
     vertex -1.280431e-01  1.674441e-01  1.111421e+00
     vertex  8.959973e-02  1.674441e-01  1.155693e+00
     vertex  8.924252e-02  1.674441e-01  1.111421e+00
   endloop
 endfacet
 facet normal  0.000000e+00  9.396926e-01 -3.420201e-01
   outer loop
     vertex  8.924252e-02  1.674441e-01  1.111421e+00
     vertex -1.274003e-01  1.669762e-01  1.110135e+00
     vertex -1.280431e-01  1.674441e-01  1.111421e+00
   endloop
 endfacet
 facet normal  0.000000e+00  9.396926e-01 -3.420201e-01
   outer loop
     vertex  8.924252e-02  1.674441e-01  1.111421e+00
     vertex  8.859973e-02  1.669762e-01  1.110135e+00
     vertex -1.274003e-01  1.669762e-01  1.110135e+00
   endloop
 endfacet
 facet normal  0.000000e+00  7.660444e-01 -6.427876e-01
   outer loop
     vertex  8.859973e-02  9.257086e-03  9.221727e-01
     vertex -1.274003e-01  1.669762e-01  1.110135e+00
     vertex  8.859973e-02  1.669762e-01  1.110135e+00
   endloop
 endfacet
 facet normal  0.000000e+00  7.660444e-01 -6.427876e-01
   outer loop
     vertex  8.859973e-02  9.257086e-03  9.221727e-01
     vertex  9.059973e-02  9.257086e-03  9.221727e-01
     vertex  9.059973e-02  8.614298e-03  9.214067e-01
   endloop
 endfacet
 facet normal  0.000000e+00  7.660444e-01 -6.427876e-01
   outer loop
     vertex -1.274003e-01  9.257086e-03  9.221727e-01
     vertex  8.859973e-02  9.257086e-03  9.221727e-01
     vertex  9.059973e-02  8.614298e-03  9.214067e-01
   endloop
 endfacet
 facet normal  0.000000e+00  7.660444e-01 -6.427876e-01
   outer loop
     vertex -1.274003e-01  9.257086e-03  9.221727e-01
     vertex -1.274003e-01  1.669762e-01  1.110135e+00
     vertex  8.859973e-02  9.257086e-03  9.221727e-01
   endloop
 endfacet
 facet normal  0.000000e+00  7.660444e-01 -6.427876e-01
   outer loop
     vertex -1.294003e-01  8.614298e-03  9.214067e-01
     vertex -1.294003e-01  9.257086e-03  9.221727e-01
     vertex -1.274003e-01  9.257086e-03  9.221727e-01
   endloop
 endfacet
 facet normal  0.000000e+00  7.660444e-01 -6.427876e-01
   outer loop
     vertex -1.294003e-01  8.614298e-03  9.214067e-01
     vertex -1.274003e-01  9.257086e-03  9.221727e-01
     vertex  9.059973e-02  8.614298e-03  9.214067e-01
   endloop
 endfacet
 facet normal -9.961947e-01  6.676517e-02 -5.602263e-02
   outer loop
     vertex -1.293699e-01  7.991041e-03  9.232350e-01
     vertex -1.294003e-01  7.724997e-03  9.234583e-01
     vertex -1.294003e-01  1.664441e-01  1.112612e+00
   endloop
 endfacet
 facet normal -9.659258e-01  1.984245e-01 -1.661779e-01
   outer loop
     vertex -1.292797e-01  8.249002e-03  9.230186e-01
     vertex -1.293699e-01  7.991041e-03  9.232350e-01
     vertex -1.294003e-01  1.664441e-01  1.112612e+00
   endloop
 endfacet
 facet normal -9.063075e-01  3.242123e-01 -2.710960e-01
   outer loop
     vertex -1.291323e-01  8.491041e-03  9.228155e-01
     vertex -1.292797e-01  8.249002e-03  9.230186e-01
     vertex -1.294003e-01  1.664441e-01  1.112612e+00
   endloop
 endfacet
 facet normal -7.061903e-01  5.438838e-01 -4.533052e-01
   outer loop
     vertex -1.286858e-01  8.898645e-03  9.224735e-01
     vertex -1.294003e-01  1.664441e-01  1.112612e+00
     vertex -1.274003e-01  1.669762e-01  1.110135e+00
   endloop
 endfacet
 facet normal -7.660432e-01  4.935421e-01 -4.118179e-01
   outer loop
     vertex -1.286858e-01  8.898645e-03  9.224735e-01
     vertex -1.291323e-01  8.491041e-03  9.228155e-01
     vertex -1.294003e-01  1.664441e-01  1.112612e+00
   endloop
 endfacet
 facet normal -4.999998e-01  6.640360e-01 -5.559285e-01
   outer loop
     vertex -1.280843e-01  9.164689e-03  9.222502e-01
     vertex -1.286858e-01  8.898645e-03  9.224735e-01
     vertex -1.274003e-01  1.669762e-01  1.110135e+00
   endloop
 endfacet
 facet normal -1.736482e-01  7.544065e-01 -6.330222e-01
   outer loop
     vertex -1.274003e-01  9.257086e-03  9.221727e-01
     vertex -1.280843e-01  9.164689e-03  9.222502e-01
     vertex -1.274003e-01  1.669762e-01  1.110135e+00
   endloop
 endfacet
 facet normal  0.000000e+00  9.919662e-01 -1.265036e-01
   outer loop
     vertex -1.274003e-01  1.662102e-01  1.110778e+00
     vertex -1.294003e-01  1.664441e-01  1.112612e+00
     vertex -1.284003e-01  1.664441e-01  1.112612e+00
   endloop
 endfacet
 facet normal  6.139820e-01  5.073651e-01  6.046542e-01
   outer loop
     vertex -1.274003e-01  1.669762e-01  1.110135e+00
     vertex -1.294003e-01  1.664441e-01  1.112612e+00
     vertex -1.274003e-01  1.662102e-01  1.110778e+00
   endloop
 endfacet
 facet normal  9.659258e-01 -1.982669e-01  1.663657e-01
   outer loop
     vertex -1.282663e-01  8.108019e-03  9.231369e-01
     vertex -1.284003e-01  1.664441e-01  1.112612e+00
     vertex -1.284003e-01  7.724997e-03  9.234583e-01
   endloop
 endfacet
 facet normal  7.062890e-01 -5.429755e-01  4.542395e-01
   outer loop
     vertex -1.282663e-01  8.108019e-03  9.231369e-01
     vertex -1.274003e-01  1.662102e-01  1.110778e+00
     vertex -1.284003e-01  1.664441e-01  1.112612e+00
   endloop
 endfacet
 facet normal  7.071064e-01 -5.423529e-01  4.537112e-01
   outer loop
     vertex -1.279003e-01  8.388411e-03  9.229016e-01
     vertex -1.274003e-01  1.662102e-01  1.110778e+00
     vertex -1.282663e-01  8.108019e-03  9.231369e-01
   endloop
 endfacet
 facet normal  2.588190e-01 -7.399421e-01  6.208852e-01
   outer loop
     vertex -1.274003e-01  8.491041e-03  9.228155e-01
     vertex -1.274003e-01  1.662102e-01  1.110778e+00
     vertex -1.279003e-01  8.388411e-03  9.229016e-01
   endloop
 endfacet
 facet normal  0.000000e+00 -7.660444e-01  6.427876e-01
   outer loop
     vertex  9.059973e-02  7.848254e-03  9.220495e-01
     vertex  9.059973e-02  8.491041e-03  9.228155e-01
     vertex  9.033178e-02  8.491041e-03  9.228155e-01
   endloop
 endfacet
 facet normal  0.000000e+00 -7.660444e-01  6.427876e-01
   outer loop
     vertex  8.859973e-02  8.491041e-03  9.228155e-01
     vertex  8.859973e-02  1.662102e-01  1.110778e+00
     vertex -1.274003e-01  1.662102e-01  1.110778e+00
   endloop
 endfacet
 facet normal  0.000000e+00 -7.660444e-01  6.427876e-01
   outer loop
     vertex  8.859973e-02  8.491041e-03  9.228155e-01
     vertex  9.059973e-02  7.848254e-03  9.220495e-01
     vertex  9.033178e-02  8.491041e-03  9.228155e-01
   endloop
 endfacet
 facet normal  0.000000e+00 -7.660444e-01  6.427876e-01
   outer loop
     vertex -1.274003e-01  8.491041e-03  9.228155e-01
     vertex  8.859973e-02  8.491041e-03  9.228155e-01
     vertex -1.274003e-01  1.662102e-01  1.110778e+00
   endloop
 endfacet
 facet normal  0.000000e+00 -7.660444e-01  6.427876e-01
   outer loop
     vertex -1.274003e-01  8.491041e-03  9.228155e-01
     vertex  9.059973e-02  7.848254e-03  9.220495e-01
     vertex  8.859973e-02  8.491041e-03  9.228155e-01
   endloop
 endfacet
 facet normal  0.000000e+00 -7.660444e-01  6.427876e-01
   outer loop
     vertex -1.294003e-01  7.848254e-03  9.220495e-01
     vertex -1.291323e-01  8.491041e-03  9.228155e-01
     vertex -1.294003e-01  8.491041e-03  9.228155e-01
   endloop
 endfacet
 facet normal  0.000000e+00 -7.660444e-01  6.427876e-01
   outer loop
     vertex -1.294003e-01  7.848254e-03  9.220495e-01
     vertex -1.274003e-01  8.491041e-03  9.228155e-01
     vertex -1.291323e-01  8.491041e-03  9.228155e-01
   endloop
 endfacet
 facet normal  0.000000e+00 -7.660444e-01  6.427876e-01
   outer loop
     vertex -1.294003e-01  7.848254e-03  9.220495e-01
     vertex  9.059973e-02  7.848254e-03  9.220495e-01
     vertex -1.274003e-01  8.491041e-03  9.228155e-01
   endloop
 endfacet
 facet normal -9.659258e-01 -1.982669e-01  1.663657e-01
   outer loop
     vertex  8.959973e-02  1.664441e-01  1.112612e+00
     vertex  8.946576e-02  8.108019e-03  9.231369e-01
     vertex  8.959973e-02  7.724997e-03  9.234583e-01
   endloop
 endfacet
 facet normal -7.071064e-01 -5.423529e-01  4.537112e-01
   outer loop
     vertex  8.859973e-02  1.662102e-01  1.110778e+00
     vertex  8.909973e-02  8.388411e-03  9.229016e-01
     vertex  8.946576e-02  8.108019e-03  9.231369e-01
   endloop
 endfacet
 facet normal -2.588190e-01 -7.399421e-01  6.208852e-01
   outer loop
     vertex  8.859973e-02  1.662102e-01  1.110778e+00
     vertex  8.859973e-02  8.491041e-03  9.228155e-01
     vertex  8.909973e-02  8.388411e-03  9.229016e-01
   endloop
 endfacet
 facet normal -7.062890e-01 -5.429755e-01  4.542395e-01
   outer loop
     vertex  8.859973e-02  1.662102e-01  1.110778e+00
     vertex  8.946576e-02  8.108019e-03  9.231369e-01
     vertex  8.959973e-02  1.664441e-01  1.112612e+00
   endloop
 endfacet
 facet normal -8.412051e-01  3.475657e-01  4.142126e-01
   outer loop
     vertex  8.959973e-02  1.664441e-01  1.112612e+00
     vertex  8.859973e-02  1.669762e-01  1.110135e+00
     vertex  8.859973e-02  1.662102e-01  1.110778e+00
   endloop
 endfacet
 facet normal  0.000000e+00  9.777026e-01  2.099942e-01
   outer loop
     vertex  9.059973e-02  1.664441e-01  1.112612e+00
     vertex  8.859973e-02  1.669762e-01  1.110135e+00
     vertex  8.959973e-02  1.664441e-01  1.112612e+00
   endloop
 endfacet
 facet normal  9.961947e-01  6.676517e-02 -5.602263e-02
   outer loop
     vertex  9.059973e-02  1.664441e-01  1.112612e+00
     vertex  9.059973e-02  7.724997e-03  9.234583e-01
     vertex  9.056935e-02  7.991041e-03  9.232350e-01
   endloop
 endfacet
 facet normal  9.659258e-01  1.984245e-01 -1.661779e-01
   outer loop
     vertex  9.059973e-02  1.664441e-01  1.112612e+00
     vertex  9.056935e-02  7.991041e-03  9.232350e-01
     vertex  9.047912e-02  8.249002e-03  9.230186e-01
   endloop
 endfacet
 facet normal  9.063075e-01  3.242123e-01 -2.710960e-01
   outer loop
     vertex  9.059973e-02  1.664441e-01  1.112612e+00
     vertex  9.047912e-02  8.249002e-03  9.230186e-01
     vertex  9.033178e-02  8.491041e-03  9.228155e-01
   endloop
 endfacet
 facet normal  7.660432e-01  4.935421e-01 -4.118179e-01
   outer loop
     vertex  9.059973e-02  1.664441e-01  1.112612e+00
     vertex  9.033178e-02  8.491041e-03  9.228155e-01
     vertex  8.988531e-02  8.898645e-03  9.224735e-01
   endloop
 endfacet
 facet normal  4.999998e-01  6.640360e-01 -5.559285e-01
   outer loop
     vertex  8.859973e-02  1.669762e-01  1.110135e+00
     vertex  8.988531e-02  8.898645e-03  9.224735e-01
     vertex  8.928377e-02  9.164689e-03  9.222502e-01
   endloop
 endfacet
 facet normal  1.736482e-01  7.544065e-01 -6.330222e-01
   outer loop
     vertex  8.859973e-02  1.669762e-01  1.110135e+00
     vertex  8.928377e-02  9.164689e-03  9.222502e-01
     vertex  8.859973e-02  9.257086e-03  9.221727e-01
   endloop
 endfacet
 facet normal  7.061903e-01  5.438838e-01 -4.533052e-01
   outer loop
     vertex  8.859973e-02  1.669762e-01  1.110135e+00
     vertex  9.059973e-02  1.664441e-01  1.112612e+00
     vertex  8.988531e-02  8.898645e-03  9.224735e-01
   endloop
 endfacet
 facet normal  9.000637e-11 -6.427876e-01 -7.660444e-01
   outer loop
     vertex  8.928377e-02  9.164689e-03  9.222502e-01
     vertex  8.859973e-02  8.491041e-03  9.228155e-01
     vertex  8.859973e-02  9.257086e-03  9.221727e-01
   endloop
 endfacet
 facet normal  0.000000e+00 -6.427876e-01 -7.660444e-01
   outer loop
     vertex  8.988531e-02  8.898645e-03  9.224735e-01
     vertex  9.033178e-02  8.491041e-03  9.228155e-01
     vertex  8.859973e-02  8.491041e-03  9.228155e-01
   endloop
 endfacet
 facet normal  1.004279e-11 -6.427876e-01 -7.660444e-01
   outer loop
     vertex  8.988531e-02  8.898645e-03  9.224735e-01
     vertex  8.859973e-02  8.491041e-03  9.228155e-01
     vertex  8.928377e-02  9.164689e-03  9.222502e-01
   endloop
 endfacet
 facet normal  1.000000e+00  0.000000e+00 -0.000000e+00
   outer loop
     vertex  9.059973e-02  8.614298e-03  9.214067e-01
     vertex  9.059973e-02  9.257086e-03  9.221727e-01
     vertex  9.059973e-02  8.491041e-03  9.228155e-01
   endloop
 endfacet
 facet normal  1.000000e+00  0.000000e+00  0.000000e+00
   outer loop
     vertex  9.059973e-02  8.614298e-03  9.214067e-01
     vertex  9.059973e-02  8.491041e-03  9.228155e-01
     vertex  9.059973e-02  7.848254e-03  9.220495e-01
   endloop
 endfacet
 facet normal  1.000000e+00  0.000000e+00  0.000000e+00
   outer loop
     vertex  9.059973e-02  7.082209e-03  9.206922e-01
     vertex  9.059973e-02  7.369012e-03  9.217343e-01
     vertex  9.059973e-02  7.082209e-03  9.216922e-01
   endloop
 endfacet
 facet normal  1.000000e+00  0.000000e+00  0.000000e+00
   outer loop
     vertex  9.059973e-02  7.655816e-03  9.207763e-01
     vertex  9.059973e-02  7.631718e-03  9.218568e-01
     vertex  9.059973e-02  7.369012e-03  9.217343e-01
   endloop
 endfacet
 facet normal  1.000000e+00  0.000000e+00  0.000000e+00
   outer loop
     vertex  9.059973e-02  7.655816e-03  9.207763e-01
     vertex  9.059973e-02  7.369012e-03  9.217343e-01
     vertex  9.059973e-02  7.082209e-03  9.206922e-01
   endloop
 endfacet
 facet normal  1.000000e+00  0.000000e+00  0.000000e+00
   outer loop
     vertex  9.059973e-02  8.181227e-03  9.210213e-01
     vertex  9.059973e-02  7.631718e-03  9.218568e-01
     vertex  9.059973e-02  7.655816e-03  9.207763e-01
   endloop
 endfacet
 facet normal  1.000000e+00  0.000000e+00  0.000000e+00
   outer loop
     vertex  9.059973e-02  8.614298e-03  9.214067e-01
     vertex  9.059973e-02  7.848254e-03  9.220495e-01
     vertex  9.059973e-02  7.631718e-03  9.218568e-01
   endloop
 endfacet
 facet normal  1.000000e+00  0.000000e+00  0.000000e+00
   outer loop
     vertex  9.059973e-02  8.614298e-03  9.214067e-01
     vertex  9.059973e-02  7.631718e-03  9.218568e-01
     vertex  9.059973e-02  8.181227e-03  9.210213e-01
   endloop
 endfacet
 facet normal  0.000000e+00  1.449319e-01 -9.894416e-01
   outer loop
     vertex  9.059973e-02  7.655816e-03  9.207763e-01
     vertex  9.059973e-02  7.082209e-03  9.206922e-01
     vertex -1.294003e-01  7.082209e-03  9.206922e-01
   endloop
 endfacet
 facet normal  0.000000e+00  1.449319e-01 -9.894416e-01
   outer loop
     vertex  9.059973e-02  7.655816e-03  9.207763e-01
     vertex -1.294003e-01  7.082209e-03  9.206922e-01
     vertex -1.294003e-01  7.655816e-03  9.207763e-01
   endloop
 endfacet
 facet normal  0.000000e+00  4.226183e-01 -9.063078e-01
   outer loop
     vertex  9.059973e-02  8.181227e-03  9.210213e-01
     vertex -1.294003e-01  7.655816e-03  9.207763e-01
     vertex -1.294003e-01  8.181227e-03  9.210213e-01
   endloop
 endfacet
 facet normal  0.000000e+00  4.226183e-01 -9.063078e-01
   outer loop
     vertex  9.059973e-02  8.181227e-03  9.210213e-01
     vertex  9.059973e-02  7.655816e-03  9.207763e-01
     vertex -1.294003e-01  7.655816e-03  9.207763e-01
   endloop
 endfacet
 facet normal  0.000000e+00  6.647959e-01 -7.470251e-01
   outer loop
     vertex  9.059973e-02  8.614298e-03  9.214067e-01
     vertex -1.294003e-01  8.181227e-03  9.210213e-01
     vertex -1.294003e-01  8.614298e-03  9.214067e-01
   endloop
 endfacet
 facet normal  0.000000e+00  6.647959e-01 -7.470251e-01
   outer loop
     vertex  9.059973e-02  8.614298e-03  9.214067e-01
     vertex  9.059973e-02  8.181227e-03  9.210213e-01
     vertex -1.294003e-01  8.181227e-03  9.210213e-01
   endloop
 endfacet
 facet normal -1.000000e+00  0.000000e+00  0.000000e+00
   outer loop
     vertex -1.294003e-01  8.181227e-03  9.210213e-01
     vertex -1.294003e-01  7.848254e-03  9.220495e-01
     vertex -1.294003e-01  8.614298e-03  9.214067e-01
   endloop
 endfacet
 facet normal -1.000000e+00  0.000000e+00  0.000000e+00
   outer loop
     vertex -1.294003e-01  8.181227e-03  9.210213e-01
     vertex -1.294003e-01  7.631718e-03  9.218568e-01
     vertex -1.294003e-01  7.848254e-03  9.220495e-01
   endloop
 endfacet
 facet normal -1.000000e+00  0.000000e+00  0.000000e+00
   outer loop
     vertex -1.294003e-01  7.655816e-03  9.207763e-01
     vertex -1.294003e-01  7.369012e-03  9.217343e-01
     vertex -1.294003e-01  7.631718e-03  9.218568e-01
   endloop
 endfacet
 facet normal -1.000000e+00  0.000000e+00  0.000000e+00
   outer loop
     vertex -1.294003e-01  7.655816e-03  9.207763e-01
     vertex -1.294003e-01  7.631718e-03  9.218568e-01
     vertex -1.294003e-01  8.181227e-03  9.210213e-01
   endloop
 endfacet
 facet normal -1.000000e+00  0.000000e+00  0.000000e+00
   outer loop
     vertex -1.294003e-01  7.082209e-03  9.206922e-01
     vertex -1.294003e-01  7.082209e-03  9.216922e-01
     vertex -1.294003e-01  7.369012e-03  9.217343e-01
   endloop
 endfacet
 facet normal -1.000000e+00  0.000000e+00  0.000000e+00
   outer loop
     vertex -1.294003e-01  7.082209e-03  9.206922e-01
     vertex -1.294003e-01  7.369012e-03  9.217343e-01
     vertex -1.294003e-01  7.655816e-03  9.207763e-01
   endloop
 endfacet
 facet normal -1.000000e+00  0.000000e+00  0.000000e+00
   outer loop
     vertex -1.294003e-01  8.614298e-03  9.214067e-01
     vertex -1.294003e-01  7.848254e-03  9.220495e-01
     vertex -1.294003e-01  8.491041e-03  9.228155e-01
   endloop
 endfacet
 facet normal -1.000000e+00  0.000000e+00  0.000000e+00
   outer loop
     vertex -1.294003e-01  8.614298e-03  9.214067e-01
     vertex -1.294003e-01  8.491041e-03  9.228155e-01
     vertex -1.294003e-01  9.257086e-03  9.221727e-01
   endloop
 endfacet
 facet normal  0.000000e+00  6.427876e-01  7.660444e-01
   outer loop
     vertex -1.294003e-01  9.257086e-03  9.221727e-01
     vertex -1.294003e-01  8.491041e-03  9.228155e-01
     vertex -1.291323e-01  8.491041e-03  9.228155e-01
   endloop
 endfacet
 facet normal -7.810397e-11  6.427876e-01  7.660444e-01
   outer loop
     vertex -1.294003e-01  9.257086e-03  9.221727e-01
     vertex -1.291323e-01  8.491041e-03  9.228155e-01
     vertex -1.286858e-01  8.898645e-03  9.224735e-01
   endloop
 endfacet
 facet normal -4.391995e-11  6.427876e-01  7.660444e-01
   outer loop
     vertex -1.294003e-01  9.257086e-03  9.221727e-01
     vertex -1.286858e-01  8.898645e-03  9.224735e-01
     vertex -1.280843e-01  9.164689e-03  9.222502e-01
   endloop
 endfacet
 facet normal -0.000000e+00  6.427876e-01  7.660444e-01
   outer loop
     vertex -1.294003e-01  9.257086e-03  9.221727e-01
     vertex -1.280843e-01  9.164689e-03  9.222502e-01
     vertex -1.274003e-01  9.257086e-03  9.221727e-01
   endloop
 endfacet
 facet normal  0.000000e+00 -6.427876e-01 -7.660444e-01
   outer loop
     vertex -1.293699e-01  7.991041e-03  9.232350e-01
     vertex -1.284003e-01  7.724997e-03  9.234583e-01
     vertex -1.294003e-01  7.724997e-03  9.234583e-01
   endloop
 endfacet
 facet normal  4.952148e-11 -6.427876e-01 -7.660444e-01
   outer loop
     vertex -1.292797e-01  8.249002e-03  9.230186e-01
     vertex -1.282663e-01  8.108019e-03  9.231369e-01
     vertex -1.284003e-01  7.724997e-03  9.234583e-01
   endloop
 endfacet
 facet normal -2.594347e-11 -6.427876e-01 -7.660444e-01
   outer loop
     vertex -1.292797e-01  8.249002e-03  9.230186e-01
     vertex -1.284003e-01  7.724997e-03  9.234583e-01
     vertex -1.293699e-01  7.991041e-03  9.232350e-01
   endloop
 endfacet
 facet normal  2.792800e-12 -6.427876e-01 -7.660444e-01
   outer loop
     vertex -1.291323e-01  8.491041e-03  9.228155e-01
     vertex -1.279003e-01  8.388411e-03  9.229016e-01
     vertex -1.282663e-01  8.108019e-03  9.231369e-01
   endloop
 endfacet
 facet normal  7.576408e-11 -6.427876e-01 -7.660444e-01
   outer loop
     vertex -1.291323e-01  8.491041e-03  9.228155e-01
     vertex -1.282663e-01  8.108019e-03  9.231369e-01
     vertex -1.292797e-01  8.249002e-03  9.230186e-01
   endloop
 endfacet
 facet normal -0.000000e+00 -6.427876e-01 -7.660444e-01
   outer loop
     vertex -1.274003e-01  8.491041e-03  9.228155e-01
     vertex -1.279003e-01  8.388411e-03  9.229016e-01
     vertex -1.291323e-01  8.491041e-03  9.228155e-01
   endloop
 endfacet
 facet normal  0.000000e+00 -6.427876e-01 -7.660444e-01
   outer loop
     vertex -1.294003e-01 -1.366986e-02  9.414107e-01
     vertex -1.294003e-01  7.724997e-03  9.234583e-01
     vertex -1.284003e-01  7.724997e-03  9.234583e-01
   endloop
 endfacet
 facet normal  0.000000e+00 -6.427876e-01 -7.660444e-01
   outer loop
     vertex -1.294003e-01 -1.366986e-02  9.414107e-01
     vertex -1.284003e-01  7.724997e-03  9.234583e-01
     vertex -1.284003e-01 -1.366986e-02  9.414107e-01
   endloop
 endfacet
 facet normal -1.000000e+00  0.000000e+00  0.000000e+00
   outer loop
     vertex -1.294003e-01 -1.366986e-02  9.414107e-01
     vertex -1.294003e-01  1.664441e-01  1.112612e+00
     vertex -1.294003e-01  7.724997e-03  9.234583e-01
   endloop
 endfacet
 facet normal -1.000000e+00  0.000000e+00  0.000000e+00
   outer loop
     vertex -1.294003e-01 -1.366986e-02  9.414107e-01
     vertex -1.294003e-01  1.664441e-01  1.156062e+00
     vertex -1.294003e-01  1.664441e-01  1.112612e+00
   endloop
 endfacet
 facet normal  0.000000e+00  1.000000e+00  0.000000e+00
   outer loop
     vertex -1.284003e-01  1.664441e-01  1.155693e+00
     vertex -1.284003e-01  1.664441e-01  1.112612e+00
     vertex -1.294003e-01  1.664441e-01  1.112612e+00
   endloop
 endfacet
 facet normal  0.000000e+00  1.000000e+00  0.000000e+00
   outer loop
     vertex -1.284003e-01  1.664441e-01  1.155693e+00
     vertex -1.294003e-01  1.664441e-01  1.112612e+00
     vertex -1.294003e-01  1.664441e-01  1.156062e+00
   endloop
 endfacet
 facet normal  0.000000e+00  1.000000e+00  0.000000e+00
   outer loop
     vertex -1.284003e-01  1.664441e-01  1.156062e+00
     vertex -1.284003e-01  1.664441e-01  1.155693e+00
     vertex -1.294003e-01  1.664441e-01  1.156062e+00
   endloop
 endfacet
 facet normal  1.000000e+00 -0.000000e+00  0.000000e+00
   outer loop
     vertex -1.284003e-01 -1.366986e-02  9.414107e-01
     vertex -1.284003e-01  7.724997e-03  9.234583e-01
     vertex -1.284003e-01  1.664441e-01  1.112612e+00
   endloop
 endfacet
 facet normal  1.000000e+00  0.000000e+00  0.000000e+00
   outer loop
     vertex -1.284003e-01 -1.366986e-02  9.414107e-01
     vertex -1.284003e-01  1.664441e-01  1.155693e+00
     vertex -1.284003e-01  1.664441e-01  1.156062e+00
   endloop
 endfacet
 facet normal  1.000000e+00  0.000000e+00  0.000000e+00
   outer loop
     vertex -1.284003e-01 -1.366986e-02  9.414107e-01
     vertex -1.284003e-01  1.664441e-01  1.112612e+00
     vertex -1.284003e-01  1.664441e-01  1.155693e+00
   endloop
 endfacet
 facet normal  0.000000e+00 -7.660444e-01  6.427876e-01
   outer loop
     vertex -1.284003e-01  1.664441e-01  1.156062e+00
     vertex -1.294003e-01 -1.366986e-02  9.414107e-01
     vertex -1.284003e-01 -1.366986e-02  9.414107e-01
   endloop
 endfacet
 facet normal  0.000000e+00 -7.660444e-01  6.427876e-01
   outer loop
     vertex -1.284003e-01  1.664441e-01  1.156062e+00
     vertex -1.294003e-01  1.664441e-01  1.156062e+00
     vertex -1.294003e-01 -1.366986e-02  9.414107e-01
   endloop
 endfacet
 facet normal  0.000000e+00 -1.449319e-01  9.894416e-01
   outer loop
     vertex  9.059973e-02  7.369012e-03  9.217343e-01
     vertex -1.294003e-01  7.082209e-03  9.216922e-01
     vertex  9.059973e-02  7.082209e-03  9.216922e-01
   endloop
 endfacet
 facet normal  0.000000e+00 -1.449319e-01  9.894416e-01
   outer loop
     vertex  9.059973e-02  7.369012e-03  9.217343e-01
     vertex -1.294003e-01  7.369012e-03  9.217343e-01
     vertex -1.294003e-01  7.082209e-03  9.216922e-01
   endloop
 endfacet
 facet normal -3.412367e-15 -4.226183e-01  9.063078e-01
   outer loop
     vertex  9.059973e-02  7.631718e-03  9.218568e-01
     vertex -1.294003e-01  7.631718e-03  9.218568e-01
     vertex -1.294003e-01  7.369012e-03  9.217343e-01
   endloop
 endfacet
 facet normal  0.000000e+00 -4.226183e-01  9.063078e-01
   outer loop
     vertex  9.059973e-02  7.631718e-03  9.218568e-01
     vertex -1.294003e-01  7.369012e-03  9.217343e-01
     vertex  9.059973e-02  7.369012e-03  9.217343e-01
   endloop
 endfacet
 facet normal  0.000000e+00 -6.647959e-01  7.470251e-01
   outer loop
     vertex  9.059973e-02  7.848254e-03  9.220495e-01
     vertex -1.294003e-01  7.848254e-03  9.220495e-01
     vertex -1.294003e-01  7.631718e-03  9.218568e-01
   endloop
 endfacet
 facet normal -5.367735e-15 -6.647959e-01  7.470251e-01
   outer loop
     vertex  9.059973e-02  7.848254e-03  9.220495e-01
     vertex -1.294003e-01  7.631718e-03  9.218568e-01
     vertex  9.059973e-02  7.631718e-03  9.218568e-01
   endloop
 endfacet
 facet normal  0.000000e+00  0.000000e+00  1.000000e+00
   outer loop
     vertex -1.294003e-01  6.082209e-03  9.216922e-01
     vertex  9.059973e-02  7.082209e-03  9.216922e-01
     vertex -1.294003e-01  7.082209e-03  9.216922e-01
   endloop
 endfacet
 facet normal  0.000000e+00  0.000000e+00  1.000000e+00
   outer loop
     vertex -1.294003e-01  6.082209e-03  9.216922e-01
     vertex  9.059973e-02  6.082209e-03  9.216922e-01
     vertex  9.059973e-02  7.082209e-03  9.216922e-01
   endloop
 endfacet
 facet normal  0.000000e+00  0.000000e+00  1.000000e+00
   outer loop
     vertex -1.294003e-01 -2.392082e-01  9.216922e-01
     vertex  9.059973e-02 -2.392082e-01  9.216922e-01
     vertex  9.059973e-02  6.082209e-03  9.216922e-01
   endloop
 endfacet
 facet normal  0.000000e+00  0.000000e+00  1.000000e+00
   outer loop
     vertex -1.294003e-01 -2.392082e-01  9.216922e-01
     vertex  9.059973e-02  6.082209e-03  9.216922e-01
     vertex -1.294003e-01  6.082209e-03  9.216922e-01
   endloop
 endfacet
 facet normal  0.000000e+00  7.071068e-01  7.071068e-01
   outer loop
     vertex  9.059973e-02 -2.392082e-01  9.216922e-01
     vertex -1.304003e-01 -2.402082e-01  9.226922e-01
     vertex  9.159973e-02 -2.402082e-01  9.226922e-01
   endloop
 endfacet
 facet normal  0.000000e+00  7.071068e-01  7.071068e-01
   outer loop
     vertex  9.059973e-02 -2.392082e-01  9.216922e-01
     vertex -1.294003e-01 -2.392082e-01  9.216922e-01
     vertex -1.304003e-01 -2.402082e-01  9.226922e-01
   endloop
 endfacet
 facet normal  8.944272e-01  4.472136e-01  0.000000e+00
   outer loop
     vertex  9.159973e-02 -2.412082e-01  9.226922e-01
     vertex  9.059973e-02 -2.392082e-01  9.206922e-01
     vertex  9.059973e-02 -2.392082e-01  9.216922e-01
   endloop
 endfacet
 facet normal  7.071068e-01  0.000000e+00 -7.071068e-01
   outer loop
     vertex  9.159973e-02 -2.402082e-01  9.226922e-01
     vertex  9.159973e-02 -2.412082e-01  9.226922e-01
     vertex  9.059973e-02 -2.392082e-01  9.216922e-01
   endloop
 endfacet
 facet normal  0.000000e+00 -7.071068e-01 -7.071068e-01
   outer loop
     vertex  9.059973e-02 -2.392082e-01  9.206922e-01
     vertex  9.159973e-02 -2.412082e-01  9.226922e-01
     vertex -1.304003e-01 -2.412082e-01  9.226922e-01
   endloop
 endfacet
 facet normal -0.000000e+00 -7.071068e-01 -7.071068e-01
   outer loop
     vertex  9.059973e-02 -2.392082e-01  9.206922e-01
     vertex -1.304003e-01 -2.412082e-01  9.226922e-01
     vertex -1.294003e-01 -2.392082e-01  9.206922e-01
   endloop
 endfacet
 facet normal  0.000000e+00  0.000000e+00 -1.000000e+00
   outer loop
     vertex -1.294003e-01  6.082209e-03  9.206922e-01
     vertex -1.294003e-01  7.082209e-03  9.206922e-01
     vertex  9.059973e-02  7.082209e-03  9.206922e-01
   endloop
 endfacet
 facet normal  0.000000e+00  0.000000e+00 -1.000000e+00
   outer loop
     vertex -1.294003e-01  6.082209e-03  9.206922e-01
     vertex  9.059973e-02  7.082209e-03  9.206922e-01
     vertex  9.059973e-02  6.082209e-03  9.206922e-01
   endloop
 endfacet
 facet normal  0.000000e+00  0.000000e+00 -1.000000e+00
   outer loop
     vertex -1.294003e-01 -2.392082e-01  9.206922e-01
     vertex  9.059973e-02  6.082209e-03  9.206922e-01
     vertex  9.059973e-02 -2.392082e-01  9.206922e-01
   endloop
 endfacet
 facet normal  0.000000e+00  0.000000e+00 -1.000000e+00
   outer loop
     vertex -1.294003e-01 -2.392082e-01  9.206922e-01
     vertex -1.294003e-01  6.082209e-03  9.206922e-01
     vertex  9.059973e-02  6.082209e-03  9.206922e-01
   endloop
 endfacet
 facet normal  7.065789e-01 -2.104442e-03 -7.076311e-01
   outer loop
     vertex  9.233178e-02  6.082209e-03  9.216922e-01
     vertex  9.259973e-02 -2.402082e-01  9.226922e-01
     vertex  9.059973e-02 -2.392082e-01  9.206922e-01
   endloop
 endfacet
 facet normal  9.659258e-01  0.000000e+00 -2.588190e-01
   outer loop
     vertex  9.233178e-02  6.082209e-03  9.216922e-01
     vertex  9.259973e-02  6.082209e-03  9.226922e-01
     vertex  9.259973e-02 -2.402082e-01  9.226922e-01
   endloop
 endfacet
 facet normal  7.071052e-01 -2.110303e-03 -7.071052e-01
   outer loop
     vertex  9.159973e-02  6.082209e-03  9.209602e-01
     vertex  9.233178e-02  6.082209e-03  9.216922e-01
     vertex  9.059973e-02 -2.392082e-01  9.206922e-01
   endloop
 endfacet
 facet normal  2.588190e-01  0.000000e+00 -9.659258e-01
   outer loop
     vertex  9.059973e-02  6.082209e-03  9.206922e-01
     vertex  9.159973e-02  6.082209e-03  9.209602e-01
     vertex  9.059973e-02 -2.392082e-01  9.206922e-01
   endloop
 endfacet
 facet normal  0.000000e+00 -8.944272e-01 -4.472136e-01
   outer loop
     vertex  9.159973e-02 -2.402082e-01  9.226922e-01
     vertex  9.059973e-02 -2.392082e-01  9.206922e-01
     vertex  9.259973e-02 -2.402082e-01  9.226922e-01
   endloop
 endfacet
 facet normal -7.071068e-01 -7.071068e-01  0.000000e+00
   outer loop
     vertex  9.159973e-02 -2.402082e-01  9.226922e-01
     vertex  9.059973e-02 -2.392082e-01  9.216922e-01
     vertex  9.059973e-02 -2.392082e-01  9.206922e-01
   endloop
 endfacet
 facet normal -9.659258e-01  0.000000e+00  2.588190e-01
   outer loop
     vertex  9.146576e-02  6.082209e-03  9.221922e-01
     vertex  9.159973e-02 -2.402082e-01  9.226922e-01
     vertex  9.159973e-02  6.082209e-03  9.226922e-01
   endloop
 endfacet
 facet normal -7.065801e-01  1.052223e-03  7.076323e-01
   outer loop
     vertex  9.146576e-02  6.082209e-03  9.221922e-01
     vertex  9.059973e-02 -2.392082e-01  9.216922e-01
     vertex  9.159973e-02 -2.402082e-01  9.226922e-01
   endloop
 endfacet
 facet normal -7.071064e-01  1.055153e-03  7.071064e-01
   outer loop
     vertex  9.109973e-02  6.082209e-03  9.218262e-01
     vertex  9.059973e-02 -2.392082e-01  9.216922e-01
     vertex  9.146576e-02  6.082209e-03  9.221922e-01
   endloop
 endfacet
 facet normal -2.588190e-01  0.000000e+00  9.659258e-01
   outer loop
     vertex  9.059973e-02  6.082209e-03  9.216922e-01
     vertex  9.059973e-02 -2.392082e-01  9.216922e-01
     vertex  9.109973e-02  6.082209e-03  9.218262e-01
   endloop
 endfacet
 facet normal  0.000000e+00  1.000000e+00  0.000000e+00
   outer loop
     vertex  9.059973e-02  6.082209e-03  9.206922e-01
     vertex  9.059973e-02  6.082209e-03  9.216922e-01
     vertex  9.109973e-02  6.082209e-03  9.218262e-01
   endloop
 endfacet
 facet normal  0.000000e+00  1.000000e+00  0.000000e+00
   outer loop
     vertex  9.159973e-02  6.082209e-03  9.209602e-01
     vertex  9.109973e-02  6.082209e-03  9.218262e-01
     vertex  9.146576e-02  6.082209e-03  9.221922e-01
   endloop
 endfacet
 facet normal  0.000000e+00  1.000000e+00  0.000000e+00
   outer loop
     vertex  9.159973e-02  6.082209e-03  9.209602e-01
     vertex  9.059973e-02  6.082209e-03  9.206922e-01
     vertex  9.109973e-02  6.082209e-03  9.218262e-01
   endloop
 endfacet
 facet normal  0.000000e+00  1.000000e+00 -0.000000e+00
   outer loop
     vertex  9.233178e-02  6.082209e-03  9.216922e-01
     vertex  9.159973e-02  6.082209e-03  9.226922e-01
     vertex  9.259973e-02  6.082209e-03  9.226922e-01
   endloop
 endfacet
 facet normal  0.000000e+00  1.000000e+00  0.000000e+00
   outer loop
     vertex  9.233178e-02  6.082209e-03  9.216922e-01
     vertex  9.146576e-02  6.082209e-03  9.221922e-01
     vertex  9.159973e-02  6.082209e-03  9.226922e-01
   endloop
 endfacet
 facet normal  0.000000e+00  1.000000e+00  0.000000e+00
   outer loop
     vertex  9.233178e-02  6.082209e-03  9.216922e-01
     vertex  9.159973e-02  6.082209e-03  9.209602e-01
     vertex  9.146576e-02  6.082209e-03  9.221922e-01
   endloop
 endfacet
 facet normal  0.000000e+00  1.000000e+00  0.000000e+00
   outer loop
     vertex  9.259973e-02  6.082209e-03  9.506212e-01
     vertex  9.259973e-02  6.082209e-03  9.226922e-01
     vertex  9.159973e-02  6.082209e-03  9.226922e-01
   endloop
 endfacet
 facet normal  0.000000e+00  1.000000e+00  0.000000e+00
   outer loop
     vertex  9.259973e-02  6.082209e-03  9.506212e-01
     vertex  9.159973e-02  6.082209e-03  9.226922e-01
     vertex  9.159973e-02  6.082209e-03  9.506212e-01
   endloop
 endfacet
 facet normal  1.000000e+00  0.000000e+00  0.000000e+00
   outer loop
     vertex  9.259973e-02  6.082209e-03  9.226922e-01
     vertex  9.259973e-02 -2.402082e-01  9.506212e-01
     vertex  9.259973e-02 -2.402082e-01  9.226922e-01
   endloop
 endfacet
 facet normal  1.000000e+00  0.000000e+00  0.000000e+00
   outer loop
     vertex  9.259973e-02  6.082209e-03  9.506212e-01
     vertex  9.259973e-02 -2.402082e-01  9.506212e-01
     vertex  9.259973e-02  6.082209e-03  9.226922e-01
   endloop
 endfacet
 facet normal  0.000000e+00 -1.000000e+00 -0.000000e+00
   outer loop
     vertex  9.259973e-02 -2.402082e-01  9.506212e-01
     vertex  9.159973e-02 -2.402082e-01  9.226922e-01
     vertex  9.259973e-02 -2.402082e-01  9.226922e-01
   endloop
 endfacet
 facet normal -0.000000e+00 -1.000000e+00  0.000000e+00
   outer loop
     vertex  9.259973e-02 -2.402082e-01  9.506212e-01
     vertex  9.159973e-02 -2.402082e-01  9.506212e-01
     vertex  9.159973e-02 -2.402082e-01  9.226922e-01
   endloop
 endfacet
 facet normal -1.000000e+00  0.000000e+00  0.000000e+00
   outer loop
     vertex  9.159973e-02  6.082209e-03  9.226922e-01
     vertex  9.159973e-02 -2.402082e-01  9.226922e-01
     vertex  9.159973e-02 -2.402082e-01  9.506212e-01
   endloop
 endfacet
 facet normal -1.000000e+00 -0.000000e+00 -0.000000e+00
   outer loop
     vertex  9.159973e-02  6.082209e-03  9.506212e-01
     vertex  9.159973e-02  6.082209e-03  9.226922e-01
     vertex  9.159973e-02 -2.402082e-01  9.506212e-01
   endloop
 endfacet
 facet normal  0.000000e+00 -0.000000e+00  1.000000e+00
   outer loop
     vertex  9.259973e-02 -2.402082e-01  9.506212e-01
     vertex  9.259973e-02  6.082209e-03  9.506212e-01
     vertex  9.159973e-02  6.082209e-03  9.506212e-01
   endloop
 endfacet
 facet normal  0.000000e+00  0.000000e+00  1.000000e+00
   outer loop
     vertex  9.259973e-02 -2.402082e-01  9.506212e-01
     vertex  9.159973e-02  6.082209e-03  9.506212e-01
     vertex  9.159973e-02 -2.402082e-01  9.506212e-01
   endloop
 endfacet
 facet normal  1.000000e+00  0.000000e+00  0.000000e+00
   outer loop
     vertex  9.059973e-02  6.082209e-03  9.206922e-01
     vertex  9.059973e-02  7.082209e-03  9.206922e-01
     vertex  9.059973e-02  7.082209e-03  9.216922e-01
   endloop
 endfacet
 facet normal  1.000000e+00  0.000000e+00  0.000000e+00
   outer loop
     vertex  9.059973e-02  6.082209e-03  9.206922e-01
     vertex  9.059973e-02  7.082209e-03  9.216922e-01
     vertex  9.059973e-02  6.082209e-03  9.216922e-01
   endloop
 endfacet
 facet normal -1.000000e+00  0.000000e+00  0.000000e+00
   outer loop
     vertex -1.294003e-01  6.082209e-03  9.206922e-01
     vertex -1.294003e-01  7.082209e-03  9.216922e-01
     vertex -1.294003e-01  7.082209e-03  9.206922e-01
   endloop
 endfacet
 facet normal -1.000000e+00  0.000000e+00  0.000000e+00
   outer loop
     vertex -1.294003e-01  6.082209e-03  9.206922e-01
     vertex -1.294003e-01  6.082209e-03  9.216922e-01
     vertex -1.294003e-01  7.082209e-03  9.216922e-01
   endloop
 endfacet
 facet normal  0.000000e+00  1.000000e+00 -0.000000e+00
   outer loop
     vertex -1.294003e-01  6.082209e-03  9.206922e-01
     vertex -1.299003e-01  6.082209e-03  9.218262e-01
     vertex -1.294003e-01  6.082209e-03  9.216922e-01
   endloop
 endfacet
 facet normal -0.000000e+00  1.000000e+00  0.000000e+00
   outer loop
     vertex -1.304003e-01  6.082209e-03  9.209602e-01
     vertex -1.299003e-01  6.082209e-03  9.218262e-01
     vertex -1.294003e-01  6.082209e-03  9.206922e-01
   endloop
 endfacet
 facet normal  0.000000e+00  1.000000e+00 -0.000000e+00
   outer loop
     vertex -1.311323e-01  6.082209e-03  9.216922e-01
     vertex -1.314003e-01  6.082209e-03  9.226922e-01
     vertex -1.304003e-01  6.082209e-03  9.226922e-01
   endloop
 endfacet
 facet normal  0.000000e+00  1.000000e+00  0.000000e+00
   outer loop
     vertex -1.311323e-01  6.082209e-03  9.216922e-01
     vertex -1.304003e-01  6.082209e-03  9.226922e-01
     vertex -1.302663e-01  6.082209e-03  9.221922e-01
   endloop
 endfacet
 facet normal  0.000000e+00  1.000000e+00  0.000000e+00
   outer loop
     vertex -1.311323e-01  6.082209e-03  9.216922e-01
     vertex -1.302663e-01  6.082209e-03  9.221922e-01
     vertex -1.299003e-01  6.082209e-03  9.218262e-01
   endloop
 endfacet
 facet normal -0.000000e+00  1.000000e+00  0.000000e+00
   outer loop
     vertex -1.311323e-01  6.082209e-03  9.216922e-01
     vertex -1.299003e-01  6.082209e-03  9.218262e-01
     vertex -1.304003e-01  6.082209e-03  9.209602e-01
   endloop
 endfacet
 facet normal -9.659258e-01  0.000000e+00 -2.588190e-01
   outer loop
     vertex -1.314003e-01 -2.402082e-01  9.226922e-01
     vertex -1.314003e-01  6.082209e-03  9.226922e-01
     vertex -1.311323e-01  6.082209e-03  9.216922e-01
   endloop
 endfacet
 facet normal -2.588190e-01  0.000000e+00 -9.659258e-01
   outer loop
     vertex -1.294003e-01 -2.392082e-01  9.206922e-01
     vertex -1.304003e-01  6.082209e-03  9.209602e-01
     vertex -1.294003e-01  6.082209e-03  9.206922e-01
   endloop
 endfacet
 facet normal -7.071052e-01 -2.110303e-03 -7.071052e-01
   outer loop
     vertex -1.294003e-01 -2.392082e-01  9.206922e-01
     vertex -1.311323e-01  6.082209e-03  9.216922e-01
     vertex -1.304003e-01  6.082209e-03  9.209602e-01
   endloop
 endfacet
 facet normal -7.065789e-01 -2.104442e-03 -7.076311e-01
   outer loop
     vertex -1.294003e-01 -2.392082e-01  9.206922e-01
     vertex -1.314003e-01 -2.402082e-01  9.226922e-01
     vertex -1.311323e-01  6.082209e-03  9.216922e-01
   endloop
 endfacet
 facet normal  4.472136e-01 -8.944272e-01  0.000000e+00
   outer loop
     vertex -1.314003e-01 -2.402082e-01  9.226922e-01
     vertex -1.294003e-01 -2.392082e-01  9.206922e-01
     vertex -1.294003e-01 -2.392082e-01  9.216922e-01
   endloop
 endfacet
 facet normal -0.000000e+00 -7.071068e-01 -7.071068e-01
   outer loop
     vertex -1.304003e-01 -2.402082e-01  9.226922e-01
     vertex -1.314003e-01 -2.402082e-01  9.226922e-01
     vertex -1.294003e-01 -2.392082e-01  9.216922e-01
   endloop
 endfacet
 facet normal  0.000000e+00 -1.000000e+00  0.000000e+00
   outer loop
     vertex -1.314003e-01 -2.402082e-01  9.506212e-01
     vertex -1.314003e-01 -2.402082e-01  9.226922e-01
     vertex -1.304003e-01 -2.402082e-01  9.226922e-01
   endloop
 endfacet
 facet normal  0.000000e+00 -1.000000e+00  0.000000e+00
   outer loop
     vertex -1.314003e-01 -2.402082e-01  9.506212e-01
     vertex -1.304003e-01 -2.402082e-01  9.226922e-01
     vertex -1.304003e-01 -2.402082e-01  9.506212e-01
   endloop
 endfacet
 facet normal -1.000000e+00  0.000000e+00  0.000000e+00
   outer loop
     vertex -1.314003e-01 -2.402082e-01  9.226922e-01
     vertex -1.314003e-01  6.082209e-03  9.506212e-01
     vertex -1.314003e-01  6.082209e-03  9.226922e-01
   endloop
 endfacet
 facet normal -1.000000e+00  0.000000e+00  0.000000e+00
   outer loop
     vertex -1.314003e-01 -2.402082e-01  9.506212e-01
     vertex -1.314003e-01  6.082209e-03  9.506212e-01
     vertex -1.314003e-01 -2.402082e-01  9.226922e-01
   endloop
 endfacet
 facet normal  0.000000e+00  1.000000e+00  0.000000e+00
   outer loop
     vertex -1.314003e-01  6.082209e-03  9.226922e-01
     vertex -1.314003e-01  6.082209e-03  9.506212e-01
     vertex -1.304003e-01  6.082209e-03  9.506212e-01
   endloop
 endfacet
 facet normal  0.000000e+00  1.000000e+00  0.000000e+00
   outer loop
     vertex -1.314003e-01  6.082209e-03  9.226922e-01
     vertex -1.304003e-01  6.082209e-03  9.506212e-01
     vertex -1.304003e-01  6.082209e-03  9.226922e-01
   endloop
 endfacet
 facet normal  1.000000e+00 -0.000000e+00  0.000000e+00
   outer loop
     vertex -1.304003e-01 -2.402082e-01  9.506212e-01
     vertex -1.304003e-01  6.082209e-03  9.226922e-01
     vertex -1.304003e-01  6.082209e-03  9.506212e-01
   endloop
 endfacet
 facet normal  1.000000e+00  0.000000e+00  0.000000e+00
   outer loop
     vertex -1.304003e-01 -2.402082e-01  9.506212e-01
     vertex -1.304003e-01 -2.402082e-01  9.226922e-01
     vertex -1.304003e-01  6.082209e-03  9.226922e-01
   endloop
 endfacet
 facet normal  0.000000e+00  0.000000e+00  1.000000e+00
   outer loop
     vertex -1.314003e-01  6.082209e-03  9.506212e-01
     vertex -1.314003e-01 -2.402082e-01  9.506212e-01
     vertex -1.304003e-01 -2.402082e-01  9.506212e-01
   endloop
 endfacet
 facet normal -0.000000e+00  0.000000e+00  1.000000e+00
   outer loop
     vertex -1.314003e-01  6.082209e-03  9.506212e-01
     vertex -1.304003e-01 -2.402082e-01  9.506212e-01
     vertex -1.304003e-01  6.082209e-03  9.506212e-01
   endloop
 endfacet
 facet normal  9.659258e-01 -0.000000e+00  2.588190e-01
   outer loop
     vertex -1.304003e-01 -2.402082e-01  9.226922e-01
     vertex -1.302663e-01  6.082209e-03  9.221922e-01
     vertex -1.304003e-01  6.082209e-03  9.226922e-01
   endloop
 endfacet
 facet normal  7.071064e-01  1.055153e-03  7.071064e-01
   outer loop
     vertex -1.294003e-01 -2.392082e-01  9.216922e-01
     vertex -1.299003e-01  6.082209e-03  9.218262e-01
     vertex -1.302663e-01  6.082209e-03  9.221922e-01
   endloop
 endfacet
 facet normal  2.588190e-01 -0.000000e+00  9.659258e-01
   outer loop
     vertex -1.294003e-01 -2.392082e-01  9.216922e-01
     vertex -1.294003e-01  6.082209e-03  9.216922e-01
     vertex -1.299003e-01  6.082209e-03  9.218262e-01
   endloop
 endfacet
 facet normal  7.065801e-01  1.052223e-03  7.076323e-01
   outer loop
     vertex -1.294003e-01 -2.392082e-01  9.216922e-01
     vertex -1.302663e-01  6.082209e-03  9.221922e-01
     vertex -1.304003e-01 -2.402082e-01  9.226922e-01
   endloop
 endfacet
 facet normal -8.944272e-01 -0.000000e+00 -4.472136e-01
   outer loop
     vertex -1.304003e-01 -2.402082e-01  9.226922e-01
     vertex -1.294003e-01 -2.392082e-01  9.206922e-01
     vertex -1.304003e-01 -2.412082e-01  9.226922e-01
   endloop
 endfacet
 facet normal -7.071068e-01  7.071068e-01  0.000000e+00
   outer loop
     vertex -1.304003e-01 -2.402082e-01  9.226922e-01
     vertex -1.294003e-01 -2.392082e-01  9.216922e-01
     vertex -1.294003e-01 -2.392082e-01  9.206922e-01
   endloop
 endfacet
 facet normal -1.000000e+00  0.000000e+00  0.000000e+00
   outer loop
     vertex -1.304003e-01 -2.412082e-01  9.506212e-01
     vertex -1.304003e-01 -2.402082e-01  9.226922e-01
     vertex -1.304003e-01 -2.412082e-01  9.226922e-01
   endloop
 endfacet
 facet normal -1.000000e+00  0.000000e+00  0.000000e+00
   outer loop
     vertex -1.304003e-01 -2.412082e-01  9.506212e-01
     vertex -1.304003e-01 -2.402082e-01  9.506212e-01
     vertex -1.304003e-01 -2.402082e-01  9.226922e-01
   endloop
 endfacet
 facet normal  0.000000e+00 -1.000000e+00  0.000000e+00
   outer loop
     vertex  9.159973e-02 -2.412082e-01  9.226922e-01
     vertex -1.304003e-01 -2.412082e-01  9.506212e-01
     vertex -1.304003e-01 -2.412082e-01  9.226922e-01
   endloop
 endfacet
 facet normal -0.000000e+00 -1.000000e+00 -0.000000e+00
   outer loop
     vertex  9.159973e-02 -2.412082e-01  9.506212e-01
     vertex -1.304003e-01 -2.412082e-01  9.506212e-01
     vertex  9.159973e-02 -2.412082e-01  9.226922e-01
   endloop
 endfacet
 facet normal  1.000000e+00  0.000000e+00  0.000000e+00
   outer loop
     vertex  9.159973e-02 -2.412082e-01  9.506212e-01
     vertex  9.159973e-02 -2.412082e-01  9.226922e-01
     vertex  9.159973e-02 -2.402082e-01  9.226922e-01
   endloop
 endfacet
 facet normal  1.000000e+00 -0.000000e+00  0.000000e+00
   outer loop
     vertex  9.159973e-02 -2.412082e-01  9.506212e-01
     vertex  9.159973e-02 -2.402082e-01  9.226922e-01
     vertex  9.159973e-02 -2.402082e-01  9.506212e-01
   endloop
 endfacet
 facet normal  0.000000e+00  0.000000e+00  1.000000e+00
   outer loop
     vertex -1.304003e-01 -2.412082e-01  9.506212e-01
     vertex  9.159973e-02 -2.412082e-01  9.506212e-01
     vertex  9.159973e-02 -2.402082e-01  9.506212e-01
   endloop
 endfacet
 facet normal  0.000000e+00  0.000000e+00  1.000000e+00
   outer loop
     vertex -1.304003e-01 -2.412082e-01  9.506212e-01
     vertex  9.159973e-02 -2.402082e-01  9.506212e-01
     vertex -1.304003e-01 -2.402082e-01  9.506212e-01
   endloop
 endfacet
 facet normal  0.000000e+00  1.000000e+00  0.000000e+00
   outer loop
     vertex  9.159973e-02 -2.402082e-01  9.506212e-01
     vertex -1.304003e-01 -2.402082e-01  9.226922e-01
     vertex -1.304003e-01 -2.402082e-01  9.506212e-01
   endloop
 endfacet
 facet normal  0.000000e+00  1.000000e+00  0.000000e+00
   outer loop
     vertex  9.159973e-02 -2.402082e-01  9.506212e-01
     vertex  9.159973e-02 -2.402082e-01  9.226922e-01
     vertex -1.304003e-01 -2.402082e-01  9.226922e-01
   endloop
 endfacet
 facet normal  0.000000e+00 -6.427876e-01 -7.660444e-01
   outer loop
     vertex  9.059973e-02  7.724997e-03  9.234583e-01
     vertex  9.059973e-02 -1.366986e-02  9.414107e-01
     vertex  8.959973e-02 -1.366986e-02  9.414107e-01
   endloop
 endfacet
 facet normal -0.000000e+00 -6.427876e-01 -7.660444e-01
   outer loop
     vertex  9.059973e-02  7.724997e-03  9.234583e-01
     vertex  8.959973e-02 -1.366986e-02  9.414107e-01
     vertex  8.959973e-02  7.724997e-03  9.234583e-01
   endloop
 endfacet
 facet normal  1.000000e+00  0.000000e+00  0.000000e+00
   outer loop
     vertex  9.059973e-02  1.664441e-01  1.112612e+00
     vertex  9.059973e-02 -1.366986e-02  9.414107e-01
     vertex  9.059973e-02  7.724997e-03  9.234583e-01
   endloop
 endfacet
 facet normal  1.000000e+00  0.000000e+00  0.000000e+00
   outer loop
     vertex  9.059973e-02  1.664441e-01  1.156062e+00
     vertex  9.059973e-02 -1.366986e-02  9.414107e-01
     vertex  9.059973e-02  1.664441e-01  1.112612e+00
   endloop
 endfacet
 facet normal  0.000000e+00  1.000000e+00  0.000000e+00
   outer loop
     vertex  8.959973e-02  1.664441e-01  1.155693e+00
     vertex  9.059973e-02  1.664441e-01  1.112612e+00
     vertex  8.959973e-02  1.664441e-01  1.112612e+00
   endloop
 endfacet
 facet normal -0.000000e+00  1.000000e+00  0.000000e+00
   outer loop
     vertex  8.959973e-02  1.664441e-01  1.155693e+00
     vertex  9.059973e-02  1.664441e-01  1.156062e+00
     vertex  9.059973e-02  1.664441e-01  1.112612e+00
   endloop
 endfacet
 facet normal -0.000000e+00  1.000000e+00  0.000000e+00
   outer loop
     vertex  8.959973e-02  1.664441e-01  1.156062e+00
     vertex  9.059973e-02  1.664441e-01  1.156062e+00
     vertex  8.959973e-02  1.664441e-01  1.155693e+00
   endloop
 endfacet
 facet normal -1.000000e+00  0.000000e+00  0.000000e+00
   outer loop
     vertex  8.959973e-02  1.664441e-01  1.112612e+00
     vertex  8.959973e-02  7.724997e-03  9.234583e-01
     vertex  8.959973e-02 -1.366986e-02  9.414107e-01
   endloop
 endfacet
 facet normal -1.000000e+00  0.000000e+00 -0.000000e+00
   outer loop
     vertex  8.959973e-02  1.664441e-01  1.156062e+00
     vertex  8.959973e-02  1.664441e-01  1.155693e+00
     vertex  8.959973e-02 -1.366986e-02  9.414107e-01
   endloop
 endfacet
 facet normal -1.000000e+00  0.000000e+00 -0.000000e+00
   outer loop
     vertex  8.959973e-02  1.664441e-01  1.155693e+00
     vertex  8.959973e-02  1.664441e-01  1.112612e+00
     vertex  8.959973e-02 -1.366986e-02  9.414107e-01
   endloop
 endfacet
 facet normal  0.000000e+00 -7.660444e-01  6.427876e-01
   outer loop
     vertex  8.959973e-02 -1.366986e-02  9.414107e-01
     vertex  9.059973e-02  1.664441e-01  1.156062e+00
     vertex  8.959973e-02  1.664441e-01  1.156062e+00
   endloop
 endfacet
 facet normal  0.000000e+00 -7.660444e-01  6.427876e-01
   outer loop
     vertex  8.959973e-02 -1.366986e-02  9.414107e-01
     vertex  9.059973e-02 -1.366986e-02  9.414107e-01
     vertex  9.059973e-02  1.664441e-01  1.156062e+00
   endloop
 endfacet
endsolid
