solid 
 facet normal  1.000000e+00  0.000000e+00  0.000000e+00
   outer loop
     vertex  2.205997e-01 -1.800559e-01  2.412482e-01
     vertex  2.205997e-01 -1.975559e-01  2.466922e-01
     vertex  2.205997e-01 -1.832559e-01  2.380482e-01
   endloop
 endfacet
 facet normal  1.000000e+00  0.000000e+00  0.000000e+00
   outer loop
     vertex  2.205997e-01 -1.625559e-01  2.466922e-01
     vertex  2.205997e-01 -1.800559e-01  2.412482e-01
     vertex  2.205997e-01 -1.768559e-01  2.380482e-01
   endloop
 endfacet
 facet normal  1.000000e+00  0.000000e+00  0.000000e+00
   outer loop
     vertex  2.205997e-01 -1.625559e-01  2.466922e-01
     vertex  2.205997e-01 -1.975559e-01  2.466922e-01
     vertex  2.205997e-01 -1.800559e-01  2.412482e-01
   endloop
 endfacet
 facet normal  1.000000e+00  0.000000e+00  0.000000e+00
   outer loop
     vertex  2.205997e-01 -1.832559e-01  2.130482e-01
     vertex  2.205997e-01 -1.975559e-01  2.466922e-01
     vertex  2.205997e-01 -1.975559e-01  2.010482e-01
   endloop
 endfacet
 facet normal  1.000000e+00  0.000000e+00 -0.000000e+00
   outer loop
     vertex  2.205997e-01 -1.832559e-01  2.130482e-01
     vertex  2.205997e-01 -1.832559e-01  2.380482e-01
     vertex  2.205997e-01 -1.975559e-01  2.466922e-01
   endloop
 endfacet
 facet normal  1.000000e+00  0.000000e+00 -0.000000e+00
   outer loop
     vertex  2.205997e-01 -1.800559e-01  2.162482e-01
     vertex  2.205997e-01 -1.800559e-01  2.348482e-01
     vertex  2.205997e-01 -1.832559e-01  2.380482e-01
   endloop
 endfacet
 facet normal  1.000000e+00  0.000000e+00  0.000000e+00
   outer loop
     vertex  2.205997e-01 -1.800559e-01  2.162482e-01
     vertex  2.205997e-01 -1.832559e-01  2.380482e-01
     vertex  2.205997e-01 -1.832559e-01  2.130482e-01
   endloop
 endfacet
 facet normal  1.000000e+00  0.000000e+00 -0.000000e+00
   outer loop
     vertex  2.205997e-01 -1.768559e-01  2.130482e-01
     vertex  2.205997e-01 -1.768559e-01  2.380482e-01
     vertex  2.205997e-01 -1.800559e-01  2.348482e-01
   endloop
 endfacet
 facet normal  1.000000e+00  0.000000e+00  0.000000e+00
   outer loop
     vertex  2.205997e-01 -1.768559e-01  2.130482e-01
     vertex  2.205997e-01 -1.625559e-01  2.466922e-01
     vertex  2.205997e-01 -1.768559e-01  2.380482e-01
   endloop
 endfacet
 facet normal  1.000000e+00  0.000000e+00  0.000000e+00
   outer loop
     vertex  2.205997e-01 -1.768559e-01  2.130482e-01
     vertex  2.205997e-01 -1.800559e-01  2.348482e-01
     vertex  2.205997e-01 -1.800559e-01  2.162482e-01
   endloop
 endfacet
 facet normal  1.000000e+00  0.000000e+00  0.000000e+00
   outer loop
     vertex  2.205997e-01 -1.800559e-01  2.098482e-01
     vertex  2.205997e-01 -1.832559e-01  2.130482e-01
     vertex  2.205997e-01 -1.975559e-01  2.010482e-01
   endloop
 endfacet
 facet normal  1.000000e+00  0.000000e+00  0.000000e+00
   outer loop
     vertex  2.205997e-01 -1.625559e-01  2.010482e-01
     vertex  2.205997e-01 -1.768559e-01  2.130482e-01
     vertex  2.205997e-01 -1.800559e-01  2.098482e-01
   endloop
 endfacet
 facet normal  1.000000e+00  0.000000e+00 -0.000000e+00
   outer loop
     vertex  2.205997e-01 -1.625559e-01  2.010482e-01
     vertex  2.205997e-01 -1.625559e-01  2.466922e-01
     vertex  2.205997e-01 -1.768559e-01  2.130482e-01
   endloop
 endfacet
 facet normal  1.000000e+00  0.000000e+00  0.000000e+00
   outer loop
     vertex  2.205997e-01 -1.625559e-01  2.010482e-01
     vertex  2.205997e-01 -1.800559e-01  2.098482e-01
     vertex  2.205997e-01 -1.975559e-01  2.010482e-01
   endloop
 endfacet
 facet normal  9.659258e-01  0.000000e+00  2.588190e-01
   outer loop
     vertex  2.200638e-01 -1.975559e-01  2.486922e-01
     vertex  2.205997e-01 -1.975559e-01  2.466922e-01
     vertex  2.205997e-01 -1.625559e-01  2.466922e-01
   endloop
 endfacet
 facet normal  9.659258e-01 -0.000000e+00  2.588190e-01
   outer loop
     vertex  2.200638e-01 -1.975559e-01  2.486922e-01
     vertex  2.205997e-01 -1.625559e-01  2.466922e-01
     vertex  2.200638e-01 -1.625559e-01  2.486922e-01
   endloop
 endfacet
 facet normal  7.071068e-01 -0.000000e+00  7.071068e-01
   outer loop
     vertex  2.185997e-01 -1.975559e-01  2.501563e-01
     vertex  2.200638e-01 -1.625559e-01  2.486922e-01
     vertex  2.185997e-01 -1.625559e-01  2.501563e-01
   endloop
 endfacet
 facet normal  7.071068e-01  0.000000e+00  7.071068e-01
   outer loop
     vertex  2.185997e-01 -1.975559e-01  2.501563e-01
     vertex  2.200638e-01 -1.975559e-01  2.486922e-01
     vertex  2.200638e-01 -1.625559e-01  2.486922e-01
   endloop
 endfacet
 facet normal  2.588190e-01 -0.000000e+00  9.659258e-01
   outer loop
     vertex  2.165997e-01 -1.975559e-01  2.506922e-01
     vertex  2.185997e-01 -1.625559e-01  2.501563e-01
     vertex  2.165997e-01 -1.625559e-01  2.506922e-01
   endloop
 endfacet
 facet normal  2.588190e-01  0.000000e+00  9.659258e-01
   outer loop
     vertex  2.165997e-01 -1.975559e-01  2.506922e-01
     vertex  2.185997e-01 -1.975559e-01  2.501563e-01
     vertex  2.185997e-01 -1.625559e-01  2.501563e-01
   endloop
 endfacet
 facet normal  0.000000e+00  0.000000e+00  1.000000e+00
   outer loop
     vertex  2.165997e-01 -1.625559e-01  2.506922e-01
     vertex -2.551873e-01 -1.625559e-01  2.506922e-01
     vertex -2.551873e-01 -1.975559e-01  2.506922e-01
   endloop
 endfacet
 facet normal  0.000000e+00  0.000000e+00  1.000000e+00
   outer loop
     vertex  2.165997e-01 -1.625559e-01  2.506922e-01
     vertex -2.551873e-01 -1.975559e-01  2.506922e-01
     vertex  2.165997e-01 -1.975559e-01  2.506922e-01
   endloop
 endfacet
 facet normal -0.000000e+00 -1.000000e+00  0.000000e+00
   outer loop
     vertex  2.165997e-01 -1.975559e-01  2.506922e-01
     vertex -2.551873e-01 -1.975559e-01  2.506922e-01
     vertex -2.551873e-01 -1.975559e-01  2.486922e-01
   endloop
 endfacet
 facet normal  0.000000e+00 -1.000000e+00 -0.000000e+00
   outer loop
     vertex  2.165997e-01 -1.975559e-01  2.506922e-01
     vertex -2.551873e-01 -1.975559e-01  2.486922e-01
     vertex  2.165997e-01 -1.975559e-01  2.486922e-01
   endloop
 endfacet
 facet normal  0.000000e+00 -1.000000e+00  0.000000e+00
   outer loop
     vertex  2.165997e-01 -1.975559e-01  2.506922e-01
     vertex  2.165997e-01 -1.975559e-01  2.486922e-01
     vertex  2.175997e-01 -1.975559e-01  2.484243e-01
   endloop
 endfacet
 facet normal  0.000000e+00 -1.000000e+00  0.000000e+00
   outer loop
     vertex  2.185997e-01 -1.975559e-01  2.501563e-01
     vertex  2.175997e-01 -1.975559e-01  2.484243e-01
     vertex  2.183318e-01 -1.975559e-01  2.476922e-01
   endloop
 endfacet
 facet normal -0.000000e+00 -1.000000e+00  0.000000e+00
   outer loop
     vertex  2.185997e-01 -1.975559e-01  2.501563e-01
     vertex  2.165997e-01 -1.975559e-01  2.506922e-01
     vertex  2.175997e-01 -1.975559e-01  2.484243e-01
   endloop
 endfacet
 facet normal  0.000000e+00 -1.000000e+00 -0.000000e+00
   outer loop
     vertex  2.200638e-01 -1.975559e-01  2.486922e-01
     vertex  2.185997e-01 -1.975559e-01  2.466922e-01
     vertex  2.205997e-01 -1.975559e-01  2.466922e-01
   endloop
 endfacet
 facet normal  0.000000e+00 -1.000000e+00  0.000000e+00
   outer loop
     vertex  2.200638e-01 -1.975559e-01  2.486922e-01
     vertex  2.183318e-01 -1.975559e-01  2.476922e-01
     vertex  2.185997e-01 -1.975559e-01  2.466922e-01
   endloop
 endfacet
 facet normal -0.000000e+00 -1.000000e+00  0.000000e+00
   outer loop
     vertex  2.200638e-01 -1.975559e-01  2.486922e-01
     vertex  2.185997e-01 -1.975559e-01  2.501563e-01
     vertex  2.183318e-01 -1.975559e-01  2.476922e-01
   endloop
 endfacet
 facet normal  0.000000e+00 -1.000000e+00  0.000000e+00
   outer loop
     vertex  2.205997e-01 -1.975559e-01  2.010482e-01
     vertex  2.205997e-01 -1.975559e-01  2.466922e-01
     vertex  2.185997e-01 -1.975559e-01  2.466922e-01
   endloop
 endfacet
 facet normal  0.000000e+00 -1.000000e+00  0.000000e+00
   outer loop
     vertex  2.205997e-01 -1.975559e-01  2.010482e-01
     vertex  2.185997e-01 -1.975559e-01  2.466922e-01
     vertex  2.185997e-01 -1.975559e-01  2.010482e-01
   endloop
 endfacet
 facet normal  0.000000e+00 -0.000000e+00 -1.000000e+00
   outer loop
     vertex  2.205997e-01 -1.625559e-01  2.010482e-01
     vertex  2.205997e-01 -1.975559e-01  2.010482e-01
     vertex  2.185997e-01 -1.975559e-01  2.010482e-01
   endloop
 endfacet
 facet normal -0.000000e+00  0.000000e+00 -1.000000e+00
   outer loop
     vertex  2.205997e-01 -1.625559e-01  2.010482e-01
     vertex  2.185997e-01 -1.975559e-01  2.010482e-01
     vertex  2.185997e-01 -1.625559e-01  2.010482e-01
   endloop
 endfacet
 facet normal  0.000000e+00  1.000000e+00  0.000000e+00
   outer loop
     vertex  2.205997e-01 -1.625559e-01  2.010482e-01
     vertex  2.185997e-01 -1.625559e-01  2.010482e-01
     vertex  2.185997e-01 -1.625559e-01  2.466922e-01
   endloop
 endfacet
 facet normal  0.000000e+00  1.000000e+00 -0.000000e+00
   outer loop
     vertex  2.205997e-01 -1.625559e-01  2.010482e-01
     vertex  2.185997e-01 -1.625559e-01  2.466922e-01
     vertex  2.205997e-01 -1.625559e-01  2.466922e-01
   endloop
 endfacet
 facet normal  0.000000e+00  1.000000e+00  0.000000e+00
   outer loop
     vertex  2.205997e-01 -1.625559e-01  2.466922e-01
     vertex  2.185997e-01 -1.625559e-01  2.466922e-01
     vertex  2.183318e-01 -1.625559e-01  2.476922e-01
   endloop
 endfacet
 facet normal  0.000000e+00  1.000000e+00  0.000000e+00
   outer loop
     vertex  2.185997e-01 -1.625559e-01  2.501563e-01
     vertex  2.165997e-01 -1.625559e-01  2.486922e-01
     vertex  2.165997e-01 -1.625559e-01  2.506922e-01
   endloop
 endfacet
 facet normal  0.000000e+00  1.000000e+00  0.000000e+00
   outer loop
     vertex  2.185997e-01 -1.625559e-01  2.501563e-01
     vertex  2.175997e-01 -1.625559e-01  2.484243e-01
     vertex  2.165997e-01 -1.625559e-01  2.486922e-01
   endloop
 endfacet
 facet normal  0.000000e+00  1.000000e+00  0.000000e+00
   outer loop
     vertex  2.200638e-01 -1.625559e-01  2.486922e-01
     vertex  2.183318e-01 -1.625559e-01  2.476922e-01
     vertex  2.175997e-01 -1.625559e-01  2.484243e-01
   endloop
 endfacet
 facet normal  0.000000e+00  1.000000e+00  0.000000e+00
   outer loop
     vertex  2.200638e-01 -1.625559e-01  2.486922e-01
     vertex  2.205997e-01 -1.625559e-01  2.466922e-01
     vertex  2.183318e-01 -1.625559e-01  2.476922e-01
   endloop
 endfacet
 facet normal  0.000000e+00  1.000000e+00  0.000000e+00
   outer loop
     vertex  2.200638e-01 -1.625559e-01  2.486922e-01
     vertex  2.175997e-01 -1.625559e-01  2.484243e-01
     vertex  2.185997e-01 -1.625559e-01  2.501563e-01
   endloop
 endfacet
 facet normal  0.000000e+00  1.000000e+00  0.000000e+00
   outer loop
     vertex  2.165997e-01 -1.625559e-01  2.486922e-01
     vertex -2.551873e-01 -1.625559e-01  2.486922e-01
     vertex -2.551873e-01 -1.625559e-01  2.506922e-01
   endloop
 endfacet
 facet normal  0.000000e+00  1.000000e+00  0.000000e+00
   outer loop
     vertex  2.165997e-01 -1.625559e-01  2.506922e-01
     vertex  2.165997e-01 -1.625559e-01  2.486922e-01
     vertex -2.551873e-01 -1.625559e-01  2.506922e-01
   endloop
 endfacet
 facet normal  0.000000e+00  1.000000e+00  0.000000e+00
   outer loop
     vertex -2.551873e-01 -1.625559e-01  2.506922e-01
     vertex -2.551873e-01 -1.625559e-01  2.486922e-01
     vertex -2.561873e-01 -1.625559e-01  2.484243e-01
   endloop
 endfacet
 facet normal  0.000000e+00  1.000000e+00  0.000000e+00
   outer loop
     vertex -2.571873e-01 -1.625559e-01  2.501563e-01
     vertex -2.561873e-01 -1.625559e-01  2.484243e-01
     vertex -2.569193e-01 -1.625559e-01  2.476922e-01
   endloop
 endfacet
 facet normal -0.000000e+00  1.000000e+00  0.000000e+00
   outer loop
     vertex -2.571873e-01 -1.625559e-01  2.501563e-01
     vertex -2.551873e-01 -1.625559e-01  2.506922e-01
     vertex -2.561873e-01 -1.625559e-01  2.484243e-01
   endloop
 endfacet
 facet normal  0.000000e+00  1.000000e+00  0.000000e+00
   outer loop
     vertex -2.586514e-01 -1.625559e-01  2.486922e-01
     vertex -2.571873e-01 -1.625559e-01  2.466922e-01
     vertex -2.591873e-01 -1.625559e-01  2.466922e-01
   endloop
 endfacet
 facet normal  0.000000e+00  1.000000e+00  0.000000e+00
   outer loop
     vertex -2.586514e-01 -1.625559e-01  2.486922e-01
     vertex -2.569193e-01 -1.625559e-01  2.476922e-01
     vertex -2.571873e-01 -1.625559e-01  2.466922e-01
   endloop
 endfacet
 facet normal -0.000000e+00  1.000000e+00  0.000000e+00
   outer loop
     vertex -2.586514e-01 -1.625559e-01  2.486922e-01
     vertex -2.571873e-01 -1.625559e-01  2.501563e-01
     vertex -2.569193e-01 -1.625559e-01  2.476922e-01
   endloop
 endfacet
 facet normal -2.588190e-01  0.000000e+00  9.659258e-01
   outer loop
     vertex -2.571873e-01 -1.975559e-01  2.501563e-01
     vertex -2.551873e-01 -1.975559e-01  2.506922e-01
     vertex -2.551873e-01 -1.625559e-01  2.506922e-01
   endloop
 endfacet
 facet normal -2.588190e-01  0.000000e+00  9.659258e-01
   outer loop
     vertex -2.571873e-01 -1.975559e-01  2.501563e-01
     vertex -2.551873e-01 -1.625559e-01  2.506922e-01
     vertex -2.571873e-01 -1.625559e-01  2.501563e-01
   endloop
 endfacet
 facet normal -7.071068e-01  0.000000e+00  7.071068e-01
   outer loop
     vertex -2.586514e-01 -1.975559e-01  2.486922e-01
     vertex -2.571873e-01 -1.625559e-01  2.501563e-01
     vertex -2.586514e-01 -1.625559e-01  2.486922e-01
   endloop
 endfacet
 facet normal -7.071068e-01  0.000000e+00  7.071068e-01
   outer loop
     vertex -2.586514e-01 -1.975559e-01  2.486922e-01
     vertex -2.571873e-01 -1.975559e-01  2.501563e-01
     vertex -2.571873e-01 -1.625559e-01  2.501563e-01
   endloop
 endfacet
 facet normal -9.659258e-01  0.000000e+00  2.588190e-01
   outer loop
     vertex -2.591873e-01 -1.975559e-01  2.466922e-01
     vertex -2.586514e-01 -1.625559e-01  2.486922e-01
     vertex -2.591873e-01 -1.625559e-01  2.466922e-01
   endloop
 endfacet
 facet normal -9.659258e-01  0.000000e+00  2.588190e-01
   outer loop
     vertex -2.591873e-01 -1.975559e-01  2.466922e-01
     vertex -2.586514e-01 -1.975559e-01  2.486922e-01
     vertex -2.586514e-01 -1.625559e-01  2.486922e-01
   endloop
 endfacet
 facet normal -1.000000e+00 -5.065656e-13  6.036574e-13
   outer loop
     vertex -2.591873e-01 -1.832559e-01  2.130482e-01
     vertex -2.591873e-01 -1.800559e-01  2.098482e-01
     vertex -2.591873e-01 -1.975559e-01  2.010482e-01
   endloop
 endfacet
 facet normal -1.000000e+00  1.350842e-13 -1.350842e-13
   outer loop
     vertex -2.591873e-01 -1.625559e-01  2.010482e-01
     vertex -2.591873e-01 -1.800559e-01  2.098482e-01
     vertex -2.591873e-01 -1.768559e-01  2.130482e-01
   endloop
 endfacet
 facet normal -1.000000e+00 -0.000000e+00 -4.037175e-13
   outer loop
     vertex -2.591873e-01 -1.625559e-01  2.010482e-01
     vertex -2.591873e-01 -1.975559e-01  2.010482e-01
     vertex -2.591873e-01 -1.800559e-01  2.098482e-01
   endloop
 endfacet
 facet normal -1.000000e+00  0.000000e+00  0.000000e+00
   outer loop
     vertex -2.591873e-01 -1.975559e-01  2.466922e-01
     vertex -2.591873e-01 -1.832559e-01  2.130482e-01
     vertex -2.591873e-01 -1.975559e-01  2.010482e-01
   endloop
 endfacet
 facet normal -1.000000e+00 -1.110223e-12 -0.000000e+00
   outer loop
     vertex -2.591873e-01 -1.832559e-01  2.380482e-01
     vertex -2.591873e-01 -1.800559e-01  2.162482e-01
     vertex -2.591873e-01 -1.832559e-01  2.130482e-01
   endloop
 endfacet
 facet normal -1.000000e+00 -0.000000e+00 -0.000000e+00
   outer loop
     vertex -2.591873e-01 -1.832559e-01  2.380482e-01
     vertex -2.591873e-01 -1.832559e-01  2.130482e-01
     vertex -2.591873e-01 -1.975559e-01  2.466922e-01
   endloop
 endfacet
 facet normal -1.000000e+00 -1.110223e-12  0.000000e+00
   outer loop
     vertex -2.591873e-01 -1.832559e-01  2.380482e-01
     vertex -2.591873e-01 -1.800559e-01  2.348482e-01
     vertex -2.591873e-01 -1.800559e-01  2.162482e-01
   endloop
 endfacet
 facet normal -1.000000e+00  0.000000e+00 -0.000000e+00
   outer loop
     vertex -2.591873e-01 -1.768559e-01  2.380482e-01
     vertex -2.591873e-01 -1.768559e-01  2.130482e-01
     vertex -2.591873e-01 -1.800559e-01  2.162482e-01
   endloop
 endfacet
 facet normal -1.000000e+00  0.000000e+00  0.000000e+00
   outer loop
     vertex -2.591873e-01 -1.768559e-01  2.380482e-01
     vertex -2.591873e-01 -1.800559e-01  2.162482e-01
     vertex -2.591873e-01 -1.800559e-01  2.348482e-01
   endloop
 endfacet
 facet normal -1.000000e+00 -4.182692e-13 -6.919539e-13
   outer loop
     vertex -2.591873e-01 -1.800559e-01  2.412482e-01
     vertex -2.591873e-01 -1.832559e-01  2.380482e-01
     vertex -2.591873e-01 -1.975559e-01  2.466922e-01
   endloop
 endfacet
 facet normal -1.000000e+00  1.548428e-13  1.548428e-13
   outer loop
     vertex -2.591873e-01 -1.625559e-01  2.466922e-01
     vertex -2.591873e-01 -1.768559e-01  2.380482e-01
     vertex -2.591873e-01 -1.800559e-01  2.412482e-01
   endloop
 endfacet
 facet normal -1.000000e+00  2.484415e-13  0.000000e+00
   outer loop
     vertex -2.591873e-01 -1.625559e-01  2.466922e-01
     vertex -2.591873e-01 -1.625559e-01  2.010482e-01
     vertex -2.591873e-01 -1.768559e-01  2.130482e-01
   endloop
 endfacet
 facet normal -1.000000e+00  2.484415e-13  0.000000e+00
   outer loop
     vertex -2.591873e-01 -1.625559e-01  2.466922e-01
     vertex -2.591873e-01 -1.768559e-01  2.130482e-01
     vertex -2.591873e-01 -1.768559e-01  2.380482e-01
   endloop
 endfacet
 facet normal -1.000000e+00  0.000000e+00  6.525925e-13
   outer loop
     vertex -2.591873e-01 -1.625559e-01  2.466922e-01
     vertex -2.591873e-01 -1.800559e-01  2.412482e-01
     vertex -2.591873e-01 -1.975559e-01  2.466922e-01
   endloop
 endfacet
 facet normal  0.000000e+00 -1.000000e+00  0.000000e+00
   outer loop
     vertex -2.591873e-01 -1.975559e-01  2.466922e-01
     vertex -2.591873e-01 -1.975559e-01  2.010482e-01
     vertex -2.571873e-01 -1.975559e-01  2.010482e-01
   endloop
 endfacet
 facet normal  0.000000e+00 -1.000000e+00  0.000000e+00
   outer loop
     vertex -2.591873e-01 -1.975559e-01  2.466922e-01
     vertex -2.571873e-01 -1.975559e-01  2.010482e-01
     vertex -2.571873e-01 -1.975559e-01  2.466922e-01
   endloop
 endfacet
 facet normal  0.000000e+00 -1.000000e+00  0.000000e+00
   outer loop
     vertex -2.591873e-01 -1.975559e-01  2.466922e-01
     vertex -2.571873e-01 -1.975559e-01  2.466922e-01
     vertex -2.569193e-01 -1.975559e-01  2.476922e-01
   endloop
 endfacet
 facet normal  0.000000e+00 -1.000000e+00  0.000000e+00
   outer loop
     vertex -2.571873e-01 -1.975559e-01  2.501563e-01
     vertex -2.551873e-01 -1.975559e-01  2.486922e-01
     vertex -2.551873e-01 -1.975559e-01  2.506922e-01
   endloop
 endfacet
 facet normal  0.000000e+00 -1.000000e+00  0.000000e+00
   outer loop
     vertex -2.571873e-01 -1.975559e-01  2.501563e-01
     vertex -2.561873e-01 -1.975559e-01  2.484243e-01
     vertex -2.551873e-01 -1.975559e-01  2.486922e-01
   endloop
 endfacet
 facet normal  0.000000e+00 -1.000000e+00  0.000000e+00
   outer loop
     vertex -2.586514e-01 -1.975559e-01  2.486922e-01
     vertex -2.569193e-01 -1.975559e-01  2.476922e-01
     vertex -2.561873e-01 -1.975559e-01  2.484243e-01
   endloop
 endfacet
 facet normal  0.000000e+00 -1.000000e+00 -0.000000e+00
   outer loop
     vertex -2.586514e-01 -1.975559e-01  2.486922e-01
     vertex -2.591873e-01 -1.975559e-01  2.466922e-01
     vertex -2.569193e-01 -1.975559e-01  2.476922e-01
   endloop
 endfacet
 facet normal  0.000000e+00 -1.000000e+00  0.000000e+00
   outer loop
     vertex -2.586514e-01 -1.975559e-01  2.486922e-01
     vertex -2.561873e-01 -1.975559e-01  2.484243e-01
     vertex -2.571873e-01 -1.975559e-01  2.501563e-01
   endloop
 endfacet
 facet normal  2.588190e-01  0.000000e+00 -9.659258e-01
   outer loop
     vertex -2.561873e-01 -1.975559e-01  2.484243e-01
     vertex -2.551873e-01 -1.625559e-01  2.486922e-01
     vertex -2.551873e-01 -1.975559e-01  2.486922e-01
   endloop
 endfacet
 facet normal  2.588190e-01  0.000000e+00 -9.659258e-01
   outer loop
     vertex -2.561873e-01 -1.975559e-01  2.484243e-01
     vertex -2.561873e-01 -1.625559e-01  2.484243e-01
     vertex -2.551873e-01 -1.625559e-01  2.486922e-01
   endloop
 endfacet
 facet normal  7.071068e-01  0.000000e+00 -7.071068e-01
   outer loop
     vertex -2.569193e-01 -1.975559e-01  2.476922e-01
     vertex -2.569193e-01 -1.625559e-01  2.476922e-01
     vertex -2.561873e-01 -1.625559e-01  2.484243e-01
   endloop
 endfacet
 facet normal  7.071068e-01  0.000000e+00 -7.071068e-01
   outer loop
     vertex -2.569193e-01 -1.975559e-01  2.476922e-01
     vertex -2.561873e-01 -1.625559e-01  2.484243e-01
     vertex -2.561873e-01 -1.975559e-01  2.484243e-01
   endloop
 endfacet
 facet normal  9.659258e-01  0.000000e+00 -2.588190e-01
   outer loop
     vertex -2.571873e-01 -1.975559e-01  2.466922e-01
     vertex -2.571873e-01 -1.625559e-01  2.466922e-01
     vertex -2.569193e-01 -1.625559e-01  2.476922e-01
   endloop
 endfacet
 facet normal  9.659258e-01  0.000000e+00 -2.588190e-01
   outer loop
     vertex -2.571873e-01 -1.975559e-01  2.466922e-01
     vertex -2.569193e-01 -1.625559e-01  2.476922e-01
     vertex -2.569193e-01 -1.975559e-01  2.476922e-01
   endloop
 endfacet
 facet normal  1.000000e+00  0.000000e+00  0.000000e+00
   outer loop
     vertex -2.571873e-01 -1.832559e-01  2.130482e-01
     vertex -2.571873e-01 -1.975559e-01  2.010482e-01
     vertex -2.571873e-01 -1.800559e-01  2.098482e-01
   endloop
 endfacet
 facet normal  1.000000e+00  0.000000e+00  0.000000e+00
   outer loop
     vertex -2.571873e-01 -1.625559e-01  2.010482e-01
     vertex -2.571873e-01 -1.768559e-01  2.130482e-01
     vertex -2.571873e-01 -1.800559e-01  2.098482e-01
   endloop
 endfacet
 facet normal  1.000000e+00  0.000000e+00  0.000000e+00
   outer loop
     vertex -2.571873e-01 -1.625559e-01  2.010482e-01
     vertex -2.571873e-01 -1.800559e-01  2.098482e-01
     vertex -2.571873e-01 -1.975559e-01  2.010482e-01
   endloop
 endfacet
 facet normal  1.000000e+00  0.000000e+00  0.000000e+00
   outer loop
     vertex -2.571873e-01 -1.975559e-01  2.466922e-01
     vertex -2.571873e-01 -1.975559e-01  2.010482e-01
     vertex -2.571873e-01 -1.832559e-01  2.130482e-01
   endloop
 endfacet
 facet normal  1.000000e+00  0.000000e+00  0.000000e+00
   outer loop
     vertex -2.571873e-01 -1.832559e-01  2.380482e-01
     vertex -2.571873e-01 -1.832559e-01  2.130482e-01
     vertex -2.571873e-01 -1.800559e-01  2.162482e-01
   endloop
 endfacet
 facet normal  1.000000e+00  0.000000e+00  0.000000e+00
   outer loop
     vertex -2.571873e-01 -1.832559e-01  2.380482e-01
     vertex -2.571873e-01 -1.975559e-01  2.466922e-01
     vertex -2.571873e-01 -1.832559e-01  2.130482e-01
   endloop
 endfacet
 facet normal  1.000000e+00  0.000000e+00  0.000000e+00
   outer loop
     vertex -2.571873e-01 -1.832559e-01  2.380482e-01
     vertex -2.571873e-01 -1.800559e-01  2.162482e-01
     vertex -2.571873e-01 -1.800559e-01  2.348482e-01
   endloop
 endfacet
 facet normal  1.000000e+00  0.000000e+00  0.000000e+00
   outer loop
     vertex -2.571873e-01 -1.768559e-01  2.380482e-01
     vertex -2.571873e-01 -1.800559e-01  2.162482e-01
     vertex -2.571873e-01 -1.768559e-01  2.130482e-01
   endloop
 endfacet
 facet normal  1.000000e+00  0.000000e+00  0.000000e+00
   outer loop
     vertex -2.571873e-01 -1.768559e-01  2.380482e-01
     vertex -2.571873e-01 -1.800559e-01  2.348482e-01
     vertex -2.571873e-01 -1.800559e-01  2.162482e-01
   endloop
 endfacet
 facet normal  1.000000e+00  0.000000e+00  0.000000e+00
   outer loop
     vertex -2.571873e-01 -1.800559e-01  2.412482e-01
     vertex -2.571873e-01 -1.975559e-01  2.466922e-01
     vertex -2.571873e-01 -1.832559e-01  2.380482e-01
   endloop
 endfacet
 facet normal  1.000000e+00  0.000000e+00  0.000000e+00
   outer loop
     vertex -2.571873e-01 -1.625559e-01  2.466922e-01
     vertex -2.571873e-01 -1.800559e-01  2.412482e-01
     vertex -2.571873e-01 -1.768559e-01  2.380482e-01
   endloop
 endfacet
 facet normal  1.000000e+00  0.000000e+00  0.000000e+00
   outer loop
     vertex -2.571873e-01 -1.625559e-01  2.466922e-01
     vertex -2.571873e-01 -1.768559e-01  2.130482e-01
     vertex -2.571873e-01 -1.625559e-01  2.010482e-01
   endloop
 endfacet
 facet normal  1.000000e+00  0.000000e+00  0.000000e+00
   outer loop
     vertex -2.571873e-01 -1.625559e-01  2.466922e-01
     vertex -2.571873e-01 -1.768559e-01  2.380482e-01
     vertex -2.571873e-01 -1.768559e-01  2.130482e-01
   endloop
 endfacet
 facet normal  1.000000e+00  0.000000e+00  0.000000e+00
   outer loop
     vertex -2.571873e-01 -1.625559e-01  2.466922e-01
     vertex -2.571873e-01 -1.975559e-01  2.466922e-01
     vertex -2.571873e-01 -1.800559e-01  2.412482e-01
   endloop
 endfacet
 facet normal  0.000000e+00  1.000000e+00  0.000000e+00
   outer loop
     vertex -2.591873e-01 -1.625559e-01  2.466922e-01
     vertex -2.571873e-01 -1.625559e-01  2.010482e-01
     vertex -2.591873e-01 -1.625559e-01  2.010482e-01
   endloop
 endfacet
 facet normal -0.000000e+00  1.000000e+00  0.000000e+00
   outer loop
     vertex -2.591873e-01 -1.625559e-01  2.466922e-01
     vertex -2.571873e-01 -1.625559e-01  2.466922e-01
     vertex -2.571873e-01 -1.625559e-01  2.010482e-01
   endloop
 endfacet
 facet normal  0.000000e+00 -0.000000e+00 -1.000000e+00
   outer loop
     vertex -2.571873e-01 -1.625559e-01  2.010482e-01
     vertex -2.571873e-01 -1.975559e-01  2.010482e-01
     vertex -2.591873e-01 -1.975559e-01  2.010482e-01
   endloop
 endfacet
 facet normal  0.000000e+00  0.000000e+00 -1.000000e+00
   outer loop
     vertex -2.591873e-01 -1.625559e-01  2.010482e-01
     vertex -2.571873e-01 -1.625559e-01  2.010482e-01
     vertex -2.591873e-01 -1.975559e-01  2.010482e-01
   endloop
 endfacet
 facet normal  0.000000e+00  7.071068e-01 -7.071068e-01
   outer loop
     vertex -2.591873e-01 -1.800559e-01  2.412482e-01
     vertex -2.571873e-01 -1.832559e-01  2.380482e-01
     vertex -2.591873e-01 -1.832559e-01  2.380482e-01
   endloop
 endfacet
 facet normal  0.000000e+00  7.071068e-01 -7.071068e-01
   outer loop
     vertex -2.591873e-01 -1.800559e-01  2.412482e-01
     vertex -2.571873e-01 -1.800559e-01  2.412482e-01
     vertex -2.571873e-01 -1.832559e-01  2.380482e-01
   endloop
 endfacet
 facet normal  0.000000e+00 -7.071068e-01 -7.071068e-01
   outer loop
     vertex -2.591873e-01 -1.768559e-01  2.380482e-01
     vertex -2.571873e-01 -1.768559e-01  2.380482e-01
     vertex -2.571873e-01 -1.800559e-01  2.412482e-01
   endloop
 endfacet
 facet normal  0.000000e+00 -7.071068e-01 -7.071068e-01
   outer loop
     vertex -2.591873e-01 -1.768559e-01  2.380482e-01
     vertex -2.571873e-01 -1.800559e-01  2.412482e-01
     vertex -2.591873e-01 -1.800559e-01  2.412482e-01
   endloop
 endfacet
 facet normal  0.000000e+00 -7.071068e-01  7.071068e-01
   outer loop
     vertex -2.591873e-01 -1.800559e-01  2.348482e-01
     vertex -2.571873e-01 -1.800559e-01  2.348482e-01
     vertex -2.571873e-01 -1.768559e-01  2.380482e-01
   endloop
 endfacet
 facet normal  0.000000e+00 -7.071068e-01  7.071068e-01
   outer loop
     vertex -2.591873e-01 -1.800559e-01  2.348482e-01
     vertex -2.571873e-01 -1.768559e-01  2.380482e-01
     vertex -2.591873e-01 -1.768559e-01  2.380482e-01
   endloop
 endfacet
 facet normal -0.000000e+00  7.071068e-01  7.071068e-01
   outer loop
     vertex -2.591873e-01 -1.832559e-01  2.380482e-01
     vertex -2.571873e-01 -1.832559e-01  2.380482e-01
     vertex -2.571873e-01 -1.800559e-01  2.348482e-01
   endloop
 endfacet
 facet normal  0.000000e+00  7.071068e-01  7.071068e-01
   outer loop
     vertex -2.591873e-01 -1.832559e-01  2.380482e-01
     vertex -2.571873e-01 -1.800559e-01  2.348482e-01
     vertex -2.591873e-01 -1.800559e-01  2.348482e-01
   endloop
 endfacet
 facet normal  0.000000e+00  7.071068e-01 -7.071068e-01
   outer loop
     vertex -2.591873e-01 -1.800559e-01  2.162482e-01
     vertex -2.571873e-01 -1.832559e-01  2.130482e-01
     vertex -2.591873e-01 -1.832559e-01  2.130482e-01
   endloop
 endfacet
 facet normal  0.000000e+00  7.071068e-01 -7.071068e-01
   outer loop
     vertex -2.591873e-01 -1.800559e-01  2.162482e-01
     vertex -2.571873e-01 -1.800559e-01  2.162482e-01
     vertex -2.571873e-01 -1.832559e-01  2.130482e-01
   endloop
 endfacet
 facet normal  0.000000e+00 -7.071068e-01 -7.071068e-01
   outer loop
     vertex -2.591873e-01 -1.768559e-01  2.130482e-01
     vertex -2.571873e-01 -1.768559e-01  2.130482e-01
     vertex -2.571873e-01 -1.800559e-01  2.162482e-01
   endloop
 endfacet
 facet normal  0.000000e+00 -7.071068e-01 -7.071068e-01
   outer loop
     vertex -2.591873e-01 -1.768559e-01  2.130482e-01
     vertex -2.571873e-01 -1.800559e-01  2.162482e-01
     vertex -2.591873e-01 -1.800559e-01  2.162482e-01
   endloop
 endfacet
 facet normal  0.000000e+00 -7.071068e-01  7.071068e-01
   outer loop
     vertex -2.591873e-01 -1.800559e-01  2.098482e-01
     vertex -2.571873e-01 -1.800559e-01  2.098482e-01
     vertex -2.571873e-01 -1.768559e-01  2.130482e-01
   endloop
 endfacet
 facet normal  0.000000e+00 -7.071068e-01  7.071068e-01
   outer loop
     vertex -2.591873e-01 -1.800559e-01  2.098482e-01
     vertex -2.571873e-01 -1.768559e-01  2.130482e-01
     vertex -2.591873e-01 -1.768559e-01  2.130482e-01
   endloop
 endfacet
 facet normal -0.000000e+00  7.071068e-01  7.071068e-01
   outer loop
     vertex -2.591873e-01 -1.832559e-01  2.130482e-01
     vertex -2.571873e-01 -1.832559e-01  2.130482e-01
     vertex -2.571873e-01 -1.800559e-01  2.098482e-01
   endloop
 endfacet
 facet normal  0.000000e+00  7.071068e-01  7.071068e-01
   outer loop
     vertex -2.591873e-01 -1.832559e-01  2.130482e-01
     vertex -2.571873e-01 -1.800559e-01  2.098482e-01
     vertex -2.591873e-01 -1.800559e-01  2.098482e-01
   endloop
 endfacet
 facet normal -0.000000e+00  0.000000e+00 -1.000000e+00
   outer loop
     vertex  2.165997e-01 -1.625559e-01  2.486922e-01
     vertex -2.551873e-01 -1.975559e-01  2.486922e-01
     vertex -2.551873e-01 -1.625559e-01  2.486922e-01
   endloop
 endfacet
 facet normal  0.000000e+00 -0.000000e+00 -1.000000e+00
   outer loop
     vertex  2.165997e-01 -1.625559e-01  2.486922e-01
     vertex  2.165997e-01 -1.975559e-01  2.486922e-01
     vertex -2.551873e-01 -1.975559e-01  2.486922e-01
   endloop
 endfacet
 facet normal -9.659258e-01  0.000000e+00 -2.588190e-01
   outer loop
     vertex  2.183318e-01 -1.975559e-01  2.476922e-01
     vertex  2.185997e-01 -1.625559e-01  2.466922e-01
     vertex  2.185997e-01 -1.975559e-01  2.466922e-01
   endloop
 endfacet
 facet normal -9.659258e-01  0.000000e+00 -2.588190e-01
   outer loop
     vertex  2.183318e-01 -1.975559e-01  2.476922e-01
     vertex  2.183318e-01 -1.625559e-01  2.476922e-01
     vertex  2.185997e-01 -1.625559e-01  2.466922e-01
   endloop
 endfacet
 facet normal -7.071068e-01  0.000000e+00 -7.071068e-01
   outer loop
     vertex  2.175997e-01 -1.975559e-01  2.484243e-01
     vertex  2.175997e-01 -1.625559e-01  2.484243e-01
     vertex  2.183318e-01 -1.625559e-01  2.476922e-01
   endloop
 endfacet
 facet normal -7.071068e-01  0.000000e+00 -7.071068e-01
   outer loop
     vertex  2.175997e-01 -1.975559e-01  2.484243e-01
     vertex  2.183318e-01 -1.625559e-01  2.476922e-01
     vertex  2.183318e-01 -1.975559e-01  2.476922e-01
   endloop
 endfacet
 facet normal -2.588190e-01  0.000000e+00 -9.659258e-01
   outer loop
     vertex  2.165997e-01 -1.975559e-01  2.486922e-01
     vertex  2.165997e-01 -1.625559e-01  2.486922e-01
     vertex  2.175997e-01 -1.625559e-01  2.484243e-01
   endloop
 endfacet
 facet normal -2.588190e-01  0.000000e+00 -9.659258e-01
   outer loop
     vertex  2.165997e-01 -1.975559e-01  2.486922e-01
     vertex  2.175997e-01 -1.625559e-01  2.484243e-01
     vertex  2.175997e-01 -1.975559e-01  2.484243e-01
   endloop
 endfacet
 facet normal -1.000000e+00 -4.182692e-13 -6.919539e-13
   outer loop
     vertex  2.185997e-01 -1.832559e-01  2.380482e-01
     vertex  2.185997e-01 -1.975559e-01  2.466922e-01
     vertex  2.185997e-01 -1.800559e-01  2.412482e-01
   endloop
 endfacet
 facet normal -1.000000e+00  1.548428e-13  1.548428e-13
   outer loop
     vertex  2.185997e-01 -1.625559e-01  2.466922e-01
     vertex  2.185997e-01 -1.768559e-01  2.380482e-01
     vertex  2.185997e-01 -1.800559e-01  2.412482e-01
   endloop
 endfacet
 facet normal -1.000000e+00  0.000000e+00  6.525925e-13
   outer loop
     vertex  2.185997e-01 -1.625559e-01  2.466922e-01
     vertex  2.185997e-01 -1.800559e-01  2.412482e-01
     vertex  2.185997e-01 -1.975559e-01  2.466922e-01
   endloop
 endfacet
 facet normal -1.000000e+00 -0.000000e+00  0.000000e+00
   outer loop
     vertex  2.185997e-01 -1.832559e-01  2.130482e-01
     vertex  2.185997e-01 -1.975559e-01  2.010482e-01
     vertex  2.185997e-01 -1.975559e-01  2.466922e-01
   endloop
 endfacet
 facet normal -1.000000e+00 -1.110223e-12  0.000000e+00
   outer loop
     vertex  2.185997e-01 -1.832559e-01  2.130482e-01
     vertex  2.185997e-01 -1.832559e-01  2.380482e-01
     vertex  2.185997e-01 -1.800559e-01  2.348482e-01
   endloop
 endfacet
 facet normal -1.000000e+00  0.000000e+00  0.000000e+00
   outer loop
     vertex  2.185997e-01 -1.832559e-01  2.130482e-01
     vertex  2.185997e-01 -1.975559e-01  2.466922e-01
     vertex  2.185997e-01 -1.832559e-01  2.380482e-01
   endloop
 endfacet
 facet normal -1.000000e+00 -1.110223e-12  0.000000e+00
   outer loop
     vertex  2.185997e-01 -1.832559e-01  2.130482e-01
     vertex  2.185997e-01 -1.800559e-01  2.348482e-01
     vertex  2.185997e-01 -1.800559e-01  2.162482e-01
   endloop
 endfacet
 facet normal -1.000000e+00  0.000000e+00  0.000000e+00
   outer loop
     vertex  2.185997e-01 -1.768559e-01  2.130482e-01
     vertex  2.185997e-01 -1.800559e-01  2.348482e-01
     vertex  2.185997e-01 -1.768559e-01  2.380482e-01
   endloop
 endfacet
 facet normal -1.000000e+00  2.484415e-13  0.000000e+00
   outer loop
     vertex  2.185997e-01 -1.768559e-01  2.130482e-01
     vertex  2.185997e-01 -1.768559e-01  2.380482e-01
     vertex  2.185997e-01 -1.625559e-01  2.466922e-01
   endloop
 endfacet
 facet normal -1.000000e+00  0.000000e+00  0.000000e+00
   outer loop
     vertex  2.185997e-01 -1.768559e-01  2.130482e-01
     vertex  2.185997e-01 -1.800559e-01  2.162482e-01
     vertex  2.185997e-01 -1.800559e-01  2.348482e-01
   endloop
 endfacet
 facet normal -1.000000e+00 -5.065656e-13  6.036574e-13
   outer loop
     vertex  2.185997e-01 -1.800559e-01  2.098482e-01
     vertex  2.185997e-01 -1.975559e-01  2.010482e-01
     vertex  2.185997e-01 -1.832559e-01  2.130482e-01
   endloop
 endfacet
 facet normal -1.000000e+00  1.350842e-13 -1.350842e-13
   outer loop
     vertex  2.185997e-01 -1.625559e-01  2.010482e-01
     vertex  2.185997e-01 -1.800559e-01  2.098482e-01
     vertex  2.185997e-01 -1.768559e-01  2.130482e-01
   endloop
 endfacet
 facet normal -1.000000e+00  2.484415e-13  0.000000e+00
   outer loop
     vertex  2.185997e-01 -1.625559e-01  2.010482e-01
     vertex  2.185997e-01 -1.768559e-01  2.130482e-01
     vertex  2.185997e-01 -1.625559e-01  2.466922e-01
   endloop
 endfacet
 facet normal -1.000000e+00 -0.000000e+00 -4.037175e-13
   outer loop
     vertex  2.185997e-01 -1.625559e-01  2.010482e-01
     vertex  2.185997e-01 -1.975559e-01  2.010482e-01
     vertex  2.185997e-01 -1.800559e-01  2.098482e-01
   endloop
 endfacet
 facet normal  0.000000e+00  7.071068e-01 -7.071068e-01
   outer loop
     vertex  2.185997e-01 -1.800559e-01  2.412482e-01
     vertex  2.205997e-01 -1.832559e-01  2.380482e-01
     vertex  2.185997e-01 -1.832559e-01  2.380482e-01
   endloop
 endfacet
 facet normal  0.000000e+00  7.071068e-01 -7.071068e-01
   outer loop
     vertex  2.185997e-01 -1.800559e-01  2.412482e-01
     vertex  2.205997e-01 -1.800559e-01  2.412482e-01
     vertex  2.205997e-01 -1.832559e-01  2.380482e-01
   endloop
 endfacet
 facet normal  0.000000e+00 -7.071068e-01 -7.071068e-01
   outer loop
     vertex  2.185997e-01 -1.768559e-01  2.380482e-01
     vertex  2.205997e-01 -1.768559e-01  2.380482e-01
     vertex  2.205997e-01 -1.800559e-01  2.412482e-01
   endloop
 endfacet
 facet normal  0.000000e+00 -7.071068e-01 -7.071068e-01
   outer loop
     vertex  2.185997e-01 -1.768559e-01  2.380482e-01
     vertex  2.205997e-01 -1.800559e-01  2.412482e-01
     vertex  2.185997e-01 -1.800559e-01  2.412482e-01
   endloop
 endfacet
 facet normal  0.000000e+00 -7.071068e-01  7.071068e-01
   outer loop
     vertex  2.185997e-01 -1.800559e-01  2.348482e-01
     vertex  2.205997e-01 -1.800559e-01  2.348482e-01
     vertex  2.205997e-01 -1.768559e-01  2.380482e-01
   endloop
 endfacet
 facet normal  0.000000e+00 -7.071068e-01  7.071068e-01
   outer loop
     vertex  2.185997e-01 -1.800559e-01  2.348482e-01
     vertex  2.205997e-01 -1.768559e-01  2.380482e-01
     vertex  2.185997e-01 -1.768559e-01  2.380482e-01
   endloop
 endfacet
 facet normal -0.000000e+00  7.071068e-01  7.071068e-01
   outer loop
     vertex  2.185997e-01 -1.832559e-01  2.380482e-01
     vertex  2.205997e-01 -1.832559e-01  2.380482e-01
     vertex  2.205997e-01 -1.800559e-01  2.348482e-01
   endloop
 endfacet
 facet normal  0.000000e+00  7.071068e-01  7.071068e-01
   outer loop
     vertex  2.185997e-01 -1.832559e-01  2.380482e-01
     vertex  2.205997e-01 -1.800559e-01  2.348482e-01
     vertex  2.185997e-01 -1.800559e-01  2.348482e-01
   endloop
 endfacet
 facet normal  0.000000e+00  7.071068e-01 -7.071068e-01
   outer loop
     vertex  2.185997e-01 -1.800559e-01  2.162482e-01
     vertex  2.205997e-01 -1.832559e-01  2.130482e-01
     vertex  2.185997e-01 -1.832559e-01  2.130482e-01
   endloop
 endfacet
 facet normal  0.000000e+00  7.071068e-01 -7.071068e-01
   outer loop
     vertex  2.185997e-01 -1.800559e-01  2.162482e-01
     vertex  2.205997e-01 -1.800559e-01  2.162482e-01
     vertex  2.205997e-01 -1.832559e-01  2.130482e-01
   endloop
 endfacet
 facet normal  0.000000e+00 -7.071068e-01 -7.071068e-01
   outer loop
     vertex  2.185997e-01 -1.768559e-01  2.130482e-01
     vertex  2.205997e-01 -1.768559e-01  2.130482e-01
     vertex  2.205997e-01 -1.800559e-01  2.162482e-01
   endloop
 endfacet
 facet normal  0.000000e+00 -7.071068e-01 -7.071068e-01
   outer loop
     vertex  2.185997e-01 -1.768559e-01  2.130482e-01
     vertex  2.205997e-01 -1.800559e-01  2.162482e-01
     vertex  2.185997e-01 -1.800559e-01  2.162482e-01
   endloop
 endfacet
 facet normal  0.000000e+00 -7.071068e-01  7.071068e-01
   outer loop
     vertex  2.185997e-01 -1.800559e-01  2.098482e-01
     vertex  2.205997e-01 -1.800559e-01  2.098482e-01
     vertex  2.205997e-01 -1.768559e-01  2.130482e-01
   endloop
 endfacet
 facet normal  0.000000e+00 -7.071068e-01  7.071068e-01
   outer loop
     vertex  2.185997e-01 -1.800559e-01  2.098482e-01
     vertex  2.205997e-01 -1.768559e-01  2.130482e-01
     vertex  2.185997e-01 -1.768559e-01  2.130482e-01
   endloop
 endfacet
 facet normal -0.000000e+00  7.071068e-01  7.071068e-01
   outer loop
     vertex  2.185997e-01 -1.832559e-01  2.130482e-01
     vertex  2.205997e-01 -1.832559e-01  2.130482e-01
     vertex  2.205997e-01 -1.800559e-01  2.098482e-01
   endloop
 endfacet
 facet normal  0.000000e+00  7.071068e-01  7.071068e-01
   outer loop
     vertex  2.185997e-01 -1.832559e-01  2.130482e-01
     vertex  2.205997e-01 -1.800559e-01  2.098482e-01
     vertex  2.185997e-01 -1.800559e-01  2.098482e-01
   endloop
 endfacet
endsolid
