solid 
 facet normal  7.071068e-01  7.071068e-01  0.000000e+00
   outer loop
     vertex -5.940027e-02  6.794415e-02  1.318692e+00
     vertex -5.690027e-02  6.544415e-02  1.318692e+00
     vertex -5.690027e-02  6.544415e-02  1.298692e+00
   endloop
 endfacet
 facet normal  7.071068e-01  7.071068e-01  0.000000e+00
   outer loop
     vertex -5.940027e-02  6.794415e-02  1.318692e+00
     vertex -5.690027e-02  6.544415e-02  1.298692e+00
     vertex -5.940027e-02  6.794415e-02  1.298692e+00
   endloop
 endfacet
 facet normal -7.071068e-01  7.071068e-01  0.000000e+00
   outer loop
     vertex -6.190027e-02  6.544415e-02  1.318692e+00
     vertex -5.940027e-02  6.794415e-02  1.298692e+00
     vertex -6.190027e-02  6.544415e-02  1.298692e+00
   endloop
 endfacet
 facet normal -7.071068e-01  7.071068e-01  0.000000e+00
   outer loop
     vertex -6.190027e-02  6.544415e-02  1.318692e+00
     vertex -5.940027e-02  6.794415e-02  1.318692e+00
     vertex -5.940027e-02  6.794415e-02  1.298692e+00
   endloop
 endfacet
 facet normal -7.071068e-01 -7.071068e-01 -0.000000e+00
   outer loop
     vertex -5.940027e-02  6.294415e-02  1.318692e+00
     vertex -6.190027e-02  6.544415e-02  1.298692e+00
     vertex -5.940027e-02  6.294415e-02  1.298692e+00
   endloop
 endfacet
 facet normal -7.071068e-01 -7.071068e-01  0.000000e+00
   outer loop
     vertex -5.940027e-02  6.294415e-02  1.318692e+00
     vertex -6.190027e-02  6.544415e-02  1.318692e+00
     vertex -6.190027e-02  6.544415e-02  1.298692e+00
   endloop
 endfacet
 facet normal  7.071068e-01 -7.071068e-01  0.000000e+00
   outer loop
     vertex -5.690027e-02  6.544415e-02  1.318692e+00
     vertex -5.940027e-02  6.294415e-02  1.298692e+00
     vertex -5.690027e-02  6.544415e-02  1.298692e+00
   endloop
 endfacet
 facet normal  7.071068e-01 -7.071068e-01  0.000000e+00
   outer loop
     vertex -5.690027e-02  6.544415e-02  1.318692e+00
     vertex -5.940027e-02  6.294415e-02  1.318692e+00
     vertex -5.940027e-02  6.294415e-02  1.298692e+00
   endloop
 endfacet
endsolid
