solid 
 facet normal -1.000000e+00  0.000000e+00  0.000000e+00
   outer loop
     vertex  1.595997e-01 -2.837889e-01  8.686922e-01
     vertex  1.595997e-01 -2.805559e-01  8.719252e-01
     vertex  1.595997e-01 -2.773229e-01  8.686922e-01
   endloop
 endfacet
 facet normal -1.000000e+00  0.000000e+00  0.000000e+00
   outer loop
     vertex  1.595997e-01 -2.837889e-01  8.686922e-01
     vertex  1.595997e-01 -2.773229e-01  8.686922e-01
     vertex  1.595997e-01 -2.805559e-01  8.654592e-01
   endloop
 endfacet
 facet normal -6.546537e-01  3.779645e-01 -6.546537e-01
   outer loop
     vertex  1.603667e-01 -2.770917e-01  8.666922e-01
     vertex  1.603667e-01 -2.805559e-01  8.646922e-01
     vertex  1.595997e-01 -2.805559e-01  8.654592e-01
   endloop
 endfacet
 facet normal -8.993459e-01  3.091739e-01 -3.091739e-01
   outer loop
     vertex  1.595997e-01 -2.773229e-01  8.686922e-01
     vertex  1.603667e-01 -2.770917e-01  8.666922e-01
     vertex  1.595997e-01 -2.805559e-01  8.654592e-01
   endloop
 endfacet
 facet normal -2.884948e-01  9.574815e-01  0.000000e+00
   outer loop
     vertex  1.603667e-01 -2.770917e-01  8.706922e-01
     vertex  1.603667e-01 -2.770917e-01  8.666922e-01
     vertex  1.595997e-01 -2.773229e-01  8.686922e-01
   endloop
 endfacet
 facet normal -8.993459e-01  3.091739e-01  3.091739e-01
   outer loop
     vertex  1.595997e-01 -2.805559e-01  8.719252e-01
     vertex  1.603667e-01 -2.770917e-01  8.706922e-01
     vertex  1.595997e-01 -2.773229e-01  8.686922e-01
   endloop
 endfacet
 facet normal -6.546537e-01  3.779645e-01  6.546537e-01
   outer loop
     vertex  1.603667e-01 -2.805559e-01  8.726922e-01
     vertex  1.603667e-01 -2.770917e-01  8.706922e-01
     vertex  1.595997e-01 -2.805559e-01  8.719252e-01
   endloop
 endfacet
 facet normal -6.546537e-01 -3.779645e-01  6.546537e-01
   outer loop
     vertex  1.603667e-01 -2.840200e-01  8.706922e-01
     vertex  1.603667e-01 -2.805559e-01  8.726922e-01
     vertex  1.595997e-01 -2.805559e-01  8.719252e-01
   endloop
 endfacet
 facet normal -8.993459e-01 -3.091739e-01  3.091739e-01
   outer loop
     vertex  1.595997e-01 -2.837889e-01  8.686922e-01
     vertex  1.603667e-01 -2.840200e-01  8.706922e-01
     vertex  1.595997e-01 -2.805559e-01  8.719252e-01
   endloop
 endfacet
 facet normal -2.884948e-01 -9.574815e-01  0.000000e+00
   outer loop
     vertex  1.603667e-01 -2.840200e-01  8.666922e-01
     vertex  1.603667e-01 -2.840200e-01  8.706922e-01
     vertex  1.595997e-01 -2.837889e-01  8.686922e-01
   endloop
 endfacet
 facet normal -8.993459e-01 -3.091739e-01 -3.091739e-01
   outer loop
     vertex  1.595997e-01 -2.805559e-01  8.654592e-01
     vertex  1.603667e-01 -2.840200e-01  8.666922e-01
     vertex  1.595997e-01 -2.837889e-01  8.686922e-01
   endloop
 endfacet
 facet normal -6.546537e-01 -3.779645e-01 -6.546537e-01
   outer loop
     vertex  1.603667e-01 -2.805559e-01  8.646922e-01
     vertex  1.603667e-01 -2.840200e-01  8.666922e-01
     vertex  1.595997e-01 -2.805559e-01  8.654592e-01
   endloop
 endfacet
 facet normal  0.000000e+00  5.000000e-01  8.660254e-01
   outer loop
     vertex  1.603667e-01 -2.770917e-01  8.706922e-01
     vertex  1.603667e-01 -2.805559e-01  8.726922e-01
     vertex  1.757337e-01 -2.805559e-01  8.726922e-01
   endloop
 endfacet
 facet normal -0.000000e+00  5.000000e-01  8.660254e-01
   outer loop
     vertex  1.603667e-01 -2.770917e-01  8.706922e-01
     vertex  1.757337e-01 -2.805559e-01  8.726922e-01
     vertex  1.757337e-01 -2.770917e-01  8.706922e-01
   endloop
 endfacet
 facet normal  0.000000e+00  1.000000e+00  0.000000e+00
   outer loop
     vertex  1.603667e-01 -2.770917e-01  8.666922e-01
     vertex  1.757337e-01 -2.770917e-01  8.706922e-01
     vertex  1.757337e-01 -2.770917e-01  8.666922e-01
   endloop
 endfacet
 facet normal  0.000000e+00  1.000000e+00  0.000000e+00
   outer loop
     vertex  1.603667e-01 -2.770917e-01  8.666922e-01
     vertex  1.603667e-01 -2.770917e-01  8.706922e-01
     vertex  1.757337e-01 -2.770917e-01  8.706922e-01
   endloop
 endfacet
 facet normal  0.000000e+00  5.000000e-01 -8.660254e-01
   outer loop
     vertex  1.603667e-01 -2.805559e-01  8.646922e-01
     vertex  1.757337e-01 -2.770917e-01  8.666922e-01
     vertex  1.757337e-01 -2.805559e-01  8.646922e-01
   endloop
 endfacet
 facet normal  0.000000e+00  5.000000e-01 -8.660254e-01
   outer loop
     vertex  1.603667e-01 -2.805559e-01  8.646922e-01
     vertex  1.603667e-01 -2.770917e-01  8.666922e-01
     vertex  1.757337e-01 -2.770917e-01  8.666922e-01
   endloop
 endfacet
 facet normal  0.000000e+00 -5.000000e-01 -8.660254e-01
   outer loop
     vertex  1.603667e-01 -2.840200e-01  8.666922e-01
     vertex  1.757337e-01 -2.805559e-01  8.646922e-01
     vertex  1.757337e-01 -2.840200e-01  8.666922e-01
   endloop
 endfacet
 facet normal  0.000000e+00 -5.000000e-01 -8.660254e-01
   outer loop
     vertex  1.603667e-01 -2.840200e-01  8.666922e-01
     vertex  1.603667e-01 -2.805559e-01  8.646922e-01
     vertex  1.757337e-01 -2.805559e-01  8.646922e-01
   endloop
 endfacet
 facet normal  0.000000e+00 -1.000000e+00  0.000000e+00
   outer loop
     vertex  1.603667e-01 -2.840200e-01  8.706922e-01
     vertex  1.757337e-01 -2.840200e-01  8.666922e-01
     vertex  1.757337e-01 -2.840200e-01  8.706922e-01
   endloop
 endfacet
 facet normal  0.000000e+00 -1.000000e+00  0.000000e+00
   outer loop
     vertex  1.603667e-01 -2.840200e-01  8.706922e-01
     vertex  1.603667e-01 -2.840200e-01  8.666922e-01
     vertex  1.757337e-01 -2.840200e-01  8.666922e-01
   endloop
 endfacet
 facet normal  0.000000e+00 -5.000000e-01  8.660254e-01
   outer loop
     vertex  1.603667e-01 -2.805559e-01  8.726922e-01
     vertex  1.757337e-01 -2.840200e-01  8.706922e-01
     vertex  1.757337e-01 -2.805559e-01  8.726922e-01
   endloop
 endfacet
 facet normal  0.000000e+00 -5.000000e-01  8.660254e-01
   outer loop
     vertex  1.603667e-01 -2.805559e-01  8.726922e-01
     vertex  1.603667e-01 -2.840200e-01  8.706922e-01
     vertex  1.757337e-01 -2.840200e-01  8.706922e-01
   endloop
 endfacet
 facet normal -4.472136e-01  4.472136e-01 -7.745967e-01
   outer loop
     vertex  1.765997e-01 -2.766587e-01  8.664422e-01
     vertex  1.765997e-01 -2.805559e-01  8.641922e-01
     vertex  1.757337e-01 -2.805559e-01  8.646922e-01
   endloop
 endfacet
 facet normal -4.472136e-01  4.472136e-01 -7.745967e-01
   outer loop
     vertex  1.765997e-01 -2.766587e-01  8.664422e-01
     vertex  1.757337e-01 -2.805559e-01  8.646922e-01
     vertex  1.757337e-01 -2.770917e-01  8.666922e-01
   endloop
 endfacet
 facet normal -4.472136e-01  8.944272e-01  0.000000e+00
   outer loop
     vertex  1.765997e-01 -2.766587e-01  8.709422e-01
     vertex  1.757337e-01 -2.770917e-01  8.666922e-01
     vertex  1.757337e-01 -2.770917e-01  8.706922e-01
   endloop
 endfacet
 facet normal -4.472136e-01  8.944272e-01  0.000000e+00
   outer loop
     vertex  1.765997e-01 -2.766587e-01  8.709422e-01
     vertex  1.765997e-01 -2.766587e-01  8.664422e-01
     vertex  1.757337e-01 -2.770917e-01  8.666922e-01
   endloop
 endfacet
 facet normal -4.472136e-01  4.472136e-01  7.745967e-01
   outer loop
     vertex  1.765997e-01 -2.805559e-01  8.731922e-01
     vertex  1.757337e-01 -2.770917e-01  8.706922e-01
     vertex  1.757337e-01 -2.805559e-01  8.726922e-01
   endloop
 endfacet
 facet normal -4.472136e-01  4.472136e-01  7.745967e-01
   outer loop
     vertex  1.765997e-01 -2.805559e-01  8.731922e-01
     vertex  1.765997e-01 -2.766587e-01  8.709422e-01
     vertex  1.757337e-01 -2.770917e-01  8.706922e-01
   endloop
 endfacet
 facet normal -4.472136e-01 -4.472136e-01  7.745967e-01
   outer loop
     vertex  1.765997e-01 -2.844530e-01  8.709422e-01
     vertex  1.757337e-01 -2.805559e-01  8.726922e-01
     vertex  1.757337e-01 -2.840200e-01  8.706922e-01
   endloop
 endfacet
 facet normal -4.472136e-01 -4.472136e-01  7.745967e-01
   outer loop
     vertex  1.765997e-01 -2.844530e-01  8.709422e-01
     vertex  1.765997e-01 -2.805559e-01  8.731922e-01
     vertex  1.757337e-01 -2.805559e-01  8.726922e-01
   endloop
 endfacet
 facet normal -4.472136e-01 -8.944272e-01  0.000000e+00
   outer loop
     vertex  1.765997e-01 -2.844530e-01  8.664422e-01
     vertex  1.757337e-01 -2.840200e-01  8.706922e-01
     vertex  1.757337e-01 -2.840200e-01  8.666922e-01
   endloop
 endfacet
 facet normal -4.472136e-01 -8.944272e-01  0.000000e+00
   outer loop
     vertex  1.765997e-01 -2.844530e-01  8.664422e-01
     vertex  1.765997e-01 -2.844530e-01  8.709422e-01
     vertex  1.757337e-01 -2.840200e-01  8.706922e-01
   endloop
 endfacet
 facet normal -4.472136e-01 -4.472136e-01 -7.745967e-01
   outer loop
     vertex  1.765997e-01 -2.805559e-01  8.641922e-01
     vertex  1.757337e-01 -2.840200e-01  8.666922e-01
     vertex  1.757337e-01 -2.805559e-01  8.646922e-01
   endloop
 endfacet
 facet normal -4.472136e-01 -4.472136e-01 -7.745967e-01
   outer loop
     vertex  1.765997e-01 -2.805559e-01  8.641922e-01
     vertex  1.765997e-01 -2.844530e-01  8.664422e-01
     vertex  1.757337e-01 -2.840200e-01  8.666922e-01
   endloop
 endfacet
 facet normal  0.000000e+00  5.000000e-01  8.660254e-01
   outer loop
     vertex  1.765997e-01 -2.766587e-01  8.709422e-01
     vertex  1.765997e-01 -2.805559e-01  8.731922e-01
     vertex  1.880872e-01 -2.805559e-01  8.731922e-01
   endloop
 endfacet
 facet normal  1.008701e-01  7.035003e-01  7.035003e-01
   outer loop
     vertex  1.765997e-01 -2.766587e-01  8.709422e-01
     vertex  1.880872e-01 -2.805559e-01  8.731922e-01
     vertex  1.880872e-01 -2.760559e-01  8.686922e-01
   endloop
 endfacet
 facet normal  1.008701e-01  7.035003e-01 -7.035003e-01
   outer loop
     vertex  1.765997e-01 -2.766587e-01  8.664422e-01
     vertex  1.880872e-01 -2.760559e-01  8.686922e-01
     vertex  1.880872e-01 -2.805559e-01  8.641922e-01
   endloop
 endfacet
 facet normal -5.240976e-02  9.986257e-01  0.000000e+00
   outer loop
     vertex  1.765997e-01 -2.766587e-01  8.664422e-01
     vertex  1.765997e-01 -2.766587e-01  8.709422e-01
     vertex  1.880872e-01 -2.760559e-01  8.686922e-01
   endloop
 endfacet
 facet normal  0.000000e+00  5.000000e-01 -8.660254e-01
   outer loop
     vertex  1.765997e-01 -2.805559e-01  8.641922e-01
     vertex  1.765997e-01 -2.766587e-01  8.664422e-01
     vertex  1.880872e-01 -2.805559e-01  8.641922e-01
   endloop
 endfacet
 facet normal  1.008701e-01 -7.035003e-01 -7.035003e-01
   outer loop
     vertex  1.765997e-01 -2.844530e-01  8.664422e-01
     vertex  1.880872e-01 -2.805559e-01  8.641922e-01
     vertex  1.880872e-01 -2.850559e-01  8.686922e-01
   endloop
 endfacet
 facet normal  0.000000e+00 -5.000000e-01 -8.660254e-01
   outer loop
     vertex  1.765997e-01 -2.844530e-01  8.664422e-01
     vertex  1.765997e-01 -2.805559e-01  8.641922e-01
     vertex  1.880872e-01 -2.805559e-01  8.641922e-01
   endloop
 endfacet
 facet normal  1.008701e-01 -7.035003e-01  7.035003e-01
   outer loop
     vertex  1.765997e-01 -2.844530e-01  8.709422e-01
     vertex  1.880872e-01 -2.850559e-01  8.686922e-01
     vertex  1.880872e-01 -2.805559e-01  8.731922e-01
   endloop
 endfacet
 facet normal -5.240976e-02 -9.986257e-01 -0.000000e+00
   outer loop
     vertex  1.765997e-01 -2.844530e-01  8.709422e-01
     vertex  1.765997e-01 -2.844530e-01  8.664422e-01
     vertex  1.880872e-01 -2.850559e-01  8.686922e-01
   endloop
 endfacet
 facet normal  0.000000e+00 -5.000000e-01  8.660254e-01
   outer loop
     vertex  1.765997e-01 -2.805559e-01  8.731922e-01
     vertex  1.765997e-01 -2.844530e-01  8.709422e-01
     vertex  1.880872e-01 -2.805559e-01  8.731922e-01
   endloop
 endfacet
 facet normal  3.779645e-01  6.546537e-01  6.546537e-01
   outer loop
     vertex  1.880872e-01 -2.760559e-01  8.686922e-01
     vertex  1.880872e-01 -2.805559e-01  8.731922e-01
     vertex  1.887801e-01 -2.805559e-01  8.727922e-01
   endloop
 endfacet
 facet normal  3.779645e-01  6.546537e-01  6.546537e-01
   outer loop
     vertex  1.880872e-01 -2.760559e-01  8.686922e-01
     vertex  1.887801e-01 -2.805559e-01  8.727922e-01
     vertex  1.887801e-01 -2.764559e-01  8.686922e-01
   endloop
 endfacet
 facet normal  3.779645e-01  6.546537e-01 -6.546537e-01
   outer loop
     vertex  1.880872e-01 -2.805559e-01  8.641922e-01
     vertex  1.887801e-01 -2.764559e-01  8.686922e-01
     vertex  1.887801e-01 -2.805559e-01  8.645922e-01
   endloop
 endfacet
 facet normal  3.779645e-01  6.546537e-01 -6.546537e-01
   outer loop
     vertex  1.880872e-01 -2.805559e-01  8.641922e-01
     vertex  1.880872e-01 -2.760559e-01  8.686922e-01
     vertex  1.887801e-01 -2.764559e-01  8.686922e-01
   endloop
 endfacet
 facet normal  3.779645e-01 -6.546537e-01 -6.546537e-01
   outer loop
     vertex  1.880872e-01 -2.850559e-01  8.686922e-01
     vertex  1.887801e-01 -2.805559e-01  8.645922e-01
     vertex  1.887801e-01 -2.846559e-01  8.686922e-01
   endloop
 endfacet
 facet normal  3.779645e-01 -6.546537e-01 -6.546537e-01
   outer loop
     vertex  1.880872e-01 -2.850559e-01  8.686922e-01
     vertex  1.880872e-01 -2.805559e-01  8.641922e-01
     vertex  1.887801e-01 -2.805559e-01  8.645922e-01
   endloop
 endfacet
 facet normal  3.779645e-01 -6.546537e-01  6.546537e-01
   outer loop
     vertex  1.880872e-01 -2.805559e-01  8.731922e-01
     vertex  1.887801e-01 -2.846559e-01  8.686922e-01
     vertex  1.887801e-01 -2.805559e-01  8.727922e-01
   endloop
 endfacet
 facet normal  3.779645e-01 -6.546537e-01  6.546537e-01
   outer loop
     vertex  1.880872e-01 -2.805559e-01  8.731922e-01
     vertex  1.880872e-01 -2.850559e-01  8.686922e-01
     vertex  1.887801e-01 -2.846559e-01  8.686922e-01
   endloop
 endfacet
 facet normal  1.402688e-01  7.001159e-01  7.001159e-01
   outer loop
     vertex  1.891253e-01 -2.765250e-01  8.686922e-01
     vertex  1.887801e-01 -2.805559e-01  8.727922e-01
     vertex  1.891253e-01 -2.805559e-01  8.727231e-01
   endloop
 endfacet
 facet normal  1.402688e-01  7.001159e-01  7.001159e-01
   outer loop
     vertex  1.891253e-01 -2.765250e-01  8.686922e-01
     vertex  1.887801e-01 -2.764559e-01  8.686922e-01
     vertex  1.887801e-01 -2.805559e-01  8.727922e-01
   endloop
 endfacet
 facet normal -8.155298e-01  4.092133e-01  4.092133e-01
   outer loop
     vertex  1.894418e-01 -2.763706e-01  8.686922e-01
     vertex  1.895997e-01 -2.805559e-01  8.731922e-01
     vertex  1.895997e-01 -2.760559e-01  8.686922e-01
   endloop
 endfacet
 facet normal -3.261912e-01  6.684307e-01  6.684307e-01
   outer loop
     vertex  1.894418e-01 -2.763706e-01  8.686922e-01
     vertex  1.891253e-01 -2.805559e-01  8.727231e-01
     vertex  1.894418e-01 -2.805559e-01  8.728775e-01
   endloop
 endfacet
 facet normal -8.155298e-01  4.092133e-01  4.092133e-01
   outer loop
     vertex  1.894418e-01 -2.763706e-01  8.686922e-01
     vertex  1.894418e-01 -2.805559e-01  8.728775e-01
     vertex  1.895997e-01 -2.805559e-01  8.731922e-01
   endloop
 endfacet
 facet normal -3.261912e-01  6.684307e-01  6.684307e-01
   outer loop
     vertex  1.894418e-01 -2.763706e-01  8.686922e-01
     vertex  1.891253e-01 -2.765250e-01  8.686922e-01
     vertex  1.891253e-01 -2.805559e-01  8.727231e-01
   endloop
 endfacet
 facet normal  1.402688e-01  7.001159e-01 -7.001159e-01
   outer loop
     vertex  1.891253e-01 -2.805559e-01  8.646614e-01
     vertex  1.887801e-01 -2.805559e-01  8.645922e-01
     vertex  1.887801e-01 -2.764559e-01  8.686922e-01
   endloop
 endfacet
 facet normal  1.402688e-01  7.001159e-01 -7.001159e-01
   outer loop
     vertex  1.891253e-01 -2.805559e-01  8.646614e-01
     vertex  1.887801e-01 -2.764559e-01  8.686922e-01
     vertex  1.891253e-01 -2.765250e-01  8.686922e-01
   endloop
 endfacet
 facet normal -8.155298e-01  4.092133e-01 -4.092133e-01
   outer loop
     vertex  1.894418e-01 -2.805559e-01  8.645070e-01
     vertex  1.895997e-01 -2.760559e-01  8.686922e-01
     vertex  1.895997e-01 -2.805559e-01  8.641922e-01
   endloop
 endfacet
 facet normal -3.261912e-01  6.684307e-01 -6.684307e-01
   outer loop
     vertex  1.894418e-01 -2.805559e-01  8.645070e-01
     vertex  1.891253e-01 -2.765250e-01  8.686922e-01
     vertex  1.894418e-01 -2.763706e-01  8.686922e-01
   endloop
 endfacet
 facet normal -8.155298e-01  4.092133e-01 -4.092133e-01
   outer loop
     vertex  1.894418e-01 -2.805559e-01  8.645070e-01
     vertex  1.894418e-01 -2.763706e-01  8.686922e-01
     vertex  1.895997e-01 -2.760559e-01  8.686922e-01
   endloop
 endfacet
 facet normal -3.261912e-01  6.684307e-01 -6.684307e-01
   outer loop
     vertex  1.894418e-01 -2.805559e-01  8.645070e-01
     vertex  1.891253e-01 -2.805559e-01  8.646614e-01
     vertex  1.891253e-01 -2.765250e-01  8.686922e-01
   endloop
 endfacet
 facet normal  1.402688e-01 -7.001159e-01  7.001159e-01
   outer loop
     vertex  1.891253e-01 -2.845867e-01  8.686922e-01
     vertex  1.891253e-01 -2.805559e-01  8.727231e-01
     vertex  1.887801e-01 -2.805559e-01  8.727922e-01
   endloop
 endfacet
 facet normal  1.402688e-01 -7.001159e-01 -7.001159e-01
   outer loop
     vertex  1.891253e-01 -2.845867e-01  8.686922e-01
     vertex  1.887801e-01 -2.846559e-01  8.686922e-01
     vertex  1.887801e-01 -2.805559e-01  8.645922e-01
   endloop
 endfacet
 facet normal  1.402688e-01 -7.001159e-01  7.001159e-01
   outer loop
     vertex  1.891253e-01 -2.845867e-01  8.686922e-01
     vertex  1.887801e-01 -2.805559e-01  8.727922e-01
     vertex  1.887801e-01 -2.846559e-01  8.686922e-01
   endloop
 endfacet
 facet normal  1.402688e-01 -7.001159e-01 -7.001159e-01
   outer loop
     vertex  1.891253e-01 -2.845867e-01  8.686922e-01
     vertex  1.887801e-01 -2.805559e-01  8.645922e-01
     vertex  1.891253e-01 -2.805559e-01  8.646614e-01
   endloop
 endfacet
 facet normal -3.261912e-01 -6.684307e-01  6.684307e-01
   outer loop
     vertex  1.894418e-01 -2.847411e-01  8.686922e-01
     vertex  1.894418e-01 -2.805559e-01  8.728775e-01
     vertex  1.891253e-01 -2.805559e-01  8.727231e-01
   endloop
 endfacet
 facet normal -8.155298e-01 -4.092133e-01  4.092133e-01
   outer loop
     vertex  1.894418e-01 -2.847411e-01  8.686922e-01
     vertex  1.895997e-01 -2.805559e-01  8.731922e-01
     vertex  1.894418e-01 -2.805559e-01  8.728775e-01
   endloop
 endfacet
 facet normal -8.155298e-01 -4.092133e-01 -4.092133e-01
   outer loop
     vertex  1.894418e-01 -2.847411e-01  8.686922e-01
     vertex  1.895997e-01 -2.805559e-01  8.641922e-01
     vertex  1.895997e-01 -2.850559e-01  8.686922e-01
   endloop
 endfacet
 facet normal -8.155298e-01 -4.092133e-01  4.092133e-01
   outer loop
     vertex  1.894418e-01 -2.847411e-01  8.686922e-01
     vertex  1.895997e-01 -2.850559e-01  8.686922e-01
     vertex  1.895997e-01 -2.805559e-01  8.731922e-01
   endloop
 endfacet
 facet normal -3.261912e-01 -6.684307e-01  6.684307e-01
   outer loop
     vertex  1.894418e-01 -2.847411e-01  8.686922e-01
     vertex  1.891253e-01 -2.805559e-01  8.727231e-01
     vertex  1.891253e-01 -2.845867e-01  8.686922e-01
   endloop
 endfacet
 facet normal -8.155298e-01 -4.092133e-01 -4.092133e-01
   outer loop
     vertex  1.894418e-01 -2.847411e-01  8.686922e-01
     vertex  1.894418e-01 -2.805559e-01  8.645070e-01
     vertex  1.895997e-01 -2.805559e-01  8.641922e-01
   endloop
 endfacet
 facet normal -3.261912e-01 -6.684307e-01 -6.684307e-01
   outer loop
     vertex  1.894418e-01 -2.847411e-01  8.686922e-01
     vertex  1.891253e-01 -2.845867e-01  8.686922e-01
     vertex  1.891253e-01 -2.805559e-01  8.646614e-01
   endloop
 endfacet
 facet normal -3.261912e-01 -6.684307e-01 -6.684307e-01
   outer loop
     vertex  1.894418e-01 -2.847411e-01  8.686922e-01
     vertex  1.891253e-01 -2.805559e-01  8.646614e-01
     vertex  1.894418e-01 -2.805559e-01  8.645070e-01
   endloop
 endfacet
 facet normal -1.000000e+00  0.000000e+00  0.000000e+00
   outer loop
     vertex  1.895997e-01 -2.805559e-01  8.731922e-01
     vertex  1.895997e-01 -2.805559e-01  8.761978e-01
     vertex  1.895997e-01 -2.740559e-01  8.724450e-01
   endloop
 endfacet
 facet normal -1.000000e+00  0.000000e+00  0.000000e+00
   outer loop
     vertex  1.895997e-01 -2.805559e-01  8.731922e-01
     vertex  1.895997e-01 -2.740559e-01  8.724450e-01
     vertex  1.895997e-01 -2.760559e-01  8.686922e-01
   endloop
 endfacet
 facet normal -1.000000e+00  0.000000e+00  0.000000e+00
   outer loop
     vertex  1.895997e-01 -2.740559e-01  8.649395e-01
     vertex  1.895997e-01 -2.760559e-01  8.686922e-01
     vertex  1.895997e-01 -2.740559e-01  8.724450e-01
   endloop
 endfacet
 facet normal -1.000000e+00  0.000000e+00  0.000000e+00
   outer loop
     vertex  1.895997e-01 -2.870559e-01  8.724450e-01
     vertex  1.895997e-01 -2.805559e-01  8.761978e-01
     vertex  1.895997e-01 -2.805559e-01  8.731922e-01
   endloop
 endfacet
 facet normal -1.000000e+00  0.000000e+00  0.000000e+00
   outer loop
     vertex  1.895997e-01 -2.805559e-01  8.641922e-01
     vertex  1.895997e-01 -2.760559e-01  8.686922e-01
     vertex  1.895997e-01 -2.740559e-01  8.649395e-01
   endloop
 endfacet
 facet normal -1.000000e+00  0.000000e+00  0.000000e+00
   outer loop
     vertex  1.895997e-01 -2.850559e-01  8.686922e-01
     vertex  1.895997e-01 -2.870559e-01  8.724450e-01
     vertex  1.895997e-01 -2.805559e-01  8.731922e-01
   endloop
 endfacet
 facet normal -1.000000e+00  0.000000e+00  0.000000e+00
   outer loop
     vertex  1.895997e-01 -2.805559e-01  8.611867e-01
     vertex  1.895997e-01 -2.805559e-01  8.641922e-01
     vertex  1.895997e-01 -2.740559e-01  8.649395e-01
   endloop
 endfacet
 facet normal -1.000000e+00  0.000000e+00  0.000000e+00
   outer loop
     vertex  1.895997e-01 -2.870559e-01  8.649395e-01
     vertex  1.895997e-01 -2.850559e-01  8.686922e-01
     vertex  1.895997e-01 -2.805559e-01  8.641922e-01
   endloop
 endfacet
 facet normal -1.000000e+00  0.000000e+00  0.000000e+00
   outer loop
     vertex  1.895997e-01 -2.870559e-01  8.649395e-01
     vertex  1.895997e-01 -2.805559e-01  8.641922e-01
     vertex  1.895997e-01 -2.805559e-01  8.611867e-01
   endloop
 endfacet
 facet normal -1.000000e+00  0.000000e+00  0.000000e+00
   outer loop
     vertex  1.895997e-01 -2.870559e-01  8.649395e-01
     vertex  1.895997e-01 -2.870559e-01  8.724450e-01
     vertex  1.895997e-01 -2.850559e-01  8.686922e-01
   endloop
 endfacet
 facet normal  0.000000e+00  1.000000e+00  0.000000e+00
   outer loop
     vertex  1.895997e-01 -2.740559e-01  8.649395e-01
     vertex  1.948997e-01 -2.740559e-01  8.686922e-01
     vertex  1.943192e-01 -2.740559e-01  8.649395e-01
   endloop
 endfacet
 facet normal -0.000000e+00  1.000000e+00  0.000000e+00
   outer loop
     vertex  1.895997e-01 -2.740559e-01  8.724450e-01
     vertex  1.943192e-01 -2.740559e-01  8.724450e-01
     vertex  1.948997e-01 -2.740559e-01  8.686922e-01
   endloop
 endfacet
 facet normal  0.000000e+00  1.000000e+00  0.000000e+00
   outer loop
     vertex  1.895997e-01 -2.740559e-01  8.724450e-01
     vertex  1.948997e-01 -2.740559e-01  8.686922e-01
     vertex  1.895997e-01 -2.740559e-01  8.649395e-01
   endloop
 endfacet
 facet normal  0.000000e+00  5.000000e-01 -8.660254e-01
   outer loop
     vertex  1.895997e-01 -2.805559e-01  8.611867e-01
     vertex  1.948997e-01 -2.773059e-01  8.630631e-01
     vertex  1.943192e-01 -2.805559e-01  8.611867e-01
   endloop
 endfacet
 facet normal  0.000000e+00  5.000000e-01 -8.660254e-01
   outer loop
     vertex  1.895997e-01 -2.740559e-01  8.649395e-01
     vertex  1.943192e-01 -2.740559e-01  8.649395e-01
     vertex  1.948997e-01 -2.773059e-01  8.630631e-01
   endloop
 endfacet
 facet normal  2.681287e-12  5.000000e-01 -8.660254e-01
   outer loop
     vertex  1.895997e-01 -2.740559e-01  8.649395e-01
     vertex  1.948997e-01 -2.773059e-01  8.630631e-01
     vertex  1.895997e-01 -2.805559e-01  8.611867e-01
   endloop
 endfacet
 facet normal  0.000000e+00 -5.000000e-01 -8.660254e-01
   outer loop
     vertex  1.895997e-01 -2.870559e-01  8.649395e-01
     vertex  1.948997e-01 -2.838059e-01  8.630631e-01
     vertex  1.943192e-01 -2.870559e-01  8.649395e-01
   endloop
 endfacet
 facet normal  0.000000e+00 -5.000000e-01 -8.660254e-01
   outer loop
     vertex  1.895997e-01 -2.805559e-01  8.611867e-01
     vertex  1.943192e-01 -2.805559e-01  8.611867e-01
     vertex  1.948997e-01 -2.838059e-01  8.630631e-01
   endloop
 endfacet
 facet normal  2.681287e-12 -5.000000e-01 -8.660254e-01
   outer loop
     vertex  1.895997e-01 -2.805559e-01  8.611867e-01
     vertex  1.948997e-01 -2.838059e-01  8.630631e-01
     vertex  1.895997e-01 -2.870559e-01  8.649395e-01
   endloop
 endfacet
 facet normal  0.000000e+00 -1.000000e+00  0.000000e+00
   outer loop
     vertex  1.895997e-01 -2.870559e-01  8.724450e-01
     vertex  1.948997e-01 -2.870559e-01  8.686922e-01
     vertex  1.943192e-01 -2.870559e-01  8.724450e-01
   endloop
 endfacet
 facet normal  0.000000e+00 -1.000000e+00  0.000000e+00
   outer loop
     vertex  1.895997e-01 -2.870559e-01  8.649395e-01
     vertex  1.943192e-01 -2.870559e-01  8.649395e-01
     vertex  1.948997e-01 -2.870559e-01  8.686922e-01
   endloop
 endfacet
 facet normal  0.000000e+00 -1.000000e+00  0.000000e+00
   outer loop
     vertex  1.895997e-01 -2.870559e-01  8.649395e-01
     vertex  1.948997e-01 -2.870559e-01  8.686922e-01
     vertex  1.895997e-01 -2.870559e-01  8.724450e-01
   endloop
 endfacet
 facet normal  0.000000e+00 -5.000000e-01  8.660254e-01
   outer loop
     vertex  1.895997e-01 -2.805559e-01  8.761978e-01
     vertex  1.948997e-01 -2.838059e-01  8.743214e-01
     vertex  1.943192e-01 -2.805559e-01  8.761978e-01
   endloop
 endfacet
 facet normal  0.000000e+00 -5.000000e-01  8.660254e-01
   outer loop
     vertex  1.895997e-01 -2.870559e-01  8.724450e-01
     vertex  1.943192e-01 -2.870559e-01  8.724450e-01
     vertex  1.948997e-01 -2.838059e-01  8.743214e-01
   endloop
 endfacet
 facet normal  2.681287e-12 -5.000000e-01  8.660254e-01
   outer loop
     vertex  1.895997e-01 -2.870559e-01  8.724450e-01
     vertex  1.948997e-01 -2.838059e-01  8.743214e-01
     vertex  1.895997e-01 -2.805559e-01  8.761978e-01
   endloop
 endfacet
 facet normal -0.000000e+00  5.000000e-01  8.660254e-01
   outer loop
     vertex  1.895997e-01 -2.740559e-01  8.724450e-01
     vertex  1.948997e-01 -2.773059e-01  8.743214e-01
     vertex  1.943192e-01 -2.740559e-01  8.724450e-01
   endloop
 endfacet
 facet normal -0.000000e+00  5.000000e-01  8.660254e-01
   outer loop
     vertex  1.895997e-01 -2.805559e-01  8.761978e-01
     vertex  1.943192e-01 -2.805559e-01  8.761978e-01
     vertex  1.948997e-01 -2.773059e-01  8.743214e-01
   endloop
 endfacet
 facet normal  2.681287e-12  5.000000e-01  8.660254e-01
   outer loop
     vertex  1.895997e-01 -2.805559e-01  8.761978e-01
     vertex  1.948997e-01 -2.773059e-01  8.743214e-01
     vertex  1.895997e-01 -2.740559e-01  8.724450e-01
   endloop
 endfacet
 facet normal  7.466688e-01 -2.275104e-01  6.250797e-01
   outer loop
     vertex  1.943192e-01 -2.805559e-01  8.761978e-01
     vertex  1.948997e-01 -2.838059e-01  8.743214e-01
     vertex  1.948997e-01 -2.816846e-01  8.750935e-01
   endloop
 endfacet
 facet normal  8.851347e-01  0.000000e+00  4.653349e-01
   outer loop
     vertex  1.948997e-01 -2.794271e-01  8.750935e-01
     vertex  1.943192e-01 -2.805559e-01  8.761978e-01
     vertex  1.948997e-01 -2.816846e-01  8.750935e-01
   endloop
 endfacet
 facet normal  7.466688e-01  2.275104e-01  6.250797e-01
   outer loop
     vertex  1.948997e-01 -2.773059e-01  8.743214e-01
     vertex  1.943192e-01 -2.805559e-01  8.761978e-01
     vertex  1.948997e-01 -2.794271e-01  8.750935e-01
   endloop
 endfacet
 facet normal  7.466688e-01  6.550901e-01 -1.155101e-01
   outer loop
     vertex  1.943192e-01 -2.740559e-01  8.649395e-01
     vertex  1.948997e-01 -2.740559e-01  8.686922e-01
     vertex  1.948997e-01 -2.744478e-01  8.664691e-01
   endloop
 endfacet
 facet normal  8.851347e-01  4.029918e-01 -2.326675e-01
   outer loop
     vertex  1.948997e-01 -2.755766e-01  8.645141e-01
     vertex  1.943192e-01 -2.740559e-01  8.649395e-01
     vertex  1.948997e-01 -2.744478e-01  8.664691e-01
   endloop
 endfacet
 facet normal  7.466688e-01  4.275797e-01 -5.095697e-01
   outer loop
     vertex  1.948997e-01 -2.773059e-01  8.630631e-01
     vertex  1.943192e-01 -2.740559e-01  8.649395e-01
     vertex  1.948997e-01 -2.755766e-01  8.645141e-01
   endloop
 endfacet
 facet normal  7.466688e-01  4.275797e-01  5.095697e-01
   outer loop
     vertex  1.943192e-01 -2.740559e-01  8.724450e-01
     vertex  1.948997e-01 -2.773059e-01  8.743214e-01
     vertex  1.948997e-01 -2.755766e-01  8.728704e-01
   endloop
 endfacet
 facet normal  8.851347e-01  4.029918e-01  2.326675e-01
   outer loop
     vertex  1.948997e-01 -2.744478e-01  8.709154e-01
     vertex  1.943192e-01 -2.740559e-01  8.724450e-01
     vertex  1.948997e-01 -2.755766e-01  8.728704e-01
   endloop
 endfacet
 facet normal  7.466688e-01  6.550901e-01  1.155101e-01
   outer loop
     vertex  1.948997e-01 -2.740559e-01  8.686922e-01
     vertex  1.943192e-01 -2.740559e-01  8.724450e-01
     vertex  1.948997e-01 -2.744478e-01  8.709154e-01
   endloop
 endfacet
 facet normal  7.466688e-01 -6.550901e-01  1.155101e-01
   outer loop
     vertex  1.943192e-01 -2.870559e-01  8.724450e-01
     vertex  1.948997e-01 -2.870559e-01  8.686922e-01
     vertex  1.948997e-01 -2.866639e-01  8.709154e-01
   endloop
 endfacet
 facet normal  8.851347e-01 -4.029918e-01  2.326675e-01
   outer loop
     vertex  1.948997e-01 -2.855351e-01  8.728704e-01
     vertex  1.943192e-01 -2.870559e-01  8.724450e-01
     vertex  1.948997e-01 -2.866639e-01  8.709154e-01
   endloop
 endfacet
 facet normal  7.466688e-01 -4.275797e-01  5.095697e-01
   outer loop
     vertex  1.948997e-01 -2.838059e-01  8.743214e-01
     vertex  1.943192e-01 -2.870559e-01  8.724450e-01
     vertex  1.948997e-01 -2.855351e-01  8.728704e-01
   endloop
 endfacet
 facet normal  7.466688e-01 -4.275797e-01 -5.095697e-01
   outer loop
     vertex  1.943192e-01 -2.870559e-01  8.649395e-01
     vertex  1.948997e-01 -2.838059e-01  8.630631e-01
     vertex  1.948997e-01 -2.855351e-01  8.645141e-01
   endloop
 endfacet
 facet normal  8.851347e-01 -4.029918e-01 -2.326675e-01
   outer loop
     vertex  1.948997e-01 -2.866639e-01  8.664691e-01
     vertex  1.943192e-01 -2.870559e-01  8.649395e-01
     vertex  1.948997e-01 -2.855351e-01  8.645141e-01
   endloop
 endfacet
 facet normal  7.466688e-01 -6.550901e-01 -1.155101e-01
   outer loop
     vertex  1.948997e-01 -2.870559e-01  8.686922e-01
     vertex  1.943192e-01 -2.870559e-01  8.649395e-01
     vertex  1.948997e-01 -2.866639e-01  8.664691e-01
   endloop
 endfacet
 facet normal  7.466688e-01  2.275104e-01 -6.250797e-01
   outer loop
     vertex  1.943192e-01 -2.805559e-01  8.611867e-01
     vertex  1.948997e-01 -2.773059e-01  8.630631e-01
     vertex  1.948997e-01 -2.794271e-01  8.622910e-01
   endloop
 endfacet
 facet normal  8.851347e-01  0.000000e+00 -4.653349e-01
   outer loop
     vertex  1.948997e-01 -2.816846e-01  8.622910e-01
     vertex  1.943192e-01 -2.805559e-01  8.611867e-01
     vertex  1.948997e-01 -2.794271e-01  8.622910e-01
   endloop
 endfacet
 facet normal  7.466688e-01 -2.275104e-01 -6.250797e-01
   outer loop
     vertex  1.948997e-01 -2.838059e-01  8.630631e-01
     vertex  1.943192e-01 -2.805559e-01  8.611867e-01
     vertex  1.948997e-01 -2.816846e-01  8.622910e-01
   endloop
 endfacet
 facet normal  1.000000e+00  0.000000e+00  0.000000e+00
   outer loop
     vertex  1.948997e-01 -2.805559e-01  8.703922e-01
     vertex  1.948997e-01 -2.755766e-01  8.728704e-01
     vertex  1.948997e-01 -2.773059e-01  8.743214e-01
   endloop
 endfacet
 facet normal  1.000000e+00  0.000000e+00  0.000000e+00
   outer loop
     vertex  1.948997e-01 -2.805559e-01  8.703922e-01
     vertex  1.948997e-01 -2.773059e-01  8.743214e-01
     vertex  1.948997e-01 -2.794271e-01  8.750935e-01
   endloop
 endfacet
 facet normal  1.000000e+00  0.000000e+00 -0.000000e+00
   outer loop
     vertex  1.948997e-01 -2.805559e-01  8.703922e-01
     vertex  1.948997e-01 -2.794271e-01  8.750935e-01
     vertex  1.948997e-01 -2.816846e-01  8.750935e-01
   endloop
 endfacet
 facet normal  1.000000e+00  0.000000e+00  0.000000e+00
   outer loop
     vertex  1.948997e-01 -2.805559e-01  8.703922e-01
     vertex  1.948997e-01 -2.816846e-01  8.750935e-01
     vertex  1.948997e-01 -2.838059e-01  8.743214e-01
   endloop
 endfacet
 facet normal  1.000000e+00  0.000000e+00  0.000000e+00
   outer loop
     vertex  1.948997e-01 -2.788559e-01  8.686922e-01
     vertex  1.948997e-01 -2.744478e-01  8.709154e-01
     vertex  1.948997e-01 -2.755766e-01  8.728704e-01
   endloop
 endfacet
 facet normal  1.000000e+00  0.000000e+00  0.000000e+00
   outer loop
     vertex  1.948997e-01 -2.788559e-01  8.686922e-01
     vertex  1.948997e-01 -2.740559e-01  8.686922e-01
     vertex  1.948997e-01 -2.744478e-01  8.709154e-01
   endloop
 endfacet
 facet normal  1.000000e+00 -0.000000e+00  0.000000e+00
   outer loop
     vertex  1.948997e-01 -2.788559e-01  8.686922e-01
     vertex  1.948997e-01 -2.744478e-01  8.664691e-01
     vertex  1.948997e-01 -2.740559e-01  8.686922e-01
   endloop
 endfacet
 facet normal  1.000000e+00  0.000000e+00 -0.000000e+00
   outer loop
     vertex  1.948997e-01 -2.788559e-01  8.686922e-01
     vertex  1.948997e-01 -2.755766e-01  8.728704e-01
     vertex  1.948997e-01 -2.805559e-01  8.703922e-01
   endloop
 endfacet
 facet normal  1.000000e+00  0.000000e+00 -0.000000e+00
   outer loop
     vertex  1.948997e-01 -2.755766e-01  8.645141e-01
     vertex  1.948997e-01 -2.744478e-01  8.664691e-01
     vertex  1.948997e-01 -2.788559e-01  8.686922e-01
   endloop
 endfacet
 facet normal  1.000000e+00 -0.000000e+00  0.000000e+00
   outer loop
     vertex  1.948997e-01 -2.855351e-01  8.728704e-01
     vertex  1.948997e-01 -2.805559e-01  8.703922e-01
     vertex  1.948997e-01 -2.838059e-01  8.743214e-01
   endloop
 endfacet
 facet normal  1.000000e+00  0.000000e+00 -0.000000e+00
   outer loop
     vertex  1.948997e-01 -2.822559e-01  8.686922e-01
     vertex  1.948997e-01 -2.805559e-01  8.703922e-01
     vertex  1.948997e-01 -2.855351e-01  8.728704e-01
   endloop
 endfacet
 facet normal  1.000000e+00 -0.000000e+00  0.000000e+00
   outer loop
     vertex  1.948997e-01 -2.805559e-01  8.669922e-01
     vertex  1.948997e-01 -2.755766e-01  8.645141e-01
     vertex  1.948997e-01 -2.788559e-01  8.686922e-01
   endloop
 endfacet
 facet normal  1.000000e+00  0.000000e+00 -0.000000e+00
   outer loop
     vertex  1.948997e-01 -2.773059e-01  8.630631e-01
     vertex  1.948997e-01 -2.755766e-01  8.645141e-01
     vertex  1.948997e-01 -2.805559e-01  8.669922e-01
   endloop
 endfacet
 facet normal  1.000000e+00 -0.000000e+00  0.000000e+00
   outer loop
     vertex  1.948997e-01 -2.866639e-01  8.709154e-01
     vertex  1.948997e-01 -2.822559e-01  8.686922e-01
     vertex  1.948997e-01 -2.855351e-01  8.728704e-01
   endloop
 endfacet
 facet normal  1.000000e+00  0.000000e+00 -0.000000e+00
   outer loop
     vertex  1.948997e-01 -2.794271e-01  8.622910e-01
     vertex  1.948997e-01 -2.773059e-01  8.630631e-01
     vertex  1.948997e-01 -2.805559e-01  8.669922e-01
   endloop
 endfacet
 facet normal  1.000000e+00  0.000000e+00  0.000000e+00
   outer loop
     vertex  1.948997e-01 -2.870559e-01  8.686922e-01
     vertex  1.948997e-01 -2.822559e-01  8.686922e-01
     vertex  1.948997e-01 -2.866639e-01  8.709154e-01
   endloop
 endfacet
 facet normal  1.000000e+00  0.000000e+00  0.000000e+00
   outer loop
     vertex  1.948997e-01 -2.816846e-01  8.622910e-01
     vertex  1.948997e-01 -2.794271e-01  8.622910e-01
     vertex  1.948997e-01 -2.805559e-01  8.669922e-01
   endloop
 endfacet
 facet normal  1.000000e+00  0.000000e+00 -0.000000e+00
   outer loop
     vertex  1.948997e-01 -2.866639e-01  8.664691e-01
     vertex  1.948997e-01 -2.822559e-01  8.686922e-01
     vertex  1.948997e-01 -2.870559e-01  8.686922e-01
   endloop
 endfacet
 facet normal  1.000000e+00 -0.000000e+00  0.000000e+00
   outer loop
     vertex  1.948997e-01 -2.838059e-01  8.630631e-01
     vertex  1.948997e-01 -2.816846e-01  8.622910e-01
     vertex  1.948997e-01 -2.805559e-01  8.669922e-01
   endloop
 endfacet
 facet normal  1.000000e+00  0.000000e+00  0.000000e+00
   outer loop
     vertex  1.948997e-01 -2.855351e-01  8.645141e-01
     vertex  1.948997e-01 -2.805559e-01  8.669922e-01
     vertex  1.948997e-01 -2.822559e-01  8.686922e-01
   endloop
 endfacet
 facet normal  1.000000e+00 -0.000000e+00  0.000000e+00
   outer loop
     vertex  1.948997e-01 -2.855351e-01  8.645141e-01
     vertex  1.948997e-01 -2.838059e-01  8.630631e-01
     vertex  1.948997e-01 -2.805559e-01  8.669922e-01
   endloop
 endfacet
 facet normal  1.000000e+00  0.000000e+00 -0.000000e+00
   outer loop
     vertex  1.948997e-01 -2.855351e-01  8.645141e-01
     vertex  1.948997e-01 -2.822559e-01  8.686922e-01
     vertex  1.948997e-01 -2.866639e-01  8.664691e-01
   endloop
 endfacet
 facet normal  6.650069e-01 -5.280937e-01  5.280937e-01
   outer loop
     vertex  1.948997e-01 -2.788559e-01  8.686922e-01
     vertex  1.942247e-01 -2.805559e-01  8.678422e-01
     vertex  1.948997e-01 -2.805559e-01  8.669922e-01
   endloop
 endfacet
 facet normal  6.650069e-01 -5.280937e-01  5.280937e-01
   outer loop
     vertex  1.948997e-01 -2.788559e-01  8.686922e-01
     vertex  1.942247e-01 -2.797059e-01  8.686922e-01
     vertex  1.942247e-01 -2.805559e-01  8.678422e-01
   endloop
 endfacet
 facet normal  6.650069e-01 -5.280937e-01 -5.280937e-01
   outer loop
     vertex  1.948997e-01 -2.805559e-01  8.703922e-01
     vertex  1.942247e-01 -2.805559e-01  8.695422e-01
     vertex  1.942247e-01 -2.797059e-01  8.686922e-01
   endloop
 endfacet
 facet normal  6.650069e-01 -5.280937e-01 -5.280937e-01
   outer loop
     vertex  1.948997e-01 -2.805559e-01  8.703922e-01
     vertex  1.942247e-01 -2.797059e-01  8.686922e-01
     vertex  1.948997e-01 -2.788559e-01  8.686922e-01
   endloop
 endfacet
 facet normal  6.650069e-01  5.280937e-01 -5.280937e-01
   outer loop
     vertex  1.948997e-01 -2.822559e-01  8.686922e-01
     vertex  1.942247e-01 -2.814059e-01  8.686922e-01
     vertex  1.942247e-01 -2.805559e-01  8.695422e-01
   endloop
 endfacet
 facet normal  6.650069e-01  5.280937e-01 -5.280937e-01
   outer loop
     vertex  1.948997e-01 -2.822559e-01  8.686922e-01
     vertex  1.942247e-01 -2.805559e-01  8.695422e-01
     vertex  1.948997e-01 -2.805559e-01  8.703922e-01
   endloop
 endfacet
 facet normal  6.650069e-01  5.280937e-01  5.280937e-01
   outer loop
     vertex  1.948997e-01 -2.805559e-01  8.669922e-01
     vertex  1.942247e-01 -2.805559e-01  8.678422e-01
     vertex  1.942247e-01 -2.814059e-01  8.686922e-01
   endloop
 endfacet
 facet normal  6.650069e-01  5.280937e-01  5.280937e-01
   outer loop
     vertex  1.948997e-01 -2.805559e-01  8.669922e-01
     vertex  1.942247e-01 -2.814059e-01  8.686922e-01
     vertex  1.948997e-01 -2.822559e-01  8.686922e-01
   endloop
 endfacet
 facet normal  0.000000e+00 -7.071068e-01  7.071068e-01
   outer loop
     vertex  1.942247e-01 -2.797059e-01  8.686922e-01
     vertex  1.932497e-01 -2.805559e-01  8.678422e-01
     vertex  1.942247e-01 -2.805559e-01  8.678422e-01
   endloop
 endfacet
 facet normal  0.000000e+00 -7.071068e-01  7.071068e-01
   outer loop
     vertex  1.942247e-01 -2.797059e-01  8.686922e-01
     vertex  1.932497e-01 -2.797059e-01  8.686922e-01
     vertex  1.932497e-01 -2.805559e-01  8.678422e-01
   endloop
 endfacet
 facet normal -0.000000e+00 -7.071068e-01 -7.071068e-01
   outer loop
     vertex  1.942247e-01 -2.805559e-01  8.695422e-01
     vertex  1.932497e-01 -2.805559e-01  8.695422e-01
     vertex  1.932497e-01 -2.797059e-01  8.686922e-01
   endloop
 endfacet
 facet normal  0.000000e+00 -7.071068e-01 -7.071068e-01
   outer loop
     vertex  1.942247e-01 -2.805559e-01  8.695422e-01
     vertex  1.932497e-01 -2.797059e-01  8.686922e-01
     vertex  1.942247e-01 -2.797059e-01  8.686922e-01
   endloop
 endfacet
 facet normal  0.000000e+00  7.071068e-01 -7.071068e-01
   outer loop
     vertex  1.942247e-01 -2.814059e-01  8.686922e-01
     vertex  1.932497e-01 -2.814059e-01  8.686922e-01
     vertex  1.932497e-01 -2.805559e-01  8.695422e-01
   endloop
 endfacet
 facet normal  0.000000e+00  7.071068e-01 -7.071068e-01
   outer loop
     vertex  1.942247e-01 -2.814059e-01  8.686922e-01
     vertex  1.932497e-01 -2.805559e-01  8.695422e-01
     vertex  1.942247e-01 -2.805559e-01  8.695422e-01
   endloop
 endfacet
 facet normal  0.000000e+00  7.071068e-01  7.071068e-01
   outer loop
     vertex  1.942247e-01 -2.805559e-01  8.678422e-01
     vertex  1.932497e-01 -2.805559e-01  8.678422e-01
     vertex  1.932497e-01 -2.814059e-01  8.686922e-01
   endloop
 endfacet
 facet normal  0.000000e+00  7.071068e-01  7.071068e-01
   outer loop
     vertex  1.942247e-01 -2.805559e-01  8.678422e-01
     vertex  1.932497e-01 -2.814059e-01  8.686922e-01
     vertex  1.942247e-01 -2.814059e-01  8.686922e-01
   endloop
 endfacet
 facet normal  9.702412e-01 -1.712190e-01  1.712190e-01
   outer loop
     vertex  1.932497e-01 -2.797059e-01  8.686922e-01
     vertex  1.930997e-01 -2.805559e-01  8.686922e-01
     vertex  1.932497e-01 -2.805559e-01  8.678422e-01
   endloop
 endfacet
 facet normal  9.702412e-01 -1.712190e-01 -1.712190e-01
   outer loop
     vertex  1.932497e-01 -2.805559e-01  8.695422e-01
     vertex  1.930997e-01 -2.805559e-01  8.686922e-01
     vertex  1.932497e-01 -2.797059e-01  8.686922e-01
   endloop
 endfacet
 facet normal  0.000000e+00  0.000000e+00  0.000000e+00
   outer loop
     vertex  1.930997e-01 -2.805559e-01  8.686922e-01
     vertex  1.930997e-01 -2.805559e-01  8.686922e-01
     vertex  1.932497e-01 -2.805559e-01  8.695422e-01
   endloop
 endfacet
 facet normal  9.702412e-01  1.712190e-01 -1.712190e-01
   outer loop
     vertex  1.932497e-01 -2.814059e-01  8.686922e-01
     vertex  1.930997e-01 -2.805559e-01  8.686922e-01
     vertex  1.932497e-01 -2.805559e-01  8.695422e-01
   endloop
 endfacet
 facet normal  9.702412e-01  1.712190e-01  1.712190e-01
   outer loop
     vertex  1.932497e-01 -2.805559e-01  8.678422e-01
     vertex  1.930997e-01 -2.805559e-01  8.686922e-01
     vertex  1.932497e-01 -2.814059e-01  8.686922e-01
   endloop
 endfacet
endsolid
