solid 
 facet normal -1.000000e+00  0.000000e+00  0.000000e+00
   outer loop
     vertex -2.194003e-01  4.607287e-02  9.254922e-01
     vertex -2.194003e-01  4.404415e-02  9.211210e-01
     vertex -2.194003e-01  4.287287e-02  9.222922e-01
   endloop
 endfacet
 facet normal -1.000000e+00  0.000000e+00  0.000000e+00
   outer loop
     vertex -2.194003e-01  4.607287e-02  9.254922e-01
     vertex -2.194003e-01  4.287287e-02  9.222922e-01
     vertex -2.194003e-01  4.244415e-02  9.238922e-01
   endloop
 endfacet
 facet normal -1.000000e+00  0.000000e+00  0.000000e+00
   outer loop
     vertex -2.194003e-01  4.724415e-02  9.243210e-01
     vertex -2.194003e-01  4.564415e-02  9.206922e-01
     vertex -2.194003e-01  4.404415e-02  9.211210e-01
   endloop
 endfacet
 facet normal -1.000000e+00 -0.000000e+00  0.000000e+00
   outer loop
     vertex -2.194003e-01  4.724415e-02  9.243210e-01
     vertex -2.194003e-01  4.404415e-02  9.211210e-01
     vertex -2.194003e-01  4.607287e-02  9.254922e-01
   endloop
 endfacet
 facet normal -1.000000e+00 -0.000000e+00  0.000000e+00
   outer loop
     vertex -2.194003e-01  4.884415e-02  9.238922e-01
     vertex -2.194003e-01  4.564415e-02  9.206922e-01
     vertex -2.194003e-01  4.724415e-02  9.243210e-01
   endloop
 endfacet
 facet normal -1.000000e+00  0.000000e+00 -0.000000e+00
   outer loop
     vertex -2.194003e-01  4.564415e-02  9.270922e-01
     vertex -2.194003e-01  4.607287e-02  9.254922e-01
     vertex -2.194003e-01  4.244415e-02  9.238922e-01
   endloop
 endfacet
 facet normal -1.000000e+00  0.000000e+00  0.000000e+00
   outer loop
     vertex -2.194003e-01  4.244415e-02  9.574922e-01
     vertex -2.194003e-01  4.564415e-02  9.270922e-01
     vertex -2.194003e-01  4.244415e-02  9.238922e-01
   endloop
 endfacet
 facet normal -1.000000e+00 -0.000000e+00 -0.000000e+00
   outer loop
     vertex -2.194003e-01  4.564415e-02  9.542922e-01
     vertex -2.194003e-01  4.564415e-02  9.270922e-01
     vertex -2.194003e-01  4.244415e-02  9.574922e-01
   endloop
 endfacet
 facet normal -1.000000e+00  0.000000e+00  0.000000e+00
   outer loop
     vertex -2.194003e-01  4.607287e-02  9.558922e-01
     vertex -2.194003e-01  4.244415e-02  9.574922e-01
     vertex -2.194003e-01  4.287287e-02  9.590922e-01
   endloop
 endfacet
 facet normal -1.000000e+00 -0.000000e+00  0.000000e+00
   outer loop
     vertex -2.194003e-01  4.607287e-02  9.558922e-01
     vertex -2.194003e-01  4.564415e-02  9.542922e-01
     vertex -2.194003e-01  4.244415e-02  9.574922e-01
   endloop
 endfacet
 facet normal -1.000000e+00  0.000000e+00  0.000000e+00
   outer loop
     vertex -2.194003e-01  4.404415e-02  9.602635e-01
     vertex -2.194003e-01  4.724415e-02  9.570635e-01
     vertex -2.194003e-01  4.607287e-02  9.558922e-01
   endloop
 endfacet
 facet normal -1.000000e+00  0.000000e+00 -0.000000e+00
   outer loop
     vertex -2.194003e-01  4.404415e-02  9.602635e-01
     vertex -2.194003e-01  4.607287e-02  9.558922e-01
     vertex -2.194003e-01  4.287287e-02  9.590922e-01
   endloop
 endfacet
 facet normal -1.000000e+00  0.000000e+00  0.000000e+00
   outer loop
     vertex -2.194003e-01  4.564415e-02  9.606922e-01
     vertex -2.194003e-01  4.884415e-02  9.574922e-01
     vertex -2.194003e-01  4.724415e-02  9.570635e-01
   endloop
 endfacet
 facet normal -1.000000e+00  0.000000e+00 -0.000000e+00
   outer loop
     vertex -2.194003e-01  4.564415e-02  9.606922e-01
     vertex -2.194003e-01  4.724415e-02  9.570635e-01
     vertex -2.194003e-01  4.404415e-02  9.602635e-01
   endloop
 endfacet
 facet normal -1.000000e+00  0.000000e+00  0.000000e+00
   outer loop
     vertex -2.194003e-01  9.924415e-02  9.206922e-01
     vertex -2.194003e-01  4.564415e-02  9.206922e-01
     vertex -2.194003e-01  4.884415e-02  9.238922e-01
   endloop
 endfacet
 facet normal -1.000000e+00 -0.000000e+00 -0.000000e+00
   outer loop
     vertex -2.194003e-01  9.604415e-02  9.238922e-01
     vertex -2.194003e-01  9.924415e-02  9.206922e-01
     vertex -2.194003e-01  4.884415e-02  9.238922e-01
   endloop
 endfacet
 facet normal -1.000000e+00  0.000000e+00  0.000000e+00
   outer loop
     vertex -2.194003e-01  9.764415e-02  9.243210e-01
     vertex -2.194003e-01  1.008441e-01  9.211210e-01
     vertex -2.194003e-01  9.924415e-02  9.206922e-01
   endloop
 endfacet
 facet normal -1.000000e+00  0.000000e+00 -0.000000e+00
   outer loop
     vertex -2.194003e-01  9.764415e-02  9.243210e-01
     vertex -2.194003e-01  9.924415e-02  9.206922e-01
     vertex -2.194003e-01  9.604415e-02  9.238922e-01
   endloop
 endfacet
 facet normal -1.000000e+00  0.000000e+00 -0.000000e+00
   outer loop
     vertex -2.194003e-01  9.881543e-02  9.254922e-01
     vertex -2.194003e-01  1.008441e-01  9.211210e-01
     vertex -2.194003e-01  9.764415e-02  9.243210e-01
   endloop
 endfacet
 facet normal -1.000000e+00 -0.000000e+00  0.000000e+00
   outer loop
     vertex -2.194003e-01  1.020154e-01  9.222922e-01
     vertex -2.194003e-01  1.008441e-01  9.211210e-01
     vertex -2.194003e-01  9.881543e-02  9.254922e-01
   endloop
 endfacet
 facet normal -1.000000e+00  0.000000e+00  0.000000e+00
   outer loop
     vertex -2.194003e-01  1.024441e-01  9.238922e-01
     vertex -2.194003e-01  9.881543e-02  9.254922e-01
     vertex -2.194003e-01  9.924415e-02  9.270922e-01
   endloop
 endfacet
 facet normal -1.000000e+00 -0.000000e+00  0.000000e+00
   outer loop
     vertex -2.194003e-01  1.024441e-01  9.238922e-01
     vertex -2.194003e-01  1.020154e-01  9.222922e-01
     vertex -2.194003e-01  9.881543e-02  9.254922e-01
   endloop
 endfacet
 facet normal -1.000000e+00  0.000000e+00  0.000000e+00
   outer loop
     vertex -2.194003e-01  9.604415e-02  9.574922e-01
     vertex -2.194003e-01  4.884415e-02  9.574922e-01
     vertex -2.194003e-01  4.564415e-02  9.606922e-01
   endloop
 endfacet
 facet normal -1.000000e+00  0.000000e+00  0.000000e+00
   outer loop
     vertex -2.194003e-01  9.924415e-02  9.542922e-01
     vertex -2.194003e-01  1.024441e-01  9.238922e-01
     vertex -2.194003e-01  9.924415e-02  9.270922e-01
   endloop
 endfacet
 facet normal -1.000000e+00  0.000000e+00  0.000000e+00
   outer loop
     vertex -2.194003e-01  9.924415e-02  9.606922e-01
     vertex -2.194003e-01  9.764415e-02  9.570635e-01
     vertex -2.194003e-01  9.604415e-02  9.574922e-01
   endloop
 endfacet
 facet normal -1.000000e+00 -0.000000e+00  0.000000e+00
   outer loop
     vertex -2.194003e-01  9.924415e-02  9.606922e-01
     vertex -2.194003e-01  9.604415e-02  9.574922e-01
     vertex -2.194003e-01  4.564415e-02  9.606922e-01
   endloop
 endfacet
 facet normal -1.000000e+00  0.000000e+00  0.000000e+00
   outer loop
     vertex -2.194003e-01  1.024441e-01  9.574922e-01
     vertex -2.194003e-01  9.924415e-02  9.542922e-01
     vertex -2.194003e-01  9.881543e-02  9.558922e-01
   endloop
 endfacet
 facet normal -1.000000e+00  0.000000e+00 -0.000000e+00
   outer loop
     vertex -2.194003e-01  1.024441e-01  9.574922e-01
     vertex -2.194003e-01  1.024441e-01  9.238922e-01
     vertex -2.194003e-01  9.924415e-02  9.542922e-01
   endloop
 endfacet
 facet normal -1.000000e+00  0.000000e+00  0.000000e+00
   outer loop
     vertex -2.194003e-01  1.008441e-01  9.602635e-01
     vertex -2.194003e-01  9.881543e-02  9.558922e-01
     vertex -2.194003e-01  9.764415e-02  9.570635e-01
   endloop
 endfacet
 facet normal -1.000000e+00 -0.000000e+00  0.000000e+00
   outer loop
     vertex -2.194003e-01  1.008441e-01  9.602635e-01
     vertex -2.194003e-01  9.764415e-02  9.570635e-01
     vertex -2.194003e-01  9.924415e-02  9.606922e-01
   endloop
 endfacet
 facet normal -1.000000e+00  0.000000e+00 -0.000000e+00
   outer loop
     vertex -2.194003e-01  1.020154e-01  9.590922e-01
     vertex -2.194003e-01  1.024441e-01  9.574922e-01
     vertex -2.194003e-01  9.881543e-02  9.558922e-01
   endloop
 endfacet
 facet normal -1.000000e+00 -0.000000e+00  0.000000e+00
   outer loop
     vertex -2.194003e-01  1.020154e-01  9.590922e-01
     vertex -2.194003e-01  9.881543e-02  9.558922e-01
     vertex -2.194003e-01  1.008441e-01  9.602635e-01
   endloop
 endfacet
 facet normal -0.000000e+00  0.000000e+00 -1.000000e+00
   outer loop
     vertex -1.594003e-01  7.244415e-02  9.574922e-01
     vertex -2.194003e-01  4.884415e-02  9.574922e-01
     vertex -2.194003e-01  9.604415e-02  9.574922e-01
   endloop
 endfacet
 facet normal  0.000000e+00 -0.000000e+00 -1.000000e+00
   outer loop
     vertex -1.594003e-01  7.244415e-02  9.574922e-01
     vertex -1.494003e-01  6.244415e-02  9.574922e-01
     vertex -2.194003e-01  4.884415e-02  9.574922e-01
   endloop
 endfacet
 facet normal -0.000000e+00  0.000000e+00 -1.000000e+00
   outer loop
     vertex -1.494003e-01  8.244415e-02  9.574922e-01
     vertex -1.594003e-01  7.244415e-02  9.574922e-01
     vertex -2.194003e-01  9.604415e-02  9.574922e-01
   endloop
 endfacet
 facet normal -0.000000e+00  0.000000e+00 -1.000000e+00
   outer loop
     vertex -8.233277e-02  6.824415e-02  9.574922e-01
     vertex -1.494003e-01  6.244415e-02  9.574922e-01
     vertex -1.394003e-01  7.244415e-02  9.574922e-01
   endloop
 endfacet
 facet normal  0.000000e+00  0.000000e+00 -1.000000e+00
   outer loop
     vertex -8.233277e-02  6.824415e-02  9.574922e-01
     vertex -1.394003e-01  7.244415e-02  9.574922e-01
     vertex -8.653277e-02  7.244415e-02  9.574922e-01
   endloop
 endfacet
 facet normal -0.000000e+00  0.000000e+00 -1.000000e+00
   outer loop
     vertex -8.233277e-02  7.664415e-02  9.574922e-01
     vertex -1.394003e-01  7.244415e-02  9.574922e-01
     vertex -1.494003e-01  8.244415e-02  9.574922e-01
   endloop
 endfacet
 facet normal  0.000000e+00  0.000000e+00 -1.000000e+00
   outer loop
     vertex -8.233277e-02  7.664415e-02  9.574922e-01
     vertex -8.653277e-02  7.244415e-02  9.574922e-01
     vertex -1.394003e-01  7.244415e-02  9.574922e-01
   endloop
 endfacet
 facet normal  0.000000e+00  0.000000e+00 -1.000000e+00
   outer loop
     vertex  4.353223e-02  6.824415e-02  9.574922e-01
     vertex -8.233277e-02  6.824415e-02  9.574922e-01
     vertex -7.813277e-02  7.244415e-02  9.574922e-01
   endloop
 endfacet
 facet normal  0.000000e+00  0.000000e+00 -1.000000e+00
   outer loop
     vertex  4.353223e-02  6.824415e-02  9.574922e-01
     vertex -7.813277e-02  7.244415e-02  9.574922e-01
     vertex  3.933223e-02  7.244415e-02  9.574922e-01
   endloop
 endfacet
 facet normal -0.000000e+00  0.000000e+00 -1.000000e+00
   outer loop
     vertex  4.353223e-02  7.664415e-02  9.574922e-01
     vertex -7.813277e-02  7.244415e-02  9.574922e-01
     vertex -8.233277e-02  7.664415e-02  9.574922e-01
   endloop
 endfacet
 facet normal  0.000000e+00  0.000000e+00 -1.000000e+00
   outer loop
     vertex  4.353223e-02  7.664415e-02  9.574922e-01
     vertex  3.933223e-02  7.244415e-02  9.574922e-01
     vertex -7.813277e-02  7.244415e-02  9.574922e-01
   endloop
 endfacet
 facet normal -0.000000e+00  0.000000e+00 -1.000000e+00
   outer loop
     vertex  1.005997e-01  7.244415e-02  9.574922e-01
     vertex  4.353223e-02  6.824415e-02  9.574922e-01
     vertex  4.773223e-02  7.244415e-02  9.574922e-01
   endloop
 endfacet
 facet normal  0.000000e+00  0.000000e+00 -1.000000e+00
   outer loop
     vertex  1.005997e-01  7.244415e-02  9.574922e-01
     vertex  4.773223e-02  7.244415e-02  9.574922e-01
     vertex  4.353223e-02  7.664415e-02  9.574922e-01
   endloop
 endfacet
 facet normal  0.000000e+00  0.000000e+00 -1.000000e+00
   outer loop
     vertex  1.105997e-01  6.244415e-02  9.574922e-01
     vertex  4.353223e-02  6.824415e-02  9.574922e-01
     vertex  1.005997e-01  7.244415e-02  9.574922e-01
   endloop
 endfacet
 facet normal  0.000000e+00  0.000000e+00 -1.000000e+00
   outer loop
     vertex  1.105997e-01  8.244415e-02  9.574922e-01
     vertex  1.005997e-01  7.244415e-02  9.574922e-01
     vertex  4.353223e-02  7.664415e-02  9.574922e-01
   endloop
 endfacet
 facet normal  0.000000e+00  0.000000e+00 -1.000000e+00
   outer loop
     vertex  1.805997e-01  4.884415e-02  9.574922e-01
     vertex  1.105997e-01  6.244415e-02  9.574922e-01
     vertex  1.205997e-01  7.244415e-02  9.574922e-01
   endloop
 endfacet
 facet normal  0.000000e+00  0.000000e+00 -1.000000e+00
   outer loop
     vertex  1.805997e-01  9.604415e-02  9.574922e-01
     vertex  1.205997e-01  7.244415e-02  9.574922e-01
     vertex  1.105997e-01  8.244415e-02  9.574922e-01
   endloop
 endfacet
 facet normal  0.000000e+00 -0.000000e+00 -1.000000e+00
   outer loop
     vertex  1.805997e-01  9.604415e-02  9.574922e-01
     vertex  1.805997e-01  4.884415e-02  9.574922e-01
     vertex  1.205997e-01  7.244415e-02  9.574922e-01
   endloop
 endfacet
 facet normal  0.000000e+00  0.000000e+00 -1.000000e+00
   outer loop
     vertex  1.805997e-01  4.884415e-02  9.574922e-01
     vertex -2.194003e-01  4.884415e-02  9.574922e-01
     vertex -1.494003e-01  6.244415e-02  9.574922e-01
   endloop
 endfacet
 facet normal  0.000000e+00  0.000000e+00 -1.000000e+00
   outer loop
     vertex  1.805997e-01  4.884415e-02  9.574922e-01
     vertex -1.494003e-01  6.244415e-02  9.574922e-01
     vertex -8.233277e-02  6.824415e-02  9.574922e-01
   endloop
 endfacet
 facet normal  0.000000e+00  0.000000e+00 -1.000000e+00
   outer loop
     vertex  1.805997e-01  4.884415e-02  9.574922e-01
     vertex -8.233277e-02  6.824415e-02  9.574922e-01
     vertex  1.105997e-01  6.244415e-02  9.574922e-01
   endloop
 endfacet
 facet normal  0.000000e+00  0.000000e+00 -1.000000e+00
   outer loop
     vertex  1.105997e-01  6.244415e-02  9.574922e-01
     vertex -8.233277e-02  6.824415e-02  9.574922e-01
     vertex  4.353223e-02  6.824415e-02  9.574922e-01
   endloop
 endfacet
 facet normal  0.000000e+00  0.000000e+00 -1.000000e+00
   outer loop
     vertex -2.194003e-01  9.604415e-02  9.574922e-01
     vertex  1.805997e-01  9.604415e-02  9.574922e-01
     vertex  1.105997e-01  8.244415e-02  9.574922e-01
   endloop
 endfacet
 facet normal  0.000000e+00  0.000000e+00 -1.000000e+00
   outer loop
     vertex -2.194003e-01  9.604415e-02  9.574922e-01
     vertex  1.105997e-01  8.244415e-02  9.574922e-01
     vertex  4.353223e-02  7.664415e-02  9.574922e-01
   endloop
 endfacet
 facet normal  0.000000e+00  0.000000e+00 -1.000000e+00
   outer loop
     vertex -2.194003e-01  9.604415e-02  9.574922e-01
     vertex  4.353223e-02  7.664415e-02  9.574922e-01
     vertex -1.494003e-01  8.244415e-02  9.574922e-01
   endloop
 endfacet
 facet normal  0.000000e+00  0.000000e+00 -1.000000e+00
   outer loop
     vertex -1.494003e-01  8.244415e-02  9.574922e-01
     vertex  4.353223e-02  7.664415e-02  9.574922e-01
     vertex -8.233277e-02  7.664415e-02  9.574922e-01
   endloop
 endfacet
 facet normal  0.000000e+00  2.588190e-01 -9.659258e-01
   outer loop
     vertex  1.805997e-01  4.724415e-02  9.570635e-01
     vertex -2.194003e-01  4.724415e-02  9.570635e-01
     vertex -2.194003e-01  4.884415e-02  9.574922e-01
   endloop
 endfacet
 facet normal  0.000000e+00  2.588190e-01 -9.659258e-01
   outer loop
     vertex  1.805997e-01  4.724415e-02  9.570635e-01
     vertex -2.194003e-01  4.884415e-02  9.574922e-01
     vertex  1.805997e-01  4.884415e-02  9.574922e-01
   endloop
 endfacet
 facet normal  0.000000e+00  7.071068e-01 -7.071068e-01
   outer loop
     vertex  1.805997e-01  4.607287e-02  9.558922e-01
     vertex -2.194003e-01  4.607287e-02  9.558922e-01
     vertex -2.194003e-01  4.724415e-02  9.570635e-01
   endloop
 endfacet
 facet normal  0.000000e+00  7.071068e-01 -7.071068e-01
   outer loop
     vertex  1.805997e-01  4.607287e-02  9.558922e-01
     vertex -2.194003e-01  4.724415e-02  9.570635e-01
     vertex  1.805997e-01  4.724415e-02  9.570635e-01
   endloop
 endfacet
 facet normal  0.000000e+00  9.659258e-01 -2.588190e-01
   outer loop
     vertex  1.805997e-01  4.564415e-02  9.542922e-01
     vertex -2.194003e-01  4.564415e-02  9.542922e-01
     vertex -2.194003e-01  4.607287e-02  9.558922e-01
   endloop
 endfacet
 facet normal  0.000000e+00  9.659258e-01 -2.588190e-01
   outer loop
     vertex  1.805997e-01  4.564415e-02  9.542922e-01
     vertex -2.194003e-01  4.607287e-02  9.558922e-01
     vertex  1.805997e-01  4.607287e-02  9.558922e-01
   endloop
 endfacet
 facet normal  0.000000e+00  1.000000e+00  0.000000e+00
   outer loop
     vertex  1.805997e-01  4.564415e-02  9.542922e-01
     vertex  1.805997e-01  4.564415e-02  9.270922e-01
     vertex -2.194003e-01  4.564415e-02  9.270922e-01
   endloop
 endfacet
 facet normal  0.000000e+00  1.000000e+00  0.000000e+00
   outer loop
     vertex  1.805997e-01  4.564415e-02  9.542922e-01
     vertex -2.194003e-01  4.564415e-02  9.270922e-01
     vertex -2.194003e-01  4.564415e-02  9.542922e-01
   endloop
 endfacet
 facet normal  0.000000e+00  9.659258e-01  2.588190e-01
   outer loop
     vertex  1.805997e-01  4.607287e-02  9.254922e-01
     vertex -2.194003e-01  4.607287e-02  9.254922e-01
     vertex -2.194003e-01  4.564415e-02  9.270922e-01
   endloop
 endfacet
 facet normal  0.000000e+00  9.659258e-01  2.588190e-01
   outer loop
     vertex  1.805997e-01  4.607287e-02  9.254922e-01
     vertex -2.194003e-01  4.564415e-02  9.270922e-01
     vertex  1.805997e-01  4.564415e-02  9.270922e-01
   endloop
 endfacet
 facet normal  0.000000e+00  7.071068e-01  7.071068e-01
   outer loop
     vertex  1.805997e-01  4.724415e-02  9.243210e-01
     vertex -2.194003e-01  4.724415e-02  9.243210e-01
     vertex -2.194003e-01  4.607287e-02  9.254922e-01
   endloop
 endfacet
 facet normal  0.000000e+00  7.071068e-01  7.071068e-01
   outer loop
     vertex  1.805997e-01  4.724415e-02  9.243210e-01
     vertex -2.194003e-01  4.607287e-02  9.254922e-01
     vertex  1.805997e-01  4.607287e-02  9.254922e-01
   endloop
 endfacet
 facet normal  0.000000e+00  2.588190e-01  9.659258e-01
   outer loop
     vertex  1.805997e-01  4.884415e-02  9.238922e-01
     vertex -2.194003e-01  4.884415e-02  9.238922e-01
     vertex -2.194003e-01  4.724415e-02  9.243210e-01
   endloop
 endfacet
 facet normal  0.000000e+00  2.588190e-01  9.659258e-01
   outer loop
     vertex  1.805997e-01  4.884415e-02  9.238922e-01
     vertex -2.194003e-01  4.724415e-02  9.243210e-01
     vertex  1.805997e-01  4.724415e-02  9.243210e-01
   endloop
 endfacet
 facet normal  0.000000e+00 -0.000000e+00  1.000000e+00
   outer loop
     vertex -1.594003e-01  7.244415e-02  9.238922e-01
     vertex -1.494003e-01  8.244415e-02  9.238922e-01
     vertex -2.194003e-01  9.604415e-02  9.238922e-01
   endloop
 endfacet
 facet normal  0.000000e+00  0.000000e+00  1.000000e+00
   outer loop
     vertex -1.688708e-01  5.547359e-02  9.238922e-01
     vertex -2.194003e-01  9.604415e-02  9.238922e-01
     vertex -2.194003e-01  4.884415e-02  9.238922e-01
   endloop
 endfacet
 facet normal  0.000000e+00 -0.000000e+00  1.000000e+00
   outer loop
     vertex -1.688708e-01  5.547359e-02  9.238922e-01
     vertex -1.594003e-01  7.244415e-02  9.238922e-01
     vertex -2.194003e-01  9.604415e-02  9.238922e-01
   endloop
 endfacet
 facet normal  0.000000e+00  0.000000e+00  1.000000e+00
   outer loop
     vertex -1.688708e-01  5.547359e-02  9.238922e-01
     vertex -1.663708e-01  5.797359e-02  9.238922e-01
     vertex -1.594003e-01  7.244415e-02  9.238922e-01
   endloop
 endfacet
 facet normal  0.000000e+00  0.000000e+00  1.000000e+00
   outer loop
     vertex -1.324297e-01  9.191471e-02  9.238922e-01
     vertex -2.194003e-01  9.604415e-02  9.238922e-01
     vertex -1.494003e-01  8.244415e-02  9.238922e-01
   endloop
 endfacet
 facet normal  0.000000e+00 -0.000000e+00  1.000000e+00
   outer loop
     vertex -1.349297e-01  8.941471e-02  9.238922e-01
     vertex -1.324297e-01  9.191471e-02  9.238922e-01
     vertex -1.494003e-01  8.244415e-02  9.238922e-01
   endloop
 endfacet
 facet normal  0.000000e+00  0.000000e+00  1.000000e+00
   outer loop
     vertex -1.663708e-01  5.297359e-02  9.238922e-01
     vertex -1.688708e-01  5.547359e-02  9.238922e-01
     vertex -2.194003e-01  4.884415e-02  9.238922e-01
   endloop
 endfacet
 facet normal  0.000000e+00 -0.000000e+00  1.000000e+00
   outer loop
     vertex -1.638708e-01  5.547359e-02  9.238922e-01
     vertex -1.594003e-01  7.244415e-02  9.238922e-01
     vertex -1.663708e-01  5.797359e-02  9.238922e-01
   endloop
 endfacet
 facet normal  0.000000e+00  0.000000e+00  1.000000e+00
   outer loop
     vertex -1.394003e-01  7.244415e-02  9.238922e-01
     vertex -1.324297e-01  8.691471e-02  9.238922e-01
     vertex -1.349297e-01  8.941471e-02  9.238922e-01
   endloop
 endfacet
 facet normal  0.000000e+00 -0.000000e+00  1.000000e+00
   outer loop
     vertex -1.394003e-01  7.244415e-02  9.238922e-01
     vertex -1.349297e-01  8.941471e-02  9.238922e-01
     vertex -1.494003e-01  8.244415e-02  9.238922e-01
   endloop
 endfacet
 facet normal  0.000000e+00  0.000000e+00  1.000000e+00
   outer loop
     vertex -1.494003e-01  6.244415e-02  9.238922e-01
     vertex -1.638708e-01  5.547359e-02  9.238922e-01
     vertex -1.663708e-01  5.297359e-02  9.238922e-01
   endloop
 endfacet
 facet normal  0.000000e+00  0.000000e+00  1.000000e+00
   outer loop
     vertex -1.494003e-01  6.244415e-02  9.238922e-01
     vertex -1.594003e-01  7.244415e-02  9.238922e-01
     vertex -1.638708e-01  5.547359e-02  9.238922e-01
   endloop
 endfacet
 facet normal  0.000000e+00  0.000000e+00  1.000000e+00
   outer loop
     vertex -8.233277e-02  7.664415e-02  9.238922e-01
     vertex -1.324297e-01  9.191471e-02  9.238922e-01
     vertex -1.299297e-01  8.941471e-02  9.238922e-01
   endloop
 endfacet
 facet normal  0.000000e+00  0.000000e+00  1.000000e+00
   outer loop
     vertex -8.653277e-02  7.244415e-02  9.238922e-01
     vertex -1.299297e-01  8.941471e-02  9.238922e-01
     vertex -1.324297e-01  8.691471e-02  9.238922e-01
   endloop
 endfacet
 facet normal  0.000000e+00 -0.000000e+00  1.000000e+00
   outer loop
     vertex -8.653277e-02  7.244415e-02  9.238922e-01
     vertex -8.233277e-02  7.664415e-02  9.238922e-01
     vertex -1.299297e-01  8.941471e-02  9.238922e-01
   endloop
 endfacet
 facet normal  0.000000e+00  0.000000e+00  1.000000e+00
   outer loop
     vertex -8.653277e-02  7.244415e-02  9.238922e-01
     vertex -1.324297e-01  8.691471e-02  9.238922e-01
     vertex -1.394003e-01  7.244415e-02  9.238922e-01
   endloop
 endfacet
 facet normal  0.000000e+00  0.000000e+00  1.000000e+00
   outer loop
     vertex -8.233277e-02  6.824415e-02  9.238922e-01
     vertex -1.394003e-01  7.244415e-02  9.238922e-01
     vertex -1.494003e-01  6.244415e-02  9.238922e-01
   endloop
 endfacet
 facet normal  0.000000e+00  0.000000e+00  1.000000e+00
   outer loop
     vertex -8.233277e-02  6.824415e-02  9.238922e-01
     vertex -1.494003e-01  6.244415e-02  9.238922e-01
     vertex -1.663708e-01  5.297359e-02  9.238922e-01
   endloop
 endfacet
 facet normal  0.000000e+00  0.000000e+00  1.000000e+00
   outer loop
     vertex -8.233277e-02  6.824415e-02  9.238922e-01
     vertex -8.653277e-02  7.244415e-02  9.238922e-01
     vertex -1.394003e-01  7.244415e-02  9.238922e-01
   endloop
 endfacet
 facet normal  0.000000e+00  0.000000e+00  1.000000e+00
   outer loop
     vertex  4.353223e-02  7.664415e-02  9.238922e-01
     vertex -8.233277e-02  7.664415e-02  9.238922e-01
     vertex -7.813277e-02  7.244415e-02  9.238922e-01
   endloop
 endfacet
 facet normal  0.000000e+00  0.000000e+00  1.000000e+00
   outer loop
     vertex  4.353223e-02  7.664415e-02  9.238922e-01
     vertex -7.813277e-02  7.244415e-02  9.238922e-01
     vertex  3.933223e-02  7.244415e-02  9.238922e-01
   endloop
 endfacet
 facet normal  0.000000e+00  0.000000e+00  1.000000e+00
   outer loop
     vertex  4.353223e-02  6.824415e-02  9.238922e-01
     vertex -7.813277e-02  7.244415e-02  9.238922e-01
     vertex -8.233277e-02  6.824415e-02  9.238922e-01
   endloop
 endfacet
 facet normal  0.000000e+00  0.000000e+00  1.000000e+00
   outer loop
     vertex  4.353223e-02  6.824415e-02  9.238922e-01
     vertex  3.933223e-02  7.244415e-02  9.238922e-01
     vertex -7.813277e-02  7.244415e-02  9.238922e-01
   endloop
 endfacet
 facet normal  0.000000e+00  0.000000e+00  1.000000e+00
   outer loop
     vertex  9.112917e-02  8.941471e-02  9.238922e-01
     vertex  4.353223e-02  7.664415e-02  9.238922e-01
     vertex  4.773223e-02  7.244415e-02  9.238922e-01
   endloop
 endfacet
 facet normal  0.000000e+00  0.000000e+00  1.000000e+00
   outer loop
     vertex  9.362917e-02  9.191471e-02  9.238922e-01
     vertex  4.353223e-02  7.664415e-02  9.238922e-01
     vertex  9.112917e-02  8.941471e-02  9.238922e-01
   endloop
 endfacet
 facet normal  0.000000e+00  0.000000e+00  1.000000e+00
   outer loop
     vertex  9.362917e-02  8.691471e-02  9.238922e-01
     vertex  9.112917e-02  8.941471e-02  9.238922e-01
     vertex  4.773223e-02  7.244415e-02  9.238922e-01
   endloop
 endfacet
 facet normal  0.000000e+00  0.000000e+00  1.000000e+00
   outer loop
     vertex  1.105997e-01  8.244415e-02  9.238922e-01
     vertex  9.362917e-02  9.191471e-02  9.238922e-01
     vertex  9.612917e-02  8.941471e-02  9.238922e-01
   endloop
 endfacet
 facet normal  0.000000e+00  0.000000e+00  1.000000e+00
   outer loop
     vertex  1.005997e-01  7.244415e-02  9.238922e-01
     vertex  9.612917e-02  8.941471e-02  9.238922e-01
     vertex  9.362917e-02  8.691471e-02  9.238922e-01
   endloop
 endfacet
 facet normal  0.000000e+00  0.000000e+00  1.000000e+00
   outer loop
     vertex  1.005997e-01  7.244415e-02  9.238922e-01
     vertex  4.773223e-02  7.244415e-02  9.238922e-01
     vertex  4.353223e-02  6.824415e-02  9.238922e-01
   endloop
 endfacet
 facet normal  0.000000e+00  0.000000e+00  1.000000e+00
   outer loop
     vertex  1.005997e-01  7.244415e-02  9.238922e-01
     vertex  9.362917e-02  8.691471e-02  9.238922e-01
     vertex  4.773223e-02  7.244415e-02  9.238922e-01
   endloop
 endfacet
 facet normal  0.000000e+00 -0.000000e+00  1.000000e+00
   outer loop
     vertex  1.005997e-01  7.244415e-02  9.238922e-01
     vertex  1.105997e-01  8.244415e-02  9.238922e-01
     vertex  9.612917e-02  8.941471e-02  9.238922e-01
   endloop
 endfacet
 facet normal  0.000000e+00  0.000000e+00  1.000000e+00
   outer loop
     vertex  1.105997e-01  6.244415e-02  9.238922e-01
     vertex  1.005997e-01  7.244415e-02  9.238922e-01
     vertex  4.353223e-02  6.824415e-02  9.238922e-01
   endloop
 endfacet
 facet normal  0.000000e+00  0.000000e+00  1.000000e+00
   outer loop
     vertex  1.250703e-01  5.547359e-02  9.238922e-01
     vertex  1.205997e-01  7.244415e-02  9.238922e-01
     vertex  1.105997e-01  6.244415e-02  9.238922e-01
   endloop
 endfacet
 facet normal  0.000000e+00  0.000000e+00  1.000000e+00
   outer loop
     vertex  1.275703e-01  5.797359e-02  9.238922e-01
     vertex  1.205997e-01  7.244415e-02  9.238922e-01
     vertex  1.250703e-01  5.547359e-02  9.238922e-01
   endloop
 endfacet
 facet normal  0.000000e+00  0.000000e+00  1.000000e+00
   outer loop
     vertex  1.275703e-01  5.297359e-02  9.238922e-01
     vertex  1.250703e-01  5.547359e-02  9.238922e-01
     vertex  1.105997e-01  6.244415e-02  9.238922e-01
   endloop
 endfacet
 facet normal  0.000000e+00  0.000000e+00  1.000000e+00
   outer loop
     vertex  1.275703e-01  5.297359e-02  9.238922e-01
     vertex  1.105997e-01  6.244415e-02  9.238922e-01
     vertex  4.353223e-02  6.824415e-02  9.238922e-01
   endloop
 endfacet
 facet normal  0.000000e+00  0.000000e+00  1.000000e+00
   outer loop
     vertex  1.300703e-01  5.547359e-02  9.238922e-01
     vertex  1.205997e-01  7.244415e-02  9.238922e-01
     vertex  1.275703e-01  5.797359e-02  9.238922e-01
   endloop
 endfacet
 facet normal  0.000000e+00  0.000000e+00  1.000000e+00
   outer loop
     vertex  1.805997e-01  9.604415e-02  9.238922e-01
     vertex  1.205997e-01  7.244415e-02  9.238922e-01
     vertex  1.300703e-01  5.547359e-02  9.238922e-01
   endloop
 endfacet
 facet normal  0.000000e+00  0.000000e+00  1.000000e+00
   outer loop
     vertex  1.805997e-01  9.604415e-02  9.238922e-01
     vertex  1.105997e-01  8.244415e-02  9.238922e-01
     vertex  1.205997e-01  7.244415e-02  9.238922e-01
   endloop
 endfacet
 facet normal  0.000000e+00  0.000000e+00  1.000000e+00
   outer loop
     vertex  1.805997e-01  9.604415e-02  9.238922e-01
     vertex  9.362917e-02  9.191471e-02  9.238922e-01
     vertex  1.105997e-01  8.244415e-02  9.238922e-01
   endloop
 endfacet
 facet normal  0.000000e+00 -0.000000e+00  1.000000e+00
   outer loop
     vertex  1.805997e-01  4.884415e-02  9.238922e-01
     vertex  1.805997e-01  9.604415e-02  9.238922e-01
     vertex  1.300703e-01  5.547359e-02  9.238922e-01
   endloop
 endfacet
 facet normal  0.000000e+00  0.000000e+00  1.000000e+00
   outer loop
     vertex  1.805997e-01  4.884415e-02  9.238922e-01
     vertex  1.300703e-01  5.547359e-02  9.238922e-01
     vertex  1.275703e-01  5.297359e-02  9.238922e-01
   endloop
 endfacet
 facet normal  0.000000e+00  0.000000e+00  1.000000e+00
   outer loop
     vertex  1.805997e-01  9.604415e-02  9.238922e-01
     vertex -2.194003e-01  9.604415e-02  9.238922e-01
     vertex -1.324297e-01  9.191471e-02  9.238922e-01
   endloop
 endfacet
 facet normal  0.000000e+00  0.000000e+00  1.000000e+00
   outer loop
     vertex  1.805997e-01  9.604415e-02  9.238922e-01
     vertex -1.324297e-01  9.191471e-02  9.238922e-01
     vertex  9.362917e-02  9.191471e-02  9.238922e-01
   endloop
 endfacet
 facet normal  0.000000e+00  0.000000e+00  1.000000e+00
   outer loop
     vertex  9.362917e-02  9.191471e-02  9.238922e-01
     vertex -1.324297e-01  9.191471e-02  9.238922e-01
     vertex -8.233277e-02  7.664415e-02  9.238922e-01
   endloop
 endfacet
 facet normal  0.000000e+00  0.000000e+00  1.000000e+00
   outer loop
     vertex  9.362917e-02  9.191471e-02  9.238922e-01
     vertex -8.233277e-02  7.664415e-02  9.238922e-01
     vertex  4.353223e-02  7.664415e-02  9.238922e-01
   endloop
 endfacet
 facet normal  0.000000e+00  0.000000e+00  1.000000e+00
   outer loop
     vertex -2.194003e-01  4.884415e-02  9.238922e-01
     vertex  1.805997e-01  4.884415e-02  9.238922e-01
     vertex  1.275703e-01  5.297359e-02  9.238922e-01
   endloop
 endfacet
 facet normal  0.000000e+00  0.000000e+00  1.000000e+00
   outer loop
     vertex -2.194003e-01  4.884415e-02  9.238922e-01
     vertex  1.275703e-01  5.297359e-02  9.238922e-01
     vertex -1.663708e-01  5.297359e-02  9.238922e-01
   endloop
 endfacet
 facet normal  0.000000e+00  0.000000e+00  1.000000e+00
   outer loop
     vertex -1.663708e-01  5.297359e-02  9.238922e-01
     vertex  1.275703e-01  5.297359e-02  9.238922e-01
     vertex  4.353223e-02  6.824415e-02  9.238922e-01
   endloop
 endfacet
 facet normal  0.000000e+00  0.000000e+00  1.000000e+00
   outer loop
     vertex -1.663708e-01  5.297359e-02  9.238922e-01
     vertex  4.353223e-02  6.824415e-02  9.238922e-01
     vertex -8.233277e-02  6.824415e-02  9.238922e-01
   endloop
 endfacet
 facet normal  0.000000e+00 -2.588190e-01  9.659258e-01
   outer loop
     vertex  1.805997e-01  9.764415e-02  9.243210e-01
     vertex -2.194003e-01  9.764415e-02  9.243210e-01
     vertex -2.194003e-01  9.604415e-02  9.238922e-01
   endloop
 endfacet
 facet normal  0.000000e+00 -2.588190e-01  9.659258e-01
   outer loop
     vertex  1.805997e-01  9.764415e-02  9.243210e-01
     vertex -2.194003e-01  9.604415e-02  9.238922e-01
     vertex  1.805997e-01  9.604415e-02  9.238922e-01
   endloop
 endfacet
 facet normal  0.000000e+00 -7.071068e-01  7.071068e-01
   outer loop
     vertex  1.805997e-01  9.881543e-02  9.254922e-01
     vertex -2.194003e-01  9.881543e-02  9.254922e-01
     vertex -2.194003e-01  9.764415e-02  9.243210e-01
   endloop
 endfacet
 facet normal  0.000000e+00 -7.071068e-01  7.071068e-01
   outer loop
     vertex  1.805997e-01  9.881543e-02  9.254922e-01
     vertex -2.194003e-01  9.764415e-02  9.243210e-01
     vertex  1.805997e-01  9.764415e-02  9.243210e-01
   endloop
 endfacet
 facet normal  0.000000e+00 -9.659258e-01  2.588190e-01
   outer loop
     vertex  1.805997e-01  9.924415e-02  9.270922e-01
     vertex -2.194003e-01  9.924415e-02  9.270922e-01
     vertex -2.194003e-01  9.881543e-02  9.254922e-01
   endloop
 endfacet
 facet normal  0.000000e+00 -9.659258e-01  2.588190e-01
   outer loop
     vertex  1.805997e-01  9.924415e-02  9.270922e-01
     vertex -2.194003e-01  9.881543e-02  9.254922e-01
     vertex  1.805997e-01  9.881543e-02  9.254922e-01
   endloop
 endfacet
 facet normal  0.000000e+00 -1.000000e+00  0.000000e+00
   outer loop
     vertex  1.805997e-01  9.924415e-02  9.270922e-01
     vertex  1.805997e-01  9.924415e-02  9.542922e-01
     vertex -2.194003e-01  9.924415e-02  9.542922e-01
   endloop
 endfacet
 facet normal  0.000000e+00 -1.000000e+00  0.000000e+00
   outer loop
     vertex  1.805997e-01  9.924415e-02  9.270922e-01
     vertex -2.194003e-01  9.924415e-02  9.542922e-01
     vertex -2.194003e-01  9.924415e-02  9.270922e-01
   endloop
 endfacet
 facet normal -0.000000e+00 -9.659258e-01 -2.588190e-01
   outer loop
     vertex  1.805997e-01  9.881543e-02  9.558922e-01
     vertex -2.194003e-01  9.881543e-02  9.558922e-01
     vertex -2.194003e-01  9.924415e-02  9.542922e-01
   endloop
 endfacet
 facet normal  0.000000e+00 -9.659258e-01 -2.588190e-01
   outer loop
     vertex  1.805997e-01  9.881543e-02  9.558922e-01
     vertex -2.194003e-01  9.924415e-02  9.542922e-01
     vertex  1.805997e-01  9.924415e-02  9.542922e-01
   endloop
 endfacet
 facet normal -0.000000e+00 -7.071068e-01 -7.071068e-01
   outer loop
     vertex  1.805997e-01  9.764415e-02  9.570635e-01
     vertex -2.194003e-01  9.764415e-02  9.570635e-01
     vertex -2.194003e-01  9.881543e-02  9.558922e-01
   endloop
 endfacet
 facet normal  0.000000e+00 -7.071068e-01 -7.071068e-01
   outer loop
     vertex  1.805997e-01  9.764415e-02  9.570635e-01
     vertex -2.194003e-01  9.881543e-02  9.558922e-01
     vertex  1.805997e-01  9.881543e-02  9.558922e-01
   endloop
 endfacet
 facet normal -0.000000e+00 -2.588190e-01 -9.659258e-01
   outer loop
     vertex  1.805997e-01  9.604415e-02  9.574922e-01
     vertex -2.194003e-01  9.604415e-02  9.574922e-01
     vertex -2.194003e-01  9.764415e-02  9.570635e-01
   endloop
 endfacet
 facet normal  0.000000e+00 -2.588190e-01 -9.659258e-01
   outer loop
     vertex  1.805997e-01  9.604415e-02  9.574922e-01
     vertex -2.194003e-01  9.764415e-02  9.570635e-01
     vertex  1.805997e-01  9.764415e-02  9.570635e-01
   endloop
 endfacet
 facet normal  1.000000e+00  0.000000e+00  0.000000e+00
   outer loop
     vertex  1.805997e-01  4.607287e-02  9.254922e-01
     vertex  1.805997e-01  4.244415e-02  9.238922e-01
     vertex  1.805997e-01  4.287287e-02  9.222922e-01
   endloop
 endfacet
 facet normal  1.000000e+00  0.000000e+00  0.000000e+00
   outer loop
     vertex  1.805997e-01  4.724415e-02  9.243210e-01
     vertex  1.805997e-01  4.287287e-02  9.222922e-01
     vertex  1.805997e-01  4.404415e-02  9.211210e-01
   endloop
 endfacet
 facet normal  1.000000e+00  0.000000e+00  0.000000e+00
   outer loop
     vertex  1.805997e-01  4.724415e-02  9.243210e-01
     vertex  1.805997e-01  4.404415e-02  9.211210e-01
     vertex  1.805997e-01  4.564415e-02  9.206922e-01
   endloop
 endfacet
 facet normal  1.000000e+00  0.000000e+00  0.000000e+00
   outer loop
     vertex  1.805997e-01  4.724415e-02  9.243210e-01
     vertex  1.805997e-01  4.607287e-02  9.254922e-01
     vertex  1.805997e-01  4.287287e-02  9.222922e-01
   endloop
 endfacet
 facet normal  1.000000e+00  0.000000e+00  0.000000e+00
   outer loop
     vertex  1.805997e-01  4.884415e-02  9.238922e-01
     vertex  1.805997e-01  4.724415e-02  9.243210e-01
     vertex  1.805997e-01  4.564415e-02  9.206922e-01
   endloop
 endfacet
 facet normal  1.000000e+00  0.000000e+00  0.000000e+00
   outer loop
     vertex  1.805997e-01  4.564415e-02  9.270922e-01
     vertex  1.805997e-01  4.244415e-02  9.238922e-01
     vertex  1.805997e-01  4.607287e-02  9.254922e-01
   endloop
 endfacet
 facet normal  1.000000e+00  0.000000e+00  0.000000e+00
   outer loop
     vertex  1.805997e-01  4.564415e-02  9.542922e-01
     vertex  1.805997e-01  4.244415e-02  9.238922e-01
     vertex  1.805997e-01  4.564415e-02  9.270922e-01
   endloop
 endfacet
 facet normal  1.000000e+00  0.000000e+00  0.000000e+00
   outer loop
     vertex  1.805997e-01  4.244415e-02  9.574922e-01
     vertex  1.805997e-01  4.244415e-02  9.238922e-01
     vertex  1.805997e-01  4.564415e-02  9.542922e-01
   endloop
 endfacet
 facet normal  1.000000e+00  0.000000e+00  0.000000e+00
   outer loop
     vertex  1.805997e-01  4.607287e-02  9.558922e-01
     vertex  1.805997e-01  4.244415e-02  9.574922e-01
     vertex  1.805997e-01  4.564415e-02  9.542922e-01
   endloop
 endfacet
 facet normal  1.000000e+00  0.000000e+00  0.000000e+00
   outer loop
     vertex  1.805997e-01  4.287287e-02  9.590922e-01
     vertex  1.805997e-01  4.244415e-02  9.574922e-01
     vertex  1.805997e-01  4.607287e-02  9.558922e-01
   endloop
 endfacet
 facet normal  1.000000e+00  0.000000e+00  0.000000e+00
   outer loop
     vertex  1.805997e-01  4.724415e-02  9.570635e-01
     vertex  1.805997e-01  4.404415e-02  9.602635e-01
     vertex  1.805997e-01  4.287287e-02  9.590922e-01
   endloop
 endfacet
 facet normal  1.000000e+00  0.000000e+00  0.000000e+00
   outer loop
     vertex  1.805997e-01  4.724415e-02  9.570635e-01
     vertex  1.805997e-01  4.287287e-02  9.590922e-01
     vertex  1.805997e-01  4.607287e-02  9.558922e-01
   endloop
 endfacet
 facet normal  1.000000e+00  0.000000e+00  0.000000e+00
   outer loop
     vertex  1.805997e-01  4.564415e-02  9.606922e-01
     vertex  1.805997e-01  4.404415e-02  9.602635e-01
     vertex  1.805997e-01  4.724415e-02  9.570635e-01
   endloop
 endfacet
 facet normal  1.000000e+00  0.000000e+00  0.000000e+00
   outer loop
     vertex  1.805997e-01  4.884415e-02  9.574922e-01
     vertex  1.805997e-01  4.564415e-02  9.606922e-01
     vertex  1.805997e-01  4.724415e-02  9.570635e-01
   endloop
 endfacet
 facet normal  1.000000e+00  0.000000e+00  0.000000e+00
   outer loop
     vertex  1.805997e-01  9.924415e-02  9.206922e-01
     vertex  1.805997e-01  9.604415e-02  9.238922e-01
     vertex  1.805997e-01  4.884415e-02  9.238922e-01
   endloop
 endfacet
 facet normal  1.000000e+00  0.000000e+00  0.000000e+00
   outer loop
     vertex  1.805997e-01  9.924415e-02  9.206922e-01
     vertex  1.805997e-01  4.884415e-02  9.238922e-01
     vertex  1.805997e-01  4.564415e-02  9.206922e-01
   endloop
 endfacet
 facet normal  1.000000e+00  0.000000e+00  0.000000e+00
   outer loop
     vertex  1.805997e-01  9.764415e-02  9.243210e-01
     vertex  1.805997e-01  9.604415e-02  9.238922e-01
     vertex  1.805997e-01  9.924415e-02  9.206922e-01
   endloop
 endfacet
 facet normal  1.000000e+00  0.000000e+00  0.000000e+00
   outer loop
     vertex  1.805997e-01  1.008441e-01  9.211210e-01
     vertex  1.805997e-01  9.764415e-02  9.243210e-01
     vertex  1.805997e-01  9.924415e-02  9.206922e-01
   endloop
 endfacet
 facet normal  1.000000e+00  0.000000e+00  0.000000e+00
   outer loop
     vertex  1.805997e-01  9.881543e-02  9.254922e-01
     vertex  1.805997e-01  1.008441e-01  9.211210e-01
     vertex  1.805997e-01  1.020154e-01  9.222922e-01
   endloop
 endfacet
 facet normal  1.000000e+00  0.000000e+00  0.000000e+00
   outer loop
     vertex  1.805997e-01  9.881543e-02  9.254922e-01
     vertex  1.805997e-01  9.764415e-02  9.243210e-01
     vertex  1.805997e-01  1.008441e-01  9.211210e-01
   endloop
 endfacet
 facet normal  1.000000e+00  0.000000e+00  0.000000e+00
   outer loop
     vertex  1.805997e-01  1.024441e-01  9.238922e-01
     vertex  1.805997e-01  9.881543e-02  9.254922e-01
     vertex  1.805997e-01  1.020154e-01  9.222922e-01
   endloop
 endfacet
 facet normal  1.000000e+00  0.000000e+00  0.000000e+00
   outer loop
     vertex  1.805997e-01  9.924415e-02  9.270922e-01
     vertex  1.805997e-01  9.881543e-02  9.254922e-01
     vertex  1.805997e-01  1.024441e-01  9.238922e-01
   endloop
 endfacet
 facet normal  1.000000e+00  0.000000e+00  0.000000e+00
   outer loop
     vertex  1.805997e-01  9.924415e-02  9.542922e-01
     vertex  1.805997e-01  9.924415e-02  9.270922e-01
     vertex  1.805997e-01  1.024441e-01  9.238922e-01
   endloop
 endfacet
 facet normal  1.000000e+00  0.000000e+00  0.000000e+00
   outer loop
     vertex  1.805997e-01  9.924415e-02  9.606922e-01
     vertex  1.805997e-01  4.884415e-02  9.574922e-01
     vertex  1.805997e-01  9.604415e-02  9.574922e-01
   endloop
 endfacet
 facet normal  1.000000e+00  0.000000e+00  0.000000e+00
   outer loop
     vertex  1.805997e-01  9.924415e-02  9.606922e-01
     vertex  1.805997e-01  9.604415e-02  9.574922e-01
     vertex  1.805997e-01  9.764415e-02  9.570635e-01
   endloop
 endfacet
 facet normal  1.000000e+00  0.000000e+00  0.000000e+00
   outer loop
     vertex  1.805997e-01  9.924415e-02  9.606922e-01
     vertex  1.805997e-01  4.564415e-02  9.606922e-01
     vertex  1.805997e-01  4.884415e-02  9.574922e-01
   endloop
 endfacet
 facet normal  1.000000e+00  0.000000e+00  0.000000e+00
   outer loop
     vertex  1.805997e-01  1.024441e-01  9.574922e-01
     vertex  1.805997e-01  9.881543e-02  9.558922e-01
     vertex  1.805997e-01  9.924415e-02  9.542922e-01
   endloop
 endfacet
 facet normal  1.000000e+00  0.000000e+00  0.000000e+00
   outer loop
     vertex  1.805997e-01  1.024441e-01  9.574922e-01
     vertex  1.805997e-01  9.924415e-02  9.542922e-01
     vertex  1.805997e-01  1.024441e-01  9.238922e-01
   endloop
 endfacet
 facet normal  1.000000e+00  0.000000e+00  0.000000e+00
   outer loop
     vertex  1.805997e-01  1.020154e-01  9.590922e-01
     vertex  1.805997e-01  9.881543e-02  9.558922e-01
     vertex  1.805997e-01  1.024441e-01  9.574922e-01
   endloop
 endfacet
 facet normal  1.000000e+00  0.000000e+00  0.000000e+00
   outer loop
     vertex  1.805997e-01  1.008441e-01  9.602635e-01
     vertex  1.805997e-01  9.764415e-02  9.570635e-01
     vertex  1.805997e-01  9.881543e-02  9.558922e-01
   endloop
 endfacet
 facet normal  1.000000e+00  0.000000e+00  0.000000e+00
   outer loop
     vertex  1.805997e-01  1.008441e-01  9.602635e-01
     vertex  1.805997e-01  9.924415e-02  9.606922e-01
     vertex  1.805997e-01  9.764415e-02  9.570635e-01
   endloop
 endfacet
 facet normal  1.000000e+00  0.000000e+00  0.000000e+00
   outer loop
     vertex  1.805997e-01  1.008441e-01  9.602635e-01
     vertex  1.805997e-01  9.881543e-02  9.558922e-01
     vertex  1.805997e-01  1.020154e-01  9.590922e-01
   endloop
 endfacet
 facet normal  0.000000e+00  2.588190e-01  9.659258e-01
   outer loop
     vertex -2.194003e-01  1.008441e-01  9.602635e-01
     vertex -2.194003e-01  9.924415e-02  9.606922e-01
     vertex  1.805997e-01  9.924415e-02  9.606922e-01
   endloop
 endfacet
 facet normal -0.000000e+00  2.588190e-01  9.659258e-01
   outer loop
     vertex -2.194003e-01  1.008441e-01  9.602635e-01
     vertex  1.805997e-01  9.924415e-02  9.606922e-01
     vertex  1.805997e-01  1.008441e-01  9.602635e-01
   endloop
 endfacet
 facet normal -0.000000e+00  7.071068e-01  7.071068e-01
   outer loop
     vertex -2.194003e-01  1.020154e-01  9.590922e-01
     vertex  1.805997e-01  1.008441e-01  9.602635e-01
     vertex  1.805997e-01  1.020154e-01  9.590922e-01
   endloop
 endfacet
 facet normal  0.000000e+00  7.071068e-01  7.071068e-01
   outer loop
     vertex -2.194003e-01  1.020154e-01  9.590922e-01
     vertex -2.194003e-01  1.008441e-01  9.602635e-01
     vertex  1.805997e-01  1.008441e-01  9.602635e-01
   endloop
 endfacet
 facet normal -0.000000e+00  9.659258e-01  2.588190e-01
   outer loop
     vertex -2.194003e-01  1.024441e-01  9.574922e-01
     vertex  1.805997e-01  1.020154e-01  9.590922e-01
     vertex  1.805997e-01  1.024441e-01  9.574922e-01
   endloop
 endfacet
 facet normal  0.000000e+00  9.659258e-01  2.588190e-01
   outer loop
     vertex -2.194003e-01  1.024441e-01  9.574922e-01
     vertex -2.194003e-01  1.020154e-01  9.590922e-01
     vertex  1.805997e-01  1.020154e-01  9.590922e-01
   endloop
 endfacet
 facet normal  0.000000e+00  1.000000e+00  0.000000e+00
   outer loop
     vertex  1.805997e-01  1.024441e-01  9.574922e-01
     vertex  1.805997e-01  1.024441e-01  9.238922e-01
     vertex -2.194003e-01  1.024441e-01  9.238922e-01
   endloop
 endfacet
 facet normal  0.000000e+00  1.000000e+00  0.000000e+00
   outer loop
     vertex  1.805997e-01  1.024441e-01  9.574922e-01
     vertex -2.194003e-01  1.024441e-01  9.238922e-01
     vertex -2.194003e-01  1.024441e-01  9.574922e-01
   endloop
 endfacet
 facet normal  0.000000e+00  9.659258e-01 -2.588190e-01
   outer loop
     vertex -2.194003e-01  1.020154e-01  9.222922e-01
     vertex -2.194003e-01  1.024441e-01  9.238922e-01
     vertex  1.805997e-01  1.024441e-01  9.238922e-01
   endloop
 endfacet
 facet normal  0.000000e+00  9.659258e-01 -2.588190e-01
   outer loop
     vertex -2.194003e-01  1.020154e-01  9.222922e-01
     vertex  1.805997e-01  1.024441e-01  9.238922e-01
     vertex  1.805997e-01  1.020154e-01  9.222922e-01
   endloop
 endfacet
 facet normal  0.000000e+00  7.071068e-01 -7.071068e-01
   outer loop
     vertex -2.194003e-01  1.008441e-01  9.211210e-01
     vertex  1.805997e-01  1.020154e-01  9.222922e-01
     vertex  1.805997e-01  1.008441e-01  9.211210e-01
   endloop
 endfacet
 facet normal  0.000000e+00  7.071068e-01 -7.071068e-01
   outer loop
     vertex -2.194003e-01  1.008441e-01  9.211210e-01
     vertex -2.194003e-01  1.020154e-01  9.222922e-01
     vertex  1.805997e-01  1.020154e-01  9.222922e-01
   endloop
 endfacet
 facet normal  0.000000e+00  2.588190e-01 -9.659258e-01
   outer loop
     vertex -2.194003e-01  9.924415e-02  9.206922e-01
     vertex  1.805997e-01  1.008441e-01  9.211210e-01
     vertex  1.805997e-01  9.924415e-02  9.206922e-01
   endloop
 endfacet
 facet normal  0.000000e+00  2.588190e-01 -9.659258e-01
   outer loop
     vertex -2.194003e-01  9.924415e-02  9.206922e-01
     vertex -2.194003e-01  1.008441e-01  9.211210e-01
     vertex  1.805997e-01  1.008441e-01  9.211210e-01
   endloop
 endfacet
 facet normal -0.000000e+00  0.000000e+00 -1.000000e+00
   outer loop
     vertex -1.688708e-01  5.547359e-02  9.206922e-01
     vertex -2.194003e-01  4.564415e-02  9.206922e-01
     vertex -2.194003e-01  9.924415e-02  9.206922e-01
   endloop
 endfacet
 facet normal  0.000000e+00 -0.000000e+00 -1.000000e+00
   outer loop
     vertex -1.688708e-01  5.547359e-02  9.206922e-01
     vertex -1.663708e-01  5.297359e-02  9.206922e-01
     vertex -2.194003e-01  4.564415e-02  9.206922e-01
   endloop
 endfacet
 facet normal  0.000000e+00  0.000000e+00 -1.000000e+00
   outer loop
     vertex -1.494003e-01  6.244415e-02  9.206922e-01
     vertex -1.663708e-01  5.297359e-02  9.206922e-01
     vertex -1.638708e-01  5.547359e-02  9.206922e-01
   endloop
 endfacet
 facet normal  0.000000e+00  0.000000e+00 -1.000000e+00
   outer loop
     vertex -1.594003e-01  7.244415e-02  9.206922e-01
     vertex -1.663708e-01  5.797359e-02  9.206922e-01
     vertex -1.688708e-01  5.547359e-02  9.206922e-01
   endloop
 endfacet
 facet normal  0.000000e+00  0.000000e+00 -1.000000e+00
   outer loop
     vertex -1.594003e-01  7.244415e-02  9.206922e-01
     vertex -1.638708e-01  5.547359e-02  9.206922e-01
     vertex -1.663708e-01  5.797359e-02  9.206922e-01
   endloop
 endfacet
 facet normal -0.000000e+00  0.000000e+00 -1.000000e+00
   outer loop
     vertex -1.594003e-01  7.244415e-02  9.206922e-01
     vertex -1.688708e-01  5.547359e-02  9.206922e-01
     vertex -2.194003e-01  9.924415e-02  9.206922e-01
   endloop
 endfacet
 facet normal  0.000000e+00 -0.000000e+00 -1.000000e+00
   outer loop
     vertex -1.594003e-01  7.244415e-02  9.206922e-01
     vertex -1.494003e-01  6.244415e-02  9.206922e-01
     vertex -1.638708e-01  5.547359e-02  9.206922e-01
   endloop
 endfacet
 facet normal -0.000000e+00  0.000000e+00 -1.000000e+00
   outer loop
     vertex -1.494003e-01  8.244415e-02  9.206922e-01
     vertex -1.594003e-01  7.244415e-02  9.206922e-01
     vertex -2.194003e-01  9.924415e-02  9.206922e-01
   endloop
 endfacet
 facet normal  0.000000e+00  0.000000e+00 -1.000000e+00
   outer loop
     vertex -1.349297e-01  8.941471e-02  9.206922e-01
     vertex -1.394003e-01  7.244415e-02  9.206922e-01
     vertex -1.494003e-01  8.244415e-02  9.206922e-01
   endloop
 endfacet
 facet normal  0.000000e+00 -0.000000e+00 -1.000000e+00
   outer loop
     vertex -1.349297e-01  8.941471e-02  9.206922e-01
     vertex -1.324297e-01  8.691471e-02  9.206922e-01
     vertex -1.394003e-01  7.244415e-02  9.206922e-01
   endloop
 endfacet
 facet normal -0.000000e+00  0.000000e+00 -1.000000e+00
   outer loop
     vertex -1.324297e-01  9.191471e-02  9.206922e-01
     vertex -1.494003e-01  8.244415e-02  9.206922e-01
     vertex -2.194003e-01  9.924415e-02  9.206922e-01
   endloop
 endfacet
 facet normal  0.000000e+00  0.000000e+00 -1.000000e+00
   outer loop
     vertex -1.324297e-01  9.191471e-02  9.206922e-01
     vertex -1.349297e-01  8.941471e-02  9.206922e-01
     vertex -1.494003e-01  8.244415e-02  9.206922e-01
   endloop
 endfacet
 facet normal -0.000000e+00  0.000000e+00 -1.000000e+00
   outer loop
     vertex -8.233277e-02  6.824415e-02  9.206922e-01
     vertex -1.494003e-01  6.244415e-02  9.206922e-01
     vertex -1.394003e-01  7.244415e-02  9.206922e-01
   endloop
 endfacet
 facet normal  0.000000e+00  0.000000e+00 -1.000000e+00
   outer loop
     vertex -8.233277e-02  6.824415e-02  9.206922e-01
     vertex -1.663708e-01  5.297359e-02  9.206922e-01
     vertex -1.494003e-01  6.244415e-02  9.206922e-01
   endloop
 endfacet
 facet normal  0.000000e+00  0.000000e+00 -1.000000e+00
   outer loop
     vertex -8.653277e-02  7.244415e-02  9.206922e-01
     vertex -1.324297e-01  8.691471e-02  9.206922e-01
     vertex -1.299297e-01  8.941471e-02  9.206922e-01
   endloop
 endfacet
 facet normal  0.000000e+00  0.000000e+00 -1.000000e+00
   outer loop
     vertex -8.653277e-02  7.244415e-02  9.206922e-01
     vertex -1.394003e-01  7.244415e-02  9.206922e-01
     vertex -1.324297e-01  8.691471e-02  9.206922e-01
   endloop
 endfacet
 facet normal -0.000000e+00 -0.000000e+00 -1.000000e+00
   outer loop
     vertex -8.653277e-02  7.244415e-02  9.206922e-01
     vertex -8.233277e-02  6.824415e-02  9.206922e-01
     vertex -1.394003e-01  7.244415e-02  9.206922e-01
   endloop
 endfacet
 facet normal  0.000000e+00  0.000000e+00 -1.000000e+00
   outer loop
     vertex -8.233277e-02  7.664415e-02  9.206922e-01
     vertex -1.299297e-01  8.941471e-02  9.206922e-01
     vertex -1.324297e-01  9.191471e-02  9.206922e-01
   endloop
 endfacet
 facet normal -0.000000e+00  0.000000e+00 -1.000000e+00
   outer loop
     vertex -8.233277e-02  7.664415e-02  9.206922e-01
     vertex -8.653277e-02  7.244415e-02  9.206922e-01
     vertex -1.299297e-01  8.941471e-02  9.206922e-01
   endloop
 endfacet
 facet normal -0.000000e+00  0.000000e+00 -1.000000e+00
   outer loop
     vertex  3.933223e-02  7.244415e-02  9.206922e-01
     vertex -8.233277e-02  6.824415e-02  9.206922e-01
     vertex -7.813277e-02  7.244415e-02  9.206922e-01
   endloop
 endfacet
 facet normal  0.000000e+00 -0.000000e+00 -1.000000e+00
   outer loop
     vertex  3.933223e-02  7.244415e-02  9.206922e-01
     vertex  4.353223e-02  6.824415e-02  9.206922e-01
     vertex -8.233277e-02  6.824415e-02  9.206922e-01
   endloop
 endfacet
 facet normal -0.000000e+00  0.000000e+00 -1.000000e+00
   outer loop
     vertex  4.353223e-02  7.664415e-02  9.206922e-01
     vertex -7.813277e-02  7.244415e-02  9.206922e-01
     vertex -8.233277e-02  7.664415e-02  9.206922e-01
   endloop
 endfacet
 facet normal  0.000000e+00  0.000000e+00 -1.000000e+00
   outer loop
     vertex  4.353223e-02  7.664415e-02  9.206922e-01
     vertex  3.933223e-02  7.244415e-02  9.206922e-01
     vertex -7.813277e-02  7.244415e-02  9.206922e-01
   endloop
 endfacet
 facet normal -0.000000e+00  0.000000e+00 -1.000000e+00
   outer loop
     vertex  1.005997e-01  7.244415e-02  9.206922e-01
     vertex  4.353223e-02  6.824415e-02  9.206922e-01
     vertex  4.773223e-02  7.244415e-02  9.206922e-01
   endloop
 endfacet
 facet normal  0.000000e+00 -0.000000e+00 -1.000000e+00
   outer loop
     vertex  1.005997e-01  7.244415e-02  9.206922e-01
     vertex  1.105997e-01  6.244415e-02  9.206922e-01
     vertex  4.353223e-02  6.824415e-02  9.206922e-01
   endloop
 endfacet
 facet normal  0.000000e+00 -0.000000e+00 -1.000000e+00
   outer loop
     vertex  9.362917e-02  8.691471e-02  9.206922e-01
     vertex  1.005997e-01  7.244415e-02  9.206922e-01
     vertex  4.773223e-02  7.244415e-02  9.206922e-01
   endloop
 endfacet
 facet normal  0.000000e+00  0.000000e+00 -1.000000e+00
   outer loop
     vertex  9.112917e-02  8.941471e-02  9.206922e-01
     vertex  4.773223e-02  7.244415e-02  9.206922e-01
     vertex  4.353223e-02  7.664415e-02  9.206922e-01
   endloop
 endfacet
 facet normal  0.000000e+00 -0.000000e+00 -1.000000e+00
   outer loop
     vertex  9.112917e-02  8.941471e-02  9.206922e-01
     vertex  9.362917e-02  8.691471e-02  9.206922e-01
     vertex  4.773223e-02  7.244415e-02  9.206922e-01
   endloop
 endfacet
 facet normal  0.000000e+00  0.000000e+00 -1.000000e+00
   outer loop
     vertex  1.275703e-01  5.297359e-02  9.206922e-01
     vertex  4.353223e-02  6.824415e-02  9.206922e-01
     vertex  1.105997e-01  6.244415e-02  9.206922e-01
   endloop
 endfacet
 facet normal -0.000000e+00 -0.000000e+00 -1.000000e+00
   outer loop
     vertex  1.250703e-01  5.547359e-02  9.206922e-01
     vertex  1.275703e-01  5.297359e-02  9.206922e-01
     vertex  1.105997e-01  6.244415e-02  9.206922e-01
   endloop
 endfacet
 facet normal  0.000000e+00 -0.000000e+00 -1.000000e+00
   outer loop
     vertex  9.612917e-02  8.941471e-02  9.206922e-01
     vertex  1.005997e-01  7.244415e-02  9.206922e-01
     vertex  9.362917e-02  8.691471e-02  9.206922e-01
   endloop
 endfacet
 facet normal -0.000000e+00  0.000000e+00 -1.000000e+00
   outer loop
     vertex  9.362917e-02  9.191471e-02  9.206922e-01
     vertex -8.233277e-02  7.664415e-02  9.206922e-01
     vertex -1.324297e-01  9.191471e-02  9.206922e-01
   endloop
 endfacet
 facet normal  0.000000e+00  0.000000e+00 -1.000000e+00
   outer loop
     vertex  9.362917e-02  9.191471e-02  9.206922e-01
     vertex  4.353223e-02  7.664415e-02  9.206922e-01
     vertex -8.233277e-02  7.664415e-02  9.206922e-01
   endloop
 endfacet
 facet normal  0.000000e+00  0.000000e+00 -1.000000e+00
   outer loop
     vertex  9.362917e-02  9.191471e-02  9.206922e-01
     vertex  9.112917e-02  8.941471e-02  9.206922e-01
     vertex  4.353223e-02  7.664415e-02  9.206922e-01
   endloop
 endfacet
 facet normal  0.000000e+00  0.000000e+00 -1.000000e+00
   outer loop
     vertex  1.205997e-01  7.244415e-02  9.206922e-01
     vertex  1.300703e-01  5.547359e-02  9.206922e-01
     vertex  1.275703e-01  5.797359e-02  9.206922e-01
   endloop
 endfacet
 facet normal  0.000000e+00  0.000000e+00 -1.000000e+00
   outer loop
     vertex  1.205997e-01  7.244415e-02  9.206922e-01
     vertex  1.275703e-01  5.797359e-02  9.206922e-01
     vertex  1.250703e-01  5.547359e-02  9.206922e-01
   endloop
 endfacet
 facet normal  0.000000e+00 -0.000000e+00 -1.000000e+00
   outer loop
     vertex  1.205997e-01  7.244415e-02  9.206922e-01
     vertex  1.250703e-01  5.547359e-02  9.206922e-01
     vertex  1.105997e-01  6.244415e-02  9.206922e-01
   endloop
 endfacet
 facet normal  0.000000e+00  0.000000e+00 -1.000000e+00
   outer loop
     vertex  1.105997e-01  8.244415e-02  9.206922e-01
     vertex  9.612917e-02  8.941471e-02  9.206922e-01
     vertex  9.362917e-02  9.191471e-02  9.206922e-01
   endloop
 endfacet
 facet normal -0.000000e+00  0.000000e+00 -1.000000e+00
   outer loop
     vertex  1.105997e-01  8.244415e-02  9.206922e-01
     vertex  1.005997e-01  7.244415e-02  9.206922e-01
     vertex  9.612917e-02  8.941471e-02  9.206922e-01
   endloop
 endfacet
 facet normal  0.000000e+00  0.000000e+00 -1.000000e+00
   outer loop
     vertex  1.805997e-01  4.564415e-02  9.206922e-01
     vertex  1.275703e-01  5.297359e-02  9.206922e-01
     vertex  1.300703e-01  5.547359e-02  9.206922e-01
   endloop
 endfacet
 facet normal  0.000000e+00  0.000000e+00 -1.000000e+00
   outer loop
     vertex  1.805997e-01  9.924415e-02  9.206922e-01
     vertex  1.105997e-01  8.244415e-02  9.206922e-01
     vertex  9.362917e-02  9.191471e-02  9.206922e-01
   endloop
 endfacet
 facet normal  0.000000e+00 -0.000000e+00 -1.000000e+00
   outer loop
     vertex  1.805997e-01  9.924415e-02  9.206922e-01
     vertex  1.805997e-01  4.564415e-02  9.206922e-01
     vertex  1.300703e-01  5.547359e-02  9.206922e-01
   endloop
 endfacet
 facet normal  0.000000e+00  0.000000e+00 -1.000000e+00
   outer loop
     vertex  1.805997e-01  9.924415e-02  9.206922e-01
     vertex  1.205997e-01  7.244415e-02  9.206922e-01
     vertex  1.105997e-01  8.244415e-02  9.206922e-01
   endloop
 endfacet
 facet normal  0.000000e+00  0.000000e+00 -1.000000e+00
   outer loop
     vertex  1.805997e-01  9.924415e-02  9.206922e-01
     vertex  1.300703e-01  5.547359e-02  9.206922e-01
     vertex  1.205997e-01  7.244415e-02  9.206922e-01
   endloop
 endfacet
 facet normal  0.000000e+00  0.000000e+00 -1.000000e+00
   outer loop
     vertex -2.194003e-01  9.924415e-02  9.206922e-01
     vertex  1.805997e-01  9.924415e-02  9.206922e-01
     vertex  9.362917e-02  9.191471e-02  9.206922e-01
   endloop
 endfacet
 facet normal  0.000000e+00  0.000000e+00 -1.000000e+00
   outer loop
     vertex -2.194003e-01  9.924415e-02  9.206922e-01
     vertex  9.362917e-02  9.191471e-02  9.206922e-01
     vertex -1.324297e-01  9.191471e-02  9.206922e-01
   endloop
 endfacet
 facet normal  0.000000e+00  0.000000e+00 -1.000000e+00
   outer loop
     vertex  1.805997e-01  4.564415e-02  9.206922e-01
     vertex -2.194003e-01  4.564415e-02  9.206922e-01
     vertex -1.663708e-01  5.297359e-02  9.206922e-01
   endloop
 endfacet
 facet normal  0.000000e+00  0.000000e+00 -1.000000e+00
   outer loop
     vertex  1.805997e-01  4.564415e-02  9.206922e-01
     vertex -1.663708e-01  5.297359e-02  9.206922e-01
     vertex  1.275703e-01  5.297359e-02  9.206922e-01
   endloop
 endfacet
 facet normal  0.000000e+00  0.000000e+00 -1.000000e+00
   outer loop
     vertex  1.275703e-01  5.297359e-02  9.206922e-01
     vertex -1.663708e-01  5.297359e-02  9.206922e-01
     vertex -8.233277e-02  6.824415e-02  9.206922e-01
   endloop
 endfacet
 facet normal  0.000000e+00  0.000000e+00 -1.000000e+00
   outer loop
     vertex  1.275703e-01  5.297359e-02  9.206922e-01
     vertex -8.233277e-02  6.824415e-02  9.206922e-01
     vertex  4.353223e-02  6.824415e-02  9.206922e-01
   endloop
 endfacet
 facet normal  0.000000e+00 -2.588190e-01 -9.659258e-01
   outer loop
     vertex -2.194003e-01  4.404415e-02  9.211210e-01
     vertex -2.194003e-01  4.564415e-02  9.206922e-01
     vertex  1.805997e-01  4.564415e-02  9.206922e-01
   endloop
 endfacet
 facet normal  0.000000e+00 -2.588190e-01 -9.659258e-01
   outer loop
     vertex -2.194003e-01  4.404415e-02  9.211210e-01
     vertex  1.805997e-01  4.564415e-02  9.206922e-01
     vertex  1.805997e-01  4.404415e-02  9.211210e-01
   endloop
 endfacet
 facet normal  0.000000e+00 -7.071068e-01 -7.071068e-01
   outer loop
     vertex -2.194003e-01  4.287287e-02  9.222922e-01
     vertex  1.805997e-01  4.404415e-02  9.211210e-01
     vertex  1.805997e-01  4.287287e-02  9.222922e-01
   endloop
 endfacet
 facet normal  0.000000e+00 -7.071068e-01 -7.071068e-01
   outer loop
     vertex -2.194003e-01  4.287287e-02  9.222922e-01
     vertex -2.194003e-01  4.404415e-02  9.211210e-01
     vertex  1.805997e-01  4.404415e-02  9.211210e-01
   endloop
 endfacet
 facet normal  0.000000e+00 -9.659258e-01 -2.588190e-01
   outer loop
     vertex -2.194003e-01  4.244415e-02  9.238922e-01
     vertex  1.805997e-01  4.287287e-02  9.222922e-01
     vertex  1.805997e-01  4.244415e-02  9.238922e-01
   endloop
 endfacet
 facet normal  0.000000e+00 -9.659258e-01 -2.588190e-01
   outer loop
     vertex -2.194003e-01  4.244415e-02  9.238922e-01
     vertex -2.194003e-01  4.287287e-02  9.222922e-01
     vertex  1.805997e-01  4.287287e-02  9.222922e-01
   endloop
 endfacet
 facet normal  0.000000e+00 -1.000000e+00  0.000000e+00
   outer loop
     vertex  1.805997e-01  4.244415e-02  9.238922e-01
     vertex  1.805997e-01  4.244415e-02  9.574922e-01
     vertex -2.194003e-01  4.244415e-02  9.574922e-01
   endloop
 endfacet
 facet normal  0.000000e+00 -1.000000e+00  0.000000e+00
   outer loop
     vertex  1.805997e-01  4.244415e-02  9.238922e-01
     vertex -2.194003e-01  4.244415e-02  9.574922e-01
     vertex -2.194003e-01  4.244415e-02  9.238922e-01
   endloop
 endfacet
 facet normal  0.000000e+00 -9.659258e-01  2.588190e-01
   outer loop
     vertex -2.194003e-01  4.287287e-02  9.590922e-01
     vertex -2.194003e-01  4.244415e-02  9.574922e-01
     vertex  1.805997e-01  4.244415e-02  9.574922e-01
   endloop
 endfacet
 facet normal  0.000000e+00 -9.659258e-01  2.588190e-01
   outer loop
     vertex -2.194003e-01  4.287287e-02  9.590922e-01
     vertex  1.805997e-01  4.244415e-02  9.574922e-01
     vertex  1.805997e-01  4.287287e-02  9.590922e-01
   endloop
 endfacet
 facet normal  0.000000e+00 -7.071068e-01  7.071068e-01
   outer loop
     vertex -2.194003e-01  4.404415e-02  9.602635e-01
     vertex  1.805997e-01  4.287287e-02  9.590922e-01
     vertex  1.805997e-01  4.404415e-02  9.602635e-01
   endloop
 endfacet
 facet normal  0.000000e+00 -7.071068e-01  7.071068e-01
   outer loop
     vertex -2.194003e-01  4.404415e-02  9.602635e-01
     vertex -2.194003e-01  4.287287e-02  9.590922e-01
     vertex  1.805997e-01  4.287287e-02  9.590922e-01
   endloop
 endfacet
 facet normal  0.000000e+00 -2.588190e-01  9.659258e-01
   outer loop
     vertex -2.194003e-01  4.564415e-02  9.606922e-01
     vertex  1.805997e-01  4.404415e-02  9.602635e-01
     vertex  1.805997e-01  4.564415e-02  9.606922e-01
   endloop
 endfacet
 facet normal  0.000000e+00 -2.588190e-01  9.659258e-01
   outer loop
     vertex -2.194003e-01  4.564415e-02  9.606922e-01
     vertex -2.194003e-01  4.404415e-02  9.602635e-01
     vertex  1.805997e-01  4.404415e-02  9.602635e-01
   endloop
 endfacet
 facet normal  0.000000e+00  0.000000e+00  1.000000e+00
   outer loop
     vertex -1.594003e-01  7.244415e-02  9.606922e-01
     vertex -2.194003e-01  9.924415e-02  9.606922e-01
     vertex -2.194003e-01  4.564415e-02  9.606922e-01
   endloop
 endfacet
 facet normal  0.000000e+00 -0.000000e+00  1.000000e+00
   outer loop
     vertex -1.594003e-01  7.244415e-02  9.606922e-01
     vertex -1.494003e-01  8.244415e-02  9.606922e-01
     vertex -2.194003e-01  9.924415e-02  9.606922e-01
   endloop
 endfacet
 facet normal  0.000000e+00  0.000000e+00  1.000000e+00
   outer loop
     vertex -1.494003e-01  6.244415e-02  9.606922e-01
     vertex -1.594003e-01  7.244415e-02  9.606922e-01
     vertex -2.194003e-01  4.564415e-02  9.606922e-01
   endloop
 endfacet
 facet normal  0.000000e+00  0.000000e+00  1.000000e+00
   outer loop
     vertex -8.233277e-02  7.664415e-02  9.606922e-01
     vertex -1.494003e-01  8.244415e-02  9.606922e-01
     vertex -1.394003e-01  7.244415e-02  9.606922e-01
   endloop
 endfacet
 facet normal  0.000000e+00 -0.000000e+00  1.000000e+00
   outer loop
     vertex -8.653277e-02  7.244415e-02  9.606922e-01
     vertex -8.233277e-02  7.664415e-02  9.606922e-01
     vertex -1.394003e-01  7.244415e-02  9.606922e-01
   endloop
 endfacet
 facet normal  0.000000e+00  0.000000e+00  1.000000e+00
   outer loop
     vertex -8.233277e-02  6.824415e-02  9.606922e-01
     vertex -1.394003e-01  7.244415e-02  9.606922e-01
     vertex -1.494003e-01  6.244415e-02  9.606922e-01
   endloop
 endfacet
 facet normal  0.000000e+00  0.000000e+00  1.000000e+00
   outer loop
     vertex -8.233277e-02  6.824415e-02  9.606922e-01
     vertex -8.653277e-02  7.244415e-02  9.606922e-01
     vertex -1.394003e-01  7.244415e-02  9.606922e-01
   endloop
 endfacet
 facet normal  0.000000e+00  0.000000e+00  1.000000e+00
   outer loop
     vertex  3.933223e-02  7.244415e-02  9.606922e-01
     vertex -8.233277e-02  7.664415e-02  9.606922e-01
     vertex -7.813277e-02  7.244415e-02  9.606922e-01
   endloop
 endfacet
 facet normal  0.000000e+00 -0.000000e+00  1.000000e+00
   outer loop
     vertex  3.933223e-02  7.244415e-02  9.606922e-01
     vertex  4.353223e-02  7.664415e-02  9.606922e-01
     vertex -8.233277e-02  7.664415e-02  9.606922e-01
   endloop
 endfacet
 facet normal  0.000000e+00  0.000000e+00  1.000000e+00
   outer loop
     vertex  4.353223e-02  6.824415e-02  9.606922e-01
     vertex -7.813277e-02  7.244415e-02  9.606922e-01
     vertex -8.233277e-02  6.824415e-02  9.606922e-01
   endloop
 endfacet
 facet normal  0.000000e+00  0.000000e+00  1.000000e+00
   outer loop
     vertex  4.353223e-02  6.824415e-02  9.606922e-01
     vertex  3.933223e-02  7.244415e-02  9.606922e-01
     vertex -7.813277e-02  7.244415e-02  9.606922e-01
   endloop
 endfacet
 facet normal  0.000000e+00  0.000000e+00  1.000000e+00
   outer loop
     vertex  1.005997e-01  7.244415e-02  9.606922e-01
     vertex  4.773223e-02  7.244415e-02  9.606922e-01
     vertex  4.353223e-02  6.824415e-02  9.606922e-01
   endloop
 endfacet
 facet normal  0.000000e+00  0.000000e+00  1.000000e+00
   outer loop
     vertex  1.005997e-01  7.244415e-02  9.606922e-01
     vertex  4.353223e-02  7.664415e-02  9.606922e-01
     vertex  4.773223e-02  7.244415e-02  9.606922e-01
   endloop
 endfacet
 facet normal  0.000000e+00 -0.000000e+00  1.000000e+00
   outer loop
     vertex  1.005997e-01  7.244415e-02  9.606922e-01
     vertex  1.105997e-01  8.244415e-02  9.606922e-01
     vertex  4.353223e-02  7.664415e-02  9.606922e-01
   endloop
 endfacet
 facet normal  0.000000e+00  0.000000e+00  1.000000e+00
   outer loop
     vertex  1.105997e-01  6.244415e-02  9.606922e-01
     vertex  1.005997e-01  7.244415e-02  9.606922e-01
     vertex  4.353223e-02  6.824415e-02  9.606922e-01
   endloop
 endfacet
 facet normal  0.000000e+00  0.000000e+00  1.000000e+00
   outer loop
     vertex  1.805997e-01  9.924415e-02  9.606922e-01
     vertex  1.105997e-01  8.244415e-02  9.606922e-01
     vertex  1.205997e-01  7.244415e-02  9.606922e-01
   endloop
 endfacet
 facet normal  0.000000e+00  0.000000e+00  1.000000e+00
   outer loop
     vertex  1.805997e-01  4.564415e-02  9.606922e-01
     vertex  1.205997e-01  7.244415e-02  9.606922e-01
     vertex  1.105997e-01  6.244415e-02  9.606922e-01
   endloop
 endfacet
 facet normal  0.000000e+00 -0.000000e+00  1.000000e+00
   outer loop
     vertex  1.805997e-01  4.564415e-02  9.606922e-01
     vertex  1.805997e-01  9.924415e-02  9.606922e-01
     vertex  1.205997e-01  7.244415e-02  9.606922e-01
   endloop
 endfacet
 facet normal  0.000000e+00  0.000000e+00  1.000000e+00
   outer loop
     vertex  1.805997e-01  9.924415e-02  9.606922e-01
     vertex -2.194003e-01  9.924415e-02  9.606922e-01
     vertex -1.494003e-01  8.244415e-02  9.606922e-01
   endloop
 endfacet
 facet normal  0.000000e+00  0.000000e+00  1.000000e+00
   outer loop
     vertex  1.805997e-01  9.924415e-02  9.606922e-01
     vertex -1.494003e-01  8.244415e-02  9.606922e-01
     vertex -8.233277e-02  7.664415e-02  9.606922e-01
   endloop
 endfacet
 facet normal  0.000000e+00  0.000000e+00  1.000000e+00
   outer loop
     vertex  1.805997e-01  9.924415e-02  9.606922e-01
     vertex -8.233277e-02  7.664415e-02  9.606922e-01
     vertex  1.105997e-01  8.244415e-02  9.606922e-01
   endloop
 endfacet
 facet normal  0.000000e+00  0.000000e+00  1.000000e+00
   outer loop
     vertex  1.105997e-01  8.244415e-02  9.606922e-01
     vertex -8.233277e-02  7.664415e-02  9.606922e-01
     vertex  4.353223e-02  7.664415e-02  9.606922e-01
   endloop
 endfacet
 facet normal  0.000000e+00  0.000000e+00  1.000000e+00
   outer loop
     vertex -2.194003e-01  4.564415e-02  9.606922e-01
     vertex  1.805997e-01  4.564415e-02  9.606922e-01
     vertex -1.494003e-01  6.244415e-02  9.606922e-01
   endloop
 endfacet
 facet normal -0.000000e+00  0.000000e+00  1.000000e+00
   outer loop
     vertex -1.494003e-01  6.244415e-02  9.606922e-01
     vertex  1.805997e-01  4.564415e-02  9.606922e-01
     vertex -8.233277e-02  6.824415e-02  9.606922e-01
   endloop
 endfacet
 facet normal  0.000000e+00  0.000000e+00  1.000000e+00
   outer loop
     vertex -8.233277e-02  6.824415e-02  9.606922e-01
     vertex  1.805997e-01  4.564415e-02  9.606922e-01
     vertex  1.105997e-01  6.244415e-02  9.606922e-01
   endloop
 endfacet
 facet normal -0.000000e+00  0.000000e+00  1.000000e+00
   outer loop
     vertex -8.233277e-02  6.824415e-02  9.606922e-01
     vertex  1.105997e-01  6.244415e-02  9.606922e-01
     vertex  4.353223e-02  6.824415e-02  9.606922e-01
   endloop
 endfacet
 facet normal  7.071068e-01 -7.071068e-01  0.000000e+00
   outer loop
     vertex -1.494003e-01  8.244415e-02  9.206922e-01
     vertex -1.594003e-01  7.244415e-02  9.238922e-01
     vertex -1.594003e-01  7.244415e-02  9.206922e-01
   endloop
 endfacet
 facet normal  7.071068e-01 -7.071068e-01  0.000000e+00
   outer loop
     vertex -1.494003e-01  8.244415e-02  9.206922e-01
     vertex -1.494003e-01  8.244415e-02  9.238922e-01
     vertex -1.594003e-01  7.244415e-02  9.238922e-01
   endloop
 endfacet
 facet normal -7.071068e-01 -7.071068e-01  0.000000e+00
   outer loop
     vertex -1.394003e-01  7.244415e-02  9.206922e-01
     vertex -1.394003e-01  7.244415e-02  9.238922e-01
     vertex -1.494003e-01  8.244415e-02  9.238922e-01
   endloop
 endfacet
 facet normal -7.071068e-01 -7.071068e-01  0.000000e+00
   outer loop
     vertex -1.394003e-01  7.244415e-02  9.206922e-01
     vertex -1.494003e-01  8.244415e-02  9.238922e-01
     vertex -1.494003e-01  8.244415e-02  9.206922e-01
   endloop
 endfacet
 facet normal -7.071068e-01  7.071068e-01  0.000000e+00
   outer loop
     vertex -1.494003e-01  6.244415e-02  9.206922e-01
     vertex -1.494003e-01  6.244415e-02  9.238922e-01
     vertex -1.394003e-01  7.244415e-02  9.238922e-01
   endloop
 endfacet
 facet normal -7.071068e-01  7.071068e-01  0.000000e+00
   outer loop
     vertex -1.494003e-01  6.244415e-02  9.206922e-01
     vertex -1.394003e-01  7.244415e-02  9.238922e-01
     vertex -1.394003e-01  7.244415e-02  9.206922e-01
   endloop
 endfacet
 facet normal  7.071068e-01  7.071068e-01 -0.000000e+00
   outer loop
     vertex -1.594003e-01  7.244415e-02  9.206922e-01
     vertex -1.594003e-01  7.244415e-02  9.238922e-01
     vertex -1.494003e-01  6.244415e-02  9.238922e-01
   endloop
 endfacet
 facet normal  7.071068e-01  7.071068e-01  0.000000e+00
   outer loop
     vertex -1.594003e-01  7.244415e-02  9.206922e-01
     vertex -1.494003e-01  6.244415e-02  9.238922e-01
     vertex -1.494003e-01  6.244415e-02  9.206922e-01
   endloop
 endfacet
 facet normal  7.071068e-01 -7.071068e-01  0.000000e+00
   outer loop
     vertex -1.494003e-01  8.244415e-02  9.574922e-01
     vertex -1.594003e-01  7.244415e-02  9.606922e-01
     vertex -1.594003e-01  7.244415e-02  9.574922e-01
   endloop
 endfacet
 facet normal  7.071068e-01 -7.071068e-01  0.000000e+00
   outer loop
     vertex -1.494003e-01  8.244415e-02  9.574922e-01
     vertex -1.494003e-01  8.244415e-02  9.606922e-01
     vertex -1.594003e-01  7.244415e-02  9.606922e-01
   endloop
 endfacet
 facet normal -7.071068e-01 -7.071068e-01  0.000000e+00
   outer loop
     vertex -1.394003e-01  7.244415e-02  9.574922e-01
     vertex -1.394003e-01  7.244415e-02  9.606922e-01
     vertex -1.494003e-01  8.244415e-02  9.606922e-01
   endloop
 endfacet
 facet normal -7.071068e-01 -7.071068e-01  0.000000e+00
   outer loop
     vertex -1.394003e-01  7.244415e-02  9.574922e-01
     vertex -1.494003e-01  8.244415e-02  9.606922e-01
     vertex -1.494003e-01  8.244415e-02  9.574922e-01
   endloop
 endfacet
 facet normal -7.071068e-01  7.071068e-01  0.000000e+00
   outer loop
     vertex -1.494003e-01  6.244415e-02  9.574922e-01
     vertex -1.494003e-01  6.244415e-02  9.606922e-01
     vertex -1.394003e-01  7.244415e-02  9.606922e-01
   endloop
 endfacet
 facet normal -7.071068e-01  7.071068e-01  0.000000e+00
   outer loop
     vertex -1.494003e-01  6.244415e-02  9.574922e-01
     vertex -1.394003e-01  7.244415e-02  9.606922e-01
     vertex -1.394003e-01  7.244415e-02  9.574922e-01
   endloop
 endfacet
 facet normal  7.071068e-01  7.071068e-01 -0.000000e+00
   outer loop
     vertex -1.594003e-01  7.244415e-02  9.574922e-01
     vertex -1.594003e-01  7.244415e-02  9.606922e-01
     vertex -1.494003e-01  6.244415e-02  9.606922e-01
   endloop
 endfacet
 facet normal  7.071068e-01  7.071068e-01  0.000000e+00
   outer loop
     vertex -1.594003e-01  7.244415e-02  9.574922e-01
     vertex -1.494003e-01  6.244415e-02  9.606922e-01
     vertex -1.494003e-01  6.244415e-02  9.574922e-01
   endloop
 endfacet
 facet normal -7.071068e-01 -7.071068e-01  0.000000e+00
   outer loop
     vertex  1.105997e-01  8.244415e-02  9.238922e-01
     vertex  1.205997e-01  7.244415e-02  9.206922e-01
     vertex  1.205997e-01  7.244415e-02  9.238922e-01
   endloop
 endfacet
 facet normal -7.071068e-01 -7.071068e-01 -0.000000e+00
   outer loop
     vertex  1.105997e-01  8.244415e-02  9.238922e-01
     vertex  1.105997e-01  8.244415e-02  9.206922e-01
     vertex  1.205997e-01  7.244415e-02  9.206922e-01
   endloop
 endfacet
 facet normal  7.071068e-01 -7.071068e-01  0.000000e+00
   outer loop
     vertex  1.005997e-01  7.244415e-02  9.238922e-01
     vertex  1.005997e-01  7.244415e-02  9.206922e-01
     vertex  1.105997e-01  8.244415e-02  9.206922e-01
   endloop
 endfacet
 facet normal  7.071068e-01 -7.071068e-01  0.000000e+00
   outer loop
     vertex  1.005997e-01  7.244415e-02  9.238922e-01
     vertex  1.105997e-01  8.244415e-02  9.206922e-01
     vertex  1.105997e-01  8.244415e-02  9.238922e-01
   endloop
 endfacet
 facet normal  7.071068e-01  7.071068e-01  0.000000e+00
   outer loop
     vertex  1.105997e-01  6.244415e-02  9.238922e-01
     vertex  1.105997e-01  6.244415e-02  9.206922e-01
     vertex  1.005997e-01  7.244415e-02  9.206922e-01
   endloop
 endfacet
 facet normal  7.071068e-01  7.071068e-01  0.000000e+00
   outer loop
     vertex  1.105997e-01  6.244415e-02  9.238922e-01
     vertex  1.005997e-01  7.244415e-02  9.206922e-01
     vertex  1.005997e-01  7.244415e-02  9.238922e-01
   endloop
 endfacet
 facet normal -7.071068e-01  7.071068e-01  0.000000e+00
   outer loop
     vertex  1.205997e-01  7.244415e-02  9.238922e-01
     vertex  1.205997e-01  7.244415e-02  9.206922e-01
     vertex  1.105997e-01  6.244415e-02  9.206922e-01
   endloop
 endfacet
 facet normal -7.071068e-01  7.071068e-01  0.000000e+00
   outer loop
     vertex  1.205997e-01  7.244415e-02  9.238922e-01
     vertex  1.105997e-01  6.244415e-02  9.206922e-01
     vertex  1.105997e-01  6.244415e-02  9.238922e-01
   endloop
 endfacet
 facet normal -7.071068e-01 -7.071068e-01  0.000000e+00
   outer loop
     vertex  1.105997e-01  8.244415e-02  9.606922e-01
     vertex  1.205997e-01  7.244415e-02  9.574922e-01
     vertex  1.205997e-01  7.244415e-02  9.606922e-01
   endloop
 endfacet
 facet normal -7.071068e-01 -7.071068e-01 -0.000000e+00
   outer loop
     vertex  1.105997e-01  8.244415e-02  9.606922e-01
     vertex  1.105997e-01  8.244415e-02  9.574922e-01
     vertex  1.205997e-01  7.244415e-02  9.574922e-01
   endloop
 endfacet
 facet normal  7.071068e-01 -7.071068e-01  0.000000e+00
   outer loop
     vertex  1.005997e-01  7.244415e-02  9.606922e-01
     vertex  1.005997e-01  7.244415e-02  9.574922e-01
     vertex  1.105997e-01  8.244415e-02  9.574922e-01
   endloop
 endfacet
 facet normal  7.071068e-01 -7.071068e-01  0.000000e+00
   outer loop
     vertex  1.005997e-01  7.244415e-02  9.606922e-01
     vertex  1.105997e-01  8.244415e-02  9.574922e-01
     vertex  1.105997e-01  8.244415e-02  9.606922e-01
   endloop
 endfacet
 facet normal  7.071068e-01  7.071068e-01  0.000000e+00
   outer loop
     vertex  1.105997e-01  6.244415e-02  9.606922e-01
     vertex  1.105997e-01  6.244415e-02  9.574922e-01
     vertex  1.005997e-01  7.244415e-02  9.574922e-01
   endloop
 endfacet
 facet normal  7.071068e-01  7.071068e-01  0.000000e+00
   outer loop
     vertex  1.105997e-01  6.244415e-02  9.606922e-01
     vertex  1.005997e-01  7.244415e-02  9.574922e-01
     vertex  1.005997e-01  7.244415e-02  9.606922e-01
   endloop
 endfacet
 facet normal -7.071068e-01  7.071068e-01  0.000000e+00
   outer loop
     vertex  1.205997e-01  7.244415e-02  9.606922e-01
     vertex  1.205997e-01  7.244415e-02  9.574922e-01
     vertex  1.105997e-01  6.244415e-02  9.574922e-01
   endloop
 endfacet
 facet normal -7.071068e-01  7.071068e-01  0.000000e+00
   outer loop
     vertex  1.205997e-01  7.244415e-02  9.606922e-01
     vertex  1.105997e-01  6.244415e-02  9.574922e-01
     vertex  1.105997e-01  6.244415e-02  9.606922e-01
   endloop
 endfacet
 facet normal  7.071068e-01  7.071068e-01  0.000000e+00
   outer loop
     vertex -8.233277e-02  6.824415e-02  9.238922e-01
     vertex -8.653277e-02  7.244415e-02  9.206922e-01
     vertex -8.653277e-02  7.244415e-02  9.238922e-01
   endloop
 endfacet
 facet normal  7.071068e-01  7.071068e-01  0.000000e+00
   outer loop
     vertex -8.233277e-02  6.824415e-02  9.238922e-01
     vertex -8.233277e-02  6.824415e-02  9.206922e-01
     vertex -8.653277e-02  7.244415e-02  9.206922e-01
   endloop
 endfacet
 facet normal -7.071068e-01  7.071068e-01  0.000000e+00
   outer loop
     vertex -7.813277e-02  7.244415e-02  9.238922e-01
     vertex -7.813277e-02  7.244415e-02  9.206922e-01
     vertex -8.233277e-02  6.824415e-02  9.206922e-01
   endloop
 endfacet
 facet normal -7.071068e-01  7.071068e-01  0.000000e+00
   outer loop
     vertex -7.813277e-02  7.244415e-02  9.238922e-01
     vertex -8.233277e-02  6.824415e-02  9.206922e-01
     vertex -8.233277e-02  6.824415e-02  9.238922e-01
   endloop
 endfacet
 facet normal -7.071068e-01 -7.071068e-01 -0.000000e+00
   outer loop
     vertex -8.233277e-02  7.664415e-02  9.238922e-01
     vertex -8.233277e-02  7.664415e-02  9.206922e-01
     vertex -7.813277e-02  7.244415e-02  9.206922e-01
   endloop
 endfacet
 facet normal -7.071068e-01 -7.071068e-01  0.000000e+00
   outer loop
     vertex -8.233277e-02  7.664415e-02  9.238922e-01
     vertex -7.813277e-02  7.244415e-02  9.206922e-01
     vertex -7.813277e-02  7.244415e-02  9.238922e-01
   endloop
 endfacet
 facet normal  7.071068e-01 -7.071068e-01  0.000000e+00
   outer loop
     vertex -8.653277e-02  7.244415e-02  9.238922e-01
     vertex -8.653277e-02  7.244415e-02  9.206922e-01
     vertex -8.233277e-02  7.664415e-02  9.206922e-01
   endloop
 endfacet
 facet normal  7.071068e-01 -7.071068e-01  0.000000e+00
   outer loop
     vertex -8.653277e-02  7.244415e-02  9.238922e-01
     vertex -8.233277e-02  7.664415e-02  9.206922e-01
     vertex -8.233277e-02  7.664415e-02  9.238922e-01
   endloop
 endfacet
 facet normal  7.071068e-01  7.071068e-01  0.000000e+00
   outer loop
     vertex -8.233277e-02  6.824415e-02  9.606922e-01
     vertex -8.653277e-02  7.244415e-02  9.574922e-01
     vertex -8.653277e-02  7.244415e-02  9.606922e-01
   endloop
 endfacet
 facet normal  7.071068e-01  7.071068e-01  0.000000e+00
   outer loop
     vertex -8.233277e-02  6.824415e-02  9.606922e-01
     vertex -8.233277e-02  6.824415e-02  9.574922e-01
     vertex -8.653277e-02  7.244415e-02  9.574922e-01
   endloop
 endfacet
 facet normal -7.071068e-01  7.071068e-01  0.000000e+00
   outer loop
     vertex -7.813277e-02  7.244415e-02  9.606922e-01
     vertex -7.813277e-02  7.244415e-02  9.574922e-01
     vertex -8.233277e-02  6.824415e-02  9.574922e-01
   endloop
 endfacet
 facet normal -7.071068e-01  7.071068e-01  0.000000e+00
   outer loop
     vertex -7.813277e-02  7.244415e-02  9.606922e-01
     vertex -8.233277e-02  6.824415e-02  9.574922e-01
     vertex -8.233277e-02  6.824415e-02  9.606922e-01
   endloop
 endfacet
 facet normal -7.071068e-01 -7.071068e-01 -0.000000e+00
   outer loop
     vertex -8.233277e-02  7.664415e-02  9.606922e-01
     vertex -8.233277e-02  7.664415e-02  9.574922e-01
     vertex -7.813277e-02  7.244415e-02  9.574922e-01
   endloop
 endfacet
 facet normal -7.071068e-01 -7.071068e-01  0.000000e+00
   outer loop
     vertex -8.233277e-02  7.664415e-02  9.606922e-01
     vertex -7.813277e-02  7.244415e-02  9.574922e-01
     vertex -7.813277e-02  7.244415e-02  9.606922e-01
   endloop
 endfacet
 facet normal  7.071068e-01 -7.071068e-01  0.000000e+00
   outer loop
     vertex -8.653277e-02  7.244415e-02  9.606922e-01
     vertex -8.653277e-02  7.244415e-02  9.574922e-01
     vertex -8.233277e-02  7.664415e-02  9.574922e-01
   endloop
 endfacet
 facet normal  7.071068e-01 -7.071068e-01  0.000000e+00
   outer loop
     vertex -8.653277e-02  7.244415e-02  9.606922e-01
     vertex -8.233277e-02  7.664415e-02  9.574922e-01
     vertex -8.233277e-02  7.664415e-02  9.606922e-01
   endloop
 endfacet
 facet normal  7.071068e-01  7.071068e-01  0.000000e+00
   outer loop
     vertex  4.353223e-02  6.824415e-02  9.238922e-01
     vertex  3.933223e-02  7.244415e-02  9.206922e-01
     vertex  3.933223e-02  7.244415e-02  9.238922e-01
   endloop
 endfacet
 facet normal  7.071068e-01  7.071068e-01  0.000000e+00
   outer loop
     vertex  4.353223e-02  6.824415e-02  9.238922e-01
     vertex  4.353223e-02  6.824415e-02  9.206922e-01
     vertex  3.933223e-02  7.244415e-02  9.206922e-01
   endloop
 endfacet
 facet normal -7.071068e-01  7.071068e-01  0.000000e+00
   outer loop
     vertex  4.773223e-02  7.244415e-02  9.238922e-01
     vertex  4.773223e-02  7.244415e-02  9.206922e-01
     vertex  4.353223e-02  6.824415e-02  9.206922e-01
   endloop
 endfacet
 facet normal -7.071068e-01  7.071068e-01  0.000000e+00
   outer loop
     vertex  4.773223e-02  7.244415e-02  9.238922e-01
     vertex  4.353223e-02  6.824415e-02  9.206922e-01
     vertex  4.353223e-02  6.824415e-02  9.238922e-01
   endloop
 endfacet
 facet normal -7.071068e-01 -7.071068e-01 -0.000000e+00
   outer loop
     vertex  4.353223e-02  7.664415e-02  9.238922e-01
     vertex  4.353223e-02  7.664415e-02  9.206922e-01
     vertex  4.773223e-02  7.244415e-02  9.206922e-01
   endloop
 endfacet
 facet normal -7.071068e-01 -7.071068e-01  0.000000e+00
   outer loop
     vertex  4.353223e-02  7.664415e-02  9.238922e-01
     vertex  4.773223e-02  7.244415e-02  9.206922e-01
     vertex  4.773223e-02  7.244415e-02  9.238922e-01
   endloop
 endfacet
 facet normal  7.071068e-01 -7.071068e-01  0.000000e+00
   outer loop
     vertex  3.933223e-02  7.244415e-02  9.238922e-01
     vertex  3.933223e-02  7.244415e-02  9.206922e-01
     vertex  4.353223e-02  7.664415e-02  9.206922e-01
   endloop
 endfacet
 facet normal  7.071068e-01 -7.071068e-01  0.000000e+00
   outer loop
     vertex  3.933223e-02  7.244415e-02  9.238922e-01
     vertex  4.353223e-02  7.664415e-02  9.206922e-01
     vertex  4.353223e-02  7.664415e-02  9.238922e-01
   endloop
 endfacet
 facet normal  7.071068e-01  7.071068e-01  0.000000e+00
   outer loop
     vertex  4.353223e-02  6.824415e-02  9.606922e-01
     vertex  3.933223e-02  7.244415e-02  9.574922e-01
     vertex  3.933223e-02  7.244415e-02  9.606922e-01
   endloop
 endfacet
 facet normal  7.071068e-01  7.071068e-01  0.000000e+00
   outer loop
     vertex  4.353223e-02  6.824415e-02  9.606922e-01
     vertex  4.353223e-02  6.824415e-02  9.574922e-01
     vertex  3.933223e-02  7.244415e-02  9.574922e-01
   endloop
 endfacet
 facet normal -7.071068e-01  7.071068e-01  0.000000e+00
   outer loop
     vertex  4.773223e-02  7.244415e-02  9.606922e-01
     vertex  4.773223e-02  7.244415e-02  9.574922e-01
     vertex  4.353223e-02  6.824415e-02  9.574922e-01
   endloop
 endfacet
 facet normal -7.071068e-01  7.071068e-01  0.000000e+00
   outer loop
     vertex  4.773223e-02  7.244415e-02  9.606922e-01
     vertex  4.353223e-02  6.824415e-02  9.574922e-01
     vertex  4.353223e-02  6.824415e-02  9.606922e-01
   endloop
 endfacet
 facet normal -7.071068e-01 -7.071068e-01 -0.000000e+00
   outer loop
     vertex  4.353223e-02  7.664415e-02  9.606922e-01
     vertex  4.353223e-02  7.664415e-02  9.574922e-01
     vertex  4.773223e-02  7.244415e-02  9.574922e-01
   endloop
 endfacet
 facet normal -7.071068e-01 -7.071068e-01  0.000000e+00
   outer loop
     vertex  4.353223e-02  7.664415e-02  9.606922e-01
     vertex  4.773223e-02  7.244415e-02  9.574922e-01
     vertex  4.773223e-02  7.244415e-02  9.606922e-01
   endloop
 endfacet
 facet normal  7.071068e-01 -7.071068e-01  0.000000e+00
   outer loop
     vertex  3.933223e-02  7.244415e-02  9.606922e-01
     vertex  3.933223e-02  7.244415e-02  9.574922e-01
     vertex  4.353223e-02  7.664415e-02  9.574922e-01
   endloop
 endfacet
 facet normal  7.071068e-01 -7.071068e-01  0.000000e+00
   outer loop
     vertex  3.933223e-02  7.244415e-02  9.606922e-01
     vertex  4.353223e-02  7.664415e-02  9.574922e-01
     vertex  4.353223e-02  7.664415e-02  9.606922e-01
   endloop
 endfacet
 facet normal -7.071068e-01  7.071068e-01  0.000000e+00
   outer loop
     vertex -1.663708e-01  5.297359e-02  9.206922e-01
     vertex -1.638708e-01  5.547359e-02  9.238922e-01
     vertex -1.638708e-01  5.547359e-02  9.206922e-01
   endloop
 endfacet
 facet normal -7.071068e-01  7.071068e-01  0.000000e+00
   outer loop
     vertex -1.663708e-01  5.297359e-02  9.206922e-01
     vertex -1.663708e-01  5.297359e-02  9.238922e-01
     vertex -1.638708e-01  5.547359e-02  9.238922e-01
   endloop
 endfacet
 facet normal  7.071068e-01  7.071068e-01 -0.000000e+00
   outer loop
     vertex -1.688708e-01  5.547359e-02  9.206922e-01
     vertex -1.688708e-01  5.547359e-02  9.238922e-01
     vertex -1.663708e-01  5.297359e-02  9.238922e-01
   endloop
 endfacet
 facet normal  7.071068e-01  7.071068e-01  0.000000e+00
   outer loop
     vertex -1.688708e-01  5.547359e-02  9.206922e-01
     vertex -1.663708e-01  5.297359e-02  9.238922e-01
     vertex -1.663708e-01  5.297359e-02  9.206922e-01
   endloop
 endfacet
 facet normal  7.071068e-01 -7.071068e-01  0.000000e+00
   outer loop
     vertex -1.663708e-01  5.797359e-02  9.206922e-01
     vertex -1.663708e-01  5.797359e-02  9.238922e-01
     vertex -1.688708e-01  5.547359e-02  9.238922e-01
   endloop
 endfacet
 facet normal  7.071068e-01 -7.071068e-01  0.000000e+00
   outer loop
     vertex -1.663708e-01  5.797359e-02  9.206922e-01
     vertex -1.688708e-01  5.547359e-02  9.238922e-01
     vertex -1.688708e-01  5.547359e-02  9.206922e-01
   endloop
 endfacet
 facet normal -7.071068e-01 -7.071068e-01  0.000000e+00
   outer loop
     vertex -1.638708e-01  5.547359e-02  9.206922e-01
     vertex -1.638708e-01  5.547359e-02  9.238922e-01
     vertex -1.663708e-01  5.797359e-02  9.238922e-01
   endloop
 endfacet
 facet normal -7.071068e-01 -7.071068e-01  0.000000e+00
   outer loop
     vertex -1.638708e-01  5.547359e-02  9.206922e-01
     vertex -1.663708e-01  5.797359e-02  9.238922e-01
     vertex -1.663708e-01  5.797359e-02  9.206922e-01
   endloop
 endfacet
 facet normal -7.071068e-01  7.071068e-01  0.000000e+00
   outer loop
     vertex -1.324297e-01  8.691471e-02  9.206922e-01
     vertex -1.299297e-01  8.941471e-02  9.238922e-01
     vertex -1.299297e-01  8.941471e-02  9.206922e-01
   endloop
 endfacet
 facet normal -7.071068e-01  7.071068e-01  0.000000e+00
   outer loop
     vertex -1.324297e-01  8.691471e-02  9.206922e-01
     vertex -1.324297e-01  8.691471e-02  9.238922e-01
     vertex -1.299297e-01  8.941471e-02  9.238922e-01
   endloop
 endfacet
 facet normal  7.071068e-01  7.071068e-01 -0.000000e+00
   outer loop
     vertex -1.349297e-01  8.941471e-02  9.206922e-01
     vertex -1.349297e-01  8.941471e-02  9.238922e-01
     vertex -1.324297e-01  8.691471e-02  9.238922e-01
   endloop
 endfacet
 facet normal  7.071068e-01  7.071068e-01  0.000000e+00
   outer loop
     vertex -1.349297e-01  8.941471e-02  9.206922e-01
     vertex -1.324297e-01  8.691471e-02  9.238922e-01
     vertex -1.324297e-01  8.691471e-02  9.206922e-01
   endloop
 endfacet
 facet normal  7.071068e-01 -7.071068e-01  0.000000e+00
   outer loop
     vertex -1.324297e-01  9.191471e-02  9.206922e-01
     vertex -1.324297e-01  9.191471e-02  9.238922e-01
     vertex -1.349297e-01  8.941471e-02  9.238922e-01
   endloop
 endfacet
 facet normal  7.071068e-01 -7.071068e-01  0.000000e+00
   outer loop
     vertex -1.324297e-01  9.191471e-02  9.206922e-01
     vertex -1.349297e-01  8.941471e-02  9.238922e-01
     vertex -1.349297e-01  8.941471e-02  9.206922e-01
   endloop
 endfacet
 facet normal -7.071068e-01 -7.071068e-01  0.000000e+00
   outer loop
     vertex -1.299297e-01  8.941471e-02  9.206922e-01
     vertex -1.299297e-01  8.941471e-02  9.238922e-01
     vertex -1.324297e-01  9.191471e-02  9.238922e-01
   endloop
 endfacet
 facet normal -7.071068e-01 -7.071068e-01  0.000000e+00
   outer loop
     vertex -1.299297e-01  8.941471e-02  9.206922e-01
     vertex -1.324297e-01  9.191471e-02  9.238922e-01
     vertex -1.324297e-01  9.191471e-02  9.206922e-01
   endloop
 endfacet
 facet normal  7.071068e-01  7.071068e-01  0.000000e+00
   outer loop
     vertex  1.275703e-01  5.297359e-02  9.238922e-01
     vertex  1.250703e-01  5.547359e-02  9.206922e-01
     vertex  1.250703e-01  5.547359e-02  9.238922e-01
   endloop
 endfacet
 facet normal  7.071068e-01  7.071068e-01  0.000000e+00
   outer loop
     vertex  1.275703e-01  5.297359e-02  9.238922e-01
     vertex  1.275703e-01  5.297359e-02  9.206922e-01
     vertex  1.250703e-01  5.547359e-02  9.206922e-01
   endloop
 endfacet
 facet normal -7.071068e-01  7.071068e-01  0.000000e+00
   outer loop
     vertex  1.300703e-01  5.547359e-02  9.238922e-01
     vertex  1.300703e-01  5.547359e-02  9.206922e-01
     vertex  1.275703e-01  5.297359e-02  9.206922e-01
   endloop
 endfacet
 facet normal -7.071068e-01  7.071068e-01  0.000000e+00
   outer loop
     vertex  1.300703e-01  5.547359e-02  9.238922e-01
     vertex  1.275703e-01  5.297359e-02  9.206922e-01
     vertex  1.275703e-01  5.297359e-02  9.238922e-01
   endloop
 endfacet
 facet normal -7.071068e-01 -7.071068e-01 -0.000000e+00
   outer loop
     vertex  1.275703e-01  5.797359e-02  9.238922e-01
     vertex  1.275703e-01  5.797359e-02  9.206922e-01
     vertex  1.300703e-01  5.547359e-02  9.206922e-01
   endloop
 endfacet
 facet normal -7.071068e-01 -7.071068e-01  0.000000e+00
   outer loop
     vertex  1.275703e-01  5.797359e-02  9.238922e-01
     vertex  1.300703e-01  5.547359e-02  9.206922e-01
     vertex  1.300703e-01  5.547359e-02  9.238922e-01
   endloop
 endfacet
 facet normal  7.071068e-01 -7.071068e-01  0.000000e+00
   outer loop
     vertex  1.250703e-01  5.547359e-02  9.238922e-01
     vertex  1.250703e-01  5.547359e-02  9.206922e-01
     vertex  1.275703e-01  5.797359e-02  9.206922e-01
   endloop
 endfacet
 facet normal  7.071068e-01 -7.071068e-01  0.000000e+00
   outer loop
     vertex  1.250703e-01  5.547359e-02  9.238922e-01
     vertex  1.275703e-01  5.797359e-02  9.206922e-01
     vertex  1.275703e-01  5.797359e-02  9.238922e-01
   endloop
 endfacet
 facet normal  7.071068e-01  7.071068e-01  0.000000e+00
   outer loop
     vertex  9.362917e-02  8.691471e-02  9.238922e-01
     vertex  9.112917e-02  8.941471e-02  9.206922e-01
     vertex  9.112917e-02  8.941471e-02  9.238922e-01
   endloop
 endfacet
 facet normal  7.071068e-01  7.071068e-01  0.000000e+00
   outer loop
     vertex  9.362917e-02  8.691471e-02  9.238922e-01
     vertex  9.362917e-02  8.691471e-02  9.206922e-01
     vertex  9.112917e-02  8.941471e-02  9.206922e-01
   endloop
 endfacet
 facet normal -7.071068e-01  7.071068e-01  0.000000e+00
   outer loop
     vertex  9.612917e-02  8.941471e-02  9.238922e-01
     vertex  9.612917e-02  8.941471e-02  9.206922e-01
     vertex  9.362917e-02  8.691471e-02  9.206922e-01
   endloop
 endfacet
 facet normal -7.071068e-01  7.071068e-01  0.000000e+00
   outer loop
     vertex  9.612917e-02  8.941471e-02  9.238922e-01
     vertex  9.362917e-02  8.691471e-02  9.206922e-01
     vertex  9.362917e-02  8.691471e-02  9.238922e-01
   endloop
 endfacet
 facet normal -7.071068e-01 -7.071068e-01 -0.000000e+00
   outer loop
     vertex  9.362917e-02  9.191471e-02  9.238922e-01
     vertex  9.362917e-02  9.191471e-02  9.206922e-01
     vertex  9.612917e-02  8.941471e-02  9.206922e-01
   endloop
 endfacet
 facet normal -7.071068e-01 -7.071068e-01  0.000000e+00
   outer loop
     vertex  9.362917e-02  9.191471e-02  9.238922e-01
     vertex  9.612917e-02  8.941471e-02  9.206922e-01
     vertex  9.612917e-02  8.941471e-02  9.238922e-01
   endloop
 endfacet
 facet normal  7.071068e-01 -7.071068e-01  0.000000e+00
   outer loop
     vertex  9.112917e-02  8.941471e-02  9.238922e-01
     vertex  9.112917e-02  8.941471e-02  9.206922e-01
     vertex  9.362917e-02  9.191471e-02  9.206922e-01
   endloop
 endfacet
 facet normal  7.071068e-01 -7.071068e-01  0.000000e+00
   outer loop
     vertex  9.112917e-02  8.941471e-02  9.238922e-01
     vertex  9.362917e-02  9.191471e-02  9.206922e-01
     vertex  9.362917e-02  9.191471e-02  9.238922e-01
   endloop
 endfacet
endsolid
