solid 
 facet normal  0.000000e+00  1.000000e+00  0.000000e+00
   outer loop
     vertex  2.303667e-01 -2.065559e-01  8.686922e-01
     vertex  2.335997e-01 -2.065559e-01  8.719252e-01
     vertex  2.368327e-01 -2.065559e-01  8.686922e-01
   endloop
 endfacet
 facet normal  0.000000e+00  1.000000e+00 -8.791126e-12
   outer loop
     vertex  2.303667e-01 -2.065559e-01  8.686922e-01
     vertex  2.368327e-01 -2.065559e-01  8.686922e-01
     vertex  2.335997e-01 -2.065559e-01  8.654592e-01
   endloop
 endfacet
 facet normal  3.779645e-01  6.546537e-01 -6.546537e-01
   outer loop
     vertex  2.370638e-01 -2.073229e-01  8.666922e-01
     vertex  2.335997e-01 -2.073229e-01  8.646922e-01
     vertex  2.335997e-01 -2.065559e-01  8.654592e-01
   endloop
 endfacet
 facet normal  3.091739e-01  8.993459e-01 -3.091739e-01
   outer loop
     vertex  2.368327e-01 -2.065559e-01  8.686922e-01
     vertex  2.370638e-01 -2.073229e-01  8.666922e-01
     vertex  2.335997e-01 -2.065559e-01  8.654592e-01
   endloop
 endfacet
 facet normal  9.574815e-01  2.884948e-01  0.000000e+00
   outer loop
     vertex  2.370638e-01 -2.073229e-01  8.706922e-01
     vertex  2.370638e-01 -2.073229e-01  8.666922e-01
     vertex  2.368327e-01 -2.065559e-01  8.686922e-01
   endloop
 endfacet
 facet normal  3.091739e-01  8.993459e-01  3.091739e-01
   outer loop
     vertex  2.335997e-01 -2.065559e-01  8.719252e-01
     vertex  2.370638e-01 -2.073229e-01  8.706922e-01
     vertex  2.368327e-01 -2.065559e-01  8.686922e-01
   endloop
 endfacet
 facet normal  3.779645e-01  6.546537e-01  6.546537e-01
   outer loop
     vertex  2.335997e-01 -2.073229e-01  8.726922e-01
     vertex  2.370638e-01 -2.073229e-01  8.706922e-01
     vertex  2.335997e-01 -2.065559e-01  8.719252e-01
   endloop
 endfacet
 facet normal -3.779645e-01  6.546537e-01  6.546537e-01
   outer loop
     vertex  2.301356e-01 -2.073229e-01  8.706922e-01
     vertex  2.335997e-01 -2.073229e-01  8.726922e-01
     vertex  2.335997e-01 -2.065559e-01  8.719252e-01
   endloop
 endfacet
 facet normal -3.091739e-01  8.993459e-01  3.091739e-01
   outer loop
     vertex  2.303667e-01 -2.065559e-01  8.686922e-01
     vertex  2.301356e-01 -2.073229e-01  8.706922e-01
     vertex  2.335997e-01 -2.065559e-01  8.719252e-01
   endloop
 endfacet
 facet normal -9.574815e-01  2.884948e-01  0.000000e+00
   outer loop
     vertex  2.301356e-01 -2.073229e-01  8.666922e-01
     vertex  2.301356e-01 -2.073229e-01  8.706922e-01
     vertex  2.303667e-01 -2.065559e-01  8.686922e-01
   endloop
 endfacet
 facet normal -3.091739e-01  8.993459e-01 -3.091739e-01
   outer loop
     vertex  2.335997e-01 -2.065559e-01  8.654592e-01
     vertex  2.301356e-01 -2.073229e-01  8.666922e-01
     vertex  2.303667e-01 -2.065559e-01  8.686922e-01
   endloop
 endfacet
 facet normal -3.779645e-01  6.546537e-01 -6.546537e-01
   outer loop
     vertex  2.335997e-01 -2.073229e-01  8.646922e-01
     vertex  2.301356e-01 -2.073229e-01  8.666922e-01
     vertex  2.335997e-01 -2.065559e-01  8.654592e-01
   endloop
 endfacet
 facet normal  5.000000e-01  0.000000e+00  8.660254e-01
   outer loop
     vertex  2.370638e-01 -2.073229e-01  8.706922e-01
     vertex  2.335997e-01 -2.073229e-01  8.726922e-01
     vertex  2.335997e-01 -2.226898e-01  8.726922e-01
   endloop
 endfacet
 facet normal  5.000000e-01  0.000000e+00  8.660254e-01
   outer loop
     vertex  2.370638e-01 -2.073229e-01  8.706922e-01
     vertex  2.335997e-01 -2.226898e-01  8.726922e-01
     vertex  2.370638e-01 -2.226898e-01  8.706922e-01
   endloop
 endfacet
 facet normal  1.000000e+00  0.000000e+00  0.000000e+00
   outer loop
     vertex  2.370638e-01 -2.073229e-01  8.666922e-01
     vertex  2.370638e-01 -2.226898e-01  8.706922e-01
     vertex  2.370638e-01 -2.226898e-01  8.666922e-01
   endloop
 endfacet
 facet normal  1.000000e+00  0.000000e+00 -0.000000e+00
   outer loop
     vertex  2.370638e-01 -2.073229e-01  8.666922e-01
     vertex  2.370638e-01 -2.073229e-01  8.706922e-01
     vertex  2.370638e-01 -2.226898e-01  8.706922e-01
   endloop
 endfacet
 facet normal  5.000000e-01  0.000000e+00 -8.660254e-01
   outer loop
     vertex  2.335997e-01 -2.073229e-01  8.646922e-01
     vertex  2.370638e-01 -2.226898e-01  8.666922e-01
     vertex  2.335997e-01 -2.226898e-01  8.646922e-01
   endloop
 endfacet
 facet normal  5.000000e-01  0.000000e+00 -8.660254e-01
   outer loop
     vertex  2.335997e-01 -2.073229e-01  8.646922e-01
     vertex  2.370638e-01 -2.073229e-01  8.666922e-01
     vertex  2.370638e-01 -2.226898e-01  8.666922e-01
   endloop
 endfacet
 facet normal -5.000000e-01 -0.000000e+00 -8.660254e-01
   outer loop
     vertex  2.301356e-01 -2.073229e-01  8.666922e-01
     vertex  2.335997e-01 -2.226898e-01  8.646922e-01
     vertex  2.301356e-01 -2.226898e-01  8.666922e-01
   endloop
 endfacet
 facet normal -5.000000e-01  0.000000e+00 -8.660254e-01
   outer loop
     vertex  2.301356e-01 -2.073229e-01  8.666922e-01
     vertex  2.335997e-01 -2.073229e-01  8.646922e-01
     vertex  2.335997e-01 -2.226898e-01  8.646922e-01
   endloop
 endfacet
 facet normal -1.000000e+00 -0.000000e+00  0.000000e+00
   outer loop
     vertex  2.301356e-01 -2.073229e-01  8.706922e-01
     vertex  2.301356e-01 -2.226898e-01  8.666922e-01
     vertex  2.301356e-01 -2.226898e-01  8.706922e-01
   endloop
 endfacet
 facet normal -1.000000e+00  0.000000e+00 -0.000000e+00
   outer loop
     vertex  2.301356e-01 -2.073229e-01  8.706922e-01
     vertex  2.301356e-01 -2.073229e-01  8.666922e-01
     vertex  2.301356e-01 -2.226898e-01  8.666922e-01
   endloop
 endfacet
 facet normal -5.000000e-01  0.000000e+00  8.660254e-01
   outer loop
     vertex  2.335997e-01 -2.073229e-01  8.726922e-01
     vertex  2.301356e-01 -2.226898e-01  8.706922e-01
     vertex  2.335997e-01 -2.226898e-01  8.726922e-01
   endloop
 endfacet
 facet normal -5.000000e-01  0.000000e+00  8.660254e-01
   outer loop
     vertex  2.335997e-01 -2.073229e-01  8.726922e-01
     vertex  2.301356e-01 -2.073229e-01  8.706922e-01
     vertex  2.301356e-01 -2.226898e-01  8.706922e-01
   endloop
 endfacet
 facet normal  4.472136e-01  4.472136e-01 -7.745967e-01
   outer loop
     vertex  2.374968e-01 -2.235559e-01  8.664422e-01
     vertex  2.335997e-01 -2.235559e-01  8.641922e-01
     vertex  2.335997e-01 -2.226898e-01  8.646922e-01
   endloop
 endfacet
 facet normal  4.472136e-01  4.472136e-01 -7.745967e-01
   outer loop
     vertex  2.374968e-01 -2.235559e-01  8.664422e-01
     vertex  2.335997e-01 -2.226898e-01  8.646922e-01
     vertex  2.370638e-01 -2.226898e-01  8.666922e-01
   endloop
 endfacet
 facet normal  8.944272e-01  4.472136e-01  0.000000e+00
   outer loop
     vertex  2.374968e-01 -2.235559e-01  8.709422e-01
     vertex  2.370638e-01 -2.226898e-01  8.666922e-01
     vertex  2.370638e-01 -2.226898e-01  8.706922e-01
   endloop
 endfacet
 facet normal  8.944272e-01  4.472136e-01  0.000000e+00
   outer loop
     vertex  2.374968e-01 -2.235559e-01  8.709422e-01
     vertex  2.374968e-01 -2.235559e-01  8.664422e-01
     vertex  2.370638e-01 -2.226898e-01  8.666922e-01
   endloop
 endfacet
 facet normal  4.472136e-01  4.472136e-01  7.745967e-01
   outer loop
     vertex  2.335997e-01 -2.235559e-01  8.731922e-01
     vertex  2.370638e-01 -2.226898e-01  8.706922e-01
     vertex  2.335997e-01 -2.226898e-01  8.726922e-01
   endloop
 endfacet
 facet normal  4.472136e-01  4.472136e-01  7.745967e-01
   outer loop
     vertex  2.335997e-01 -2.235559e-01  8.731922e-01
     vertex  2.374968e-01 -2.235559e-01  8.709422e-01
     vertex  2.370638e-01 -2.226898e-01  8.706922e-01
   endloop
 endfacet
 facet normal -4.472136e-01  4.472136e-01  7.745967e-01
   outer loop
     vertex  2.297026e-01 -2.235559e-01  8.709422e-01
     vertex  2.335997e-01 -2.226898e-01  8.726922e-01
     vertex  2.301356e-01 -2.226898e-01  8.706922e-01
   endloop
 endfacet
 facet normal -4.472136e-01  4.472136e-01  7.745967e-01
   outer loop
     vertex  2.297026e-01 -2.235559e-01  8.709422e-01
     vertex  2.335997e-01 -2.235559e-01  8.731922e-01
     vertex  2.335997e-01 -2.226898e-01  8.726922e-01
   endloop
 endfacet
 facet normal -8.944272e-01  4.472136e-01  0.000000e+00
   outer loop
     vertex  2.297026e-01 -2.235559e-01  8.664422e-01
     vertex  2.301356e-01 -2.226898e-01  8.706922e-01
     vertex  2.301356e-01 -2.226898e-01  8.666922e-01
   endloop
 endfacet
 facet normal -8.944272e-01  4.472136e-01  0.000000e+00
   outer loop
     vertex  2.297026e-01 -2.235559e-01  8.664422e-01
     vertex  2.297026e-01 -2.235559e-01  8.709422e-01
     vertex  2.301356e-01 -2.226898e-01  8.706922e-01
   endloop
 endfacet
 facet normal -4.472136e-01  4.472136e-01 -7.745967e-01
   outer loop
     vertex  2.335997e-01 -2.235559e-01  8.641922e-01
     vertex  2.301356e-01 -2.226898e-01  8.666922e-01
     vertex  2.335997e-01 -2.226898e-01  8.646922e-01
   endloop
 endfacet
 facet normal -4.472136e-01  4.472136e-01 -7.745967e-01
   outer loop
     vertex  2.335997e-01 -2.235559e-01  8.641922e-01
     vertex  2.297026e-01 -2.235559e-01  8.664422e-01
     vertex  2.301356e-01 -2.226898e-01  8.666922e-01
   endloop
 endfacet
 facet normal  5.000000e-01  0.000000e+00  8.660254e-01
   outer loop
     vertex  2.374968e-01 -2.235559e-01  8.709422e-01
     vertex  2.335997e-01 -2.235559e-01  8.731922e-01
     vertex  2.335997e-01 -2.350434e-01  8.731922e-01
   endloop
 endfacet
 facet normal  7.035003e-01 -1.008701e-01  7.035003e-01
   outer loop
     vertex  2.374968e-01 -2.235559e-01  8.709422e-01
     vertex  2.335997e-01 -2.350434e-01  8.731922e-01
     vertex  2.380997e-01 -2.350434e-01  8.686922e-01
   endloop
 endfacet
 facet normal  7.035003e-01 -1.008701e-01 -7.035003e-01
   outer loop
     vertex  2.374968e-01 -2.235559e-01  8.664422e-01
     vertex  2.380997e-01 -2.350434e-01  8.686922e-01
     vertex  2.335997e-01 -2.350434e-01  8.641922e-01
   endloop
 endfacet
 facet normal  9.986257e-01  5.240976e-02 -0.000000e+00
   outer loop
     vertex  2.374968e-01 -2.235559e-01  8.664422e-01
     vertex  2.374968e-01 -2.235559e-01  8.709422e-01
     vertex  2.380997e-01 -2.350434e-01  8.686922e-01
   endloop
 endfacet
 facet normal  5.000000e-01  0.000000e+00 -8.660254e-01
   outer loop
     vertex  2.335997e-01 -2.235559e-01  8.641922e-01
     vertex  2.374968e-01 -2.235559e-01  8.664422e-01
     vertex  2.335997e-01 -2.350434e-01  8.641922e-01
   endloop
 endfacet
 facet normal -7.035003e-01 -1.008701e-01 -7.035003e-01
   outer loop
     vertex  2.297026e-01 -2.235559e-01  8.664422e-01
     vertex  2.335997e-01 -2.350434e-01  8.641922e-01
     vertex  2.290997e-01 -2.350434e-01  8.686922e-01
   endloop
 endfacet
 facet normal -5.000000e-01  0.000000e+00 -8.660254e-01
   outer loop
     vertex  2.297026e-01 -2.235559e-01  8.664422e-01
     vertex  2.335997e-01 -2.235559e-01  8.641922e-01
     vertex  2.335997e-01 -2.350434e-01  8.641922e-01
   endloop
 endfacet
 facet normal -7.035003e-01 -1.008701e-01  7.035003e-01
   outer loop
     vertex  2.297026e-01 -2.235559e-01  8.709422e-01
     vertex  2.290997e-01 -2.350434e-01  8.686922e-01
     vertex  2.335997e-01 -2.350434e-01  8.731922e-01
   endloop
 endfacet
 facet normal -9.986257e-01  5.240976e-02  0.000000e+00
   outer loop
     vertex  2.297026e-01 -2.235559e-01  8.709422e-01
     vertex  2.297026e-01 -2.235559e-01  8.664422e-01
     vertex  2.290997e-01 -2.350434e-01  8.686922e-01
   endloop
 endfacet
 facet normal -5.000000e-01  0.000000e+00  8.660254e-01
   outer loop
     vertex  2.335997e-01 -2.235559e-01  8.731922e-01
     vertex  2.297026e-01 -2.235559e-01  8.709422e-01
     vertex  2.335997e-01 -2.350434e-01  8.731922e-01
   endloop
 endfacet
 facet normal  6.546537e-01 -3.779645e-01  6.546537e-01
   outer loop
     vertex  2.380997e-01 -2.350434e-01  8.686922e-01
     vertex  2.335997e-01 -2.350434e-01  8.731922e-01
     vertex  2.335997e-01 -2.357362e-01  8.727922e-01
   endloop
 endfacet
 facet normal  6.546537e-01 -3.779645e-01  6.546537e-01
   outer loop
     vertex  2.380997e-01 -2.350434e-01  8.686922e-01
     vertex  2.335997e-01 -2.357362e-01  8.727922e-01
     vertex  2.376997e-01 -2.357362e-01  8.686922e-01
   endloop
 endfacet
 facet normal  6.546537e-01 -3.779645e-01 -6.546537e-01
   outer loop
     vertex  2.335997e-01 -2.350434e-01  8.641922e-01
     vertex  2.376997e-01 -2.357362e-01  8.686922e-01
     vertex  2.335997e-01 -2.357362e-01  8.645922e-01
   endloop
 endfacet
 facet normal  6.546537e-01 -3.779645e-01 -6.546537e-01
   outer loop
     vertex  2.335997e-01 -2.350434e-01  8.641922e-01
     vertex  2.380997e-01 -2.350434e-01  8.686922e-01
     vertex  2.376997e-01 -2.357362e-01  8.686922e-01
   endloop
 endfacet
 facet normal -6.546537e-01 -3.779645e-01 -6.546537e-01
   outer loop
     vertex  2.290997e-01 -2.350434e-01  8.686922e-01
     vertex  2.335997e-01 -2.357362e-01  8.645922e-01
     vertex  2.294997e-01 -2.357362e-01  8.686922e-01
   endloop
 endfacet
 facet normal -6.546537e-01 -3.779645e-01 -6.546537e-01
   outer loop
     vertex  2.290997e-01 -2.350434e-01  8.686922e-01
     vertex  2.335997e-01 -2.350434e-01  8.641922e-01
     vertex  2.335997e-01 -2.357362e-01  8.645922e-01
   endloop
 endfacet
 facet normal -6.546537e-01 -3.779645e-01  6.546537e-01
   outer loop
     vertex  2.335997e-01 -2.350434e-01  8.731922e-01
     vertex  2.294997e-01 -2.357362e-01  8.686922e-01
     vertex  2.335997e-01 -2.357362e-01  8.727922e-01
   endloop
 endfacet
 facet normal -6.546537e-01 -3.779645e-01  6.546537e-01
   outer loop
     vertex  2.335997e-01 -2.350434e-01  8.731922e-01
     vertex  2.290997e-01 -2.350434e-01  8.686922e-01
     vertex  2.294997e-01 -2.357362e-01  8.686922e-01
   endloop
 endfacet
 facet normal  7.001159e-01 -1.402688e-01  7.001159e-01
   outer loop
     vertex  2.376306e-01 -2.360815e-01  8.686922e-01
     vertex  2.335997e-01 -2.357362e-01  8.727922e-01
     vertex  2.335997e-01 -2.360815e-01  8.727231e-01
   endloop
 endfacet
 facet normal  7.001159e-01 -1.402688e-01  7.001159e-01
   outer loop
     vertex  2.376306e-01 -2.360815e-01  8.686922e-01
     vertex  2.376997e-01 -2.357362e-01  8.686922e-01
     vertex  2.335997e-01 -2.357362e-01  8.727922e-01
   endloop
 endfacet
 facet normal  4.092133e-01  8.155298e-01  4.092133e-01
   outer loop
     vertex  2.377850e-01 -2.363979e-01  8.686922e-01
     vertex  2.335997e-01 -2.365559e-01  8.731922e-01
     vertex  2.380997e-01 -2.365559e-01  8.686922e-01
   endloop
 endfacet
 facet normal  6.684307e-01  3.261912e-01  6.684307e-01
   outer loop
     vertex  2.377850e-01 -2.363979e-01  8.686922e-01
     vertex  2.335997e-01 -2.360815e-01  8.727231e-01
     vertex  2.335997e-01 -2.363979e-01  8.728775e-01
   endloop
 endfacet
 facet normal  4.092133e-01  8.155298e-01  4.092133e-01
   outer loop
     vertex  2.377850e-01 -2.363979e-01  8.686922e-01
     vertex  2.335997e-01 -2.363979e-01  8.728775e-01
     vertex  2.335997e-01 -2.365559e-01  8.731922e-01
   endloop
 endfacet
 facet normal  6.684307e-01  3.261912e-01  6.684307e-01
   outer loop
     vertex  2.377850e-01 -2.363979e-01  8.686922e-01
     vertex  2.376306e-01 -2.360815e-01  8.686922e-01
     vertex  2.335997e-01 -2.360815e-01  8.727231e-01
   endloop
 endfacet
 facet normal  7.001159e-01 -1.402688e-01 -7.001159e-01
   outer loop
     vertex  2.335997e-01 -2.360815e-01  8.646614e-01
     vertex  2.335997e-01 -2.357362e-01  8.645922e-01
     vertex  2.376997e-01 -2.357362e-01  8.686922e-01
   endloop
 endfacet
 facet normal  7.001159e-01 -1.402688e-01 -7.001159e-01
   outer loop
     vertex  2.335997e-01 -2.360815e-01  8.646614e-01
     vertex  2.376997e-01 -2.357362e-01  8.686922e-01
     vertex  2.376306e-01 -2.360815e-01  8.686922e-01
   endloop
 endfacet
 facet normal  4.092133e-01  8.155298e-01 -4.092133e-01
   outer loop
     vertex  2.335997e-01 -2.363979e-01  8.645070e-01
     vertex  2.380997e-01 -2.365559e-01  8.686922e-01
     vertex  2.335997e-01 -2.365559e-01  8.641922e-01
   endloop
 endfacet
 facet normal  6.684307e-01  3.261912e-01 -6.684307e-01
   outer loop
     vertex  2.335997e-01 -2.363979e-01  8.645070e-01
     vertex  2.376306e-01 -2.360815e-01  8.686922e-01
     vertex  2.377850e-01 -2.363979e-01  8.686922e-01
   endloop
 endfacet
 facet normal  4.092133e-01  8.155298e-01 -4.092133e-01
   outer loop
     vertex  2.335997e-01 -2.363979e-01  8.645070e-01
     vertex  2.377850e-01 -2.363979e-01  8.686922e-01
     vertex  2.380997e-01 -2.365559e-01  8.686922e-01
   endloop
 endfacet
 facet normal  6.684307e-01  3.261912e-01 -6.684307e-01
   outer loop
     vertex  2.335997e-01 -2.363979e-01  8.645070e-01
     vertex  2.335997e-01 -2.360815e-01  8.646614e-01
     vertex  2.376306e-01 -2.360815e-01  8.686922e-01
   endloop
 endfacet
 facet normal -7.001159e-01 -1.402688e-01  7.001159e-01
   outer loop
     vertex  2.295689e-01 -2.360815e-01  8.686922e-01
     vertex  2.335997e-01 -2.360815e-01  8.727231e-01
     vertex  2.335997e-01 -2.357362e-01  8.727922e-01
   endloop
 endfacet
 facet normal -7.001159e-01 -1.402688e-01 -7.001159e-01
   outer loop
     vertex  2.295689e-01 -2.360815e-01  8.686922e-01
     vertex  2.294997e-01 -2.357362e-01  8.686922e-01
     vertex  2.335997e-01 -2.357362e-01  8.645922e-01
   endloop
 endfacet
 facet normal -7.001159e-01 -1.402688e-01  7.001159e-01
   outer loop
     vertex  2.295689e-01 -2.360815e-01  8.686922e-01
     vertex  2.335997e-01 -2.357362e-01  8.727922e-01
     vertex  2.294997e-01 -2.357362e-01  8.686922e-01
   endloop
 endfacet
 facet normal -7.001159e-01 -1.402688e-01 -7.001159e-01
   outer loop
     vertex  2.295689e-01 -2.360815e-01  8.686922e-01
     vertex  2.335997e-01 -2.357362e-01  8.645922e-01
     vertex  2.335997e-01 -2.360815e-01  8.646614e-01
   endloop
 endfacet
 facet normal -6.684307e-01  3.261912e-01  6.684307e-01
   outer loop
     vertex  2.294145e-01 -2.363979e-01  8.686922e-01
     vertex  2.335997e-01 -2.363979e-01  8.728775e-01
     vertex  2.335997e-01 -2.360815e-01  8.727231e-01
   endloop
 endfacet
 facet normal -4.092133e-01  8.155298e-01  4.092133e-01
   outer loop
     vertex  2.294145e-01 -2.363979e-01  8.686922e-01
     vertex  2.335997e-01 -2.365559e-01  8.731922e-01
     vertex  2.335997e-01 -2.363979e-01  8.728775e-01
   endloop
 endfacet
 facet normal -4.092133e-01  8.155298e-01 -4.092133e-01
   outer loop
     vertex  2.294145e-01 -2.363979e-01  8.686922e-01
     vertex  2.335997e-01 -2.365559e-01  8.641922e-01
     vertex  2.290997e-01 -2.365559e-01  8.686922e-01
   endloop
 endfacet
 facet normal -4.092133e-01  8.155298e-01  4.092133e-01
   outer loop
     vertex  2.294145e-01 -2.363979e-01  8.686922e-01
     vertex  2.290997e-01 -2.365559e-01  8.686922e-01
     vertex  2.335997e-01 -2.365559e-01  8.731922e-01
   endloop
 endfacet
 facet normal -6.684307e-01  3.261912e-01  6.684307e-01
   outer loop
     vertex  2.294145e-01 -2.363979e-01  8.686922e-01
     vertex  2.335997e-01 -2.360815e-01  8.727231e-01
     vertex  2.295689e-01 -2.360815e-01  8.686922e-01
   endloop
 endfacet
 facet normal -4.092133e-01  8.155298e-01 -4.092133e-01
   outer loop
     vertex  2.294145e-01 -2.363979e-01  8.686922e-01
     vertex  2.335997e-01 -2.363979e-01  8.645070e-01
     vertex  2.335997e-01 -2.365559e-01  8.641922e-01
   endloop
 endfacet
 facet normal -6.684307e-01  3.261912e-01 -6.684307e-01
   outer loop
     vertex  2.294145e-01 -2.363979e-01  8.686922e-01
     vertex  2.295689e-01 -2.360815e-01  8.686922e-01
     vertex  2.335997e-01 -2.360815e-01  8.646614e-01
   endloop
 endfacet
 facet normal -6.684307e-01  3.261912e-01 -6.684307e-01
   outer loop
     vertex  2.294145e-01 -2.363979e-01  8.686922e-01
     vertex  2.335997e-01 -2.360815e-01  8.646614e-01
     vertex  2.335997e-01 -2.363979e-01  8.645070e-01
   endloop
 endfacet
 facet normal -0.000000e+00  1.000000e+00  0.000000e+00
   outer loop
     vertex  2.335997e-01 -2.365559e-01  8.731922e-01
     vertex  2.335997e-01 -2.365559e-01  8.761978e-01
     vertex  2.400997e-01 -2.365559e-01  8.724450e-01
   endloop
 endfacet
 facet normal  0.000000e+00  1.000000e+00  0.000000e+00
   outer loop
     vertex  2.335997e-01 -2.365559e-01  8.731922e-01
     vertex  2.400997e-01 -2.365559e-01  8.724450e-01
     vertex  2.380997e-01 -2.365559e-01  8.686922e-01
   endloop
 endfacet
 facet normal  0.000000e+00  1.000000e+00 -0.000000e+00
   outer loop
     vertex  2.400997e-01 -2.365559e-01  8.649395e-01
     vertex  2.380997e-01 -2.365559e-01  8.686922e-01
     vertex  2.400997e-01 -2.365559e-01  8.724450e-01
   endloop
 endfacet
 facet normal  0.000000e+00  1.000000e+00  0.000000e+00
   outer loop
     vertex  2.270997e-01 -2.365559e-01  8.724450e-01
     vertex  2.335997e-01 -2.365559e-01  8.761978e-01
     vertex  2.335997e-01 -2.365559e-01  8.731922e-01
   endloop
 endfacet
 facet normal  0.000000e+00  1.000000e+00  0.000000e+00
   outer loop
     vertex  2.335997e-01 -2.365559e-01  8.641922e-01
     vertex  2.380997e-01 -2.365559e-01  8.686922e-01
     vertex  2.400997e-01 -2.365559e-01  8.649395e-01
   endloop
 endfacet
 facet normal  0.000000e+00  1.000000e+00 -0.000000e+00
   outer loop
     vertex  2.290997e-01 -2.365559e-01  8.686922e-01
     vertex  2.270997e-01 -2.365559e-01  8.724450e-01
     vertex  2.335997e-01 -2.365559e-01  8.731922e-01
   endloop
 endfacet
 facet normal  0.000000e+00  1.000000e+00  0.000000e+00
   outer loop
     vertex  2.335997e-01 -2.365559e-01  8.611867e-01
     vertex  2.335997e-01 -2.365559e-01  8.641922e-01
     vertex  2.400997e-01 -2.365559e-01  8.649395e-01
   endloop
 endfacet
 facet normal -0.000000e+00  1.000000e+00  0.000000e+00
   outer loop
     vertex  2.270997e-01 -2.365559e-01  8.649395e-01
     vertex  2.290997e-01 -2.365559e-01  8.686922e-01
     vertex  2.335997e-01 -2.365559e-01  8.641922e-01
   endloop
 endfacet
 facet normal  0.000000e+00  1.000000e+00  0.000000e+00
   outer loop
     vertex  2.270997e-01 -2.365559e-01  8.649395e-01
     vertex  2.335997e-01 -2.365559e-01  8.641922e-01
     vertex  2.335997e-01 -2.365559e-01  8.611867e-01
   endloop
 endfacet
 facet normal  0.000000e+00  1.000000e+00  0.000000e+00
   outer loop
     vertex  2.270997e-01 -2.365559e-01  8.649395e-01
     vertex  2.270997e-01 -2.365559e-01  8.724450e-01
     vertex  2.290997e-01 -2.365559e-01  8.686922e-01
   endloop
 endfacet
 facet normal  1.000000e+00  0.000000e+00  0.000000e+00
   outer loop
     vertex  2.400997e-01 -2.365559e-01  8.649395e-01
     vertex  2.400997e-01 -2.418559e-01  8.686922e-01
     vertex  2.400997e-01 -2.412753e-01  8.649395e-01
   endloop
 endfacet
 facet normal  1.000000e+00  0.000000e+00  0.000000e+00
   outer loop
     vertex  2.400997e-01 -2.365559e-01  8.724450e-01
     vertex  2.400997e-01 -2.412753e-01  8.724450e-01
     vertex  2.400997e-01 -2.418559e-01  8.686922e-01
   endloop
 endfacet
 facet normal  1.000000e+00  0.000000e+00  0.000000e+00
   outer loop
     vertex  2.400997e-01 -2.365559e-01  8.724450e-01
     vertex  2.400997e-01 -2.418559e-01  8.686922e-01
     vertex  2.400997e-01 -2.365559e-01  8.649395e-01
   endloop
 endfacet
 facet normal  5.000000e-01  0.000000e+00 -8.660254e-01
   outer loop
     vertex  2.335997e-01 -2.365559e-01  8.611867e-01
     vertex  2.368497e-01 -2.418559e-01  8.630631e-01
     vertex  2.335997e-01 -2.412753e-01  8.611867e-01
   endloop
 endfacet
 facet normal  5.000000e-01  0.000000e+00 -8.660254e-01
   outer loop
     vertex  2.400997e-01 -2.365559e-01  8.649395e-01
     vertex  2.400997e-01 -2.412753e-01  8.649395e-01
     vertex  2.368497e-01 -2.418559e-01  8.630631e-01
   endloop
 endfacet
 facet normal  5.000000e-01  0.000000e+00 -8.660254e-01
   outer loop
     vertex  2.400997e-01 -2.365559e-01  8.649395e-01
     vertex  2.368497e-01 -2.418559e-01  8.630631e-01
     vertex  2.335997e-01 -2.365559e-01  8.611867e-01
   endloop
 endfacet
 facet normal -5.000000e-01 -0.000000e+00 -8.660254e-01
   outer loop
     vertex  2.270997e-01 -2.365559e-01  8.649395e-01
     vertex  2.303497e-01 -2.418559e-01  8.630631e-01
     vertex  2.270997e-01 -2.412753e-01  8.649395e-01
   endloop
 endfacet
 facet normal -5.000000e-01 -0.000000e+00 -8.660254e-01
   outer loop
     vertex  2.335997e-01 -2.365559e-01  8.611867e-01
     vertex  2.335997e-01 -2.412753e-01  8.611867e-01
     vertex  2.303497e-01 -2.418559e-01  8.630631e-01
   endloop
 endfacet
 facet normal -5.000000e-01 -1.340665e-12 -8.660254e-01
   outer loop
     vertex  2.335997e-01 -2.365559e-01  8.611867e-01
     vertex  2.303497e-01 -2.418559e-01  8.630631e-01
     vertex  2.270997e-01 -2.365559e-01  8.649395e-01
   endloop
 endfacet
 facet normal -1.000000e+00 -0.000000e+00  0.000000e+00
   outer loop
     vertex  2.270997e-01 -2.365559e-01  8.724450e-01
     vertex  2.270997e-01 -2.418559e-01  8.686922e-01
     vertex  2.270997e-01 -2.412753e-01  8.724450e-01
   endloop
 endfacet
 facet normal -1.000000e+00  0.000000e+00  0.000000e+00
   outer loop
     vertex  2.270997e-01 -2.365559e-01  8.649395e-01
     vertex  2.270997e-01 -2.412753e-01  8.649395e-01
     vertex  2.270997e-01 -2.418559e-01  8.686922e-01
   endloop
 endfacet
 facet normal -1.000000e+00  0.000000e+00  0.000000e+00
   outer loop
     vertex  2.270997e-01 -2.365559e-01  8.649395e-01
     vertex  2.270997e-01 -2.418559e-01  8.686922e-01
     vertex  2.270997e-01 -2.365559e-01  8.724450e-01
   endloop
 endfacet
 facet normal -5.000000e-01  0.000000e+00  8.660254e-01
   outer loop
     vertex  2.335997e-01 -2.365559e-01  8.761978e-01
     vertex  2.303497e-01 -2.418559e-01  8.743214e-01
     vertex  2.335997e-01 -2.412753e-01  8.761978e-01
   endloop
 endfacet
 facet normal -5.000000e-01  0.000000e+00  8.660254e-01
   outer loop
     vertex  2.270997e-01 -2.365559e-01  8.724450e-01
     vertex  2.270997e-01 -2.412753e-01  8.724450e-01
     vertex  2.303497e-01 -2.418559e-01  8.743214e-01
   endloop
 endfacet
 facet normal -5.000000e-01 -1.340622e-12  8.660254e-01
   outer loop
     vertex  2.270997e-01 -2.365559e-01  8.724450e-01
     vertex  2.303497e-01 -2.418559e-01  8.743214e-01
     vertex  2.335997e-01 -2.365559e-01  8.761978e-01
   endloop
 endfacet
 facet normal  5.000000e-01  0.000000e+00  8.660254e-01
   outer loop
     vertex  2.400997e-01 -2.365559e-01  8.724450e-01
     vertex  2.368497e-01 -2.418559e-01  8.743214e-01
     vertex  2.400997e-01 -2.412753e-01  8.724450e-01
   endloop
 endfacet
 facet normal  5.000000e-01  0.000000e+00  8.660254e-01
   outer loop
     vertex  2.335997e-01 -2.365559e-01  8.761978e-01
     vertex  2.335997e-01 -2.412753e-01  8.761978e-01
     vertex  2.368497e-01 -2.418559e-01  8.743214e-01
   endloop
 endfacet
 facet normal  5.000000e-01  0.000000e+00  8.660254e-01
   outer loop
     vertex  2.335997e-01 -2.365559e-01  8.761978e-01
     vertex  2.368497e-01 -2.418559e-01  8.743214e-01
     vertex  2.400997e-01 -2.365559e-01  8.724450e-01
   endloop
 endfacet
 facet normal -2.275104e-01 -7.466688e-01  6.250797e-01
   outer loop
     vertex  2.335997e-01 -2.412753e-01  8.761978e-01
     vertex  2.303497e-01 -2.418559e-01  8.743214e-01
     vertex  2.324710e-01 -2.418559e-01  8.750935e-01
   endloop
 endfacet
 facet normal  0.000000e+00 -8.851347e-01  4.653349e-01
   outer loop
     vertex  2.347284e-01 -2.418559e-01  8.750935e-01
     vertex  2.335997e-01 -2.412753e-01  8.761978e-01
     vertex  2.324710e-01 -2.418559e-01  8.750935e-01
   endloop
 endfacet
 facet normal  2.275104e-01 -7.466688e-01  6.250797e-01
   outer loop
     vertex  2.368497e-01 -2.418559e-01  8.743214e-01
     vertex  2.335997e-01 -2.412753e-01  8.761978e-01
     vertex  2.347284e-01 -2.418559e-01  8.750935e-01
   endloop
 endfacet
 facet normal  6.550901e-01 -7.466688e-01 -1.155101e-01
   outer loop
     vertex  2.400997e-01 -2.412753e-01  8.649395e-01
     vertex  2.400997e-01 -2.418559e-01  8.686922e-01
     vertex  2.397077e-01 -2.418559e-01  8.664691e-01
   endloop
 endfacet
 facet normal  4.029918e-01 -8.851347e-01 -2.326675e-01
   outer loop
     vertex  2.385790e-01 -2.418559e-01  8.645141e-01
     vertex  2.400997e-01 -2.412753e-01  8.649395e-01
     vertex  2.397077e-01 -2.418559e-01  8.664691e-01
   endloop
 endfacet
 facet normal  4.275797e-01 -7.466688e-01 -5.095697e-01
   outer loop
     vertex  2.368497e-01 -2.418559e-01  8.630631e-01
     vertex  2.400997e-01 -2.412753e-01  8.649395e-01
     vertex  2.385790e-01 -2.418559e-01  8.645141e-01
   endloop
 endfacet
 facet normal  4.275797e-01 -7.466688e-01  5.095697e-01
   outer loop
     vertex  2.400997e-01 -2.412753e-01  8.724450e-01
     vertex  2.368497e-01 -2.418559e-01  8.743214e-01
     vertex  2.385790e-01 -2.418559e-01  8.728704e-01
   endloop
 endfacet
 facet normal  4.029918e-01 -8.851347e-01  2.326675e-01
   outer loop
     vertex  2.397077e-01 -2.418559e-01  8.709154e-01
     vertex  2.400997e-01 -2.412753e-01  8.724450e-01
     vertex  2.385790e-01 -2.418559e-01  8.728704e-01
   endloop
 endfacet
 facet normal  6.550901e-01 -7.466688e-01  1.155101e-01
   outer loop
     vertex  2.400997e-01 -2.418559e-01  8.686922e-01
     vertex  2.400997e-01 -2.412753e-01  8.724450e-01
     vertex  2.397077e-01 -2.418559e-01  8.709154e-01
   endloop
 endfacet
 facet normal -6.550901e-01 -7.466688e-01  1.155101e-01
   outer loop
     vertex  2.270997e-01 -2.412753e-01  8.724450e-01
     vertex  2.270997e-01 -2.418559e-01  8.686922e-01
     vertex  2.274917e-01 -2.418559e-01  8.709154e-01
   endloop
 endfacet
 facet normal -4.029918e-01 -8.851347e-01  2.326675e-01
   outer loop
     vertex  2.286204e-01 -2.418559e-01  8.728704e-01
     vertex  2.270997e-01 -2.412753e-01  8.724450e-01
     vertex  2.274917e-01 -2.418559e-01  8.709154e-01
   endloop
 endfacet
 facet normal -4.275797e-01 -7.466688e-01  5.095697e-01
   outer loop
     vertex  2.303497e-01 -2.418559e-01  8.743214e-01
     vertex  2.270997e-01 -2.412753e-01  8.724450e-01
     vertex  2.286204e-01 -2.418559e-01  8.728704e-01
   endloop
 endfacet
 facet normal -4.275797e-01 -7.466688e-01 -5.095697e-01
   outer loop
     vertex  2.270997e-01 -2.412753e-01  8.649395e-01
     vertex  2.303497e-01 -2.418559e-01  8.630631e-01
     vertex  2.286204e-01 -2.418559e-01  8.645141e-01
   endloop
 endfacet
 facet normal -4.029918e-01 -8.851347e-01 -2.326675e-01
   outer loop
     vertex  2.274917e-01 -2.418559e-01  8.664691e-01
     vertex  2.270997e-01 -2.412753e-01  8.649395e-01
     vertex  2.286204e-01 -2.418559e-01  8.645141e-01
   endloop
 endfacet
 facet normal -6.550901e-01 -7.466688e-01 -1.155101e-01
   outer loop
     vertex  2.270997e-01 -2.418559e-01  8.686922e-01
     vertex  2.270997e-01 -2.412753e-01  8.649395e-01
     vertex  2.274917e-01 -2.418559e-01  8.664691e-01
   endloop
 endfacet
 facet normal  2.275104e-01 -7.466688e-01 -6.250797e-01
   outer loop
     vertex  2.335997e-01 -2.412753e-01  8.611867e-01
     vertex  2.368497e-01 -2.418559e-01  8.630631e-01
     vertex  2.347284e-01 -2.418559e-01  8.622910e-01
   endloop
 endfacet
 facet normal  0.000000e+00 -8.851347e-01 -4.653349e-01
   outer loop
     vertex  2.324710e-01 -2.418559e-01  8.622910e-01
     vertex  2.335997e-01 -2.412753e-01  8.611867e-01
     vertex  2.347284e-01 -2.418559e-01  8.622910e-01
   endloop
 endfacet
 facet normal -2.275104e-01 -7.466688e-01 -6.250797e-01
   outer loop
     vertex  2.303497e-01 -2.418559e-01  8.630631e-01
     vertex  2.335997e-01 -2.412753e-01  8.611867e-01
     vertex  2.324710e-01 -2.418559e-01  8.622910e-01
   endloop
 endfacet
 facet normal  0.000000e+00 -1.000000e+00  0.000000e+00
   outer loop
     vertex  2.335997e-01 -2.418559e-01  8.703922e-01
     vertex  2.385790e-01 -2.418559e-01  8.728704e-01
     vertex  2.368497e-01 -2.418559e-01  8.743214e-01
   endloop
 endfacet
 facet normal  0.000000e+00 -1.000000e+00  0.000000e+00
   outer loop
     vertex  2.335997e-01 -2.418559e-01  8.703922e-01
     vertex  2.368497e-01 -2.418559e-01  8.743214e-01
     vertex  2.347284e-01 -2.418559e-01  8.750935e-01
   endloop
 endfacet
 facet normal  0.000000e+00 -1.000000e+00  0.000000e+00
   outer loop
     vertex  2.335997e-01 -2.418559e-01  8.703922e-01
     vertex  2.347284e-01 -2.418559e-01  8.750935e-01
     vertex  2.324710e-01 -2.418559e-01  8.750935e-01
   endloop
 endfacet
 facet normal  0.000000e+00 -1.000000e+00  0.000000e+00
   outer loop
     vertex  2.335997e-01 -2.418559e-01  8.703922e-01
     vertex  2.324710e-01 -2.418559e-01  8.750935e-01
     vertex  2.303497e-01 -2.418559e-01  8.743214e-01
   endloop
 endfacet
 facet normal  0.000000e+00 -1.000000e+00  0.000000e+00
   outer loop
     vertex  2.352997e-01 -2.418559e-01  8.686922e-01
     vertex  2.397077e-01 -2.418559e-01  8.709154e-01
     vertex  2.385790e-01 -2.418559e-01  8.728704e-01
   endloop
 endfacet
 facet normal  0.000000e+00 -1.000000e+00  0.000000e+00
   outer loop
     vertex  2.352997e-01 -2.418559e-01  8.686922e-01
     vertex  2.400997e-01 -2.418559e-01  8.686922e-01
     vertex  2.397077e-01 -2.418559e-01  8.709154e-01
   endloop
 endfacet
 facet normal  0.000000e+00 -1.000000e+00  0.000000e+00
   outer loop
     vertex  2.352997e-01 -2.418559e-01  8.686922e-01
     vertex  2.397077e-01 -2.418559e-01  8.664691e-01
     vertex  2.400997e-01 -2.418559e-01  8.686922e-01
   endloop
 endfacet
 facet normal  0.000000e+00 -1.000000e+00  0.000000e+00
   outer loop
     vertex  2.352997e-01 -2.418559e-01  8.686922e-01
     vertex  2.385790e-01 -2.418559e-01  8.728704e-01
     vertex  2.335997e-01 -2.418559e-01  8.703922e-01
   endloop
 endfacet
 facet normal  0.000000e+00 -1.000000e+00  0.000000e+00
   outer loop
     vertex  2.385790e-01 -2.418559e-01  8.645141e-01
     vertex  2.397077e-01 -2.418559e-01  8.664691e-01
     vertex  2.352997e-01 -2.418559e-01  8.686922e-01
   endloop
 endfacet
 facet normal  0.000000e+00 -1.000000e+00  0.000000e+00
   outer loop
     vertex  2.286204e-01 -2.418559e-01  8.728704e-01
     vertex  2.335997e-01 -2.418559e-01  8.703922e-01
     vertex  2.303497e-01 -2.418559e-01  8.743214e-01
   endloop
 endfacet
 facet normal  0.000000e+00 -1.000000e+00  0.000000e+00
   outer loop
     vertex  2.318997e-01 -2.418559e-01  8.686922e-01
     vertex  2.335997e-01 -2.418559e-01  8.703922e-01
     vertex  2.286204e-01 -2.418559e-01  8.728704e-01
   endloop
 endfacet
 facet normal  0.000000e+00 -1.000000e+00  0.000000e+00
   outer loop
     vertex  2.335997e-01 -2.418559e-01  8.669922e-01
     vertex  2.385790e-01 -2.418559e-01  8.645141e-01
     vertex  2.352997e-01 -2.418559e-01  8.686922e-01
   endloop
 endfacet
 facet normal  0.000000e+00 -1.000000e+00  0.000000e+00
   outer loop
     vertex  2.368497e-01 -2.418559e-01  8.630631e-01
     vertex  2.385790e-01 -2.418559e-01  8.645141e-01
     vertex  2.335997e-01 -2.418559e-01  8.669922e-01
   endloop
 endfacet
 facet normal  0.000000e+00 -1.000000e+00  0.000000e+00
   outer loop
     vertex  2.274917e-01 -2.418559e-01  8.709154e-01
     vertex  2.318997e-01 -2.418559e-01  8.686922e-01
     vertex  2.286204e-01 -2.418559e-01  8.728704e-01
   endloop
 endfacet
 facet normal  0.000000e+00 -1.000000e+00  0.000000e+00
   outer loop
     vertex  2.347284e-01 -2.418559e-01  8.622910e-01
     vertex  2.368497e-01 -2.418559e-01  8.630631e-01
     vertex  2.335997e-01 -2.418559e-01  8.669922e-01
   endloop
 endfacet
 facet normal  0.000000e+00 -1.000000e+00  0.000000e+00
   outer loop
     vertex  2.270997e-01 -2.418559e-01  8.686922e-01
     vertex  2.318997e-01 -2.418559e-01  8.686922e-01
     vertex  2.274917e-01 -2.418559e-01  8.709154e-01
   endloop
 endfacet
 facet normal  0.000000e+00 -1.000000e+00  0.000000e+00
   outer loop
     vertex  2.324710e-01 -2.418559e-01  8.622910e-01
     vertex  2.347284e-01 -2.418559e-01  8.622910e-01
     vertex  2.335997e-01 -2.418559e-01  8.669922e-01
   endloop
 endfacet
 facet normal  0.000000e+00 -1.000000e+00  0.000000e+00
   outer loop
     vertex  2.274917e-01 -2.418559e-01  8.664691e-01
     vertex  2.318997e-01 -2.418559e-01  8.686922e-01
     vertex  2.270997e-01 -2.418559e-01  8.686922e-01
   endloop
 endfacet
 facet normal  0.000000e+00 -1.000000e+00  0.000000e+00
   outer loop
     vertex  2.303497e-01 -2.418559e-01  8.630631e-01
     vertex  2.324710e-01 -2.418559e-01  8.622910e-01
     vertex  2.335997e-01 -2.418559e-01  8.669922e-01
   endloop
 endfacet
 facet normal  0.000000e+00 -1.000000e+00  0.000000e+00
   outer loop
     vertex  2.286204e-01 -2.418559e-01  8.645141e-01
     vertex  2.335997e-01 -2.418559e-01  8.669922e-01
     vertex  2.318997e-01 -2.418559e-01  8.686922e-01
   endloop
 endfacet
 facet normal  0.000000e+00 -1.000000e+00  0.000000e+00
   outer loop
     vertex  2.286204e-01 -2.418559e-01  8.645141e-01
     vertex  2.303497e-01 -2.418559e-01  8.630631e-01
     vertex  2.335997e-01 -2.418559e-01  8.669922e-01
   endloop
 endfacet
 facet normal  0.000000e+00 -1.000000e+00  0.000000e+00
   outer loop
     vertex  2.286204e-01 -2.418559e-01  8.645141e-01
     vertex  2.318997e-01 -2.418559e-01  8.686922e-01
     vertex  2.274917e-01 -2.418559e-01  8.664691e-01
   endloop
 endfacet
 facet normal -5.280937e-01 -6.650069e-01  5.280937e-01
   outer loop
     vertex  2.352997e-01 -2.418559e-01  8.686922e-01
     vertex  2.335997e-01 -2.411809e-01  8.678422e-01
     vertex  2.335997e-01 -2.418559e-01  8.669922e-01
   endloop
 endfacet
 facet normal -5.280937e-01 -6.650069e-01  5.280937e-01
   outer loop
     vertex  2.352997e-01 -2.418559e-01  8.686922e-01
     vertex  2.344497e-01 -2.411809e-01  8.686922e-01
     vertex  2.335997e-01 -2.411809e-01  8.678422e-01
   endloop
 endfacet
 facet normal -5.280937e-01 -6.650069e-01 -5.280937e-01
   outer loop
     vertex  2.335997e-01 -2.418559e-01  8.703922e-01
     vertex  2.335997e-01 -2.411809e-01  8.695422e-01
     vertex  2.344497e-01 -2.411809e-01  8.686922e-01
   endloop
 endfacet
 facet normal -5.280937e-01 -6.650069e-01 -5.280937e-01
   outer loop
     vertex  2.335997e-01 -2.418559e-01  8.703922e-01
     vertex  2.344497e-01 -2.411809e-01  8.686922e-01
     vertex  2.352997e-01 -2.418559e-01  8.686922e-01
   endloop
 endfacet
 facet normal  5.280937e-01 -6.650069e-01 -5.280937e-01
   outer loop
     vertex  2.318997e-01 -2.418559e-01  8.686922e-01
     vertex  2.327497e-01 -2.411809e-01  8.686922e-01
     vertex  2.335997e-01 -2.411809e-01  8.695422e-01
   endloop
 endfacet
 facet normal  5.280937e-01 -6.650069e-01 -5.280937e-01
   outer loop
     vertex  2.318997e-01 -2.418559e-01  8.686922e-01
     vertex  2.335997e-01 -2.411809e-01  8.695422e-01
     vertex  2.335997e-01 -2.418559e-01  8.703922e-01
   endloop
 endfacet
 facet normal  5.280937e-01 -6.650069e-01  5.280937e-01
   outer loop
     vertex  2.335997e-01 -2.418559e-01  8.669922e-01
     vertex  2.335997e-01 -2.411809e-01  8.678422e-01
     vertex  2.327497e-01 -2.411809e-01  8.686922e-01
   endloop
 endfacet
 facet normal  5.280937e-01 -6.650069e-01  5.280937e-01
   outer loop
     vertex  2.335997e-01 -2.418559e-01  8.669922e-01
     vertex  2.327497e-01 -2.411809e-01  8.686922e-01
     vertex  2.318997e-01 -2.418559e-01  8.686922e-01
   endloop
 endfacet
 facet normal -7.071068e-01  0.000000e+00  7.071068e-01
   outer loop
     vertex  2.344497e-01 -2.411809e-01  8.686922e-01
     vertex  2.335997e-01 -2.402059e-01  8.678422e-01
     vertex  2.335997e-01 -2.411809e-01  8.678422e-01
   endloop
 endfacet
 facet normal -7.071068e-01  0.000000e+00  7.071068e-01
   outer loop
     vertex  2.344497e-01 -2.411809e-01  8.686922e-01
     vertex  2.344497e-01 -2.402059e-01  8.686922e-01
     vertex  2.335997e-01 -2.402059e-01  8.678422e-01
   endloop
 endfacet
 facet normal -7.071068e-01  0.000000e+00 -7.071068e-01
   outer loop
     vertex  2.335997e-01 -2.411809e-01  8.695422e-01
     vertex  2.335997e-01 -2.402059e-01  8.695422e-01
     vertex  2.344497e-01 -2.402059e-01  8.686922e-01
   endloop
 endfacet
 facet normal -7.071068e-01  0.000000e+00 -7.071068e-01
   outer loop
     vertex  2.335997e-01 -2.411809e-01  8.695422e-01
     vertex  2.344497e-01 -2.402059e-01  8.686922e-01
     vertex  2.344497e-01 -2.411809e-01  8.686922e-01
   endloop
 endfacet
 facet normal  7.071068e-01  0.000000e+00 -7.071068e-01
   outer loop
     vertex  2.327497e-01 -2.411809e-01  8.686922e-01
     vertex  2.327497e-01 -2.402059e-01  8.686922e-01
     vertex  2.335997e-01 -2.402059e-01  8.695422e-01
   endloop
 endfacet
 facet normal  7.071068e-01  0.000000e+00 -7.071068e-01
   outer loop
     vertex  2.327497e-01 -2.411809e-01  8.686922e-01
     vertex  2.335997e-01 -2.402059e-01  8.695422e-01
     vertex  2.335997e-01 -2.411809e-01  8.695422e-01
   endloop
 endfacet
 facet normal  7.071068e-01 -0.000000e+00  7.071068e-01
   outer loop
     vertex  2.335997e-01 -2.411809e-01  8.678422e-01
     vertex  2.335997e-01 -2.402059e-01  8.678422e-01
     vertex  2.327497e-01 -2.402059e-01  8.686922e-01
   endloop
 endfacet
 facet normal  7.071068e-01  0.000000e+00  7.071068e-01
   outer loop
     vertex  2.335997e-01 -2.411809e-01  8.678422e-01
     vertex  2.327497e-01 -2.402059e-01  8.686922e-01
     vertex  2.327497e-01 -2.411809e-01  8.686922e-01
   endloop
 endfacet
 facet normal -1.712190e-01 -9.702412e-01  1.712190e-01
   outer loop
     vertex  2.344497e-01 -2.402059e-01  8.686922e-01
     vertex  2.335997e-01 -2.400559e-01  8.686922e-01
     vertex  2.335997e-01 -2.402059e-01  8.678422e-01
   endloop
 endfacet
 facet normal -1.712190e-01 -9.702412e-01 -1.712190e-01
   outer loop
     vertex  2.335997e-01 -2.402059e-01  8.695422e-01
     vertex  2.335997e-01 -2.400559e-01  8.686922e-01
     vertex  2.344497e-01 -2.402059e-01  8.686922e-01
   endloop
 endfacet
 facet normal  0.000000e+00  0.000000e+00  0.000000e+00
   outer loop
     vertex  2.335997e-01 -2.400559e-01  8.686922e-01
     vertex  2.335997e-01 -2.400559e-01  8.686922e-01
     vertex  2.335997e-01 -2.402059e-01  8.695422e-01
   endloop
 endfacet
 facet normal  1.712190e-01 -9.702412e-01 -1.712190e-01
   outer loop
     vertex  2.327497e-01 -2.402059e-01  8.686922e-01
     vertex  2.335997e-01 -2.400559e-01  8.686922e-01
     vertex  2.335997e-01 -2.402059e-01  8.695422e-01
   endloop
 endfacet
 facet normal  1.712190e-01 -9.702412e-01  1.712190e-01
   outer loop
     vertex  2.335997e-01 -2.402059e-01  8.678422e-01
     vertex  2.335997e-01 -2.400559e-01  8.686922e-01
     vertex  2.327497e-01 -2.402059e-01  8.686922e-01
   endloop
 endfacet
endsolid
