solid 
 facet normal  0.000000e+00 -1.000000e+00  0.000000e+00
   outer loop
     vertex  1.594450e-01 -1.075585e-02  1.232692e+00
     vertex  1.602381e-01 -1.075585e-02  1.233670e+00
     vertex  1.595359e-01 -1.075585e-02  1.233497e+00
   endloop
 endfacet
 facet normal  0.000000e+00 -1.000000e+00  0.000000e+00
   outer loop
     vertex  1.594450e-01 -1.075585e-02  1.232692e+00
     vertex  1.595359e-01 -1.075585e-02  1.233497e+00
     vertex  1.588955e-01 -1.075585e-02  1.233161e+00
   endloop
 endfacet
 facet normal -0.000000e+00 -1.000000e+00  0.000000e+00
   outer loop
     vertex  1.594450e-01 -1.075585e-02  1.232692e+00
     vertex  1.588955e-01 -1.075585e-02  1.233161e+00
     vertex  1.583542e-01 -1.075585e-02  1.232682e+00
   endloop
 endfacet
 facet normal  0.000000e+00 -1.000000e+00  0.000000e+00
   outer loop
     vertex  1.594450e-01 -1.075585e-02  1.232692e+00
     vertex  1.583542e-01 -1.075585e-02  1.232682e+00
     vertex  1.579434e-01 -1.075585e-02  1.232086e+00
   endloop
 endfacet
 facet normal -0.000000e+00 -1.000000e+00  0.000000e+00
   outer loop
     vertex  1.609613e-01 -1.075585e-02  1.233670e+00
     vertex  1.602381e-01 -1.075585e-02  1.233670e+00
     vertex  1.594450e-01 -1.075585e-02  1.232692e+00
   endloop
 endfacet
 facet normal  0.000000e+00 -1.000000e+00  0.000000e+00
   outer loop
     vertex  1.582903e-01 -1.075585e-02  1.230692e+00
     vertex  1.579434e-01 -1.075585e-02  1.232086e+00
     vertex  1.576869e-01 -1.075585e-02  1.231410e+00
   endloop
 endfacet
 facet normal  0.000000e+00 -1.000000e+00  0.000000e+00
   outer loop
     vertex  1.582903e-01 -1.075585e-02  1.230692e+00
     vertex  1.576869e-01 -1.075585e-02  1.231410e+00
     vertex  1.575997e-01 -1.075585e-02  1.230692e+00
   endloop
 endfacet
 facet normal  0.000000e+00 -1.000000e+00  0.000000e+00
   outer loop
     vertex  1.582903e-01 -1.075585e-02  1.230692e+00
     vertex  1.594450e-01 -1.075585e-02  1.232692e+00
     vertex  1.579434e-01 -1.075585e-02  1.232086e+00
   endloop
 endfacet
 facet normal  0.000000e+00 -1.000000e+00  0.000000e+00
   outer loop
     vertex  1.576869e-01 -1.075585e-02  1.229974e+00
     vertex  1.582903e-01 -1.075585e-02  1.230692e+00
     vertex  1.575997e-01 -1.075585e-02  1.230692e+00
   endloop
 endfacet
 facet normal  0.000000e+00 -1.000000e+00  0.000000e+00
   outer loop
     vertex  1.579434e-01 -1.075585e-02  1.229298e+00
     vertex  1.582903e-01 -1.075585e-02  1.230692e+00
     vertex  1.576869e-01 -1.075585e-02  1.229974e+00
   endloop
 endfacet
 facet normal  0.000000e+00 -1.000000e+00  0.000000e+00
   outer loop
     vertex  1.617544e-01 -1.075585e-02  1.232692e+00
     vertex  1.616635e-01 -1.075585e-02  1.233497e+00
     vertex  1.609613e-01 -1.075585e-02  1.233670e+00
   endloop
 endfacet
 facet normal  0.000000e+00 -1.000000e+00  0.000000e+00
   outer loop
     vertex  1.617544e-01 -1.075585e-02  1.232692e+00
     vertex  1.609613e-01 -1.075585e-02  1.233670e+00
     vertex  1.594450e-01 -1.075585e-02  1.232692e+00
   endloop
 endfacet
 facet normal -0.000000e+00 -1.000000e+00  0.000000e+00
   outer loop
     vertex  1.623039e-01 -1.075585e-02  1.233161e+00
     vertex  1.616635e-01 -1.075585e-02  1.233497e+00
     vertex  1.617544e-01 -1.075585e-02  1.232692e+00
   endloop
 endfacet
 facet normal  0.000000e+00 -1.000000e+00  0.000000e+00
   outer loop
     vertex  1.628453e-01 -1.075585e-02  1.232682e+00
     vertex  1.623039e-01 -1.075585e-02  1.233161e+00
     vertex  1.617544e-01 -1.075585e-02  1.232692e+00
   endloop
 endfacet
 facet normal  0.000000e+00 -1.000000e+00  0.000000e+00
   outer loop
     vertex  1.594450e-01 -1.075585e-02  1.228692e+00
     vertex  1.579434e-01 -1.075585e-02  1.229298e+00
     vertex  1.583542e-01 -1.075585e-02  1.228703e+00
   endloop
 endfacet
 facet normal -0.000000e+00 -1.000000e+00  0.000000e+00
   outer loop
     vertex  1.594450e-01 -1.075585e-02  1.228692e+00
     vertex  1.583542e-01 -1.075585e-02  1.228703e+00
     vertex  1.588955e-01 -1.075585e-02  1.228223e+00
   endloop
 endfacet
 facet normal  0.000000e+00 -1.000000e+00  0.000000e+00
   outer loop
     vertex  1.594450e-01 -1.075585e-02  1.228692e+00
     vertex  1.582903e-01 -1.075585e-02  1.230692e+00
     vertex  1.579434e-01 -1.075585e-02  1.229298e+00
   endloop
 endfacet
 facet normal  0.000000e+00 -1.000000e+00  0.000000e+00
   outer loop
     vertex  1.632561e-01 -1.075585e-02  1.232086e+00
     vertex  1.628453e-01 -1.075585e-02  1.232682e+00
     vertex  1.617544e-01 -1.075585e-02  1.232692e+00
   endloop
 endfacet
 facet normal  0.000000e+00 -1.000000e+00  0.000000e+00
   outer loop
     vertex  1.595359e-01 -1.075585e-02  1.227887e+00
     vertex  1.594450e-01 -1.075585e-02  1.228692e+00
     vertex  1.588955e-01 -1.075585e-02  1.228223e+00
   endloop
 endfacet
 facet normal  0.000000e+00 -1.000000e+00  0.000000e+00
   outer loop
     vertex  1.629091e-01 -1.075585e-02  1.230692e+00
     vertex  1.635126e-01 -1.075585e-02  1.231410e+00
     vertex  1.632561e-01 -1.075585e-02  1.232086e+00
   endloop
 endfacet
 facet normal  0.000000e+00 -1.000000e+00  0.000000e+00
   outer loop
     vertex  1.629091e-01 -1.075585e-02  1.230692e+00
     vertex  1.632561e-01 -1.075585e-02  1.232086e+00
     vertex  1.617544e-01 -1.075585e-02  1.232692e+00
   endloop
 endfacet
 facet normal  0.000000e+00 -1.000000e+00  0.000000e+00
   outer loop
     vertex  1.602381e-01 -1.075585e-02  1.227714e+00
     vertex  1.594450e-01 -1.075585e-02  1.228692e+00
     vertex  1.595359e-01 -1.075585e-02  1.227887e+00
   endloop
 endfacet
 facet normal  0.000000e+00 -1.000000e+00  0.000000e+00
   outer loop
     vertex  1.635997e-01 -1.075585e-02  1.230692e+00
     vertex  1.635126e-01 -1.075585e-02  1.231410e+00
     vertex  1.629091e-01 -1.075585e-02  1.230692e+00
   endloop
 endfacet
 facet normal -0.000000e+00 -1.000000e+00  0.000000e+00
   outer loop
     vertex  1.617544e-01 -1.075585e-02  1.228692e+00
     vertex  1.594450e-01 -1.075585e-02  1.228692e+00
     vertex  1.602381e-01 -1.075585e-02  1.227714e+00
   endloop
 endfacet
 facet normal  0.000000e+00 -1.000000e+00  0.000000e+00
   outer loop
     vertex  1.609613e-01 -1.075585e-02  1.227714e+00
     vertex  1.617544e-01 -1.075585e-02  1.228692e+00
     vertex  1.602381e-01 -1.075585e-02  1.227714e+00
   endloop
 endfacet
 facet normal  0.000000e+00 -1.000000e+00  0.000000e+00
   outer loop
     vertex  1.635126e-01 -1.075585e-02  1.229974e+00
     vertex  1.635997e-01 -1.075585e-02  1.230692e+00
     vertex  1.629091e-01 -1.075585e-02  1.230692e+00
   endloop
 endfacet
 facet normal -0.000000e+00 -1.000000e+00  0.000000e+00
   outer loop
     vertex  1.616635e-01 -1.075585e-02  1.227887e+00
     vertex  1.617544e-01 -1.075585e-02  1.228692e+00
     vertex  1.609613e-01 -1.075585e-02  1.227714e+00
   endloop
 endfacet
 facet normal -0.000000e+00 -1.000000e+00  0.000000e+00
   outer loop
     vertex  1.632561e-01 -1.075585e-02  1.229298e+00
     vertex  1.629091e-01 -1.075585e-02  1.230692e+00
     vertex  1.617544e-01 -1.075585e-02  1.228692e+00
   endloop
 endfacet
 facet normal  0.000000e+00 -1.000000e+00  0.000000e+00
   outer loop
     vertex  1.632561e-01 -1.075585e-02  1.229298e+00
     vertex  1.635126e-01 -1.075585e-02  1.229974e+00
     vertex  1.629091e-01 -1.075585e-02  1.230692e+00
   endloop
 endfacet
 facet normal -0.000000e+00 -1.000000e+00  0.000000e+00
   outer loop
     vertex  1.623039e-01 -1.075585e-02  1.228223e+00
     vertex  1.617544e-01 -1.075585e-02  1.228692e+00
     vertex  1.616635e-01 -1.075585e-02  1.227887e+00
   endloop
 endfacet
 facet normal -0.000000e+00 -1.000000e+00  0.000000e+00
   outer loop
     vertex  1.628453e-01 -1.075585e-02  1.228703e+00
     vertex  1.632561e-01 -1.075585e-02  1.229298e+00
     vertex  1.617544e-01 -1.075585e-02  1.228692e+00
   endloop
 endfacet
 facet normal  0.000000e+00 -1.000000e+00  0.000000e+00
   outer loop
     vertex  1.628453e-01 -1.075585e-02  1.228703e+00
     vertex  1.617544e-01 -1.075585e-02  1.228692e+00
     vertex  1.623039e-01 -1.075585e-02  1.228223e+00
   endloop
 endfacet
 facet normal -6.645225e-01 -7.428993e-01  8.068764e-02
   outer loop
     vertex  1.566218e-01 -9.881055e-03  1.230692e+00
     vertex  1.575997e-01 -1.075585e-02  1.230692e+00
     vertex  1.576869e-01 -1.075585e-02  1.231410e+00
   endloop
 endfacet
 facet normal -7.133236e-01 -6.465168e-01  2.705280e-01
   outer loop
     vertex  1.579434e-01 -1.075585e-02  1.232086e+00
     vertex  1.566218e-01 -9.881055e-03  1.230692e+00
     vertex  1.576869e-01 -1.075585e-02  1.231410e+00
   endloop
 endfacet
 facet normal -7.606194e-01 -5.110412e-01  4.003686e-01
   outer loop
     vertex  1.558900e-01 -8.791918e-03  1.230692e+00
     vertex  1.566218e-01 -9.881055e-03  1.230692e+00
     vertex  1.579434e-01 -1.075585e-02  1.232086e+00
   endloop
 endfacet
 facet normal -7.484666e-01 -4.158030e-01  5.166292e-01
   outer loop
     vertex  1.583542e-01 -1.075585e-02  1.232682e+00
     vertex  1.558900e-01 -8.791918e-03  1.230692e+00
     vertex  1.579434e-01 -1.075585e-02  1.232086e+00
   endloop
 endfacet
 facet normal -7.228671e-01 -2.574714e-01  6.412266e-01
   outer loop
     vertex  1.554497e-01 -7.555850e-03  1.230692e+00
     vertex  1.558900e-01 -8.791918e-03  1.230692e+00
     vertex  1.583542e-01 -1.075585e-02  1.232682e+00
   endloop
 endfacet
 facet normal  6.395546e-01 -2.642327e-01  7.219079e-01
   outer loop
     vertex  1.605997e-01 -7.555850e-03  1.235842e+00
     vertex  1.623039e-01 -1.075585e-02  1.233161e+00
     vertex  1.628453e-01 -1.075585e-02  1.232682e+00
   endloop
 endfacet
 facet normal  4.165956e-01 -4.431688e-01  7.937566e-01
   outer loop
     vertex  1.605997e-01 -7.555850e-03  1.235842e+00
     vertex  1.616635e-01 -1.075585e-02  1.233497e+00
     vertex  1.623039e-01 -1.075585e-02  1.233161e+00
   endloop
 endfacet
 facet normal  2.023053e-01 -5.342141e-01  8.207849e-01
   outer loop
     vertex  1.605997e-01 -7.555850e-03  1.235842e+00
     vertex  1.609613e-01 -1.075585e-02  1.233670e+00
     vertex  1.616635e-01 -1.075585e-02  1.233497e+00
   endloop
 endfacet
 facet normal  0.000000e+00 -5.615802e-01  8.274223e-01
   outer loop
     vertex  1.605997e-01 -7.555850e-03  1.235842e+00
     vertex  1.602381e-01 -1.075585e-02  1.233670e+00
     vertex  1.609613e-01 -1.075585e-02  1.233670e+00
   endloop
 endfacet
 facet normal -2.023053e-01 -5.342141e-01  8.207849e-01
   outer loop
     vertex  1.605997e-01 -7.555850e-03  1.235842e+00
     vertex  1.595359e-01 -1.075585e-02  1.233497e+00
     vertex  1.602381e-01 -1.075585e-02  1.233670e+00
   endloop
 endfacet
 facet normal -4.165956e-01 -4.431688e-01  7.937566e-01
   outer loop
     vertex  1.605997e-01 -7.555850e-03  1.235842e+00
     vertex  1.588955e-01 -1.075585e-02  1.233161e+00
     vertex  1.595359e-01 -1.075585e-02  1.233497e+00
   endloop
 endfacet
 facet normal -6.395546e-01 -2.642327e-01  7.219079e-01
   outer loop
     vertex  1.605997e-01 -7.555850e-03  1.235842e+00
     vertex  1.583542e-01 -1.075585e-02  1.232682e+00
     vertex  1.588955e-01 -1.075585e-02  1.233161e+00
   endloop
 endfacet
 facet normal -6.930791e-01 -1.981989e-01  6.930791e-01
   outer loop
     vertex  1.605997e-01 -7.555850e-03  1.235842e+00
     vertex  1.554497e-01 -7.555850e-03  1.230692e+00
     vertex  1.583542e-01 -1.075585e-02  1.232682e+00
   endloop
 endfacet
 facet normal  7.657409e-01 -3.664325e-01 -5.285528e-01
   outer loop
     vertex  1.657497e-01 -7.555850e-03  1.230692e+00
     vertex  1.632561e-01 -1.075585e-02  1.229298e+00
     vertex  1.628453e-01 -1.075585e-02  1.228703e+00
   endloop
 endfacet
 facet normal  8.108771e-01 -4.979022e-01 -3.075251e-01
   outer loop
     vertex  1.657497e-01 -7.555850e-03  1.230692e+00
     vertex  1.635126e-01 -1.075585e-02  1.229974e+00
     vertex  1.632561e-01 -1.075585e-02  1.229298e+00
   endloop
 endfacet
 facet normal  8.258657e-01 -5.548785e-01 -1.002782e-01
   outer loop
     vertex  1.657497e-01 -7.555850e-03  1.230692e+00
     vertex  1.635997e-01 -1.075585e-02  1.230692e+00
     vertex  1.635126e-01 -1.075585e-02  1.229974e+00
   endloop
 endfacet
 facet normal  8.258657e-01 -5.548785e-01  1.002782e-01
   outer loop
     vertex  1.657497e-01 -7.555850e-03  1.230692e+00
     vertex  1.635126e-01 -1.075585e-02  1.231410e+00
     vertex  1.635997e-01 -1.075585e-02  1.230692e+00
   endloop
 endfacet
 facet normal  8.108771e-01 -4.979022e-01  3.075251e-01
   outer loop
     vertex  1.657497e-01 -7.555850e-03  1.230692e+00
     vertex  1.632561e-01 -1.075585e-02  1.232086e+00
     vertex  1.635126e-01 -1.075585e-02  1.231410e+00
   endloop
 endfacet
 facet normal  7.657409e-01 -3.664325e-01  5.285528e-01
   outer loop
     vertex  1.657497e-01 -7.555850e-03  1.230692e+00
     vertex  1.628453e-01 -1.075585e-02  1.232682e+00
     vertex  1.632561e-01 -1.075585e-02  1.232086e+00
   endloop
 endfacet
 facet normal  6.930791e-01 -1.981989e-01  6.930791e-01
   outer loop
     vertex  1.657497e-01 -7.555850e-03  1.230692e+00
     vertex  1.605997e-01 -7.555850e-03  1.235842e+00
     vertex  1.628453e-01 -1.075585e-02  1.232682e+00
   endloop
 endfacet
 facet normal -6.395546e-01 -2.642327e-01 -7.219079e-01
   outer loop
     vertex  1.605997e-01 -7.555850e-03  1.225542e+00
     vertex  1.588955e-01 -1.075585e-02  1.228223e+00
     vertex  1.583542e-01 -1.075585e-02  1.228703e+00
   endloop
 endfacet
 facet normal -4.165956e-01 -4.431688e-01 -7.937566e-01
   outer loop
     vertex  1.605997e-01 -7.555850e-03  1.225542e+00
     vertex  1.595359e-01 -1.075585e-02  1.227887e+00
     vertex  1.588955e-01 -1.075585e-02  1.228223e+00
   endloop
 endfacet
 facet normal -2.023053e-01 -5.342141e-01 -8.207849e-01
   outer loop
     vertex  1.605997e-01 -7.555850e-03  1.225542e+00
     vertex  1.602381e-01 -1.075585e-02  1.227714e+00
     vertex  1.595359e-01 -1.075585e-02  1.227887e+00
   endloop
 endfacet
 facet normal  0.000000e+00 -5.615802e-01 -8.274223e-01
   outer loop
     vertex  1.605997e-01 -7.555850e-03  1.225542e+00
     vertex  1.609613e-01 -1.075585e-02  1.227714e+00
     vertex  1.602381e-01 -1.075585e-02  1.227714e+00
   endloop
 endfacet
 facet normal  2.023053e-01 -5.342141e-01 -8.207849e-01
   outer loop
     vertex  1.605997e-01 -7.555850e-03  1.225542e+00
     vertex  1.616635e-01 -1.075585e-02  1.227887e+00
     vertex  1.609613e-01 -1.075585e-02  1.227714e+00
   endloop
 endfacet
 facet normal  4.165956e-01 -4.431688e-01 -7.937566e-01
   outer loop
     vertex  1.605997e-01 -7.555850e-03  1.225542e+00
     vertex  1.623039e-01 -1.075585e-02  1.228223e+00
     vertex  1.616635e-01 -1.075585e-02  1.227887e+00
   endloop
 endfacet
 facet normal  6.395546e-01 -2.642327e-01 -7.219079e-01
   outer loop
     vertex  1.605997e-01 -7.555850e-03  1.225542e+00
     vertex  1.628453e-01 -1.075585e-02  1.228703e+00
     vertex  1.623039e-01 -1.075585e-02  1.228223e+00
   endloop
 endfacet
 facet normal  6.930791e-01 -1.981989e-01 -6.930791e-01
   outer loop
     vertex  1.605997e-01 -7.555850e-03  1.225542e+00
     vertex  1.657497e-01 -7.555850e-03  1.230692e+00
     vertex  1.628453e-01 -1.075585e-02  1.228703e+00
   endloop
 endfacet
 facet normal -6.645225e-01 -7.428993e-01 -8.068764e-02
   outer loop
     vertex  1.566218e-01 -9.881055e-03  1.230692e+00
     vertex  1.576869e-01 -1.075585e-02  1.229974e+00
     vertex  1.575997e-01 -1.075585e-02  1.230692e+00
   endloop
 endfacet
 facet normal -7.133236e-01 -6.465168e-01 -2.705280e-01
   outer loop
     vertex  1.566218e-01 -9.881055e-03  1.230692e+00
     vertex  1.579434e-01 -1.075585e-02  1.229298e+00
     vertex  1.576869e-01 -1.075585e-02  1.229974e+00
   endloop
 endfacet
 facet normal -7.606194e-01 -5.110412e-01 -4.003686e-01
   outer loop
     vertex  1.558900e-01 -8.791918e-03  1.230692e+00
     vertex  1.579434e-01 -1.075585e-02  1.229298e+00
     vertex  1.566218e-01 -9.881055e-03  1.230692e+00
   endloop
 endfacet
 facet normal -7.484666e-01 -4.158030e-01 -5.166292e-01
   outer loop
     vertex  1.558900e-01 -8.791918e-03  1.230692e+00
     vertex  1.583542e-01 -1.075585e-02  1.228703e+00
     vertex  1.579434e-01 -1.075585e-02  1.229298e+00
   endloop
 endfacet
 facet normal -7.228671e-01 -2.574714e-01 -6.412266e-01
   outer loop
     vertex  1.554497e-01 -7.555850e-03  1.230692e+00
     vertex  1.583542e-01 -1.075585e-02  1.228703e+00
     vertex  1.558900e-01 -8.791918e-03  1.230692e+00
   endloop
 endfacet
 facet normal -6.930791e-01 -1.981989e-01 -6.930791e-01
   outer loop
     vertex  1.554497e-01 -7.555850e-03  1.230692e+00
     vertex  1.605997e-01 -7.555850e-03  1.225542e+00
     vertex  1.583542e-01 -1.075585e-02  1.228703e+00
   endloop
 endfacet
 facet normal  0.000000e+00  1.000000e+00 -0.000000e+00
   outer loop
     vertex  1.575997e-01 -7.555850e-03  1.230692e+00
     vertex  1.554497e-01 -7.555850e-03  1.230692e+00
     vertex  1.605997e-01 -7.555850e-03  1.235842e+00
   endloop
 endfacet
 facet normal  0.000000e+00  1.000000e+00 -0.000000e+00
   outer loop
     vertex  1.605997e-01 -7.555850e-03  1.233692e+00
     vertex  1.575997e-01 -7.555850e-03  1.230692e+00
     vertex  1.605997e-01 -7.555850e-03  1.235842e+00
   endloop
 endfacet
 facet normal  0.000000e+00  1.000000e+00  0.000000e+00
   outer loop
     vertex  1.635997e-01 -7.555850e-03  1.230692e+00
     vertex  1.605997e-01 -7.555850e-03  1.233692e+00
     vertex  1.605997e-01 -7.555850e-03  1.235842e+00
   endloop
 endfacet
 facet normal  0.000000e+00  1.000000e+00  0.000000e+00
   outer loop
     vertex  1.605997e-01 -7.555850e-03  1.225542e+00
     vertex  1.605997e-01 -7.555850e-03  1.227692e+00
     vertex  1.635997e-01 -7.555850e-03  1.230692e+00
   endloop
 endfacet
 facet normal  0.000000e+00  1.000000e+00 -0.000000e+00
   outer loop
     vertex  1.605997e-01 -7.555850e-03  1.225542e+00
     vertex  1.575997e-01 -7.555850e-03  1.230692e+00
     vertex  1.605997e-01 -7.555850e-03  1.227692e+00
   endloop
 endfacet
 facet normal  0.000000e+00  1.000000e+00  0.000000e+00
   outer loop
     vertex  1.605997e-01 -7.555850e-03  1.225542e+00
     vertex  1.554497e-01 -7.555850e-03  1.230692e+00
     vertex  1.575997e-01 -7.555850e-03  1.230692e+00
   endloop
 endfacet
 facet normal  0.000000e+00  1.000000e+00  0.000000e+00
   outer loop
     vertex  1.657497e-01 -7.555850e-03  1.230692e+00
     vertex  1.605997e-01 -7.555850e-03  1.225542e+00
     vertex  1.635997e-01 -7.555850e-03  1.230692e+00
   endloop
 endfacet
 facet normal  0.000000e+00  1.000000e+00  0.000000e+00
   outer loop
     vertex  1.657497e-01 -7.555850e-03  1.230692e+00
     vertex  1.635997e-01 -7.555850e-03  1.230692e+00
     vertex  1.605997e-01 -7.555850e-03  1.235842e+00
   endloop
 endfacet
 facet normal -8.660254e-01  0.000000e+00  5.000000e-01
   outer loop
     vertex  1.590997e-01  4.694415e-02  1.233290e+00
     vertex  1.575997e-01  4.694415e-02  1.230692e+00
     vertex  1.575997e-01 -7.555850e-03  1.230692e+00
   endloop
 endfacet
 facet normal -7.070350e-01 -1.424547e-02  7.070350e-01
   outer loop
     vertex  1.590997e-01  4.694415e-02  1.233290e+00
     vertex  1.575997e-01 -7.555850e-03  1.230692e+00
     vertex  1.605997e-01 -7.555850e-03  1.233692e+00
   endloop
 endfacet
 facet normal  7.070350e-01 -1.424547e-02  7.070350e-01
   outer loop
     vertex  1.620997e-01  4.694415e-02  1.233290e+00
     vertex  1.605997e-01 -7.555850e-03  1.233692e+00
     vertex  1.635997e-01 -7.555850e-03  1.230692e+00
   endloop
 endfacet
 facet normal  0.000000e+00  7.374548e-03  9.999728e-01
   outer loop
     vertex  1.620997e-01  4.694415e-02  1.233290e+00
     vertex  1.590997e-01  4.694415e-02  1.233290e+00
     vertex  1.605997e-01 -7.555850e-03  1.233692e+00
   endloop
 endfacet
 facet normal  8.660254e-01  0.000000e+00  5.000000e-01
   outer loop
     vertex  1.635997e-01  4.694415e-02  1.230692e+00
     vertex  1.620997e-01  4.694415e-02  1.233290e+00
     vertex  1.635997e-01 -7.555850e-03  1.230692e+00
   endloop
 endfacet
 facet normal  7.070350e-01 -1.424547e-02 -7.070350e-01
   outer loop
     vertex  1.620997e-01  4.694415e-02  1.228094e+00
     vertex  1.635997e-01 -7.555850e-03  1.230692e+00
     vertex  1.605997e-01 -7.555850e-03  1.227692e+00
   endloop
 endfacet
 facet normal  8.660254e-01  0.000000e+00 -5.000000e-01
   outer loop
     vertex  1.620997e-01  4.694415e-02  1.228094e+00
     vertex  1.635997e-01  4.694415e-02  1.230692e+00
     vertex  1.635997e-01 -7.555850e-03  1.230692e+00
   endloop
 endfacet
 facet normal -7.070350e-01 -1.424547e-02 -7.070350e-01
   outer loop
     vertex  1.590997e-01  4.694415e-02  1.228094e+00
     vertex  1.605997e-01 -7.555850e-03  1.227692e+00
     vertex  1.575997e-01 -7.555850e-03  1.230692e+00
   endloop
 endfacet
 facet normal  0.000000e+00  7.374548e-03 -9.999728e-01
   outer loop
     vertex  1.590997e-01  4.694415e-02  1.228094e+00
     vertex  1.620997e-01  4.694415e-02  1.228094e+00
     vertex  1.605997e-01 -7.555850e-03  1.227692e+00
   endloop
 endfacet
 facet normal -8.660254e-01 -0.000000e+00 -5.000000e-01
   outer loop
     vertex  1.575997e-01  4.694415e-02  1.230692e+00
     vertex  1.590997e-01  4.694415e-02  1.228094e+00
     vertex  1.575997e-01 -7.555850e-03  1.230692e+00
   endloop
 endfacet
 facet normal  6.546537e-01  6.546537e-01  3.779645e-01
   outer loop
     vertex  1.620997e-01  4.694415e-02  1.233290e+00
     vertex  1.635997e-01  4.694415e-02  1.230692e+00
     vertex  1.630997e-01  4.744415e-02  1.230692e+00
   endloop
 endfacet
 facet normal  2.861188e-01  9.144792e-01  2.861188e-01
   outer loop
     vertex  1.605997e-01  4.744415e-02  1.233192e+00
     vertex  1.620997e-01  4.694415e-02  1.233290e+00
     vertex  1.630997e-01  4.744415e-02  1.230692e+00
   endloop
 endfacet
 facet normal -0.000000e+00  1.924844e-01  9.813000e-01
   outer loop
     vertex  1.590997e-01  4.694415e-02  1.233290e+00
     vertex  1.620997e-01  4.694415e-02  1.233290e+00
     vertex  1.605997e-01  4.744415e-02  1.233192e+00
   endloop
 endfacet
 facet normal -2.861188e-01  9.144792e-01  2.861188e-01
   outer loop
     vertex  1.580997e-01  4.744415e-02  1.230692e+00
     vertex  1.590997e-01  4.694415e-02  1.233290e+00
     vertex  1.605997e-01  4.744415e-02  1.233192e+00
   endloop
 endfacet
 facet normal -6.546537e-01  6.546537e-01  3.779645e-01
   outer loop
     vertex  1.575997e-01  4.694415e-02  1.230692e+00
     vertex  1.590997e-01  4.694415e-02  1.233290e+00
     vertex  1.580997e-01  4.744415e-02  1.230692e+00
   endloop
 endfacet
 facet normal -6.546537e-01  6.546537e-01 -3.779645e-01
   outer loop
     vertex  1.590997e-01  4.694415e-02  1.228094e+00
     vertex  1.575997e-01  4.694415e-02  1.230692e+00
     vertex  1.580997e-01  4.744415e-02  1.230692e+00
   endloop
 endfacet
 facet normal -2.861188e-01  9.144792e-01 -2.861188e-01
   outer loop
     vertex  1.605997e-01  4.744415e-02  1.228192e+00
     vertex  1.590997e-01  4.694415e-02  1.228094e+00
     vertex  1.580997e-01  4.744415e-02  1.230692e+00
   endloop
 endfacet
 facet normal  0.000000e+00  1.924844e-01 -9.813000e-01
   outer loop
     vertex  1.620997e-01  4.694415e-02  1.228094e+00
     vertex  1.590997e-01  4.694415e-02  1.228094e+00
     vertex  1.605997e-01  4.744415e-02  1.228192e+00
   endloop
 endfacet
 facet normal  2.861188e-01  9.144792e-01 -2.861188e-01
   outer loop
     vertex  1.630997e-01  4.744415e-02  1.230692e+00
     vertex  1.620997e-01  4.694415e-02  1.228094e+00
     vertex  1.605997e-01  4.744415e-02  1.228192e+00
   endloop
 endfacet
 facet normal  6.546537e-01  6.546537e-01 -3.779645e-01
   outer loop
     vertex  1.635997e-01  4.694415e-02  1.230692e+00
     vertex  1.620997e-01  4.694415e-02  1.228094e+00
     vertex  1.630997e-01  4.744415e-02  1.230692e+00
   endloop
 endfacet
 facet normal  0.000000e+00  1.000000e+00  0.000000e+00
   outer loop
     vertex  1.630997e-01  4.744415e-02  1.230692e+00
     vertex  1.580997e-01  4.744415e-02  1.230692e+00
     vertex  1.605997e-01  4.744415e-02  1.233192e+00
   endloop
 endfacet
 facet normal  0.000000e+00  1.000000e+00 -0.000000e+00
   outer loop
     vertex  1.605997e-01  4.744415e-02  1.228192e+00
     vertex  1.580997e-01  4.744415e-02  1.230692e+00
     vertex  1.630997e-01  4.744415e-02  1.230692e+00
   endloop
 endfacet
 facet normal -8.660254e-01  0.000000e+00  5.000000e-01
   outer loop
     vertex  1.629091e-01 -1.075585e-02  1.230692e+00
     vertex  1.629091e-01 -8.695850e-03  1.230692e+00
     vertex  1.617544e-01 -8.695850e-03  1.228692e+00
   endloop
 endfacet
 facet normal -8.660254e-01  0.000000e+00  5.000000e-01
   outer loop
     vertex  1.629091e-01 -1.075585e-02  1.230692e+00
     vertex  1.617544e-01 -8.695850e-03  1.228692e+00
     vertex  1.617544e-01 -1.075585e-02  1.228692e+00
   endloop
 endfacet
 facet normal  0.000000e+00  0.000000e+00  1.000000e+00
   outer loop
     vertex  1.617544e-01 -1.075585e-02  1.228692e+00
     vertex  1.594450e-01 -8.695850e-03  1.228692e+00
     vertex  1.594450e-01 -1.075585e-02  1.228692e+00
   endloop
 endfacet
 facet normal  0.000000e+00 -0.000000e+00  1.000000e+00
   outer loop
     vertex  1.617544e-01 -1.075585e-02  1.228692e+00
     vertex  1.617544e-01 -8.695850e-03  1.228692e+00
     vertex  1.594450e-01 -8.695850e-03  1.228692e+00
   endloop
 endfacet
 facet normal  8.660254e-01  0.000000e+00  5.000000e-01
   outer loop
     vertex  1.594450e-01 -8.695850e-03  1.228692e+00
     vertex  1.582903e-01 -8.695850e-03  1.230692e+00
     vertex  1.582903e-01 -1.075585e-02  1.230692e+00
   endloop
 endfacet
 facet normal  8.660254e-01 -0.000000e+00  5.000000e-01
   outer loop
     vertex  1.594450e-01 -1.075585e-02  1.228692e+00
     vertex  1.594450e-01 -8.695850e-03  1.228692e+00
     vertex  1.582903e-01 -1.075585e-02  1.230692e+00
   endloop
 endfacet
 facet normal  8.660254e-01  0.000000e+00 -5.000000e-01
   outer loop
     vertex  1.582903e-01 -1.075585e-02  1.230692e+00
     vertex  1.582903e-01 -8.695850e-03  1.230692e+00
     vertex  1.594450e-01 -8.695850e-03  1.232692e+00
   endloop
 endfacet
 facet normal  8.660254e-01  0.000000e+00 -5.000000e-01
   outer loop
     vertex  1.582903e-01 -1.075585e-02  1.230692e+00
     vertex  1.594450e-01 -8.695850e-03  1.232692e+00
     vertex  1.594450e-01 -1.075585e-02  1.232692e+00
   endloop
 endfacet
 facet normal  0.000000e+00  0.000000e+00 -1.000000e+00
   outer loop
     vertex  1.594450e-01 -1.075585e-02  1.232692e+00
     vertex  1.594450e-01 -8.695850e-03  1.232692e+00
     vertex  1.617544e-01 -8.695850e-03  1.232692e+00
   endloop
 endfacet
 facet normal  0.000000e+00  0.000000e+00 -1.000000e+00
   outer loop
     vertex  1.594450e-01 -1.075585e-02  1.232692e+00
     vertex  1.617544e-01 -8.695850e-03  1.232692e+00
     vertex  1.617544e-01 -1.075585e-02  1.232692e+00
   endloop
 endfacet
 facet normal -8.660254e-01  0.000000e+00 -5.000000e-01
   outer loop
     vertex  1.617544e-01 -8.695850e-03  1.232692e+00
     vertex  1.629091e-01 -8.695850e-03  1.230692e+00
     vertex  1.629091e-01 -1.075585e-02  1.230692e+00
   endloop
 endfacet
 facet normal -8.660254e-01  0.000000e+00 -5.000000e-01
   outer loop
     vertex  1.617544e-01 -1.075585e-02  1.232692e+00
     vertex  1.617544e-01 -8.695850e-03  1.232692e+00
     vertex  1.629091e-01 -1.075585e-02  1.230692e+00
   endloop
 endfacet
 facet normal  0.000000e+00 -1.000000e+00  0.000000e+00
   outer loop
     vertex  1.617544e-01 -8.695850e-03  1.228692e+00
     vertex  1.629091e-01 -8.695850e-03  1.230692e+00
     vertex  1.617544e-01 -8.695850e-03  1.232692e+00
   endloop
 endfacet
 facet normal  0.000000e+00 -1.000000e+00  0.000000e+00
   outer loop
     vertex  1.617544e-01 -8.695850e-03  1.228692e+00
     vertex  1.617544e-01 -8.695850e-03  1.232692e+00
     vertex  1.594450e-01 -8.695850e-03  1.232692e+00
   endloop
 endfacet
 facet normal  0.000000e+00 -1.000000e+00  0.000000e+00
   outer loop
     vertex  1.594450e-01 -8.695850e-03  1.228692e+00
     vertex  1.594450e-01 -8.695850e-03  1.232692e+00
     vertex  1.582903e-01 -8.695850e-03  1.230692e+00
   endloop
 endfacet
 facet normal  0.000000e+00 -1.000000e+00  0.000000e+00
   outer loop
     vertex  1.594450e-01 -8.695850e-03  1.228692e+00
     vertex  1.617544e-01 -8.695850e-03  1.228692e+00
     vertex  1.594450e-01 -8.695850e-03  1.232692e+00
   endloop
 endfacet
endsolid
