solid 
 facet normal  0.000000e+00  0.000000e+00 -1.000000e+00
   outer loop
     vertex  2.705997e-01  1.920441e-01  9.569224e-02
     vertex  2.702514e-01  1.907441e-01  9.569224e-02
     vertex  2.692997e-01  1.897925e-01  9.569224e-02
   endloop
 endfacet
 facet normal  0.000000e+00  0.000000e+00 -1.000000e+00
   outer loop
     vertex  2.705997e-01  1.920441e-01  9.569224e-02
     vertex  2.692997e-01  1.897925e-01  9.569224e-02
     vertex  2.679997e-01  1.894441e-01  9.569224e-02
   endloop
 endfacet
 facet normal  0.000000e+00  0.000000e+00 -1.000000e+00
   outer loop
     vertex  2.655997e-01  1.969441e-01  9.569224e-02
     vertex  2.705997e-01  1.920441e-01  9.569224e-02
     vertex  2.679997e-01  1.894441e-01  9.569224e-02
   endloop
 endfacet
 facet normal  0.000000e+00 -0.000000e+00 -1.000000e+00
   outer loop
     vertex  2.655997e-01  1.969441e-01  9.569224e-02
     vertex  2.679997e-01  1.894441e-01  9.569224e-02
     vertex  2.630997e-01  1.944441e-01  9.569224e-02
   endloop
 endfacet
 facet normal  0.000000e+00 -0.000000e+00 -1.000000e+00
   outer loop
     vertex  2.050997e-01  1.944441e-01  9.569224e-02
     vertex  2.679997e-01  1.894441e-01  9.569224e-02
     vertex  2.001997e-01  1.894441e-01  9.569224e-02
   endloop
 endfacet
 facet normal  0.000000e+00  0.000000e+00 -1.000000e+00
   outer loop
     vertex  2.050997e-01  1.944441e-01  9.569224e-02
     vertex  2.630997e-01  1.944441e-01  9.569224e-02
     vertex  2.679997e-01  1.894441e-01  9.569224e-02
   endloop
 endfacet
 facet normal  0.000000e+00  0.000000e+00 -1.000000e+00
   outer loop
     vertex  2.075997e-01  1.969441e-01  9.569224e-02
     vertex  2.605997e-01  1.969441e-01  9.569224e-02
     vertex  2.630997e-01  1.944441e-01  9.569224e-02
   endloop
 endfacet
 facet normal  0.000000e+00 -0.000000e+00 -1.000000e+00
   outer loop
     vertex  2.075997e-01  1.969441e-01  9.569224e-02
     vertex  2.630997e-01  1.944441e-01  9.569224e-02
     vertex  2.050997e-01  1.944441e-01  9.569224e-02
   endloop
 endfacet
 facet normal  0.000000e+00  0.000000e+00 -1.000000e+00
   outer loop
     vertex  2.655997e-01  2.549441e-01  9.569224e-02
     vertex  2.705997e-01  2.598441e-01  9.569224e-02
     vertex  2.705997e-01  1.920441e-01  9.569224e-02
   endloop
 endfacet
 facet normal  0.000000e+00  0.000000e+00 -1.000000e+00
   outer loop
     vertex  2.655997e-01  2.549441e-01  9.569224e-02
     vertex  2.705997e-01  1.920441e-01  9.569224e-02
     vertex  2.655997e-01  1.969441e-01  9.569224e-02
   endloop
 endfacet
 facet normal  0.000000e+00  0.000000e+00 -1.000000e+00
   outer loop
     vertex  2.630997e-01  2.524441e-01  9.569224e-02
     vertex  2.655997e-01  1.969441e-01  9.569224e-02
     vertex  2.630997e-01  1.994441e-01  9.569224e-02
   endloop
 endfacet
 facet normal  0.000000e+00  0.000000e+00 -1.000000e+00
   outer loop
     vertex  2.630997e-01  2.524441e-01  9.569224e-02
     vertex  2.655997e-01  2.549441e-01  9.569224e-02
     vertex  2.655997e-01  1.969441e-01  9.569224e-02
   endloop
 endfacet
 facet normal  0.000000e+00  0.000000e+00 -1.000000e+00
   outer loop
     vertex  1.975997e-01  1.920441e-01  9.569224e-02
     vertex  2.001997e-01  1.894441e-01  9.569224e-02
     vertex  1.988997e-01  1.897925e-01  9.569224e-02
   endloop
 endfacet
 facet normal  0.000000e+00  0.000000e+00 -1.000000e+00
   outer loop
     vertex  1.975997e-01  1.920441e-01  9.569224e-02
     vertex  1.988997e-01  1.897925e-01  9.569224e-02
     vertex  1.979481e-01  1.907441e-01  9.569224e-02
   endloop
 endfacet
 facet normal  0.000000e+00  0.000000e+00 -1.000000e+00
   outer loop
     vertex  1.975997e-01  1.920441e-01  9.569224e-02
     vertex  2.025997e-01  1.969441e-01  9.569224e-02
     vertex  2.050997e-01  1.944441e-01  9.569224e-02
   endloop
 endfacet
 facet normal  0.000000e+00  0.000000e+00 -1.000000e+00
   outer loop
     vertex  1.975997e-01  1.920441e-01  9.569224e-02
     vertex  2.050997e-01  1.944441e-01  9.569224e-02
     vertex  2.001997e-01  1.894441e-01  9.569224e-02
   endloop
 endfacet
 facet normal  0.000000e+00  0.000000e+00 -1.000000e+00
   outer loop
     vertex  2.679997e-01  2.624441e-01  9.569224e-02
     vertex  2.692997e-01  2.620958e-01  9.569224e-02
     vertex  2.702514e-01  2.611441e-01  9.569224e-02
   endloop
 endfacet
 facet normal  0.000000e+00  0.000000e+00 -1.000000e+00
   outer loop
     vertex  2.679997e-01  2.624441e-01  9.569224e-02
     vertex  2.702514e-01  2.611441e-01  9.569224e-02
     vertex  2.705997e-01  2.598441e-01  9.569224e-02
   endloop
 endfacet
 facet normal  0.000000e+00  0.000000e+00 -1.000000e+00
   outer loop
     vertex  2.679997e-01  2.624441e-01  9.569224e-02
     vertex  2.655997e-01  2.549441e-01  9.569224e-02
     vertex  2.630997e-01  2.574441e-01  9.569224e-02
   endloop
 endfacet
 facet normal  0.000000e+00 -0.000000e+00 -1.000000e+00
   outer loop
     vertex  2.679997e-01  2.624441e-01  9.569224e-02
     vertex  2.705997e-01  2.598441e-01  9.569224e-02
     vertex  2.655997e-01  2.549441e-01  9.569224e-02
   endloop
 endfacet
 facet normal  0.000000e+00 -0.000000e+00 -1.000000e+00
   outer loop
     vertex  2.075997e-01  2.549441e-01  9.569224e-02
     vertex  2.075997e-01  1.969441e-01  9.569224e-02
     vertex  2.050997e-01  1.994441e-01  9.569224e-02
   endloop
 endfacet
 facet normal  0.000000e+00  0.000000e+00 -1.000000e+00
   outer loop
     vertex  2.075997e-01  2.549441e-01  9.569224e-02
     vertex  2.605997e-01  2.549441e-01  9.569224e-02
     vertex  2.630997e-01  2.524441e-01  9.569224e-02
   endloop
 endfacet
 facet normal  0.000000e+00  0.000000e+00 -1.000000e+00
   outer loop
     vertex  2.075997e-01  2.549441e-01  9.569224e-02
     vertex  2.630997e-01  1.994441e-01  9.569224e-02
     vertex  2.605997e-01  1.969441e-01  9.569224e-02
   endloop
 endfacet
 facet normal  0.000000e+00  0.000000e+00 -1.000000e+00
   outer loop
     vertex  2.075997e-01  2.549441e-01  9.569224e-02
     vertex  2.605997e-01  1.969441e-01  9.569224e-02
     vertex  2.075997e-01  1.969441e-01  9.569224e-02
   endloop
 endfacet
 facet normal  0.000000e+00  0.000000e+00 -1.000000e+00
   outer loop
     vertex  2.075997e-01  2.549441e-01  9.569224e-02
     vertex  2.630997e-01  2.524441e-01  9.569224e-02
     vertex  2.630997e-01  1.994441e-01  9.569224e-02
   endloop
 endfacet
 facet normal  0.000000e+00  0.000000e+00 -1.000000e+00
   outer loop
     vertex  2.075997e-01  2.549441e-01  9.569224e-02
     vertex  2.050997e-01  1.994441e-01  9.569224e-02
     vertex  2.050997e-01  2.524441e-01  9.569224e-02
   endloop
 endfacet
 facet normal  0.000000e+00  0.000000e+00 -1.000000e+00
   outer loop
     vertex  2.050997e-01  2.574441e-01  9.569224e-02
     vertex  2.630997e-01  2.574441e-01  9.569224e-02
     vertex  2.605997e-01  2.549441e-01  9.569224e-02
   endloop
 endfacet
 facet normal  0.000000e+00  0.000000e+00 -1.000000e+00
   outer loop
     vertex  2.050997e-01  2.574441e-01  9.569224e-02
     vertex  2.605997e-01  2.549441e-01  9.569224e-02
     vertex  2.075997e-01  2.549441e-01  9.569224e-02
   endloop
 endfacet
 facet normal  0.000000e+00  0.000000e+00 -1.000000e+00
   outer loop
     vertex  2.025997e-01  2.549441e-01  9.569224e-02
     vertex  2.050997e-01  1.994441e-01  9.569224e-02
     vertex  2.025997e-01  1.969441e-01  9.569224e-02
   endloop
 endfacet
 facet normal  0.000000e+00  0.000000e+00 -1.000000e+00
   outer loop
     vertex  2.025997e-01  2.549441e-01  9.569224e-02
     vertex  2.050997e-01  2.524441e-01  9.569224e-02
     vertex  2.050997e-01  1.994441e-01  9.569224e-02
   endloop
 endfacet
 facet normal  0.000000e+00  0.000000e+00 -1.000000e+00
   outer loop
     vertex  2.001997e-01  2.624441e-01  9.569224e-02
     vertex  2.679997e-01  2.624441e-01  9.569224e-02
     vertex  2.630997e-01  2.574441e-01  9.569224e-02
   endloop
 endfacet
 facet normal  0.000000e+00  0.000000e+00 -1.000000e+00
   outer loop
     vertex  2.001997e-01  2.624441e-01  9.569224e-02
     vertex  2.630997e-01  2.574441e-01  9.569224e-02
     vertex  2.050997e-01  2.574441e-01  9.569224e-02
   endloop
 endfacet
 facet normal  0.000000e+00  0.000000e+00 -1.000000e+00
   outer loop
     vertex  1.975997e-01  2.598441e-01  9.569224e-02
     vertex  2.050997e-01  2.574441e-01  9.569224e-02
     vertex  2.025997e-01  2.549441e-01  9.569224e-02
   endloop
 endfacet
 facet normal  0.000000e+00  0.000000e+00 -1.000000e+00
   outer loop
     vertex  1.975997e-01  2.598441e-01  9.569224e-02
     vertex  2.001997e-01  2.624441e-01  9.569224e-02
     vertex  2.050997e-01  2.574441e-01  9.569224e-02
   endloop
 endfacet
 facet normal  0.000000e+00  0.000000e+00 -1.000000e+00
   outer loop
     vertex  1.975997e-01  2.598441e-01  9.569224e-02
     vertex  2.025997e-01  1.969441e-01  9.569224e-02
     vertex  1.975997e-01  1.920441e-01  9.569224e-02
   endloop
 endfacet
 facet normal  0.000000e+00  0.000000e+00 -1.000000e+00
   outer loop
     vertex  1.975997e-01  2.598441e-01  9.569224e-02
     vertex  2.025997e-01  2.549441e-01  9.569224e-02
     vertex  2.025997e-01  1.969441e-01  9.569224e-02
   endloop
 endfacet
 facet normal  0.000000e+00  0.000000e+00 -1.000000e+00
   outer loop
     vertex  1.988997e-01  2.620958e-01  9.569224e-02
     vertex  1.975997e-01  2.598441e-01  9.569224e-02
     vertex  1.979481e-01  2.611441e-01  9.569224e-02
   endloop
 endfacet
 facet normal  0.000000e+00 -0.000000e+00 -1.000000e+00
   outer loop
     vertex  1.988997e-01  2.620958e-01  9.569224e-02
     vertex  2.001997e-01  2.624441e-01  9.569224e-02
     vertex  1.975997e-01  2.598441e-01  9.569224e-02
   endloop
 endfacet
 facet normal  9.659258e-01 -2.588190e-01  0.000000e+00
   outer loop
     vertex  2.702514e-01  1.907441e-01  9.569224e-02
     vertex  2.705997e-01  1.920441e-01  9.569224e-02
     vertex  2.705997e-01  1.920441e-01  1.006922e-01
   endloop
 endfacet
 facet normal  9.659258e-01 -2.588190e-01  0.000000e+00
   outer loop
     vertex  2.702514e-01  1.907441e-01  9.569224e-02
     vertex  2.705997e-01  1.920441e-01  1.006922e-01
     vertex  2.702514e-01  1.907441e-01  1.006922e-01
   endloop
 endfacet
 facet normal  7.071068e-01 -7.071068e-01  0.000000e+00
   outer loop
     vertex  2.692997e-01  1.897925e-01  9.569224e-02
     vertex  2.702514e-01  1.907441e-01  1.006922e-01
     vertex  2.692997e-01  1.897925e-01  1.006922e-01
   endloop
 endfacet
 facet normal  7.071068e-01 -7.071068e-01  0.000000e+00
   outer loop
     vertex  2.692997e-01  1.897925e-01  9.569224e-02
     vertex  2.702514e-01  1.907441e-01  9.569224e-02
     vertex  2.702514e-01  1.907441e-01  1.006922e-01
   endloop
 endfacet
 facet normal  2.588190e-01 -9.659258e-01  0.000000e+00
   outer loop
     vertex  2.679997e-01  1.894441e-01  9.569224e-02
     vertex  2.692997e-01  1.897925e-01  1.006922e-01
     vertex  2.679997e-01  1.894441e-01  1.006922e-01
   endloop
 endfacet
 facet normal  2.588190e-01 -9.659258e-01  0.000000e+00
   outer loop
     vertex  2.679997e-01  1.894441e-01  9.569224e-02
     vertex  2.692997e-01  1.897925e-01  9.569224e-02
     vertex  2.692997e-01  1.897925e-01  1.006922e-01
   endloop
 endfacet
 facet normal -0.000000e+00 -1.000000e+00  0.000000e+00
   outer loop
     vertex  2.679997e-01  1.894441e-01  1.006922e-01
     vertex  2.001997e-01  1.894441e-01  1.006922e-01
     vertex  2.001997e-01  1.894441e-01  9.569224e-02
   endloop
 endfacet
 facet normal  0.000000e+00 -1.000000e+00 -0.000000e+00
   outer loop
     vertex  2.679997e-01  1.894441e-01  1.006922e-01
     vertex  2.001997e-01  1.894441e-01  9.569224e-02
     vertex  2.679997e-01  1.894441e-01  9.569224e-02
   endloop
 endfacet
 facet normal -2.588190e-01 -9.659258e-01  0.000000e+00
   outer loop
     vertex  1.988997e-01  1.897925e-01  9.569224e-02
     vertex  2.001997e-01  1.894441e-01  9.569224e-02
     vertex  2.001997e-01  1.894441e-01  1.006922e-01
   endloop
 endfacet
 facet normal -2.588190e-01 -9.659258e-01  0.000000e+00
   outer loop
     vertex  1.988997e-01  1.897925e-01  9.569224e-02
     vertex  2.001997e-01  1.894441e-01  1.006922e-01
     vertex  1.988997e-01  1.897925e-01  1.006922e-01
   endloop
 endfacet
 facet normal -7.071068e-01 -7.071068e-01  0.000000e+00
   outer loop
     vertex  1.979481e-01  1.907441e-01  9.569224e-02
     vertex  1.988997e-01  1.897925e-01  1.006922e-01
     vertex  1.979481e-01  1.907441e-01  1.006922e-01
   endloop
 endfacet
 facet normal -7.071068e-01 -7.071068e-01  0.000000e+00
   outer loop
     vertex  1.979481e-01  1.907441e-01  9.569224e-02
     vertex  1.988997e-01  1.897925e-01  9.569224e-02
     vertex  1.988997e-01  1.897925e-01  1.006922e-01
   endloop
 endfacet
 facet normal -9.659258e-01 -2.588190e-01  0.000000e+00
   outer loop
     vertex  1.975997e-01  1.920441e-01  9.569224e-02
     vertex  1.979481e-01  1.907441e-01  1.006922e-01
     vertex  1.975997e-01  1.920441e-01  1.006922e-01
   endloop
 endfacet
 facet normal -9.659258e-01 -2.588190e-01  0.000000e+00
   outer loop
     vertex  1.975997e-01  1.920441e-01  9.569224e-02
     vertex  1.979481e-01  1.907441e-01  9.569224e-02
     vertex  1.979481e-01  1.907441e-01  1.006922e-01
   endloop
 endfacet
 facet normal -1.000000e+00  0.000000e+00  0.000000e+00
   outer loop
     vertex  1.975997e-01  1.920441e-01  9.569224e-02
     vertex  1.975997e-01  2.598441e-01  1.006922e-01
     vertex  1.975997e-01  2.598441e-01  9.569224e-02
   endloop
 endfacet
 facet normal -1.000000e+00  0.000000e+00  0.000000e+00
   outer loop
     vertex  1.975997e-01  1.920441e-01  1.006922e-01
     vertex  1.975997e-01  2.598441e-01  1.006922e-01
     vertex  1.975997e-01  1.920441e-01  9.569224e-02
   endloop
 endfacet
 facet normal -9.659258e-01  2.588190e-01  0.000000e+00
   outer loop
     vertex  1.979481e-01  2.611441e-01  9.569224e-02
     vertex  1.975997e-01  2.598441e-01  9.569224e-02
     vertex  1.975997e-01  2.598441e-01  1.006922e-01
   endloop
 endfacet
 facet normal -9.659258e-01  2.588190e-01  0.000000e+00
   outer loop
     vertex  1.979481e-01  2.611441e-01  9.569224e-02
     vertex  1.975997e-01  2.598441e-01  1.006922e-01
     vertex  1.979481e-01  2.611441e-01  1.006922e-01
   endloop
 endfacet
 facet normal -7.071068e-01  7.071068e-01  0.000000e+00
   outer loop
     vertex  1.988997e-01  2.620958e-01  9.569224e-02
     vertex  1.979481e-01  2.611441e-01  1.006922e-01
     vertex  1.988997e-01  2.620958e-01  1.006922e-01
   endloop
 endfacet
 facet normal -7.071068e-01  7.071068e-01  0.000000e+00
   outer loop
     vertex  1.988997e-01  2.620958e-01  9.569224e-02
     vertex  1.979481e-01  2.611441e-01  9.569224e-02
     vertex  1.979481e-01  2.611441e-01  1.006922e-01
   endloop
 endfacet
 facet normal -2.588190e-01  9.659258e-01  0.000000e+00
   outer loop
     vertex  2.001997e-01  2.624441e-01  9.569224e-02
     vertex  1.988997e-01  2.620958e-01  1.006922e-01
     vertex  2.001997e-01  2.624441e-01  1.006922e-01
   endloop
 endfacet
 facet normal -2.588190e-01  9.659258e-01  0.000000e+00
   outer loop
     vertex  2.001997e-01  2.624441e-01  9.569224e-02
     vertex  1.988997e-01  2.620958e-01  9.569224e-02
     vertex  1.988997e-01  2.620958e-01  1.006922e-01
   endloop
 endfacet
 facet normal  0.000000e+00  1.000000e+00  0.000000e+00
   outer loop
     vertex  2.001997e-01  2.624441e-01  9.569224e-02
     vertex  2.679997e-01  2.624441e-01  1.006922e-01
     vertex  2.679997e-01  2.624441e-01  9.569224e-02
   endloop
 endfacet
 facet normal -0.000000e+00  1.000000e+00  0.000000e+00
   outer loop
     vertex  2.001997e-01  2.624441e-01  1.006922e-01
     vertex  2.679997e-01  2.624441e-01  1.006922e-01
     vertex  2.001997e-01  2.624441e-01  9.569224e-02
   endloop
 endfacet
 facet normal  2.588190e-01  9.659258e-01  0.000000e+00
   outer loop
     vertex  2.692997e-01  2.620958e-01  9.569224e-02
     vertex  2.679997e-01  2.624441e-01  9.569224e-02
     vertex  2.679997e-01  2.624441e-01  1.006922e-01
   endloop
 endfacet
 facet normal  2.588190e-01  9.659258e-01 -0.000000e+00
   outer loop
     vertex  2.692997e-01  2.620958e-01  9.569224e-02
     vertex  2.679997e-01  2.624441e-01  1.006922e-01
     vertex  2.692997e-01  2.620958e-01  1.006922e-01
   endloop
 endfacet
 facet normal  7.071068e-01  7.071068e-01 -0.000000e+00
   outer loop
     vertex  2.702514e-01  2.611441e-01  9.569224e-02
     vertex  2.692997e-01  2.620958e-01  1.006922e-01
     vertex  2.702514e-01  2.611441e-01  1.006922e-01
   endloop
 endfacet
 facet normal  7.071068e-01  7.071068e-01  0.000000e+00
   outer loop
     vertex  2.702514e-01  2.611441e-01  9.569224e-02
     vertex  2.692997e-01  2.620958e-01  9.569224e-02
     vertex  2.692997e-01  2.620958e-01  1.006922e-01
   endloop
 endfacet
 facet normal  9.659258e-01  2.588190e-01 -0.000000e+00
   outer loop
     vertex  2.705997e-01  2.598441e-01  9.569224e-02
     vertex  2.702514e-01  2.611441e-01  1.006922e-01
     vertex  2.705997e-01  2.598441e-01  1.006922e-01
   endloop
 endfacet
 facet normal  9.659258e-01  2.588190e-01  0.000000e+00
   outer loop
     vertex  2.705997e-01  2.598441e-01  9.569224e-02
     vertex  2.702514e-01  2.611441e-01  9.569224e-02
     vertex  2.702514e-01  2.611441e-01  1.006922e-01
   endloop
 endfacet
 facet normal  1.000000e+00  0.000000e+00  0.000000e+00
   outer loop
     vertex  2.705997e-01  2.598441e-01  9.569224e-02
     vertex  2.705997e-01  1.920441e-01  1.006922e-01
     vertex  2.705997e-01  1.920441e-01  9.569224e-02
   endloop
 endfacet
 facet normal  1.000000e+00  0.000000e+00  0.000000e+00
   outer loop
     vertex  2.705997e-01  2.598441e-01  1.006922e-01
     vertex  2.705997e-01  1.920441e-01  1.006922e-01
     vertex  2.705997e-01  2.598441e-01  9.569224e-02
   endloop
 endfacet
 facet normal  1.493261e-11 -1.493261e-11  1.000000e+00
   outer loop
     vertex  2.705997e-01  1.920441e-01  1.006922e-01
     vertex  2.679997e-01  1.894441e-01  1.006922e-01
     vertex  2.692997e-01  1.897925e-01  1.006922e-01
   endloop
 endfacet
 facet normal  1.493261e-11 -1.493261e-11  1.000000e+00
   outer loop
     vertex  2.705997e-01  1.920441e-01  1.006922e-01
     vertex  2.692997e-01  1.897925e-01  1.006922e-01
     vertex  2.702514e-01  1.907441e-01  1.006922e-01
   endloop
 endfacet
 facet normal  0.000000e+00  0.000000e+00  1.000000e+00
   outer loop
     vertex  2.630997e-01  1.944441e-01  1.006922e-01
     vertex  2.679997e-01  1.894441e-01  1.006922e-01
     vertex  2.705997e-01  1.920441e-01  1.006922e-01
   endloop
 endfacet
 facet normal  1.378022e-12  4.306320e-12  1.000000e+00
   outer loop
     vertex  2.655997e-01  1.969441e-01  1.006922e-01
     vertex  2.630997e-01  1.944441e-01  1.006922e-01
     vertex  2.705997e-01  1.920441e-01  1.006922e-01
   endloop
 endfacet
 facet normal  0.000000e+00  0.000000e+00  1.000000e+00
   outer loop
     vertex  2.001997e-01  1.894441e-01  1.006922e-01
     vertex  2.679997e-01  1.894441e-01  1.006922e-01
     vertex  2.630997e-01  1.944441e-01  1.006922e-01
   endloop
 endfacet
 facet normal -0.000000e+00  0.000000e+00  1.000000e+00
   outer loop
     vertex  2.050997e-01  1.944441e-01  1.006922e-01
     vertex  2.001997e-01  1.894441e-01  1.006922e-01
     vertex  2.630997e-01  1.944441e-01  1.006922e-01
   endloop
 endfacet
 facet normal -0.000000e+00  5.684342e-12  1.000000e+00
   outer loop
     vertex  2.075997e-01  1.969441e-01  1.006922e-01
     vertex  2.630997e-01  1.944441e-01  1.006922e-01
     vertex  2.605997e-01  1.969441e-01  1.006922e-01
   endloop
 endfacet
 facet normal  0.000000e+00  5.684342e-12  1.000000e+00
   outer loop
     vertex  2.075997e-01  1.969441e-01  1.006922e-01
     vertex  2.050997e-01  1.944441e-01  1.006922e-01
     vertex  2.630997e-01  1.944441e-01  1.006922e-01
   endloop
 endfacet
 facet normal -2.842171e-12  0.000000e+00  1.000000e+00
   outer loop
     vertex  2.655997e-01  2.549441e-01  1.006922e-01
     vertex  2.705997e-01  1.920441e-01  1.006922e-01
     vertex  2.705997e-01  2.598441e-01  1.006922e-01
   endloop
 endfacet
 facet normal -2.842171e-12  0.000000e+00  1.000000e+00
   outer loop
     vertex  2.655997e-01  2.549441e-01  1.006922e-01
     vertex  2.655997e-01  1.969441e-01  1.006922e-01
     vertex  2.705997e-01  1.920441e-01  1.006922e-01
   endloop
 endfacet
 facet normal -2.681293e-13 -2.681293e-13  1.000000e+00
   outer loop
     vertex  2.630997e-01  2.524441e-01  1.006922e-01
     vertex  2.630997e-01  1.994441e-01  1.006922e-01
     vertex  2.655997e-01  1.969441e-01  1.006922e-01
   endloop
 endfacet
 facet normal  5.684342e-12  0.000000e+00  1.000000e+00
   outer loop
     vertex  2.630997e-01  2.524441e-01  1.006922e-01
     vertex  2.655997e-01  1.969441e-01  1.006922e-01
     vertex  2.655997e-01  2.549441e-01  1.006922e-01
   endloop
 endfacet
 facet normal  1.493261e-11  1.493261e-11  1.000000e+00
   outer loop
     vertex  2.679997e-01  2.624441e-01  1.006922e-01
     vertex  2.705997e-01  2.598441e-01  1.006922e-01
     vertex  2.702514e-01  2.611441e-01  1.006922e-01
   endloop
 endfacet
 facet normal  1.493261e-11  1.493261e-11  1.000000e+00
   outer loop
     vertex  2.679997e-01  2.624441e-01  1.006922e-01
     vertex  2.702514e-01  2.611441e-01  1.006922e-01
     vertex  2.692997e-01  2.620958e-01  1.006922e-01
   endloop
 endfacet
 facet normal -1.435440e-12 -1.435440e-12  1.000000e+00
   outer loop
     vertex  2.679997e-01  2.624441e-01  1.006922e-01
     vertex  2.630997e-01  2.574441e-01  1.006922e-01
     vertex  2.655997e-01  2.549441e-01  1.006922e-01
   endloop
 endfacet
 facet normal -1.435440e-12 -1.435440e-12  1.000000e+00
   outer loop
     vertex  2.679997e-01  2.624441e-01  1.006922e-01
     vertex  2.655997e-01  2.549441e-01  1.006922e-01
     vertex  2.705997e-01  2.598441e-01  1.006922e-01
   endloop
 endfacet
 facet normal -1.493261e-11 -1.493261e-11  1.000000e+00
   outer loop
     vertex  1.975997e-01  1.920441e-01  1.006922e-01
     vertex  1.979481e-01  1.907441e-01  1.006922e-01
     vertex  1.988997e-01  1.897925e-01  1.006922e-01
   endloop
 endfacet
 facet normal -1.493261e-11 -1.493261e-11  1.000000e+00
   outer loop
     vertex  1.975997e-01  1.920441e-01  1.006922e-01
     vertex  1.988997e-01  1.897925e-01  1.006922e-01
     vertex  2.001997e-01  1.894441e-01  1.006922e-01
   endloop
 endfacet
 facet normal -1.378022e-12  4.306320e-12  1.000000e+00
   outer loop
     vertex  1.975997e-01  1.920441e-01  1.006922e-01
     vertex  2.050997e-01  1.944441e-01  1.006922e-01
     vertex  2.025997e-01  1.969441e-01  1.006922e-01
   endloop
 endfacet
 facet normal -0.000000e+00  0.000000e+00  1.000000e+00
   outer loop
     vertex  1.975997e-01  1.920441e-01  1.006922e-01
     vertex  2.001997e-01  1.894441e-01  1.006922e-01
     vertex  2.050997e-01  1.944441e-01  1.006922e-01
   endloop
 endfacet
 facet normal  0.000000e+00  0.000000e+00  1.000000e+00
   outer loop
     vertex  2.075997e-01  2.549441e-01  1.006922e-01
     vertex  2.050997e-01  1.994441e-01  1.006922e-01
     vertex  2.075997e-01  1.969441e-01  1.006922e-01
   endloop
 endfacet
 facet normal -0.000000e+00  5.684342e-12  1.000000e+00
   outer loop
     vertex  2.075997e-01  2.549441e-01  1.006922e-01
     vertex  2.630997e-01  2.524441e-01  1.006922e-01
     vertex  2.605997e-01  2.549441e-01  1.006922e-01
   endloop
 endfacet
 facet normal  0.000000e+00  0.000000e+00  1.000000e+00
   outer loop
     vertex  2.075997e-01  2.549441e-01  1.006922e-01
     vertex  2.605997e-01  1.969441e-01  1.006922e-01
     vertex  2.630997e-01  1.994441e-01  1.006922e-01
   endloop
 endfacet
 facet normal  0.000000e+00  0.000000e+00  1.000000e+00
   outer loop
     vertex  2.075997e-01  2.549441e-01  1.006922e-01
     vertex  2.075997e-01  1.969441e-01  1.006922e-01
     vertex  2.605997e-01  1.969441e-01  1.006922e-01
   endloop
 endfacet
 facet normal -2.681293e-13 -2.681293e-13  1.000000e+00
   outer loop
     vertex  2.075997e-01  2.549441e-01  1.006922e-01
     vertex  2.630997e-01  1.994441e-01  1.006922e-01
     vertex  2.630997e-01  2.524441e-01  1.006922e-01
   endloop
 endfacet
 facet normal  5.952471e-12 -2.681293e-13  1.000000e+00
   outer loop
     vertex  2.075997e-01  2.549441e-01  1.006922e-01
     vertex  2.050997e-01  2.524441e-01  1.006922e-01
     vertex  2.050997e-01  1.994441e-01  1.006922e-01
   endloop
 endfacet
 facet normal -0.000000e+00  0.000000e+00  1.000000e+00
   outer loop
     vertex  2.050997e-01  2.574441e-01  1.006922e-01
     vertex  2.605997e-01  2.549441e-01  1.006922e-01
     vertex  2.630997e-01  2.574441e-01  1.006922e-01
   endloop
 endfacet
 facet normal  0.000000e+00  0.000000e+00  1.000000e+00
   outer loop
     vertex  2.050997e-01  2.574441e-01  1.006922e-01
     vertex  2.075997e-01  2.549441e-01  1.006922e-01
     vertex  2.605997e-01  2.549441e-01  1.006922e-01
   endloop
 endfacet
 facet normal  0.000000e+00  0.000000e+00  1.000000e+00
   outer loop
     vertex  2.025997e-01  2.549441e-01  1.006922e-01
     vertex  2.025997e-01  1.969441e-01  1.006922e-01
     vertex  2.050997e-01  1.994441e-01  1.006922e-01
   endloop
 endfacet
 facet normal -5.952471e-12 -2.681293e-13  1.000000e+00
   outer loop
     vertex  2.025997e-01  2.549441e-01  1.006922e-01
     vertex  2.050997e-01  1.994441e-01  1.006922e-01
     vertex  2.050997e-01  2.524441e-01  1.006922e-01
   endloop
 endfacet
 facet normal  0.000000e+00 -2.842171e-12  1.000000e+00
   outer loop
     vertex  2.001997e-01  2.624441e-01  1.006922e-01
     vertex  2.630997e-01  2.574441e-01  1.006922e-01
     vertex  2.679997e-01  2.624441e-01  1.006922e-01
   endloop
 endfacet
 facet normal  0.000000e+00 -2.842171e-12  1.000000e+00
   outer loop
     vertex  2.001997e-01  2.624441e-01  1.006922e-01
     vertex  2.050997e-01  2.574441e-01  1.006922e-01
     vertex  2.630997e-01  2.574441e-01  1.006922e-01
   endloop
 endfacet
 facet normal  1.435440e-12 -1.435440e-12  1.000000e+00
   outer loop
     vertex  1.975997e-01  2.598441e-01  1.006922e-01
     vertex  2.025997e-01  2.549441e-01  1.006922e-01
     vertex  2.050997e-01  2.574441e-01  1.006922e-01
   endloop
 endfacet
 facet normal  1.435440e-12 -1.435440e-12  1.000000e+00
   outer loop
     vertex  1.975997e-01  2.598441e-01  1.006922e-01
     vertex  2.050997e-01  2.574441e-01  1.006922e-01
     vertex  2.001997e-01  2.624441e-01  1.006922e-01
   endloop
 endfacet
 facet normal  2.842171e-12  0.000000e+00  1.000000e+00
   outer loop
     vertex  1.975997e-01  2.598441e-01  1.006922e-01
     vertex  1.975997e-01  1.920441e-01  1.006922e-01
     vertex  2.025997e-01  1.969441e-01  1.006922e-01
   endloop
 endfacet
 facet normal  2.842171e-12  0.000000e+00  1.000000e+00
   outer loop
     vertex  1.975997e-01  2.598441e-01  1.006922e-01
     vertex  2.025997e-01  1.969441e-01  1.006922e-01
     vertex  2.025997e-01  2.549441e-01  1.006922e-01
   endloop
 endfacet
 facet normal -1.493261e-11  1.493261e-11  1.000000e+00
   outer loop
     vertex  1.979481e-01  2.611441e-01  1.006922e-01
     vertex  2.001997e-01  2.624441e-01  1.006922e-01
     vertex  1.988997e-01  2.620958e-01  1.006922e-01
   endloop
 endfacet
 facet normal -1.493261e-11  1.493261e-11  1.000000e+00
   outer loop
     vertex  1.979481e-01  2.611441e-01  1.006922e-01
     vertex  1.975997e-01  2.598441e-01  1.006922e-01
     vertex  2.001997e-01  2.624441e-01  1.006922e-01
   endloop
 endfacet
 facet normal -7.071068e-01  7.071068e-01  0.000000e+00
   outer loop
     vertex  2.075997e-01  1.969441e-01  1.006922e-01
     vertex  2.050997e-01  1.944441e-01  9.569224e-02
     vertex  2.050997e-01  1.944441e-01  1.006922e-01
   endloop
 endfacet
 facet normal -7.071068e-01  7.071068e-01  0.000000e+00
   outer loop
     vertex  2.075997e-01  1.969441e-01  1.006922e-01
     vertex  2.075997e-01  1.969441e-01  9.569224e-02
     vertex  2.050997e-01  1.944441e-01  9.569224e-02
   endloop
 endfacet
 facet normal -7.071068e-01 -7.071068e-01 -0.000000e+00
   outer loop
     vertex  2.050997e-01  1.994441e-01  1.006922e-01
     vertex  2.050997e-01  1.994441e-01  9.569224e-02
     vertex  2.075997e-01  1.969441e-01  9.569224e-02
   endloop
 endfacet
 facet normal -7.071068e-01 -7.071068e-01  0.000000e+00
   outer loop
     vertex  2.050997e-01  1.994441e-01  1.006922e-01
     vertex  2.075997e-01  1.969441e-01  9.569224e-02
     vertex  2.075997e-01  1.969441e-01  1.006922e-01
   endloop
 endfacet
 facet normal  7.071068e-01 -7.071068e-01  0.000000e+00
   outer loop
     vertex  2.025997e-01  1.969441e-01  1.006922e-01
     vertex  2.025997e-01  1.969441e-01  9.569224e-02
     vertex  2.050997e-01  1.994441e-01  9.569224e-02
   endloop
 endfacet
 facet normal  7.071068e-01 -7.071068e-01  0.000000e+00
   outer loop
     vertex  2.025997e-01  1.969441e-01  1.006922e-01
     vertex  2.050997e-01  1.994441e-01  9.569224e-02
     vertex  2.050997e-01  1.994441e-01  1.006922e-01
   endloop
 endfacet
 facet normal  7.071068e-01  7.071068e-01  0.000000e+00
   outer loop
     vertex  2.050997e-01  1.944441e-01  1.006922e-01
     vertex  2.050997e-01  1.944441e-01  9.569224e-02
     vertex  2.025997e-01  1.969441e-01  9.569224e-02
   endloop
 endfacet
 facet normal  7.071068e-01  7.071068e-01  0.000000e+00
   outer loop
     vertex  2.050997e-01  1.944441e-01  1.006922e-01
     vertex  2.025997e-01  1.969441e-01  9.569224e-02
     vertex  2.025997e-01  1.969441e-01  1.006922e-01
   endloop
 endfacet
 facet normal -7.071068e-01  7.071068e-01  0.000000e+00
   outer loop
     vertex  2.075997e-01  2.549441e-01  1.006922e-01
     vertex  2.050997e-01  2.524441e-01  9.569224e-02
     vertex  2.050997e-01  2.524441e-01  1.006922e-01
   endloop
 endfacet
 facet normal -7.071068e-01  7.071068e-01  0.000000e+00
   outer loop
     vertex  2.075997e-01  2.549441e-01  1.006922e-01
     vertex  2.075997e-01  2.549441e-01  9.569224e-02
     vertex  2.050997e-01  2.524441e-01  9.569224e-02
   endloop
 endfacet
 facet normal -7.071068e-01 -7.071068e-01 -0.000000e+00
   outer loop
     vertex  2.050997e-01  2.574441e-01  1.006922e-01
     vertex  2.050997e-01  2.574441e-01  9.569224e-02
     vertex  2.075997e-01  2.549441e-01  9.569224e-02
   endloop
 endfacet
 facet normal -7.071068e-01 -7.071068e-01  0.000000e+00
   outer loop
     vertex  2.050997e-01  2.574441e-01  1.006922e-01
     vertex  2.075997e-01  2.549441e-01  9.569224e-02
     vertex  2.075997e-01  2.549441e-01  1.006922e-01
   endloop
 endfacet
 facet normal  7.071068e-01 -7.071068e-01  0.000000e+00
   outer loop
     vertex  2.025997e-01  2.549441e-01  1.006922e-01
     vertex  2.025997e-01  2.549441e-01  9.569224e-02
     vertex  2.050997e-01  2.574441e-01  9.569224e-02
   endloop
 endfacet
 facet normal  7.071068e-01 -7.071068e-01  0.000000e+00
   outer loop
     vertex  2.025997e-01  2.549441e-01  1.006922e-01
     vertex  2.050997e-01  2.574441e-01  9.569224e-02
     vertex  2.050997e-01  2.574441e-01  1.006922e-01
   endloop
 endfacet
 facet normal  7.071068e-01  7.071068e-01  0.000000e+00
   outer loop
     vertex  2.050997e-01  2.524441e-01  1.006922e-01
     vertex  2.050997e-01  2.524441e-01  9.569224e-02
     vertex  2.025997e-01  2.549441e-01  9.569224e-02
   endloop
 endfacet
 facet normal  7.071068e-01  7.071068e-01  0.000000e+00
   outer loop
     vertex  2.050997e-01  2.524441e-01  1.006922e-01
     vertex  2.025997e-01  2.549441e-01  9.569224e-02
     vertex  2.025997e-01  2.549441e-01  1.006922e-01
   endloop
 endfacet
 facet normal -7.071068e-01  7.071068e-01  0.000000e+00
   outer loop
     vertex  2.655997e-01  2.549441e-01  1.006922e-01
     vertex  2.630997e-01  2.524441e-01  9.569224e-02
     vertex  2.630997e-01  2.524441e-01  1.006922e-01
   endloop
 endfacet
 facet normal -7.071068e-01  7.071068e-01  0.000000e+00
   outer loop
     vertex  2.655997e-01  2.549441e-01  1.006922e-01
     vertex  2.655997e-01  2.549441e-01  9.569224e-02
     vertex  2.630997e-01  2.524441e-01  9.569224e-02
   endloop
 endfacet
 facet normal -7.071068e-01 -7.071068e-01 -0.000000e+00
   outer loop
     vertex  2.630997e-01  2.574441e-01  1.006922e-01
     vertex  2.630997e-01  2.574441e-01  9.569224e-02
     vertex  2.655997e-01  2.549441e-01  9.569224e-02
   endloop
 endfacet
 facet normal -7.071068e-01 -7.071068e-01  0.000000e+00
   outer loop
     vertex  2.630997e-01  2.574441e-01  1.006922e-01
     vertex  2.655997e-01  2.549441e-01  9.569224e-02
     vertex  2.655997e-01  2.549441e-01  1.006922e-01
   endloop
 endfacet
 facet normal  7.071068e-01 -7.071068e-01  0.000000e+00
   outer loop
     vertex  2.605997e-01  2.549441e-01  1.006922e-01
     vertex  2.605997e-01  2.549441e-01  9.569224e-02
     vertex  2.630997e-01  2.574441e-01  9.569224e-02
   endloop
 endfacet
 facet normal  7.071068e-01 -7.071068e-01  0.000000e+00
   outer loop
     vertex  2.605997e-01  2.549441e-01  1.006922e-01
     vertex  2.630997e-01  2.574441e-01  9.569224e-02
     vertex  2.630997e-01  2.574441e-01  1.006922e-01
   endloop
 endfacet
 facet normal  7.071068e-01  7.071068e-01  0.000000e+00
   outer loop
     vertex  2.630997e-01  2.524441e-01  1.006922e-01
     vertex  2.630997e-01  2.524441e-01  9.569224e-02
     vertex  2.605997e-01  2.549441e-01  9.569224e-02
   endloop
 endfacet
 facet normal  7.071068e-01  7.071068e-01  0.000000e+00
   outer loop
     vertex  2.630997e-01  2.524441e-01  1.006922e-01
     vertex  2.605997e-01  2.549441e-01  9.569224e-02
     vertex  2.605997e-01  2.549441e-01  1.006922e-01
   endloop
 endfacet
 facet normal -7.071068e-01  7.071068e-01  0.000000e+00
   outer loop
     vertex  2.655997e-01  1.969441e-01  1.006922e-01
     vertex  2.630997e-01  1.944441e-01  9.569224e-02
     vertex  2.630997e-01  1.944441e-01  1.006922e-01
   endloop
 endfacet
 facet normal -7.071068e-01  7.071068e-01  0.000000e+00
   outer loop
     vertex  2.655997e-01  1.969441e-01  1.006922e-01
     vertex  2.655997e-01  1.969441e-01  9.569224e-02
     vertex  2.630997e-01  1.944441e-01  9.569224e-02
   endloop
 endfacet
 facet normal -7.071068e-01 -7.071068e-01 -0.000000e+00
   outer loop
     vertex  2.630997e-01  1.994441e-01  1.006922e-01
     vertex  2.630997e-01  1.994441e-01  9.569224e-02
     vertex  2.655997e-01  1.969441e-01  9.569224e-02
   endloop
 endfacet
 facet normal -7.071068e-01 -7.071068e-01  0.000000e+00
   outer loop
     vertex  2.630997e-01  1.994441e-01  1.006922e-01
     vertex  2.655997e-01  1.969441e-01  9.569224e-02
     vertex  2.655997e-01  1.969441e-01  1.006922e-01
   endloop
 endfacet
 facet normal  7.071068e-01 -7.071068e-01  0.000000e+00
   outer loop
     vertex  2.605997e-01  1.969441e-01  1.006922e-01
     vertex  2.605997e-01  1.969441e-01  9.569224e-02
     vertex  2.630997e-01  1.994441e-01  9.569224e-02
   endloop
 endfacet
 facet normal  7.071068e-01 -7.071068e-01  0.000000e+00
   outer loop
     vertex  2.605997e-01  1.969441e-01  1.006922e-01
     vertex  2.630997e-01  1.994441e-01  9.569224e-02
     vertex  2.630997e-01  1.994441e-01  1.006922e-01
   endloop
 endfacet
 facet normal  7.071068e-01  7.071068e-01  0.000000e+00
   outer loop
     vertex  2.630997e-01  1.944441e-01  1.006922e-01
     vertex  2.630997e-01  1.944441e-01  9.569224e-02
     vertex  2.605997e-01  1.969441e-01  9.569224e-02
   endloop
 endfacet
 facet normal  7.071068e-01  7.071068e-01  0.000000e+00
   outer loop
     vertex  2.630997e-01  1.944441e-01  1.006922e-01
     vertex  2.605997e-01  1.969441e-01  9.569224e-02
     vertex  2.605997e-01  1.969441e-01  1.006922e-01
   endloop
 endfacet
endsolid
