solid 
 facet normal -1.000000e+00  0.000000e+00  0.000000e+00
   outer loop
     vertex -2.194003e-01  4.724415e-02  1.594321e+00
     vertex -2.194003e-01  4.564415e-02  1.590692e+00
     vertex -2.194003e-01  4.404415e-02  1.591121e+00
   endloop
 endfacet
 facet normal -1.000000e+00  0.000000e+00  0.000000e+00
   outer loop
     vertex -2.194003e-01  4.724415e-02  1.594321e+00
     vertex -2.194003e-01  4.404415e-02  1.591121e+00
     vertex -2.194003e-01  4.287287e-02  1.592292e+00
   endloop
 endfacet
 facet normal -1.000000e+00  0.000000e+00  0.000000e+00
   outer loop
     vertex -2.194003e-01  4.607287e-02  1.595492e+00
     vertex -2.194003e-01  4.287287e-02  1.592292e+00
     vertex -2.194003e-01  4.244415e-02  1.593892e+00
   endloop
 endfacet
 facet normal -1.000000e+00  0.000000e+00 -0.000000e+00
   outer loop
     vertex -2.194003e-01  4.607287e-02  1.595492e+00
     vertex -2.194003e-01  4.724415e-02  1.594321e+00
     vertex -2.194003e-01  4.287287e-02  1.592292e+00
   endloop
 endfacet
 facet normal -1.000000e+00 -0.000000e+00  0.000000e+00
   outer loop
     vertex -2.194003e-01  4.884415e-02  1.593892e+00
     vertex -2.194003e-01  4.564415e-02  1.590692e+00
     vertex -2.194003e-01  4.724415e-02  1.594321e+00
   endloop
 endfacet
 facet normal -1.000000e+00  0.000000e+00 -0.000000e+00
   outer loop
     vertex -2.194003e-01  4.564415e-02  1.597092e+00
     vertex -2.194003e-01  4.607287e-02  1.595492e+00
     vertex -2.194003e-01  4.244415e-02  1.593892e+00
   endloop
 endfacet
 facet normal -1.000000e+00  0.000000e+00 -0.000000e+00
   outer loop
     vertex -2.194003e-01  4.564415e-02  1.624292e+00
     vertex -2.194003e-01  4.564415e-02  1.597092e+00
     vertex -2.194003e-01  4.244415e-02  1.593892e+00
   endloop
 endfacet
 facet normal -1.000000e+00  0.000000e+00  0.000000e+00
   outer loop
     vertex -2.194003e-01  4.244415e-02  1.627492e+00
     vertex -2.194003e-01  4.564415e-02  1.624292e+00
     vertex -2.194003e-01  4.244415e-02  1.593892e+00
   endloop
 endfacet
 facet normal -1.000000e+00 -0.000000e+00  0.000000e+00
   outer loop
     vertex -2.194003e-01  4.607287e-02  1.625892e+00
     vertex -2.194003e-01  4.564415e-02  1.624292e+00
     vertex -2.194003e-01  4.244415e-02  1.627492e+00
   endloop
 endfacet
 facet normal -1.000000e+00  0.000000e+00 -0.000000e+00
   outer loop
     vertex -2.194003e-01  4.287287e-02  1.629092e+00
     vertex -2.194003e-01  4.607287e-02  1.625892e+00
     vertex -2.194003e-01  4.244415e-02  1.627492e+00
   endloop
 endfacet
 facet normal -1.000000e+00 -0.000000e+00  0.000000e+00
   outer loop
     vertex -2.194003e-01  4.724415e-02  1.627064e+00
     vertex -2.194003e-01  4.607287e-02  1.625892e+00
     vertex -2.194003e-01  4.287287e-02  1.629092e+00
   endloop
 endfacet
 facet normal -1.000000e+00  0.000000e+00 -0.000000e+00
   outer loop
     vertex -2.194003e-01  4.404415e-02  1.630264e+00
     vertex -2.194003e-01  4.724415e-02  1.627064e+00
     vertex -2.194003e-01  4.287287e-02  1.629092e+00
   endloop
 endfacet
 facet normal -1.000000e+00  0.000000e+00  0.000000e+00
   outer loop
     vertex -2.194003e-01  4.564415e-02  1.630692e+00
     vertex -2.194003e-01  4.884415e-02  1.627492e+00
     vertex -2.194003e-01  4.724415e-02  1.627064e+00
   endloop
 endfacet
 facet normal -1.000000e+00  0.000000e+00 -0.000000e+00
   outer loop
     vertex -2.194003e-01  4.564415e-02  1.630692e+00
     vertex -2.194003e-01  4.724415e-02  1.627064e+00
     vertex -2.194003e-01  4.404415e-02  1.630264e+00
   endloop
 endfacet
 facet normal -1.000000e+00  0.000000e+00 -0.000000e+00
   outer loop
     vertex -2.194003e-01  9.604415e-02  1.593892e+00
     vertex -2.194003e-01  9.924415e-02  1.590692e+00
     vertex -2.194003e-01  4.564415e-02  1.590692e+00
   endloop
 endfacet
 facet normal -1.000000e+00 -0.000000e+00  0.000000e+00
   outer loop
     vertex -2.194003e-01  9.604415e-02  1.593892e+00
     vertex -2.194003e-01  4.564415e-02  1.590692e+00
     vertex -2.194003e-01  4.884415e-02  1.593892e+00
   endloop
 endfacet
 facet normal -1.000000e+00  0.000000e+00  0.000000e+00
   outer loop
     vertex -2.194003e-01  9.764415e-02  1.594321e+00
     vertex -2.194003e-01  1.008441e-01  1.591121e+00
     vertex -2.194003e-01  9.924415e-02  1.590692e+00
   endloop
 endfacet
 facet normal -1.000000e+00  0.000000e+00 -0.000000e+00
   outer loop
     vertex -2.194003e-01  9.764415e-02  1.594321e+00
     vertex -2.194003e-01  9.924415e-02  1.590692e+00
     vertex -2.194003e-01  9.604415e-02  1.593892e+00
   endloop
 endfacet
 facet normal -1.000000e+00 -0.000000e+00  0.000000e+00
   outer loop
     vertex -2.194003e-01  1.020154e-01  1.592292e+00
     vertex -2.194003e-01  1.008441e-01  1.591121e+00
     vertex -2.194003e-01  9.764415e-02  1.594321e+00
   endloop
 endfacet
 facet normal -1.000000e+00  0.000000e+00 -0.000000e+00
   outer loop
     vertex -2.194003e-01  9.881543e-02  1.595492e+00
     vertex -2.194003e-01  1.020154e-01  1.592292e+00
     vertex -2.194003e-01  9.764415e-02  1.594321e+00
   endloop
 endfacet
 facet normal -1.000000e+00 -0.000000e+00  0.000000e+00
   outer loop
     vertex -2.194003e-01  1.024441e-01  1.593892e+00
     vertex -2.194003e-01  1.020154e-01  1.592292e+00
     vertex -2.194003e-01  9.881543e-02  1.595492e+00
   endloop
 endfacet
 facet normal -1.000000e+00  0.000000e+00 -0.000000e+00
   outer loop
     vertex -2.194003e-01  9.924415e-02  1.597092e+00
     vertex -2.194003e-01  1.024441e-01  1.593892e+00
     vertex -2.194003e-01  9.881543e-02  1.595492e+00
   endloop
 endfacet
 facet normal -1.000000e+00  0.000000e+00  0.000000e+00
   outer loop
     vertex -2.194003e-01  1.024441e-01  1.627492e+00
     vertex -2.194003e-01  9.924415e-02  1.624292e+00
     vertex -2.194003e-01  9.881543e-02  1.625892e+00
   endloop
 endfacet
 facet normal -1.000000e+00  0.000000e+00  0.000000e+00
   outer loop
     vertex -2.194003e-01  1.024441e-01  1.627492e+00
     vertex -2.194003e-01  9.924415e-02  1.597092e+00
     vertex -2.194003e-01  9.924415e-02  1.624292e+00
   endloop
 endfacet
 facet normal -1.000000e+00  0.000000e+00 -0.000000e+00
   outer loop
     vertex -2.194003e-01  1.024441e-01  1.627492e+00
     vertex -2.194003e-01  1.024441e-01  1.593892e+00
     vertex -2.194003e-01  9.924415e-02  1.597092e+00
   endloop
 endfacet
 facet normal -1.000000e+00  0.000000e+00  0.000000e+00
   outer loop
     vertex -2.194003e-01  9.924415e-02  1.630692e+00
     vertex -2.194003e-01  9.764415e-02  1.627064e+00
     vertex -2.194003e-01  9.604415e-02  1.627492e+00
   endloop
 endfacet
 facet normal -1.000000e+00  0.000000e+00  0.000000e+00
   outer loop
     vertex -2.194003e-01  9.924415e-02  1.630692e+00
     vertex -2.194003e-01  9.604415e-02  1.627492e+00
     vertex -2.194003e-01  4.884415e-02  1.627492e+00
   endloop
 endfacet
 facet normal -1.000000e+00 -0.000000e+00  0.000000e+00
   outer loop
     vertex -2.194003e-01  9.924415e-02  1.630692e+00
     vertex -2.194003e-01  4.884415e-02  1.627492e+00
     vertex -2.194003e-01  4.564415e-02  1.630692e+00
   endloop
 endfacet
 facet normal -1.000000e+00  0.000000e+00  0.000000e+00
   outer loop
     vertex -2.194003e-01  1.020154e-01  1.629092e+00
     vertex -2.194003e-01  9.881543e-02  1.625892e+00
     vertex -2.194003e-01  9.764415e-02  1.627064e+00
   endloop
 endfacet
 facet normal -1.000000e+00  0.000000e+00 -0.000000e+00
   outer loop
     vertex -2.194003e-01  1.020154e-01  1.629092e+00
     vertex -2.194003e-01  1.024441e-01  1.627492e+00
     vertex -2.194003e-01  9.881543e-02  1.625892e+00
   endloop
 endfacet
 facet normal -1.000000e+00 -0.000000e+00  0.000000e+00
   outer loop
     vertex -2.194003e-01  1.008441e-01  1.630264e+00
     vertex -2.194003e-01  9.764415e-02  1.627064e+00
     vertex -2.194003e-01  9.924415e-02  1.630692e+00
   endloop
 endfacet
 facet normal -1.000000e+00  0.000000e+00 -0.000000e+00
   outer loop
     vertex -2.194003e-01  1.008441e-01  1.630264e+00
     vertex -2.194003e-01  1.020154e-01  1.629092e+00
     vertex -2.194003e-01  9.764415e-02  1.627064e+00
   endloop
 endfacet
 facet normal -0.000000e+00  0.000000e+00 -1.000000e+00
   outer loop
     vertex -1.594003e-01  7.244415e-02  1.627492e+00
     vertex -2.194003e-01  4.884415e-02  1.627492e+00
     vertex -2.194003e-01  9.604415e-02  1.627492e+00
   endloop
 endfacet
 facet normal  0.000000e+00 -0.000000e+00 -1.000000e+00
   outer loop
     vertex -1.594003e-01  7.244415e-02  1.627492e+00
     vertex -1.494003e-01  6.244415e-02  1.627492e+00
     vertex -2.194003e-01  4.884415e-02  1.627492e+00
   endloop
 endfacet
 facet normal -0.000000e+00  0.000000e+00 -1.000000e+00
   outer loop
     vertex -1.494003e-01  8.244415e-02  1.627492e+00
     vertex -1.594003e-01  7.244415e-02  1.627492e+00
     vertex -2.194003e-01  9.604415e-02  1.627492e+00
   endloop
 endfacet
 facet normal -0.000000e+00  0.000000e+00 -1.000000e+00
   outer loop
     vertex -8.233277e-02  6.824415e-02  1.627492e+00
     vertex -1.494003e-01  6.244415e-02  1.627492e+00
     vertex -1.394003e-01  7.244415e-02  1.627492e+00
   endloop
 endfacet
 facet normal  0.000000e+00  0.000000e+00 -1.000000e+00
   outer loop
     vertex -8.233277e-02  6.824415e-02  1.627492e+00
     vertex -1.394003e-01  7.244415e-02  1.627492e+00
     vertex -8.653277e-02  7.244415e-02  1.627492e+00
   endloop
 endfacet
 facet normal -0.000000e+00  0.000000e+00 -1.000000e+00
   outer loop
     vertex -8.233277e-02  7.664415e-02  1.627492e+00
     vertex -1.394003e-01  7.244415e-02  1.627492e+00
     vertex -1.494003e-01  8.244415e-02  1.627492e+00
   endloop
 endfacet
 facet normal  0.000000e+00  0.000000e+00 -1.000000e+00
   outer loop
     vertex -8.233277e-02  7.664415e-02  1.627492e+00
     vertex -8.653277e-02  7.244415e-02  1.627492e+00
     vertex -1.394003e-01  7.244415e-02  1.627492e+00
   endloop
 endfacet
 facet normal  0.000000e+00  0.000000e+00 -1.000000e+00
   outer loop
     vertex  4.353223e-02  6.824415e-02  1.627492e+00
     vertex -8.233277e-02  6.824415e-02  1.627492e+00
     vertex -7.813277e-02  7.244415e-02  1.627492e+00
   endloop
 endfacet
 facet normal  0.000000e+00  0.000000e+00 -1.000000e+00
   outer loop
     vertex  4.353223e-02  6.824415e-02  1.627492e+00
     vertex -7.813277e-02  7.244415e-02  1.627492e+00
     vertex  3.933223e-02  7.244415e-02  1.627492e+00
   endloop
 endfacet
 facet normal -0.000000e+00  0.000000e+00 -1.000000e+00
   outer loop
     vertex  4.353223e-02  7.664415e-02  1.627492e+00
     vertex -7.813277e-02  7.244415e-02  1.627492e+00
     vertex -8.233277e-02  7.664415e-02  1.627492e+00
   endloop
 endfacet
 facet normal  0.000000e+00  0.000000e+00 -1.000000e+00
   outer loop
     vertex  4.353223e-02  7.664415e-02  1.627492e+00
     vertex  3.933223e-02  7.244415e-02  1.627492e+00
     vertex -7.813277e-02  7.244415e-02  1.627492e+00
   endloop
 endfacet
 facet normal -0.000000e+00  0.000000e+00 -1.000000e+00
   outer loop
     vertex  1.005997e-01  7.244415e-02  1.627492e+00
     vertex  4.353223e-02  6.824415e-02  1.627492e+00
     vertex  4.773223e-02  7.244415e-02  1.627492e+00
   endloop
 endfacet
 facet normal  0.000000e+00  0.000000e+00 -1.000000e+00
   outer loop
     vertex  1.005997e-01  7.244415e-02  1.627492e+00
     vertex  4.773223e-02  7.244415e-02  1.627492e+00
     vertex  4.353223e-02  7.664415e-02  1.627492e+00
   endloop
 endfacet
 facet normal  0.000000e+00  0.000000e+00 -1.000000e+00
   outer loop
     vertex  1.105997e-01  6.244415e-02  1.627492e+00
     vertex  4.353223e-02  6.824415e-02  1.627492e+00
     vertex  1.005997e-01  7.244415e-02  1.627492e+00
   endloop
 endfacet
 facet normal  0.000000e+00  0.000000e+00 -1.000000e+00
   outer loop
     vertex  1.105997e-01  8.244415e-02  1.627492e+00
     vertex  1.005997e-01  7.244415e-02  1.627492e+00
     vertex  4.353223e-02  7.664415e-02  1.627492e+00
   endloop
 endfacet
 facet normal  0.000000e+00  0.000000e+00 -1.000000e+00
   outer loop
     vertex  1.805997e-01  4.884415e-02  1.627492e+00
     vertex  1.105997e-01  6.244415e-02  1.627492e+00
     vertex  1.205997e-01  7.244415e-02  1.627492e+00
   endloop
 endfacet
 facet normal  0.000000e+00  0.000000e+00 -1.000000e+00
   outer loop
     vertex  1.805997e-01  9.604415e-02  1.627492e+00
     vertex  1.205997e-01  7.244415e-02  1.627492e+00
     vertex  1.105997e-01  8.244415e-02  1.627492e+00
   endloop
 endfacet
 facet normal  0.000000e+00 -0.000000e+00 -1.000000e+00
   outer loop
     vertex  1.805997e-01  9.604415e-02  1.627492e+00
     vertex  1.805997e-01  4.884415e-02  1.627492e+00
     vertex  1.205997e-01  7.244415e-02  1.627492e+00
   endloop
 endfacet
 facet normal  0.000000e+00  0.000000e+00 -1.000000e+00
   outer loop
     vertex  1.805997e-01  4.884415e-02  1.627492e+00
     vertex -2.194003e-01  4.884415e-02  1.627492e+00
     vertex -1.494003e-01  6.244415e-02  1.627492e+00
   endloop
 endfacet
 facet normal  0.000000e+00  0.000000e+00 -1.000000e+00
   outer loop
     vertex  1.805997e-01  4.884415e-02  1.627492e+00
     vertex -1.494003e-01  6.244415e-02  1.627492e+00
     vertex -8.233277e-02  6.824415e-02  1.627492e+00
   endloop
 endfacet
 facet normal  0.000000e+00  0.000000e+00 -1.000000e+00
   outer loop
     vertex  1.805997e-01  4.884415e-02  1.627492e+00
     vertex -8.233277e-02  6.824415e-02  1.627492e+00
     vertex  1.105997e-01  6.244415e-02  1.627492e+00
   endloop
 endfacet
 facet normal  0.000000e+00  0.000000e+00 -1.000000e+00
   outer loop
     vertex  1.105997e-01  6.244415e-02  1.627492e+00
     vertex -8.233277e-02  6.824415e-02  1.627492e+00
     vertex  4.353223e-02  6.824415e-02  1.627492e+00
   endloop
 endfacet
 facet normal  0.000000e+00  0.000000e+00 -1.000000e+00
   outer loop
     vertex -2.194003e-01  9.604415e-02  1.627492e+00
     vertex  1.805997e-01  9.604415e-02  1.627492e+00
     vertex  1.105997e-01  8.244415e-02  1.627492e+00
   endloop
 endfacet
 facet normal  0.000000e+00  0.000000e+00 -1.000000e+00
   outer loop
     vertex -2.194003e-01  9.604415e-02  1.627492e+00
     vertex  1.105997e-01  8.244415e-02  1.627492e+00
     vertex  4.353223e-02  7.664415e-02  1.627492e+00
   endloop
 endfacet
 facet normal  0.000000e+00  0.000000e+00 -1.000000e+00
   outer loop
     vertex -2.194003e-01  9.604415e-02  1.627492e+00
     vertex  4.353223e-02  7.664415e-02  1.627492e+00
     vertex -1.494003e-01  8.244415e-02  1.627492e+00
   endloop
 endfacet
 facet normal  0.000000e+00  0.000000e+00 -1.000000e+00
   outer loop
     vertex -1.494003e-01  8.244415e-02  1.627492e+00
     vertex  4.353223e-02  7.664415e-02  1.627492e+00
     vertex -8.233277e-02  7.664415e-02  1.627492e+00
   endloop
 endfacet
 facet normal  0.000000e+00  2.588190e-01 -9.659258e-01
   outer loop
     vertex  1.805997e-01  4.724415e-02  1.627064e+00
     vertex -2.194003e-01  4.724415e-02  1.627064e+00
     vertex -2.194003e-01  4.884415e-02  1.627492e+00
   endloop
 endfacet
 facet normal  0.000000e+00  2.588190e-01 -9.659258e-01
   outer loop
     vertex  1.805997e-01  4.724415e-02  1.627064e+00
     vertex -2.194003e-01  4.884415e-02  1.627492e+00
     vertex  1.805997e-01  4.884415e-02  1.627492e+00
   endloop
 endfacet
 facet normal  0.000000e+00  7.071068e-01 -7.071068e-01
   outer loop
     vertex  1.805997e-01  4.607287e-02  1.625892e+00
     vertex -2.194003e-01  4.607287e-02  1.625892e+00
     vertex -2.194003e-01  4.724415e-02  1.627064e+00
   endloop
 endfacet
 facet normal  0.000000e+00  7.071068e-01 -7.071068e-01
   outer loop
     vertex  1.805997e-01  4.607287e-02  1.625892e+00
     vertex -2.194003e-01  4.724415e-02  1.627064e+00
     vertex  1.805997e-01  4.724415e-02  1.627064e+00
   endloop
 endfacet
 facet normal  0.000000e+00  9.659258e-01 -2.588190e-01
   outer loop
     vertex  1.805997e-01  4.564415e-02  1.624292e+00
     vertex -2.194003e-01  4.564415e-02  1.624292e+00
     vertex -2.194003e-01  4.607287e-02  1.625892e+00
   endloop
 endfacet
 facet normal  0.000000e+00  9.659258e-01 -2.588190e-01
   outer loop
     vertex  1.805997e-01  4.564415e-02  1.624292e+00
     vertex -2.194003e-01  4.607287e-02  1.625892e+00
     vertex  1.805997e-01  4.607287e-02  1.625892e+00
   endloop
 endfacet
 facet normal  0.000000e+00  1.000000e+00  0.000000e+00
   outer loop
     vertex  1.805997e-01  4.564415e-02  1.624292e+00
     vertex  1.805997e-01  4.564415e-02  1.597092e+00
     vertex -2.194003e-01  4.564415e-02  1.597092e+00
   endloop
 endfacet
 facet normal  0.000000e+00  1.000000e+00  0.000000e+00
   outer loop
     vertex  1.805997e-01  4.564415e-02  1.624292e+00
     vertex -2.194003e-01  4.564415e-02  1.597092e+00
     vertex -2.194003e-01  4.564415e-02  1.624292e+00
   endloop
 endfacet
 facet normal  0.000000e+00  9.659258e-01  2.588190e-01
   outer loop
     vertex  1.805997e-01  4.607287e-02  1.595492e+00
     vertex -2.194003e-01  4.607287e-02  1.595492e+00
     vertex -2.194003e-01  4.564415e-02  1.597092e+00
   endloop
 endfacet
 facet normal  0.000000e+00  9.659258e-01  2.588190e-01
   outer loop
     vertex  1.805997e-01  4.607287e-02  1.595492e+00
     vertex -2.194003e-01  4.564415e-02  1.597092e+00
     vertex  1.805997e-01  4.564415e-02  1.597092e+00
   endloop
 endfacet
 facet normal  0.000000e+00  7.071068e-01  7.071068e-01
   outer loop
     vertex  1.805997e-01  4.724415e-02  1.594321e+00
     vertex -2.194003e-01  4.724415e-02  1.594321e+00
     vertex -2.194003e-01  4.607287e-02  1.595492e+00
   endloop
 endfacet
 facet normal  0.000000e+00  7.071068e-01  7.071068e-01
   outer loop
     vertex  1.805997e-01  4.724415e-02  1.594321e+00
     vertex -2.194003e-01  4.607287e-02  1.595492e+00
     vertex  1.805997e-01  4.607287e-02  1.595492e+00
   endloop
 endfacet
 facet normal  0.000000e+00  2.588190e-01  9.659258e-01
   outer loop
     vertex  1.805997e-01  4.884415e-02  1.593892e+00
     vertex -2.194003e-01  4.884415e-02  1.593892e+00
     vertex -2.194003e-01  4.724415e-02  1.594321e+00
   endloop
 endfacet
 facet normal  0.000000e+00  2.588190e-01  9.659258e-01
   outer loop
     vertex  1.805997e-01  4.884415e-02  1.593892e+00
     vertex -2.194003e-01  4.724415e-02  1.594321e+00
     vertex  1.805997e-01  4.724415e-02  1.594321e+00
   endloop
 endfacet
 facet normal  6.418683e-12  1.631868e-11  1.000000e+00
   outer loop
     vertex -1.594003e-01  7.244415e-02  1.593892e+00
     vertex -1.494003e-01  8.244415e-02  1.593892e+00
     vertex -2.194003e-01  9.604415e-02  1.593892e+00
   endloop
 endfacet
 facet normal  4.499826e-12  0.000000e+00  1.000000e+00
   outer loop
     vertex -1.688708e-01  5.547359e-02  1.593892e+00
     vertex -2.194003e-01  9.604415e-02  1.593892e+00
     vertex -2.194003e-01  4.884415e-02  1.593892e+00
   endloop
 endfacet
 facet normal -4.321374e-12 -1.098654e-11  1.000000e+00
   outer loop
     vertex -1.688708e-01  5.547359e-02  1.593892e+00
     vertex -1.594003e-01  7.244415e-02  1.593892e+00
     vertex -2.194003e-01  9.604415e-02  1.593892e+00
   endloop
 endfacet
 facet normal  3.031649e-11 -3.031649e-11  1.000000e+00
   outer loop
     vertex -1.688708e-01  5.547359e-02  1.593892e+00
     vertex -1.663708e-01  5.797359e-02  1.593892e+00
     vertex -1.594003e-01  7.244415e-02  1.593892e+00
   endloop
 endfacet
 facet normal  2.409380e-12 -4.317434e-12  1.000000e+00
   outer loop
     vertex -1.324297e-01  9.191471e-02  1.593892e+00
     vertex -2.194003e-01  9.604415e-02  1.593892e+00
     vertex -1.494003e-01  8.244415e-02  1.593892e+00
   endloop
 endfacet
 facet normal  0.000000e+00 -0.000000e+00  1.000000e+00
   outer loop
     vertex -1.349297e-01  8.941471e-02  1.593892e+00
     vertex -1.324297e-01  9.191471e-02  1.593892e+00
     vertex -1.494003e-01  8.244415e-02  1.593892e+00
   endloop
 endfacet
 facet normal  3.977924e-12  3.977924e-12  1.000000e+00
   outer loop
     vertex -1.663708e-01  5.297359e-02  1.593892e+00
     vertex -1.688708e-01  5.547359e-02  1.593892e+00
     vertex -2.194003e-01  4.884415e-02  1.593892e+00
   endloop
 endfacet
 facet normal -7.198613e-11  1.896334e-11  1.000000e+00
   outer loop
     vertex -1.638708e-01  5.547359e-02  1.593892e+00
     vertex -1.594003e-01  7.244415e-02  1.593892e+00
     vertex -1.663708e-01  5.797359e-02  1.593892e+00
   endloop
 endfacet
 facet normal  0.000000e+00  0.000000e+00  1.000000e+00
   outer loop
     vertex -1.394003e-01  7.244415e-02  1.593892e+00
     vertex -1.324297e-01  8.691471e-02  1.593892e+00
     vertex -1.349297e-01  8.941471e-02  1.593892e+00
   endloop
 endfacet
 facet normal  0.000000e+00 -0.000000e+00  1.000000e+00
   outer loop
     vertex -1.394003e-01  7.244415e-02  1.593892e+00
     vertex -1.349297e-01  8.941471e-02  1.593892e+00
     vertex -1.494003e-01  8.244415e-02  1.593892e+00
   endloop
 endfacet
 facet normal  1.148457e-10 -2.057952e-10  1.000000e+00
   outer loop
     vertex -1.494003e-01  6.244415e-02  1.593892e+00
     vertex -1.638708e-01  5.547359e-02  1.593892e+00
     vertex -1.663708e-01  5.297359e-02  1.593892e+00
   endloop
 endfacet
 facet normal  1.799653e-11 -4.740835e-12  1.000000e+00
   outer loop
     vertex -1.494003e-01  6.244415e-02  1.593892e+00
     vertex -1.594003e-01  7.244415e-02  1.593892e+00
     vertex -1.638708e-01  5.547359e-02  1.593892e+00
   endloop
 endfacet
 facet normal  3.987925e-11  1.308287e-10  1.000000e+00
   outer loop
     vertex -8.233277e-02  7.664415e-02  1.593892e+00
     vertex -1.324297e-01  9.191471e-02  1.593892e+00
     vertex -1.299297e-01  8.941471e-02  1.593892e+00
   endloop
 endfacet
 facet normal -2.556779e-11 -6.538168e-11  1.000000e+00
   outer loop
     vertex -8.653277e-02  7.244415e-02  1.593892e+00
     vertex -1.299297e-01  8.941471e-02  1.593892e+00
     vertex -1.324297e-01  8.691471e-02  1.593892e+00
   endloop
 endfacet
 facet normal  1.521892e-11  3.891767e-11  1.000000e+00
   outer loop
     vertex -8.653277e-02  7.244415e-02  1.593892e+00
     vertex -8.233277e-02  7.664415e-02  1.593892e+00
     vertex -1.299297e-01  8.941471e-02  1.593892e+00
   endloop
 endfacet
 facet normal -4.300821e-12  2.071733e-12  1.000000e+00
   outer loop
     vertex -8.653277e-02  7.244415e-02  1.593892e+00
     vertex -1.324297e-01  8.691471e-02  1.593892e+00
     vertex -1.394003e-01  7.244415e-02  1.593892e+00
   endloop
 endfacet
 facet normal  0.000000e+00  0.000000e+00  1.000000e+00
   outer loop
     vertex -8.233277e-02  6.824415e-02  1.593892e+00
     vertex -1.394003e-01  7.244415e-02  1.593892e+00
     vertex -1.494003e-01  6.244415e-02  1.593892e+00
   endloop
 endfacet
 facet normal  0.000000e+00  0.000000e+00  1.000000e+00
   outer loop
     vertex -8.233277e-02  6.824415e-02  1.593892e+00
     vertex -1.494003e-01  6.244415e-02  1.593892e+00
     vertex -1.663708e-01  5.297359e-02  1.593892e+00
   endloop
 endfacet
 facet normal -4.300821e-12 -5.843741e-11  1.000000e+00
   outer loop
     vertex -8.233277e-02  6.824415e-02  1.593892e+00
     vertex -8.653277e-02  7.244415e-02  1.593892e+00
     vertex -1.394003e-01  7.244415e-02  1.593892e+00
   endloop
 endfacet
 facet normal  0.000000e+00  0.000000e+00  1.000000e+00
   outer loop
     vertex  4.353223e-02  7.664415e-02  1.593892e+00
     vertex -8.233277e-02  7.664415e-02  1.593892e+00
     vertex -7.813277e-02  7.244415e-02  1.593892e+00
   endloop
 endfacet
 facet normal -1.935672e-12  5.607226e-11  1.000000e+00
   outer loop
     vertex  4.353223e-02  7.664415e-02  1.593892e+00
     vertex -7.813277e-02  7.244415e-02  1.593892e+00
     vertex  3.933223e-02  7.244415e-02  1.593892e+00
   endloop
 endfacet
 facet normal  0.000000e+00  0.000000e+00  1.000000e+00
   outer loop
     vertex  4.353223e-02  6.824415e-02  1.593892e+00
     vertex -7.813277e-02  7.244415e-02  1.593892e+00
     vertex -8.233277e-02  6.824415e-02  1.593892e+00
   endloop
 endfacet
 facet normal -1.935672e-12 -5.607226e-11  1.000000e+00
   outer loop
     vertex  4.353223e-02  6.824415e-02  1.593892e+00
     vertex  3.933223e-02  7.244415e-02  1.593892e+00
     vertex -7.813277e-02  7.244415e-02  1.593892e+00
   endloop
 endfacet
 facet normal -3.766491e-12 -3.766491e-12  1.000000e+00
   outer loop
     vertex  9.112917e-02  8.941471e-02  1.593892e+00
     vertex  4.353223e-02  7.664415e-02  1.593892e+00
     vertex  4.773223e-02  7.244415e-02  1.593892e+00
   endloop
 endfacet
 facet normal -3.987925e-11  1.308287e-10  1.000000e+00
   outer loop
     vertex  9.362917e-02  9.191471e-02  1.593892e+00
     vertex  4.353223e-02  7.664415e-02  1.593892e+00
     vertex  9.112917e-02  8.941471e-02  1.593892e+00
   endloop
 endfacet
 facet normal  2.180130e-11 -6.914817e-11  1.000000e+00
   outer loop
     vertex  9.362917e-02  8.691471e-02  1.593892e+00
     vertex  9.112917e-02  8.941471e-02  1.593892e+00
     vertex  4.773223e-02  7.244415e-02  1.593892e+00
   endloop
 endfacet
 facet normal  0.000000e+00  0.000000e+00  1.000000e+00
   outer loop
     vertex  1.105997e-01  8.244415e-02  1.593892e+00
     vertex  9.362917e-02  9.191471e-02  1.593892e+00
     vertex  9.612917e-02  8.941471e-02  1.593892e+00
   endloop
 endfacet
 facet normal  0.000000e+00  0.000000e+00  1.000000e+00
   outer loop
     vertex  1.005997e-01  7.244415e-02  1.593892e+00
     vertex  9.612917e-02  8.941471e-02  1.593892e+00
     vertex  9.362917e-02  8.691471e-02  1.593892e+00
   endloop
 endfacet
 facet normal  0.000000e+00  0.000000e+00  1.000000e+00
   outer loop
     vertex  1.005997e-01  7.244415e-02  1.593892e+00
     vertex  4.773223e-02  7.244415e-02  1.593892e+00
     vertex  4.353223e-02  6.824415e-02  1.593892e+00
   endloop
 endfacet
 facet normal  0.000000e+00  0.000000e+00  1.000000e+00
   outer loop
     vertex  1.005997e-01  7.244415e-02  1.593892e+00
     vertex  9.362917e-02  8.691471e-02  1.593892e+00
     vertex  4.773223e-02  7.244415e-02  1.593892e+00
   endloop
 endfacet
 facet normal  0.000000e+00 -0.000000e+00  1.000000e+00
   outer loop
     vertex  1.005997e-01  7.244415e-02  1.593892e+00
     vertex  1.105997e-01  8.244415e-02  1.593892e+00
     vertex  9.612917e-02  8.941471e-02  1.593892e+00
   endloop
 endfacet
 facet normal  0.000000e+00  0.000000e+00  1.000000e+00
   outer loop
     vertex  1.105997e-01  6.244415e-02  1.593892e+00
     vertex  1.005997e-01  7.244415e-02  1.593892e+00
     vertex  4.353223e-02  6.824415e-02  1.593892e+00
   endloop
 endfacet
 facet normal -1.799653e-11 -4.740835e-12  1.000000e+00
   outer loop
     vertex  1.250703e-01  5.547359e-02  1.593892e+00
     vertex  1.205997e-01  7.244415e-02  1.593892e+00
     vertex  1.105997e-01  6.244415e-02  1.593892e+00
   endloop
 endfacet
 facet normal  7.198613e-11  1.896334e-11  1.000000e+00
   outer loop
     vertex  1.275703e-01  5.797359e-02  1.593892e+00
     vertex  1.205997e-01  7.244415e-02  1.593892e+00
     vertex  1.250703e-01  5.547359e-02  1.593892e+00
   endloop
 endfacet
 facet normal -1.148457e-10 -2.057952e-10  1.000000e+00
   outer loop
     vertex  1.275703e-01  5.297359e-02  1.593892e+00
     vertex  1.250703e-01  5.547359e-02  1.593892e+00
     vertex  1.105997e-01  6.244415e-02  1.593892e+00
   endloop
 endfacet
 facet normal  0.000000e+00  0.000000e+00  1.000000e+00
   outer loop
     vertex  1.275703e-01  5.297359e-02  1.593892e+00
     vertex  1.105997e-01  6.244415e-02  1.593892e+00
     vertex  4.353223e-02  6.824415e-02  1.593892e+00
   endloop
 endfacet
 facet normal -3.031649e-11 -3.031649e-11  1.000000e+00
   outer loop
     vertex  1.300703e-01  5.547359e-02  1.593892e+00
     vertex  1.205997e-01  7.244415e-02  1.593892e+00
     vertex  1.275703e-01  5.797359e-02  1.593892e+00
   endloop
 endfacet
 facet normal  4.321374e-12 -1.098654e-11  1.000000e+00
   outer loop
     vertex  1.805997e-01  9.604415e-02  1.593892e+00
     vertex  1.205997e-01  7.244415e-02  1.593892e+00
     vertex  1.300703e-01  5.547359e-02  1.593892e+00
   endloop
 endfacet
 facet normal -6.418683e-12  1.631868e-11  1.000000e+00
   outer loop
     vertex  1.805997e-01  9.604415e-02  1.593892e+00
     vertex  1.105997e-01  8.244415e-02  1.593892e+00
     vertex  1.205997e-01  7.244415e-02  1.593892e+00
   endloop
 endfacet
 facet normal -2.409380e-12 -4.317434e-12  1.000000e+00
   outer loop
     vertex  1.805997e-01  9.604415e-02  1.593892e+00
     vertex  9.362917e-02  9.191471e-02  1.593892e+00
     vertex  1.105997e-01  8.244415e-02  1.593892e+00
   endloop
 endfacet
 facet normal -4.499826e-12  0.000000e+00  1.000000e+00
   outer loop
     vertex  1.805997e-01  4.884415e-02  1.593892e+00
     vertex  1.805997e-01  9.604415e-02  1.593892e+00
     vertex  1.300703e-01  5.547359e-02  1.593892e+00
   endloop
 endfacet
 facet normal -3.977924e-12  3.977924e-12  1.000000e+00
   outer loop
     vertex  1.805997e-01  4.884415e-02  1.593892e+00
     vertex  1.300703e-01  5.547359e-02  1.593892e+00
     vertex  1.275703e-01  5.297359e-02  1.593892e+00
   endloop
 endfacet
 facet normal  0.000000e+00 -5.506166e-11  1.000000e+00
   outer loop
     vertex  1.805997e-01  9.604415e-02  1.593892e+00
     vertex -2.194003e-01  9.604415e-02  1.593892e+00
     vertex -1.324297e-01  9.191471e-02  1.593892e+00
   endloop
 endfacet
 facet normal  0.000000e+00 -5.506166e-11  1.000000e+00
   outer loop
     vertex  1.805997e-01  9.604415e-02  1.593892e+00
     vertex -1.324297e-01  9.191471e-02  1.593892e+00
     vertex  9.362917e-02  9.191471e-02  1.593892e+00
   endloop
 endfacet
 facet normal  0.000000e+00  0.000000e+00  1.000000e+00
   outer loop
     vertex  9.362917e-02  9.191471e-02  1.593892e+00
     vertex -1.324297e-01  9.191471e-02  1.593892e+00
     vertex -8.233277e-02  7.664415e-02  1.593892e+00
   endloop
 endfacet
 facet normal  0.000000e+00  0.000000e+00  1.000000e+00
   outer loop
     vertex  9.362917e-02  9.191471e-02  1.593892e+00
     vertex -8.233277e-02  7.664415e-02  1.593892e+00
     vertex  4.353223e-02  7.664415e-02  1.593892e+00
   endloop
 endfacet
 facet normal -0.000000e+00  5.506166e-11  1.000000e+00
   outer loop
     vertex -2.194003e-01  4.884415e-02  1.593892e+00
     vertex  1.805997e-01  4.884415e-02  1.593892e+00
     vertex  1.275703e-01  5.297359e-02  1.593892e+00
   endloop
 endfacet
 facet normal  0.000000e+00  5.506166e-11  1.000000e+00
   outer loop
     vertex -2.194003e-01  4.884415e-02  1.593892e+00
     vertex  1.275703e-01  5.297359e-02  1.593892e+00
     vertex -1.663708e-01  5.297359e-02  1.593892e+00
   endloop
 endfacet
 facet normal  0.000000e+00  0.000000e+00  1.000000e+00
   outer loop
     vertex -1.663708e-01  5.297359e-02  1.593892e+00
     vertex  1.275703e-01  5.297359e-02  1.593892e+00
     vertex  4.353223e-02  6.824415e-02  1.593892e+00
   endloop
 endfacet
 facet normal  0.000000e+00  0.000000e+00  1.000000e+00
   outer loop
     vertex -1.663708e-01  5.297359e-02  1.593892e+00
     vertex  4.353223e-02  6.824415e-02  1.593892e+00
     vertex -8.233277e-02  6.824415e-02  1.593892e+00
   endloop
 endfacet
 facet normal  0.000000e+00 -2.588190e-01  9.659258e-01
   outer loop
     vertex  1.805997e-01  9.764415e-02  1.594321e+00
     vertex -2.194003e-01  9.764415e-02  1.594321e+00
     vertex -2.194003e-01  9.604415e-02  1.593892e+00
   endloop
 endfacet
 facet normal  0.000000e+00 -2.588190e-01  9.659258e-01
   outer loop
     vertex  1.805997e-01  9.764415e-02  1.594321e+00
     vertex -2.194003e-01  9.604415e-02  1.593892e+00
     vertex  1.805997e-01  9.604415e-02  1.593892e+00
   endloop
 endfacet
 facet normal  0.000000e+00 -7.071068e-01  7.071068e-01
   outer loop
     vertex  1.805997e-01  9.881543e-02  1.595492e+00
     vertex -2.194003e-01  9.881543e-02  1.595492e+00
     vertex -2.194003e-01  9.764415e-02  1.594321e+00
   endloop
 endfacet
 facet normal  0.000000e+00 -7.071068e-01  7.071068e-01
   outer loop
     vertex  1.805997e-01  9.881543e-02  1.595492e+00
     vertex -2.194003e-01  9.764415e-02  1.594321e+00
     vertex  1.805997e-01  9.764415e-02  1.594321e+00
   endloop
 endfacet
 facet normal  0.000000e+00 -9.659258e-01  2.588190e-01
   outer loop
     vertex  1.805997e-01  9.924415e-02  1.597092e+00
     vertex -2.194003e-01  9.924415e-02  1.597092e+00
     vertex -2.194003e-01  9.881543e-02  1.595492e+00
   endloop
 endfacet
 facet normal  0.000000e+00 -9.659258e-01  2.588190e-01
   outer loop
     vertex  1.805997e-01  9.924415e-02  1.597092e+00
     vertex -2.194003e-01  9.881543e-02  1.595492e+00
     vertex  1.805997e-01  9.881543e-02  1.595492e+00
   endloop
 endfacet
 facet normal  0.000000e+00 -1.000000e+00  0.000000e+00
   outer loop
     vertex  1.805997e-01  9.924415e-02  1.597092e+00
     vertex  1.805997e-01  9.924415e-02  1.624292e+00
     vertex -2.194003e-01  9.924415e-02  1.624292e+00
   endloop
 endfacet
 facet normal  0.000000e+00 -1.000000e+00  0.000000e+00
   outer loop
     vertex  1.805997e-01  9.924415e-02  1.597092e+00
     vertex -2.194003e-01  9.924415e-02  1.624292e+00
     vertex -2.194003e-01  9.924415e-02  1.597092e+00
   endloop
 endfacet
 facet normal -0.000000e+00 -9.659258e-01 -2.588190e-01
   outer loop
     vertex  1.805997e-01  9.881543e-02  1.625892e+00
     vertex -2.194003e-01  9.881543e-02  1.625892e+00
     vertex -2.194003e-01  9.924415e-02  1.624292e+00
   endloop
 endfacet
 facet normal  0.000000e+00 -9.659258e-01 -2.588190e-01
   outer loop
     vertex  1.805997e-01  9.881543e-02  1.625892e+00
     vertex -2.194003e-01  9.924415e-02  1.624292e+00
     vertex  1.805997e-01  9.924415e-02  1.624292e+00
   endloop
 endfacet
 facet normal -0.000000e+00 -7.071068e-01 -7.071068e-01
   outer loop
     vertex  1.805997e-01  9.764415e-02  1.627064e+00
     vertex -2.194003e-01  9.764415e-02  1.627064e+00
     vertex -2.194003e-01  9.881543e-02  1.625892e+00
   endloop
 endfacet
 facet normal  0.000000e+00 -7.071068e-01 -7.071068e-01
   outer loop
     vertex  1.805997e-01  9.764415e-02  1.627064e+00
     vertex -2.194003e-01  9.881543e-02  1.625892e+00
     vertex  1.805997e-01  9.881543e-02  1.625892e+00
   endloop
 endfacet
 facet normal -0.000000e+00 -2.588190e-01 -9.659258e-01
   outer loop
     vertex  1.805997e-01  9.604415e-02  1.627492e+00
     vertex -2.194003e-01  9.604415e-02  1.627492e+00
     vertex -2.194003e-01  9.764415e-02  1.627064e+00
   endloop
 endfacet
 facet normal  0.000000e+00 -2.588190e-01 -9.659258e-01
   outer loop
     vertex  1.805997e-01  9.604415e-02  1.627492e+00
     vertex -2.194003e-01  9.764415e-02  1.627064e+00
     vertex  1.805997e-01  9.764415e-02  1.627064e+00
   endloop
 endfacet
 facet normal  1.000000e+00  0.000000e+00  0.000000e+00
   outer loop
     vertex  1.805997e-01  4.724415e-02  1.594321e+00
     vertex  1.805997e-01  4.287287e-02  1.592292e+00
     vertex  1.805997e-01  4.404415e-02  1.591121e+00
   endloop
 endfacet
 facet normal  1.000000e+00  0.000000e+00  0.000000e+00
   outer loop
     vertex  1.805997e-01  4.724415e-02  1.594321e+00
     vertex  1.805997e-01  4.404415e-02  1.591121e+00
     vertex  1.805997e-01  4.564415e-02  1.590692e+00
   endloop
 endfacet
 facet normal  1.000000e+00  0.000000e+00  0.000000e+00
   outer loop
     vertex  1.805997e-01  4.607287e-02  1.595492e+00
     vertex  1.805997e-01  4.244415e-02  1.593892e+00
     vertex  1.805997e-01  4.287287e-02  1.592292e+00
   endloop
 endfacet
 facet normal  1.000000e+00  0.000000e+00  0.000000e+00
   outer loop
     vertex  1.805997e-01  4.607287e-02  1.595492e+00
     vertex  1.805997e-01  4.287287e-02  1.592292e+00
     vertex  1.805997e-01  4.724415e-02  1.594321e+00
   endloop
 endfacet
 facet normal  1.000000e+00  0.000000e+00  0.000000e+00
   outer loop
     vertex  1.805997e-01  4.884415e-02  1.593892e+00
     vertex  1.805997e-01  4.724415e-02  1.594321e+00
     vertex  1.805997e-01  4.564415e-02  1.590692e+00
   endloop
 endfacet
 facet normal  1.000000e+00  0.000000e+00  0.000000e+00
   outer loop
     vertex  1.805997e-01  4.564415e-02  1.597092e+00
     vertex  1.805997e-01  4.244415e-02  1.593892e+00
     vertex  1.805997e-01  4.607287e-02  1.595492e+00
   endloop
 endfacet
 facet normal  1.000000e+00  0.000000e+00  0.000000e+00
   outer loop
     vertex  1.805997e-01  4.564415e-02  1.624292e+00
     vertex  1.805997e-01  4.244415e-02  1.593892e+00
     vertex  1.805997e-01  4.564415e-02  1.597092e+00
   endloop
 endfacet
 facet normal  1.000000e+00  0.000000e+00  0.000000e+00
   outer loop
     vertex  1.805997e-01  4.244415e-02  1.627492e+00
     vertex  1.805997e-01  4.244415e-02  1.593892e+00
     vertex  1.805997e-01  4.564415e-02  1.624292e+00
   endloop
 endfacet
 facet normal  1.000000e+00  0.000000e+00  0.000000e+00
   outer loop
     vertex  1.805997e-01  4.607287e-02  1.625892e+00
     vertex  1.805997e-01  4.244415e-02  1.627492e+00
     vertex  1.805997e-01  4.564415e-02  1.624292e+00
   endloop
 endfacet
 facet normal  1.000000e+00  0.000000e+00  0.000000e+00
   outer loop
     vertex  1.805997e-01  4.287287e-02  1.629092e+00
     vertex  1.805997e-01  4.244415e-02  1.627492e+00
     vertex  1.805997e-01  4.607287e-02  1.625892e+00
   endloop
 endfacet
 facet normal  1.000000e+00  0.000000e+00  0.000000e+00
   outer loop
     vertex  1.805997e-01  4.724415e-02  1.627064e+00
     vertex  1.805997e-01  4.287287e-02  1.629092e+00
     vertex  1.805997e-01  4.607287e-02  1.625892e+00
   endloop
 endfacet
 facet normal  1.000000e+00  0.000000e+00  0.000000e+00
   outer loop
     vertex  1.805997e-01  4.404415e-02  1.630264e+00
     vertex  1.805997e-01  4.287287e-02  1.629092e+00
     vertex  1.805997e-01  4.724415e-02  1.627064e+00
   endloop
 endfacet
 facet normal  1.000000e+00  0.000000e+00  0.000000e+00
   outer loop
     vertex  1.805997e-01  4.564415e-02  1.630692e+00
     vertex  1.805997e-01  4.724415e-02  1.627064e+00
     vertex  1.805997e-01  4.884415e-02  1.627492e+00
   endloop
 endfacet
 facet normal  1.000000e+00  0.000000e+00  0.000000e+00
   outer loop
     vertex  1.805997e-01  4.564415e-02  1.630692e+00
     vertex  1.805997e-01  4.404415e-02  1.630264e+00
     vertex  1.805997e-01  4.724415e-02  1.627064e+00
   endloop
 endfacet
 facet normal  1.000000e+00  0.000000e+00  0.000000e+00
   outer loop
     vertex  1.805997e-01  9.924415e-02  1.590692e+00
     vertex  1.805997e-01  4.884415e-02  1.593892e+00
     vertex  1.805997e-01  4.564415e-02  1.590692e+00
   endloop
 endfacet
 facet normal  1.000000e+00  0.000000e+00  0.000000e+00
   outer loop
     vertex  1.805997e-01  9.604415e-02  1.593892e+00
     vertex  1.805997e-01  4.884415e-02  1.593892e+00
     vertex  1.805997e-01  9.924415e-02  1.590692e+00
   endloop
 endfacet
 facet normal  1.000000e+00  0.000000e+00  0.000000e+00
   outer loop
     vertex  1.805997e-01  9.764415e-02  1.594321e+00
     vertex  1.805997e-01  9.924415e-02  1.590692e+00
     vertex  1.805997e-01  1.008441e-01  1.591121e+00
   endloop
 endfacet
 facet normal  1.000000e+00  0.000000e+00  0.000000e+00
   outer loop
     vertex  1.805997e-01  9.764415e-02  1.594321e+00
     vertex  1.805997e-01  9.604415e-02  1.593892e+00
     vertex  1.805997e-01  9.924415e-02  1.590692e+00
   endloop
 endfacet
 facet normal  1.000000e+00  0.000000e+00  0.000000e+00
   outer loop
     vertex  1.805997e-01  1.020154e-01  1.592292e+00
     vertex  1.805997e-01  9.764415e-02  1.594321e+00
     vertex  1.805997e-01  1.008441e-01  1.591121e+00
   endloop
 endfacet
 facet normal  1.000000e+00  0.000000e+00  0.000000e+00
   outer loop
     vertex  1.805997e-01  9.881543e-02  1.595492e+00
     vertex  1.805997e-01  9.764415e-02  1.594321e+00
     vertex  1.805997e-01  1.020154e-01  1.592292e+00
   endloop
 endfacet
 facet normal  1.000000e+00  0.000000e+00  0.000000e+00
   outer loop
     vertex  1.805997e-01  1.024441e-01  1.593892e+00
     vertex  1.805997e-01  9.881543e-02  1.595492e+00
     vertex  1.805997e-01  1.020154e-01  1.592292e+00
   endloop
 endfacet
 facet normal  1.000000e+00  0.000000e+00  0.000000e+00
   outer loop
     vertex  1.805997e-01  9.924415e-02  1.597092e+00
     vertex  1.805997e-01  9.881543e-02  1.595492e+00
     vertex  1.805997e-01  1.024441e-01  1.593892e+00
   endloop
 endfacet
 facet normal  1.000000e+00  0.000000e+00  0.000000e+00
   outer loop
     vertex  1.805997e-01  9.604415e-02  1.627492e+00
     vertex  1.805997e-01  4.564415e-02  1.630692e+00
     vertex  1.805997e-01  4.884415e-02  1.627492e+00
   endloop
 endfacet
 facet normal  1.000000e+00  0.000000e+00  0.000000e+00
   outer loop
     vertex  1.805997e-01  1.024441e-01  1.627492e+00
     vertex  1.805997e-01  9.924415e-02  1.624292e+00
     vertex  1.805997e-01  9.924415e-02  1.597092e+00
   endloop
 endfacet
 facet normal  1.000000e+00  0.000000e+00  0.000000e+00
   outer loop
     vertex  1.805997e-01  1.024441e-01  1.627492e+00
     vertex  1.805997e-01  9.881543e-02  1.625892e+00
     vertex  1.805997e-01  9.924415e-02  1.624292e+00
   endloop
 endfacet
 facet normal  1.000000e+00  0.000000e+00  0.000000e+00
   outer loop
     vertex  1.805997e-01  1.024441e-01  1.627492e+00
     vertex  1.805997e-01  9.924415e-02  1.597092e+00
     vertex  1.805997e-01  1.024441e-01  1.593892e+00
   endloop
 endfacet
 facet normal  1.000000e+00  0.000000e+00  0.000000e+00
   outer loop
     vertex  1.805997e-01  9.924415e-02  1.630692e+00
     vertex  1.805997e-01  9.604415e-02  1.627492e+00
     vertex  1.805997e-01  9.764415e-02  1.627064e+00
   endloop
 endfacet
 facet normal  1.000000e+00  0.000000e+00  0.000000e+00
   outer loop
     vertex  1.805997e-01  9.924415e-02  1.630692e+00
     vertex  1.805997e-01  4.564415e-02  1.630692e+00
     vertex  1.805997e-01  9.604415e-02  1.627492e+00
   endloop
 endfacet
 facet normal  1.000000e+00  0.000000e+00  0.000000e+00
   outer loop
     vertex  1.805997e-01  1.020154e-01  1.629092e+00
     vertex  1.805997e-01  9.764415e-02  1.627064e+00
     vertex  1.805997e-01  9.881543e-02  1.625892e+00
   endloop
 endfacet
 facet normal  1.000000e+00  0.000000e+00  0.000000e+00
   outer loop
     vertex  1.805997e-01  1.020154e-01  1.629092e+00
     vertex  1.805997e-01  9.881543e-02  1.625892e+00
     vertex  1.805997e-01  1.024441e-01  1.627492e+00
   endloop
 endfacet
 facet normal  1.000000e+00  0.000000e+00  0.000000e+00
   outer loop
     vertex  1.805997e-01  1.008441e-01  1.630264e+00
     vertex  1.805997e-01  9.924415e-02  1.630692e+00
     vertex  1.805997e-01  9.764415e-02  1.627064e+00
   endloop
 endfacet
 facet normal  1.000000e+00  0.000000e+00  0.000000e+00
   outer loop
     vertex  1.805997e-01  1.008441e-01  1.630264e+00
     vertex  1.805997e-01  9.764415e-02  1.627064e+00
     vertex  1.805997e-01  1.020154e-01  1.629092e+00
   endloop
 endfacet
 facet normal  0.000000e+00  2.588190e-01  9.659258e-01
   outer loop
     vertex -2.194003e-01  1.008441e-01  1.630264e+00
     vertex -2.194003e-01  9.924415e-02  1.630692e+00
     vertex  1.805997e-01  9.924415e-02  1.630692e+00
   endloop
 endfacet
 facet normal -0.000000e+00  2.588190e-01  9.659258e-01
   outer loop
     vertex -2.194003e-01  1.008441e-01  1.630264e+00
     vertex  1.805997e-01  9.924415e-02  1.630692e+00
     vertex  1.805997e-01  1.008441e-01  1.630264e+00
   endloop
 endfacet
 facet normal -0.000000e+00  7.071068e-01  7.071068e-01
   outer loop
     vertex -2.194003e-01  1.020154e-01  1.629092e+00
     vertex  1.805997e-01  1.008441e-01  1.630264e+00
     vertex  1.805997e-01  1.020154e-01  1.629092e+00
   endloop
 endfacet
 facet normal  0.000000e+00  7.071068e-01  7.071068e-01
   outer loop
     vertex -2.194003e-01  1.020154e-01  1.629092e+00
     vertex -2.194003e-01  1.008441e-01  1.630264e+00
     vertex  1.805997e-01  1.008441e-01  1.630264e+00
   endloop
 endfacet
 facet normal -0.000000e+00  9.659258e-01  2.588190e-01
   outer loop
     vertex -2.194003e-01  1.024441e-01  1.627492e+00
     vertex  1.805997e-01  1.020154e-01  1.629092e+00
     vertex  1.805997e-01  1.024441e-01  1.627492e+00
   endloop
 endfacet
 facet normal  0.000000e+00  9.659258e-01  2.588190e-01
   outer loop
     vertex -2.194003e-01  1.024441e-01  1.627492e+00
     vertex -2.194003e-01  1.020154e-01  1.629092e+00
     vertex  1.805997e-01  1.020154e-01  1.629092e+00
   endloop
 endfacet
 facet normal  0.000000e+00  1.000000e+00  0.000000e+00
   outer loop
     vertex  1.805997e-01  1.024441e-01  1.627492e+00
     vertex  1.805997e-01  1.024441e-01  1.593892e+00
     vertex -2.194003e-01  1.024441e-01  1.593892e+00
   endloop
 endfacet
 facet normal  0.000000e+00  1.000000e+00  0.000000e+00
   outer loop
     vertex  1.805997e-01  1.024441e-01  1.627492e+00
     vertex -2.194003e-01  1.024441e-01  1.593892e+00
     vertex -2.194003e-01  1.024441e-01  1.627492e+00
   endloop
 endfacet
 facet normal  0.000000e+00  9.659258e-01 -2.588190e-01
   outer loop
     vertex -2.194003e-01  1.020154e-01  1.592292e+00
     vertex -2.194003e-01  1.024441e-01  1.593892e+00
     vertex  1.805997e-01  1.024441e-01  1.593892e+00
   endloop
 endfacet
 facet normal  0.000000e+00  9.659258e-01 -2.588190e-01
   outer loop
     vertex -2.194003e-01  1.020154e-01  1.592292e+00
     vertex  1.805997e-01  1.024441e-01  1.593892e+00
     vertex  1.805997e-01  1.020154e-01  1.592292e+00
   endloop
 endfacet
 facet normal  0.000000e+00  7.071068e-01 -7.071068e-01
   outer loop
     vertex -2.194003e-01  1.008441e-01  1.591121e+00
     vertex  1.805997e-01  1.020154e-01  1.592292e+00
     vertex  1.805997e-01  1.008441e-01  1.591121e+00
   endloop
 endfacet
 facet normal  0.000000e+00  7.071068e-01 -7.071068e-01
   outer loop
     vertex -2.194003e-01  1.008441e-01  1.591121e+00
     vertex -2.194003e-01  1.020154e-01  1.592292e+00
     vertex  1.805997e-01  1.020154e-01  1.592292e+00
   endloop
 endfacet
 facet normal  0.000000e+00  2.588190e-01 -9.659258e-01
   outer loop
     vertex -2.194003e-01  9.924415e-02  1.590692e+00
     vertex  1.805997e-01  1.008441e-01  1.591121e+00
     vertex  1.805997e-01  9.924415e-02  1.590692e+00
   endloop
 endfacet
 facet normal  0.000000e+00  2.588190e-01 -9.659258e-01
   outer loop
     vertex -2.194003e-01  9.924415e-02  1.590692e+00
     vertex -2.194003e-01  1.008441e-01  1.591121e+00
     vertex  1.805997e-01  1.008441e-01  1.591121e+00
   endloop
 endfacet
 facet normal -0.000000e+00  0.000000e+00 -1.000000e+00
   outer loop
     vertex -1.688708e-01  5.547359e-02  1.590692e+00
     vertex -2.194003e-01  4.564415e-02  1.590692e+00
     vertex -2.194003e-01  9.924415e-02  1.590692e+00
   endloop
 endfacet
 facet normal  0.000000e+00 -0.000000e+00 -1.000000e+00
   outer loop
     vertex -1.688708e-01  5.547359e-02  1.590692e+00
     vertex -1.663708e-01  5.297359e-02  1.590692e+00
     vertex -2.194003e-01  4.564415e-02  1.590692e+00
   endloop
 endfacet
 facet normal  0.000000e+00  0.000000e+00 -1.000000e+00
   outer loop
     vertex -1.494003e-01  6.244415e-02  1.590692e+00
     vertex -1.663708e-01  5.297359e-02  1.590692e+00
     vertex -1.638708e-01  5.547359e-02  1.590692e+00
   endloop
 endfacet
 facet normal  0.000000e+00  0.000000e+00 -1.000000e+00
   outer loop
     vertex -1.594003e-01  7.244415e-02  1.590692e+00
     vertex -1.663708e-01  5.797359e-02  1.590692e+00
     vertex -1.688708e-01  5.547359e-02  1.590692e+00
   endloop
 endfacet
 facet normal  0.000000e+00  0.000000e+00 -1.000000e+00
   outer loop
     vertex -1.594003e-01  7.244415e-02  1.590692e+00
     vertex -1.638708e-01  5.547359e-02  1.590692e+00
     vertex -1.663708e-01  5.797359e-02  1.590692e+00
   endloop
 endfacet
 facet normal -0.000000e+00  0.000000e+00 -1.000000e+00
   outer loop
     vertex -1.594003e-01  7.244415e-02  1.590692e+00
     vertex -1.688708e-01  5.547359e-02  1.590692e+00
     vertex -2.194003e-01  9.924415e-02  1.590692e+00
   endloop
 endfacet
 facet normal  0.000000e+00 -0.000000e+00 -1.000000e+00
   outer loop
     vertex -1.594003e-01  7.244415e-02  1.590692e+00
     vertex -1.494003e-01  6.244415e-02  1.590692e+00
     vertex -1.638708e-01  5.547359e-02  1.590692e+00
   endloop
 endfacet
 facet normal -0.000000e+00  0.000000e+00 -1.000000e+00
   outer loop
     vertex -1.494003e-01  8.244415e-02  1.590692e+00
     vertex -1.594003e-01  7.244415e-02  1.590692e+00
     vertex -2.194003e-01  9.924415e-02  1.590692e+00
   endloop
 endfacet
 facet normal  0.000000e+00  0.000000e+00 -1.000000e+00
   outer loop
     vertex -1.349297e-01  8.941471e-02  1.590692e+00
     vertex -1.394003e-01  7.244415e-02  1.590692e+00
     vertex -1.494003e-01  8.244415e-02  1.590692e+00
   endloop
 endfacet
 facet normal  0.000000e+00 -0.000000e+00 -1.000000e+00
   outer loop
     vertex -1.349297e-01  8.941471e-02  1.590692e+00
     vertex -1.324297e-01  8.691471e-02  1.590692e+00
     vertex -1.394003e-01  7.244415e-02  1.590692e+00
   endloop
 endfacet
 facet normal -0.000000e+00  0.000000e+00 -1.000000e+00
   outer loop
     vertex -1.324297e-01  9.191471e-02  1.590692e+00
     vertex -1.494003e-01  8.244415e-02  1.590692e+00
     vertex -2.194003e-01  9.924415e-02  1.590692e+00
   endloop
 endfacet
 facet normal  0.000000e+00  0.000000e+00 -1.000000e+00
   outer loop
     vertex -1.324297e-01  9.191471e-02  1.590692e+00
     vertex -1.349297e-01  8.941471e-02  1.590692e+00
     vertex -1.494003e-01  8.244415e-02  1.590692e+00
   endloop
 endfacet
 facet normal -0.000000e+00  0.000000e+00 -1.000000e+00
   outer loop
     vertex -8.233277e-02  6.824415e-02  1.590692e+00
     vertex -1.494003e-01  6.244415e-02  1.590692e+00
     vertex -1.394003e-01  7.244415e-02  1.590692e+00
   endloop
 endfacet
 facet normal  0.000000e+00  0.000000e+00 -1.000000e+00
   outer loop
     vertex -8.233277e-02  6.824415e-02  1.590692e+00
     vertex -1.663708e-01  5.297359e-02  1.590692e+00
     vertex -1.494003e-01  6.244415e-02  1.590692e+00
   endloop
 endfacet
 facet normal  0.000000e+00  0.000000e+00 -1.000000e+00
   outer loop
     vertex -8.653277e-02  7.244415e-02  1.590692e+00
     vertex -1.324297e-01  8.691471e-02  1.590692e+00
     vertex -1.299297e-01  8.941471e-02  1.590692e+00
   endloop
 endfacet
 facet normal  0.000000e+00  0.000000e+00 -1.000000e+00
   outer loop
     vertex -8.653277e-02  7.244415e-02  1.590692e+00
     vertex -1.394003e-01  7.244415e-02  1.590692e+00
     vertex -1.324297e-01  8.691471e-02  1.590692e+00
   endloop
 endfacet
 facet normal -0.000000e+00 -0.000000e+00 -1.000000e+00
   outer loop
     vertex -8.653277e-02  7.244415e-02  1.590692e+00
     vertex -8.233277e-02  6.824415e-02  1.590692e+00
     vertex -1.394003e-01  7.244415e-02  1.590692e+00
   endloop
 endfacet
 facet normal  0.000000e+00  0.000000e+00 -1.000000e+00
   outer loop
     vertex -8.233277e-02  7.664415e-02  1.590692e+00
     vertex -1.299297e-01  8.941471e-02  1.590692e+00
     vertex -1.324297e-01  9.191471e-02  1.590692e+00
   endloop
 endfacet
 facet normal -0.000000e+00  0.000000e+00 -1.000000e+00
   outer loop
     vertex -8.233277e-02  7.664415e-02  1.590692e+00
     vertex -8.653277e-02  7.244415e-02  1.590692e+00
     vertex -1.299297e-01  8.941471e-02  1.590692e+00
   endloop
 endfacet
 facet normal -0.000000e+00  0.000000e+00 -1.000000e+00
   outer loop
     vertex  3.933223e-02  7.244415e-02  1.590692e+00
     vertex -8.233277e-02  6.824415e-02  1.590692e+00
     vertex -7.813277e-02  7.244415e-02  1.590692e+00
   endloop
 endfacet
 facet normal  0.000000e+00 -0.000000e+00 -1.000000e+00
   outer loop
     vertex  3.933223e-02  7.244415e-02  1.590692e+00
     vertex  4.353223e-02  6.824415e-02  1.590692e+00
     vertex -8.233277e-02  6.824415e-02  1.590692e+00
   endloop
 endfacet
 facet normal -0.000000e+00  0.000000e+00 -1.000000e+00
   outer loop
     vertex  4.353223e-02  7.664415e-02  1.590692e+00
     vertex -7.813277e-02  7.244415e-02  1.590692e+00
     vertex -8.233277e-02  7.664415e-02  1.590692e+00
   endloop
 endfacet
 facet normal  0.000000e+00  0.000000e+00 -1.000000e+00
   outer loop
     vertex  4.353223e-02  7.664415e-02  1.590692e+00
     vertex  3.933223e-02  7.244415e-02  1.590692e+00
     vertex -7.813277e-02  7.244415e-02  1.590692e+00
   endloop
 endfacet
 facet normal -0.000000e+00  0.000000e+00 -1.000000e+00
   outer loop
     vertex  1.005997e-01  7.244415e-02  1.590692e+00
     vertex  4.353223e-02  6.824415e-02  1.590692e+00
     vertex  4.773223e-02  7.244415e-02  1.590692e+00
   endloop
 endfacet
 facet normal  0.000000e+00 -0.000000e+00 -1.000000e+00
   outer loop
     vertex  1.005997e-01  7.244415e-02  1.590692e+00
     vertex  1.105997e-01  6.244415e-02  1.590692e+00
     vertex  4.353223e-02  6.824415e-02  1.590692e+00
   endloop
 endfacet
 facet normal  0.000000e+00 -0.000000e+00 -1.000000e+00
   outer loop
     vertex  9.362917e-02  8.691471e-02  1.590692e+00
     vertex  1.005997e-01  7.244415e-02  1.590692e+00
     vertex  4.773223e-02  7.244415e-02  1.590692e+00
   endloop
 endfacet
 facet normal  0.000000e+00  0.000000e+00 -1.000000e+00
   outer loop
     vertex  9.112917e-02  8.941471e-02  1.590692e+00
     vertex  4.773223e-02  7.244415e-02  1.590692e+00
     vertex  4.353223e-02  7.664415e-02  1.590692e+00
   endloop
 endfacet
 facet normal  0.000000e+00 -0.000000e+00 -1.000000e+00
   outer loop
     vertex  9.112917e-02  8.941471e-02  1.590692e+00
     vertex  9.362917e-02  8.691471e-02  1.590692e+00
     vertex  4.773223e-02  7.244415e-02  1.590692e+00
   endloop
 endfacet
 facet normal  0.000000e+00  0.000000e+00 -1.000000e+00
   outer loop
     vertex  1.275703e-01  5.297359e-02  1.590692e+00
     vertex  4.353223e-02  6.824415e-02  1.590692e+00
     vertex  1.105997e-01  6.244415e-02  1.590692e+00
   endloop
 endfacet
 facet normal -0.000000e+00 -0.000000e+00 -1.000000e+00
   outer loop
     vertex  1.250703e-01  5.547359e-02  1.590692e+00
     vertex  1.275703e-01  5.297359e-02  1.590692e+00
     vertex  1.105997e-01  6.244415e-02  1.590692e+00
   endloop
 endfacet
 facet normal  0.000000e+00 -0.000000e+00 -1.000000e+00
   outer loop
     vertex  9.612917e-02  8.941471e-02  1.590692e+00
     vertex  1.005997e-01  7.244415e-02  1.590692e+00
     vertex  9.362917e-02  8.691471e-02  1.590692e+00
   endloop
 endfacet
 facet normal -0.000000e+00  0.000000e+00 -1.000000e+00
   outer loop
     vertex  9.362917e-02  9.191471e-02  1.590692e+00
     vertex -8.233277e-02  7.664415e-02  1.590692e+00
     vertex -1.324297e-01  9.191471e-02  1.590692e+00
   endloop
 endfacet
 facet normal  0.000000e+00  0.000000e+00 -1.000000e+00
   outer loop
     vertex  9.362917e-02  9.191471e-02  1.590692e+00
     vertex  4.353223e-02  7.664415e-02  1.590692e+00
     vertex -8.233277e-02  7.664415e-02  1.590692e+00
   endloop
 endfacet
 facet normal  0.000000e+00  0.000000e+00 -1.000000e+00
   outer loop
     vertex  9.362917e-02  9.191471e-02  1.590692e+00
     vertex  9.112917e-02  8.941471e-02  1.590692e+00
     vertex  4.353223e-02  7.664415e-02  1.590692e+00
   endloop
 endfacet
 facet normal  0.000000e+00  0.000000e+00 -1.000000e+00
   outer loop
     vertex  1.205997e-01  7.244415e-02  1.590692e+00
     vertex  1.300703e-01  5.547359e-02  1.590692e+00
     vertex  1.275703e-01  5.797359e-02  1.590692e+00
   endloop
 endfacet
 facet normal  0.000000e+00  0.000000e+00 -1.000000e+00
   outer loop
     vertex  1.205997e-01  7.244415e-02  1.590692e+00
     vertex  1.275703e-01  5.797359e-02  1.590692e+00
     vertex  1.250703e-01  5.547359e-02  1.590692e+00
   endloop
 endfacet
 facet normal  0.000000e+00 -0.000000e+00 -1.000000e+00
   outer loop
     vertex  1.205997e-01  7.244415e-02  1.590692e+00
     vertex  1.250703e-01  5.547359e-02  1.590692e+00
     vertex  1.105997e-01  6.244415e-02  1.590692e+00
   endloop
 endfacet
 facet normal  0.000000e+00  0.000000e+00 -1.000000e+00
   outer loop
     vertex  1.105997e-01  8.244415e-02  1.590692e+00
     vertex  9.612917e-02  8.941471e-02  1.590692e+00
     vertex  9.362917e-02  9.191471e-02  1.590692e+00
   endloop
 endfacet
 facet normal -0.000000e+00  0.000000e+00 -1.000000e+00
   outer loop
     vertex  1.105997e-01  8.244415e-02  1.590692e+00
     vertex  1.005997e-01  7.244415e-02  1.590692e+00
     vertex  9.612917e-02  8.941471e-02  1.590692e+00
   endloop
 endfacet
 facet normal  0.000000e+00  0.000000e+00 -1.000000e+00
   outer loop
     vertex  1.805997e-01  4.564415e-02  1.590692e+00
     vertex  1.275703e-01  5.297359e-02  1.590692e+00
     vertex  1.300703e-01  5.547359e-02  1.590692e+00
   endloop
 endfacet
 facet normal  0.000000e+00  0.000000e+00 -1.000000e+00
   outer loop
     vertex  1.805997e-01  9.924415e-02  1.590692e+00
     vertex  1.105997e-01  8.244415e-02  1.590692e+00
     vertex  9.362917e-02  9.191471e-02  1.590692e+00
   endloop
 endfacet
 facet normal  0.000000e+00 -0.000000e+00 -1.000000e+00
   outer loop
     vertex  1.805997e-01  9.924415e-02  1.590692e+00
     vertex  1.805997e-01  4.564415e-02  1.590692e+00
     vertex  1.300703e-01  5.547359e-02  1.590692e+00
   endloop
 endfacet
 facet normal  0.000000e+00  0.000000e+00 -1.000000e+00
   outer loop
     vertex  1.805997e-01  9.924415e-02  1.590692e+00
     vertex  1.205997e-01  7.244415e-02  1.590692e+00
     vertex  1.105997e-01  8.244415e-02  1.590692e+00
   endloop
 endfacet
 facet normal  0.000000e+00  0.000000e+00 -1.000000e+00
   outer loop
     vertex  1.805997e-01  9.924415e-02  1.590692e+00
     vertex  1.300703e-01  5.547359e-02  1.590692e+00
     vertex  1.205997e-01  7.244415e-02  1.590692e+00
   endloop
 endfacet
 facet normal  0.000000e+00  0.000000e+00 -1.000000e+00
   outer loop
     vertex -2.194003e-01  9.924415e-02  1.590692e+00
     vertex  1.805997e-01  9.924415e-02  1.590692e+00
     vertex  9.362917e-02  9.191471e-02  1.590692e+00
   endloop
 endfacet
 facet normal  0.000000e+00  0.000000e+00 -1.000000e+00
   outer loop
     vertex -2.194003e-01  9.924415e-02  1.590692e+00
     vertex  9.362917e-02  9.191471e-02  1.590692e+00
     vertex -1.324297e-01  9.191471e-02  1.590692e+00
   endloop
 endfacet
 facet normal  0.000000e+00  0.000000e+00 -1.000000e+00
   outer loop
     vertex  1.805997e-01  4.564415e-02  1.590692e+00
     vertex -2.194003e-01  4.564415e-02  1.590692e+00
     vertex -1.663708e-01  5.297359e-02  1.590692e+00
   endloop
 endfacet
 facet normal  0.000000e+00  0.000000e+00 -1.000000e+00
   outer loop
     vertex  1.805997e-01  4.564415e-02  1.590692e+00
     vertex -1.663708e-01  5.297359e-02  1.590692e+00
     vertex  1.275703e-01  5.297359e-02  1.590692e+00
   endloop
 endfacet
 facet normal  0.000000e+00  0.000000e+00 -1.000000e+00
   outer loop
     vertex  1.275703e-01  5.297359e-02  1.590692e+00
     vertex -1.663708e-01  5.297359e-02  1.590692e+00
     vertex -8.233277e-02  6.824415e-02  1.590692e+00
   endloop
 endfacet
 facet normal  0.000000e+00  0.000000e+00 -1.000000e+00
   outer loop
     vertex  1.275703e-01  5.297359e-02  1.590692e+00
     vertex -8.233277e-02  6.824415e-02  1.590692e+00
     vertex  4.353223e-02  6.824415e-02  1.590692e+00
   endloop
 endfacet
 facet normal  0.000000e+00 -2.588190e-01 -9.659258e-01
   outer loop
     vertex -2.194003e-01  4.404415e-02  1.591121e+00
     vertex -2.194003e-01  4.564415e-02  1.590692e+00
     vertex  1.805997e-01  4.564415e-02  1.590692e+00
   endloop
 endfacet
 facet normal  0.000000e+00 -2.588190e-01 -9.659258e-01
   outer loop
     vertex -2.194003e-01  4.404415e-02  1.591121e+00
     vertex  1.805997e-01  4.564415e-02  1.590692e+00
     vertex  1.805997e-01  4.404415e-02  1.591121e+00
   endloop
 endfacet
 facet normal  0.000000e+00 -7.071068e-01 -7.071068e-01
   outer loop
     vertex -2.194003e-01  4.287287e-02  1.592292e+00
     vertex  1.805997e-01  4.404415e-02  1.591121e+00
     vertex  1.805997e-01  4.287287e-02  1.592292e+00
   endloop
 endfacet
 facet normal  0.000000e+00 -7.071068e-01 -7.071068e-01
   outer loop
     vertex -2.194003e-01  4.287287e-02  1.592292e+00
     vertex -2.194003e-01  4.404415e-02  1.591121e+00
     vertex  1.805997e-01  4.404415e-02  1.591121e+00
   endloop
 endfacet
 facet normal  0.000000e+00 -9.659258e-01 -2.588190e-01
   outer loop
     vertex -2.194003e-01  4.244415e-02  1.593892e+00
     vertex  1.805997e-01  4.287287e-02  1.592292e+00
     vertex  1.805997e-01  4.244415e-02  1.593892e+00
   endloop
 endfacet
 facet normal  0.000000e+00 -9.659258e-01 -2.588190e-01
   outer loop
     vertex -2.194003e-01  4.244415e-02  1.593892e+00
     vertex -2.194003e-01  4.287287e-02  1.592292e+00
     vertex  1.805997e-01  4.287287e-02  1.592292e+00
   endloop
 endfacet
 facet normal  0.000000e+00 -1.000000e+00  0.000000e+00
   outer loop
     vertex  1.805997e-01  4.244415e-02  1.593892e+00
     vertex  1.805997e-01  4.244415e-02  1.627492e+00
     vertex -2.194003e-01  4.244415e-02  1.627492e+00
   endloop
 endfacet
 facet normal  0.000000e+00 -1.000000e+00  0.000000e+00
   outer loop
     vertex  1.805997e-01  4.244415e-02  1.593892e+00
     vertex -2.194003e-01  4.244415e-02  1.627492e+00
     vertex -2.194003e-01  4.244415e-02  1.593892e+00
   endloop
 endfacet
 facet normal  0.000000e+00 -9.659258e-01  2.588190e-01
   outer loop
     vertex -2.194003e-01  4.287287e-02  1.629092e+00
     vertex -2.194003e-01  4.244415e-02  1.627492e+00
     vertex  1.805997e-01  4.244415e-02  1.627492e+00
   endloop
 endfacet
 facet normal  0.000000e+00 -9.659258e-01  2.588190e-01
   outer loop
     vertex -2.194003e-01  4.287287e-02  1.629092e+00
     vertex  1.805997e-01  4.244415e-02  1.627492e+00
     vertex  1.805997e-01  4.287287e-02  1.629092e+00
   endloop
 endfacet
 facet normal  0.000000e+00 -7.071068e-01  7.071068e-01
   outer loop
     vertex -2.194003e-01  4.404415e-02  1.630264e+00
     vertex  1.805997e-01  4.287287e-02  1.629092e+00
     vertex  1.805997e-01  4.404415e-02  1.630264e+00
   endloop
 endfacet
 facet normal  0.000000e+00 -7.071068e-01  7.071068e-01
   outer loop
     vertex -2.194003e-01  4.404415e-02  1.630264e+00
     vertex -2.194003e-01  4.287287e-02  1.629092e+00
     vertex  1.805997e-01  4.287287e-02  1.629092e+00
   endloop
 endfacet
 facet normal  0.000000e+00 -2.588190e-01  9.659258e-01
   outer loop
     vertex -2.194003e-01  4.564415e-02  1.630692e+00
     vertex  1.805997e-01  4.404415e-02  1.630264e+00
     vertex  1.805997e-01  4.564415e-02  1.630692e+00
   endloop
 endfacet
 facet normal  0.000000e+00 -2.588190e-01  9.659258e-01
   outer loop
     vertex -2.194003e-01  4.564415e-02  1.630692e+00
     vertex -2.194003e-01  4.404415e-02  1.630264e+00
     vertex  1.805997e-01  4.404415e-02  1.630264e+00
   endloop
 endfacet
 facet normal  0.000000e+00  0.000000e+00  1.000000e+00
   outer loop
     vertex -1.594003e-01  7.244415e-02  1.630692e+00
     vertex -2.194003e-01  9.924415e-02  1.630692e+00
     vertex -2.194003e-01  4.564415e-02  1.630692e+00
   endloop
 endfacet
 facet normal  0.000000e+00 -0.000000e+00  1.000000e+00
   outer loop
     vertex -1.594003e-01  7.244415e-02  1.630692e+00
     vertex -1.494003e-01  8.244415e-02  1.630692e+00
     vertex -2.194003e-01  9.924415e-02  1.630692e+00
   endloop
 endfacet
 facet normal  0.000000e+00  0.000000e+00  1.000000e+00
   outer loop
     vertex -1.494003e-01  6.244415e-02  1.630692e+00
     vertex -1.594003e-01  7.244415e-02  1.630692e+00
     vertex -2.194003e-01  4.564415e-02  1.630692e+00
   endloop
 endfacet
 facet normal  0.000000e+00  0.000000e+00  1.000000e+00
   outer loop
     vertex -8.233277e-02  7.664415e-02  1.630692e+00
     vertex -1.494003e-01  8.244415e-02  1.630692e+00
     vertex -1.394003e-01  7.244415e-02  1.630692e+00
   endloop
 endfacet
 facet normal  0.000000e+00 -0.000000e+00  1.000000e+00
   outer loop
     vertex -8.653277e-02  7.244415e-02  1.630692e+00
     vertex -8.233277e-02  7.664415e-02  1.630692e+00
     vertex -1.394003e-01  7.244415e-02  1.630692e+00
   endloop
 endfacet
 facet normal  0.000000e+00  0.000000e+00  1.000000e+00
   outer loop
     vertex -8.233277e-02  6.824415e-02  1.630692e+00
     vertex -1.394003e-01  7.244415e-02  1.630692e+00
     vertex -1.494003e-01  6.244415e-02  1.630692e+00
   endloop
 endfacet
 facet normal  0.000000e+00  0.000000e+00  1.000000e+00
   outer loop
     vertex -8.233277e-02  6.824415e-02  1.630692e+00
     vertex -8.653277e-02  7.244415e-02  1.630692e+00
     vertex -1.394003e-01  7.244415e-02  1.630692e+00
   endloop
 endfacet
 facet normal  0.000000e+00  0.000000e+00  1.000000e+00
   outer loop
     vertex  3.933223e-02  7.244415e-02  1.630692e+00
     vertex -8.233277e-02  7.664415e-02  1.630692e+00
     vertex -7.813277e-02  7.244415e-02  1.630692e+00
   endloop
 endfacet
 facet normal  0.000000e+00 -0.000000e+00  1.000000e+00
   outer loop
     vertex  3.933223e-02  7.244415e-02  1.630692e+00
     vertex  4.353223e-02  7.664415e-02  1.630692e+00
     vertex -8.233277e-02  7.664415e-02  1.630692e+00
   endloop
 endfacet
 facet normal  0.000000e+00  0.000000e+00  1.000000e+00
   outer loop
     vertex  4.353223e-02  6.824415e-02  1.630692e+00
     vertex -7.813277e-02  7.244415e-02  1.630692e+00
     vertex -8.233277e-02  6.824415e-02  1.630692e+00
   endloop
 endfacet
 facet normal  0.000000e+00  0.000000e+00  1.000000e+00
   outer loop
     vertex  4.353223e-02  6.824415e-02  1.630692e+00
     vertex  3.933223e-02  7.244415e-02  1.630692e+00
     vertex -7.813277e-02  7.244415e-02  1.630692e+00
   endloop
 endfacet
 facet normal  0.000000e+00  0.000000e+00  1.000000e+00
   outer loop
     vertex  1.005997e-01  7.244415e-02  1.630692e+00
     vertex  4.773223e-02  7.244415e-02  1.630692e+00
     vertex  4.353223e-02  6.824415e-02  1.630692e+00
   endloop
 endfacet
 facet normal  0.000000e+00  0.000000e+00  1.000000e+00
   outer loop
     vertex  1.005997e-01  7.244415e-02  1.630692e+00
     vertex  4.353223e-02  7.664415e-02  1.630692e+00
     vertex  4.773223e-02  7.244415e-02  1.630692e+00
   endloop
 endfacet
 facet normal  0.000000e+00 -0.000000e+00  1.000000e+00
   outer loop
     vertex  1.005997e-01  7.244415e-02  1.630692e+00
     vertex  1.105997e-01  8.244415e-02  1.630692e+00
     vertex  4.353223e-02  7.664415e-02  1.630692e+00
   endloop
 endfacet
 facet normal  0.000000e+00  0.000000e+00  1.000000e+00
   outer loop
     vertex  1.105997e-01  6.244415e-02  1.630692e+00
     vertex  1.005997e-01  7.244415e-02  1.630692e+00
     vertex  4.353223e-02  6.824415e-02  1.630692e+00
   endloop
 endfacet
 facet normal  0.000000e+00  0.000000e+00  1.000000e+00
   outer loop
     vertex  1.805997e-01  9.924415e-02  1.630692e+00
     vertex  1.105997e-01  8.244415e-02  1.630692e+00
     vertex  1.205997e-01  7.244415e-02  1.630692e+00
   endloop
 endfacet
 facet normal  0.000000e+00  0.000000e+00  1.000000e+00
   outer loop
     vertex  1.805997e-01  4.564415e-02  1.630692e+00
     vertex  1.205997e-01  7.244415e-02  1.630692e+00
     vertex  1.105997e-01  6.244415e-02  1.630692e+00
   endloop
 endfacet
 facet normal  0.000000e+00 -0.000000e+00  1.000000e+00
   outer loop
     vertex  1.805997e-01  4.564415e-02  1.630692e+00
     vertex  1.805997e-01  9.924415e-02  1.630692e+00
     vertex  1.205997e-01  7.244415e-02  1.630692e+00
   endloop
 endfacet
 facet normal  0.000000e+00  0.000000e+00  1.000000e+00
   outer loop
     vertex  1.805997e-01  9.924415e-02  1.630692e+00
     vertex -2.194003e-01  9.924415e-02  1.630692e+00
     vertex -1.494003e-01  8.244415e-02  1.630692e+00
   endloop
 endfacet
 facet normal  0.000000e+00  0.000000e+00  1.000000e+00
   outer loop
     vertex  1.805997e-01  9.924415e-02  1.630692e+00
     vertex -1.494003e-01  8.244415e-02  1.630692e+00
     vertex -8.233277e-02  7.664415e-02  1.630692e+00
   endloop
 endfacet
 facet normal  0.000000e+00  0.000000e+00  1.000000e+00
   outer loop
     vertex  1.805997e-01  9.924415e-02  1.630692e+00
     vertex -8.233277e-02  7.664415e-02  1.630692e+00
     vertex  1.105997e-01  8.244415e-02  1.630692e+00
   endloop
 endfacet
 facet normal  0.000000e+00  0.000000e+00  1.000000e+00
   outer loop
     vertex  1.105997e-01  8.244415e-02  1.630692e+00
     vertex -8.233277e-02  7.664415e-02  1.630692e+00
     vertex  4.353223e-02  7.664415e-02  1.630692e+00
   endloop
 endfacet
 facet normal  0.000000e+00  0.000000e+00  1.000000e+00
   outer loop
     vertex -2.194003e-01  4.564415e-02  1.630692e+00
     vertex  1.805997e-01  4.564415e-02  1.630692e+00
     vertex -1.494003e-01  6.244415e-02  1.630692e+00
   endloop
 endfacet
 facet normal -0.000000e+00  0.000000e+00  1.000000e+00
   outer loop
     vertex -1.494003e-01  6.244415e-02  1.630692e+00
     vertex  1.805997e-01  4.564415e-02  1.630692e+00
     vertex -8.233277e-02  6.824415e-02  1.630692e+00
   endloop
 endfacet
 facet normal  0.000000e+00  0.000000e+00  1.000000e+00
   outer loop
     vertex -8.233277e-02  6.824415e-02  1.630692e+00
     vertex  1.805997e-01  4.564415e-02  1.630692e+00
     vertex  1.105997e-01  6.244415e-02  1.630692e+00
   endloop
 endfacet
 facet normal -0.000000e+00  0.000000e+00  1.000000e+00
   outer loop
     vertex -8.233277e-02  6.824415e-02  1.630692e+00
     vertex  1.105997e-01  6.244415e-02  1.630692e+00
     vertex  4.353223e-02  6.824415e-02  1.630692e+00
   endloop
 endfacet
 facet normal  7.071068e-01 -7.071068e-01  0.000000e+00
   outer loop
     vertex -1.494003e-01  8.244415e-02  1.590692e+00
     vertex -1.594003e-01  7.244415e-02  1.593892e+00
     vertex -1.594003e-01  7.244415e-02  1.590692e+00
   endloop
 endfacet
 facet normal  7.071068e-01 -7.071068e-01  0.000000e+00
   outer loop
     vertex -1.494003e-01  8.244415e-02  1.590692e+00
     vertex -1.494003e-01  8.244415e-02  1.593892e+00
     vertex -1.594003e-01  7.244415e-02  1.593892e+00
   endloop
 endfacet
 facet normal -7.071068e-01 -7.071068e-01  0.000000e+00
   outer loop
     vertex -1.394003e-01  7.244415e-02  1.590692e+00
     vertex -1.394003e-01  7.244415e-02  1.593892e+00
     vertex -1.494003e-01  8.244415e-02  1.593892e+00
   endloop
 endfacet
 facet normal -7.071068e-01 -7.071068e-01  0.000000e+00
   outer loop
     vertex -1.394003e-01  7.244415e-02  1.590692e+00
     vertex -1.494003e-01  8.244415e-02  1.593892e+00
     vertex -1.494003e-01  8.244415e-02  1.590692e+00
   endloop
 endfacet
 facet normal -7.071068e-01  7.071068e-01  0.000000e+00
   outer loop
     vertex -1.494003e-01  6.244415e-02  1.590692e+00
     vertex -1.494003e-01  6.244415e-02  1.593892e+00
     vertex -1.394003e-01  7.244415e-02  1.593892e+00
   endloop
 endfacet
 facet normal -7.071068e-01  7.071068e-01  0.000000e+00
   outer loop
     vertex -1.494003e-01  6.244415e-02  1.590692e+00
     vertex -1.394003e-01  7.244415e-02  1.593892e+00
     vertex -1.394003e-01  7.244415e-02  1.590692e+00
   endloop
 endfacet
 facet normal  7.071068e-01  7.071068e-01 -0.000000e+00
   outer loop
     vertex -1.594003e-01  7.244415e-02  1.590692e+00
     vertex -1.594003e-01  7.244415e-02  1.593892e+00
     vertex -1.494003e-01  6.244415e-02  1.593892e+00
   endloop
 endfacet
 facet normal  7.071068e-01  7.071068e-01  0.000000e+00
   outer loop
     vertex -1.594003e-01  7.244415e-02  1.590692e+00
     vertex -1.494003e-01  6.244415e-02  1.593892e+00
     vertex -1.494003e-01  6.244415e-02  1.590692e+00
   endloop
 endfacet
 facet normal  7.071068e-01 -7.071068e-01  0.000000e+00
   outer loop
     vertex -1.494003e-01  8.244415e-02  1.627492e+00
     vertex -1.594003e-01  7.244415e-02  1.630692e+00
     vertex -1.594003e-01  7.244415e-02  1.627492e+00
   endloop
 endfacet
 facet normal  7.071068e-01 -7.071068e-01  0.000000e+00
   outer loop
     vertex -1.494003e-01  8.244415e-02  1.627492e+00
     vertex -1.494003e-01  8.244415e-02  1.630692e+00
     vertex -1.594003e-01  7.244415e-02  1.630692e+00
   endloop
 endfacet
 facet normal -7.071068e-01 -7.071068e-01  0.000000e+00
   outer loop
     vertex -1.394003e-01  7.244415e-02  1.627492e+00
     vertex -1.394003e-01  7.244415e-02  1.630692e+00
     vertex -1.494003e-01  8.244415e-02  1.630692e+00
   endloop
 endfacet
 facet normal -7.071068e-01 -7.071068e-01  0.000000e+00
   outer loop
     vertex -1.394003e-01  7.244415e-02  1.627492e+00
     vertex -1.494003e-01  8.244415e-02  1.630692e+00
     vertex -1.494003e-01  8.244415e-02  1.627492e+00
   endloop
 endfacet
 facet normal -7.071068e-01  7.071068e-01  0.000000e+00
   outer loop
     vertex -1.494003e-01  6.244415e-02  1.627492e+00
     vertex -1.494003e-01  6.244415e-02  1.630692e+00
     vertex -1.394003e-01  7.244415e-02  1.630692e+00
   endloop
 endfacet
 facet normal -7.071068e-01  7.071068e-01  0.000000e+00
   outer loop
     vertex -1.494003e-01  6.244415e-02  1.627492e+00
     vertex -1.394003e-01  7.244415e-02  1.630692e+00
     vertex -1.394003e-01  7.244415e-02  1.627492e+00
   endloop
 endfacet
 facet normal  7.071068e-01  7.071068e-01 -0.000000e+00
   outer loop
     vertex -1.594003e-01  7.244415e-02  1.627492e+00
     vertex -1.594003e-01  7.244415e-02  1.630692e+00
     vertex -1.494003e-01  6.244415e-02  1.630692e+00
   endloop
 endfacet
 facet normal  7.071068e-01  7.071068e-01  0.000000e+00
   outer loop
     vertex -1.594003e-01  7.244415e-02  1.627492e+00
     vertex -1.494003e-01  6.244415e-02  1.630692e+00
     vertex -1.494003e-01  6.244415e-02  1.627492e+00
   endloop
 endfacet
 facet normal -7.071068e-01 -7.071068e-01  0.000000e+00
   outer loop
     vertex  1.105997e-01  8.244415e-02  1.593892e+00
     vertex  1.205997e-01  7.244415e-02  1.590692e+00
     vertex  1.205997e-01  7.244415e-02  1.593892e+00
   endloop
 endfacet
 facet normal -7.071068e-01 -7.071068e-01 -0.000000e+00
   outer loop
     vertex  1.105997e-01  8.244415e-02  1.593892e+00
     vertex  1.105997e-01  8.244415e-02  1.590692e+00
     vertex  1.205997e-01  7.244415e-02  1.590692e+00
   endloop
 endfacet
 facet normal  7.071068e-01 -7.071068e-01  0.000000e+00
   outer loop
     vertex  1.005997e-01  7.244415e-02  1.593892e+00
     vertex  1.005997e-01  7.244415e-02  1.590692e+00
     vertex  1.105997e-01  8.244415e-02  1.590692e+00
   endloop
 endfacet
 facet normal  7.071068e-01 -7.071068e-01  0.000000e+00
   outer loop
     vertex  1.005997e-01  7.244415e-02  1.593892e+00
     vertex  1.105997e-01  8.244415e-02  1.590692e+00
     vertex  1.105997e-01  8.244415e-02  1.593892e+00
   endloop
 endfacet
 facet normal  7.071068e-01  7.071068e-01  0.000000e+00
   outer loop
     vertex  1.105997e-01  6.244415e-02  1.593892e+00
     vertex  1.105997e-01  6.244415e-02  1.590692e+00
     vertex  1.005997e-01  7.244415e-02  1.590692e+00
   endloop
 endfacet
 facet normal  7.071068e-01  7.071068e-01  0.000000e+00
   outer loop
     vertex  1.105997e-01  6.244415e-02  1.593892e+00
     vertex  1.005997e-01  7.244415e-02  1.590692e+00
     vertex  1.005997e-01  7.244415e-02  1.593892e+00
   endloop
 endfacet
 facet normal -7.071068e-01  7.071068e-01  0.000000e+00
   outer loop
     vertex  1.205997e-01  7.244415e-02  1.593892e+00
     vertex  1.205997e-01  7.244415e-02  1.590692e+00
     vertex  1.105997e-01  6.244415e-02  1.590692e+00
   endloop
 endfacet
 facet normal -7.071068e-01  7.071068e-01  0.000000e+00
   outer loop
     vertex  1.205997e-01  7.244415e-02  1.593892e+00
     vertex  1.105997e-01  6.244415e-02  1.590692e+00
     vertex  1.105997e-01  6.244415e-02  1.593892e+00
   endloop
 endfacet
 facet normal -7.071068e-01 -7.071068e-01  0.000000e+00
   outer loop
     vertex  1.105997e-01  8.244415e-02  1.630692e+00
     vertex  1.205997e-01  7.244415e-02  1.627492e+00
     vertex  1.205997e-01  7.244415e-02  1.630692e+00
   endloop
 endfacet
 facet normal -7.071068e-01 -7.071068e-01 -0.000000e+00
   outer loop
     vertex  1.105997e-01  8.244415e-02  1.630692e+00
     vertex  1.105997e-01  8.244415e-02  1.627492e+00
     vertex  1.205997e-01  7.244415e-02  1.627492e+00
   endloop
 endfacet
 facet normal  7.071068e-01 -7.071068e-01  0.000000e+00
   outer loop
     vertex  1.005997e-01  7.244415e-02  1.630692e+00
     vertex  1.005997e-01  7.244415e-02  1.627492e+00
     vertex  1.105997e-01  8.244415e-02  1.627492e+00
   endloop
 endfacet
 facet normal  7.071068e-01 -7.071068e-01  0.000000e+00
   outer loop
     vertex  1.005997e-01  7.244415e-02  1.630692e+00
     vertex  1.105997e-01  8.244415e-02  1.627492e+00
     vertex  1.105997e-01  8.244415e-02  1.630692e+00
   endloop
 endfacet
 facet normal  7.071068e-01  7.071068e-01  0.000000e+00
   outer loop
     vertex  1.105997e-01  6.244415e-02  1.630692e+00
     vertex  1.105997e-01  6.244415e-02  1.627492e+00
     vertex  1.005997e-01  7.244415e-02  1.627492e+00
   endloop
 endfacet
 facet normal  7.071068e-01  7.071068e-01  0.000000e+00
   outer loop
     vertex  1.105997e-01  6.244415e-02  1.630692e+00
     vertex  1.005997e-01  7.244415e-02  1.627492e+00
     vertex  1.005997e-01  7.244415e-02  1.630692e+00
   endloop
 endfacet
 facet normal -7.071068e-01  7.071068e-01  0.000000e+00
   outer loop
     vertex  1.205997e-01  7.244415e-02  1.630692e+00
     vertex  1.205997e-01  7.244415e-02  1.627492e+00
     vertex  1.105997e-01  6.244415e-02  1.627492e+00
   endloop
 endfacet
 facet normal -7.071068e-01  7.071068e-01  0.000000e+00
   outer loop
     vertex  1.205997e-01  7.244415e-02  1.630692e+00
     vertex  1.105997e-01  6.244415e-02  1.627492e+00
     vertex  1.105997e-01  6.244415e-02  1.630692e+00
   endloop
 endfacet
 facet normal  7.071068e-01  7.071068e-01  0.000000e+00
   outer loop
     vertex -8.233277e-02  6.824415e-02  1.593892e+00
     vertex -8.653277e-02  7.244415e-02  1.590692e+00
     vertex -8.653277e-02  7.244415e-02  1.593892e+00
   endloop
 endfacet
 facet normal  7.071068e-01  7.071068e-01  0.000000e+00
   outer loop
     vertex -8.233277e-02  6.824415e-02  1.593892e+00
     vertex -8.233277e-02  6.824415e-02  1.590692e+00
     vertex -8.653277e-02  7.244415e-02  1.590692e+00
   endloop
 endfacet
 facet normal -7.071068e-01  7.071068e-01  0.000000e+00
   outer loop
     vertex -7.813277e-02  7.244415e-02  1.593892e+00
     vertex -7.813277e-02  7.244415e-02  1.590692e+00
     vertex -8.233277e-02  6.824415e-02  1.590692e+00
   endloop
 endfacet
 facet normal -7.071068e-01  7.071068e-01  0.000000e+00
   outer loop
     vertex -7.813277e-02  7.244415e-02  1.593892e+00
     vertex -8.233277e-02  6.824415e-02  1.590692e+00
     vertex -8.233277e-02  6.824415e-02  1.593892e+00
   endloop
 endfacet
 facet normal -7.071068e-01 -7.071068e-01 -0.000000e+00
   outer loop
     vertex -8.233277e-02  7.664415e-02  1.593892e+00
     vertex -8.233277e-02  7.664415e-02  1.590692e+00
     vertex -7.813277e-02  7.244415e-02  1.590692e+00
   endloop
 endfacet
 facet normal -7.071068e-01 -7.071068e-01  0.000000e+00
   outer loop
     vertex -8.233277e-02  7.664415e-02  1.593892e+00
     vertex -7.813277e-02  7.244415e-02  1.590692e+00
     vertex -7.813277e-02  7.244415e-02  1.593892e+00
   endloop
 endfacet
 facet normal  7.071068e-01 -7.071068e-01  0.000000e+00
   outer loop
     vertex -8.653277e-02  7.244415e-02  1.593892e+00
     vertex -8.653277e-02  7.244415e-02  1.590692e+00
     vertex -8.233277e-02  7.664415e-02  1.590692e+00
   endloop
 endfacet
 facet normal  7.071068e-01 -7.071068e-01  0.000000e+00
   outer loop
     vertex -8.653277e-02  7.244415e-02  1.593892e+00
     vertex -8.233277e-02  7.664415e-02  1.590692e+00
     vertex -8.233277e-02  7.664415e-02  1.593892e+00
   endloop
 endfacet
 facet normal  7.071068e-01  7.071068e-01  0.000000e+00
   outer loop
     vertex -8.233277e-02  6.824415e-02  1.630692e+00
     vertex -8.653277e-02  7.244415e-02  1.627492e+00
     vertex -8.653277e-02  7.244415e-02  1.630692e+00
   endloop
 endfacet
 facet normal  7.071068e-01  7.071068e-01  0.000000e+00
   outer loop
     vertex -8.233277e-02  6.824415e-02  1.630692e+00
     vertex -8.233277e-02  6.824415e-02  1.627492e+00
     vertex -8.653277e-02  7.244415e-02  1.627492e+00
   endloop
 endfacet
 facet normal -7.071068e-01  7.071068e-01  0.000000e+00
   outer loop
     vertex -7.813277e-02  7.244415e-02  1.630692e+00
     vertex -7.813277e-02  7.244415e-02  1.627492e+00
     vertex -8.233277e-02  6.824415e-02  1.627492e+00
   endloop
 endfacet
 facet normal -7.071068e-01  7.071068e-01  0.000000e+00
   outer loop
     vertex -7.813277e-02  7.244415e-02  1.630692e+00
     vertex -8.233277e-02  6.824415e-02  1.627492e+00
     vertex -8.233277e-02  6.824415e-02  1.630692e+00
   endloop
 endfacet
 facet normal -7.071068e-01 -7.071068e-01 -0.000000e+00
   outer loop
     vertex -8.233277e-02  7.664415e-02  1.630692e+00
     vertex -8.233277e-02  7.664415e-02  1.627492e+00
     vertex -7.813277e-02  7.244415e-02  1.627492e+00
   endloop
 endfacet
 facet normal -7.071068e-01 -7.071068e-01  0.000000e+00
   outer loop
     vertex -8.233277e-02  7.664415e-02  1.630692e+00
     vertex -7.813277e-02  7.244415e-02  1.627492e+00
     vertex -7.813277e-02  7.244415e-02  1.630692e+00
   endloop
 endfacet
 facet normal  7.071068e-01 -7.071068e-01  0.000000e+00
   outer loop
     vertex -8.653277e-02  7.244415e-02  1.630692e+00
     vertex -8.653277e-02  7.244415e-02  1.627492e+00
     vertex -8.233277e-02  7.664415e-02  1.627492e+00
   endloop
 endfacet
 facet normal  7.071068e-01 -7.071068e-01  0.000000e+00
   outer loop
     vertex -8.653277e-02  7.244415e-02  1.630692e+00
     vertex -8.233277e-02  7.664415e-02  1.627492e+00
     vertex -8.233277e-02  7.664415e-02  1.630692e+00
   endloop
 endfacet
 facet normal  7.071068e-01  7.071068e-01  0.000000e+00
   outer loop
     vertex  4.353223e-02  6.824415e-02  1.593892e+00
     vertex  3.933223e-02  7.244415e-02  1.590692e+00
     vertex  3.933223e-02  7.244415e-02  1.593892e+00
   endloop
 endfacet
 facet normal  7.071068e-01  7.071068e-01  0.000000e+00
   outer loop
     vertex  4.353223e-02  6.824415e-02  1.593892e+00
     vertex  4.353223e-02  6.824415e-02  1.590692e+00
     vertex  3.933223e-02  7.244415e-02  1.590692e+00
   endloop
 endfacet
 facet normal -7.071068e-01  7.071068e-01  0.000000e+00
   outer loop
     vertex  4.773223e-02  7.244415e-02  1.593892e+00
     vertex  4.773223e-02  7.244415e-02  1.590692e+00
     vertex  4.353223e-02  6.824415e-02  1.590692e+00
   endloop
 endfacet
 facet normal -7.071068e-01  7.071068e-01  0.000000e+00
   outer loop
     vertex  4.773223e-02  7.244415e-02  1.593892e+00
     vertex  4.353223e-02  6.824415e-02  1.590692e+00
     vertex  4.353223e-02  6.824415e-02  1.593892e+00
   endloop
 endfacet
 facet normal -7.071068e-01 -7.071068e-01 -0.000000e+00
   outer loop
     vertex  4.353223e-02  7.664415e-02  1.593892e+00
     vertex  4.353223e-02  7.664415e-02  1.590692e+00
     vertex  4.773223e-02  7.244415e-02  1.590692e+00
   endloop
 endfacet
 facet normal -7.071068e-01 -7.071068e-01  0.000000e+00
   outer loop
     vertex  4.353223e-02  7.664415e-02  1.593892e+00
     vertex  4.773223e-02  7.244415e-02  1.590692e+00
     vertex  4.773223e-02  7.244415e-02  1.593892e+00
   endloop
 endfacet
 facet normal  7.071068e-01 -7.071068e-01  0.000000e+00
   outer loop
     vertex  3.933223e-02  7.244415e-02  1.593892e+00
     vertex  3.933223e-02  7.244415e-02  1.590692e+00
     vertex  4.353223e-02  7.664415e-02  1.590692e+00
   endloop
 endfacet
 facet normal  7.071068e-01 -7.071068e-01  0.000000e+00
   outer loop
     vertex  3.933223e-02  7.244415e-02  1.593892e+00
     vertex  4.353223e-02  7.664415e-02  1.590692e+00
     vertex  4.353223e-02  7.664415e-02  1.593892e+00
   endloop
 endfacet
 facet normal  7.071068e-01  7.071068e-01  0.000000e+00
   outer loop
     vertex  4.353223e-02  6.824415e-02  1.630692e+00
     vertex  3.933223e-02  7.244415e-02  1.627492e+00
     vertex  3.933223e-02  7.244415e-02  1.630692e+00
   endloop
 endfacet
 facet normal  7.071068e-01  7.071068e-01  0.000000e+00
   outer loop
     vertex  4.353223e-02  6.824415e-02  1.630692e+00
     vertex  4.353223e-02  6.824415e-02  1.627492e+00
     vertex  3.933223e-02  7.244415e-02  1.627492e+00
   endloop
 endfacet
 facet normal -7.071068e-01  7.071068e-01  0.000000e+00
   outer loop
     vertex  4.773223e-02  7.244415e-02  1.630692e+00
     vertex  4.773223e-02  7.244415e-02  1.627492e+00
     vertex  4.353223e-02  6.824415e-02  1.627492e+00
   endloop
 endfacet
 facet normal -7.071068e-01  7.071068e-01  0.000000e+00
   outer loop
     vertex  4.773223e-02  7.244415e-02  1.630692e+00
     vertex  4.353223e-02  6.824415e-02  1.627492e+00
     vertex  4.353223e-02  6.824415e-02  1.630692e+00
   endloop
 endfacet
 facet normal -7.071068e-01 -7.071068e-01 -0.000000e+00
   outer loop
     vertex  4.353223e-02  7.664415e-02  1.630692e+00
     vertex  4.353223e-02  7.664415e-02  1.627492e+00
     vertex  4.773223e-02  7.244415e-02  1.627492e+00
   endloop
 endfacet
 facet normal -7.071068e-01 -7.071068e-01  0.000000e+00
   outer loop
     vertex  4.353223e-02  7.664415e-02  1.630692e+00
     vertex  4.773223e-02  7.244415e-02  1.627492e+00
     vertex  4.773223e-02  7.244415e-02  1.630692e+00
   endloop
 endfacet
 facet normal  7.071068e-01 -7.071068e-01  0.000000e+00
   outer loop
     vertex  3.933223e-02  7.244415e-02  1.630692e+00
     vertex  3.933223e-02  7.244415e-02  1.627492e+00
     vertex  4.353223e-02  7.664415e-02  1.627492e+00
   endloop
 endfacet
 facet normal  7.071068e-01 -7.071068e-01  0.000000e+00
   outer loop
     vertex  3.933223e-02  7.244415e-02  1.630692e+00
     vertex  4.353223e-02  7.664415e-02  1.627492e+00
     vertex  4.353223e-02  7.664415e-02  1.630692e+00
   endloop
 endfacet
 facet normal -7.071068e-01  7.071068e-01  0.000000e+00
   outer loop
     vertex -1.663708e-01  5.297359e-02  1.590692e+00
     vertex -1.638708e-01  5.547359e-02  1.593892e+00
     vertex -1.638708e-01  5.547359e-02  1.590692e+00
   endloop
 endfacet
 facet normal -7.071068e-01  7.071068e-01  0.000000e+00
   outer loop
     vertex -1.663708e-01  5.297359e-02  1.590692e+00
     vertex -1.663708e-01  5.297359e-02  1.593892e+00
     vertex -1.638708e-01  5.547359e-02  1.593892e+00
   endloop
 endfacet
 facet normal  7.071068e-01  7.071068e-01 -0.000000e+00
   outer loop
     vertex -1.688708e-01  5.547359e-02  1.590692e+00
     vertex -1.688708e-01  5.547359e-02  1.593892e+00
     vertex -1.663708e-01  5.297359e-02  1.593892e+00
   endloop
 endfacet
 facet normal  7.071068e-01  7.071068e-01  0.000000e+00
   outer loop
     vertex -1.688708e-01  5.547359e-02  1.590692e+00
     vertex -1.663708e-01  5.297359e-02  1.593892e+00
     vertex -1.663708e-01  5.297359e-02  1.590692e+00
   endloop
 endfacet
 facet normal  7.071068e-01 -7.071068e-01  0.000000e+00
   outer loop
     vertex -1.663708e-01  5.797359e-02  1.590692e+00
     vertex -1.663708e-01  5.797359e-02  1.593892e+00
     vertex -1.688708e-01  5.547359e-02  1.593892e+00
   endloop
 endfacet
 facet normal  7.071068e-01 -7.071068e-01  0.000000e+00
   outer loop
     vertex -1.663708e-01  5.797359e-02  1.590692e+00
     vertex -1.688708e-01  5.547359e-02  1.593892e+00
     vertex -1.688708e-01  5.547359e-02  1.590692e+00
   endloop
 endfacet
 facet normal -7.071068e-01 -7.071068e-01  0.000000e+00
   outer loop
     vertex -1.638708e-01  5.547359e-02  1.590692e+00
     vertex -1.638708e-01  5.547359e-02  1.593892e+00
     vertex -1.663708e-01  5.797359e-02  1.593892e+00
   endloop
 endfacet
 facet normal -7.071068e-01 -7.071068e-01  0.000000e+00
   outer loop
     vertex -1.638708e-01  5.547359e-02  1.590692e+00
     vertex -1.663708e-01  5.797359e-02  1.593892e+00
     vertex -1.663708e-01  5.797359e-02  1.590692e+00
   endloop
 endfacet
 facet normal -7.071068e-01  7.071068e-01  0.000000e+00
   outer loop
     vertex -1.324297e-01  8.691471e-02  1.590692e+00
     vertex -1.299297e-01  8.941471e-02  1.593892e+00
     vertex -1.299297e-01  8.941471e-02  1.590692e+00
   endloop
 endfacet
 facet normal -7.071068e-01  7.071068e-01  0.000000e+00
   outer loop
     vertex -1.324297e-01  8.691471e-02  1.590692e+00
     vertex -1.324297e-01  8.691471e-02  1.593892e+00
     vertex -1.299297e-01  8.941471e-02  1.593892e+00
   endloop
 endfacet
 facet normal  7.071068e-01  7.071068e-01 -0.000000e+00
   outer loop
     vertex -1.349297e-01  8.941471e-02  1.590692e+00
     vertex -1.349297e-01  8.941471e-02  1.593892e+00
     vertex -1.324297e-01  8.691471e-02  1.593892e+00
   endloop
 endfacet
 facet normal  7.071068e-01  7.071068e-01  0.000000e+00
   outer loop
     vertex -1.349297e-01  8.941471e-02  1.590692e+00
     vertex -1.324297e-01  8.691471e-02  1.593892e+00
     vertex -1.324297e-01  8.691471e-02  1.590692e+00
   endloop
 endfacet
 facet normal  7.071068e-01 -7.071068e-01  0.000000e+00
   outer loop
     vertex -1.324297e-01  9.191471e-02  1.590692e+00
     vertex -1.324297e-01  9.191471e-02  1.593892e+00
     vertex -1.349297e-01  8.941471e-02  1.593892e+00
   endloop
 endfacet
 facet normal  7.071068e-01 -7.071068e-01  0.000000e+00
   outer loop
     vertex -1.324297e-01  9.191471e-02  1.590692e+00
     vertex -1.349297e-01  8.941471e-02  1.593892e+00
     vertex -1.349297e-01  8.941471e-02  1.590692e+00
   endloop
 endfacet
 facet normal -7.071068e-01 -7.071068e-01  0.000000e+00
   outer loop
     vertex -1.299297e-01  8.941471e-02  1.590692e+00
     vertex -1.299297e-01  8.941471e-02  1.593892e+00
     vertex -1.324297e-01  9.191471e-02  1.593892e+00
   endloop
 endfacet
 facet normal -7.071068e-01 -7.071068e-01  0.000000e+00
   outer loop
     vertex -1.299297e-01  8.941471e-02  1.590692e+00
     vertex -1.324297e-01  9.191471e-02  1.593892e+00
     vertex -1.324297e-01  9.191471e-02  1.590692e+00
   endloop
 endfacet
 facet normal  7.071068e-01  7.071068e-01  0.000000e+00
   outer loop
     vertex  1.275703e-01  5.297359e-02  1.593892e+00
     vertex  1.250703e-01  5.547359e-02  1.590692e+00
     vertex  1.250703e-01  5.547359e-02  1.593892e+00
   endloop
 endfacet
 facet normal  7.071068e-01  7.071068e-01  0.000000e+00
   outer loop
     vertex  1.275703e-01  5.297359e-02  1.593892e+00
     vertex  1.275703e-01  5.297359e-02  1.590692e+00
     vertex  1.250703e-01  5.547359e-02  1.590692e+00
   endloop
 endfacet
 facet normal -7.071068e-01  7.071068e-01  0.000000e+00
   outer loop
     vertex  1.300703e-01  5.547359e-02  1.593892e+00
     vertex  1.300703e-01  5.547359e-02  1.590692e+00
     vertex  1.275703e-01  5.297359e-02  1.590692e+00
   endloop
 endfacet
 facet normal -7.071068e-01  7.071068e-01  0.000000e+00
   outer loop
     vertex  1.300703e-01  5.547359e-02  1.593892e+00
     vertex  1.275703e-01  5.297359e-02  1.590692e+00
     vertex  1.275703e-01  5.297359e-02  1.593892e+00
   endloop
 endfacet
 facet normal -7.071068e-01 -7.071068e-01 -0.000000e+00
   outer loop
     vertex  1.275703e-01  5.797359e-02  1.593892e+00
     vertex  1.275703e-01  5.797359e-02  1.590692e+00
     vertex  1.300703e-01  5.547359e-02  1.590692e+00
   endloop
 endfacet
 facet normal -7.071068e-01 -7.071068e-01  0.000000e+00
   outer loop
     vertex  1.275703e-01  5.797359e-02  1.593892e+00
     vertex  1.300703e-01  5.547359e-02  1.590692e+00
     vertex  1.300703e-01  5.547359e-02  1.593892e+00
   endloop
 endfacet
 facet normal  7.071068e-01 -7.071068e-01  0.000000e+00
   outer loop
     vertex  1.250703e-01  5.547359e-02  1.593892e+00
     vertex  1.250703e-01  5.547359e-02  1.590692e+00
     vertex  1.275703e-01  5.797359e-02  1.590692e+00
   endloop
 endfacet
 facet normal  7.071068e-01 -7.071068e-01  0.000000e+00
   outer loop
     vertex  1.250703e-01  5.547359e-02  1.593892e+00
     vertex  1.275703e-01  5.797359e-02  1.590692e+00
     vertex  1.275703e-01  5.797359e-02  1.593892e+00
   endloop
 endfacet
 facet normal  7.071068e-01  7.071068e-01  0.000000e+00
   outer loop
     vertex  9.362917e-02  8.691471e-02  1.593892e+00
     vertex  9.112917e-02  8.941471e-02  1.590692e+00
     vertex  9.112917e-02  8.941471e-02  1.593892e+00
   endloop
 endfacet
 facet normal  7.071068e-01  7.071068e-01  0.000000e+00
   outer loop
     vertex  9.362917e-02  8.691471e-02  1.593892e+00
     vertex  9.362917e-02  8.691471e-02  1.590692e+00
     vertex  9.112917e-02  8.941471e-02  1.590692e+00
   endloop
 endfacet
 facet normal -7.071068e-01  7.071068e-01  0.000000e+00
   outer loop
     vertex  9.612917e-02  8.941471e-02  1.593892e+00
     vertex  9.612917e-02  8.941471e-02  1.590692e+00
     vertex  9.362917e-02  8.691471e-02  1.590692e+00
   endloop
 endfacet
 facet normal -7.071068e-01  7.071068e-01  0.000000e+00
   outer loop
     vertex  9.612917e-02  8.941471e-02  1.593892e+00
     vertex  9.362917e-02  8.691471e-02  1.590692e+00
     vertex  9.362917e-02  8.691471e-02  1.593892e+00
   endloop
 endfacet
 facet normal -7.071068e-01 -7.071068e-01 -0.000000e+00
   outer loop
     vertex  9.362917e-02  9.191471e-02  1.593892e+00
     vertex  9.362917e-02  9.191471e-02  1.590692e+00
     vertex  9.612917e-02  8.941471e-02  1.590692e+00
   endloop
 endfacet
 facet normal -7.071068e-01 -7.071068e-01  0.000000e+00
   outer loop
     vertex  9.362917e-02  9.191471e-02  1.593892e+00
     vertex  9.612917e-02  8.941471e-02  1.590692e+00
     vertex  9.612917e-02  8.941471e-02  1.593892e+00
   endloop
 endfacet
 facet normal  7.071068e-01 -7.071068e-01  0.000000e+00
   outer loop
     vertex  9.112917e-02  8.941471e-02  1.593892e+00
     vertex  9.112917e-02  8.941471e-02  1.590692e+00
     vertex  9.362917e-02  9.191471e-02  1.590692e+00
   endloop
 endfacet
 facet normal  7.071068e-01 -7.071068e-01  0.000000e+00
   outer loop
     vertex  9.112917e-02  8.941471e-02  1.593892e+00
     vertex  9.362917e-02  9.191471e-02  1.590692e+00
     vertex  9.362917e-02  9.191471e-02  1.593892e+00
   endloop
 endfacet
endsolid
