solid 
 facet normal  0.000000e+00 -1.000000e+00  0.000000e+00
   outer loop
     vertex -3.031673e-01  1.514441e-01  8.686922e-01
     vertex -3.064003e-01  1.514441e-01  8.719252e-01
     vertex -3.096333e-01  1.514441e-01  8.686922e-01
   endloop
 endfacet
 facet normal -0.000000e+00 -1.000000e+00  0.000000e+00
   outer loop
     vertex -3.031673e-01  1.514441e-01  8.686922e-01
     vertex -3.096333e-01  1.514441e-01  8.686922e-01
     vertex -3.064003e-01  1.514441e-01  8.654592e-01
   endloop
 endfacet
 facet normal -3.779645e-01 -6.546537e-01 -6.546537e-01
   outer loop
     vertex -3.098644e-01  1.522111e-01  8.666922e-01
     vertex -3.064003e-01  1.522111e-01  8.646922e-01
     vertex -3.064003e-01  1.514441e-01  8.654592e-01
   endloop
 endfacet
 facet normal -3.091739e-01 -8.993459e-01 -3.091739e-01
   outer loop
     vertex -3.096333e-01  1.514441e-01  8.686922e-01
     vertex -3.098644e-01  1.522111e-01  8.666922e-01
     vertex -3.064003e-01  1.514441e-01  8.654592e-01
   endloop
 endfacet
 facet normal -9.574815e-01 -2.884948e-01 -0.000000e+00
   outer loop
     vertex -3.098644e-01  1.522111e-01  8.706922e-01
     vertex -3.098644e-01  1.522111e-01  8.666922e-01
     vertex -3.096333e-01  1.514441e-01  8.686922e-01
   endloop
 endfacet
 facet normal -3.091739e-01 -8.993459e-01  3.091739e-01
   outer loop
     vertex -3.064003e-01  1.514441e-01  8.719252e-01
     vertex -3.098644e-01  1.522111e-01  8.706922e-01
     vertex -3.096333e-01  1.514441e-01  8.686922e-01
   endloop
 endfacet
 facet normal -3.779645e-01 -6.546537e-01  6.546537e-01
   outer loop
     vertex -3.064003e-01  1.522111e-01  8.726922e-01
     vertex -3.098644e-01  1.522111e-01  8.706922e-01
     vertex -3.064003e-01  1.514441e-01  8.719252e-01
   endloop
 endfacet
 facet normal  3.779645e-01 -6.546537e-01  6.546537e-01
   outer loop
     vertex -3.029362e-01  1.522111e-01  8.706922e-01
     vertex -3.064003e-01  1.522111e-01  8.726922e-01
     vertex -3.064003e-01  1.514441e-01  8.719252e-01
   endloop
 endfacet
 facet normal  3.091739e-01 -8.993459e-01  3.091739e-01
   outer loop
     vertex -3.031673e-01  1.514441e-01  8.686922e-01
     vertex -3.029362e-01  1.522111e-01  8.706922e-01
     vertex -3.064003e-01  1.514441e-01  8.719252e-01
   endloop
 endfacet
 facet normal  9.574815e-01 -2.884948e-01  0.000000e+00
   outer loop
     vertex -3.029362e-01  1.522111e-01  8.666922e-01
     vertex -3.029362e-01  1.522111e-01  8.706922e-01
     vertex -3.031673e-01  1.514441e-01  8.686922e-01
   endloop
 endfacet
 facet normal  3.091739e-01 -8.993459e-01 -3.091739e-01
   outer loop
     vertex -3.064003e-01  1.514441e-01  8.654592e-01
     vertex -3.029362e-01  1.522111e-01  8.666922e-01
     vertex -3.031673e-01  1.514441e-01  8.686922e-01
   endloop
 endfacet
 facet normal  3.779645e-01 -6.546537e-01 -6.546537e-01
   outer loop
     vertex -3.064003e-01  1.522111e-01  8.646922e-01
     vertex -3.029362e-01  1.522111e-01  8.666922e-01
     vertex -3.064003e-01  1.514441e-01  8.654592e-01
   endloop
 endfacet
 facet normal -5.000000e-01  0.000000e+00  8.660254e-01
   outer loop
     vertex -3.098644e-01  1.522111e-01  8.706922e-01
     vertex -3.064003e-01  1.522111e-01  8.726922e-01
     vertex -3.064003e-01  1.675781e-01  8.726922e-01
   endloop
 endfacet
 facet normal -5.000000e-01  0.000000e+00  8.660254e-01
   outer loop
     vertex -3.098644e-01  1.522111e-01  8.706922e-01
     vertex -3.064003e-01  1.675781e-01  8.726922e-01
     vertex -3.098644e-01  1.675781e-01  8.706922e-01
   endloop
 endfacet
 facet normal -1.000000e+00  0.000000e+00  0.000000e+00
   outer loop
     vertex -3.098644e-01  1.522111e-01  8.666922e-01
     vertex -3.098644e-01  1.675781e-01  8.706922e-01
     vertex -3.098644e-01  1.675781e-01  8.666922e-01
   endloop
 endfacet
 facet normal -1.000000e+00  0.000000e+00  0.000000e+00
   outer loop
     vertex -3.098644e-01  1.522111e-01  8.666922e-01
     vertex -3.098644e-01  1.522111e-01  8.706922e-01
     vertex -3.098644e-01  1.675781e-01  8.706922e-01
   endloop
 endfacet
 facet normal -5.000000e-01  0.000000e+00 -8.660254e-01
   outer loop
     vertex -3.064003e-01  1.522111e-01  8.646922e-01
     vertex -3.098644e-01  1.675781e-01  8.666922e-01
     vertex -3.064003e-01  1.675781e-01  8.646922e-01
   endloop
 endfacet
 facet normal -5.000000e-01  0.000000e+00 -8.660254e-01
   outer loop
     vertex -3.064003e-01  1.522111e-01  8.646922e-01
     vertex -3.098644e-01  1.522111e-01  8.666922e-01
     vertex -3.098644e-01  1.675781e-01  8.666922e-01
   endloop
 endfacet
 facet normal  5.000000e-01  0.000000e+00 -8.660254e-01
   outer loop
     vertex -3.029362e-01  1.522111e-01  8.666922e-01
     vertex -3.064003e-01  1.675781e-01  8.646922e-01
     vertex -3.029362e-01  1.675781e-01  8.666922e-01
   endloop
 endfacet
 facet normal  5.000000e-01  0.000000e+00 -8.660254e-01
   outer loop
     vertex -3.029362e-01  1.522111e-01  8.666922e-01
     vertex -3.064003e-01  1.522111e-01  8.646922e-01
     vertex -3.064003e-01  1.675781e-01  8.646922e-01
   endloop
 endfacet
 facet normal  1.000000e+00 -0.000000e+00  0.000000e+00
   outer loop
     vertex -3.029362e-01  1.522111e-01  8.706922e-01
     vertex -3.029362e-01  1.675781e-01  8.666922e-01
     vertex -3.029362e-01  1.675781e-01  8.706922e-01
   endloop
 endfacet
 facet normal  1.000000e+00  0.000000e+00  0.000000e+00
   outer loop
     vertex -3.029362e-01  1.522111e-01  8.706922e-01
     vertex -3.029362e-01  1.522111e-01  8.666922e-01
     vertex -3.029362e-01  1.675781e-01  8.666922e-01
   endloop
 endfacet
 facet normal  5.000000e-01 -0.000000e+00  8.660254e-01
   outer loop
     vertex -3.064003e-01  1.522111e-01  8.726922e-01
     vertex -3.029362e-01  1.675781e-01  8.706922e-01
     vertex -3.064003e-01  1.675781e-01  8.726922e-01
   endloop
 endfacet
 facet normal  5.000000e-01  0.000000e+00  8.660254e-01
   outer loop
     vertex -3.064003e-01  1.522111e-01  8.726922e-01
     vertex -3.029362e-01  1.522111e-01  8.706922e-01
     vertex -3.029362e-01  1.675781e-01  8.706922e-01
   endloop
 endfacet
 facet normal -4.472136e-01 -4.472136e-01 -7.745967e-01
   outer loop
     vertex -3.102974e-01  1.684441e-01  8.664422e-01
     vertex -3.064003e-01  1.684441e-01  8.641922e-01
     vertex -3.064003e-01  1.675781e-01  8.646922e-01
   endloop
 endfacet
 facet normal -4.472136e-01 -4.472136e-01 -7.745967e-01
   outer loop
     vertex -3.102974e-01  1.684441e-01  8.664422e-01
     vertex -3.064003e-01  1.675781e-01  8.646922e-01
     vertex -3.098644e-01  1.675781e-01  8.666922e-01
   endloop
 endfacet
 facet normal -8.944272e-01 -4.472136e-01  0.000000e+00
   outer loop
     vertex -3.102974e-01  1.684441e-01  8.709422e-01
     vertex -3.098644e-01  1.675781e-01  8.666922e-01
     vertex -3.098644e-01  1.675781e-01  8.706922e-01
   endloop
 endfacet
 facet normal -8.944272e-01 -4.472136e-01 -0.000000e+00
   outer loop
     vertex -3.102974e-01  1.684441e-01  8.709422e-01
     vertex -3.102974e-01  1.684441e-01  8.664422e-01
     vertex -3.098644e-01  1.675781e-01  8.666922e-01
   endloop
 endfacet
 facet normal -4.472136e-01 -4.472136e-01  7.745967e-01
   outer loop
     vertex -3.064003e-01  1.684441e-01  8.731922e-01
     vertex -3.098644e-01  1.675781e-01  8.706922e-01
     vertex -3.064003e-01  1.675781e-01  8.726922e-01
   endloop
 endfacet
 facet normal -4.472136e-01 -4.472136e-01  7.745967e-01
   outer loop
     vertex -3.064003e-01  1.684441e-01  8.731922e-01
     vertex -3.102974e-01  1.684441e-01  8.709422e-01
     vertex -3.098644e-01  1.675781e-01  8.706922e-01
   endloop
 endfacet
 facet normal  4.472136e-01 -4.472136e-01  7.745967e-01
   outer loop
     vertex -3.025032e-01  1.684441e-01  8.709422e-01
     vertex -3.064003e-01  1.675781e-01  8.726922e-01
     vertex -3.029362e-01  1.675781e-01  8.706922e-01
   endloop
 endfacet
 facet normal  4.472136e-01 -4.472136e-01  7.745967e-01
   outer loop
     vertex -3.025032e-01  1.684441e-01  8.709422e-01
     vertex -3.064003e-01  1.684441e-01  8.731922e-01
     vertex -3.064003e-01  1.675781e-01  8.726922e-01
   endloop
 endfacet
 facet normal  8.944272e-01 -4.472136e-01  0.000000e+00
   outer loop
     vertex -3.025032e-01  1.684441e-01  8.664422e-01
     vertex -3.029362e-01  1.675781e-01  8.706922e-01
     vertex -3.029362e-01  1.675781e-01  8.666922e-01
   endloop
 endfacet
 facet normal  8.944272e-01 -4.472136e-01  0.000000e+00
   outer loop
     vertex -3.025032e-01  1.684441e-01  8.664422e-01
     vertex -3.025032e-01  1.684441e-01  8.709422e-01
     vertex -3.029362e-01  1.675781e-01  8.706922e-01
   endloop
 endfacet
 facet normal  4.472136e-01 -4.472136e-01 -7.745967e-01
   outer loop
     vertex -3.064003e-01  1.684441e-01  8.641922e-01
     vertex -3.029362e-01  1.675781e-01  8.666922e-01
     vertex -3.064003e-01  1.675781e-01  8.646922e-01
   endloop
 endfacet
 facet normal  4.472136e-01 -4.472136e-01 -7.745967e-01
   outer loop
     vertex -3.064003e-01  1.684441e-01  8.641922e-01
     vertex -3.025032e-01  1.684441e-01  8.664422e-01
     vertex -3.029362e-01  1.675781e-01  8.666922e-01
   endloop
 endfacet
 facet normal -5.000000e-01  0.000000e+00  8.660254e-01
   outer loop
     vertex -3.102974e-01  1.684441e-01  8.709422e-01
     vertex -3.064003e-01  1.684441e-01  8.731922e-01
     vertex -3.064003e-01  1.799316e-01  8.731922e-01
   endloop
 endfacet
 facet normal -7.035003e-01  1.008701e-01  7.035003e-01
   outer loop
     vertex -3.102974e-01  1.684441e-01  8.709422e-01
     vertex -3.064003e-01  1.799316e-01  8.731922e-01
     vertex -3.109003e-01  1.799316e-01  8.686922e-01
   endloop
 endfacet
 facet normal -7.035003e-01  1.008701e-01 -7.035003e-01
   outer loop
     vertex -3.102974e-01  1.684441e-01  8.664422e-01
     vertex -3.109003e-01  1.799316e-01  8.686922e-01
     vertex -3.064003e-01  1.799316e-01  8.641922e-01
   endloop
 endfacet
 facet normal -9.986257e-01 -5.240976e-02  0.000000e+00
   outer loop
     vertex -3.102974e-01  1.684441e-01  8.664422e-01
     vertex -3.102974e-01  1.684441e-01  8.709422e-01
     vertex -3.109003e-01  1.799316e-01  8.686922e-01
   endloop
 endfacet
 facet normal -5.000000e-01  0.000000e+00 -8.660254e-01
   outer loop
     vertex -3.064003e-01  1.684441e-01  8.641922e-01
     vertex -3.102974e-01  1.684441e-01  8.664422e-01
     vertex -3.064003e-01  1.799316e-01  8.641922e-01
   endloop
 endfacet
 facet normal  7.035003e-01  1.008701e-01 -7.035003e-01
   outer loop
     vertex -3.025032e-01  1.684441e-01  8.664422e-01
     vertex -3.064003e-01  1.799316e-01  8.641922e-01
     vertex -3.019003e-01  1.799316e-01  8.686922e-01
   endloop
 endfacet
 facet normal  5.000000e-01  0.000000e+00 -8.660254e-01
   outer loop
     vertex -3.025032e-01  1.684441e-01  8.664422e-01
     vertex -3.064003e-01  1.684441e-01  8.641922e-01
     vertex -3.064003e-01  1.799316e-01  8.641922e-01
   endloop
 endfacet
 facet normal  7.035003e-01  1.008701e-01  7.035003e-01
   outer loop
     vertex -3.025032e-01  1.684441e-01  8.709422e-01
     vertex -3.019003e-01  1.799316e-01  8.686922e-01
     vertex -3.064003e-01  1.799316e-01  8.731922e-01
   endloop
 endfacet
 facet normal  9.986257e-01 -5.240976e-02  0.000000e+00
   outer loop
     vertex -3.025032e-01  1.684441e-01  8.709422e-01
     vertex -3.025032e-01  1.684441e-01  8.664422e-01
     vertex -3.019003e-01  1.799316e-01  8.686922e-01
   endloop
 endfacet
 facet normal  5.000000e-01 -0.000000e+00  8.660254e-01
   outer loop
     vertex -3.064003e-01  1.684441e-01  8.731922e-01
     vertex -3.025032e-01  1.684441e-01  8.709422e-01
     vertex -3.064003e-01  1.799316e-01  8.731922e-01
   endloop
 endfacet
 facet normal -6.546537e-01  3.779645e-01  6.546537e-01
   outer loop
     vertex -3.109003e-01  1.799316e-01  8.686922e-01
     vertex -3.064003e-01  1.799316e-01  8.731922e-01
     vertex -3.064003e-01  1.806245e-01  8.727922e-01
   endloop
 endfacet
 facet normal -6.546537e-01  3.779645e-01  6.546537e-01
   outer loop
     vertex -3.109003e-01  1.799316e-01  8.686922e-01
     vertex -3.064003e-01  1.806245e-01  8.727922e-01
     vertex -3.105003e-01  1.806245e-01  8.686922e-01
   endloop
 endfacet
 facet normal -6.546537e-01  3.779645e-01 -6.546537e-01
   outer loop
     vertex -3.064003e-01  1.799316e-01  8.641922e-01
     vertex -3.105003e-01  1.806245e-01  8.686922e-01
     vertex -3.064003e-01  1.806245e-01  8.645922e-01
   endloop
 endfacet
 facet normal -6.546537e-01  3.779645e-01 -6.546537e-01
   outer loop
     vertex -3.064003e-01  1.799316e-01  8.641922e-01
     vertex -3.109003e-01  1.799316e-01  8.686922e-01
     vertex -3.105003e-01  1.806245e-01  8.686922e-01
   endloop
 endfacet
 facet normal  6.546537e-01  3.779645e-01 -6.546537e-01
   outer loop
     vertex -3.019003e-01  1.799316e-01  8.686922e-01
     vertex -3.064003e-01  1.806245e-01  8.645922e-01
     vertex -3.023003e-01  1.806245e-01  8.686922e-01
   endloop
 endfacet
 facet normal  6.546537e-01  3.779645e-01 -6.546537e-01
   outer loop
     vertex -3.019003e-01  1.799316e-01  8.686922e-01
     vertex -3.064003e-01  1.799316e-01  8.641922e-01
     vertex -3.064003e-01  1.806245e-01  8.645922e-01
   endloop
 endfacet
 facet normal  6.546537e-01  3.779645e-01  6.546537e-01
   outer loop
     vertex -3.064003e-01  1.799316e-01  8.731922e-01
     vertex -3.023003e-01  1.806245e-01  8.686922e-01
     vertex -3.064003e-01  1.806245e-01  8.727922e-01
   endloop
 endfacet
 facet normal  6.546537e-01  3.779645e-01  6.546537e-01
   outer loop
     vertex -3.064003e-01  1.799316e-01  8.731922e-01
     vertex -3.019003e-01  1.799316e-01  8.686922e-01
     vertex -3.023003e-01  1.806245e-01  8.686922e-01
   endloop
 endfacet
 facet normal -7.001159e-01  1.402688e-01  7.001159e-01
   outer loop
     vertex -3.104311e-01  1.809698e-01  8.686922e-01
     vertex -3.064003e-01  1.806245e-01  8.727922e-01
     vertex -3.064003e-01  1.809698e-01  8.727231e-01
   endloop
 endfacet
 facet normal -7.001159e-01  1.402688e-01  7.001159e-01
   outer loop
     vertex -3.104311e-01  1.809698e-01  8.686922e-01
     vertex -3.105003e-01  1.806245e-01  8.686922e-01
     vertex -3.064003e-01  1.806245e-01  8.727922e-01
   endloop
 endfacet
 facet normal -4.092133e-01 -8.155298e-01  4.092133e-01
   outer loop
     vertex -3.105855e-01  1.812862e-01  8.686922e-01
     vertex -3.064003e-01  1.814441e-01  8.731922e-01
     vertex -3.109003e-01  1.814441e-01  8.686922e-01
   endloop
 endfacet
 facet normal -6.684307e-01 -3.261912e-01  6.684307e-01
   outer loop
     vertex -3.105855e-01  1.812862e-01  8.686922e-01
     vertex -3.064003e-01  1.809698e-01  8.727231e-01
     vertex -3.064003e-01  1.812862e-01  8.728775e-01
   endloop
 endfacet
 facet normal -4.092133e-01 -8.155298e-01  4.092133e-01
   outer loop
     vertex -3.105855e-01  1.812862e-01  8.686922e-01
     vertex -3.064003e-01  1.812862e-01  8.728775e-01
     vertex -3.064003e-01  1.814441e-01  8.731922e-01
   endloop
 endfacet
 facet normal -6.684307e-01 -3.261912e-01  6.684307e-01
   outer loop
     vertex -3.105855e-01  1.812862e-01  8.686922e-01
     vertex -3.104311e-01  1.809698e-01  8.686922e-01
     vertex -3.064003e-01  1.809698e-01  8.727231e-01
   endloop
 endfacet
 facet normal -7.001159e-01  1.402688e-01 -7.001159e-01
   outer loop
     vertex -3.064003e-01  1.809698e-01  8.646614e-01
     vertex -3.064003e-01  1.806245e-01  8.645922e-01
     vertex -3.105003e-01  1.806245e-01  8.686922e-01
   endloop
 endfacet
 facet normal -7.001159e-01  1.402688e-01 -7.001159e-01
   outer loop
     vertex -3.064003e-01  1.809698e-01  8.646614e-01
     vertex -3.105003e-01  1.806245e-01  8.686922e-01
     vertex -3.104311e-01  1.809698e-01  8.686922e-01
   endloop
 endfacet
 facet normal -4.092133e-01 -8.155298e-01 -4.092133e-01
   outer loop
     vertex -3.064003e-01  1.812862e-01  8.645070e-01
     vertex -3.109003e-01  1.814441e-01  8.686922e-01
     vertex -3.064003e-01  1.814441e-01  8.641922e-01
   endloop
 endfacet
 facet normal -6.684307e-01 -3.261912e-01 -6.684307e-01
   outer loop
     vertex -3.064003e-01  1.812862e-01  8.645070e-01
     vertex -3.104311e-01  1.809698e-01  8.686922e-01
     vertex -3.105855e-01  1.812862e-01  8.686922e-01
   endloop
 endfacet
 facet normal -4.092133e-01 -8.155298e-01 -4.092133e-01
   outer loop
     vertex -3.064003e-01  1.812862e-01  8.645070e-01
     vertex -3.105855e-01  1.812862e-01  8.686922e-01
     vertex -3.109003e-01  1.814441e-01  8.686922e-01
   endloop
 endfacet
 facet normal -6.684307e-01 -3.261912e-01 -6.684307e-01
   outer loop
     vertex -3.064003e-01  1.812862e-01  8.645070e-01
     vertex -3.064003e-01  1.809698e-01  8.646614e-01
     vertex -3.104311e-01  1.809698e-01  8.686922e-01
   endloop
 endfacet
 facet normal  7.001159e-01  1.402688e-01  7.001159e-01
   outer loop
     vertex -3.023694e-01  1.809698e-01  8.686922e-01
     vertex -3.064003e-01  1.809698e-01  8.727231e-01
     vertex -3.064003e-01  1.806245e-01  8.727922e-01
   endloop
 endfacet
 facet normal  7.001159e-01  1.402688e-01 -7.001159e-01
   outer loop
     vertex -3.023694e-01  1.809698e-01  8.686922e-01
     vertex -3.023003e-01  1.806245e-01  8.686922e-01
     vertex -3.064003e-01  1.806245e-01  8.645922e-01
   endloop
 endfacet
 facet normal  7.001159e-01  1.402688e-01  7.001159e-01
   outer loop
     vertex -3.023694e-01  1.809698e-01  8.686922e-01
     vertex -3.064003e-01  1.806245e-01  8.727922e-01
     vertex -3.023003e-01  1.806245e-01  8.686922e-01
   endloop
 endfacet
 facet normal  7.001159e-01  1.402688e-01 -7.001159e-01
   outer loop
     vertex -3.023694e-01  1.809698e-01  8.686922e-01
     vertex -3.064003e-01  1.806245e-01  8.645922e-01
     vertex -3.064003e-01  1.809698e-01  8.646614e-01
   endloop
 endfacet
 facet normal  6.684307e-01 -3.261912e-01  6.684307e-01
   outer loop
     vertex -3.022150e-01  1.812862e-01  8.686922e-01
     vertex -3.064003e-01  1.812862e-01  8.728775e-01
     vertex -3.064003e-01  1.809698e-01  8.727231e-01
   endloop
 endfacet
 facet normal  4.092133e-01 -8.155298e-01  4.092133e-01
   outer loop
     vertex -3.022150e-01  1.812862e-01  8.686922e-01
     vertex -3.064003e-01  1.814441e-01  8.731922e-01
     vertex -3.064003e-01  1.812862e-01  8.728775e-01
   endloop
 endfacet
 facet normal  4.092133e-01 -8.155298e-01 -4.092133e-01
   outer loop
     vertex -3.022150e-01  1.812862e-01  8.686922e-01
     vertex -3.064003e-01  1.814441e-01  8.641922e-01
     vertex -3.019003e-01  1.814441e-01  8.686922e-01
   endloop
 endfacet
 facet normal  4.092133e-01 -8.155298e-01  4.092133e-01
   outer loop
     vertex -3.022150e-01  1.812862e-01  8.686922e-01
     vertex -3.019003e-01  1.814441e-01  8.686922e-01
     vertex -3.064003e-01  1.814441e-01  8.731922e-01
   endloop
 endfacet
 facet normal  6.684307e-01 -3.261912e-01  6.684307e-01
   outer loop
     vertex -3.022150e-01  1.812862e-01  8.686922e-01
     vertex -3.064003e-01  1.809698e-01  8.727231e-01
     vertex -3.023694e-01  1.809698e-01  8.686922e-01
   endloop
 endfacet
 facet normal  4.092133e-01 -8.155298e-01 -4.092133e-01
   outer loop
     vertex -3.022150e-01  1.812862e-01  8.686922e-01
     vertex -3.064003e-01  1.812862e-01  8.645070e-01
     vertex -3.064003e-01  1.814441e-01  8.641922e-01
   endloop
 endfacet
 facet normal  6.684307e-01 -3.261912e-01 -6.684307e-01
   outer loop
     vertex -3.022150e-01  1.812862e-01  8.686922e-01
     vertex -3.023694e-01  1.809698e-01  8.686922e-01
     vertex -3.064003e-01  1.809698e-01  8.646614e-01
   endloop
 endfacet
 facet normal  6.684307e-01 -3.261912e-01 -6.684307e-01
   outer loop
     vertex -3.022150e-01  1.812862e-01  8.686922e-01
     vertex -3.064003e-01  1.809698e-01  8.646614e-01
     vertex -3.064003e-01  1.812862e-01  8.645070e-01
   endloop
 endfacet
 facet normal -0.000000e+00 -1.000000e+00  0.000000e+00
   outer loop
     vertex -3.064003e-01  1.814441e-01  8.731922e-01
     vertex -3.064003e-01  1.814441e-01  8.761978e-01
     vertex -3.129003e-01  1.814441e-01  8.724450e-01
   endloop
 endfacet
 facet normal  0.000000e+00 -1.000000e+00  0.000000e+00
   outer loop
     vertex -3.064003e-01  1.814441e-01  8.731922e-01
     vertex -3.129003e-01  1.814441e-01  8.724450e-01
     vertex -3.109003e-01  1.814441e-01  8.686922e-01
   endloop
 endfacet
 facet normal  0.000000e+00 -1.000000e+00  0.000000e+00
   outer loop
     vertex -3.129003e-01  1.814441e-01  8.649395e-01
     vertex -3.109003e-01  1.814441e-01  8.686922e-01
     vertex -3.129003e-01  1.814441e-01  8.724450e-01
   endloop
 endfacet
 facet normal  0.000000e+00 -1.000000e+00  0.000000e+00
   outer loop
     vertex -2.999003e-01  1.814441e-01  8.724450e-01
     vertex -3.064003e-01  1.814441e-01  8.761978e-01
     vertex -3.064003e-01  1.814441e-01  8.731922e-01
   endloop
 endfacet
 facet normal  0.000000e+00 -1.000000e+00  0.000000e+00
   outer loop
     vertex -3.064003e-01  1.814441e-01  8.641922e-01
     vertex -3.109003e-01  1.814441e-01  8.686922e-01
     vertex -3.129003e-01  1.814441e-01  8.649395e-01
   endloop
 endfacet
 facet normal  0.000000e+00 -1.000000e+00  0.000000e+00
   outer loop
     vertex -3.019003e-01  1.814441e-01  8.686922e-01
     vertex -2.999003e-01  1.814441e-01  8.724450e-01
     vertex -3.064003e-01  1.814441e-01  8.731922e-01
   endloop
 endfacet
 facet normal  0.000000e+00 -1.000000e+00  0.000000e+00
   outer loop
     vertex -3.064003e-01  1.814441e-01  8.611867e-01
     vertex -3.064003e-01  1.814441e-01  8.641922e-01
     vertex -3.129003e-01  1.814441e-01  8.649395e-01
   endloop
 endfacet
 facet normal -0.000000e+00 -1.000000e+00  0.000000e+00
   outer loop
     vertex -2.999003e-01  1.814441e-01  8.649395e-01
     vertex -3.019003e-01  1.814441e-01  8.686922e-01
     vertex -3.064003e-01  1.814441e-01  8.641922e-01
   endloop
 endfacet
 facet normal  0.000000e+00 -1.000000e+00  0.000000e+00
   outer loop
     vertex -2.999003e-01  1.814441e-01  8.649395e-01
     vertex -3.064003e-01  1.814441e-01  8.641922e-01
     vertex -3.064003e-01  1.814441e-01  8.611867e-01
   endloop
 endfacet
 facet normal  0.000000e+00 -1.000000e+00  0.000000e+00
   outer loop
     vertex -2.999003e-01  1.814441e-01  8.649395e-01
     vertex -2.999003e-01  1.814441e-01  8.724450e-01
     vertex -3.019003e-01  1.814441e-01  8.686922e-01
   endloop
 endfacet
 facet normal -1.000000e+00  0.000000e+00  0.000000e+00
   outer loop
     vertex -3.129003e-01  1.814441e-01  8.649395e-01
     vertex -3.129003e-01  1.867441e-01  8.686922e-01
     vertex -3.129003e-01  1.861636e-01  8.649395e-01
   endloop
 endfacet
 facet normal -1.000000e+00  0.000000e+00  0.000000e+00
   outer loop
     vertex -3.129003e-01  1.814441e-01  8.724450e-01
     vertex -3.129003e-01  1.861636e-01  8.724450e-01
     vertex -3.129003e-01  1.867441e-01  8.686922e-01
   endloop
 endfacet
 facet normal -1.000000e+00  0.000000e+00  0.000000e+00
   outer loop
     vertex -3.129003e-01  1.814441e-01  8.724450e-01
     vertex -3.129003e-01  1.867441e-01  8.686922e-01
     vertex -3.129003e-01  1.814441e-01  8.649395e-01
   endloop
 endfacet
 facet normal -5.000000e-01  0.000000e+00 -8.660254e-01
   outer loop
     vertex -3.064003e-01  1.814441e-01  8.611867e-01
     vertex -3.096503e-01  1.867441e-01  8.630631e-01
     vertex -3.064003e-01  1.861636e-01  8.611867e-01
   endloop
 endfacet
 facet normal -5.000000e-01  0.000000e+00 -8.660254e-01
   outer loop
     vertex -3.129003e-01  1.814441e-01  8.649395e-01
     vertex -3.129003e-01  1.861636e-01  8.649395e-01
     vertex -3.096503e-01  1.867441e-01  8.630631e-01
   endloop
 endfacet
 facet normal -5.000000e-01  2.681287e-12 -8.660254e-01
   outer loop
     vertex -3.129003e-01  1.814441e-01  8.649395e-01
     vertex -3.096503e-01  1.867441e-01  8.630631e-01
     vertex -3.064003e-01  1.814441e-01  8.611867e-01
   endloop
 endfacet
 facet normal  5.000000e-01  0.000000e+00 -8.660254e-01
   outer loop
     vertex -2.999003e-01  1.814441e-01  8.649395e-01
     vertex -3.031503e-01  1.867441e-01  8.630631e-01
     vertex -2.999003e-01  1.861636e-01  8.649395e-01
   endloop
 endfacet
 facet normal  5.000000e-01  0.000000e+00 -8.660254e-01
   outer loop
     vertex -3.064003e-01  1.814441e-01  8.611867e-01
     vertex -3.064003e-01  1.861636e-01  8.611867e-01
     vertex -3.031503e-01  1.867441e-01  8.630631e-01
   endloop
 endfacet
 facet normal  5.000000e-01  2.681287e-12 -8.660254e-01
   outer loop
     vertex -3.064003e-01  1.814441e-01  8.611867e-01
     vertex -3.031503e-01  1.867441e-01  8.630631e-01
     vertex -2.999003e-01  1.814441e-01  8.649395e-01
   endloop
 endfacet
 facet normal  1.000000e+00 -0.000000e+00  0.000000e+00
   outer loop
     vertex -2.999003e-01  1.814441e-01  8.724450e-01
     vertex -2.999003e-01  1.867441e-01  8.686922e-01
     vertex -2.999003e-01  1.861636e-01  8.724450e-01
   endloop
 endfacet
 facet normal  1.000000e+00  0.000000e+00  0.000000e+00
   outer loop
     vertex -2.999003e-01  1.814441e-01  8.649395e-01
     vertex -2.999003e-01  1.861636e-01  8.649395e-01
     vertex -2.999003e-01  1.867441e-01  8.686922e-01
   endloop
 endfacet
 facet normal  1.000000e+00  0.000000e+00  0.000000e+00
   outer loop
     vertex -2.999003e-01  1.814441e-01  8.649395e-01
     vertex -2.999003e-01  1.867441e-01  8.686922e-01
     vertex -2.999003e-01  1.814441e-01  8.724450e-01
   endloop
 endfacet
 facet normal  5.000000e-01 -0.000000e+00  8.660254e-01
   outer loop
     vertex -3.064003e-01  1.814441e-01  8.761978e-01
     vertex -3.031503e-01  1.867441e-01  8.743214e-01
     vertex -3.064003e-01  1.861636e-01  8.761978e-01
   endloop
 endfacet
 facet normal  5.000000e-01 -0.000000e+00  8.660254e-01
   outer loop
     vertex -2.999003e-01  1.814441e-01  8.724450e-01
     vertex -2.999003e-01  1.861636e-01  8.724450e-01
     vertex -3.031503e-01  1.867441e-01  8.743214e-01
   endloop
 endfacet
 facet normal  5.000000e-01  2.681287e-12  8.660254e-01
   outer loop
     vertex -2.999003e-01  1.814441e-01  8.724450e-01
     vertex -3.031503e-01  1.867441e-01  8.743214e-01
     vertex -3.064003e-01  1.814441e-01  8.761978e-01
   endloop
 endfacet
 facet normal -5.000000e-01  0.000000e+00  8.660254e-01
   outer loop
     vertex -3.129003e-01  1.814441e-01  8.724450e-01
     vertex -3.096503e-01  1.867441e-01  8.743214e-01
     vertex -3.129003e-01  1.861636e-01  8.724450e-01
   endloop
 endfacet
 facet normal -5.000000e-01  0.000000e+00  8.660254e-01
   outer loop
     vertex -3.064003e-01  1.814441e-01  8.761978e-01
     vertex -3.064003e-01  1.861636e-01  8.761978e-01
     vertex -3.096503e-01  1.867441e-01  8.743214e-01
   endloop
 endfacet
 facet normal -5.000000e-01  2.681287e-12  8.660254e-01
   outer loop
     vertex -3.064003e-01  1.814441e-01  8.761978e-01
     vertex -3.096503e-01  1.867441e-01  8.743214e-01
     vertex -3.129003e-01  1.814441e-01  8.724450e-01
   endloop
 endfacet
 facet normal  2.275104e-01  7.466688e-01  6.250797e-01
   outer loop
     vertex -3.064003e-01  1.861636e-01  8.761978e-01
     vertex -3.031503e-01  1.867441e-01  8.743214e-01
     vertex -3.052716e-01  1.867441e-01  8.750935e-01
   endloop
 endfacet
 facet normal -0.000000e+00  8.851347e-01  4.653349e-01
   outer loop
     vertex -3.075290e-01  1.867441e-01  8.750935e-01
     vertex -3.064003e-01  1.861636e-01  8.761978e-01
     vertex -3.052716e-01  1.867441e-01  8.750935e-01
   endloop
 endfacet
 facet normal -2.275104e-01  7.466688e-01  6.250797e-01
   outer loop
     vertex -3.096503e-01  1.867441e-01  8.743214e-01
     vertex -3.064003e-01  1.861636e-01  8.761978e-01
     vertex -3.075290e-01  1.867441e-01  8.750935e-01
   endloop
 endfacet
 facet normal -6.550901e-01  7.466688e-01 -1.155101e-01
   outer loop
     vertex -3.129003e-01  1.861636e-01  8.649395e-01
     vertex -3.129003e-01  1.867441e-01  8.686922e-01
     vertex -3.125083e-01  1.867441e-01  8.664691e-01
   endloop
 endfacet
 facet normal -4.029918e-01  8.851347e-01 -2.326675e-01
   outer loop
     vertex -3.113796e-01  1.867441e-01  8.645141e-01
     vertex -3.129003e-01  1.861636e-01  8.649395e-01
     vertex -3.125083e-01  1.867441e-01  8.664691e-01
   endloop
 endfacet
 facet normal -4.275797e-01  7.466688e-01 -5.095697e-01
   outer loop
     vertex -3.096503e-01  1.867441e-01  8.630631e-01
     vertex -3.129003e-01  1.861636e-01  8.649395e-01
     vertex -3.113796e-01  1.867441e-01  8.645141e-01
   endloop
 endfacet
 facet normal -4.275797e-01  7.466688e-01  5.095697e-01
   outer loop
     vertex -3.129003e-01  1.861636e-01  8.724450e-01
     vertex -3.096503e-01  1.867441e-01  8.743214e-01
     vertex -3.113796e-01  1.867441e-01  8.728704e-01
   endloop
 endfacet
 facet normal -4.029918e-01  8.851347e-01  2.326675e-01
   outer loop
     vertex -3.125083e-01  1.867441e-01  8.709154e-01
     vertex -3.129003e-01  1.861636e-01  8.724450e-01
     vertex -3.113796e-01  1.867441e-01  8.728704e-01
   endloop
 endfacet
 facet normal -6.550901e-01  7.466688e-01  1.155101e-01
   outer loop
     vertex -3.129003e-01  1.867441e-01  8.686922e-01
     vertex -3.129003e-01  1.861636e-01  8.724450e-01
     vertex -3.125083e-01  1.867441e-01  8.709154e-01
   endloop
 endfacet
 facet normal  6.550901e-01  7.466688e-01  1.155101e-01
   outer loop
     vertex -2.999003e-01  1.861636e-01  8.724450e-01
     vertex -2.999003e-01  1.867441e-01  8.686922e-01
     vertex -3.002923e-01  1.867441e-01  8.709154e-01
   endloop
 endfacet
 facet normal  4.029918e-01  8.851347e-01  2.326675e-01
   outer loop
     vertex -3.014210e-01  1.867441e-01  8.728704e-01
     vertex -2.999003e-01  1.861636e-01  8.724450e-01
     vertex -3.002923e-01  1.867441e-01  8.709154e-01
   endloop
 endfacet
 facet normal  4.275797e-01  7.466688e-01  5.095697e-01
   outer loop
     vertex -3.031503e-01  1.867441e-01  8.743214e-01
     vertex -2.999003e-01  1.861636e-01  8.724450e-01
     vertex -3.014210e-01  1.867441e-01  8.728704e-01
   endloop
 endfacet
 facet normal  4.275797e-01  7.466688e-01 -5.095697e-01
   outer loop
     vertex -2.999003e-01  1.861636e-01  8.649395e-01
     vertex -3.031503e-01  1.867441e-01  8.630631e-01
     vertex -3.014210e-01  1.867441e-01  8.645141e-01
   endloop
 endfacet
 facet normal  4.029918e-01  8.851347e-01 -2.326675e-01
   outer loop
     vertex -3.002923e-01  1.867441e-01  8.664691e-01
     vertex -2.999003e-01  1.861636e-01  8.649395e-01
     vertex -3.014210e-01  1.867441e-01  8.645141e-01
   endloop
 endfacet
 facet normal  6.550901e-01  7.466688e-01 -1.155101e-01
   outer loop
     vertex -2.999003e-01  1.867441e-01  8.686922e-01
     vertex -2.999003e-01  1.861636e-01  8.649395e-01
     vertex -3.002923e-01  1.867441e-01  8.664691e-01
   endloop
 endfacet
 facet normal -2.275104e-01  7.466688e-01 -6.250797e-01
   outer loop
     vertex -3.064003e-01  1.861636e-01  8.611867e-01
     vertex -3.096503e-01  1.867441e-01  8.630631e-01
     vertex -3.075290e-01  1.867441e-01  8.622910e-01
   endloop
 endfacet
 facet normal  0.000000e+00  8.851347e-01 -4.653349e-01
   outer loop
     vertex -3.052716e-01  1.867441e-01  8.622910e-01
     vertex -3.064003e-01  1.861636e-01  8.611867e-01
     vertex -3.075290e-01  1.867441e-01  8.622910e-01
   endloop
 endfacet
 facet normal  2.275104e-01  7.466688e-01 -6.250797e-01
   outer loop
     vertex -3.031503e-01  1.867441e-01  8.630631e-01
     vertex -3.064003e-01  1.861636e-01  8.611867e-01
     vertex -3.052716e-01  1.867441e-01  8.622910e-01
   endloop
 endfacet
 facet normal  0.000000e+00  1.000000e+00  0.000000e+00
   outer loop
     vertex -3.064003e-01  1.867441e-01  8.703922e-01
     vertex -3.113796e-01  1.867441e-01  8.728704e-01
     vertex -3.096503e-01  1.867441e-01  8.743214e-01
   endloop
 endfacet
 facet normal  0.000000e+00  1.000000e+00  0.000000e+00
   outer loop
     vertex -3.064003e-01  1.867441e-01  8.703922e-01
     vertex -3.096503e-01  1.867441e-01  8.743214e-01
     vertex -3.075290e-01  1.867441e-01  8.750935e-01
   endloop
 endfacet
 facet normal  0.000000e+00  1.000000e+00 -0.000000e+00
   outer loop
     vertex -3.064003e-01  1.867441e-01  8.703922e-01
     vertex -3.075290e-01  1.867441e-01  8.750935e-01
     vertex -3.052716e-01  1.867441e-01  8.750935e-01
   endloop
 endfacet
 facet normal  0.000000e+00  1.000000e+00  0.000000e+00
   outer loop
     vertex -3.064003e-01  1.867441e-01  8.703922e-01
     vertex -3.052716e-01  1.867441e-01  8.750935e-01
     vertex -3.031503e-01  1.867441e-01  8.743214e-01
   endloop
 endfacet
 facet normal  0.000000e+00  1.000000e+00  0.000000e+00
   outer loop
     vertex -3.081003e-01  1.867441e-01  8.686922e-01
     vertex -3.125083e-01  1.867441e-01  8.709154e-01
     vertex -3.113796e-01  1.867441e-01  8.728704e-01
   endloop
 endfacet
 facet normal  0.000000e+00  1.000000e+00  0.000000e+00
   outer loop
     vertex -3.081003e-01  1.867441e-01  8.686922e-01
     vertex -3.129003e-01  1.867441e-01  8.686922e-01
     vertex -3.125083e-01  1.867441e-01  8.709154e-01
   endloop
 endfacet
 facet normal  0.000000e+00  1.000000e+00  0.000000e+00
   outer loop
     vertex -3.081003e-01  1.867441e-01  8.686922e-01
     vertex -3.125083e-01  1.867441e-01  8.664691e-01
     vertex -3.129003e-01  1.867441e-01  8.686922e-01
   endloop
 endfacet
 facet normal  0.000000e+00  1.000000e+00 -0.000000e+00
   outer loop
     vertex -3.081003e-01  1.867441e-01  8.686922e-01
     vertex -3.113796e-01  1.867441e-01  8.728704e-01
     vertex -3.064003e-01  1.867441e-01  8.703922e-01
   endloop
 endfacet
 facet normal  0.000000e+00  1.000000e+00 -0.000000e+00
   outer loop
     vertex -3.113796e-01  1.867441e-01  8.645141e-01
     vertex -3.125083e-01  1.867441e-01  8.664691e-01
     vertex -3.081003e-01  1.867441e-01  8.686922e-01
   endloop
 endfacet
 facet normal  0.000000e+00  1.000000e+00  0.000000e+00
   outer loop
     vertex -3.014210e-01  1.867441e-01  8.728704e-01
     vertex -3.064003e-01  1.867441e-01  8.703922e-01
     vertex -3.031503e-01  1.867441e-01  8.743214e-01
   endloop
 endfacet
 facet normal  0.000000e+00  1.000000e+00 -0.000000e+00
   outer loop
     vertex -3.047003e-01  1.867441e-01  8.686922e-01
     vertex -3.064003e-01  1.867441e-01  8.703922e-01
     vertex -3.014210e-01  1.867441e-01  8.728704e-01
   endloop
 endfacet
 facet normal  0.000000e+00  1.000000e+00  0.000000e+00
   outer loop
     vertex -3.064003e-01  1.867441e-01  8.669922e-01
     vertex -3.113796e-01  1.867441e-01  8.645141e-01
     vertex -3.081003e-01  1.867441e-01  8.686922e-01
   endloop
 endfacet
 facet normal  0.000000e+00  1.000000e+00 -0.000000e+00
   outer loop
     vertex -3.096503e-01  1.867441e-01  8.630631e-01
     vertex -3.113796e-01  1.867441e-01  8.645141e-01
     vertex -3.064003e-01  1.867441e-01  8.669922e-01
   endloop
 endfacet
 facet normal  0.000000e+00  1.000000e+00  0.000000e+00
   outer loop
     vertex -3.002923e-01  1.867441e-01  8.709154e-01
     vertex -3.047003e-01  1.867441e-01  8.686922e-01
     vertex -3.014210e-01  1.867441e-01  8.728704e-01
   endloop
 endfacet
 facet normal  0.000000e+00  1.000000e+00 -0.000000e+00
   outer loop
     vertex -3.075290e-01  1.867441e-01  8.622910e-01
     vertex -3.096503e-01  1.867441e-01  8.630631e-01
     vertex -3.064003e-01  1.867441e-01  8.669922e-01
   endloop
 endfacet
 facet normal  0.000000e+00  1.000000e+00  0.000000e+00
   outer loop
     vertex -2.999003e-01  1.867441e-01  8.686922e-01
     vertex -3.047003e-01  1.867441e-01  8.686922e-01
     vertex -3.002923e-01  1.867441e-01  8.709154e-01
   endloop
 endfacet
 facet normal  0.000000e+00  1.000000e+00  0.000000e+00
   outer loop
     vertex -3.052716e-01  1.867441e-01  8.622910e-01
     vertex -3.075290e-01  1.867441e-01  8.622910e-01
     vertex -3.064003e-01  1.867441e-01  8.669922e-01
   endloop
 endfacet
 facet normal  0.000000e+00  1.000000e+00 -0.000000e+00
   outer loop
     vertex -3.002923e-01  1.867441e-01  8.664691e-01
     vertex -3.047003e-01  1.867441e-01  8.686922e-01
     vertex -2.999003e-01  1.867441e-01  8.686922e-01
   endloop
 endfacet
 facet normal  0.000000e+00  1.000000e+00  0.000000e+00
   outer loop
     vertex -3.031503e-01  1.867441e-01  8.630631e-01
     vertex -3.052716e-01  1.867441e-01  8.622910e-01
     vertex -3.064003e-01  1.867441e-01  8.669922e-01
   endloop
 endfacet
 facet normal  0.000000e+00  1.000000e+00  0.000000e+00
   outer loop
     vertex -3.014210e-01  1.867441e-01  8.645141e-01
     vertex -3.064003e-01  1.867441e-01  8.669922e-01
     vertex -3.047003e-01  1.867441e-01  8.686922e-01
   endloop
 endfacet
 facet normal  0.000000e+00  1.000000e+00  0.000000e+00
   outer loop
     vertex -3.014210e-01  1.867441e-01  8.645141e-01
     vertex -3.031503e-01  1.867441e-01  8.630631e-01
     vertex -3.064003e-01  1.867441e-01  8.669922e-01
   endloop
 endfacet
 facet normal  0.000000e+00  1.000000e+00 -0.000000e+00
   outer loop
     vertex -3.014210e-01  1.867441e-01  8.645141e-01
     vertex -3.047003e-01  1.867441e-01  8.686922e-01
     vertex -3.002923e-01  1.867441e-01  8.664691e-01
   endloop
 endfacet
 facet normal  5.280937e-01  6.650069e-01  5.280937e-01
   outer loop
     vertex -3.081003e-01  1.867441e-01  8.686922e-01
     vertex -3.064003e-01  1.860691e-01  8.678422e-01
     vertex -3.064003e-01  1.867441e-01  8.669922e-01
   endloop
 endfacet
 facet normal  5.280937e-01  6.650069e-01  5.280937e-01
   outer loop
     vertex -3.081003e-01  1.867441e-01  8.686922e-01
     vertex -3.072503e-01  1.860691e-01  8.686922e-01
     vertex -3.064003e-01  1.860691e-01  8.678422e-01
   endloop
 endfacet
 facet normal  5.280937e-01  6.650069e-01 -5.280937e-01
   outer loop
     vertex -3.064003e-01  1.867441e-01  8.703922e-01
     vertex -3.064003e-01  1.860691e-01  8.695422e-01
     vertex -3.072503e-01  1.860691e-01  8.686922e-01
   endloop
 endfacet
 facet normal  5.280937e-01  6.650069e-01 -5.280937e-01
   outer loop
     vertex -3.064003e-01  1.867441e-01  8.703922e-01
     vertex -3.072503e-01  1.860691e-01  8.686922e-01
     vertex -3.081003e-01  1.867441e-01  8.686922e-01
   endloop
 endfacet
 facet normal -5.280937e-01  6.650069e-01 -5.280937e-01
   outer loop
     vertex -3.047003e-01  1.867441e-01  8.686922e-01
     vertex -3.055503e-01  1.860691e-01  8.686922e-01
     vertex -3.064003e-01  1.860691e-01  8.695422e-01
   endloop
 endfacet
 facet normal -5.280937e-01  6.650069e-01 -5.280937e-01
   outer loop
     vertex -3.047003e-01  1.867441e-01  8.686922e-01
     vertex -3.064003e-01  1.860691e-01  8.695422e-01
     vertex -3.064003e-01  1.867441e-01  8.703922e-01
   endloop
 endfacet
 facet normal -5.280937e-01  6.650069e-01  5.280937e-01
   outer loop
     vertex -3.064003e-01  1.867441e-01  8.669922e-01
     vertex -3.064003e-01  1.860691e-01  8.678422e-01
     vertex -3.055503e-01  1.860691e-01  8.686922e-01
   endloop
 endfacet
 facet normal -5.280937e-01  6.650069e-01  5.280937e-01
   outer loop
     vertex -3.064003e-01  1.867441e-01  8.669922e-01
     vertex -3.055503e-01  1.860691e-01  8.686922e-01
     vertex -3.047003e-01  1.867441e-01  8.686922e-01
   endloop
 endfacet
 facet normal  7.071068e-01  0.000000e+00  7.071068e-01
   outer loop
     vertex -3.072503e-01  1.860691e-01  8.686922e-01
     vertex -3.064003e-01  1.850941e-01  8.678422e-01
     vertex -3.064003e-01  1.860691e-01  8.678422e-01
   endloop
 endfacet
 facet normal  7.071068e-01  0.000000e+00  7.071068e-01
   outer loop
     vertex -3.072503e-01  1.860691e-01  8.686922e-01
     vertex -3.072503e-01  1.850941e-01  8.686922e-01
     vertex -3.064003e-01  1.850941e-01  8.678422e-01
   endloop
 endfacet
 facet normal  7.071068e-01  0.000000e+00 -7.071068e-01
   outer loop
     vertex -3.064003e-01  1.860691e-01  8.695422e-01
     vertex -3.064003e-01  1.850941e-01  8.695422e-01
     vertex -3.072503e-01  1.850941e-01  8.686922e-01
   endloop
 endfacet
 facet normal  7.071068e-01  0.000000e+00 -7.071068e-01
   outer loop
     vertex -3.064003e-01  1.860691e-01  8.695422e-01
     vertex -3.072503e-01  1.850941e-01  8.686922e-01
     vertex -3.072503e-01  1.860691e-01  8.686922e-01
   endloop
 endfacet
 facet normal -7.071068e-01 -0.000000e+00 -7.071068e-01
   outer loop
     vertex -3.055503e-01  1.860691e-01  8.686922e-01
     vertex -3.055503e-01  1.850941e-01  8.686922e-01
     vertex -3.064003e-01  1.850941e-01  8.695422e-01
   endloop
 endfacet
 facet normal -7.071068e-01  0.000000e+00 -7.071068e-01
   outer loop
     vertex -3.055503e-01  1.860691e-01  8.686922e-01
     vertex -3.064003e-01  1.850941e-01  8.695422e-01
     vertex -3.064003e-01  1.860691e-01  8.695422e-01
   endloop
 endfacet
 facet normal -7.071068e-01  0.000000e+00  7.071068e-01
   outer loop
     vertex -3.064003e-01  1.860691e-01  8.678422e-01
     vertex -3.064003e-01  1.850941e-01  8.678422e-01
     vertex -3.055503e-01  1.850941e-01  8.686922e-01
   endloop
 endfacet
 facet normal -7.071068e-01  0.000000e+00  7.071068e-01
   outer loop
     vertex -3.064003e-01  1.860691e-01  8.678422e-01
     vertex -3.055503e-01  1.850941e-01  8.686922e-01
     vertex -3.055503e-01  1.860691e-01  8.686922e-01
   endloop
 endfacet
 facet normal  1.712190e-01  9.702412e-01  1.712190e-01
   outer loop
     vertex -3.072503e-01  1.850941e-01  8.686922e-01
     vertex -3.064003e-01  1.849441e-01  8.686922e-01
     vertex -3.064003e-01  1.850941e-01  8.678422e-01
   endloop
 endfacet
 facet normal  1.712190e-01  9.702412e-01 -1.712190e-01
   outer loop
     vertex -3.064003e-01  1.850941e-01  8.695422e-01
     vertex -3.064003e-01  1.849441e-01  8.686922e-01
     vertex -3.072503e-01  1.850941e-01  8.686922e-01
   endloop
 endfacet
 facet normal  0.000000e+00  0.000000e+00  0.000000e+00
   outer loop
     vertex -3.064003e-01  1.849441e-01  8.686922e-01
     vertex -3.064003e-01  1.849441e-01  8.686922e-01
     vertex -3.064003e-01  1.850941e-01  8.695422e-01
   endloop
 endfacet
 facet normal -1.712190e-01  9.702412e-01 -1.712190e-01
   outer loop
     vertex -3.055503e-01  1.850941e-01  8.686922e-01
     vertex -3.064003e-01  1.849441e-01  8.686922e-01
     vertex -3.064003e-01  1.850941e-01  8.695422e-01
   endloop
 endfacet
 facet normal -1.712190e-01  9.702412e-01  1.712190e-01
   outer loop
     vertex -3.064003e-01  1.850941e-01  8.678422e-01
     vertex -3.064003e-01  1.849441e-01  8.686922e-01
     vertex -3.055503e-01  1.850941e-01  8.686922e-01
   endloop
 endfacet
endsolid
