solid 
 facet normal -0.000000e+00  0.000000e+00  1.000000e+00
   outer loop
     vertex -2.530000e-01 -1.975000e-01  8.265741e-01
     vertex -2.480000e-01 -2.025000e-01  8.265741e-01
     vertex -2.450000e-01 -1.915000e-01  8.265741e-01
   endloop
 endfacet
 facet normal  0.000000e+00 -0.000000e+00  1.000000e+00
   outer loop
     vertex -2.450000e-01 -2.135000e-01  8.265741e-01
     vertex -2.450000e-01 -1.915000e-01  8.265741e-01
     vertex -2.480000e-01 -2.025000e-01  8.265741e-01
   endloop
 endfacet
 facet normal -0.000000e+00  0.000000e+00  1.000000e+00
   outer loop
     vertex -2.530000e-01 -2.075000e-01  8.265741e-01
     vertex -2.450000e-01 -2.135000e-01  8.265741e-01
     vertex -2.480000e-01 -2.025000e-01  8.265741e-01
   endloop
 endfacet
 facet normal  0.000000e+00  0.000000e+00  1.000000e+00
   outer loop
     vertex -2.673500e-01 -1.970000e-01  8.265741e-01
     vertex -2.580000e-01 -2.025000e-01  8.265741e-01
     vertex -2.530000e-01 -1.975000e-01  8.265741e-01
   endloop
 endfacet
 facet normal  0.000000e+00  0.000000e+00  1.000000e+00
   outer loop
     vertex -2.700000e-01 -1.943500e-01  8.265741e-01
     vertex -2.673500e-01 -1.970000e-01  8.265741e-01
     vertex -2.530000e-01 -1.975000e-01  8.265741e-01
   endloop
 endfacet
 facet normal -0.000000e+00  0.000000e+00  1.000000e+00
   outer loop
     vertex -2.700000e-01 -1.943500e-01  8.265741e-01
     vertex -2.530000e-01 -1.975000e-01  8.265741e-01
     vertex -2.450000e-01 -1.915000e-01  8.265741e-01
   endloop
 endfacet
 facet normal -0.000000e+00  0.000000e+00  1.000000e+00
   outer loop
     vertex -2.673500e-01 -2.070000e-01  8.265741e-01
     vertex -2.530000e-01 -2.075000e-01  8.265741e-01
     vertex -2.580000e-01 -2.025000e-01  8.265741e-01
   endloop
 endfacet
 facet normal  0.000000e+00  0.000000e+00  1.000000e+00
   outer loop
     vertex -2.673500e-01 -2.070000e-01  8.265741e-01
     vertex -2.580000e-01 -2.025000e-01  8.265741e-01
     vertex -2.673500e-01 -1.970000e-01  8.265741e-01
   endloop
 endfacet
 facet normal  0.000000e+00  0.000000e+00  1.000000e+00
   outer loop
     vertex -2.700000e-01 -2.043500e-01  8.265741e-01
     vertex -2.673500e-01 -1.970000e-01  8.265741e-01
     vertex -2.700000e-01 -1.996500e-01  8.265741e-01
   endloop
 endfacet
 facet normal -0.000000e+00  0.000000e+00  1.000000e+00
   outer loop
     vertex -2.700000e-01 -2.043500e-01  8.265741e-01
     vertex -2.673500e-01 -2.070000e-01  8.265741e-01
     vertex -2.673500e-01 -1.970000e-01  8.265741e-01
   endloop
 endfacet
 facet normal  0.000000e+00  0.000000e+00  1.000000e+00
   outer loop
     vertex -2.700000e-01 -2.096500e-01  8.265741e-01
     vertex -2.530000e-01 -2.075000e-01  8.265741e-01
     vertex -2.673500e-01 -2.070000e-01  8.265741e-01
   endloop
 endfacet
 facet normal -0.000000e+00  0.000000e+00  1.000000e+00
   outer loop
     vertex -2.700000e-01 -2.096500e-01  8.265741e-01
     vertex -2.450000e-01 -2.135000e-01  8.265741e-01
     vertex -2.530000e-01 -2.075000e-01  8.265741e-01
   endloop
 endfacet
 facet normal  0.000000e+00  0.000000e+00  1.000000e+00
   outer loop
     vertex -2.726500e-01 -2.070000e-01  8.265741e-01
     vertex -2.700000e-01 -1.996500e-01  8.265741e-01
     vertex -2.726500e-01 -1.970000e-01  8.265741e-01
   endloop
 endfacet
 facet normal  0.000000e+00  0.000000e+00  1.000000e+00
   outer loop
     vertex -2.726500e-01 -2.070000e-01  8.265741e-01
     vertex -2.700000e-01 -2.043500e-01  8.265741e-01
     vertex -2.700000e-01 -1.996500e-01  8.265741e-01
   endloop
 endfacet
 facet normal -0.000000e+00  0.000000e+00  1.000000e+00
   outer loop
     vertex -2.820000e-01 -2.025000e-01  8.265741e-01
     vertex -2.726500e-01 -2.070000e-01  8.265741e-01
     vertex -2.726500e-01 -1.970000e-01  8.265741e-01
   endloop
 endfacet
 facet normal  0.000000e+00  0.000000e+00  1.000000e+00
   outer loop
     vertex -2.870000e-01 -1.975000e-01  8.265741e-01
     vertex -2.726500e-01 -1.970000e-01  8.265741e-01
     vertex -2.700000e-01 -1.943500e-01  8.265741e-01
   endloop
 endfacet
 facet normal -0.000000e+00  0.000000e+00  1.000000e+00
   outer loop
     vertex -2.870000e-01 -1.975000e-01  8.265741e-01
     vertex -2.820000e-01 -2.025000e-01  8.265741e-01
     vertex -2.726500e-01 -1.970000e-01  8.265741e-01
   endloop
 endfacet
 facet normal  0.000000e+00  0.000000e+00  1.000000e+00
   outer loop
     vertex -2.950000e-01 -1.915000e-01  8.265741e-01
     vertex -2.870000e-01 -1.975000e-01  8.265741e-01
     vertex -2.700000e-01 -1.943500e-01  8.265741e-01
   endloop
 endfacet
 facet normal -0.000000e+00  0.000000e+00  1.000000e+00
   outer loop
     vertex -2.870000e-01 -2.075000e-01  8.265741e-01
     vertex -2.700000e-01 -2.096500e-01  8.265741e-01
     vertex -2.726500e-01 -2.070000e-01  8.265741e-01
   endloop
 endfacet
 facet normal  0.000000e+00  0.000000e+00  1.000000e+00
   outer loop
     vertex -2.870000e-01 -2.075000e-01  8.265741e-01
     vertex -2.726500e-01 -2.070000e-01  8.265741e-01
     vertex -2.820000e-01 -2.025000e-01  8.265741e-01
   endloop
 endfacet
 facet normal  0.000000e+00 -0.000000e+00  1.000000e+00
   outer loop
     vertex -2.920000e-01 -2.025000e-01  8.265741e-01
     vertex -2.870000e-01 -1.975000e-01  8.265741e-01
     vertex -2.950000e-01 -1.915000e-01  8.265741e-01
   endloop
 endfacet
 facet normal  0.000000e+00  0.000000e+00  1.000000e+00
   outer loop
     vertex -2.950000e-01 -2.135000e-01  8.265741e-01
     vertex -2.870000e-01 -2.075000e-01  8.265741e-01
     vertex -2.920000e-01 -2.025000e-01  8.265741e-01
   endloop
 endfacet
 facet normal  0.000000e+00  0.000000e+00  1.000000e+00
   outer loop
     vertex -2.950000e-01 -2.135000e-01  8.265741e-01
     vertex -2.700000e-01 -2.096500e-01  8.265741e-01
     vertex -2.870000e-01 -2.075000e-01  8.265741e-01
   endloop
 endfacet
 facet normal  0.000000e+00  0.000000e+00  1.000000e+00
   outer loop
     vertex -2.950000e-01 -2.135000e-01  8.265741e-01
     vertex -2.920000e-01 -2.025000e-01  8.265741e-01
     vertex -2.950000e-01 -1.915000e-01  8.265741e-01
   endloop
 endfacet
 facet normal  0.000000e+00  0.000000e+00  1.000000e+00
   outer loop
     vertex -2.450000e-01 -2.135000e-01  8.265741e-01
     vertex -2.700000e-01 -2.096500e-01  8.265741e-01
     vertex -2.950000e-01 -2.135000e-01  8.265741e-01
   endloop
 endfacet
 facet normal -0.000000e+00  0.000000e+00  1.000000e+00
   outer loop
     vertex -2.950000e-01 -1.915000e-01  8.265741e-01
     vertex -2.700000e-01 -1.943500e-01  8.265741e-01
     vertex -2.450000e-01 -1.915000e-01  8.265741e-01
   endloop
 endfacet
 facet normal  1.000000e+00  0.000000e+00  0.000000e+00
   outer loop
     vertex -2.450000e-01 -2.135000e-01  8.115741e-01
     vertex -2.450000e-01 -1.915000e-01  8.265741e-01
     vertex -2.450000e-01 -2.135000e-01  8.265741e-01
   endloop
 endfacet
 facet normal  1.000000e+00  0.000000e+00  0.000000e+00
   outer loop
     vertex -2.450000e-01 -2.135000e-01  8.115741e-01
     vertex -2.450000e-01 -1.915000e-01  8.115741e-01
     vertex -2.450000e-01 -1.915000e-01  8.265741e-01
   endloop
 endfacet
 facet normal  0.000000e+00  1.000000e+00  0.000000e+00
   outer loop
     vertex -2.450000e-01 -1.915000e-01  8.265741e-01
     vertex -2.950000e-01 -1.915000e-01  8.115741e-01
     vertex -2.950000e-01 -1.915000e-01  8.265741e-01
   endloop
 endfacet
 facet normal  0.000000e+00  1.000000e+00 -0.000000e+00
   outer loop
     vertex -2.450000e-01 -1.915000e-01  8.115741e-01
     vertex -2.950000e-01 -1.915000e-01  8.115741e-01
     vertex -2.450000e-01 -1.915000e-01  8.265741e-01
   endloop
 endfacet
 facet normal -1.000000e+00  0.000000e+00  0.000000e+00
   outer loop
     vertex -2.950000e-01 -1.915000e-01  8.115741e-01
     vertex -2.950000e-01 -2.135000e-01  8.265741e-01
     vertex -2.950000e-01 -1.915000e-01  8.265741e-01
   endloop
 endfacet
 facet normal -1.000000e+00  0.000000e+00  0.000000e+00
   outer loop
     vertex -2.950000e-01 -1.915000e-01  8.115741e-01
     vertex -2.950000e-01 -2.135000e-01  8.115741e-01
     vertex -2.950000e-01 -2.135000e-01  8.265741e-01
   endloop
 endfacet
 facet normal  0.000000e+00 -1.000000e+00  0.000000e+00
   outer loop
     vertex -2.950000e-01 -2.135000e-01  8.265741e-01
     vertex -2.450000e-01 -2.135000e-01  8.115741e-01
     vertex -2.450000e-01 -2.135000e-01  8.265741e-01
   endloop
 endfacet
 facet normal  0.000000e+00 -1.000000e+00  0.000000e+00
   outer loop
     vertex -2.950000e-01 -2.135000e-01  8.115741e-01
     vertex -2.450000e-01 -2.135000e-01  8.115741e-01
     vertex -2.950000e-01 -2.135000e-01  8.265741e-01
   endloop
 endfacet
 facet normal  0.000000e+00  0.000000e+00 -1.000000e+00
   outer loop
     vertex -2.700000e-01 -1.921250e-01  8.115741e-01
     vertex -2.450000e-01 -1.915000e-01  8.115741e-01
     vertex -2.651250e-01 -1.970000e-01  8.115741e-01
   endloop
 endfacet
 facet normal  0.000000e+00  0.000000e+00 -1.000000e+00
   outer loop
     vertex -2.651250e-01 -2.070000e-01  8.115741e-01
     vertex -2.450000e-01 -1.915000e-01  8.115741e-01
     vertex -2.450000e-01 -2.135000e-01  8.115741e-01
   endloop
 endfacet
 facet normal  0.000000e+00  0.000000e+00 -1.000000e+00
   outer loop
     vertex -2.651250e-01 -2.070000e-01  8.115741e-01
     vertex -2.651250e-01 -1.970000e-01  8.115741e-01
     vertex -2.450000e-01 -1.915000e-01  8.115741e-01
   endloop
 endfacet
 facet normal  0.000000e+00  0.000000e+00 -1.000000e+00
   outer loop
     vertex -2.700000e-01 -2.021250e-01  8.115741e-01
     vertex -2.700000e-01 -2.018750e-01  8.115741e-01
     vertex -2.651250e-01 -1.970000e-01  8.115741e-01
   endloop
 endfacet
 facet normal  0.000000e+00  0.000000e+00 -1.000000e+00
   outer loop
     vertex -2.700000e-01 -2.021250e-01  8.115741e-01
     vertex -2.651250e-01 -1.970000e-01  8.115741e-01
     vertex -2.651250e-01 -2.070000e-01  8.115741e-01
   endloop
 endfacet
 facet normal  0.000000e+00  0.000000e+00 -1.000000e+00
   outer loop
     vertex -2.700000e-01 -2.118750e-01  8.115741e-01
     vertex -2.651250e-01 -2.070000e-01  8.115741e-01
     vertex -2.450000e-01 -2.135000e-01  8.115741e-01
   endloop
 endfacet
 facet normal  0.000000e+00  0.000000e+00 -1.000000e+00
   outer loop
     vertex -2.748750e-01 -2.070000e-01  8.115741e-01
     vertex -2.748750e-01 -1.970000e-01  8.115741e-01
     vertex -2.700000e-01 -2.018750e-01  8.115741e-01
   endloop
 endfacet
 facet normal  0.000000e+00  0.000000e+00 -1.000000e+00
   outer loop
     vertex -2.748750e-01 -2.070000e-01  8.115741e-01
     vertex -2.700000e-01 -2.018750e-01  8.115741e-01
     vertex -2.700000e-01 -2.021250e-01  8.115741e-01
   endloop
 endfacet
 facet normal  0.000000e+00  0.000000e+00 -1.000000e+00
   outer loop
     vertex -2.950000e-01 -1.915000e-01  8.115741e-01
     vertex -2.700000e-01 -1.921250e-01  8.115741e-01
     vertex -2.748750e-01 -1.970000e-01  8.115741e-01
   endloop
 endfacet
 facet normal  0.000000e+00  0.000000e+00 -1.000000e+00
   outer loop
     vertex -2.950000e-01 -1.915000e-01  8.115741e-01
     vertex -2.748750e-01 -1.970000e-01  8.115741e-01
     vertex -2.748750e-01 -2.070000e-01  8.115741e-01
   endloop
 endfacet
 facet normal  0.000000e+00  0.000000e+00 -1.000000e+00
   outer loop
     vertex -2.950000e-01 -2.135000e-01  8.115741e-01
     vertex -2.748750e-01 -2.070000e-01  8.115741e-01
     vertex -2.700000e-01 -2.118750e-01  8.115741e-01
   endloop
 endfacet
 facet normal  0.000000e+00  0.000000e+00 -1.000000e+00
   outer loop
     vertex -2.950000e-01 -2.135000e-01  8.115741e-01
     vertex -2.950000e-01 -1.915000e-01  8.115741e-01
     vertex -2.748750e-01 -2.070000e-01  8.115741e-01
   endloop
 endfacet
 facet normal  0.000000e+00  0.000000e+00 -1.000000e+00
   outer loop
     vertex -2.450000e-01 -2.135000e-01  8.115741e-01
     vertex -2.950000e-01 -2.135000e-01  8.115741e-01
     vertex -2.700000e-01 -2.118750e-01  8.115741e-01
   endloop
 endfacet
 facet normal  0.000000e+00  0.000000e+00 -1.000000e+00
   outer loop
     vertex -2.950000e-01 -1.915000e-01  8.115741e-01
     vertex -2.450000e-01 -1.915000e-01  8.115741e-01
     vertex -2.700000e-01 -1.921250e-01  8.115741e-01
   endloop
 endfacet
 facet normal -7.071068e-01 -7.071068e-01  0.000000e+00
   outer loop
     vertex -2.651250e-01 -1.970000e-01  8.115741e-01
     vertex -2.700000e-01 -1.921250e-01  8.165741e-01
     vertex -2.700000e-01 -1.921250e-01  8.115741e-01
   endloop
 endfacet
 facet normal -7.071068e-01 -7.071068e-01  0.000000e+00
   outer loop
     vertex -2.651250e-01 -1.970000e-01  8.115741e-01
     vertex -2.651250e-01 -1.970000e-01  8.165741e-01
     vertex -2.700000e-01 -1.921250e-01  8.165741e-01
   endloop
 endfacet
 facet normal -7.071068e-01  7.071068e-01  0.000000e+00
   outer loop
     vertex -2.700000e-01 -2.018750e-01  8.115741e-01
     vertex -2.700000e-01 -2.018750e-01  8.165741e-01
     vertex -2.651250e-01 -1.970000e-01  8.165741e-01
   endloop
 endfacet
 facet normal -7.071068e-01  7.071068e-01  0.000000e+00
   outer loop
     vertex -2.700000e-01 -2.018750e-01  8.115741e-01
     vertex -2.651250e-01 -1.970000e-01  8.165741e-01
     vertex -2.651250e-01 -1.970000e-01  8.115741e-01
   endloop
 endfacet
 facet normal  7.071068e-01  7.071068e-01 -0.000000e+00
   outer loop
     vertex -2.748750e-01 -1.970000e-01  8.115741e-01
     vertex -2.748750e-01 -1.970000e-01  8.165741e-01
     vertex -2.700000e-01 -2.018750e-01  8.165741e-01
   endloop
 endfacet
 facet normal  7.071068e-01  7.071068e-01  0.000000e+00
   outer loop
     vertex -2.748750e-01 -1.970000e-01  8.115741e-01
     vertex -2.700000e-01 -2.018750e-01  8.165741e-01
     vertex -2.700000e-01 -2.018750e-01  8.115741e-01
   endloop
 endfacet
 facet normal  7.071068e-01 -7.071068e-01  0.000000e+00
   outer loop
     vertex -2.700000e-01 -1.921250e-01  8.115741e-01
     vertex -2.700000e-01 -1.921250e-01  8.165741e-01
     vertex -2.748750e-01 -1.970000e-01  8.165741e-01
   endloop
 endfacet
 facet normal  7.071068e-01 -7.071068e-01  0.000000e+00
   outer loop
     vertex -2.700000e-01 -1.921250e-01  8.115741e-01
     vertex -2.748750e-01 -1.970000e-01  8.165741e-01
     vertex -2.748750e-01 -1.970000e-01  8.115741e-01
   endloop
 endfacet
 facet normal  0.000000e+00  0.000000e+00 -1.000000e+00
   outer loop
     vertex -2.673500e-01 -1.970000e-01  8.165741e-01
     vertex -2.700000e-01 -1.921250e-01  8.165741e-01
     vertex -2.651250e-01 -1.970000e-01  8.165741e-01
   endloop
 endfacet
 facet normal  0.000000e+00  0.000000e+00 -1.000000e+00
   outer loop
     vertex -2.700000e-01 -1.943500e-01  8.165741e-01
     vertex -2.700000e-01 -1.921250e-01  8.165741e-01
     vertex -2.673500e-01 -1.970000e-01  8.165741e-01
   endloop
 endfacet
 facet normal  0.000000e+00  0.000000e+00 -1.000000e+00
   outer loop
     vertex -2.726500e-01 -1.970000e-01  8.165741e-01
     vertex -2.700000e-01 -1.921250e-01  8.165741e-01
     vertex -2.700000e-01 -1.943500e-01  8.165741e-01
   endloop
 endfacet
 facet normal  0.000000e+00  0.000000e+00 -1.000000e+00
   outer loop
     vertex -2.700000e-01 -2.018750e-01  8.165741e-01
     vertex -2.726500e-01 -1.970000e-01  8.165741e-01
     vertex -2.700000e-01 -1.996500e-01  8.165741e-01
   endloop
 endfacet
 facet normal  0.000000e+00  0.000000e+00 -1.000000e+00
   outer loop
     vertex -2.700000e-01 -2.018750e-01  8.165741e-01
     vertex -2.700000e-01 -1.996500e-01  8.165741e-01
     vertex -2.673500e-01 -1.970000e-01  8.165741e-01
   endloop
 endfacet
 facet normal  0.000000e+00  0.000000e+00 -1.000000e+00
   outer loop
     vertex -2.700000e-01 -2.018750e-01  8.165741e-01
     vertex -2.673500e-01 -1.970000e-01  8.165741e-01
     vertex -2.651250e-01 -1.970000e-01  8.165741e-01
   endloop
 endfacet
 facet normal  0.000000e+00  0.000000e+00 -1.000000e+00
   outer loop
     vertex -2.748750e-01 -1.970000e-01  8.165741e-01
     vertex -2.726500e-01 -1.970000e-01  8.165741e-01
     vertex -2.700000e-01 -2.018750e-01  8.165741e-01
   endloop
 endfacet
 facet normal  0.000000e+00  0.000000e+00 -1.000000e+00
   outer loop
     vertex -2.748750e-01 -1.970000e-01  8.165741e-01
     vertex -2.700000e-01 -1.921250e-01  8.165741e-01
     vertex -2.726500e-01 -1.970000e-01  8.165741e-01
   endloop
 endfacet
 facet normal -7.071068e-01 -7.071068e-01  0.000000e+00
   outer loop
     vertex -2.673500e-01 -1.970000e-01  8.165741e-01
     vertex -2.700000e-01 -1.943500e-01  8.265741e-01
     vertex -2.700000e-01 -1.943500e-01  8.165741e-01
   endloop
 endfacet
 facet normal -7.071068e-01 -7.071068e-01  0.000000e+00
   outer loop
     vertex -2.673500e-01 -1.970000e-01  8.165741e-01
     vertex -2.673500e-01 -1.970000e-01  8.265741e-01
     vertex -2.700000e-01 -1.943500e-01  8.265741e-01
   endloop
 endfacet
 facet normal -7.071068e-01  7.071068e-01  0.000000e+00
   outer loop
     vertex -2.700000e-01 -1.996500e-01  8.165741e-01
     vertex -2.700000e-01 -1.996500e-01  8.265741e-01
     vertex -2.673500e-01 -1.970000e-01  8.265741e-01
   endloop
 endfacet
 facet normal -7.071068e-01  7.071068e-01  0.000000e+00
   outer loop
     vertex -2.700000e-01 -1.996500e-01  8.165741e-01
     vertex -2.673500e-01 -1.970000e-01  8.265741e-01
     vertex -2.673500e-01 -1.970000e-01  8.165741e-01
   endloop
 endfacet
 facet normal  7.071068e-01  7.071068e-01 -0.000000e+00
   outer loop
     vertex -2.726500e-01 -1.970000e-01  8.165741e-01
     vertex -2.726500e-01 -1.970000e-01  8.265741e-01
     vertex -2.700000e-01 -1.996500e-01  8.265741e-01
   endloop
 endfacet
 facet normal  7.071068e-01  7.071068e-01  0.000000e+00
   outer loop
     vertex -2.726500e-01 -1.970000e-01  8.165741e-01
     vertex -2.700000e-01 -1.996500e-01  8.265741e-01
     vertex -2.700000e-01 -1.996500e-01  8.165741e-01
   endloop
 endfacet
 facet normal  7.071068e-01 -7.071068e-01  0.000000e+00
   outer loop
     vertex -2.700000e-01 -1.943500e-01  8.165741e-01
     vertex -2.700000e-01 -1.943500e-01  8.265741e-01
     vertex -2.726500e-01 -1.970000e-01  8.265741e-01
   endloop
 endfacet
 facet normal  7.071068e-01 -7.071068e-01  0.000000e+00
   outer loop
     vertex -2.700000e-01 -1.943500e-01  8.165741e-01
     vertex -2.726500e-01 -1.970000e-01  8.265741e-01
     vertex -2.726500e-01 -1.970000e-01  8.165741e-01
   endloop
 endfacet
 facet normal -7.071068e-01 -7.071068e-01  0.000000e+00
   outer loop
     vertex -2.651250e-01 -2.070000e-01  8.115741e-01
     vertex -2.700000e-01 -2.021250e-01  8.165741e-01
     vertex -2.700000e-01 -2.021250e-01  8.115741e-01
   endloop
 endfacet
 facet normal -7.071068e-01 -7.071068e-01  0.000000e+00
   outer loop
     vertex -2.651250e-01 -2.070000e-01  8.115741e-01
     vertex -2.651250e-01 -2.070000e-01  8.165741e-01
     vertex -2.700000e-01 -2.021250e-01  8.165741e-01
   endloop
 endfacet
 facet normal -7.071068e-01  7.071068e-01  0.000000e+00
   outer loop
     vertex -2.700000e-01 -2.118750e-01  8.115741e-01
     vertex -2.700000e-01 -2.118750e-01  8.165741e-01
     vertex -2.651250e-01 -2.070000e-01  8.165741e-01
   endloop
 endfacet
 facet normal -7.071068e-01  7.071068e-01  0.000000e+00
   outer loop
     vertex -2.700000e-01 -2.118750e-01  8.115741e-01
     vertex -2.651250e-01 -2.070000e-01  8.165741e-01
     vertex -2.651250e-01 -2.070000e-01  8.115741e-01
   endloop
 endfacet
 facet normal  7.071068e-01  7.071068e-01 -0.000000e+00
   outer loop
     vertex -2.748750e-01 -2.070000e-01  8.115741e-01
     vertex -2.748750e-01 -2.070000e-01  8.165741e-01
     vertex -2.700000e-01 -2.118750e-01  8.165741e-01
   endloop
 endfacet
 facet normal  7.071068e-01  7.071068e-01  0.000000e+00
   outer loop
     vertex -2.748750e-01 -2.070000e-01  8.115741e-01
     vertex -2.700000e-01 -2.118750e-01  8.165741e-01
     vertex -2.700000e-01 -2.118750e-01  8.115741e-01
   endloop
 endfacet
 facet normal  7.071068e-01 -7.071068e-01  0.000000e+00
   outer loop
     vertex -2.700000e-01 -2.021250e-01  8.115741e-01
     vertex -2.700000e-01 -2.021250e-01  8.165741e-01
     vertex -2.748750e-01 -2.070000e-01  8.165741e-01
   endloop
 endfacet
 facet normal  7.071068e-01 -7.071068e-01  0.000000e+00
   outer loop
     vertex -2.700000e-01 -2.021250e-01  8.115741e-01
     vertex -2.748750e-01 -2.070000e-01  8.165741e-01
     vertex -2.748750e-01 -2.070000e-01  8.115741e-01
   endloop
 endfacet
 facet normal  0.000000e+00  0.000000e+00 -1.000000e+00
   outer loop
     vertex -2.673500e-01 -2.070000e-01  8.165741e-01
     vertex -2.700000e-01 -2.021250e-01  8.165741e-01
     vertex -2.651250e-01 -2.070000e-01  8.165741e-01
   endloop
 endfacet
 facet normal  0.000000e+00  0.000000e+00 -1.000000e+00
   outer loop
     vertex -2.700000e-01 -2.043500e-01  8.165741e-01
     vertex -2.700000e-01 -2.021250e-01  8.165741e-01
     vertex -2.673500e-01 -2.070000e-01  8.165741e-01
   endloop
 endfacet
 facet normal  0.000000e+00  0.000000e+00 -1.000000e+00
   outer loop
     vertex -2.726500e-01 -2.070000e-01  8.165741e-01
     vertex -2.700000e-01 -2.021250e-01  8.165741e-01
     vertex -2.700000e-01 -2.043500e-01  8.165741e-01
   endloop
 endfacet
 facet normal  0.000000e+00  0.000000e+00 -1.000000e+00
   outer loop
     vertex -2.700000e-01 -2.118750e-01  8.165741e-01
     vertex -2.726500e-01 -2.070000e-01  8.165741e-01
     vertex -2.700000e-01 -2.096500e-01  8.165741e-01
   endloop
 endfacet
 facet normal  0.000000e+00  0.000000e+00 -1.000000e+00
   outer loop
     vertex -2.700000e-01 -2.118750e-01  8.165741e-01
     vertex -2.700000e-01 -2.096500e-01  8.165741e-01
     vertex -2.673500e-01 -2.070000e-01  8.165741e-01
   endloop
 endfacet
 facet normal  0.000000e+00  0.000000e+00 -1.000000e+00
   outer loop
     vertex -2.700000e-01 -2.118750e-01  8.165741e-01
     vertex -2.673500e-01 -2.070000e-01  8.165741e-01
     vertex -2.651250e-01 -2.070000e-01  8.165741e-01
   endloop
 endfacet
 facet normal  0.000000e+00  0.000000e+00 -1.000000e+00
   outer loop
     vertex -2.748750e-01 -2.070000e-01  8.165741e-01
     vertex -2.726500e-01 -2.070000e-01  8.165741e-01
     vertex -2.700000e-01 -2.118750e-01  8.165741e-01
   endloop
 endfacet
 facet normal  0.000000e+00  0.000000e+00 -1.000000e+00
   outer loop
     vertex -2.748750e-01 -2.070000e-01  8.165741e-01
     vertex -2.700000e-01 -2.021250e-01  8.165741e-01
     vertex -2.726500e-01 -2.070000e-01  8.165741e-01
   endloop
 endfacet
 facet normal -7.071068e-01 -7.071068e-01  0.000000e+00
   outer loop
     vertex -2.673500e-01 -2.070000e-01  8.165741e-01
     vertex -2.700000e-01 -2.043500e-01  8.265741e-01
     vertex -2.700000e-01 -2.043500e-01  8.165741e-01
   endloop
 endfacet
 facet normal -7.071068e-01 -7.071068e-01  0.000000e+00
   outer loop
     vertex -2.673500e-01 -2.070000e-01  8.165741e-01
     vertex -2.673500e-01 -2.070000e-01  8.265741e-01
     vertex -2.700000e-01 -2.043500e-01  8.265741e-01
   endloop
 endfacet
 facet normal -7.071068e-01  7.071068e-01  0.000000e+00
   outer loop
     vertex -2.700000e-01 -2.096500e-01  8.165741e-01
     vertex -2.700000e-01 -2.096500e-01  8.265741e-01
     vertex -2.673500e-01 -2.070000e-01  8.265741e-01
   endloop
 endfacet
 facet normal -7.071068e-01  7.071068e-01  0.000000e+00
   outer loop
     vertex -2.700000e-01 -2.096500e-01  8.165741e-01
     vertex -2.673500e-01 -2.070000e-01  8.265741e-01
     vertex -2.673500e-01 -2.070000e-01  8.165741e-01
   endloop
 endfacet
 facet normal  7.071068e-01  7.071068e-01 -0.000000e+00
   outer loop
     vertex -2.726500e-01 -2.070000e-01  8.165741e-01
     vertex -2.726500e-01 -2.070000e-01  8.265741e-01
     vertex -2.700000e-01 -2.096500e-01  8.265741e-01
   endloop
 endfacet
 facet normal  7.071068e-01  7.071068e-01  0.000000e+00
   outer loop
     vertex -2.726500e-01 -2.070000e-01  8.165741e-01
     vertex -2.700000e-01 -2.096500e-01  8.265741e-01
     vertex -2.700000e-01 -2.096500e-01  8.165741e-01
   endloop
 endfacet
 facet normal  7.071068e-01 -7.071068e-01  0.000000e+00
   outer loop
     vertex -2.700000e-01 -2.043500e-01  8.165741e-01
     vertex -2.700000e-01 -2.043500e-01  8.265741e-01
     vertex -2.726500e-01 -2.070000e-01  8.265741e-01
   endloop
 endfacet
 facet normal  7.071068e-01 -7.071068e-01  0.000000e+00
   outer loop
     vertex -2.700000e-01 -2.043500e-01  8.165741e-01
     vertex -2.726500e-01 -2.070000e-01  8.265741e-01
     vertex -2.726500e-01 -2.070000e-01  8.165741e-01
   endloop
 endfacet
 facet normal  7.071068e-01  7.071068e-01  0.000000e+00
   outer loop
     vertex -2.920000e-01 -2.025000e-01  8.165741e-01
     vertex -2.870000e-01 -2.075000e-01  8.265741e-01
     vertex -2.870000e-01 -2.075000e-01  8.165741e-01
   endloop
 endfacet
 facet normal  7.071068e-01  7.071068e-01 -0.000000e+00
   outer loop
     vertex -2.920000e-01 -2.025000e-01  8.165741e-01
     vertex -2.920000e-01 -2.025000e-01  8.265741e-01
     vertex -2.870000e-01 -2.075000e-01  8.265741e-01
   endloop
 endfacet
 facet normal  7.071068e-01 -7.071068e-01  0.000000e+00
   outer loop
     vertex -2.870000e-01 -1.975000e-01  8.165741e-01
     vertex -2.870000e-01 -1.975000e-01  8.265741e-01
     vertex -2.920000e-01 -2.025000e-01  8.265741e-01
   endloop
 endfacet
 facet normal  7.071068e-01 -7.071068e-01  0.000000e+00
   outer loop
     vertex -2.870000e-01 -1.975000e-01  8.165741e-01
     vertex -2.920000e-01 -2.025000e-01  8.265741e-01
     vertex -2.920000e-01 -2.025000e-01  8.165741e-01
   endloop
 endfacet
 facet normal -7.071068e-01 -7.071068e-01  0.000000e+00
   outer loop
     vertex -2.820000e-01 -2.025000e-01  8.165741e-01
     vertex -2.820000e-01 -2.025000e-01  8.265741e-01
     vertex -2.870000e-01 -1.975000e-01  8.265741e-01
   endloop
 endfacet
 facet normal -7.071068e-01 -7.071068e-01  0.000000e+00
   outer loop
     vertex -2.820000e-01 -2.025000e-01  8.165741e-01
     vertex -2.870000e-01 -1.975000e-01  8.265741e-01
     vertex -2.870000e-01 -1.975000e-01  8.165741e-01
   endloop
 endfacet
 facet normal -7.071068e-01  7.071068e-01  0.000000e+00
   outer loop
     vertex -2.870000e-01 -2.075000e-01  8.165741e-01
     vertex -2.870000e-01 -2.075000e-01  8.265741e-01
     vertex -2.820000e-01 -2.025000e-01  8.265741e-01
   endloop
 endfacet
 facet normal -7.071068e-01  7.071068e-01  0.000000e+00
   outer loop
     vertex -2.870000e-01 -2.075000e-01  8.165741e-01
     vertex -2.820000e-01 -2.025000e-01  8.265741e-01
     vertex -2.820000e-01 -2.025000e-01  8.165741e-01
   endloop
 endfacet
 facet normal  0.000000e+00  0.000000e+00  1.000000e+00
   outer loop
     vertex -2.820000e-01 -2.025000e-01  8.165741e-01
     vertex -2.920000e-01 -2.025000e-01  8.165741e-01
     vertex -2.870000e-01 -2.075000e-01  8.165741e-01
   endloop
 endfacet
 facet normal  0.000000e+00  0.000000e+00  1.000000e+00
   outer loop
     vertex -2.820000e-01 -2.025000e-01  8.165741e-01
     vertex -2.870000e-01 -1.975000e-01  8.165741e-01
     vertex -2.920000e-01 -2.025000e-01  8.165741e-01
   endloop
 endfacet
 facet normal -7.071068e-01  7.071068e-01  0.000000e+00
   outer loop
     vertex -2.480000e-01 -2.025000e-01  8.265741e-01
     vertex -2.530000e-01 -2.075000e-01  8.165741e-01
     vertex -2.530000e-01 -2.075000e-01  8.265741e-01
   endloop
 endfacet
 facet normal -7.071068e-01  7.071068e-01  0.000000e+00
   outer loop
     vertex -2.480000e-01 -2.025000e-01  8.265741e-01
     vertex -2.480000e-01 -2.025000e-01  8.165741e-01
     vertex -2.530000e-01 -2.075000e-01  8.165741e-01
   endloop
 endfacet
 facet normal -7.071068e-01 -7.071068e-01 -0.000000e+00
   outer loop
     vertex -2.530000e-01 -1.975000e-01  8.265741e-01
     vertex -2.530000e-01 -1.975000e-01  8.165741e-01
     vertex -2.480000e-01 -2.025000e-01  8.165741e-01
   endloop
 endfacet
 facet normal -7.071068e-01 -7.071068e-01  0.000000e+00
   outer loop
     vertex -2.530000e-01 -1.975000e-01  8.265741e-01
     vertex -2.480000e-01 -2.025000e-01  8.165741e-01
     vertex -2.480000e-01 -2.025000e-01  8.265741e-01
   endloop
 endfacet
 facet normal  7.071068e-01 -7.071068e-01  0.000000e+00
   outer loop
     vertex -2.580000e-01 -2.025000e-01  8.265741e-01
     vertex -2.580000e-01 -2.025000e-01  8.165741e-01
     vertex -2.530000e-01 -1.975000e-01  8.165741e-01
   endloop
 endfacet
 facet normal  7.071068e-01 -7.071068e-01  0.000000e+00
   outer loop
     vertex -2.580000e-01 -2.025000e-01  8.265741e-01
     vertex -2.530000e-01 -1.975000e-01  8.165741e-01
     vertex -2.530000e-01 -1.975000e-01  8.265741e-01
   endloop
 endfacet
 facet normal  7.071068e-01  7.071068e-01  0.000000e+00
   outer loop
     vertex -2.530000e-01 -2.075000e-01  8.265741e-01
     vertex -2.530000e-01 -2.075000e-01  8.165741e-01
     vertex -2.580000e-01 -2.025000e-01  8.165741e-01
   endloop
 endfacet
 facet normal  7.071068e-01  7.071068e-01  0.000000e+00
   outer loop
     vertex -2.530000e-01 -2.075000e-01  8.265741e-01
     vertex -2.580000e-01 -2.025000e-01  8.165741e-01
     vertex -2.580000e-01 -2.025000e-01  8.265741e-01
   endloop
 endfacet
 facet normal  0.000000e+00  0.000000e+00  1.000000e+00
   outer loop
     vertex -2.530000e-01 -1.975000e-01  8.165741e-01
     vertex -2.530000e-01 -2.075000e-01  8.165741e-01
     vertex -2.480000e-01 -2.025000e-01  8.165741e-01
   endloop
 endfacet
 facet normal  0.000000e+00  0.000000e+00  1.000000e+00
   outer loop
     vertex -2.530000e-01 -1.975000e-01  8.165741e-01
     vertex -2.580000e-01 -2.025000e-01  8.165741e-01
     vertex -2.530000e-01 -2.075000e-01  8.165741e-01
   endloop
 endfacet
endsolid
