solid 
 facet normal  1.000000e+00  0.000000e+00 -0.000000e+00
   outer loop
     vertex  2.070000e-01  2.918000e-01  8.545741e-01
     vertex  2.070000e-01  2.941250e-01  8.545741e-01
     vertex  2.070000e-01  2.870000e-01  8.616991e-01
   endloop
 endfacet
 facet normal  1.000000e+00  0.000000e+00  0.000000e+00
   outer loop
     vertex  2.070000e-01  2.918000e-01  8.545741e-01
     vertex  2.070000e-01  2.870000e-01  8.616991e-01
     vertex  2.070000e-01  2.870000e-01  8.593741e-01
   endloop
 endfacet
 facet normal  1.000000e+00  0.000000e+00  0.000000e+00
   outer loop
     vertex  2.070000e-01  2.798750e-01  8.545741e-01
     vertex  2.070000e-01  2.822000e-01  8.545741e-01
     vertex  2.070000e-01  2.870000e-01  8.593741e-01
   endloop
 endfacet
 facet normal  1.000000e+00  0.000000e+00  0.000000e+00
   outer loop
     vertex  2.070000e-01  2.798750e-01  8.545741e-01
     vertex  2.070000e-01  2.870000e-01  8.593741e-01
     vertex  2.070000e-01  2.870000e-01  8.616991e-01
   endloop
 endfacet
 facet normal  1.000000e+00  0.000000e+00  0.000000e+00
   outer loop
     vertex  2.070000e-01  2.870000e-01  8.474491e-01
     vertex  2.070000e-01  2.918000e-01  8.545741e-01
     vertex  2.070000e-01  2.870000e-01  8.497741e-01
   endloop
 endfacet
 facet normal  1.000000e+00  0.000000e+00 -0.000000e+00
   outer loop
     vertex  2.070000e-01  2.870000e-01  8.474491e-01
     vertex  2.070000e-01  2.870000e-01  8.497741e-01
     vertex  2.070000e-01  2.822000e-01  8.545741e-01
   endloop
 endfacet
 facet normal  1.000000e+00  0.000000e+00  0.000000e+00
   outer loop
     vertex  2.070000e-01  2.870000e-01  8.474491e-01
     vertex  2.070000e-01  2.941250e-01  8.545741e-01
     vertex  2.070000e-01  2.918000e-01  8.545741e-01
   endloop
 endfacet
 facet normal  1.000000e+00  0.000000e+00  0.000000e+00
   outer loop
     vertex  2.070000e-01  2.870000e-01  8.474491e-01
     vertex  2.070000e-01  2.822000e-01  8.545741e-01
     vertex  2.070000e-01  2.798750e-01  8.545741e-01
   endloop
 endfacet
 facet normal  1.861568e-01 -6.947466e-01 -6.947466e-01
   outer loop
     vertex  2.068500e-01  2.915402e-01  8.545741e-01
     vertex  2.068500e-01  2.870000e-01  8.591143e-01
     vertex  2.067000e-01  2.870000e-01  8.590741e-01
   endloop
 endfacet
 facet normal  1.861568e-01 -6.947466e-01 -6.947466e-01
   outer loop
     vertex  2.068500e-01  2.915402e-01  8.545741e-01
     vertex  2.067000e-01  2.870000e-01  8.590741e-01
     vertex  2.067000e-01  2.915000e-01  8.545741e-01
   endloop
 endfacet
 facet normal  9.351131e-01 -2.505628e-01 -2.505628e-01
   outer loop
     vertex  2.069598e-01  2.916500e-01  8.545741e-01
     vertex  2.070000e-01  2.918000e-01  8.545741e-01
     vertex  2.070000e-01  2.870000e-01  8.593741e-01
   endloop
 endfacet
 facet normal  9.351131e-01 -2.505628e-01 -2.505628e-01
   outer loop
     vertex  2.069598e-01  2.916500e-01  8.545741e-01
     vertex  2.070000e-01  2.870000e-01  8.593741e-01
     vertex  2.069598e-01  2.870000e-01  8.592241e-01
   endloop
 endfacet
 facet normal  5.773503e-01 -5.773503e-01 -5.773503e-01
   outer loop
     vertex  2.069598e-01  2.916500e-01  8.545741e-01
     vertex  2.069598e-01  2.870000e-01  8.592241e-01
     vertex  2.068500e-01  2.870000e-01  8.591143e-01
   endloop
 endfacet
 facet normal  5.773503e-01 -5.773503e-01 -5.773503e-01
   outer loop
     vertex  2.069598e-01  2.916500e-01  8.545741e-01
     vertex  2.068500e-01  2.870000e-01  8.591143e-01
     vertex  2.068500e-01  2.915402e-01  8.545741e-01
   endloop
 endfacet
 facet normal  1.861568e-01 -6.947466e-01  6.947466e-01
   outer loop
     vertex  2.068500e-01  2.870000e-01  8.500339e-01
     vertex  2.067000e-01  2.915000e-01  8.545741e-01
     vertex  2.067000e-01  2.870000e-01  8.500741e-01
   endloop
 endfacet
 facet normal  1.861568e-01 -6.947466e-01  6.947466e-01
   outer loop
     vertex  2.068500e-01  2.870000e-01  8.500339e-01
     vertex  2.068500e-01  2.915402e-01  8.545741e-01
     vertex  2.067000e-01  2.915000e-01  8.545741e-01
   endloop
 endfacet
 facet normal  9.351131e-01 -2.505628e-01  2.505628e-01
   outer loop
     vertex  2.069598e-01  2.870000e-01  8.499241e-01
     vertex  2.070000e-01  2.870000e-01  8.497741e-01
     vertex  2.070000e-01  2.918000e-01  8.545741e-01
   endloop
 endfacet
 facet normal  5.773503e-01 -5.773503e-01  5.773503e-01
   outer loop
     vertex  2.069598e-01  2.870000e-01  8.499241e-01
     vertex  2.069598e-01  2.916500e-01  8.545741e-01
     vertex  2.068500e-01  2.915402e-01  8.545741e-01
   endloop
 endfacet
 facet normal  5.773503e-01 -5.773503e-01  5.773503e-01
   outer loop
     vertex  2.069598e-01  2.870000e-01  8.499241e-01
     vertex  2.068500e-01  2.915402e-01  8.545741e-01
     vertex  2.068500e-01  2.870000e-01  8.500339e-01
   endloop
 endfacet
 facet normal  9.351131e-01 -2.505628e-01  2.505628e-01
   outer loop
     vertex  2.069598e-01  2.870000e-01  8.499241e-01
     vertex  2.070000e-01  2.918000e-01  8.545741e-01
     vertex  2.069598e-01  2.916500e-01  8.545741e-01
   endloop
 endfacet
 facet normal  1.861568e-01  6.947466e-01  6.947466e-01
   outer loop
     vertex  2.068500e-01  2.824598e-01  8.545741e-01
     vertex  2.067000e-01  2.870000e-01  8.500741e-01
     vertex  2.067000e-01  2.825000e-01  8.545741e-01
   endloop
 endfacet
 facet normal  1.861568e-01  6.947466e-01 -6.947466e-01
   outer loop
     vertex  2.068500e-01  2.824598e-01  8.545741e-01
     vertex  2.067000e-01  2.825000e-01  8.545741e-01
     vertex  2.067000e-01  2.870000e-01  8.590741e-01
   endloop
 endfacet
 facet normal  1.861568e-01  6.947466e-01 -6.947466e-01
   outer loop
     vertex  2.068500e-01  2.824598e-01  8.545741e-01
     vertex  2.067000e-01  2.870000e-01  8.590741e-01
     vertex  2.068500e-01  2.870000e-01  8.591143e-01
   endloop
 endfacet
 facet normal  1.861568e-01  6.947466e-01  6.947466e-01
   outer loop
     vertex  2.068500e-01  2.824598e-01  8.545741e-01
     vertex  2.068500e-01  2.870000e-01  8.500339e-01
     vertex  2.067000e-01  2.870000e-01  8.500741e-01
   endloop
 endfacet
 facet normal  9.351131e-01  2.505628e-01  2.505628e-01
   outer loop
     vertex  2.069598e-01  2.823500e-01  8.545741e-01
     vertex  2.070000e-01  2.822000e-01  8.545741e-01
     vertex  2.070000e-01  2.870000e-01  8.497741e-01
   endloop
 endfacet
 facet normal  9.351131e-01  2.505628e-01 -2.505628e-01
   outer loop
     vertex  2.069598e-01  2.823500e-01  8.545741e-01
     vertex  2.070000e-01  2.870000e-01  8.593741e-01
     vertex  2.070000e-01  2.822000e-01  8.545741e-01
   endloop
 endfacet
 facet normal  9.351131e-01  2.505628e-01 -2.505628e-01
   outer loop
     vertex  2.069598e-01  2.823500e-01  8.545741e-01
     vertex  2.069598e-01  2.870000e-01  8.592241e-01
     vertex  2.070000e-01  2.870000e-01  8.593741e-01
   endloop
 endfacet
 facet normal  5.773503e-01  5.773503e-01 -5.773503e-01
   outer loop
     vertex  2.069598e-01  2.823500e-01  8.545741e-01
     vertex  2.068500e-01  2.870000e-01  8.591143e-01
     vertex  2.069598e-01  2.870000e-01  8.592241e-01
   endloop
 endfacet
 facet normal  5.773503e-01  5.773503e-01  5.773503e-01
   outer loop
     vertex  2.069598e-01  2.823500e-01  8.545741e-01
     vertex  2.069598e-01  2.870000e-01  8.499241e-01
     vertex  2.068500e-01  2.870000e-01  8.500339e-01
   endloop
 endfacet
 facet normal  9.351131e-01  2.505628e-01  2.505628e-01
   outer loop
     vertex  2.069598e-01  2.823500e-01  8.545741e-01
     vertex  2.070000e-01  2.870000e-01  8.497741e-01
     vertex  2.069598e-01  2.870000e-01  8.499241e-01
   endloop
 endfacet
 facet normal  5.773503e-01  5.773503e-01 -5.773503e-01
   outer loop
     vertex  2.069598e-01  2.823500e-01  8.545741e-01
     vertex  2.068500e-01  2.824598e-01  8.545741e-01
     vertex  2.068500e-01  2.870000e-01  8.591143e-01
   endloop
 endfacet
 facet normal  5.773503e-01  5.773503e-01  5.773503e-01
   outer loop
     vertex  2.069598e-01  2.823500e-01  8.545741e-01
     vertex  2.068500e-01  2.870000e-01  8.500339e-01
     vertex  2.068500e-01  2.824598e-01  8.545741e-01
   endloop
 endfacet
 facet normal  0.000000e+00 -7.071068e-01 -7.071068e-01
   outer loop
     vertex  2.003000e-01  2.915000e-01  8.545741e-01
     vertex  2.067000e-01  2.870000e-01  8.590741e-01
     vertex  2.003000e-01  2.870000e-01  8.590741e-01
   endloop
 endfacet
 facet normal  0.000000e+00 -7.071068e-01 -7.071068e-01
   outer loop
     vertex  2.003000e-01  2.915000e-01  8.545741e-01
     vertex  2.067000e-01  2.915000e-01  8.545741e-01
     vertex  2.067000e-01  2.870000e-01  8.590741e-01
   endloop
 endfacet
 facet normal  0.000000e+00 -7.071068e-01  7.071068e-01
   outer loop
     vertex  2.003000e-01  2.870000e-01  8.500741e-01
     vertex  2.067000e-01  2.870000e-01  8.500741e-01
     vertex  2.067000e-01  2.915000e-01  8.545741e-01
   endloop
 endfacet
 facet normal  0.000000e+00 -7.071068e-01  7.071068e-01
   outer loop
     vertex  2.003000e-01  2.870000e-01  8.500741e-01
     vertex  2.067000e-01  2.915000e-01  8.545741e-01
     vertex  2.003000e-01  2.915000e-01  8.545741e-01
   endloop
 endfacet
 facet normal -0.000000e+00  7.071068e-01  7.071068e-01
   outer loop
     vertex  2.003000e-01  2.825000e-01  8.545741e-01
     vertex  2.067000e-01  2.825000e-01  8.545741e-01
     vertex  2.067000e-01  2.870000e-01  8.500741e-01
   endloop
 endfacet
 facet normal  0.000000e+00  7.071068e-01  7.071068e-01
   outer loop
     vertex  2.003000e-01  2.825000e-01  8.545741e-01
     vertex  2.067000e-01  2.870000e-01  8.500741e-01
     vertex  2.003000e-01  2.870000e-01  8.500741e-01
   endloop
 endfacet
 facet normal  0.000000e+00  7.071068e-01 -7.071068e-01
   outer loop
     vertex  2.003000e-01  2.870000e-01  8.590741e-01
     vertex  2.067000e-01  2.870000e-01  8.590741e-01
     vertex  2.067000e-01  2.825000e-01  8.545741e-01
   endloop
 endfacet
 facet normal  0.000000e+00  7.071068e-01 -7.071068e-01
   outer loop
     vertex  2.003000e-01  2.870000e-01  8.590741e-01
     vertex  2.067000e-01  2.825000e-01  8.545741e-01
     vertex  2.003000e-01  2.825000e-01  8.545741e-01
   endloop
 endfacet
 facet normal -9.351131e-01 -2.505628e-01 -2.505628e-01
   outer loop
     vertex  2.000402e-01  2.916500e-01  8.545741e-01
     vertex  2.000402e-01  2.870000e-01  8.592241e-01
     vertex  2.000000e-01  2.870000e-01  8.593741e-01
   endloop
 endfacet
 facet normal -9.351131e-01 -2.505628e-01 -2.505628e-01
   outer loop
     vertex  2.000402e-01  2.916500e-01  8.545741e-01
     vertex  2.000000e-01  2.870000e-01  8.593741e-01
     vertex  2.000000e-01  2.918000e-01  8.545741e-01
   endloop
 endfacet
 facet normal -1.861568e-01 -6.947466e-01 -6.947466e-01
   outer loop
     vertex  2.001500e-01  2.915402e-01  8.545741e-01
     vertex  2.003000e-01  2.915000e-01  8.545741e-01
     vertex  2.003000e-01  2.870000e-01  8.590741e-01
   endloop
 endfacet
 facet normal -1.861568e-01 -6.947466e-01 -6.947466e-01
   outer loop
     vertex  2.001500e-01  2.915402e-01  8.545741e-01
     vertex  2.003000e-01  2.870000e-01  8.590741e-01
     vertex  2.001500e-01  2.870000e-01  8.591143e-01
   endloop
 endfacet
 facet normal -5.773503e-01 -5.773503e-01 -5.773503e-01
   outer loop
     vertex  2.001500e-01  2.915402e-01  8.545741e-01
     vertex  2.001500e-01  2.870000e-01  8.591143e-01
     vertex  2.000402e-01  2.870000e-01  8.592241e-01
   endloop
 endfacet
 facet normal -5.773503e-01 -5.773503e-01 -5.773503e-01
   outer loop
     vertex  2.001500e-01  2.915402e-01  8.545741e-01
     vertex  2.000402e-01  2.870000e-01  8.592241e-01
     vertex  2.000402e-01  2.916500e-01  8.545741e-01
   endloop
 endfacet
 facet normal -9.351131e-01 -2.505628e-01  2.505628e-01
   outer loop
     vertex  2.000402e-01  2.870000e-01  8.499241e-01
     vertex  2.000000e-01  2.918000e-01  8.545741e-01
     vertex  2.000000e-01  2.870000e-01  8.497741e-01
   endloop
 endfacet
 facet normal -9.351131e-01 -2.505628e-01  2.505628e-01
   outer loop
     vertex  2.000402e-01  2.870000e-01  8.499241e-01
     vertex  2.000402e-01  2.916500e-01  8.545741e-01
     vertex  2.000000e-01  2.918000e-01  8.545741e-01
   endloop
 endfacet
 facet normal -1.861568e-01 -6.947466e-01  6.947466e-01
   outer loop
     vertex  2.001500e-01  2.870000e-01  8.500339e-01
     vertex  2.003000e-01  2.870000e-01  8.500741e-01
     vertex  2.003000e-01  2.915000e-01  8.545741e-01
   endloop
 endfacet
 facet normal -5.773503e-01 -5.773503e-01  5.773503e-01
   outer loop
     vertex  2.001500e-01  2.870000e-01  8.500339e-01
     vertex  2.001500e-01  2.915402e-01  8.545741e-01
     vertex  2.000402e-01  2.916500e-01  8.545741e-01
   endloop
 endfacet
 facet normal -5.773503e-01 -5.773503e-01  5.773503e-01
   outer loop
     vertex  2.001500e-01  2.870000e-01  8.500339e-01
     vertex  2.000402e-01  2.916500e-01  8.545741e-01
     vertex  2.000402e-01  2.870000e-01  8.499241e-01
   endloop
 endfacet
 facet normal -1.861568e-01 -6.947466e-01  6.947466e-01
   outer loop
     vertex  2.001500e-01  2.870000e-01  8.500339e-01
     vertex  2.003000e-01  2.915000e-01  8.545741e-01
     vertex  2.001500e-01  2.915402e-01  8.545741e-01
   endloop
 endfacet
 facet normal -9.351131e-01  2.505628e-01  2.505628e-01
   outer loop
     vertex  2.000402e-01  2.823500e-01  8.545741e-01
     vertex  2.000000e-01  2.870000e-01  8.497741e-01
     vertex  2.000000e-01  2.822000e-01  8.545741e-01
   endloop
 endfacet
 facet normal -9.351131e-01  2.505628e-01 -2.505628e-01
   outer loop
     vertex  2.000402e-01  2.823500e-01  8.545741e-01
     vertex  2.000000e-01  2.822000e-01  8.545741e-01
     vertex  2.000000e-01  2.870000e-01  8.593741e-01
   endloop
 endfacet
 facet normal -9.351131e-01  2.505628e-01 -2.505628e-01
   outer loop
     vertex  2.000402e-01  2.823500e-01  8.545741e-01
     vertex  2.000000e-01  2.870000e-01  8.593741e-01
     vertex  2.000402e-01  2.870000e-01  8.592241e-01
   endloop
 endfacet
 facet normal -9.351131e-01  2.505628e-01  2.505628e-01
   outer loop
     vertex  2.000402e-01  2.823500e-01  8.545741e-01
     vertex  2.000402e-01  2.870000e-01  8.499241e-01
     vertex  2.000000e-01  2.870000e-01  8.497741e-01
   endloop
 endfacet
 facet normal -1.861568e-01  6.947466e-01  6.947466e-01
   outer loop
     vertex  2.001500e-01  2.824598e-01  8.545741e-01
     vertex  2.003000e-01  2.825000e-01  8.545741e-01
     vertex  2.003000e-01  2.870000e-01  8.500741e-01
   endloop
 endfacet
 facet normal -1.861568e-01  6.947466e-01 -6.947466e-01
   outer loop
     vertex  2.001500e-01  2.824598e-01  8.545741e-01
     vertex  2.003000e-01  2.870000e-01  8.590741e-01
     vertex  2.003000e-01  2.825000e-01  8.545741e-01
   endloop
 endfacet
 facet normal -1.861568e-01  6.947466e-01 -6.947466e-01
   outer loop
     vertex  2.001500e-01  2.824598e-01  8.545741e-01
     vertex  2.001500e-01  2.870000e-01  8.591143e-01
     vertex  2.003000e-01  2.870000e-01  8.590741e-01
   endloop
 endfacet
 facet normal -5.773503e-01  5.773503e-01 -5.773503e-01
   outer loop
     vertex  2.001500e-01  2.824598e-01  8.545741e-01
     vertex  2.000402e-01  2.870000e-01  8.592241e-01
     vertex  2.001500e-01  2.870000e-01  8.591143e-01
   endloop
 endfacet
 facet normal -5.773503e-01  5.773503e-01  5.773503e-01
   outer loop
     vertex  2.001500e-01  2.824598e-01  8.545741e-01
     vertex  2.001500e-01  2.870000e-01  8.500339e-01
     vertex  2.000402e-01  2.870000e-01  8.499241e-01
   endloop
 endfacet
 facet normal -1.861568e-01  6.947466e-01  6.947466e-01
   outer loop
     vertex  2.001500e-01  2.824598e-01  8.545741e-01
     vertex  2.003000e-01  2.870000e-01  8.500741e-01
     vertex  2.001500e-01  2.870000e-01  8.500339e-01
   endloop
 endfacet
 facet normal -5.773503e-01  5.773503e-01 -5.773503e-01
   outer loop
     vertex  2.001500e-01  2.824598e-01  8.545741e-01
     vertex  2.000402e-01  2.823500e-01  8.545741e-01
     vertex  2.000402e-01  2.870000e-01  8.592241e-01
   endloop
 endfacet
 facet normal -5.773503e-01  5.773503e-01  5.773503e-01
   outer loop
     vertex  2.001500e-01  2.824598e-01  8.545741e-01
     vertex  2.000402e-01  2.870000e-01  8.499241e-01
     vertex  2.000402e-01  2.823500e-01  8.545741e-01
   endloop
 endfacet
 facet normal -1.000000e+00  0.000000e+00  0.000000e+00
   outer loop
     vertex  2.000000e-01  2.918000e-01  8.545741e-01
     vertex  2.000000e-01  2.870000e-01  8.616991e-01
     vertex  2.000000e-01  2.941250e-01  8.545741e-01
   endloop
 endfacet
 facet normal -1.000000e+00  0.000000e+00  0.000000e+00
   outer loop
     vertex  2.000000e-01  2.918000e-01  8.545741e-01
     vertex  2.000000e-01  2.870000e-01  8.593741e-01
     vertex  2.000000e-01  2.870000e-01  8.616991e-01
   endloop
 endfacet
 facet normal -1.000000e+00  0.000000e+00  0.000000e+00
   outer loop
     vertex  2.000000e-01  2.798750e-01  8.545741e-01
     vertex  2.000000e-01  2.870000e-01  8.593741e-01
     vertex  2.000000e-01  2.822000e-01  8.545741e-01
   endloop
 endfacet
 facet normal -1.000000e+00  0.000000e+00  0.000000e+00
   outer loop
     vertex  2.000000e-01  2.798750e-01  8.545741e-01
     vertex  2.000000e-01  2.870000e-01  8.616991e-01
     vertex  2.000000e-01  2.870000e-01  8.593741e-01
   endloop
 endfacet
 facet normal -1.000000e+00  0.000000e+00  0.000000e+00
   outer loop
     vertex  2.000000e-01  2.870000e-01  8.474491e-01
     vertex  2.000000e-01  2.870000e-01  8.497741e-01
     vertex  2.000000e-01  2.918000e-01  8.545741e-01
   endloop
 endfacet
 facet normal -1.000000e+00  0.000000e+00  0.000000e+00
   outer loop
     vertex  2.000000e-01  2.870000e-01  8.474491e-01
     vertex  2.000000e-01  2.822000e-01  8.545741e-01
     vertex  2.000000e-01  2.870000e-01  8.497741e-01
   endloop
 endfacet
 facet normal -1.000000e+00  0.000000e+00  0.000000e+00
   outer loop
     vertex  2.000000e-01  2.870000e-01  8.474491e-01
     vertex  2.000000e-01  2.918000e-01  8.545741e-01
     vertex  2.000000e-01  2.941250e-01  8.545741e-01
   endloop
 endfacet
 facet normal -1.000000e+00  0.000000e+00  0.000000e+00
   outer loop
     vertex  2.000000e-01  2.870000e-01  8.474491e-01
     vertex  2.000000e-01  2.798750e-01  8.545741e-01
     vertex  2.000000e-01  2.822000e-01  8.545741e-01
   endloop
 endfacet
 facet normal -1.861568e-01  6.947466e-01  6.947466e-01
   outer loop
     vertex  2.000500e-01  2.942116e-01  8.545741e-01
     vertex  2.000500e-01  2.870000e-01  8.617857e-01
     vertex  2.001000e-01  2.870000e-01  8.617991e-01
   endloop
 endfacet
 facet normal -1.861568e-01  6.947466e-01  6.947466e-01
   outer loop
     vertex  2.000500e-01  2.942116e-01  8.545741e-01
     vertex  2.001000e-01  2.870000e-01  8.617991e-01
     vertex  2.001000e-01  2.942250e-01  8.545741e-01
   endloop
 endfacet
 facet normal -9.351131e-01  2.505628e-01  2.505628e-01
   outer loop
     vertex  2.000134e-01  2.941750e-01  8.545741e-01
     vertex  2.000000e-01  2.941250e-01  8.545741e-01
     vertex  2.000000e-01  2.870000e-01  8.616991e-01
   endloop
 endfacet
 facet normal -9.351131e-01  2.505628e-01  2.505628e-01
   outer loop
     vertex  2.000134e-01  2.941750e-01  8.545741e-01
     vertex  2.000000e-01  2.870000e-01  8.616991e-01
     vertex  2.000134e-01  2.870000e-01  8.617491e-01
   endloop
 endfacet
 facet normal -5.773503e-01  5.773503e-01  5.773503e-01
   outer loop
     vertex  2.000134e-01  2.941750e-01  8.545741e-01
     vertex  2.000134e-01  2.870000e-01  8.617491e-01
     vertex  2.000500e-01  2.870000e-01  8.617857e-01
   endloop
 endfacet
 facet normal -5.773503e-01  5.773503e-01  5.773503e-01
   outer loop
     vertex  2.000134e-01  2.941750e-01  8.545741e-01
     vertex  2.000500e-01  2.870000e-01  8.617857e-01
     vertex  2.000500e-01  2.942116e-01  8.545741e-01
   endloop
 endfacet
 facet normal -1.861568e-01  6.947466e-01 -6.947466e-01
   outer loop
     vertex  2.000500e-01  2.870000e-01  8.473625e-01
     vertex  2.001000e-01  2.942250e-01  8.545741e-01
     vertex  2.001000e-01  2.870000e-01  8.473491e-01
   endloop
 endfacet
 facet normal -1.861568e-01  6.947466e-01 -6.947466e-01
   outer loop
     vertex  2.000500e-01  2.870000e-01  8.473625e-01
     vertex  2.000500e-01  2.942116e-01  8.545741e-01
     vertex  2.001000e-01  2.942250e-01  8.545741e-01
   endloop
 endfacet
 facet normal -9.351131e-01  2.505628e-01 -2.505628e-01
   outer loop
     vertex  2.000134e-01  2.870000e-01  8.473991e-01
     vertex  2.000000e-01  2.870000e-01  8.474491e-01
     vertex  2.000000e-01  2.941250e-01  8.545741e-01
   endloop
 endfacet
 facet normal -5.773503e-01  5.773503e-01 -5.773503e-01
   outer loop
     vertex  2.000134e-01  2.870000e-01  8.473991e-01
     vertex  2.000134e-01  2.941750e-01  8.545741e-01
     vertex  2.000500e-01  2.942116e-01  8.545741e-01
   endloop
 endfacet
 facet normal -5.773503e-01  5.773503e-01 -5.773503e-01
   outer loop
     vertex  2.000134e-01  2.870000e-01  8.473991e-01
     vertex  2.000500e-01  2.942116e-01  8.545741e-01
     vertex  2.000500e-01  2.870000e-01  8.473625e-01
   endloop
 endfacet
 facet normal -9.351131e-01  2.505628e-01 -2.505628e-01
   outer loop
     vertex  2.000134e-01  2.870000e-01  8.473991e-01
     vertex  2.000000e-01  2.941250e-01  8.545741e-01
     vertex  2.000134e-01  2.941750e-01  8.545741e-01
   endloop
 endfacet
 facet normal -1.861568e-01 -6.947466e-01 -6.947466e-01
   outer loop
     vertex  2.000500e-01  2.797884e-01  8.545741e-01
     vertex  2.001000e-01  2.870000e-01  8.473491e-01
     vertex  2.001000e-01  2.797750e-01  8.545741e-01
   endloop
 endfacet
 facet normal -1.861568e-01 -6.947466e-01  6.947466e-01
   outer loop
     vertex  2.000500e-01  2.797884e-01  8.545741e-01
     vertex  2.001000e-01  2.797750e-01  8.545741e-01
     vertex  2.001000e-01  2.870000e-01  8.617991e-01
   endloop
 endfacet
 facet normal -1.861568e-01 -6.947466e-01  6.947466e-01
   outer loop
     vertex  2.000500e-01  2.797884e-01  8.545741e-01
     vertex  2.001000e-01  2.870000e-01  8.617991e-01
     vertex  2.000500e-01  2.870000e-01  8.617857e-01
   endloop
 endfacet
 facet normal -1.861568e-01 -6.947466e-01 -6.947466e-01
   outer loop
     vertex  2.000500e-01  2.797884e-01  8.545741e-01
     vertex  2.000500e-01  2.870000e-01  8.473625e-01
     vertex  2.001000e-01  2.870000e-01  8.473491e-01
   endloop
 endfacet
 facet normal -9.351131e-01 -2.505628e-01 -2.505628e-01
   outer loop
     vertex  2.000134e-01  2.798250e-01  8.545741e-01
     vertex  2.000000e-01  2.798750e-01  8.545741e-01
     vertex  2.000000e-01  2.870000e-01  8.474491e-01
   endloop
 endfacet
 facet normal -9.351131e-01 -2.505628e-01  2.505628e-01
   outer loop
     vertex  2.000134e-01  2.798250e-01  8.545741e-01
     vertex  2.000000e-01  2.870000e-01  8.616991e-01
     vertex  2.000000e-01  2.798750e-01  8.545741e-01
   endloop
 endfacet
 facet normal -9.351131e-01 -2.505628e-01  2.505628e-01
   outer loop
     vertex  2.000134e-01  2.798250e-01  8.545741e-01
     vertex  2.000134e-01  2.870000e-01  8.617491e-01
     vertex  2.000000e-01  2.870000e-01  8.616991e-01
   endloop
 endfacet
 facet normal -5.773503e-01 -5.773503e-01  5.773503e-01
   outer loop
     vertex  2.000134e-01  2.798250e-01  8.545741e-01
     vertex  2.000500e-01  2.870000e-01  8.617857e-01
     vertex  2.000134e-01  2.870000e-01  8.617491e-01
   endloop
 endfacet
 facet normal -5.773503e-01 -5.773503e-01 -5.773503e-01
   outer loop
     vertex  2.000134e-01  2.798250e-01  8.545741e-01
     vertex  2.000134e-01  2.870000e-01  8.473991e-01
     vertex  2.000500e-01  2.870000e-01  8.473625e-01
   endloop
 endfacet
 facet normal -9.351131e-01 -2.505628e-01 -2.505628e-01
   outer loop
     vertex  2.000134e-01  2.798250e-01  8.545741e-01
     vertex  2.000000e-01  2.870000e-01  8.474491e-01
     vertex  2.000134e-01  2.870000e-01  8.473991e-01
   endloop
 endfacet
 facet normal -5.773503e-01 -5.773503e-01  5.773503e-01
   outer loop
     vertex  2.000134e-01  2.798250e-01  8.545741e-01
     vertex  2.000500e-01  2.797884e-01  8.545741e-01
     vertex  2.000500e-01  2.870000e-01  8.617857e-01
   endloop
 endfacet
 facet normal -5.773503e-01 -5.773503e-01 -5.773503e-01
   outer loop
     vertex  2.000134e-01  2.798250e-01  8.545741e-01
     vertex  2.000500e-01  2.870000e-01  8.473625e-01
     vertex  2.000500e-01  2.797884e-01  8.545741e-01
   endloop
 endfacet
 facet normal  0.000000e+00  7.071068e-01  7.071068e-01
   outer loop
     vertex  2.001000e-01  2.942250e-01  8.545741e-01
     vertex  2.001000e-01  2.870000e-01  8.617991e-01
     vertex  2.002700e-01  2.870000e-01  8.617991e-01
   endloop
 endfacet
 facet normal -0.000000e+00  7.071068e-01  7.071068e-01
   outer loop
     vertex  2.001000e-01  2.942250e-01  8.545741e-01
     vertex  2.002700e-01  2.870000e-01  8.617991e-01
     vertex  2.002700e-01  2.942250e-01  8.545741e-01
   endloop
 endfacet
 facet normal  0.000000e+00  7.071068e-01 -7.071068e-01
   outer loop
     vertex  2.001000e-01  2.870000e-01  8.473491e-01
     vertex  2.002700e-01  2.942250e-01  8.545741e-01
     vertex  2.002700e-01  2.870000e-01  8.473491e-01
   endloop
 endfacet
 facet normal  0.000000e+00  7.071068e-01 -7.071068e-01
   outer loop
     vertex  2.001000e-01  2.870000e-01  8.473491e-01
     vertex  2.001000e-01  2.942250e-01  8.545741e-01
     vertex  2.002700e-01  2.942250e-01  8.545741e-01
   endloop
 endfacet
 facet normal  0.000000e+00 -7.071068e-01 -7.071068e-01
   outer loop
     vertex  2.001000e-01  2.797750e-01  8.545741e-01
     vertex  2.002700e-01  2.870000e-01  8.473491e-01
     vertex  2.002700e-01  2.797750e-01  8.545741e-01
   endloop
 endfacet
 facet normal  0.000000e+00 -7.071068e-01 -7.071068e-01
   outer loop
     vertex  2.001000e-01  2.797750e-01  8.545741e-01
     vertex  2.001000e-01  2.870000e-01  8.473491e-01
     vertex  2.002700e-01  2.870000e-01  8.473491e-01
   endloop
 endfacet
 facet normal  0.000000e+00 -7.071068e-01  7.071068e-01
   outer loop
     vertex  2.001000e-01  2.870000e-01  8.617991e-01
     vertex  2.002700e-01  2.797750e-01  8.545741e-01
     vertex  2.002700e-01  2.870000e-01  8.617991e-01
   endloop
 endfacet
 facet normal  0.000000e+00 -7.071068e-01  7.071068e-01
   outer loop
     vertex  2.001000e-01  2.870000e-01  8.617991e-01
     vertex  2.001000e-01  2.797750e-01  8.545741e-01
     vertex  2.002700e-01  2.797750e-01  8.545741e-01
   endloop
 endfacet
 facet normal  0.000000e+00  5.000000e-01  8.660254e-01
   outer loop
     vertex  2.003600e-01  2.932570e-01  8.581866e-01
     vertex  2.003600e-01  2.870000e-01  8.617991e-01
     vertex  2.019793e-01  2.870000e-01  8.617991e-01
   endloop
 endfacet
 facet normal  7.559625e-01  4.628826e-01  4.628826e-01
   outer loop
     vertex  2.003600e-01  2.932570e-01  8.581866e-01
     vertex  2.019793e-01  2.870000e-01  8.617991e-01
     vertex  2.019793e-01  2.942250e-01  8.545741e-01
   endloop
 endfacet
 facet normal  7.559625e-01  4.628826e-01 -4.628826e-01
   outer loop
     vertex  2.003600e-01  2.932570e-01  8.509616e-01
     vertex  2.019793e-01  2.942250e-01  8.545741e-01
     vertex  2.019793e-01  2.870000e-01  8.473491e-01
   endloop
 endfacet
 facet normal -5.130933e-01  8.583328e-01  0.000000e+00
   outer loop
     vertex  2.003600e-01  2.932570e-01  8.509616e-01
     vertex  2.003600e-01  2.932570e-01  8.581866e-01
     vertex  2.019793e-01  2.942250e-01  8.545741e-01
   endloop
 endfacet
 facet normal  6.080246e-11  5.000000e-01 -8.660254e-01
   outer loop
     vertex  2.003600e-01  2.870000e-01  8.473491e-01
     vertex  2.003600e-01  2.932570e-01  8.509616e-01
     vertex  2.019793e-01  2.870000e-01  8.473491e-01
   endloop
 endfacet
 facet normal  7.559625e-01 -4.628826e-01 -4.628826e-01
   outer loop
     vertex  2.003600e-01  2.807430e-01  8.509616e-01
     vertex  2.019793e-01  2.870000e-01  8.473491e-01
     vertex  2.019793e-01  2.797750e-01  8.545741e-01
   endloop
 endfacet
 facet normal  6.080240e-11 -5.000000e-01 -8.660254e-01
   outer loop
     vertex  2.003600e-01  2.807430e-01  8.509616e-01
     vertex  2.003600e-01  2.870000e-01  8.473491e-01
     vertex  2.019793e-01  2.870000e-01  8.473491e-01
   endloop
 endfacet
 facet normal  7.559625e-01 -4.628826e-01  4.628826e-01
   outer loop
     vertex  2.003600e-01  2.807430e-01  8.581866e-01
     vertex  2.019793e-01  2.797750e-01  8.545741e-01
     vertex  2.019793e-01  2.870000e-01  8.617991e-01
   endloop
 endfacet
 facet normal -5.130933e-01 -8.583328e-01 -0.000000e+00
   outer loop
     vertex  2.003600e-01  2.807430e-01  8.581866e-01
     vertex  2.003600e-01  2.807430e-01  8.509616e-01
     vertex  2.019793e-01  2.797750e-01  8.545741e-01
   endloop
 endfacet
 facet normal  0.000000e+00 -5.000000e-01  8.660254e-01
   outer loop
     vertex  2.003600e-01  2.870000e-01  8.617991e-01
     vertex  2.003600e-01  2.807430e-01  8.581866e-01
     vertex  2.019793e-01  2.870000e-01  8.617991e-01
   endloop
 endfacet
 facet normal -1.000000e+00  0.000000e+00  0.000000e+00
   outer loop
     vertex  2.002700e-01  2.870000e-01  8.617991e-01
     vertex  2.002700e-01  2.870000e-01  8.634866e-01
     vertex  2.002700e-01  2.959125e-01  8.545741e-01
   endloop
 endfacet
 facet normal -1.000000e+00  0.000000e+00  0.000000e+00
   outer loop
     vertex  2.002700e-01  2.870000e-01  8.617991e-01
     vertex  2.002700e-01  2.959125e-01  8.545741e-01
     vertex  2.002700e-01  2.942250e-01  8.545741e-01
   endloop
 endfacet
 facet normal -1.000000e+00  0.000000e+00  0.000000e+00
   outer loop
     vertex  2.002700e-01  2.870000e-01  8.456616e-01
     vertex  2.002700e-01  2.870000e-01  8.473491e-01
     vertex  2.002700e-01  2.942250e-01  8.545741e-01
   endloop
 endfacet
 facet normal -1.000000e+00  0.000000e+00  0.000000e+00
   outer loop
     vertex  2.002700e-01  2.870000e-01  8.456616e-01
     vertex  2.002700e-01  2.942250e-01  8.545741e-01
     vertex  2.002700e-01  2.959125e-01  8.545741e-01
   endloop
 endfacet
 facet normal -1.000000e+00  0.000000e+00  0.000000e+00
   outer loop
     vertex  2.002700e-01  2.780875e-01  8.545741e-01
     vertex  2.002700e-01  2.797750e-01  8.545741e-01
     vertex  2.002700e-01  2.870000e-01  8.473491e-01
   endloop
 endfacet
 facet normal -1.000000e+00  0.000000e+00  0.000000e+00
   outer loop
     vertex  2.002700e-01  2.780875e-01  8.545741e-01
     vertex  2.002700e-01  2.870000e-01  8.617991e-01
     vertex  2.002700e-01  2.797750e-01  8.545741e-01
   endloop
 endfacet
 facet normal -1.000000e+00  0.000000e+00  0.000000e+00
   outer loop
     vertex  2.002700e-01  2.780875e-01  8.545741e-01
     vertex  2.002700e-01  2.870000e-01  8.634866e-01
     vertex  2.002700e-01  2.870000e-01  8.617991e-01
   endloop
 endfacet
 facet normal -1.000000e+00  0.000000e+00  0.000000e+00
   outer loop
     vertex  2.002700e-01  2.780875e-01  8.545741e-01
     vertex  2.002700e-01  2.870000e-01  8.473491e-01
     vertex  2.002700e-01  2.870000e-01  8.456616e-01
   endloop
 endfacet
 facet normal -9.981091e-01  3.073379e-02 -5.323248e-02
   outer loop
     vertex  2.003150e-01  2.954492e-01  8.496959e-01
     vertex  2.003150e-01  2.870000e-01  8.448178e-01
     vertex  2.002700e-01  2.870000e-01  8.456616e-01
   endloop
 endfacet
 facet normal -9.998961e-01  1.019196e-02 -1.019196e-02
   outer loop
     vertex  2.002700e-01  2.959125e-01  8.545741e-01
     vertex  2.003150e-01  2.954492e-01  8.496959e-01
     vertex  2.002700e-01  2.870000e-01  8.456616e-01
   endloop
 endfacet
 facet normal  9.953169e-01  9.666615e-02  0.000000e+00
   outer loop
     vertex  2.003150e-01  2.954492e-01  8.594522e-01
     vertex  2.003150e-01  2.954492e-01  8.496959e-01
     vertex  2.002700e-01  2.959125e-01  8.545741e-01
   endloop
 endfacet
 facet normal -9.998961e-01  1.019196e-02  1.019196e-02
   outer loop
     vertex  2.002700e-01  2.870000e-01  8.634866e-01
     vertex  2.003150e-01  2.954492e-01  8.594522e-01
     vertex  2.002700e-01  2.959125e-01  8.545741e-01
   endloop
 endfacet
 facet normal -9.981091e-01  3.073379e-02  5.323248e-02
   outer loop
     vertex  2.003150e-01  2.870000e-01  8.643303e-01
     vertex  2.003150e-01  2.954492e-01  8.594522e-01
     vertex  2.002700e-01  2.870000e-01  8.634866e-01
   endloop
 endfacet
 facet normal -9.981091e-01 -3.073379e-02  5.323248e-02
   outer loop
     vertex  2.003150e-01  2.785508e-01  8.594522e-01
     vertex  2.003150e-01  2.870000e-01  8.643303e-01
     vertex  2.002700e-01  2.870000e-01  8.634866e-01
   endloop
 endfacet
 facet normal -9.998961e-01 -1.019196e-02  1.019196e-02
   outer loop
     vertex  2.002700e-01  2.780875e-01  8.545741e-01
     vertex  2.003150e-01  2.785508e-01  8.594522e-01
     vertex  2.002700e-01  2.870000e-01  8.634866e-01
   endloop
 endfacet
 facet normal  9.953169e-01 -9.666615e-02  0.000000e+00
   outer loop
     vertex  2.003150e-01  2.785508e-01  8.496959e-01
     vertex  2.003150e-01  2.785508e-01  8.594522e-01
     vertex  2.002700e-01  2.780875e-01  8.545741e-01
   endloop
 endfacet
 facet normal -9.998961e-01 -1.019196e-02 -1.019196e-02
   outer loop
     vertex  2.002700e-01  2.870000e-01  8.456616e-01
     vertex  2.003150e-01  2.785508e-01  8.496959e-01
     vertex  2.002700e-01  2.780875e-01  8.545741e-01
   endloop
 endfacet
 facet normal -9.981091e-01 -3.073379e-02 -5.323248e-02
   outer loop
     vertex  2.003150e-01  2.870000e-01  8.448178e-01
     vertex  2.003150e-01  2.785508e-01  8.496959e-01
     vertex  2.002700e-01  2.870000e-01  8.456616e-01
   endloop
 endfacet
 facet normal -9.981091e-01 -3.073379e-02 -5.323248e-02
   outer loop
     vertex  2.003150e-01  2.954492e-01  8.594522e-01
     vertex  2.003150e-01  2.870000e-01  8.643303e-01
     vertex  2.002700e-01  2.870000e-01  8.651741e-01
   endloop
 endfacet
 facet normal  9.997279e-01 -1.649543e-02 -1.649543e-02
   outer loop
     vertex  2.002700e-01  2.976000e-01  8.545741e-01
     vertex  2.003150e-01  2.954492e-01  8.594522e-01
     vertex  2.002700e-01  2.870000e-01  8.651741e-01
   endloop
 endfacet
 facet normal -9.997812e-01 -2.091748e-02  0.000000e+00
   outer loop
     vertex  2.003150e-01  2.954492e-01  8.496959e-01
     vertex  2.003150e-01  2.954492e-01  8.594522e-01
     vertex  2.002700e-01  2.976000e-01  8.545741e-01
   endloop
 endfacet
 facet normal -9.981091e-01 -3.073379e-02  5.323248e-02
   outer loop
     vertex  2.002700e-01  2.870000e-01  8.439741e-01
     vertex  2.003150e-01  2.870000e-01  8.448178e-01
     vertex  2.003150e-01  2.954492e-01  8.496959e-01
   endloop
 endfacet
 facet normal -9.981091e-01  3.073379e-02  5.323248e-02
   outer loop
     vertex  2.003150e-01  2.785508e-01  8.496959e-01
     vertex  2.003150e-01  2.870000e-01  8.448178e-01
     vertex  2.002700e-01  2.870000e-01  8.439741e-01
   endloop
 endfacet
 facet normal -9.997812e-01  2.091748e-02  0.000000e+00
   outer loop
     vertex  2.003150e-01  2.785508e-01  8.594522e-01
     vertex  2.003150e-01  2.785508e-01  8.496959e-01
     vertex  2.002700e-01  2.764000e-01  8.545741e-01
   endloop
 endfacet
 facet normal -9.981091e-01  3.073379e-02 -5.323248e-02
   outer loop
     vertex  2.002700e-01  2.870000e-01  8.651741e-01
     vertex  2.003150e-01  2.870000e-01  8.643303e-01
     vertex  2.003150e-01  2.785508e-01  8.594522e-01
   endloop
 endfacet
 facet normal  9.997279e-01  1.649543e-02 -1.649543e-02
   outer loop
     vertex  2.002700e-01  2.870000e-01  8.651741e-01
     vertex  2.003150e-01  2.785508e-01  8.594522e-01
     vertex  2.002700e-01  2.764000e-01  8.545741e-01
   endloop
 endfacet
 facet normal  9.997279e-01 -1.649543e-02  1.649543e-02
   outer loop
     vertex  2.002700e-01  2.870000e-01  8.439741e-01
     vertex  2.003150e-01  2.954492e-01  8.496959e-01
     vertex  2.002700e-01  2.976000e-01  8.545741e-01
   endloop
 endfacet
 facet normal  9.997279e-01  1.649543e-02  1.649543e-02
   outer loop
     vertex  2.002700e-01  2.764000e-01  8.545741e-01
     vertex  2.003150e-01  2.785508e-01  8.496959e-01
     vertex  2.002700e-01  2.870000e-01  8.439741e-01
   endloop
 endfacet
 facet normal  0.000000e+00  7.071068e-01  7.071068e-01
   outer loop
     vertex  2.002700e-01  2.976000e-01  8.545741e-01
     vertex  2.002700e-01  2.870000e-01  8.651741e-01
     vertex  2.003600e-01  2.870000e-01  8.651741e-01
   endloop
 endfacet
 facet normal -0.000000e+00  7.071068e-01  7.071068e-01
   outer loop
     vertex  2.002700e-01  2.976000e-01  8.545741e-01
     vertex  2.003600e-01  2.870000e-01  8.651741e-01
     vertex  2.003600e-01  2.976000e-01  8.545741e-01
   endloop
 endfacet
 facet normal  0.000000e+00  7.071068e-01 -7.071068e-01
   outer loop
     vertex  2.002700e-01  2.870000e-01  8.439741e-01
     vertex  2.003600e-01  2.976000e-01  8.545741e-01
     vertex  2.003600e-01  2.870000e-01  8.439741e-01
   endloop
 endfacet
 facet normal  0.000000e+00  7.071068e-01 -7.071068e-01
   outer loop
     vertex  2.002700e-01  2.870000e-01  8.439741e-01
     vertex  2.002700e-01  2.976000e-01  8.545741e-01
     vertex  2.003600e-01  2.976000e-01  8.545741e-01
   endloop
 endfacet
 facet normal  0.000000e+00 -7.071068e-01 -7.071068e-01
   outer loop
     vertex  2.002700e-01  2.764000e-01  8.545741e-01
     vertex  2.003600e-01  2.870000e-01  8.439741e-01
     vertex  2.003600e-01  2.764000e-01  8.545741e-01
   endloop
 endfacet
 facet normal  0.000000e+00 -7.071068e-01 -7.071068e-01
   outer loop
     vertex  2.002700e-01  2.764000e-01  8.545741e-01
     vertex  2.002700e-01  2.870000e-01  8.439741e-01
     vertex  2.003600e-01  2.870000e-01  8.439741e-01
   endloop
 endfacet
 facet normal  0.000000e+00 -7.071068e-01  7.071068e-01
   outer loop
     vertex  2.002700e-01  2.870000e-01  8.651741e-01
     vertex  2.003600e-01  2.764000e-01  8.545741e-01
     vertex  2.003600e-01  2.870000e-01  8.651741e-01
   endloop
 endfacet
 facet normal  0.000000e+00 -7.071068e-01  7.071068e-01
   outer loop
     vertex  2.002700e-01  2.870000e-01  8.651741e-01
     vertex  2.002700e-01  2.764000e-01  8.545741e-01
     vertex  2.003600e-01  2.764000e-01  8.545741e-01
   endloop
 endfacet
 facet normal  9.888128e-01  1.054734e-01  1.054734e-01
   outer loop
     vertex  2.003600e-01  2.976000e-01  8.545741e-01
     vertex  2.003600e-01  2.870000e-01  8.651741e-01
     vertex  2.004500e-01  2.870000e-01  8.643303e-01
   endloop
 endfacet
 facet normal  9.888128e-01  1.054734e-01  1.054734e-01
   outer loop
     vertex  2.003600e-01  2.976000e-01  8.545741e-01
     vertex  2.004500e-01  2.870000e-01  8.643303e-01
     vertex  2.004500e-01  2.967562e-01  8.545741e-01
   endloop
 endfacet
 facet normal  9.888128e-01  1.054734e-01 -1.054734e-01
   outer loop
     vertex  2.003600e-01  2.870000e-01  8.439741e-01
     vertex  2.004500e-01  2.967562e-01  8.545741e-01
     vertex  2.004500e-01  2.870000e-01  8.448178e-01
   endloop
 endfacet
 facet normal  9.888128e-01  1.054734e-01 -1.054734e-01
   outer loop
     vertex  2.003600e-01  2.870000e-01  8.439741e-01
     vertex  2.003600e-01  2.976000e-01  8.545741e-01
     vertex  2.004500e-01  2.967562e-01  8.545741e-01
   endloop
 endfacet
 facet normal  9.888128e-01 -1.054734e-01 -1.054734e-01
   outer loop
     vertex  2.003600e-01  2.764000e-01  8.545741e-01
     vertex  2.004500e-01  2.870000e-01  8.448178e-01
     vertex  2.004500e-01  2.772437e-01  8.545741e-01
   endloop
 endfacet
 facet normal  9.888128e-01 -1.054734e-01 -1.054734e-01
   outer loop
     vertex  2.003600e-01  2.764000e-01  8.545741e-01
     vertex  2.003600e-01  2.870000e-01  8.439741e-01
     vertex  2.004500e-01  2.870000e-01  8.448178e-01
   endloop
 endfacet
 facet normal  9.888128e-01 -1.054734e-01  1.054734e-01
   outer loop
     vertex  2.003600e-01  2.870000e-01  8.651741e-01
     vertex  2.004500e-01  2.772437e-01  8.545741e-01
     vertex  2.004500e-01  2.870000e-01  8.643303e-01
   endloop
 endfacet
 facet normal  9.888128e-01 -1.054734e-01  1.054734e-01
   outer loop
     vertex  2.003600e-01  2.870000e-01  8.651741e-01
     vertex  2.003600e-01  2.764000e-01  8.545741e-01
     vertex  2.004500e-01  2.772437e-01  8.545741e-01
   endloop
 endfacet
 facet normal  1.000000e+00 -0.000000e+00  0.000000e+00
   outer loop
     vertex  2.004500e-01  2.870000e-01  8.634866e-01
     vertex  2.004500e-01  2.967562e-01  8.545741e-01
     vertex  2.004500e-01  2.870000e-01  8.643303e-01
   endloop
 endfacet
 facet normal  1.000000e+00  0.000000e+00  0.000000e+00
   outer loop
     vertex  2.004500e-01  2.870000e-01  8.634866e-01
     vertex  2.004500e-01  2.959125e-01  8.545741e-01
     vertex  2.004500e-01  2.967562e-01  8.545741e-01
   endloop
 endfacet
 facet normal  1.000000e+00  0.000000e+00  0.000000e+00
   outer loop
     vertex  2.004500e-01  2.772437e-01  8.545741e-01
     vertex  2.004500e-01  2.780875e-01  8.545741e-01
     vertex  2.004500e-01  2.870000e-01  8.634866e-01
   endloop
 endfacet
 facet normal  1.000000e+00  0.000000e+00  0.000000e+00
   outer loop
     vertex  2.004500e-01  2.772437e-01  8.545741e-01
     vertex  2.004500e-01  2.870000e-01  8.634866e-01
     vertex  2.004500e-01  2.870000e-01  8.643303e-01
   endloop
 endfacet
 facet normal  1.000000e+00  0.000000e+00 -0.000000e+00
   outer loop
     vertex  2.004500e-01  2.870000e-01  8.448178e-01
     vertex  2.004500e-01  2.870000e-01  8.456616e-01
     vertex  2.004500e-01  2.780875e-01  8.545741e-01
   endloop
 endfacet
 facet normal  1.000000e+00  0.000000e+00  0.000000e+00
   outer loop
     vertex  2.004500e-01  2.870000e-01  8.448178e-01
     vertex  2.004500e-01  2.959125e-01  8.545741e-01
     vertex  2.004500e-01  2.870000e-01  8.456616e-01
   endloop
 endfacet
 facet normal  1.000000e+00  0.000000e+00  0.000000e+00
   outer loop
     vertex  2.004500e-01  2.870000e-01  8.448178e-01
     vertex  2.004500e-01  2.967562e-01  8.545741e-01
     vertex  2.004500e-01  2.959125e-01  8.545741e-01
   endloop
 endfacet
 facet normal  1.000000e+00  0.000000e+00  0.000000e+00
   outer loop
     vertex  2.004500e-01  2.870000e-01  8.448178e-01
     vertex  2.004500e-01  2.780875e-01  8.545741e-01
     vertex  2.004500e-01  2.772437e-01  8.545741e-01
   endloop
 endfacet
 facet normal  9.981091e-01 -3.073379e-02  5.323248e-02
   outer loop
     vertex  2.003600e-01  2.932570e-01  8.509616e-01
     vertex  2.003600e-01  2.870000e-01  8.473491e-01
     vertex  2.004500e-01  2.870000e-01  8.456616e-01
   endloop
 endfacet
 facet normal -9.912720e-01 -9.321980e-02  9.321980e-02
   outer loop
     vertex  2.004500e-01  2.959125e-01  8.545741e-01
     vertex  2.003600e-01  2.932570e-01  8.509616e-01
     vertex  2.004500e-01  2.870000e-01  8.456616e-01
   endloop
 endfacet
 facet normal  9.994261e-01 -3.387290e-02  0.000000e+00
   outer loop
     vertex  2.003600e-01  2.932570e-01  8.581866e-01
     vertex  2.003600e-01  2.932570e-01  8.509616e-01
     vertex  2.004500e-01  2.959125e-01  8.545741e-01
   endloop
 endfacet
 facet normal  9.981091e-01 -3.073379e-02 -5.323248e-02
   outer loop
     vertex  2.004500e-01  2.870000e-01  8.634866e-01
     vertex  2.003600e-01  2.870000e-01  8.617991e-01
     vertex  2.003600e-01  2.932570e-01  8.581866e-01
   endloop
 endfacet
 facet normal -9.912720e-01 -9.321980e-02 -9.321980e-02
   outer loop
     vertex  2.004500e-01  2.870000e-01  8.634866e-01
     vertex  2.003600e-01  2.932570e-01  8.581866e-01
     vertex  2.004500e-01  2.959125e-01  8.545741e-01
   endloop
 endfacet
 facet normal  9.981091e-01  3.073379e-02 -5.323248e-02
   outer loop
     vertex  2.003600e-01  2.807430e-01  8.581866e-01
     vertex  2.003600e-01  2.870000e-01  8.617991e-01
     vertex  2.004500e-01  2.870000e-01  8.634866e-01
   endloop
 endfacet
 facet normal -9.912720e-01  9.321980e-02 -9.321980e-02
   outer loop
     vertex  2.004500e-01  2.780875e-01  8.545741e-01
     vertex  2.003600e-01  2.807430e-01  8.581866e-01
     vertex  2.004500e-01  2.870000e-01  8.634866e-01
   endloop
 endfacet
 facet normal  9.994261e-01  3.387290e-02 -0.000000e+00
   outer loop
     vertex  2.003600e-01  2.807430e-01  8.509616e-01
     vertex  2.003600e-01  2.807430e-01  8.581866e-01
     vertex  2.004500e-01  2.780875e-01  8.545741e-01
   endloop
 endfacet
 facet normal  9.981091e-01  3.073379e-02  5.323248e-02
   outer loop
     vertex  2.004500e-01  2.870000e-01  8.456616e-01
     vertex  2.003600e-01  2.870000e-01  8.473491e-01
     vertex  2.003600e-01  2.807430e-01  8.509616e-01
   endloop
 endfacet
 facet normal -9.912720e-01  9.321980e-02  9.321980e-02
   outer loop
     vertex  2.004500e-01  2.870000e-01  8.456616e-01
     vertex  2.003600e-01  2.807430e-01  8.509616e-01
     vertex  2.004500e-01  2.780875e-01  8.545741e-01
   endloop
 endfacet
 facet normal  4.219000e-01  6.410930e-01  6.410930e-01
   outer loop
     vertex  2.029306e-01  2.935989e-01  8.545741e-01
     vertex  2.019793e-01  2.870000e-01  8.617991e-01
     vertex  2.029306e-01  2.870000e-01  8.611730e-01
   endloop
 endfacet
 facet normal  4.219000e-01  6.410930e-01  6.410930e-01
   outer loop
     vertex  2.029306e-01  2.935989e-01  8.545741e-01
     vertex  2.019793e-01  2.942250e-01  8.545741e-01
     vertex  2.019793e-01  2.870000e-01  8.617991e-01
   endloop
 endfacet
 facet normal -4.219000e-01  6.410930e-01  6.410930e-01
   outer loop
     vertex  2.040694e-01  2.935989e-01  8.545741e-01
     vertex  2.050207e-01  2.870000e-01  8.617991e-01
     vertex  2.050207e-01  2.942250e-01  8.545741e-01
   endloop
 endfacet
 facet normal  0.000000e+00  7.071068e-01  7.071068e-01
   outer loop
     vertex  2.040694e-01  2.935989e-01  8.545741e-01
     vertex  2.029306e-01  2.870000e-01  8.611730e-01
     vertex  2.040694e-01  2.870000e-01  8.611730e-01
   endloop
 endfacet
 facet normal -4.219000e-01  6.410930e-01  6.410930e-01
   outer loop
     vertex  2.040694e-01  2.935989e-01  8.545741e-01
     vertex  2.040694e-01  2.870000e-01  8.611730e-01
     vertex  2.050207e-01  2.870000e-01  8.617991e-01
   endloop
 endfacet
 facet normal  0.000000e+00  7.071068e-01  7.071068e-01
   outer loop
     vertex  2.040694e-01  2.935989e-01  8.545741e-01
     vertex  2.029306e-01  2.935989e-01  8.545741e-01
     vertex  2.029306e-01  2.870000e-01  8.611730e-01
   endloop
 endfacet
 facet normal  4.219000e-01  6.410930e-01 -6.410930e-01
   outer loop
     vertex  2.029306e-01  2.870000e-01  8.479751e-01
     vertex  2.019793e-01  2.870000e-01  8.473491e-01
     vertex  2.019793e-01  2.942250e-01  8.545741e-01
   endloop
 endfacet
 facet normal  4.219000e-01  6.410930e-01 -6.410930e-01
   outer loop
     vertex  2.029306e-01  2.870000e-01  8.479751e-01
     vertex  2.019793e-01  2.942250e-01  8.545741e-01
     vertex  2.029306e-01  2.935989e-01  8.545741e-01
   endloop
 endfacet
 facet normal -4.219000e-01  6.410930e-01 -6.410930e-01
   outer loop
     vertex  2.040694e-01  2.870000e-01  8.479751e-01
     vertex  2.050207e-01  2.942250e-01  8.545741e-01
     vertex  2.050207e-01  2.870000e-01  8.473491e-01
   endloop
 endfacet
 facet normal  0.000000e+00  7.071068e-01 -7.071068e-01
   outer loop
     vertex  2.040694e-01  2.870000e-01  8.479751e-01
     vertex  2.029306e-01  2.935989e-01  8.545741e-01
     vertex  2.040694e-01  2.935989e-01  8.545741e-01
   endloop
 endfacet
 facet normal  0.000000e+00  7.071068e-01 -7.071068e-01
   outer loop
     vertex  2.040694e-01  2.870000e-01  8.479751e-01
     vertex  2.029306e-01  2.870000e-01  8.479751e-01
     vertex  2.029306e-01  2.935989e-01  8.545741e-01
   endloop
 endfacet
 facet normal -4.219000e-01  6.410930e-01 -6.410930e-01
   outer loop
     vertex  2.040694e-01  2.870000e-01  8.479751e-01
     vertex  2.040694e-01  2.935989e-01  8.545741e-01
     vertex  2.050207e-01  2.942250e-01  8.545741e-01
   endloop
 endfacet
 facet normal  4.219000e-01 -6.410930e-01  6.410930e-01
   outer loop
     vertex  2.029306e-01  2.804011e-01  8.545741e-01
     vertex  2.029306e-01  2.870000e-01  8.611730e-01
     vertex  2.019793e-01  2.870000e-01  8.617991e-01
   endloop
 endfacet
 facet normal  4.219000e-01 -6.410930e-01  6.410930e-01
   outer loop
     vertex  2.029306e-01  2.804011e-01  8.545741e-01
     vertex  2.019793e-01  2.870000e-01  8.617991e-01
     vertex  2.019793e-01  2.797750e-01  8.545741e-01
   endloop
 endfacet
 facet normal  4.219000e-01 -6.410930e-01 -6.410930e-01
   outer loop
     vertex  2.029306e-01  2.804011e-01  8.545741e-01
     vertex  2.019793e-01  2.797750e-01  8.545741e-01
     vertex  2.019793e-01  2.870000e-01  8.473491e-01
   endloop
 endfacet
 facet normal  4.219000e-01 -6.410930e-01 -6.410930e-01
   outer loop
     vertex  2.029306e-01  2.804011e-01  8.545741e-01
     vertex  2.019793e-01  2.870000e-01  8.473491e-01
     vertex  2.029306e-01  2.870000e-01  8.479751e-01
   endloop
 endfacet
 facet normal  0.000000e+00 -7.071068e-01  7.071068e-01
   outer loop
     vertex  2.040694e-01  2.804011e-01  8.545741e-01
     vertex  2.040694e-01  2.870000e-01  8.611730e-01
     vertex  2.029306e-01  2.870000e-01  8.611730e-01
   endloop
 endfacet
 facet normal -4.219000e-01 -6.410930e-01  6.410930e-01
   outer loop
     vertex  2.040694e-01  2.804011e-01  8.545741e-01
     vertex  2.050207e-01  2.870000e-01  8.617991e-01
     vertex  2.040694e-01  2.870000e-01  8.611730e-01
   endloop
 endfacet
 facet normal -4.219000e-01 -6.410930e-01 -6.410930e-01
   outer loop
     vertex  2.040694e-01  2.804011e-01  8.545741e-01
     vertex  2.050207e-01  2.870000e-01  8.473491e-01
     vertex  2.050207e-01  2.797750e-01  8.545741e-01
   endloop
 endfacet
 facet normal -4.219000e-01 -6.410930e-01  6.410930e-01
   outer loop
     vertex  2.040694e-01  2.804011e-01  8.545741e-01
     vertex  2.050207e-01  2.797750e-01  8.545741e-01
     vertex  2.050207e-01  2.870000e-01  8.617991e-01
   endloop
 endfacet
 facet normal -0.000000e+00 -7.071068e-01 -7.071068e-01
   outer loop
     vertex  2.040694e-01  2.804011e-01  8.545741e-01
     vertex  2.029306e-01  2.804011e-01  8.545741e-01
     vertex  2.029306e-01  2.870000e-01  8.479751e-01
   endloop
 endfacet
 facet normal  0.000000e+00 -7.071068e-01  7.071068e-01
   outer loop
     vertex  2.040694e-01  2.804011e-01  8.545741e-01
     vertex  2.029306e-01  2.870000e-01  8.611730e-01
     vertex  2.029306e-01  2.804011e-01  8.545741e-01
   endloop
 endfacet
 facet normal -4.219000e-01 -6.410930e-01 -6.410930e-01
   outer loop
     vertex  2.040694e-01  2.804011e-01  8.545741e-01
     vertex  2.040694e-01  2.870000e-01  8.479751e-01
     vertex  2.050207e-01  2.870000e-01  8.473491e-01
   endloop
 endfacet
 facet normal  0.000000e+00 -7.071068e-01 -7.071068e-01
   outer loop
     vertex  2.040694e-01  2.804011e-01  8.545741e-01
     vertex  2.029306e-01  2.870000e-01  8.479751e-01
     vertex  2.040694e-01  2.870000e-01  8.479751e-01
   endloop
 endfacet
 facet normal  0.000000e+00  7.071068e-01  7.071068e-01
   outer loop
     vertex  2.067300e-01  2.942250e-01  8.545741e-01
     vertex  2.067300e-01  2.870000e-01  8.617991e-01
     vertex  2.069000e-01  2.870000e-01  8.617991e-01
   endloop
 endfacet
 facet normal -0.000000e+00  7.071068e-01  7.071068e-01
   outer loop
     vertex  2.067300e-01  2.942250e-01  8.545741e-01
     vertex  2.069000e-01  2.870000e-01  8.617991e-01
     vertex  2.069000e-01  2.942250e-01  8.545741e-01
   endloop
 endfacet
 facet normal  0.000000e+00  7.071068e-01 -7.071068e-01
   outer loop
     vertex  2.067300e-01  2.870000e-01  8.473491e-01
     vertex  2.069000e-01  2.942250e-01  8.545741e-01
     vertex  2.069000e-01  2.870000e-01  8.473491e-01
   endloop
 endfacet
 facet normal  0.000000e+00  7.071068e-01 -7.071068e-01
   outer loop
     vertex  2.067300e-01  2.870000e-01  8.473491e-01
     vertex  2.067300e-01  2.942250e-01  8.545741e-01
     vertex  2.069000e-01  2.942250e-01  8.545741e-01
   endloop
 endfacet
 facet normal  0.000000e+00 -7.071068e-01 -7.071068e-01
   outer loop
     vertex  2.067300e-01  2.797750e-01  8.545741e-01
     vertex  2.069000e-01  2.870000e-01  8.473491e-01
     vertex  2.069000e-01  2.797750e-01  8.545741e-01
   endloop
 endfacet
 facet normal  0.000000e+00 -7.071068e-01 -7.071068e-01
   outer loop
     vertex  2.067300e-01  2.797750e-01  8.545741e-01
     vertex  2.067300e-01  2.870000e-01  8.473491e-01
     vertex  2.069000e-01  2.870000e-01  8.473491e-01
   endloop
 endfacet
 facet normal  0.000000e+00 -7.071068e-01  7.071068e-01
   outer loop
     vertex  2.067300e-01  2.870000e-01  8.617991e-01
     vertex  2.069000e-01  2.797750e-01  8.545741e-01
     vertex  2.069000e-01  2.870000e-01  8.617991e-01
   endloop
 endfacet
 facet normal  0.000000e+00 -7.071068e-01  7.071068e-01
   outer loop
     vertex  2.067300e-01  2.870000e-01  8.617991e-01
     vertex  2.067300e-01  2.797750e-01  8.545741e-01
     vertex  2.069000e-01  2.797750e-01  8.545741e-01
   endloop
 endfacet
 facet normal  0.000000e+00  7.071068e-01  7.071068e-01
   outer loop
     vertex  2.050207e-01  2.942250e-01  8.545741e-01
     vertex  2.050207e-01  2.870000e-01  8.617991e-01
     vertex  2.066400e-01  2.870000e-01  8.617991e-01
   endloop
 endfacet
 facet normal -0.000000e+00  7.071068e-01  7.071068e-01
   outer loop
     vertex  2.050207e-01  2.942250e-01  8.545741e-01
     vertex  2.066400e-01  2.870000e-01  8.617991e-01
     vertex  2.066400e-01  2.942250e-01  8.545741e-01
   endloop
 endfacet
 facet normal  0.000000e+00  7.071068e-01 -7.071068e-01
   outer loop
     vertex  2.050207e-01  2.870000e-01  8.473491e-01
     vertex  2.066400e-01  2.942250e-01  8.545741e-01
     vertex  2.066400e-01  2.870000e-01  8.473491e-01
   endloop
 endfacet
 facet normal  0.000000e+00  7.071068e-01 -7.071068e-01
   outer loop
     vertex  2.050207e-01  2.870000e-01  8.473491e-01
     vertex  2.050207e-01  2.942250e-01  8.545741e-01
     vertex  2.066400e-01  2.942250e-01  8.545741e-01
   endloop
 endfacet
 facet normal  0.000000e+00 -7.071068e-01 -7.071068e-01
   outer loop
     vertex  2.050207e-01  2.797750e-01  8.545741e-01
     vertex  2.066400e-01  2.870000e-01  8.473491e-01
     vertex  2.066400e-01  2.797750e-01  8.545741e-01
   endloop
 endfacet
 facet normal  0.000000e+00 -7.071068e-01 -7.071068e-01
   outer loop
     vertex  2.050207e-01  2.797750e-01  8.545741e-01
     vertex  2.050207e-01  2.870000e-01  8.473491e-01
     vertex  2.066400e-01  2.870000e-01  8.473491e-01
   endloop
 endfacet
 facet normal  0.000000e+00 -7.071068e-01  7.071068e-01
   outer loop
     vertex  2.050207e-01  2.870000e-01  8.617991e-01
     vertex  2.066400e-01  2.797750e-01  8.545741e-01
     vertex  2.066400e-01  2.870000e-01  8.617991e-01
   endloop
 endfacet
 facet normal  0.000000e+00 -7.071068e-01  7.071068e-01
   outer loop
     vertex  2.050207e-01  2.870000e-01  8.617991e-01
     vertex  2.050207e-01  2.797750e-01  8.545741e-01
     vertex  2.066400e-01  2.797750e-01  8.545741e-01
   endloop
 endfacet
 facet normal  1.000000e+00 -0.000000e+00  0.000000e+00
   outer loop
     vertex  2.067300e-01  2.870000e-01  8.617991e-01
     vertex  2.067300e-01  2.959125e-01  8.545741e-01
     vertex  2.067300e-01  2.870000e-01  8.634866e-01
   endloop
 endfacet
 facet normal  1.000000e+00  0.000000e+00  0.000000e+00
   outer loop
     vertex  2.067300e-01  2.870000e-01  8.617991e-01
     vertex  2.067300e-01  2.942250e-01  8.545741e-01
     vertex  2.067300e-01  2.959125e-01  8.545741e-01
   endloop
 endfacet
 facet normal  1.000000e+00  0.000000e+00  0.000000e+00
   outer loop
     vertex  2.067300e-01  2.780875e-01  8.545741e-01
     vertex  2.067300e-01  2.797750e-01  8.545741e-01
     vertex  2.067300e-01  2.870000e-01  8.617991e-01
   endloop
 endfacet
 facet normal  1.000000e+00  0.000000e+00  0.000000e+00
   outer loop
     vertex  2.067300e-01  2.780875e-01  8.545741e-01
     vertex  2.067300e-01  2.870000e-01  8.617991e-01
     vertex  2.067300e-01  2.870000e-01  8.634866e-01
   endloop
 endfacet
 facet normal  1.000000e+00  0.000000e+00  0.000000e+00
   outer loop
     vertex  2.067300e-01  2.870000e-01  8.456616e-01
     vertex  2.067300e-01  2.942250e-01  8.545741e-01
     vertex  2.067300e-01  2.870000e-01  8.473491e-01
   endloop
 endfacet
 facet normal  1.000000e+00  0.000000e+00 -0.000000e+00
   outer loop
     vertex  2.067300e-01  2.870000e-01  8.456616e-01
     vertex  2.067300e-01  2.870000e-01  8.473491e-01
     vertex  2.067300e-01  2.797750e-01  8.545741e-01
   endloop
 endfacet
 facet normal  1.000000e+00  0.000000e+00  0.000000e+00
   outer loop
     vertex  2.067300e-01  2.870000e-01  8.456616e-01
     vertex  2.067300e-01  2.959125e-01  8.545741e-01
     vertex  2.067300e-01  2.942250e-01  8.545741e-01
   endloop
 endfacet
 facet normal  1.000000e+00  0.000000e+00  0.000000e+00
   outer loop
     vertex  2.067300e-01  2.870000e-01  8.456616e-01
     vertex  2.067300e-01  2.797750e-01  8.545741e-01
     vertex  2.067300e-01  2.780875e-01  8.545741e-01
   endloop
 endfacet
 facet normal  9.981091e-01  3.073379e-02  5.323248e-02
   outer loop
     vertex  2.066850e-01  2.954492e-01  8.594522e-01
     vertex  2.066850e-01  2.870000e-01  8.643303e-01
     vertex  2.067300e-01  2.870000e-01  8.634866e-01
   endloop
 endfacet
 facet normal  9.998961e-01  1.019196e-02  1.019196e-02
   outer loop
     vertex  2.067300e-01  2.959125e-01  8.545741e-01
     vertex  2.066850e-01  2.954492e-01  8.594522e-01
     vertex  2.067300e-01  2.870000e-01  8.634866e-01
   endloop
 endfacet
 facet normal -9.953169e-01  9.666615e-02  0.000000e+00
   outer loop
     vertex  2.066850e-01  2.954492e-01  8.496959e-01
     vertex  2.066850e-01  2.954492e-01  8.594522e-01
     vertex  2.067300e-01  2.959125e-01  8.545741e-01
   endloop
 endfacet
 facet normal  9.998961e-01  1.019196e-02 -1.019196e-02
   outer loop
     vertex  2.067300e-01  2.870000e-01  8.456616e-01
     vertex  2.066850e-01  2.954492e-01  8.496959e-01
     vertex  2.067300e-01  2.959125e-01  8.545741e-01
   endloop
 endfacet
 facet normal  9.981091e-01  3.073379e-02 -5.323248e-02
   outer loop
     vertex  2.066850e-01  2.870000e-01  8.448178e-01
     vertex  2.066850e-01  2.954492e-01  8.496959e-01
     vertex  2.067300e-01  2.870000e-01  8.456616e-01
   endloop
 endfacet
 facet normal  9.981091e-01 -3.073379e-02 -5.323248e-02
   outer loop
     vertex  2.066850e-01  2.785508e-01  8.496959e-01
     vertex  2.066850e-01  2.870000e-01  8.448178e-01
     vertex  2.067300e-01  2.870000e-01  8.456616e-01
   endloop
 endfacet
 facet normal  9.998961e-01 -1.019196e-02 -1.019196e-02
   outer loop
     vertex  2.067300e-01  2.780875e-01  8.545741e-01
     vertex  2.066850e-01  2.785508e-01  8.496959e-01
     vertex  2.067300e-01  2.870000e-01  8.456616e-01
   endloop
 endfacet
 facet normal -9.953169e-01 -9.666615e-02 -0.000000e+00
   outer loop
     vertex  2.066850e-01  2.785508e-01  8.594522e-01
     vertex  2.066850e-01  2.785508e-01  8.496959e-01
     vertex  2.067300e-01  2.780875e-01  8.545741e-01
   endloop
 endfacet
 facet normal  9.998961e-01 -1.019196e-02  1.019196e-02
   outer loop
     vertex  2.067300e-01  2.870000e-01  8.634866e-01
     vertex  2.066850e-01  2.785508e-01  8.594522e-01
     vertex  2.067300e-01  2.780875e-01  8.545741e-01
   endloop
 endfacet
 facet normal  9.981091e-01 -3.073379e-02  5.323248e-02
   outer loop
     vertex  2.066850e-01  2.870000e-01  8.643303e-01
     vertex  2.066850e-01  2.785508e-01  8.594522e-01
     vertex  2.067300e-01  2.870000e-01  8.634866e-01
   endloop
 endfacet
 facet normal  9.981091e-01 -3.073379e-02  5.323248e-02
   outer loop
     vertex  2.067300e-01  2.961799e-01  8.492741e-01
     vertex  2.066850e-01  2.870000e-01  8.448178e-01
     vertex  2.067300e-01  2.870000e-01  8.439741e-01
   endloop
 endfacet
 facet normal  9.981091e-01 -3.073379e-02  5.323248e-02
   outer loop
     vertex  2.067300e-01  2.961799e-01  8.492741e-01
     vertex  2.066850e-01  2.954492e-01  8.496959e-01
     vertex  2.066850e-01  2.870000e-01  8.448178e-01
   endloop
 endfacet
 facet normal  9.981091e-01 -6.146758e-02  0.000000e+00
   outer loop
     vertex  2.067300e-01  2.961799e-01  8.598741e-01
     vertex  2.066850e-01  2.954492e-01  8.594522e-01
     vertex  2.066850e-01  2.954492e-01  8.496959e-01
   endloop
 endfacet
 facet normal  9.981091e-01 -6.146758e-02  0.000000e+00
   outer loop
     vertex  2.067300e-01  2.961799e-01  8.598741e-01
     vertex  2.066850e-01  2.954492e-01  8.496959e-01
     vertex  2.067300e-01  2.961799e-01  8.492741e-01
   endloop
 endfacet
 facet normal  9.981091e-01 -3.073379e-02 -5.323248e-02
   outer loop
     vertex  2.067300e-01  2.870000e-01  8.651741e-01
     vertex  2.066850e-01  2.870000e-01  8.643303e-01
     vertex  2.066850e-01  2.954492e-01  8.594522e-01
   endloop
 endfacet
 facet normal  9.981091e-01 -3.073379e-02 -5.323248e-02
   outer loop
     vertex  2.067300e-01  2.870000e-01  8.651741e-01
     vertex  2.066850e-01  2.954492e-01  8.594522e-01
     vertex  2.067300e-01  2.961799e-01  8.598741e-01
   endloop
 endfacet
 facet normal  9.981091e-01  3.073379e-02 -5.323248e-02
   outer loop
     vertex  2.067300e-01  2.778201e-01  8.598741e-01
     vertex  2.066850e-01  2.785508e-01  8.594522e-01
     vertex  2.066850e-01  2.870000e-01  8.643303e-01
   endloop
 endfacet
 facet normal  9.981091e-01  3.073379e-02 -5.323248e-02
   outer loop
     vertex  2.067300e-01  2.778201e-01  8.598741e-01
     vertex  2.066850e-01  2.870000e-01  8.643303e-01
     vertex  2.067300e-01  2.870000e-01  8.651741e-01
   endloop
 endfacet
 facet normal  9.981091e-01  6.146758e-02  0.000000e+00
   outer loop
     vertex  2.067300e-01  2.778201e-01  8.492741e-01
     vertex  2.066850e-01  2.785508e-01  8.496959e-01
     vertex  2.066850e-01  2.785508e-01  8.594522e-01
   endloop
 endfacet
 facet normal  9.981091e-01  6.146758e-02 -0.000000e+00
   outer loop
     vertex  2.067300e-01  2.778201e-01  8.492741e-01
     vertex  2.066850e-01  2.785508e-01  8.594522e-01
     vertex  2.067300e-01  2.778201e-01  8.598741e-01
   endloop
 endfacet
 facet normal  9.981091e-01  3.073379e-02  5.323248e-02
   outer loop
     vertex  2.067300e-01  2.870000e-01  8.439741e-01
     vertex  2.066850e-01  2.870000e-01  8.448178e-01
     vertex  2.066850e-01  2.785508e-01  8.496959e-01
   endloop
 endfacet
 facet normal  9.981091e-01  3.073379e-02  5.323248e-02
   outer loop
     vertex  2.067300e-01  2.870000e-01  8.439741e-01
     vertex  2.066850e-01  2.785508e-01  8.496959e-01
     vertex  2.067300e-01  2.778201e-01  8.492741e-01
   endloop
 endfacet
 facet normal  0.000000e+00  5.000000e-01  8.660254e-01
   outer loop
     vertex  2.066400e-01  2.961799e-01  8.598741e-01
     vertex  2.066400e-01  2.870000e-01  8.651741e-01
     vertex  2.067300e-01  2.870000e-01  8.651741e-01
   endloop
 endfacet
 facet normal -0.000000e+00  5.000000e-01  8.660254e-01
   outer loop
     vertex  2.066400e-01  2.961799e-01  8.598741e-01
     vertex  2.067300e-01  2.870000e-01  8.651741e-01
     vertex  2.067300e-01  2.961799e-01  8.598741e-01
   endloop
 endfacet
 facet normal  0.000000e+00  1.000000e+00  0.000000e+00
   outer loop
     vertex  2.066400e-01  2.961799e-01  8.492741e-01
     vertex  2.067300e-01  2.961799e-01  8.598741e-01
     vertex  2.067300e-01  2.961799e-01  8.492741e-01
   endloop
 endfacet
 facet normal  0.000000e+00  1.000000e+00  0.000000e+00
   outer loop
     vertex  2.066400e-01  2.961799e-01  8.492741e-01
     vertex  2.066400e-01  2.961799e-01  8.598741e-01
     vertex  2.067300e-01  2.961799e-01  8.598741e-01
   endloop
 endfacet
 facet normal  0.000000e+00  5.000000e-01 -8.660254e-01
   outer loop
     vertex  2.066400e-01  2.870000e-01  8.439741e-01
     vertex  2.067300e-01  2.961799e-01  8.492741e-01
     vertex  2.067300e-01  2.870000e-01  8.439741e-01
   endloop
 endfacet
 facet normal  0.000000e+00  5.000000e-01 -8.660254e-01
   outer loop
     vertex  2.066400e-01  2.870000e-01  8.439741e-01
     vertex  2.066400e-01  2.961799e-01  8.492741e-01
     vertex  2.067300e-01  2.961799e-01  8.492741e-01
   endloop
 endfacet
 facet normal  0.000000e+00 -5.000000e-01 -8.660254e-01
   outer loop
     vertex  2.066400e-01  2.778201e-01  8.492741e-01
     vertex  2.067300e-01  2.870000e-01  8.439741e-01
     vertex  2.067300e-01  2.778201e-01  8.492741e-01
   endloop
 endfacet
 facet normal  0.000000e+00 -5.000000e-01 -8.660254e-01
   outer loop
     vertex  2.066400e-01  2.778201e-01  8.492741e-01
     vertex  2.066400e-01  2.870000e-01  8.439741e-01
     vertex  2.067300e-01  2.870000e-01  8.439741e-01
   endloop
 endfacet
 facet normal  0.000000e+00 -1.000000e+00  0.000000e+00
   outer loop
     vertex  2.066400e-01  2.778201e-01  8.598741e-01
     vertex  2.067300e-01  2.778201e-01  8.492741e-01
     vertex  2.067300e-01  2.778201e-01  8.598741e-01
   endloop
 endfacet
 facet normal  0.000000e+00 -1.000000e+00  0.000000e+00
   outer loop
     vertex  2.066400e-01  2.778201e-01  8.598741e-01
     vertex  2.066400e-01  2.778201e-01  8.492741e-01
     vertex  2.067300e-01  2.778201e-01  8.492741e-01
   endloop
 endfacet
 facet normal  0.000000e+00 -5.000000e-01  8.660254e-01
   outer loop
     vertex  2.066400e-01  2.870000e-01  8.651741e-01
     vertex  2.067300e-01  2.778201e-01  8.598741e-01
     vertex  2.067300e-01  2.870000e-01  8.651741e-01
   endloop
 endfacet
 facet normal  0.000000e+00 -5.000000e-01  8.660254e-01
   outer loop
     vertex  2.066400e-01  2.870000e-01  8.651741e-01
     vertex  2.066400e-01  2.778201e-01  8.598741e-01
     vertex  2.067300e-01  2.778201e-01  8.598741e-01
   endloop
 endfacet
 facet normal -9.925000e-01  6.112215e-02 -1.058667e-01
   outer loop
     vertex  2.066400e-01  2.961799e-01  8.492741e-01
     vertex  2.066400e-01  2.870000e-01  8.439741e-01
     vertex  2.065500e-01  2.870000e-01  8.448178e-01
   endloop
 endfacet
 facet normal -9.996372e-01  1.904627e-02 -1.904627e-02
   outer loop
     vertex  2.065500e-01  2.967562e-01  8.545741e-01
     vertex  2.066400e-01  2.961799e-01  8.492741e-01
     vertex  2.065500e-01  2.870000e-01  8.448178e-01
   endloop
 endfacet
 facet normal  9.880276e-01  1.542773e-01  0.000000e+00
   outer loop
     vertex  2.066400e-01  2.961799e-01  8.598741e-01
     vertex  2.066400e-01  2.961799e-01  8.492741e-01
     vertex  2.065500e-01  2.967562e-01  8.545741e-01
   endloop
 endfacet
 facet normal -9.996372e-01  1.904627e-02  1.904627e-02
   outer loop
     vertex  2.065500e-01  2.870000e-01  8.643303e-01
     vertex  2.066400e-01  2.961799e-01  8.598741e-01
     vertex  2.065500e-01  2.967562e-01  8.545741e-01
   endloop
 endfacet
 facet normal -9.925000e-01  6.112215e-02  1.058667e-01
   outer loop
     vertex  2.066400e-01  2.870000e-01  8.651741e-01
     vertex  2.066400e-01  2.961799e-01  8.598741e-01
     vertex  2.065500e-01  2.870000e-01  8.643303e-01
   endloop
 endfacet
 facet normal -9.925000e-01 -6.112215e-02  1.058667e-01
   outer loop
     vertex  2.066400e-01  2.778201e-01  8.598741e-01
     vertex  2.066400e-01  2.870000e-01  8.651741e-01
     vertex  2.065500e-01  2.870000e-01  8.643303e-01
   endloop
 endfacet
 facet normal -9.996372e-01 -1.904627e-02  1.904627e-02
   outer loop
     vertex  2.065500e-01  2.772437e-01  8.545741e-01
     vertex  2.066400e-01  2.778201e-01  8.598741e-01
     vertex  2.065500e-01  2.870000e-01  8.643303e-01
   endloop
 endfacet
 facet normal  9.880276e-01 -1.542773e-01  0.000000e+00
   outer loop
     vertex  2.066400e-01  2.778201e-01  8.492741e-01
     vertex  2.066400e-01  2.778201e-01  8.598741e-01
     vertex  2.065500e-01  2.772437e-01  8.545741e-01
   endloop
 endfacet
 facet normal -9.996372e-01 -1.904627e-02 -1.904627e-02
   outer loop
     vertex  2.065500e-01  2.870000e-01  8.448178e-01
     vertex  2.066400e-01  2.778201e-01  8.492741e-01
     vertex  2.065500e-01  2.772437e-01  8.545741e-01
   endloop
 endfacet
 facet normal -9.925000e-01 -6.112215e-02 -1.058667e-01
   outer loop
     vertex  2.066400e-01  2.870000e-01  8.439741e-01
     vertex  2.066400e-01  2.778201e-01  8.492741e-01
     vertex  2.065500e-01  2.870000e-01  8.448178e-01
   endloop
 endfacet
 facet normal -1.000000e+00  0.000000e+00  0.000000e+00
   outer loop
     vertex  2.065500e-01  2.959125e-01  8.545741e-01
     vertex  2.065500e-01  2.870000e-01  8.643303e-01
     vertex  2.065500e-01  2.967562e-01  8.545741e-01
   endloop
 endfacet
 facet normal -1.000000e+00  0.000000e+00  0.000000e+00
   outer loop
     vertex  2.065500e-01  2.959125e-01  8.545741e-01
     vertex  2.065500e-01  2.870000e-01  8.634866e-01
     vertex  2.065500e-01  2.870000e-01  8.643303e-01
   endloop
 endfacet
 facet normal -1.000000e+00  0.000000e+00  0.000000e+00
   outer loop
     vertex  2.065500e-01  2.772437e-01  8.545741e-01
     vertex  2.065500e-01  2.870000e-01  8.634866e-01
     vertex  2.065500e-01  2.780875e-01  8.545741e-01
   endloop
 endfacet
 facet normal -1.000000e+00  0.000000e+00  0.000000e+00
   outer loop
     vertex  2.065500e-01  2.772437e-01  8.545741e-01
     vertex  2.065500e-01  2.870000e-01  8.643303e-01
     vertex  2.065500e-01  2.870000e-01  8.634866e-01
   endloop
 endfacet
 facet normal -1.000000e+00  0.000000e+00  0.000000e+00
   outer loop
     vertex  2.065500e-01  2.870000e-01  8.448178e-01
     vertex  2.065500e-01  2.780875e-01  8.545741e-01
     vertex  2.065500e-01  2.870000e-01  8.456616e-01
   endloop
 endfacet
 facet normal -1.000000e+00  0.000000e+00  0.000000e+00
   outer loop
     vertex  2.065500e-01  2.870000e-01  8.448178e-01
     vertex  2.065500e-01  2.870000e-01  8.456616e-01
     vertex  2.065500e-01  2.959125e-01  8.545741e-01
   endloop
 endfacet
 facet normal -1.000000e+00  0.000000e+00  0.000000e+00
   outer loop
     vertex  2.065500e-01  2.870000e-01  8.448178e-01
     vertex  2.065500e-01  2.959125e-01  8.545741e-01
     vertex  2.065500e-01  2.967562e-01  8.545741e-01
   endloop
 endfacet
 facet normal -1.000000e+00  0.000000e+00  0.000000e+00
   outer loop
     vertex  2.065500e-01  2.870000e-01  8.448178e-01
     vertex  2.065500e-01  2.772437e-01  8.545741e-01
     vertex  2.065500e-01  2.780875e-01  8.545741e-01
   endloop
 endfacet
 facet normal -9.971676e-01 -5.318227e-02 -5.318227e-02
   outer loop
     vertex  2.065500e-01  2.959125e-01  8.545741e-01
     vertex  2.066400e-01  2.870000e-01  8.617991e-01
     vertex  2.065500e-01  2.870000e-01  8.634866e-01
   endloop
 endfacet
 facet normal -9.971676e-01 -5.318227e-02 -5.318227e-02
   outer loop
     vertex  2.065500e-01  2.959125e-01  8.545741e-01
     vertex  2.066400e-01  2.942250e-01  8.545741e-01
     vertex  2.066400e-01  2.870000e-01  8.617991e-01
   endloop
 endfacet
 facet normal -9.971676e-01 -5.318227e-02  5.318227e-02
   outer loop
     vertex  2.065500e-01  2.870000e-01  8.456616e-01
     vertex  2.066400e-01  2.870000e-01  8.473491e-01
     vertex  2.066400e-01  2.942250e-01  8.545741e-01
   endloop
 endfacet
 facet normal -9.971676e-01 -5.318227e-02  5.318227e-02
   outer loop
     vertex  2.065500e-01  2.870000e-01  8.456616e-01
     vertex  2.066400e-01  2.942250e-01  8.545741e-01
     vertex  2.065500e-01  2.959125e-01  8.545741e-01
   endloop
 endfacet
 facet normal -9.971676e-01  5.318227e-02  5.318227e-02
   outer loop
     vertex  2.065500e-01  2.780875e-01  8.545741e-01
     vertex  2.066400e-01  2.797750e-01  8.545741e-01
     vertex  2.066400e-01  2.870000e-01  8.473491e-01
   endloop
 endfacet
 facet normal -9.971676e-01  5.318227e-02  5.318227e-02
   outer loop
     vertex  2.065500e-01  2.780875e-01  8.545741e-01
     vertex  2.066400e-01  2.870000e-01  8.473491e-01
     vertex  2.065500e-01  2.870000e-01  8.456616e-01
   endloop
 endfacet
 facet normal -9.971676e-01  5.318227e-02 -5.318227e-02
   outer loop
     vertex  2.065500e-01  2.870000e-01  8.634866e-01
     vertex  2.066400e-01  2.870000e-01  8.617991e-01
     vertex  2.066400e-01  2.797750e-01  8.545741e-01
   endloop
 endfacet
 facet normal -9.971676e-01  5.318227e-02 -5.318227e-02
   outer loop
     vertex  2.065500e-01  2.870000e-01  8.634866e-01
     vertex  2.066400e-01  2.797750e-01  8.545741e-01
     vertex  2.065500e-01  2.780875e-01  8.545741e-01
   endloop
 endfacet
 facet normal  9.351131e-01  2.505628e-01  2.505628e-01
   outer loop
     vertex  2.069866e-01  2.941750e-01  8.545741e-01
     vertex  2.069866e-01  2.870000e-01  8.617491e-01
     vertex  2.070000e-01  2.870000e-01  8.616991e-01
   endloop
 endfacet
 facet normal  9.351131e-01  2.505628e-01  2.505628e-01
   outer loop
     vertex  2.069866e-01  2.941750e-01  8.545741e-01
     vertex  2.070000e-01  2.870000e-01  8.616991e-01
     vertex  2.070000e-01  2.941250e-01  8.545741e-01
   endloop
 endfacet
 facet normal  1.861568e-01  6.947466e-01  6.947466e-01
   outer loop
     vertex  2.069500e-01  2.942116e-01  8.545741e-01
     vertex  2.069000e-01  2.942250e-01  8.545741e-01
     vertex  2.069000e-01  2.870000e-01  8.617991e-01
   endloop
 endfacet
 facet normal  1.861568e-01  6.947466e-01  6.947466e-01
   outer loop
     vertex  2.069500e-01  2.942116e-01  8.545741e-01
     vertex  2.069000e-01  2.870000e-01  8.617991e-01
     vertex  2.069500e-01  2.870000e-01  8.617857e-01
   endloop
 endfacet
 facet normal  5.773503e-01  5.773503e-01  5.773503e-01
   outer loop
     vertex  2.069500e-01  2.942116e-01  8.545741e-01
     vertex  2.069500e-01  2.870000e-01  8.617857e-01
     vertex  2.069866e-01  2.870000e-01  8.617491e-01
   endloop
 endfacet
 facet normal  5.773503e-01  5.773503e-01  5.773503e-01
   outer loop
     vertex  2.069500e-01  2.942116e-01  8.545741e-01
     vertex  2.069866e-01  2.870000e-01  8.617491e-01
     vertex  2.069866e-01  2.941750e-01  8.545741e-01
   endloop
 endfacet
 facet normal  9.351131e-01  2.505628e-01 -2.505628e-01
   outer loop
     vertex  2.069866e-01  2.870000e-01  8.473991e-01
     vertex  2.070000e-01  2.941250e-01  8.545741e-01
     vertex  2.070000e-01  2.870000e-01  8.474491e-01
   endloop
 endfacet
 facet normal  9.351131e-01  2.505628e-01 -2.505628e-01
   outer loop
     vertex  2.069866e-01  2.870000e-01  8.473991e-01
     vertex  2.069866e-01  2.941750e-01  8.545741e-01
     vertex  2.070000e-01  2.941250e-01  8.545741e-01
   endloop
 endfacet
 facet normal  1.861568e-01  6.947466e-01 -6.947466e-01
   outer loop
     vertex  2.069500e-01  2.870000e-01  8.473625e-01
     vertex  2.069000e-01  2.870000e-01  8.473491e-01
     vertex  2.069000e-01  2.942250e-01  8.545741e-01
   endloop
 endfacet
 facet normal  5.773503e-01  5.773503e-01 -5.773503e-01
   outer loop
     vertex  2.069500e-01  2.870000e-01  8.473625e-01
     vertex  2.069500e-01  2.942116e-01  8.545741e-01
     vertex  2.069866e-01  2.941750e-01  8.545741e-01
   endloop
 endfacet
 facet normal  5.773503e-01  5.773503e-01 -5.773503e-01
   outer loop
     vertex  2.069500e-01  2.870000e-01  8.473625e-01
     vertex  2.069866e-01  2.941750e-01  8.545741e-01
     vertex  2.069866e-01  2.870000e-01  8.473991e-01
   endloop
 endfacet
 facet normal  1.861568e-01  6.947466e-01 -6.947466e-01
   outer loop
     vertex  2.069500e-01  2.870000e-01  8.473625e-01
     vertex  2.069000e-01  2.942250e-01  8.545741e-01
     vertex  2.069500e-01  2.942116e-01  8.545741e-01
   endloop
 endfacet
 facet normal  9.351131e-01 -2.505628e-01  2.505628e-01
   outer loop
     vertex  2.069866e-01  2.798250e-01  8.545741e-01
     vertex  2.070000e-01  2.798750e-01  8.545741e-01
     vertex  2.070000e-01  2.870000e-01  8.616991e-01
   endloop
 endfacet
 facet normal  9.351131e-01 -2.505628e-01 -2.505628e-01
   outer loop
     vertex  2.069866e-01  2.798250e-01  8.545741e-01
     vertex  2.070000e-01  2.870000e-01  8.474491e-01
     vertex  2.070000e-01  2.798750e-01  8.545741e-01
   endloop
 endfacet
 facet normal  9.351131e-01 -2.505628e-01  2.505628e-01
   outer loop
     vertex  2.069866e-01  2.798250e-01  8.545741e-01
     vertex  2.070000e-01  2.870000e-01  8.616991e-01
     vertex  2.069866e-01  2.870000e-01  8.617491e-01
   endloop
 endfacet
 facet normal  9.351131e-01 -2.505628e-01 -2.505628e-01
   outer loop
     vertex  2.069866e-01  2.798250e-01  8.545741e-01
     vertex  2.069866e-01  2.870000e-01  8.473991e-01
     vertex  2.070000e-01  2.870000e-01  8.474491e-01
   endloop
 endfacet
 facet normal  1.861568e-01 -6.947466e-01  6.947466e-01
   outer loop
     vertex  2.069500e-01  2.797884e-01  8.545741e-01
     vertex  2.069000e-01  2.870000e-01  8.617991e-01
     vertex  2.069000e-01  2.797750e-01  8.545741e-01
   endloop
 endfacet
 facet normal  1.861568e-01 -6.947466e-01 -6.947466e-01
   outer loop
     vertex  2.069500e-01  2.797884e-01  8.545741e-01
     vertex  2.069000e-01  2.797750e-01  8.545741e-01
     vertex  2.069000e-01  2.870000e-01  8.473491e-01
   endloop
 endfacet
 facet normal  1.861568e-01 -6.947466e-01  6.947466e-01
   outer loop
     vertex  2.069500e-01  2.797884e-01  8.545741e-01
     vertex  2.069500e-01  2.870000e-01  8.617857e-01
     vertex  2.069000e-01  2.870000e-01  8.617991e-01
   endloop
 endfacet
 facet normal  5.773503e-01 -5.773503e-01  5.773503e-01
   outer loop
     vertex  2.069500e-01  2.797884e-01  8.545741e-01
     vertex  2.069866e-01  2.870000e-01  8.617491e-01
     vertex  2.069500e-01  2.870000e-01  8.617857e-01
   endloop
 endfacet
 facet normal  1.861568e-01 -6.947466e-01 -6.947466e-01
   outer loop
     vertex  2.069500e-01  2.797884e-01  8.545741e-01
     vertex  2.069000e-01  2.870000e-01  8.473491e-01
     vertex  2.069500e-01  2.870000e-01  8.473625e-01
   endloop
 endfacet
 facet normal  5.773503e-01 -5.773503e-01 -5.773503e-01
   outer loop
     vertex  2.069500e-01  2.797884e-01  8.545741e-01
     vertex  2.069866e-01  2.870000e-01  8.473991e-01
     vertex  2.069866e-01  2.798250e-01  8.545741e-01
   endloop
 endfacet
 facet normal  5.773503e-01 -5.773503e-01  5.773503e-01
   outer loop
     vertex  2.069500e-01  2.797884e-01  8.545741e-01
     vertex  2.069866e-01  2.798250e-01  8.545741e-01
     vertex  2.069866e-01  2.870000e-01  8.617491e-01
   endloop
 endfacet
 facet normal  5.773503e-01 -5.773503e-01 -5.773503e-01
   outer loop
     vertex  2.069500e-01  2.797884e-01  8.545741e-01
     vertex  2.069500e-01  2.870000e-01  8.473625e-01
     vertex  2.069866e-01  2.870000e-01  8.473991e-01
   endloop
 endfacet
endsolid
