solid 
 facet normal  1.000000e+00 -1.508284e-11  1.701458e-11
   outer loop
     vertex  1.862393e-01 -1.274017e-01  5.033934e-01
     vertex  1.862393e-01 -1.255309e-01  5.050517e-01
     vertex  1.862393e-01 -1.272955e-01  5.051579e-01
   endloop
 endfacet
 facet normal  1.000000e+00  0.000000e+00 -0.000000e+00
   outer loop
     vertex  1.862393e-01 -1.256371e-01  5.032872e-01
     vertex  1.862393e-01 -1.255309e-01  5.050517e-01
     vertex  1.862393e-01 -1.274017e-01  5.033934e-01
   endloop
 endfacet
 facet normal  0.000000e+00  6.007510e-02  9.981939e-01
   outer loop
     vertex  1.799878e-01 -1.255309e-01  5.050517e-01
     vertex  1.799878e-01 -1.272955e-01  5.051579e-01
     vertex  1.862393e-01 -1.272955e-01  5.051579e-01
   endloop
 endfacet
 facet normal -0.000000e+00  6.007510e-02  9.981939e-01
   outer loop
     vertex  1.799878e-01 -1.255309e-01  5.050517e-01
     vertex  1.862393e-01 -1.272955e-01  5.051579e-01
     vertex  1.862393e-01 -1.255309e-01  5.050517e-01
   endloop
 endfacet
 facet normal  0.000000e+00  9.981939e-01 -6.007510e-02
   outer loop
     vertex  1.799878e-01 -1.256371e-01  5.032872e-01
     vertex  1.862393e-01 -1.255309e-01  5.050517e-01
     vertex  1.862393e-01 -1.256371e-01  5.032872e-01
   endloop
 endfacet
 facet normal  0.000000e+00  9.981939e-01 -6.007510e-02
   outer loop
     vertex  1.799878e-01 -1.256371e-01  5.032872e-01
     vertex  1.799878e-01 -1.255309e-01  5.050517e-01
     vertex  1.862393e-01 -1.255309e-01  5.050517e-01
   endloop
 endfacet
 facet normal  0.000000e+00 -6.007510e-02 -9.981939e-01
   outer loop
     vertex  1.799878e-01 -1.274017e-01  5.033934e-01
     vertex  1.862393e-01 -1.256371e-01  5.032872e-01
     vertex  1.862393e-01 -1.274017e-01  5.033934e-01
   endloop
 endfacet
 facet normal  0.000000e+00 -6.007510e-02 -9.981939e-01
   outer loop
     vertex  1.799878e-01 -1.274017e-01  5.033934e-01
     vertex  1.799878e-01 -1.256371e-01  5.032872e-01
     vertex  1.862393e-01 -1.256371e-01  5.032872e-01
   endloop
 endfacet
 facet normal  0.000000e+00 -9.981939e-01  6.007510e-02
   outer loop
     vertex  1.799878e-01 -1.272955e-01  5.051579e-01
     vertex  1.862393e-01 -1.274017e-01  5.033934e-01
     vertex  1.862393e-01 -1.272955e-01  5.051579e-01
   endloop
 endfacet
 facet normal  0.000000e+00 -9.981939e-01  6.007510e-02
   outer loop
     vertex  1.799878e-01 -1.272955e-01  5.051579e-01
     vertex  1.799878e-01 -1.274017e-01  5.033934e-01
     vertex  1.862393e-01 -1.274017e-01  5.033934e-01
   endloop
 endfacet
 facet normal  4.769051e-01  5.280329e-02  8.773673e-01
   outer loop
     vertex  1.796878e-01 -1.254708e-01  5.051051e-01
     vertex  1.795635e-01 -1.274121e-01  5.052894e-01
     vertex  1.796878e-01 -1.273488e-01  5.052181e-01
   endloop
 endfacet
 facet normal  4.769051e-01  5.280329e-02  8.773673e-01
   outer loop
     vertex  1.796878e-01 -1.254708e-01  5.051051e-01
     vertex  1.795635e-01 -1.253994e-01  5.051683e-01
     vertex  1.795635e-01 -1.274121e-01  5.052894e-01
   endloop
 endfacet
 facet normal  9.269160e-02  5.981646e-02  9.938965e-01
   outer loop
     vertex  1.798325e-01 -1.255156e-01  5.050653e-01
     vertex  1.799878e-01 -1.272955e-01  5.051579e-01
     vertex  1.799878e-01 -1.255309e-01  5.050517e-01
   endloop
 endfacet
 facet normal  2.810846e-01  5.765305e-02  9.579497e-01
   outer loop
     vertex  1.798325e-01 -1.255156e-01  5.050653e-01
     vertex  1.796878e-01 -1.273488e-01  5.052181e-01
     vertex  1.798325e-01 -1.273091e-01  5.051732e-01
   endloop
 endfacet
 facet normal  9.269160e-02  5.981646e-02  9.938965e-01
   outer loop
     vertex  1.798325e-01 -1.255156e-01  5.050653e-01
     vertex  1.798325e-01 -1.273091e-01  5.051732e-01
     vertex  1.799878e-01 -1.272955e-01  5.051579e-01
   endloop
 endfacet
 facet normal  2.810846e-01  5.765305e-02  9.579497e-01
   outer loop
     vertex  1.798325e-01 -1.255156e-01  5.050653e-01
     vertex  1.796878e-01 -1.254708e-01  5.051051e-01
     vertex  1.796878e-01 -1.273488e-01  5.052181e-01
   endloop
 endfacet
 facet normal  4.769051e-01  8.773673e-01 -5.280329e-02
   outer loop
     vertex  1.796878e-01 -1.255838e-01  5.032270e-01
     vertex  1.795635e-01 -1.255206e-01  5.031556e-01
     vertex  1.795635e-01 -1.253994e-01  5.051683e-01
   endloop
 endfacet
 facet normal  4.769051e-01  8.773673e-01 -5.280329e-02
   outer loop
     vertex  1.796878e-01 -1.255838e-01  5.032270e-01
     vertex  1.795635e-01 -1.253994e-01  5.051683e-01
     vertex  1.796878e-01 -1.254708e-01  5.051051e-01
   endloop
 endfacet
 facet normal  9.269160e-02  9.938965e-01 -5.981646e-02
   outer loop
     vertex  1.798325e-01 -1.256236e-01  5.032719e-01
     vertex  1.799878e-01 -1.255309e-01  5.050517e-01
     vertex  1.799878e-01 -1.256371e-01  5.032872e-01
   endloop
 endfacet
 facet normal  2.810846e-01  9.579497e-01 -5.765305e-02
   outer loop
     vertex  1.798325e-01 -1.256236e-01  5.032719e-01
     vertex  1.796878e-01 -1.254708e-01  5.051051e-01
     vertex  1.798325e-01 -1.255156e-01  5.050653e-01
   endloop
 endfacet
 facet normal  2.810846e-01  9.579497e-01 -5.765305e-02
   outer loop
     vertex  1.798325e-01 -1.256236e-01  5.032719e-01
     vertex  1.796878e-01 -1.255838e-01  5.032270e-01
     vertex  1.796878e-01 -1.254708e-01  5.051051e-01
   endloop
 endfacet
 facet normal  9.269160e-02  9.938965e-01 -5.981646e-02
   outer loop
     vertex  1.798325e-01 -1.256236e-01  5.032719e-01
     vertex  1.798325e-01 -1.255156e-01  5.050653e-01
     vertex  1.799878e-01 -1.255309e-01  5.050517e-01
   endloop
 endfacet
 facet normal  4.769051e-01 -8.773673e-01  5.280329e-02
   outer loop
     vertex  1.796878e-01 -1.274619e-01  5.033400e-01
     vertex  1.796878e-01 -1.273488e-01  5.052181e-01
     vertex  1.795635e-01 -1.274121e-01  5.052894e-01
   endloop
 endfacet
 facet normal  4.769051e-01 -8.773673e-01  5.280329e-02
   outer loop
     vertex  1.796878e-01 -1.274619e-01  5.033400e-01
     vertex  1.795635e-01 -1.274121e-01  5.052894e-01
     vertex  1.795635e-01 -1.275332e-01  5.032768e-01
   endloop
 endfacet
 facet normal  4.769051e-01 -5.280329e-02 -8.773673e-01
   outer loop
     vertex  1.796878e-01 -1.274619e-01  5.033400e-01
     vertex  1.795635e-01 -1.275332e-01  5.032768e-01
     vertex  1.795635e-01 -1.255206e-01  5.031556e-01
   endloop
 endfacet
 facet normal  4.769051e-01 -5.280329e-02 -8.773673e-01
   outer loop
     vertex  1.796878e-01 -1.274619e-01  5.033400e-01
     vertex  1.795635e-01 -1.255206e-01  5.031556e-01
     vertex  1.796878e-01 -1.255838e-01  5.032270e-01
   endloop
 endfacet
 facet normal  2.810846e-01 -9.579497e-01  5.765305e-02
   outer loop
     vertex  1.798325e-01 -1.274170e-01  5.033798e-01
     vertex  1.798325e-01 -1.273091e-01  5.051732e-01
     vertex  1.796878e-01 -1.273488e-01  5.052181e-01
   endloop
 endfacet
 facet normal  9.269160e-02 -9.938965e-01  5.981646e-02
   outer loop
     vertex  1.798325e-01 -1.274170e-01  5.033798e-01
     vertex  1.799878e-01 -1.272955e-01  5.051579e-01
     vertex  1.798325e-01 -1.273091e-01  5.051732e-01
   endloop
 endfacet
 facet normal  9.269160e-02 -5.981646e-02 -9.938965e-01
   outer loop
     vertex  1.798325e-01 -1.274170e-01  5.033798e-01
     vertex  1.799878e-01 -1.256371e-01  5.032872e-01
     vertex  1.799878e-01 -1.274017e-01  5.033934e-01
   endloop
 endfacet
 facet normal  9.269160e-02 -9.938965e-01  5.981646e-02
   outer loop
     vertex  1.798325e-01 -1.274170e-01  5.033798e-01
     vertex  1.799878e-01 -1.274017e-01  5.033934e-01
     vertex  1.799878e-01 -1.272955e-01  5.051579e-01
   endloop
 endfacet
 facet normal  2.810846e-01 -5.765305e-02 -9.579497e-01
   outer loop
     vertex  1.798325e-01 -1.274170e-01  5.033798e-01
     vertex  1.796878e-01 -1.274619e-01  5.033400e-01
     vertex  1.796878e-01 -1.255838e-01  5.032270e-01
   endloop
 endfacet
 facet normal  2.810846e-01 -9.579497e-01  5.765305e-02
   outer loop
     vertex  1.798325e-01 -1.274170e-01  5.033798e-01
     vertex  1.796878e-01 -1.273488e-01  5.052181e-01
     vertex  1.796878e-01 -1.274619e-01  5.033400e-01
   endloop
 endfacet
 facet normal  9.269160e-02 -5.981646e-02 -9.938965e-01
   outer loop
     vertex  1.798325e-01 -1.274170e-01  5.033798e-01
     vertex  1.798325e-01 -1.256236e-01  5.032719e-01
     vertex  1.799878e-01 -1.256371e-01  5.032872e-01
   endloop
 endfacet
 facet normal  2.810846e-01 -5.765305e-02 -9.579497e-01
   outer loop
     vertex  1.798325e-01 -1.274170e-01  5.033798e-01
     vertex  1.796878e-01 -1.255838e-01  5.032270e-01
     vertex  1.798325e-01 -1.256236e-01  5.032719e-01
   endloop
 endfacet
 facet normal  7.070105e-01 -4.566492e-01  5.400070e-01
   outer loop
     vertex  1.788393e-01 -1.278159e-01  5.058962e-01
     vertex  1.788393e-01 -1.278925e-01  5.058314e-01
     vertex  1.795635e-01 -1.274121e-01  5.052894e-01
   endloop
 endfacet
 facet normal  7.085211e-01 -4.300402e-01  5.595206e-01
   outer loop
     vertex  1.788393e-01 -1.277364e-01  5.059573e-01
     vertex  1.788393e-01 -1.278159e-01  5.058962e-01
     vertex  1.795635e-01 -1.274121e-01  5.052894e-01
   endloop
 endfacet
 facet normal  7.115101e-01 -4.017491e-01  5.764990e-01
   outer loop
     vertex  1.788393e-01 -1.276541e-01  5.060147e-01
     vertex  1.788393e-01 -1.277364e-01  5.059573e-01
     vertex  1.795635e-01 -1.274121e-01  5.052894e-01
   endloop
 endfacet
 facet normal  6.376018e-01 -8.942911e-02  7.651577e-01
   outer loop
     vertex  1.786393e-01 -1.256284e-01  5.064181e-01
     vertex  1.786393e-01 -1.277880e-01  5.061657e-01
     vertex  1.788393e-01 -1.276541e-01  5.060147e-01
   endloop
 endfacet
 facet normal  8.003303e-01  3.601858e-02  5.984764e-01
   outer loop
     vertex  1.786393e-01 -1.256284e-01  5.064181e-01
     vertex  1.795635e-01 -1.274121e-01  5.052894e-01
     vertex  1.795635e-01 -1.253994e-01  5.051683e-01
   endloop
 endfacet
 facet normal  7.171219e-01 -6.734434e-02  6.936864e-01
   outer loop
     vertex  1.786393e-01 -1.256284e-01  5.064181e-01
     vertex  1.788393e-01 -1.276541e-01  5.060147e-01
     vertex  1.795635e-01 -1.274121e-01  5.052894e-01
   endloop
 endfacet
 facet normal  5.797805e-01  6.097019e-01  5.404796e-01
   outer loop
     vertex  1.786393e-01 -1.241861e-01  5.047911e-01
     vertex  1.786393e-01 -1.256284e-01  5.064181e-01
     vertex  1.795635e-01 -1.253994e-01  5.051683e-01
   endloop
 endfacet
 facet normal  8.003303e-01  5.984764e-01 -3.601858e-02
   outer loop
     vertex  1.795635e-01 -1.255206e-01  5.031556e-01
     vertex  1.786393e-01 -1.241861e-01  5.047911e-01
     vertex  1.795635e-01 -1.253994e-01  5.051683e-01
   endloop
 endfacet
 facet normal  7.171219e-01  6.806026e-01 -1.500543e-01
   outer loop
     vertex  1.788393e-01 -1.248296e-01  5.028284e-01
     vertex  1.786393e-01 -1.241861e-01  5.047911e-01
     vertex  1.795635e-01 -1.255206e-01  5.031556e-01
   endloop
 endfacet
 facet normal  7.089856e-01  5.149538e-01 -4.818319e-01
   outer loop
     vertex  1.788393e-01 -1.249666e-01  5.026820e-01
     vertex  1.788393e-01 -1.248296e-01  5.028284e-01
     vertex  1.795635e-01 -1.255206e-01  5.031556e-01
   endloop
 endfacet
 facet normal  6.376018e-01  7.489093e-01 -1.805514e-01
   outer loop
     vertex  1.786393e-01 -1.246957e-01  5.026774e-01
     vertex  1.786393e-01 -1.241861e-01  5.047911e-01
     vertex  1.788393e-01 -1.248296e-01  5.028284e-01
   endloop
 endfacet
 facet normal  7.059615e-01  4.698179e-01 -5.299901e-01
   outer loop
     vertex  1.788393e-01 -1.251167e-01  5.025489e-01
     vertex  1.788393e-01 -1.249666e-01  5.026820e-01
     vertex  1.795635e-01 -1.255206e-01  5.031556e-01
   endloop
 endfacet
 facet normal  7.089856e-01  4.165940e-01 -5.690245e-01
   outer loop
     vertex  1.788393e-01 -1.252786e-01  5.024304e-01
     vertex  1.788393e-01 -1.251167e-01  5.025489e-01
     vertex  1.795635e-01 -1.255206e-01  5.031556e-01
   endloop
 endfacet
 facet normal  8.003303e-01 -3.601858e-02 -5.984764e-01
   outer loop
     vertex  1.786393e-01 -1.273042e-01  5.020270e-01
     vertex  1.795635e-01 -1.255206e-01  5.031556e-01
     vertex  1.795635e-01 -1.275332e-01  5.032768e-01
   endloop
 endfacet
 facet normal  6.376018e-01  8.942911e-02 -7.651577e-01
   outer loop
     vertex  1.786393e-01 -1.273042e-01  5.020270e-01
     vertex  1.786393e-01 -1.251447e-01  5.022794e-01
     vertex  1.788393e-01 -1.252786e-01  5.024304e-01
   endloop
 endfacet
 facet normal  7.171219e-01  6.734434e-02 -6.936864e-01
   outer loop
     vertex  1.786393e-01 -1.273042e-01  5.020270e-01
     vertex  1.788393e-01 -1.252786e-01  5.024304e-01
     vertex  1.795635e-01 -1.255206e-01  5.031556e-01
   endloop
 endfacet
 facet normal  5.797805e-01 -6.097019e-01 -5.404796e-01
   outer loop
     vertex  1.786393e-01 -1.287465e-01  5.036540e-01
     vertex  1.786393e-01 -1.273042e-01  5.020270e-01
     vertex  1.795635e-01 -1.275332e-01  5.032768e-01
   endloop
 endfacet
 facet normal  8.003303e-01 -5.984764e-01  3.601858e-02
   outer loop
     vertex  1.795635e-01 -1.274121e-01  5.052894e-01
     vertex  1.786393e-01 -1.287465e-01  5.036540e-01
     vertex  1.795635e-01 -1.275332e-01  5.032768e-01
   endloop
 endfacet
 facet normal  7.171219e-01 -6.806026e-01  1.500543e-01
   outer loop
     vertex  1.788393e-01 -1.281031e-01  5.056167e-01
     vertex  1.786393e-01 -1.287465e-01  5.036540e-01
     vertex  1.795635e-01 -1.274121e-01  5.052894e-01
   endloop
 endfacet
 facet normal  7.115101e-01 -5.241548e-01  4.679906e-01
   outer loop
     vertex  1.788393e-01 -1.280363e-01  5.056915e-01
     vertex  1.788393e-01 -1.281031e-01  5.056167e-01
     vertex  1.795635e-01 -1.274121e-01  5.052894e-01
   endloop
 endfacet
 facet normal  7.085211e-01 -5.039058e-01  4.940412e-01
   outer loop
     vertex  1.788393e-01 -1.279660e-01  5.057631e-01
     vertex  1.788393e-01 -1.280363e-01  5.056915e-01
     vertex  1.795635e-01 -1.274121e-01  5.052894e-01
   endloop
 endfacet
 facet normal  7.070105e-01 -4.813418e-01  5.181179e-01
   outer loop
     vertex  1.788393e-01 -1.278925e-01  5.058314e-01
     vertex  1.788393e-01 -1.279660e-01  5.057631e-01
     vertex  1.795635e-01 -1.274121e-01  5.052894e-01
   endloop
 endfacet
 facet normal  6.376018e-01 -7.489093e-01  1.805514e-01
   outer loop
     vertex  1.786393e-01 -1.282369e-01  5.057677e-01
     vertex  1.786393e-01 -1.287465e-01  5.036540e-01
     vertex  1.788393e-01 -1.281031e-01  5.056167e-01
   endloop
 endfacet
 facet normal -1.000000e+00  0.000000e+00  0.000000e+00
   outer loop
     vertex  1.788393e-01 -1.252786e-01  5.024304e-01
     vertex  1.788393e-01 -1.276541e-01  5.060147e-01
     vertex  1.788393e-01 -1.248296e-01  5.028284e-01
   endloop
 endfacet
 facet normal -1.000000e+00  1.008604e-09 -1.137782e-09
   outer loop
     vertex  1.788393e-01 -1.252786e-01  5.024304e-01
     vertex  1.788393e-01 -1.248296e-01  5.028284e-01
     vertex  1.788393e-01 -1.249666e-01  5.026820e-01
   endloop
 endfacet
 facet normal -1.000000e+00  1.008604e-09 -1.137782e-09
   outer loop
     vertex  1.788393e-01 -1.252786e-01  5.024304e-01
     vertex  1.788393e-01 -1.249666e-01  5.026820e-01
     vertex  1.788393e-01 -1.251167e-01  5.025489e-01
   endloop
 endfacet
 facet normal -1.000000e+00  2.134584e-10  1.892235e-10
   outer loop
     vertex  1.788393e-01 -1.252786e-01  5.024304e-01
     vertex  1.788393e-01 -1.281031e-01  5.056167e-01
     vertex  1.788393e-01 -1.280363e-01  5.056915e-01
   endloop
 endfacet
 facet normal -1.000000e+00 -4.772803e-12  4.679369e-12
   outer loop
     vertex  1.788393e-01 -1.252786e-01  5.024304e-01
     vertex  1.788393e-01 -1.280363e-01  5.056915e-01
     vertex  1.788393e-01 -1.279660e-01  5.057631e-01
   endloop
 endfacet
 facet normal -1.000000e+00 -2.256143e-10 -1.734042e-10
   outer loop
     vertex  1.788393e-01 -1.252786e-01  5.024304e-01
     vertex  1.788393e-01 -1.279660e-01  5.057631e-01
     vertex  1.788393e-01 -1.278925e-01  5.058314e-01
   endloop
 endfacet
 facet normal -1.000000e+00  2.248772e-10  1.728377e-10
   outer loop
     vertex  1.788393e-01 -1.252786e-01  5.024304e-01
     vertex  1.788393e-01 -1.278925e-01  5.058314e-01
     vertex  1.788393e-01 -1.278159e-01  5.058962e-01
   endloop
 endfacet
 facet normal -1.000000e+00 -4.033372e-12  5.247776e-12
   outer loop
     vertex  1.788393e-01 -1.252786e-01  5.024304e-01
     vertex  1.788393e-01 -1.278159e-01  5.058962e-01
     vertex  1.788393e-01 -1.277364e-01  5.059573e-01
   endloop
 endfacet
 facet normal -1.000000e+00 -2.362216e-10 -1.565589e-10
   outer loop
     vertex  1.788393e-01 -1.252786e-01  5.024304e-01
     vertex  1.788393e-01 -1.277364e-01  5.059573e-01
     vertex  1.788393e-01 -1.276541e-01  5.060147e-01
   endloop
 endfacet
 facet normal  0.000000e+00 -7.483092e-01 -6.633501e-01
   outer loop
     vertex  1.788393e-01 -1.248296e-01  5.028284e-01
     vertex  1.782393e-01 -1.246957e-01  5.026774e-01
     vertex  1.786393e-01 -1.246957e-01  5.026774e-01
   endloop
 endfacet
 facet normal -1.676358e-11 -7.483092e-01 -6.633501e-01
   outer loop
     vertex  1.777153e-01 -1.257071e-01  5.038183e-01
     vertex  1.782393e-01 -1.246957e-01  5.026774e-01
     vertex  1.788393e-01 -1.248296e-01  5.028284e-01
   endloop
 endfacet
 facet normal  4.434020e-11 -7.483092e-01 -6.633501e-01
   outer loop
     vertex  1.788393e-01 -1.276541e-01  5.060147e-01
     vertex  1.777153e-01 -1.267766e-01  5.050248e-01
     vertex  1.777153e-01 -1.257071e-01  5.038183e-01
   endloop
 endfacet
 facet normal  7.094610e-11 -7.483092e-01 -6.633501e-01
   outer loop
     vertex  1.788393e-01 -1.276541e-01  5.060147e-01
     vertex  1.782393e-01 -1.277880e-01  5.061657e-01
     vertex  1.777153e-01 -1.267766e-01  5.050248e-01
   endloop
 endfacet
 facet normal -1.975051e-11 -7.483092e-01 -6.633501e-01
   outer loop
     vertex  1.788393e-01 -1.276541e-01  5.060147e-01
     vertex  1.777153e-01 -1.257071e-01  5.038183e-01
     vertex  1.788393e-01 -1.248296e-01  5.028284e-01
   endloop
 endfacet
 facet normal -0.000000e+00 -7.483092e-01 -6.633501e-01
   outer loop
     vertex  1.786393e-01 -1.277880e-01  5.061657e-01
     vertex  1.782393e-01 -1.277880e-01  5.061657e-01
     vertex  1.788393e-01 -1.276541e-01  5.060147e-01
   endloop
 endfacet
 facet normal  0.000000e+00 -1.160865e-01  9.932391e-01
   outer loop
     vertex  1.782393e-01 -1.256284e-01  5.064181e-01
     vertex  1.786393e-01 -1.277880e-01  5.061657e-01
     vertex  1.786393e-01 -1.256284e-01  5.064181e-01
   endloop
 endfacet
 facet normal  0.000000e+00 -1.160865e-01  9.932391e-01
   outer loop
     vertex  1.782393e-01 -1.256284e-01  5.064181e-01
     vertex  1.782393e-01 -1.277880e-01  5.061657e-01
     vertex  1.786393e-01 -1.277880e-01  5.061657e-01
   endloop
 endfacet
 facet normal -0.000000e+00  7.483092e-01  6.633501e-01
   outer loop
     vertex  1.782393e-01 -1.241861e-01  5.047911e-01
     vertex  1.786393e-01 -1.256284e-01  5.064181e-01
     vertex  1.786393e-01 -1.241861e-01  5.047911e-01
   endloop
 endfacet
 facet normal  0.000000e+00  7.483092e-01  6.633501e-01
   outer loop
     vertex  1.782393e-01 -1.241861e-01  5.047911e-01
     vertex  1.782393e-01 -1.256284e-01  5.064181e-01
     vertex  1.786393e-01 -1.256284e-01  5.064181e-01
   endloop
 endfacet
 facet normal  0.000000e+00  9.721472e-01 -2.343709e-01
   outer loop
     vertex  1.782393e-01 -1.246957e-01  5.026774e-01
     vertex  1.786393e-01 -1.241861e-01  5.047911e-01
     vertex  1.786393e-01 -1.246957e-01  5.026774e-01
   endloop
 endfacet
 facet normal  0.000000e+00  9.721472e-01 -2.343709e-01
   outer loop
     vertex  1.782393e-01 -1.246957e-01  5.026774e-01
     vertex  1.782393e-01 -1.241861e-01  5.047911e-01
     vertex  1.786393e-01 -1.241861e-01  5.047911e-01
   endloop
 endfacet
 facet normal -9.223264e-01 -4.485719e-02  3.837992e-01
   outer loop
     vertex  1.782393e-01 -1.256284e-01  5.064181e-01
     vertex  1.777153e-01 -1.267766e-01  5.050248e-01
     vertex  1.782393e-01 -1.277880e-01  5.061657e-01
   endloop
 endfacet
 facet normal -9.223264e-01  3.756491e-01 -9.056367e-02
   outer loop
     vertex  1.782393e-01 -1.241861e-01  5.047911e-01
     vertex  1.782393e-01 -1.246957e-01  5.026774e-01
     vertex  1.777153e-01 -1.257071e-01  5.038183e-01
   endloop
 endfacet
 facet normal -9.594506e-01  2.109310e-01  1.869831e-01
   outer loop
     vertex  1.782393e-01 -1.241861e-01  5.047911e-01
     vertex  1.777153e-01 -1.257071e-01  5.038183e-01
     vertex  1.777153e-01 -1.267766e-01  5.050248e-01
   endloop
 endfacet
 facet normal -9.594506e-01  2.109310e-01  1.869831e-01
   outer loop
     vertex  1.782393e-01 -1.241861e-01  5.047911e-01
     vertex  1.777153e-01 -1.267766e-01  5.050248e-01
     vertex  1.782393e-01 -1.256284e-01  5.064181e-01
   endloop
 endfacet
 facet normal  0.000000e+00  7.483092e-01  6.633501e-01
   outer loop
     vertex  1.788393e-01 -1.281031e-01  5.056167e-01
     vertex  1.782393e-01 -1.282369e-01  5.057677e-01
     vertex  1.786393e-01 -1.282369e-01  5.057677e-01
   endloop
 endfacet
 facet normal -7.840249e-11  7.483092e-01  6.633501e-01
   outer loop
     vertex  1.777153e-01 -1.272255e-01  5.046267e-01
     vertex  1.782393e-01 -1.282369e-01  5.057677e-01
     vertex  1.788393e-01 -1.281031e-01  5.056167e-01
   endloop
 endfacet
 facet normal -1.148875e-10  7.483092e-01  6.633501e-01
   outer loop
     vertex  1.788393e-01 -1.252786e-01  5.024304e-01
     vertex  1.777153e-01 -1.261561e-01  5.034203e-01
     vertex  1.777153e-01 -1.272255e-01  5.046267e-01
   endloop
 endfacet
 facet normal -1.043155e-10  7.483092e-01  6.633501e-01
   outer loop
     vertex  1.788393e-01 -1.252786e-01  5.024304e-01
     vertex  1.782393e-01 -1.251447e-01  5.022794e-01
     vertex  1.777153e-01 -1.261561e-01  5.034203e-01
   endloop
 endfacet
 facet normal -4.900230e-11  7.483092e-01  6.633501e-01
   outer loop
     vertex  1.788393e-01 -1.252786e-01  5.024304e-01
     vertex  1.777153e-01 -1.272255e-01  5.046267e-01
     vertex  1.788393e-01 -1.281031e-01  5.056167e-01
   endloop
 endfacet
 facet normal  0.000000e+00  7.483092e-01  6.633501e-01
   outer loop
     vertex  1.786393e-01 -1.251447e-01  5.022794e-01
     vertex  1.782393e-01 -1.251447e-01  5.022794e-01
     vertex  1.788393e-01 -1.252786e-01  5.024304e-01
   endloop
 endfacet
 facet normal  0.000000e+00  1.160865e-01 -9.932391e-01
   outer loop
     vertex  1.782393e-01 -1.273042e-01  5.020270e-01
     vertex  1.786393e-01 -1.251447e-01  5.022794e-01
     vertex  1.786393e-01 -1.273042e-01  5.020270e-01
   endloop
 endfacet
 facet normal  0.000000e+00  1.160865e-01 -9.932391e-01
   outer loop
     vertex  1.782393e-01 -1.273042e-01  5.020270e-01
     vertex  1.782393e-01 -1.251447e-01  5.022794e-01
     vertex  1.786393e-01 -1.251447e-01  5.022794e-01
   endloop
 endfacet
 facet normal  0.000000e+00 -7.483092e-01 -6.633501e-01
   outer loop
     vertex  1.782393e-01 -1.287465e-01  5.036540e-01
     vertex  1.786393e-01 -1.273042e-01  5.020270e-01
     vertex  1.786393e-01 -1.287465e-01  5.036540e-01
   endloop
 endfacet
 facet normal  0.000000e+00 -7.483092e-01 -6.633501e-01
   outer loop
     vertex  1.782393e-01 -1.287465e-01  5.036540e-01
     vertex  1.782393e-01 -1.273042e-01  5.020270e-01
     vertex  1.786393e-01 -1.273042e-01  5.020270e-01
   endloop
 endfacet
 facet normal  0.000000e+00 -9.721472e-01  2.343709e-01
   outer loop
     vertex  1.782393e-01 -1.282369e-01  5.057677e-01
     vertex  1.786393e-01 -1.287465e-01  5.036540e-01
     vertex  1.786393e-01 -1.282369e-01  5.057677e-01
   endloop
 endfacet
 facet normal  0.000000e+00 -9.721472e-01  2.343709e-01
   outer loop
     vertex  1.782393e-01 -1.282369e-01  5.057677e-01
     vertex  1.782393e-01 -1.287465e-01  5.036540e-01
     vertex  1.786393e-01 -1.287465e-01  5.036540e-01
   endloop
 endfacet
 facet normal -9.223264e-01 -3.756491e-01  9.056367e-02
   outer loop
     vertex  1.777153e-01 -1.272255e-01  5.046267e-01
     vertex  1.782393e-01 -1.287465e-01  5.036540e-01
     vertex  1.782393e-01 -1.282369e-01  5.057677e-01
   endloop
 endfacet
 facet normal -9.594506e-01 -2.109310e-01 -1.869831e-01
   outer loop
     vertex  1.777153e-01 -1.261561e-01  5.034203e-01
     vertex  1.782393e-01 -1.273042e-01  5.020270e-01
     vertex  1.782393e-01 -1.287465e-01  5.036540e-01
   endloop
 endfacet
 facet normal -9.594506e-01 -2.109310e-01 -1.869831e-01
   outer loop
     vertex  1.777153e-01 -1.261561e-01  5.034203e-01
     vertex  1.782393e-01 -1.287465e-01  5.036540e-01
     vertex  1.777153e-01 -1.272255e-01  5.046267e-01
   endloop
 endfacet
 facet normal -9.223264e-01  4.485719e-02 -3.837992e-01
   outer loop
     vertex  1.782393e-01 -1.251447e-01  5.022794e-01
     vertex  1.782393e-01 -1.273042e-01  5.020270e-01
     vertex  1.777153e-01 -1.261561e-01  5.034203e-01
   endloop
 endfacet
endsolid
