solid 
 facet normal  1.000000e+00  0.000000e+00  0.000000e+00
   outer loop
     vertex  5.517790e-02 -1.506312e-01  3.773559e-01
     vertex  5.517790e-02 -1.517015e-01  3.796152e-01
     vertex  5.517790e-02 -1.522960e-01  3.779504e-01
   endloop
 endfacet
 facet normal  1.000000e+00  0.000000e+00  0.000000e+00
   outer loop
     vertex  5.517790e-02 -1.500367e-01  3.790207e-01
     vertex  5.517790e-02 -1.517015e-01  3.796152e-01
     vertex  5.517790e-02 -1.506312e-01  3.773559e-01
   endloop
 endfacet
 facet normal  0.000000e+00 -9.417525e-01  3.363068e-01
   outer loop
     vertex  4.892642e-02 -1.517015e-01  3.796152e-01
     vertex  4.892642e-02 -1.522960e-01  3.779504e-01
     vertex  5.517790e-02 -1.522960e-01  3.779504e-01
   endloop
 endfacet
 facet normal  0.000000e+00 -9.417525e-01  3.363068e-01
   outer loop
     vertex  4.892642e-02 -1.517015e-01  3.796152e-01
     vertex  5.517790e-02 -1.522960e-01  3.779504e-01
     vertex  5.517790e-02 -1.517015e-01  3.796152e-01
   endloop
 endfacet
 facet normal -0.000000e+00  3.363068e-01  9.417525e-01
   outer loop
     vertex  4.892642e-02 -1.500367e-01  3.790207e-01
     vertex  5.517790e-02 -1.517015e-01  3.796152e-01
     vertex  5.517790e-02 -1.500367e-01  3.790207e-01
   endloop
 endfacet
 facet normal  0.000000e+00  3.363068e-01  9.417525e-01
   outer loop
     vertex  4.892642e-02 -1.500367e-01  3.790207e-01
     vertex  4.892642e-02 -1.517015e-01  3.796152e-01
     vertex  5.517790e-02 -1.517015e-01  3.796152e-01
   endloop
 endfacet
 facet normal  0.000000e+00  9.417525e-01 -3.363068e-01
   outer loop
     vertex  4.892642e-02 -1.506312e-01  3.773559e-01
     vertex  5.517790e-02 -1.500367e-01  3.790207e-01
     vertex  5.517790e-02 -1.506312e-01  3.773559e-01
   endloop
 endfacet
 facet normal  0.000000e+00  9.417525e-01 -3.363068e-01
   outer loop
     vertex  4.892642e-02 -1.506312e-01  3.773559e-01
     vertex  4.892642e-02 -1.500367e-01  3.790207e-01
     vertex  5.517790e-02 -1.500367e-01  3.790207e-01
   endloop
 endfacet
 facet normal  0.000000e+00 -3.363068e-01 -9.417525e-01
   outer loop
     vertex  4.892642e-02 -1.522960e-01  3.779504e-01
     vertex  5.517790e-02 -1.506312e-01  3.773559e-01
     vertex  5.517790e-02 -1.522960e-01  3.779504e-01
   endloop
 endfacet
 facet normal  0.000000e+00 -3.363068e-01 -9.417525e-01
   outer loop
     vertex  4.892642e-02 -1.522960e-01  3.779504e-01
     vertex  4.892642e-02 -1.506312e-01  3.773559e-01
     vertex  5.517790e-02 -1.506312e-01  3.773559e-01
   endloop
 endfacet
 facet normal  4.769051e-01 -8.277578e-01  2.955985e-01
   outer loop
     vertex  4.862642e-02 -1.517359e-01  3.796879e-01
     vertex  4.850216e-02 -1.524548e-01  3.778752e-01
     vertex  4.862642e-02 -1.523686e-01  3.779160e-01
   endloop
 endfacet
 facet normal  4.769051e-01 -8.277578e-01  2.955985e-01
   outer loop
     vertex  4.862642e-02 -1.517359e-01  3.796879e-01
     vertex  4.850216e-02 -1.517767e-01  3.797741e-01
     vertex  4.850216e-02 -1.524548e-01  3.778752e-01
   endloop
 endfacet
 facet normal  9.269160e-02 -9.376981e-01  3.348589e-01
   outer loop
     vertex  4.877113e-02 -1.517102e-01  3.796337e-01
     vertex  4.892642e-02 -1.522960e-01  3.779504e-01
     vertex  4.892642e-02 -1.517015e-01  3.796152e-01
   endloop
 endfacet
 facet normal  2.810846e-01 -9.037838e-01  3.227479e-01
   outer loop
     vertex  4.877113e-02 -1.517102e-01  3.796337e-01
     vertex  4.862642e-02 -1.523686e-01  3.779160e-01
     vertex  4.877113e-02 -1.523145e-01  3.779417e-01
   endloop
 endfacet
 facet normal  9.269160e-02 -9.376981e-01  3.348589e-01
   outer loop
     vertex  4.877113e-02 -1.517102e-01  3.796337e-01
     vertex  4.877113e-02 -1.523145e-01  3.779417e-01
     vertex  4.892642e-02 -1.522960e-01  3.779504e-01
   endloop
 endfacet
 facet normal  2.810846e-01 -9.037838e-01  3.227479e-01
   outer loop
     vertex  4.877113e-02 -1.517102e-01  3.796337e-01
     vertex  4.862642e-02 -1.517359e-01  3.796879e-01
     vertex  4.862642e-02 -1.523686e-01  3.779160e-01
   endloop
 endfacet
 facet normal  4.769051e-01  2.955985e-01  8.277578e-01
   outer loop
     vertex  4.862642e-02 -1.499640e-01  3.790551e-01
     vertex  4.850216e-02 -1.498779e-01  3.790960e-01
     vertex  4.850216e-02 -1.517767e-01  3.797741e-01
   endloop
 endfacet
 facet normal  4.769051e-01  2.955985e-01  8.277578e-01
   outer loop
     vertex  4.862642e-02 -1.499640e-01  3.790551e-01
     vertex  4.850216e-02 -1.517767e-01  3.797741e-01
     vertex  4.862642e-02 -1.517359e-01  3.796879e-01
   endloop
 endfacet
 facet normal  9.269160e-02  3.348589e-01  9.376981e-01
   outer loop
     vertex  4.877113e-02 -1.500182e-01  3.790295e-01
     vertex  4.892642e-02 -1.517015e-01  3.796152e-01
     vertex  4.892642e-02 -1.500367e-01  3.790207e-01
   endloop
 endfacet
 facet normal  2.810846e-01  3.227479e-01  9.037838e-01
   outer loop
     vertex  4.877113e-02 -1.500182e-01  3.790295e-01
     vertex  4.862642e-02 -1.517359e-01  3.796879e-01
     vertex  4.877113e-02 -1.517102e-01  3.796337e-01
   endloop
 endfacet
 facet normal  2.810846e-01  3.227479e-01  9.037838e-01
   outer loop
     vertex  4.877113e-02 -1.500182e-01  3.790295e-01
     vertex  4.862642e-02 -1.499640e-01  3.790551e-01
     vertex  4.862642e-02 -1.517359e-01  3.796879e-01
   endloop
 endfacet
 facet normal  9.269160e-02  3.348589e-01  9.376981e-01
   outer loop
     vertex  4.877113e-02 -1.500182e-01  3.790295e-01
     vertex  4.877113e-02 -1.517102e-01  3.796337e-01
     vertex  4.892642e-02 -1.517015e-01  3.796152e-01
   endloop
 endfacet
 facet normal  4.769051e-01 -2.955985e-01 -8.277578e-01
   outer loop
     vertex  4.862642e-02 -1.505968e-01  3.772833e-01
     vertex  4.862642e-02 -1.523686e-01  3.779160e-01
     vertex  4.850216e-02 -1.524548e-01  3.778752e-01
   endloop
 endfacet
 facet normal  4.769051e-01 -2.955985e-01 -8.277578e-01
   outer loop
     vertex  4.862642e-02 -1.505968e-01  3.772833e-01
     vertex  4.850216e-02 -1.524548e-01  3.778752e-01
     vertex  4.850216e-02 -1.505559e-01  3.771971e-01
   endloop
 endfacet
 facet normal  4.769051e-01  8.277578e-01 -2.955985e-01
   outer loop
     vertex  4.862642e-02 -1.505968e-01  3.772833e-01
     vertex  4.850216e-02 -1.505559e-01  3.771971e-01
     vertex  4.850216e-02 -1.498779e-01  3.790960e-01
   endloop
 endfacet
 facet normal  4.769051e-01  8.277578e-01 -2.955985e-01
   outer loop
     vertex  4.862642e-02 -1.505968e-01  3.772833e-01
     vertex  4.850216e-02 -1.498779e-01  3.790960e-01
     vertex  4.862642e-02 -1.499640e-01  3.790551e-01
   endloop
 endfacet
 facet normal  2.810846e-01 -3.227479e-01 -9.037838e-01
   outer loop
     vertex  4.877113e-02 -1.506224e-01  3.773375e-01
     vertex  4.877113e-02 -1.523145e-01  3.779417e-01
     vertex  4.862642e-02 -1.523686e-01  3.779160e-01
   endloop
 endfacet
 facet normal  9.269160e-02 -3.348589e-01 -9.376981e-01
   outer loop
     vertex  4.877113e-02 -1.506224e-01  3.773375e-01
     vertex  4.892642e-02 -1.522960e-01  3.779504e-01
     vertex  4.877113e-02 -1.523145e-01  3.779417e-01
   endloop
 endfacet
 facet normal  9.269160e-02  9.376981e-01 -3.348589e-01
   outer loop
     vertex  4.877113e-02 -1.506224e-01  3.773375e-01
     vertex  4.892642e-02 -1.500367e-01  3.790207e-01
     vertex  4.892642e-02 -1.506312e-01  3.773559e-01
   endloop
 endfacet
 facet normal  9.269160e-02 -3.348589e-01 -9.376981e-01
   outer loop
     vertex  4.877113e-02 -1.506224e-01  3.773375e-01
     vertex  4.892642e-02 -1.506312e-01  3.773559e-01
     vertex  4.892642e-02 -1.522960e-01  3.779504e-01
   endloop
 endfacet
 facet normal  2.810846e-01  9.037838e-01 -3.227479e-01
   outer loop
     vertex  4.877113e-02 -1.506224e-01  3.773375e-01
     vertex  4.862642e-02 -1.505968e-01  3.772833e-01
     vertex  4.862642e-02 -1.499640e-01  3.790551e-01
   endloop
 endfacet
 facet normal  2.810846e-01 -3.227479e-01 -9.037838e-01
   outer loop
     vertex  4.877113e-02 -1.506224e-01  3.773375e-01
     vertex  4.862642e-02 -1.523686e-01  3.779160e-01
     vertex  4.862642e-02 -1.505968e-01  3.772833e-01
   endloop
 endfacet
 facet normal  9.269160e-02  9.376981e-01 -3.348589e-01
   outer loop
     vertex  4.877113e-02 -1.506224e-01  3.773375e-01
     vertex  4.877113e-02 -1.500182e-01  3.790295e-01
     vertex  4.892642e-02 -1.500367e-01  3.790207e-01
   endloop
 endfacet
 facet normal  2.810846e-01  9.037838e-01 -3.227479e-01
   outer loop
     vertex  4.877113e-02 -1.506224e-01  3.773375e-01
     vertex  4.862642e-02 -1.499640e-01  3.790551e-01
     vertex  4.877113e-02 -1.500182e-01  3.790295e-01
   endloop
 endfacet
 facet normal  7.070105e-01 -6.460061e-01 -2.877712e-01
   outer loop
     vertex  4.777790e-02 -1.531502e-01  3.776568e-01
     vertex  4.777790e-02 -1.531093e-01  3.775651e-01
     vertex  4.850216e-02 -1.524548e-01  3.778752e-01
   endloop
 endfacet
 facet normal  7.085211e-01 -6.573169e-01 -2.567730e-01
   outer loop
     vertex  4.777790e-02 -1.531867e-01  3.777502e-01
     vertex  4.777790e-02 -1.531502e-01  3.776568e-01
     vertex  4.850216e-02 -1.524548e-01  3.778752e-01
   endloop
 endfacet
 facet normal  7.115101e-01 -6.657238e-01 -2.248672e-01
   outer loop
     vertex  4.777790e-02 -1.532188e-01  3.778453e-01
     vertex  4.777790e-02 -1.531867e-01  3.777502e-01
     vertex  4.850216e-02 -1.524548e-01  3.778752e-01
   endloop
 endfacet
 facet normal  6.376018e-01 -7.597084e-01  1.276987e-01
   outer loop
     vertex  4.757790e-02 -1.530407e-01  3.799030e-01
     vertex  4.757790e-02 -1.534011e-01  3.777589e-01
     vertex  4.777790e-02 -1.532188e-01  3.778453e-01
   endloop
 endfacet
 facet normal  8.003303e-01 -5.646365e-01  2.016359e-01
   outer loop
     vertex  4.757790e-02 -1.530407e-01  3.799030e-01
     vertex  4.850216e-02 -1.524548e-01  3.778752e-01
     vertex  4.850216e-02 -1.517767e-01  3.797741e-01
   endloop
 endfacet
 facet normal  7.171219e-01 -6.849134e-01  1.289564e-01
   outer loop
     vertex  4.757790e-02 -1.530407e-01  3.799030e-01
     vertex  4.777790e-02 -1.532188e-01  3.778453e-01
     vertex  4.850216e-02 -1.524548e-01  3.778752e-01
   endloop
 endfacet
 facet normal  5.797805e-01 -3.488162e-01  7.363300e-01
   outer loop
     vertex  4.757790e-02 -1.510758e-01  3.808338e-01
     vertex  4.757790e-02 -1.530407e-01  3.799030e-01
     vertex  4.850216e-02 -1.517767e-01  3.797741e-01
   endloop
 endfacet
 facet normal  8.003303e-01  2.016359e-01  5.646365e-01
   outer loop
     vertex  4.850216e-02 -1.498779e-01  3.790960e-01
     vertex  4.757790e-02 -1.510758e-01  3.808338e-01
     vertex  4.850216e-02 -1.517767e-01  3.797741e-01
   endloop
 endfacet
 facet normal  7.171219e-01  3.340626e-01  6.116685e-01
   outer loop
     vertex  4.777790e-02 -1.493708e-01  3.796682e-01
     vertex  4.757790e-02 -1.510758e-01  3.808338e-01
     vertex  4.850216e-02 -1.498779e-01  3.790960e-01
   endloop
 endfacet
 facet normal  7.089856e-01  6.064173e-01  3.599965e-01
   outer loop
     vertex  4.777790e-02 -1.492684e-01  3.794957e-01
     vertex  4.777790e-02 -1.493708e-01  3.796682e-01
     vertex  4.850216e-02 -1.498779e-01  3.790960e-01
   endloop
 endfacet
 facet normal  6.376018e-01  3.824136e-01  6.687479e-01
   outer loop
     vertex  4.757790e-02 -1.491884e-01  3.797545e-01
     vertex  4.757790e-02 -1.510758e-01  3.808338e-01
     vertex  4.777790e-02 -1.493708e-01  3.796682e-01
   endloop
 endfacet
 facet normal  7.059615e-01  6.400630e-01  3.032124e-01
   outer loop
     vertex  4.777790e-02 -1.491825e-01  3.793144e-01
     vertex  4.777790e-02 -1.492684e-01  3.794957e-01
     vertex  4.850216e-02 -1.498779e-01  3.790960e-01
   endloop
 endfacet
 facet normal  7.089856e-01  6.626899e-01  2.412084e-01
   outer loop
     vertex  4.777790e-02 -1.491139e-01  3.791259e-01
     vertex  4.777790e-02 -1.491825e-01  3.793144e-01
     vertex  4.850216e-02 -1.498779e-01  3.790960e-01
   endloop
 endfacet
 facet normal  8.003303e-01  5.646365e-01 -2.016359e-01
   outer loop
     vertex  4.757790e-02 -1.492919e-01  3.770682e-01
     vertex  4.850216e-02 -1.498779e-01  3.790960e-01
     vertex  4.850216e-02 -1.505559e-01  3.771971e-01
   endloop
 endfacet
 facet normal  6.376018e-01  7.597084e-01 -1.276987e-01
   outer loop
     vertex  4.757790e-02 -1.492919e-01  3.770682e-01
     vertex  4.757790e-02 -1.489315e-01  3.792123e-01
     vertex  4.777790e-02 -1.491139e-01  3.791259e-01
   endloop
 endfacet
 facet normal  7.171219e-01  6.849134e-01 -1.289564e-01
   outer loop
     vertex  4.757790e-02 -1.492919e-01  3.770682e-01
     vertex  4.777790e-02 -1.491139e-01  3.791259e-01
     vertex  4.850216e-02 -1.498779e-01  3.790960e-01
   endloop
 endfacet
 facet normal  5.797805e-01  3.488162e-01 -7.363300e-01
   outer loop
     vertex  4.757790e-02 -1.512568e-01  3.761373e-01
     vertex  4.757790e-02 -1.492919e-01  3.770682e-01
     vertex  4.850216e-02 -1.505559e-01  3.771971e-01
   endloop
 endfacet
 facet normal  8.003303e-01 -2.016359e-01 -5.646365e-01
   outer loop
     vertex  4.850216e-02 -1.524548e-01  3.778752e-01
     vertex  4.757790e-02 -1.512568e-01  3.761373e-01
     vertex  4.850216e-02 -1.505559e-01  3.771971e-01
   endloop
 endfacet
 facet normal  7.171219e-01 -3.340626e-01 -6.116685e-01
   outer loop
     vertex  4.777790e-02 -1.529619e-01  3.773030e-01
     vertex  4.757790e-02 -1.512568e-01  3.761373e-01
     vertex  4.850216e-02 -1.524548e-01  3.778752e-01
   endloop
 endfacet
 facet normal  7.115101e-01 -5.956943e-01 -3.726952e-01
   outer loop
     vertex  4.777790e-02 -1.530151e-01  3.773881e-01
     vertex  4.777790e-02 -1.529619e-01  3.773030e-01
     vertex  4.850216e-02 -1.524548e-01  3.778752e-01
   endloop
 endfacet
 facet normal  7.085211e-01 -6.150576e-01 -3.459797e-01
   outer loop
     vertex  4.777790e-02 -1.530643e-01  3.774755e-01
     vertex  4.777790e-02 -1.530151e-01  3.773881e-01
     vertex  4.850216e-02 -1.524548e-01  3.778752e-01
   endloop
 endfacet
 facet normal  7.070105e-01 -6.318792e-01 -3.175921e-01
   outer loop
     vertex  4.777790e-02 -1.531093e-01  3.775651e-01
     vertex  4.777790e-02 -1.530643e-01  3.774755e-01
     vertex  4.850216e-02 -1.524548e-01  3.778752e-01
   endloop
 endfacet
 facet normal  6.376018e-01 -3.824136e-01 -6.687479e-01
   outer loop
     vertex  4.757790e-02 -1.531443e-01  3.772166e-01
     vertex  4.757790e-02 -1.512568e-01  3.761373e-01
     vertex  4.777790e-02 -1.529619e-01  3.773030e-01
   endloop
 endfacet
 facet normal -1.000000e+00  0.000000e+00  0.000000e+00
   outer loop
     vertex  4.777790e-02 -1.529619e-01  3.773030e-01
     vertex  4.777790e-02 -1.530151e-01  3.773881e-01
     vertex  4.777790e-02 -1.530643e-01  3.774755e-01
   endloop
 endfacet
 facet normal -1.000000e+00  0.000000e+00  0.000000e+00
   outer loop
     vertex  4.777790e-02 -1.529619e-01  3.773030e-01
     vertex  4.777790e-02 -1.530643e-01  3.774755e-01
     vertex  4.777790e-02 -1.531093e-01  3.775651e-01
   endloop
 endfacet
 facet normal -1.000000e+00  0.000000e+00  0.000000e+00
   outer loop
     vertex  4.777790e-02 -1.529619e-01  3.773030e-01
     vertex  4.777790e-02 -1.531093e-01  3.775651e-01
     vertex  4.777790e-02 -1.531502e-01  3.776568e-01
   endloop
 endfacet
 facet normal -1.000000e+00  0.000000e+00  0.000000e+00
   outer loop
     vertex  4.777790e-02 -1.529619e-01  3.773030e-01
     vertex  4.777790e-02 -1.531502e-01  3.776568e-01
     vertex  4.777790e-02 -1.531867e-01  3.777502e-01
   endloop
 endfacet
 facet normal -1.000000e+00  0.000000e+00  0.000000e+00
   outer loop
     vertex  4.777790e-02 -1.529619e-01  3.773030e-01
     vertex  4.777790e-02 -1.531867e-01  3.777502e-01
     vertex  4.777790e-02 -1.532188e-01  3.778453e-01
   endloop
 endfacet
 facet normal -1.000000e+00  0.000000e+00  0.000000e+00
   outer loop
     vertex  4.777790e-02 -1.493708e-01  3.796682e-01
     vertex  4.777790e-02 -1.529619e-01  3.773030e-01
     vertex  4.777790e-02 -1.532188e-01  3.778453e-01
   endloop
 endfacet
 facet normal -1.000000e+00  0.000000e+00  0.000000e+00
   outer loop
     vertex  4.777790e-02 -1.491825e-01  3.793144e-01
     vertex  4.777790e-02 -1.493708e-01  3.796682e-01
     vertex  4.777790e-02 -1.492684e-01  3.794957e-01
   endloop
 endfacet
 facet normal -1.000000e+00 -0.000000e+00  0.000000e+00
   outer loop
     vertex  4.777790e-02 -1.491139e-01  3.791259e-01
     vertex  4.777790e-02 -1.529619e-01  3.773030e-01
     vertex  4.777790e-02 -1.493708e-01  3.796682e-01
   endloop
 endfacet
 facet normal -1.000000e+00  0.000000e+00  0.000000e+00
   outer loop
     vertex  4.777790e-02 -1.491139e-01  3.791259e-01
     vertex  4.777790e-02 -1.493708e-01  3.796682e-01
     vertex  4.777790e-02 -1.491825e-01  3.793144e-01
   endloop
 endfacet
 facet normal  0.000000e+00  4.281148e-01 -9.037244e-01
   outer loop
     vertex  4.777790e-02 -1.493708e-01  3.796682e-01
     vertex  4.717790e-02 -1.491884e-01  3.797545e-01
     vertex  4.757790e-02 -1.491884e-01  3.797545e-01
   endloop
 endfacet
 facet normal  8.392198e-11  4.281148e-01 -9.037244e-01
   outer loop
     vertex  4.665394e-02 -1.505663e-01  3.791018e-01
     vertex  4.717790e-02 -1.491884e-01  3.797545e-01
     vertex  4.777790e-02 -1.493708e-01  3.796682e-01
   endloop
 endfacet
 facet normal  9.105084e-11  4.281148e-01 -9.037244e-01
   outer loop
     vertex  4.665394e-02 -1.520232e-01  3.784116e-01
     vertex  4.665394e-02 -1.505663e-01  3.791018e-01
     vertex  4.777790e-02 -1.493708e-01  3.796682e-01
   endloop
 endfacet
 facet normal  4.629060e-11  4.281148e-01 -9.037244e-01
   outer loop
     vertex  4.777790e-02 -1.532188e-01  3.778453e-01
     vertex  4.717790e-02 -1.534011e-01  3.777589e-01
     vertex  4.665394e-02 -1.520232e-01  3.784116e-01
   endloop
 endfacet
 facet normal  1.139345e-10  4.281148e-01 -9.037244e-01
   outer loop
     vertex  4.777790e-02 -1.532188e-01  3.778453e-01
     vertex  4.665394e-02 -1.520232e-01  3.784116e-01
     vertex  4.777790e-02 -1.493708e-01  3.796682e-01
   endloop
 endfacet
 facet normal  0.000000e+00  4.281148e-01 -9.037244e-01
   outer loop
     vertex  4.757790e-02 -1.534011e-01  3.777589e-01
     vertex  4.717790e-02 -1.534011e-01  3.777589e-01
     vertex  4.777790e-02 -1.532188e-01  3.778453e-01
   endloop
 endfacet
 facet normal  0.000000e+00 -9.861655e-01  1.657637e-01
   outer loop
     vertex  4.717790e-02 -1.530407e-01  3.799030e-01
     vertex  4.757790e-02 -1.534011e-01  3.777589e-01
     vertex  4.757790e-02 -1.530407e-01  3.799030e-01
   endloop
 endfacet
 facet normal  0.000000e+00 -9.861655e-01  1.657637e-01
   outer loop
     vertex  4.717790e-02 -1.530407e-01  3.799030e-01
     vertex  4.717790e-02 -1.534011e-01  3.777589e-01
     vertex  4.757790e-02 -1.534011e-01  3.777589e-01
   endloop
 endfacet
 facet normal  0.000000e+00 -4.281148e-01  9.037244e-01
   outer loop
     vertex  4.717790e-02 -1.510758e-01  3.808338e-01
     vertex  4.757790e-02 -1.530407e-01  3.799030e-01
     vertex  4.757790e-02 -1.510758e-01  3.808338e-01
   endloop
 endfacet
 facet normal  0.000000e+00 -4.281148e-01  9.037244e-01
   outer loop
     vertex  4.717790e-02 -1.510758e-01  3.808338e-01
     vertex  4.717790e-02 -1.530407e-01  3.799030e-01
     vertex  4.757790e-02 -1.530407e-01  3.799030e-01
   endloop
 endfacet
 facet normal -0.000000e+00  4.964050e-01  8.680910e-01
   outer loop
     vertex  4.717790e-02 -1.491884e-01  3.797545e-01
     vertex  4.757790e-02 -1.510758e-01  3.808338e-01
     vertex  4.757790e-02 -1.491884e-01  3.797545e-01
   endloop
 endfacet
 facet normal  0.000000e+00  4.964050e-01  8.680910e-01
   outer loop
     vertex  4.717790e-02 -1.491884e-01  3.797545e-01
     vertex  4.717790e-02 -1.510758e-01  3.808338e-01
     vertex  4.757790e-02 -1.510758e-01  3.808338e-01
   endloop
 endfacet
 facet normal -9.223264e-01 -3.810659e-01  6.405303e-02
   outer loop
     vertex  4.717790e-02 -1.530407e-01  3.799030e-01
     vertex  4.665394e-02 -1.520232e-01  3.784116e-01
     vertex  4.717790e-02 -1.534011e-01  3.777589e-01
   endloop
 endfacet
 facet normal -9.223264e-01  1.918167e-01  3.354405e-01
   outer loop
     vertex  4.717790e-02 -1.510758e-01  3.808338e-01
     vertex  4.717790e-02 -1.491884e-01  3.797545e-01
     vertex  4.665394e-02 -1.505663e-01  3.791018e-01
   endloop
 endfacet
 facet normal -9.594506e-01 -1.206756e-01  2.547390e-01
   outer loop
     vertex  4.717790e-02 -1.510758e-01  3.808338e-01
     vertex  4.665394e-02 -1.505663e-01  3.791018e-01
     vertex  4.665394e-02 -1.520232e-01  3.784116e-01
   endloop
 endfacet
 facet normal -9.594506e-01 -1.206756e-01  2.547390e-01
   outer loop
     vertex  4.717790e-02 -1.510758e-01  3.808338e-01
     vertex  4.665394e-02 -1.520232e-01  3.784116e-01
     vertex  4.717790e-02 -1.530407e-01  3.799030e-01
   endloop
 endfacet
 facet normal  0.000000e+00 -4.281148e-01  9.037244e-01
   outer loop
     vertex  4.777790e-02 -1.529619e-01  3.773030e-01
     vertex  4.717790e-02 -1.531443e-01  3.772166e-01
     vertex  4.757790e-02 -1.531443e-01  3.772166e-01
   endloop
 endfacet
 facet normal -4.629065e-11 -4.281148e-01  9.037244e-01
   outer loop
     vertex  4.665394e-02 -1.517664e-01  3.778694e-01
     vertex  4.717790e-02 -1.531443e-01  3.772166e-01
     vertex  4.777790e-02 -1.529619e-01  3.773030e-01
   endloop
 endfacet
 facet normal -1.706348e-10 -4.281148e-01  9.037244e-01
   outer loop
     vertex  4.665394e-02 -1.503094e-01  3.785596e-01
     vertex  4.665394e-02 -1.517664e-01  3.778694e-01
     vertex  4.777790e-02 -1.529619e-01  3.773030e-01
   endloop
 endfacet
 facet normal -5.558531e-11 -4.281148e-01  9.037244e-01
   outer loop
     vertex  4.777790e-02 -1.491139e-01  3.791259e-01
     vertex  4.717790e-02 -1.489315e-01  3.792123e-01
     vertex  4.665394e-02 -1.503094e-01  3.785596e-01
   endloop
 endfacet
 facet normal -4.483353e-11 -4.281148e-01  9.037244e-01
   outer loop
     vertex  4.777790e-02 -1.491139e-01  3.791259e-01
     vertex  4.665394e-02 -1.503094e-01  3.785596e-01
     vertex  4.777790e-02 -1.529619e-01  3.773030e-01
   endloop
 endfacet
 facet normal  0.000000e+00 -4.281148e-01  9.037244e-01
   outer loop
     vertex  4.757790e-02 -1.489315e-01  3.792123e-01
     vertex  4.717790e-02 -1.489315e-01  3.792123e-01
     vertex  4.777790e-02 -1.491139e-01  3.791259e-01
   endloop
 endfacet
 facet normal  0.000000e+00  9.861655e-01 -1.657637e-01
   outer loop
     vertex  4.717790e-02 -1.492919e-01  3.770682e-01
     vertex  4.757790e-02 -1.489315e-01  3.792123e-01
     vertex  4.757790e-02 -1.492919e-01  3.770682e-01
   endloop
 endfacet
 facet normal  0.000000e+00  9.861655e-01 -1.657637e-01
   outer loop
     vertex  4.717790e-02 -1.492919e-01  3.770682e-01
     vertex  4.717790e-02 -1.489315e-01  3.792123e-01
     vertex  4.757790e-02 -1.489315e-01  3.792123e-01
   endloop
 endfacet
 facet normal  0.000000e+00  4.281148e-01 -9.037244e-01
   outer loop
     vertex  4.717790e-02 -1.512568e-01  3.761373e-01
     vertex  4.757790e-02 -1.492919e-01  3.770682e-01
     vertex  4.757790e-02 -1.512568e-01  3.761373e-01
   endloop
 endfacet
 facet normal  0.000000e+00  4.281148e-01 -9.037244e-01
   outer loop
     vertex  4.717790e-02 -1.512568e-01  3.761373e-01
     vertex  4.717790e-02 -1.492919e-01  3.770682e-01
     vertex  4.757790e-02 -1.492919e-01  3.770682e-01
   endloop
 endfacet
 facet normal  0.000000e+00 -4.964050e-01 -8.680910e-01
   outer loop
     vertex  4.717790e-02 -1.531443e-01  3.772166e-01
     vertex  4.757790e-02 -1.512568e-01  3.761373e-01
     vertex  4.757790e-02 -1.531443e-01  3.772166e-01
   endloop
 endfacet
 facet normal  0.000000e+00 -4.964050e-01 -8.680910e-01
   outer loop
     vertex  4.717790e-02 -1.531443e-01  3.772166e-01
     vertex  4.717790e-02 -1.512568e-01  3.761373e-01
     vertex  4.757790e-02 -1.512568e-01  3.761373e-01
   endloop
 endfacet
 facet normal -9.223264e-01 -1.918167e-01 -3.354405e-01
   outer loop
     vertex  4.665394e-02 -1.517664e-01  3.778694e-01
     vertex  4.717790e-02 -1.512568e-01  3.761373e-01
     vertex  4.717790e-02 -1.531443e-01  3.772166e-01
   endloop
 endfacet
 facet normal -9.594506e-01  1.206756e-01 -2.547390e-01
   outer loop
     vertex  4.665394e-02 -1.503094e-01  3.785596e-01
     vertex  4.717790e-02 -1.492919e-01  3.770682e-01
     vertex  4.717790e-02 -1.512568e-01  3.761373e-01
   endloop
 endfacet
 facet normal -9.594506e-01  1.206756e-01 -2.547390e-01
   outer loop
     vertex  4.665394e-02 -1.503094e-01  3.785596e-01
     vertex  4.717790e-02 -1.512568e-01  3.761373e-01
     vertex  4.665394e-02 -1.517664e-01  3.778694e-01
   endloop
 endfacet
 facet normal -9.223264e-01  3.810659e-01 -6.405303e-02
   outer loop
     vertex  4.717790e-02 -1.489315e-01  3.792123e-01
     vertex  4.717790e-02 -1.492919e-01  3.770682e-01
     vertex  4.665394e-02 -1.503094e-01  3.785596e-01
   endloop
 endfacet
endsolid
