solid 
 facet normal  9.381965e-01  2.378883e-01  2.513890e-01
   outer loop
     vertex  2.181720e-01  1.873337e-01  4.348541e-01
     vertex  2.181050e-01  1.873337e-01  4.351041e-01
     vertex  2.186050e-01  1.862087e-01  4.343026e-01
   endloop
 endfacet
 facet normal  7.051558e-01 -7.423263e-02  7.051558e-01
   outer loop
     vertex  2.183550e-01  1.873337e-01  4.346711e-01
     vertex  2.181720e-01  1.873337e-01  4.348541e-01
     vertex  2.186050e-01  1.862087e-01  4.343026e-01
   endloop
 endfacet
 facet normal  2.505628e-01 -2.505628e-01  9.351131e-01
   outer loop
     vertex  2.186050e-01  1.873337e-01  4.346041e-01
     vertex  2.183550e-01  1.873337e-01  4.346711e-01
     vertex  2.186050e-01  1.862087e-01  4.343026e-01
   endloop
 endfacet
 facet normal  9.351131e-01  2.505628e-01  2.505628e-01
   outer loop
     vertex  2.181720e-01  1.898337e-01  4.323541e-01
     vertex  2.181050e-01  1.873337e-01  4.351041e-01
     vertex  2.181720e-01  1.873337e-01  4.348541e-01
   endloop
 endfacet
 facet normal  9.351131e-01  2.505628e-01  2.505628e-01
   outer loop
     vertex  2.181720e-01  1.898337e-01  4.323541e-01
     vertex  2.181050e-01  1.900837e-01  4.323541e-01
     vertex  2.181050e-01  1.873337e-01  4.351041e-01
   endloop
 endfacet
 facet normal  1.861568e-01  6.947466e-01  6.947466e-01
   outer loop
     vertex  2.183550e-01  1.896507e-01  4.323541e-01
     vertex  2.186050e-01  1.873337e-01  4.346041e-01
     vertex  2.186050e-01  1.895837e-01  4.323541e-01
   endloop
 endfacet
 facet normal  5.773503e-01  5.773503e-01  5.773503e-01
   outer loop
     vertex  2.183550e-01  1.896507e-01  4.323541e-01
     vertex  2.181720e-01  1.873337e-01  4.348541e-01
     vertex  2.183550e-01  1.873337e-01  4.346711e-01
   endloop
 endfacet
 facet normal  1.861568e-01  6.947466e-01  6.947466e-01
   outer loop
     vertex  2.183550e-01  1.896507e-01  4.323541e-01
     vertex  2.183550e-01  1.873337e-01  4.346711e-01
     vertex  2.186050e-01  1.873337e-01  4.346041e-01
   endloop
 endfacet
 facet normal  5.773503e-01  5.773503e-01  5.773503e-01
   outer loop
     vertex  2.183550e-01  1.896507e-01  4.323541e-01
     vertex  2.181720e-01  1.898337e-01  4.323541e-01
     vertex  2.181720e-01  1.873337e-01  4.348541e-01
   endloop
 endfacet
 facet normal  9.351131e-01  2.505628e-01 -2.505628e-01
   outer loop
     vertex  2.181720e-01  1.873337e-01  4.298541e-01
     vertex  2.181050e-01  1.873337e-01  4.296041e-01
     vertex  2.181050e-01  1.900837e-01  4.323541e-01
   endloop
 endfacet
 facet normal  9.351131e-01  2.505628e-01 -2.505628e-01
   outer loop
     vertex  2.181720e-01  1.873337e-01  4.298541e-01
     vertex  2.181050e-01  1.900837e-01  4.323541e-01
     vertex  2.181720e-01  1.898337e-01  4.323541e-01
   endloop
 endfacet
 facet normal  1.861568e-01  6.947466e-01 -6.947466e-01
   outer loop
     vertex  2.183550e-01  1.873337e-01  4.300371e-01
     vertex  2.186050e-01  1.895837e-01  4.323541e-01
     vertex  2.186050e-01  1.873337e-01  4.301041e-01
   endloop
 endfacet
 facet normal  5.773503e-01  5.773503e-01 -5.773503e-01
   outer loop
     vertex  2.183550e-01  1.873337e-01  4.300371e-01
     vertex  2.181720e-01  1.898337e-01  4.323541e-01
     vertex  2.183550e-01  1.896507e-01  4.323541e-01
   endloop
 endfacet
 facet normal  1.861568e-01  6.947466e-01 -6.947466e-01
   outer loop
     vertex  2.183550e-01  1.873337e-01  4.300371e-01
     vertex  2.183550e-01  1.896507e-01  4.323541e-01
     vertex  2.186050e-01  1.895837e-01  4.323541e-01
   endloop
 endfacet
 facet normal  5.773503e-01  5.773503e-01 -5.773503e-01
   outer loop
     vertex  2.183550e-01  1.873337e-01  4.300371e-01
     vertex  2.181720e-01  1.873337e-01  4.298541e-01
     vertex  2.181720e-01  1.898337e-01  4.323541e-01
   endloop
 endfacet
 facet normal  9.351131e-01 -2.505628e-01 -2.505628e-01
   outer loop
     vertex  2.181720e-01  1.848337e-01  4.323541e-01
     vertex  2.181050e-01  1.845837e-01  4.323541e-01
     vertex  2.181050e-01  1.873337e-01  4.296041e-01
   endloop
 endfacet
 facet normal  9.351131e-01 -2.505628e-01 -2.505628e-01
   outer loop
     vertex  2.181720e-01  1.848337e-01  4.323541e-01
     vertex  2.181050e-01  1.873337e-01  4.296041e-01
     vertex  2.181720e-01  1.873337e-01  4.298541e-01
   endloop
 endfacet
 facet normal  1.861568e-01 -6.947466e-01 -6.947466e-01
   outer loop
     vertex  2.183550e-01  1.850167e-01  4.323541e-01
     vertex  2.186050e-01  1.873337e-01  4.301041e-01
     vertex  2.186050e-01  1.850837e-01  4.323541e-01
   endloop
 endfacet
 facet normal  5.773503e-01 -5.773503e-01 -5.773503e-01
   outer loop
     vertex  2.183550e-01  1.850167e-01  4.323541e-01
     vertex  2.181720e-01  1.873337e-01  4.298541e-01
     vertex  2.183550e-01  1.873337e-01  4.300371e-01
   endloop
 endfacet
 facet normal  5.773503e-01 -5.773503e-01 -5.773503e-01
   outer loop
     vertex  2.183550e-01  1.850167e-01  4.323541e-01
     vertex  2.181720e-01  1.848337e-01  4.323541e-01
     vertex  2.181720e-01  1.873337e-01  4.298541e-01
   endloop
 endfacet
 facet normal  1.861568e-01 -6.947466e-01 -6.947466e-01
   outer loop
     vertex  2.183550e-01  1.850167e-01  4.323541e-01
     vertex  2.183550e-01  1.873337e-01  4.300371e-01
     vertex  2.186050e-01  1.873337e-01  4.301041e-01
   endloop
 endfacet
 facet normal  2.505628e-01 -9.351131e-01  2.505628e-01
   outer loop
     vertex  2.183550e-01  1.853271e-01  4.335126e-01
     vertex  2.186050e-01  1.850837e-01  4.323541e-01
     vertex  2.186050e-01  1.853851e-01  4.334791e-01
   endloop
 endfacet
 facet normal  2.505628e-01 -6.845503e-01  6.845503e-01
   outer loop
     vertex  2.183550e-01  1.853271e-01  4.335126e-01
     vertex  2.186050e-01  1.853851e-01  4.334791e-01
     vertex  2.186050e-01  1.862087e-01  4.343026e-01
   endloop
 endfacet
 facet normal -7.612606e-01 -4.585206e-01  4.585206e-01
   outer loop
     vertex  2.183550e-01  1.853271e-01  4.335126e-01
     vertex  2.181050e-01  1.873337e-01  4.351041e-01
     vertex  2.181050e-01  1.845837e-01  4.323541e-01
   endloop
 endfacet
 facet normal  2.505628e-01 -9.351131e-01  2.505628e-01
   outer loop
     vertex  2.183550e-01  1.853271e-01  4.335126e-01
     vertex  2.183550e-01  1.850167e-01  4.323541e-01
     vertex  2.186050e-01  1.850837e-01  4.323541e-01
   endloop
 endfacet
 facet normal  6.947466e-01 -6.947466e-01  1.861568e-01
   outer loop
     vertex  2.183550e-01  1.853271e-01  4.335126e-01
     vertex  2.181720e-01  1.848337e-01  4.323541e-01
     vertex  2.183550e-01  1.850167e-01  4.323541e-01
   endloop
 endfacet
 facet normal  9.650606e-01 -2.585872e-01 -4.231670e-02
   outer loop
     vertex  2.183550e-01  1.853271e-01  4.335126e-01
     vertex  2.181050e-01  1.845837e-01  4.323541e-01
     vertex  2.181720e-01  1.848337e-01  4.323541e-01
   endloop
 endfacet
 facet normal -1.911946e-01 -6.244643e-01  7.572905e-01
   outer loop
     vertex  2.183550e-01  1.853271e-01  4.335126e-01
     vertex  2.186050e-01  1.862087e-01  4.343026e-01
     vertex  2.181050e-01  1.873337e-01  4.351041e-01
   endloop
 endfacet
 facet normal  1.000000e+00  0.000000e+00  0.000000e+00
   outer loop
     vertex  2.181050e-01  1.873337e-01  4.296041e-01
     vertex  2.181050e-01  1.803337e-01  4.153541e-01
     vertex  2.181050e-01  1.943337e-01  4.153541e-01
   endloop
 endfacet
 facet normal  1.000000e+00  0.000000e+00  0.000000e+00
   outer loop
     vertex  2.181050e-01  1.845837e-01  4.323541e-01
     vertex  2.181050e-01  1.803337e-01  4.153541e-01
     vertex  2.181050e-01  1.873337e-01  4.296041e-01
   endloop
 endfacet
 facet normal  1.000000e+00  0.000000e+00  0.000000e+00
   outer loop
     vertex  2.181050e-01  1.900837e-01  4.323541e-01
     vertex  2.181050e-01  1.873337e-01  4.296041e-01
     vertex  2.181050e-01  1.943337e-01  4.153541e-01
   endloop
 endfacet
 facet normal  1.000000e+00  0.000000e+00  0.000000e+00
   outer loop
     vertex  2.181050e-01  1.844337e-01  4.423541e-01
     vertex  2.181050e-01  1.845837e-01  4.323541e-01
     vertex  2.181050e-01  1.873337e-01  4.351041e-01
   endloop
 endfacet
 facet normal  1.000000e+00  0.000000e+00  0.000000e+00
   outer loop
     vertex  2.181050e-01  1.803337e-01  4.494541e-01
     vertex  2.181050e-01  1.845837e-01  4.323541e-01
     vertex  2.181050e-01  1.844337e-01  4.423541e-01
   endloop
 endfacet
 facet normal  1.000000e+00  0.000000e+00  0.000000e+00
   outer loop
     vertex  2.181050e-01  1.803337e-01  4.494541e-01
     vertex  2.181050e-01  1.803337e-01  4.153541e-01
     vertex  2.181050e-01  1.845837e-01  4.323541e-01
   endloop
 endfacet
 facet normal  1.000000e+00  0.000000e+00  0.000000e+00
   outer loop
     vertex  2.181050e-01  1.902337e-01  4.423541e-01
     vertex  2.181050e-01  1.873337e-01  4.351041e-01
     vertex  2.181050e-01  1.900837e-01  4.323541e-01
   endloop
 endfacet
 facet normal  1.000000e+00  0.000000e+00  0.000000e+00
   outer loop
     vertex  2.181050e-01  1.902337e-01  4.423541e-01
     vertex  2.181050e-01  1.844337e-01  4.423541e-01
     vertex  2.181050e-01  1.873337e-01  4.351041e-01
   endloop
 endfacet
 facet normal  1.000000e+00  0.000000e+00  0.000000e+00
   outer loop
     vertex  2.181050e-01  1.844337e-01  4.494541e-01
     vertex  2.181050e-01  1.803337e-01  4.494541e-01
     vertex  2.181050e-01  1.844337e-01  4.423541e-01
   endloop
 endfacet
 facet normal  1.000000e+00  0.000000e+00  0.000000e+00
   outer loop
     vertex  2.181050e-01  1.943337e-01  4.494541e-01
     vertex  2.181050e-01  1.902337e-01  4.494541e-01
     vertex  2.181050e-01  1.902337e-01  4.423541e-01
   endloop
 endfacet
 facet normal  1.000000e+00  0.000000e+00  0.000000e+00
   outer loop
     vertex  2.181050e-01  1.943337e-01  4.494541e-01
     vertex  2.181050e-01  1.902337e-01  4.423541e-01
     vertex  2.181050e-01  1.900837e-01  4.323541e-01
   endloop
 endfacet
 facet normal  1.000000e+00  0.000000e+00  0.000000e+00
   outer loop
     vertex  2.181050e-01  1.943337e-01  4.494541e-01
     vertex  2.181050e-01  1.900837e-01  4.323541e-01
     vertex  2.181050e-01  1.943337e-01  4.153541e-01
   endloop
 endfacet
 facet normal  8.881784e-12  1.000000e+00  8.985734e-12
   outer loop
     vertex  2.183360e-01  1.844337e-01  4.500165e-01
     vertex  2.173050e-01  1.844337e-01  4.494541e-01
     vertex  2.177671e-01  1.844337e-01  4.505788e-01
   endloop
 endfacet
 facet normal  0.000000e+00  1.000000e+00  0.000000e+00
   outer loop
     vertex  2.188957e-01  1.844337e-01  4.502540e-01
     vertex  2.177671e-01  1.844337e-01  4.505788e-01
     vertex  2.188864e-01  1.844337e-01  4.510540e-01
   endloop
 endfacet
 facet normal  0.000000e+00  1.000000e+00  0.000000e+00
   outer loop
     vertex  2.188957e-01  1.844337e-01  4.502540e-01
     vertex  2.183360e-01  1.844337e-01  4.500165e-01
     vertex  2.177671e-01  1.844337e-01  4.505788e-01
   endloop
 endfacet
 facet normal  0.000000e+00  1.000000e+00  2.526891e-11
   outer loop
     vertex  2.181050e-01  1.844337e-01  4.494541e-01
     vertex  2.173050e-01  1.844337e-01  4.494541e-01
     vertex  2.183360e-01  1.844337e-01  4.500165e-01
   endloop
 endfacet
 facet normal -1.263360e-11  1.000000e+00 -1.470053e-13
   outer loop
     vertex  2.200165e-01  1.844337e-01  4.506050e-01
     vertex  2.188957e-01  1.844337e-01  4.502540e-01
     vertex  2.188864e-01  1.844337e-01  4.510540e-01
   endloop
 endfacet
 facet normal -1.817694e-11  1.000000e+00  1.755326e-11
   outer loop
     vertex  2.194607e-01  1.844337e-01  4.500295e-01
     vertex  2.188957e-01  1.844337e-01  4.502540e-01
     vertex  2.200165e-01  1.844337e-01  4.506050e-01
   endloop
 endfacet
 facet normal  0.000000e+00  1.000000e+00  0.000000e+00
   outer loop
     vertex  2.225341e-01  1.844337e-01  4.481737e-01
     vertex  2.194607e-01  1.844337e-01  4.500295e-01
     vertex  2.200165e-01  1.844337e-01  4.506050e-01
   endloop
 endfacet
 facet normal  0.000000e+00  1.000000e+00 -0.000000e+00
   outer loop
     vertex  2.219784e-01  1.844337e-01  4.475982e-01
     vertex  2.194607e-01  1.844337e-01  4.500295e-01
     vertex  2.225341e-01  1.844337e-01  4.481737e-01
   endloop
 endfacet
 facet normal  0.000000e+00  1.000000e+00  0.000000e+00
   outer loop
     vertex  2.173050e-01  1.844337e-01  4.423541e-01
     vertex  2.173050e-01  1.844337e-01  4.494541e-01
     vertex  2.181050e-01  1.844337e-01  4.494541e-01
   endloop
 endfacet
 facet normal  0.000000e+00  1.000000e+00 -0.000000e+00
   outer loop
     vertex  2.181050e-01  1.844337e-01  4.423541e-01
     vertex  2.173050e-01  1.844337e-01  4.423541e-01
     vertex  2.181050e-01  1.844337e-01  4.494541e-01
   endloop
 endfacet
 facet normal -1.000000e+00  0.000000e+00 -0.000000e+00
   outer loop
     vertex  2.173050e-01  1.873337e-01  4.307041e-01
     vertex  2.173050e-01  1.943337e-01  4.153541e-01
     vertex  2.173050e-01  1.803337e-01  4.153541e-01
   endloop
 endfacet
 facet normal -1.000000e+00  0.000000e+00 -0.000000e+00
   outer loop
     vertex  2.173050e-01  1.856837e-01  4.323541e-01
     vertex  2.173050e-01  1.873337e-01  4.307041e-01
     vertex  2.173050e-01  1.803337e-01  4.153541e-01
   endloop
 endfacet
 facet normal -1.000000e+00  0.000000e+00 -0.000000e+00
   outer loop
     vertex  2.173050e-01  1.889837e-01  4.323541e-01
     vertex  2.173050e-01  1.943337e-01  4.153541e-01
     vertex  2.173050e-01  1.873337e-01  4.307041e-01
   endloop
 endfacet
 facet normal -1.000000e+00  0.000000e+00  0.000000e+00
   outer loop
     vertex  2.173050e-01  1.844337e-01  4.423541e-01
     vertex  2.173050e-01  1.873337e-01  4.340041e-01
     vertex  2.173050e-01  1.856837e-01  4.323541e-01
   endloop
 endfacet
 facet normal -1.000000e+00 -0.000000e+00 -0.000000e+00
   outer loop
     vertex  2.173050e-01  1.858337e-01  4.423541e-01
     vertex  2.173050e-01  1.873337e-01  4.340041e-01
     vertex  2.173050e-01  1.844337e-01  4.423541e-01
   endloop
 endfacet
 facet normal -1.000000e+00  0.000000e+00  0.000000e+00
   outer loop
     vertex  2.173050e-01  1.803337e-01  4.494541e-01
     vertex  2.173050e-01  1.844337e-01  4.423541e-01
     vertex  2.173050e-01  1.856837e-01  4.323541e-01
   endloop
 endfacet
 facet normal -1.000000e+00  0.000000e+00  0.000000e+00
   outer loop
     vertex  2.173050e-01  1.803337e-01  4.494541e-01
     vertex  2.173050e-01  1.856837e-01  4.323541e-01
     vertex  2.173050e-01  1.803337e-01  4.153541e-01
   endloop
 endfacet
 facet normal -1.000000e+00  0.000000e+00  0.000000e+00
   outer loop
     vertex  2.173050e-01  1.888337e-01  4.423541e-01
     vertex  2.173050e-01  1.858337e-01  4.423541e-01
     vertex  2.173050e-01  1.858337e-01  4.425541e-01
   endloop
 endfacet
 facet normal -1.000000e+00 -0.000000e+00  0.000000e+00
   outer loop
     vertex  2.173050e-01  1.888337e-01  4.423541e-01
     vertex  2.173050e-01  1.873337e-01  4.340041e-01
     vertex  2.173050e-01  1.858337e-01  4.423541e-01
   endloop
 endfacet
 facet normal -1.000000e+00 -0.000000e+00 -0.000000e+00
   outer loop
     vertex  2.173050e-01  1.888337e-01  4.425541e-01
     vertex  2.173050e-01  1.888337e-01  4.423541e-01
     vertex  2.173050e-01  1.858337e-01  4.425541e-01
   endloop
 endfacet
 facet normal -1.000000e+00  0.000000e+00  0.000000e+00
   outer loop
     vertex  2.173050e-01  1.902337e-01  4.423541e-01
     vertex  2.173050e-01  1.889837e-01  4.323541e-01
     vertex  2.173050e-01  1.873337e-01  4.340041e-01
   endloop
 endfacet
 facet normal -1.000000e+00 -0.000000e+00  0.000000e+00
   outer loop
     vertex  2.173050e-01  1.902337e-01  4.423541e-01
     vertex  2.173050e-01  1.873337e-01  4.340041e-01
     vertex  2.173050e-01  1.888337e-01  4.423541e-01
   endloop
 endfacet
 facet normal -1.000000e+00 -0.000000e+00 -0.000000e+00
   outer loop
     vertex  2.173050e-01  1.844337e-01  4.494541e-01
     vertex  2.173050e-01  1.844337e-01  4.423541e-01
     vertex  2.173050e-01  1.803337e-01  4.494541e-01
   endloop
 endfacet
 facet normal -1.000000e+00 -0.000000e+00  0.000000e+00
   outer loop
     vertex  2.173050e-01  1.943337e-01  4.494541e-01
     vertex  2.173050e-01  1.902337e-01  4.423541e-01
     vertex  2.173050e-01  1.902337e-01  4.494541e-01
   endloop
 endfacet
 facet normal -1.000000e+00  0.000000e+00 -0.000000e+00
   outer loop
     vertex  2.173050e-01  1.943337e-01  4.494541e-01
     vertex  2.173050e-01  1.943337e-01  4.153541e-01
     vertex  2.173050e-01  1.889837e-01  4.323541e-01
   endloop
 endfacet
 facet normal -1.000000e+00  0.000000e+00  0.000000e+00
   outer loop
     vertex  2.173050e-01  1.943337e-01  4.494541e-01
     vertex  2.173050e-01  1.889837e-01  4.323541e-01
     vertex  2.173050e-01  1.902337e-01  4.423541e-01
   endloop
 endfacet
 facet normal  3.692061e-01 -0.000000e+00  9.293475e-01
   outer loop
     vertex  2.188864e-01  1.803337e-01  4.510540e-01
     vertex  2.200165e-01  1.844337e-01  4.506050e-01
     vertex  2.188864e-01  1.844337e-01  4.510540e-01
   endloop
 endfacet
 facet normal  3.692061e-01  0.000000e+00  9.293475e-01
   outer loop
     vertex  2.188864e-01  1.803337e-01  4.510540e-01
     vertex  2.200165e-01  1.803337e-01  4.506050e-01
     vertex  2.200165e-01  1.844337e-01  4.506050e-01
   endloop
 endfacet
 facet normal -3.907311e-01  0.000000e+00  9.205049e-01
   outer loop
     vertex  2.177671e-01  1.803337e-01  4.505788e-01
     vertex  2.188864e-01  1.844337e-01  4.510540e-01
     vertex  2.177671e-01  1.844337e-01  4.505788e-01
   endloop
 endfacet
 facet normal -3.907311e-01  0.000000e+00  9.205049e-01
   outer loop
     vertex  2.177671e-01  1.803337e-01  4.505788e-01
     vertex  2.188864e-01  1.803337e-01  4.510540e-01
     vertex  2.188864e-01  1.844337e-01  4.510540e-01
   endloop
 endfacet
 facet normal -9.249888e-01  0.000000e+00  3.799944e-01
   outer loop
     vertex  2.173050e-01  1.803337e-01  4.494541e-01
     vertex  2.177671e-01  1.844337e-01  4.505788e-01
     vertex  2.173050e-01  1.844337e-01  4.494541e-01
   endloop
 endfacet
 facet normal -9.249888e-01  0.000000e+00  3.799944e-01
   outer loop
     vertex  2.173050e-01  1.803337e-01  4.494541e-01
     vertex  2.177671e-01  1.803337e-01  4.505788e-01
     vertex  2.177671e-01  1.844337e-01  4.505788e-01
   endloop
 endfacet
 facet normal  6.946584e-01 -0.000000e+00  7.193398e-01
   outer loop
     vertex  2.225341e-01  1.803337e-01  4.481737e-01
     vertex  2.225341e-01  1.844337e-01  4.481737e-01
     vertex  2.200165e-01  1.844337e-01  4.506050e-01
   endloop
 endfacet
 facet normal  6.946584e-01 -0.000000e+00  7.193398e-01
   outer loop
     vertex  2.200165e-01  1.803337e-01  4.506050e-01
     vertex  2.225341e-01  1.803337e-01  4.481737e-01
     vertex  2.200165e-01  1.844337e-01  4.506050e-01
   endloop
 endfacet
 facet normal  7.193398e-01  0.000000e+00 -6.946584e-01
   outer loop
     vertex  2.225341e-01  1.844337e-01  4.481737e-01
     vertex  2.225341e-01  1.803337e-01  4.481737e-01
     vertex  2.219784e-01  1.803337e-01  4.475982e-01
   endloop
 endfacet
 facet normal  7.193398e-01  0.000000e+00 -6.946584e-01
   outer loop
     vertex  2.219784e-01  1.844337e-01  4.475982e-01
     vertex  2.225341e-01  1.844337e-01  4.481737e-01
     vertex  2.219784e-01  1.803337e-01  4.475982e-01
   endloop
 endfacet
 facet normal -6.946584e-01 -0.000000e+00 -7.193398e-01
   outer loop
     vertex  2.194607e-01  1.844337e-01  4.500295e-01
     vertex  2.219784e-01  1.803337e-01  4.475982e-01
     vertex  2.194607e-01  1.803337e-01  4.500295e-01
   endloop
 endfacet
 facet normal -6.946584e-01  0.000000e+00 -7.193398e-01
   outer loop
     vertex  2.194607e-01  1.844337e-01  4.500295e-01
     vertex  2.219784e-01  1.844337e-01  4.475982e-01
     vertex  2.219784e-01  1.803337e-01  4.475982e-01
   endloop
 endfacet
 facet normal -3.692061e-01  0.000000e+00 -9.293475e-01
   outer loop
     vertex  2.188957e-01  1.803337e-01  4.502540e-01
     vertex  2.194607e-01  1.844337e-01  4.500295e-01
     vertex  2.194607e-01  1.803337e-01  4.500295e-01
   endloop
 endfacet
 facet normal -3.692061e-01  0.000000e+00 -9.293475e-01
   outer loop
     vertex  2.188957e-01  1.803337e-01  4.502540e-01
     vertex  2.188957e-01  1.844337e-01  4.502540e-01
     vertex  2.194607e-01  1.844337e-01  4.500295e-01
   endloop
 endfacet
 facet normal  3.907311e-01  0.000000e+00 -9.205049e-01
   outer loop
     vertex  2.183360e-01  1.803337e-01  4.500165e-01
     vertex  2.183360e-01  1.844337e-01  4.500165e-01
     vertex  2.188957e-01  1.844337e-01  4.502540e-01
   endloop
 endfacet
 facet normal  3.907311e-01  0.000000e+00 -9.205049e-01
   outer loop
     vertex  2.183360e-01  1.803337e-01  4.500165e-01
     vertex  2.188957e-01  1.844337e-01  4.502540e-01
     vertex  2.188957e-01  1.803337e-01  4.502540e-01
   endloop
 endfacet
 facet normal  9.249888e-01  0.000000e+00 -3.799944e-01
   outer loop
     vertex  2.181050e-01  1.803337e-01  4.494541e-01
     vertex  2.181050e-01  1.844337e-01  4.494541e-01
     vertex  2.183360e-01  1.844337e-01  4.500165e-01
   endloop
 endfacet
 facet normal  9.249888e-01  0.000000e+00 -3.799944e-01
   outer loop
     vertex  2.181050e-01  1.803337e-01  4.494541e-01
     vertex  2.183360e-01  1.844337e-01  4.500165e-01
     vertex  2.183360e-01  1.803337e-01  4.500165e-01
   endloop
 endfacet
 facet normal  0.000000e+00 -1.000000e+00 -0.000000e+00
   outer loop
     vertex  2.234125e-01  1.803337e-01  4.146239e-01
     vertex  2.231110e-01  1.803337e-01  4.088717e-01
     vertex  2.239099e-01  1.803337e-01  4.088299e-01
   endloop
 endfacet
 facet normal  0.000000e+00 -1.000000e+00  0.000000e+00
   outer loop
     vertex  2.234125e-01  1.803337e-01  4.146239e-01
     vertex  2.239099e-01  1.803337e-01  4.088299e-01
     vertex  2.242114e-01  1.803337e-01  4.145820e-01
   endloop
 endfacet
 facet normal -7.133147e-13 -1.000000e+00 -1.361085e-11
   outer loop
     vertex  2.238801e-01  1.803337e-01  4.156434e-01
     vertex  2.234125e-01  1.803337e-01  4.146239e-01
     vertex  2.242114e-01  1.803337e-01  4.145820e-01
   endloop
 endfacet
 facet normal  1.665711e-11 -1.000000e+00 -2.157771e-11
   outer loop
     vertex  2.232468e-01  1.803337e-01  4.151546e-01
     vertex  2.234125e-01  1.803337e-01  4.146239e-01
     vertex  2.238801e-01  1.803337e-01  4.156434e-01
   endloop
 endfacet
 facet normal -2.669591e-11 -1.000000e+00  5.512262e-12
   outer loop
     vertex  2.229371e-01  1.803337e-01  4.162327e-01
     vertex  2.222257e-01  1.803337e-01  4.153654e-01
     vertex  2.227754e-01  1.803337e-01  4.154492e-01
   endloop
 endfacet
 facet normal  0.000000e+00 -1.000000e+00 -0.000000e+00
   outer loop
     vertex  2.229371e-01  1.803337e-01  4.162327e-01
     vertex  2.227754e-01  1.803337e-01  4.154492e-01
     vertex  2.232468e-01  1.803337e-01  4.151546e-01
   endloop
 endfacet
 facet normal  0.000000e+00 -1.000000e+00  0.000000e+00
   outer loop
     vertex  2.229371e-01  1.803337e-01  4.162327e-01
     vertex  2.232468e-01  1.803337e-01  4.151546e-01
     vertex  2.238801e-01  1.803337e-01  4.156434e-01
   endloop
 endfacet
 facet normal -1.192066e-11 -1.000000e+00 -6.607729e-12
   outer loop
     vertex  2.218379e-01  1.803337e-01  4.160651e-01
     vertex  2.222257e-01  1.803337e-01  4.153654e-01
     vertex  2.229371e-01  1.803337e-01  4.162327e-01
   endloop
 endfacet
 facet normal  0.000000e+00 -1.000000e+00  0.000000e+00
   outer loop
     vertex  2.192928e-01  1.803337e-01  4.146544e-01
     vertex  2.196807e-01  1.803337e-01  4.139547e-01
     vertex  2.222257e-01  1.803337e-01  4.153654e-01
   endloop
 endfacet
 facet normal  0.000000e+00 -1.000000e+00  0.000000e+00
   outer loop
     vertex  2.192928e-01  1.803337e-01  4.146544e-01
     vertex  2.222257e-01  1.803337e-01  4.153654e-01
     vertex  2.218379e-01  1.803337e-01  4.160651e-01
   endloop
 endfacet
 facet normal  1.367388e-11 -1.000000e+00 -2.575468e-12
   outer loop
     vertex  2.187569e-01  1.803337e-01  4.145679e-01
     vertex  2.186088e-01  1.803337e-01  4.137817e-01
     vertex  2.196807e-01  1.803337e-01  4.139547e-01
   endloop
 endfacet
 facet normal  2.433946e-11 -1.000000e+00  1.349158e-11
   outer loop
     vertex  2.187569e-01  1.803337e-01  4.145679e-01
     vertex  2.196807e-01  1.803337e-01  4.139547e-01
     vertex  2.192928e-01  1.803337e-01  4.146544e-01
   endloop
 endfacet
 facet normal  0.000000e+00 -1.000000e+00  0.000000e+00
   outer loop
     vertex  2.176734e-01  1.803337e-01  4.143328e-01
     vertex  2.187569e-01  1.803337e-01  4.145679e-01
     vertex  2.182892e-01  1.803337e-01  4.148434e-01
   endloop
 endfacet
 facet normal  0.000000e+00 -1.000000e+00  0.000000e+00
   outer loop
     vertex  2.176734e-01  1.803337e-01  4.143328e-01
     vertex  2.186088e-01  1.803337e-01  4.137817e-01
     vertex  2.187569e-01  1.803337e-01  4.145679e-01
   endloop
 endfacet
 facet normal  0.000000e+00 -1.000000e+00  2.782862e-11
   outer loop
     vertex  2.173050e-01  1.803337e-01  4.153541e-01
     vertex  2.182892e-01  1.803337e-01  4.148434e-01
     vertex  2.181050e-01  1.803337e-01  4.153541e-01
   endloop
 endfacet
 facet normal -8.881784e-12 -1.000000e+00  1.071083e-11
   outer loop
     vertex  2.173050e-01  1.803337e-01  4.153541e-01
     vertex  2.176734e-01  1.803337e-01  4.143328e-01
     vertex  2.182892e-01  1.803337e-01  4.148434e-01
   endloop
 endfacet
 facet normal  0.000000e+00 -1.000000e+00  0.000000e+00
   outer loop
     vertex  2.194607e-01  1.803337e-01  4.500295e-01
     vertex  2.219784e-01  1.803337e-01  4.475982e-01
     vertex  2.225341e-01  1.803337e-01  4.481737e-01
   endloop
 endfacet
 facet normal  0.000000e+00 -1.000000e+00 -0.000000e+00
   outer loop
     vertex  2.200165e-01  1.803337e-01  4.506050e-01
     vertex  2.194607e-01  1.803337e-01  4.500295e-01
     vertex  2.225341e-01  1.803337e-01  4.481737e-01
   endloop
 endfacet
 facet normal  1.817694e-11 -1.000000e+00 -1.755326e-11
   outer loop
     vertex  2.188957e-01  1.803337e-01  4.502540e-01
     vertex  2.194607e-01  1.803337e-01  4.500295e-01
     vertex  2.200165e-01  1.803337e-01  4.506050e-01
   endloop
 endfacet
 facet normal  1.263360e-11 -1.000000e+00  1.470053e-13
   outer loop
     vertex  2.188864e-01  1.803337e-01  4.510540e-01
     vertex  2.188957e-01  1.803337e-01  4.502540e-01
     vertex  2.200165e-01  1.803337e-01  4.506050e-01
   endloop
 endfacet
 facet normal -1.776357e-11 -1.000000e+00 -1.797147e-11
   outer loop
     vertex  2.177671e-01  1.803337e-01  4.505788e-01
     vertex  2.181050e-01  1.803337e-01  4.494541e-01
     vertex  2.183360e-01  1.803337e-01  4.500165e-01
   endloop
 endfacet
 facet normal  0.000000e+00 -1.000000e+00  0.000000e+00
   outer loop
     vertex  2.177671e-01  1.803337e-01  4.505788e-01
     vertex  2.183360e-01  1.803337e-01  4.500165e-01
     vertex  2.188957e-01  1.803337e-01  4.502540e-01
   endloop
 endfacet
 facet normal  0.000000e+00 -1.000000e+00  0.000000e+00
   outer loop
     vertex  2.177671e-01  1.803337e-01  4.505788e-01
     vertex  2.188957e-01  1.803337e-01  4.502540e-01
     vertex  2.188864e-01  1.803337e-01  4.510540e-01
   endloop
 endfacet
 facet normal  0.000000e+00 -1.000000e+00 -1.263446e-11
   outer loop
     vertex  2.177671e-01  1.803337e-01  4.505788e-01
     vertex  2.173050e-01  1.803337e-01  4.494541e-01
     vertex  2.181050e-01  1.803337e-01  4.494541e-01
   endloop
 endfacet
 facet normal  0.000000e+00 -1.000000e+00  0.000000e+00
   outer loop
     vertex  2.181050e-01  1.803337e-01  4.153541e-01
     vertex  2.181050e-01  1.803337e-01  4.494541e-01
     vertex  2.173050e-01  1.803337e-01  4.494541e-01
   endloop
 endfacet
 facet normal  0.000000e+00 -1.000000e+00  0.000000e+00
   outer loop
     vertex  2.181050e-01  1.803337e-01  4.153541e-01
     vertex  2.173050e-01  1.803337e-01  4.494541e-01
     vertex  2.173050e-01  1.803337e-01  4.153541e-01
   endloop
 endfacet
 facet normal -9.986295e-01 -5.249227e-10  5.233596e-02
   outer loop
     vertex  2.230869e-01  1.804260e-01  4.084108e-01
     vertex  2.230947e-01  1.803750e-01  4.085600e-01
     vertex  2.231028e-01  1.803441e-01  4.087145e-01
   endloop
 endfacet
 facet normal -9.986295e-01  3.971000e-10  5.233596e-02
   outer loop
     vertex  2.230869e-01  1.804260e-01  4.084108e-01
     vertex  2.231028e-01  1.803441e-01  4.087145e-01
     vertex  2.231110e-01  1.803337e-01  4.088717e-01
   endloop
 endfacet
 facet normal -9.986295e-01 -1.025155e-12  5.233596e-02
   outer loop
     vertex  2.230985e-01  1.843337e-01  4.086321e-01
     vertex  2.231110e-01  1.803337e-01  4.088717e-01
     vertex  2.234125e-01  1.803337e-01  4.146239e-01
   endloop
 endfacet
 facet normal -9.986295e-01  1.228867e-13  5.233596e-02
   outer loop
     vertex  2.230985e-01  1.843337e-01  4.086321e-01
     vertex  2.230869e-01  1.804260e-01  4.084108e-01
     vertex  2.231110e-01  1.803337e-01  4.088717e-01
   endloop
 endfacet
 facet normal -9.986295e-01  1.197012e-12  5.233596e-02
   outer loop
     vertex  2.229938e-01  1.843337e-01  4.066348e-01
     vertex  2.230869e-01  1.804260e-01  4.084108e-01
     vertex  2.230985e-01  1.843337e-01  4.086321e-01
   endloop
 endfacet
 facet normal -9.986295e-01  1.158306e-12  5.233596e-02
   outer loop
     vertex  2.228569e-01  1.822568e-01  4.040230e-01
     vertex  2.230869e-01  1.804260e-01  4.084108e-01
     vertex  2.229938e-01  1.843337e-01  4.066348e-01
   endloop
 endfacet
 facet normal -9.986295e-01  0.000000e+00  5.233596e-02
   outer loop
     vertex  2.234125e-01  1.943337e-01  4.146239e-01
     vertex  2.230985e-01  1.843337e-01  4.086321e-01
     vertex  2.234125e-01  1.803337e-01  4.146239e-01
   endloop
 endfacet
 facet normal -9.986295e-01  0.000000e+00  5.233596e-02
   outer loop
     vertex  2.230985e-01  1.903337e-01  4.086321e-01
     vertex  2.230985e-01  1.843337e-01  4.086321e-01
     vertex  2.234125e-01  1.943337e-01  4.146239e-01
   endloop
 endfacet
 facet normal -9.986295e-01  0.000000e+00  5.233596e-02
   outer loop
     vertex  2.227016e-01  1.852325e-01  4.010597e-01
     vertex  2.229938e-01  1.843337e-01  4.066348e-01
     vertex  2.229938e-01  1.903337e-01  4.066348e-01
   endloop
 endfacet
 facet normal -9.986295e-01 -2.120183e-12  5.233596e-02
   outer loop
     vertex  2.227016e-01  1.852325e-01  4.010597e-01
     vertex  2.228569e-01  1.822568e-01  4.040230e-01
     vertex  2.229938e-01  1.843337e-01  4.066348e-01
   endloop
 endfacet
 facet normal -9.986295e-01  1.025155e-12  5.233596e-02
   outer loop
     vertex  2.231110e-01  1.943337e-01  4.088717e-01
     vertex  2.230985e-01  1.903337e-01  4.086321e-01
     vertex  2.234125e-01  1.943337e-01  4.146239e-01
   endloop
 endfacet
 facet normal -9.986295e-01 -3.971000e-10  5.233596e-02
   outer loop
     vertex  2.230869e-01  1.942414e-01  4.084108e-01
     vertex  2.231110e-01  1.943337e-01  4.088717e-01
     vertex  2.231028e-01  1.943233e-01  4.087145e-01
   endloop
 endfacet
 facet normal -9.986295e-01  5.249227e-10  5.233596e-02
   outer loop
     vertex  2.230869e-01  1.942414e-01  4.084108e-01
     vertex  2.231028e-01  1.943233e-01  4.087145e-01
     vertex  2.230947e-01  1.942924e-01  4.085600e-01
   endloop
 endfacet
 facet normal -9.986295e-01 -1.197014e-12  5.233596e-02
   outer loop
     vertex  2.230869e-01  1.942414e-01  4.084108e-01
     vertex  2.229938e-01  1.903337e-01  4.066348e-01
     vertex  2.230985e-01  1.903337e-01  4.086321e-01
   endloop
 endfacet
 facet normal -9.986295e-01 -1.228867e-13  5.233596e-02
   outer loop
     vertex  2.230869e-01  1.942414e-01  4.084108e-01
     vertex  2.230985e-01  1.903337e-01  4.086321e-01
     vertex  2.231110e-01  1.943337e-01  4.088717e-01
   endloop
 endfacet
 facet normal -9.986295e-01  0.000000e+00  5.233596e-02
   outer loop
     vertex  2.227016e-01  1.894349e-01  4.010597e-01
     vertex  2.227016e-01  1.852325e-01  4.010597e-01
     vertex  2.229938e-01  1.903337e-01  4.066348e-01
   endloop
 endfacet
 facet normal -9.986295e-01 -1.158306e-12  5.233596e-02
   outer loop
     vertex  2.228569e-01  1.924106e-01  4.040230e-01
     vertex  2.229938e-01  1.903337e-01  4.066348e-01
     vertex  2.230869e-01  1.942414e-01  4.084108e-01
   endloop
 endfacet
 facet normal -9.986295e-01  2.120187e-12  5.233596e-02
   outer loop
     vertex  2.228569e-01  1.924106e-01  4.040230e-01
     vertex  2.227016e-01  1.894349e-01  4.010597e-01
     vertex  2.229938e-01  1.903337e-01  4.066348e-01
   endloop
 endfacet
 facet normal -2.012921e-02 -9.230769e-01 -3.840883e-01
   outer loop
     vertex  2.236558e-01  1.822568e-01  4.039811e-01
     vertex  2.238858e-01  1.804260e-01  4.083690e-01
     vertex  2.230869e-01  1.804260e-01  4.084108e-01
   endloop
 endfacet
 facet normal -2.012921e-02 -9.230769e-01 -3.840883e-01
   outer loop
     vertex  2.228569e-01  1.822568e-01  4.040230e-01
     vertex  2.236558e-01  1.822568e-01  4.039811e-01
     vertex  2.230869e-01  1.804260e-01  4.084108e-01
   endloop
 endfacet
 facet normal  9.986295e-01  4.884404e-10 -5.233596e-02
   outer loop
     vertex  2.238858e-01  1.804260e-01  4.083690e-01
     vertex  2.239099e-01  1.803337e-01  4.088299e-01
     vertex  2.239017e-01  1.803441e-01  4.086726e-01
   endloop
 endfacet
 facet normal  9.986295e-01  5.249227e-10 -5.233596e-02
   outer loop
     vertex  2.238858e-01  1.804260e-01  4.083690e-01
     vertex  2.239017e-01  1.803441e-01  4.086726e-01
     vertex  2.238936e-01  1.803750e-01  4.085181e-01
   endloop
 endfacet
 facet normal  9.986295e-01 -7.140916e-12 -5.233596e-02
   outer loop
     vertex  2.238974e-01  1.843337e-01  4.085902e-01
     vertex  2.242114e-01  1.803337e-01  4.145820e-01
     vertex  2.239099e-01  1.803337e-01  4.088299e-01
   endloop
 endfacet
 facet normal  9.986295e-01 -4.322957e-12 -5.233596e-02
   outer loop
     vertex  2.238974e-01  1.843337e-01  4.085902e-01
     vertex  2.239099e-01  1.803337e-01  4.088299e-01
     vertex  2.238858e-01  1.804260e-01  4.083690e-01
   endloop
 endfacet
 facet normal  9.986295e-01 -1.069442e-12 -5.233596e-02
   outer loop
     vertex  2.237927e-01  1.843337e-01  4.065929e-01
     vertex  2.238974e-01  1.843337e-01  4.085902e-01
     vertex  2.238858e-01  1.804260e-01  4.083690e-01
   endloop
 endfacet
 facet normal  9.986295e-01  4.176792e-12 -5.233596e-02
   outer loop
     vertex  2.236558e-01  1.822568e-01  4.039811e-01
     vertex  2.237927e-01  1.843337e-01  4.065929e-01
     vertex  2.238858e-01  1.804260e-01  4.083690e-01
   endloop
 endfacet
 facet normal  9.986295e-01  0.000000e+00 -5.233596e-02
   outer loop
     vertex  2.238974e-01  1.903337e-01  4.085902e-01
     vertex  2.242114e-01  1.943337e-01  4.145820e-01
     vertex  2.242114e-01  1.803337e-01  4.145820e-01
   endloop
 endfacet
 facet normal  9.986295e-01  0.000000e+00 -5.233596e-02
   outer loop
     vertex  2.238974e-01  1.903337e-01  4.085902e-01
     vertex  2.242114e-01  1.803337e-01  4.145820e-01
     vertex  2.238974e-01  1.843337e-01  4.085902e-01
   endloop
 endfacet
 facet normal  9.986295e-01 -3.202721e-12 -5.233596e-02
   outer loop
     vertex  2.235005e-01  1.852325e-01  4.010178e-01
     vertex  2.237927e-01  1.843337e-01  4.065929e-01
     vertex  2.236558e-01  1.822568e-01  4.039811e-01
   endloop
 endfacet
 facet normal  9.986295e-01  7.140916e-12 -5.233596e-02
   outer loop
     vertex  2.239099e-01  1.943337e-01  4.088299e-01
     vertex  2.242114e-01  1.943337e-01  4.145820e-01
     vertex  2.238974e-01  1.903337e-01  4.085902e-01
   endloop
 endfacet
 facet normal  9.986295e-01 -5.249227e-10 -5.233596e-02
   outer loop
     vertex  2.238858e-01  1.942414e-01  4.083690e-01
     vertex  2.238936e-01  1.942924e-01  4.085181e-01
     vertex  2.239017e-01  1.943233e-01  4.086726e-01
   endloop
 endfacet
 facet normal  9.986295e-01 -4.884404e-10 -5.233596e-02
   outer loop
     vertex  2.238858e-01  1.942414e-01  4.083690e-01
     vertex  2.239017e-01  1.943233e-01  4.086726e-01
     vertex  2.239099e-01  1.943337e-01  4.088299e-01
   endloop
 endfacet
 facet normal  9.986295e-01  1.069441e-12 -5.233596e-02
   outer loop
     vertex  2.238858e-01  1.942414e-01  4.083690e-01
     vertex  2.238974e-01  1.903337e-01  4.085902e-01
     vertex  2.237927e-01  1.903337e-01  4.065929e-01
   endloop
 endfacet
 facet normal  9.986295e-01  4.322957e-12 -5.233596e-02
   outer loop
     vertex  2.238858e-01  1.942414e-01  4.083690e-01
     vertex  2.239099e-01  1.943337e-01  4.088299e-01
     vertex  2.238974e-01  1.903337e-01  4.085902e-01
   endloop
 endfacet
 facet normal  9.986295e-01  0.000000e+00 -5.233596e-02
   outer loop
     vertex  2.235005e-01  1.894349e-01  4.010178e-01
     vertex  2.237927e-01  1.903337e-01  4.065929e-01
     vertex  2.237927e-01  1.843337e-01  4.065929e-01
   endloop
 endfacet
 facet normal  9.986295e-01  0.000000e+00 -5.233596e-02
   outer loop
     vertex  2.235005e-01  1.894349e-01  4.010178e-01
     vertex  2.237927e-01  1.843337e-01  4.065929e-01
     vertex  2.235005e-01  1.852325e-01  4.010178e-01
   endloop
 endfacet
 facet normal  9.986295e-01 -4.176792e-12 -5.233596e-02
   outer loop
     vertex  2.236558e-01  1.924106e-01  4.039811e-01
     vertex  2.238858e-01  1.942414e-01  4.083690e-01
     vertex  2.237927e-01  1.903337e-01  4.065929e-01
   endloop
 endfacet
 facet normal  9.986295e-01  3.202725e-12 -5.233596e-02
   outer loop
     vertex  2.236558e-01  1.924106e-01  4.039811e-01
     vertex  2.237927e-01  1.903337e-01  4.065929e-01
     vertex  2.235005e-01  1.894349e-01  4.010178e-01
   endloop
 endfacet
 facet normal  9.545876e-01 -0.000000e+00  2.979303e-01
   outer loop
     vertex  2.242114e-01  1.803337e-01  4.145820e-01
     vertex  2.242114e-01  1.943337e-01  4.145820e-01
     vertex  2.238801e-01  1.943337e-01  4.156434e-01
   endloop
 endfacet
 facet normal  5.299193e-01 -0.000000e+00  8.480481e-01
   outer loop
     vertex  2.238801e-01  1.803337e-01  4.156434e-01
     vertex  2.238801e-01  1.943337e-01  4.156434e-01
     vertex  2.229371e-01  1.943337e-01  4.162327e-01
   endloop
 endfacet
 facet normal  9.545876e-01 -0.000000e+00  2.979303e-01
   outer loop
     vertex  2.238801e-01  1.803337e-01  4.156434e-01
     vertex  2.242114e-01  1.803337e-01  4.145820e-01
     vertex  2.238801e-01  1.943337e-01  4.156434e-01
   endloop
 endfacet
 facet normal -1.506857e-01  3.059104e-13  9.885817e-01
   outer loop
     vertex  2.229371e-01  1.803337e-01  4.162327e-01
     vertex  2.229371e-01  1.943337e-01  4.162327e-01
     vertex  2.218379e-01  1.943337e-01  4.160651e-01
   endloop
 endfacet
 facet normal  5.299193e-01 -1.075801e-12  8.480481e-01
   outer loop
     vertex  2.229371e-01  1.803337e-01  4.162327e-01
     vertex  2.238801e-01  1.803337e-01  4.156434e-01
     vertex  2.229371e-01  1.943337e-01  4.162327e-01
   endloop
 endfacet
 facet normal -1.506857e-01  0.000000e+00  9.885817e-01
   outer loop
     vertex  2.218379e-01  1.803337e-01  4.160651e-01
     vertex  2.229371e-01  1.803337e-01  4.162327e-01
     vertex  2.218379e-01  1.943337e-01  4.160651e-01
   endloop
 endfacet
 facet normal  0.000000e+00  1.000000e+00  0.000000e+00
   outer loop
     vertex  2.242114e-01  1.943337e-01  4.145820e-01
     vertex  2.239099e-01  1.943337e-01  4.088299e-01
     vertex  2.231110e-01  1.943337e-01  4.088717e-01
   endloop
 endfacet
 facet normal  0.000000e+00  1.000000e+00  0.000000e+00
   outer loop
     vertex  2.234125e-01  1.943337e-01  4.146239e-01
     vertex  2.242114e-01  1.943337e-01  4.145820e-01
     vertex  2.231110e-01  1.943337e-01  4.088717e-01
   endloop
 endfacet
 facet normal -8.328553e-12  1.000000e+00  1.078886e-11
   outer loop
     vertex  2.232468e-01  1.943337e-01  4.151546e-01
     vertex  2.238801e-01  1.943337e-01  4.156434e-01
     vertex  2.242114e-01  1.943337e-01  4.145820e-01
   endloop
 endfacet
 facet normal  1.426629e-12  1.000000e+00  2.722171e-11
   outer loop
     vertex  2.232468e-01  1.943337e-01  4.151546e-01
     vertex  2.242114e-01  1.943337e-01  4.145820e-01
     vertex  2.234125e-01  1.943337e-01  4.146239e-01
   endloop
 endfacet
 facet normal  0.000000e+00  1.000000e+00  0.000000e+00
   outer loop
     vertex  2.229371e-01  1.943337e-01  4.162327e-01
     vertex  2.232468e-01  1.943337e-01  4.151546e-01
     vertex  2.227754e-01  1.943337e-01  4.154492e-01
   endloop
 endfacet
 facet normal  2.669591e-11  1.000000e+00 -5.512262e-12
   outer loop
     vertex  2.229371e-01  1.943337e-01  4.162327e-01
     vertex  2.227754e-01  1.943337e-01  4.154492e-01
     vertex  2.222257e-01  1.943337e-01  4.153654e-01
   endloop
 endfacet
 facet normal  0.000000e+00  1.000000e+00  0.000000e+00
   outer loop
     vertex  2.229371e-01  1.943337e-01  4.162327e-01
     vertex  2.238801e-01  1.943337e-01  4.156434e-01
     vertex  2.232468e-01  1.943337e-01  4.151546e-01
   endloop
 endfacet
 facet normal  1.192066e-11  1.000000e+00  6.607729e-12
   outer loop
     vertex  2.218379e-01  1.943337e-01  4.160651e-01
     vertex  2.229371e-01  1.943337e-01  4.162327e-01
     vertex  2.222257e-01  1.943337e-01  4.153654e-01
   endloop
 endfacet
 facet normal  0.000000e+00  1.000000e+00  0.000000e+00
   outer loop
     vertex  2.196807e-01  1.943337e-01  4.139547e-01
     vertex  2.218379e-01  1.943337e-01  4.160651e-01
     vertex  2.222257e-01  1.943337e-01  4.153654e-01
   endloop
 endfacet
 facet normal -0.000000e+00  1.000000e+00  0.000000e+00
   outer loop
     vertex  2.192928e-01  1.943337e-01  4.146544e-01
     vertex  2.218379e-01  1.943337e-01  4.160651e-01
     vertex  2.196807e-01  1.943337e-01  4.139547e-01
   endloop
 endfacet
 facet normal -1.367388e-11  1.000000e+00  2.575468e-12
   outer loop
     vertex  2.187569e-01  1.943337e-01  4.145679e-01
     vertex  2.196807e-01  1.943337e-01  4.139547e-01
     vertex  2.186088e-01  1.943337e-01  4.137817e-01
   endloop
 endfacet
 facet normal -2.433946e-11  1.000000e+00 -1.349158e-11
   outer loop
     vertex  2.187569e-01  1.943337e-01  4.145679e-01
     vertex  2.192928e-01  1.943337e-01  4.146544e-01
     vertex  2.196807e-01  1.943337e-01  4.139547e-01
   endloop
 endfacet
 facet normal  0.000000e+00  1.000000e+00  0.000000e+00
   outer loop
     vertex  2.176734e-01  1.943337e-01  4.143328e-01
     vertex  2.182892e-01  1.943337e-01  4.148434e-01
     vertex  2.187569e-01  1.943337e-01  4.145679e-01
   endloop
 endfacet
 facet normal -0.000000e+00  1.000000e+00  0.000000e+00
   outer loop
     vertex  2.176734e-01  1.943337e-01  4.143328e-01
     vertex  2.187569e-01  1.943337e-01  4.145679e-01
     vertex  2.186088e-01  1.943337e-01  4.137817e-01
   endloop
 endfacet
 facet normal  0.000000e+00  1.000000e+00 -2.782862e-11
   outer loop
     vertex  2.173050e-01  1.943337e-01  4.153541e-01
     vertex  2.181050e-01  1.943337e-01  4.153541e-01
     vertex  2.182892e-01  1.943337e-01  4.148434e-01
   endloop
 endfacet
 facet normal  8.881784e-12  1.000000e+00 -1.071083e-11
   outer loop
     vertex  2.173050e-01  1.943337e-01  4.153541e-01
     vertex  2.182892e-01  1.943337e-01  4.148434e-01
     vertex  2.176734e-01  1.943337e-01  4.143328e-01
   endloop
 endfacet
 facet normal  0.000000e+00  1.000000e+00  0.000000e+00
   outer loop
     vertex  2.194607e-01  1.943337e-01  4.500295e-01
     vertex  2.225341e-01  1.943337e-01  4.481737e-01
     vertex  2.219784e-01  1.943337e-01  4.475982e-01
   endloop
 endfacet
 facet normal  0.000000e+00  1.000000e+00  0.000000e+00
   outer loop
     vertex  2.200165e-01  1.943337e-01  4.506050e-01
     vertex  2.225341e-01  1.943337e-01  4.481737e-01
     vertex  2.194607e-01  1.943337e-01  4.500295e-01
   endloop
 endfacet
 facet normal -1.817694e-11  1.000000e+00  1.755326e-11
   outer loop
     vertex  2.188957e-01  1.943337e-01  4.502540e-01
     vertex  2.200165e-01  1.943337e-01  4.506050e-01
     vertex  2.194607e-01  1.943337e-01  4.500295e-01
   endloop
 endfacet
 facet normal -1.263360e-11  1.000000e+00 -1.470053e-13
   outer loop
     vertex  2.188864e-01  1.943337e-01  4.510540e-01
     vertex  2.200165e-01  1.943337e-01  4.506050e-01
     vertex  2.188957e-01  1.943337e-01  4.502540e-01
   endloop
 endfacet
 facet normal  0.000000e+00  1.000000e+00  0.000000e+00
   outer loop
     vertex  2.177671e-01  1.943337e-01  4.505788e-01
     vertex  2.188957e-01  1.943337e-01  4.502540e-01
     vertex  2.183360e-01  1.943337e-01  4.500165e-01
   endloop
 endfacet
 facet normal  1.776357e-11  1.000000e+00  1.797147e-11
   outer loop
     vertex  2.177671e-01  1.943337e-01  4.505788e-01
     vertex  2.183360e-01  1.943337e-01  4.500165e-01
     vertex  2.181050e-01  1.943337e-01  4.494541e-01
   endloop
 endfacet
 facet normal -0.000000e+00  1.000000e+00  0.000000e+00
   outer loop
     vertex  2.177671e-01  1.943337e-01  4.505788e-01
     vertex  2.188864e-01  1.943337e-01  4.510540e-01
     vertex  2.188957e-01  1.943337e-01  4.502540e-01
   endloop
 endfacet
 facet normal  0.000000e+00  1.000000e+00  1.263446e-11
   outer loop
     vertex  2.177671e-01  1.943337e-01  4.505788e-01
     vertex  2.181050e-01  1.943337e-01  4.494541e-01
     vertex  2.173050e-01  1.943337e-01  4.494541e-01
   endloop
 endfacet
 facet normal  0.000000e+00  1.000000e+00 -0.000000e+00
   outer loop
     vertex  2.181050e-01  1.943337e-01  4.153541e-01
     vertex  2.173050e-01  1.943337e-01  4.153541e-01
     vertex  2.181050e-01  1.943337e-01  4.494541e-01
   endloop
 endfacet
 facet normal  0.000000e+00  1.000000e+00  0.000000e+00
   outer loop
     vertex  2.173050e-01  1.943337e-01  4.153541e-01
     vertex  2.173050e-01  1.943337e-01  4.494541e-01
     vertex  2.181050e-01  1.943337e-01  4.494541e-01
   endloop
 endfacet
 facet normal -4.848096e-01  0.000000e+00  8.746197e-01
   outer loop
     vertex  2.218379e-01  1.943337e-01  4.160651e-01
     vertex  2.192928e-01  1.803337e-01  4.146544e-01
     vertex  2.218379e-01  1.803337e-01  4.160651e-01
   endloop
 endfacet
 facet normal -4.848096e-01  0.000000e+00  8.746197e-01
   outer loop
     vertex  2.192928e-01  1.943337e-01  4.146544e-01
     vertex  2.192928e-01  1.803337e-01  4.146544e-01
     vertex  2.218379e-01  1.943337e-01  4.160651e-01
   endloop
 endfacet
 facet normal  9.406835e-01  0.000000e+00  3.392852e-01
   outer loop
     vertex  2.182892e-01  1.803337e-01  4.148434e-01
     vertex  2.181050e-01  1.943337e-01  4.153541e-01
     vertex  2.181050e-01  1.803337e-01  4.153541e-01
   endloop
 endfacet
 facet normal  9.406835e-01 -0.000000e+00  3.392852e-01
   outer loop
     vertex  2.182892e-01  1.803337e-01  4.148434e-01
     vertex  2.182892e-01  1.943337e-01  4.148434e-01
     vertex  2.181050e-01  1.943337e-01  4.153541e-01
   endloop
 endfacet
 facet normal  5.075384e-01 -0.000000e+00  8.616292e-01
   outer loop
     vertex  2.187569e-01  1.803337e-01  4.145679e-01
     vertex  2.187569e-01  1.943337e-01  4.145679e-01
     vertex  2.182892e-01  1.943337e-01  4.148434e-01
   endloop
 endfacet
 facet normal  5.075384e-01  0.000000e+00  8.616292e-01
   outer loop
     vertex  2.187569e-01  1.803337e-01  4.145679e-01
     vertex  2.182892e-01  1.943337e-01  4.148434e-01
     vertex  2.182892e-01  1.803337e-01  4.148434e-01
   endloop
 endfacet
 facet normal -1.593069e-01  0.000000e+00  9.872291e-01
   outer loop
     vertex  2.192928e-01  1.803337e-01  4.146544e-01
     vertex  2.192928e-01  1.943337e-01  4.146544e-01
     vertex  2.187569e-01  1.943337e-01  4.145679e-01
   endloop
 endfacet
 facet normal -1.593069e-01  0.000000e+00  9.872291e-01
   outer loop
     vertex  2.192928e-01  1.803337e-01  4.146544e-01
     vertex  2.187569e-01  1.943337e-01  4.145679e-01
     vertex  2.187569e-01  1.803337e-01  4.145679e-01
   endloop
 endfacet
 facet normal -3.692061e-01  0.000000e+00 -9.293475e-01
   outer loop
     vertex  2.188957e-01  1.902337e-01  4.502540e-01
     vertex  2.194607e-01  1.943337e-01  4.500295e-01
     vertex  2.194607e-01  1.902337e-01  4.500295e-01
   endloop
 endfacet
 facet normal -3.692061e-01  0.000000e+00 -9.293475e-01
   outer loop
     vertex  2.188957e-01  1.902337e-01  4.502540e-01
     vertex  2.188957e-01  1.943337e-01  4.502540e-01
     vertex  2.194607e-01  1.943337e-01  4.500295e-01
   endloop
 endfacet
 facet normal  3.907311e-01  0.000000e+00 -9.205049e-01
   outer loop
     vertex  2.183360e-01  1.902337e-01  4.500165e-01
     vertex  2.183360e-01  1.943337e-01  4.500165e-01
     vertex  2.188957e-01  1.943337e-01  4.502540e-01
   endloop
 endfacet
 facet normal  3.907311e-01  0.000000e+00 -9.205049e-01
   outer loop
     vertex  2.183360e-01  1.902337e-01  4.500165e-01
     vertex  2.188957e-01  1.943337e-01  4.502540e-01
     vertex  2.188957e-01  1.902337e-01  4.502540e-01
   endloop
 endfacet
 facet normal  9.249888e-01  0.000000e+00 -3.799944e-01
   outer loop
     vertex  2.181050e-01  1.902337e-01  4.494541e-01
     vertex  2.181050e-01  1.943337e-01  4.494541e-01
     vertex  2.183360e-01  1.943337e-01  4.500165e-01
   endloop
 endfacet
 facet normal  9.249888e-01  0.000000e+00 -3.799944e-01
   outer loop
     vertex  2.181050e-01  1.902337e-01  4.494541e-01
     vertex  2.183360e-01  1.943337e-01  4.500165e-01
     vertex  2.183360e-01  1.902337e-01  4.500165e-01
   endloop
 endfacet
 facet normal  0.000000e+00 -1.000000e+00  0.000000e+00
   outer loop
     vertex  2.194607e-01  1.902337e-01  4.500295e-01
     vertex  2.219784e-01  1.902337e-01  4.475982e-01
     vertex  2.225341e-01  1.902337e-01  4.481737e-01
   endloop
 endfacet
 facet normal  0.000000e+00 -1.000000e+00 -0.000000e+00
   outer loop
     vertex  2.200165e-01  1.902337e-01  4.506050e-01
     vertex  2.194607e-01  1.902337e-01  4.500295e-01
     vertex  2.225341e-01  1.902337e-01  4.481737e-01
   endloop
 endfacet
 facet normal  1.817694e-11 -1.000000e+00 -1.755326e-11
   outer loop
     vertex  2.188957e-01  1.902337e-01  4.502540e-01
     vertex  2.194607e-01  1.902337e-01  4.500295e-01
     vertex  2.200165e-01  1.902337e-01  4.506050e-01
   endloop
 endfacet
 facet normal  0.000000e+00 -1.000000e+00  0.000000e+00
   outer loop
     vertex  2.173050e-01  1.902337e-01  4.494541e-01
     vertex  2.173050e-01  1.902337e-01  4.423541e-01
     vertex  2.181050e-01  1.902337e-01  4.423541e-01
   endloop
 endfacet
 facet normal  0.000000e+00 -1.000000e+00  0.000000e+00
   outer loop
     vertex  2.173050e-01  1.902337e-01  4.494541e-01
     vertex  2.181050e-01  1.902337e-01  4.423541e-01
     vertex  2.181050e-01  1.902337e-01  4.494541e-01
   endloop
 endfacet
 facet normal  0.000000e+00 -1.000000e+00 -2.526891e-11
   outer loop
     vertex  2.173050e-01  1.902337e-01  4.494541e-01
     vertex  2.181050e-01  1.902337e-01  4.494541e-01
     vertex  2.183360e-01  1.902337e-01  4.500165e-01
   endloop
 endfacet
 facet normal  1.263360e-11 -1.000000e+00  1.470053e-13
   outer loop
     vertex  2.188864e-01  1.902337e-01  4.510540e-01
     vertex  2.188957e-01  1.902337e-01  4.502540e-01
     vertex  2.200165e-01  1.902337e-01  4.506050e-01
   endloop
 endfacet
 facet normal  0.000000e+00 -1.000000e+00  0.000000e+00
   outer loop
     vertex  2.177671e-01  1.902337e-01  4.505788e-01
     vertex  2.183360e-01  1.902337e-01  4.500165e-01
     vertex  2.188957e-01  1.902337e-01  4.502540e-01
   endloop
 endfacet
 facet normal  0.000000e+00 -1.000000e+00  0.000000e+00
   outer loop
     vertex  2.177671e-01  1.902337e-01  4.505788e-01
     vertex  2.188957e-01  1.902337e-01  4.502540e-01
     vertex  2.188864e-01  1.902337e-01  4.510540e-01
   endloop
 endfacet
 facet normal -8.881784e-12 -1.000000e+00 -8.985734e-12
   outer loop
     vertex  2.177671e-01  1.902337e-01  4.505788e-01
     vertex  2.173050e-01  1.902337e-01  4.494541e-01
     vertex  2.183360e-01  1.902337e-01  4.500165e-01
   endloop
 endfacet
 facet normal  3.692061e-01  0.000000e+00  9.293475e-01
   outer loop
     vertex  2.188864e-01  1.902337e-01  4.510540e-01
     vertex  2.200165e-01  1.902337e-01  4.506050e-01
     vertex  2.200165e-01  1.943337e-01  4.506050e-01
   endloop
 endfacet
 facet normal -3.907311e-01  0.000000e+00  9.205049e-01
   outer loop
     vertex  2.188864e-01  1.902337e-01  4.510540e-01
     vertex  2.188864e-01  1.943337e-01  4.510540e-01
     vertex  2.177671e-01  1.943337e-01  4.505788e-01
   endloop
 endfacet
 facet normal  3.692061e-01 -0.000000e+00  9.293475e-01
   outer loop
     vertex  2.188864e-01  1.902337e-01  4.510540e-01
     vertex  2.200165e-01  1.943337e-01  4.506050e-01
     vertex  2.188864e-01  1.943337e-01  4.510540e-01
   endloop
 endfacet
 facet normal -3.907311e-01  0.000000e+00  9.205049e-01
   outer loop
     vertex  2.177671e-01  1.902337e-01  4.505788e-01
     vertex  2.188864e-01  1.902337e-01  4.510540e-01
     vertex  2.177671e-01  1.943337e-01  4.505788e-01
   endloop
 endfacet
 facet normal -9.249888e-01  0.000000e+00  3.799944e-01
   outer loop
     vertex  2.173050e-01  1.902337e-01  4.494541e-01
     vertex  2.177671e-01  1.943337e-01  4.505788e-01
     vertex  2.173050e-01  1.943337e-01  4.494541e-01
   endloop
 endfacet
 facet normal -9.249888e-01  0.000000e+00  3.799944e-01
   outer loop
     vertex  2.173050e-01  1.902337e-01  4.494541e-01
     vertex  2.177671e-01  1.902337e-01  4.505788e-01
     vertex  2.177671e-01  1.943337e-01  4.505788e-01
   endloop
 endfacet
 facet normal  6.946584e-01 -0.000000e+00  7.193398e-01
   outer loop
     vertex  2.225341e-01  1.902337e-01  4.481737e-01
     vertex  2.225341e-01  1.943337e-01  4.481737e-01
     vertex  2.200165e-01  1.943337e-01  4.506050e-01
   endloop
 endfacet
 facet normal  6.946584e-01 -0.000000e+00  7.193398e-01
   outer loop
     vertex  2.200165e-01  1.902337e-01  4.506050e-01
     vertex  2.225341e-01  1.902337e-01  4.481737e-01
     vertex  2.200165e-01  1.943337e-01  4.506050e-01
   endloop
 endfacet
 facet normal  7.193398e-01  0.000000e+00 -6.946584e-01
   outer loop
     vertex  2.219784e-01  1.943337e-01  4.475982e-01
     vertex  2.225341e-01  1.943337e-01  4.481737e-01
     vertex  2.225341e-01  1.902337e-01  4.481737e-01
   endloop
 endfacet
 facet normal  7.193398e-01  0.000000e+00 -6.946584e-01
   outer loop
     vertex  2.219784e-01  1.943337e-01  4.475982e-01
     vertex  2.225341e-01  1.902337e-01  4.481737e-01
     vertex  2.219784e-01  1.902337e-01  4.475982e-01
   endloop
 endfacet
 facet normal -6.946584e-01  0.000000e+00 -7.193398e-01
   outer loop
     vertex  2.194607e-01  1.943337e-01  4.500295e-01
     vertex  2.219784e-01  1.943337e-01  4.475982e-01
     vertex  2.219784e-01  1.902337e-01  4.475982e-01
   endloop
 endfacet
 facet normal -6.946584e-01 -0.000000e+00 -7.193398e-01
   outer loop
     vertex  2.194607e-01  1.943337e-01  4.500295e-01
     vertex  2.219784e-01  1.902337e-01  4.475982e-01
     vertex  2.194607e-01  1.902337e-01  4.500295e-01
   endloop
 endfacet
 facet normal  0.000000e+00 -0.000000e+00  1.000000e+00
   outer loop
     vertex  2.179050e-01  1.888337e-01  4.423541e-01
     vertex  2.181050e-01  1.902337e-01  4.423541e-01
     vertex  2.173050e-01  1.902337e-01  4.423541e-01
   endloop
 endfacet
 facet normal  0.000000e+00  0.000000e+00  1.000000e+00
   outer loop
     vertex  2.173050e-01  1.888337e-01  4.423541e-01
     vertex  2.179050e-01  1.888337e-01  4.423541e-01
     vertex  2.173050e-01  1.902337e-01  4.423541e-01
   endloop
 endfacet
 facet normal  0.000000e+00  0.000000e+00  1.000000e+00
   outer loop
     vertex  2.173050e-01  1.844337e-01  4.423541e-01
     vertex  2.179050e-01  1.858337e-01  4.423541e-01
     vertex  2.173050e-01  1.858337e-01  4.423541e-01
   endloop
 endfacet
 facet normal  0.000000e+00  0.000000e+00  1.000000e+00
   outer loop
     vertex  2.173050e-01  1.844337e-01  4.423541e-01
     vertex  2.181050e-01  1.844337e-01  4.423541e-01
     vertex  2.179050e-01  1.858337e-01  4.423541e-01
   endloop
 endfacet
 facet normal  0.000000e+00 -0.000000e+00  1.000000e+00
   outer loop
     vertex  2.181050e-01  1.844337e-01  4.423541e-01
     vertex  2.181050e-01  1.902337e-01  4.423541e-01
     vertex  2.179050e-01  1.888337e-01  4.423541e-01
   endloop
 endfacet
 facet normal  0.000000e+00  0.000000e+00  1.000000e+00
   outer loop
     vertex  2.181050e-01  1.844337e-01  4.423541e-01
     vertex  2.179050e-01  1.888337e-01  4.423541e-01
     vertex  2.179050e-01  1.858337e-01  4.423541e-01
   endloop
 endfacet
 facet normal  0.000000e+00 -1.000000e+00  0.000000e+00
   outer loop
     vertex  2.173050e-01  1.858337e-01  4.425541e-01
     vertex  2.173050e-01  1.858337e-01  4.423541e-01
     vertex  2.179050e-01  1.858337e-01  4.423541e-01
   endloop
 endfacet
 facet normal  0.000000e+00 -1.000000e+00  0.000000e+00
   outer loop
     vertex  2.173050e-01  1.858337e-01  4.425541e-01
     vertex  2.179050e-01  1.858337e-01  4.423541e-01
     vertex  2.179050e-01  1.858337e-01  4.426254e-01
   endloop
 endfacet
 facet normal  2.430144e-11 -1.000000e+00 -2.043775e-10
   outer loop
     vertex  2.173070e-01  1.858337e-01  4.426238e-01
     vertex  2.173050e-01  1.858337e-01  4.425541e-01
     vertex  2.179050e-01  1.858337e-01  4.426254e-01
   endloop
 endfacet
 facet normal -2.269134e-11 -1.000000e+00 -4.066805e-10
   outer loop
     vertex  2.173131e-01  1.858337e-01  4.426934e-01
     vertex  2.179050e-01  1.858337e-01  4.426254e-01
     vertex  2.179060e-01  1.858337e-01  4.426603e-01
   endloop
 endfacet
 facet normal  2.377063e-11 -1.000000e+00 -2.079661e-12
   outer loop
     vertex  2.173131e-01  1.858337e-01  4.426934e-01
     vertex  2.173070e-01  1.858337e-01  4.426238e-01
     vertex  2.179050e-01  1.858337e-01  4.426254e-01
   endloop
 endfacet
 facet normal -2.401613e-11 -1.000000e+00  2.101139e-12
   outer loop
     vertex  2.173232e-01  1.858337e-01  4.427624e-01
     vertex  2.179060e-01  1.858337e-01  4.426603e-01
     vertex  2.179091e-01  1.858337e-01  4.426951e-01
   endloop
 endfacet
 facet normal  2.269045e-11 -1.000000e+00  4.081897e-10
   outer loop
     vertex  2.173232e-01  1.858337e-01  4.427624e-01
     vertex  2.179091e-01  1.858337e-01  4.426951e-01
     vertex  2.179141e-01  1.858337e-01  4.427296e-01
   endloop
 endfacet
 facet normal  1.138743e-11 -1.000000e+00  2.040886e-10
   outer loop
     vertex  2.173232e-01  1.858337e-01  4.427624e-01
     vertex  2.173131e-01  1.858337e-01  4.426934e-01
     vertex  2.179060e-01  1.858337e-01  4.426603e-01
   endloop
 endfacet
 facet normal  0.000000e+00 -1.000000e+00 -0.000000e+00
   outer loop
     vertex  2.185419e-01  1.858337e-01  4.496736e-01
     vertex  2.179141e-01  1.858337e-01  4.427296e-01
     vertex  2.191205e-01  1.858337e-01  4.495716e-01
   endloop
 endfacet
 facet normal  0.000000e+00 -1.000000e+00  0.000000e+00
   outer loop
     vertex  2.185419e-01  1.858337e-01  4.496736e-01
     vertex  2.173232e-01  1.858337e-01  4.427624e-01
     vertex  2.179141e-01  1.858337e-01  4.427296e-01
   endloop
 endfacet
 facet normal  9.848078e-01  0.000000e+00 -1.736482e-01
   outer loop
     vertex  2.179141e-01  1.888337e-01  4.427296e-01
     vertex  2.191205e-01  1.888337e-01  4.495716e-01
     vertex  2.191205e-01  1.858337e-01  4.495716e-01
   endloop
 endfacet
 facet normal  9.848078e-01  0.000000e+00 -1.736482e-01
   outer loop
     vertex  2.179141e-01  1.888337e-01  4.427296e-01
     vertex  2.191205e-01  1.858337e-01  4.495716e-01
     vertex  2.179141e-01  1.858337e-01  4.427296e-01
   endloop
 endfacet
 facet normal  1.736482e-01  0.000000e+00  9.848078e-01
   outer loop
     vertex  2.185419e-01  1.888337e-01  4.496736e-01
     vertex  2.185419e-01  1.858337e-01  4.496736e-01
     vertex  2.191205e-01  1.858337e-01  4.495716e-01
   endloop
 endfacet
 facet normal  1.736482e-01  0.000000e+00  9.848078e-01
   outer loop
     vertex  2.185419e-01  1.888337e-01  4.496736e-01
     vertex  2.191205e-01  1.858337e-01  4.495716e-01
     vertex  2.191205e-01  1.888337e-01  4.495716e-01
   endloop
 endfacet
 facet normal -9.848078e-01  0.000000e+00  1.736482e-01
   outer loop
     vertex  2.173232e-01  1.858337e-01  4.427624e-01
     vertex  2.185419e-01  1.858337e-01  4.496736e-01
     vertex  2.185419e-01  1.888337e-01  4.496736e-01
   endloop
 endfacet
 facet normal -9.848078e-01  0.000000e+00  1.736482e-01
   outer loop
     vertex  2.173232e-01  1.888337e-01  4.427624e-01
     vertex  2.173232e-01  1.858337e-01  4.427624e-01
     vertex  2.185419e-01  1.888337e-01  4.496736e-01
   endloop
 endfacet
 facet normal -9.995770e-01  0.000000e+00  2.908472e-02
   outer loop
     vertex  2.173070e-01  1.888337e-01  4.426238e-01
     vertex  2.173050e-01  1.888337e-01  4.425541e-01
     vertex  2.173050e-01  1.858337e-01  4.425541e-01
   endloop
 endfacet
 facet normal -9.995770e-01  0.000000e+00  2.908472e-02
   outer loop
     vertex  2.173070e-01  1.888337e-01  4.426238e-01
     vertex  2.173050e-01  1.858337e-01  4.425541e-01
     vertex  2.173070e-01  1.858337e-01  4.426238e-01
   endloop
 endfacet
 facet normal -9.961947e-01  0.000000e+00  8.715574e-02
   outer loop
     vertex  2.173131e-01  1.888337e-01  4.426934e-01
     vertex  2.173070e-01  1.858337e-01  4.426238e-01
     vertex  2.173131e-01  1.858337e-01  4.426934e-01
   endloop
 endfacet
 facet normal -9.961947e-01  0.000000e+00  8.715574e-02
   outer loop
     vertex  2.173131e-01  1.888337e-01  4.426934e-01
     vertex  2.173070e-01  1.888337e-01  4.426238e-01
     vertex  2.173070e-01  1.858337e-01  4.426238e-01
   endloop
 endfacet
 facet normal -9.894416e-01  0.000000e+00  1.449319e-01
   outer loop
     vertex  2.173232e-01  1.888337e-01  4.427624e-01
     vertex  2.173131e-01  1.858337e-01  4.426934e-01
     vertex  2.173232e-01  1.858337e-01  4.427624e-01
   endloop
 endfacet
 facet normal -9.894416e-01  0.000000e+00  1.449319e-01
   outer loop
     vertex  2.173232e-01  1.888337e-01  4.427624e-01
     vertex  2.173131e-01  1.888337e-01  4.426934e-01
     vertex  2.173131e-01  1.858337e-01  4.426934e-01
   endloop
 endfacet
 facet normal  0.000000e+00  1.000000e+00  0.000000e+00
   outer loop
     vertex  2.173050e-01  1.888337e-01  4.425541e-01
     vertex  2.179050e-01  1.888337e-01  4.423541e-01
     vertex  2.173050e-01  1.888337e-01  4.423541e-01
   endloop
 endfacet
 facet normal -0.000000e+00  1.000000e+00  0.000000e+00
   outer loop
     vertex  2.173050e-01  1.888337e-01  4.425541e-01
     vertex  2.179050e-01  1.888337e-01  4.426254e-01
     vertex  2.179050e-01  1.888337e-01  4.423541e-01
   endloop
 endfacet
 facet normal -2.430144e-11  1.000000e+00  2.043775e-10
   outer loop
     vertex  2.173070e-01  1.888337e-01  4.426238e-01
     vertex  2.179050e-01  1.888337e-01  4.426254e-01
     vertex  2.173050e-01  1.888337e-01  4.425541e-01
   endloop
 endfacet
 facet normal  2.269134e-11  1.000000e+00  4.066805e-10
   outer loop
     vertex  2.173131e-01  1.888337e-01  4.426934e-01
     vertex  2.179060e-01  1.888337e-01  4.426603e-01
     vertex  2.179050e-01  1.888337e-01  4.426254e-01
   endloop
 endfacet
 facet normal -2.377063e-11  1.000000e+00  2.079661e-12
   outer loop
     vertex  2.173131e-01  1.888337e-01  4.426934e-01
     vertex  2.179050e-01  1.888337e-01  4.426254e-01
     vertex  2.173070e-01  1.888337e-01  4.426238e-01
   endloop
 endfacet
 facet normal -2.269045e-11  1.000000e+00 -4.081897e-10
   outer loop
     vertex  2.173232e-01  1.888337e-01  4.427624e-01
     vertex  2.179141e-01  1.888337e-01  4.427296e-01
     vertex  2.179091e-01  1.888337e-01  4.426951e-01
   endloop
 endfacet
 facet normal  2.401613e-11  1.000000e+00 -2.101139e-12
   outer loop
     vertex  2.173232e-01  1.888337e-01  4.427624e-01
     vertex  2.179091e-01  1.888337e-01  4.426951e-01
     vertex  2.179060e-01  1.888337e-01  4.426603e-01
   endloop
 endfacet
 facet normal -1.138743e-11  1.000000e+00 -2.040886e-10
   outer loop
     vertex  2.173232e-01  1.888337e-01  4.427624e-01
     vertex  2.179060e-01  1.888337e-01  4.426603e-01
     vertex  2.173131e-01  1.888337e-01  4.426934e-01
   endloop
 endfacet
 facet normal  0.000000e+00  1.000000e+00  0.000000e+00
   outer loop
     vertex  2.185419e-01  1.888337e-01  4.496736e-01
     vertex  2.191205e-01  1.888337e-01  4.495716e-01
     vertex  2.179141e-01  1.888337e-01  4.427296e-01
   endloop
 endfacet
 facet normal  0.000000e+00  1.000000e+00  0.000000e+00
   outer loop
     vertex  2.185419e-01  1.888337e-01  4.496736e-01
     vertex  2.179141e-01  1.888337e-01  4.427296e-01
     vertex  2.173232e-01  1.888337e-01  4.427624e-01
   endloop
 endfacet
 facet normal  1.000000e+00  0.000000e+00  0.000000e+00
   outer loop
     vertex  2.179050e-01  1.888337e-01  4.423541e-01
     vertex  2.179050e-01  1.858337e-01  4.426254e-01
     vertex  2.179050e-01  1.858337e-01  4.423541e-01
   endloop
 endfacet
 facet normal  1.000000e+00  0.000000e+00  0.000000e+00
   outer loop
     vertex  2.179050e-01  1.888337e-01  4.426254e-01
     vertex  2.179050e-01  1.858337e-01  4.426254e-01
     vertex  2.179050e-01  1.888337e-01  4.423541e-01
   endloop
 endfacet
 facet normal  9.995770e-01  0.000000e+00 -2.908472e-02
   outer loop
     vertex  2.179060e-01  1.888337e-01  4.426603e-01
     vertex  2.179050e-01  1.858337e-01  4.426254e-01
     vertex  2.179050e-01  1.888337e-01  4.426254e-01
   endloop
 endfacet
 facet normal  9.995770e-01  0.000000e+00 -2.908472e-02
   outer loop
     vertex  2.179060e-01  1.888337e-01  4.426603e-01
     vertex  2.179060e-01  1.858337e-01  4.426603e-01
     vertex  2.179050e-01  1.858337e-01  4.426254e-01
   endloop
 endfacet
 facet normal  9.961947e-01  0.000000e+00 -8.715574e-02
   outer loop
     vertex  2.179091e-01  1.888337e-01  4.426951e-01
     vertex  2.179091e-01  1.858337e-01  4.426951e-01
     vertex  2.179060e-01  1.858337e-01  4.426603e-01
   endloop
 endfacet
 facet normal  9.961947e-01  0.000000e+00 -8.715574e-02
   outer loop
     vertex  2.179091e-01  1.888337e-01  4.426951e-01
     vertex  2.179060e-01  1.858337e-01  4.426603e-01
     vertex  2.179060e-01  1.888337e-01  4.426603e-01
   endloop
 endfacet
 facet normal  9.894416e-01  0.000000e+00 -1.449319e-01
   outer loop
     vertex  2.179141e-01  1.888337e-01  4.427296e-01
     vertex  2.179141e-01  1.858337e-01  4.427296e-01
     vertex  2.179091e-01  1.858337e-01  4.426951e-01
   endloop
 endfacet
 facet normal  9.894416e-01  0.000000e+00 -1.449319e-01
   outer loop
     vertex  2.179141e-01  1.888337e-01  4.427296e-01
     vertex  2.179091e-01  1.858337e-01  4.426951e-01
     vertex  2.179091e-01  1.888337e-01  4.426951e-01
   endloop
 endfacet
 facet normal -9.406835e-01  0.000000e+00 -3.392852e-01
   outer loop
     vertex  2.176734e-01  1.803337e-01  4.143328e-01
     vertex  2.173050e-01  1.803337e-01  4.153541e-01
     vertex  2.173050e-01  1.943337e-01  4.153541e-01
   endloop
 endfacet
 facet normal -9.406835e-01  0.000000e+00 -3.392852e-01
   outer loop
     vertex  2.176734e-01  1.803337e-01  4.143328e-01
     vertex  2.173050e-01  1.943337e-01  4.153541e-01
     vertex  2.176734e-01  1.943337e-01  4.143328e-01
   endloop
 endfacet
 facet normal -5.075384e-01  0.000000e+00 -8.616292e-01
   outer loop
     vertex  2.186088e-01  1.803337e-01  4.137817e-01
     vertex  2.176734e-01  1.943337e-01  4.143328e-01
     vertex  2.186088e-01  1.943337e-01  4.137817e-01
   endloop
 endfacet
 facet normal -5.075384e-01  0.000000e+00 -8.616292e-01
   outer loop
     vertex  2.186088e-01  1.803337e-01  4.137817e-01
     vertex  2.176734e-01  1.803337e-01  4.143328e-01
     vertex  2.176734e-01  1.943337e-01  4.143328e-01
   endloop
 endfacet
 facet normal  1.593069e-01  0.000000e+00 -9.872291e-01
   outer loop
     vertex  2.196807e-01  1.803337e-01  4.139547e-01
     vertex  2.186088e-01  1.943337e-01  4.137817e-01
     vertex  2.196807e-01  1.943337e-01  4.139547e-01
   endloop
 endfacet
 facet normal  1.593069e-01  0.000000e+00 -9.872291e-01
   outer loop
     vertex  2.196807e-01  1.803337e-01  4.139547e-01
     vertex  2.186088e-01  1.803337e-01  4.137817e-01
     vertex  2.186088e-01  1.943337e-01  4.137817e-01
   endloop
 endfacet
 facet normal  4.848096e-01  0.000000e+00 -8.746197e-01
   outer loop
     vertex  2.196807e-01  1.943337e-01  4.139547e-01
     vertex  2.222257e-01  1.803337e-01  4.153654e-01
     vertex  2.196807e-01  1.803337e-01  4.139547e-01
   endloop
 endfacet
 facet normal  4.848096e-01  0.000000e+00 -8.746197e-01
   outer loop
     vertex  2.196807e-01  1.943337e-01  4.139547e-01
     vertex  2.222257e-01  1.943337e-01  4.153654e-01
     vertex  2.222257e-01  1.803337e-01  4.153654e-01
   endloop
 endfacet
 facet normal -9.545876e-01  0.000000e+00 -2.979303e-01
   outer loop
     vertex  2.234125e-01  1.803337e-01  4.146239e-01
     vertex  2.232468e-01  1.943337e-01  4.151546e-01
     vertex  2.234125e-01  1.943337e-01  4.146239e-01
   endloop
 endfacet
 facet normal -5.299193e-01  0.000000e+00 -8.480481e-01
   outer loop
     vertex  2.232468e-01  1.803337e-01  4.151546e-01
     vertex  2.227754e-01  1.943337e-01  4.154492e-01
     vertex  2.232468e-01  1.943337e-01  4.151546e-01
   endloop
 endfacet
 facet normal -9.545876e-01  0.000000e+00 -2.979303e-01
   outer loop
     vertex  2.232468e-01  1.803337e-01  4.151546e-01
     vertex  2.232468e-01  1.943337e-01  4.151546e-01
     vertex  2.234125e-01  1.803337e-01  4.146239e-01
   endloop
 endfacet
 facet normal  1.506857e-01  0.000000e+00 -9.885817e-01
   outer loop
     vertex  2.227754e-01  1.803337e-01  4.154492e-01
     vertex  2.222257e-01  1.943337e-01  4.153654e-01
     vertex  2.227754e-01  1.943337e-01  4.154492e-01
   endloop
 endfacet
 facet normal -5.299193e-01  0.000000e+00 -8.480481e-01
   outer loop
     vertex  2.227754e-01  1.803337e-01  4.154492e-01
     vertex  2.227754e-01  1.943337e-01  4.154492e-01
     vertex  2.232468e-01  1.803337e-01  4.151546e-01
   endloop
 endfacet
 facet normal  1.506857e-01  0.000000e+00 -9.885817e-01
   outer loop
     vertex  2.222257e-01  1.803337e-01  4.153654e-01
     vertex  2.222257e-01  1.943337e-01  4.153654e-01
     vertex  2.227754e-01  1.803337e-01  4.154492e-01
   endloop
 endfacet
 facet normal -1.690921e-02  9.463683e-01 -3.226470e-01
   outer loop
     vertex  2.238936e-01  1.942924e-01  4.085181e-01
     vertex  2.230869e-01  1.942414e-01  4.084108e-01
     vertex  2.230947e-01  1.942924e-01  4.085600e-01
   endloop
 endfacet
 facet normal -1.690921e-02  9.463683e-01 -3.226470e-01
   outer loop
     vertex  2.238936e-01  1.942924e-01  4.085181e-01
     vertex  2.238858e-01  1.942414e-01  4.083690e-01
     vertex  2.230869e-01  1.942414e-01  4.084108e-01
   endloop
 endfacet
 facet normal -1.026393e-02  9.805807e-01 -1.958474e-01
   outer loop
     vertex  2.239017e-01  1.943233e-01  4.086726e-01
     vertex  2.230947e-01  1.942924e-01  4.085600e-01
     vertex  2.231028e-01  1.943233e-01  4.087145e-01
   endloop
 endfacet
 facet normal -1.026393e-02  9.805807e-01 -1.958474e-01
   outer loop
     vertex  2.239017e-01  1.943233e-01  4.086726e-01
     vertex  2.238936e-01  1.942924e-01  4.085181e-01
     vertex  2.230947e-01  1.942924e-01  4.085600e-01
   endloop
 endfacet
 facet normal -3.441144e-03  9.978361e-01 -6.566094e-02
   outer loop
     vertex  2.239099e-01  1.943337e-01  4.088299e-01
     vertex  2.231028e-01  1.943233e-01  4.087145e-01
     vertex  2.231110e-01  1.943337e-01  4.088717e-01
   endloop
 endfacet
 facet normal -3.441144e-03  9.978361e-01 -6.566094e-02
   outer loop
     vertex  2.239099e-01  1.943337e-01  4.088299e-01
     vertex  2.239017e-01  1.943233e-01  4.086726e-01
     vertex  2.231028e-01  1.943233e-01  4.087145e-01
   endloop
 endfacet
 facet normal -2.012921e-02  9.230769e-01 -3.840883e-01
   outer loop
     vertex  2.236558e-01  1.924106e-01  4.039811e-01
     vertex  2.230869e-01  1.942414e-01  4.084108e-01
     vertex  2.238858e-01  1.942414e-01  4.083690e-01
   endloop
 endfacet
 facet normal -2.012921e-02  9.230769e-01 -3.840883e-01
   outer loop
     vertex  2.228569e-01  1.924106e-01  4.040230e-01
     vertex  2.230869e-01  1.942414e-01  4.084108e-01
     vertex  2.236558e-01  1.924106e-01  4.039811e-01
   endloop
 endfacet
 facet normal -3.705869e-02  7.061199e-01 -7.071219e-01
   outer loop
     vertex  2.227016e-01  1.894349e-01  4.010597e-01
     vertex  2.228569e-01  1.924106e-01  4.040230e-01
     vertex  2.236558e-01  1.924106e-01  4.039811e-01
   endloop
 endfacet
 facet normal -3.705869e-02  7.061199e-01 -7.071219e-01
   outer loop
     vertex  2.227016e-01  1.894349e-01  4.010597e-01
     vertex  2.236558e-01  1.924106e-01  4.039811e-01
     vertex  2.235005e-01  1.894349e-01  4.010178e-01
   endloop
 endfacet
 facet normal -5.233596e-02  0.000000e+00 -9.986295e-01
   outer loop
     vertex  2.227016e-01  1.852325e-01  4.010597e-01
     vertex  2.235005e-01  1.894349e-01  4.010178e-01
     vertex  2.235005e-01  1.852325e-01  4.010178e-01
   endloop
 endfacet
 facet normal -5.233596e-02  0.000000e+00 -9.986295e-01
   outer loop
     vertex  2.227016e-01  1.852325e-01  4.010597e-01
     vertex  2.227016e-01  1.894349e-01  4.010597e-01
     vertex  2.235005e-01  1.894349e-01  4.010178e-01
   endloop
 endfacet
 facet normal -3.705869e-02 -7.061199e-01 -7.071219e-01
   outer loop
     vertex  2.228569e-01  1.822568e-01  4.040230e-01
     vertex  2.235005e-01  1.852325e-01  4.010178e-01
     vertex  2.236558e-01  1.822568e-01  4.039811e-01
   endloop
 endfacet
 facet normal -3.705869e-02 -7.061199e-01 -7.071219e-01
   outer loop
     vertex  2.228569e-01  1.822568e-01  4.040230e-01
     vertex  2.227016e-01  1.852325e-01  4.010597e-01
     vertex  2.235005e-01  1.852325e-01  4.010178e-01
   endloop
 endfacet
 facet normal -1.690921e-02 -9.463683e-01 -3.226470e-01
   outer loop
     vertex  2.230947e-01  1.803750e-01  4.085600e-01
     vertex  2.230869e-01  1.804260e-01  4.084108e-01
     vertex  2.238858e-01  1.804260e-01  4.083690e-01
   endloop
 endfacet
 facet normal -1.690921e-02 -9.463683e-01 -3.226470e-01
   outer loop
     vertex  2.230947e-01  1.803750e-01  4.085600e-01
     vertex  2.238858e-01  1.804260e-01  4.083690e-01
     vertex  2.238936e-01  1.803750e-01  4.085181e-01
   endloop
 endfacet
 facet normal -1.026393e-02 -9.805807e-01 -1.958474e-01
   outer loop
     vertex  2.231028e-01  1.803441e-01  4.087145e-01
     vertex  2.238936e-01  1.803750e-01  4.085181e-01
     vertex  2.239017e-01  1.803441e-01  4.086726e-01
   endloop
 endfacet
 facet normal -1.026393e-02 -9.805807e-01 -1.958474e-01
   outer loop
     vertex  2.231028e-01  1.803441e-01  4.087145e-01
     vertex  2.230947e-01  1.803750e-01  4.085600e-01
     vertex  2.238936e-01  1.803750e-01  4.085181e-01
   endloop
 endfacet
 facet normal -3.441144e-03 -9.978361e-01 -6.566094e-02
   outer loop
     vertex  2.231110e-01  1.803337e-01  4.088717e-01
     vertex  2.239017e-01  1.803441e-01  4.086726e-01
     vertex  2.239099e-01  1.803337e-01  4.088299e-01
   endloop
 endfacet
 facet normal -3.441144e-03 -9.978361e-01 -6.566094e-02
   outer loop
     vertex  2.231110e-01  1.803337e-01  4.088717e-01
     vertex  2.231028e-01  1.803441e-01  4.087145e-01
     vertex  2.239017e-01  1.803441e-01  4.086726e-01
   endloop
 endfacet
 facet normal  0.000000e+00 -1.000000e+00  0.000000e+00
   outer loop
     vertex  2.237927e-01  1.903337e-01  4.065929e-01
     vertex  2.230985e-01  1.903337e-01  4.086321e-01
     vertex  2.229938e-01  1.903337e-01  4.066348e-01
   endloop
 endfacet
 facet normal  0.000000e+00 -1.000000e+00  0.000000e+00
   outer loop
     vertex  2.237927e-01  1.903337e-01  4.065929e-01
     vertex  2.238974e-01  1.903337e-01  4.085902e-01
     vertex  2.230985e-01  1.903337e-01  4.086321e-01
   endloop
 endfacet
 facet normal -5.233596e-02  0.000000e+00 -9.986295e-01
   outer loop
     vertex  2.230985e-01  1.903337e-01  4.086321e-01
     vertex  2.238974e-01  1.903337e-01  4.085902e-01
     vertex  2.238974e-01  1.843337e-01  4.085902e-01
   endloop
 endfacet
 facet normal -5.233596e-02 -0.000000e+00 -9.986295e-01
   outer loop
     vertex  2.230985e-01  1.903337e-01  4.086321e-01
     vertex  2.238974e-01  1.843337e-01  4.085902e-01
     vertex  2.230985e-01  1.843337e-01  4.086321e-01
   endloop
 endfacet
 facet normal  0.000000e+00  1.000000e+00  0.000000e+00
   outer loop
     vertex  2.238974e-01  1.843337e-01  4.085902e-01
     vertex  2.237927e-01  1.843337e-01  4.065929e-01
     vertex  2.229938e-01  1.843337e-01  4.066348e-01
   endloop
 endfacet
 facet normal  0.000000e+00  1.000000e+00  0.000000e+00
   outer loop
     vertex  2.230985e-01  1.843337e-01  4.086321e-01
     vertex  2.238974e-01  1.843337e-01  4.085902e-01
     vertex  2.229938e-01  1.843337e-01  4.066348e-01
   endloop
 endfacet
 facet normal  5.233596e-02  0.000000e+00  9.986295e-01
   outer loop
     vertex  2.229938e-01  1.843337e-01  4.066348e-01
     vertex  2.237927e-01  1.843337e-01  4.065929e-01
     vertex  2.237927e-01  1.903337e-01  4.065929e-01
   endloop
 endfacet
 facet normal  5.233596e-02 -0.000000e+00  9.986295e-01
   outer loop
     vertex  2.229938e-01  1.843337e-01  4.066348e-01
     vertex  2.237927e-01  1.903337e-01  4.065929e-01
     vertex  2.229938e-01  1.903337e-01  4.066348e-01
   endloop
 endfacet
 facet normal  0.000000e+00 -8.660254e-01 -5.000000e-01
   outer loop
     vertex  2.191050e-01  1.881587e-01  4.337830e-01
     vertex  2.173050e-01  1.889837e-01  4.323541e-01
     vertex  2.191050e-01  1.889837e-01  4.323541e-01
   endloop
 endfacet
 facet normal  2.308429e-01 -6.880086e-01 -6.880086e-01
   outer loop
     vertex  2.191050e-01  1.881587e-01  4.337830e-01
     vertex  2.173050e-01  1.873337e-01  4.340041e-01
     vertex  2.173050e-01  1.889837e-01  4.323541e-01
   endloop
 endfacet
 facet normal  2.308429e-01  6.880086e-01 -6.880086e-01
   outer loop
     vertex  2.191050e-01  1.865087e-01  4.337830e-01
     vertex  2.173050e-01  1.856837e-01  4.323541e-01
     vertex  2.173050e-01  1.873337e-01  4.340041e-01
   endloop
 endfacet
 facet normal -1.218943e-01  0.000000e+00 -9.925431e-01
   outer loop
     vertex  2.191050e-01  1.865087e-01  4.337830e-01
     vertex  2.173050e-01  1.873337e-01  4.340041e-01
     vertex  2.191050e-01  1.881587e-01  4.337830e-01
   endloop
 endfacet
 facet normal  0.000000e+00  8.660254e-01 -5.000000e-01
   outer loop
     vertex  2.191050e-01  1.856837e-01  4.323541e-01
     vertex  2.173050e-01  1.856837e-01  4.323541e-01
     vertex  2.191050e-01  1.865087e-01  4.337830e-01
   endloop
 endfacet
 facet normal  2.308429e-01  6.880086e-01  6.880086e-01
   outer loop
     vertex  2.191050e-01  1.865087e-01  4.309251e-01
     vertex  2.173050e-01  1.873337e-01  4.307041e-01
     vertex  2.173050e-01  1.856837e-01  4.323541e-01
   endloop
 endfacet
 facet normal  0.000000e+00  8.660254e-01  5.000000e-01
   outer loop
     vertex  2.191050e-01  1.865087e-01  4.309251e-01
     vertex  2.173050e-01  1.856837e-01  4.323541e-01
     vertex  2.191050e-01  1.856837e-01  4.323541e-01
   endloop
 endfacet
 facet normal  2.308429e-01 -6.880086e-01  6.880086e-01
   outer loop
     vertex  2.191050e-01  1.881587e-01  4.309251e-01
     vertex  2.173050e-01  1.889837e-01  4.323541e-01
     vertex  2.173050e-01  1.873337e-01  4.307041e-01
   endloop
 endfacet
 facet normal -1.218943e-01  0.000000e+00  9.925431e-01
   outer loop
     vertex  2.191050e-01  1.881587e-01  4.309251e-01
     vertex  2.173050e-01  1.873337e-01  4.307041e-01
     vertex  2.191050e-01  1.865087e-01  4.309251e-01
   endloop
 endfacet
 facet normal  0.000000e+00 -8.660254e-01  5.000000e-01
   outer loop
     vertex  2.191050e-01  1.889837e-01  4.323541e-01
     vertex  2.173050e-01  1.889837e-01  4.323541e-01
     vertex  2.191050e-01  1.881587e-01  4.309251e-01
   endloop
 endfacet
 facet normal  9.949359e-01 -8.704561e-02  5.025581e-02
   outer loop
     vertex  2.191050e-01  1.865087e-01  4.337830e-01
     vertex  2.190525e-01  1.850837e-01  4.323541e-01
     vertex  2.191050e-01  1.856837e-01  4.323541e-01
   endloop
 endfacet
 facet normal -5.302467e-02 -7.061120e-01  7.061120e-01
   outer loop
     vertex  2.190525e-01  1.873337e-01  4.346041e-01
     vertex  2.190525e-01  1.850837e-01  4.323541e-01
     vertex  2.191050e-01  1.865087e-01  4.337830e-01
   endloop
 endfacet
 facet normal  9.979625e-01  0.000000e+00  6.380333e-02
   outer loop
     vertex  2.191050e-01  1.881587e-01  4.337830e-01
     vertex  2.190525e-01  1.873337e-01  4.346041e-01
     vertex  2.191050e-01  1.865087e-01  4.337830e-01
   endloop
 endfacet
 facet normal  9.949359e-01  8.704561e-02  5.025581e-02
   outer loop
     vertex  2.190525e-01  1.895837e-01  4.323541e-01
     vertex  2.191050e-01  1.881587e-01  4.337830e-01
     vertex  2.191050e-01  1.889837e-01  4.323541e-01
   endloop
 endfacet
 facet normal -5.302467e-02  7.061120e-01  7.061120e-01
   outer loop
     vertex  2.190525e-01  1.895837e-01  4.323541e-01
     vertex  2.190525e-01  1.873337e-01  4.346041e-01
     vertex  2.191050e-01  1.881587e-01  4.337830e-01
   endloop
 endfacet
 facet normal  9.949359e-01  8.704561e-02 -5.025581e-02
   outer loop
     vertex  2.191050e-01  1.881587e-01  4.309251e-01
     vertex  2.190525e-01  1.895837e-01  4.323541e-01
     vertex  2.191050e-01  1.889837e-01  4.323541e-01
   endloop
 endfacet
 facet normal -5.302467e-02  7.061120e-01 -7.061120e-01
   outer loop
     vertex  2.190525e-01  1.873337e-01  4.301041e-01
     vertex  2.190525e-01  1.895837e-01  4.323541e-01
     vertex  2.191050e-01  1.881587e-01  4.309251e-01
   endloop
 endfacet
 facet normal  9.979625e-01  0.000000e+00 -6.380333e-02
   outer loop
     vertex  2.191050e-01  1.865087e-01  4.309251e-01
     vertex  2.190525e-01  1.873337e-01  4.301041e-01
     vertex  2.191050e-01  1.881587e-01  4.309251e-01
   endloop
 endfacet
 facet normal  9.949359e-01 -8.704561e-02 -5.025581e-02
   outer loop
     vertex  2.190525e-01  1.850837e-01  4.323541e-01
     vertex  2.191050e-01  1.865087e-01  4.309251e-01
     vertex  2.191050e-01  1.856837e-01  4.323541e-01
   endloop
 endfacet
 facet normal -5.302467e-02 -7.061120e-01 -7.061120e-01
   outer loop
     vertex  2.190525e-01  1.850837e-01  4.323541e-01
     vertex  2.190525e-01  1.873337e-01  4.301041e-01
     vertex  2.191050e-01  1.865087e-01  4.309251e-01
   endloop
 endfacet
 facet normal  0.000000e+00 -9.659258e-01  2.588190e-01
   outer loop
     vertex  2.186050e-01  1.853851e-01  4.334791e-01
     vertex  2.186050e-01  1.850837e-01  4.323541e-01
     vertex  2.190525e-01  1.850837e-01  4.323541e-01
   endloop
 endfacet
 facet normal  7.929195e-01 -4.308588e-01  4.308588e-01
   outer loop
     vertex  2.186050e-01  1.862087e-01  4.343026e-01
     vertex  2.190525e-01  1.850837e-01  4.323541e-01
     vertex  2.190525e-01  1.873337e-01  4.346041e-01
   endloop
 endfacet
 facet normal  7.929195e-01 -4.308588e-01  4.308588e-01
   outer loop
     vertex  2.186050e-01  1.862087e-01  4.343026e-01
     vertex  2.186050e-01  1.853851e-01  4.334791e-01
     vertex  2.190525e-01  1.850837e-01  4.323541e-01
   endloop
 endfacet
 facet normal  0.000000e+00 -2.588190e-01  9.659258e-01
   outer loop
     vertex  2.186050e-01  1.873337e-01  4.346041e-01
     vertex  2.186050e-01  1.862087e-01  4.343026e-01
     vertex  2.190525e-01  1.873337e-01  4.346041e-01
   endloop
 endfacet
 facet normal -0.000000e+00  7.071068e-01  7.071068e-01
   outer loop
     vertex  2.186050e-01  1.895837e-01  4.323541e-01
     vertex  2.190525e-01  1.873337e-01  4.346041e-01
     vertex  2.190525e-01  1.895837e-01  4.323541e-01
   endloop
 endfacet
 facet normal  0.000000e+00  7.071068e-01  7.071068e-01
   outer loop
     vertex  2.186050e-01  1.895837e-01  4.323541e-01
     vertex  2.186050e-01  1.873337e-01  4.346041e-01
     vertex  2.190525e-01  1.873337e-01  4.346041e-01
   endloop
 endfacet
 facet normal  0.000000e+00  7.071068e-01 -7.071068e-01
   outer loop
     vertex  2.186050e-01  1.873337e-01  4.301041e-01
     vertex  2.190525e-01  1.895837e-01  4.323541e-01
     vertex  2.190525e-01  1.873337e-01  4.301041e-01
   endloop
 endfacet
 facet normal  0.000000e+00  7.071068e-01 -7.071068e-01
   outer loop
     vertex  2.186050e-01  1.873337e-01  4.301041e-01
     vertex  2.186050e-01  1.895837e-01  4.323541e-01
     vertex  2.190525e-01  1.895837e-01  4.323541e-01
   endloop
 endfacet
 facet normal  0.000000e+00 -7.071068e-01 -7.071068e-01
   outer loop
     vertex  2.186050e-01  1.850837e-01  4.323541e-01
     vertex  2.190525e-01  1.873337e-01  4.301041e-01
     vertex  2.190525e-01  1.850837e-01  4.323541e-01
   endloop
 endfacet
 facet normal  0.000000e+00 -7.071068e-01 -7.071068e-01
   outer loop
     vertex  2.186050e-01  1.850837e-01  4.323541e-01
     vertex  2.186050e-01  1.873337e-01  4.301041e-01
     vertex  2.190525e-01  1.873337e-01  4.301041e-01
   endloop
 endfacet
endsolid
