solid 
 facet normal  6.546537e-01  3.779645e-01  6.546537e-01
   outer loop
     vertex  2.168050e-01  3.436069e-02  4.346791e-01
     vertex  2.168050e-01  3.033368e-02  4.370041e-01
     vertex  2.173050e-01  3.033368e-02  4.365041e-01
   endloop
 endfacet
 facet normal  9.521148e-01  2.161914e-01  2.161914e-01
   outer loop
     vertex  2.173050e-01  3.448368e-02  4.323541e-01
     vertex  2.168050e-01  3.436069e-02  4.346791e-01
     vertex  2.173050e-01  3.033368e-02  4.365041e-01
   endloop
 endfacet
 facet normal -2.388450e-01  9.710577e-01  0.000000e+00
   outer loop
     vertex  2.168050e-01  3.436069e-02  4.300291e-01
     vertex  2.168050e-01  3.436069e-02  4.346791e-01
     vertex  2.173050e-01  3.448368e-02  4.323541e-01
   endloop
 endfacet
 facet normal  9.521148e-01  2.161914e-01 -2.161914e-01
   outer loop
     vertex  2.173050e-01  3.033368e-02  4.282041e-01
     vertex  2.168050e-01  3.436069e-02  4.300291e-01
     vertex  2.173050e-01  3.448368e-02  4.323541e-01
   endloop
 endfacet
 facet normal  6.546537e-01  3.779645e-01 -6.546537e-01
   outer loop
     vertex  2.168050e-01  3.033368e-02  4.277041e-01
     vertex  2.168050e-01  3.436069e-02  4.300291e-01
     vertex  2.173050e-01  3.033368e-02  4.282041e-01
   endloop
 endfacet
 facet normal  6.546537e-01 -3.779645e-01 -6.546537e-01
   outer loop
     vertex  2.168050e-01  2.630666e-02  4.300291e-01
     vertex  2.168050e-01  3.033368e-02  4.277041e-01
     vertex  2.173050e-01  3.033368e-02  4.282041e-01
   endloop
 endfacet
 facet normal  9.521148e-01 -2.161914e-01 -2.161914e-01
   outer loop
     vertex  2.173050e-01  2.618368e-02  4.323541e-01
     vertex  2.168050e-01  2.630666e-02  4.300291e-01
     vertex  2.173050e-01  3.033368e-02  4.282041e-01
   endloop
 endfacet
 facet normal -2.388450e-01 -9.710577e-01 -0.000000e+00
   outer loop
     vertex  2.168050e-01  2.630666e-02  4.346791e-01
     vertex  2.168050e-01  2.630666e-02  4.300291e-01
     vertex  2.173050e-01  2.618368e-02  4.323541e-01
   endloop
 endfacet
 facet normal  9.521148e-01 -2.161914e-01  2.161914e-01
   outer loop
     vertex  2.173050e-01  3.033368e-02  4.365041e-01
     vertex  2.168050e-01  2.630666e-02  4.346791e-01
     vertex  2.173050e-01  2.618368e-02  4.323541e-01
   endloop
 endfacet
 facet normal  6.546537e-01 -3.779645e-01  6.546537e-01
   outer loop
     vertex  2.168050e-01  3.033368e-02  4.370041e-01
     vertex  2.168050e-01  2.630666e-02  4.346791e-01
     vertex  2.173050e-01  3.033368e-02  4.365041e-01
   endloop
 endfacet
 facet normal  1.000000e+00 -0.000000e+00  0.000000e+00
   outer loop
     vertex  2.173050e-01  3.033368e-02  4.354541e-01
     vertex  2.173050e-01  3.448368e-02  4.323541e-01
     vertex  2.173050e-01  3.033368e-02  4.365041e-01
   endloop
 endfacet
 facet normal  1.000000e+00  0.000000e+00  0.000000e+00
   outer loop
     vertex  2.173050e-01  3.033368e-02  4.354541e-01
     vertex  2.173050e-01  3.343368e-02  4.323541e-01
     vertex  2.173050e-01  3.448368e-02  4.323541e-01
   endloop
 endfacet
 facet normal  1.000000e+00  0.000000e+00  0.000000e+00
   outer loop
     vertex  2.173050e-01  2.618368e-02  4.323541e-01
     vertex  2.173050e-01  2.723368e-02  4.323541e-01
     vertex  2.173050e-01  3.033368e-02  4.354541e-01
   endloop
 endfacet
 facet normal  1.000000e+00  0.000000e+00  0.000000e+00
   outer loop
     vertex  2.173050e-01  2.618368e-02  4.323541e-01
     vertex  2.173050e-01  3.033368e-02  4.354541e-01
     vertex  2.173050e-01  3.033368e-02  4.365041e-01
   endloop
 endfacet
 facet normal  1.000000e+00  0.000000e+00  0.000000e+00
   outer loop
     vertex  2.173050e-01  3.033368e-02  4.282041e-01
     vertex  2.173050e-01  3.343368e-02  4.323541e-01
     vertex  2.173050e-01  3.033368e-02  4.292541e-01
   endloop
 endfacet
 facet normal  1.000000e+00  0.000000e+00 -0.000000e+00
   outer loop
     vertex  2.173050e-01  3.033368e-02  4.282041e-01
     vertex  2.173050e-01  3.033368e-02  4.292541e-01
     vertex  2.173050e-01  2.723368e-02  4.323541e-01
   endloop
 endfacet
 facet normal  1.000000e+00  0.000000e+00  0.000000e+00
   outer loop
     vertex  2.173050e-01  3.033368e-02  4.282041e-01
     vertex  2.173050e-01  3.448368e-02  4.323541e-01
     vertex  2.173050e-01  3.343368e-02  4.323541e-01
   endloop
 endfacet
 facet normal  1.000000e+00  0.000000e+00  0.000000e+00
   outer loop
     vertex  2.173050e-01  3.033368e-02  4.282041e-01
     vertex  2.173050e-01  2.723368e-02  4.323541e-01
     vertex  2.173050e-01  2.618368e-02  4.323541e-01
   endloop
 endfacet
 facet normal  0.000000e+00 -5.000000e-01 -8.660254e-01
   outer loop
     vertex  2.141050e-01  3.033368e-02  4.277041e-01
     vertex  2.168050e-01  3.033368e-02  4.277041e-01
     vertex  2.168050e-01  2.630666e-02  4.300291e-01
   endloop
 endfacet
 facet normal  2.248269e-01 -9.743987e-01  0.000000e+00
   outer loop
     vertex  2.141050e-01  2.568368e-02  4.323541e-01
     vertex  2.168050e-01  2.630666e-02  4.300291e-01
     vertex  2.168050e-01  2.630666e-02  4.346791e-01
   endloop
 endfacet
 facet normal -4.071293e-01 -6.458505e-01 -6.458505e-01
   outer loop
     vertex  2.141050e-01  2.568368e-02  4.323541e-01
     vertex  2.141050e-01  3.033368e-02  4.277041e-01
     vertex  2.168050e-01  2.630666e-02  4.300291e-01
   endloop
 endfacet
 facet normal  2.631640e-12 -5.000000e-01  8.660254e-01
   outer loop
     vertex  2.141050e-01  3.033368e-02  4.370041e-01
     vertex  2.168050e-01  2.630666e-02  4.346791e-01
     vertex  2.168050e-01  3.033368e-02  4.370041e-01
   endloop
 endfacet
 facet normal -2.631640e-12  5.000000e-01  8.660254e-01
   outer loop
     vertex  2.141050e-01  3.033368e-02  4.370041e-01
     vertex  2.168050e-01  3.033368e-02  4.370041e-01
     vertex  2.168050e-01  3.436069e-02  4.346791e-01
   endloop
 endfacet
 facet normal -4.071293e-01 -6.458505e-01  6.458505e-01
   outer loop
     vertex  2.141050e-01  3.033368e-02  4.370041e-01
     vertex  2.141050e-01  2.568368e-02  4.323541e-01
     vertex  2.168050e-01  2.630666e-02  4.346791e-01
   endloop
 endfacet
 facet normal  2.248269e-01  9.743987e-01  0.000000e+00
   outer loop
     vertex  2.141050e-01  3.498368e-02  4.323541e-01
     vertex  2.168050e-01  3.436069e-02  4.346791e-01
     vertex  2.168050e-01  3.436069e-02  4.300291e-01
   endloop
 endfacet
 facet normal -4.071293e-01  6.458505e-01  6.458505e-01
   outer loop
     vertex  2.141050e-01  3.498368e-02  4.323541e-01
     vertex  2.141050e-01  3.033368e-02  4.370041e-01
     vertex  2.168050e-01  3.436069e-02  4.346791e-01
   endloop
 endfacet
 facet normal  0.000000e+00  5.000000e-01 -8.660254e-01
   outer loop
     vertex  2.141050e-01  3.033368e-02  4.277041e-01
     vertex  2.168050e-01  3.436069e-02  4.300291e-01
     vertex  2.168050e-01  3.033368e-02  4.277041e-01
   endloop
 endfacet
 facet normal -4.071293e-01  6.458505e-01 -6.458505e-01
   outer loop
     vertex  2.141050e-01  3.033368e-02  4.277041e-01
     vertex  2.141050e-01  3.498368e-02  4.323541e-01
     vertex  2.168050e-01  3.436069e-02  4.300291e-01
   endloop
 endfacet
 facet normal  1.000000e+00  1.631617e-11  2.105312e-11
   outer loop
     vertex  2.141050e-01  3.033368e-02  4.370041e-01
     vertex  2.141050e-01  3.633368e-02  4.323541e-01
     vertex  2.141050e-01  3.033368e-02  4.383541e-01
   endloop
 endfacet
 facet normal  1.000000e+00  0.000000e+00  0.000000e+00
   outer loop
     vertex  2.141050e-01  3.033368e-02  4.370041e-01
     vertex  2.141050e-01  3.498368e-02  4.323541e-01
     vertex  2.141050e-01  3.633368e-02  4.323541e-01
   endloop
 endfacet
 facet normal  1.000000e+00  0.000000e+00  0.000000e+00
   outer loop
     vertex  2.141050e-01  2.433368e-02  4.323541e-01
     vertex  2.141050e-01  2.568368e-02  4.323541e-01
     vertex  2.141050e-01  3.033368e-02  4.370041e-01
   endloop
 endfacet
 facet normal  1.000000e+00 -1.631617e-11  2.105312e-11
   outer loop
     vertex  2.141050e-01  2.433368e-02  4.323541e-01
     vertex  2.141050e-01  3.033368e-02  4.370041e-01
     vertex  2.141050e-01  3.033368e-02  4.383541e-01
   endloop
 endfacet
 facet normal  1.000000e+00  2.716531e-11  2.105312e-11
   outer loop
     vertex  2.141050e-01  3.033368e-02  4.263541e-01
     vertex  2.141050e-01  3.033368e-02  4.277041e-01
     vertex  2.141050e-01  2.568368e-02  4.323541e-01
   endloop
 endfacet
 facet normal  1.000000e+00 -2.716531e-11  2.105312e-11
   outer loop
     vertex  2.141050e-01  3.033368e-02  4.263541e-01
     vertex  2.141050e-01  3.498368e-02  4.323541e-01
     vertex  2.141050e-01  3.033368e-02  4.277041e-01
   endloop
 endfacet
 facet normal  1.000000e+00  0.000000e+00  0.000000e+00
   outer loop
     vertex  2.141050e-01  3.033368e-02  4.263541e-01
     vertex  2.141050e-01  3.633368e-02  4.323541e-01
     vertex  2.141050e-01  3.498368e-02  4.323541e-01
   endloop
 endfacet
 facet normal  1.000000e+00  0.000000e+00  0.000000e+00
   outer loop
     vertex  2.141050e-01  3.033368e-02  4.263541e-01
     vertex  2.141050e-01  2.568368e-02  4.323541e-01
     vertex  2.141050e-01  2.433368e-02  4.323541e-01
   endloop
 endfacet
 facet normal  0.000000e+00 -7.071068e-01  7.071068e-01
   outer loop
     vertex  2.141050e-01  2.433368e-02  4.323541e-01
     vertex  2.141050e-01  3.033368e-02  4.383541e-01
     vertex  2.131050e-01  3.033368e-02  4.383541e-01
   endloop
 endfacet
 facet normal  0.000000e+00 -7.071068e-01  7.071068e-01
   outer loop
     vertex  2.141050e-01  2.433368e-02  4.323541e-01
     vertex  2.131050e-01  3.033368e-02  4.383541e-01
     vertex  2.131050e-01  2.433368e-02  4.323541e-01
   endloop
 endfacet
 facet normal -0.000000e+00 -7.071068e-01 -7.071068e-01
   outer loop
     vertex  2.141050e-01  3.033368e-02  4.263541e-01
     vertex  2.131050e-01  2.433368e-02  4.323541e-01
     vertex  2.131050e-01  3.033368e-02  4.263541e-01
   endloop
 endfacet
 facet normal  0.000000e+00 -7.071068e-01 -7.071068e-01
   outer loop
     vertex  2.141050e-01  3.033368e-02  4.263541e-01
     vertex  2.141050e-01  2.433368e-02  4.323541e-01
     vertex  2.131050e-01  2.433368e-02  4.323541e-01
   endloop
 endfacet
 facet normal  0.000000e+00  7.071068e-01 -7.071068e-01
   outer loop
     vertex  2.141050e-01  3.633368e-02  4.323541e-01
     vertex  2.131050e-01  3.033368e-02  4.263541e-01
     vertex  2.131050e-01  3.633368e-02  4.323541e-01
   endloop
 endfacet
 facet normal  0.000000e+00  7.071068e-01 -7.071068e-01
   outer loop
     vertex  2.141050e-01  3.633368e-02  4.323541e-01
     vertex  2.141050e-01  3.033368e-02  4.263541e-01
     vertex  2.131050e-01  3.033368e-02  4.263541e-01
   endloop
 endfacet
 facet normal  0.000000e+00  7.071068e-01  7.071068e-01
   outer loop
     vertex  2.141050e-01  3.033368e-02  4.383541e-01
     vertex  2.131050e-01  3.633368e-02  4.323541e-01
     vertex  2.131050e-01  3.033368e-02  4.383541e-01
   endloop
 endfacet
 facet normal  0.000000e+00  7.071068e-01  7.071068e-01
   outer loop
     vertex  2.141050e-01  3.033368e-02  4.383541e-01
     vertex  2.141050e-01  3.633368e-02  4.323541e-01
     vertex  2.131050e-01  3.633368e-02  4.323541e-01
   endloop
 endfacet
 facet normal -1.000000e+00  0.000000e+00  0.000000e+00
   outer loop
     vertex  2.131050e-01  3.033368e-02  4.354541e-01
     vertex  2.131050e-01  3.033368e-02  4.383541e-01
     vertex  2.131050e-01  3.633368e-02  4.323541e-01
   endloop
 endfacet
 facet normal -1.000000e+00  0.000000e+00  0.000000e+00
   outer loop
     vertex  2.131050e-01  3.033368e-02  4.354541e-01
     vertex  2.131050e-01  3.633368e-02  4.323541e-01
     vertex  2.131050e-01  3.343368e-02  4.323541e-01
   endloop
 endfacet
 facet normal -1.000000e+00  0.000000e+00  0.000000e+00
   outer loop
     vertex  2.131050e-01  2.433368e-02  4.323541e-01
     vertex  2.131050e-01  3.033368e-02  4.354541e-01
     vertex  2.131050e-01  2.723368e-02  4.323541e-01
   endloop
 endfacet
 facet normal -1.000000e+00  0.000000e+00  0.000000e+00
   outer loop
     vertex  2.131050e-01  2.433368e-02  4.323541e-01
     vertex  2.131050e-01  3.033368e-02  4.383541e-01
     vertex  2.131050e-01  3.033368e-02  4.354541e-01
   endloop
 endfacet
 facet normal -1.000000e+00  0.000000e+00  0.000000e+00
   outer loop
     vertex  2.131050e-01  3.033368e-02  4.263541e-01
     vertex  2.131050e-01  2.723368e-02  4.323541e-01
     vertex  2.131050e-01  3.033368e-02  4.292541e-01
   endloop
 endfacet
 facet normal -1.000000e+00  0.000000e+00  0.000000e+00
   outer loop
     vertex  2.131050e-01  3.033368e-02  4.263541e-01
     vertex  2.131050e-01  3.033368e-02  4.292541e-01
     vertex  2.131050e-01  3.343368e-02  4.323541e-01
   endloop
 endfacet
 facet normal -1.000000e+00  0.000000e+00  0.000000e+00
   outer loop
     vertex  2.131050e-01  3.033368e-02  4.263541e-01
     vertex  2.131050e-01  3.343368e-02  4.323541e-01
     vertex  2.131050e-01  3.633368e-02  4.323541e-01
   endloop
 endfacet
 facet normal -1.000000e+00  0.000000e+00  0.000000e+00
   outer loop
     vertex  2.131050e-01  3.033368e-02  4.263541e-01
     vertex  2.131050e-01  2.433368e-02  4.323541e-01
     vertex  2.131050e-01  2.723368e-02  4.323541e-01
   endloop
 endfacet
 facet normal  0.000000e+00  7.071068e-01 -7.071068e-01
   outer loop
     vertex  2.173050e-01  2.723368e-02  4.323541e-01
     vertex  2.131050e-01  3.033368e-02  4.354541e-01
     vertex  2.173050e-01  3.033368e-02  4.354541e-01
   endloop
 endfacet
 facet normal  0.000000e+00  7.071068e-01 -7.071068e-01
   outer loop
     vertex  2.173050e-01  2.723368e-02  4.323541e-01
     vertex  2.131050e-01  2.723368e-02  4.323541e-01
     vertex  2.131050e-01  3.033368e-02  4.354541e-01
   endloop
 endfacet
 facet normal  0.000000e+00  7.071068e-01  7.071068e-01
   outer loop
     vertex  2.173050e-01  3.033368e-02  4.292541e-01
     vertex  2.131050e-01  3.033368e-02  4.292541e-01
     vertex  2.131050e-01  2.723368e-02  4.323541e-01
   endloop
 endfacet
 facet normal  0.000000e+00  7.071068e-01  7.071068e-01
   outer loop
     vertex  2.173050e-01  3.033368e-02  4.292541e-01
     vertex  2.131050e-01  2.723368e-02  4.323541e-01
     vertex  2.173050e-01  2.723368e-02  4.323541e-01
   endloop
 endfacet
 facet normal  0.000000e+00 -7.071068e-01  7.071068e-01
   outer loop
     vertex  2.173050e-01  3.343368e-02  4.323541e-01
     vertex  2.131050e-01  3.343368e-02  4.323541e-01
     vertex  2.131050e-01  3.033368e-02  4.292541e-01
   endloop
 endfacet
 facet normal  0.000000e+00 -7.071068e-01  7.071068e-01
   outer loop
     vertex  2.173050e-01  3.343368e-02  4.323541e-01
     vertex  2.131050e-01  3.033368e-02  4.292541e-01
     vertex  2.173050e-01  3.033368e-02  4.292541e-01
   endloop
 endfacet
 facet normal -0.000000e+00 -7.071068e-01 -7.071068e-01
   outer loop
     vertex  2.173050e-01  3.033368e-02  4.354541e-01
     vertex  2.131050e-01  3.033368e-02  4.354541e-01
     vertex  2.131050e-01  3.343368e-02  4.323541e-01
   endloop
 endfacet
 facet normal  0.000000e+00 -7.071068e-01 -7.071068e-01
   outer loop
     vertex  2.173050e-01  3.033368e-02  4.354541e-01
     vertex  2.131050e-01  3.343368e-02  4.323541e-01
     vertex  2.173050e-01  3.343368e-02  4.323541e-01
   endloop
 endfacet
endsolid
