solid 
 facet normal  0.000000e+00  7.748838e-02 -9.969933e-01
   outer loop
     vertex  1.759393e-01 -1.394025e-01  5.349733e-01
     vertex  1.762393e-01 -1.380239e-01  5.350805e-01
     vertex  1.762393e-01 -1.394025e-01  5.349733e-01
   endloop
 endfacet
 facet normal  0.000000e+00  7.748838e-02 -9.969933e-01
   outer loop
     vertex  1.759393e-01 -1.394025e-01  5.349733e-01
     vertex  1.759393e-01 -1.380239e-01  5.350805e-01
     vertex  1.762393e-01 -1.380239e-01  5.350805e-01
   endloop
 endfacet
 facet normal  0.000000e+00 -7.710427e-01 -6.367834e-01
   outer loop
     vertex  1.759393e-01 -1.402830e-01  5.360395e-01
     vertex  1.762393e-01 -1.394025e-01  5.349733e-01
     vertex  1.762393e-01 -1.402830e-01  5.360395e-01
   endloop
 endfacet
 facet normal  0.000000e+00 -7.710427e-01 -6.367834e-01
   outer loop
     vertex  1.759393e-01 -1.402830e-01  5.360395e-01
     vertex  1.759393e-01 -1.394025e-01  5.349733e-01
     vertex  1.762393e-01 -1.394025e-01  5.349733e-01
   endloop
 endfacet
 facet normal  0.000000e+00 -9.643755e-01  2.645371e-01
   outer loop
     vertex  1.759393e-01 -1.399172e-01  5.373729e-01
     vertex  1.762393e-01 -1.402830e-01  5.360395e-01
     vertex  1.762393e-01 -1.399172e-01  5.373729e-01
   endloop
 endfacet
 facet normal  0.000000e+00 -9.643755e-01  2.645371e-01
   outer loop
     vertex  1.759393e-01 -1.399172e-01  5.373729e-01
     vertex  1.759393e-01 -1.402830e-01  5.360395e-01
     vertex  1.762393e-01 -1.402830e-01  5.360395e-01
   endloop
 endfacet
 facet normal  7.070059e-01  4.371832e-01 -5.558899e-01
   outer loop
     vertex  1.763393e-01 -1.379774e-01  5.352333e-01
     vertex  1.763393e-01 -1.379248e-01  5.352746e-01
     vertex  1.768222e-01 -1.382323e-01  5.356469e-01
   endloop
 endfacet
 facet normal  7.085341e-01  4.092446e-01 -5.748898e-01
   outer loop
     vertex  1.763393e-01 -1.380319e-01  5.351945e-01
     vertex  1.763393e-01 -1.379774e-01  5.352333e-01
     vertex  1.768222e-01 -1.382323e-01  5.356469e-01
   endloop
 endfacet
 facet normal  7.115576e-01  3.796708e-01 -5.912156e-01
   outer loop
     vertex  1.763393e-01 -1.380882e-01  5.351583e-01
     vertex  1.763393e-01 -1.380319e-01  5.351945e-01
     vertex  1.768222e-01 -1.382323e-01  5.356469e-01
   endloop
 endfacet
 facet normal  6.368288e-01  5.974394e-02 -7.686870e-01
   outer loop
     vertex  1.762393e-01 -1.394025e-01  5.349733e-01
     vertex  1.762393e-01 -1.380239e-01  5.350805e-01
     vertex  1.763393e-01 -1.380882e-01  5.351583e-01
   endloop
 endfacet
 facet normal  8.016574e-01 -5.675100e-02 -5.950837e-01
   outer loop
     vertex  1.762393e-01 -1.394025e-01  5.349733e-01
     vertex  1.768222e-01 -1.382323e-01  5.356469e-01
     vertex  1.768222e-01 -1.395235e-01  5.357700e-01
   endloop
 endfacet
 facet normal  7.169671e-01  4.338084e-02 -6.957559e-01
   outer loop
     vertex  1.762393e-01 -1.394025e-01  5.349733e-01
     vertex  1.763393e-01 -1.380882e-01  5.351583e-01
     vertex  1.768222e-01 -1.382323e-01  5.356469e-01
   endloop
 endfacet
 facet normal  5.791022e-01 -6.285964e-01 -5.191408e-01
   outer loop
     vertex  1.762393e-01 -1.402830e-01  5.360395e-01
     vertex  1.762393e-01 -1.394025e-01  5.349733e-01
     vertex  1.768222e-01 -1.395235e-01  5.357700e-01
   endloop
 endfacet
 facet normal  8.016574e-01 -5.950837e-01  5.675100e-02
   outer loop
     vertex  1.768222e-01 -1.394004e-01  5.370612e-01
     vertex  1.762393e-01 -1.402830e-01  5.360395e-01
     vertex  1.768222e-01 -1.395235e-01  5.357700e-01
   endloop
 endfacet
 facet normal  7.169671e-01 -6.750149e-01  1.741063e-01
   outer loop
     vertex  1.763393e-01 -1.398529e-01  5.372951e-01
     vertex  1.762393e-01 -1.402830e-01  5.360395e-01
     vertex  1.768222e-01 -1.394004e-01  5.370612e-01
   endloop
 endfacet
 facet normal  7.089934e-01 -4.989047e-01  4.984199e-01
   outer loop
     vertex  1.763393e-01 -1.397584e-01  5.373897e-01
     vertex  1.763393e-01 -1.398529e-01  5.372951e-01
     vertex  1.768222e-01 -1.394004e-01  5.370612e-01
   endloop
 endfacet
 facet normal  6.368288e-01 -7.435386e-01  2.039595e-01
   outer loop
     vertex  1.762393e-01 -1.399172e-01  5.373729e-01
     vertex  1.762393e-01 -1.402830e-01  5.360395e-01
     vertex  1.763393e-01 -1.398529e-01  5.372951e-01
   endloop
 endfacet
 facet normal  7.059338e-01 -4.510195e-01  5.461124e-01
   outer loop
     vertex  1.763393e-01 -1.396552e-01  5.374749e-01
     vertex  1.763393e-01 -1.397584e-01  5.373897e-01
     vertex  1.768222e-01 -1.394004e-01  5.370612e-01
   endloop
 endfacet
 facet normal  7.089934e-01 -3.951357e-01  5.841199e-01
   outer loop
     vertex  1.763393e-01 -1.395445e-01  5.375498e-01
     vertex  1.763393e-01 -1.396552e-01  5.374749e-01
     vertex  1.768222e-01 -1.394004e-01  5.370612e-01
   endloop
 endfacet
 facet normal  8.016574e-01  5.675100e-02  5.950837e-01
   outer loop
     vertex  1.762393e-01 -1.382302e-01  5.377348e-01
     vertex  1.768222e-01 -1.394004e-01  5.370612e-01
     vertex  1.768222e-01 -1.381092e-01  5.369381e-01
   endloop
 endfacet
 facet normal  6.368288e-01 -5.974394e-02  7.686870e-01
   outer loop
     vertex  1.762393e-01 -1.382302e-01  5.377348e-01
     vertex  1.762393e-01 -1.396088e-01  5.376277e-01
     vertex  1.763393e-01 -1.395445e-01  5.375498e-01
   endloop
 endfacet
 facet normal  7.169671e-01 -4.338084e-02  6.957559e-01
   outer loop
     vertex  1.762393e-01 -1.382302e-01  5.377348e-01
     vertex  1.763393e-01 -1.395445e-01  5.375498e-01
     vertex  1.768222e-01 -1.394004e-01  5.370612e-01
   endloop
 endfacet
 facet normal  5.791022e-01  6.285964e-01  5.191408e-01
   outer loop
     vertex  1.762393e-01 -1.373497e-01  5.366687e-01
     vertex  1.762393e-01 -1.382302e-01  5.377348e-01
     vertex  1.768222e-01 -1.381092e-01  5.369381e-01
   endloop
 endfacet
 facet normal  8.016574e-01  5.950837e-01 -5.675100e-02
   outer loop
     vertex  1.768222e-01 -1.382323e-01  5.356469e-01
     vertex  1.762393e-01 -1.373497e-01  5.366687e-01
     vertex  1.768222e-01 -1.381092e-01  5.369381e-01
   endloop
 endfacet
 facet normal  7.169671e-01  6.750149e-01 -1.741063e-01
   outer loop
     vertex  1.763393e-01 -1.377798e-01  5.354130e-01
     vertex  1.762393e-01 -1.373497e-01  5.366687e-01
     vertex  1.768222e-01 -1.382323e-01  5.356469e-01
   endloop
 endfacet
 facet normal  7.115576e-01  5.087956e-01 -4.845749e-01
   outer loop
     vertex  1.763393e-01 -1.378259e-01  5.353646e-01
     vertex  1.763393e-01 -1.377798e-01  5.354130e-01
     vertex  1.768222e-01 -1.382323e-01  5.356469e-01
   endloop
 endfacet
 facet normal  7.085341e-01  4.871742e-01 -5.105298e-01
   outer loop
     vertex  1.763393e-01 -1.378743e-01  5.353184e-01
     vertex  1.763393e-01 -1.378259e-01  5.353646e-01
     vertex  1.768222e-01 -1.382323e-01  5.356469e-01
   endloop
 endfacet
 facet normal  6.368288e-01  7.435386e-01 -2.039595e-01
   outer loop
     vertex  1.762393e-01 -1.377155e-01  5.353352e-01
     vertex  1.762393e-01 -1.373497e-01  5.366687e-01
     vertex  1.763393e-01 -1.377798e-01  5.354130e-01
   endloop
 endfacet
 facet normal  7.070059e-01  4.632360e-01 -5.343736e-01
   outer loop
     vertex  1.763393e-01 -1.379248e-01  5.352746e-01
     vertex  1.763393e-01 -1.378743e-01  5.353184e-01
     vertex  1.768222e-01 -1.382323e-01  5.356469e-01
   endloop
 endfacet
 facet normal  4.769051e-01 -8.344417e-02 -8.749849e-01
   outer loop
     vertex  1.769050e-01 -1.394745e-01  5.358105e-01
     vertex  1.768222e-01 -1.382323e-01  5.356469e-01
     vertex  1.769050e-01 -1.382728e-01  5.356959e-01
   endloop
 endfacet
 facet normal  4.769051e-01 -8.344417e-02 -8.749849e-01
   outer loop
     vertex  1.769050e-01 -1.394745e-01  5.358105e-01
     vertex  1.768222e-01 -1.395235e-01  5.357700e-01
     vertex  1.768222e-01 -1.382323e-01  5.356469e-01
   endloop
 endfacet
 facet normal  9.269160e-02 -9.452697e-02 -9.911977e-01
   outer loop
     vertex  1.770015e-01 -1.394437e-01  5.358360e-01
     vertex  1.771050e-01 -1.383069e-01  5.357372e-01
     vertex  1.771050e-01 -1.394332e-01  5.358446e-01
   endloop
 endfacet
 facet normal  2.810846e-01 -9.110815e-02 -9.553485e-01
   outer loop
     vertex  1.770015e-01 -1.394437e-01  5.358360e-01
     vertex  1.769050e-01 -1.382728e-01  5.356959e-01
     vertex  1.770015e-01 -1.382982e-01  5.357267e-01
   endloop
 endfacet
 facet normal  9.269160e-02 -9.452697e-02 -9.911977e-01
   outer loop
     vertex  1.770015e-01 -1.394437e-01  5.358360e-01
     vertex  1.770015e-01 -1.382982e-01  5.357267e-01
     vertex  1.771050e-01 -1.383069e-01  5.357372e-01
   endloop
 endfacet
 facet normal  2.810846e-01 -9.110815e-02 -9.553485e-01
   outer loop
     vertex  1.770015e-01 -1.394437e-01  5.358360e-01
     vertex  1.769050e-01 -1.394745e-01  5.358105e-01
     vertex  1.769050e-01 -1.382728e-01  5.356959e-01
   endloop
 endfacet
 facet normal  4.769051e-01 -8.749849e-01  8.344417e-02
   outer loop
     vertex  1.769050e-01 -1.393599e-01  5.370122e-01
     vertex  1.768222e-01 -1.394004e-01  5.370612e-01
     vertex  1.768222e-01 -1.395235e-01  5.357700e-01
   endloop
 endfacet
 facet normal  4.769051e-01 -8.749849e-01  8.344417e-02
   outer loop
     vertex  1.769050e-01 -1.393599e-01  5.370122e-01
     vertex  1.768222e-01 -1.395235e-01  5.357700e-01
     vertex  1.769050e-01 -1.394745e-01  5.358105e-01
   endloop
 endfacet
 facet normal  9.269160e-02 -9.911977e-01  9.452697e-02
   outer loop
     vertex  1.770015e-01 -1.393344e-01  5.369814e-01
     vertex  1.771050e-01 -1.394332e-01  5.358446e-01
     vertex  1.771050e-01 -1.393258e-01  5.369709e-01
   endloop
 endfacet
 facet normal  2.810846e-01 -9.553485e-01  9.110815e-02
   outer loop
     vertex  1.770015e-01 -1.393344e-01  5.369814e-01
     vertex  1.769050e-01 -1.394745e-01  5.358105e-01
     vertex  1.770015e-01 -1.394437e-01  5.358360e-01
   endloop
 endfacet
 facet normal  2.810846e-01 -9.553485e-01  9.110815e-02
   outer loop
     vertex  1.770015e-01 -1.393344e-01  5.369814e-01
     vertex  1.769050e-01 -1.393599e-01  5.370122e-01
     vertex  1.769050e-01 -1.394745e-01  5.358105e-01
   endloop
 endfacet
 facet normal  9.269160e-02 -9.911977e-01  9.452697e-02
   outer loop
     vertex  1.770015e-01 -1.393344e-01  5.369814e-01
     vertex  1.770015e-01 -1.394437e-01  5.358360e-01
     vertex  1.771050e-01 -1.394332e-01  5.358446e-01
   endloop
 endfacet
 facet normal  4.769051e-01  8.749849e-01 -8.344417e-02
   outer loop
     vertex  1.769050e-01 -1.381582e-01  5.368976e-01
     vertex  1.769050e-01 -1.382728e-01  5.356959e-01
     vertex  1.768222e-01 -1.382323e-01  5.356469e-01
   endloop
 endfacet
 facet normal  4.769051e-01  8.749849e-01 -8.344417e-02
   outer loop
     vertex  1.769050e-01 -1.381582e-01  5.368976e-01
     vertex  1.768222e-01 -1.382323e-01  5.356469e-01
     vertex  1.768222e-01 -1.381092e-01  5.369381e-01
   endloop
 endfacet
 facet normal  4.769051e-01  8.344417e-02  8.749849e-01
   outer loop
     vertex  1.769050e-01 -1.381582e-01  5.368976e-01
     vertex  1.768222e-01 -1.381092e-01  5.369381e-01
     vertex  1.768222e-01 -1.394004e-01  5.370612e-01
   endloop
 endfacet
 facet normal  4.769051e-01  8.344417e-02  8.749849e-01
   outer loop
     vertex  1.769050e-01 -1.381582e-01  5.368976e-01
     vertex  1.768222e-01 -1.394004e-01  5.370612e-01
     vertex  1.769050e-01 -1.393599e-01  5.370122e-01
   endloop
 endfacet
 facet normal  2.810846e-01  9.553485e-01 -9.110815e-02
   outer loop
     vertex  1.770015e-01 -1.381890e-01  5.368722e-01
     vertex  1.770015e-01 -1.382982e-01  5.357267e-01
     vertex  1.769050e-01 -1.382728e-01  5.356959e-01
   endloop
 endfacet
 facet normal  9.269160e-02  9.911977e-01 -9.452697e-02
   outer loop
     vertex  1.770015e-01 -1.381890e-01  5.368722e-01
     vertex  1.771050e-01 -1.383069e-01  5.357372e-01
     vertex  1.770015e-01 -1.382982e-01  5.357267e-01
   endloop
 endfacet
 facet normal  9.269160e-02  9.452697e-02  9.911977e-01
   outer loop
     vertex  1.770015e-01 -1.381890e-01  5.368722e-01
     vertex  1.771050e-01 -1.393258e-01  5.369709e-01
     vertex  1.771050e-01 -1.381995e-01  5.368635e-01
   endloop
 endfacet
 facet normal  9.269160e-02  9.911977e-01 -9.452697e-02
   outer loop
     vertex  1.770015e-01 -1.381890e-01  5.368722e-01
     vertex  1.771050e-01 -1.381995e-01  5.368635e-01
     vertex  1.771050e-01 -1.383069e-01  5.357372e-01
   endloop
 endfacet
 facet normal  2.810846e-01  9.110815e-02  9.553485e-01
   outer loop
     vertex  1.770015e-01 -1.381890e-01  5.368722e-01
     vertex  1.769050e-01 -1.381582e-01  5.368976e-01
     vertex  1.769050e-01 -1.393599e-01  5.370122e-01
   endloop
 endfacet
 facet normal  2.810846e-01  9.553485e-01 -9.110815e-02
   outer loop
     vertex  1.770015e-01 -1.381890e-01  5.368722e-01
     vertex  1.769050e-01 -1.382728e-01  5.356959e-01
     vertex  1.769050e-01 -1.381582e-01  5.368976e-01
   endloop
 endfacet
 facet normal  9.269160e-02  9.452697e-02  9.911977e-01
   outer loop
     vertex  1.770015e-01 -1.381890e-01  5.368722e-01
     vertex  1.770015e-01 -1.393344e-01  5.369814e-01
     vertex  1.771050e-01 -1.393258e-01  5.369709e-01
   endloop
 endfacet
 facet normal  2.810846e-01  9.110815e-02  9.553485e-01
   outer loop
     vertex  1.770015e-01 -1.381890e-01  5.368722e-01
     vertex  1.769050e-01 -1.393599e-01  5.370122e-01
     vertex  1.770015e-01 -1.393344e-01  5.369814e-01
   endloop
 endfacet
 facet normal  0.000000e+00 -9.493568e-02 -9.954834e-01
   outer loop
     vertex  1.771050e-01 -1.394332e-01  5.358446e-01
     vertex  1.771050e-01 -1.383069e-01  5.357372e-01
     vertex  1.839393e-01 -1.383069e-01  5.357372e-01
   endloop
 endfacet
 facet normal  0.000000e+00 -9.493568e-02 -9.954834e-01
   outer loop
     vertex  1.771050e-01 -1.394332e-01  5.358446e-01
     vertex  1.839393e-01 -1.383069e-01  5.357372e-01
     vertex  1.839393e-01 -1.394332e-01  5.358446e-01
   endloop
 endfacet
 facet normal  0.000000e+00 -9.954834e-01  9.493568e-02
   outer loop
     vertex  1.771050e-01 -1.393258e-01  5.369709e-01
     vertex  1.839393e-01 -1.394332e-01  5.358446e-01
     vertex  1.839393e-01 -1.393258e-01  5.369709e-01
   endloop
 endfacet
 facet normal  0.000000e+00 -9.954834e-01  9.493568e-02
   outer loop
     vertex  1.771050e-01 -1.393258e-01  5.369709e-01
     vertex  1.771050e-01 -1.394332e-01  5.358446e-01
     vertex  1.839393e-01 -1.394332e-01  5.358446e-01
   endloop
 endfacet
 facet normal -0.000000e+00  9.493568e-02  9.954834e-01
   outer loop
     vertex  1.771050e-01 -1.381995e-01  5.368635e-01
     vertex  1.839393e-01 -1.393258e-01  5.369709e-01
     vertex  1.839393e-01 -1.381995e-01  5.368635e-01
   endloop
 endfacet
 facet normal  0.000000e+00  9.493568e-02  9.954834e-01
   outer loop
     vertex  1.771050e-01 -1.381995e-01  5.368635e-01
     vertex  1.771050e-01 -1.393258e-01  5.369709e-01
     vertex  1.839393e-01 -1.393258e-01  5.369709e-01
   endloop
 endfacet
 facet normal  0.000000e+00  9.954834e-01 -9.493568e-02
   outer loop
     vertex  1.771050e-01 -1.383069e-01  5.357372e-01
     vertex  1.839393e-01 -1.381995e-01  5.368635e-01
     vertex  1.839393e-01 -1.383069e-01  5.357372e-01
   endloop
 endfacet
 facet normal  0.000000e+00  9.954834e-01 -9.493568e-02
   outer loop
     vertex  1.771050e-01 -1.383069e-01  5.357372e-01
     vertex  1.771050e-01 -1.381995e-01  5.368635e-01
     vertex  1.839393e-01 -1.381995e-01  5.368635e-01
   endloop
 endfacet
 facet normal  1.000000e+00  0.000000e+00  0.000000e+00
   outer loop
     vertex  1.839393e-01 -1.393258e-01  5.369709e-01
     vertex  1.839393e-01 -1.394332e-01  5.358446e-01
     vertex  1.839393e-01 -1.383069e-01  5.357372e-01
   endloop
 endfacet
 facet normal  1.000000e+00  0.000000e+00  0.000000e+00
   outer loop
     vertex  1.839393e-01 -1.381995e-01  5.368635e-01
     vertex  1.839393e-01 -1.393258e-01  5.369709e-01
     vertex  1.839393e-01 -1.383069e-01  5.357372e-01
   endloop
 endfacet
 facet normal -1.000000e+00  0.000000e+00 -0.000000e+00
   outer loop
     vertex  1.763393e-01 -1.397584e-01  5.373897e-01
     vertex  1.763393e-01 -1.380882e-01  5.351583e-01
     vertex  1.763393e-01 -1.398529e-01  5.372951e-01
   endloop
 endfacet
 facet normal -1.000000e+00  0.000000e+00  0.000000e+00
   outer loop
     vertex  1.763393e-01 -1.397584e-01  5.373897e-01
     vertex  1.763393e-01 -1.380319e-01  5.351945e-01
     vertex  1.763393e-01 -1.380882e-01  5.351583e-01
   endloop
 endfacet
 facet normal -1.000000e+00  0.000000e+00  0.000000e+00
   outer loop
     vertex  1.763393e-01 -1.396552e-01  5.374749e-01
     vertex  1.763393e-01 -1.377798e-01  5.354130e-01
     vertex  1.763393e-01 -1.378259e-01  5.353646e-01
   endloop
 endfacet
 facet normal -1.000000e+00  0.000000e+00  0.000000e+00
   outer loop
     vertex  1.763393e-01 -1.396552e-01  5.374749e-01
     vertex  1.763393e-01 -1.378259e-01  5.353646e-01
     vertex  1.763393e-01 -1.378743e-01  5.353184e-01
   endloop
 endfacet
 facet normal -1.000000e+00  0.000000e+00  0.000000e+00
   outer loop
     vertex  1.763393e-01 -1.396552e-01  5.374749e-01
     vertex  1.763393e-01 -1.378743e-01  5.353184e-01
     vertex  1.763393e-01 -1.379248e-01  5.352746e-01
   endloop
 endfacet
 facet normal -1.000000e+00  0.000000e+00  0.000000e+00
   outer loop
     vertex  1.763393e-01 -1.396552e-01  5.374749e-01
     vertex  1.763393e-01 -1.379248e-01  5.352746e-01
     vertex  1.763393e-01 -1.379774e-01  5.352333e-01
   endloop
 endfacet
 facet normal -1.000000e+00  0.000000e+00  0.000000e+00
   outer loop
     vertex  1.763393e-01 -1.396552e-01  5.374749e-01
     vertex  1.763393e-01 -1.379774e-01  5.352333e-01
     vertex  1.763393e-01 -1.380319e-01  5.351945e-01
   endloop
 endfacet
 facet normal -1.000000e+00  0.000000e+00 -0.000000e+00
   outer loop
     vertex  1.763393e-01 -1.396552e-01  5.374749e-01
     vertex  1.763393e-01 -1.380319e-01  5.351945e-01
     vertex  1.763393e-01 -1.397584e-01  5.373897e-01
   endloop
 endfacet
 facet normal -1.000000e+00  0.000000e+00 -0.000000e+00
   outer loop
     vertex  1.763393e-01 -1.395445e-01  5.375498e-01
     vertex  1.763393e-01 -1.377798e-01  5.354130e-01
     vertex  1.763393e-01 -1.396552e-01  5.374749e-01
   endloop
 endfacet
 facet normal  0.000000e+00  7.710427e-01  6.367834e-01
   outer loop
     vertex  1.763393e-01 -1.398529e-01  5.372951e-01
     vertex  1.759393e-01 -1.399172e-01  5.373729e-01
     vertex  1.762393e-01 -1.399172e-01  5.373729e-01
   endloop
 endfacet
 facet normal -7.255448e-11  7.710427e-01  6.367834e-01
   outer loop
     vertex  1.755905e-01 -1.392990e-01  5.366244e-01
     vertex  1.759393e-01 -1.399172e-01  5.373729e-01
     vertex  1.763393e-01 -1.398529e-01  5.372951e-01
   endloop
 endfacet
 facet normal -1.297632e-10  7.710427e-01  6.367834e-01
   outer loop
     vertex  1.755905e-01 -1.386421e-01  5.358290e-01
     vertex  1.755905e-01 -1.392990e-01  5.366244e-01
     vertex  1.763393e-01 -1.398529e-01  5.372951e-01
   endloop
 endfacet
 facet normal -2.949285e-11  7.710427e-01  6.367834e-01
   outer loop
     vertex  1.763393e-01 -1.380882e-01  5.351583e-01
     vertex  1.759393e-01 -1.380239e-01  5.350805e-01
     vertex  1.755905e-01 -1.386421e-01  5.358290e-01
   endloop
 endfacet
 facet normal  2.046808e-12  7.710427e-01  6.367834e-01
   outer loop
     vertex  1.763393e-01 -1.380882e-01  5.351583e-01
     vertex  1.755905e-01 -1.386421e-01  5.358290e-01
     vertex  1.763393e-01 -1.398529e-01  5.372951e-01
   endloop
 endfacet
 facet normal  0.000000e+00  7.710427e-01  6.367834e-01
   outer loop
     vertex  1.762393e-01 -1.380239e-01  5.350805e-01
     vertex  1.759393e-01 -1.380239e-01  5.350805e-01
     vertex  1.763393e-01 -1.380882e-01  5.351583e-01
   endloop
 endfacet
 facet normal -9.156024e-01  3.115690e-02 -4.008758e-01
   outer loop
     vertex  1.759393e-01 -1.394025e-01  5.349733e-01
     vertex  1.755905e-01 -1.386421e-01  5.358290e-01
     vertex  1.759393e-01 -1.380239e-01  5.350805e-01
   endloop
 endfacet
 facet normal -9.156024e-01 -3.877607e-01  1.063663e-01
   outer loop
     vertex  1.759393e-01 -1.402830e-01  5.360395e-01
     vertex  1.759393e-01 -1.399172e-01  5.373729e-01
     vertex  1.755905e-01 -1.392990e-01  5.366244e-01
   endloop
 endfacet
 facet normal -9.556083e-01 -2.271801e-01 -1.876219e-01
   outer loop
     vertex  1.759393e-01 -1.402830e-01  5.360395e-01
     vertex  1.755905e-01 -1.392990e-01  5.366244e-01
     vertex  1.755905e-01 -1.386421e-01  5.358290e-01
   endloop
 endfacet
 facet normal -9.556083e-01 -2.271801e-01 -1.876219e-01
   outer loop
     vertex  1.759393e-01 -1.402830e-01  5.360395e-01
     vertex  1.755905e-01 -1.386421e-01  5.358290e-01
     vertex  1.759393e-01 -1.394025e-01  5.349733e-01
   endloop
 endfacet
 facet normal  0.000000e+00 -7.710427e-01 -6.367834e-01
   outer loop
     vertex  1.763393e-01 -1.377798e-01  5.354130e-01
     vertex  1.759393e-01 -1.377155e-01  5.353352e-01
     vertex  1.762393e-01 -1.377155e-01  5.353352e-01
   endloop
 endfacet
 facet normal  2.949279e-11 -7.710427e-01 -6.367834e-01
   outer loop
     vertex  1.755905e-01 -1.383337e-01  5.360837e-01
     vertex  1.759393e-01 -1.377155e-01  5.353352e-01
     vertex  1.763393e-01 -1.377798e-01  5.354130e-01
   endloop
 endfacet
 facet normal -8.702550e-11 -7.710427e-01 -6.367834e-01
   outer loop
     vertex  1.755905e-01 -1.389906e-01  5.368791e-01
     vertex  1.755905e-01 -1.383337e-01  5.360837e-01
     vertex  1.763393e-01 -1.377798e-01  5.354130e-01
   endloop
 endfacet
 facet normal  7.777846e-11 -7.710427e-01 -6.367834e-01
   outer loop
     vertex  1.763393e-01 -1.395445e-01  5.375498e-01
     vertex  1.759393e-01 -1.396088e-01  5.376277e-01
     vertex  1.755905e-01 -1.389906e-01  5.368791e-01
   endloop
 endfacet
 facet normal  9.873048e-11 -7.710427e-01 -6.367834e-01
   outer loop
     vertex  1.763393e-01 -1.395445e-01  5.375498e-01
     vertex  1.755905e-01 -1.389906e-01  5.368791e-01
     vertex  1.763393e-01 -1.377798e-01  5.354130e-01
   endloop
 endfacet
 facet normal -0.000000e+00 -7.710427e-01 -6.367834e-01
   outer loop
     vertex  1.762393e-01 -1.396088e-01  5.376277e-01
     vertex  1.759393e-01 -1.396088e-01  5.376277e-01
     vertex  1.763393e-01 -1.395445e-01  5.375498e-01
   endloop
 endfacet
 facet normal  0.000000e+00 -7.748837e-02  9.969933e-01
   outer loop
     vertex  1.759393e-01 -1.382302e-01  5.377348e-01
     vertex  1.762393e-01 -1.396088e-01  5.376277e-01
     vertex  1.762393e-01 -1.382302e-01  5.377348e-01
   endloop
 endfacet
 facet normal  0.000000e+00 -7.748837e-02  9.969933e-01
   outer loop
     vertex  1.759393e-01 -1.382302e-01  5.377348e-01
     vertex  1.759393e-01 -1.396088e-01  5.376277e-01
     vertex  1.762393e-01 -1.396088e-01  5.376277e-01
   endloop
 endfacet
 facet normal -0.000000e+00  7.710427e-01  6.367834e-01
   outer loop
     vertex  1.759393e-01 -1.373497e-01  5.366687e-01
     vertex  1.762393e-01 -1.382302e-01  5.377348e-01
     vertex  1.762393e-01 -1.373497e-01  5.366687e-01
   endloop
 endfacet
 facet normal  0.000000e+00  7.710427e-01  6.367834e-01
   outer loop
     vertex  1.759393e-01 -1.373497e-01  5.366687e-01
     vertex  1.759393e-01 -1.382302e-01  5.377348e-01
     vertex  1.762393e-01 -1.382302e-01  5.377348e-01
   endloop
 endfacet
 facet normal  0.000000e+00  9.643755e-01 -2.645371e-01
   outer loop
     vertex  1.759393e-01 -1.377155e-01  5.353352e-01
     vertex  1.762393e-01 -1.373497e-01  5.366687e-01
     vertex  1.762393e-01 -1.377155e-01  5.353352e-01
   endloop
 endfacet
 facet normal  0.000000e+00  9.643755e-01 -2.645371e-01
   outer loop
     vertex  1.759393e-01 -1.377155e-01  5.353352e-01
     vertex  1.759393e-01 -1.373497e-01  5.366687e-01
     vertex  1.762393e-01 -1.373497e-01  5.366687e-01
   endloop
 endfacet
 facet normal -9.156024e-01  3.877607e-01 -1.063663e-01
   outer loop
     vertex  1.755905e-01 -1.383337e-01  5.360837e-01
     vertex  1.759393e-01 -1.373497e-01  5.366687e-01
     vertex  1.759393e-01 -1.377155e-01  5.353352e-01
   endloop
 endfacet
 facet normal -9.556083e-01  2.271801e-01  1.876219e-01
   outer loop
     vertex  1.755905e-01 -1.389906e-01  5.368791e-01
     vertex  1.759393e-01 -1.382302e-01  5.377348e-01
     vertex  1.759393e-01 -1.373497e-01  5.366687e-01
   endloop
 endfacet
 facet normal -9.556083e-01  2.271801e-01  1.876219e-01
   outer loop
     vertex  1.755905e-01 -1.389906e-01  5.368791e-01
     vertex  1.759393e-01 -1.373497e-01  5.366687e-01
     vertex  1.755905e-01 -1.383337e-01  5.360837e-01
   endloop
 endfacet
 facet normal -9.156024e-01 -3.115690e-02  4.008758e-01
   outer loop
     vertex  1.759393e-01 -1.396088e-01  5.376277e-01
     vertex  1.759393e-01 -1.382302e-01  5.377348e-01
     vertex  1.755905e-01 -1.389906e-01  5.368791e-01
   endloop
 endfacet
endsolid
