solid 
 facet normal  0.000000e+00  0.000000e+00 -1.000000e+00
   outer loop
     vertex  2.131050e-01 -1.259663e-01  3.573533e-01
     vertex  2.181050e-01 -1.509663e-01  3.573533e-01
     vertex  2.131050e-01 -1.509663e-01  3.573533e-01
   endloop
 endfacet
 facet normal  0.000000e+00  0.000000e+00 -1.000000e+00
   outer loop
     vertex  2.131050e-01 -1.259663e-01  3.573533e-01
     vertex  2.181050e-01 -1.259663e-01  3.573533e-01
     vertex  2.181050e-01 -1.509663e-01  3.573533e-01
   endloop
 endfacet
 facet normal  1.000000e+00 -0.000000e+00  0.000000e+00
   outer loop
     vertex  2.181050e-01 -1.168663e-01  3.152974e-01
     vertex  2.181050e-01 -1.166663e-01  3.068908e-01
     vertex  2.181050e-01 -1.166663e-01  3.152974e-01
   endloop
 endfacet
 facet normal  1.000000e+00  0.000000e+00  0.000000e+00
   outer loop
     vertex  2.181050e-01 -1.259663e-01  3.323533e-01
     vertex  2.181050e-01 -1.168663e-01  3.152974e-01
     vertex  2.181050e-01 -1.168663e-01  3.192974e-01
   endloop
 endfacet
 facet normal  1.000000e+00  0.000000e+00  0.000000e+00
   outer loop
     vertex  2.181050e-01 -1.259663e-01  3.323533e-01
     vertex  2.181050e-01 -1.168663e-01  3.192974e-01
     vertex  2.181050e-01 -1.166663e-01  3.192974e-01
   endloop
 endfacet
 facet normal  1.000000e+00  0.000000e+00  0.000000e+00
   outer loop
     vertex  2.181050e-01 -1.607663e-01  3.152974e-01
     vertex  2.181050e-01 -1.609663e-01  3.068908e-01
     vertex  2.181050e-01 -1.166663e-01  3.068908e-01
   endloop
 endfacet
 facet normal  1.000000e+00 -0.000000e+00  0.000000e+00
   outer loop
     vertex  2.181050e-01 -1.607663e-01  3.152974e-01
     vertex  2.181050e-01 -1.166663e-01  3.068908e-01
     vertex  2.181050e-01 -1.168663e-01  3.152974e-01
   endloop
 endfacet
 facet normal  1.000000e+00 -0.000000e+00  0.000000e+00
   outer loop
     vertex  2.181050e-01 -1.609663e-01  3.152974e-01
     vertex  2.181050e-01 -1.609663e-01  3.068908e-01
     vertex  2.181050e-01 -1.607663e-01  3.152974e-01
   endloop
 endfacet
 facet normal  1.000000e+00  0.000000e+00  0.000000e+00
   outer loop
     vertex  2.181050e-01 -1.509663e-01  3.323533e-01
     vertex  2.181050e-01 -1.609663e-01  3.192974e-01
     vertex  2.181050e-01 -1.607663e-01  3.192974e-01
   endloop
 endfacet
 facet normal  1.000000e+00  0.000000e+00  0.000000e+00
   outer loop
     vertex  2.181050e-01 -1.509663e-01  3.323533e-01
     vertex  2.181050e-01 -1.607663e-01  3.192974e-01
     vertex  2.181050e-01 -1.607663e-01  3.152974e-01
   endloop
 endfacet
 facet normal  1.000000e+00 -0.000000e+00  0.000000e+00
   outer loop
     vertex  2.181050e-01 -1.509663e-01  3.323533e-01
     vertex  2.181050e-01 -1.168663e-01  3.152974e-01
     vertex  2.181050e-01 -1.259663e-01  3.323533e-01
   endloop
 endfacet
 facet normal  1.000000e+00  0.000000e+00  0.000000e+00
   outer loop
     vertex  2.181050e-01 -1.509663e-01  3.323533e-01
     vertex  2.181050e-01 -1.607663e-01  3.152974e-01
     vertex  2.181050e-01 -1.168663e-01  3.152974e-01
   endloop
 endfacet
 facet normal  1.000000e+00  0.000000e+00  0.000000e+00
   outer loop
     vertex  2.181050e-01 -1.259663e-01  3.573533e-01
     vertex  2.181050e-01 -1.259663e-01  3.323533e-01
     vertex  2.181050e-01 -1.166663e-01  3.192974e-01
   endloop
 endfacet
 facet normal  1.000000e+00  0.000000e+00  0.000000e+00
   outer loop
     vertex  2.181050e-01 -1.166663e-01  3.712974e-01
     vertex  2.181050e-01 -1.259663e-01  3.573533e-01
     vertex  2.181050e-01 -1.166663e-01  3.192974e-01
   endloop
 endfacet
 facet normal  1.000000e+00 -0.000000e+00  0.000000e+00
   outer loop
     vertex  2.181050e-01 -1.168663e-01  3.712974e-01
     vertex  2.181050e-01 -1.259663e-01  3.573533e-01
     vertex  2.181050e-01 -1.166663e-01  3.712974e-01
   endloop
 endfacet
 facet normal  1.000000e+00  0.000000e+00  0.000000e+00
   outer loop
     vertex  2.181050e-01 -1.168663e-01  3.752974e-01
     vertex  2.181050e-01 -1.259663e-01  3.573533e-01
     vertex  2.181050e-01 -1.168663e-01  3.712974e-01
   endloop
 endfacet
 facet normal  1.000000e+00  0.000000e+00  0.000000e+00
   outer loop
     vertex  2.181050e-01 -1.166663e-01  3.837041e-01
     vertex  2.181050e-01 -1.168663e-01  3.752974e-01
     vertex  2.181050e-01 -1.166663e-01  3.752974e-01
   endloop
 endfacet
 facet normal  1.000000e+00  0.000000e+00  0.000000e+00
   outer loop
     vertex  2.181050e-01 -1.509663e-01  3.573533e-01
     vertex  2.181050e-01 -1.609663e-01  3.192974e-01
     vertex  2.181050e-01 -1.509663e-01  3.323533e-01
   endloop
 endfacet
 facet normal  1.000000e+00  0.000000e+00  0.000000e+00
   outer loop
     vertex  2.181050e-01 -1.509663e-01  3.573533e-01
     vertex  2.181050e-01 -1.259663e-01  3.573533e-01
     vertex  2.181050e-01 -1.168663e-01  3.752974e-01
   endloop
 endfacet
 facet normal  1.000000e+00  0.000000e+00  0.000000e+00
   outer loop
     vertex  2.181050e-01 -1.609663e-01  3.712974e-01
     vertex  2.181050e-01 -1.609663e-01  3.192974e-01
     vertex  2.181050e-01 -1.509663e-01  3.573533e-01
   endloop
 endfacet
 facet normal  1.000000e+00 -0.000000e+00  0.000000e+00
   outer loop
     vertex  2.181050e-01 -1.609663e-01  3.712974e-01
     vertex  2.181050e-01 -1.509663e-01  3.573533e-01
     vertex  2.181050e-01 -1.607663e-01  3.712974e-01
   endloop
 endfacet
 facet normal  1.000000e+00 -0.000000e+00  0.000000e+00
   outer loop
     vertex  2.181050e-01 -1.607663e-01  3.752974e-01
     vertex  2.181050e-01 -1.509663e-01  3.573533e-01
     vertex  2.181050e-01 -1.168663e-01  3.752974e-01
   endloop
 endfacet
 facet normal  1.000000e+00  0.000000e+00  0.000000e+00
   outer loop
     vertex  2.181050e-01 -1.607663e-01  3.752974e-01
     vertex  2.181050e-01 -1.607663e-01  3.712974e-01
     vertex  2.181050e-01 -1.509663e-01  3.573533e-01
   endloop
 endfacet
 facet normal  1.000000e+00  0.000000e+00  0.000000e+00
   outer loop
     vertex  2.181050e-01 -1.609663e-01  3.837041e-01
     vertex  2.181050e-01 -1.609663e-01  3.752974e-01
     vertex  2.181050e-01 -1.607663e-01  3.752974e-01
   endloop
 endfacet
 facet normal  1.000000e+00 -0.000000e+00  0.000000e+00
   outer loop
     vertex  2.181050e-01 -1.609663e-01  3.837041e-01
     vertex  2.181050e-01 -1.168663e-01  3.752974e-01
     vertex  2.181050e-01 -1.166663e-01  3.837041e-01
   endloop
 endfacet
 facet normal  1.000000e+00  0.000000e+00  0.000000e+00
   outer loop
     vertex  2.181050e-01 -1.609663e-01  3.837041e-01
     vertex  2.181050e-01 -1.607663e-01  3.752974e-01
     vertex  2.181050e-01 -1.168663e-01  3.752974e-01
   endloop
 endfacet
 facet normal  0.000000e+00  0.000000e+00  1.000000e+00
   outer loop
     vertex  2.081050e-01 -1.609663e-01  3.152974e-01
     vertex  2.181050e-01 -1.607663e-01  3.152974e-01
     vertex  2.081050e-01 -1.607663e-01  3.152974e-01
   endloop
 endfacet
 facet normal  0.000000e+00  0.000000e+00  1.000000e+00
   outer loop
     vertex  2.081050e-01 -1.609663e-01  3.152974e-01
     vertex  2.181050e-01 -1.609663e-01  3.152974e-01
     vertex  2.181050e-01 -1.607663e-01  3.152974e-01
   endloop
 endfacet
 facet normal  0.000000e+00 -1.000000e+00  0.000000e+00
   outer loop
     vertex  2.081050e-01 -1.609663e-01  3.152974e-01
     vertex  2.181050e-01 -1.609663e-01  3.068908e-01
     vertex  2.181050e-01 -1.609663e-01  3.152974e-01
   endloop
 endfacet
 facet normal  0.000000e+00 -1.000000e+00  0.000000e+00
   outer loop
     vertex  2.132210e-01 -1.609663e-01  3.040711e-01
     vertex  2.181050e-01 -1.609663e-01  3.068908e-01
     vertex  2.081050e-01 -1.609663e-01  3.152974e-01
   endloop
 endfacet
 facet normal  0.000000e+00 -1.000000e+00  0.000000e+00
   outer loop
     vertex  2.129710e-01 -1.609663e-01  3.040041e-01
     vertex  2.130578e-01 -1.609663e-01  3.040117e-01
     vertex  2.131420e-01 -1.609663e-01  3.040342e-01
   endloop
 endfacet
 facet normal  0.000000e+00 -1.000000e+00  0.000000e+00
   outer loop
     vertex  2.129710e-01 -1.609663e-01  3.040041e-01
     vertex  2.131420e-01 -1.609663e-01  3.040342e-01
     vertex  2.132210e-01 -1.609663e-01  3.040711e-01
   endloop
 endfacet
 facet normal  0.000000e+00 -1.000000e+00  0.000000e+00
   outer loop
     vertex  2.129710e-01 -1.609663e-01  3.040041e-01
     vertex  2.132210e-01 -1.609663e-01  3.040711e-01
     vertex  2.081050e-01 -1.609663e-01  3.152974e-01
   endloop
 endfacet
 facet normal  0.000000e+00 -1.000000e+00  0.000000e+00
   outer loop
     vertex  2.081050e-01 -1.609663e-01  3.040041e-01
     vertex  2.129710e-01 -1.609663e-01  3.040041e-01
     vertex  2.081050e-01 -1.609663e-01  3.152974e-01
   endloop
 endfacet
 facet normal  5.000000e-01  0.000000e+00 -8.660254e-01
   outer loop
     vertex  2.132210e-01 -1.166663e-01  3.040711e-01
     vertex  2.181050e-01 -1.166663e-01  3.068908e-01
     vertex  2.181050e-01 -1.609663e-01  3.068908e-01
   endloop
 endfacet
 facet normal  5.000000e-01  0.000000e+00 -8.660254e-01
   outer loop
     vertex  2.132210e-01 -1.166663e-01  3.040711e-01
     vertex  2.181050e-01 -1.609663e-01  3.068908e-01
     vertex  2.132210e-01 -1.609663e-01  3.040711e-01
   endloop
 endfacet
 facet normal -0.000000e+00  1.000000e+00  0.000000e+00
   outer loop
     vertex  2.081050e-01 -1.166663e-01  3.152974e-01
     vertex  2.181050e-01 -1.166663e-01  3.152974e-01
     vertex  2.181050e-01 -1.166663e-01  3.068908e-01
   endloop
 endfacet
 facet normal  0.000000e+00  1.000000e+00 -0.000000e+00
   outer loop
     vertex  2.132210e-01 -1.166663e-01  3.040711e-01
     vertex  2.081050e-01 -1.166663e-01  3.152974e-01
     vertex  2.181050e-01 -1.166663e-01  3.068908e-01
   endloop
 endfacet
 facet normal  0.000000e+00  1.000000e+00  0.000000e+00
   outer loop
     vertex  2.130578e-01 -1.166663e-01  3.040117e-01
     vertex  2.132210e-01 -1.166663e-01  3.040711e-01
     vertex  2.131420e-01 -1.166663e-01  3.040342e-01
   endloop
 endfacet
 facet normal  0.000000e+00  1.000000e+00 -0.000000e+00
   outer loop
     vertex  2.129710e-01 -1.166663e-01  3.040041e-01
     vertex  2.081050e-01 -1.166663e-01  3.152974e-01
     vertex  2.132210e-01 -1.166663e-01  3.040711e-01
   endloop
 endfacet
 facet normal  0.000000e+00  1.000000e+00  0.000000e+00
   outer loop
     vertex  2.129710e-01 -1.166663e-01  3.040041e-01
     vertex  2.132210e-01 -1.166663e-01  3.040711e-01
     vertex  2.130578e-01 -1.166663e-01  3.040117e-01
   endloop
 endfacet
 facet normal  0.000000e+00  1.000000e+00  0.000000e+00
   outer loop
     vertex  2.081050e-01 -1.166663e-01  3.040041e-01
     vertex  2.081050e-01 -1.166663e-01  3.152974e-01
     vertex  2.129710e-01 -1.166663e-01  3.040041e-01
   endloop
 endfacet
 facet normal  0.000000e+00  0.000000e+00  1.000000e+00
   outer loop
     vertex  2.081050e-01 -1.168663e-01  3.152974e-01
     vertex  2.181050e-01 -1.168663e-01  3.152974e-01
     vertex  2.181050e-01 -1.166663e-01  3.152974e-01
   endloop
 endfacet
 facet normal  0.000000e+00  0.000000e+00  1.000000e+00
   outer loop
     vertex  2.081050e-01 -1.168663e-01  3.152974e-01
     vertex  2.181050e-01 -1.166663e-01  3.152974e-01
     vertex  2.081050e-01 -1.166663e-01  3.152974e-01
   endloop
 endfacet
 facet normal  0.000000e+00  1.000000e+00  0.000000e+00
   outer loop
     vertex  2.081050e-01 -1.168663e-01  3.152974e-01
     vertex  2.181050e-01 -1.168663e-01  3.192974e-01
     vertex  2.181050e-01 -1.168663e-01  3.152974e-01
   endloop
 endfacet
 facet normal -0.000000e+00  1.000000e+00  0.000000e+00
   outer loop
     vertex  2.081050e-01 -1.168663e-01  3.192974e-01
     vertex  2.181050e-01 -1.168663e-01  3.192974e-01
     vertex  2.081050e-01 -1.168663e-01  3.152974e-01
   endloop
 endfacet
 facet normal  0.000000e+00  0.000000e+00 -1.000000e+00
   outer loop
     vertex  2.081050e-01 -1.166663e-01  3.192974e-01
     vertex  2.181050e-01 -1.168663e-01  3.192974e-01
     vertex  2.081050e-01 -1.168663e-01  3.192974e-01
   endloop
 endfacet
 facet normal  0.000000e+00  0.000000e+00 -1.000000e+00
   outer loop
     vertex  2.081050e-01 -1.166663e-01  3.192974e-01
     vertex  2.181050e-01 -1.166663e-01  3.192974e-01
     vertex  2.181050e-01 -1.168663e-01  3.192974e-01
   endloop
 endfacet
 facet normal  0.000000e+00  1.000000e+00 -0.000000e+00
   outer loop
     vertex  2.181050e-01 -1.166663e-01  3.192974e-01
     vertex  2.081050e-01 -1.166663e-01  3.712974e-01
     vertex  2.181050e-01 -1.166663e-01  3.712974e-01
   endloop
 endfacet
 facet normal  0.000000e+00  1.000000e+00  0.000000e+00
   outer loop
     vertex  2.081050e-01 -1.166663e-01  3.192974e-01
     vertex  2.081050e-01 -1.166663e-01  3.712974e-01
     vertex  2.181050e-01 -1.166663e-01  3.192974e-01
   endloop
 endfacet
 facet normal  0.000000e+00  0.000000e+00  1.000000e+00
   outer loop
     vertex  2.081050e-01 -1.168663e-01  3.712974e-01
     vertex  2.181050e-01 -1.168663e-01  3.712974e-01
     vertex  2.181050e-01 -1.166663e-01  3.712974e-01
   endloop
 endfacet
 facet normal  0.000000e+00  0.000000e+00  1.000000e+00
   outer loop
     vertex  2.081050e-01 -1.168663e-01  3.712974e-01
     vertex  2.181050e-01 -1.166663e-01  3.712974e-01
     vertex  2.081050e-01 -1.166663e-01  3.712974e-01
   endloop
 endfacet
 facet normal  0.000000e+00  1.000000e+00  0.000000e+00
   outer loop
     vertex  2.081050e-01 -1.168663e-01  3.712974e-01
     vertex  2.181050e-01 -1.168663e-01  3.752974e-01
     vertex  2.181050e-01 -1.168663e-01  3.712974e-01
   endloop
 endfacet
 facet normal -0.000000e+00  1.000000e+00  0.000000e+00
   outer loop
     vertex  2.081050e-01 -1.168663e-01  3.752974e-01
     vertex  2.181050e-01 -1.168663e-01  3.752974e-01
     vertex  2.081050e-01 -1.168663e-01  3.712974e-01
   endloop
 endfacet
 facet normal  0.000000e+00  0.000000e+00 -1.000000e+00
   outer loop
     vertex  2.081050e-01 -1.166663e-01  3.752974e-01
     vertex  2.181050e-01 -1.168663e-01  3.752974e-01
     vertex  2.081050e-01 -1.168663e-01  3.752974e-01
   endloop
 endfacet
 facet normal  0.000000e+00  0.000000e+00 -1.000000e+00
   outer loop
     vertex  2.081050e-01 -1.166663e-01  3.752974e-01
     vertex  2.181050e-01 -1.166663e-01  3.752974e-01
     vertex  2.181050e-01 -1.168663e-01  3.752974e-01
   endloop
 endfacet
 facet normal  0.000000e+00  1.000000e+00  0.000000e+00
   outer loop
     vertex  2.151006e-01 -1.166663e-01  3.886739e-01
     vertex  2.152510e-01 -1.166663e-01  3.885871e-01
     vertex  2.153626e-01 -1.166663e-01  3.884541e-01
   endloop
 endfacet
 facet normal  0.000000e+00  1.000000e+00  0.000000e+00
   outer loop
     vertex  2.149296e-01 -1.166663e-01  3.887041e-01
     vertex  2.151006e-01 -1.166663e-01  3.886739e-01
     vertex  2.153626e-01 -1.166663e-01  3.884541e-01
   endloop
 endfacet
 facet normal  0.000000e+00  1.000000e+00  0.000000e+00
   outer loop
     vertex  2.181050e-01 -1.166663e-01  3.837041e-01
     vertex  2.149296e-01 -1.166663e-01  3.887041e-01
     vertex  2.153626e-01 -1.166663e-01  3.884541e-01
   endloop
 endfacet
 facet normal -0.000000e+00  1.000000e+00  0.000000e+00
   outer loop
     vertex  2.081050e-01 -1.166663e-01  3.887041e-01
     vertex  2.149296e-01 -1.166663e-01  3.887041e-01
     vertex  2.181050e-01 -1.166663e-01  3.837041e-01
   endloop
 endfacet
 facet normal  0.000000e+00  1.000000e+00  0.000000e+00
   outer loop
     vertex  2.081050e-01 -1.166663e-01  3.752974e-01
     vertex  2.181050e-01 -1.166663e-01  3.837041e-01
     vertex  2.181050e-01 -1.166663e-01  3.752974e-01
   endloop
 endfacet
 facet normal  0.000000e+00  1.000000e+00  0.000000e+00
   outer loop
     vertex  2.081050e-01 -1.166663e-01  3.752974e-01
     vertex  2.081050e-01 -1.166663e-01  3.887041e-01
     vertex  2.181050e-01 -1.166663e-01  3.837041e-01
   endloop
 endfacet
 facet normal  8.660254e-01  0.000000e+00  5.000000e-01
   outer loop
     vertex  2.181050e-01 -1.166663e-01  3.837041e-01
     vertex  2.153626e-01 -1.609663e-01  3.884541e-01
     vertex  2.181050e-01 -1.609663e-01  3.837041e-01
   endloop
 endfacet
 facet normal  8.660254e-01  0.000000e+00  5.000000e-01
   outer loop
     vertex  2.181050e-01 -1.166663e-01  3.837041e-01
     vertex  2.153626e-01 -1.166663e-01  3.884541e-01
     vertex  2.153626e-01 -1.609663e-01  3.884541e-01
   endloop
 endfacet
 facet normal  0.000000e+00 -1.000000e+00  0.000000e+00
   outer loop
     vertex  2.151006e-01 -1.609663e-01  3.886739e-01
     vertex  2.153626e-01 -1.609663e-01  3.884541e-01
     vertex  2.152510e-01 -1.609663e-01  3.885871e-01
   endloop
 endfacet
 facet normal  0.000000e+00 -1.000000e+00  0.000000e+00
   outer loop
     vertex  2.149296e-01 -1.609663e-01  3.887041e-01
     vertex  2.153626e-01 -1.609663e-01  3.884541e-01
     vertex  2.151006e-01 -1.609663e-01  3.886739e-01
   endloop
 endfacet
 facet normal  0.000000e+00 -1.000000e+00  0.000000e+00
   outer loop
     vertex  2.181050e-01 -1.609663e-01  3.837041e-01
     vertex  2.153626e-01 -1.609663e-01  3.884541e-01
     vertex  2.149296e-01 -1.609663e-01  3.887041e-01
   endloop
 endfacet
 facet normal  0.000000e+00 -1.000000e+00  0.000000e+00
   outer loop
     vertex  2.081050e-01 -1.609663e-01  3.887041e-01
     vertex  2.181050e-01 -1.609663e-01  3.837041e-01
     vertex  2.149296e-01 -1.609663e-01  3.887041e-01
   endloop
 endfacet
 facet normal  0.000000e+00 -1.000000e+00  0.000000e+00
   outer loop
     vertex  2.081050e-01 -1.609663e-01  3.752974e-01
     vertex  2.181050e-01 -1.609663e-01  3.752974e-01
     vertex  2.181050e-01 -1.609663e-01  3.837041e-01
   endloop
 endfacet
 facet normal  0.000000e+00 -1.000000e+00  0.000000e+00
   outer loop
     vertex  2.081050e-01 -1.609663e-01  3.752974e-01
     vertex  2.181050e-01 -1.609663e-01  3.837041e-01
     vertex  2.081050e-01 -1.609663e-01  3.887041e-01
   endloop
 endfacet
 facet normal -1.000000e+00  0.000000e+00  0.000000e+00
   outer loop
     vertex  2.081050e-01 -1.168663e-01  3.752974e-01
     vertex  2.081050e-01 -1.166663e-01  3.887041e-01
     vertex  2.081050e-01 -1.166663e-01  3.752974e-01
   endloop
 endfacet
 facet normal -1.000000e+00  0.000000e+00  0.000000e+00
   outer loop
     vertex  2.081050e-01 -1.607663e-01  3.752974e-01
     vertex  2.081050e-01 -1.609663e-01  3.887041e-01
     vertex  2.081050e-01 -1.166663e-01  3.887041e-01
   endloop
 endfacet
 facet normal -1.000000e+00  0.000000e+00  0.000000e+00
   outer loop
     vertex  2.081050e-01 -1.607663e-01  3.752974e-01
     vertex  2.081050e-01 -1.166663e-01  3.887041e-01
     vertex  2.081050e-01 -1.168663e-01  3.752974e-01
   endloop
 endfacet
 facet normal -1.000000e+00  0.000000e+00  0.000000e+00
   outer loop
     vertex  2.081050e-01 -1.609663e-01  3.752974e-01
     vertex  2.081050e-01 -1.609663e-01  3.887041e-01
     vertex  2.081050e-01 -1.607663e-01  3.752974e-01
   endloop
 endfacet
 facet normal -1.000000e+00  0.000000e+00  0.000000e+00
   outer loop
     vertex  2.081050e-01 -1.607663e-01  3.712974e-01
     vertex  2.081050e-01 -1.168663e-01  3.752974e-01
     vertex  2.081050e-01 -1.168663e-01  3.712974e-01
   endloop
 endfacet
 facet normal -1.000000e+00  0.000000e+00  0.000000e+00
   outer loop
     vertex  2.081050e-01 -1.607663e-01  3.712974e-01
     vertex  2.081050e-01 -1.607663e-01  3.752974e-01
     vertex  2.081050e-01 -1.168663e-01  3.752974e-01
   endloop
 endfacet
 facet normal -1.000000e+00  0.000000e+00  0.000000e+00
   outer loop
     vertex  2.081050e-01 -1.168663e-01  3.192974e-01
     vertex  2.081050e-01 -1.168663e-01  3.712974e-01
     vertex  2.081050e-01 -1.166663e-01  3.712974e-01
   endloop
 endfacet
 facet normal -1.000000e+00  0.000000e+00  0.000000e+00
   outer loop
     vertex  2.081050e-01 -1.168663e-01  3.192974e-01
     vertex  2.081050e-01 -1.166663e-01  3.712974e-01
     vertex  2.081050e-01 -1.166663e-01  3.192974e-01
   endloop
 endfacet
 facet normal -1.000000e+00  0.000000e+00  0.000000e+00
   outer loop
     vertex  2.081050e-01 -1.168663e-01  3.192974e-01
     vertex  2.081050e-01 -1.607663e-01  3.712974e-01
     vertex  2.081050e-01 -1.168663e-01  3.712974e-01
   endloop
 endfacet
 facet normal -1.000000e+00  0.000000e+00  0.000000e+00
   outer loop
     vertex  2.081050e-01 -1.166663e-01  3.040041e-01
     vertex  2.081050e-01 -1.168663e-01  3.152974e-01
     vertex  2.081050e-01 -1.166663e-01  3.152974e-01
   endloop
 endfacet
 facet normal -1.000000e+00  0.000000e+00  0.000000e+00
   outer loop
     vertex  2.081050e-01 -1.607663e-01  3.192974e-01
     vertex  2.081050e-01 -1.609663e-01  3.712974e-01
     vertex  2.081050e-01 -1.607663e-01  3.712974e-01
   endloop
 endfacet
 facet normal -1.000000e+00  0.000000e+00  0.000000e+00
   outer loop
     vertex  2.081050e-01 -1.607663e-01  3.192974e-01
     vertex  2.081050e-01 -1.607663e-01  3.712974e-01
     vertex  2.081050e-01 -1.168663e-01  3.192974e-01
   endloop
 endfacet
 facet normal -1.000000e+00  0.000000e+00  0.000000e+00
   outer loop
     vertex  2.081050e-01 -1.609663e-01  3.192974e-01
     vertex  2.081050e-01 -1.609663e-01  3.712974e-01
     vertex  2.081050e-01 -1.607663e-01  3.192974e-01
   endloop
 endfacet
 facet normal -1.000000e+00  0.000000e+00  0.000000e+00
   outer loop
     vertex  2.081050e-01 -1.607663e-01  3.152974e-01
     vertex  2.081050e-01 -1.168663e-01  3.192974e-01
     vertex  2.081050e-01 -1.168663e-01  3.152974e-01
   endloop
 endfacet
 facet normal -1.000000e+00  0.000000e+00  0.000000e+00
   outer loop
     vertex  2.081050e-01 -1.607663e-01  3.152974e-01
     vertex  2.081050e-01 -1.168663e-01  3.152974e-01
     vertex  2.081050e-01 -1.166663e-01  3.040041e-01
   endloop
 endfacet
 facet normal -1.000000e+00  0.000000e+00  0.000000e+00
   outer loop
     vertex  2.081050e-01 -1.607663e-01  3.152974e-01
     vertex  2.081050e-01 -1.607663e-01  3.192974e-01
     vertex  2.081050e-01 -1.168663e-01  3.192974e-01
   endloop
 endfacet
 facet normal -1.000000e+00  0.000000e+00  0.000000e+00
   outer loop
     vertex  2.081050e-01 -1.609663e-01  3.040041e-01
     vertex  2.081050e-01 -1.609663e-01  3.152974e-01
     vertex  2.081050e-01 -1.607663e-01  3.152974e-01
   endloop
 endfacet
 facet normal -1.000000e+00  0.000000e+00  0.000000e+00
   outer loop
     vertex  2.081050e-01 -1.609663e-01  3.040041e-01
     vertex  2.081050e-01 -1.607663e-01  3.152974e-01
     vertex  2.081050e-01 -1.166663e-01  3.040041e-01
   endloop
 endfacet
 facet normal  0.000000e+00  0.000000e+00 -1.000000e+00
   outer loop
     vertex  2.129710e-01 -1.609663e-01  3.040041e-01
     vertex  2.081050e-01 -1.166663e-01  3.040041e-01
     vertex  2.129710e-01 -1.166663e-01  3.040041e-01
   endloop
 endfacet
 facet normal  0.000000e+00  0.000000e+00 -1.000000e+00
   outer loop
     vertex  2.081050e-01 -1.609663e-01  3.040041e-01
     vertex  2.081050e-01 -1.166663e-01  3.040041e-01
     vertex  2.129710e-01 -1.609663e-01  3.040041e-01
   endloop
 endfacet
 facet normal  4.226183e-01  0.000000e+00 -9.063078e-01
   outer loop
     vertex  2.132210e-01 -1.166663e-01  3.040711e-01
     vertex  2.132210e-01 -1.609663e-01  3.040711e-01
     vertex  2.131420e-01 -1.609663e-01  3.040342e-01
   endloop
 endfacet
 facet normal  2.588190e-01  0.000000e+00 -9.659258e-01
   outer loop
     vertex  2.131420e-01 -1.166663e-01  3.040342e-01
     vertex  2.131420e-01 -1.609663e-01  3.040342e-01
     vertex  2.130578e-01 -1.609663e-01  3.040117e-01
   endloop
 endfacet
 facet normal  4.226183e-01  0.000000e+00 -9.063078e-01
   outer loop
     vertex  2.131420e-01 -1.166663e-01  3.040342e-01
     vertex  2.132210e-01 -1.166663e-01  3.040711e-01
     vertex  2.131420e-01 -1.609663e-01  3.040342e-01
   endloop
 endfacet
 facet normal  8.715574e-02  0.000000e+00 -9.961947e-01
   outer loop
     vertex  2.130578e-01 -1.166663e-01  3.040117e-01
     vertex  2.130578e-01 -1.609663e-01  3.040117e-01
     vertex  2.129710e-01 -1.609663e-01  3.040041e-01
   endloop
 endfacet
 facet normal  2.588190e-01  0.000000e+00 -9.659258e-01
   outer loop
     vertex  2.130578e-01 -1.166663e-01  3.040117e-01
     vertex  2.131420e-01 -1.166663e-01  3.040342e-01
     vertex  2.130578e-01 -1.609663e-01  3.040117e-01
   endloop
 endfacet
 facet normal  8.715574e-02  0.000000e+00 -9.961947e-01
   outer loop
     vertex  2.129710e-01 -1.166663e-01  3.040041e-01
     vertex  2.130578e-01 -1.166663e-01  3.040117e-01
     vertex  2.129710e-01 -1.609663e-01  3.040041e-01
   endloop
 endfacet
 facet normal  0.000000e+00  0.000000e+00  1.000000e+00
   outer loop
     vertex  2.081050e-01 -1.166663e-01  3.887041e-01
     vertex  2.081050e-01 -1.609663e-01  3.887041e-01
     vertex  2.149296e-01 -1.609663e-01  3.887041e-01
   endloop
 endfacet
 facet normal -0.000000e+00  0.000000e+00  1.000000e+00
   outer loop
     vertex  2.081050e-01 -1.166663e-01  3.887041e-01
     vertex  2.149296e-01 -1.609663e-01  3.887041e-01
     vertex  2.149296e-01 -1.166663e-01  3.887041e-01
   endloop
 endfacet
 facet normal  7.660444e-01  0.000000e+00  6.427876e-01
   outer loop
     vertex  2.152510e-01 -1.609663e-01  3.885871e-01
     vertex  2.153626e-01 -1.609663e-01  3.884541e-01
     vertex  2.153626e-01 -1.166663e-01  3.884541e-01
   endloop
 endfacet
 facet normal  7.660444e-01 -0.000000e+00  6.427876e-01
   outer loop
     vertex  2.152510e-01 -1.609663e-01  3.885871e-01
     vertex  2.153626e-01 -1.166663e-01  3.884541e-01
     vertex  2.152510e-01 -1.166663e-01  3.885871e-01
   endloop
 endfacet
 facet normal  5.000000e-01 -0.000000e+00  8.660254e-01
   outer loop
     vertex  2.151006e-01 -1.609663e-01  3.886739e-01
     vertex  2.152510e-01 -1.166663e-01  3.885871e-01
     vertex  2.151006e-01 -1.166663e-01  3.886739e-01
   endloop
 endfacet
 facet normal  5.000000e-01  0.000000e+00  8.660254e-01
   outer loop
     vertex  2.151006e-01 -1.609663e-01  3.886739e-01
     vertex  2.152510e-01 -1.609663e-01  3.885871e-01
     vertex  2.152510e-01 -1.166663e-01  3.885871e-01
   endloop
 endfacet
 facet normal  1.736482e-01 -0.000000e+00  9.848078e-01
   outer loop
     vertex  2.149296e-01 -1.609663e-01  3.887041e-01
     vertex  2.151006e-01 -1.166663e-01  3.886739e-01
     vertex  2.149296e-01 -1.166663e-01  3.887041e-01
   endloop
 endfacet
 facet normal  1.736482e-01  0.000000e+00  9.848078e-01
   outer loop
     vertex  2.149296e-01 -1.609663e-01  3.887041e-01
     vertex  2.151006e-01 -1.609663e-01  3.886739e-01
     vertex  2.151006e-01 -1.166663e-01  3.886739e-01
   endloop
 endfacet
 facet normal  0.000000e+00  0.000000e+00 -1.000000e+00
   outer loop
     vertex  2.081050e-01 -1.607663e-01  3.752974e-01
     vertex  2.181050e-01 -1.607663e-01  3.752974e-01
     vertex  2.181050e-01 -1.609663e-01  3.752974e-01
   endloop
 endfacet
 facet normal  0.000000e+00  0.000000e+00 -1.000000e+00
   outer loop
     vertex  2.081050e-01 -1.607663e-01  3.752974e-01
     vertex  2.181050e-01 -1.609663e-01  3.752974e-01
     vertex  2.081050e-01 -1.609663e-01  3.752974e-01
   endloop
 endfacet
 facet normal  0.000000e+00 -1.000000e+00  0.000000e+00
   outer loop
     vertex  2.081050e-01 -1.607663e-01  3.752974e-01
     vertex  2.181050e-01 -1.607663e-01  3.712974e-01
     vertex  2.181050e-01 -1.607663e-01  3.752974e-01
   endloop
 endfacet
 facet normal  0.000000e+00 -1.000000e+00  0.000000e+00
   outer loop
     vertex  2.081050e-01 -1.607663e-01  3.712974e-01
     vertex  2.181050e-01 -1.607663e-01  3.712974e-01
     vertex  2.081050e-01 -1.607663e-01  3.752974e-01
   endloop
 endfacet
 facet normal  0.000000e+00  0.000000e+00  1.000000e+00
   outer loop
     vertex  2.081050e-01 -1.609663e-01  3.712974e-01
     vertex  2.181050e-01 -1.607663e-01  3.712974e-01
     vertex  2.081050e-01 -1.607663e-01  3.712974e-01
   endloop
 endfacet
 facet normal  0.000000e+00  0.000000e+00  1.000000e+00
   outer loop
     vertex  2.081050e-01 -1.609663e-01  3.712974e-01
     vertex  2.181050e-01 -1.609663e-01  3.712974e-01
     vertex  2.181050e-01 -1.607663e-01  3.712974e-01
   endloop
 endfacet
 facet normal  0.000000e+00 -1.000000e+00  0.000000e+00
   outer loop
     vertex  2.181050e-01 -1.609663e-01  3.192974e-01
     vertex  2.181050e-01 -1.609663e-01  3.712974e-01
     vertex  2.081050e-01 -1.609663e-01  3.712974e-01
   endloop
 endfacet
 facet normal  0.000000e+00 -1.000000e+00  0.000000e+00
   outer loop
     vertex  2.081050e-01 -1.609663e-01  3.192974e-01
     vertex  2.181050e-01 -1.609663e-01  3.192974e-01
     vertex  2.081050e-01 -1.609663e-01  3.712974e-01
   endloop
 endfacet
 facet normal  0.000000e+00  0.000000e+00 -1.000000e+00
   outer loop
     vertex  2.081050e-01 -1.607663e-01  3.192974e-01
     vertex  2.181050e-01 -1.607663e-01  3.192974e-01
     vertex  2.181050e-01 -1.609663e-01  3.192974e-01
   endloop
 endfacet
 facet normal  0.000000e+00  0.000000e+00 -1.000000e+00
   outer loop
     vertex  2.081050e-01 -1.607663e-01  3.192974e-01
     vertex  2.181050e-01 -1.609663e-01  3.192974e-01
     vertex  2.081050e-01 -1.609663e-01  3.192974e-01
   endloop
 endfacet
 facet normal  0.000000e+00 -1.000000e+00  0.000000e+00
   outer loop
     vertex  2.081050e-01 -1.607663e-01  3.192974e-01
     vertex  2.181050e-01 -1.607663e-01  3.152974e-01
     vertex  2.181050e-01 -1.607663e-01  3.192974e-01
   endloop
 endfacet
 facet normal  0.000000e+00 -1.000000e+00  0.000000e+00
   outer loop
     vertex  2.081050e-01 -1.607663e-01  3.152974e-01
     vertex  2.181050e-01 -1.607663e-01  3.152974e-01
     vertex  2.081050e-01 -1.607663e-01  3.192974e-01
   endloop
 endfacet
 facet normal  0.000000e+00  1.000000e+00  0.000000e+00
   outer loop
     vertex  2.131050e-01 -1.509663e-01  3.573533e-01
     vertex  2.181050e-01 -1.509663e-01  3.323533e-01
     vertex  2.131050e-01 -1.509663e-01  3.323533e-01
   endloop
 endfacet
 facet normal -0.000000e+00  1.000000e+00  0.000000e+00
   outer loop
     vertex  2.131050e-01 -1.509663e-01  3.573533e-01
     vertex  2.181050e-01 -1.509663e-01  3.573533e-01
     vertex  2.181050e-01 -1.509663e-01  3.323533e-01
   endloop
 endfacet
 facet normal  1.000000e+00  0.000000e+00  0.000000e+00
   outer loop
     vertex  2.131050e-01 -1.509663e-01  3.573533e-01
     vertex  2.131050e-01 -1.509663e-01  3.323533e-01
     vertex  2.131050e-01 -1.259663e-01  3.323533e-01
   endloop
 endfacet
 facet normal  1.000000e+00 -0.000000e+00  0.000000e+00
   outer loop
     vertex  2.131050e-01 -1.509663e-01  3.573533e-01
     vertex  2.131050e-01 -1.259663e-01  3.323533e-01
     vertex  2.131050e-01 -1.259663e-01  3.573533e-01
   endloop
 endfacet
 facet normal  0.000000e+00 -1.000000e+00  0.000000e+00
   outer loop
     vertex  2.131050e-01 -1.259663e-01  3.323533e-01
     vertex  2.181050e-01 -1.259663e-01  3.573533e-01
     vertex  2.131050e-01 -1.259663e-01  3.573533e-01
   endloop
 endfacet
 facet normal  0.000000e+00 -1.000000e+00  0.000000e+00
   outer loop
     vertex  2.131050e-01 -1.259663e-01  3.323533e-01
     vertex  2.181050e-01 -1.259663e-01  3.323533e-01
     vertex  2.181050e-01 -1.259663e-01  3.573533e-01
   endloop
 endfacet
 facet normal  0.000000e+00  0.000000e+00  1.000000e+00
   outer loop
     vertex  2.131050e-01 -1.509663e-01  3.323533e-01
     vertex  2.181050e-01 -1.259663e-01  3.323533e-01
     vertex  2.131050e-01 -1.259663e-01  3.323533e-01
   endloop
 endfacet
 facet normal  0.000000e+00  0.000000e+00  1.000000e+00
   outer loop
     vertex  2.131050e-01 -1.509663e-01  3.323533e-01
     vertex  2.181050e-01 -1.509663e-01  3.323533e-01
     vertex  2.181050e-01 -1.259663e-01  3.323533e-01
   endloop
 endfacet
endsolid
