solid 
 facet normal  0.000000e+00  0.000000e+00 -1.000000e+00
   outer loop
     vertex  2.213050e-01 -1.428163e-01  4.973978e-01
     vertex  2.213050e-01 -1.348163e-01  4.973978e-01
     vertex  2.233050e-01 -1.348163e-01  4.973978e-01
   endloop
 endfacet
 facet normal  0.000000e+00  0.000000e+00 -1.000000e+00
   outer loop
     vertex  2.213050e-01 -1.428163e-01  4.973978e-01
     vertex  2.233050e-01 -1.348163e-01  4.973978e-01
     vertex  2.233050e-01 -1.428163e-01  4.973978e-01
   endloop
 endfacet
 facet normal  0.000000e+00  1.000000e+00  0.000000e+00
   outer loop
     vertex  2.213050e-01 -1.348163e-01  5.145420e-01
     vertex  2.233050e-01 -1.348163e-01  4.973978e-01
     vertex  2.213050e-01 -1.348163e-01  4.973978e-01
   endloop
 endfacet
 facet normal -0.000000e+00  1.000000e+00  0.000000e+00
   outer loop
     vertex  2.213050e-01 -1.348163e-01  5.145420e-01
     vertex  2.233050e-01 -1.348163e-01  5.164767e-01
     vertex  2.233050e-01 -1.348163e-01  4.973978e-01
   endloop
 endfacet
 facet normal -4.437822e-10  1.000000e+00 -3.612817e-10
   outer loop
     vertex  2.229064e-01 -1.348163e-01  5.169663e-01
     vertex  2.231115e-01 -1.348163e-01  5.168718e-01
     vertex  2.232540e-01 -1.348163e-01  5.166967e-01
   endloop
 endfacet
 facet normal -4.437822e-10  1.000000e+00 -3.612817e-10
   outer loop
     vertex  2.229064e-01 -1.348163e-01  5.169663e-01
     vertex  2.232540e-01 -1.348163e-01  5.166967e-01
     vertex  2.233050e-01 -1.348163e-01  5.164767e-01
   endloop
 endfacet
 facet normal  0.000000e+00  1.000000e+00  0.000000e+00
   outer loop
     vertex  2.229064e-01 -1.348163e-01  5.169663e-01
     vertex  2.233050e-01 -1.348163e-01  5.164767e-01
     vertex  2.213050e-01 -1.348163e-01  5.145420e-01
   endloop
 endfacet
 facet normal  0.000000e+00  1.000000e+00  0.000000e+00
   outer loop
     vertex  2.199896e-01 -1.348163e-01  5.175705e-01
     vertex  2.229064e-01 -1.348163e-01  5.169663e-01
     vertex  2.213050e-01 -1.348163e-01  5.145420e-01
   endloop
 endfacet
 facet normal  0.000000e+00  1.000000e+00  0.000000e+00
   outer loop
     vertex  2.193881e-01 -1.348163e-01  5.170809e-01
     vertex  2.213050e-01 -1.348163e-01  5.145420e-01
     vertex  2.193881e-01 -1.348163e-01  5.146950e-01
   endloop
 endfacet
 facet normal -0.000000e+00  1.000000e+00  0.000000e+00
   outer loop
     vertex  2.193881e-01 -1.348163e-01  5.170809e-01
     vertex  2.199896e-01 -1.348163e-01  5.175705e-01
     vertex  2.213050e-01 -1.348163e-01  5.145420e-01
   endloop
 endfacet
 facet normal  2.206967e-10  1.000000e+00 -2.710939e-10
   outer loop
     vertex  2.194731e-01 -1.348163e-01  5.173597e-01
     vertex  2.196992e-01 -1.348163e-01  5.175438e-01
     vertex  2.199896e-01 -1.348163e-01  5.175705e-01
   endloop
 endfacet
 facet normal  2.206967e-10  1.000000e+00 -2.710939e-10
   outer loop
     vertex  2.194731e-01 -1.348163e-01  5.173597e-01
     vertex  2.199896e-01 -1.348163e-01  5.175705e-01
     vertex  2.193881e-01 -1.348163e-01  5.170809e-01
   endloop
 endfacet
 facet normal  2.028238e-01 -0.000000e+00  9.792153e-01
   outer loop
     vertex  2.229064e-01 -1.428163e-01  5.169663e-01
     vertex  2.229064e-01 -1.348163e-01  5.169663e-01
     vertex  2.199896e-01 -1.348163e-01  5.175705e-01
   endloop
 endfacet
 facet normal  2.028238e-01 -0.000000e+00  9.792153e-01
   outer loop
     vertex  2.199896e-01 -1.428163e-01  5.175705e-01
     vertex  2.229064e-01 -1.428163e-01  5.169663e-01
     vertex  2.199896e-01 -1.348163e-01  5.175705e-01
   endloop
 endfacet
 facet normal  0.000000e+00 -1.000000e+00  0.000000e+00
   outer loop
     vertex  2.213050e-01 -1.428163e-01  5.145420e-01
     vertex  2.233050e-01 -1.428163e-01  4.973978e-01
     vertex  2.233050e-01 -1.428163e-01  5.164767e-01
   endloop
 endfacet
 facet normal  0.000000e+00 -1.000000e+00  0.000000e+00
   outer loop
     vertex  2.213050e-01 -1.428163e-01  5.145420e-01
     vertex  2.213050e-01 -1.428163e-01  4.973978e-01
     vertex  2.233050e-01 -1.428163e-01  4.973978e-01
   endloop
 endfacet
 facet normal  2.218911e-10 -1.000000e+00  1.806409e-10
   outer loop
     vertex  2.231115e-01 -1.428163e-01  5.168718e-01
     vertex  2.233050e-01 -1.428163e-01  5.164767e-01
     vertex  2.232540e-01 -1.428163e-01  5.166967e-01
   endloop
 endfacet
 facet normal  0.000000e+00 -1.000000e+00 -0.000000e+00
   outer loop
     vertex  2.229064e-01 -1.428163e-01  5.169663e-01
     vertex  2.213050e-01 -1.428163e-01  5.145420e-01
     vertex  2.233050e-01 -1.428163e-01  5.164767e-01
   endloop
 endfacet
 facet normal  2.218911e-10 -1.000000e+00  1.806409e-10
   outer loop
     vertex  2.229064e-01 -1.428163e-01  5.169663e-01
     vertex  2.233050e-01 -1.428163e-01  5.164767e-01
     vertex  2.231115e-01 -1.428163e-01  5.168718e-01
   endloop
 endfacet
 facet normal  0.000000e+00 -1.000000e+00  0.000000e+00
   outer loop
     vertex  2.199896e-01 -1.428163e-01  5.175705e-01
     vertex  2.213050e-01 -1.428163e-01  5.145420e-01
     vertex  2.229064e-01 -1.428163e-01  5.169663e-01
   endloop
 endfacet
 facet normal  0.000000e+00 -1.000000e+00  0.000000e+00
   outer loop
     vertex  2.193881e-01 -1.428163e-01  5.170809e-01
     vertex  2.193881e-01 -1.428163e-01  5.146950e-01
     vertex  2.213050e-01 -1.428163e-01  5.145420e-01
   endloop
 endfacet
 facet normal  0.000000e+00 -1.000000e+00  0.000000e+00
   outer loop
     vertex  2.193881e-01 -1.428163e-01  5.170809e-01
     vertex  2.213050e-01 -1.428163e-01  5.145420e-01
     vertex  2.199896e-01 -1.428163e-01  5.175705e-01
   endloop
 endfacet
 facet normal -1.103484e-10 -1.000000e+00  1.355470e-10
   outer loop
     vertex  2.196992e-01 -1.428163e-01  5.175438e-01
     vertex  2.193881e-01 -1.428163e-01  5.170809e-01
     vertex  2.199896e-01 -1.428163e-01  5.175705e-01
   endloop
 endfacet
 facet normal -1.103484e-10 -1.000000e+00  1.355470e-10
   outer loop
     vertex  2.194731e-01 -1.428163e-01  5.173597e-01
     vertex  2.193881e-01 -1.428163e-01  5.170809e-01
     vertex  2.196992e-01 -1.428163e-01  5.175438e-01
   endloop
 endfacet
 facet normal  1.000000e+00  0.000000e+00  0.000000e+00
   outer loop
     vertex  2.233050e-01 -1.348163e-01  5.164767e-01
     vertex  2.233050e-01 -1.428163e-01  4.973978e-01
     vertex  2.233050e-01 -1.348163e-01  4.973978e-01
   endloop
 endfacet
 facet normal  1.000000e+00 -0.000000e+00  0.000000e+00
   outer loop
     vertex  2.233050e-01 -1.428163e-01  5.164767e-01
     vertex  2.233050e-01 -1.428163e-01  4.973978e-01
     vertex  2.233050e-01 -1.348163e-01  5.164767e-01
   endloop
 endfacet
 facet normal  4.186879e-01  0.000000e+00  9.081302e-01
   outer loop
     vertex  2.229064e-01 -1.348163e-01  5.169663e-01
     vertex  2.229064e-01 -1.428163e-01  5.169663e-01
     vertex  2.231115e-01 -1.428163e-01  5.168718e-01
   endloop
 endfacet
 facet normal  7.755075e-01  0.000000e+00  6.313383e-01
   outer loop
     vertex  2.231115e-01 -1.348163e-01  5.168718e-01
     vertex  2.231115e-01 -1.428163e-01  5.168718e-01
     vertex  2.232540e-01 -1.428163e-01  5.166967e-01
   endloop
 endfacet
 facet normal  4.186879e-01  0.000000e+00  9.081302e-01
   outer loop
     vertex  2.231115e-01 -1.348163e-01  5.168718e-01
     vertex  2.229064e-01 -1.348163e-01  5.169663e-01
     vertex  2.231115e-01 -1.428163e-01  5.168718e-01
   endloop
 endfacet
 facet normal  9.741748e-01  0.000000e+00  2.257952e-01
   outer loop
     vertex  2.232540e-01 -1.348163e-01  5.166967e-01
     vertex  2.232540e-01 -1.428163e-01  5.166967e-01
     vertex  2.233050e-01 -1.428163e-01  5.164767e-01
   endloop
 endfacet
 facet normal  7.755075e-01  0.000000e+00  6.313383e-01
   outer loop
     vertex  2.232540e-01 -1.348163e-01  5.166967e-01
     vertex  2.231115e-01 -1.348163e-01  5.168718e-01
     vertex  2.232540e-01 -1.428163e-01  5.166967e-01
   endloop
 endfacet
 facet normal  9.741748e-01  0.000000e+00  2.257952e-01
   outer loop
     vertex  2.233050e-01 -1.348163e-01  5.164767e-01
     vertex  2.232540e-01 -1.348163e-01  5.166967e-01
     vertex  2.233050e-01 -1.428163e-01  5.164767e-01
   endloop
 endfacet
 facet normal -1.000000e+00  0.000000e+00  0.000000e+00
   outer loop
     vertex  2.213050e-01 -1.348163e-01  4.973978e-01
     vertex  2.213050e-01 -1.428163e-01  5.145420e-01
     vertex  2.213050e-01 -1.348163e-01  5.145420e-01
   endloop
 endfacet
 facet normal -1.000000e+00  0.000000e+00  0.000000e+00
   outer loop
     vertex  2.213050e-01 -1.428163e-01  4.973978e-01
     vertex  2.213050e-01 -1.428163e-01  5.145420e-01
     vertex  2.213050e-01 -1.348163e-01  4.973978e-01
   endloop
 endfacet
 facet normal -7.955854e-02  0.000000e+00 -9.968302e-01
   outer loop
     vertex  2.193881e-01 -1.428163e-01  5.146950e-01
     vertex  2.193881e-01 -1.348163e-01  5.146950e-01
     vertex  2.213050e-01 -1.348163e-01  5.145420e-01
   endloop
 endfacet
 facet normal -7.955854e-02  0.000000e+00 -9.968302e-01
   outer loop
     vertex  2.213050e-01 -1.428163e-01  5.145420e-01
     vertex  2.193881e-01 -1.428163e-01  5.146950e-01
     vertex  2.213050e-01 -1.348163e-01  5.145420e-01
   endloop
 endfacet
 facet normal -1.000000e+00  0.000000e+00  0.000000e+00
   outer loop
     vertex  2.193881e-01 -1.428163e-01  5.146950e-01
     vertex  2.193881e-01 -1.428163e-01  5.170809e-01
     vertex  2.193881e-01 -1.348163e-01  5.170809e-01
   endloop
 endfacet
 facet normal -1.000000e+00  0.000000e+00  0.000000e+00
   outer loop
     vertex  2.193881e-01 -1.428163e-01  5.146950e-01
     vertex  2.193881e-01 -1.348163e-01  5.170809e-01
     vertex  2.193881e-01 -1.348163e-01  5.146950e-01
   endloop
 endfacet
 facet normal -9.565577e-01  0.000000e+00  2.915430e-01
   outer loop
     vertex  2.194731e-01 -1.348163e-01  5.173597e-01
     vertex  2.193881e-01 -1.428163e-01  5.170809e-01
     vertex  2.194731e-01 -1.428163e-01  5.173597e-01
   endloop
 endfacet
 facet normal -9.565577e-01  0.000000e+00  2.915430e-01
   outer loop
     vertex  2.194731e-01 -1.348163e-01  5.173597e-01
     vertex  2.193881e-01 -1.348163e-01  5.170809e-01
     vertex  2.193881e-01 -1.428163e-01  5.170809e-01
   endloop
 endfacet
 facet normal -6.313383e-01  0.000000e+00  7.755075e-01
   outer loop
     vertex  2.196992e-01 -1.348163e-01  5.175438e-01
     vertex  2.194731e-01 -1.428163e-01  5.173597e-01
     vertex  2.196992e-01 -1.428163e-01  5.175438e-01
   endloop
 endfacet
 facet normal -6.313383e-01  0.000000e+00  7.755075e-01
   outer loop
     vertex  2.196992e-01 -1.348163e-01  5.175438e-01
     vertex  2.194731e-01 -1.348163e-01  5.173597e-01
     vertex  2.194731e-01 -1.428163e-01  5.173597e-01
   endloop
 endfacet
 facet normal -9.147069e-02  0.000000e+00  9.958078e-01
   outer loop
     vertex  2.199896e-01 -1.348163e-01  5.175705e-01
     vertex  2.196992e-01 -1.428163e-01  5.175438e-01
     vertex  2.199896e-01 -1.428163e-01  5.175705e-01
   endloop
 endfacet
 facet normal -9.147069e-02  0.000000e+00  9.958078e-01
   outer loop
     vertex  2.199896e-01 -1.348163e-01  5.175705e-01
     vertex  2.196992e-01 -1.348163e-01  5.175438e-01
     vertex  2.196992e-01 -1.428163e-01  5.175438e-01
   endloop
 endfacet
endsolid
