solid 
 facet normal  1.000000e+00 -3.267728e-15 -5.405889e-15
   outer loop
     vertex  2.400000e-01 -1.525000e-01  2.271301e-01
     vertex  2.400000e-01 -1.700000e-01  2.325741e-01
     vertex  2.400000e-01 -1.557000e-01  2.239301e-01
   endloop
 endfacet
 facet normal  1.000000e+00  1.209710e-15  1.209710e-15
   outer loop
     vertex  2.400000e-01 -1.350000e-01  2.325741e-01
     vertex  2.400000e-01 -1.525000e-01  2.271301e-01
     vertex  2.400000e-01 -1.493000e-01  2.239301e-01
   endloop
 endfacet
 facet normal  1.000000e+00  0.000000e+00  5.098379e-15
   outer loop
     vertex  2.400000e-01 -1.350000e-01  2.325741e-01
     vertex  2.400000e-01 -1.700000e-01  2.325741e-01
     vertex  2.400000e-01 -1.525000e-01  2.271301e-01
   endloop
 endfacet
 facet normal  1.000000e+00  0.000000e+00  0.000000e+00
   outer loop
     vertex  2.400000e-01 -1.557000e-01  1.989301e-01
     vertex  2.400000e-01 -1.700000e-01  2.325741e-01
     vertex  2.400000e-01 -1.700000e-01  1.869301e-01
   endloop
 endfacet
 facet normal  1.000000e+00  0.000000e+00 -0.000000e+00
   outer loop
     vertex  2.400000e-01 -1.557000e-01  1.989301e-01
     vertex  2.400000e-01 -1.557000e-01  2.239301e-01
     vertex  2.400000e-01 -1.700000e-01  2.325741e-01
   endloop
 endfacet
 facet normal  1.000000e+00 -8.673617e-15  0.000000e+00
   outer loop
     vertex  2.400000e-01 -1.525000e-01  2.021301e-01
     vertex  2.400000e-01 -1.525000e-01  2.207301e-01
     vertex  2.400000e-01 -1.557000e-01  2.239301e-01
   endloop
 endfacet
 facet normal  1.000000e+00 -8.673617e-15  0.000000e+00
   outer loop
     vertex  2.400000e-01 -1.525000e-01  2.021301e-01
     vertex  2.400000e-01 -1.557000e-01  2.239301e-01
     vertex  2.400000e-01 -1.557000e-01  1.989301e-01
   endloop
 endfacet
 facet normal  1.000000e+00  0.000000e+00 -0.000000e+00
   outer loop
     vertex  2.400000e-01 -1.493000e-01  1.989301e-01
     vertex  2.400000e-01 -1.493000e-01  2.239301e-01
     vertex  2.400000e-01 -1.525000e-01  2.207301e-01
   endloop
 endfacet
 facet normal  1.000000e+00  1.940949e-15 -0.000000e+00
   outer loop
     vertex  2.400000e-01 -1.493000e-01  1.989301e-01
     vertex  2.400000e-01 -1.350000e-01  2.325741e-01
     vertex  2.400000e-01 -1.493000e-01  2.239301e-01
   endloop
 endfacet
 facet normal  1.000000e+00  0.000000e+00  0.000000e+00
   outer loop
     vertex  2.400000e-01 -1.493000e-01  1.989301e-01
     vertex  2.400000e-01 -1.525000e-01  2.207301e-01
     vertex  2.400000e-01 -1.525000e-01  2.021301e-01
   endloop
 endfacet
 facet normal  1.000000e+00 -3.957544e-15  4.716073e-15
   outer loop
     vertex  2.400000e-01 -1.525000e-01  1.957301e-01
     vertex  2.400000e-01 -1.557000e-01  1.989301e-01
     vertex  2.400000e-01 -1.700000e-01  1.869301e-01
   endloop
 endfacet
 facet normal  1.000000e+00  1.055345e-15 -1.055345e-15
   outer loop
     vertex  2.400000e-01 -1.350000e-01  1.869301e-01
     vertex  2.400000e-01 -1.493000e-01  1.989301e-01
     vertex  2.400000e-01 -1.525000e-01  1.957301e-01
   endloop
 endfacet
 facet normal  1.000000e+00  1.940949e-15 -0.000000e+00
   outer loop
     vertex  2.400000e-01 -1.350000e-01  1.869301e-01
     vertex  2.400000e-01 -1.350000e-01  2.325741e-01
     vertex  2.400000e-01 -1.493000e-01  1.989301e-01
   endloop
 endfacet
 facet normal  1.000000e+00  0.000000e+00 -3.154043e-15
   outer loop
     vertex  2.400000e-01 -1.350000e-01  1.869301e-01
     vertex  2.400000e-01 -1.525000e-01  1.957301e-01
     vertex  2.400000e-01 -1.700000e-01  1.869301e-01
   endloop
 endfacet
 facet normal  9.659258e-01  0.000000e+00  2.588190e-01
   outer loop
     vertex  2.394641e-01 -1.700000e-01  2.345741e-01
     vertex  2.400000e-01 -1.700000e-01  2.325741e-01
     vertex  2.400000e-01 -1.350000e-01  2.325741e-01
   endloop
 endfacet
 facet normal  9.659258e-01 -0.000000e+00  2.588190e-01
   outer loop
     vertex  2.394641e-01 -1.700000e-01  2.345741e-01
     vertex  2.400000e-01 -1.350000e-01  2.325741e-01
     vertex  2.394641e-01 -1.350000e-01  2.345741e-01
   endloop
 endfacet
 facet normal  7.071068e-01 -0.000000e+00  7.071068e-01
   outer loop
     vertex  2.380000e-01 -1.700000e-01  2.360382e-01
     vertex  2.394641e-01 -1.350000e-01  2.345741e-01
     vertex  2.380000e-01 -1.350000e-01  2.360382e-01
   endloop
 endfacet
 facet normal  7.071068e-01  0.000000e+00  7.071068e-01
   outer loop
     vertex  2.380000e-01 -1.700000e-01  2.360382e-01
     vertex  2.394641e-01 -1.700000e-01  2.345741e-01
     vertex  2.394641e-01 -1.350000e-01  2.345741e-01
   endloop
 endfacet
 facet normal  2.588190e-01 -0.000000e+00  9.659258e-01
   outer loop
     vertex  2.360000e-01 -1.700000e-01  2.365741e-01
     vertex  2.380000e-01 -1.350000e-01  2.360382e-01
     vertex  2.360000e-01 -1.350000e-01  2.365741e-01
   endloop
 endfacet
 facet normal  2.588190e-01  0.000000e+00  9.659258e-01
   outer loop
     vertex  2.360000e-01 -1.700000e-01  2.365741e-01
     vertex  2.380000e-01 -1.700000e-01  2.360382e-01
     vertex  2.380000e-01 -1.350000e-01  2.360382e-01
   endloop
 endfacet
 facet normal  0.000000e+00  0.000000e+00  1.000000e+00
   outer loop
     vertex  2.360000e-01 -1.350000e-01  2.365741e-01
     vertex -2.357870e-01 -1.350000e-01  2.365741e-01
     vertex -2.357870e-01 -1.700000e-01  2.365741e-01
   endloop
 endfacet
 facet normal  0.000000e+00  0.000000e+00  1.000000e+00
   outer loop
     vertex  2.360000e-01 -1.350000e-01  2.365741e-01
     vertex -2.357870e-01 -1.700000e-01  2.365741e-01
     vertex  2.360000e-01 -1.700000e-01  2.365741e-01
   endloop
 endfacet
 facet normal -0.000000e+00 -1.000000e+00  0.000000e+00
   outer loop
     vertex  2.360000e-01 -1.700000e-01  2.365741e-01
     vertex -2.357870e-01 -1.700000e-01  2.365741e-01
     vertex -2.357870e-01 -1.700000e-01  2.345741e-01
   endloop
 endfacet
 facet normal  0.000000e+00 -1.000000e+00 -0.000000e+00
   outer loop
     vertex  2.360000e-01 -1.700000e-01  2.365741e-01
     vertex -2.357870e-01 -1.700000e-01  2.345741e-01
     vertex  2.360000e-01 -1.700000e-01  2.345741e-01
   endloop
 endfacet
 facet normal  0.000000e+00 -1.000000e+00  0.000000e+00
   outer loop
     vertex  2.360000e-01 -1.700000e-01  2.365741e-01
     vertex  2.360000e-01 -1.700000e-01  2.345741e-01
     vertex  2.370000e-01 -1.700000e-01  2.343061e-01
   endloop
 endfacet
 facet normal  0.000000e+00 -1.000000e+00  0.000000e+00
   outer loop
     vertex  2.380000e-01 -1.700000e-01  2.360382e-01
     vertex  2.370000e-01 -1.700000e-01  2.343061e-01
     vertex  2.377321e-01 -1.700000e-01  2.335741e-01
   endloop
 endfacet
 facet normal -0.000000e+00 -1.000000e+00  0.000000e+00
   outer loop
     vertex  2.380000e-01 -1.700000e-01  2.360382e-01
     vertex  2.360000e-01 -1.700000e-01  2.365741e-01
     vertex  2.370000e-01 -1.700000e-01  2.343061e-01
   endloop
 endfacet
 facet normal  0.000000e+00 -1.000000e+00 -0.000000e+00
   outer loop
     vertex  2.394641e-01 -1.700000e-01  2.345741e-01
     vertex  2.380000e-01 -1.700000e-01  2.325741e-01
     vertex  2.400000e-01 -1.700000e-01  2.325741e-01
   endloop
 endfacet
 facet normal  0.000000e+00 -1.000000e+00  0.000000e+00
   outer loop
     vertex  2.394641e-01 -1.700000e-01  2.345741e-01
     vertex  2.377321e-01 -1.700000e-01  2.335741e-01
     vertex  2.380000e-01 -1.700000e-01  2.325741e-01
   endloop
 endfacet
 facet normal -0.000000e+00 -1.000000e+00  0.000000e+00
   outer loop
     vertex  2.394641e-01 -1.700000e-01  2.345741e-01
     vertex  2.380000e-01 -1.700000e-01  2.360382e-01
     vertex  2.377321e-01 -1.700000e-01  2.335741e-01
   endloop
 endfacet
 facet normal  0.000000e+00 -1.000000e+00  0.000000e+00
   outer loop
     vertex  2.400000e-01 -1.700000e-01  1.869301e-01
     vertex  2.400000e-01 -1.700000e-01  2.325741e-01
     vertex  2.380000e-01 -1.700000e-01  2.325741e-01
   endloop
 endfacet
 facet normal  0.000000e+00 -1.000000e+00  0.000000e+00
   outer loop
     vertex  2.400000e-01 -1.700000e-01  1.869301e-01
     vertex  2.380000e-01 -1.700000e-01  2.325741e-01
     vertex  2.380000e-01 -1.700000e-01  1.869301e-01
   endloop
 endfacet
 facet normal  0.000000e+00 -0.000000e+00 -1.000000e+00
   outer loop
     vertex  2.400000e-01 -1.350000e-01  1.869301e-01
     vertex  2.400000e-01 -1.700000e-01  1.869301e-01
     vertex  2.380000e-01 -1.700000e-01  1.869301e-01
   endloop
 endfacet
 facet normal -0.000000e+00  0.000000e+00 -1.000000e+00
   outer loop
     vertex  2.400000e-01 -1.350000e-01  1.869301e-01
     vertex  2.380000e-01 -1.700000e-01  1.869301e-01
     vertex  2.380000e-01 -1.350000e-01  1.869301e-01
   endloop
 endfacet
 facet normal  0.000000e+00  1.000000e+00  0.000000e+00
   outer loop
     vertex  2.400000e-01 -1.350000e-01  1.869301e-01
     vertex  2.380000e-01 -1.350000e-01  1.869301e-01
     vertex  2.380000e-01 -1.350000e-01  2.325741e-01
   endloop
 endfacet
 facet normal  0.000000e+00  1.000000e+00 -0.000000e+00
   outer loop
     vertex  2.400000e-01 -1.350000e-01  1.869301e-01
     vertex  2.380000e-01 -1.350000e-01  2.325741e-01
     vertex  2.400000e-01 -1.350000e-01  2.325741e-01
   endloop
 endfacet
 facet normal  0.000000e+00  1.000000e+00  0.000000e+00
   outer loop
     vertex  2.400000e-01 -1.350000e-01  2.325741e-01
     vertex  2.380000e-01 -1.350000e-01  2.325741e-01
     vertex  2.377321e-01 -1.350000e-01  2.335741e-01
   endloop
 endfacet
 facet normal  0.000000e+00  1.000000e+00  0.000000e+00
   outer loop
     vertex  2.380000e-01 -1.350000e-01  2.360382e-01
     vertex  2.360000e-01 -1.350000e-01  2.345741e-01
     vertex  2.360000e-01 -1.350000e-01  2.365741e-01
   endloop
 endfacet
 facet normal  0.000000e+00  1.000000e+00  0.000000e+00
   outer loop
     vertex  2.380000e-01 -1.350000e-01  2.360382e-01
     vertex  2.370000e-01 -1.350000e-01  2.343061e-01
     vertex  2.360000e-01 -1.350000e-01  2.345741e-01
   endloop
 endfacet
 facet normal  0.000000e+00  1.000000e+00  0.000000e+00
   outer loop
     vertex  2.394641e-01 -1.350000e-01  2.345741e-01
     vertex  2.377321e-01 -1.350000e-01  2.335741e-01
     vertex  2.370000e-01 -1.350000e-01  2.343061e-01
   endloop
 endfacet
 facet normal  0.000000e+00  1.000000e+00  0.000000e+00
   outer loop
     vertex  2.394641e-01 -1.350000e-01  2.345741e-01
     vertex  2.400000e-01 -1.350000e-01  2.325741e-01
     vertex  2.377321e-01 -1.350000e-01  2.335741e-01
   endloop
 endfacet
 facet normal  0.000000e+00  1.000000e+00  0.000000e+00
   outer loop
     vertex  2.394641e-01 -1.350000e-01  2.345741e-01
     vertex  2.370000e-01 -1.350000e-01  2.343061e-01
     vertex  2.380000e-01 -1.350000e-01  2.360382e-01
   endloop
 endfacet
 facet normal  0.000000e+00  1.000000e+00  0.000000e+00
   outer loop
     vertex  2.360000e-01 -1.350000e-01  2.365741e-01
     vertex  2.360000e-01 -1.350000e-01  2.345741e-01
     vertex -2.357870e-01 -1.350000e-01  2.345741e-01
   endloop
 endfacet
 facet normal  0.000000e+00  1.000000e+00  0.000000e+00
   outer loop
     vertex  2.360000e-01 -1.350000e-01  2.365741e-01
     vertex -2.357870e-01 -1.350000e-01  2.345741e-01
     vertex -2.357870e-01 -1.350000e-01  2.365741e-01
   endloop
 endfacet
 facet normal  0.000000e+00  1.000000e+00  0.000000e+00
   outer loop
     vertex -2.357870e-01 -1.350000e-01  2.365741e-01
     vertex -2.357870e-01 -1.350000e-01  2.345741e-01
     vertex -2.367870e-01 -1.350000e-01  2.343061e-01
   endloop
 endfacet
 facet normal  0.000000e+00  1.000000e+00  0.000000e+00
   outer loop
     vertex -2.377870e-01 -1.350000e-01  2.360382e-01
     vertex -2.367870e-01 -1.350000e-01  2.343061e-01
     vertex -2.375191e-01 -1.350000e-01  2.335741e-01
   endloop
 endfacet
 facet normal -0.000000e+00  1.000000e+00  0.000000e+00
   outer loop
     vertex -2.377870e-01 -1.350000e-01  2.360382e-01
     vertex -2.357870e-01 -1.350000e-01  2.365741e-01
     vertex -2.367870e-01 -1.350000e-01  2.343061e-01
   endloop
 endfacet
 facet normal  0.000000e+00  1.000000e+00  0.000000e+00
   outer loop
     vertex -2.392511e-01 -1.350000e-01  2.345741e-01
     vertex -2.377870e-01 -1.350000e-01  2.325741e-01
     vertex -2.397870e-01 -1.350000e-01  2.325741e-01
   endloop
 endfacet
 facet normal  0.000000e+00  1.000000e+00  0.000000e+00
   outer loop
     vertex -2.392511e-01 -1.350000e-01  2.345741e-01
     vertex -2.375191e-01 -1.350000e-01  2.335741e-01
     vertex -2.377870e-01 -1.350000e-01  2.325741e-01
   endloop
 endfacet
 facet normal -0.000000e+00  1.000000e+00  0.000000e+00
   outer loop
     vertex -2.392511e-01 -1.350000e-01  2.345741e-01
     vertex -2.377870e-01 -1.350000e-01  2.360382e-01
     vertex -2.375191e-01 -1.350000e-01  2.335741e-01
   endloop
 endfacet
 facet normal -2.588190e-01  0.000000e+00  9.659258e-01
   outer loop
     vertex -2.377870e-01 -1.700000e-01  2.360382e-01
     vertex -2.357870e-01 -1.700000e-01  2.365741e-01
     vertex -2.357870e-01 -1.350000e-01  2.365741e-01
   endloop
 endfacet
 facet normal -2.588190e-01  0.000000e+00  9.659258e-01
   outer loop
     vertex -2.377870e-01 -1.700000e-01  2.360382e-01
     vertex -2.357870e-01 -1.350000e-01  2.365741e-01
     vertex -2.377870e-01 -1.350000e-01  2.360382e-01
   endloop
 endfacet
 facet normal -7.071068e-01  0.000000e+00  7.071068e-01
   outer loop
     vertex -2.392511e-01 -1.700000e-01  2.345741e-01
     vertex -2.377870e-01 -1.350000e-01  2.360382e-01
     vertex -2.392511e-01 -1.350000e-01  2.345741e-01
   endloop
 endfacet
 facet normal -7.071068e-01  0.000000e+00  7.071068e-01
   outer loop
     vertex -2.392511e-01 -1.700000e-01  2.345741e-01
     vertex -2.377870e-01 -1.700000e-01  2.360382e-01
     vertex -2.377870e-01 -1.350000e-01  2.360382e-01
   endloop
 endfacet
 facet normal -9.659258e-01  0.000000e+00  2.588190e-01
   outer loop
     vertex -2.397870e-01 -1.700000e-01  2.325741e-01
     vertex -2.392511e-01 -1.350000e-01  2.345741e-01
     vertex -2.397870e-01 -1.350000e-01  2.325741e-01
   endloop
 endfacet
 facet normal -9.659258e-01  0.000000e+00  2.588190e-01
   outer loop
     vertex -2.397870e-01 -1.700000e-01  2.325741e-01
     vertex -2.392511e-01 -1.700000e-01  2.345741e-01
     vertex -2.392511e-01 -1.350000e-01  2.345741e-01
   endloop
 endfacet
 facet normal -1.000000e+00  0.000000e+00 -0.000000e+00
   outer loop
     vertex -2.397870e-01 -1.557000e-01  1.989301e-01
     vertex -2.397870e-01 -1.525000e-01  1.957301e-01
     vertex -2.397870e-01 -1.700000e-01  1.869301e-01
   endloop
 endfacet
 facet normal -1.000000e+00  0.000000e+00  0.000000e+00
   outer loop
     vertex -2.397870e-01 -1.350000e-01  1.869301e-01
     vertex -2.397870e-01 -1.525000e-01  1.957301e-01
     vertex -2.397870e-01 -1.493000e-01  1.989301e-01
   endloop
 endfacet
 facet normal -1.000000e+00  0.000000e+00  0.000000e+00
   outer loop
     vertex -2.397870e-01 -1.350000e-01  1.869301e-01
     vertex -2.397870e-01 -1.700000e-01  1.869301e-01
     vertex -2.397870e-01 -1.525000e-01  1.957301e-01
   endloop
 endfacet
 facet normal -1.000000e+00  0.000000e+00  0.000000e+00
   outer loop
     vertex -2.397870e-01 -1.700000e-01  2.325741e-01
     vertex -2.397870e-01 -1.557000e-01  1.989301e-01
     vertex -2.397870e-01 -1.700000e-01  1.869301e-01
   endloop
 endfacet
 facet normal -1.000000e+00  0.000000e+00  0.000000e+00
   outer loop
     vertex -2.397870e-01 -1.557000e-01  2.239301e-01
     vertex -2.397870e-01 -1.525000e-01  2.021301e-01
     vertex -2.397870e-01 -1.557000e-01  1.989301e-01
   endloop
 endfacet
 facet normal -1.000000e+00 -0.000000e+00 -0.000000e+00
   outer loop
     vertex -2.397870e-01 -1.557000e-01  2.239301e-01
     vertex -2.397870e-01 -1.557000e-01  1.989301e-01
     vertex -2.397870e-01 -1.700000e-01  2.325741e-01
   endloop
 endfacet
 facet normal -1.000000e+00  0.000000e+00  0.000000e+00
   outer loop
     vertex -2.397870e-01 -1.557000e-01  2.239301e-01
     vertex -2.397870e-01 -1.525000e-01  2.207301e-01
     vertex -2.397870e-01 -1.525000e-01  2.021301e-01
   endloop
 endfacet
 facet normal -1.000000e+00  0.000000e+00 -0.000000e+00
   outer loop
     vertex -2.397870e-01 -1.493000e-01  2.239301e-01
     vertex -2.397870e-01 -1.493000e-01  1.989301e-01
     vertex -2.397870e-01 -1.525000e-01  2.021301e-01
   endloop
 endfacet
 facet normal -1.000000e+00  0.000000e+00  0.000000e+00
   outer loop
     vertex -2.397870e-01 -1.493000e-01  2.239301e-01
     vertex -2.397870e-01 -1.525000e-01  2.021301e-01
     vertex -2.397870e-01 -1.525000e-01  2.207301e-01
   endloop
 endfacet
 facet normal -1.000000e+00 -0.000000e+00  0.000000e+00
   outer loop
     vertex -2.397870e-01 -1.525000e-01  2.271301e-01
     vertex -2.397870e-01 -1.557000e-01  2.239301e-01
     vertex -2.397870e-01 -1.700000e-01  2.325741e-01
   endloop
 endfacet
 facet normal -1.000000e+00  0.000000e+00  0.000000e+00
   outer loop
     vertex -2.397870e-01 -1.350000e-01  2.325741e-01
     vertex -2.397870e-01 -1.493000e-01  2.239301e-01
     vertex -2.397870e-01 -1.525000e-01  2.271301e-01
   endloop
 endfacet
 facet normal -1.000000e+00  0.000000e+00 -0.000000e+00
   outer loop
     vertex -2.397870e-01 -1.350000e-01  2.325741e-01
     vertex -2.397870e-01 -1.350000e-01  1.869301e-01
     vertex -2.397870e-01 -1.493000e-01  1.989301e-01
   endloop
 endfacet
 facet normal -1.000000e+00  0.000000e+00  0.000000e+00
   outer loop
     vertex -2.397870e-01 -1.350000e-01  2.325741e-01
     vertex -2.397870e-01 -1.493000e-01  1.989301e-01
     vertex -2.397870e-01 -1.493000e-01  2.239301e-01
   endloop
 endfacet
 facet normal -1.000000e+00 -0.000000e+00  0.000000e+00
   outer loop
     vertex -2.397870e-01 -1.350000e-01  2.325741e-01
     vertex -2.397870e-01 -1.525000e-01  2.271301e-01
     vertex -2.397870e-01 -1.700000e-01  2.325741e-01
   endloop
 endfacet
 facet normal  0.000000e+00 -1.000000e+00  0.000000e+00
   outer loop
     vertex -2.397870e-01 -1.700000e-01  2.325741e-01
     vertex -2.397870e-01 -1.700000e-01  1.869301e-01
     vertex -2.377870e-01 -1.700000e-01  1.869301e-01
   endloop
 endfacet
 facet normal  0.000000e+00 -1.000000e+00  0.000000e+00
   outer loop
     vertex -2.397870e-01 -1.700000e-01  2.325741e-01
     vertex -2.377870e-01 -1.700000e-01  1.869301e-01
     vertex -2.377870e-01 -1.700000e-01  2.325741e-01
   endloop
 endfacet
 facet normal  0.000000e+00 -1.000000e+00  0.000000e+00
   outer loop
     vertex -2.397870e-01 -1.700000e-01  2.325741e-01
     vertex -2.377870e-01 -1.700000e-01  2.325741e-01
     vertex -2.375191e-01 -1.700000e-01  2.335741e-01
   endloop
 endfacet
 facet normal  0.000000e+00 -1.000000e+00  0.000000e+00
   outer loop
     vertex -2.377870e-01 -1.700000e-01  2.360382e-01
     vertex -2.357870e-01 -1.700000e-01  2.345741e-01
     vertex -2.357870e-01 -1.700000e-01  2.365741e-01
   endloop
 endfacet
 facet normal  0.000000e+00 -1.000000e+00  0.000000e+00
   outer loop
     vertex -2.377870e-01 -1.700000e-01  2.360382e-01
     vertex -2.367870e-01 -1.700000e-01  2.343061e-01
     vertex -2.357870e-01 -1.700000e-01  2.345741e-01
   endloop
 endfacet
 facet normal  0.000000e+00 -1.000000e+00  0.000000e+00
   outer loop
     vertex -2.392511e-01 -1.700000e-01  2.345741e-01
     vertex -2.375191e-01 -1.700000e-01  2.335741e-01
     vertex -2.367870e-01 -1.700000e-01  2.343061e-01
   endloop
 endfacet
 facet normal  0.000000e+00 -1.000000e+00 -0.000000e+00
   outer loop
     vertex -2.392511e-01 -1.700000e-01  2.345741e-01
     vertex -2.397870e-01 -1.700000e-01  2.325741e-01
     vertex -2.375191e-01 -1.700000e-01  2.335741e-01
   endloop
 endfacet
 facet normal  0.000000e+00 -1.000000e+00  0.000000e+00
   outer loop
     vertex -2.392511e-01 -1.700000e-01  2.345741e-01
     vertex -2.367870e-01 -1.700000e-01  2.343061e-01
     vertex -2.377870e-01 -1.700000e-01  2.360382e-01
   endloop
 endfacet
 facet normal  2.588190e-01  0.000000e+00 -9.659258e-01
   outer loop
     vertex -2.367870e-01 -1.700000e-01  2.343061e-01
     vertex -2.357870e-01 -1.350000e-01  2.345741e-01
     vertex -2.357870e-01 -1.700000e-01  2.345741e-01
   endloop
 endfacet
 facet normal  2.588190e-01  0.000000e+00 -9.659258e-01
   outer loop
     vertex -2.367870e-01 -1.700000e-01  2.343061e-01
     vertex -2.367870e-01 -1.350000e-01  2.343061e-01
     vertex -2.357870e-01 -1.350000e-01  2.345741e-01
   endloop
 endfacet
 facet normal  7.071068e-01  0.000000e+00 -7.071068e-01
   outer loop
     vertex -2.375191e-01 -1.700000e-01  2.335741e-01
     vertex -2.375191e-01 -1.350000e-01  2.335741e-01
     vertex -2.367870e-01 -1.350000e-01  2.343061e-01
   endloop
 endfacet
 facet normal  7.071068e-01  0.000000e+00 -7.071068e-01
   outer loop
     vertex -2.375191e-01 -1.700000e-01  2.335741e-01
     vertex -2.367870e-01 -1.350000e-01  2.343061e-01
     vertex -2.367870e-01 -1.700000e-01  2.343061e-01
   endloop
 endfacet
 facet normal  9.659258e-01  0.000000e+00 -2.588190e-01
   outer loop
     vertex -2.377870e-01 -1.700000e-01  2.325741e-01
     vertex -2.377870e-01 -1.350000e-01  2.325741e-01
     vertex -2.375191e-01 -1.350000e-01  2.335741e-01
   endloop
 endfacet
 facet normal  9.659258e-01  0.000000e+00 -2.588190e-01
   outer loop
     vertex -2.377870e-01 -1.700000e-01  2.325741e-01
     vertex -2.375191e-01 -1.350000e-01  2.335741e-01
     vertex -2.375191e-01 -1.700000e-01  2.335741e-01
   endloop
 endfacet
 facet normal  1.000000e+00  0.000000e+00  0.000000e+00
   outer loop
     vertex -2.377870e-01 -1.557000e-01  1.989301e-01
     vertex -2.377870e-01 -1.700000e-01  1.869301e-01
     vertex -2.377870e-01 -1.525000e-01  1.957301e-01
   endloop
 endfacet
 facet normal  1.000000e+00  0.000000e+00  0.000000e+00
   outer loop
     vertex -2.377870e-01 -1.350000e-01  1.869301e-01
     vertex -2.377870e-01 -1.493000e-01  1.989301e-01
     vertex -2.377870e-01 -1.525000e-01  1.957301e-01
   endloop
 endfacet
 facet normal  1.000000e+00  0.000000e+00  0.000000e+00
   outer loop
     vertex -2.377870e-01 -1.350000e-01  1.869301e-01
     vertex -2.377870e-01 -1.525000e-01  1.957301e-01
     vertex -2.377870e-01 -1.700000e-01  1.869301e-01
   endloop
 endfacet
 facet normal  1.000000e+00  0.000000e+00  0.000000e+00
   outer loop
     vertex -2.377870e-01 -1.700000e-01  2.325741e-01
     vertex -2.377870e-01 -1.700000e-01  1.869301e-01
     vertex -2.377870e-01 -1.557000e-01  1.989301e-01
   endloop
 endfacet
 facet normal  1.000000e+00  0.000000e+00  0.000000e+00
   outer loop
     vertex -2.377870e-01 -1.557000e-01  2.239301e-01
     vertex -2.377870e-01 -1.557000e-01  1.989301e-01
     vertex -2.377870e-01 -1.525000e-01  2.021301e-01
   endloop
 endfacet
 facet normal  1.000000e+00  0.000000e+00  0.000000e+00
   outer loop
     vertex -2.377870e-01 -1.557000e-01  2.239301e-01
     vertex -2.377870e-01 -1.700000e-01  2.325741e-01
     vertex -2.377870e-01 -1.557000e-01  1.989301e-01
   endloop
 endfacet
 facet normal  1.000000e+00  0.000000e+00  0.000000e+00
   outer loop
     vertex -2.377870e-01 -1.557000e-01  2.239301e-01
     vertex -2.377870e-01 -1.525000e-01  2.021301e-01
     vertex -2.377870e-01 -1.525000e-01  2.207301e-01
   endloop
 endfacet
 facet normal  1.000000e+00  0.000000e+00  0.000000e+00
   outer loop
     vertex -2.377870e-01 -1.493000e-01  2.239301e-01
     vertex -2.377870e-01 -1.525000e-01  2.021301e-01
     vertex -2.377870e-01 -1.493000e-01  1.989301e-01
   endloop
 endfacet
 facet normal  1.000000e+00  0.000000e+00  0.000000e+00
   outer loop
     vertex -2.377870e-01 -1.493000e-01  2.239301e-01
     vertex -2.377870e-01 -1.525000e-01  2.207301e-01
     vertex -2.377870e-01 -1.525000e-01  2.021301e-01
   endloop
 endfacet
 facet normal  1.000000e+00  0.000000e+00  0.000000e+00
   outer loop
     vertex -2.377870e-01 -1.525000e-01  2.271301e-01
     vertex -2.377870e-01 -1.700000e-01  2.325741e-01
     vertex -2.377870e-01 -1.557000e-01  2.239301e-01
   endloop
 endfacet
 facet normal  1.000000e+00  0.000000e+00  0.000000e+00
   outer loop
     vertex -2.377870e-01 -1.350000e-01  2.325741e-01
     vertex -2.377870e-01 -1.525000e-01  2.271301e-01
     vertex -2.377870e-01 -1.493000e-01  2.239301e-01
   endloop
 endfacet
 facet normal  1.000000e+00  0.000000e+00  0.000000e+00
   outer loop
     vertex -2.377870e-01 -1.350000e-01  2.325741e-01
     vertex -2.377870e-01 -1.493000e-01  1.989301e-01
     vertex -2.377870e-01 -1.350000e-01  1.869301e-01
   endloop
 endfacet
 facet normal  1.000000e+00  0.000000e+00  0.000000e+00
   outer loop
     vertex -2.377870e-01 -1.350000e-01  2.325741e-01
     vertex -2.377870e-01 -1.493000e-01  2.239301e-01
     vertex -2.377870e-01 -1.493000e-01  1.989301e-01
   endloop
 endfacet
 facet normal  1.000000e+00  0.000000e+00  0.000000e+00
   outer loop
     vertex -2.377870e-01 -1.350000e-01  2.325741e-01
     vertex -2.377870e-01 -1.700000e-01  2.325741e-01
     vertex -2.377870e-01 -1.525000e-01  2.271301e-01
   endloop
 endfacet
 facet normal  0.000000e+00  1.000000e+00  0.000000e+00
   outer loop
     vertex -2.397870e-01 -1.350000e-01  2.325741e-01
     vertex -2.377870e-01 -1.350000e-01  1.869301e-01
     vertex -2.397870e-01 -1.350000e-01  1.869301e-01
   endloop
 endfacet
 facet normal -0.000000e+00  1.000000e+00  0.000000e+00
   outer loop
     vertex -2.397870e-01 -1.350000e-01  2.325741e-01
     vertex -2.377870e-01 -1.350000e-01  2.325741e-01
     vertex -2.377870e-01 -1.350000e-01  1.869301e-01
   endloop
 endfacet
 facet normal  0.000000e+00 -0.000000e+00 -1.000000e+00
   outer loop
     vertex -2.377870e-01 -1.350000e-01  1.869301e-01
     vertex -2.377870e-01 -1.700000e-01  1.869301e-01
     vertex -2.397870e-01 -1.700000e-01  1.869301e-01
   endloop
 endfacet
 facet normal  0.000000e+00  0.000000e+00 -1.000000e+00
   outer loop
     vertex -2.397870e-01 -1.350000e-01  1.869301e-01
     vertex -2.377870e-01 -1.350000e-01  1.869301e-01
     vertex -2.397870e-01 -1.700000e-01  1.869301e-01
   endloop
 endfacet
 facet normal  0.000000e+00  7.071068e-01 -7.071068e-01
   outer loop
     vertex -2.397870e-01 -1.525000e-01  2.271301e-01
     vertex -2.377870e-01 -1.557000e-01  2.239301e-01
     vertex -2.397870e-01 -1.557000e-01  2.239301e-01
   endloop
 endfacet
 facet normal  0.000000e+00  7.071068e-01 -7.071068e-01
   outer loop
     vertex -2.397870e-01 -1.525000e-01  2.271301e-01
     vertex -2.377870e-01 -1.525000e-01  2.271301e-01
     vertex -2.377870e-01 -1.557000e-01  2.239301e-01
   endloop
 endfacet
 facet normal  0.000000e+00 -7.071068e-01 -7.071068e-01
   outer loop
     vertex -2.397870e-01 -1.493000e-01  2.239301e-01
     vertex -2.377870e-01 -1.493000e-01  2.239301e-01
     vertex -2.377870e-01 -1.525000e-01  2.271301e-01
   endloop
 endfacet
 facet normal  0.000000e+00 -7.071068e-01 -7.071068e-01
   outer loop
     vertex -2.397870e-01 -1.493000e-01  2.239301e-01
     vertex -2.377870e-01 -1.525000e-01  2.271301e-01
     vertex -2.397870e-01 -1.525000e-01  2.271301e-01
   endloop
 endfacet
 facet normal  0.000000e+00 -7.071068e-01  7.071068e-01
   outer loop
     vertex -2.397870e-01 -1.525000e-01  2.207301e-01
     vertex -2.377870e-01 -1.525000e-01  2.207301e-01
     vertex -2.377870e-01 -1.493000e-01  2.239301e-01
   endloop
 endfacet
 facet normal  0.000000e+00 -7.071068e-01  7.071068e-01
   outer loop
     vertex -2.397870e-01 -1.525000e-01  2.207301e-01
     vertex -2.377870e-01 -1.493000e-01  2.239301e-01
     vertex -2.397870e-01 -1.493000e-01  2.239301e-01
   endloop
 endfacet
 facet normal -0.000000e+00  7.071068e-01  7.071068e-01
   outer loop
     vertex -2.397870e-01 -1.557000e-01  2.239301e-01
     vertex -2.377870e-01 -1.557000e-01  2.239301e-01
     vertex -2.377870e-01 -1.525000e-01  2.207301e-01
   endloop
 endfacet
 facet normal  0.000000e+00  7.071068e-01  7.071068e-01
   outer loop
     vertex -2.397870e-01 -1.557000e-01  2.239301e-01
     vertex -2.377870e-01 -1.525000e-01  2.207301e-01
     vertex -2.397870e-01 -1.525000e-01  2.207301e-01
   endloop
 endfacet
 facet normal  0.000000e+00  7.071068e-01 -7.071068e-01
   outer loop
     vertex -2.397870e-01 -1.525000e-01  2.021301e-01
     vertex -2.377870e-01 -1.557000e-01  1.989301e-01
     vertex -2.397870e-01 -1.557000e-01  1.989301e-01
   endloop
 endfacet
 facet normal  0.000000e+00  7.071068e-01 -7.071068e-01
   outer loop
     vertex -2.397870e-01 -1.525000e-01  2.021301e-01
     vertex -2.377870e-01 -1.525000e-01  2.021301e-01
     vertex -2.377870e-01 -1.557000e-01  1.989301e-01
   endloop
 endfacet
 facet normal  0.000000e+00 -7.071068e-01 -7.071068e-01
   outer loop
     vertex -2.397870e-01 -1.493000e-01  1.989301e-01
     vertex -2.377870e-01 -1.493000e-01  1.989301e-01
     vertex -2.377870e-01 -1.525000e-01  2.021301e-01
   endloop
 endfacet
 facet normal  0.000000e+00 -7.071068e-01 -7.071068e-01
   outer loop
     vertex -2.397870e-01 -1.493000e-01  1.989301e-01
     vertex -2.377870e-01 -1.525000e-01  2.021301e-01
     vertex -2.397870e-01 -1.525000e-01  2.021301e-01
   endloop
 endfacet
 facet normal  0.000000e+00 -7.071068e-01  7.071068e-01
   outer loop
     vertex -2.397870e-01 -1.525000e-01  1.957301e-01
     vertex -2.377870e-01 -1.525000e-01  1.957301e-01
     vertex -2.377870e-01 -1.493000e-01  1.989301e-01
   endloop
 endfacet
 facet normal  0.000000e+00 -7.071068e-01  7.071068e-01
   outer loop
     vertex -2.397870e-01 -1.525000e-01  1.957301e-01
     vertex -2.377870e-01 -1.493000e-01  1.989301e-01
     vertex -2.397870e-01 -1.493000e-01  1.989301e-01
   endloop
 endfacet
 facet normal -0.000000e+00  7.071068e-01  7.071068e-01
   outer loop
     vertex -2.397870e-01 -1.557000e-01  1.989301e-01
     vertex -2.377870e-01 -1.557000e-01  1.989301e-01
     vertex -2.377870e-01 -1.525000e-01  1.957301e-01
   endloop
 endfacet
 facet normal  0.000000e+00  7.071068e-01  7.071068e-01
   outer loop
     vertex -2.397870e-01 -1.557000e-01  1.989301e-01
     vertex -2.377870e-01 -1.525000e-01  1.957301e-01
     vertex -2.397870e-01 -1.525000e-01  1.957301e-01
   endloop
 endfacet
 facet normal -0.000000e+00  0.000000e+00 -1.000000e+00
   outer loop
     vertex  2.360000e-01 -1.350000e-01  2.345741e-01
     vertex -2.357870e-01 -1.700000e-01  2.345741e-01
     vertex -2.357870e-01 -1.350000e-01  2.345741e-01
   endloop
 endfacet
 facet normal  0.000000e+00 -0.000000e+00 -1.000000e+00
   outer loop
     vertex  2.360000e-01 -1.350000e-01  2.345741e-01
     vertex  2.360000e-01 -1.700000e-01  2.345741e-01
     vertex -2.357870e-01 -1.700000e-01  2.345741e-01
   endloop
 endfacet
 facet normal -9.659258e-01  0.000000e+00 -2.588190e-01
   outer loop
     vertex  2.377321e-01 -1.700000e-01  2.335741e-01
     vertex  2.380000e-01 -1.350000e-01  2.325741e-01
     vertex  2.380000e-01 -1.700000e-01  2.325741e-01
   endloop
 endfacet
 facet normal -9.659258e-01  0.000000e+00 -2.588190e-01
   outer loop
     vertex  2.377321e-01 -1.700000e-01  2.335741e-01
     vertex  2.377321e-01 -1.350000e-01  2.335741e-01
     vertex  2.380000e-01 -1.350000e-01  2.325741e-01
   endloop
 endfacet
 facet normal -7.071068e-01  0.000000e+00 -7.071068e-01
   outer loop
     vertex  2.370000e-01 -1.700000e-01  2.343061e-01
     vertex  2.370000e-01 -1.350000e-01  2.343061e-01
     vertex  2.377321e-01 -1.350000e-01  2.335741e-01
   endloop
 endfacet
 facet normal -7.071068e-01  0.000000e+00 -7.071068e-01
   outer loop
     vertex  2.370000e-01 -1.700000e-01  2.343061e-01
     vertex  2.377321e-01 -1.350000e-01  2.335741e-01
     vertex  2.377321e-01 -1.700000e-01  2.335741e-01
   endloop
 endfacet
 facet normal -2.588190e-01  0.000000e+00 -9.659258e-01
   outer loop
     vertex  2.360000e-01 -1.700000e-01  2.345741e-01
     vertex  2.360000e-01 -1.350000e-01  2.345741e-01
     vertex  2.370000e-01 -1.350000e-01  2.343061e-01
   endloop
 endfacet
 facet normal -2.588190e-01  0.000000e+00 -9.659258e-01
   outer loop
     vertex  2.360000e-01 -1.700000e-01  2.345741e-01
     vertex  2.370000e-01 -1.350000e-01  2.343061e-01
     vertex  2.370000e-01 -1.700000e-01  2.343061e-01
   endloop
 endfacet
 facet normal -1.000000e+00  0.000000e+00  0.000000e+00
   outer loop
     vertex  2.380000e-01 -1.557000e-01  2.239301e-01
     vertex  2.380000e-01 -1.700000e-01  2.325741e-01
     vertex  2.380000e-01 -1.525000e-01  2.271301e-01
   endloop
 endfacet
 facet normal -1.000000e+00  0.000000e+00  0.000000e+00
   outer loop
     vertex  2.380000e-01 -1.350000e-01  2.325741e-01
     vertex  2.380000e-01 -1.493000e-01  2.239301e-01
     vertex  2.380000e-01 -1.525000e-01  2.271301e-01
   endloop
 endfacet
 facet normal -1.000000e+00 -0.000000e+00  0.000000e+00
   outer loop
     vertex  2.380000e-01 -1.350000e-01  2.325741e-01
     vertex  2.380000e-01 -1.525000e-01  2.271301e-01
     vertex  2.380000e-01 -1.700000e-01  2.325741e-01
   endloop
 endfacet
 facet normal -1.000000e+00 -0.000000e+00  0.000000e+00
   outer loop
     vertex  2.380000e-01 -1.557000e-01  1.989301e-01
     vertex  2.380000e-01 -1.700000e-01  1.869301e-01
     vertex  2.380000e-01 -1.700000e-01  2.325741e-01
   endloop
 endfacet
 facet normal -1.000000e+00  0.000000e+00  0.000000e+00
   outer loop
     vertex  2.380000e-01 -1.557000e-01  1.989301e-01
     vertex  2.380000e-01 -1.557000e-01  2.239301e-01
     vertex  2.380000e-01 -1.525000e-01  2.207301e-01
   endloop
 endfacet
 facet normal -1.000000e+00  0.000000e+00  0.000000e+00
   outer loop
     vertex  2.380000e-01 -1.557000e-01  1.989301e-01
     vertex  2.380000e-01 -1.700000e-01  2.325741e-01
     vertex  2.380000e-01 -1.557000e-01  2.239301e-01
   endloop
 endfacet
 facet normal -1.000000e+00  0.000000e+00  0.000000e+00
   outer loop
     vertex  2.380000e-01 -1.557000e-01  1.989301e-01
     vertex  2.380000e-01 -1.525000e-01  2.207301e-01
     vertex  2.380000e-01 -1.525000e-01  2.021301e-01
   endloop
 endfacet
 facet normal -1.000000e+00  0.000000e+00  0.000000e+00
   outer loop
     vertex  2.380000e-01 -1.493000e-01  1.989301e-01
     vertex  2.380000e-01 -1.525000e-01  2.207301e-01
     vertex  2.380000e-01 -1.493000e-01  2.239301e-01
   endloop
 endfacet
 facet normal -1.000000e+00  0.000000e+00  0.000000e+00
   outer loop
     vertex  2.380000e-01 -1.493000e-01  1.989301e-01
     vertex  2.380000e-01 -1.493000e-01  2.239301e-01
     vertex  2.380000e-01 -1.350000e-01  2.325741e-01
   endloop
 endfacet
 facet normal -1.000000e+00  0.000000e+00  0.000000e+00
   outer loop
     vertex  2.380000e-01 -1.493000e-01  1.989301e-01
     vertex  2.380000e-01 -1.525000e-01  2.021301e-01
     vertex  2.380000e-01 -1.525000e-01  2.207301e-01
   endloop
 endfacet
 facet normal -1.000000e+00 -0.000000e+00  0.000000e+00
   outer loop
     vertex  2.380000e-01 -1.525000e-01  1.957301e-01
     vertex  2.380000e-01 -1.700000e-01  1.869301e-01
     vertex  2.380000e-01 -1.557000e-01  1.989301e-01
   endloop
 endfacet
 facet normal -1.000000e+00  0.000000e+00  0.000000e+00
   outer loop
     vertex  2.380000e-01 -1.350000e-01  1.869301e-01
     vertex  2.380000e-01 -1.525000e-01  1.957301e-01
     vertex  2.380000e-01 -1.493000e-01  1.989301e-01
   endloop
 endfacet
 facet normal -1.000000e+00  0.000000e+00  0.000000e+00
   outer loop
     vertex  2.380000e-01 -1.350000e-01  1.869301e-01
     vertex  2.380000e-01 -1.493000e-01  1.989301e-01
     vertex  2.380000e-01 -1.350000e-01  2.325741e-01
   endloop
 endfacet
 facet normal -1.000000e+00  0.000000e+00  0.000000e+00
   outer loop
     vertex  2.380000e-01 -1.350000e-01  1.869301e-01
     vertex  2.380000e-01 -1.700000e-01  1.869301e-01
     vertex  2.380000e-01 -1.525000e-01  1.957301e-01
   endloop
 endfacet
 facet normal  0.000000e+00  7.071068e-01 -7.071068e-01
   outer loop
     vertex  2.380000e-01 -1.525000e-01  2.271301e-01
     vertex  2.400000e-01 -1.557000e-01  2.239301e-01
     vertex  2.380000e-01 -1.557000e-01  2.239301e-01
   endloop
 endfacet
 facet normal  0.000000e+00  7.071068e-01 -7.071068e-01
   outer loop
     vertex  2.380000e-01 -1.525000e-01  2.271301e-01
     vertex  2.400000e-01 -1.525000e-01  2.271301e-01
     vertex  2.400000e-01 -1.557000e-01  2.239301e-01
   endloop
 endfacet
 facet normal  0.000000e+00 -7.071068e-01 -7.071068e-01
   outer loop
     vertex  2.380000e-01 -1.493000e-01  2.239301e-01
     vertex  2.400000e-01 -1.493000e-01  2.239301e-01
     vertex  2.400000e-01 -1.525000e-01  2.271301e-01
   endloop
 endfacet
 facet normal  0.000000e+00 -7.071068e-01 -7.071068e-01
   outer loop
     vertex  2.380000e-01 -1.493000e-01  2.239301e-01
     vertex  2.400000e-01 -1.525000e-01  2.271301e-01
     vertex  2.380000e-01 -1.525000e-01  2.271301e-01
   endloop
 endfacet
 facet normal  0.000000e+00 -7.071068e-01  7.071068e-01
   outer loop
     vertex  2.380000e-01 -1.525000e-01  2.207301e-01
     vertex  2.400000e-01 -1.525000e-01  2.207301e-01
     vertex  2.400000e-01 -1.493000e-01  2.239301e-01
   endloop
 endfacet
 facet normal  0.000000e+00 -7.071068e-01  7.071068e-01
   outer loop
     vertex  2.380000e-01 -1.525000e-01  2.207301e-01
     vertex  2.400000e-01 -1.493000e-01  2.239301e-01
     vertex  2.380000e-01 -1.493000e-01  2.239301e-01
   endloop
 endfacet
 facet normal -0.000000e+00  7.071068e-01  7.071068e-01
   outer loop
     vertex  2.380000e-01 -1.557000e-01  2.239301e-01
     vertex  2.400000e-01 -1.557000e-01  2.239301e-01
     vertex  2.400000e-01 -1.525000e-01  2.207301e-01
   endloop
 endfacet
 facet normal  0.000000e+00  7.071068e-01  7.071068e-01
   outer loop
     vertex  2.380000e-01 -1.557000e-01  2.239301e-01
     vertex  2.400000e-01 -1.525000e-01  2.207301e-01
     vertex  2.380000e-01 -1.525000e-01  2.207301e-01
   endloop
 endfacet
 facet normal  0.000000e+00  7.071068e-01 -7.071068e-01
   outer loop
     vertex  2.380000e-01 -1.525000e-01  2.021301e-01
     vertex  2.400000e-01 -1.557000e-01  1.989301e-01
     vertex  2.380000e-01 -1.557000e-01  1.989301e-01
   endloop
 endfacet
 facet normal  0.000000e+00  7.071068e-01 -7.071068e-01
   outer loop
     vertex  2.380000e-01 -1.525000e-01  2.021301e-01
     vertex  2.400000e-01 -1.525000e-01  2.021301e-01
     vertex  2.400000e-01 -1.557000e-01  1.989301e-01
   endloop
 endfacet
 facet normal  0.000000e+00 -7.071068e-01 -7.071068e-01
   outer loop
     vertex  2.380000e-01 -1.493000e-01  1.989301e-01
     vertex  2.400000e-01 -1.493000e-01  1.989301e-01
     vertex  2.400000e-01 -1.525000e-01  2.021301e-01
   endloop
 endfacet
 facet normal  0.000000e+00 -7.071068e-01 -7.071068e-01
   outer loop
     vertex  2.380000e-01 -1.493000e-01  1.989301e-01
     vertex  2.400000e-01 -1.525000e-01  2.021301e-01
     vertex  2.380000e-01 -1.525000e-01  2.021301e-01
   endloop
 endfacet
 facet normal  0.000000e+00 -7.071068e-01  7.071068e-01
   outer loop
     vertex  2.380000e-01 -1.525000e-01  1.957301e-01
     vertex  2.400000e-01 -1.525000e-01  1.957301e-01
     vertex  2.400000e-01 -1.493000e-01  1.989301e-01
   endloop
 endfacet
 facet normal  0.000000e+00 -7.071068e-01  7.071068e-01
   outer loop
     vertex  2.380000e-01 -1.525000e-01  1.957301e-01
     vertex  2.400000e-01 -1.493000e-01  1.989301e-01
     vertex  2.380000e-01 -1.493000e-01  1.989301e-01
   endloop
 endfacet
 facet normal -0.000000e+00  7.071068e-01  7.071068e-01
   outer loop
     vertex  2.380000e-01 -1.557000e-01  1.989301e-01
     vertex  2.400000e-01 -1.557000e-01  1.989301e-01
     vertex  2.400000e-01 -1.525000e-01  1.957301e-01
   endloop
 endfacet
 facet normal  0.000000e+00  7.071068e-01  7.071068e-01
   outer loop
     vertex  2.380000e-01 -1.557000e-01  1.989301e-01
     vertex  2.400000e-01 -1.525000e-01  1.957301e-01
     vertex  2.380000e-01 -1.525000e-01  1.957301e-01
   endloop
 endfacet
endsolid
